<?xml version="1.0" encoding="UTF-8" standalone="no"?>
<!-- Created with Inkscape (http://www.inkscape.org/) -->

<svg
   xmlns:dc="http://purl.org/dc/elements/1.1/"
   xmlns:cc="http://creativecommons.org/ns#"
   xmlns:rdf="http://www.w3.org/1999/02/22-rdf-syntax-ns#"
   xmlns:svg="http://www.w3.org/2000/svg"
   xmlns="http://www.w3.org/2000/svg"
   xmlns:inkscape="http://www.inkscape.org/namespaces/inkscape"
   version="1.1"
   width="426.08124"
   height="809.60376"
   viewbox="0 0 426 809"
   preserveAspectRatio="xMinYMin meet"
   id="svg2"
  ><metadata
     id="metadata8"><rdf:RDF><cc:Work
         rdf:about=""><dc:format>image/svg+xml</dc:format><dc:type
           rdf:resource="http://purl.org/dc/dcmitype/StillImage" /></cc:Work></rdf:RDF></metadata><defs
     id="defs6"><clipPath
       id="clipPath18"><path
         d="m 0,647.683 340.865,0 L 340.865,0 0,0 0,647.683 z"
         inkscape:connector-curvature="0"
         id="path20" /></clipPath></defs><g
     transform="matrix(1.25,0,0,-1.25,0,809.60375)"
     id="g10"><path
       d="m 177.588,145.601 -18.703,0 0,32.537 18.703,0 0,-32.537 z"
       inkscape:connector-curvature="0"
       id="path12"
       style="fill:#6ca7b9;fill-opacity:1;fill-rule:nonzero;stroke:none" /><g
       id="g14"><g
         clip-path="url(#clipPath18)"
         id="g16"><g
           transform="translate(100.8558,244.1052)"
           id="g22"><path
             d="m 0,0 c -6.13,-15.942 -16.745,-26.694 -23.708,-24.016 -6.963,2.677 -7.639,17.771 -1.509,33.713 6.13,15.941 16.745,26.694 23.708,24.016 C 5.455,31.036 6.13,15.942 0,0"
             inkscape:connector-curvature="0"
             id="path24"
             style="fill:#6ca7b9;fill-opacity:1;fill-rule:nonzero;stroke:none" /></g><g
           transform="translate(238.0647,243.5274)"
           id="g26"><path
             d="m 0,0 c 6.253,-16.261 16.967,-27.272 23.93,-24.594 6.964,2.678 7.54,18.03 1.287,34.291 C 18.964,25.958 8.25,36.969 1.287,34.291 -5.677,31.613 -6.253,16.261 0,0"
             inkscape:connector-curvature="0"
             id="path28"
             style="fill:#6ca7b9;fill-opacity:1;fill-rule:nonzero;stroke:none" /></g><g
           transform="translate(246.7999,277.2158)"
           id="g30"><path
             d="M 0,0 C 0,0 16.501,-23.676 19.371,-45.916 L -2.152,-46.634 -15.784,-10.762 0,0 z"
             inkscape:connector-curvature="0"
             id="path32"
             style="fill:#6ca7b9;fill-opacity:1;fill-rule:nonzero;stroke:none" /></g><g
           transform="translate(187.2523,285.1076)"
           id="g34"><path
             d="m 0,0 c 0,0 5.022,56.678 45.916,133.444 0,0 7.175,21.523 12.914,28.698 0,0 18.654,48.068 21.523,55.96 2.87,7.892 12.914,42.329 32.285,79.636 l 15.784,-4.304 c 0,0 -8.248,-38.742 -4.661,-61.7 3.587,-22.958 -8.61,-75.332 -35.516,-99.007 0,0 -5.739,-5.74 -4.304,-10.762 C 85.376,116.943 95.42,22.241 45.916,-27.98 L 0,0 z"
             inkscape:connector-curvature="0"
             id="path36"
             style="fill:#be4698;fill-opacity:1;fill-rule:nonzero;stroke:none" /></g><g
           transform="translate(295.2293,572.0843)"
           id="g38"><path
             d="m 0,0 c 0,0 4.006,9.454 3.933,12.372 -0.072,2.918 0.597,6.832 2.945,10.193 0,0 1.11,2.115 1.102,4.599 -0.009,2.483 0.963,8.572 1.573,11.678 0.61,3.107 0.451,13.289 -0.613,15.707 -1.064,2.418 -2.137,7.319 -1.154,10.303 0,0 0.797,3.045 0.606,4.348 -0.191,1.303 -1.393,7.694 4.511,6.163 0,0 3.17,-1.045 3.24,-3.342 0,0 0.893,2.083 2.914,1.314 0,0 3.046,-1.107 2.557,-3.22 0,0 3.439,1.968 5.07,-2.807 0,0 4.871,0.979 5.135,-3.552 0,0 5.619,0.112 3.625,-6.88 -1.84,-6.453 -7.837,-22.845 -7.837,-22.845 0,0 -3.562,-11.127 -3.672,-15.225 -0.11,-4.098 -1.648,-8.139 -3.253,-10.815 0,0 -2.004,-4.198 -3.451,-7.649 C 17.231,0.342 -0.093,0.031 0,0"
             inkscape:connector-curvature="0"
             id="path40"
             style="fill:#be4698;fill-opacity:1;fill-rule:nonzero;stroke:none" /></g><g
           transform="translate(88.6061,277.2158)"
           id="g42"><path
             d="M 0,0 C 0,0 -13.631,-26.541 -16.501,-48.782 L 2.152,-46.634 15.784,-10.762 0,0 z"
             inkscape:connector-curvature="0"
             id="path44"
             style="fill:#6ca7b9;fill-opacity:1;fill-rule:nonzero;stroke:none" /></g><g
           transform="translate(143.8491,285.1076)"
           id="g46"><path
             d="m 0,0 c 0,0 -5.022,56.678 -45.916,133.444 0,0 -7.175,21.523 -12.914,28.698 0,0 -18.654,48.068 -21.523,55.96 -2.87,7.892 -12.914,42.329 -32.285,79.636 l -15.784,-4.304 c 0,0 2.152,-22.959 -1.435,-45.917 -3.587,-22.958 -10.044,-52.373 41.612,-114.79 0,0 5.739,-5.74 4.304,-10.762 -1.435,-5.022 -11.479,-99.724 38.025,-149.945 L 0,0 z"
             inkscape:connector-curvature="0"
             id="path48"
             style="fill:#be4698;fill-opacity:1;fill-rule:nonzero;stroke:none" /></g><g
           transform="translate(142.4142,292.9995)"
           id="g50"><path
             d="M 0,0 C 0,16.642 10.921,30.133 24.393,30.133 37.865,30.133 48.786,16.642 48.786,0 48.786,-16.642 37.865,-30.133 24.393,-30.133 10.921,-30.133 0,-16.642 0,0"
             inkscape:connector-curvature="0"
             id="path52"
             style="fill:#373535;fill-opacity:1;fill-rule:nonzero;stroke:none" /></g><g
           transform="translate(177.5883,202.6019)"
           id="g54"><path
             d="m 0,0 -7.535,85.056 c 0,0 -18.836,0.63 -26.37,2.52 -7.535,1.89 -31.645,-3.78 -38.426,-20.161 0,0 -26.371,-18.272 -33.152,-41.583 0,0 3.337,-35.283 44.023,13.231 0,0 5.94,-14.491 -6.115,-30.872"
             inkscape:connector-curvature="0"
             id="path56"
             style="fill:#6ca7b9;fill-opacity:1;fill-rule:nonzero;stroke:none" /></g><g
           transform="translate(161.7658,202.6019)"
           id="g58"><path
             d="m 0,0 7.535,85.056 c 0,0 18.836,0.63 26.37,2.52 7.535,1.89 31.645,-3.78 38.426,-20.161 0,0 26.371,-18.272 33.152,-41.583 0,0 -2.26,-35.283 -42.946,13.231 0,0 -7.017,-14.491 5.038,-30.872"
             inkscape:connector-curvature="0"
             id="path60"
             style="fill:#6ca7b9;fill-opacity:1;fill-rule:nonzero;stroke:none" /></g><g
           transform="translate(86.6672,41.7464)"
           id="g62"><path
             d="m 0,0 c 0,0 74.303,2.854 83.065,115.471 l 0,50.181 c 0,0 -58.317,34.966 -86.979,-17.785 0,0 -48.601,-88.628 3.914,-147.867"
             inkscape:connector-curvature="0"
             id="path64"
             style="fill:#373535;fill-opacity:1;fill-rule:nonzero;stroke:none" /></g><g
           transform="translate(252.7965,41.7464)"
           id="g66"><path
             d="m 0,0 c 0,0 -74.303,2.854 -83.065,115.471 l 0,50.181 c 0,0 58.317,34.966 86.979,-17.785 C 3.914,147.867 52.515,59.239 0,0"
             inkscape:connector-curvature="0"
             id="path68"
             style="fill:#373535;fill-opacity:1;fill-rule:nonzero;stroke:none" /></g><g
           transform="translate(80.7846,41.2491)"
           id="g70"><path
             d="m 0,0 c 0,0 88.947,3.613 88.947,115.471 l 0,50.181 c 0,0 -62.446,32.872 -93.138,-19.879 0,0 -52.043,-86.534 4.191,-145.773"
             inkscape:connector-curvature="0"
             id="path72"
             style="fill:#6ca7b9;fill-opacity:1;fill-rule:nonzero;stroke:none" /></g><g
           transform="translate(258.679,41.2491)"
           id="g74"><path
             d="m 0,0 c 0,0 -88.947,3.613 -88.947,115.471 l 0,50.181 c 0,0 62.446,32.872 93.138,-19.879 C 4.191,145.773 56.234,59.239 0,0"
             inkscape:connector-curvature="0"
             id="path76"
             style="fill:#6ca7b9;fill-opacity:1;fill-rule:nonzero;stroke:none" /></g><g
           transform="translate(34.4622,578.0524)"
           id="g78"><path
             d="m 0,0 c 0,0 -2.596,3.486 -2.523,6.404 0.072,2.918 -0.597,6.832 -2.945,10.193 0,0 -1.11,2.115 -1.102,4.599 0.009,2.483 -0.963,8.571 -1.573,11.678 -0.611,3.107 -0.451,13.289 0.613,15.707 1.064,2.417 2.137,7.319 1.154,10.303 0,0 -0.797,3.045 -0.606,4.348 0.191,1.303 1.393,7.694 -4.511,6.163 0,0 -3.17,-1.045 -3.241,-3.342 0,0 -0.893,2.083 -2.913,1.314 0,0 -3.046,-1.107 -2.557,-3.22 0,0 -3.439,1.968 -5.07,-2.807 0,0 -4.871,0.979 -5.135,-3.552 0,0 -5.619,0.112 -3.625,-6.88 1.84,-6.454 7.837,-22.845 7.837,-22.845 0,0 3.562,-11.127 3.672,-15.225 0.11,-4.098 1.648,-8.14 3.253,-10.815 0,0 2.003,-4.198 3.45,-7.649 0,0 15.915,5.657 15.822,5.626"
             inkscape:connector-curvature="0"
             id="path80"
             style="fill:#be4698;fill-opacity:1;fill-rule:nonzero;stroke:none" /></g><g
           transform="translate(315.6067,112.1661)"
           id="g82"><path
             d="m 0,0 c -19.568,4.119 -30.639,10.541 -30.639,10.541 -49.95,46.298 -98.87,25.885 -98.87,25.885 0,0 -12.616,-5.369 -23.81,1.929 -11.194,7.299 -19.325,19.506 -50.857,22.854 -30.897,3.281 -51.237,-22.207 -51.237,-22.207 0,0 -6.179,0.184 -39.393,3.012 l 0,-126.007 L 0,-112.166 0,0 z"
             inkscape:connector-curvature="0"
             id="path84"
             style="fill:#ffffff;fill-opacity:1;fill-rule:nonzero;stroke:none" /></g><g
           transform="translate(315.6067,92.8329)"
           id="g86"><path
             d="m 0,0 c -19.541,1.335 -30.639,10.541 -30.639,10.541 -49.95,46.298 -98.87,25.885 -98.87,25.885 0,0 -12.616,-5.369 -23.81,1.929 -11.194,7.299 -19.325,19.506 -50.857,22.854 -30.897,3.281 -51.237,-14.308 -51.237,-14.308 0,0 -15.516,-13.648 -43.821,-5.69"
             inkscape:connector-curvature="0"
             id="path88"
             style="fill:#ffffff;fill-opacity:1;fill-rule:nonzero;stroke:#373535;stroke-width:1.04299998;stroke-linecap:butt;stroke-linejoin:miter;stroke-miterlimit:10;stroke-opacity:1;stroke-dasharray:none" /></g><g
           transform="translate(319.8305,72.664)"
           id="g90"><path
             d="m 0,0 c -20.19,1.908 -31.466,11.436 -31.466,11.436 -50.643,47.748 -101.722,28.775 -101.722,28.775 0,0 -13.175,-4.997 -24.594,2.627 -11.419,7.624 -19.557,20.066 -52.109,24.338 -31.896,4.186 -53.339,-12.802 -53.339,-12.802 0,0 -16.363,-13.188 -45.472,-4.403"
             inkscape:connector-curvature="0"
             id="path92"
             style="fill:#ffffff;fill-opacity:1;fill-rule:nonzero;stroke:#373535;stroke-width:1.06099999;stroke-linecap:butt;stroke-linejoin:miter;stroke-miterlimit:10;stroke-opacity:1;stroke-dasharray:none" /></g><g
           transform="translate(137.7695,216.78)"
           id="g94"><path
             d="m 0,0 c 0,0 31.962,-10.336 31.962,-45.179 0,0 6.153,38 31.963,45.179 0,0 -9.507,0.734 -31.35,-8.24 -21.843,-8.973 0,-1.432 0,-1.432 0,0 -17.177,11.721 -32.575,9.672"
             inkscape:connector-curvature="0"
             id="path96"
             style="fill:#373535;fill-opacity:1;fill-rule:nonzero;stroke:none" /></g><g
           transform="translate(142.5011,290.5266)"
           id="g98"><path
             d="m 0,0 c 0,0 13.884,-1.259 13.384,-8.259 -0.5,-7 -8.333,-11.833 -8.333,-11.833 0,0 -7.799,-3.971 -4.59,-13.307 3.494,-10.166 15.423,-17.693 40.59,-15.026 25.166,2.666 26.291,18.873 21.895,25.186 -4.395,6.314 -5.895,9.709 5.605,9.928 11.5,0.219 9.879,13.85 -7.167,15.056 C 48.551,2.653 48.16,8.79 48.16,8.79 L 0,0 z"
             inkscape:connector-curvature="0"
             id="path100"
             style="fill:#373535;fill-opacity:1;fill-rule:nonzero;stroke:none" /></g><g
           transform="translate(145.5902,216.7655)"
           id="g102"><path
             d="M 0,0 C 0,0 21.88,-5.582 51.525,0.689 L 25.045,-14.914 0,0 z"
             inkscape:connector-curvature="0"
             id="path104"
             style="fill:#373535;fill-opacity:1;fill-rule:nonzero;stroke:none" /></g><g
           transform="translate(18.7591,151.1681)"
           id="g106"><path
             d="M 0,0 -10.839,-50.248"
             inkscape:connector-curvature="0"
             id="path108"
             style="fill:#373535;fill-opacity:1;fill-rule:nonzero;stroke:#ffffff;stroke-width:6.25600004;stroke-linecap:butt;stroke-linejoin:miter;stroke-miterlimit:10;stroke-opacity:1;stroke-dasharray:none" /></g><g
           transform="translate(24.8289,151.1681)"
           id="g110"><path
             d="M 0,0 -10.839,-50.248"
             inkscape:connector-curvature="0"
             id="path112"
             style="fill:#373535;fill-opacity:1;fill-rule:nonzero;stroke:#ffffff;stroke-width:5.5079999;stroke-linecap:butt;stroke-linejoin:miter;stroke-miterlimit:10;stroke-opacity:1;stroke-dasharray:none" /></g><g
           transform="translate(30.8988,151.1681)"
           id="g114"><path
             d="M 0,0 -10.839,-50.248"
             inkscape:connector-curvature="0"
             id="path116"
             style="fill:#373535;fill-opacity:1;fill-rule:nonzero;stroke:#ffffff;stroke-width:4.76000023;stroke-linecap:butt;stroke-linejoin:miter;stroke-miterlimit:10;stroke-opacity:1;stroke-dasharray:none" /></g><g
           transform="translate(36.9686,151.1681)"
           id="g118"><path
             d="M 0,0 -10.839,-50.248"
             inkscape:connector-curvature="0"
             id="path120"
             style="fill:#373535;fill-opacity:1;fill-rule:nonzero;stroke:#ffffff;stroke-width:4.01200008;stroke-linecap:butt;stroke-linejoin:miter;stroke-miterlimit:10;stroke-opacity:1;stroke-dasharray:none" /></g><g
           transform="translate(43.0384,151.1681)"
           id="g122"><path
             d="M 0,0 -10.839,-50.248"
             inkscape:connector-curvature="0"
             id="path124"
             style="fill:#373535;fill-opacity:1;fill-rule:nonzero;stroke:#ffffff;stroke-width:3.26399994;stroke-linecap:butt;stroke-linejoin:miter;stroke-miterlimit:10;stroke-opacity:1;stroke-dasharray:none" /></g><g
           transform="translate(49.1082,151.1681)"
           id="g126"><path
             d="M 0,0 -10.839,-50.248"
             inkscape:connector-curvature="0"
             id="path128"
             style="fill:#373535;fill-opacity:1;fill-rule:nonzero;stroke:#ffffff;stroke-width:2.51600003;stroke-linecap:butt;stroke-linejoin:miter;stroke-miterlimit:10;stroke-opacity:1;stroke-dasharray:none" /></g><g
           transform="translate(55.1781,151.1681)"
           id="g130"><path
             d="M 0,0 -10.839,-50.248"
             inkscape:connector-curvature="0"
             id="path132"
             style="fill:#373535;fill-opacity:1;fill-rule:nonzero;stroke:#ffffff;stroke-width:1.76699996;stroke-linecap:butt;stroke-linejoin:miter;stroke-miterlimit:10;stroke-opacity:1;stroke-dasharray:none" /></g><g
           transform="translate(61.2479,151.1681)"
           id="g134"><path
             d="M 0,0 -10.839,-50.248"
             inkscape:connector-curvature="0"
             id="path136"
             style="fill:#373535;fill-opacity:1;fill-rule:nonzero;stroke:#ffffff;stroke-width:1.01900005;stroke-linecap:butt;stroke-linejoin:miter;stroke-miterlimit:10;stroke-opacity:1;stroke-dasharray:none" /></g><g
           transform="translate(326.9688,115.8008)"
           id="g138"><path
             d="M 0,0 10.839,-50.248"
             inkscape:connector-curvature="0"
             id="path140"
             style="fill:#373535;fill-opacity:1;fill-rule:nonzero;stroke:#ffffff;stroke-width:6.25600004;stroke-linecap:butt;stroke-linejoin:miter;stroke-miterlimit:10;stroke-opacity:1;stroke-dasharray:none" /></g><g
           transform="translate(320.899,115.8008)"
           id="g142"><path
             d="M 0,0 10.839,-50.248"
             inkscape:connector-curvature="0"
             id="path144"
             style="fill:#373535;fill-opacity:1;fill-rule:nonzero;stroke:#ffffff;stroke-width:5.5079999;stroke-linecap:butt;stroke-linejoin:miter;stroke-miterlimit:10;stroke-opacity:1;stroke-dasharray:none" /></g><g
           transform="translate(314.8292,115.8008)"
           id="g146"><path
             d="M 0,0 10.839,-50.248"
             inkscape:connector-curvature="0"
             id="path148"
             style="fill:#373535;fill-opacity:1;fill-rule:nonzero;stroke:#ffffff;stroke-width:4.76000023;stroke-linecap:butt;stroke-linejoin:miter;stroke-miterlimit:10;stroke-opacity:1;stroke-dasharray:none" /></g><g
           transform="translate(308.7593,115.8008)"
           id="g150"><path
             d="M 0,0 10.839,-50.248"
             inkscape:connector-curvature="0"
             id="path152"
             style="fill:#373535;fill-opacity:1;fill-rule:nonzero;stroke:#ffffff;stroke-width:4.01200008;stroke-linecap:butt;stroke-linejoin:miter;stroke-miterlimit:10;stroke-opacity:1;stroke-dasharray:none" /></g><g
           transform="translate(302.6895,115.8008)"
           id="g154"><path
             d="M 0,0 10.839,-50.248"
             inkscape:connector-curvature="0"
             id="path156"
             style="fill:#373535;fill-opacity:1;fill-rule:nonzero;stroke:#ffffff;stroke-width:3.26399994;stroke-linecap:butt;stroke-linejoin:miter;stroke-miterlimit:10;stroke-opacity:1;stroke-dasharray:none" /></g><g
           transform="translate(296.6197,115.8008)"
           id="g158"><path
             d="M 0,0 10.839,-50.248"
             inkscape:connector-curvature="0"
             id="path160"
             style="fill:#373535;fill-opacity:1;fill-rule:nonzero;stroke:#ffffff;stroke-width:2.51600003;stroke-linecap:butt;stroke-linejoin:miter;stroke-miterlimit:10;stroke-opacity:1;stroke-dasharray:none" /></g><g
           transform="translate(290.5499,115.8008)"
           id="g162"><path
             d="M 0,0 10.839,-50.248"
             inkscape:connector-curvature="0"
             id="path164"
             style="fill:#373535;fill-opacity:1;fill-rule:nonzero;stroke:#ffffff;stroke-width:1.76699996;stroke-linecap:butt;stroke-linejoin:miter;stroke-miterlimit:10;stroke-opacity:1;stroke-dasharray:none" /></g><g
           transform="translate(284.48,115.8008)"
           id="g166"><path
             d="M 0,0 10.839,-50.248"
             inkscape:connector-curvature="0"
             id="path168"
             style="fill:#373535;fill-opacity:1;fill-rule:nonzero;stroke:#ffffff;stroke-width:1.01900005;stroke-linecap:butt;stroke-linejoin:miter;stroke-miterlimit:10;stroke-opacity:1;stroke-dasharray:none" /></g></g></g></g></svg>