<?xml version="1.0" encoding="UTF-8" standalone="no"?>
<!-- Created with Inkscape (http://www.inkscape.org/) -->

<svg
   xmlns:dc="http://purl.org/dc/elements/1.1/"
   xmlns:cc="http://creativecommons.org/ns#"
   xmlns:rdf="http://www.w3.org/1999/02/22-rdf-syntax-ns#"
   xmlns:svg="http://www.w3.org/2000/svg"
   xmlns="http://www.w3.org/2000/svg"
   xmlns:inkscape="http://www.inkscape.org/namespaces/inkscape"
   version="1.1"
   width="745.59875"
   height="563.2525"
   id="svg2"
   xml:space="preserve"><metadata
     id="metadata8"><rdf:RDF><cc:Work
         rdf:about=""><dc:format>image/svg+xml</dc:format><dc:type
           rdf:resource="http://purl.org/dc/dcmitype/StillImage" /></cc:Work></rdf:RDF></metadata><defs
     id="defs6"><clipPath
       id="clipPath16"><path
         d="m 0,450.602 596.479,0 L 596.479,0 0,0 0,450.602 z"
         inkscape:connector-curvature="0"
         id="path18" /></clipPath></defs><g
     transform="matrix(1.25,0,0,-1.25,0,563.2525)"
     id="g10"><g
       id="g12"><g
         clip-path="url(#clipPath16)"
         id="g14"><g
           transform="translate(79.5085,320.4059)"
           id="g20"><path
             d="m 0,0 c 2.143,9.903 5.355,19.769 6.622,29.679 1.268,9.91 1.663,22.582 -1.064,31.52 -3.616,11.848 -20.257,6.35 -29.457,1.388 -9.06,-4.887 -13.805,-15.651 -15.745,-25.412 -1.941,-9.761 -2.06,-19.739 -6.056,-29.18 -3.069,-7.251 -8.211,-13.653 -13.077,-20.058 -4.865,-6.405 -9.648,-13.172 -11.746,-20.62 -2.098,-7.448 -0.922,-15.783 4.696,-19.681 -7.249,-10.094 -8.091,-23.759 -2,-32.442 3.507,-4.999 9.154,-8.731 10.042,-15.111 0.453,-3.251 -0.432,-6.741 -1.099,-10.144 -0.667,-3.402 -1.1,-7 0.189,-9.886 1.289,-2.887 4.862,-4.68 8.042,-3.034 -0.856,-10.228 5.879,-19.339 15.504,-20.972 9.626,-1.633 21.222,4.368 26.695,13.813 3.738,6.452 4.629,13.755 5.085,20.73 C -0.972,-72.706 -7.974,-36.84 0,0"
             inkscape:connector-curvature="0"
             id="path22"
             style="fill:#373535;fill-opacity:1;fill-rule:nonzero;stroke:none" /></g><g
           transform="translate(79.5085,320.4059)"
           id="g24"><path
             d="m 0,0 c 2.143,9.903 5.355,19.769 6.622,29.679 1.268,9.91 1.663,22.582 -1.064,31.52 -3.616,11.848 -20.257,6.35 -29.457,1.388 -9.06,-4.887 -13.805,-15.651 -15.745,-25.412 -1.941,-9.761 -2.06,-19.739 -6.056,-29.18 -3.069,-7.251 -8.211,-13.653 -13.077,-20.058 -4.865,-6.405 -9.648,-13.172 -11.746,-20.62 -2.098,-7.448 -0.922,-15.783 4.696,-19.681 -7.249,-10.094 -8.091,-23.759 -2,-32.442 3.507,-4.999 9.154,-8.731 10.042,-15.111 0.453,-3.251 -0.432,-6.741 -1.099,-10.144 -0.667,-3.402 -1.1,-7 0.189,-9.886 1.289,-2.887 4.862,-4.68 8.042,-3.034 -0.856,-10.228 5.879,-19.339 15.504,-20.972 9.626,-1.633 21.222,4.368 26.695,13.813 3.738,6.452 4.629,13.755 5.085,20.73 C -0.972,-72.706 -7.974,-36.84 0,0 z"
             inkscape:connector-curvature="0"
             id="path26"
             style="fill:none;stroke:#373535;stroke-width:15.24499989;stroke-linecap:butt;stroke-linejoin:miter;stroke-miterlimit:10;stroke-opacity:1;stroke-dasharray:none" /></g><g
           transform="translate(87.374,150.3244)"
           id="g28"><path
             d="m 0,0 c 0,0 -35.649,-39.406 4.023,-87.527 39.672,-48.12 238.788,-23.147 261.395,143.582 0,0 -106.45,28.72 -198.147,-46.054 L 0,0 z"
             inkscape:connector-curvature="0"
             id="path30"
             style="fill:#33c4ed;fill-opacity:1;fill-rule:nonzero;stroke:none" /></g><g
           transform="translate(516.6944,62.8904)"
           id="g32"><path
             d="m 0,0 c 5.997,-5.053 9.127,-9.826 10.276,-12.209 1.023,-2.124 0.741,-4.642 0.977,-6.988 0.235,-2.346 0.767,-4.788 2.327,-6.556 1.51,-1.71 3.818,-2.559 6.094,-2.717 2.277,-0.158 4.548,0.308 6.761,0.865 7.086,1.782 14.254,4.549 21.474,3.431 3.175,-0.493 6.187,-1.722 9.318,-2.44 3.132,-0.718 6.583,-0.875 9.4,0.67 0.614,-1.251 1.32,-2.595 2.589,-3.172 1.27,-0.576 3.173,0.222 3.077,1.613 0.92,-1.114 2.874,-1.115 3.795,-0.002 0.92,1.113 0.553,3.033 -0.713,3.728 1.341,-0.813 3.375,0.337 3.371,1.904 -0.354,0.303 -0.707,0.607 -1.06,0.91 0.636,0.312 1.297,0.643 1.725,1.209 0.428,0.565 0.541,1.437 0.057,1.956 -0.217,0.232 -0.519,0.362 -0.811,0.487 -1.162,0.493 -2.324,0.987 -3.486,1.48 1.214,0.664 1.961,2.095 1.813,3.471 -0.149,1.376 -1.185,2.614 -2.512,3.003 -1.75,-2.248 -4.867,-3.067 -7.7,-2.771 -2.834,0.297 -5.472,1.534 -8.047,2.753 -9.62,4.554 -19.241,9.108 -28.862,13.662 -9.949,4.71 -15.549,8.891 -18.025,10.987 0,0 -76.331,71.625 -180.719,127.803 l -14.019,11.233 -3.564,-21.403 5.476,-41.429 c 0,0 5.478,-65.71 115.433,-61.231 0,0 24.625,-0.256 65.555,-30.247"
             inkscape:connector-curvature="0"
             id="path34"
             style="fill:#33c4ed;fill-opacity:1;fill-rule:nonzero;stroke:none" /></g><g
           transform="translate(74.4961,328.1253)"
           id="g36"><path
             d="M 0,0 C 0,8.606 6.977,15.583 15.583,15.583 24.19,15.583 31.166,8.606 31.166,0 31.166,-8.606 24.19,-15.583 15.583,-15.583 6.977,-15.583 0,-8.606 0,0"
             inkscape:connector-curvature="0"
             id="path38"
             style="fill:#2a2b2b;fill-opacity:1;fill-rule:nonzero;stroke:none" /></g><g
           transform="translate(125.1338,439.6335)"
           id="g40"><path
             d="m 0,0 c -1.669,6.771 -7.27,12.413 -20.755,10.638 -6.968,-0.917 -13.244,-7.775 -15.244,-14.144 -1.003,-3.194 -1.036,-6.183 -2.521,-9.185 -2.215,-4.475 -5.678,-8.098 -7.943,-12.644 -4.365,-8.764 -6.259,-19.215 -5.937,-29 0.37,-11.284 2.5,-25.223 8.861,-34.801 2.136,-3.216 5.654,-5.533 8.439,-8.177 3.156,-2.998 5.233,-4.407 9.533,-5.1 5.392,-0.868 13.112,-3.157 18.3,-1.084 3.431,1.371 5.278,4.485 7.196,7.445 1.781,2.748 2.651,5.283 3.894,8.273 1.296,3.117 4.756,5.785 5.516,8.982 1.419,5.967 1.434,12.863 1.585,19.065 0.351,14.525 -2.54,28.743 -6.701,42.592 C 3.002,-13.072 4.633,-0.733 0,0"
             inkscape:connector-curvature="0"
             id="path42"
             style="fill:#2a2b2b;fill-opacity:1;fill-rule:nonzero;stroke:none" /></g><g
           transform="translate(137.484,242.4763)"
           id="g44"><path
             d="M 0,0 C -4.983,29.968 6.434,56.833 25.5,60.003 44.566,63.173 64.063,41.449 69.046,11.481 74.029,-18.487 62.612,-45.352 43.546,-48.522 24.479,-51.692 4.983,-29.968 0,0"
             inkscape:connector-curvature="0"
             id="path46"
             style="fill:#f15d44;fill-opacity:1;fill-rule:nonzero;stroke:none" /></g><path
           d="m 115.113,125.393 -48.87,0 0,52.539 48.87,0 0,-52.539 z"
           inkscape:connector-curvature="0"
           id="path48"
           style="fill:#33c4ed;fill-opacity:1;fill-rule:nonzero;stroke:none" /><g
           transform="translate(61.1568,318.2862)"
           id="g50"><path
             d="m 0,0 c 0,0 -52.017,-20.711 15.24,-105.489 0,0 4.231,-23.798 -9.333,-48.666 l 95.826,-5.227 -18.086,62.17 C 83.647,-97.212 137.905,18.34 0,0"
             inkscape:connector-curvature="0"
             id="path52"
             style="fill:#30c3ea;fill-opacity:1;fill-rule:nonzero;stroke:none" /></g><g
           transform="translate(85.6799,378.3708)"
           id="g54"><path
             d="m 0,0 c 2.15,-2.789 3.805,-5.936 5.996,-8.692 3.732,-4.696 9.012,-8.142 14.814,-9.668 -1.734,-1.114 -3.607,-2.01 -5.562,-2.662 0.239,-1.021 1.755,-3.252 3.043,-3.527 -0.117,-0.979 -1.884,-1.745 -3.049,-2.095 0.69,-0.351 2.916,-0.557 3.606,-0.908 -0.847,-1.435 1.106,-4.322 1.622,-5.906 0.195,-0.601 0.577,-1.12 0.952,-1.628 1.041,-1.41 2.737,-2.823 0.744,-4.063 -1.544,-0.961 -3.283,-1.689 -4.954,-2.396 -3.465,-1.468 -7.188,-2.328 -10.532,-4.049 -17.129,-8.814 7.798,-47.402 -0.364,-33.657 -7.145,0.601 -26.891,16.844 -32.016,18.386 -0.239,0.072 14.167,7.667 4.75,19.292 -0.251,0.31 -2.481,-1.855 -2.458,-3.209 0.058,-3.332 -0.439,-0.162 -0.847,3.146 -0.217,1.753 -0.524,3.497 -0.656,5.259 -0.144,1.917 -0.079,3.842 -0.013,5.764 0.259,7.636 0.52,15.286 1.523,22.86 0.241,1.817 0.528,3.643 1.173,5.358 1.573,4.178 5.419,7.327 9.732,8.337 C -7.38,7.141 -3.015,3.912 0,0"
             inkscape:connector-curvature="0"
             id="path56"
             style="fill:#30c3ea;fill-opacity:1;fill-rule:nonzero;stroke:none" /></g><g
           transform="translate(140.5673,437.4871)"
           id="g58"><path
             d="m 0,0 c -4.13,-1.396 -8.612,0.171 -8.612,0.171 -21.581,11.291 -41.576,-12.532 -41.576,-12.532 l 4.63,-19.286 30.84,-29.703 9.61,4.372 c 5.577,-1.244 8.094,-13.008 8.094,-13.008 0,0 48.392,-1.786 41.002,0.71 -11.156,3.768 -15.912,6.753 -20.347,13.376 -5.895,8.147 -9.984,10.173 -9.984,10.173 -5.276,3.58 1.048,19.319 5.063,24.676 4.525,6.039 -0.354,8.811 -0.354,8.811 -4.911,1.135 -5.651,2.968 -5.651,2.968 L 9.041,-12.24 c 1.837,2.685 0.166,5.891 0.166,5.891 -4.77,-1.924 -5.355,0.164 -5.355,0.164 l 0.207,4.511 c 0,0 0.713,3.287 -4.059,1.674"
             inkscape:connector-curvature="0"
             id="path60"
             style="fill:#f15f40;fill-opacity:1;fill-rule:nonzero;stroke:none" /></g><g
           transform="translate(126.5921,424.7467)"
           id="g62"><path
             d="M 0,0 C 1.521,-0.155 3.147,0.771 3.6,2.231 4.054,3.692 3.084,5.489 1.575,5.736 2.333,4.33 1.687,2.35 0.247,1.661 -0.018,1.535 -0.304,1.445 -0.537,1.267 -0.77,1.089 -0.941,0.785 -0.855,0.505 -0.751,0.17 -0.35,0.036 0,0"
             inkscape:connector-curvature="0"
             id="path64"
             style="fill:#373535;fill-opacity:1;fill-rule:nonzero;stroke:none" /></g><g
           transform="translate(126.5921,424.7467)"
           id="g66"><path
             d="M 0,0 C 1.521,-0.155 3.147,0.771 3.6,2.231 4.054,3.692 3.084,5.489 1.575,5.736 2.333,4.33 1.687,2.35 0.247,1.661 -0.018,1.535 -0.304,1.445 -0.537,1.267 -0.77,1.089 -0.941,0.785 -0.855,0.505 -0.751,0.17 -0.35,0.036 0,0 z"
             inkscape:connector-curvature="0"
             id="path68"
             style="fill:none;stroke:#373535;stroke-width:1.24399996;stroke-linecap:butt;stroke-linejoin:miter;stroke-miterlimit:10;stroke-opacity:1;stroke-dasharray:none" /></g><g
           transform="translate(122.5797,434.8498)"
           id="g70"><path
             d="m 0,0 c -1.517,-0.463 -2.881,-1.413 -3.842,-2.675 -0.222,-0.293 -0.424,-0.602 -0.586,-0.932 -0.59,-1.197 -0.625,-2.614 -0.306,-3.909 0.314,-1.277 0.961,-2.469 1.861,-3.427 -0.135,-0.226 -0.478,-0.026 -0.642,0.18 -0.771,0.969 -1.495,1.998 -1.934,3.157 -0.439,1.159 -0.574,2.469 -0.163,3.638 0.517,1.472 1.802,2.522 3.061,3.444 0.565,0.413 1.143,0.821 1.792,1.084 0.238,0.097 0.518,0.17 0.742,0.045 C 0.208,0.481 0.246,0.075 0,0"
             inkscape:connector-curvature="0"
             id="path72"
             style="fill:#373535;fill-opacity:1;fill-rule:nonzero;stroke:none" /></g><g
           transform="translate(83.9841,361.1444)"
           id="g74"><path
             d="M 0,0 C 1.139,-1.02 2.998,-1.228 4.224,-0.315 5.45,0.599 5.724,2.623 4.649,3.711 4.434,2.128 2.748,0.907 1.177,1.198 0.889,1.251 0.605,1.348 0.312,1.341 0.019,1.333 -0.299,1.189 -0.394,0.912 -0.507,0.579 -0.262,0.235 0,0"
             inkscape:connector-curvature="0"
             id="path76"
             style="fill:#373535;fill-opacity:1;fill-rule:nonzero;stroke:none" /></g><g
           transform="translate(83.9841,361.1444)"
           id="g78"><path
             d="M 0,0 C 1.139,-1.02 2.998,-1.228 4.224,-0.315 5.45,0.599 5.724,2.623 4.649,3.711 4.434,2.128 2.748,0.907 1.177,1.198 0.889,1.251 0.605,1.348 0.312,1.341 0.019,1.333 -0.299,1.189 -0.394,0.912 -0.507,0.579 -0.262,0.235 0,0 z"
             inkscape:connector-curvature="0"
             id="path80"
             style="fill:none;stroke:#373535;stroke-width:1.24399996;stroke-linecap:butt;stroke-linejoin:miter;stroke-miterlimit:10;stroke-opacity:1;stroke-dasharray:none" /></g><g
           transform="translate(208.3671,238.6582)"
           id="g82"><path
             d="M 0,0 C 0,0 -15.493,-12.028 -25.788,-25.788 L 0.51,-3.16 0,0 z"
             inkscape:connector-curvature="0"
             id="path84"
             style="fill:#ffffff;fill-opacity:1;fill-rule:nonzero;stroke:none" /></g><g
           transform="translate(202.3477,361.8054)"
           id="g86"><path
             d="m 0,0 c 0,0 17.279,-2.511 9.261,-23.904 l -7.942,-30.354 -54.098,-77.995 -29.909,18.086 c 0,0 10.453,9.445 6.055,28.662 -4.398,19.216 -20.569,86.259 16.377,106.605 -14.718,-8.156 11.19,-1.884 46.704,-16.989 L 0,0 z"
             inkscape:connector-curvature="0"
             id="path88"
             style="fill:#f15f40;fill-opacity:1;fill-rule:nonzero;stroke:none" /></g><g
           transform="translate(189.3618,371.007)"
           id="g90"><path
             d="m 0,0 c -2.723,0.35 -5.681,1.042 -8.371,0.331 -0.906,-0.24 -1.768,-0.674 -2.682,-0.899 -1.038,-0.254 -2.144,-0.487 -1.899,-1.897 0.417,-2.401 4.554,-1.411 6.134,-1.392 0.694,0.009 1.255,-0.227 1.898,-0.412 0.554,-0.16 1.455,-0.043 1.951,-0.272 0.724,-0.335 0.502,-0.802 0.34,-1.596 -0.255,-1.245 -0.514,-2.384 -0.567,-3.669 -0.048,-1.169 -0.141,-2.686 0.895,-3.503 0.665,-0.524 1.987,-0.816 2.641,-0.323 1.433,1.081 0.537,5.318 2.401,5.81 0.073,-2.345 -1.506,-4.871 -1.94,-7.174 -0.494,-2.623 1.664,-3.69 3.47,-1.938 0.653,-1.052 1.84,-1.765 3.109,-0.931 1.434,0.943 1.856,3.899 3.408,4.444 0.119,-0.858 -0.917,-1.781 -0.692,-2.542 0.192,-0.65 1.697,-1.081 2.316,-0.87 1.717,0.584 4.025,4.659 4.288,6.363 0.384,2.49 -1.239,5.621 -3.561,6.564 -1.223,0.497 -2.35,0.484 -3.28,1.482 C 8.746,-1.229 8.153,-1.308 6.656,-1.168 5.235,-1.034 4.186,0.506 2.636,0.449 2.14,0.431 0,-0.139 0,0"
             inkscape:connector-curvature="0"
             id="path92"
             style="fill:#30c3ea;fill-opacity:1;fill-rule:nonzero;stroke:none" /></g><g
           transform="translate(135.9495,386.1084)"
           id="g94"><path
             d="m 0,0 -21.224,-24.952 8.023,-6.133 L 7.724,-6.594 0,0 z"
             inkscape:connector-curvature="0"
             id="path96"
             style="fill:#f15d44;fill-opacity:1;fill-rule:nonzero;stroke:none" /></g><g
           transform="translate(116.8658,359.7639)"
           id="g98"><path
             d="m 0,0 c -19.873,-2.43 -15.665,23.355 -24.502,38.847 -10.56,18.512 -9.261,32.357 12.403,38.476 C -17.287,69.374 -7.686,59.668 -1.028,58.084 8.849,55.734 22.8,42.996 8.277,38.656 5.214,37.74 -2.495,39.588 -2.871,34.38 -3.284,28.656 5.934,29.753 9.204,29.278 14.372,28.528 19.941,22.742 17.011,18.243 10.193,7.772 3.984,0.487 0,0"
             inkscape:connector-curvature="0"
             id="path100"
             style="fill:#2a2b2b;fill-opacity:1;fill-rule:nonzero;stroke:none" /></g><g
           transform="translate(116.7137,359.6367)"
           id="g102"><path
             d="M 0,0 C 0,0 24.289,20.777 14.321,27.204 L 21.138,28.732 25.83,14.672 16.221,1.52 0,0 z"
             inkscape:connector-curvature="0"
             id="path104"
             style="fill:#f15d44;fill-opacity:1;fill-rule:nonzero;stroke:none" /></g><g
           transform="translate(350.1112,307.4642)"
           id="g106"><path
             d="m 0,0 c -5.57,0.913 -10.712,-1.207 -10.712,-1.207 -35.217,-9.428 -117.33,-47.831 -179.535,-112.61 l -57.574,16.689 c 0,0 -32.216,-62.736 12.999,-105.69 36.684,-34.85 141.814,-21.641 205.536,101.39 C -36.93,-87.346 -55.63,-41.091 0,0"
             inkscape:connector-curvature="0"
             id="path108"
             style="fill:#f15f40;fill-opacity:1;fill-rule:nonzero;stroke:none" /></g><g
           transform="translate(172.7305,225.7641)"
           id="g110"><path
             d="m 0,0 2.718,-32.631 -32.617,-16.94 -46.095,20.012 9.128,26.854 L 0,0 z"
             inkscape:connector-curvature="0"
             id="path112"
             style="fill:#f15f40;fill-opacity:1;fill-rule:nonzero;stroke:none" /></g><g
           transform="translate(75.2259,94.6542)"
           id="g114"><path
             d="m 0,0 c 2.82,2.28 -2.603,28.95 1.137,28.92 2.224,-0.018 4.89,-1.97 6.475,-3.638 1.585,-1.668 2.883,-3.673 4.816,-4.907 1.932,-1.234 4.857,-1.312 5.908,0.583 -2.455,5.815 -8.205,7.16 -9.741,13.229 -0.427,1.689 -2.409,3.866 -2.914,5.537 -1.463,4.834 -6.997,8.495 -6.697,13.426 0.053,0.866 -0.327,2.801 -0.799,3.564 -0.443,0.716 -0.731,-0.006 -1.539,0.181 -3.389,0.787 -7.028,1.691 -10.444,1.541 0.88,-5.258 0.175,-9.043 -1.59,-15.108 -1.796,-6.169 -1.505,-13.338 1.225,-19.456 0.563,-1.262 1.226,-2.496 1.589,-3.818 0.751,-2.73 0.285,-5.911 2.18,-8.076 0.99,-1.132 2.506,-1.794 3.246,-3.096 0.621,-1.093 0.576,-2.452 1.27,-3.502 0.812,-1.23 2.435,-1.739 3.249,-2.967 0.714,-1.076 1.14,-2.861 2.375,-2.726 0.159,0.017 0.361,0.053 0.451,-0.086 C 0.288,-0.538 -0.121,-0.098 0,0"
             inkscape:connector-curvature="0"
             id="path116"
             style="fill:#f1613d;fill-opacity:1;fill-rule:nonzero;stroke:none" /></g><g
           transform="translate(194.2989,329.7842)"
           id="g118"><path
             d="m 0,0 c -1.46,2.154 -1.775,4.781 -3.454,6.826 -0.992,1.208 -3.994,4.371 -3.352,5.921 2.194,5.301 8.649,-5.52 10.115,-6.782 1.988,-1.713 3.829,-1.901 5.391,0.107 1.805,2.323 3.154,5.071 5.048,7.305 1.168,1.377 2.656,2.496 3.696,3.987 0.702,1.005 1.086,3.46 2.446,3.696 0.744,0.129 2.125,-0.557 2.459,-1.393 0.289,-0.726 -0.254,-1.385 -0.357,-2.068 1.198,0.314 0.907,2.033 2.303,2.23 2.129,0.3 2.353,-3.348 1.575,-4.956 2.049,0.478 2.279,0.549 2.334,-2.058 0.014,-0.66 -1.809,-5.486 -0.445,-5.144 0,0 0.095,2.22 1.414,1.685 1.282,-0.519 1.289,-2.819 1.1,-3.759 -1.013,-5.038 -1.307,-10.114 -3.651,-14.571 -0.699,-1.33 -1.109,-2.497 -2.286,-3.432 -1.008,-0.802 -5.697,-8.121 -5.843,-8.043 0,0 -6.504,-19.154 -9.996,-30.313 -3.493,-11.158 -12.347,-58.63 -55.456,-77.253 0,0 -61.666,-3.825 -93.88,76.243 0,0 7.347,44.838 85.908,-32.592 0.506,1.109 3.023,15.728 43.26,44.665 C 10.46,-23.783 5.789,-8.542 0,0"
             inkscape:connector-curvature="0"
             id="path120"
             style="fill:#30c3ea;fill-opacity:1;fill-rule:nonzero;stroke:none" /></g><g
           transform="translate(134.6878,350.86)"
           id="g122"><path
             d="m 0,0 c 0,0 -2.772,-45.027 -35.186,-84.041 -30.17,-36.312 -31.994,-92.741 -35.834,-123.96 0,0 -44.046,136.368 53.781,217.39"
             inkscape:connector-curvature="0"
             id="path124"
             style="fill:#f15d44;fill-opacity:1;fill-rule:nonzero;stroke:none" /></g><g
           transform="translate(103.4582,299.8853)"
           id="g126"><path
             d="m 0,0 c -69.083,-38.694 -41.797,-154.991 -41.797,-154.991 l 12.536,4.725 c 0,0 1.533,30.178 17.533,71.178 10.886,27.896 3.323,56.795 3.323,56.795 0,0 26.761,30.272 8.405,22.293"
             inkscape:connector-curvature="0"
             id="path128"
             style="fill:#f15d44;fill-opacity:1;fill-rule:nonzero;stroke:none" /></g><g
           transform="translate(72.6986,345.05)"
           id="g130"><path
             d="m 0,0 c 0.226,-5.334 -1.06,-10.751 -3.219,-15.606 -1.031,-2.321 -2.29,-4.552 -3.806,-6.592 -0.362,-0.487 -0.776,-1.213 -1.268,-1.584 -0.976,-0.737 -0.275,-0.775 -1.56,-0.551 -1.194,0.208 -2.612,1.379 -3.614,2.061 -9.873,6.715 -14.078,18.769 -14.048,30.316 0.029,11.188 3.732,23.135 12.91,30.167 4.261,3.265 9.513,5.371 14.92,5.43 C 4.679,43.69 17.126,41.575 16.604,35.907 16.011,29.458 2.093,28.016 -0.999,23.11 -3.947,18.435 -3.915,11.894 -0.585,7.417 -3.227,7.515 -4.763,11.074 -7.671,9.738 -9.727,8.793 -10.111,5.391 -9.006,3.62 -7.274,0.845 -2.973,0.261 0,0 0.357,-8.424 -2.12,0.186 0,0"
             inkscape:connector-curvature="0"
             id="path132"
             style="fill:#373535;fill-opacity:1;fill-rule:nonzero;stroke:none" /></g><g
           transform="translate(352.4054,290.1737)"
           id="g134"><path
             d="M 0,0 C 0.991,9.999 -0.283,12.974 -4.838,15.368 -70.6,-6.044 -75.083,-84.331 -36.034,-137.403"
             inkscape:connector-curvature="0"
             id="path136"
             style="fill:#33c4ed;fill-opacity:1;fill-rule:nonzero;stroke:none" /></g><g
           transform="translate(319.9653,151.5905)"
           id="g138"><path
             d="M 0,0 C 0,0 7.067,-21.465 1.513,-71.902 0.129,-79.62 -2.445,-84.715 -3.936,-86.9 c -1.33,-1.947 -3.653,-2.96 -5.568,-4.335 -1.915,-1.376 -3.765,-3.055 -4.518,-5.289 -0.728,-2.163 -0.312,-4.586 0.687,-6.637 1,-2.052 2.538,-3.787 4.125,-5.427 5.082,-5.249 11.058,-10.079 13.693,-16.894 1.158,-2.997 1.596,-6.22 2.538,-9.292 0.941,-3.072 2.528,-6.141 5.273,-7.81 -0.778,-1.157 -1.59,-2.44 -1.456,-3.827 0.135,-1.388 1.776,-2.638 2.933,-1.861 -0.506,-1.353 0.469,-3.047 1.893,-3.289 1.424,-0.242 2.904,1.035 2.874,2.479 -0.035,-1.568 1.977,-2.757 3.333,-1.97 0.087,0.457 0.173,0.915 0.259,1.372 0.588,-0.395 1.205,-0.802 1.909,-0.891 0.703,-0.089 1.516,0.249 1.723,0.927 0.093,0.304 0.056,0.63 0.017,0.946 -0.152,1.253 -0.305,2.506 -0.457,3.759 1.182,-0.72 2.794,-0.653 3.912,0.162 1.118,0.816 1.674,2.331 1.349,3.676 -2.822,0.393 -5.088,2.686 -6.246,5.289 -1.157,2.603 -1.402,5.506 -1.632,8.346 -0.856,10.609 -1.713,21.219 -2.569,31.829 -0.886,10.972 -0.059,17.911 0.521,21.103 0,0 20.582,94.622 17.148,213.117 0.991,9.999 -3.104,14.897 -7.659,17.291 C -35.616,134.462 -27.956,70.558 -27.094,71.415 -25.673,52.647 -18.334,29.024 0,0"
             inkscape:connector-curvature="0"
             id="path140"
             style="fill:#f15f40;fill-opacity:1;fill-rule:nonzero;stroke:none" /></g></g></g></g></svg>