<?xml version="1.0" encoding="UTF-8" standalone="no"?>
<!-- Created with Inkscape (http://www.inkscape.org/) -->

<svg
   xmlns:dc="http://purl.org/dc/elements/1.1/"
   xmlns:cc="http://creativecommons.org/ns#"
   xmlns:rdf="http://www.w3.org/1999/02/22-rdf-syntax-ns#"
   xmlns:svg="http://www.w3.org/2000/svg"
   xmlns="http://www.w3.org/2000/svg"
   xmlns:xlink="http://www.w3.org/1999/xlink"
   xmlns:inkscape="http://www.inkscape.org/namespaces/inkscape"
   version="1.1"
   width="483.655"
   height="822.17999"
   id="svg2"
   xml:space="preserve"><metadata
     id="metadata8"><rdf:RDF><cc:Work
         rdf:about=""><dc:format>image/svg+xml</dc:format><dc:type
           rdf:resource="http://purl.org/dc/dcmitype/StillImage" /></cc:Work></rdf:RDF></metadata><defs
     id="defs6"><clipPath
       id="clipPath26"><path
         d="m 0,657.744 386.924,0 L 386.924,0 0,0 0,657.744 z"
         inkscape:connector-curvature="0"
         id="path28" /></clipPath><clipPath
       id="clipPath98"><path
         d="m 285.504,530.643 6.836,0 0,-4.174 -6.836,0 0,4.174 z"
         inkscape:connector-curvature="0"
         id="path100" /></clipPath><clipPath
       id="clipPath118"><path
         d="m 283.619,536.889 10.557,0 0,-4.832 -10.557,0 0,4.832 z"
         inkscape:connector-curvature="0"
         id="path120" /></clipPath><clipPath
       id="clipPath138"><path
         d="m 260.495,462.506 92.638,0 0,-92.637 -92.638,0 0,92.637 z"
         inkscape:connector-curvature="0"
         id="path140" /></clipPath><clipPath
       id="clipPath142"><path
         d="m 286.499,458.871 -15.655,-12.521 60.607,-75.193 c 11.764,16.648 10.42,73.202 10.42,73.202 l 0,0 c -5.494,2.334 -11.266,3.576 -17.015,2.282 l 0,0 c -5.306,-1.193 -9.882,-4.428 -14.798,-6.753 l 0,0 c -4.917,-2.325 -10.885,-3.702 -15.671,-1.118 l 0,0 c -6.218,3.358 -0.936,20.125 -7.459,20.124 l 0,0 c -0.138,0 -0.281,-0.008 -0.429,-0.023"
         inkscape:connector-curvature="0"
         id="path144" /></clipPath></defs><g
     transform="matrix(1.25,0,0,-1.25,0,822.18)"
     id="g10"><path
       d="m 251.092,576.317 12.881,0 0,-12.881 -12.881,0 0,12.881 z"
       inkscape:connector-curvature="0"
       id="path12"
       style="fill:#2a2b2b;fill-opacity:1;fill-rule:nonzero;stroke:none" /><g
       transform="translate(294.2448,562.3281)"
       id="g14"><path
         d="m 0,0 24.968,-83.829 -44.719,-39.237 -25.62,74.161 9.086,41.962 L 0,0 z"
         inkscape:connector-curvature="0"
         id="path16"
         style="fill:#292929;fill-opacity:1;fill-rule:nonzero;stroke:none" /></g><g
       transform="translate(294.2448,562.3281)"
       id="g18"><path
         d="m 0,0 24.968,-83.829 -44.719,-39.237 -25.62,74.161 9.086,41.962 L 0,0 z"
         inkscape:connector-curvature="0"
         id="path20"
         style="fill:none;stroke:#292929;stroke-width:7.70200014;stroke-linecap:butt;stroke-linejoin:miter;stroke-miterlimit:10;stroke-opacity:1;stroke-dasharray:none" /></g><g
       id="g22"><g
         clip-path="url(#clipPath26)"
         id="g24"><g
           transform="translate(279.7423,541.9692)"
           id="g30"><path
             d="m 0,0 c -0.557,-3.065 -0.579,-6.21 -1.182,-9.266 -1.026,-5.207 -3.776,-10.059 -7.716,-13.615 1.815,-0.171 3.651,-0.115 5.452,0.166 0.227,-0.899 0.359,-1.822 0.395,-2.749 -0.901,-0.739 -1.802,-1.478 -2.702,-2.217 0.489,-0.722 1.023,-1.412 1.6,-2.066 -0.399,-0.556 -0.798,-1.112 -1.198,-1.668 1.248,-0.785 2.615,-1.74 2.852,-3.195 0.09,-0.551 0.002,-1.114 -0.087,-1.665 -0.246,-1.531 -1.005,-3.331 1.065,-3.496 1.604,-0.128 3.267,0.006 4.867,0.129 3.319,0.254 6.595,1.09 9.922,1.095 17.042,0.031 13.123,-40.421 13.956,-26.303 5.371,3.374 26.442,5.092 31.814,8.466 0.239,0.15 -19.65,24.065 -19.541,24.326 0.136,0.325 0.008,0.695 -0.122,1.023 -1.089,2.739 -2.379,5.398 -3.402,8.163 -0.542,1.466 -1.008,2.962 -1.62,4.4 -0.666,1.565 -1.499,3.052 -2.331,4.535 C 28.717,-8.041 25.405,-2.134 21.54,3.411 20.613,4.741 19.646,6.06 18.442,7.146 15.509,9.791 11.208,10.703 7.408,9.745 2.9,8.609 0.781,4.299 0,0"
             inkscape:connector-curvature="0"
             id="path32"
             style="fill:#f1613d;fill-opacity:1;fill-rule:nonzero;stroke:none" /></g><g
           transform="translate(316.4824,486.8959)"
           id="g34"><path
             d="m 0,0 c 4.395,2.805 8.825,6 11.21,10.636 1.233,2.397 1.852,5.063 2.247,7.729 1.828,12.311 -1.044,25.261 -7.905,35.646 -4.134,-0.253 -8.153,-2.09 -11.05,-5.051 -3.805,-3.888 -5.527,-9.44 -5.8,-14.874 -0.274,-5.434 0.764,-10.839 1.797,-16.18 C -8.51,12.779 -7.518,7.651 -6.526,2.524 -6.269,1.193 -5.901,-0.3 -4.724,-0.975 -3.254,-1.819 -1.429,-0.912 0,0"
             inkscape:connector-curvature="0"
             id="path36"
             style="fill:#f1613d;fill-opacity:1;fill-rule:nonzero;stroke:none" /></g><g
           transform="translate(315.3183,520.2225)"
           id="g38"><path
             d="m 0,0 c -9.786,-13.205 12.828,-23.604 20.687,-27.724 11.975,-6.279 6.589,-20.341 6.869,-31.211 20.475,0.945 26.389,25.578 17.542,40.767 -4.125,7.082 -10.056,11.015 -16.719,15.277 -7.896,5.05 -7.771,17.098 -8.34,25.214 -1.703,24.305 -31.986,27.975 -51.1,22.086 -7.029,-2.166 -15.554,-11.813 -14.637,-20.416 0.514,-4.822 4.022,-2.511 4.596,-6.951 -0.148,1.145 12.963,8.3 14.95,9.41 7.118,3.976 9.481,2.391 10.583,-5.187 1.18,-8.108 5.735,-44.924 20.136,-42.154 7.325,1.409 -3.53,26.595 -4.684,31.117 C -0.819,12.98 -3.076,22.333 3.03,17.014 11.809,9.367 4.682,6.317 0,0"
             inkscape:connector-curvature="0"
             id="path40"
             style="fill:#292929;fill-opacity:1;fill-rule:nonzero;stroke:none" /></g><g
           transform="translate(315.3183,520.2225)"
           id="g42"><path
             d="m 0,0 c -9.786,-13.205 12.828,-23.604 20.687,-27.724 11.975,-6.279 6.589,-20.341 6.869,-31.211 20.475,0.945 26.389,25.578 17.542,40.767 -4.125,7.082 -10.056,11.015 -16.719,15.277 -7.896,5.05 -7.771,17.098 -8.34,25.214 -1.703,24.305 -31.986,27.975 -51.1,22.086 -7.029,-2.166 -15.554,-11.813 -14.637,-20.416 0.514,-4.822 4.022,-2.511 4.596,-6.951 -0.148,1.145 12.963,8.3 14.95,9.41 7.118,3.976 9.481,2.391 10.583,-5.187 1.18,-8.108 5.735,-44.924 20.136,-42.154 7.325,1.409 -3.53,26.595 -4.684,31.117 C -0.819,12.98 -3.076,22.333 3.03,17.014 11.809,9.367 4.682,6.317 0,0 z"
             inkscape:connector-curvature="0"
             id="path44"
             style="fill:none;stroke:#292929;stroke-width:3.12100005;stroke-linecap:round;stroke-linejoin:round;stroke-miterlimit:10;stroke-opacity:1;stroke-dasharray:none" /></g><g
           transform="translate(311.9279,354.1392)"
           id="g46"><path
             d="m 0,0 c -13.541,16.474 -23.501,52.136 -24.184,58.303 -0.683,6.168 -2.237,6.82 -2.237,6.82 -14.378,2.544 -17.514,22.724 -17.514,22.724 12.253,6.926 27.875,24.835 27.875,24.835 16.218,16.945 14.044,39.32 37.035,27.69 22.991,-11.629 28.25,-46.177 28.25,-46.177 L 37.156,7.143 0,0 z"
             inkscape:connector-curvature="0"
             id="path48"
             style="fill:#f1613d;fill-opacity:1;fill-rule:nonzero;stroke:none" /></g><g
           transform="translate(311.9279,355.3294)"
           id="g50"><path
             d="m 0,0 c -13.541,16.474 -23.501,52.136 -24.184,58.303 -0.683,6.168 -2.237,6.82 -2.237,6.82 -14.378,2.545 -17.514,22.724 -17.514,22.724 12.253,6.926 27.875,24.836 27.875,24.836 16.218,16.944 14.044,39.319 37.035,27.689 22.991,-11.629 28.25,-46.177 28.25,-46.177 L 37.156,7.143 0,0 z"
             inkscape:connector-curvature="0"
             id="path52"
             style="fill:#f1613d;fill-opacity:1;fill-rule:nonzero;stroke:none" /></g><g
           transform="translate(208.5525,504.0741)"
           id="g54"><path
             d="m 0,0 c 8.824,8.862 15.977,19.268 21.753,30.331 5.439,10.418 2.347,35.933 13.707,30.857 31.334,-14 59.998,16.609 52.891,48.17 -6.319,28.064 -34.94,57.986 -54.73,27.937 C 26.948,127.163 10.736,129.926 2.953,122.126 -13.162,105.974 14.965,89.522 -4.54,77.855 c 0,0 -8.666,-6 -26.666,10.667 -19.531,18.083 -90.667,-70 -22.667,-113.334 L 0,0 z"
             inkscape:connector-curvature="0"
             id="path56"
             style="fill:#292929;fill-opacity:1;fill-rule:nonzero;stroke:none" /></g><g
           transform="translate(208.5525,504.0741)"
           id="g58"><path
             d="m 0,0 c 8.824,8.862 15.977,19.268 21.753,30.331 5.439,10.418 2.347,35.933 13.707,30.857 31.334,-14 59.998,16.609 52.891,48.17 -6.319,28.064 -34.94,57.986 -54.73,27.937 C 26.948,127.163 10.736,129.926 2.953,122.126 -13.162,105.974 14.965,89.522 -4.54,77.855 c 0,0 -8.666,-6 -26.666,10.667 -19.531,18.083 -90.667,-70 -22.667,-113.334 L 0,0 z"
             inkscape:connector-curvature="0"
             id="path60"
             style="fill:none;stroke:#292929;stroke-width:7.70200014;stroke-linecap:round;stroke-linejoin:round;stroke-miterlimit:10;stroke-opacity:1;stroke-dasharray:none" /></g><g
           transform="translate(177.6644,546.573)"
           id="g62"><path
             d="m 0,0 -0.482,-0.52 c -0.202,-0.218 -0.546,-0.231 -0.764,-0.028 l -2.08,1.929 c -0.218,0.202 -0.23,0.546 -0.028,0.764 l 0.482,0.52 c 0.202,0.217 0.546,0.23 0.763,0.028 l 2.08,-1.93 C 0.189,0.561 0.202,0.218 0,0"
             inkscape:connector-curvature="0"
             id="path64"
             style="fill:#3bc6f2;fill-opacity:1;fill-rule:nonzero;stroke:none" /></g><g
           transform="translate(278.8083,639.8602)"
           id="g66"><path
             d="m 0,0 c 0,0 -25.254,10.921 -37.851,-6.561 0,0 -5.527,-4.014 -10.458,-4.396 l 3.118,-5.571 c 0,0 0.365,-1.883 -4.171,-2.251 0,0 0.239,-2.649 0.476,-5.78 l -3.961,0.128 c 0,0 0.877,-1.789 -2.558,-4.633 0,0 -2.76,-4.126 3.212,-7.109 5.299,-2.647 11.625,-3.344 8.926,-12.582 0,0 -1.385,-8.565 -3.812,-10.04 l 25.621,-12.328 c 0,0 -0.438,14.777 3.481,17.97 l 9.334,0.35 L 3.98,-17.089 0,0 z"
             inkscape:connector-curvature="0"
             id="path68"
             style="fill:#3bc6f2;fill-opacity:1;fill-rule:nonzero;stroke:none" /></g><g
           transform="translate(247.4842,624.1658)"
           id="g70"><path
             d="M 0,0 C -1.142,-0.725 -2.794,-0.637 -3.732,0.338 -4.669,1.314 -4.614,3.12 -3.518,3.913 -3.561,2.5 -2.266,1.19 -0.853,1.216 -0.594,1.221 -0.332,1.264 -0.077,1.215 0.177,1.166 0.433,0.994 0.476,0.738 0.527,0.432 0.262,0.167 0,0"
             inkscape:connector-curvature="0"
             id="path72"
             style="fill:#373535;fill-opacity:1;fill-rule:nonzero;stroke:none" /></g><g
           transform="translate(247.4842,624.1658)"
           id="g74"><path
             d="M 0,0 C -1.142,-0.725 -2.794,-0.637 -3.732,0.338 -4.669,1.314 -4.614,3.12 -3.518,3.913 -3.561,2.5 -2.266,1.19 -0.853,1.216 -0.594,1.221 -0.332,1.264 -0.077,1.215 0.177,1.166 0.433,0.994 0.476,0.738 0.527,0.432 0.262,0.167 0,0 z"
             inkscape:connector-curvature="0"
             id="path76"
             style="fill:none;stroke:#373535;stroke-width:1.10000002;stroke-linecap:butt;stroke-linejoin:miter;stroke-miterlimit:10;stroke-opacity:1;stroke-dasharray:none" /></g><g
           transform="translate(259.239,568.2422)"
           id="g78"><path
             d="M 0,0 C 18.571,6.143 26.018,28.084 27.447,45.803 29.154,66.976 22.301,78.951 0.628,75.392 8.489,70.381 3.729,57.903 -1.233,53.347 -5.581,49.356 -16.082,29.702 -1.453,31.872 1.631,32.33 7.685,37.236 10.164,32.684 12.888,27.682 4.286,24.805 1.591,23.003 -2.669,20.155 -6.213,15.85 -6.415,10.501 -6.503,8.154 -3.723,-1.232 0,0"
             inkscape:connector-curvature="0"
             id="path80"
             style="fill:#2a2b2b;fill-opacity:1;fill-rule:nonzero;stroke:none" /></g><g
           transform="translate(246.6545,633.747)"
           id="g82"><path
             d="m 0,0 c 1.383,0.234 2.839,0.024 4.099,-0.594 0.292,-0.143 0.574,-0.308 0.833,-0.504 0.94,-0.713 1.53,-1.82 1.791,-2.971 0.257,-1.134 0.217,-2.334 -0.115,-3.448 0.197,-0.126 0.389,0.168 0.437,0.396 0.226,1.073 0.391,2.173 0.279,3.264 C 7.212,-2.767 6.8,-1.677 6.011,-0.915 5.019,0.044 3.587,0.366 2.225,0.596 1.615,0.7 0.996,0.793 0.378,0.744 0.152,0.726 -0.099,0.673 -0.227,0.485 -0.355,0.298 -0.224,-0.038 0,0"
             inkscape:connector-curvature="0"
             id="path84"
             style="fill:#373535;fill-opacity:1;fill-rule:nonzero;stroke:none" /></g><g
           transform="translate(335.3646,493.1193)"
           id="g86"><path
             d="M 0,0 C 0,0 -27.121,-42.799 6.877,-111.874"
             inkscape:connector-curvature="0"
             id="path88"
             style="fill:#f1613d;fill-opacity:1;fill-rule:nonzero;stroke:none" /></g><g
           transform="translate(195.2012,473.0806)"
           id="g90"><path
             d="m 0,0 c 61.151,38.202 62.926,94.218 54.065,108.211 0,0 -48.883,-13.334 -70.329,-87.275"
             inkscape:connector-curvature="0"
             id="path92"
             style="fill:#3ec6f2;fill-opacity:1;fill-rule:nonzero;stroke:none" /></g><g
           id="g94"><g
             id="g96" /><g
             id="g102"><g
               clip-path="url(#clipPath98)"
               id="g104"><g
                 transform="translate(286.1368,528.0191)"
                 id="g106"><path
                   d="M 0,0 C 0.445,1.277 1.795,2.234 3.135,2.052 4.476,1.869 5.963,0.886 5.596,-0.415 4.033,-1.189 2.516,0.474 1.424,-0.424 1.224,-0.588 1.045,-0.785 0.815,-0.904 0.585,-1.024 0.278,-1.048 0.085,-0.874 -0.145,-0.666 -0.102,-0.294 0,0"
                   inkscape:connector-curvature="0"
                   id="path108"
                   style="fill:#373535;fill-opacity:1;fill-rule:nonzero;stroke:none" /></g><g
                 transform="translate(286.1368,528.0191)"
                 id="g110"><path
                   d="M 0,0 C 0.445,1.277 1.795,2.234 3.135,2.052 4.476,1.869 5.963,0.886 5.596,-0.415 4.033,-1.189 2.516,0.474 1.424,-0.424 1.224,-0.588 1.045,-0.785 0.815,-0.904 0.585,-1.024 0.278,-1.048 0.085,-0.874 -0.145,-0.666 -0.102,-0.294 0,0 z"
                   inkscape:connector-curvature="0"
                   id="path112"
                   style="fill:none;stroke:#373535;stroke-width:1.10000002;stroke-linecap:butt;stroke-linejoin:miter;stroke-miterlimit:10;stroke-opacity:1;stroke-dasharray:none" /></g></g></g></g><g
           id="g114"><g
             id="g116" /><g
             id="g122"><g
               clip-path="url(#clipPath118)"
               id="g124"><g
                 transform="translate(284.1879,532.1847)"
                 id="g126"><path
                   d="M 0,0 C 0.54,1.295 1.494,2.414 2.689,3.15 2.965,3.321 3.255,3.472 3.559,3.586 4.664,4.001 5.915,3.909 7.028,3.516 8.124,3.129 9.118,2.455 9.883,1.58 10.094,1.68 9.948,1.999 9.781,2.161 8.994,2.924 8.151,3.651 7.169,4.138 6.187,4.624 5.045,4.857 3.98,4.597 2.639,4.269 1.604,3.229 0.683,2.2 0.27,1.739 -0.14,1.265 -0.427,0.717 -0.533,0.516 -0.622,0.276 -0.532,0.067 -0.441,-0.141 -0.087,-0.21 0,0"
                   inkscape:connector-curvature="0"
                   id="path128"
                   style="fill:#373535;fill-opacity:1;fill-rule:nonzero;stroke:none" /></g></g></g></g><g
           transform="translate(339.303,490.36)"
           id="g130"><path
             d="M 0,0 C 0,0 74.331,-42.996 20.843,-143.228 L 0,0 z"
             inkscape:connector-curvature="0"
             id="path132"
             style="fill:#f1613d;fill-opacity:1;fill-rule:nonzero;stroke:none" /></g><g
           id="g134"><g
             id="g136" /><g
             id="g146"><g
               clip-path="url(#clipPath138)"
               id="g148"><g
                 id="g150"><g
                   clip-path="url(#clipPath142)"
                   id="g152"><g
                     id="g154"><g
                       transform="matrix(92.637753,0,0,92.637753,260.49487,369.86869)"
                       id="g156"></g></g></g></g></g></g></g><g
           transform="translate(305.4087,418.7461)"
           id="g160"><path
             d="m 0,0 c 0,0 -55.213,23.248 -45.758,106.582 0,0 8.504,38.44 -10.384,55.963 -18.889,17.524 -31.585,-12.233 -40.288,-15.874 0,0 -19.958,-12.902 -33.647,-16.178 0,0 -2.555,-20.261 10.562,-26.675 0,0 1.314,-1.056 0.269,-7.172 -1.046,-6.116 -0.58,-46.1 20.305,-74.598 0,0 -3.191,-32.854 13.824,-44.561 L -26.968,-11.494 0,0 z"
             inkscape:connector-curvature="0"
             id="path162"
             style="fill:#3bc6f2;fill-opacity:1;fill-rule:nonzero;stroke:none" /></g><g
           transform="translate(80.3366,235.2815)"
           id="g164"><path
             d="m 0,0 4.644,-5.249 c 0,0 44.013,-103.317 124.727,-163.9 l 0.034,0.173 5.17,-5.293 c 4.01,-11.199 5.931,-21.369 15.761,-36.975 1.073,-1.704 3.904,-6.361 3.472,-8.321 -0.245,-1.109 -1.163,-1.933 -2.032,-2.678 -2.009,-1.722 -4.017,-3.443 -6.025,-5.164 -0.94,-0.806 -1.951,-1.747 -2.025,-2.972 -0.093,-1.528 1.413,-2.782 2.951,-3.001 1.538,-0.219 3.073,0.317 4.532,0.845 4.242,1.533 7.602,-4.009 11.845,-2.475 2.278,0.823 4.8,1.869 5.712,4.085 1.232,2.993 -0.242,13.182 -1.735,16.058 -1.441,2.776 -2.126,5.868 -2.682,8.938 -0.611,3.375 -1.075,6.913 -0.024,10.181 0.859,2.672 2.66,4.936 3.96,7.429 1.394,2.676 2.218,5.712 1.868,8.7 -0.349,2.988 -1.984,5.903 -4.627,7.411 -2.544,1.452 -5.658,1.48 -8.441,2.416 -4.337,1.458 -19.049,13.475 -25.31,35.592 0,0 -8.99,36.62 -14.695,59.768 -5.705,23.149 1.656,63.015 -65.753,76.223 0,0 187.974,23.31 194.636,132.702 C 252.789,246.59 36.77,161.488 0,0"
             inkscape:connector-curvature="0"
             id="path166"
             style="fill:#ffffff;fill-opacity:1;fill-rule:nonzero;stroke:none" /></g><g
           transform="translate(92.3255,411.7398)"
           id="g168"><path
             d="m 0,0 c 0,0 119.923,9.242 158.477,127.143 l -7.776,11.558 C 150.701,138.701 54.53,28.058 0,0"
             inkscape:connector-curvature="0"
             id="path170"
             style="fill:#ffffff;fill-opacity:1;fill-rule:nonzero;stroke:none" /></g><g
           transform="translate(21.4163,205.7905)"
           id="g172"><path
             d="m 0,0 c -3.276,-10.799 -6.552,-21.598 -9.828,-32.397 -0.877,-2.891 -1.784,-5.843 -3.57,-8.279 -1.785,-2.437 -4.648,-4.302 -7.66,-4.074 -0.64,-1.32 -0.405,-3.015 0.569,-4.112 0.975,-1.096 2.63,-1.529 4.017,-1.048 -0.44,-1.264 -0.88,-2.528 -1.32,-3.792 -0.111,-0.319 -0.223,-0.648 -0.195,-0.984 0.062,-0.749 0.827,-1.282 1.576,-1.349 0.749,-0.066 1.48,0.217 2.179,0.494 -0.014,-0.493 -0.028,-0.987 -0.042,-1.48 1.229,-1.12 3.58,-0.341 3.897,1.291 -0.356,-1.49 0.89,-3.146 2.42,-3.215 1.529,-0.07 2.921,1.466 2.701,2.981 1.025,-1.066 3.006,-0.14 3.458,1.268 0.451,1.407 -0.101,2.919 -0.647,4.292 3.22,1.111 5.555,3.934 7.222,6.905 1.667,2.97 2.846,6.211 4.721,9.055 4.264,6.468 11.543,10.126 17.99,14.421 2.013,1.341 3.997,2.793 5.494,4.693 1.498,1.9 2.475,4.317 2.207,6.722 -0.277,2.484 -1.816,4.64 -3.491,6.496 -1.674,1.857 -3.853,3.428 -4.792,5.745 -2.879,7.106 -9.283,38.497 27.77,78.006 37.054,39.509 34.562,61.791 34.562,61.791 0,0 2.167,-13.592 26.817,-30.071 l 67.171,65.085 c 0,0 -46.902,47.246 -136.463,48.861 0,0 -1.085,-7.205 -3.778,-10.611 0,0 -36.321,-62.846 -38.779,-192.47 C 4.206,24.224 4.848,15.98 0,0"
             inkscape:connector-curvature="0"
             id="path174"
             style="fill:#f1623b;fill-opacity:1;fill-rule:nonzero;stroke:none" /></g><g
           transform="translate(86.0033,236.5147)"
           id="g176"><path
             d="m 0,0 4.644,-5.249 c 0,0 44.013,-103.317 124.727,-163.9 l 0.034,0.173 5.17,-5.293 c 4.01,-11.199 5.931,-21.369 15.761,-36.975 1.073,-1.704 3.904,-6.361 3.472,-8.321 -0.245,-1.109 -1.163,-1.933 -2.032,-2.678 l -6.025,-5.164 c -0.94,-0.806 -1.951,-1.747 -2.025,-2.972 -0.093,-1.528 1.413,-2.782 2.951,-3.001 1.538,-0.219 3.073,0.317 4.532,0.845 4.242,1.533 7.602,-4.009 11.845,-2.475 2.278,0.823 4.8,1.869 5.712,4.085 1.232,2.993 -0.242,13.182 -1.735,16.058 -1.441,2.776 -2.126,5.868 -2.682,8.938 -0.611,3.375 -1.075,6.913 -0.024,10.181 0.859,2.672 2.66,4.936 3.96,7.429 1.394,2.676 2.218,5.712 1.868,8.7 -0.349,2.988 -1.984,5.903 -4.627,7.411 -2.544,1.452 -5.658,1.48 -8.441,2.416 -4.337,1.458 -19.049,13.475 -25.31,35.592 0,0 -8.99,36.62 -14.695,59.768 -5.705,23.149 1.656,63.015 -65.753,76.223 0,0 187.974,23.31 194.636,132.702 C 252.789,246.59 36.77,161.488 0,0"
             inkscape:connector-curvature="0"
             id="path178"
             style="fill:#3bc6f2;fill-opacity:1;fill-rule:nonzero;stroke:none" /></g><g
           transform="translate(367.4085,390.8967)"
           id="g180"><path
             d="m 0,0 c 9.365,-69.42 -87.375,-111.953 -87.375,-111.953 l -3.323,11.376 c 0,0 44.873,52.818 56.969,86.424 8.971,24.925 9.059,10.202 9.059,10.202 0,0 20.553,21.172 24.67,3.951"
             inkscape:connector-curvature="0"
             id="path182"
             style="fill:#f1613d;fill-opacity:1;fill-rule:nonzero;stroke:none" /></g><g
           transform="translate(236.4591,265.7522)"
           id="g184"><path
             d="m 0,0 c 0.35,3.189 22.796,11.897 20.987,14.667 -1.076,1.648 -3.803,2.699 -5.803,3.082 -1.999,0.383 -4.112,0.391 -5.954,1.24 -1.842,0.85 -3.298,2.989 -2.39,4.678 5.502,0.951 9.251,-2.687 14.504,-0.93 1.461,0.489 4.029,0.054 5.515,0.476 4.298,1.222 9.668,-1.149 13.196,1.431 0.619,0.453 2.241,1.096 3.034,1.108 0.746,0.012 0.346,-0.547 0.871,-1.058 2.205,-2.148 4.617,-4.425 6.138,-7.04 C 45.763,15.797 43.282,13.463 39.611,9.25 35.876,4.965 30.4,1.755 24.54,0.864 23.332,0.68 22.097,0.584 20.939,0.223 18.547,-0.523 16.402,-2.39 13.885,-2.014 c -1.316,0.197 -2.533,1.009 -3.857,0.937 -1.11,-0.06 -2.1,-0.742 -3.214,-0.728 -1.303,0.017 -2.458,0.981 -3.761,1.001 -1.143,0.017 -2.675,-0.519 -3.165,0.465 -0.063,0.127 -0.133,0.294 -0.279,0.295 C -0.538,-0.042 -0.015,-0.137 0,0"
             inkscape:connector-curvature="0"
             id="path186"
             style="fill:#f1613d;fill-opacity:1;fill-rule:nonzero;stroke:none" /></g><g
           transform="translate(366.9908,460.1649)"
           id="g188"><path
             d="m 0,0 c 0,0 73.266,-121.333 -86.957,-181.222 l 11.624,17.968 55.139,78.629 L 0,0 z"
             inkscape:connector-curvature="0"
             id="path190"
             style="fill:#f1613d;fill-opacity:1;fill-rule:nonzero;stroke:none" /></g><g
           transform="translate(95.9841,303.9079)"
           id="g192"><path
             d="M 0,0 C 0,0 25.297,26.667 14.392,73.46 -1.107,22.484 -1.167,27.355 0,0"
             inkscape:connector-curvature="0"
             id="path194"
             style="fill:#ffffff;fill-opacity:1;fill-rule:nonzero;stroke:none" /></g><g
           transform="translate(92.2225,306.6801)"
           id="g196"><path
             d="M 0,0 C 0,0 26.531,25.439 17.854,72.696 -0.042,22.511 0.129,27.38 0,0"
             inkscape:connector-curvature="0"
             id="path198"
             style="fill:#f1623b;fill-opacity:1;fill-rule:nonzero;stroke:none" /></g><g
           transform="translate(53.0986,421.1301)"
           id="g200"><path
             d="M 0,0 C 0.332,-0.376 0.816,-0.665 1.051,-1.087 1.982,-2.759 -1.67,-3.88 -1.223,-5.664 -0.965,-6.69 0.569,-7.297 0.78,-8.328 c 0.305,-1.489 -2.33,-2.731 -1.321,-4.018 0.338,-0.431 1.024,-0.68 1.162,-1.174 0.085,-0.307 -0.077,-0.602 -0.179,-0.892 -0.362,-1.033 0.105,-2.288 1.128,-3.031 1.023,-0.743 2.537,-0.929 3.66,-0.449 0.45,0.192 0.844,0.481 1.34,0.582 0.524,0.106 1.088,-0.012 1.634,-0.097 4.128,-0.642 8.119,0.633 11.949,1.741 3.831,1.109 17.023,6.213 20.82,6.745 1.016,5.057 13.218,9.987 2.134,10.251 -0.513,0.012 0.033,3.362 -0.315,3.703 -0.361,0.354 -8.127,-3.353 -8.654,-3.259 -2.161,0.388 -5.743,2.225 -7.194,3.697 -1.452,1.473 -2.623,3.13 -4.123,4.568 -2.388,2.291 -5.526,3.94 -8.789,5.157 -2.001,0.747 -3.036,-0.272 -4.018,-1.809 -0.84,-1.315 0.371,-3.008 1.634,-4.201 1.263,-1.194 2.493,0.19 0.8,-2.65 C 11.572,5.067 9.98,4.067 7.99,4.017 5.999,3.968 3.911,4.371 2.045,3.879 0.179,3.387 -1.244,1.409 0,0"
             inkscape:connector-curvature="0"
             id="path202"
             style="fill:#3ec6f2;fill-opacity:1;fill-rule:nonzero;stroke:none" /></g><g
           transform="translate(91.302,411.7398)"
           id="g204"><path
             d="m 0,0 c 0,0 114.355,7.006 169.747,136.946 l -16.21,4.981 C 153.537,141.927 54.53,28.058 0,0"
             inkscape:connector-curvature="0"
             id="path206"
             style="fill:#3ec6f2;fill-opacity:1;fill-rule:nonzero;stroke:none" /></g><g
           transform="translate(206.379,493.7073)"
           id="g208"><path
             d="m 0,0 c -11.006,-69.179 -115.893,-82.077 -115.893,-82.077 l 0.09,11.851 c 0,0 18.527,10.082 48.805,40.749 18.613,18.851 42.235,32.792 42.235,32.792 0,0 25.775,14.363 24.763,-3.315"
             inkscape:connector-curvature="0"
             id="path210"
             style="fill:#3ec6f2;fill-opacity:1;fill-rule:nonzero;stroke:none" /></g><g
           transform="translate(286.4989,458.871)"
           id="g212"><path
             d="m 0,0 c 7.179,0.737 1.539,-16.672 7.889,-20.101 4.785,-2.584 10.754,-1.207 15.67,1.118 4.916,2.326 9.493,5.56 14.798,6.753 9.65,2.172 19.367,-2.802 27.725,-8.092 8.358,-5.291 17.054,-11.286 26.944,-11.423 1.484,-0.02 3.027,0.112 4.314,0.851 3.068,1.763 3.315,6.515 1.106,9.279 -2.209,2.764 -5.436,3.773 -8.971,3.626"
             inkscape:connector-curvature="0"
             id="path214"
             style="fill:none;stroke:#292a2a;stroke-width:1.03999996;stroke-linecap:butt;stroke-linejoin:miter;stroke-miterlimit:10;stroke-opacity:1;stroke-dasharray:none" /></g><path
           d="m 325.346,518.596 -12.667,0 0,27.333 12.667,0 0,-27.333 z"
           inkscape:connector-curvature="0"
           id="path216"
           style="fill:#292929;fill-opacity:1;fill-rule:nonzero;stroke:#292929;stroke-width:7.70200014;stroke-linecap:round;stroke-linejoin:round;stroke-miterlimit:10;stroke-opacity:1;stroke-dasharray:none" /></g></g></g></svg>