<?xml version="1.0" encoding="UTF-8" standalone="no"?>
<!-- Created with Inkscape (http://www.inkscape.org/) -->

<svg
   xmlns:dc="http://purl.org/dc/elements/1.1/"
   xmlns:cc="http://creativecommons.org/ns#"
   xmlns:rdf="http://www.w3.org/1999/02/22-rdf-syntax-ns#"
   xmlns:svg="http://www.w3.org/2000/svg"
   xmlns="http://www.w3.org/2000/svg"
   xmlns:inkscape="http://www.inkscape.org/namespaces/inkscape"
   version="1.1"
   width="807.85248"
   height="299.22125"
   id="svg2"
   xml:space="preserve"><metadata
     id="metadata8"><rdf:RDF><cc:Work
         rdf:about=""><dc:format>image/svg+xml</dc:format><dc:type
           rdf:resource="http://purl.org/dc/dcmitype/StillImage" /></cc:Work></rdf:RDF></metadata><defs
     id="defs6"><clipPath
       id="clipPath18"><path
         d="m 0,239.377 646.282,0 L 646.282,0 0,0 0,239.377 z"
         inkscape:connector-curvature="0"
         id="path20" /></clipPath></defs><g
     transform="matrix(1.25,0,0,-1.25,0,299.22125)"
     id="g10"><path
       d="m 415.966,73.519 -211.261,0 0,95.081 211.261,0 0,-95.081 z"
       inkscape:connector-curvature="0"
       id="path12"
       style="fill:#2b2c2c;fill-opacity:1;fill-rule:nonzero;stroke:none" /><g
       id="g14"><g
         clip-path="url(#clipPath18)"
         id="g16"><g
           transform="translate(219.2374,201.6724)"
           id="g22"><path
             d="m 0,0 c 5.994,-4.362 10.257,7.66 12.541,10.88 2.446,3.447 9.655,11.364 14.618,8.317 2.302,-1.413 0.952,-4.405 2.281,-6.401 1.8,-2.704 5.618,-2.396 8.183,-1.286 6.47,2.797 10.797,7.907 17.998,9.639 4.138,0.995 12.871,2.688 15.601,-1.832 1.449,-2.399 -0.592,-5.949 1.684,-8.013 2.638,-2.393 8.046,-0.355 11.034,0.075 2.83,0.409 5.846,0.799 8.583,-0.33 3.866,-1.595 2.184,-3.933 1.804,-7.259 -1.045,-9.125 11.296,0.183 15.353,-5.454 3.43,-4.767 -4.453,-9.177 3.382,-11.63 1.894,-0.593 4.437,-0.316 5.683,-2.238 1.851,-2.855 -0.845,-7.035 -2.537,-9.34 -8.731,-11.894 -25.012,-12.099 -38.274,-12.701 -8.188,-0.372 -16.055,-1.363 -23.853,-4.016 -7.177,-2.441 -14.13,-6.765 -21.845,-7.274 -6.762,-0.447 -12.97,2.499 -19.499,-0.598 -5.319,-2.522 -10.188,-8.01 -16.493,-7.858 -14.972,0.36 -18.786,28.003 -18.421,38.751 0.23,6.766 1.605,14.165 6.052,19.52 1.974,2.377 4.867,4.794 8.059,5.174 C -2.794,6.753 -3.293,2.397 0,0"
             inkscape:connector-curvature="0"
             id="path24"
             style="fill:#2b2c2c;fill-opacity:1;fill-rule:nonzero;stroke:none" /></g><g
           transform="translate(219.2374,201.6724)"
           id="g26"><path
             d="m 0,0 c 5.994,-4.362 10.257,7.66 12.541,10.88 2.446,3.447 9.655,11.364 14.618,8.317 2.302,-1.413 0.952,-4.405 2.281,-6.401 1.8,-2.704 5.618,-2.396 8.183,-1.286 6.47,2.797 10.797,7.907 17.998,9.639 4.138,0.995 12.871,2.688 15.601,-1.832 1.449,-2.399 -0.592,-5.949 1.684,-8.013 2.638,-2.393 8.046,-0.355 11.034,0.075 2.83,0.409 5.846,0.799 8.583,-0.33 3.866,-1.595 2.184,-3.933 1.804,-7.259 -1.045,-9.125 11.296,0.183 15.353,-5.454 3.43,-4.767 -4.453,-9.177 3.382,-11.63 1.894,-0.593 4.437,-0.316 5.683,-2.238 1.851,-2.855 -0.845,-7.035 -2.537,-9.34 -8.731,-11.894 -25.012,-12.099 -38.274,-12.701 -8.188,-0.372 -16.055,-1.363 -23.853,-4.016 -7.177,-2.441 -14.13,-6.765 -21.845,-7.274 -6.762,-0.447 -12.97,2.499 -19.499,-0.598 -5.319,-2.522 -10.188,-8.01 -16.493,-7.858 -14.972,0.36 -18.786,28.003 -18.421,38.751 0.23,6.766 1.605,14.165 6.052,19.52 1.974,2.377 4.867,4.794 8.059,5.174 C -2.794,6.753 -3.293,2.397 0,0 z"
             inkscape:connector-curvature="0"
             id="path28"
             style="fill:none;stroke:#2b2c2c;stroke-width:8.54699993;stroke-linecap:butt;stroke-linejoin:miter;stroke-miterlimit:10;stroke-opacity:1;stroke-dasharray:none" /></g><g
           transform="translate(404.4125,53.2032)"
           id="g30"><path
             d="m 0,0 c -6.754,3.057 -8.491,-9.579 -10.076,-13.196 -1.696,-3.872 -7.151,-13.085 -12.628,-11.107 -2.541,0.917 -1.826,4.12 -3.531,5.805 -2.312,2.284 -5.987,1.208 -8.275,-0.398 -5.769,-4.051 -8.969,-9.932 -15.67,-13.087 -3.85,-1.813 -12.059,-5.241 -15.648,-1.369 -1.906,2.056 -0.627,5.946 -3.274,7.506 -3.068,1.809 -7.95,-1.283 -10.79,-2.31 -2.688,-0.974 -5.562,-1.967 -8.472,-1.416 -4.108,0.778 -2.935,3.408 -3.237,6.743 -0.827,9.147 -11.024,-2.47 -16.14,2.229 -4.324,3.972 2.5,9.889 -5.669,10.702 -1.975,0.197 -4.409,-0.589 -6.019,1.04 -2.391,2.421 -0.598,7.061 0.592,9.661 6.139,13.416 22.041,16.917 34.906,20.195 7.942,2.024 15.445,4.588 22.544,8.766 6.533,3.846 12.465,9.489 19.916,11.552 6.531,1.807 13.207,0.181 18.973,4.536 4.698,3.549 8.353,9.91 14.559,11.039 C 6.795,59.572 16.133,33.276 17.954,22.677 19.1,16.006 19.252,8.481 15.983,2.336 14.532,-0.391 12.189,-3.345 9.141,-4.364 4.105,-6.047 3.711,-1.679 0,0"
             inkscape:connector-curvature="0"
             id="path32"
             style="fill:#2b2c2c;fill-opacity:1;fill-rule:nonzero;stroke:none" /></g><g
           transform="translate(404.4125,53.2032)"
           id="g34"><path
             d="m 0,0 c -6.754,3.057 -8.491,-9.579 -10.076,-13.196 -1.696,-3.872 -7.151,-13.085 -12.628,-11.107 -2.541,0.917 -1.826,4.12 -3.531,5.805 -2.312,2.284 -5.987,1.208 -8.275,-0.398 -5.769,-4.051 -8.969,-9.932 -15.67,-13.087 -3.85,-1.813 -12.059,-5.241 -15.648,-1.369 -1.906,2.056 -0.627,5.946 -3.274,7.506 -3.068,1.809 -7.95,-1.283 -10.79,-2.31 -2.688,-0.974 -5.562,-1.967 -8.472,-1.416 -4.108,0.778 -2.935,3.408 -3.237,6.743 -0.827,9.147 -11.024,-2.47 -16.14,2.229 -4.324,3.972 2.5,9.889 -5.669,10.702 -1.975,0.197 -4.409,-0.589 -6.019,1.04 -2.391,2.421 -0.598,7.061 0.592,9.661 6.139,13.416 22.041,16.917 34.906,20.195 7.942,2.024 15.445,4.588 22.544,8.766 6.533,3.846 12.465,9.489 19.916,11.552 6.531,1.807 13.207,0.181 18.973,4.536 4.698,3.549 8.353,9.91 14.559,11.039 C 6.795,59.572 16.133,33.276 17.954,22.677 19.1,16.006 19.252,8.481 15.983,2.336 14.532,-0.391 12.189,-3.345 9.141,-4.364 4.105,-6.047 3.711,-1.679 0,0 z"
             inkscape:connector-curvature="0"
             id="path36"
             style="fill:none;stroke:#2b2c2c;stroke-width:8.54699993;stroke-linecap:butt;stroke-linejoin:miter;stroke-miterlimit:10;stroke-opacity:1;stroke-dasharray:none" /></g><g
           transform="translate(509.1263,2.4082)"
           id="g38"><path
             d="m 0,0 c 55.213,42.34 97.693,137.368 97.693,137.368 0,0 2.198,6.14 10.844,16.077 5.843,6.715 9.658,13.816 15.5,20.531 1.564,1.797 3.17,3.63 5.241,4.807 2.072,1.177 4.734,1.595 6.828,0.459 0.887,0.744 1.265,2.04 0.917,3.144 -0.347,1.103 -1.399,1.949 -2.552,2.051 0.725,0.767 1.449,1.535 2.174,2.303 0.182,0.193 0.369,0.394 0.458,0.645 0.196,0.559 -0.182,1.19 -0.7,1.479 -0.517,0.29 -1.135,0.322 -1.727,0.348 0.169,0.35 0.338,0.701 0.507,1.052 -0.522,1.202 -2.466,1.4 -3.221,0.328 0.737,0.957 0.375,2.551 -0.704,3.095 -1.078,0.544 -2.575,-0.112 -2.906,-1.274 -0.394,1.098 -2.119,1.071 -2.898,0.204 -0.779,-0.868 -0.869,-2.134 -0.92,-3.299 -2.676,0.24 -5.267,-1.039 -7.425,-2.639 -2.159,-1.6 -4.053,-3.552 -6.321,-4.993 -5.155,-3.279 -11.575,-3.563 -17.6,-4.574 -1.882,-0.315 -3.779,-0.72 -5.47,-1.604 -1.69,-0.885 -3.174,-2.309 -3.757,-4.126 -0.602,-1.877 -0.19,-3.926 0.416,-5.802 0.606,-1.877 1.667,-3.711 1.595,-5.681 C 85.885,157.524 70.783,125.7 48.553,113.838 4.205,90.173 -0.402,51.328 -0.402,51.328"
             inkscape:connector-curvature="0"
             id="path40"
             style="fill:#f1623b;fill-opacity:1;fill-rule:nonzero;stroke:none" /></g><g
           transform="translate(510.3514,0)"
           id="g42"><path
             d="m 0,0 c 48.285,53.434 74.819,158.124 74.819,158.124 0,0 1.089,6.662 8.032,18.396 4.691,7.93 7.246,15.872 11.938,23.801 1.255,2.123 2.547,4.288 4.436,5.874 1.888,1.586 4.52,2.51 6.865,1.746 0.763,0.923 0.906,2.313 0.345,3.371 -0.56,1.059 -1.789,1.723 -2.982,1.611 0.594,0.917 1.188,1.834 1.782,2.751 0.15,0.231 0.303,0.471 0.346,0.742 0.095,0.607 -0.408,1.178 -0.989,1.375 -0.581,0.198 -1.216,0.116 -1.824,0.031 l 0.32,1.166 c -0.757,1.126 -2.773,0.964 -3.341,-0.268 0.572,1.112 -0.096,2.667 -1.295,3.019 -1.2,0.351 -2.601,-0.597 -2.721,-1.841 -0.606,1.044 -2.357,0.693 -2.988,-0.335 -0.631,-1.029 -0.486,-2.335 -0.319,-3.53 -2.769,-0.257 -5.168,-2.043 -7.066,-4.076 -1.898,-2.032 -3.461,-4.374 -5.5,-6.266 -4.635,-4.303 -11.117,-5.793 -17.062,-7.949 -1.857,-0.674 -3.712,-1.441 -5.268,-2.657 -1.555,-1.217 -2.799,-2.945 -3.053,-4.903 -0.262,-2.024 0.541,-4.033 1.509,-5.83 0.968,-1.796 2.392,-3.465 2.687,-5.485 0.356,-2.433 -9.064,-37.656 -29.475,-53.892 C -11.524,92.585 -8.945,52.178 -8.945,52.178"
             inkscape:connector-curvature="0"
             id="path44"
             style="fill:#ffffff;fill-opacity:1;fill-rule:nonzero;stroke:none" /></g><g
           transform="translate(116.6461,238.9016)"
           id="g46"><path
             d="m 0,0 c -34.149,-60.108 -47.134,-158.333 -47.134,-158.333 0,0 -0.249,-6.476 -5.475,-18.475 -3.531,-8.108 -7.063,-16.216 -10.594,-24.324 -0.946,-2.171 -1.92,-4.386 -3.531,-6.121 -1.612,-1.734 -4.01,-2.925 -6.334,-2.474 -0.618,-0.97 -0.589,-2.311 0.07,-3.253 0.659,-0.942 1.908,-1.429 3.031,-1.181 -0.457,-0.944 -0.915,-1.888 -1.372,-2.832 -0.115,-0.237 -0.233,-0.484 -0.241,-0.748 -0.02,-0.589 0.527,-1.073 1.104,-1.193 0.577,-0.12 1.172,0.034 1.741,0.187 l -0.167,-1.149 c 0.855,-0.983 2.756,-0.591 3.151,0.651 -0.413,-1.127 0.407,-2.529 1.591,-2.723 1.184,-0.193 2.407,0.876 2.374,2.075 0.7,-0.922 2.327,-0.382 2.807,0.673 0.479,1.054 0.186,2.281 -0.114,3.4 2.608,0.572 4.682,2.558 6.249,4.718 1.568,2.161 2.78,4.577 4.498,6.62 3.907,4.647 9.905,6.833 15.314,9.59 1.689,0.861 3.365,1.811 4.704,3.154 1.338,1.343 2.318,3.136 2.328,5.032 0.01,1.959 -0.992,3.777 -2.127,5.374 -1.134,1.597 -2.687,3.019 -3.208,4.907 -0.627,2.276 -1.336,7.518 -10e-4,14.706 0,0 -0.91,21.637 16.614,39.517 34.959,35.669 34.946,75.384 34.946,75.384"
             inkscape:connector-curvature="0"
             id="path48"
             style="fill:#90c84b;fill-opacity:1;fill-rule:nonzero;stroke:none" /></g><g
           transform="translate(232.3874,77.4135)"
           id="g50"><path
             d="M 0,0 C -14.15,90.167 -116.031,155.303 -116.031,155.303 -160.917,100.792 -192.635,3.966 -192.635,3.966 c 0,0 -1.501,-6.493 -8.915,-17.662 -5.009,-7.548 -10.019,-15.096 -15.028,-22.643 -1.341,-2.021 -2.719,-4.082 -4.623,-5.541 -1.904,-1.459 -4.467,-2.229 -6.639,-1.352 -0.789,-0.868 -1.022,-2.227 -0.564,-3.297 0.457,-1.071 1.577,-1.788 2.717,-1.741 -0.628,-0.871 -1.256,-1.741 -1.884,-2.611 -0.159,-0.219 -0.321,-0.447 -0.38,-0.712 -0.134,-0.591 0.304,-1.179 0.842,-1.404 0.537,-0.226 1.145,-0.178 1.728,-0.127 -0.128,-0.377 -0.257,-0.753 -0.385,-1.13 0.639,-1.147 2.564,-1.095 3.19,0.087 -0.621,-1.063 -0.097,-2.627 1.017,-3.036 1.114,-0.41 2.511,0.448 2.712,1.665 0.501,-1.058 2.188,-0.807 2.859,0.171 0.671,0.978 0.625,2.27 0.551,3.454 2.646,0.106 5.048,1.735 6.993,3.633 1.944,1.898 3.592,4.118 5.66,5.87 4.701,3.985 10.958,5.107 16.752,6.912 1.81,0.564 3.624,1.219 5.187,2.333 1.562,1.114 2.863,2.747 3.241,4.659 0.391,1.976 -0.23,3.994 -1.022,5.811 -0.793,1.818 -2.027,3.535 -2.165,5.536 -0.167,2.411 0.162,7.832 2.857,14.848 0,0 1.185,22.011 21.698,36.893 40.923,29.689 50.767,70.858 50.767,70.858 C -66.721,-135.123 35.294,-23.499 35.294,-23.499"
             inkscape:connector-curvature="0"
             id="path52"
             style="fill:#ffffff;fill-opacity:1;fill-rule:nonzero;stroke:none" /></g><g
           transform="translate(310.4384,123.9976)"
           id="g54"><path
             d="m 0,0 c -55.317,5.342 -75.553,-13.994 -75.553,-13.994 3.739,-16.13 4.807,-29.273 4.807,-29.273 -16.025,91.695 -123.925,158.646 -123.925,158.646 -46.473,-55.019 -78.565,-153.121 -78.565,-153.121 0,0 -1.494,-6.583 -9.142,-17.87 -5.168,-7.628 -10.336,-15.255 -15.503,-22.883 -1.384,-2.041 -2.806,-4.124 -4.788,-5.591 -1.982,-1.468 -4.665,-2.229 -6.959,-1.322 -0.818,-0.875 -1.045,-2.254 -0.551,-3.344 0.495,-1.091 1.681,-1.829 2.878,-1.79 l -1.947,-2.638 c -0.163,-0.221 -0.33,-0.451 -0.39,-0.719 -0.133,-0.6 0.335,-1.2 0.903,-1.433 0.568,-0.233 1.206,-0.19 1.818,-0.143 -0.13,-0.381 -0.26,-0.762 -0.39,-1.144 0.686,-1.17 2.709,-1.132 3.351,0.063 -0.639,-1.074 -0.068,-2.667 1.108,-3.092 1.176,-0.424 2.633,0.436 2.828,1.671 0.541,-1.079 2.31,-0.837 3.003,0.152 0.693,0.988 0.628,2.3 0.535,3.503 2.779,0.087 5.283,1.723 7.301,3.636 2.019,1.913 3.723,4.155 5.873,5.918 4.89,4.011 11.451,5.102 17.517,6.891 1.895,0.558 3.793,1.21 5.42,2.329 1.628,1.119 2.975,2.768 3.348,4.707 0.385,2.004 -0.293,4.058 -1.15,5.911 -0.856,1.852 -2.174,3.605 -2.346,5.639 -0.206,2.45 0.07,7.955 2.813,15.059 0,0 3.208,22.331 24.575,37.288 42.625,29.838 50.211,70.509 50.211,70.509 43.801,-244.646 149.566,-130.975 149.566,-130.975 0,0 27.242,18.267 55.018,8.652 27.777,-9.615 38.46,18.056 38.46,18.056 l -4.368,10.789 c 0,0 -14.518,-5.612 -24.037,13.219"
             inkscape:connector-curvature="0"
             id="path56"
             style="fill:#90c84b;fill-opacity:1;fill-rule:nonzero;stroke:none" /></g><g
           transform="translate(318.3849,120.6772)"
           id="g58"><path
             d="M 0,0 C 55.149,-6.857 73.773,11.974 73.773,11.974 70.478,28.201 71.906,41.31 71.906,41.31 81.6,-72.776 191.432,-120.677 191.432,-120.677 c 47.965,53.723 72.802,158.563 72.802,158.563 0,0 1.049,6.669 7.921,18.444 4.644,7.957 7.151,15.915 11.795,23.872 1.243,2.13 2.522,4.303 4.401,5.901 1.879,1.597 4.505,2.537 6.855,1.786 0.757,0.928 0.891,2.319 0.325,3.374 -0.567,1.055 -1.8,1.711 -2.992,1.592 0.589,0.921 1.177,1.842 1.765,2.762 0.149,0.232 0.3,0.473 0.341,0.745 0.093,0.606 -0.414,1.175 -0.997,1.369 -0.582,0.194 -1.216,0.108 -1.823,0.02 0.104,0.389 0.208,0.778 0.312,1.168 -0.763,1.121 -2.778,0.947 -3.339,-0.289 0.565,1.116 -0.111,2.666 -1.313,3.011 -1.202,0.345 -2.598,-0.612 -2.71,-1.857 -0.612,1.04 -2.361,0.68 -2.986,-0.353 -0.624,-1.032 -0.471,-2.337 -0.298,-3.532 -2.767,-0.273 -5.155,-2.074 -7.041,-4.118 -1.886,-2.044 -3.435,-4.395 -5.462,-6.299 -4.609,-4.33 -11.082,-5.859 -17.015,-8.051 -1.852,-0.685 -3.702,-1.463 -5.251,-2.689 -1.549,-1.226 -2.782,-2.961 -3.023,-4.921 -0.25,-2.025 0.564,-4.029 1.543,-5.82 0.979,-1.791 2.412,-3.451 2.72,-5.469 0.37,-2.431 -8.838,-37.71 -29.151,-54.068 C 178.286,-28.169 181.107,-68.561 181.107,-68.561 152.066,176.389 35.191,66.47 35.191,66.47 c 0,0 -27.733,-17.513 -55.235,-7.14 -27.502,10.374 -38.941,-16.994 -38.941,-16.994 l 4.071,-10.904 c 0,0 14.666,5.211 23.665,-13.874"
             inkscape:connector-curvature="0"
             id="path60"
             style="fill:#f1623b;fill-opacity:1;fill-rule:nonzero;stroke:none" /></g><g
           transform="translate(307.9649,160.5173)"
           id="g62"><path
             d="m 0,0 c 0,0 12.192,-49.007 4.128,-76.743 0,0 -13.859,-25.016 -45.158,-42.661 l -9.465,5.946 c 0,0 17.45,19.232 21.025,26.173 3.575,6.941 7.583,16.687 10.502,19.221 0,0 -6.05,19.676 -4.669,37.538 0,0 0.255,2.809 -0.396,5.039 -0.652,2.23 -6.554,7.823 -6.635,17.881 C -30.748,2.453 -10.344,18.989 0,0"
             inkscape:connector-curvature="0"
             id="path64"
             style="fill:#f1623b;fill-opacity:1;fill-rule:nonzero;stroke:none" /></g><g
           transform="translate(357.5909,93.6349)"
           id="g66"><path
             d="m 0,0 c 4.113,0.016 6.398,10.718 6.179,15.032 -0.247,4.863 3.363,4.59 3.363,4.59 3.038,-1.162 4.094,-0.448 4.094,-0.448 l 0.898,-2.912 c -0.017,2.099 2.033,3.213 2.033,3.213 1.86,-2.748 2.925,-1.841 2.925,-1.841 l 1.514,2.489 c 0,0 0.803,2.017 2.776,-0.566 1.708,-2.235 4.672,-3.01 4.672,-3.01 15.619,-1.731 17.74,-21.685 17.74,-21.685 l -9.426,-8.656 -27.207,-4.79 -3.57,5.802 c -3.433,1.343 -9.018,-4.047 -9.018,-4.047"
             inkscape:connector-curvature="0"
             id="path68"
             style="fill:#90c84b;fill-opacity:1;fill-rule:nonzero;stroke:none" /></g><g
           transform="translate(390.0513,105.3008)"
           id="g70"><path
             d="m 0,0 c 0.645,-0.794 1.033,-1.794 1.093,-2.816 0.013,-0.237 0.01,-0.475 -0.022,-0.71 -0.115,-0.853 -0.607,-1.624 -1.244,-2.203 -0.628,-0.57 -1.405,-0.975 -2.231,-1.164 -0.009,-0.169 0.246,-0.186 0.408,-0.135 0.762,0.242 1.52,0.531 2.173,0.994 0.652,0.462 1.196,1.115 1.397,1.888 C 1.828,-3.171 1.518,-2.147 1.177,-1.2 1.023,-0.775 0.861,-0.348 0.608,0.026 0.516,0.164 0.392,0.304 0.227,0.318 0.062,0.332 -0.104,0.129 0,0"
             inkscape:connector-curvature="0"
             id="path72"
             style="fill:#373535;fill-opacity:1;fill-rule:nonzero;stroke:none" /></g><g
           transform="translate(366.0619,63.0506)"
           id="g74"><path
             d="m 0,0 c 9.763,-8.459 16.798,6.858 27.109,11.968 12.321,6.105 16.613,13.984 7.221,25.063 -0.086,-6.124 -8.722,-7.861 -12.857,-6.31 -6.133,2.3 -18.189,0.507 -11.979,-7.048 1.31,-1.593 6.102,-3.381 4.427,-6.304 -1.84,-3.213 -6.379,0.695 -8.301,1.619 -3.037,1.46 -8.102,0.369 -8.154,-3.095 C -2.656,7.832 -1.957,1.696 0,0"
             inkscape:connector-curvature="0"
             id="path76"
             style="fill:#2a2b2b;fill-opacity:1;fill-rule:nonzero;stroke:none" /></g><g
           transform="translate(317.9785,80.9496)"
           id="g78"><path
             d="m 0,0 c 0,0 -12.156,47.382 -5.598,74.598 0,0 11.836,25.061 39.508,43.074 l 8.637,-5.874 c 0,0 -15.195,-19.187 -18.234,-26.04 -3.039,-6.853 -6.398,-16.447 -8.958,-18.992 0,0 5.919,-18.992 5.119,-36.418 0,0 -0.16,-2.741 0.48,-4.895 0.64,-2.154 4.245,-7.68 6.398,-17.23 C 29.497,-1.293 9.757,-18.209 0,0"
             inkscape:connector-curvature="0"
             id="path80"
             style="fill:#90c84b;fill-opacity:1;fill-rule:nonzero;stroke:none" /></g><g
           transform="translate(256.1805,46.1248)"
           id="g82"><path
             d="m 0,0 c 0,0 -1.446,1.521 -6.781,-1.706 -5.334,-3.226 -7.899,-4.01 -7.899,-4.01 0,0 -3.829,-1.095 -3.453,-3.013 0.376,-1.918 3.165,-1.27 5.361,-0.233 0,0 3.359,1.841 4.714,1.236 0,0 1.188,-0.78 0.687,-1.861 l -2.047,-0.944 c 0,0 0.747,-4.048 1.796,-4.499 1.049,-0.45 2.797,0.305 3.46,1.349 0,0 0.529,0.264 0.67,-0.621 0.14,-0.884 2.438,-1.66 3.271,0.326 l 1.115,0.217 c 0,0 1.504,-0.511 2.305,0.203 0,0 0.689,0.782 1.474,0.86 0.785,0.078 3.519,-0.839 4.744,5.705 L 13.596,-1.713 4.879,4.781 0,0 z"
             inkscape:connector-curvature="0"
             id="path84"
             style="fill:#f1623b;fill-opacity:1;fill-rule:nonzero;stroke:none" /></g><g
           transform="translate(387.0995,103.6504)"
           id="g86"><path
             d="m 0,0 0,0 c -0.01,-0.095 -0.026,-0.191 -0.047,-0.286 -0.124,-0.56 -0.419,-1.057 -0.831,-1.399 -0.412,-0.342 -0.891,-0.487 -1.349,-0.41 -0.243,0.041 -0.984,0.166 -0.895,0.98 0.025,0.228 0.113,0.445 0.206,0.674 0.079,0.193 0.16,0.392 0.208,0.605 0.032,0.148 0.059,0.292 0.084,0.428 0.094,0.518 0.184,1.007 0.535,1.312 0.214,0.184 0.48,0.251 0.792,0.199 C -0.443,1.959 0.115,1.055 0,0"
             inkscape:connector-curvature="0"
             id="path88"
             style="fill:#373535;fill-opacity:1;fill-rule:nonzero;stroke:none" /></g><g
           transform="translate(357.557,188.4996)"
           id="g90"><path
             d="m 0,0 4.08,4.536 c 0,0 1.243,0.163 2.554,0.044 1.311,-0.118 7.508,-0.269 12.732,6.924 0,0 0.272,0.295 0.78,0.372 0.508,0.077 3.307,1.097 2.451,4.073 0,0 2.957,-1.529 3.352,-1.457 0.395,0.073 1.248,0.05 1.947,1.043 0,0 -0.912,1.498 -2.604,2.623 0,0 0.005,1.307 -4.677,1.916 0,0 -3.796,1.212 -5.049,1.276 0,0 -1.197,0.123 -1.978,-0.249 0,0 -1.011,1.153 -2.622,0.237 0,0 -1.252,0.063 -1.969,-0.476 L 8.53,21.184 5.363,20.831 1.987,18.595 c 0,0 -3.653,-3.837 -4.733,-5.243 0,0 -3.689,-2.93 -5.5,-5.955"
             inkscape:connector-curvature="0"
             id="path92"
             style="fill:#90c84b;fill-opacity:1;fill-rule:nonzero;stroke:none" /></g><g
           transform="translate(228.2513,141.5537)"
           id="g94"><path
             d="m 0,0 c 2.239,-0.824 4.61,-1.255 6.837,-2.112 3.794,-1.46 7.093,-4.174 9.257,-7.616 0.368,1.347 0.568,2.741 0.592,4.137 0.709,0.052 2.459,-0.475 2.899,-1.252 0.608,0.274 0.745,1.572 0.735,2.396 0.367,-0.374 0.952,-1.772 1.319,-2.146 0.756,0.838 3.019,0.162 4.148,0.15 0.428,-0.005 0.841,-0.146 1.245,-0.285 1.123,-0.387 2.381,-1.197 2.778,0.343 0.308,1.193 0.426,2.466 0.544,3.689 0.245,2.538 0.046,5.12 0.48,7.632 2.221,12.863 32.23,4.579 21.686,7.067 -1.839,4.497 -10.454,14.627 -12.491,17.628 -0.095,0.14 -7.975,-11.377 -17.403,-7.648 -0.251,0.099 0.696,1.981 1.576,2.241 2.166,0.639 0.015,0.316 -2.206,-0.091 C 20.818,23.917 19.629,23.762 18.463,23.49 17.194,23.194 15.962,22.76 14.733,22.328 9.849,20.61 4.956,18.889 0.263,16.703 -0.863,16.179 -1.986,15.622 -2.964,14.857 -5.345,12.992 -6.601,9.867 -6.378,6.873 -6.115,3.322 -3.141,1.155 0,0"
             inkscape:connector-curvature="0"
             id="path96"
             style="fill:#f1623b;fill-opacity:1;fill-rule:nonzero;stroke:none" /></g><g
           transform="translate(243.1992,156.9708)"
           id="g98"><path
             d="m 0,0 c 2.128,-0.545 3.271,-2.864 5.151,-4.001 3.416,-2.064 7.931,0.493 10.107,3.838 2.94,4.52 3.387,10.557 1.143,15.46 -0.587,1.285 -1.356,2.504 -2.388,3.469 -1.714,1.602 -4.022,2.393 -6.288,3.004 -4.59,1.238 -9.441,1.918 -14.099,0.971 -9.256,-1.883 -16.211,-9.941 -19.725,-18.709 -1.278,-3.187 -2.208,-6.581 -2.073,-10.013 0.135,-3.431 1.439,-6.918 4.033,-9.169 2.562,-2.223 6.188,-3.033 9.533,-2.471 3.344,0.563 6.397,2.406 8.745,4.853 1.549,1.613 2.883,3.781 2.415,5.967 -0.211,0.986 -0.774,1.878 -0.92,2.876 C -4.699,-1.638 -2.239,0.574 0,0"
             inkscape:connector-curvature="0"
             id="path100"
             style="fill:#2b2c2c;fill-opacity:1;fill-rule:nonzero;stroke:none" /></g><g
           transform="translate(241.2487,143.1694)"
           id="g102"><path
             d="m 0,0 0,0 c -0.01,-0.095 -0.026,-0.191 -0.047,-0.286 -0.124,-0.56 -0.419,-1.057 -0.831,-1.399 -0.412,-0.342 -0.891,-0.487 -1.349,-0.41 -0.243,0.041 -0.984,0.166 -0.895,0.98 0.025,0.228 0.113,0.445 0.206,0.674 0.079,0.193 0.16,0.392 0.208,0.605 0.032,0.148 0.059,0.292 0.084,0.428 0.094,0.518 0.184,1.007 0.535,1.312 0.214,0.184 0.48,0.251 0.792,0.199 C -0.443,1.959 0.115,1.055 0,0"
             inkscape:connector-curvature="0"
             id="path104"
             style="fill:#373535;fill-opacity:1;fill-rule:nonzero;stroke:none" /></g></g></g></g></svg>