<?xml version="1.0" encoding="UTF-8" standalone="no"?>
<!-- Created with Inkscape (http://www.inkscape.org/) -->

<svg
   xmlns:dc="http://purl.org/dc/elements/1.1/"
   xmlns:cc="http://creativecommons.org/ns#"
   xmlns:rdf="http://www.w3.org/1999/02/22-rdf-syntax-ns#"
   xmlns:svg="http://www.w3.org/2000/svg"
   xmlns="http://www.w3.org/2000/svg"
   xmlns:inkscape="http://www.inkscape.org/namespaces/inkscape"
   version="1.1"
   width="472.61249"
   height="798.8175"
   id="svg2"
   xml:space="preserve"><metadata
     id="metadata8"><rdf:RDF><cc:Work
         rdf:about=""><dc:format>image/svg+xml</dc:format><dc:type
           rdf:resource="http://purl.org/dc/dcmitype/StillImage" /></cc:Work></rdf:RDF></metadata><defs
     id="defs6"><clipPath
       id="clipPath16"><path
         d="m 0,639.054 378.09,0 L 378.09,0 0,0 0,639.054 z"
         inkscape:connector-curvature="0"
         id="path18" /></clipPath></defs><g
     transform="matrix(1.25,0,0,-1.25,0,798.8175)"
     id="g10"><g
       id="g12"><g
         clip-path="url(#clipPath16)"
         id="g14"><g
           transform="translate(313.8317,513.6608)"
           id="g20"><path
             d="m 0,0 c 9.514,-16.192 14.33,-26.371 9.726,-46.37 -2.057,-8.929 -3.988,-23.463 3.585,-29.263 14.037,-10.751 8.468,-37.119 -3.13,-53.484 -9.753,-13.762 -27.606,-20.049 -42.523,-15.369 16.562,50.879 16.57,112.475 -9.269,159.549 -23.239,42.336 -63.109,65.293 -103.783,81.287 10.047,14.083 33.925,21.779 48.291,20.421 17.27,-1.633 34.462,-8.963 45.948,-24.092 10.357,-13.641 7.959,-13.015 21.689,-23.014 C 11.356,39.934 -6.048,10.293 0,0"
             inkscape:connector-curvature="0"
             id="path22"
             style="fill:#2a2b2c;fill-opacity:1;fill-rule:nonzero;stroke:none" /></g><g
           transform="translate(313.8317,513.6608)"
           id="g24"><path
             d="m 0,0 c 9.514,-16.192 14.33,-26.371 9.726,-46.37 -2.057,-8.929 -3.988,-23.463 3.585,-29.263 14.037,-10.751 8.468,-37.119 -3.13,-53.484 -9.753,-13.762 -27.606,-20.049 -42.523,-15.369 16.562,50.879 16.57,112.475 -9.269,159.549 -23.239,42.336 -63.109,65.293 -103.783,81.287 10.047,14.083 33.925,21.779 48.291,20.421 17.27,-1.633 34.462,-8.963 45.948,-24.092 10.357,-13.641 7.959,-13.015 21.689,-23.014 C 11.356,39.934 -6.048,10.293 0,0 z"
             inkscape:connector-curvature="0"
             id="path26"
             style="fill:none;stroke:#2a2b2c;stroke-width:16.93700027;stroke-linecap:butt;stroke-linejoin:miter;stroke-miterlimit:10;stroke-opacity:1;stroke-dasharray:none" /></g><g
           transform="translate(223.4574,465.2888)"
           id="g28"><path
             d="M 0,0 C 0,18.377 14.898,33.275 33.275,33.275 51.652,33.275 66.55,18.377 66.55,0 66.55,-18.377 51.652,-33.275 33.275,-33.275 14.898,-33.275 0,-18.377 0,0"
             inkscape:connector-curvature="0"
             id="path30"
             style="fill:#2a2b2c;fill-opacity:1;fill-rule:evenodd;stroke:none" /></g><g
           transform="translate(103.2263,20.8316)"
           id="g32"><path
             d="m 0,0 c -3.373,-4.523 -0.699,-11.616 4.269,-14.291 4.969,-2.675 11.162,-1.826 16.357,0.374 5.196,2.201 9.779,5.618 14.805,8.184 5.025,2.565 10.875,4.278 16.298,2.721 7.907,-2.271 12.438,-10.576 19.523,-14.758 10.628,-6.275 24.398,-1.973 34.885,4.535 10.611,6.587 20.022,15.491 25.751,26.588 7.096,13.744 8.108,29.986 5.735,45.27 -2.374,15.284 -7.919,29.869 -13.43,44.321 -6.659,-3.008 -14.396,2.54 -17.492,9.159 -3.096,6.619 -3.357,14.218 -5.865,21.081 -6.363,17.414 -25.819,26.619 -44.215,28.929 -15.594,1.958 -32.562,-0.138 -44.734,-10.08 -8.336,-6.808 -13.62,-16.575 -18.436,-26.2 C -23.642,91.681 -37.56,55.941 -48.067,19.224 -49.683,13.58 -51.182,7.353 -48.747,2.012 -45.083,-6.026 -34.337,-8.02 -25.669,-6.316 -17.001,-4.611 -8.827,-0.35 0,0"
             inkscape:connector-curvature="0"
             id="path34"
             style="fill:#2b2b2b;fill-opacity:1;fill-rule:evenodd;stroke:none" /></g><g
           transform="translate(13.1344,109.9822)"
           id="g36"><path
             d="M 0,0 C -8.744,-13.352 -9.185,-31.685 -1.092,-45.442 7,-59.2 23.238,-67.721 39.157,-66.565 c 19.21,1.395 35.21,15.359 46.903,30.664 33.891,44.36 42.937,106.517 23.095,158.697 -4.988,13.118 -11.794,25.776 -21.717,35.7 -9.922,9.924 -23.233,16.931 -37.261,17.356 -2.466,-8.569 -9.165,-15.31 -16.509,-20.367 C 26.323,150.429 18.148,146.68 10.767,141.678 3.386,136.675 -3.398,130.05 -6.051,121.537 -8.704,113.024 -6.099,102.443 1.642,98.017 -4.087,93.164 -10.076,87.935 -12.39,80.792 -14.703,73.65 -11.53,64.186 -4.203,62.549 -7.013,48.498 12.674,38.792 13.024,24.467 13.254,15.048 5.162,7.882 0,0"
             inkscape:connector-curvature="0"
             id="path38"
             style="fill:#2a2b2b;fill-opacity:1;fill-rule:evenodd;stroke:none" /></g><g
           transform="translate(197.8414,425.7519)"
           id="g40"><path
             d="m 0,0 -76.691,-22.776 c 0,0 15.172,-77.888 -5.798,-119.05 l -40.996,-9.322 14.255,-32.318 c 0,0 10.177,-27.726 17.217,-54.229 7.04,-26.503 26.874,-35.199 58.16,-27.331 31.286,7.868 24.75,-17.435 24.75,-17.435 l 29.726,0 c 0,0 27.331,12.466 39.754,8.325 0,0 55.489,-25.095 65.428,-58.099 0,0 -23.284,-36.481 -82.915,-42.675 0,0 -2.53,-12.047 -10.01,-23.8 0,0 161.666,8.962 146.344,68.839 -15.322,59.876 -86.133,109.982 -86.133,109.982 0,0 -42.629,54.265 -30.644,216.199"
             inkscape:connector-curvature="0"
             id="path42"
             style="fill:#f1623b;fill-opacity:1;fill-rule:evenodd;stroke:none" /></g><g
           transform="translate(134.1935,450.5298)"
           id="g44"><path
             d="m 0,0 c 0,0 17.612,-30.928 66.152,-42.526 0,0 -41.238,-118.128 -121.135,-142.613 0,0 -24.485,-4.552 -29.64,13.188 0,0 -21.478,74.442 84.623,171.951"
             inkscape:connector-curvature="0"
             id="path46"
             style="fill:#ffffff;fill-opacity:1;fill-rule:nonzero;stroke:none" /></g><g
           transform="translate(248.533,448.6237)"
           id="g48"><path
             d="m 0,0 c 0,0 -14.181,-29.022 -62.721,-40.62 0,0 41.237,-118.128 121.135,-142.613 0,0 24.485,-4.552 29.639,13.188 0,0 18.048,72.536 -88.053,170.045"
             inkscape:connector-curvature="0"
             id="path50"
             style="fill:#ffffff;fill-opacity:1;fill-rule:nonzero;stroke:none" /></g><g
           transform="translate(162.4114,75.9389)"
           id="g52"><path
             d="m 0,0 c -1.227,4.368 -1.691,8.927 -2.984,13.276 -2.202,7.411 -6.855,14.071 -13.056,18.687 2.609,0.497 5.28,0.668 7.931,0.506 0.204,1.335 -0.533,4.732 -1.94,5.681 0.609,1.113 3.091,1.179 4.652,1.037 -0.655,0.752 -3.218,2.068 -3.873,2.82 1.702,1.309 0.758,5.7 0.904,7.842 0.055,0.812 -0.151,1.616 -0.355,2.403 -0.566,2.187 -1.914,4.693 1.066,5.216 2.308,0.405 4.738,0.438 7.075,0.48 4.848,0.087 9.713,-0.677 14.54,-0.229 24.718,2.292 13.492,60.418 16.634,40.058 C 38.846,93.62 68.076,92.288 79.9,81.186 80.135,80.966 55.703,68.945 63.389,44.386 64.069,42.213 47.978,33.666 47.288,31.496 46.537,29.135 45.532,26.865 44.529,24.599 40.544,15.596 36.55,6.577 31.705,-1.995 30.543,-4.051 29.321,-6.096 27.724,-7.836 23.833,-12.073 17.72,-13.986 12.078,-13.118 5.386,-12.088 1.721,-6.128 0,0"
             inkscape:connector-curvature="0"
             id="path54"
             style="fill:#f1623b;fill-opacity:1;fill-rule:nonzero;stroke:none" /></g><g
           transform="translate(164.6675,86.3263)"
           id="g56"><path
             d="m 0,0 c 1.444,-1.447 3.349,-2.426 5.366,-2.757 0.467,-0.077 0.941,-0.12 1.414,-0.106 1.719,0.052 3.354,0.868 4.636,2.013 1.263,1.129 2.229,2.586 2.776,4.189 C 14.531,3.322 14.511,2.811 14.376,2.5 13.738,1.036 13.004,-0.409 11.95,-1.609 10.896,-2.808 9.486,-3.753 7.907,-3.992 c -1.988,-0.3 -3.959,0.529 -5.769,1.405 -0.812,0.393 -1.626,0.805 -2.317,1.384 -0.254,0.213 -0.507,0.488 -0.5,0.818 C -0.673,-0.054 -0.234,0.234 0,0"
             inkscape:connector-curvature="0"
             id="path58"
             style="fill:#373535;fill-opacity:1;fill-rule:nonzero;stroke:none" /></g><g
           transform="translate(172.7297,95.7155)"
           id="g60"><path
             d="m 0,0 c -0.87,1.768 -2.993,2.911 -4.898,2.409 -1.905,-0.502 -3.207,-2.79 -2.445,-4.607 1.019,1.789 3.622,2.436 5.36,1.333 0.318,-0.203 0.612,-0.455 0.965,-0.588 0.354,-0.132 0.803,-0.112 1.05,0.174 C 0.328,-0.937 0.2,-0.406 0,0"
             inkscape:connector-curvature="0"
             id="path62"
             style="fill:#373535;fill-opacity:1;fill-rule:nonzero;stroke:none" /></g><g
           transform="translate(172.7297,95.7155)"
           id="g64"><path
             d="m 0,0 c -0.87,1.768 -2.993,2.911 -4.898,2.409 -1.905,-0.502 -3.207,-2.79 -2.445,-4.607 1.019,1.789 3.622,2.436 5.36,1.333 0.318,-0.203 0.612,-0.455 0.965,-0.588 0.354,-0.132 0.803,-0.112 1.05,0.174 C 0.328,-0.937 0.2,-0.406 0,0 z"
             inkscape:connector-curvature="0"
             id="path66"
             style="fill:none;stroke:#373535;stroke-width:1.60300004;stroke-linecap:butt;stroke-linejoin:miter;stroke-miterlimit:10;stroke-opacity:1;stroke-dasharray:none" /></g><g
           transform="translate(223.2074,126.8371)"
           id="g68"><path
             d="m 0,0 c -8.852,2.255 -18.924,-2.124 -23.444,-10.192 -1.912,-3.413 -2.851,-7.709 -1.227,-11.274 1.13,-2.482 3.356,-4.321 4.436,-6.826 1.738,-4.03 -0.324,-9.311 -4.305,-11.028 -0.905,-0.39 -1.921,-0.613 -2.872,-0.363 -2.25,0.59 -3.086,3.33 -3.597,5.637 -0.511,2.308 -1.51,5.04 -3.802,5.425 -1.905,0.319 -3.667,-1.32 -4.348,-3.159 -0.681,-1.838 -0.601,-3.862 -0.807,-5.815 -0.577,-5.5 -3.607,-10.684 -8.079,-13.826 -4.473,-3.142 -10.309,-4.186 -15.566,-2.784 -1.981,-4.265 -0.301,-9.608 3.023,-12.895 3.323,-3.288 7.947,-4.849 12.511,-5.668 6.146,-1.104 12.653,-1.009 18.415,1.431 3.817,1.617 7.157,4.188 10.451,6.732 3.726,2.878 7.482,5.784 10.546,9.382 4.295,5.042 7.052,11.229 9.511,17.415 4.222,10.625 7.747,22.579 3.901,33.351 -0.411,1.151 -0.93,2.312 -1.84,3.113 C 2.094,-0.629 1.042,-0.266 0,0"
             inkscape:connector-curvature="0"
             id="path70"
             style="fill:#292929;fill-opacity:1;fill-rule:nonzero;stroke:none" /></g><g
           transform="translate(232.7262,503.8095)"
           id="g72"><path
             d="m 0,0 c 0,6.629 5.374,12.003 12.003,12.003 6.629,0 12.003,-5.374 12.003,-12.003 0,-6.629 -5.374,-12.003 -12.003,-12.003 C 5.374,-12.003 0,-6.629 0,0"
             inkscape:connector-curvature="0"
             id="path74"
             style="fill:#2a2a2a;fill-opacity:1;fill-rule:evenodd;stroke:none" /></g><g
           transform="translate(242.0659,462.611)"
           id="g76"><path
             d="M 0,0 C -2.274,2.899 0,4.141 0,4.141 24.848,35.953 8.907,112.604 8.907,112.604 L -51.152,26.742 -127.29,85.168 c 0,0 -8.57,-66.571 19.525,-86 0,0 2.274,-1.242 0,-4.141 -2.275,-2.899 -25.268,-27.341 -28.095,-41.006 0,0 0.329,-38.512 84.708,-38.512 84.379,0 84.709,38.512 84.709,38.512 C 30.729,-32.314 2.274,-2.899 0,0"
             inkscape:connector-curvature="0"
             id="path78"
             style="fill:#ffffff;fill-opacity:1;fill-rule:evenodd;stroke:none" /></g><g
           transform="translate(115.8896,524.5674)"
           id="g80"><path
             d="m 0,0 c 0,25.651 29.388,46.446 66.125,46.446 36.737,0 66.518,-20.795 66.518,-46.446 0,-36.893 -29.781,-46.446 -66.518,-46.446 C 29.388,-46.446 0,-25.651 0,0"
             inkscape:connector-curvature="0"
             id="path82"
             style="fill:#fcd32a;fill-opacity:1;fill-rule:evenodd;stroke:none" /></g><g
           transform="translate(70.1864,442.0405)"
           id="g84"><path
             d="m 0,0 c -26.785,179.549 103.241,164.394 103.241,164.394 50.537,7.415 69.85,-39.18 69.85,-39.18 4.559,-15.026 1.493,-69.475 -55.938,-77.902 C 59.722,38.886 62.751,106.83 62.751,106.83 47.903,62.59 42.752,-13.189 42.752,-13.189 c 11.76,-17.108 24.547,-58.549 26.032,-65.865 1.484,-7.315 21.974,-48.376 24.341,-52.717 2.866,-5.258 5.553,-10.423 8.661,-15.125 1.011,-1.529 2.451,-2.487 3.421,-3.925 1.285,-1.905 2.152,-4.395 3.401,-6.22 1.671,-2.442 4.136,-3.63 5.665,-6.069 0.662,-1.055 0.874,-2.445 1.448,-3.687 0.796,-1.643 1.592,-3.287 2.388,-4.929 1.16,-2.16 1.929,-4.809 3.153,-7.124 1.806,-3.219 3.612,-6.438 5.417,-9.657 1.019,-1.599 3.891,-2.925 3.839,-5.342 -1.584,-1.626 -4.14,-0.41 -5.577,0.261 -3.153,1.471 -5.386,5.276 -7.461,8.439 -0.532,0.869 -1.064,1.739 -1.596,2.608 -0.512,0.372 -1.023,0.744 -1.535,1.116 -0.249,-0.097 -0.498,-0.193 -0.747,-0.289 -0.159,-1.425 -0.824,-2.903 -1.069,-4.416 -0.277,-1.703 0.124,-3.385 0.115,-5.344 -0.005,-1.227 -0.235,-2.483 -0.196,-3.839 0.554,-3.767 1.108,-7.535 1.662,-11.302 -0.029,-2.254 -0.058,-4.508 -0.087,-6.762 -0.122,-2.796 0.176,-8.29 -3.05,-8.632 -1.998,-0.212 -2.816,1.007 -2.704,3.16 0.135,2.589 0.276,5.645 0.144,8.279 -0.391,2.383 -0.782,4.767 -1.173,7.15 -0.186,0.899 -0.373,1.798 -0.559,2.697 -0.075,1.501 -0.364,3.328 -0.686,4.503 -0.598,0.3 -1.073,0.335 -1.88,0.388 -0.967,-0.351 -0.907,-6.364 -0.988,-7.803 -0.247,-4.4 -0.677,-8.701 -1.524,-12.696 -0.459,-2.162 -0.5,-4.248 -1.207,-6.148 -0.655,-1.757 -1.15,-4.571 -3.876,-4.355 -3.514,0.279 -1.612,4.819 -1.141,6.699 0.94,3.754 0.777,7.407 1.026,11.805 0.1,1.753 0.458,3.377 0.565,5.357 0.091,1.688 0.929,4.361 0.038,6.096 -0.284,0.071 -0.567,0.142 -0.851,0.213 -1.559,-0.372 -2.245,-3.625 -2.768,-4.906 -0.992,-2.196 -1.985,-4.392 -2.978,-6.588 -0.85,-2.383 -1.7,-4.768 -2.55,-7.151 -0.521,-1.396 -2.203,-5.854 -4.748,-4.933 -2.724,0.985 -0.68,5.299 -0.152,6.712 1.518,4.06 2.977,8.498 4.317,12.697 0.945,2.958 1.674,5.996 2.892,8.795 -0.013,0.063 -0.026,0.126 -0.039,0.188 -1.936,0.545 -3.026,-1.406 -3.968,-2.41 -1.97,-2.272 -3.94,-4.544 -5.91,-6.815 -0.64,-0.899 -1.282,-1.799 -1.922,-2.698 -0.941,-1.055 -4.12,-3.969 -5.604,-1.709 -0.696,1.079 0.029,2.264 0.405,2.835 1.131,1.721 2.757,2.986 4.002,4.644 0.584,0.778 0.906,1.759 1.519,2.547 2.227,2.863 4.212,6.151 5.937,9.374 0.563,1.079 1.125,2.159 1.687,3.238 0.893,3.07 1.003,6.457 1.562,9.823 0.362,2.181 1.72,5.515 1.502,7.716 -0.189,1.912 -1.788,3.767 -2.559,5.154 -0.48,1.121 -0.961,2.241 -1.442,3.362 -2.055,3.259 -4.376,6.633 -6.658,9.656 -1.45,2.202 -2.9,4.406 -4.35,6.608 C 5.491,-48.789 0,0 0,0"
             inkscape:connector-curvature="0"
             id="path86"
             style="fill:#fcd32a;fill-opacity:1;fill-rule:evenodd;stroke:none" /></g><g
           transform="translate(252.2089,309.2458)"
           id="g88"><path
             d="m 0,0 c -1.109,-2.39 -2.218,-4.781 -3.327,-7.171 -1.811,-3.322 -3.609,-6.996 -5.16,-10.52 -0.311,-1.178 -0.621,-2.357 -0.931,-3.535 -0.558,-1.485 -1.865,-3.552 -1.77,-5.472 0.109,-2.209 1.944,-5.31 2.624,-7.416 1.05,-3.25 1.658,-6.584 2.994,-9.493 0.715,-0.986 1.431,-1.972 2.146,-2.958 2.182,-2.939 4.631,-5.904 7.255,-8.413 0.723,-0.691 1.187,-1.615 1.879,-2.3 1.476,-1.46 3.271,-2.476 4.643,-4.014 0.455,-0.51 1.347,-1.578 0.819,-2.746 -1.135,-2.452 -4.708,-0.03 -5.795,0.877 -0.766,0.797 -1.533,1.594 -2.299,2.391 -2.284,1.961 -4.567,3.923 -6.851,5.885 -1.079,0.857 -2.446,2.629 -4.28,1.809 -0.004,-0.064 -0.007,-0.128 -0.011,-0.192 1.618,-2.593 2.788,-5.493 4.158,-8.283 1.945,-3.959 4.043,-8.139 6.143,-11.936 0.731,-1.322 3.389,-5.293 0.841,-6.663 -2.382,-1.281 -4.703,2.886 -5.424,4.191 -1.193,2.235 -2.386,4.471 -3.578,6.706 -1.306,2.029 -2.611,4.057 -3.917,6.086 -0.706,1.192 -1.864,4.311 -3.461,4.453 -0.271,-0.112 -0.541,-0.223 -0.811,-0.335 -0.625,-1.846 0.598,-4.369 0.938,-6.026 0.398,-1.944 0.992,-3.499 1.348,-5.219 0.896,-4.315 1.274,-7.952 2.757,-11.531 0.743,-1.792 3.294,-6.007 -0.14,-6.793 -2.664,-0.61 -3.569,2.102 -4.476,3.746 -0.979,1.777 -1.328,3.835 -2.1,5.907 -1.428,3.83 -2.488,8.024 -3.381,12.341 -0.293,1.412 -1.121,7.37 -2.128,7.577 -0.791,-0.17 -1.256,-0.273 -1.803,-0.656 -0.145,-1.21 -0.161,-3.06 -0.014,-4.556 -0.052,-0.916 -0.104,-1.833 -0.155,-2.749 -0.035,-2.415 -0.071,-4.83 -0.106,-7.245 0.258,-2.625 0.849,-5.628 1.365,-8.171 0.428,-2.114 -0.201,-3.439 -2.208,-3.519 -3.241,-0.13 -3.757,5.35 -4.29,8.098 -0.361,2.226 -0.723,4.452 -1.084,6.678 -0.008,3.808 -0.016,7.616 -0.023,11.424 -0.163,1.348 -0.575,2.556 -0.761,3.77 -0.298,1.938 -0.15,3.659 -0.674,5.304 -0.467,1.462 -1.342,2.827 -1.71,4.214 -0.26,0.059 -0.521,0.118 -0.781,0.178 -0.451,-0.443 -0.903,-0.885 -1.354,-1.327 -0.398,-0.938 -0.796,-1.875 -1.194,-2.813 -1.585,-3.43 -3.232,-7.519 -6.133,-9.432 -1.323,-0.873 -3.672,-2.447 -5.478,-1.068 -0.408,2.384 2.237,4.113 3.009,5.843 1.31,3.447 2.622,6.894 3.932,10.341 0.87,2.469 1.239,5.201 2.068,7.506 0.545,1.741 1.09,3.483 1.635,5.224 0.384,1.313 0.389,2.718 0.887,3.858 1.153,2.635 3.416,4.169 4.708,6.828 0.966,1.987 1.456,4.576 2.446,6.648 0.747,1.564 2.03,2.72 2.804,4.38 2.381,5.103 4.276,10.604 6.335,16.222 1.7,4.639 15.907,48.241 16.296,55.695 0.389,7.453 6.921,50.313 16.029,68.948 0,0 -13.842,73.917 -35.054,115.534 0,0 38.475,-66.473 -47.458,-66.473 -78.339,0 -69.11,53.429 -66.818,68.958 0,0 8.557,48.643 59.634,48.643 0,0 130.032,34.134 130.032,-147.407 0,0 1.768,-49.071 -52.787,-149.831"
             inkscape:connector-curvature="0"
             id="path90"
             style="fill:#fcd32a;fill-opacity:1;fill-rule:evenodd;stroke:none" /></g><g
           transform="translate(124.0661,495.7581)"
           id="g92"><path
             d="M 0,0 C 0,0 -14.032,46.126 6.395,104.907"
             inkscape:connector-curvature="0"
             id="path94"
             style="fill:none;stroke:#ffffff;stroke-width:1.24199998;stroke-linecap:butt;stroke-linejoin:miter;stroke-miterlimit:10;stroke-opacity:1;stroke-dasharray:none" /></g><g
           transform="translate(246.565,507.5273)"
           id="g96"><path
             d="M 0,0 C 0,0 5.896,18.477 -4.565,81.371"
             inkscape:connector-curvature="0"
             id="path98"
             style="fill:none;stroke:#ffffff;stroke-width:1.24199998;stroke-linecap:butt;stroke-linejoin:miter;stroke-miterlimit:10;stroke-opacity:1;stroke-dasharray:none" /></g><g
           transform="translate(104.1443,253.5814)"
           id="g100"><path
             d="m 0,0 c 0,0 -13.155,5.194 -14.818,-2.148 -1.953,-8.62 0.633,-40.092 0.633,-40.092 -1.814,-9.013 0.891,-26.223 0.891,-26.223 -0.394,-7.565 3.111,-14.826 5.636,-22.094 3.383,-9.735 5.069,-19.887 4.987,-30.029 -0.009,-1.082 -0.361,-2.486 -1.633,-2.609 -0.623,-0.061 -1.211,0.25 -1.69,0.593 -5.618,4.017 -2.895,12.115 -6.869,17.349 -0.544,0.717 -1.31,1.416 -2.312,1.513 -1.909,0.185 -3.011,-1.764 -3.381,-3.356 -1.138,-4.898 -1.023,-9.935 -0.904,-14.926 0.125,-5.2 0.25,-10.399 0.374,-15.599 0.028,-1.14 0.031,-2.357 -0.696,-3.317 -0.727,-0.961 -2.479,-1.447 -3.453,-0.656 -0.477,0.388 -0.648,0.965 -0.798,1.51 -0.535,1.944 -1.07,3.887 -1.605,5.831 0.024,-2.337 0.048,-4.674 0.071,-7.011 0.009,-0.84 0.007,-1.72 -0.453,-2.464 -0.46,-0.744 -1.536,-1.289 -2.46,-0.978 -0.903,0.304 -1.241,1.215 -1.469,2.013 -0.54,1.893 -1.08,3.785 -1.62,5.678 -1.473,-1.131 0.987,-3.459 -4.42,-3.392 -2.131,5.871 -3.46,11.949 -3.95,18.074 -1.618,-0.705 -1.649,-2.592 -1.881,-4.119 -0.231,-1.526 -1.771,-3.354 -3.41,-2.68 -0.634,12.73 1.397,25.549 5.969,37.684 0.965,2.562 2.047,5.107 2.591,7.757 0.62,3.021 0.527,6.113 0.328,9.175 -0.035,0.539 0.453,1.037 0.308,1.566 -40.72,147.955 23.816,132.872 23.816,132.872 0,0 9.892,1.854 16.659,-18.522 C 11.208,21.023 8.013,26.502 8.013,26.502 L 0,0 z"
             inkscape:connector-curvature="0"
             id="path102"
             style="fill:#f1623b;fill-opacity:1;fill-rule:nonzero;stroke:none" /></g><g
           transform="translate(198.1624,546.9222)"
           id="g104"><path
             d="m 0,0 -5.088,0 -0.029,0 -5.088,0 c 0,0 4.29,-11.023 5.088,-11.023 l 0,-0.002 c 0.005,0 0.01,0.001 0.015,0.001 l 0.014,-0.001 0,0.002 C -4.308,-11.023 0,0 0,0"
             inkscape:connector-curvature="0"
             id="path106"
             style="fill:#fcd32a;fill-opacity:1;fill-rule:nonzero;stroke:none" /></g><g
           transform="translate(211.519,567.646)"
           id="g108"><path
             d="m 0,0 c -7.726,-6.211 -10.408,-8.72 -17.874,-8.757 l 0,-0.003 c -0.028,0 -0.053,0.002 -0.081,0.002 -0.028,0 -0.053,-0.002 -0.081,-0.002 l 0,0.003 c -7.465,0.037 -10.147,2.546 -17.873,8.757 -5.279,4.243 -10.642,2.156 -13.549,0.373 0.985,-3.929 2.331,-7.478 4.168,-10.3 5.909,-9.079 16.014,-12.236 26.599,-12.523 l 0,-0.025 c 0.273,0 0.545,0.004 0.817,0.007 0.273,-0.003 0.545,-0.007 0.818,-0.007 l 0,0.025 c 10.586,0.287 20.69,3.444 26.599,12.523 1.824,2.802 3.164,6.318 4.148,10.213 C 10.818,2.087 5.364,4.312 0,0"
             inkscape:connector-curvature="0"
             id="path110"
             style="fill:#fcd32a;fill-opacity:1;fill-rule:nonzero;stroke:none" /></g><g
           transform="translate(149.4709,584.2692)"
           id="g112"><path
             d="M 0,0 C -2.96,3.189 -3.923,7.108 -2.151,8.752 -0.38,10.397 3.456,9.144 6.416,5.955 9.376,2.766 10.339,-1.153 8.568,-2.797 6.796,-4.442 2.96,-3.189 0,0"
             inkscape:connector-curvature="0"
             id="path114"
             style="fill:#fcd32a;fill-opacity:1;fill-rule:nonzero;stroke:none" /></g><g
           transform="translate(229.4481,584.2692)"
           id="g116"><path
             d="M 0,0 C 2.96,3.189 3.923,7.108 2.151,8.752 0.38,10.397 -3.456,9.144 -6.416,5.955 -9.376,2.766 -10.339,-1.153 -8.568,-2.797 -6.796,-4.442 -2.96,-3.189 0,0"
             inkscape:connector-curvature="0"
             id="path118"
             style="fill:#fcd32a;fill-opacity:1;fill-rule:nonzero;stroke:none" /></g><g
           transform="translate(194.2211,532.9726)"
           id="g120"><path
             d="m 0,0 -5.364,0 -0.03,0 -5.364,0 c 0,0 2.234,-7.246 5.364,-7.293 l 0,-0.002 c 0.005,0 0.01,0.001 0.015,0.001 l 0.015,-0.001 0,0.002 C -2.233,-7.246 0,0 0,0"
             inkscape:connector-curvature="0"
             id="path122"
             style="fill:#fcd32a;fill-opacity:1;fill-rule:nonzero;stroke:none" /></g><g
           transform="translate(208.3015,553.6964)"
           id="g124"><path
             d="m 0,0 c -8.145,-6.211 -10.972,-8.72 -18.842,-8.757 l 0,-0.003 c -0.03,0 -0.056,0.002 -0.086,0.002 -0.029,0 -0.055,-0.002 -0.085,-0.002 l 0,0.003 c -7.87,0.037 -10.697,2.546 -18.842,8.757 -5.565,4.243 -11.218,2.156 -14.283,0.373 1.039,-3.929 2.458,-7.478 4.394,-10.3 6.229,-9.079 16.881,-12.236 28.041,-12.523 l 0,-0.025 c 0.287,0 0.574,0.004 0.861,0.007 0.287,-0.003 0.574,-0.007 0.861,-0.007 l 0,0.025 c 11.16,0.287 21.812,3.444 28.041,12.523 1.922,2.802 3.336,6.318 4.372,10.213 C 11.404,2.087 5.655,4.312 0,0"
             inkscape:connector-curvature="0"
             id="path126"
             style="fill:#fcd32a;fill-opacity:1;fill-rule:nonzero;stroke:none" /></g><g
           transform="translate(190.3208,621.3585)"
           id="g128"><path
             d="m 0,0 0,0.028 c -0.288,0 -0.575,-0.003 -0.861,-0.007 -0.287,0.004 -0.574,0.007 -0.862,0.007 l 0,-0.028 c -21.404,6.052 -35.849,-9.929 -35.042,-46.457 0.154,-6.973 0.911,-14.411 2.608,-20.832 3.065,1.783 1.963,19.921 14.283,-0.373 5.315,-8.756 10.972,-8.72 18.842,-8.757 l 0,-0.003 c 0.029,0 0.056,10e-4 0.085,0.002 0.03,-0.001 0.056,-0.002 0.086,-0.002 l 0,0.003 c 7.87,0.037 10.697,2.546 18.842,8.757 5.655,4.312 11.404,2.087 14.432,0.286 1.714,6.441 2.395,13.918 2.63,20.919 C 36.179,-12.603 20.15,-0.634 0,0"
             inkscape:connector-curvature="0"
             id="path130"
             style="fill:#2a2b2c;fill-opacity:1;fill-rule:nonzero;stroke:none" /></g><g
           transform="translate(178.4871,536.7491)"
           id="g132"><path
             d="m 0,0 c -1.51,-0.616 -4.56,-0.294 -6.991,0.876 -2.431,1.17 -3.702,3.09 -2.325,3.785 0.994,-1.502 4.324,-3.078 6.854,-3.246 0.464,-0.03 0.904,-0.021 1.401,-0.108 C -0.565,1.22 0.028,1.001 0.299,0.722 0.623,0.388 0.347,0.142 0,0"
             inkscape:connector-curvature="0"
             id="path134"
             style="fill:#373535;fill-opacity:1;fill-rule:nonzero;stroke:none" /></g><g
           transform="translate(178.4871,536.7491)"
           id="g136"><path
             d="m 0,0 c -1.51,-0.616 -4.56,-0.294 -6.991,0.876 -2.431,1.17 -3.702,3.09 -2.325,3.785 0.994,-1.502 4.324,-3.078 6.854,-3.246 0.464,-0.03 0.904,-0.021 1.401,-0.108 C -0.565,1.22 0.028,1.001 0.299,0.722 0.623,0.388 0.347,0.142 0,0 z"
             inkscape:connector-curvature="0"
             id="path138"
             style="fill:none;stroke:#373535;stroke-width:1.48500001;stroke-linecap:butt;stroke-linejoin:miter;stroke-miterlimit:10;stroke-opacity:1;stroke-dasharray:none" /></g><g
           transform="translate(200.0743,537.4713)"
           id="g140"><path
             d="M 0,0 C 0.271,0.279 0.863,0.498 1.36,0.585 1.856,0.672 2.296,0.663 2.761,0.693 5.291,0.861 8.62,2.437 9.615,3.938 10.991,3.244 9.721,1.324 7.29,0.154 4.858,-1.016 1.809,-1.338 0.299,-0.722 -0.048,-0.581 -0.325,-0.334 0,0"
             inkscape:connector-curvature="0"
             id="path142"
             style="fill:#373535;fill-opacity:1;fill-rule:nonzero;stroke:none" /></g><g
           transform="translate(200.0743,537.4713)"
           id="g144"><path
             d="M 0,0 C 0.271,0.279 0.863,0.498 1.36,0.585 1.856,0.672 2.296,0.663 2.761,0.693 5.291,0.861 8.62,2.437 9.615,3.938 10.991,3.244 9.721,1.324 7.29,0.154 4.858,-1.016 1.809,-1.338 0.299,-0.722 -0.048,-0.581 -0.325,-0.334 0,0 z"
             inkscape:connector-curvature="0"
             id="path146"
             style="fill:none;stroke:#373535;stroke-width:1.48500001;stroke-linecap:butt;stroke-linejoin:miter;stroke-miterlimit:10;stroke-opacity:1;stroke-dasharray:none" /></g><g
           transform="translate(168.4193,574.0605)"
           id="g148"><path
             d="m 0,0 c 0,0 -19.01,-19.256 4.972,-42.239 0,0 7.866,-7.563 -6.06,-16.15 0,0 30.529,-4.177 6.771,19.418 0,0 -17.703,21.37 7.777,35.244 L 0,0 z"
             inkscape:connector-curvature="0"
             id="path150"
             style="fill:#2b2b2b;fill-opacity:1;fill-rule:evenodd;stroke:none" /></g><g
           transform="translate(193.6455,545.1784)"
           id="g152"><path
             d="m 0,0 c 0,0 26.347,7.566 35.96,-7.39 26.595,-41.376 50.353,0 50.353,0 0,0 17.573,9.134 22.679,-39.225 l 0.925,29.151 L 96.362,24.958 43.453,71.184 -6.673,76.201 0,0 z"
             inkscape:connector-curvature="0"
             id="path154"
             style="fill:#2a2b2c;fill-opacity:1;fill-rule:nonzero;stroke:none" /></g><g
           transform="translate(156.1637,554.0694)"
           id="g156"><path
             d="M 0,0 C 0,0 -19.859,41.884 11.03,64.722 L 0,0 z"
             inkscape:connector-curvature="0"
             id="path158"
             style="fill:#2a2b2c;fill-opacity:1;fill-rule:nonzero;stroke:none" /></g></g></g></g></svg>