<?xml version="1.0" encoding="UTF-8" standalone="no"?>
<!-- Created with Inkscape (http://www.inkscape.org/) -->

<svg
   xmlns:dc="http://purl.org/dc/elements/1.1/"
   xmlns:cc="http://creativecommons.org/ns#"
   xmlns:rdf="http://www.w3.org/1999/02/22-rdf-syntax-ns#"
   xmlns:svg="http://www.w3.org/2000/svg"
   xmlns="http://www.w3.org/2000/svg"
   xmlns:inkscape="http://www.inkscape.org/namespaces/inkscape"
   version="1.1"
   width="460.02249"
   height="764.94373"
   id="svg2"
   xml:space="preserve"><metadata
     id="metadata8"><rdf:RDF><cc:Work
         rdf:about=""><dc:format>image/svg+xml</dc:format><dc:type
           rdf:resource="http://purl.org/dc/dcmitype/StillImage" /></cc:Work></rdf:RDF></metadata><defs
     id="defs6"><clipPath
       id="clipPath16"><path
         d="m 0,611.955 368.018,0 L 368.018,0 0,0 0,611.955 z"
         inkscape:connector-curvature="0"
         id="path18" /></clipPath></defs><g
     transform="matrix(1.25,0,0,-1.25,0,764.94375)"
     id="g10"><g
       id="g12"><g
         clip-path="url(#clipPath16)"
         id="g14"><g
           transform="translate(193.2709,577.6373)"
           id="g20"><path
             d="m 0,0 c -8.458,-4.808 -1.864,-19.489 -11.006,-23.183 -4.465,-1.804 -10.146,0.605 -14.33,-1.668 -5.312,-2.886 -3.295,-9.787 -4.416,-15.113 -1.115,-5.295 -5.784,-9.449 -9.807,-13.596 -21.592,-22.25 -28.93,-54.235 -18.656,-81.319 6.556,8.852 18.39,13.749 30.096,16.083 11.706,2.335 23.779,2.574 35.548,4.618 33.74,5.863 62.022,25.83 88.73,45.123 17.976,12.984 37.425,28.331 39.128,48.395 0.996,11.735 -4.653,23.281 -13.547,31.896 -8.895,8.614 -20.801,14.525 -33.287,18.653 -8.86,2.929 -18.334,5.046 -27.876,4.265 C 51.035,33.374 41.378,29.31 36.222,22.171 30.629,14.427 28.93,2.527 18.733,0.623 12.479,-0.544 5.394,3.066 0,0"
             inkscape:connector-curvature="0"
             id="path22"
             style="fill:#292929;fill-opacity:1;fill-rule:evenodd;stroke:none" /></g><g
           transform="translate(231.8715,544.9598)"
           id="g24"><path
             d="m 0,0 c 1.195,-1.709 -2.039,-7.284 -2.557,-7.917 -1.439,-1.758 -3.791,-3.546 -0.998,-4.97 2.165,-1.104 4.6,-1.917 6.938,-2.707 4.85,-1.64 8.578,-2.46 13.263,-4.413 23.992,-10.001 -10.397,-57.949 0.852,-40.9 9.965,1.028 46.841,-3.433 54.589,-9.344 7.972,-6.082 -17.844,26.827 -0.349,46.137 1.548,1.709 -11.27,14.479 -11.104,16.626 0.181,2.336 0.07,4.675 -0.04,7.008 -0.441,9.271 -0.884,18.561 -2.361,27.726 -0.354,2.199 -0.773,4.408 -1.692,6.466 -2.237,5.013 -7.636,8.681 -13.664,9.729 C 35.725,44.685 29.667,40.579 25.5,35.698 22.529,32.218 20.251,28.324 17.222,24.882 12.061,19.018 4.729,14.609 -3.351,12.513 -0.92,11.231 1.703,10.219 4.438,9.508 4.114,8.257 2.022,5.481 0.228,5.093 c 0,0 0.197,-1.294 5.288,-2.02 C 9.258,2.54 8.289,-4.256 0,0"
             inkscape:connector-curvature="0"
             id="path26"
             style="fill:#90c6d4;fill-opacity:1;fill-rule:nonzero;stroke:none" /></g><g
           transform="translate(255.9703,571.8737)"
           id="g28"><path
             d="m 0,0 c 2.164,0.479 4.504,0.362 6.591,-0.328 0.484,-0.16 0.955,-0.351 1.394,-0.587 1.594,-0.857 2.686,-2.288 3.262,-3.818 0.568,-1.507 0.673,-3.137 0.303,-4.686 0.329,-0.147 0.593,0.274 0.637,0.588 0.208,1.48 0.315,2.99 -0.016,4.455 -0.331,1.465 -1.139,2.894 -2.498,3.835 C 7.962,0.643 5.643,0.912 3.45,1.067 2.466,1.136 1.47,1.191 0.496,1.052 0.139,1.001 -0.251,0.901 -0.428,0.632 -0.605,0.362 -0.35,-0.078 0,0"
             inkscape:connector-curvature="0"
             id="path30"
             style="fill:#373535;fill-opacity:1;fill-rule:nonzero;stroke:none" /></g><g
           transform="translate(259.9139,559.7867)"
           id="g32"><path
             d="m 0,0 c -1.578,-1.288 -4.171,-1.618 -5.891,-0.558 -1.72,1.059 -2.123,3.509 -0.634,4.875 0.316,-1.915 2.682,-3.329 4.87,-2.91 0.402,0.077 0.798,0.206 1.207,0.21 C -0.04,1.62 0.405,1.458 0.54,1.125 0.702,0.725 0.363,0.296 0,0"
             inkscape:connector-curvature="0"
             id="path34"
             style="fill:#373535;fill-opacity:1;fill-rule:nonzero;stroke:none" /></g><g
           transform="translate(259.9139,559.7867)"
           id="g36"><path
             d="m 0,0 c -1.578,-1.288 -4.171,-1.618 -5.891,-0.558 -1.72,1.059 -2.123,3.509 -0.634,4.875 0.316,-1.915 2.682,-3.329 4.87,-2.91 0.402,0.077 0.798,0.206 1.207,0.21 C -0.04,1.62 0.405,1.458 0.54,1.125 0.702,0.725 0.363,0.296 0,0 z"
             inkscape:connector-curvature="0"
             id="path38"
             style="fill:none;stroke:#373535;stroke-width:1.62;stroke-linecap:butt;stroke-linejoin:miter;stroke-miterlimit:10;stroke-opacity:1;stroke-dasharray:none" /></g><g
           transform="translate(298.4111,515.9048)"
           id="g40"><path
             d="m 0,0 c -9.813,0.853 -18.222,7.985 -19.572,16.599 -0.571,3.645 0.189,7.758 3.24,10.398 2.124,1.837 5.097,2.751 7.18,4.625 3.351,3.015 3.37,8.365 0.041,11.172 -0.756,0.637 -1.692,1.162 -2.749,1.247 -2.502,0.202 -4.431,-1.959 -5.862,-3.841 -1.431,-1.882 -3.522,-3.985 -5.985,-3.587 -2.045,0.331 -3.17,2.354 -3.126,4.204 0.044,1.85 0.928,3.62 1.497,5.419 1.602,5.065 0.608,10.641 -2.651,14.87 -3.258,4.229 -8.723,7.037 -14.576,7.488 -0.303,4.422 3.511,8.621 8.165,10.465 4.654,1.845 9.932,1.739 14.855,0.996 6.63,-1.002 13.149,-3.185 17.985,-7.207 3.203,-2.665 5.547,-6.022 7.855,-9.341 2.611,-3.754 5.242,-7.543 6.9,-11.723 2.325,-5.857 2.646,-12.235 2.667,-18.516 C 15.898,22.481 14.703,10.74 6.552,2.423 5.681,1.535 4.697,0.673 3.462,0.255 2.359,-0.117 1.155,-0.1 0,0"
             inkscape:connector-curvature="0"
             id="path42"
             style="fill:#292929;fill-opacity:1;fill-rule:nonzero;stroke:none" /></g><g
           transform="translate(210.7489,428.4343)"
           id="g44"><path
             d="m 0,0 c 2.402,2.138 2.406,5.792 0.009,8.162 -2.398,2.37 -6.288,2.558 -8.69,0.419 C -11.082,6.443 -11.086,2.789 -8.689,0.419 -6.292,-1.95 -2.402,-2.138 0,0"
             inkscape:connector-curvature="0"
             id="path46"
             style="fill:#ffffff;fill-opacity:1;fill-rule:nonzero;stroke:none" /></g><g
           transform="translate(91.0938,406.387)"
           id="g48"><path
             d="M 0,0 26.222,-400.396 234.652,-7.019 0,0 z"
             inkscape:connector-curvature="0"
             id="path50"
             style="fill:#ffffff;fill-opacity:1;fill-rule:evenodd;stroke:none" /></g><g
           transform="translate(91.8746,293.8378)"
           id="g52"><path
             d="m 0,0 c 0,0 1.404,-24.832 -11.092,-129.468 0,0 -14.576,-48.003 -6.601,-76.889 l -26.793,-4.505 c 0,0 -18.609,83.183 -23.199,95.504 -4.59,12.322 -41.375,69.136 -14.378,127.556 0,0 4.14,20.676 3.186,28.846 -0.954,8.169 -0.835,43.604 48.185,46.647 49.021,3.042 29.941,-29.664 29.941,-29.664 0,0 0.377,-29.882 0.751,-58.027"
             inkscape:connector-curvature="0"
             id="path54"
             style="fill:#90c6d4;fill-opacity:1;fill-rule:nonzero;stroke:none" /></g><g
           transform="translate(72.5107,95.2201)"
           id="g56"><path
             d="m 0,0 c 0,0 -0.047,-6.265 2.892,-9.588 2.938,-3.323 5.863,-8.436 6.023,-14.344 0,0 0.588,-3.403 3.019,-6.277 2.431,-2.873 7.072,-10.768 9.29,-14.893 2.217,-4.126 12.348,-15.801 16.115,-17.696 3.767,-1.894 9.965,-6.662 11.568,-10.965 0,0 1.91,-4.214 3.432,-5.562 1.523,-1.349 9.344,-7.734 0.02,-11.009 0,0 -5.223,-1.5 -7.554,1.104 0,0 0.845,-3.18 -2.585,-4.017 0,0 -5.119,-1.322 -6.528,1.548 0,0 -2.646,-5.225 -9.461,-1.081 0,0 -5.507,-5.304 -10.272,-0.273 0,0 -7.344,-4.938 -11.511,4.879 -3.847,9.061 -11.861,33.207 -11.861,33.207 0,0 -6.113,15.955 -9.96,20.803 -3.847,4.848 -5.744,10.852 -6.221,15.329 0,0 -1.432,6.584 -2.875,11.825 0,0 26.623,7.054 26.469,7.01"
             inkscape:connector-curvature="0"
             id="path58"
             style="fill:#90c6d4;fill-opacity:1;fill-rule:nonzero;stroke:none" /></g><g
           transform="translate(68.4071,399.0652)"
           id="g60"><path
             d="m 0,0 c 0,0 48.069,-67.364 -0.694,-203.616 0,0 -33.435,-113.485 57.137,-179.554 L 34.982,-12.988 0,0 z"
             inkscape:connector-curvature="0"
             id="path62"
             style="fill:#ffffff;fill-opacity:1;fill-rule:nonzero;stroke:none" /></g><g
           transform="translate(258.9286,337.5782)"
           id="g64"><path
             d="m 0,0 c 0,0 6.322,-28.102 -7.434,-31.267 -9.149,-2.106 -42.697,-4.611 -42.697,-4.611 -9.223,-3.007 -28.02,-2.536 -28.02,-2.536 -7.957,-1.387 -16.344,1.191 -24.55,2.782 -10.99,2.13 -22.096,2.499 -32.85,1.089 -1.147,-0.151 -2.571,-0.689 -2.456,-1.985 0.056,-0.636 0.499,-1.187 0.956,-1.624 5.349,-5.13 13.423,-1.329 19.748,-4.644 0.867,-0.454 1.757,-1.134 2.053,-2.13 0.564,-1.897 -1.292,-3.262 -2.912,-3.843 -4.981,-1.787 -10.353,-2.33 -15.676,-2.863 -5.546,-0.555 -11.092,-1.11 -16.637,-1.666 -1.217,-0.121 -2.509,-0.277 -3.389,-1.135 -0.88,-0.857 -1.058,-2.685 -0.031,-3.562 0.504,-0.429 1.15,-0.526 1.758,-0.606 2.167,-0.284 4.334,-0.568 6.502,-0.852 l -7.46,-0.846 c -0.894,-0.101 -1.827,-0.219 -2.529,-0.779 -0.702,-0.56 -1.072,-1.715 -0.563,-2.605 0.496,-0.868 1.529,-1.09 2.42,-1.215 2.114,-0.296 4.228,-0.592 6.342,-0.888 -0.917,-1.631 -3.863,0.541 -2.75,-4.893 6.646,-1.377 13.357,-1.919 19.956,-1.611 -0.437,-1.721 -2.434,-1.999 -4.011,-2.432 -1.577,-0.433 -3.221,-2.222 -2.189,-3.784 13.641,1.028 26.862,4.75 38.867,10.942 2.535,1.307 5.029,2.729 7.738,3.623 3.089,1.02 6.39,1.332 9.68,1.532 0.579,0.036 1.012,0.571 1.604,0.515 124.683,-11.738 141.858,2.847 108.644,49.485"
             inkscape:connector-curvature="0"
             id="path66"
             style="fill:#90c6d4;fill-opacity:1;fill-rule:nonzero;stroke:none" /></g><g
           transform="translate(112.4516,487.5851)"
           id="g68"><path
             d="m 0,0 c 0,0 46.322,9.393 46.913,10.125 0.591,0.732 38.18,23.31 108.84,0.38 L 40.077,-75.51 0,0 z"
             inkscape:connector-curvature="0"
             id="path70"
             style="fill:#90c6d4;fill-opacity:1;fill-rule:nonzero;stroke:none" /></g><g
           transform="translate(193.6905,416.9039)"
           id="g72"><path
             d="M 0,0 C 2.757,10.098 13.818,15.767 24.706,12.662 35.594,9.557 42.186,-1.145 39.43,-11.243 36.673,-21.341 25.612,-27.01 14.724,-23.905 3.836,-20.801 -2.757,-10.098 0,0"
             inkscape:connector-curvature="0"
             id="path74"
             style="fill:#90c6d4;fill-opacity:1;fill-rule:evenodd;stroke:none" /></g><g
           transform="translate(239.51,269.932)"
           id="g76"><path
             d="m 0,0 27.576,-8.061 c 0,0 94.307,73.825 100.609,140.931 2.882,30.689 -13.594,62.939 -46.37,67.764 -32.776,4.825 -23.941,27.457 -23.941,27.457 l -25.16,10.137 c -1.048,-2.665 -21.868,-12.247 -72.67,-21.314"
             inkscape:connector-curvature="0"
             id="path78"
             style="fill:#90c6d4;fill-opacity:1;fill-rule:evenodd;stroke:none" /></g><g
           transform="translate(255.6486,459.2114)"
           id="g80"><path
             d="m 0,0 c -0.359,-4.197 -0.313,-5.953 -0.597,-10.164 -0.482,-7.174 0.783,-6.502 4.566,-20.607 0,0 -4.626,-0.743 -7.712,0.039 -0.724,-1.018 -1.233,-4.183 -0.103,-5.615 -1.069,-0.649 -3.721,0.431 -5.32,1.262 0.408,-0.925 2.622,-3.192 3.03,-4.117 -2.3,-0.311 -2.967,-4.398 -3.935,-6.115 -0.366,-0.65 -0.454,-1.413 -0.537,-2.162 -0.231,-2.079 0.245,-4.78 -3.109,-3.855 -2.598,0.717 -5.184,1.8 -7.675,2.833 -5.167,2.143 -10.028,5.001 -15.309,6.834 -27.045,9.385 -37.231,-44.128 -32.827,-25.745 -7.16,7.231 -37.607,21.694 -45.912,36.337 -0.165,0.291 30.272,-0.866 31.459,23.089 0.105,2.119 20.52,4.601 22.075,6.092 1.691,1.622 3.388,1.793 5.31,3.221 7.64,5.673 15.395,9.897 23.78,14.819 2.011,1.18 4.082,2.324 6.434,3.043 5.729,1.749 12.928,0.549 18.573,-2.751 C -1.113,12.523 0.504,5.887 0,0"
             inkscape:connector-curvature="0"
             id="path82"
             style="fill:#854c33;fill-opacity:1;fill-rule:nonzero;stroke:none" /></g><g
           transform="translate(250.6966,453.1748)"
           id="g84"><path
             d="m 0,0 c -0.596,1.987 -1.889,3.919 -3.641,5.441 -0.405,0.353 -0.836,0.684 -1.297,0.973 -1.675,1.049 -3.685,1.479 -5.536,1.44 -1.824,-0.038 -3.543,-0.508 -4.939,-1.35 -0.315,0.227 -0.018,0.593 0.281,0.738 1.408,0.683 2.897,1.29 4.559,1.513 1.663,0.223 3.527,0.032 5.17,-0.79 C -3.335,6.929 -1.898,5.067 -0.64,3.272 -0.076,2.467 0.479,1.646 0.826,0.779 0.953,0.461 1.046,0.097 0.86,-0.145 0.674,-0.386 0.096,-0.322 0,0"
             inkscape:connector-curvature="0"
             id="path86"
             style="fill:#373535;fill-opacity:1;fill-rule:nonzero;stroke:none" /></g><g
           transform="translate(237.8652,451.3109)"
           id="g88"><path
             d="M 0,0 C -0.128,-1.862 1.283,-4.053 3.381,-4.887 5.48,-5.72 7.972,-4.846 8.23,-3.016 6.282,-3.698 3.435,-2.531 2.371,-0.613 2.176,-0.261 2.032,0.112 1.765,0.434 1.498,0.756 1.057,1.025 0.665,0.969 0.195,0.902 0.029,0.428 0,0"
             inkscape:connector-curvature="0"
             id="path90"
             style="fill:#373535;fill-opacity:1;fill-rule:nonzero;stroke:none" /></g><g
           transform="translate(237.8652,451.3109)"
           id="g92"><path
             d="M 0,0 C -0.128,-1.862 1.283,-4.053 3.381,-4.887 5.48,-5.72 7.972,-4.846 8.23,-3.016 6.282,-3.698 3.435,-2.531 2.371,-0.613 2.176,-0.261 2.032,0.112 1.765,0.434 1.498,0.756 1.057,1.025 0.665,0.969 0.195,0.902 0.029,0.428 0,0 z"
             inkscape:connector-curvature="0"
             id="path94"
             style="fill:none;stroke:#373535;stroke-width:1.64600003;stroke-linecap:butt;stroke-linejoin:miter;stroke-miterlimit:10;stroke-opacity:1;stroke-dasharray:none" /></g><g
           transform="translate(250.2355,270.5503)"
           id="g96"><path
             d="m 0,0 c 0,0 11.971,-8.662 15.531,-2.258 4.181,7.52 9.622,37.774 9.622,37.774 4.141,7.928 5.812,24.845 5.812,24.845 2.334,6.979 0.649,14.798 -0.044,22.341 -0.928,10.102 -0.034,20.108 2.645,29.593 0.285,1.012 1.001,2.227 2.318,1.976 0.646,-0.123 1.16,-0.584 1.557,-1.043 4.651,-5.387 -0.174,-12.194 2.504,-18.248 0.367,-0.829 0.962,-1.706 1.95,-2.085 1.883,-0.723 3.496,0.786 4.278,2.172 2.404,4.264 3.577,9.02 4.733,13.735 1.205,4.911 2.41,9.822 3.615,14.734 0.264,1.077 0.572,2.218 1.553,2.909 0.981,0.691 2.876,0.642 3.659,-0.38 0.383,-0.501 0.408,-1.092 0.42,-1.646 l 0.13,-5.93 c 0.574,2.198 1.149,4.396 1.723,6.594 0.206,0.791 0.433,1.614 1.089,2.18 0.655,0.565 1.883,0.765 2.737,0.207 0.835,-0.545 0.944,-1.497 0.97,-2.31 0.062,-1.931 0.123,-3.861 0.185,-5.791 1.779,0.635 -0.113,3.528 5.337,1.906 0.652,-6.119 0.439,-12.201 -0.633,-18.086 1.817,0.195 2.331,1.955 2.956,3.32 0.625,1.365 2.649,2.635 4.133,1.53 C 76.163,95.92 70.829,84.486 63.101,74.426 61.469,72.302 59.724,70.228 58.496,67.9 57.096,65.246 56.398,62.32 55.815,59.391 55.712,58.876 55.092,58.55 55.104,58.012 58.402,-92.454 -2.984,-59.707 -2.984,-59.707 c 0,0 -10.476,1.113 -12.102,22.17 -1.627,21.056 0.202,14.997 0.202,14.997 L 0,0 z"
             inkscape:connector-curvature="0"
             id="path98"
             style="fill:#854c33;fill-opacity:1;fill-rule:nonzero;stroke:none" /></g><g
           transform="translate(250.2355,270.5503)"
           id="g100"><path
             d="m 0,0 13.471,-11.055 3.403,6.243 c 0,0 3.425,77.421 -4.782,109.214 0,0 2.102,20.683 -38.089,26.628 0,0 -23.281,-0.546 -28.78,9.249 l -46.01,15.658 c 0,0 -94.812,17.94 -81.041,-27.422 l 26.657,-10.128 121.114,-41.609 c 0,0 4.742,-93.292 22.443,-128.671"
             inkscape:connector-curvature="0"
             id="path102"
             style="fill:#854c33;fill-opacity:1;fill-rule:nonzero;stroke:none" /></g><g
           transform="translate(94.4206,385.247)"
           id="g104"><path
             d="M 0,0 C 0,0 3.481,34.042 20.212,44.767"
             inkscape:connector-curvature="0"
             id="path106"
             style="fill:none;stroke:#ffffff;stroke-width:1.01100004;stroke-linecap:butt;stroke-linejoin:miter;stroke-miterlimit:10;stroke-opacity:1;stroke-dasharray:none" /></g><g
           transform="translate(186.7978,358.943)"
           id="g108"><path
             d="M 0,0 C 0,0 3.481,34.042 20.212,44.767"
             inkscape:connector-curvature="0"
             id="path110"
             style="fill:none;stroke:#ffffff;stroke-width:1.01100004;stroke-linecap:butt;stroke-linejoin:miter;stroke-miterlimit:10;stroke-opacity:1;stroke-dasharray:none" /></g><g
           transform="translate(144.951,477.7323)"
           id="g112"><path
             d="m 0,0 c 0,0 -16.983,-14.101 -8.551,-25.398 5.61,-7.515 23.498,-34.332 23.498,-34.332 5.08,-8.249 19.715,-20.032 19.715,-20.032 5.166,-6.196 13.231,-9.649 20.518,-13.736 9.76,-5.474 18.465,-12.367 25.749,-20.388 0.776,-0.855 1.512,-2.185 0.585,-3.099 -0.455,-0.448 -1.15,-0.582 -1.782,-0.621 -7.405,-0.455 -11.095,7.658 -18.066,9.216 -0.956,0.214 -2.075,0.27 -2.946,-0.297 -1.661,-1.082 -1.131,-3.322 -0.273,-4.811 2.639,-4.58 6.381,-8.463 10.093,-12.308 3.868,-4.005 7.735,-8.011 11.603,-12.016 0.848,-0.879 1.732,-1.832 1.847,-3.054 0.114,-1.222 -0.935,-2.73 -2.287,-2.735 -0.663,-0.002 -1.218,0.341 -1.733,0.673 -1.836,1.184 -3.672,2.367 -5.509,3.55 1.713,-1.821 3.425,-3.642 5.138,-5.463 0.615,-0.655 1.251,-1.347 1.423,-2.227 0.171,-0.881 -0.296,-2 -1.26,-2.35 -0.942,-0.341 -1.873,0.157 -2.633,0.638 -1.804,1.139 -3.607,2.279 -5.411,3.419 -0.359,-1.836 3.296,-2.083 -1.077,-5.507 -5.959,3.243 -11.426,7.165 -16.257,11.662 -0.783,-1.594 0.559,-3.096 1.48,-4.445 0.921,-1.348 1.014,-3.774 -0.785,-4.298 -9.732,9.595 -17.396,20.971 -22.532,33.445 -1.085,2.634 -2.064,5.329 -3.549,7.76 -1.693,2.773 -4.008,5.142 -6.386,7.421 -0.418,0.401 -0.401,1.088 -0.889,1.428 C -82.936,-26.32 -86.569,-4.108 -31.004,9.991"
             inkscape:connector-curvature="0"
             id="path114"
             style="fill:#90c6d4;fill-opacity:1;fill-rule:nonzero;stroke:none" /></g><g
           transform="translate(284.0332,402.2088)"
           id="g116"><path
             d="M 0,0 C -0.5,3.177 1.816,6.004 5.172,6.314 8.528,6.625 11.654,4.302 12.154,1.125 12.654,-2.051 10.339,-4.878 6.982,-5.189 3.626,-5.5 0.5,-3.177 0,0"
             inkscape:connector-curvature="0"
             id="path118"
             style="fill:#ffffff;fill-opacity:1;fill-rule:nonzero;stroke:none" /></g><g
           transform="translate(168.3823,440.406)"
           id="g120"><path
             d="m 0,0 c 5.04,8.697 1.055,19.987 3.492,29.721 2.083,8.317 8.906,14.95 17.102,18.482 8.196,3.533 17.636,4.23 26.825,3.432 7.221,-0.626 14.504,-2.182 20.984,-5.493 6.481,-3.312 12.122,-8.51 14.853,-14.926 -5.57,3.916 -12.896,5.443 -19.443,4.053 -6.547,-1.39 -12.188,-5.67 -14.971,-11.359 -2.391,-4.889 -3.751,-11.587 -9.428,-12.594 1.207,2.393 0.208,5.659 -2.211,7.232 -2.419,1.573 -5.95,1.251 -7.818,-0.713 C 26.563,14.87 28.003,10.038 26.881,6.151 25.542,1.512 20.501,-1.36 15.393,-1.941 10.286,-2.522 5.068,-1.255 0,0"
             inkscape:connector-curvature="0"
             id="path122"
             style="fill:#292929;fill-opacity:1;fill-rule:nonzero;stroke:none" /></g></g></g></g></svg>