<?xml version="1.0" encoding="UTF-8" standalone="no"?>
<!-- Created with Inkscape (http://www.inkscape.org/) -->

<svg
   xmlns:dc="http://purl.org/dc/elements/1.1/"
   xmlns:cc="http://creativecommons.org/ns#"
   xmlns:rdf="http://www.w3.org/1999/02/22-rdf-syntax-ns#"
   xmlns:svg="http://www.w3.org/2000/svg"
   xmlns="http://www.w3.org/2000/svg"
   xmlns:inkscape="http://www.inkscape.org/namespaces/inkscape"
   version="1.1"
   width="344.78125"
   height="869.64252"
   id="svg2"
   xml:space="preserve"><metadata
     id="metadata8"><rdf:RDF><cc:Work
         rdf:about=""><dc:format>image/svg+xml</dc:format><dc:type
           rdf:resource="http://purl.org/dc/dcmitype/StillImage" /></cc:Work></rdf:RDF></metadata><defs
     id="defs6"><clipPath
       id="clipPath16"><path
         d="m 0,695.714 275.825,0 L 275.825,0 0,0 0,695.714 z"
         inkscape:connector-curvature="0"
         id="path18" /></clipPath></defs><g
     transform="matrix(1.25,0,0,-1.25,0,869.6425)"
     id="g10"><g
       id="g12"><g
         clip-path="url(#clipPath16)"
         id="g14"><g
           transform="translate(179.5645,264.5163)"
           id="g20"><path
             d="m 0,0 c 4.023,10.985 6.811,22.368 8.309,33.928 1.07,8.253 1.33,17.185 -3.537,24.482 -6.738,10.102 -20.457,25.147 -33.416,25.502 -29.855,0.818 -59.414,-23.398 -77.769,-43.749 -2.202,-2.442 -4.313,-5.893 -2.309,-8.609 0.795,-1.079 2.103,-1.776 3.026,-2.773 3.577,-3.866 -0.082,-9.22 -2.032,-13.75 -3.898,-9.057 0.18,-19.965 7.775,-27.351 7.596,-7.386 18.125,-11.794 28.687,-14.978 18.992,-5.724 41.819,-7.457 56.385,4.022 C -7.31,-17.309 -3.161,-8.631 0,0"
             inkscape:connector-curvature="0"
             id="path22"
             style="fill:#373535;fill-opacity:1;fill-rule:nonzero;stroke:none" /></g><g
           transform="translate(76.3167,321.4421)"
           id="g24"><path
             d="m 0,0 c 42.435,9.976 50.443,-3.76 50.443,-3.76 0,0 9.58,-24.92 22.247,-51.587 l 7.333,3.334 C 71.781,23.675 35.783,49.53 35.783,49.53"
             inkscape:connector-curvature="0"
             id="path26"
             style="fill:#90c84b;fill-opacity:1;fill-rule:nonzero;stroke:none" /></g><g
           transform="translate(248.1949,279.6442)"
           id="g28"><path
             d="m 0,0 c -3.305,-6.44 1.444,-10.406 1.444,-10.406 l -85.651,-18.735 c -3.457,13.141 -0.42,48.958 -0.42,48.958 -45.524,77.305 -30.668,118.477 -30.668,118.477 l -9.849,6.133 -14.411,-10.395 c -7.067,6.154 -10.579,14.754 -10.579,14.754 l -11.834,-4.474 c -5.165,25.235 3.681,35.59 3.681,35.59 25.254,24.851 33.505,9.323 33.505,9.323 6.942,-8.727 26.393,-26.141 26.393,-26.141 8.084,-5.797 13.813,0.119 17.577,1.724 58.587,24.976 61.967,-76.046 55.414,-97.798 C -30.547,49.92 2.963,15.953 3.155,-1.609 3.223,-7.793 -2.471,5.398 1.197,0.215 -1.56,4.638 -4.316,9.061 -7.072,13.483"
             inkscape:connector-curvature="0"
             id="path30"
             style="fill:#6ca7b9;fill-opacity:1;fill-rule:nonzero;stroke:none" /></g><g
           transform="translate(136.5818,340.9279)"
           id="g32"><path
             d="m 0,0 c -8.886,-0.782 -18.349,-4.062 -26.567,-7.938 -6.758,-3.187 -25.547,-12.693 -18.805,-23.087 0.873,-1.346 1.95,-2.531 3.163,-3.601 2.188,8.432 16.582,14.984 16.582,14.984 C -6.814,-18.976 4.484,-8.941 4.484,-8.941 12.584,-12.088 9.033,0.795 0,0"
             inkscape:connector-curvature="0"
             id="path34"
             style="fill:#373535;fill-opacity:1;fill-rule:nonzero;stroke:none" /></g><g
           transform="translate(154.3114,364.2738)"
           id="g36"><path
             d="m 0,0 -21.482,33.673 c 8.53,17.459 -9.214,33.747 -9.214,33.747 30.71,11.781 54.797,25.325 73.661,38.971 19.597,10.826 54.989,35.746 78.548,83.571 0,0 -5.968,3.166 -7.995,6.359 0,0 -42.27,48.51 -155.864,92.192 0,0 -7.516,2.157 -19.863,11.078 -8.345,6.028 -16.689,12.057 -25.033,18.085 -2.234,1.614 -4.511,3.271 -6.012,5.446 -1.501,2.174 -2.105,5.002 -0.805,7.273 -0.933,0.923 -2.516,1.286 -3.84,0.881 -1.324,-0.404 -2.309,-1.553 -2.39,-2.787 -0.956,0.75 -1.912,1.5 -2.868,2.249 -0.241,0.189 -0.491,0.383 -0.798,0.469 -0.684,0.193 -1.434,-0.231 -1.766,-0.792 -0.331,-0.561 -0.348,-1.221 -0.357,-1.854 -0.431,0.17 -0.862,0.339 -1.293,0.509 -1.437,-0.595 -1.606,-2.675 -0.28,-3.448 -1.186,0.757 -3.102,0.322 -3.721,-0.846 -0.62,-1.168 0.23,-2.745 1.648,-3.063 -1.314,-0.453 -1.219,-2.294 -0.14,-3.098 1.078,-0.805 2.615,-0.863 4.027,-0.881 -0.192,-2.863 1.45,-5.589 3.466,-7.843 2.016,-2.254 4.449,-4.216 6.278,-6.591 4.158,-5.402 4.736,-12.244 6.18,-18.644 0.451,-1.998 1.01,-4.01 2.142,-5.787 1.133,-1.777 2.912,-3.316 5.133,-3.883 2.295,-0.585 4.761,-0.082 7.011,0.623 2.249,0.704 4.432,1.893 6.82,1.877 1.252,-0.009 3.179,-0.173 5.601,-0.634 0,0 9.47,-2.222 21.154,-8.802 10.467,-6.748 22.164,-18.152 32.023,-37.306 21.391,-41.56 65.814,-49.477 65.814,-49.477 L -4.372,172.744 C -105.8,151.115 -143.208,111.438 -110.685,66.376 c 38.465,-53.295 9.38,-94.554 9.38,-94.554 -14,-26 2.032,-38.458 21.154,-36.173 19.122,2.285 22.311,-14.549 22.311,-14.549 -5.467,-3.735 1.31,-10.91 5.756,-3.936 4.447,6.975 -1.737,13.276 -1.737,13.276 0,0 -8.051,2.765 -6.813,11.6 1.247,8.903 16.785,15.972 16.785,15.972 18.814,0.666 30.813,13.81 30.813,13.81 28.286,-10.99 47.239,-10.167 47.239,-10.167 l 49.134,-43.124 7.579,6.944 C 59.576,-10.254 0,0 0,0"
             inkscape:connector-curvature="0"
             id="path38"
             style="fill:#90c84b;fill-opacity:1;fill-rule:nonzero;stroke:none" /></g><g
           transform="translate(177.4032,421.8498)"
           id="g40"><path
             d="m 0,0 c 0,0 -7.033,-12.262 -7.736,-23.695 0,0 -13.701,3.432 -64.939,10.231 -7.346,0.975 -21.177,7.437 -21.177,7.437 l -4.864,-22.037 c 2.838,1.913 12.803,-2.673 19.453,-6.674 6.649,-4.001 11.764,-6.173 11.764,-6.173 l 75.804,-28.267 4.6,8.917 c 0,0 13.129,18.886 16.141,66.138 0,0 -11.172,1.211 -10.317,4.082 0,0 1.649,27.294 -18.729,-9.959"
             inkscape:connector-curvature="0"
             id="path42"
             style="fill:#6ca7b9;fill-opacity:1;fill-rule:nonzero;stroke:none" /></g><g
           transform="translate(178.3154,289.9906)"
           id="g44"><path
             d="m 0,0 c 0,0 -0.494,-10.534 -26.536,-20.741 0,0 -86.577,-26.232 -151.1,-67.361 l -0.679,-13.503 c 0,0 2.751,0.925 93.013,3.266 0,0 168.684,-24.089 160.869,78.889"
             inkscape:connector-curvature="0"
             id="path46"
             style="fill:#6ca7b9;fill-opacity:1;fill-rule:nonzero;stroke:none" /></g><g
           transform="translate(91.8903,297.4785)"
           id="g48"><path
             d="m 0,0 c 0.844,3.156 -8.816,7.508 -8.816,7.508 l 8.782,4.997 c -0.72,-1.697 2.602,-9.822 2.602,-9.822 2.204,-5.782 15.075,-1.877 18.971,-1.18 4.392,0.785 4.54,-2.4 4.54,-2.4 -0.721,-2.789 0.458,-3.366 0.458,-3.366 l -3.052,-2.482 c 1.366,-1.513 3.415,-1.766 3.415,-1.766 -2.294,-1.947 -1.352,-2.771 -1.352,-2.771 l 3.88,-1.647 c -2.499,-2.107 -3.884,-6.307 -3.884,-6.307 0.144,-13.844 -13.468,-11.181 -13.468,-11.181 0,0 9.698,6.394 -12.076,30.417"
             inkscape:connector-curvature="0"
             id="path50"
             style="fill:#90c84b;fill-opacity:1;fill-rule:nonzero;stroke:none" /></g><g
           transform="translate(110.4627,281.2083)"
           id="g52"><path
             d="M 0,0 C 0.014,-0.869 0.669,-1.717 1.556,-1.866 2.444,-2.014 3.432,-1.335 3.473,-0.467 2.7,-0.997 1.495,-0.779 0.991,-0.017 0.899,0.123 0.827,0.278 0.706,0.396 0.586,0.514 0.396,0.588 0.238,0.519 0.048,0.436 -0.003,0.2 0,0"
             inkscape:connector-curvature="0"
             id="path54"
             style="fill:#373535;fill-opacity:1;fill-rule:nonzero;stroke:none" /></g><g
           transform="translate(110.4627,281.2083)"
           id="g56"><path
             d="M 0,0 C 0.014,-0.869 0.669,-1.717 1.556,-1.866 2.444,-2.014 3.432,-1.335 3.473,-0.467 2.7,-0.997 1.495,-0.779 0.991,-0.017 0.899,0.123 0.827,0.278 0.706,0.396 0.586,0.514 0.396,0.588 0.238,0.519 0.048,0.436 -0.003,0.2 0,0 z"
             inkscape:connector-curvature="0"
             id="path58"
             style="fill:none;stroke:#373535;stroke-width:0.72100002;stroke-linecap:butt;stroke-linejoin:miter;stroke-miterlimit:10;stroke-opacity:1;stroke-dasharray:none" /></g><g
           transform="translate(114.5485,275.8049)"
           id="g60"><path
             d="m 0,0 c -0.651,-0.656 -1.517,-1.112 -2.439,-1.284 -0.214,-0.04 -0.43,-0.065 -0.647,-0.064 -0.788,0.001 -1.543,0.34 -2.139,0.829 -0.587,0.481 -1.04,1.112 -1.303,1.812 C -6.683,1.281 -6.67,1.056 -6.606,0.92 c 0.303,-0.637 0.65,-1.265 1.142,-1.781 0.491,-0.516 1.144,-0.915 1.87,-1 0.913,-0.107 1.81,0.284 2.633,0.693 0.369,0.184 0.739,0.375 1.052,0.64 0.114,0.097 0.228,0.221 0.223,0.367 C 0.309,-0.015 0.105,0.106 0,0"
             inkscape:connector-curvature="0"
             id="path62"
             style="fill:#373535;fill-opacity:1;fill-rule:nonzero;stroke:none" /></g><g
           transform="translate(34.137,214.6081)"
           id="g64"><path
             d="m 0,0 c 59.621,9.699 70.225,-59.109 76.589,-79.671 6.364,-20.562 40.194,-51.166 40.194,-51.166 l -15.687,-15.332 c -2.671,2.225 -95.517,86.078 -124.736,111.52 l -5.355,4.663 0.679,13.503"
             inkscape:connector-curvature="0"
             id="path66"
             style="fill:#ffffff;fill-opacity:1;fill-rule:nonzero;stroke:none" /></g><g
           transform="translate(28.9954,218.3713)"
           id="g68"><path
             d="m 0,0 c 59.621,9.699 70.225,-59.109 76.589,-79.671 6.364,-20.562 40.194,-51.166 40.194,-51.166 l -15.687,-15.332 c -2.671,2.225 -95.517,86.078 -124.736,111.52 l -5.355,4.663 0.679,13.503"
             inkscape:connector-curvature="0"
             id="path70"
             style="fill:#6ca7b9;fill-opacity:1;fill-rule:nonzero;stroke:none" /></g><g
           transform="translate(124.5941,77.7216)"
           id="g72"><path
             d="m 0,0 c 5.666,-11.053 1.847,-33.11 1.688,-45.183 -0.059,-4.5 -0.916,-6.83 -3.271,-10.713 -2.666,-4.395 -8.196,-7.132 -13.736,-6.799 -1.3,0.078 -2.654,0.305 -3.862,-0.104 -2.478,-0.84 -3.002,-4.192 -1.394,-6.193 1.608,-2.001 4.575,-2.721 7.221,-2.481 -1.255,-1.762 -1.99,-4.501 -0.082,-5.771 1.108,-0.737 2.68,-0.556 3.802,0.101 1.123,0.657 1.897,1.697 2.642,2.711 0.706,-1.215 2.58,-1.492 3.92,-0.952 1.339,0.541 2.266,1.66 3.136,2.736 0.841,-0.93 2.445,-0.963 3.568,-0.399 1.123,0.565 1.879,1.573 2.595,2.547 1.335,-1.635 4.082,-1.101 6.038,-0.248 9.703,4.229 17.22,12.344 20.245,21.854 1.472,4.631 1.937,9.577 4.09,13.96 2.047,4.166 5.349,7.709 8.993,10.795 C 58.931,-12.84 54,-9.862 53.822,-9.502 50.459,-2.715 46.338,-1.34 38.909,1.645 31.48,4.63 23.488,7.355 18.21,13.053"
             inkscape:connector-curvature="0"
             id="path74"
             style="fill:#6ca7b9;fill-opacity:1;fill-rule:nonzero;stroke:none" /></g><g
           transform="translate(254.4145,245.7963)"
           id="g76"><path
             d="m 0,0 c -2.841,0.501 -7.963,20.892 -10.689,19.456 -1.623,-0.854 -2.908,-3.205 -3.5,-4.952 -0.591,-1.747 -0.858,-3.616 -1.852,-5.196 -0.994,-1.58 -3.108,-2.741 -4.523,-1.836 -0.185,4.928 3.564,8.029 2.62,12.784 -0.263,1.322 0.445,3.57 0.246,4.91 -0.577,3.878 2.225,8.49 0.325,11.767 -0.333,0.575 -0.716,2.049 -0.63,2.752 0.081,0.661 0.537,0.274 1.064,0.708 2.213,1.823 4.568,3.822 7.12,5.012 1.148,-3.949 2.954,-6.285 6.313,-9.787 C -0.088,32.055 2.142,27.016 2.229,21.775 2.247,20.694 2.183,19.595 2.367,18.548 2.748,16.387 4.174,14.376 3.525,12.171 3.186,11.017 2.302,9.988 2.204,8.813 2.122,7.826 2.618,6.909 2.468,5.924 2.293,4.771 1.279,3.807 1.102,2.654 0.946,1.644 1.243,0.255 0.292,-0.12 0.17,-0.168 0.011,-0.219 -0.009,-0.349 -0.028,-0.479 0.122,-0.022 0,0"
             inkscape:connector-curvature="0"
             id="path78"
             style="fill:#90c84b;fill-opacity:1;fill-rule:nonzero;stroke:none" /></g><g
           transform="translate(50.4634,420.116)"
           id="g80"><path
             d="m 0,0 c -0.995,1.352 -3.739,-0.735 -4.773,-2.061 -2.01,-2.58 -3.441,-6.621 -0.522,-8.41 0.935,-0.573 2.271,-0.862 2.619,-1.818 0.422,-1.157 -0.976,-2.198 -1.208,-3.395 -0.239,-1.232 0.736,-2.455 1.891,-3.161 2.448,-1.497 1.337,-4.601 1.934,-5.735 0.598,-1.134 2.718,-0.508 3.569,-2.482 0.373,-0.867 -0.387,-2.878 0.074,-3.71 0.863,-1.558 5.059,-2.761 7.025,-2.741 1.966,0.02 3.839,0.686 5.658,1.342 5.2,1.874 10.4,3.748 15.6,5.622 1.083,0.391 2.186,0.791 3.081,1.455 0.851,0.632 1.469,1.469 2.036,2.313 2.479,3.681 4.242,7.735 5.192,11.934 0.11,0.484 0.209,0.985 0.096,1.469 -0.283,1.215 -1.73,1.883 -3.006,2.406 -8.528,3.499 -17.197,8.759 -19.535,16.788 -0.718,2.468 -1.501,5.73 -4.376,5.996 C 13.538,15.981 11.938,14.656 11.19,13.188 9.198,9.277 11.468,4.828 12.79,0.699 13,0.043 13.184,-0.667 12.92,-1.307 12.686,-1.874 12.138,-2.289 11.586,-2.645 8.251,-4.788 6.313,-4.793 2.254,-4.119 2.254,-4.119 0.39,-0.53 0,0"
             inkscape:connector-curvature="0"
             id="path82"
             style="fill:#6ca7b9;fill-opacity:1;fill-rule:nonzero;stroke:none" /></g><g
           transform="translate(205.9525,544.9539)"
           id="g84"><path
             d="m 0,0 c 0,0 17.359,2.574 25.832,2.784 0,0 -12.899,0.877 -26.84,-1.762 L 0,0 z"
             inkscape:connector-curvature="0"
             id="path86"
             style="fill:#ffffff;fill-opacity:1;fill-rule:nonzero;stroke:none" /></g><g
           transform="translate(131.0572,344.7868)"
           id="g88"><path
             d="m 0,0 c -0.21,-0.079 -0.443,0.026 -0.521,0.233 -0.078,0.208 0.029,0.44 0.239,0.519 C -0.072,0.83 0.161,0.726 0.239,0.518 0.317,0.311 0.21,0.079 0,0 m 1.171,0.695 c 0,0 -0.821,2.945 -4.242,2.263 -3.77,3.076 -7.067,2.723 -7.067,2.723 0,0 -3.943,-0.136 -5.741,1.735 0.566,-1.414 3.549,-2.486 3.549,-2.486 0,0 -0.391,-0.748 1.635,-1.155 -0.469,-0.635 1.696,-1.131 1.696,-1.131 0,0 -0.112,-0.643 1.852,-0.79 -0.151,-0.729 1.814,-0.593 1.814,-0.593 l 0.015,-0.136 c 0,0 -1.507,-0.883 -2.305,-2.808 l -6.47,-1.225 1.135,-0.104 c 0,0 -0.158,-0.519 1.259,-0.624 1.418,-0.105 2.224,0.198 2.224,0.198 0,0 -0.238,-0.496 0.525,-0.457 -0.232,-0.229 0.145,-0.388 0.145,-0.388 0,0 -1.201,-1.228 -0.922,-2.254 -0.968,-1.849 -0.472,-2.228 -0.472,-2.228 0,0 2.599,5.04 4.586,5.962 2.104,0.046 2.704,0.519 2.704,0.519 0,0 -0.658,-0.883 -0.116,-1.387 -0.534,-0.837 -0.093,-1.166 -0.093,-1.166 0,0 -0.279,-0.387 -0.135,-1.147 -0.713,-1.681 -0.167,-2.289 -0.167,-2.289 0,0 -0.814,-1.79 0.078,-2.658 0.143,2.352 0.987,3.305 0.987,3.305 0,0 2.24,3.456 1.848,5.819 1.007,0.236 1.492,1.019 1.492,1.019 0,0 0.889,0.486 1.308,0.502 C 1.85,0.172 1.171,0.695 1.171,0.695"
             inkscape:connector-curvature="0"
             id="path90"
             style="fill:#ffffff;fill-opacity:1;fill-rule:nonzero;stroke:none" /></g></g></g></g></svg>