<?xml version="1.0" encoding="utf-8"?>
<!-- Generator: Adobe Illustrator 18.1.1, SVG Export Plug-In . SVG Version: 6.00 Build 0)  -->
<svg version="1.1" xmlns="http://www.w3.org/2000/svg" xmlns:xlink="http://www.w3.org/1999/xlink" x="0px" y="0px"
	 viewBox="0 0 456 642" enable-background="new 0 0 456 642" xml:space="preserve">
<g id="AREOLA_51">
	<g>
		<g>
			<path fill="none" d="M178.4,342.8c0.1,0,0.2,0,0.3,0c0-0.1,0.1-0.1,0.1-0.2L178.4,342.8z"/>
		</g>
		<g>
			<path fill="none" d="M297.9,274.5c-3,8.4-4.6,19.3-4.8,29.6c2.2-8.6,4.5-15.6,6.6-18.6C299.7,285.5,298.9,280.8,297.9,274.5z"/>
		</g>
		<g>
			<path fill="none" d="M182.2,105.3c0.7-0.2,1.4-0.5,2.1-0.8c0-0.7,0-1.3-0.1-2c0,0,0,0-0.1,0C183.3,103.2,182.7,104.8,182.2,105.3
				z"/>
		</g>
		<g>
			<path d="M230.2,94.8c0.3-0.1,0.6-0.1,0.8-0.2c-0.1,0-0.3,0-0.4,0C230.5,94.6,230.4,94.7,230.2,94.8z"/>
		</g>
		<g>
			<path d="M237.5,145.2c-1.2,0.1-2.3,0.2-3.5,0.4c2.5,6.3,4.7,13.4,6.1,20.9c6.7-3.9,11.3-7,14.1-9.8
				C251.8,149.9,247.2,144.6,237.5,145.2z"/>
		</g>
		<g>
			<path fill="#F05730" d="M224.6,407.9c1.7-0.4,3.5-1.2,5.2-2.5c1.5-1.1,3.3-2.4,5.4-3.7c-3,0.7-4.9,1.5-7.8,3.8
				C226.8,406.1,225.7,407,224.6,407.9z"/>
		</g>
		<g>
			<path fill="#F05730" d="M298.2,372.9c0,0-10.5,21.1-12.5,26.6c-0.1,0.2-0.1,0.3-0.2,0.5c0,0,0,0.1,0,0.1l0,0
				c-0.9,2.3-3.1,5.3-4.1,6.4c-0.1,0.1-0.2,0.2-0.3,0.3c5.6,4.8,11.5,11.4,17.6,20.4c18.8-22.2,19.1-49.5,10.5-76.7
				C306,357.2,302.4,364.6,298.2,372.9z"/>
		</g>
		<g>
			<g>
				<path fill="#2FC4F1" d="M200.5,309.7c-9,9.9-15.5,20.7-19.3,27.9c-1.1,2-1.9,3.7-2.5,5c0,0.1-0.1,0.1-0.1,0.2
					c-0.1,0-0.2,0-0.3,0c-17.5,2.1-34.1,7.3-48,13c-0.7,0.3-1.3,0.6-2,0.8c-1.7,0.7-3.4,1.5-5.1,2.2c-18.7,8.4-31.4,17.1-33,18.7
					c-4.7,4.9-14.5,8.1-14.5,8.1c-53.5,27.4-37.6,40.8-20.1,46.8c16.6-3.2,37.5-4.5,60.7,0.4c0,0,15-0.7,21.7-10.7
					c6.7-10,26.7-50.6,70.6-19.2c0,0,2.4,2.3,6,3.9c-0.6-6.3-3.1-33-8.2-64.5C204.7,331.8,202.7,320.7,200.5,309.7z"/>
			</g>
			<g>
				<path fill="#2FC4F1" d="M179.3,257l5.4,2.5c0,0,0.7-0.6,1.8-2.1c4.4-6.1,14.8-26.5,8.8-76.5l-7.1-34.6c0.9-1.2,2.1-2.2,3-3.4
					c4.2-5.5,1.2-10.4-1.2-16c-0.6-1.4-3-5.9-2.3-7.4c0.5-1.1,3.1-1.6,4.1-1.3c1.7,0.6,2.1,3.1,3.8,3.9c1.6,0.8,2.6,0.3,1.9-1.3
					c-0.5-1.2-1.6-2.2-2.3-3.3c-0.5-0.8-0.8-2.1-1.5-2.8c-1.6-1.7-4.9-0.8-7.1-0.9c1.2-0.6,2.8-2,4.1-2.3c1.6-0.4,3.3,0.9,4.8,1.2
					c2.7,0.6,6.3,1.3,8.6-0.6c-1.9-1.9-5.5-1.7-7.6-3.5c1.8,0.1,4.7,0.6,6.1-0.8c2-1.8-0.6-2.1-2.2-2.4c-3.5-0.8-6.8-2-10.3-2.6
					c-2.2-0.3-3.8,0.7-5.7,1.6c-0.7,0.3-1.3,0.6-2.1,0.8c0.6-0.5,1.2-2.1,1.9-2.7c0,0,0,0,0.1,0c1.2-0.9,3.2-0.8,4.7-1.6
					c1.9-0.9,4.4-2.1,4.8-4.4c-0.9-0.3-2.1-0.2-1.9,0.1c-1.6,0.2-3.1,1.2-4.7,1.4c-1,0.2-2,0.2-3,0.4c-0.3,0.1-0.6,0.1-0.9,0.2
					c-3.8,1.1-5.2,5.2-8,7.5c-3.3,2.6-6,4.6-4.4,9.3c2.2,6.5,4.9,12.8,6.5,19.5c0.5,1.8,0.6,3.8,1.3,5.5c0,0,0,0.1,0,0.1
					c0.3,3.2,1,18-7,40.9C162.4,207.2,164.6,240,179.3,257z"/>
			</g>
		</g>
		<g>
			<path fill="#FFFFFF" d="M131,484.8c-0.4,0.3-0.9,0.7-1.3,1.2c0,0.1,0,0.3,0,0.4C130.1,485.8,130.6,485.2,131,484.8z"/>
		</g>
		<g>
			<g>
				<path fill="#F0572F" d="M137.5,273.3c0,0-6.1-7.7-13.9,0c-7.8,7.7-8.3,17.7-6.7,25.4c0,0-14.3,28.2,6.3,60.1
					c1.6-0.7,3.3-1.5,5.1-2.2c-4.3-13.4-9.8-35.9-5.8-53.4c0,0-0.8,28.1,7.8,52.6c14-5.7,30.6-10.9,48-13l0.4-0.2
					c0.6-1.3,1.5-3,2.5-5C176.3,326.8,157.1,287.3,137.5,273.3z"/>
			</g>
			<g>
				<path fill="none" d="M234.9,457.8c-7.8-6.7-19.6-0.7-19.6-0.7C227.1,453.8,234.9,457.8,234.9,457.8z"/>
				<path fill="none" d="M131,484.8c-0.4,0.3-0.9,0.7-1.3,1.2c0,0.1,0,0.3,0,0.4C130.1,485.8,130.6,485.2,131,484.8z"/>
				<path fill="#FFFFFF" d="M124.4,497.4c0-0.1,0-0.2,0-0.2C124.4,497.3,124.4,497.4,124.4,497.4
					C124.4,497.4,124.4,497.4,124.4,497.4z"/>
				<path fill="#FFFFFF" d="M116.1,496c0-0.5,0-0.9-0.1-1.3c0,0.4-0.1,0.7-0.1,1.2C115.9,496,116,496,116.1,496z"/>
				<path fill="#F0572F" d="M137.9,500.6c0.2,0.6,0.3,1.2,0.4,1.7c0.2,1.3,0.3,2.6-0.6,3.9c1.7,0.3,3.4,0.3,5.1-0.5
					c0.8-0.4,1.5-0.9,2-1.7c1.6-2.1,2-5.4-0.7-6.9c-0.7-0.4-1.5-0.4-2.3-0.3c-0.6,0.1-1.7,1-2.2,0.9c-0.3-0.1-0.8-0.6-1.3-1.3
					c-0.4-0.5-0.9-1.1-1.2-1.6c-0.2-0.2-0.3-0.4-0.4-0.6C136.5,495.2,137.7,499.6,137.9,500.6z"/>
				<path fill="#F0572F" d="M136,495.8c-0.3-1.8-0.7-3.5-0.9-5.3c-0.2-1.8-0.1-4-1.7-5.2c-0.9,0-1.6,0.2-2.1,0.5
					c-1.7,0.8-1.9,2.7-1.6,4.7c0.1,0.9,0.4,1.8,0.6,2.7c0.5,1.6,0.9,3.3,1.1,4.9c0.4,3,0.5,6,0.2,8.9c1.5,0.3,2.8,0.5,4.1-0.7
					c0.2-0.2,0.4-0.4,0.6-0.7C138.5,502.8,136.5,498.9,136,495.8z"/>
				<path fill="#F0572F" d="M130.1,500.8c0-1.7,0.3-3.5-0.2-5.2c-0.4-1.7-1.6-3.1-1.7-4.8c-0.2-4.1-1.4-4.8-1.3-6.2
					c-1.6-0.6-2.8-0.8-3.8-0.3c-0.8,0.3-1.4,1.1-1.9,2.3c-0.1,0.2-0.2,0.4-0.2,0.7c-0.1,0.2-0.1,0.5-0.2,0.7c0,0,0,0,0,0l0.8-0.1
					c0.2,1.4,0.8,2.8,1.2,3.8c0.6,1.8,1.4,3.6,1.5,5.5c0,0,0,0.1,0,0.1c0,0.1,0,0.2,0,0.2c0,2-0.5,4-0.7,6c-0.1,0.7-0.2,1.3-0.2,1.9
					c0,0.2,0,0.4,0,0.6c0.1,0.8,0.4,1.3,1.6,1.6c1.4,0.3,3.4,0.3,4.5-0.8c0.1-0.1,0.2-0.3,0.3-0.5
					C130.7,504.8,130.1,502.3,130.1,500.8z"/>
				<g>
					<path fill="none" d="M234.9,457.8c-7.8-6.7-19.6-0.7-19.6-0.7C227.1,453.8,234.9,457.8,234.9,457.8z"/>
					<g>
						<path fill="none" d="M234.9,457.8c-7.8-6.7-19.6-0.7-19.6-0.7C227.1,453.8,234.9,457.8,234.9,457.8z"/>
						<path fill="none" d="M307.8,487.6c0.1-0.1,0.3-0.3,0.4-0.4c-0.1,0-0.2-0.1-0.2-0.1C307.9,487.2,307.9,487.4,307.8,487.6z"/>
						<path fill="none" d="M321.9,495.4c0,0.7,0.1,1.3,0.1,1.9c0.1-1.8,0.2-3.7,0-5.4c-0.1-0.8-0.3-1.6-0.4-2.4c0,0,0,0,0,0
							C321.5,491.5,321.8,493.5,321.9,495.4z"/>
						<path fill="#F0572F" d="M309.1,487.7c0.3-1,0.4-1.8,0.4-2.1c-0.2,0.3-0.7,1-1.3,1.6c-0.1,0.2-0.3,0.3-0.4,0.4
							c-0.6,0.6-1.1,1.1-1.4,1.2c-0.5,0.1-1.6-0.9-2.1-1c-0.8-0.2-1.6-0.2-2.3,0.2c-2.8,1.3-2.6,4.6-1.2,6.8
							c0.5,0.8,1.2,1.4,1.9,1.8c1.7,0.9,3.3,1,5,0.8c-0.7-1.4-0.6-2.6-0.3-4c0.1-0.5,0.3-1.1,0.5-1.7
							C308.1,491.1,308.7,489.2,309.1,487.7z"/>
						<path fill="#F0572F" d="M316.1,484.8c1.4-3.6,2.1-7.6-2.6-8.1c-1.8,1.1-1.8,3.3-2.1,5.1c-0.3,1.7-0.9,3.5-1.2,5.2
							c-0.1,0.3-0.2,0.7-0.3,1c-0.8,2.9-2.4,6.1-0.7,8.8c0.2,0.2,0.3,0.5,0.6,0.7c1.2,1.2,2.5,1.1,4,1c-0.1-2.9,0.2-5.9,0.8-8.9
							c0-0.1,0-0.1,0-0.2C315,487.8,315.5,486.3,316.1,484.8z"/>
						<path fill="#F0572F" d="M321.9,495.4c0-1.9-0.4-4-0.3-5.9c0-0.1,0-0.3,0-0.4c0.2-1.8,1.1-3.6,1.8-5.4c0.4-1,1.1-2.4,1.4-3.7
							l0.8,0.2c0,0,0,0,0,0c0-0.2-0.1-0.5-0.1-0.7c-0.9-3.4-2.7-3.9-5.8-3c0,1.4-1.2,2-1.7,6.1c-0.2,1.7-1.4,3-2,4.7
							c-0.2,0.8-0.3,1.6-0.4,2.4c-0.1,0.9,0,1.9-0.1,2.8c-0.1,1.5-0.8,3.9-0.1,5.4c0.1,0.2,0.2,0.3,0.3,0.5c1,1.2,3,1.3,4.4,1.1
							c1.2-0.2,1.6-0.7,1.7-1.5c0-0.2,0-0.4,0-0.6C322,496.8,321.9,496.1,321.9,495.4z"/>
						<path fill="#F0572F" d="M443.7,457.3c-2.1-3.5-6-5.8-10.9-7.1c-3.8-1.1-8.3-1.5-13-1.7c-15.7-19.5-88.7-14.8-101.8-15.7
							c-13.3-0.9-19.4-5.7-19.4-5.7c-6.1-9-12-15.6-17.6-20.4c-5,4.9-13.9,4.1-20.1,2.6c-5.7-1.4-13.2-7.3-19-5.4
							c-3.4,1.1-5.7,3.2-7.6,6c-0.9,1.3-3.7,5.6-5.8,3.9c-1.8-1.4,2.1-5.4,2.9-7c1.5-2.8,2-4,5.2-5.4c-0.5,0.1-0.9,0.2-1.3,0.3
							c-2.1,1.3-3.9,2.6-5.4,3.7c-1.8,1.3-3.5,2.1-5.2,2.5c-2.4,1.8-5.2,3.3-6.6,0.5c0.1-0.1,0.3-0.3,0.4-0.4
							c2.2-2.4,4.1-3.8,5.5-6.9c1.1-2.5,3-4.7,4.1-7.2c2.2-4.9,1.9-6.9,7.7-7.2c4.8-0.3,9.8-2.8,14.4-1.2
							c5.3,1.7,18.3,10.2,23.5,5.8c0.6-1.5,9.5-26.1,10.7-39.6c0.7-7.9,3.6-25.1,7.1-40.2c-26.4-45.5-66.1-82.6-66.1-82.6
							c16.7-20.6,18.4-43,14.8-62.4c-1.4-7.5-3.6-14.6-6.1-20.9c-2.7,0.4-5.3,1-8,1.4c-1.9,0.2-6.6,0.3-7-3.2
							c-0.1-0.6,0.1-6.5-1.4-7.2c0.5-0.6,3-0.4,2.8-2.4c-1.2,0.3-3.2,0.5-3.8-0.2c1-0.8,1.5-4.6,1.2-5.5c-2.2-0.1-4.9-0.6-4.9-0.6
							c4.4-8.3,4.9-9.2,5.9-12.3c-4.6-9.8-15-35.1-21.6-51.4c-1.3-7.6-3.6-14.9-5.4-22.4c-1.5-6.3-6.8-10.5-9.8-16.1
							c-1.2-2.2-2.4-4.4-3.1-6.8c-0.7-2.4-0.9-5.1-2.3-7.2c-1.1-1.5-2.7-2.2-3.9-3.5c-0.7-0.7-1-1.6-1.5-2.5
							c-0.9-1.6-3.5-4.9-4.9-1.7c-1.2-1.5-5.7-3.4-5.8,0c-1.6-1.2-3.1-2.3-4.1,0.1c-1.3-0.3-2.3-2.2-3.8-2.2c-1.6,0-2.3,1.6-2.8,3
							c-1.5-0.2-2.8-1.2-4.3-1c-2.4,0.4-3.5,3.3-2.8,5.3c1.2,3.4,4.5,4.8,6,7.9c1.4,2.9,0.8,5.5,3.2,8c2.5,2.5,5.8,4,8.3,6.5
							c3.5,3.5,6.3,8,8.8,12.2c1.7,2.7,3,5.5,4.1,8.4c0.8,2.1,1.3,4.7,2.4,6.6c0.8,1.4,2.1,2.2,3.1,3.3c0.8,0.9,1.5,2.3,2.2,2.9
							l0.1,0c1.6,9.7,2.6,21.3,3.1,33.6c1-0.2,2-0.2,3-0.4c1.6-0.3,3.1-1.2,4.7-1.4c-0.3-0.4,1-0.5,1.9-0.1
							c-0.3,2.3-2.9,3.5-4.8,4.4c-1.4,0.7-3.4,0.6-4.7,1.6c0,0.7,0,1.3,0.1,2c1.8-0.9,3.5-2,5.7-1.6c3.5,0.6,6.9,1.8,10.3,2.6
							c1.6,0.4,4.2,0.6,2.2,2.4c-1.4,1.3-4.4,0.9-6.1,0.8c2.1,1.8,5.8,1.6,7.6,3.5c-2.3,1.9-6,1.2-8.6,0.6c-1.5-0.3-3.2-1.6-4.8-1.2
							c-1.3,0.3-2.9,1.6-4.1,2.3c2.2,0.1,5.6-0.8,7.1,0.9c0.7,0.7,1,1.9,1.5,2.8c0.7,1.1,1.8,2.2,2.3,3.3c0.7,1.6-0.2,2.1-1.9,1.3
							c-1.6-0.8-2-3.2-3.8-3.9c-1-0.4-3.6,0.2-4.1,1.3c-0.6,1.5,1.7,6,2.3,7.4c2.4,5.6,5.4,10.5,1.2,16c-0.9,1.2-2.1,2.2-3,3.4
							l7.1,34.6c6,49.9-4.5,70.4-8.8,76.5c5.6,15.3,10.3,33.7,14.1,52.4c2.3,11,4.2,22.1,5.9,32.6c5,31.4,7.6,58.2,8.2,64.5
							c-3.6-1.6-6-3.9-6-3.9c-43.9-31.4-63.9,9.2-70.6,19.2c-6.7,10-21.7,10.7-21.7,10.7c-23.2-4.9-44-3.6-60.7-0.4
							c-24.4,4.8-39.7,13.8-39.7,13.8l-3.5,3.5c-2,1-3.6,2.2-4.8,3.8c0,0-0.2,0.3-0.5,0.9c-1,0.8-1.8,1.6-2.5,2.6
							c0,0-8.4,15.4-0.6,28.7c0,0,28.1,11.4,46.8,4.2c13.2-5.1,31.8-4.8,44.5-3.2c0.2,0.7,0.4,1.3,0.6,1.9c1.2,3.1,3,6.5,5.2,9.1
							c2.1,2.5,3.1,5.7,5.2,8.3c1.6,2,3.1,2,5.5,2.2c2.3,0.1,4.2,0.3,6.5,0.8c2,0.5,3.1,0.4,3.6-0.8c0.1-0.4,0.2-0.9,0.2-1.6
							c0-1.9,0-4,0.3-5.8c0.3-1.4,0.9-3,0.6-4.5c-0.5-2.8-2.8-5.6-2.3-8.5c-1.1-0.7-2.2-0.6-3.2,0c-1.1,0.6-1.9,1.6-2.3,2.8
							c-0.1,0.4-0.2,0.9-0.2,1.3c0.1,1.2,0.5,2,0.7,2.8c0.1,0.4,0.2,0.8,0.1,1.3c0,0.2-0.1,0.5-0.1,0.7c-0.1,0.5-0.2,1-0.3,1.4
							c-0.2,1-0.4,2.1-0.4,3.2c-0.7-1.4-1.1-2.9-1.9-4.3c-0.6-1.1-1.4-1.8,0-2.8c0.4,1,0.9,2.1,1.2,3.2c0-0.6,0.1-1.1,0.2-1.5
							c0-0.2,0-0.4,0.1-0.6c0-0.4,0-0.9-0.1-1.4c0-0.2-0.1-0.4-0.1-0.6c-0.3-1.4-0.8-2.9-0.1-4.3c0.3-0.8,1.2-1.6,2.2-2.2
							c1.3-0.8,2.9-1.2,4-0.5c0.1-0.5,0.1-1,0.2-1.4c0.2-0.9,0.6-1.6,1.6-2c0.2-0.1,0.3-0.1,0.5-0.2c1.4-0.4,2.6-0.3,3.7,0.3
							c1.4,0.8,2.2,2.3,2,4.3c0.2-0.2,0.4-0.4,0.5-0.7c0.2-0.3,0.4-0.5,0.7-0.8c0.4-0.5,0.8-0.9,1.3-1.2c0.6-0.4,1.3-0.6,2.2-0.3
							c0.4,0.1,0.9,0.4,1.4,0.7c0.7,0.5,0.9,1.5,1.5,2.1c0,0,0,0.1,0.1,0.1c0.4,0.4,1.1,0.6,1.6,0.9c0.4,0.3,0.7,0.6,0.9,0.9
							c0.5,0.8,0.8,1.7,1.2,2.7c1.2,2.4,3.3,3.7,5.9,4.1c1.7,0.3,2.5,0.1,2.5-1c0-0.3,0-0.6-0.1-0.9c-0.8-3.1-1.3-7.2-2.9-9.8
							c-2.2-3.8-6.4-7.4-9.8-10.1c-3.8-3.1-8.5-5.4-13.1-7.1c-3.5-1.3-7.3-1.2-10.6-3c-0.6-0.3-2.3-0.8-4.2-1.3v0l0,0
							c-2.1-0.5-4.4-0.9-6-1c-7.4-1.1-19.5-2.9-24.4-3c-3.8-0.1-22.5-6-40.2-8.1c17.9,1.1,37.8,7,41.8,7.1c4.8,0.1,16.9,1.9,24.2,3
							c1.5,0.1,3.9,0.5,5.9,1c0,0,0,0,0,0v0c1.9,0.4,3.6,0.9,4.1,1.3c3.3,1.8,7,1.7,10.5,3c4.6,1.7,9.2,4,13,7.1
							c3.4,2.7,7.5,6.3,9.7,10.1c0.8,1.4,1.4,3.2,1.8,5.1c3.8,0.6,6,0.9,6,0.9l41-3.6l18.6,16.7l15.5-10.5l17.3-11.7
							c0,0,2.1-5.8,1.3-10.8c-0.8-3.3-5.7-7.3-5.7-7.3c0.8,0.3,1.4,0.6,2,1c-0.9-1.9-3.7-8.4-3.3-11.5c0,0,1.5-8,0.9-9.4
							c-0.6-1.5-2.6-2.8-6.5-1.1c0,0-3.1-1.1-3.7-2.2s-8.1-9.4-17.6-3.3c0,0-11.7,7.6-13.5,8.3c-1.6,0.6-6.2,4.7-8.5,7.7l0-0.2
							c1.7-3,7.6-7.8,9.5-8.5c1.9-0.7,13.3-8.7,13.3-8.7c10.5-5,16.7,2.9,17.2,4s3.1,2,3.1,2c3.9-1.7,6.9-0.9,7.4,0.6
							s-0.9,9.4-0.9,9.4c-0.4,2.8,1.7,9.2,2.7,12.1c0.2,0.7,0.4,1.2,0.5,1.4c0.1,0.1,0.3,0.2,0.4,0.3c6.2,4.3,2.8,16.4,2.8,16.4
							l-12.7,7.9l12.6,1.4c3.5-1.9,5.7-5.6,7.1-9.1l4.5-0.4c9.3,4.1,23.6,3.9,38.5,1.8c0.8-2.7,1.6-5.8,3-7.9
							c2.4-3.7,6.8-7,10.4-9.4c4-2.8,8.8-4.8,13.4-6.2c3.6-1,7.3-0.7,10.7-2.2c0.6-0.3,2.3-0.7,4.2-1v0l0,0c2.1-0.3,4.4-0.6,6-0.6
							c7.4-0.6,19.5-1.6,24.3-1.4c4,0.2,24.2-4.4,42.2-4.3c-17.8,0.9-36.8,5.6-40.6,5.4c-4.9-0.2-17.1,0.7-24.5,1.4
							c-1.6-0.1-3.9,0.2-6,0.6l0,0v0c-1.9,0.3-3.6,0.7-4.2,1c-3.4,1.6-7.2,1.2-10.8,2.2c-4.7,1.3-9.5,3.4-13.6,6.2
							c-3.6,2.5-8,5.8-10.4,9.4c-1.7,2.6-2.6,6.6-3.6,9.6c-0.1,0.4-0.2,0.7-0.2,0.9c-0.1,1,0.7,1.3,2.4,1.1c1.8-0.2,3.5-0.8,4.7-1.9
							c0.5-0.5,1-1.1,1.4-1.8c0.8-1.4,1-2.5,2.4-3.4c0.5-0.3,1.2-0.4,1.6-0.8c0.6-0.5,0.9-1.5,1.7-2c3-2,4.3,0.4,5.9,2.6
							c-0.2-3.4,2.8-5.4,6-4.2c1.9,0.7,2,2,2.1,3.8c1.9-1.2,5.3,1.3,5.9,3.1c0.2,0.6,0.2,1.1,0.2,1.7c-0.1,0.9-0.4,1.7-0.6,2.6
							c-0.1,0.2-0.1,0.4-0.2,0.6c-0.2,0.8-0.2,1.4-0.2,2c0,0.4,0.1,0.9,0.1,1.5c0.4-1.1,0.9-2.1,1.4-3.1c1.2,1,0.5,1.7-0.2,2.8
							c-0.8,1.3-1.4,2.8-2.1,4.2c0.1-1.1,0-2.1-0.2-3.2c-0.1-0.5-0.2-1-0.2-1.5c-0.1-0.8,0-1.4,0.1-2c0.2-0.6,0.5-1.2,0.7-2
							c0.1-0.2,0.1-0.5,0.2-0.8c0.3-2.6-2.7-5.9-5.4-4.4c0.3,3-2.1,5.5-2.8,8.3c-0.1,0.3-0.1,0.6-0.1,0.8c-0.1,1.2,0.3,2.5,0.4,3.7
							c0.2,1.8,0.1,3.9-0.1,5.8c0,0.7,0,1.2,0.1,1.6c0.3,1.2,1.4,1.4,3.5,1c2.3-0.4,4.2-0.4,6.5-0.4c2.3,0,3.9,0.1,5.6-1.8
							c2.2-2.4,3.4-5.6,5.7-7.9c2.3-2.4,4.4-5.6,5.8-8.7c0.3-0.6,0.5-1.2,0.7-1.8c12.8-0.7,31.4,0.2,44.2,6.2c18.2,8.5,47-1,47-1
							C451,473.3,443.7,457.3,443.7,457.3z M234.9,457.8c0,0-7.8-4.1-19.6-0.7C215.3,457.1,227.1,451.2,234.9,457.8z"/>
					</g>
				</g>
			</g>
		</g>
		<g>
			<path d="M234.9,457.8c-7.8-6.7-19.6-0.7-19.6-0.7C227.1,453.8,234.9,457.8,234.9,457.8z"/>
		</g>
		<g>
			<path d="M241.9,461.9c0,0,4.9,4,5.7,7.3c0,0,0,0.1,0,0.1c0,0,0-3.2-2.6-5.6c-0.1-0.1-0.2-0.2-0.4-0.3c-0.2-0.2-0.5-0.4-0.7-0.5
				C243.3,462.5,242.7,462.2,241.9,461.9z"/>
		</g>
		<g>
			<path fill="none" d="M293.1,304.1c2.2-8.6,4.5-15.6,6.6-18.6c0,0-0.8-4.6-1.8-10.9C294.9,282.9,293.3,293.8,293.1,304.1z"/>
			<path fill="#2FC4F1" d="M418.6,392.5c0,0-9.9-3.5-14.5-8.7c-3-3.4-45.4-33.4-93-37.8c16.2-36.7,16.1-51.2,16.1-51.2
				s-0.8-14.2-1.8-22.2c-1-8,1.2-38.1,1.2-38.1c8-32.1,4.2-48.7-1-57.3c-3.5-6.2-9.6-9.5-15.6-11.4c-2.7-0.9-5.4-1.5-7.8-1.9
				c-0.4,0-0.9-0.1-1.5-0.1c-6.5-0.5-20.3,10.7-31.1,7.2c-6.6-2.1-12.1-9.9-13.9-29.4c-1.1-12-3.2-23.4-8.5-34.3
				c-1.7-3.5-4-6.7-7-9.2c-3-2.5-5.6-3.5-9.2-3.7c-0.3,0.1-0.6,0.1-0.8,0.2c-2.3,1.3-1.7,4.9-0.2,6.8c-2.1,0.3-4.6-1.1-5.9-3.1
				c-1.7,2-2.6,4.6-3.1,7.2c-0.2,1-0.3,1.8-0.4,2.5c-0.3,1.7-0.4,3.1-1.2,5.3c-0.3,0.8-0.5,1.5-0.7,2c-1,3.1-1.5,4.1-5.9,12.3
				c0,0,2.7,0.5,4.9,0.6c0.3,0.9-0.2,4.7-1.2,5.5c0.6,0.7,2.6,0.5,3.8,0.2c0.1,2.1-2.4,1.8-2.8,2.4c1.5,0.7,1.3,6.7,1.4,7.2
				c0.4,3.4,5.1,3.4,7,3.2c2.7-0.3,5.3-1,8-1.4c1.2-0.2,2.3-0.3,3.5-0.4c9.7-0.5,14.3,4.7,16.7,11.5c-2.8,2.9-7.4,6-14.1,9.8
				c3.6,19.3,1.9,41.8-14.8,62.4c0,0,39.6,37.1,66.1,82.6c-3.5,15.1-6.4,32.3-7.1,40.2c-1.2,13.6-10.1,38.1-10.7,39.6
				c-5.2,4.3-18.2-4.1-23.5-5.8c-4.6-1.5-9.6,0.9-14.4,1.2c-5.8,0.4-5.4,2.3-7.7,7.2c-1.1,2.4-3,4.7-4.1,7.2
				c-1.4,3.1-3.3,4.6-5.5,6.9c-0.1,0.1-0.3,0.3-0.4,0.4c1.3,2.8,4.2,1.3,6.6-0.5c1.2-0.9,2.2-1.9,2.9-2.4c2.8-2.3,4.7-3.1,7.8-3.8
				c0.4-0.1,0.8-0.2,1.3-0.3c-3.1,1.5-3.7,2.6-5.2,5.4c-0.8,1.5-4.7,5.5-2.9,7c2.1,1.7,4.9-2.7,5.8-3.9c1.9-2.7,4.3-4.9,7.6-6
				c5.9-1.9,13.4,4,19,5.4c6.2,1.5,15.1,2.3,20.1-2.6c0.1-0.1,0.2-0.2,0.3-0.3c1-1.1,3.2-4.1,4.1-6.4l0,0c0,0,0-0.1,0-0.1
				c0.1-0.2,0.1-0.3,0.2-0.5c2.1-5.5,12.5-26.6,12.5-26.6c4.2-8.2,7.8-15.7,10.9-22.5c8.6,27.2,8.3,54.5-10.5,76.7
				c0,0,6.1,4.8,19.4,5.7c13,0.9,86.1-3.8,101.8,15.7c4.7,0.1,9.2,0.6,13,1.7C451.8,442.8,477.8,425.1,418.6,392.5z M263.3,225.6
				c-2.3,0-4.2-1.9-4.2-4.2c0-2.3,1.9-4.2,4.2-4.2s4.2,1.9,4.2,4.2C267.5,223.7,265.6,225.6,263.3,225.6z"/>
		</g>
		<g>
			<path d="M290.6,97.4c-15-33.9-58.9-15.5-58.9-15.5s-8.4-2.9-14.1,7.1c-5.7,9.9,2.9,18.9,2.9,18.9l0.2,0.2
				c0.1-0.7,0.2-1.5,0.4-2.5c0.5-2.5,1.4-5.1,3.1-7.2c1.3,2,3.8,3.4,5.9,3.1c-1.6-1.9-2.2-5.5,0.2-6.8c0.1-0.1,0.3-0.1,0.5-0.2
				c0.1,0,0.3,0,0.4,0c3.6,0.2,6.3,1.2,9.2,3.7c3,2.5,5.3,5.7,7,9.2c5.3,10.9,7.3,22.3,8.5,34.3c1.8,19.5,7.2,27.2,13.9,29.4
				c10.7,3.5,24.6-7.7,31.1-7.2c0.5,0,1,0.1,1.5,0.1c2.4,0.5,5.1,1,7.8,1.9C315.8,127.4,290.6,97.4,290.6,97.4z"/>
		</g>
	</g>
	<g>
		<path d="M223.3,111.2c0.8-1.4,2-2.5,3.5-3.3c0.3-0.2,0.7-0.3,1.1-0.4c1.3-0.4,2.7-0.3,4,0.1c1.2,0.4,2.3,1.2,3,2.1
			c0.3-0.1,0.1-0.4,0-0.6c-0.8-0.8-1.7-1.6-2.7-2.1s-2.3-0.8-3.6-0.5c-1.6,0.3-2.9,1.4-4.1,2.5c-0.5,0.5-1.1,1-1.5,1.6
			c-0.1,0.2-0.3,0.5-0.2,0.7C222.8,111.4,223.2,111.5,223.3,111.2z"/>
	</g>
	<path d="M231.5,114.1c-0.4-0.2-1-0.1-1.5,0.2c-0.2,0.2-0.4,0.4-0.5,0.5l-0.2,0.2c-0.5,0.6-1.3,0.9-2.1,0.9c-0.6,0-1.1-0.2-1.4-0.4
		l-0.8-0.7l-0.1,1.1c-0.1,0.7,0.1,1.5,0.7,2.1c0.6,0.7,1.6,1.1,2.5,1.1c0.1,0,0.2,0,0.4,0c1.8-0.2,3.4-1.7,3.7-3.4
		C232.2,114.9,232,114.3,231.5,114.1z"/>
	<path d="M124.1,559.2c0.5,1.6,0.4,3.5-0.5,4.9c-1,1.5-2.8,2.2-4.3,3.2c-4.6,3-7.1,9.5-3.8,14.2c2.9,4.2,8.2,6.4,12.7,8.1
		c4.9,1.8,9.9,3,15,3.9c8.3,1.4,17.8,2.2,25.7-1.1c-3.1,2.5-13.1,10-10.2,20c17.5,60.1,225.7,15.3,178.9-43.5
		c-4.6-5.8-10-10.4-16.4-13.5c-3.1-1.5-7-2.7-9.7-5c-3.7-3.3,0.9-6.3,4.2-6.9c3.7-0.8,7.4-0.5,10.9-2.2c3.2-1.6,5.9-4.2,7.5-7.4
		c1.6-3.1,1.8-6.8,0.2-10c-1.7-3.4-5-6-8.2-7.9c-7.4-4.5-15.8-5.5-24.3-6.1c-4-0.3-7.9-0.1-11.9-0.7c-3.8-0.5-7.6-1.5-11.2-2.9
		c-7.3-2.8-13.2-7.5-17.5-13.9c-4.7-7-11.7-12.6-19.4-16c-6-2.7-13.7-4.6-20.3-3.2c-3.4,0.7-5.4,2.6-7.4,5.4
		c-1.8,2.6-3.5,4.5-6.9,4.5c-3.8,0-7.1-1.6-9-4.9c-1.8-3-2.3-6.8-1.9-10.2c0.4-3.3,1.8-6.7,4.4-8.9c-4.5-0.5-8,3.9-10.6,7
		c-2.6,3.1-5.4,7.8-9.4,9.1c-2.1,0.7-3.6,0-4-2.3c-0.2-1.3-0.1-2.6-0.1-3.9c0-0.6,0-1.3,0-1.9c0-0.8-0.1-0.9-1-0.8
		c-4.5,0.5-6.6,5.9-8.9,9c-1.1,1.4-1.9,2.7-2.4,4.4c-0.6,2.2-0.7,4.6-0.8,6.9c-0.1,5,0.4,10.1-0.5,15c-0.3,1.8-0.9,3.7-2.2,5.1
		c-1.8,1.9-4.8,2.4-7.2,3c-7.2,1.7-14.7,1.8-22.1,2.3c-4.4,0.3-8.6-0.1-13-0.3c-3.7-0.2-7.6-0.1-11.1,1.1c-3.2,1.1-6.6,3.9-7.1,7.4
		c-0.6,3.9,3.4,5.3,6.1,6.8c-4.5,1.2-9.2,1.9-13.3,4.4c-3.4,2.1-6.4,5.2-7.6,9.1c-3.1,10,11.1,11.7,17.8,12.1
		C105.8,552.8,122.2,553.3,124.1,559.2z"/>
</g>
</svg>
