<svg xmlns="http://www.w3.org/2000/svg" viewBox="0 0 649.3 473.7"><path d="M166 416.7h.1c0-.1-.1-.1-.1 0 0-.1 0-.1 0 0zM178.5 382.8c-8.7 2.3-26.7.7-34.7-.2-.3-2.8-1.6-5.5-4.1-6.9-3.1-1.8-7.1-1.2-10.4-2.4-4-1.4-6.9-5.4-7-9.6 0-2.3.8-4.6 2.2-6.5 1.7-1.6 3.6-3 5.9-4.2-6-4.3-14.2-7-22.4-6.6-10.5.6-20.4 7-21.3 14.8-.2 2.1.1 4.2-.3 6.2-.4 2.1-1.8 4.2-4.3 5-3.3 1.1-7.1-.4-10.6-.1-6 .5-9 5.6-10.3 10-.6 2-1.5 4.4-4 5.1-2.6.8-5.6-.6-8.4-.3-7.1.7-7 9.9-13.8 11.6-3.3.8-7.1-.5-10.1.7-4.9 1.9-3.9 8.8-9.2 9.7-1.2.2-2.4 0-3.6 0-6.7-.1-12.6 5.4-11 10.3H105c-3.4-.6-6.1-1.4-8.3-2.6-5.7-3-7.9-8.2-10.1-16.9 0 0-3.3-23.9 57.2-15.3 0 0 27.6 1.9 38.8-1.9 2.6-.9 5.2-1.7 7.7-2.4h-.8c-3.2.4-6.8 1.4-11 2.5zM224.8 124.7c-12.7-9.6-25.4 7.1-35.8 11.3.9.1 1.8.8 2.6 1-9.1 6-5.5 13.4-10.2 24.4 2.1.4 8.3 4.2 10.5 4.1.5 0 1-.1 1.5-.2-.6-3.6-.7-6.9-.4-9.9 2.8-9.4 7.6-6.8 14.8-13.4-2.1 19.6 13.3 9.9 18.1 16.7 1.1-12.2 2.3-24.3 3.4-35.7-1.4.3-2.9.9-4.5 1.7z"/><path fill="#F15A29" d="M334.1 256.5l-35.7 87.7c19.5 13.2 43.1 25.5 71.4 34.8 0 0-32.9-7.6-72-33.1L294 355l-26.4 65h109.9c12-64.4 45.8-115 45.8-115-28.4-33.3-89.2-48.5-89.2-48.5zM282.5 200.8c-1-17.6-10.5-48-10.5-48-1.5-3.6-3.2-7.3-5-11.2-21.7-45.4-12.9-70.7-8.8-76.5 1.3-1.9 3.6-2.9 5.5-4.2 1.9-1.3 3.8-3 4.5-5.2.7-2.1.4-4.5-.6-6.6-1-2-2.5-3.8-4-5.4-4.9-5.2-10.8-10.1-13.3-16.8-1.1-3-1.5-6.2-2.4-9.2-.9-3-2.4-6.1-5.1-7.8.8-1.1 1.6-2.4 1.5-3.8-.1-1.4-1.7-2.6-2.9-1.9.5-1.3-.4-3-1.8-3.3-1.4-.3-2.9 1-2.9 2.4.1-1.5-1.9-2.7-3.3-2-.1.4-.2.9-.3 1.3-.6-.4-1.2-.8-1.9-.9s-1.5.2-1.7.9c-.1.3-.1.6 0 .9.1 1.2.3 2.5.4 3.7-1.2-.7-2.7-.7-3.9.1-1.1.8-1.7 2.3-1.4 3.6 2.8.4 5 2.7 6.1 5.3 1.1 2.6 1.3 5.4 1.5 8.2.7 10.5 1.4 20.9 2.1 31.4.4 6.4-2.1 33.7-5.3 66.9-1.1 11.4-2.2 23.5-3.4 35.7-1.2 12.4-2.3 24.9-3.3 36.9-2.1 24.7-3.6 47.3-3.8 62.1 0 0 10.1 22.1 35.1 48.6 3.1-32.2 20.2-54.7 20.2-54.7-5.7-43.6 8.7-50.5 8.7-50.5zM241.6 343.8c-6.3.7-7.3-.7-7.3-.7-6.5-8.7-15.1-8.9-18.8-8.5l-.3-.6c-.1-.3-.5-.4-.7-.2l-.7.3c-.3.1-.4.5-.2.7l.1.1c-5.7 23-26.1 31.6-34.1 34.1-.7.2-1.2.3-1.2.3-9.7-1.6-7.6-12.4-7.7-18.5-.1-6.9-5.1-6.1-5.1-6.1-4.2 1.9-5.4.3-5.4.3l-1.6 3.7c-2.8-1.6-5.1-3-5.1-3-2.4 4-3.9 2.9-3.9 2.9l-3.8-5.4c-2.6 4.4-8.7 7.7-8.7 7.7-2.4.4-4.5 1.2-6.4 2.1-2.3 1.1-4.2 2.5-5.9 4.2-1.4 1.9-2.2 4.2-2.2 6.5.1 4.2 3 8.2 7 9.6 3.4 1.2 7.3.6 10.4 2.4 2.5 1.4 3.8 4 4.1 6.9 8.1.9 26.1 2.5 34.7.2 4.2-1.1 7.8-2.1 10.8-2.2h.8c-2.5.7-5.2 1.5-7.7 2.4-11.2 3.7-38.8 1.9-38.8 1.9-60.5-8.6-57.2 15.3-57.2 15.3 2.2 8.7 4.4 13.9 10.1 16.9 2.2 1.2 4.9 2 8.3 2.6 5.6 1 13.2 1.3 23.5 1.3 30.6 0 37-3.8 37.7-4.4.1 0 .1-.1.1-.1l.1.1c5 5.7 58.2 4.3 67.4 4 .1-.4.2-.9.3-1.3 2.8-11.4 4.9-20.7 4.9-20.7 1.5-30.1 6.4-46.3 10.4-54.7-4-.2-6.6-.2-7.9-.1z"/><path d="M144.3 357.3c-.4-1.2-1.7-2-2.9-2-.5 0-.9.1-1.3.3l-1 .5 1 .5c.5.2.9.7 1.1 1.2.2.6.2 1.2-.1 1.7l-.1.2-.3.6c-.1.5 0 1.1.4 1.3.2.1.4.2.6.2.4 0 .7-.2.9-.3 1.6-.8 2.3-2.7 1.7-4.2zM133.9 356.1c-.8 1.2-1.3 2.6-1.3 4.1 0 .3 0 .7.1 1 .2 1.2 1 2.2 2 3 .9.7 2.1 1.2 3.2 1.4 0 .2-.3.3-.6.2-1.1-.3-2.2-.6-3.1-1.2-1-.6-1.8-1.5-2.1-2.5-.4-1.3-.1-2.8.3-4.2.2-.6.4-1.2.7-1.8.1-.2.3-.4.5-.4.2-.1.5.2.3.4z"/><g><path d="M333.1 252.3c-2.1 1-5.7 2.7-7.7 7.5s-.7 8.5.1 10.7c.5 1.5.5 1.5.3 2s-.2.5-1.6 1.2c-2.1 1-5.7 2.7-7.7 7.5s-.7 8.5.1 10.7c.5 1.5.5 1.5.3 2s-.2.5-1.6 1.2c-2.1 1-5.7 2.7-7.7 7.5s-.7 8.5.1 10.7c.5 1.5.5 1.5.3 2s-.2.5-1.6 1.2c-2.1 1-5.7 2.7-7.7 7.5s-.7 8.5.1 10.7c.5 1.5.5 1.5.3 2s-.2.5-1.6 1.2c-2.1 1-5.7 2.7-7.7 7.5l8 3.4 3.2 1.3 8 3.4c.2-.5.2-.5 1.6-1.2 2.1-1 5.7-2.7 7.7-7.5s.7-8.5-.1-10.7c-.5-1.5-.5-1.5-.3-2s.2-.5 1.6-1.2c2.1-1 5.7-2.7 7.7-7.5s.7-8.5-.1-10.7c-.5-1.5-.5-1.5-.3-2s.2-.5 1.6-1.2c2.1-1 5.7-2.7 7.7-7.5s.7-8.5-.1-10.7c-.5-1.5-.5-1.5-.3-2s.2-.5 1.6-1.2c2.1-1 5.7-2.7 7.7-7.5s.7-8.5-.1-10.7c-.5-1.5-.5-1.5-.3-2s.2-.5 1.6-1.2c2.1-1 5.7-2.7 7.7-7.5l-8-3.4-3.2-1.3-8-3.4c-.1.6-.1.6-1.6 1.2z"/></g><g><path fill="none" d="M282.4 199.4c-.3.2-.6.5-.6.9 0 .3.1.5.3.7.2-.2.4-.2.4-.2 0-.5-.1-.9-.1-1.4z"/><path fill="#29C4F1" d="M194.1 168.9l1.9 12.6s.7.9 2.9 1l4.7-1.7c2.9 1.8-.1 5 4.2 4.5 2.3-.3 3.5-1.7 5.3-2.2 2.8 1.9-4.3 3.4-3.7 6.5.7 1 2.3.5 2.3.4-.2.2 4.7 2.9 7 4.6 0 0 1.7 1.2 3.9 1.2.2-2.7.5-5.4.7-8.2v-.2c0-.1 0-.3.1-.4.2-1.7.3-3.5.5-5.2.1-.6.1-1.2.2-1.8.1-1.5.3-3.1.4-4.6.1-.6.1-1.2.2-1.9.2-1.7.3-3.4.5-5 0-.3.1-.7.1-1 .3-2.9.5-5.7.8-8.6-4.8-6.8-20.2 2.9-18.1-16.7-7.2 6.7-12 4.1-14.8 13.4-.3 3-.1 6.2.4 9.9 0 .9.2 2.1.5 3.4zM645.5 466.7s-9.4-24.4-41.2-16.3c0 0-7.2-12.8-18-9.2 0 0-9.2 4.6-15.4 8.7 0 0-23.1 2.9-41.1-8.4s-55.2-39.3-86.7-12.6c0 0 18.2-20.7 31.4-40.1 20.8-30.4 94.1-148.9-26.6-157.9 0 0-37.3 3.4-96.3-61.1-20.5-22.4-54.1-23.9-79.8-17.3 0 0 .5 1.6 1.3 4.3l.1.3c.7 2.4 1.6 5.7 2.6 9.4.1 0 .3 1.1.3 1.1 1.2 4.7 2.6 10.1 3.7 15.5l.1.6c1.1 5.4 2 10.8 2.3 15.4 0 .5.1.9.1 1.4 0 0-.1.1-.4.2-.4.3-13.9 8.6-8 50.7 0 0-17.5 23.6-20.2 54.7-.8 9-.6 18.7 1.4 28.9 0 0-2.8 1.7-6.1 8.7-4 8.4-8.9 24.6-10.4 54.7 0 0-2.1 9.3-4.9 20.7-.1.4-.2.8-.3 1.3-2.9 11.9-6.5 25.7-9.1 34-5.7.4-21.4 1.8-27.4 4.9 0 0-5.9.9-8.4.8-2.5-.1-5.8.7-7.6 1.9 0 0-7.9 3.5-9.9 3.8 0 0-5.4 1.3-6.5 1.5-1.2.2-4.2 1.1-1.4 4.1h4.2s-.1 1 .7 1l13.6-.3s-.3.8.6 1.4h63.6s1-2.4 1.9-5.2h.1l19.8-48.7L294 355l3.7-9.1.7-1.6 35.7-87.7s60.8 15.1 89.1 48.5c0 0-33.8 50.6-45.8 115-3.1 16.6-4.8 34.1-4 51.8h275.9s1.1-5.1-3.8-5.2z"/><path d="M279.5 183.1v1h.5c0-.2-.1-.4-.1-.6-.1-.2-.1-.4-.4-.4zM280.5 197.1c0-.3-.1-.5-.3-.7s-.4-.3-.7-.3v1h1zM280.2 191.2c.2-.2.3-.4.3-.7 0-.3-.1-.5-.3-.7s-.4-.3-.7-.3v2c.3 0 .6-.1.7-.3z"/><path d="M280 184.1l-.5-.1v1M280.1 202.8c-.2-.1-.4-.2-.6-.2v.9c.2-.3.4-.5.6-.7zM279.5 198c.3 0 .5-.1.7-.3.2-.2.3-.4.3-.7h-1v1zM279.2 183.1c-.2.1-.4.3-.5.5 0 .1-.1.2-.1.4h1v-1c-.2.1-.3.1-.4.1zM279.5 197.1v-1c-.1 0-.3 0-.4.1-.2.1-.4.3-.5.5 0 .1-.1.2-.1.4h1zM279.2 191.4c.1 0 .2.1.4.1v-2c-.1 0-.3 0-.4.1-.2.1-.4.3-.5.5 0 .1-.1.2-.1.4 0 .1 0 .3.1.4 0 .3.2.5.5.5zM278.6 184.4c.1.2.3.4.5.5.1 0 .2.1.4.1v-1h-1c.1.2.1.3.1.4zM279.5 202.6c-.1 0-.3 0-.4.1-.2.1-.4.3-.5.5 0 .1-.1.2-.1.4 0 .1 0 .3.1.4.1.1.2.3.3.4.2-.3.4-.6.6-.8v-1z"/><path d="M278.6 197.1c0 .1 0 .3.1.4.1.2.3.4.5.5.1 0 .2.1.4.1v-1h-1zM256.8 36.7c-.6 0-1 .4-1 1 0 .5.4 1 1 1 .5 0 1-.4 1-1s-.5-1-1-1zM243.9 10.7h-.2c-.5 0-1 .4-1 1 0 .5.4 1 1 1 .5 0 1-.4 1-1v-.2c-.1-.5-.4-.7-.8-.8z"/><circle cx="269.8" cy="154.8" r="1"/><path d="M269.8 149.2c.2 0 .4-.1.6-.2-.2-.6-.5-1.1-.7-1.7-.5.1-.8.5-.8.9-.1.6.3 1 .9 1z"/><circle cx="273" cy="171" r="1"/><circle cx="273" cy="164.5" r="1"/><circle cx="269.8" cy="167.8" r="1"/><path d="M276.3 168.8v-.8c-.1-.4-.2-.7-.3-1.1-.4.1-.7.5-.7.9 0 .5.5 1 1 1z"/><circle cx="269.8" cy="161.3" r="1"/><path d="M273 159c.3 0 .5-.1.7-.3l-.4-1.3-.1-.3h-.2c-.5 0-1 .4-1 1s.5.9 1 .9z"/><circle cx="273" cy="184" r="1"/><circle cx="273" cy="177.5" r="1"/><circle cx="269.8" cy="180.8" r="1"/><circle cx="276.3" cy="180.8" r="1"/><circle cx="269.8" cy="174.3" r="1"/><circle cx="276.3" cy="174.3" r="1"/><circle cx="273" cy="197.1" r="1"/><circle cx="273" cy="190.5" r="1"/><circle cx="269.8" cy="193.8" r="1"/><circle cx="276.3" cy="193.8" r="1"/><circle cx="269.8" cy="187.3" r="1"/><circle cx="276.3" cy="187.3" r="1"/><circle cx="273" cy="210.1" r="1"/><circle cx="273" cy="203.6" r="1"/><circle cx="269.8" cy="206.8" r="1"/><circle cx="276.3" cy="206.8" r="1"/><circle cx="269.8" cy="200.3" r="1"/><circle cx="276.3" cy="200.3" r="1"/><circle cx="273" cy="216.6" r="1"/><circle cx="269.8" cy="219.8" r="1"/><circle cx="269.8" cy="213.3" r="1"/><path d="M272.7 230.5c0-.6 0-1.2.1-1.8-.4.1-.7.5-.7.9s.2.7.6.9z"/><circle cx="269.8" cy="232.8" r="1"/><circle cx="269.8" cy="226.3" r="1"/><path d="M273 224c0-.3.1-.7.1-1 0-.3.1-.6.1-.9h-.1c-.5 0-1 .4-1 1 0 .1 0 .3.1.4.1.3.4.5.8.5zM273.7 248.4c-.2-.2-.4-.3-.7-.3-.5 0-1 .4-1 1 0 .5.4 1 1 1 .4 0 .6-.2.8-.5 0-.2 0-.3-.1-.5.1-.2 0-.5 0-.7zM273 243.6h.2c-.1-.7-.1-1.3-.2-1.9-.5 0-1 .4-1 1 .1.4.5.9 1 .9z"/><circle cx="269.8" cy="245.8" r="1"/><circle cx="269.8" cy="239.3" r="1"/><path d="M272.8 237v-.9-.9c-.4.1-.6.5-.6.9-.1.4.2.8.6.9zM268.8 258.9c0 .3.1.5.3.7.3-.6.6-1.1.9-1.6h-.2c-.6-.1-1 .3-1 .9z"/><circle cx="269.8" cy="252.4" r="1"/><path d="M266.9 261.2c-.1 0-.2-.1-.4-.1-.5 0-1 .4-1 1s.4 1 1 1c.1 0 .3 0 .4-.1.2-.1.3-.2.4-.3v-.1c.1-.2.2-.3.3-.5h-.1c0-.4-.2-.7-.6-.9zM260 40c-.5 0-.9.4-.9 1 0 .5.4 1 1 1 .5 0 .9-.4 1-.9V41h-.1l-1-1zM253.5 39.9c-.1 0-.3 0-.4.1-.4.1-.6.5-.6.9s.2.8.6.9c.1 0 .2.1.4.1.5 0 1-.4 1-1s-.4-1-1-1zM253.5 33.4c-.1 0-.3 0-.4.1-.4.1-.6.5-.6.9s.2.8.6.9c.1 0 .2.1.4.1.5 0 1-.4 1-1s-.4-1-1-1z"/><circle cx="260" cy="53.9" r="1"/><path d="M266.5 48.4c.1 0 .3 0 .4-.1.1 0 .1-.1.2-.1l-.6-.9c-.1-.2-.3-.4-.5-.7-.3.2-.5.5-.5.8.1.6.5 1 1 1z"/><circle cx="260" cy="47.4" r="1"/><circle cx="256.8" cy="50.7" r="1"/><circle cx="263.3" cy="50.7" r="1"/><circle cx="256.8" cy="44.2" r="1"/><path d="M263.3 45.1c.5 0 .8-.3.9-.8-.2-.2-.4-.4-.5-.6-.2-.2-.3-.4-.5-.5-.5.1-.8.5-.8 1-.1.5.3.9.9.9zM253.5 46.4c-.1 0-.3 0-.4.1-.4.1-.6.5-.6.9s.2.8.6.9c.1 0 .2.1.4.1.5 0 1-.4 1-1s-.4-1-1-1z"/><circle cx="260" cy="60.4" r="1"/><circle cx="256.8" cy="63.7" r="1"/><circle cx="256.8" cy="57.2" r="1"/><circle cx="263.3" cy="57.2" r="1"/><path d="M253.5 66c-.1 0-.3 0-.4.1-.4.1-.6.5-.6.9s.2.8.6.9c.1 0 .2.1.4.1.5 0 1-.4 1-1s-.4-1-1-1zM253.5 59.5c-.1 0-.3 0-.4.1-.4.1-.6.5-.6.9s.2.8.6.9c.1 0 .2.1.4.1.5 0 1-.4 1-1s-.4-1-1-1zM266.5 54.9c.1 0 .3 0 .4-.1.3-.1.6-.5.6-.9s-.2-.8-.6-.9c-.1 0-.2-.1-.4-.1-.5 0-1 .4-1 1s.5 1 1 1zM253.5 72.5c-.1 0-.3 0-.4.1-.4.1-.6.5-.6.9s.2.8.6.9c.1 0 .2.1.4.1.5 0 1-.4 1-1s-.4-1-1-1zM253.5 105c-.1 0-.3 0-.4.1-.4.1-.6.5-.6.9 0 .1 0 .3.1.4.1.2.3.4.5.5.1 0 .2.1.4.1.4 0 .8-.2.9-.6 0-.1.1-.2.1-.4 0-.6-.4-1-1-1zM256.8 116.7c.2 0 .4-.1.5-.2-.2-.6-.4-1.2-.5-1.8-.5 0-1 .4-1 1s.4 1 1 1zM253.5 118c-.1 0-.3 0-.4.1-.4.1-.6.5-.6.9s.2.8.6.9c.1 0 .2.1.4.1.5 0 1-.4 1-1s-.4-1-1-1zM253.5 111.5c-.1 0-.3 0-.4.1-.4.1-.6.5-.6.9s.2.8.6.9c.1 0 .2.1.4.1.5 0 1-.4 1-1s-.4-1-1-1z"/><circle cx="260" cy="132" r="1"/><path d="M260 126.5c.2 0 .4-.1.5-.2l-.6-1.8c-.5.1-.8.5-.8.9 0 .6.4 1.1.9 1.1z"/><circle cx="256.8" cy="128.7" r="1"/><circle cx="256.8" cy="122.2" r="1"/><path d="M253.5 131c-.1 0-.3 0-.4.1-.4.1-.6.5-.6.9s.2.8.6.9c.1 0 .2.1.4.1.5 0 1-.4 1-1s-.4-1-1-1zM253.5 124.5c-.1 0-.3 0-.4.1-.4.1-.6.5-.6.9s.2.8.6.9c.1 0 .2.1.4.1.5 0 1-.4 1-1 0-.5-.4-1-1-1z"/><circle cx="260" cy="145" r="1"/><path d="M265.6 138.5c0 .3.1.6.4.8-.2-.3-.3-.6-.4-.8z"/><circle cx="260" cy="138.5" r="1"/><circle cx="256.8" cy="141.8" r="1"/><circle cx="263.3" cy="141.8" r="1"/><circle cx="256.8" cy="135.2" r="1"/><path d="M263.3 136.2c.5 0 .8-.3.9-.8-.1-.3-.3-.7-.4-1-.1-.1-.3-.2-.5-.2-.5 0-1 .4-1 1s.4 1 1 1zM253.5 144c-.1 0-.3 0-.4.1-.4.1-.6.5-.6.9s.2.8.6.9c.1 0 .2.1.4.1.5 0 1-.4 1-1s-.4-1-1-1zM253.5 137.5c-.1 0-.3 0-.4.1-.4.1-.6.5-.6.9s.2.8.6.9c.1 0 .2.1.4.1.5 0 1-.4 1-1s-.4-1-1-1z"/><circle cx="260" cy="158" r="1"/><path d="M266.5 152.5c.1 0 .3 0 .4-.1.3-.1.6-.5.6-.9s-.2-.8-.6-.9c-.1 0-.2-.1-.4-.1-.5 0-1 .4-1 1s.5 1 1 1z"/><circle cx="260" cy="151.5" r="1"/><circle cx="256.8" cy="154.8" r="1"/><circle cx="263.3" cy="154.8" r="1"/><circle cx="256.8" cy="148.3" r="1"/><circle cx="263.3" cy="148.3" r="1"/><path d="M253.5 157c-.1 0-.3 0-.4.1-.4.1-.6.5-.6.9s.2.8.6.9c.1 0 .2.1.4.1.5 0 1-.4 1-1s-.4-1-1-1zM253.5 150.5c-.1 0-.3 0-.4.1-.4.1-.6.5-.6.9s.2.8.6.9c.1 0 .2.1.4.1.5 0 1-.4 1-1s-.4-1-1-1zM266.5 146c.1 0 .3 0 .4-.1.3-.1.6-.5.6-.9s-.2-.8-.6-.9c-.1 0-.2-.1-.4-.1-.5 0-1 .4-1 1s.5 1 1 1z"/><circle cx="260" cy="171" r="1"/><path d="M266.5 165.5c.1 0 .3 0 .4-.1.3-.1.6-.5.6-.9s-.2-.8-.6-.9c-.1 0-.2-.1-.4-.1-.5 0-1 .4-1 1s.5 1 1 1z"/><circle cx="260" cy="164.5" r="1"/><circle cx="256.8" cy="167.8" r="1"/><circle cx="263.3" cy="167.8" r="1"/><circle cx="256.8" cy="161.3" r="1"/><circle cx="263.3" cy="161.3" r="1"/><path d="M253.5 170.1c-.1 0-.3 0-.4.1-.4.1-.6.5-.6.9s.2.8.6.9c.1 0 .2.1.4.1.5 0 1-.4 1-1s-.4-1-1-1zM253.5 163.6c-.1 0-.3 0-.4.1-.4.1-.6.5-.6.9s.2.8.6.9c.1 0 .2.1.4.1.5 0 1-.4 1-1s-.4-1-1-1zM266.5 159c.1 0 .3 0 .4-.1.3-.1.6-.5.6-.9s-.2-.8-.6-.9c-.1 0-.2-.1-.4-.1-.5 0-1 .4-1 1s.5 1 1 1z"/><circle cx="260" cy="184" r="1"/><path d="M266.5 178.5c.1 0 .3 0 .4-.1.3-.1.6-.5.6-.9s-.2-.8-.6-.9c-.1 0-.2-.1-.4-.1-.5 0-1 .4-1 1s.5 1 1 1z"/><circle cx="260" cy="177.5" r="1"/><circle cx="256.8" cy="180.8" r="1"/><circle cx="263.3" cy="180.8" r="1"/><circle cx="256.8" cy="174.3" r="1"/><circle cx="263.3" cy="174.3" r="1"/><path d="M253.5 183.1c-.1 0-.3 0-.4.1-.4.1-.6.5-.6.9s.2.8.6.9c.1 0 .2.1.4.1.5 0 1-.4 1-1s-.4-1-1-1zM253.5 176.6c-.1 0-.3 0-.4.1-.4.1-.6.5-.6.9s.2.8.6.9c.1 0 .2.1.4.1.5 0 1-.4 1-1s-.4-1-1-1zM266.5 172c.1 0 .3 0 .4-.1.3-.1.6-.5.6-.9s-.2-.8-.6-.9c-.1 0-.2-.1-.4-.1-.5 0-1 .4-1 1s.5 1 1 1z"/><circle cx="260" cy="197.1" r="1"/><path d="M266.5 191.5c.1 0 .3 0 .4-.1.3-.1.6-.5.6-.9s-.2-.8-.6-.9c-.1 0-.2-.1-.4-.1-.5 0-1 .4-1 1 .1.6.5 1 1 1z"/><circle cx="260" cy="190.5" r="1"/><circle cx="256.8" cy="193.8" r="1"/><circle cx="263.3" cy="193.8" r="1"/><circle cx="256.8" cy="187.3" r="1"/><circle cx="263.3" cy="187.3" r="1"/><path d="M253.5 196.1c-.1 0-.3 0-.4.1-.4.1-.6.5-.6.9s.2.8.6.9c.1 0 .2.1.4.1.5 0 1-.4 1-1s-.4-1-1-1zM253.5 189.6c-.1 0-.3 0-.4.1-.4.1-.6.5-.6.9s.2.8.6.9c.1 0 .2.1.4.1.5 0 1-.4 1-1s-.4-1-1-1zM266.5 185c.1 0 .3 0 .4-.1.3-.1.6-.5.6-.9s-.2-.8-.6-.9c-.1 0-.2-.1-.4-.1-.5 0-1 .4-1 1s.5 1 1 1z"/><circle cx="260" cy="210.1" r="1"/><path d="M266.5 204.5c.1 0 .3 0 .4-.1.3-.1.6-.5.6-.9s-.2-.8-.6-.9c-.1 0-.2-.1-.4-.1-.5 0-1 .4-1 1 .1.6.5 1 1 1z"/><circle cx="260" cy="203.6" r="1"/><circle cx="256.8" cy="206.8" r="1"/><circle cx="263.3" cy="206.8" r="1"/><circle cx="256.8" cy="200.3" r="1"/><circle cx="263.3" cy="200.3" r="1"/><path d="M253.5 209.1c-.1 0-.3 0-.4.1-.4.1-.6.5-.6.9s.2.8.6.9c.1 0 .2.1.4.1.5 0 1-.4 1-1s-.4-1-1-1zM253.5 202.6c-.1 0-.3 0-.4.1-.4.1-.6.5-.6.9s.2.8.6.9c.1 0 .2.1.4.1.5 0 1-.4 1-1s-.4-1-1-1zM266.5 198c.1 0 .3 0 .4-.1.3-.1.6-.5.6-.9s-.2-.8-.6-.9c-.1 0-.2-.1-.4-.1-.5 0-1 .4-1 1s.5 1 1 1zM260 222.1c-.5 0-1 .4-1 1 0 .1 0 .3.1.4.1.4.5.6.9.6s.8-.2.9-.6c0-.1.1-.2.1-.4 0-.6-.4-1-1-1zM266.5 217.5c.1 0 .3 0 .4-.1.3-.1.6-.5.6-.9s-.2-.8-.6-.9c-.1 0-.2-.1-.4-.1-.5 0-1 .4-1 1 .1.6.5 1 1 1z"/><circle cx="260" cy="216.6" r="1"/><circle cx="256.8" cy="219.8" r="1"/><circle cx="263.3" cy="219.8" r="1"/><circle cx="256.8" cy="213.3" r="1"/><circle cx="263.3" cy="213.3" r="1"/><path d="M253.5 222.1c-.1 0-.3 0-.4.1-.4.1-.6.5-.6.9 0 .1 0 .3.1.4.1.2.3.4.5.5.1 0 .2.1.4.1.4 0 .8-.2.9-.6 0-.1.1-.2.1-.4 0-.6-.4-1-1-1zM253.5 215.6c-.1 0-.3 0-.4.1-.4.1-.6.5-.6.9s.2.8.6.9c.1 0 .2.1.4.1.5 0 1-.4 1-1s-.4-1-1-1zM266.5 211c.1 0 .3 0 .4-.1.3-.1.6-.5.6-.9s-.2-.8-.6-.9c-.1 0-.2-.1-.4-.1-.5 0-1 .4-1 1s.5 1 1 1z"/><circle cx="260" cy="236.1" r="1"/><path d="M266.5 230.6c.1 0 .3 0 .4-.1.3-.1.6-.5.6-.9s-.2-.8-.6-.9c-.1 0-.2-.1-.4-.1-.5 0-1 .4-1 1 .1.5.5 1 1 1z"/><circle cx="260" cy="229.6" r="1"/><circle cx="256.8" cy="232.8" r="1"/><circle cx="263.3" cy="232.8" r="1"/><circle cx="256.8" cy="226.3" r="1"/><circle cx="263.3" cy="226.3" r="1"/><path d="M253.5 235.1c-.1 0-.3 0-.4.1-.4.1-.6.5-.6.9s.2.8.6.9c.1 0 .2.1.4.1.5 0 1-.4 1-1 0-.5-.4-1-1-1zM253.5 228.6c-.1 0-.3 0-.4.1-.4.1-.6.5-.6.9s.2.8.6.9c.1 0 .2.1.4.1.5 0 1-.4 1-1s-.4-1-1-1zM266.5 224.1c.1 0 .3 0 .4-.1.2-.1.4-.3.5-.5 0-.1.1-.2.1-.4 0-.4-.2-.8-.6-.9-.1 0-.2-.1-.4-.1-.5 0-1 .4-1 1 0 .1 0 .3.1.4.2.3.5.6.9.6z"/><circle cx="260" cy="249.1" r="1"/><path d="M266.5 243.6c.1 0 .3 0 .4-.1.3-.1.6-.5.6-.9s-.2-.8-.6-.9c-.1 0-.2-.1-.4-.1-.5 0-1 .4-1 1 .1.5.5 1 1 1z"/><circle cx="260" cy="242.6" r="1"/><circle cx="256.8" cy="245.8" r="1"/><circle cx="263.3" cy="245.8" r="1"/><circle cx="256.8" cy="239.3" r="1"/><circle cx="263.3" cy="239.3" r="1"/><path d="M253.5 248.1c-.1 0-.3 0-.4.1-.4.1-.6.5-.6.9s.2.8.6.9c.1 0 .2.1.4.1.5 0 1-.4 1-1 0-.5-.4-1-1-1zM253.5 241.6c-.1 0-.3 0-.4.1-.4.1-.6.5-.6.9s.2.8.6.9c.1 0 .2.1.4.1.5 0 1-.4 1-1 0-.5-.4-1-1-1zM266.5 237.1c.1 0 .3 0 .4-.1.3-.1.6-.5.6-.9s-.2-.8-.6-.9c-.1 0-.2-.1-.4-.1-.5 0-1 .4-1 1 .1.5.5 1 1 1z"/><circle cx="260" cy="262.1" r="1"/><path d="M266.5 256.6c.1 0 .3 0 .4-.1.3-.1.6-.5.6-.9s-.2-.8-.6-.9c-.1 0-.2-.1-.4-.1-.5 0-1 .4-1 1 .1.5.5 1 1 1z"/><circle cx="260" cy="255.6" r="1"/><circle cx="256.8" cy="258.9" r="1"/><circle cx="263.3" cy="258.9" r="1"/><circle cx="256.8" cy="252.4" r="1"/><circle cx="263.3" cy="252.4" r="1"/><path d="M253.5 261.1c-.1 0-.3 0-.4.1-.4.1-.6.5-.6.9s.2.8.6.9c.1 0 .2.1.4.1.5 0 1-.4 1-1s-.4-1-1-1zM253.5 254.6c-.1 0-.3 0-.4.1-.4.1-.6.5-.6.9s.2.8.6.9c.1 0 .2.1.4.1.5 0 1-.4 1-1 0-.5-.4-1-1-1zM266.5 250.1c.1 0 .3 0 .4-.1.3-.1.6-.5.6-.9s-.2-.8-.6-.9c-.1 0-.2-.1-.4-.1-.5 0-1 .4-1 1 .1.5.5 1 1 1z"/><circle cx="260" cy="275.1" r="1"/><circle cx="260" cy="268.6" r="1"/><circle cx="256.8" cy="271.9" r="1"/><path d="M262.3 271.9c0 .3.1.5.3.7.2-.6.5-1.1.7-1.7-.6 0-1 .4-1 1z"/><circle cx="256.8" cy="265.4" r="1"/><circle cx="263.3" cy="265.4" r="1"/><path d="M253.5 274.1c-.1 0-.3 0-.4.1-.4.1-.6.5-.6.9s.2.8.6.9c.1 0 .2.1.4.1.5 0 1-.4 1-1s-.4-1-1-1zM253.5 267.6c-.1 0-.3 0-.4.1-.4.1-.6.5-.6.9s.2.8.6.9c.1 0 .2.1.4.1.5 0 1-.4 1-1s-.4-1-1-1zM259.1 281.6v.2c.1-.3.2-.7.3-1-.2.3-.3.5-.3.8z"/><circle cx="256.8" cy="284.9" r="1"/><circle cx="256.8" cy="278.4" r="1"/><path d="M253.5 287.2c-.1 0-.3 0-.4.1-.4.1-.6.5-.6.9s.2.8.6.9c.1 0 .2.1.4.1.5 0 1-.4 1-1s-.4-1-1-1zM253.5 280.7c-.1 0-.3 0-.4.1-.4.1-.6.5-.6.9s.2.8.6.9c.1 0 .2.1.4.1.5 0 1-.4 1-1s-.4-1-1-1zM253.5 300.2c-.1 0-.3 0-.4.1-.4.1-.6.5-.6.9s.2.8.6.9c.1 0 .2.1.4.1.5 0 1-.4 1-1s-.4-1-1-1zM253.5 293.7c-.1 0-.3 0-.4.1-.4.1-.6.5-.6.9s.2.8.6.9c.1 0 .2.1.4.1.5 0 1-.4 1-1s-.4-1-1-1zM243.8 6.1c.2 0 .4-.1.6-.2-.2-.6-.6-1.2-1.2-1.5-.2.2-.4.4-.4.8 0 .5.4.9 1 .9z"/><circle cx="240.5" cy="14.9" r="1"/><circle cx="240.5" cy="8.4" r="1"/><circle cx="247" cy="27.9" r="1"/><circle cx="247" cy="21.4" r="1"/><circle cx="243.8" cy="24.7" r="1"/><path d="M249.9 25.6c-.2-.5-.3-1-.4-1.5-.1.2-.2.4-.2.6 0 .4.3.7.6.9z"/><circle cx="243.8" cy="18.1" r="1"/><circle cx="240.5" cy="27.9" r="1"/><circle cx="240.5" cy="21.4" r="1"/><path d="M247 15.9c.1 0 .2 0 .3-.1-.1-.3-.3-.6-.4-.9-.1-.3-.3-.6-.4-.8-.3.2-.5.5-.5.8 0 .5.5 1 1 1z"/><circle cx="247" cy="40.9" r="1"/><circle cx="247" cy="34.4" r="1"/><circle cx="243.8" cy="37.7" r="1"/><circle cx="250.3" cy="37.7" r="1"/><circle cx="243.8" cy="31.2" r="1"/><circle cx="250.3" cy="31.2" r="1"/><circle cx="240.5" cy="40.9" r="1"/><circle cx="240.5" cy="34.4" r="1"/><circle cx="247" cy="53.9" r="1"/><circle cx="247" cy="47.4" r="1"/><circle cx="243.8" cy="50.7" r="1"/><circle cx="250.3" cy="50.7" r="1"/><circle cx="243.8" cy="44.2" r="1"/><circle cx="250.3" cy="44.2" r="1"/><circle cx="240.5" cy="53.9" r="1"/><circle cx="240.5" cy="47.4" r="1"/><circle cx="247" cy="66.9" r="1"/><circle cx="247" cy="60.4" r="1"/><circle cx="243.8" cy="63.7" r="1"/><circle cx="250.3" cy="63.7" r="1"/><circle cx="243.8" cy="57.2" r="1"/><circle cx="250.3" cy="57.2" r="1"/><circle cx="240.5" cy="66.9" r="1"/><circle cx="240.5" cy="60.4" r="1"/><path d="M253.5 53c-.1 0-.3 0-.4.1-.4.1-.6.5-.6.9s.2.8.6.9c.1 0 .2.1.4.1.5 0 1-.4 1-1s-.4-1-1-1z"/><circle cx="247" cy="80" r="1"/><circle cx="247" cy="73.4" r="1"/><circle cx="243.8" cy="76.7" r="1"/><circle cx="250.3" cy="76.7" r="1"/><circle cx="243.8" cy="70.2" r="1"/><circle cx="250.3" cy="70.2" r="1"/><circle cx="240.5" cy="80" r="1"/><circle cx="240.5" cy="73.4" r="1"/><path d="M247 92c-.5 0-1 .4-1 1 0 .1 0 .3.1.4.1.4.5.6.9.6s.8-.2.9-.6c0-.1.1-.2.1-.4 0-.6-.4-1-1-1zM252.9 87.2v-1.5c-.3.2-.4.5-.4.8 0 .3.2.5.4.7z"/><circle cx="247" cy="86.5" r="1"/><circle cx="243.8" cy="89.7" r="1"/><circle cx="250.3" cy="89.7" r="1"/><circle cx="243.8" cy="83.2" r="1"/><circle cx="250.3" cy="83.2" r="1"/><path d="M240.5 92c-.5 0-1 .4-1 1 0 .1 0 .3.1.4.1.4.5.6.9.6s.8-.2.9-.6c0-.1.1-.2.1-.4 0-.6-.5-1-1-1z"/><circle cx="240.5" cy="86.5" r="1"/><path d="M253.1 80.8h.2c0-.3.1-.6.1-.9 0-.2.1-.4.1-.6 0-.1 0-.3.1-.4h-.1c-.1 0-.3 0-.4.1-.4.1-.6.5-.6.9s.3.8.6.9zM247 105c-.5 0-1 .4-1 1 0 .1 0 .3.1.4.1.4.5.6.9.6s.8-.2.9-.6c0-.1.1-.2.1-.4 0-.6-.4-1-1-1zM253.1 100.4c.1 0 .2.1.4.1.1 0 .2 0 .3-.1-.1-.6-.2-1.3-.3-1.9v-.2.2c-.1 0-.3 0-.4.1-.4.1-.6.5-.6.9s.3.7.6.9z"/><circle cx="247" cy="99.5" r="1"/><circle cx="243.8" cy="102.7" r="1"/><circle cx="250.3" cy="102.7" r="1"/><circle cx="243.8" cy="96.2" r="1"/><circle cx="250.3" cy="96.2" r="1"/><path d="M240.5 105c-.5 0-1 .4-1 1 0 .1 0 .3.1.4.1.4.5.6.9.6s.8-.2.9-.6c0-.1.1-.2.1-.4 0-.6-.5-1-1-1z"/><circle cx="240.5" cy="99.5" r="1"/><path d="M253.1 93.8c0-.3 0-.6-.1-.9v-.8c-.3.2-.5.5-.5.8 0 .1 0 .3.1.4.1.3.3.4.5.5z"/><circle cx="247" cy="119" r="1"/><circle cx="247" cy="112.5" r="1"/><circle cx="243.8" cy="115.7" r="1"/><circle cx="250.3" cy="115.7" r="1"/><circle cx="243.8" cy="109.2" r="1"/><circle cx="250.3" cy="109.2" r="1"/><circle cx="240.5" cy="119" r="1"/><circle cx="240.5" cy="112.5" r="1"/><circle cx="247" cy="132" r="1"/><circle cx="247" cy="125.5" r="1"/><circle cx="243.8" cy="128.7" r="1"/><circle cx="250.3" cy="128.7" r="1"/><circle cx="243.8" cy="122.2" r="1"/><circle cx="250.3" cy="122.2" r="1"/><circle cx="240.5" cy="132" r="1"/><circle cx="240.5" cy="125.5" r="1"/><circle cx="247" cy="145" r="1"/><circle cx="247" cy="138.5" r="1"/><circle cx="243.8" cy="141.8" r="1"/><circle cx="250.3" cy="141.8" r="1"/><circle cx="243.8" cy="135.2" r="1"/><circle cx="250.3" cy="135.2" r="1"/><circle cx="240.5" cy="145" r="1"/><circle cx="240.5" cy="138.5" r="1"/><circle cx="247" cy="158" r="1"/><circle cx="247" cy="151.5" r="1"/><circle cx="243.8" cy="154.8" r="1"/><circle cx="250.3" cy="154.8" r="1"/><circle cx="243.8" cy="148.3" r="1"/><circle cx="250.3" cy="148.3" r="1"/><circle cx="240.5" cy="151.5" r="1"/><circle cx="247" cy="171" r="1"/><circle cx="247" cy="164.5" r="1"/><circle cx="243.8" cy="167.8" r="1"/><circle cx="250.3" cy="167.8" r="1"/><circle cx="243.8" cy="161.3" r="1"/><circle cx="250.3" cy="161.3" r="1"/><circle cx="240.5" cy="171" r="1"/><circle cx="240.5" cy="164.5" r="1"/><circle cx="247" cy="184" r="1"/><circle cx="247" cy="177.5" r="1"/><circle cx="243.8" cy="180.8" r="1"/><circle cx="250.3" cy="180.8" r="1"/><circle cx="243.8" cy="174.3" r="1"/><circle cx="250.3" cy="174.3" r="1"/><circle cx="240.5" cy="184" r="1"/><circle cx="240.5" cy="177.5" r="1"/><circle cx="247" cy="197.1" r="1"/><circle cx="247" cy="190.5" r="1"/><circle cx="243.8" cy="193.8" r="1"/><circle cx="250.3" cy="193.8" r="1"/><circle cx="243.8" cy="187.3" r="1"/><circle cx="250.3" cy="187.3" r="1"/><circle cx="240.5" cy="197.1" r="1"/><circle cx="240.5" cy="190.5" r="1"/><circle cx="247" cy="210.1" r="1"/><circle cx="247" cy="203.6" r="1"/><circle cx="243.8" cy="206.8" r="1"/><circle cx="250.3" cy="206.8" r="1"/><circle cx="243.8" cy="200.3" r="1"/><circle cx="250.3" cy="200.3" r="1"/><circle cx="240.5" cy="210.1" r="1"/><circle cx="240.5" cy="203.6" r="1"/><path d="M247 222.1c-.5 0-1 .4-1 1 0 .1 0 .3.1.4.1.4.5.6.9.6s.8-.2.9-.6c0-.1.1-.2.1-.4 0-.6-.4-1-1-1z"/><circle cx="247" cy="216.6" r="1"/><circle cx="243.8" cy="219.8" r="1"/><circle cx="250.3" cy="219.8" r="1"/><circle cx="243.8" cy="213.3" r="1"/><circle cx="250.3" cy="213.3" r="1"/><path d="M240.5 222.1c-.5 0-1 .4-1 1 0 .1 0 .3.1.4.1.4.5.6.9.6s.8-.2.9-.6c0-.1.1-.2.1-.4 0-.6-.5-1-1-1z"/><circle cx="240.5" cy="216.6" r="1"/><circle cx="247" cy="236.1" r="1"/><circle cx="247" cy="229.6" r="1"/><circle cx="243.8" cy="232.8" r="1"/><circle cx="250.3" cy="232.8" r="1"/><circle cx="243.8" cy="226.3" r="1"/><circle cx="250.3" cy="226.3" r="1"/><circle cx="240.5" cy="236.1" r="1"/><circle cx="240.5" cy="229.6" r="1"/><circle cx="247" cy="249.1" r="1"/><circle cx="247" cy="242.6" r="1"/><circle cx="243.8" cy="245.8" r="1"/><circle cx="250.3" cy="245.8" r="1"/><circle cx="243.8" cy="239.3" r="1"/><circle cx="250.3" cy="239.3" r="1"/><circle cx="240.5" cy="249.1" r="1"/><circle cx="240.5" cy="242.6" r="1"/><circle cx="247" cy="262.1" r="1"/><circle cx="247" cy="255.6" r="1"/><circle cx="243.8" cy="258.9" r="1"/><circle cx="250.3" cy="258.9" r="1"/><circle cx="243.8" cy="252.4" r="1"/><circle cx="250.3" cy="252.4" r="1"/><circle cx="240.5" cy="262.1" r="1"/><circle cx="240.5" cy="255.6" r="1"/><circle cx="247" cy="275.1" r="1"/><circle cx="247" cy="268.6" r="1"/><circle cx="243.8" cy="271.9" r="1"/><circle cx="250.3" cy="271.9" r="1"/><circle cx="243.8" cy="265.4" r="1"/><circle cx="250.3" cy="265.4" r="1"/><circle cx="240.5" cy="275.1" r="1"/><circle cx="240.5" cy="268.6" r="1"/><circle cx="247" cy="288.1" r="1"/><circle cx="247" cy="281.6" r="1"/><circle cx="243.8" cy="284.9" r="1"/><circle cx="250.3" cy="284.9" r="1"/><circle cx="243.8" cy="278.4" r="1"/><circle cx="250.3" cy="278.4" r="1"/><circle cx="240.5" cy="288.1" r="1"/><circle cx="240.5" cy="281.6" r="1"/><circle cx="247" cy="294.6" r="1"/><circle cx="250.3" cy="297.9" r="1"/><circle cx="243.8" cy="291.4" r="1"/><circle cx="250.3" cy="291.4" r="1"/><path d="M233.6 1.5c0 .1-.1.3-.1.4 0 .2-.1.5-.1.7.2.2.4.2.6.2.5 0 1-.4 1-1 0-.2-.1-.4-.2-.6-.4 0-.8.1-1.2.3z"/><circle cx="234" cy="14.9" r="1"/><circle cx="234" cy="8.4" r="1"/><circle cx="230.8" cy="11.6" r="1"/><circle cx="237.3" cy="11.6" r="1"/><path d="M230.8 4.2c-.4 0-.8.3-.9.7 0 .1-.1.2-.1.3 0 .2.1.3.1.5.2.3.5.5.8.5.5 0 1-.4 1-1s-.4-1-.9-1z"/><circle cx="237.3" cy="5.1" r="1"/><path d="M227.5 7.4c-.3 0-.5.1-.7.3-.2.2-.3.4-.3.7 0 .3.1.5.3.7.2.2.4.3.7.3.5 0 1-.4 1-1s-.5-1-1-1zM240.5 2.9c.4 0 .7-.2.9-.5-.1-.2-.2-.3-.3-.5l-.5-.5-.6-.3c-.2.2-.4.4-.4.7-.1.6.4 1.1.9 1.1z"/><circle cx="234" cy="27.9" r="1"/><circle cx="234" cy="21.4" r="1"/><circle cx="237.3" cy="24.7" r="1"/><path d="M231.3 17.4c.1.4.3.8.4 1.2 0-.1.1-.2.1-.4-.1-.4-.2-.7-.5-.8z"/><circle cx="237.3" cy="18.1" r="1"/><path d="M234 39.9c-.2 0-.4.1-.5.2 0 .3 0 .5.1.8 0 .3 0 .6.1.9.1.1.3.1.4.1.5 0 1-.4 1-1s-.6-1-1.1-1zM234 33.4c-.4 0-.8.3-.9.7 0 .1-.1.2-.1.3 0 .2 0 .3.1.4.2.3.5.5.9.5.5 0 1-.4 1-1s-.5-.9-1-.9z"/><circle cx="237.3" cy="37.7" r="1"/><circle cx="237.3" cy="31.2" r="1"/><path d="M234.4 53c0 .3 0 .6.1.9 0 .3 0 .6.1.8.3-.2.5-.5.5-.8-.1-.4-.4-.7-.7-.9zM234 46.4s0 .1 0 0v1.9c.5 0 .9-.4.9-1 .1-.4-.4-.9-.9-.9z"/><circle cx="237.3" cy="50.7" r="1"/><circle cx="237.3" cy="44.2" r="1"/><path d="M234.3 66c0 .3 0 .6-.1.9 0 .3 0 .6-.1.9.5-.1.8-.5.8-.9.1-.4-.2-.8-.6-.9zM234.6 59.7c0 .5 0 1-.1 1.5.3-.2.4-.5.4-.8.1-.3-.1-.5-.3-.7z"/><circle cx="237.3" cy="63.7" r="1"/><circle cx="237.3" cy="57.2" r="1"/><path d="M234 79c-.3 0-.5.1-.7.3 0 .2 0 .5-.1.7v.5c.2.3.5.5.8.5.5 0 1-.4 1-1s-.5-1-1-1zM234 72.5h-.2c0 .6-.1 1.2-.1 1.9.1 0 .2.1.3.1.5 0 1-.4 1-1s-.5-1-1-1z"/><circle cx="237.3" cy="76.7" r="1"/><circle cx="237.3" cy="70.2" r="1"/><path d="M234 92c-.5 0-1 .4-1 1 0 .1 0 .3.1.4.1.4.5.6.9.6s.8-.2.9-.6c0-.1.1-.2.1-.4 0-.6-.5-1-1-1z"/><circle cx="234" cy="86.5" r="1"/><circle cx="237.3" cy="89.7" r="1"/><circle cx="237.3" cy="83.2" r="1"/><path d="M234 105c-.5 0-1 .4-1 1 0 .1 0 .3.1.4.1.4.5.6.9.6s.8-.2.9-.6c0-.1.1-.2.1-.4 0-.6-.5-1-1-1z"/><circle cx="234" cy="99.5" r="1"/><path d="M231.3 101.9c-.1.6-.1 1.1-.2 1.7.4-.1.6-.5.6-.9 0-.3-.2-.6-.4-.8z"/><circle cx="237.3" cy="102.7" r="1"/><circle cx="237.3" cy="96.2" r="1"/><circle cx="234" cy="119" r="1"/><circle cx="234" cy="112.5" r="1"/><path d="M230.8 114.8c-.3 0-.5.1-.7.3 0 .4-.1.8-.1 1.2.2.3.5.5.8.5.5 0 1-.4 1-1-.1-.6-.5-1-1-1z"/><circle cx="237.3" cy="115.7" r="1"/><path d="M230.8 108.3c-.1 0-.1 0 0 0-.1.6-.2 1.3-.2 1.9h.2c.5 0 1-.4 1-1-.1-.5-.5-.9-1-.9z"/><circle cx="237.3" cy="109.2" r="1"/><circle cx="234" cy="132" r="1"/><circle cx="234" cy="125.5" r="1"/><circle cx="230.8" cy="128.7" r="1"/><circle cx="237.3" cy="128.7" r="1"/><circle cx="230.8" cy="122.2" r="1"/><circle cx="237.3" cy="122.2" r="1"/><path d="M228.4 132v.4c0-.1.1-.3 0-.4v-.1.1z"/><circle cx="234" cy="145" r="1"/><circle cx="234" cy="138.5" r="1"/><circle cx="230.8" cy="141.8" r="1"/><circle cx="237.3" cy="141.8" r="1"/><circle cx="230.8" cy="135.2" r="1"/><circle cx="237.3" cy="135.2" r="1"/><path d="M227.5 144v-2.2c-.1.7-.1 1.5-.2 2.2 0 .3-.1.6-.1.9 0 .3-.1.6-.1.9.1.1.2.1.4.1.5 0 1-.4 1-1s-.5-.9-1-.9zM227.9 137.6c-.1.6-.1 1.2-.2 1.8.4-.1.7-.5.7-.9.1-.4-.2-.7-.5-.9z"/><circle cx="234" cy="158" r="1"/><circle cx="234" cy="151.5" r="1"/><circle cx="230.8" cy="154.8" r="1"/><circle cx="237.3" cy="154.8" r="1"/><circle cx="230.8" cy="148.3" r="1"/><circle cx="237.3" cy="148.3" r="1"/><path d="M227.5 157c-.3 0-.5.1-.7.3-.2.2-.3.4-.3.7 0 .3.1.5.3.7.2.2.4.3.7.3.5 0 1-.4 1-1s-.5-1-1-1zM227.5 150.5c-.3 0-.5.1-.7.3-.1.1-.1.2-.2.3-.1.1-.1.3-.1.4v.2c0 .2.1.4.2.5.2.2.4.3.7.3.5 0 1-.4 1-1s-.4-1-.9-1z"/><circle cx="234" cy="171" r="1"/><circle cx="234" cy="164.5" r="1"/><circle cx="230.8" cy="167.8" r="1"/><circle cx="237.3" cy="167.8" r="1"/><circle cx="230.8" cy="161.3" r="1"/><circle cx="237.3" cy="161.3" r="1"/><path d="M227.5 170.1c-.3 0-.5.1-.7.3-.2.2-.3.4-.3.7 0 .3.1.5.3.7.2.2.4.3.7.3.5 0 1-.4 1-1s-.5-1-1-1zM227.5 163.6c-.3 0-.5.1-.7.3-.2.2-.3.4-.3.7 0 .3.1.5.3.7.2.2.4.3.7.3.5 0 1-.4 1-1s-.5-1-1-1z"/><circle cx="240.5" cy="158" r="1"/><circle cx="234" cy="184" r="1"/><circle cx="234" cy="177.5" r="1"/><circle cx="230.8" cy="180.8" r="1"/><circle cx="237.3" cy="180.8" r="1"/><circle cx="230.8" cy="174.3" r="1"/><circle cx="237.3" cy="174.3" r="1"/><path d="M227.5 183.1c-.3 0-.5.1-.7.3-.2.2-.3.4-.3.7 0 .3.1.5.3.7.2.2.4.3.7.3.5 0 1-.4 1-1s-.5-1-1-1zM227.5 176.6c-.3 0-.5.1-.7.3-.2.2-.3.4-.3.7 0 .3.1.5.3.7.2.2.4.3.7.3.5 0 1-.4 1-1s-.5-1-1-1z"/><circle cx="234" cy="197.1" r="1"/><circle cx="234" cy="190.5" r="1"/><circle cx="230.8" cy="193.8" r="1"/><circle cx="237.3" cy="193.8" r="1"/><circle cx="230.8" cy="187.3" r="1"/><circle cx="237.3" cy="187.3" r="1"/><path d="M227.5 196.1c-.3 0-.5.1-.7.3-.2.2-.3.4-.3.7 0 .3.1.5.3.7.2.2.4.3.7.3.5 0 1-.4 1-1s-.5-1-1-1zM227.5 189.6c-.3 0-.5.1-.7.3-.2.2-.3.4-.3.7 0 .3.1.5.3.7.2.2.4.3.7.3.5 0 1-.4 1-1s-.5-1-1-1z"/><circle cx="234" cy="210.1" r="1"/><circle cx="234" cy="203.6" r="1"/><circle cx="230.8" cy="206.8" r="1"/><circle cx="237.3" cy="206.8" r="1"/><circle cx="230.8" cy="200.3" r="1"/><circle cx="237.3" cy="200.3" r="1"/><path d="M227.5 209.1c-.3 0-.5.1-.7.3-.2.2-.3.4-.3.7 0 .3.1.5.3.7.2.2.4.3.7.3.5 0 1-.4 1-1s-.5-1-1-1zM227.5 202.6c-.3 0-.5.1-.7.3-.2.2-.3.4-.3.7 0 .3.1.5.3.7.2.2.4.3.7.3.5 0 1-.4 1-1s-.5-1-1-1zM234 222.1c-.5 0-1 .4-1 1 0 .1 0 .3.1.4.1.4.5.6.9.6s.8-.2.9-.6c0-.1.1-.2.1-.4 0-.6-.5-1-1-1z"/><circle cx="234" cy="216.6" r="1"/><circle cx="230.8" cy="219.8" r="1"/><circle cx="237.3" cy="219.8" r="1"/><circle cx="230.8" cy="213.3" r="1"/><circle cx="237.3" cy="213.3" r="1"/><path d="M227.5 222.1c-.3 0-.5.1-.7.3-.2.2-.3.4-.3.7 0 .1 0 .3.1.4 0 .1.1.2.2.3.2.2.4.3.7.3.4 0 .8-.2.9-.6 0-.1.1-.2.1-.4 0-.6-.5-1-1-1zM227.5 215.6c-.3 0-.5.1-.7.3-.2.2-.3.4-.3.7 0 .3.1.5.3.7.2.2.4.3.7.3.5 0 1-.4 1-1s-.5-1-1-1z"/><circle cx="234" cy="236.1" r="1"/><circle cx="234" cy="229.6" r="1"/><circle cx="230.8" cy="232.8" r="1"/><circle cx="237.3" cy="232.8" r="1"/><circle cx="230.8" cy="226.3" r="1"/><circle cx="237.3" cy="226.3" r="1"/><path d="M227.5 235.1c-.3 0-.5.1-.7.3-.2.2-.3.4-.3.7 0 .3.1.5.3.7.2.2.4.3.7.3.5 0 1-.4 1-1 0-.5-.5-1-1-1zM227.5 228.6c-.3 0-.5.1-.7.3-.2.2-.3.4-.3.7 0 .3.1.5.3.7.2.2.4.3.7.3.5 0 1-.4 1-1s-.5-1-1-1z"/><circle cx="234" cy="249.1" r="1"/><circle cx="234" cy="242.6" r="1"/><circle cx="230.8" cy="245.8" r="1"/><circle cx="237.3" cy="245.8" r="1"/><circle cx="230.8" cy="239.3" r="1"/><circle cx="237.3" cy="239.3" r="1"/><path d="M227.5 248.1c-.3 0-.5.1-.7.3-.2.2-.3.4-.3.7 0 .3.1.5.3.7.2.2.4.3.7.3.5 0 1-.4 1-1 0-.5-.5-1-1-1zM227.5 241.6c-.3 0-.5.1-.7.3-.2.2-.3.4-.3.7 0 .3.1.5.3.7.2.2.4.3.7.3.5 0 1-.4 1-1 0-.5-.5-1-1-1z"/><circle cx="234" cy="262.1" r="1"/><circle cx="234" cy="255.6" r="1"/><circle cx="230.8" cy="258.9" r="1"/><circle cx="237.3" cy="258.9" r="1"/><circle cx="230.8" cy="252.4" r="1"/><circle cx="237.3" cy="252.4" r="1"/><path d="M227.5 261.1c-.3 0-.5.1-.7.3-.2.2-.3.4-.3.7 0 .3.1.5.3.7.2.2.4.3.7.3.5 0 1-.4 1-1s-.5-1-1-1zM227.5 254.6c-.3 0-.5.1-.7.3-.2.2-.3.4-.3.7 0 .3.1.5.3.7.2.2.4.3.7.3.5 0 1-.4 1-1 0-.5-.5-1-1-1z"/><circle cx="234" cy="275.1" r="1"/><circle cx="234" cy="268.6" r="1"/><circle cx="230.8" cy="271.9" r="1"/><circle cx="237.3" cy="271.9" r="1"/><circle cx="230.8" cy="265.4" r="1"/><circle cx="237.3" cy="265.4" r="1"/><path d="M227.5 267.6c-.3 0-.5.1-.7.3-.2.2-.3.4-.3.7 0 .3.1.5.3.7.2.2.4.3.7.3.5 0 1-.4 1-1s-.5-1-1-1zM234 280.7c-.4 0-.7.2-.9.6.3.5.7.9 1 1.4.5-.1.9-.5.9-1 0-.6-.5-1-1-1z"/><circle cx="237.3" cy="284.9" r="1"/><path d="M230.8 277.4h-.2c.3.5.7 1 1 1.5.1-.2.2-.3.2-.6-.1-.5-.5-.9-1-.9z"/><circle cx="237.3" cy="278.4" r="1"/><path d="M225.1 11.2c-.1-.2-.2-.3-.3-.4v.3c.2.1.2.1.3.1zM225.1 167.4c0 .3-.1.7-.1 1 .1-.2.2-.3.2-.6 0-.2 0-.3-.1-.4zM224.2 179.8c-.1 0-.2 0-.3.1-.1.6-.1 1.2-.2 1.8.1.1.3.1.4.1.5 0 1-.4 1-1 .1-.5-.3-1-.9-1zM224.6 173.4c-.1.6-.1 1.2-.2 1.9.5-.1.8-.5.8-.9 0-.5-.3-.9-.6-1z"/><circle cx="224.2" cy="193.8" r="1"/><path d="M224.2 186.3c-.4 0-.7.2-.9.6-.1.1-.1.3-.1.4v.2c.1.4.5.8.9.8.5 0 1-.4 1-1 .1-.5-.3-1-.9-1zM221.5 209.3c0 .3 0 .5-.1.8 0 .3 0 .6-.1.9.3-.1.6-.5.6-.9.1-.4-.1-.7-.4-.8zM222 203.6s0-.1 0 0z"/><circle cx="224.2" cy="206.8" r="1"/><circle cx="224.2" cy="200.3" r="1"/><path d="M221 222.1c-.2 0-.3.1-.4.1 0 .3 0 .6-.1.9 0 .3 0 .5-.1.8.2.1.3.2.6.2.4 0 .8-.2.9-.6 0-.1.1-.2.1-.4 0-.6-.5-1-1-1zM221 215.6c0 .6-.1 1.3-.1 1.9h.1c.5 0 1-.4 1-1 0-.5-.5-.9-1-.9z"/><circle cx="224.2" cy="219.8" r="1"/><circle cx="224.2" cy="213.3" r="1"/><circle cx="221" cy="236.1" r="1"/><path d="M221 228.6c-.4 0-.8.3-.9.7 0 .1-.1.2-.1.3v.1c.1.5.5.8.9.8.5 0 1-.4 1-1 .1-.5-.4-.9-.9-.9z"/><circle cx="224.2" cy="232.8" r="1"/><circle cx="224.2" cy="226.3" r="1"/><circle cx="221" cy="249.1" r="1"/><circle cx="221" cy="242.6" r="1"/><circle cx="224.2" cy="245.8" r="1"/><circle cx="224.2" cy="239.3" r="1"/><path d="M221 261.1c-.2 0-.3 0-.4.1.1.3.3.6.5.9.1.3.3.5.4.8.3-.2.5-.5.5-.8 0-.5-.5-1-1-1z"/><circle cx="221" cy="255.6" r="1"/><circle cx="224.2" cy="258.9" r="1"/><circle cx="224.2" cy="252.4" r="1"/><circle cx="224.2" cy="265.4" r="1"/></g><g><path d="M211.5 163.9c.1 1.2-.9 2.9-2.5 3.9s-3.5 1-3.8-.1c1.5 0 3.7-1.4 4.5-2.8.1-.3.3-.5.5-.8s.5-.5.8-.6c.3-.1.5.2.5.4z"/></g><g><path d="M202.6 166c-.7-.1-1.2-.7-1.2-1.4 0-1.4 1.4-2.6 2.7-3.4 1.8-1.1 4-1.9 5.8-1.4-.3.6-1 .8-1.7 1.1-2.3.9-4.5 2.8-5.6 5.1z"/></g></svg>