<svg xmlns="http://www.w3.org/2000/svg" viewBox="0 0 581.9 272.8"><path fill="none" d="M367.3 52.9c.8-.4 1.6-.9 2.5-1.3-1.2.6-2.5 1.2-2.5 1.3z"/><path d="M273.6 110.6s-6.8-14.9-15.4-16.7c-.2 0-.4-.1-.5-.1-3.1-.4-5.5.3-7.3 1.4-4.1 3.4-.7 14.7-.1 18.3.8 4.4-2.4 4.5-2.4 4.5-2.8-.7-3.4.5-3.4.5l-2.5-3.1c-1.5 1.4-1.8 3.4-1.8 3.4-1.9-2.3-2.8-1.4-2.8-1.4l-1.6 3.9c-2.1-2.5-6.3-3.9-6.3-3.9-13.8.1-11.2-13.5-11.2-13.5s3.6 5.5 15.6-1.1c-.4-.2-.8-.4-1.2-.7-7-4.4.2-11.2 3.9-5.8 0 0 16.8-3.2 14.5-22.3-.2-1.3-.2-2.7-.3-4-1.2-.3-2.5-.2-3.6.7-1.1.8-1.8 2.1-2.8 3-3.9 3.6-9.2-.1-13.8-2-9.1-3.9-20 .2-27.4 7.8-2.4 2.5-4.5 5.2-6.3 8.2 11.7 28.2 19.4 51.5 22.2 60.3 25.9-12.2 49.6-21.3 49.6-21.3s2.6-1.5 4.7-6.7c2.3 10.9 7.3 18 9 20.3-15 6.8-34.8 12.9-60.3 15.8 1 2.3 2 4.4 3 6.2 12.9.2 25.4 1.2 25.4 1.2 12.6-7.4 24.3-13.3 35-17.8 0-.1.1-.2.1-.2.5-1.4 1-2.8 1.6-4.3.2.2-13-11.8-13.6-30.6z"/><g fill="#9A2165"><path d="M234.9 236.8l42.3-48.2s-.7-17 8.5-42.7c-10.7 4.5-22.3 10.4-35 17.8 0 0-12.5-1.1-25.4-1.2-1-1.8-2-3.9-3-6.2-.6-1.4-1.2-2.8-1.8-4.4 0 0-.4-1.3-1.2-3.7-2.8-8.7-10.5-32-22.2-60.3-11.3-27.3-26.3-59.3-44-87.1L139.6.1s0 .1.1.5l-7 2.6s-3.6 3.4-6.5 7.9c-1.2 1.9-2.3 4.1-2.9 6.1-8.4 32.5-38.3 125.8-46.6 152-.3.3-.6.7-.9 1-8.3 9.1-28.2 15.1-38.5 20.1-4.1 1.9-6.5 2.2-11.1 1.8-5.1-.4-10-4.2-12.2-9.3-.5-1.2-.9-2.5-1.8-3.4-1.9-1.8-5.1-.8-6.2 1.5-1.1 2.3-.4 5.3 1 7.6-2.1-.3-4.9.2-5.2 2.5-.2 1.3.7 2.6 1.8 3.4 1.1.7 2.4.9 3.6 1.2-.8 1.2-.2 3 .9 3.9 1.1 1 2.5 1.3 3.8 1.6-.5 1.2.2 2.6 1.2 3.4 1 .8 2.2 1 3.4 1.2-.9 1.9.8 4.1 2.5 5.5 8.1 6.8 18.7 9.9 28.6 8.4 4.8-.7 9.4-2.5 14.3-2.5 4.6 0 9.3 1.4 13.7 3.3 16 6.9 16.5 1.2 16.8.9 4.6-6 4-10.3 3.4-18.3-.6-8-1.7-16.4 1-23.6l-.3-.2c.2-.6.4-1.3.7-2.1 4.1-12.7 14.1-41 26-52.4 12.4-11.8 47.1-35 46-72.6 3.7 24.6-12.8 45.7-28.2 60.8-2.4 39.7-.7 126.9 58.2 139.8 5.4-2.9 18.3-6.6 17.2-8.8-.9-1.6-3.2-2.9-5-3.5s-3.6-.9-5.2-1.9c-1.6-1-2.7-3.1-1.8-4.5 4.9-.2 8 3.6 12.8 2.6 1.3-.3 3.6.4 4.9.2 1.3-.2 2.6 0 3.9.2 2.8.5 5.6 1.4 7.8.1.4-.1.8-.2 1.1-.3z"/><path d="M395.7 167.5c-1.6-3.8-7.5-9.5-1.7-17.6l.1-.1c-3.8-8.1-7.6-16.8-11.1-26.1 0 0-12.6 13.7-27.5 11.2 1.2-8.2 2.6-18.1 4.2-30.1.5-4 2.7-10 4.6-14.6.1-.1.1-.3.2-.4 3.5-8.5 8.8-17.2 16.8-19.5 2.5-.7 5.7-1.5 6-4.4.2-1.8-1.2-3.4-2.6-4.2-3.9-2-8.4.3-12.5 1.6-.7.2-1.4.4-2 .1-.6-.2-1-.8-1.3-1.3-2.1-3.3-2.1-5.3-1.5-9.3 0 0 1.3-.7 2.5-1.3.7-.4 1.4-.8 1.6-.9 1.4-1-.7-3.7-2.1-4.8-2.6-2-6.6-3.4-8.4-.5-.6.9-.9 2.3-1.8 2.6-1.2.4-2.2-1-3.4-1.2-1.2-.2-2.5.7-3.2 1.9-1.5 2.4-4.6 1.3-5.7 1.9-1.1.6-.5 2.7-2.5 3.6-.9.4-2.9-.4-3.7.1-1.6.9-2.8 5.1-2.7 7 0 .5.1 1 .1 1.5.2 1.4.7 2.8 1.2 4.1 1.9 5.2 3.7 10.4 5.6 15.6.1.3.2.6.3.8-1 4.3-4 10.4-6.8 15-4 6.6-6.2 11.8-6.2 11.8l-16.5 44.3-.1.1s0 .2-.1.6l-10.8 29c-10 19.3-28.6 43.8-62.2 60.7v.1c-.2.1-.4.1-.6.2-.3.1-.6.3-.9.4l-.1-.1c-3.1 1.2-5.2 2.9-8.2 5.8l-.1.1c18.2-3.7 49.2-33 65.3-28.2 21.8 6.5 122.8 3.1 97.8-55.5z"/></g><path fill="#5AC7DC" d="M282.7 140.5c-1.7-2.2-6.7-9.4-9-20.3-2.1 5.2-4.7 6.7-4.7 6.7s-23.7 9.1-49.6 21.3c.8 2.4 1.2 3.7 1.2 3.7.6 1.5 1.2 3 1.8 4.4 25.5-3 45.3-9.1 60.3-15.8z"/><path fill="#5AC7DC" d="M344.9 82.5c-1.9-5.2-3.7-10.4-5.6-15.6-.5-1.3-1-2.7-1.2-4.1-30.4 4.7-50.6-9.6-50.6-9.6-24.2-13-36.6-.1-36.4 17.2 0 1.3.1 2.6.3 4 2.3 19.1-14.5 22.3-14.5 22.3-3.7-5.5-10.9 1.3-3.9 5.8.4.3.8.5 1.2.7-12 6.5-15.6 1.1-15.6 1.1s-2.7 13.6 11.2 13.5c0 0 4.2 1.4 6.3 3.9l1.6-3.9s.8-.9 2.8 1.4c0 0 .3-2 1.8-3.4l2.5 3.1s.6-1.2 3.4-.5c0 0 3.2-.1 2.4-4.5-.6-3.6-4-14.9.1-18.3 1.8-1.1 4.1-1.9 7.3-1.4.2 0 .4.1.5.1 8.6 1.8 15.4 16.7 15.4 16.7.7 18.8 13.8 30.8 13.8 30.8-.6 1.4-1.1 2.9-1.6 4.3 0 .1-.1.2-.1.2-9.2 25.8-8.5 42.7-8.5 42.7l-42.3 48.2c-.4.1-.7.2-.9.4-2.2 1.3-5 .4-7.8-.1-1.3-.2-2.7-.4-3.9-.2-1.3.2-3.6-.5-4.9-.2-4.8.9-7.9-2.8-12.8-2.6-.9 1.4.3 3.5 1.8 4.5 1.6 1 3.4 1.3 5.2 1.9s4.1 1.9 5 3.5c1.2 2.2-11.8 5.9-17.2 8.8-1.3.7-2.2 1.3-2.3 1.9 0 .1-.2 0-.3 0 .1 0 .2.2.2.3.4 1 1.8.7 2.8.8 1.2.2 2.1 1.2 3.3 1.4 1 .1 1.9-.3 2.9-.3 1.2.1 2.2 1 3.4 1.3 2.2.6 4.2-.8 6.4-1.2 1-.2 2.1-.1 3.2-.1 5.2-.1 10.2-2.3 13.8-5.7l.1-.1c3-2.9 5.2-4.6 8.2-5.8l.1.1c.3-.1.6-.3.9-.4.2-.1.4-.1.6-.2v-.1c33.7-16.8 52.2-41.4 62.2-60.7l10.8-28.9c.1-.4.1-.6.1-.6l.1-.1 16.5-44.3s2.2-5.1 6.2-11.8c2.7-4.6 5.8-10.7 6.8-15-.6-.7-.7-1-.8-1.2z"/><path fill="#8DC63F" d="M196.8 254.6c-.1-.1-.1-.1 0 0-.1-.1-.1-.1 0 0z"/><path fill="#5AC7DC" d="M581.2 26.1c-.8-1.2-2.1-1.8-3.3-1.5.5-1.1.9-2.3 1.4-3.4.1-.3.2-.6.2-.9 0-.7-.6-1.3-1.2-1.5-.6-.2-1.3 0-1.9.2 0-.5.1-.9.1-1.4-1-1.2-3-.8-3.4.7.4-1.3-.5-3.1-1.8-3.3-1.3-.3-2.6 1-2.5 2.4-.8-1.1-2.5-.5-3 .7s-.1 2.8.3 4.1c-2.8.6-5 2.9-6.6 5.5-1.6 2.6-2.8 5.4-4.6 7.8-4 5.5-10.5 7.9-16.2 11.1-1.8 1-3.6 2.1-5 3.7s-2.4 3.7-2.3 6c.1 2.4 1.2 4.6 2.5 6.6s3 3.7 3.7 6c.3 1.2.7 3.1.9 5.6 0 0 .5 9.7-2.6 22.8-3.6 11.9-11.4 26.3-27.1 41-7.3 6.9-12.9 14.4-17.1 21.9 2.4 14.8 3 48.8 3 48.8-.2-7.3-3.6-37.6-4.6-45.9-.1-.5-.1-.8-.1-1.2l-1.7-11.8C466.7 48.6 427 11.2 381.9 43.8c-3.6 2.6-7.1 4.8-10.6 6.8-.2.2-.9.5-1.6.9-.8.5-1.7.9-2.5 1.3-.7 4-.7 6 1.5 9.3.4.6.8 1.1 1.3 1.3.6.3 1.3.1 2-.1 4.1-1.3 8.6-3.6 12.5-1.6 1.5.7 2.8 2.3 2.6 4.2-.3 2.9-3.5 3.7-6 4.4-8 2.3-13.3 11-16.8 19.5-.1.1-.1.3-.2.4-1.9 4.6-4 10.6-4.6 14.6-1.6 12-3 21.9-4.2 30.1 14.9 2.5 27.5-11.2 27.5-11.2 3.6 9.3 7.3 18 11.1 26.1 8.9 18.7 18.3 34.4 27.8 47.6 10.8 19.6 31.6 50.2 79.4 73.7 0 0 5.8-1.9 8.3-4.7 0 0 35-54 45.8-175.2 0 0 0-7.8 5.2-22.1 3.5-9.7 7-19.4 10.5-29 .9-2.6 1.9-5.2 3.6-7.3 1.7-2 4.2-3.4 6.8-2.8.8-1.2.7-2.8-.1-3.9z"/><path d="M233.3 110.7c-.1-.3-.4-.5-.9-.5-1.1 0-2 .8-2.2 1.9-.1.6.1 1.2.5 1.6.3.4.8.7 1.3.7h.7l-.4-.6c-.2-.3-.3-.7-.2-1.1.1-.4.3-.7.6-.9l.1-.1c.1-.1.2-.1.4-.3.2-.1.3-.4.1-.7zM227.1 114.7c-.7-.7-1.1-1.5-1.3-2.4 0-.2-.1-.4-.1-.6 0-.8.3-1.5.8-2.1.5-.6 1.1-1 1.8-1.3 0-.2-.2-.1-.4-.1-.6.3-1.3.6-1.8 1.1-.5.5-.9 1.1-1 1.9-.1.9.3 1.8.7 2.6.2.4.4.7.6 1.1.1.1.2.2.4.2.3-.1.4-.3.3-.4z"/><g><path fill="#FFF" d="M301.8 121s-.1-3.9 1.7-5.7c-1.4.6-2.5 3.5-2.5 3.5s-.7-.4-1.2 1.6c-.6-.5-1.1 1.7-1.1 1.7s-.6-.1-.8 1.9c-.7-.2-.6 1.8-.6 1.8h-.1s-.9-1.5-2.8-2.3l-1.2-6.5-.1 1.1s-.5-.2-.6 1.3c-.1 1.4.2 2.2.2 2.2s-.5-.2-.5.5c-.2-.2-.4.1-.4.1s-1.2-1.2-2.3-.9c-1.8-1-2.2-.5-2.2-.5s5 2.6 6 4.6c0 2.1.5 2.7.5 2.7s-.9-.7-1.4-.1c-.8-.5-1.2-.1-1.2-.1s-.4-.3-1.1-.1c-1.7-.7-2.3-.2-2.3-.2s-1.8-.8-2.7.1c2.4.1 3.3 1 3.3 1s3.5 2.2 5.8 1.8c.2 1 1 1.5 1 1.5s.5.9.5 1.3c.5-.4 1-1.1 1-1.1s2.9-.8 2.3-4.2c3.1-3.7 2.8-7 2.8-7zm-5.2 10.4c-.2.1-.4 0-.5-.2-.1-.2 0-.4.2-.5.2-.1.4 0 .5.2.1.2 0 .4-.2.5z"/></g></svg>