<?xml version="1.0" encoding="utf-8"?>
<!-- Generator: Adobe Illustrator 18.1.1, SVG Export Plug-In . SVG Version: 6.00 Build 0)  -->
<svg version="1.1" xmlns="http://www.w3.org/2000/svg" xmlns:xlink="http://www.w3.org/1999/xlink" x="0px" y="0px"
	 viewBox="0 0 581.9 272.8" enable-background="new 0 0 581.9 272.8" xml:space="preserve">
<g id="CHECK_PLEASE_PLEASE_PLEASE">
	<g>
		<path fill="none" d="M367.3,52.9c0.8-0.4,1.6-0.9,2.5-1.3C368.6,52.2,367.3,52.8,367.3,52.9C367.3,52.9,367.3,52.9,367.3,52.9z"/>
		<path d="M273.6,110.6c0,0-6.8-14.9-15.4-16.7c-0.2,0-0.4-0.1-0.5-0.1c-3.1-0.4-5.5,0.3-7.3,1.4c-4.1,3.4-0.7,14.7-0.1,18.3
			c0.8,4.4-2.4,4.5-2.4,4.5c-2.8-0.7-3.4,0.5-3.4,0.5l-2.5-3.1c-1.5,1.4-1.8,3.4-1.8,3.4c-1.9-2.3-2.8-1.4-2.8-1.4l-1.6,3.9
			c-2.1-2.5-6.3-3.9-6.3-3.9c-13.8,0.1-11.2-13.5-11.2-13.5s3.6,5.5,15.6-1.1c-0.4-0.2-0.8-0.4-1.2-0.7c-7-4.4,0.2-11.2,3.9-5.8
			c0,0,16.8-3.2,14.5-22.3c-0.2-1.3-0.2-2.7-0.3-4c-1.2-0.3-2.5-0.2-3.6,0.7c-1.1,0.8-1.8,2.1-2.8,3c-3.9,3.6-9.2-0.1-13.8-2
			c-9.1-3.9-20,0.2-27.4,7.8c-2.4,2.5-4.5,5.2-6.3,8.2c11.7,28.2,19.4,51.5,22.2,60.3c25.9-12.2,49.6-21.3,49.6-21.3
			s2.6-1.5,4.7-6.7c2.3,10.9,7.3,18,9,20.3c-15,6.8-34.8,12.9-60.3,15.8c1,2.3,2,4.4,3,6.2c12.9,0.2,25.4,1.2,25.4,1.2
			c12.6-7.4,24.3-13.3,35-17.8c0-0.1,0.1-0.2,0.1-0.2c0.5-1.4,1-2.8,1.6-4.3C287.4,141.4,274.2,129.4,273.6,110.6z"/>
		<g>
			<path fill="#9A2165" d="M234.9,236.8l42.3-48.2c0,0-0.7-17,8.5-42.7c-10.7,4.5-22.3,10.4-35,17.8c0,0-12.5-1.1-25.4-1.2
				c-1-1.8-2-3.9-3-6.2c-0.6-1.4-1.2-2.8-1.8-4.4c0,0-0.4-1.3-1.2-3.7c-2.8-8.7-10.5-32-22.2-60.3c-11.3-27.3-26.3-59.3-44-87.1
				l-13.5-0.7c0,0,0,0.1,0.1,0.5l-7,2.6c0,0-3.6,3.4-6.5,7.9c-1.2,1.9-2.3,4.1-2.9,6.1C114.9,49.7,85,143,76.7,169.2
				c-0.3,0.3-0.6,0.7-0.9,1c-8.3,9.1-28.2,15.1-38.5,20.1c-4.1,1.9-6.5,2.2-11.1,1.8c-5.1-0.4-10-4.2-12.2-9.3
				c-0.5-1.2-0.9-2.5-1.8-3.4c-1.9-1.8-5.1-0.8-6.2,1.5c-1.1,2.3-0.4,5.3,1,7.6c-2.1-0.3-4.9,0.2-5.2,2.5c-0.2,1.3,0.7,2.6,1.8,3.4
				c1.1,0.7,2.4,0.9,3.6,1.2c-0.8,1.2-0.2,3,0.9,3.9c1.1,1,2.5,1.3,3.8,1.6c-0.5,1.2,0.2,2.6,1.2,3.4c1,0.8,2.2,1,3.4,1.2
				c-0.9,1.9,0.8,4.1,2.5,5.5c8.1,6.8,18.7,9.9,28.6,8.4c4.8-0.7,9.4-2.5,14.3-2.5c4.6,0,9.3,1.4,13.7,3.3c16,6.9,16.5,1.2,16.8,0.9
				c4.6-6,4-10.3,3.4-18.3c-0.6-8-1.7-16.4,1-23.6l-0.3-0.2c0.2-0.6,0.4-1.3,0.7-2.1c4.1-12.7,14.1-41,26-52.4
				c12.4-11.8,47.1-35,46-72.6c3.7,24.6-12.8,45.7-28.2,60.8c-2.4,39.7-0.7,126.9,58.2,139.8c5.4-2.9,18.3-6.6,17.2-8.8
				c-0.9-1.6-3.2-2.9-5-3.5s-3.6-0.9-5.2-1.9c-1.6-1-2.7-3.1-1.8-4.5c4.9-0.2,8,3.6,12.8,2.6c1.3-0.3,3.6,0.4,4.9,0.2
				c1.3-0.2,2.6,0,3.9,0.2c2.8,0.5,5.6,1.4,7.8,0.1C234.2,237,234.6,236.9,234.9,236.8z"/>
			<path fill="#9A2165" d="M395.7,167.5c-1.6-3.8-7.5-9.5-1.7-17.6c0,0,0,0,0.1-0.1c-3.8-8.1-7.6-16.8-11.1-26.1
				c0,0-12.6,13.7-27.5,11.2c1.2-8.2,2.6-18.1,4.2-30.1c0.5-4,2.7-10,4.6-14.6c0.1-0.1,0.1-0.3,0.2-0.4c3.5-8.5,8.8-17.2,16.8-19.5
				c2.5-0.7,5.7-1.5,6-4.4c0.2-1.8-1.2-3.4-2.6-4.2c-3.9-2-8.4,0.3-12.5,1.6c-0.7,0.2-1.4,0.4-2,0.1c-0.6-0.2-1-0.8-1.3-1.3
				c-2.1-3.3-2.1-5.3-1.5-9.3c0,0,0,0,0,0c0,0,1.3-0.7,2.5-1.3c0.7-0.4,1.4-0.8,1.6-0.9c0,0,0,0,0,0c1.4-1-0.7-3.7-2.1-4.8
				c-2.6-2-6.6-3.4-8.4-0.5c-0.6,0.9-0.9,2.3-1.8,2.6c-1.2,0.4-2.2-1-3.4-1.2c-1.2-0.2-2.5,0.7-3.2,1.9c-1.5,2.4-4.6,1.3-5.7,1.9
				c-1.1,0.6-0.5,2.7-2.5,3.6c-0.9,0.4-2.9-0.4-3.7,0.1c-1.6,0.9-2.8,5.1-2.7,7c0,0.5,0.1,1,0.1,1.5c0.2,1.4,0.7,2.8,1.2,4.1
				c1.9,5.2,3.7,10.4,5.6,15.6c0.1,0.3,0.2,0.6,0.3,0.8c-1,4.3-4,10.4-6.8,15c-4,6.6-6.2,11.8-6.2,11.8l-16.5,44.3l-0.1,0.1
				c0,0,0,0.2-0.1,0.6L304.7,184c-10,19.3-28.6,43.8-62.2,60.7c0,0,0,0.1,0,0.1c-0.2,0.1-0.4,0.1-0.6,0.2c-0.3,0.1-0.6,0.3-0.9,0.4
				l-0.1-0.1c-3.1,1.2-5.2,2.9-8.2,5.8c0,0,0,0-0.1,0.1c18.2-3.7,49.2-33,65.3-28.2C319.7,229.5,420.7,226.1,395.7,167.5z"/>
		</g>
		<g>
			<path fill="#5AC7DC" d="M282.7,140.5c-1.7-2.2-6.7-9.4-9-20.3c-2.1,5.2-4.7,6.7-4.7,6.7s-23.7,9.1-49.6,21.3
				c0.8,2.4,1.2,3.7,1.2,3.7c0.6,1.5,1.2,3,1.8,4.4C247.9,153.3,267.7,147.2,282.7,140.5z"/>
			<path fill="#5AC7DC" d="M344.9,82.5c-1.9-5.2-3.7-10.4-5.6-15.6c-0.5-1.3-1-2.7-1.2-4.1c-30.4,4.7-50.6-9.6-50.6-9.6
				c-24.2-13-36.6-0.1-36.4,17.2c0,1.3,0.1,2.6,0.3,4c2.3,19.1-14.5,22.3-14.5,22.3c-3.7-5.5-10.9,1.3-3.9,5.8
				c0.4,0.3,0.8,0.5,1.2,0.7c-12,6.5-15.6,1.1-15.6,1.1s-2.7,13.6,11.2,13.5c0,0,4.2,1.4,6.3,3.9l1.6-3.9c0,0,0.8-0.9,2.8,1.4
				c0,0,0.3-2,1.8-3.4l2.5,3.1c0,0,0.6-1.2,3.4-0.5c0,0,3.2-0.1,2.4-4.5c-0.6-3.6-4-14.9,0.1-18.3c1.8-1.1,4.1-1.9,7.3-1.4
				c0.2,0,0.4,0.1,0.5,0.1c8.6,1.8,15.4,16.7,15.4,16.7c0.7,18.8,13.8,30.8,13.8,30.8c-0.6,1.4-1.1,2.9-1.6,4.3
				c0,0.1-0.1,0.2-0.1,0.2c-9.2,25.8-8.5,42.7-8.5,42.7l-42.3,48.2c-0.4,0.1-0.7,0.2-0.9,0.4c-2.2,1.3-5,0.4-7.8-0.1
				c-1.3-0.2-2.7-0.4-3.9-0.2c-1.3,0.2-3.6-0.5-4.9-0.2c-4.8,0.9-7.9-2.8-12.8-2.6c-0.9,1.4,0.3,3.5,1.8,4.5c1.6,1,3.4,1.3,5.2,1.9
				s4.1,1.9,5,3.5c1.2,2.2-11.8,5.9-17.2,8.8c-1.3,0.7-2.2,1.3-2.3,1.9c0,0.1-0.2,0-0.3,0c0.1,0,0.2,0.2,0.2,0.3
				c0.4,1,1.8,0.7,2.8,0.8c1.2,0.2,2.1,1.2,3.3,1.4c1,0.1,1.9-0.3,2.9-0.3c1.2,0.1,2.2,1,3.4,1.3c2.2,0.6,4.2-0.8,6.4-1.2
				c1-0.2,2.1-0.1,3.2-0.1c5.2-0.1,10.2-2.3,13.8-5.7c0,0,0,0,0.1-0.1c3-2.9,5.2-4.6,8.2-5.8l0.1,0.1c0.3-0.1,0.6-0.3,0.9-0.4
				c0.2-0.1,0.4-0.1,0.6-0.2c0,0,0-0.1,0-0.1c33.7-16.8,52.2-41.4,62.2-60.7l10.8-28.9c0.1-0.4,0.1-0.6,0.1-0.6l0.1-0.1l16.5-44.3
				c0,0,2.2-5.1,6.2-11.8c2.7-4.6,5.8-10.7,6.8-15C345.1,83,345,82.7,344.9,82.5z"/>
			<path fill="#8DC63F" d="M196.8,254.6C196.7,254.5,196.7,254.5,196.8,254.6C196.7,254.5,196.7,254.5,196.8,254.6z"/>
			<path fill="#5AC7DC" d="M581.2,26.1c-0.8-1.2-2.1-1.8-3.3-1.5c0.5-1.1,0.9-2.3,1.4-3.4c0.1-0.3,0.2-0.6,0.2-0.9
				c0-0.7-0.6-1.3-1.2-1.5c-0.6-0.2-1.3,0-1.9,0.2c0-0.5,0.1-0.9,0.1-1.4c-1-1.2-3-0.8-3.4,0.7c0.4-1.3-0.5-3.1-1.8-3.3
				c-1.3-0.3-2.6,1-2.5,2.4c-0.8-1.1-2.5-0.5-3,0.7s-0.1,2.8,0.3,4.1c-2.8,0.6-5,2.9-6.6,5.5c-1.6,2.6-2.8,5.4-4.6,7.8
				c-4,5.5-10.5,7.9-16.2,11.1c-1.8,1-3.6,2.1-5,3.7c-1.4,1.6-2.4,3.7-2.3,6c0.1,2.4,1.2,4.6,2.5,6.6c1.3,2,3,3.7,3.7,6
				c0.3,1.2,0.7,3.1,0.9,5.6c0,0,0.5,9.7-2.6,22.8c-3.6,11.9-11.4,26.3-27.1,41c-7.3,6.9-12.9,14.4-17.1,21.9
				c2.4,14.8,3,48.8,3,48.8c-0.2-7.3-3.6-37.6-4.6-45.9c-0.1-0.5-0.1-0.8-0.1-1.2l-1.7-11.8C466.7,48.6,427,11.2,381.9,43.8
				c-3.6,2.6-7.1,4.8-10.6,6.8c-0.2,0.2-0.9,0.5-1.6,0.9c-0.8,0.5-1.7,0.9-2.5,1.3c-0.7,4-0.7,6,1.5,9.3c0.4,0.6,0.8,1.1,1.3,1.3
				c0.6,0.3,1.3,0.1,2-0.1c4.1-1.3,8.6-3.6,12.5-1.6c1.5,0.7,2.8,2.3,2.6,4.2c-0.3,2.9-3.5,3.7-6,4.4c-8,2.3-13.3,11-16.8,19.5
				c-0.1,0.1-0.1,0.3-0.2,0.4c-1.9,4.6-4,10.6-4.6,14.6c-1.6,12-3,21.9-4.2,30.1c14.9,2.5,27.5-11.2,27.5-11.2
				c3.6,9.3,7.3,18,11.1,26.1c8.9,18.7,18.3,34.4,27.8,47.6c10.8,19.6,31.6,50.2,79.4,73.7l0,0l0,0c0,0,5.8-1.9,8.3-4.7
				c0,0,35-54,45.8-175.2c0,0,0-7.8,5.2-22.1c3.5-9.7,7-19.4,10.5-29c0.9-2.6,1.9-5.2,3.6-7.3c1.7-2,4.2-3.4,6.8-2.8
				C582.1,28.8,582,27.2,581.2,26.1z"/>
		</g>
	</g>
	<path d="M233.3,110.7c-0.1-0.3-0.4-0.5-0.9-0.5c0,0,0,0,0,0c-1.1,0-2,0.8-2.2,1.9c-0.1,0.6,0.1,1.2,0.5,1.6
		c0.3,0.4,0.8,0.7,1.3,0.7l0.7,0l-0.4-0.6c-0.2-0.3-0.3-0.7-0.2-1.1c0.1-0.4,0.3-0.7,0.6-0.9l0.1-0.1c0.1-0.1,0.2-0.1,0.4-0.3
		C233.4,111.3,233.5,111,233.3,110.7z"/>
	<path d="M227.1,114.7c-0.7-0.7-1.1-1.5-1.3-2.4c0-0.2-0.1-0.4-0.1-0.6c0-0.8,0.3-1.5,0.8-2.1c0.5-0.6,1.1-1,1.8-1.3
		c0-0.2-0.2-0.1-0.4-0.1c-0.6,0.3-1.3,0.6-1.8,1.1c-0.5,0.5-0.9,1.1-1,1.9c-0.1,0.9,0.3,1.8,0.7,2.6c0.2,0.4,0.4,0.7,0.6,1.1
		c0.1,0.1,0.2,0.2,0.4,0.2C227.1,115,227.2,114.8,227.1,114.7z"/>
	<g>
		<g>
			<path fill="#FFFFFF" d="M301.8,121c0,0-0.1-3.9,1.7-5.7c-1.4,0.6-2.5,3.5-2.5,3.5s-0.7-0.4-1.2,1.6c-0.6-0.5-1.1,1.7-1.1,1.7
				s-0.6-0.1-0.8,1.9c-0.7-0.2-0.6,1.8-0.6,1.8l-0.1,0c0,0-0.9-1.5-2.8-2.3l-1.2-6.5l-0.1,1.1c0,0-0.5-0.2-0.6,1.3
				c-0.1,1.4,0.2,2.2,0.2,2.2s-0.5-0.2-0.5,0.5c-0.2-0.2-0.4,0.1-0.4,0.1s-1.2-1.2-2.3-0.9c-1.8-1-2.2-0.5-2.2-0.5s5,2.6,6,4.6
				c0,2.1,0.5,2.7,0.5,2.7s-0.9-0.7-1.4-0.1c-0.8-0.5-1.2-0.1-1.2-0.1s-0.4-0.3-1.1-0.1c-1.7-0.7-2.3-0.2-2.3-0.2s-1.8-0.8-2.7,0.1
				c2.4,0.1,3.3,1,3.3,1s3.5,2.2,5.8,1.8c0.2,1,1,1.5,1,1.5s0.5,0.9,0.5,1.3c0.5-0.4,1-1.1,1-1.1s2.9-0.8,2.3-4.2
				C302.1,124.3,301.8,121,301.8,121z M296.6,131.4c-0.2,0.1-0.4,0-0.5-0.2c-0.1-0.2,0-0.4,0.2-0.5c0.2-0.1,0.4,0,0.5,0.2
				C296.9,131.1,296.8,131.3,296.6,131.4z"/>
		</g>
	</g>
</g>
</svg>
