<?xml version="1.0" encoding="utf-8"?>
<!-- Generator: Adobe Illustrator 18.1.1, SVG Export Plug-In . SVG Version: 6.00 Build 0)  -->
<svg version="1.1" xmlns="http://www.w3.org/2000/svg" xmlns:xlink="http://www.w3.org/1999/xlink" x="0px" y="0px"
	 viewBox="0 0 446.9 448" enable-background="new 0 0 446.9 448" xml:space="preserve">

<g id="CLOSER_EXAMINATION">
	<g>
		<path fill="none" d="M146.4,289.7c16.1,33.9,9,56-1.3,71.3c-6.3,9.4-7.8,28.3-8.1,41.5c12.5-6.3,27.8-8.3,47.9,7.2
			c0,0-3.8-41.2-9.2-56.7c0,0-9.3-22.5-12.1-47.5c-2.8-4.4-5-8.8-6.7-13C150.6,290.8,146.4,289.7,146.4,289.7z"/>
		<path d="M307.5,103.9c0,0,0.1,0,0.1,0c-0.2-0.4-0.4-0.8-0.6-1.3C307.2,103.1,307.4,103.5,307.5,103.9z"/>
		<path d="M352.7,90.3c-2.9-9.8-9.8-44.9-43-46.7c-15.3-1.3-28.7,6.6-26.9,23.4c2-0.6,2,12.8,1.8,24.2c-0.8,3-2.2,5.9-4,8.5
			c-7.1,10.1-24.6,10.5-13.5,28.8c63.6-5.9,11,96.9,27.8,113.4c0.4,0.4,0.4,1.1,0.5,1.6c0.1,0.2,0.2,0.4,0.3,0.6c0.1,0,0.1,0,0.2,0
			c7.4-0.2,14.4-5.4,17.6-11.9c0.8-1.5,1-3.4,1.1-5.4c0.2-6.8-2.5-15.3,2.1-18.7c2.5-1.9,6.1-1,9-1.5c4.4-0.8,8.5-3.3,11.3-6.8
			c3.5-4.4,3.8-10.4,2.5-15.6c-1.1-4.8-5.5-12.1-2-16.9c2.4-3.2,6-2.6,7.6-7.3c2.2-6.4,0.1-12.6-1.5-18.7
			c-1.1-4.3-3.3-12.6-0.6-16.6c1.9-2.8,5.4-3.7,7.6-6.5C356.1,111.4,355.1,98.3,352.7,90.3z"/>
		<path fill="#84BFCC" d="M225.8,3.6c-0.2,0.1-0.5,0.2-0.7,0.3c0.3,0,0.6,0,0.9,0.1C226,3.8,225.9,3.7,225.8,3.6z"/>
		<g>
			<path fill="#10A7B5" d="M179.5,188.5c-0.1,0-0.2,0-0.4,0c-2.7-1-4.9-2.4-6.4-3.6c4.6,14.6,5,35.4-4.3,44.5
				c-3.8,3.7-8.3,9.7-11.6,17.5c9.4-0.8,18.8-1.4,27.8-1.8c19.2-0.8,36.9-0.7,50.1-0.4c0.7-1.9,1.3-3.5,1.8-4.8
				c0.1-0.4,0.3-0.7,0.4-1c3-7,4.2-16.1,4.9-24C230.5,214,210.3,208.9,179.5,188.5L179.5,188.5z"/>
			<path fill="#10A7B5" d="M111.8,420.7c0,0,3.1-1.6,4.7-4.4c-0.8,0.6-1.6,1.1-2.4,1.6c-7.8,4.9-21.3,8-32.8,9.8
				c-0.2-0.3-0.3-0.6-0.6-0.9l-2.5-3.5c-2.8-4-8.4-5-12.4-2.1l-7.8,5.6c-0.9,0.6-1.5,1.3-2,1.9c-9.1-1.1-18.5-2.2-20.2-2.2
				c-19.6,0.6-26.7,14.7-26.7,14.7c-8.4-0.6-9.1,6.9-9.1,6.9h76.1c-3.4-0.3-6.9-1.6-7.6-5.5c0,0-0.2-1.7,3.1-1.7h5
				c0,0,2.3-0.7,2.9-1.4c0.6-0.7,2.5-1,7.5-2.7S103.5,426.4,111.8,420.7z"/>
			<path fill="#10A7B5" d="M162.8,294.1c-2.1-0.6-4.1-1.1-5.9-1.6c1.7,4.2,3.9,8.5,6.7,13c2.8,25.1,12.1,47.5,12.1,47.5
				c5.4,15.5,9.2,56.7,9.2,56.7c-20.1-15.5-35.4-13.5-47.9-7.2c-0.1,6,0.1,10.9,0.2,13.1l0.1,0c0,0,0.2,9.2,1.6,14.7
				c1.4,5.8,3.4,13.3,2.2,17.4H82.6c0,0-1.2,0.3-2.9,0.4l156.8-0.1h0l1-134.3c-17-2.4-30.5-6.6-30.5-6.6
				C196.8,303.6,177,298,162.8,294.1z"/>
		</g>
		<path fill="#10A7B5" d="M323.4,136.4c-0.6-2-0.1-4.4-0.2-6.5c-0.1-2-0.3-3.3-1-5.1c-0.7-1.7-1.2-3.5-1.7-5.3
			c-0.5-1.5-1.5-2.6-2.2-4c-0.6-1.1-0.8-2.6-1.2-3.7c-0.2,0.1-0.3,0.1-0.5,0.2c-1.5,0.5-3.1,1.2-3.2,2.8c-0.1,2.2,0.7,3.3,1.6,5.3
			c0.6,1.5,0.8,3.3,1.3,4.9c0.9,2.9,0.5,4.8,0.2,7.7c-0.1,1.2-0.2,2.4-0.4,3.6c-0.2,1.1-0.5,1.5-1.4,2.4c-1.1,1.2-1.4,1.7-2.9,1.3
			c-2.9-0.8-1.3-3.5-1.1-5.7c0.1-1.2-0.1-2.8-0.6-3.8c-0.4-0.9-1-2.3-1.7-3c-1-0.9-3.9-1.4-4.7,0.1c-0.3,0.5,0,1.5,0.1,2.1
			c0.1,1.3,0.3,2.7,0.4,4c0.3,2.8-0.4,5.2-1.2,7.8c-0.7,2.6-1.3,5.3-1,8c0.1,1.1,0.2,2.1,0.5,3.2c0.3,0.8,0.7,1.6,0.6,2.6
			c0,0.2,0,0.4-0.1,0.6c-1.7,1-4.5,2.3-7.7,3.7c-10,4.2-24.4,8.9-24.4,8.9c-22.6-2.1-35.3,0.6-35.3,0.6c-2.1-0.5-4.2-6.3-4.2-6.3
			c3.7-29.9-23.6-46.7-23.6-46.7c8-19.9-3.1-36.1-8.7-42.2c3.6,2.5,20.5,20.1,11.1,42.4c0,0,27.3,16.1,23.6,44.7c0,0,2.1,5.5,4.2,6
			c0,0,2.7-0.5,7.9-0.8c-2.3-8.7-2.3-20.8,3.5-27.2c1.3-8.3-1-14.7-1-15.9c0-0.3,0.5-1.4,0.9-3.1c0,0,0,0,0,0c0.5-2.7-0.4-4-2.2-5.8
			c-1.2-1.2-5.3-3.4-3.2-5.4c1.2,0.5,2.6,1,3.8,1.6c-0.5-0.6-1-1.1-1.6-1.8c-1.6-1.5-6.8-4.1-4-6.5c1.5,0.6,3.3,1.1,4.7,1.9
			c-1.3-1.4-5.5-3.8-3.3-6c0.6,0.3,1.2,0.5,1.8,0.8c-0.4-0.9-0.9-1.8-1.5-2.7c-4.4-7.8-11.9-17.3-24.2-28.7c3.8-7.2,8.1-5.5,8.1-5.5
			s2.7,4.7,5.8,5.2c3.1,0.6,4.8-2.9,4.8-2.9c0-0.6,0.3-2.2,0.3-2.2c3.1-0.5,1.5-4.7,1.5-4.7l2.8,1.1l1.7-5l6.4,4.1
			c4.2-7,6.5-13.1,7.6-18.4c0.8-4,0.9-7.5,0.6-10.5c-0.6-0.1-1.1-0.2-1.6-0.4c-2.3-1.1-3.3-3.3-4.8-5.2c-1.5-1.9-3.6-2.8-5.7-4
			c-0.4,1.3-0.4,2.8,0.2,3.9c-1.5-0.3-2.8-0.7-4-1.6c-1.2,3.6-1.9,5.9-4.7,8.6c-2.1,2.1-4.8,4.3-5.8,7.2c-0.4-1.7-0.8-3.5-0.6-5.3
			c0.1-1.8,1-3.2,0.4-5.1c-0.9-2.9-3.2-4-5.8-2.1c-2.7,1.9-1.9,5.3-4.2,7c-3.3,2.6-15.2,3.6-16.9-0.8c-4.1,4.6-9.8,9.4-15.1,13.4
			c-7.5,4.2-25.4,14.4-31.1,19.1c-7.3,6-16.3,24.5-16.3,56.1c0,17.5,5.8,29,12.3,38.2c1.9,0.6,3.5,3.4,4.7,4.8
			c1.6,1.8,4.6,2.8,6.8,3.8c2,0.9,5.5,3.1,7.8,2.4c1.6-0.5,0.3-3.1-0.2-4.4c-0.6-1.6-1.8-2.3-1.8-4.3c0-0.5,0.1-1.5,0.7-1.8
			c0.1,0,0.2-0.1,0.2-0.1c2.5,5,5.1,9.5,7.8,13.6c0,0.1,0,0.1,0,0.2c0.1,1.2,0.7,2.3,1.1,3.4c0.6,1.6,0.3,2.9,0.1,4.2
			c0.8,0.5,3.4,2.1,7.3,3.2c18.6,20.9,37.8,24.2,37.8,24.2c5.2-0.8,10.2-1.8,14.9-3c39.6-9.7,61.9-30.7,68.2-37.4
			c0.1-0.1,0.2-0.1,0.3-0.2c2.8-1.6,3.9-4.8,5.3-7.5c0.2-0.4,0.4-0.9,0.6-1.3c1.2-2.8,2.2-5.8,3.9-8.2c1.6-2.2,3.7-5.4,4-8.2
			C325,139.4,323.8,137.9,323.4,136.4z"/>
		<path fill="#10A7B5" d="M443.4,439.7h-5.7c0,0-2.6-0.8-3.3-1.6s-2.8-1.2-8.5-3.2c-5.7-2-18.5-12.2-27.9-18.8c0,0-5.8-3-6.2-8.2
			l-0.2,0c0.8-31.7,3.9-154.1,3.9-154.1l1.8-16.5l-13.4-3.4c-22.5-4.3-47.2-6.3-69.4-7.1c0,2-0.3,3.8-1.1,5.4
			c-3.2,6.5-10.2,11.7-17.6,11.9c-0.1,0-0.1,0-0.2,0c9.7,21.5,11.7,36.9,8.7,47.7c18.5-6.2,49.7-7.8,49.7-7.8
			c-16.4,36.8-5,57.9,5.6,74.6c7.5,11.9,9.4,37.6,9.8,51.5c0,0.5,0,1.4,0.1,2.1c0.2,1.7,0.4,4.3,0.2,7.1c-0.2,2.9-0.8,5.9-2.3,8
			c-0.9,1.3-1.6,2.8-2.1,4.4c-1.7,5.5-1.5,12.2-0.4,15.9h36.5H431c0,0,14.5,3.2,15.9-6C446.9,441.7,447.1,439.7,443.4,439.7z"/>
		<g>
			<path fill="#FBD206" d="M365,447.7c-1.1-3.7-1.3-10.4,0.4-15.9c-8-1-15.5-2.9-20.3-6.4c-14.9-11-44-23-72-7.7
				c0,0,12.1-48.5,18-65.7c0,0,7.8-25.2,8.3-50.2c2.2-2.8,4-6.1,5.1-10c3-10.8,1-26.1-8.7-47.7c-0.1-0.2-0.2-0.4-0.3-0.6
				c-0.2-0.5-0.4-1.1-0.5-1.6c-2.9-8.6-4.2-37.6,13.6-64.7c4.1-6.2,6.7-13,8.4-19.7c-0.2,0.4-0.4,0.9-0.6,1.3
				c-1.3,2.8-2.5,5.9-5.3,7.5c-0.1,0.1-0.2,0.1-0.3,0.2c-6.3,6.7-28.6,27.7-68.2,37.4c-4.7,1.2-9.7,2.2-14.9,3
				c0,0-19.2-3.3-37.8-24.2c-3.8-1.1-6.5-2.7-7.3-3.2c0.2-1.4,0.5-2.6-0.1-4.2c-0.4-1.1-1-2.3-1.1-3.4c0-0.1,0-0.1,0-0.2
				c-2.7-4.1-5.3-8.6-7.8-13.6c-0.1,0-0.1,0-0.2,0.1c-0.5,0.3-0.6,1.3-0.7,1.8c-0.1,1.9,1.2,2.7,1.8,4.3c0.5,1.3,1.8,3.9,0.2,4.4
				c-2.3,0.7-5.8-1.5-7.8-2.4c-2.2-1-5.2-2-6.8-3.8c-1.2-1.4-2.8-4.1-4.7-4.8c-0.5-0.2-0.9-0.2-1.4,0c0,1.4,1.7,3.4,2.4,4.7
				c0.7,1.4,1.6,3.4,2.8,4.4c0.8,0.6,1.7,0.8,2.4,1.7c0.7,0.9,1.2,2,1.9,2.9c0.6,0.9,1.2,1.8,1.8,2.7c0.6,1,0.7,1.7,1.2,2.7
				c1.1,2.2,3.2,4.8,4.8,6.7c0.4,0.4,1,1,1.7,1.6c1.5,1.2,3.7,2.6,6.4,3.6c0.1,0,0.2,0,0.4,0l0,0c30.7,20.4,51,25.6,62.3,26.4
				c-0.7,7.9-1.9,17-4.9,24c-0.1,0.3-0.3,0.6-0.4,1c-0.5,1.3-1.1,2.9-1.8,4.8c-13.2-0.3-30.9-0.4-50.1,0.4c-9,0.4-18.4,1-27.8,1.8
				c-11.6,1-23.2,2.5-34.3,4.5c-14.8,0-11.4,18.2-11.4,18.2s5.3,119.7,6.3,144.2l0,0c-0.1,1-0.4,1.9-0.8,2.6
				c-1.5,2.8-4.7,4.4-4.7,4.4c-8.3,5.7-19.7,14.4-24.7,16.1s-6.9,2-7.5,2.7c-0.6,0.7-2.9,1.4-2.9,1.4h-5c-3.3,0-3.1,1.7-3.1,1.7
				c0.6,4,4.2,5.2,7.6,5.5c1.3,0.1,2.5,0.1,3.6,0c1.7-0.1,2.9,0,2.9,0l58.5,0.1c1.3-4.1-0.8-12.1-2.2-17.9
				c-1.3-5.5-1.6-14.7-1.6-14.7l-0.1,0c-0.1-2.3-0.3-7.1-0.2-13.1c0.2-13.2,1.7-32.1,8.1-41.5c10.4-15.4,17.4-37.5,1.3-71.3
				c0,0,4.2,1.1,10.5,2.8c1.8,0.5,3.8,1,5.9,1.6c14.2,3.9,34,9.4,44.3,13c0,0,13.5,4.2,30.5,6.6l-1,134.3
				C263.9,448,361.9,447.7,365,447.7"/>
			<path fill="#FBD206" d="M271.7,166.9c0,0,13.9-3.7,23.5-7.3c3.2-1.4,6-2.6,7.7-3.7c0-0.2,0.1-0.5,0.1-0.6
				c0.1-0.9-0.3-1.7-0.6-2.6c-0.3-1-0.4-2.1-0.5-3.2c-0.2-2.7,0.3-5.4,1-8c0.8-2.7,1.5-5,1.2-7.8c-0.2-1.3-0.3-2.7-0.4-4
				c-0.1-0.6-0.3-1.6-0.1-2.1c0.8-1.5,3.7-1,4.7-0.1c0.7,0.7,1.3,2.1,1.7,3c0.5,1,0.7,2.6,0.6,3.8c-0.2,2.3-1.8,5,1.1,5.7
				c1.5,0.4,1.8-0.1,2.9-1.3c0.8-0.9,1.2-1.3,1.4-2.4c0.2-1.2,0.3-2.4,0.4-3.6c0.3-2.9,0.8-4.8-0.2-7.7c-0.5-1.6-0.7-3.5-1.3-4.9
				c-0.8-2-1.7-3.1-1.6-5.3c0.1-1.6,1.7-2.3,3.2-2.8c-0.7-1.6-2.2-4.2-5.1-6.2c-1.1-0.8-2.3-1.4-3.8-1.9c0,0-0.1,0-0.1,0
				c-0.2-0.4-0.4-0.8-0.5-1.2c-0.7-1.5-1.2-3-1.6-4.5c-1-3.5-1.4-7.2-1.1-10.8c0-0.5,0.1-1.3,0.4-2.6c2.5,0.2,6.2,0.2,8-1.9
				c1.1-1.3,1.3-4.2-0.3-5.3c-2.3-1.5-4,1.3-6.2,1c3.3-3.3,4.2-8.8,2.3-13.1c-2-4.5-5.2-7.4-4.9-12.8c0-0.3,0.1-0.7,0.1-1
				c-2.1,0.7-4,2-5.6,3.5c-2.1,2.1-3.9,4.5-6.1,6.5c-2.6,2.4-5.8,4.2-9.2,5.3c-1.4,0.4-2.9,0.8-4.4,0.9c1.3,1.1,2.8,2.1,4.3,2.9
				c-0.3,0.8-1.9,2.5-3,2.6c0,0.8,1.4,1.7,2.3,2.1c-0.6,0.2-2.5,0.1-3.1,0.3c0.5,1.3,0.5,3.5-0.1,4.7c-0.2,0.5-0.6,0.9-1,1.2
				c-1,1-2.6,2-1.1,3.3c1.2,1,2.5,1.8,3.8,2.6c1.9,1.2,2.9,2.1,4.3,3.2c0.6,0.5,1.2,1,2,1.6c4.4,3.2,4.5,8.5,2.9,13.9
				c-1.3,1.5-11.8,13.9-22.6,22.2c-4.1,3.1-8.2,5.7-11.8,6.8c-2.4,0.7-4.4,2-5.9,3.7c-5.8,6.4-5.8,18.5-3.5,27.2
				C251.5,165.9,260.1,165.8,271.7,166.9z"/>
		</g>
		<path fill="#FBD206" d="M250.8,113.9L250.8,113.9c1.4-1.7,2.3-3.8,0.2-5.5c1-1.5,1.4-3.3-0.3-4.7l-1.4-1.8
			c0.2-0.8,0.1-1.5-0.7-2.2l-1.8-2.3c-0.9-0.7-2.1-1-3.1-1.5c0,0-0.1,0.1-0.1,0.1c0.5,0.9,1,1.8,1.5,2.7c-0.6-0.2-1.2-0.5-1.8-0.8
			c-2.2,2.2,1.9,4.7,3.3,6c-1.5-0.8-3.2-1.2-4.7-1.9c-2.8,2.4,2.5,5.1,4,6.5c0.7,0.6,1.2,1.2,1.6,1.8c-1.2-0.7-2.6-1.1-3.8-1.6
			c-2.2,2,1.9,4.2,3.2,5.4c1.8,1.8,2.7,3.2,2.2,5.8c0,0,0,0,0,0C251,118.6,253.3,115.8,250.8,113.9z"/>
		<path d="M222.5,31.6c2.3-1.8,1.5-5.1,4.2-7c2.6-1.9,4.9-0.8,5.8,2.1c0.6,1.9-0.2,3.3-0.4,5.1c-0.1,1.8,0.2,3.6,0.6,5.3
			c0.9-2.9,3.7-5.1,5.8-7.2c2.7-2.7,3.5-5,4.7-8.6c1.3,0.9,2.5,1.3,4,1.6c-0.7-1.2-0.6-2.7-0.2-3.9c2,1.2,4.1,2.2,5.7,4
			c1.5,1.8,2.6,4.1,4.8,5.2c0.5,0.2,1,0.4,1.6,0.4c3.3,0.4,7.6-1.5,4.6-5.3c1.4-1.3,1.7-3.8,1.1-5.5c-0.5,1-1.4,1.8-2.5,1.9
			c0.3-1.6,0.3-3.8-0.9-4.9c-0.3,0.8-1,1.3-1.9,1.4c0.3-0.8,0.2-1.5,0.2-2.4c-2.7,0.9-5.2-1.5-6.8-3.5c-2.5-3-5-4.3-8.6-6.2
			c0.8-0.2,1.7-0.5,2.5-0.6c-2.9-3-12.4-3.1-16.3-2c0.3-0.5,0.2-1.1,0.6-1.6c-1.8-0.2-1.5,1.4-2.5,1.7c-1.4,0.5-2.7-0.8-4.2,0.2
			c0.6,0.4,1.1,1,1.4,1.6c0.1,0.1,0.1,0.2,0.2,0.4c-0.3,0-0.6-0.1-0.9-0.1c-5.6,0-9.1,8.4-11.1,12.4c-1.7,3.3-3.2,6.6-5.9,9.1
			c-1.2,1.1-2.4,4-2.6,5.2c0,0.1,0,0.1,0.1,0.1C207.3,35.2,219.2,34.2,222.5,31.6z"/>
	</g>
	<path d="M251.4,42.9c0.5,0.6,1,1.2,1.7,1.4c-0.2-1.8-1.8-3.7-3.6-5.2c-1.3-1.1-3.1-2.2-4.4-1.9c-0.7,0.1-1.2,0.7-0.9,1.4
		C246.8,39.1,249.6,40.7,251.4,42.9z"/>
	<path d="M248.5,44.2c-1.1-0.7-2.8-1-3.3-0.5c1.3,0.2,1.6,2.9,3.2,2.1c0.1-0.1,0.1,0.3,0.2,0.5s0.3,0.3,0.6,0.4
		c0.3,0.1,0.5,0,0.6-0.2C250.2,46,249.7,45,248.5,44.2z"/>
	<path d="M295.4,62.9c1,0.1,2.1,0.5,2.8,1.2c0.2,0.2,0.4,0.4,0.6,0.7c0.7,1,1.1,2.3,1.1,3.5c0,0.2,0.3,0.3,0.5,0.1
		c0.1-0.1,0.2-0.4,0.1-0.6c0-0.5-0.2-1.1-0.4-1.6c-0.4-1.2-0.9-2.4-1.9-3.2c-0.8-0.6-1.8-0.8-2.7-0.8s-1.9,0.3-2.8,0.6
		c-0.2,0.1-0.4,0.3-0.3,0.4C293.3,62.9,294.3,62.8,295.4,62.9z"/>
	<path d="M293.2,68.4c0.2,0.1,0.7-0.2,0.7,0c-0.3,2.2,3,1.5,3.9,2.9c0.5-0.8-0.6-2.7-1.9-3.7c-1.4-1.1-2.8-1.2-3.3-0.5
		c-0.1,0.2-0.2,0.4,0,0.8C292.6,68.2,292.9,68.3,293.2,68.4z"/>
</g>
</svg>
