<svg xmlns="http://www.w3.org/2000/svg" viewBox="212.9 0.5 430.5 612"><path fill="#3D5BA9" d="M643.2 458.7V451s-46.8-36.3-143.1 34.9c-4.5-37.1-26.1-117.6-118.7-223 0 0 33.1-44.2-75.9-153.9l-4-8.8-8.2-23.2c-.9-42.5-9.1-49.3-9.1-49.3 1.7-10.8-5.4-11.6-5.4-11.6-1.4-7.4-6.2-6-6.2-6s-1.1-3.4-3.4-4c-2.5-.8-3.7 1.7-3.7 1.7 0-5.1-4-4.8-4-4.8-3.1-.3-3.4 2.8-3.4 2.8-.9-2.5-4-2.5-4-2.5-1.1.3-1.7.6-2.6 1.1 2.8 3.7 3.7 8.5 3.7 8.5s11.3 10.2 9.4 22.1 3.7 18.1 3.7 18.1c9.4 18.1 9.4 29.2 9.4 29.2 4.2 6 5.1 10.5 4.8 13.6l-1.4-1.4-.6.6c0-3.1-.9-7.4-4.8-12.8 0 0 0-11-9.6-29.2 0 0-5.7-6.5-3.7-18.1s-9.3-22-9.3-22-.9-4-2.8-7.4c-.3-.3-.3-.6-.6-.8-.3-.3-.3-.6-.6-.6-.3-.6-.9-.8-1.4-1.4-.3-.3-.6-.3-.8-.6-.3 0-.6-.3-.9-.3-.3 0-.6-.3-.8-.3h-.3c-.3 0-.6-.3-.8-.3-1.4-.3-2.8 0-4.5.6 0 0-1.7 1.4-2 3.1v1.1s-.3-.6-1.1-.8c-.8-.3-2-.6-3.1.8 0 0-3.1 2.3-.3 5.9v.3h-.3c-.8-.3-2.3-.6-3.4.9-1.4 2-.6 5.4-.6 5.4s-4.8 1.4-1.4 8.5c0 0-5.1 5.1 2.8 12.5 0 0-2.8 10.5 21.8 45l7.1 23.5 2.3 9.3c-22.9 153 30 168.9 30 168.9-6.2 72-1.4 125.5 7.4 164.3 7.4 3.7 15 8.2 23.2 13.9-7.1-4.2-19.3-9.6-22.7-11-57.8-23.8-86.1-1.7-86.1-1.7v7.6c-4.2 92.4 65.4 72 88.1 66.9 7.4-1.7 17.3-1.1 26.9.3-9.4-1.1-18.7-1.1-25.8.8-13 3.7-41.9 13-63.5 2 5.1 17 22.4 61.5 61.5 58.4 0 0 28 24.9 124.7 24.9 96 0 119.6-24.9 119.6-24.9s61.2-4.5 70.3-60.4c16.6-7.5 30.2-26.2 28.2-68.7zM399.3 464L289.6 132.3l-3.1-9.1 1.7-1.7L401 462.3l-1.7 1.7z"/><path fill="#8DC4D2" d="M289.1 528.4z"/><path fill="#FFF" d="M237.5 5.6V4.5c-.3 0-.8 0-1.1.3.5.2 1.1.8 1.1.8zM232.7 11.6c0 .2.3.2 0 0 .3 0 0 0 0 0z"/><path fill="#F19221" d="M277.2 346.2l-6-3.7c-72.8-37.4-31.2-92.6-18.7-111.3s17.6-67.2 17.6-67.2-.9-5.7-2.8-9.9-15-11.6-12.8-16.7c0 0 .9-12.2-.3-15.6l-3.1-5.1s-.9-2.8 3.1-2.8c0 0 6.5 1.4 7.1 11.1l-.3 5.9c4.5 0 4.5-2.8 4.5-2.8s2.3-6.2 2.8-9.4c0 0 4.2-17.3 9.9-22.7 0 0 1.4-2.3 3.7-1.7 0 0 3.7 1.4.3 5.7 0 0-3.7 7.7-4 9.6-.3 1.7-1.1 9.3-1.1 9.3s-.6 1.4.9 1.7c0 0 1.1 1.1 2.5-3.1 0 0 5.4-12.8 10.2-9.6 0 0 4.5 2 2 7.1 0 0 6.5-.8 4.8 6.5 0 0 4.5.3 4.2 5.7 0 0 .6 2-3.4 10.2 0 0 1.4 9.6-2 15.9 0 0-2.3 6.8-2.3 8.8 0 2 .6 7.1.6 7.1 32.4 147.5-17.4 177-17.4 177z"/><path fill="#FFF" d="M427.9 554.4c.3 0 .3 0 0 0 .3 0 .3 0 0 0zM555.1 525.5c-11-2.8-25.5-.9-38.2 2-.6 0-1.4.3-2 .3-.3 0-.6 0-.8.3-.3 0-.9.3-1.1.3-.3 0-.6 0-.9.3-.3 0-.9.3-1.1.3-.3 0-.6 0-.9.3-.3 0-.9.3-1.1.3-.3 0-.6 0-.9.3-.3 0-.9.3-1.1.3s-.6 0-.9.3c-.3 0-.9.3-1.1.3-.3 0-.3 0-.6.3-.6 0-1.1.3-1.4.3h-.3c-.6.3-1.1.3-1.4.6-.3 0-.3 0-.6.3-.3 0-.9.3-1.1.3s-.3 0-.6.3c-.3 0-.6.3-.9.3s-.3 0-.6.3c-.3 0-.6.3-.9.3s-.3 0-.6.3c-.3 0-.6.3-.9.3-.3 0-.3 0-.6.3-.3 0-.6.3-.9.3h-.3c-.3 0-.9.3-1.1.3-1.1.6-4 1.7-5.1 2.3-1.1.3-2.3.8-3.1 1.1-.3.3-.6.3-1.1.6-3.1 1.7-6 3.7-7.9 4.8l-.3.3c-.9.8-4 3.4-5.4 2.8 1.4-4-1.4-7.9-5.7-7.1-1.7.3-3.4 1.7-4.8 2.3-1.7.6-3.7.8-5.7 1.1-4.5.6-9.4 2-13.6 3.7-3.7 1.4-7.4 2.8-11.1 2.8-4 0-8.5-1.7-12.5-2.8s-8.2-1.7-12.2-2.5c-3.7-.8-6-2.5-6-2.8-2.3-2-1.1-6.5 1.7-7.7 3.7-1.4 8.5.3 11.9 1.1 3.4 1.1 6.8 1.7 10.2 2.5 4.2 1.1 8.5 2.8 13 3.1 4.2.3 8.5 0 12.8-.3 4.8-.3 20.7-.3 15.6-9.4-.9-1.1-1.7-2-2.8-2.3-3.1-1.1-7.9-.3-11.6.9-2 .6-3.7 1.1-5.1 1.4-7.4 1.4-14.4.3-21.5-1.1-1.1-.3-2.3-.3-3.1-.9-2.5-.6-4.8-1.4-7.1-2.3-6-2.5-7.1-3.1-7.1-3.4-1.1-.9.3-4.5.9-5.1 1.4-1.4 3.7-1.4 5.4-1.1 3.7.3 7.4 2.3 11.1 3.1 3.7.8 7.6 1.7 11.3 2 4.8.3 9.9-.3 14.5.6-.9-.9-2.3-1.1-2.8-1.7-.9-.9 0-.3 0-1.4s.3-2.5 0-3.7c-1.4-3.7-7.4-4.5-10.8-4.2-2.3 0-9.4 1.7-9.6-1.1-.3-1.4 1.7-3.1 2.8-3.7 1.7-.9 4-.9 6-.3 2.5.3 5.1 1.7 7.6 2.3 2.3.6 4.8.9 7.1 1.4 5.1.9 10.5.6 15.3-.3.9 0 1.4-.3 2.3-.3 1.7-.3 3.7-.9 5.1-1.4 1.4-.6 2.6-1.4 3.7-2.3 5.4-4.5 10.8-9.1 15.9-13-2.8 2-6.8 4.5-11.1 7.6-1.7 1.4-3.4 2.3-4 2.5-.9.3-1.4.9-2 1.4-1.1.9-2.3 1.7-3.4 2.3-1.4.6-2.8.9-4.2 1.1-.9.3-1.7.3-2.8.6-3.1.6-5.9.9-8.8.9-2.3 0-4.2-.3-5.9-.6-.9 0-1.7-.3-2.6-.3-1.4-.3-3.1-.6-4.5-.9-1.1-.3-2-.6-3.1-1.1-1.4-.6-2.8-1.1-4.5-1.4-1.1-.3-2.3-.3-3.1-.3-1.4 0-2.8.3-4 .9-1.1.6-4.2 2.8-3.7 5.7 0 .3 0 .6.3.9h-1.4c-1.4 0-2.5.3-4 .3-1.7.3-3.4.3-4.8.3-1.1 0-2.3 0-3.1-.3-2.6-.6-5.1-1.7-7.9-2.5h-.3c-.9-.3-1.4-.6-2.3-.9-4.2-1.7-8.8-3.4-13-5.1-.3 0-.9-.3-1.1-.3-2.3-.6-4.5-.9-6.8-.9-.3 0-1.4-.9-2-1.1-.9-.6-1.7-1.4-2.3-1.4-.3-.3-1.1-1.1-2.3-2-5.4-5.1-19.3-17.9-40.8-27.5 14.2 8.5 29.5 19.5 45.9 33.7 2.8 0 5.4 0 8.2.9.3 0 .3 0 .6.3 4.2 1.7 8.8 3.4 13 5.1 3.7 1.4 6.8 2.8 10.5 3.7 4.2.8 8.2-.3 12.5-.6 4.2-.3 22.1-3.1 21.8 4.2-.3 6.2-18.1 2-21.5.8-3.7-1.1-7.4-2-11-2.5-2.8-.6-4.8-.6-6.8 2-1.7 2.3-2 5.7.6 7.1 2.3 1.4 4.8 2.3 7.4 3.1 1.4.3 2.6.9 4 1.1 7.6 2.3 15.3 4 23.2 3.1 3.7-.3 7.1-.8 10.5-1.7 3.4-.6 7.9-2.8 11.1-.6 1.4 1.1 2.8 3.7 1.7 5.4-.9 1.4-3.7 1.4-5.1 1.7-3.1.9-6.5 1.1-9.9 1.7-4.2.6-8.2 1.1-12.5.6-3.7-.3-7.1-1.7-10.8-2.8-4.5-1.4-9.1-2-13.6-3.1-3.7-1.1-8.8-2.5-12.5-.8-3.1 1.4-4.2 6.8-2.3 9.3 2.6 3.1 8.2 3.7 12.2 4.5 4 .8 7.9 1.4 11.9 2.5 4.5 1.4 8.2 2 13 1.1 4.5-.9 8.8-2.8 13-4 4-1.1 7.9-1.7 11.9-3.1 2.5-.9 7.1-4 9.4-1.1 1.4 1.4.9 4.2-.3 5.7s-3.4 2.3-5.1 2.8c-4 2-7.1 4-11.6 4.2-4.2.3-8.5.9-12.8.9s-7.9-.6-11.6-2.5c-3.7-2-7.6-3.4-11.6-4-3.1-.3-6.5-.3-9.6.3-2 .3-2.8.8-4 2.5-.9 1.4-.6 1.1-1.7 1.1-4 .6-8.2-1.4-11.6-3.7-1.7-1.4-3.1-3.1-5.1-4.5-1.1-.9-2.6-1.7-3.7-2.5-1.1-.9-2.3-1.7-3.4-2.3-2.8-1.1-6.5-2.5-9.9-3.4 0 0-.3 0-.9-.3-.3 0-.6 0-.9-.3 4.8 2.5 5.1 2.5 5.1 2.8 3.4 1.1 6.5 2.8 8.8 4.8.9.6 1.4 1.1 2.3 1.7.6.3 1.1.8 1.4 1.1.9.6 1.4 1.4 2.3 2 .9.8 1.7 1.7 2.8 2.5 2.3 1.4 6.5 4 11 4h1.4v1.4c.6 3.7 3.7 5.4 9.1 5.4h5.7v.3c0 .3 0 .3.3.6l.6.3c1.1 1.4 4.5 4.5 6.8 5.1.6 0 1.1.3 1.7.3 1.7 0 3.1-.6 4-1.7 1.1-1.1 1.4-3.1 1.1-5.1 0-.6-.3-1.4-.9-2h.3c1.7-.6 2.8-1.1 3.4-2.3h.6c-.9 1.7.9 4.5.9 4.5 1.1 1.7 3.1 3.1 5.1 3.1.6 0 1.4 0 1.7-.3 1.1-.3 6.5-4.5 6.2-7.4h.6c1.4 0 2.8-.3 4.2-.3 4.2-.3 7.4-1.7 10.8-3.7.6-.3 1.1-.6 1.4-.8.3-.3.9-.3 1.4-.6 1.4-.9 3.1-1.4 4.2-2.8 0 0 0-.3.3-.3 1.7.6 3.7-.3 7.1-3.1l.6-.3c1.7-1.4 3.1-2.8 5.4-3.7 1.7-.9 3.1-1.4 5.1-2.3l.9-.3c.3 0 .9-.3 1.4-.3.3 0 10.8-3.7 19-6.8 13.3-3.7 31.7-7.1 44.8-4 14.2 3.7 33.7 9.1 50.7 3.1-17.1 2-37.5-3.6-48-6.2zm-131.5 39.7c-1.7-.3-5.1-3.1-5.9-4.5-.6-.6-.9-.3 0-.9s3.4-.3 4.2-.3c2-.3 5.9-2 6.5 1.1.6 3.2-1.4 5.4-4.8 4.6zm4.9-8.2c-1.7.9-3.4 1.1-5.1 1.4-2.8.3-5.7.8-8.8.8-4 0-11.3 1.1-12.2-4-.9-6.2 6.8-6 11.3-5.7 5.1.6 9.6 1.7 13.9 4.5.9.6 2.8.9 3.7 1.4 0 .7-2.3 1.3-2.8 1.6zm12.4 5.1c-1.7.8-4-.3-5.1-2-.3-.3-1.1-2.3-.9-2.8.3-.8 1.4-.3 2.3-.3h5.9c.9 0 1.7-.6 2.6-.3.6 1.1-3.9 4.8-4.8 5.4z"/><path fill="#3D5BA9" d="M427.9 554.1zM428.2 554.4zM427.9 554.1z"/><path fill="#F19221" d="M387.4 222.6l-.1-.5c25.6-4.2 38.4-17.6 44.6-28.1 6.7-11.4 7.3-21.9 7.3-22h.6c0 .1-.6 10.8-7.4 22.3-6.2 10.5-19.1 24.1-45 28.3zM457.7 259.3c-16.8-40.1-4.7-81.7-4.5-82.1l.5.2c-.1.4-12.2 41.7 4.5 81.7l-.5.2z"/><path fill="#F19221" d="M437 171.4c0-.3-.3-.3-1.4-.3s-2.3-.3-3.4-.3c-9.6-1.1-30.9-7.4-47.9-35.7-2.8-4.8-6.5-10.5-8.2-16.7 0 0-3.1-14.7-14.4-12.8 0 0-48.2 2.3-47.9 51l.3 14.4 8.2-4c-.3.6-.9 1.4-1.1 1.7-2 3.1-2 5.7 2.3 6.5-.3 2.6-.3 4.5 2 4 2.3-.6 4.2-.8 5.7.8l4 5.9s3.1 4.8 14.2-1.7c0 0 11.6-4.2 17.3.3 9.1 15.6 14.2 28.6 17 39.1l1.4-4.8c43.1-5.2 50.4-37.5 51.9-47.4z"/><path d="M334.7 144.2c-1.7-.6-4.2.3-6.2 1.7-2.6 1.7-5.4 3.7-6 6.2.9 0 1.7-.9 2.6-1.4 2.8-2.6 6.8-4 10.5-4.2.5-.9.2-2.1-.9-2.3zM333.8 150.4c-.3 1.4-2.3 3.1-4 3.4-.3 0-.9 0-1.1.3-.3 0-.9.3-.9.6s.3.6.6.8c1.4.6 3.7 0 5.1-1.1 1.5-1.5 1.7-3.4.3-4z"/><path fill="none" d="M320.5 128.6c0-.3 0-.3 0 0 0-.3 0-.3 0 0zM339.5 111.6zM363.9 133.7c-.3 0-.3 0 0 0-.3 0-.3 0 0 0zM342.6 122.6h-.3M357.1 126.6c.3 0 .3 0 0 0 .3 0 .3 0 0 0zM381.1 136.8zM377.5 122.6zM376.9 122.1zM340.4 122.3s-.3 0 0 0c-.3 0 0 0 0 0zM348.9 119.5v0c.3 0 .6.3.9 0-.4.3-.7 0-.9 0zM373.5 116.7zM336.1 115zM379.7 134.2v-.2.2zM337.5 114.4zM379.2 133.1c-.3.3 0 .3 0 .6 0 0-.6 0 0-.6zM352.8 134s0-.3-.3-.3c.3 0 .3.3.3.3zM337.8 114.1c.3 0 .3 0 0 0 .3 0 .3 0 0 0zM338.6 120.6zM379.5 131.4s.2 0 0 0c-.3 0 0 0 0 0zM351.7 128.3s0-.3.3-.3c0 0 0 .3-.3.3zM379.5 130.8zM379.7 132.3c.3 0 0-.6 0-.9.3 0 .6-.3 1.1-.3-.3 0-.6 0-1.1.3 0 .3.3.9 0 .9zM335.2 116.7zM352.8 119.2c0 .3.3.3.3.3 0-.3-.3-.3-.3-.3zM333.8 115zM367.5 133.1zM374.4 116.4s-.3 0 0 0c-.3 0-.3 0 0 0zM327.3 128.3h.6-.6zM375.8 137.1v-.3.3zM375.8 136.8v-.3c0-.3.3-.9.3-1.1-.3.3-.3.6-.3 1.1v.3zM351.4 128s0 .3 0 0c0 .3-.3.3-.3.3l.3-.3c0 .3 0 0 0 0zM355.6 109.9zM354.5 109.6zM337 123.8zM375.5 134.2c0 .3 0 .3 0 0 0 .3 0 .3 0 0zM346.9 121.5s0 .3 0 0c.3.3.3.3.3.6-.1 0-.3-.3-.3-.6 0 .3 0 .3 0 0zM375.8 134.2zM345.5 117.5zM353.1 108.5c.3 0 .6-.3.9-.3 0-.3-.6 0-.9.3v0zM327.9 126.3zM378.3 136.8s.3 0 0 0c.3 0 .6 0 .9-.3-.3 0-.3.3-.9.3.3 0 0 0 0 0zM377.8 133.7zM347.7 129.4s-.3 0-.3-.3c0 .3 0 .3.3.3zM377.8 133.7c.3 0 .3.3.6.3-.1-.3-.4-.3-.6-.3zM348.6 109.6s0-.3 0 0c0-.3 0 0 0 0zM352.8 108.2c.3 0 .3 0 0 0 .3 0 .3 0 0 0zM347.7 108.5c.3 0 .6.3.9.3-.6-.1-.6-.1-.9-.3zM376.9 136.8s.3 0 .3.3l-.3-.3zM370.7 133.4c-.3.3-.3.3 0 0-.3.3-.3.3 0 0zM373.5 117.5s.3 0 0 0c.3 0 0 0 0 0zM352.8 122.1zM354.2 128.6zM372.4 119.2c.3.3.3.3.6.3-.4 0-.6-.3-.6-.3zM356.8 113.8zM358.2 125.5c.3 0 .3 0 0 0 .3 0 0 0 0 0zM353.4 131.4c-.3 0-.3.3-.3.6 0-.3 0-.6.3-.6zM358.2 111.9v0zM360.2 112.4zM356.8 111.6c-.3 0-.3 0 0 0-.3 0-.3 0 0 0zM354 121.8zM359.3 112.4h.3c0-.3-.3 0-.3 0zM371.8 118.7s.3 0 0 0zM369.2 115.3c0 .2 0 .2 0 0 0 .3.3.6.3.8-.3-.3-.3-.3-.3-.8 0 .2 0 .2 0 0zM373.2 133.1v-.6.6zM370.7 117.2c.3 0 .3 0 0 0 .3 0 0 0 0 0zM326.2 127.4c.3 0 .6.3.6.6l-.6-.6zM361.3 111.3s-.3 0-.3.3l.3-.3zM369.5 116.1c0 .3-.3.6-.3.8 0-.2.3-.5.3-.8zM361 112.4c0-.3 0-.3.3-.6-.3.3-.3.6-.3.6 0 .3-.3.6-.3.8.1-.2.1-.5.3-.8zM360.8 125.5zM363.6 126h0zM364.7 128.3zM355.4 118.1c-.3 0-.3 0 0 0zM353.7 117.8c0-.3 0 0 0 0zM373.2 117.5s0-.3 0 0c0-.3.3-.3 0 0 .3-.3 0-.3 0 0 0-.3 0 0 0 0zM372.6 114.7h0zM374.1 116.1zM371.2 112.1c-.3 0-.3 0-.3.3.1 0 .1-.3.3-.3zM352.5 132.3zM334.7 119.8zM374.1 118.4c-.3 0-.3 0-.6-.3.3.3.3.3.6.3zM352.5 132.3v-.3.3zM374.6 115.5s0-.3.3-.3c-.3.1-.3.1-.3.3zM374.1 116.1zM352.8 131.7zM355.6 118.1c.3 0 .3.3.6 0-.3.3-.6 0-.6 0zM369.5 130.8c-.3 0-.3.3-.6.3.1 0 .3 0 .6-.3zM369.8 130.6v.3h-.3.3v-.3zM355.1 117.8c.3 0 .3 0 0 0 .3 0 .3 0 0 0zM332.4 118.7zM351.1 129.4zM335.2 119.8c-.3 0-.3.3-.3.3.1 0 .1 0 .3-.3zM373.5 119.2h.6s.3 0 .3.3l-.3-.3h-.6zM366.1 120.4c0-.3 0-.3 0 0 0-.3 0 0 0 0zM356.8 109c0 .3 0 .3-.3.6.6-.3.3-.6.3-.6zM365.9 134c0-.3 0-.3 0 0 0-.3 0-.3 0 0zM369.5 137.9zM372.1 138.5v0zM357.4 106.8s-.3 0 0 0c-.3 0 0 0 0 0zM368.4 131.1c.3 0 0 0 0 0zM354.5 109.3zM329.3 122.6h-.3.3zM365.9 134.5c.3 0 .3-.3.3-.3s-.1.3-.3.3zM329.3 122.6zM333.3 115.5c-.3 0 0 0 0 0zM368.7 135.4s.3 0 0 0c.3 0 0 0 0 0zM344.6 109.6zM364.1 116.1zM355.4 107c-.3 0-.3-.3-.3-.3 0 .3 0 .3.3.3zM371 139.1c.3-.3.6-.3.9 0-.7-.3-.9-.3-.9 0l-.3-.3s0 .3.3.3zM361.3 114.7c.3 0 .3.3.6.3-.3 0-.3 0-.6-.3zM357.1 106.5c-.3-.3-.6-.3-.9-.3.3 0 .6.3.9.3zM329.6 122.6zM350.5 128.9zM348 126zM361.3 109zM362.5 106.2c0 .3-.3.6-.6.3.3.3.3 0 .6-.3zM365 107.3zM328.2 121.5h-.6.6zM350 128.3l.6.6c-.1-.3-.3-.6-.6-.6zM350.5 129.4zM348.9 122.9c.3.3.6.3.9.6-.4-.3-.7-.6-.9-.6 0-.3-.3-.6-.6-.6.3-.2.3.3.6.6zM361 106.2c-.2.3 0 .3 0 0zM362.2 109.3zM362.2 109.6s0-.3 0 0zM374.6 134zM359 113.3s.3 0 .6.3c-.3-.3-.3-.3-.6-.3zM360.8 106.5c0-.3 0-.3 0 0 0-.3 0 0 0 0zM359.3 107h-.3.3zM370.1 137.4zM348.3 122.1zM341.2 111.3h.3-.3zM373.2 136.5c-.3 0 0 0 0 0zM341.8 110.7zM372.6 116.1v.3h-.3.3v-.3zM368.4 130zM349.4 123.8h-.3.3zM344.3 109.6c0 .3-.3.3 0 0-.3.3-.3 0-.3 0 0 .3 0 .3.3 0-.3.3-.3 0 0 0zM350.8 127.7zM341.8 111s0 .3 0 0c0 .3 0 .3 0 0 0 .3 0 .3 0 0zM342.3 115c.3 0 0 0 0 0s.3 0 0 0zM348.9 123.2c0 .3.3.3.3.3-.1 0-.3 0-.3-.3zM370.1 137.4zM348.6 122.9s.3 0 0 0c.3 0 0 0 0 0zM350.5 129.4zM339.5 111.6c0 .3.3.3.3.3s-.3 0-.3-.3zM369 129.7zM368.4 130zM361.6 119.2v-.6.6zM360.8 123.2zM362.2 118.4v.3h.9-.9v-.3zM363.9 116.1s.2 0 0 0h-.9.9zM361.3 119.5s-.3 0-.3.3c0-.3 0-.3.3-.3zM350.3 127.2c0 .2 0 .2 0 0 0 .2 0 .2 0 0zM360.5 119.5c.3 0 .3 0 0 0zM356.8 124.3zM358.2 113.6zM357.9 114.1s0 .3 0 0zM368.7 130.3c-.3 0-.3 0 0 0-.3 0-.3 0 0 0zM369.8 128.9zM371.2 124c0 .3 0 0 0 0zM358.5 114.4zM363 116.1l-.3-.3.3.3zM358.2 113.8s.3 0 0 0c.3 0 0 0 0 0zM368.7 130c0 .3 0 .3 0 0 0 .3 0 .3 0 0zM323.4 126zM365.6 137.9c.3 0 .3 0 0 0zM378 137.1zM323.1 127.2zM368.7 114.4c0 .3-.3.3-.3 0 0 .3 0 .3.3 0zM323.1 126.9zM376.6 136.8c0 .3 0 .3 0 0 0 .3 0 .3 0 0zM352.8 130.8l-.3-.3.3.3zM322.5 126.6c0-.3 0-.3-.3-.6 0 0 .3.3.3.6zM368.4 118.7v-.3c.3.3.3.3 0 .3zM320.8 128.6c0-.3.3-.3.3-.6h0s0 .3-.3.6zM322.8 130v-.3c-.3.3-.3.3 0 .3zM352.8 110.4c0 .3 0 0 0 0zM366.7 138.2c0 .3.3.3.3.9 0-.3-.3-.6-.3-.9zM323.9 128.9c-.3 0-.3-.3-.3-.3 0 .3 0 .3.3.3zM321.9 128.6h1.5-.9c-.3.3-.3.3-.6 0zM321.9 128zM377.5 131.1c0 .3-.3.3-.3.6 0-.3.3-.3.3-.6zM377.2 130.8zM377.2 130.6zM377.2 130.8zM369.2 113.6s-.2.2 0 0c-.2 0 0 0 0 0v-.3s0-.3.3-.3l-.3.3v.3zM356.8 109.3s-.3 0 0 0c-.3 0 0 0 0 0zM371 115.8c-.3 0-.3 0 0 0-.3 0-.3 0-.6.3 0 0 .3 0 .6-.3-.3 0-.3 0 0 0zM369.2 114.1c0 .3.6 0 .6.3 0 0-.6 0-.6-.3l-.3-.3c.1.3.3.3.3.3zM320.5 128.6zM376.9 132.3c.3 0 .3 0 0 0 .3 0 .3 0 0 0 .3 0 0 0 0 0zM369 112.7l-.3-.3c-.3 0-.3-.3-.6 0h.6c-.3 0 0 0 .3.3zM363 121.5c.3 0 .3 0 0 0 .3 0 .3 0 0 0zM378.9 130.8c-.3.3 0 .3 0 0zM325 128.6s0 .3-.3.3c.3 0 .3-.3.3-.3zM326.2 128.9c-.3 0-.3.3-.6.3.3-.1.6-.3.6-.3zM378.6 131.1v0zM363.6 121.2s.3 0 .3.3c0-.3 0-.3-.3-.3h-.6.6zM375.2 134.5h.3-.3zM330.1 118.7v0zM374.9 116.7c0-.3 0-.3 0 0 0-.3 0-.3 0 0zM380.6 133.1s-.3 0-.3.3l.3-.3c.3 0 .3 0 .6-.3-.1.3-.1.3-.6.3zM381.1 134c-.3 0 0 .3 0 .6-.2-.1-.2-.4 0-.6zM380.6 133.1zM335.8 122.3zM327.3 120.1zM336.1 122.6zM381.4 134.2c-.3 0-.3 0 0 0-.3 0 0 0 0 0zM329.9 118.7zM381.7 133.1c-.3.3-.3.3 0 .8-.3-.5-.3-.8 0-.8zM366.4 111c0-.3.3-.3 0 0v-.3c.3 0 .3 0 0 .3.3-.3 0-.3 0 0zM381.1 131.4zM365.3 109.9v0zM365.9 109.3c0 .3 0 .3 0 0zM383.1 133.4s0 .3 0 0c0 .3 0 0 0 0zM347.1 127.7zM348 118.4zM371 118.7c0 .3 0 .3.3.3-.3-.1-.3-.1-.3-.3zM376.9 122.6zM323.9 130l.3.3-.3-.3zM372.6 120.6v0zM355.4 108.5zM324.2 130.3s0-.3.3-.3c0 0 0 .3-.3.3zM334.7 121.2v.3s.3-.3 0-.3v-.3c.3-.3.3 0 0 .3zM323.6 129.4c.3 0 .3.3.6.6 0-.3 0-.6-.6-.6 0-.3 0-.3 0 0 0-.3 0 0 0 0zM356.2 109.3zM334.4 124zM365 108.5zM334.7 123.8c-.3 0-.3.2 0 0-.3.2-.3 0 0 0zM356.5 109.3c-.3 0-.3 0 0 0-.3 0-.3 0 0 0zM377.2 122.6zM376.9 122.3v-.3.3zM339.5 122.3zM324.2 128.9zM364.7 107.6c0-.3.3-.3 0 0 .3-.3 0-.3 0 0zM352.8 116.1s0-.3 0 0c0-.3 0 0 0 0zM364.1 127.4v-.6.6zM335 116.1c-.3 0-.3 0 0 0-.3 0 0 0 0 0zM361.6 119.2c-.3 0-.6-.3-.6-.3s.3.3.6.3h.3-.3zM360.8 127.2c.2 0 .2 0 0 0zM376.9 125.2c.3 0 .3.3.6.3 0 0-.3 0-.6-.3zM377.8 124.6c-.3 0-.3 0 0 0-.3 0 0 0 0 0zM360.8 118.1c.2 0 .2.3 0 0 .2.3 0 .3 0 0zM381.1 136.5zM335.5 117c0 .3 0 .6.3.6-.3-.1-.3-.4-.3-.6zM352.2 115.8v.3-.3zM371 121.8zM362.5 126.3c0-.3-.3-.3-.3-.6.3.3.3.3.3.6s0 .3 0 0c-.3.3-.3.3-.6 0 .3.3.3.3.6 0 0 .3 0 .3 0 0zM348.6 112.4c0 .3 0 .3 0 0 0 .3 0 0 0 0zM346.6 113.3h.6-.6zM369.2 109.3zM366.4 115zM374.1 134.2c.3 0 .3 0 0 0 .3 0 .3 0 0 0zM363.9 106.2h.3-.3zM334.7 116.1c0 .3.3.3.6.3-.1 0-.6 0-.6-.3zM376.3 124zM368.4 113.8zM370.4 120.9s0-.3 0 0c0-.3 0 0 0 0zM365.9 124c0-.3.3-.3.3-.3-.3.1-.3.3-.3.3v.3c-.3 0-.3 0 0-.3zM363.9 133.7zM342 120.4c.3-.3.3 0 .6 0 0-.3-.3-.3-.6 0-.6 0-.3.3-.3.3.1-.3-.2-.3.3-.3zM371 112.7c0-.3 0-.3 0 0 0-.3 0 0 0 0zM356.8 118.7s-.3 0-.3.3l.3-.3zM340.1 122.1zM353.7 119.8zM338.4 115zM334.7 115h-.3.3zM359.9 117.8s.3.3.6.3c-.3 0-.3-.3-.6-.3zM366.7 134.2v0zM354 113.3zM347.7 114.4h0zM376.9 124.9c0 .3 0 .3 0 0zM377.5 124.3c0 .3 0 .3 0 0-.3 0-.3 0-.6-.3 0 .3.3.3.6.3 0 .3 0 .3 0 0zM336.1 115.3zM381.1 136.8zM337.2 115c-.2 0-.2 0 0 0-.2 0 0 0 0 0zM360.2 117.2zM376.3 122.9h.3-.3zM353.7 116.1c0-.3-.3-.3-.6-.3.3 0 .6 0 .6.3zM367 135.1c.3 0 .3.3.6.3-.3 0-.6 0-.6-.3zM352.8 116.4c.3 0 .3.3.3.6 0-.3-.3-.6-.3-.6zM352.8 117.2zM342.6 119.5c.3 0 .3 0 0 0 .3 0 .3 0 0 0zM354.5 113zM352.2 108.7c0 .3 0 .3 0 0 0 .3 0 .3 0 0zM352.2 108.5c0 .2 0 0 0 0zM343.2 120.1s.3 0 0 0c.3 0 0 0 0 0zM366.7 135.1zM340.9 118.1v0zM340.4 117zM339.2 120.4c.3 0 .3 0 0 0 .3 0 0 0 0 0zM347.1 115.5v-.3.3zM342.9 119.5v-.3.3zM339.5 116.7c0-.3 0-.3 0 0 0-.3.3 0 0 0zM340.4 117zM367.5 135.7c-.3 0-.6 0-.6.3-.2-.1.1-.3.6-.3zM378.3 126.9zM367.5 135.7zM367.8 135.7c0 .3 0 .3-.3.6.3-.4.3-.4.3-.6zM357.1 125.5s0 .3-.3.3h-.3.3c.3-.1.3-.3.3-.3zM376 124.3h.3-.3zM375.2 125.2h-.6l-.3-.3.3.3h.6zM378.9 127.2v0zM371.5 130.3zM337.5 119.5c-.3.3-.3.3-.6 0 .3.3.3.3.6 0 .3 0 .3.3.6.6 0-.3-.3-.6-.6-.6zM374.6 123.5h0zM352 107.9zM358.2 124.6v.3c-.3 0 0-.3 0-.3zM360.8 126.6zM358.2 124.9c0 .3 0 .3.3.3-.3 0-.3 0-.3-.3zM357.1 126.6zM371.8 130.8v-.3c-.3.1-.3.1 0 .3zM338.4 120.4l.3.3c-.1-.3-.3-.3-.3-.3zM357.6 126.3s.3 0 0 0c.3 0 .3 0 0 0zM336.4 117.8c.3.3.3.3 0 .3 0 0 .3 0 0-.3zM371.8 130.8zM357.4 126.6c.2 0 0 0 0 0zM342 120.6v0zM350.3 107.9c-.3 0-.3 0 0 0-.3 0 0 0 0 0zM345.2 125.7zM355.6 126c0 .3 0 .3 0 0 0 .3 0 .3 0 0zM350 110.2zM345.5 126.9zM344.9 120.1c-.3 0-.3 0-.9-.3.3.3.6.3.9.3zM350 112.4l.3.3c-.3 0-.3-.3-.3-.3zM346.6 119.8l.6.6c-.3-.3-.3-.6-.6-.6zM348 118.4c.3 0 .3 0 0 0 .3 0 0 0 0 0h-.3.3zM345.2 125.7c.3 0 .3.3.6.6-.1-.3-.3-.3-.6-.6.3 0 .6 0 .6-.3-.1.3-.1.3-.6.3zM347.1 116.4zM346.3 124.9v-.3.3zM332.4 125.2c0 .3.3.3 0 0l.3.3-.3-.3c.3.3 0 .3 0 0zM369.8 111c0 .3-.3.3-.3.3h-.6.6l.3-.3zM354 113.3zM346.6 114.1s-.3.3 0 0c0 .3 0 .3 0 0zM354 113.3c.2 0 .2-.3 0 0 .2-.3 0 0 0 0zM346.9 115.3c.2-.3.2-.3 0 0 .2-.3.2-.3 0 0zM369.5 109zM333.8 123.8zM347.1 117.5zM369.5 109zM351.7 114.4h.3-.3zM333 122.6h-.3.3zM350 122.9zM371.2 109.6c0 .3 0 .6.3.8-.3-.2-.3-.5-.3-.8-.2 0-.2 0 0 0-.2 0-.2 0 0 0zM339.8 115.5c-.3-.3-.9-.3-1.1-.6.2.1.8.4 1.1.6zM348.6 128.3c-.3 0-.3 0-.3-.3 0 .3.3.3.3.3zM369.5 109s-.3 0 0 0c-.3 0 0 0 0 0zM352 123.8c.3 0 .3 0 .3.3-.1-.1-.1-.3-.3-.3zM350 126c0-.3 0-.3 0 0 0-.3 0-.3 0 0zM350 113.3s-.3 0 0 0c0 .3.3.3.3.3s-.3 0-.3-.3c-.3.3 0 0 0 0zM322.2 130.8c-.3 0-.3 0 0 0zM333.8 124.6s.3 0 .3.3c0-.3 0-.3-.3-.3zM367.5 134zM348.3 110.2s.3 0 .3.3v0c0-.3-.3-.3-.3-.3zM371.2 110.4l.3-.3c0 .1 0 .3-.3.3zM370.7 111h-.3c0 .3 0 .3-.3.3 0 0 0-.3.3-.3h.3zM346.9 114.1zM350.5 123.8c.3 0 .3 0 0 0l.3.3c0-.3 0-.3-.3-.3.3 0 .3 0 0 0zM370.1 111.6zM348.3 124.6c0-.3 0 0 0 0zM337.5 119.2v-.6l-.3-.3s0 .3.3.3v.6zM346.3 120.1zM353.7 119.2v.3s-.3 0 0-.3c-.3.3 0 .3 0 0zM340.1 122.1c-.3 0-.6 0-.9-.3.3.3.6.3.9.3zM348.6 111.9s-.3.2 0 0c-.3.2 0 0 0 0zM348.9 110.2c-.3 0-.3 0 0 0-.3 0-.3 0 0 0zM332.4 124.9s0-.3.3-.3c0 0 0 .3-.3.3zM351.1 128.3s-.3 0-.3-.3c0 0-.3 0-.3-.3l.3.3c0 .3 0 .3.3.3zM346 113.8h.3-.3zM346.6 114.1zM348.6 125.2c-.3 0-.3 0 0 0-.3 0-.3 0 0 0zM349.4 125.7h-.3c0 .3 0 .3.3 0 0 .3 0 .3 0 0zM369.5 111.6zM352.5 122.1h-.3.3zM350 128.3s0 .3-.3.3c.3 0 .3-.3.3-.3zM332.4 124.9c0 .3 0 .3 0 0 0 .3 0 .3 0 0zM349.4 123.8s-.3 0 0 0c-.3 0 0 0 0 0zM348 109.3s0 .3 0 0h.6-.6zM346.9 114.1z"/><path d="M325.6 130zM360.8 127.2h-.3c.3 0 .3.3.6.3l-.3-.3c.2 0 .2 0 0 0zM370.1 139.3zM370.1 137.4zM381.4 134.2zM318.8 131.4h.9c-.3 0-.6 0-.9-.3v.3zM352 123.8c0-.3 0-.3-.3-.3s-.3.3-.3.6c.3.3.3-.3.3-.3h.3zM351.4 128s0 .3 0 0c0 .3.3.3.3.3v-.3c0 .3-.3 0-.3 0zM325.6 128c0-.3 0-.3.3-.3v.3c0 .3-.3.3-.3.3-.3 0-.3 0-.6-.3 0 0 .6.3.6 0zm-.6.6c.3 0 .3.3.3.6-.3 0-.3-.3-.6 0 .3-.3.3-.6.3-.6zm.6-2c-.3 0-.3 0-.3-.3.3 0 .3 0 .3.3zm2 0c0 .3-.3 0-.3 0-.9.3-.9-.6-1.4-.8v-.3s.3 0 .3-.3c.6.5.8.8 1.4 1.4 0-.3 0-.3 0 0zm9.4-2.8zm-2.6.2h-.6-.3v.3c-.3-.3-.3-.8-.6-1.1-.3-.3.3-.3.3-.3v.3s.3.3 0 .6c0 0 0 .3.3.3v-.3.3c.6-.3.9-.9.9-.1 0-.2 0 0 0 0zm-4 .6c0 .3-.3 0-.6-.3 0-.3 0-.6.3-.3.6.3.6.6.3.6zm.6-1.1s0-.3 0 0h.3c0-.3 0-.3-.3 0v.3-.3zm1.7-.9h0zm-4.5 4s-.3 0 0 0c-.6 0-.3-.3 0 0l-.3-.3c0-.3 0-.3.3.3 0-.3 0-.3 0 0zm0-4.3v.3h-.6c-.3 0-.3-.3-.3-.3.3-.3 0-.6 0-.8h.6s.3 0 0 .3c.3.3.3.3.3.5zm.3.3v-.3c.3-.3.3.3.3.3l.3.3h.3s-.3 0 0-.3.3-.6.3-.8c.3 0 .3 0 .6.3 0 .3-.3.3-.3.6s-.3.3-.3.3h.6c.3 0 .3 0 .6-.3s.3.6.9.6c-.3 0-.9 0-.9.6H330c-1-.1-1-1-1.5-1.3zm4.2 2.6c0 .3 0 .3 0 0v.3-.3h-.3v-.3s0-.3.3-.3h.3v-.3c0-.3 0-.6.3-.3.3 0 .3.3.6.3 0 0 .3 0 .3.3 0 0-.3 0-.3-.3v.3s0 .3-.3.3c-.1.3-.6.3-.9.3zm3.4-2.3c-.3.3-.9-.3-1.1-.3.3 0 .6 0 .9-.3h-.3c-.3 0-.3-.3-.3-.3v-.3c-.9.3-.9-.3-.9-.8h.3v-.3.6h.3s.6.3.9.3c.3.3 0 .3 0 .3.2.8-.1.8.2 1.1.3-.3.3 0 .6 0l.3.3c-.6.3-.6-.3-.9-.3zm3.1-.8zm-.6-1.7c0-.3-.6-.3-.3-.6s.6.3.9.3c0 .3-.3.5-.6.3zm2 .8c0-.3.3-.3.6-.3-.9 0-.9-.6-1.4-.8v.6c.3 0 .9 0 .9.3h-.6c-.3 0-.3-.3 0-.6h-.3c0-.8 0-.8 1.1-.6-.3-.3-.3-.6 0-.8-.6.3-.9-.6-1.4-.3 0 0-.3-.3 0-.3 0-.3.3-.3.3-.6s0-.3-.3-.3h-1.1c.3.3 1.1.3.9.8-.3 0-.6-.3-.9-.6h-.3s0-.3-.3-.3c.3 1.1-.3.3-.9.3v-.3c-.3 0-.6 0-.6.3h.6c.3.3.3.3 0 .3l-.3.3c.6.3.6.3.6 0s0-.3.3 0c0 .3 0 .6-.3.6 0 0-.3.3 0 .3s.3 0 .3.3c.3.3.3.3.6 0 .3 0 .3.3.6.6l.3.3.3.3v.6c.9.3-.3.6 0 .8h-.3c-.6-.6-1.1-.3-1.4.3-.3.3-.3.3-.6-.3s-.3-1.1-1.1-1.4c0 0-.3 0-.3-.3 0 0 0-.3.3-.3-.3 0-.3 0-.6-.3h-.3s-.3 0-.6-.3-1.1-.3-.3-.8c.3-.3 0-.3 0-.3h-.3c-.3.3-.3.6-.9.3v-.3c.3 0 .3 0 .3-.3-.3 0-.3.3-.3.3-.3-.3-.9-.6-1.1-.6s-.9-.3-1.1-.3-.3.3-.6.3h.9c.3 0 .3.6.9.3v.3c0 .3-.3.3-.3.3-.3 0-.6 0-.6.3v-.3h-.3.3v-.6h-.3c-.3.3-.3 0-.6 0-.6.3-.9.8-1.4 1.1l-.3.3c.3 0 .3 0 .3.3v.6c-.3 0-.3-.3-.6-.3l-.3.3v.6c-.3.3 0 .3.3.6h.3c-.3 0-.6.3-1.1.3-.3 0-.3.3-.9.6-.3 0 .3.3.3.3 0 .3.3.3.3.6s-.3 0-.6-.3-.6-.3-.9-.3h-.3l-.3.3c0 .3.3.3.6.3.6 0 .9.3 1.4.6.6 0 .9.6 1.4.3.3 0 .3 0 .3.3v.3h-.3s-.3-.3-.3 0c-.3 0-.3.3-.6 0s-.6 0-.9 0h.3v.3l-.3.3c-.3-.3 0-.3 0-.3-.3 0 0-.6-.6-.6 0 0 0 .3-.3 0v-.3h.3c-.6-.3-1.1.3-1.4.3 0-.3.3-.3.3-.3.3 0 0 0 0-.3-.3.3-.6.6-.9.8l-.3.3c.6 0 1.1.3 1.4.6h.3c.3 0 .6 0 .6.3s0 .8-.6.8c-.3 0-.6 0-.9-.3l-.3-.3h-.3v.3c-.3 0-.9-.3-1.1-.3v-.3c0 .3 0 .3.3.6.3 0 .3.3.6.3h.3s0-.3.3-.3c.6-.3 1.4-.3 1.4.3v.6c0 .3-.3 0-.6 0s-.6 0-.6.3-.3.3-.3.6l.3.3v.3l.3.3s0-.3-.3-.3v.6l.3.3h.3s0-.3.3-.3c0 0 0 .3-.3.3h.3c.3 0 .6-.3.9-.3s.6-.3.9-.3c-.3 0-.6-.3-.6-.6.3 0 .3 0 .6-.3.3 0 .3 0 .3.3h.6c.6-.3 1.1-.3 1.7-.8-.3 0-.6-.3-.9-.3h-1.5c0-.3-.3-.6-.6-.6s-.6-.3-.9-.3c-.3 0-.3-.3-.3-.6.3.3.9.6 1.1 0h.3c0 .6.9.6 1.1.8 0-.3 0-.6.6-.6.3 0 .9.3 1.1.3v.3h-.3c0 .3.3 0 .3.3.3.3.6.3.9.8.3 0 .6-.3.9-.3 0-.3.3-.3.3-.6.3 0 0 0 0 .3l3.7-1.7s.3 0 .3-.3c.3 0 .3-.3.6-.3h.3c.3 0 .3-.3.6-.3.3-.3.9-.3 1.1-.6l.3-.3c.9-.3 1.4-.8 2-1.4-.3-.3-.3-.8.3-.6 0 .3 0 .3-.3.6.3-.3.6-.3.9-.6-.3 0-.6 0-.9-.3v-.6c.3 0 .3.6.9.8.3-.3.3 0 .3 0 .3-.3.6-.3.9-.6h-.3c-1.6.1-1.9.1-1.9.1zm-3.1-2c-.3 0-.6 0-.3-.3v-.3-.3.3c.3.3.3.3.3.6zm.6-.5s-.3 0 0 0h-.3c0-.3 0-.3.3 0 0-.3 0-.3 0 0zm0 .5v-.3h.3s.3 0 .3.3c-.3.3.3.6.3.8-.4-.5-.6-.5-.9-.8zM342.6 123.2c.3.3.3 0 .6 0 0-.3-.3 0-.6 0zM342.3 122.1c0 .3 0 .3.3.3 0-.1 0-.3-.3-.3zM380.6 133.7s0 .3 0 0c0 .3 0 .3 0 0 0 .3 0 0 0 0zM338.9 112.1l.3-.3c-.3 0-.6.3-.9.3h.6z"/><path d="M323.1 129.4c0 .3.3.3.3.3.3 0 0-.3 0-.6s0-.3-.3-.3h-1.5-.3c-.3-.3-.3-.3 0-.3 0 0-.3.3-.3 0h-.3c0 .3-.3.3-.3.6-.3 0 0-.3-.3-.3l-.3.3c-.3.3-.6.8-.9 1.1 0 0 0 .3-.3.3v.6s-.3 0-.3.3.3 0 .3 0l.3.3H319.8c.9 0 1.4-.3 2-.3h.6s-.3-.3 0-.3v-.3h-.6v-.3c-.3-.3-.6-.3-.9-.6v-.3c1.3-.5 1.9-.7 2.2-.2zm-1.2.3c0 .6.3.6.6.9 0 0 0-.3.3 0v.3h-.3-.6c-.3 0-.3-.3-.6-.6v.3c-.3-.3 0-.6-.6-.8v-.3c.4-.4 1.2-.1 1.2.2zM363.6 105.6h.6c.3 0 .3 0 .3.3v-.3c.3 0 .3.3.6.3s.3 0 .3.3c.3.3-.3.3-.3.6s.9.3.3.8h.3s.6 0 .6.3 0 .3-.3.6v.3c0 .3.3 0 .3 0 .3-.3.6-.8 1.1-1.1 0 0 0-.3.3-.3s.3.3.3.3c0 .3.3.6.9.3 0 0 0-.3-.3-.3s-.3-.3-.6-.6c0 0-.3 0-.3-.3h-.6s-.6 0-.9-.3c0 0 0-.3-.3-.3-.9-.3-2-.3-3.1-.3.2 0 .5-.3.8-.3zM355.9 107.6c-.3-.3-.3 0-.6.3s-.6.6-1.1 0h-.2c-.3 0-.6.3-.9.3v.3c0 .3 0 .6.3.6 0-.3-.3-.3 0-.3.3-.3.3 0 .3 0 .3 0 .3.3.3.6s.3.3.3.3h.3s0 .3.3.3h.9v.3c0 .3 0 .3.3.3 0-.3 0-.3-.3-.3h-.3c.3-.3.3.3.9 0 0-.3 0-.3.3-.6h-.3v-.3h.3c0-.3-.3 0-.3 0-.9.6-1.4 0-2.3-.3h.9c.3 0 .6.3.6-.3h.6c.9-.3 1.7-.8 2.5 0 .3 0 .3 0 .6-.3 0-.3-.3 0-.3-.3-.3 0-.3-.3-.3-.3-.3-.3.3-.3.3-.6h1.2c0-.3-.3-.3-.3-.6s-.3-.6-.3 0c0-.3 0-.3-.3-.6-.9 0-1.7.3-2.8.3h.9v.3c0 .3 0 .3.3 0h-.3.3c.3 0 .3 0 .6.3l.3.3h.3c-.3.3-.3 0-.3 0s-.3-.3-.6.3c0 .3-.6 0-.9-.3h.3c0-.3 0-.3-.3-.3s-.6-.3-.9-.3c0 .3.3.6.6.8v.3s0 .3-.3 0v-.3c.3-.3 0-.6-.3-.6-.3.1-.3.4-.3.7.3 0 .3.3 0 0zm-1.4 1.7zm3.7-2.8s0 .3 0 0h-.3.3s.3 0 0 0zm.8 0s-.3 0-.3.3c0 0-.3 0-.3-.3h.6zM361.6 116.4c.3-.3.9-.3 1.1-.6v-.3c-.3 0-.3 0-.6-.3-.3 0-.3-.3-.6-.3-.3.3-.3.3-.9.3-.3 0-.9.3-.9.6.3 0 .3.3.6.3.5 0 1 .3 1.3.3zM361.3 114.7 359.6 111.3s-.3 0-.6.3v-.6c-.3 0-.3.3-.3.3-.3.3-.6 0-.9 0-.3-.3 0-.3.3-.3 0-.3 0-.6-.3-.6v.6c-.3.6-.3.8.3.8.3 0 .6.3.3.6h-.6v.3c0 .3 0 .3.3.6H359.9s.3-.3 0-.3c-.3-1.1 0-1.7-.3-1.7zM358.2 109.9z"/><path d="M357.4 109.3c.3 0 .3 0 .3.3s.3 0 .3.3c0-.3.3-1.1-.3-1.1h-.6v.3c0 .3 0 .3-.3.6.3.3 0 .6 0 .8 0 0-.3 0-.3.3.3 0 .3.6.9.3.3 0 .3-.3.3-.6v-.6c-.6-.3-.3-.6-.3-.6zM357.1 108.7zM360.2 113c-.3.3-.3.3-.6 0-.6-.3-1.1-.3-1.4 0-.3-.3-.6 0-.9.3.3 0 .3.6.6.6v-.3c-.3-.3 0-.3 0-.6.3 0 .6.3.9.3 0 0 .3 0 .6.3.3 0 .3.3.3.3 0 .8.3-.3.6.3 0 0 .3 0 0-.3v-.3c.6-.3 1.1-.3 1.4-.6 0 0 0-.3-.3-.3 0 0-.3 0-.3-.3h.3l.3.3c0-.6.3-.3.3-.3.3.3.6.3 0 .6v.3h.3c0-.8.9-.3.9 0 .3.3.3 0 .3 0 .3-.3.6-.3.6 0s.3.3.3 0c0 0 .3 0 .3-.3-.3-.3-.6-.8-1.1-.8-.3 0-.3 0-.6-.3-.3-.6-.6 0-.6.3-.3-.3 0-.8-.6-1.1-.3 0-.6-.3-.9-.3-.3 0 .3.3 0 .6h-.6s-.3 0-.3.3v.3c.3 0 .3.3.3.3 0 .3-.3 0-.6 0 0 .3-.3.6-.3.8 1.1.2 1.1-.1.8-.1z"/><path fill="#CF731C" d="M365.9 113.3h.3s.3.3.6 0c0-.3-.3-.8-.6-.8s-.3 0-.6.3c0 .5.3.5.3.5z"/><path d="M366.7 117.5c-.3 0-.3-.3-.9-.3-.3.8.9.8.9 1.4v-.6c.3-.2.3-.5 0-.5zM365.6 114.1c.6-.3.3-.6 0-.8 0 0-.3 0-.3-.3s-.3 0-.3 0c-.3.3 0 .3 0 .3.3.3.9.3.6.8-.3.3-.3.3 0 0zM365.3 111H366.2s.3 0 .3-.3c-.3 0-.6 0-.9-.3-.3.6-.6-.3-.9 0 .3.3 0 .9.6.6zM369.5 109h.3v-.3h.3v-.3c-.3 0-.6.3-.9 0 .3.3.3.6.3.6zM367.3 113.8c.3 0 .6 0 .9-.3-.3 0-.6 0-.6-.3h-.3l-.3.3c0 .1 0 .3.3.3zM368.4 112.4c-.3 0-.3-.3-.6 0-.3 0-.3 0-.9.3.6.3.9 0 1.4.3.1-.3.1-.6.1-.6zM358.5 114.1c.3 0 .6.3.9.3-.3-.3-.3-.8-1.1-.8.2 0 .2.2.2.5zM368.1 118.4s0 .3 0 0c0 .6.3.6.6.6v-.3c-.3-.3-.3-.3-.6-.3zM369.8 108.2s0 .3 0 0c0 .3 0 .3 0 0 0 .3 0 .3 0 0 0 .3 0 0 0 0zM367.5 118.4c-.2.3 0 .3 0 0 0 .3 0 0 0 0zM367.5 118.7zM363.6 113s.3 0 0 0v-.3.3zM361.3 114.7zM357.1 108.7zM364.4 115c-.3-.3-.3.3-.6 0v.3l.3.3c.3-.1.3-.1.3-.6.3.3.3 0 0 0 .3 0 .3 0 0 0zM374.9 118.1zM356.2 117c.3-.3.3-.6 0-.8 0 .3-.3 0-.6.3-.3-.6-1.1-.6-1.4 0-.3.3.3.6 0 .8-.3.6.3.8.3 1.1h.3v-.3c.3 0 .6.3.9.3V117.5c.5-.3.5-.5.5-.5zm-1.7.5h.3c0 .3 0 0-.3 0zm.6-.8zM357.6 117.8c0 .3.3.3 0 0 .3.3.3 0 .9-.3-.6.3-.9 0-.9.3zM360.2 117.2c.3 0 .3 0 0 0 .3-.2.3-.2 0 0 0-.2 0-.2 0 0zM360.2 117.2zM344.6 125.5c.3.3-.3.3-.3.6h.6V125c-.3 0-.6.6-.9 0-.3 0-.3.6-.6.3 0 .3.3.3.3.6h.3c.3-.4.3-.7.6-.4zM345.2 126.6c-.3 0-.6-.3-.9-.3 0 0-.3 0-.3-.3 0 .3.3.6.6.8.3 0 .6 0 1.1.3 0-.5-.2-.5-.5-.5zM370.7 133.4 370.7 133.4s0 .3 0 0zM370.7 133.4zM371.2 132.5zM359.9 124.9v-.3h-.3v.3s.3.3.3 0zM360.8 126.6c-.3 0-.3 0 0 0-.3 0-.3 0 0 0zM358.8 124.3zM358.5 124.6zM360.5 126.9c-.6 0-.9-.3-1.1 0 .3 0 .6.3 1.1.3v-.3zM377.5 125.5c-.3 0-.3-.3-.6-.3l-.3.3c.3 0 .3-.3.9 0 0 .2 0 .2 0 0zM377.5 124.3c0 .3 0 .3 0 0-.3 0-.6 0-.6-.3v-.3c0-.3-.3-.3-.6 0h-.3v.3s.3 0 .3.3c.3 0 .6.3 1.2 0 0 .3 0 0 0 0zM377.5 124.6zM349.4 120.1c-.3 0-.3 0 0 0zM364.4 120.1c-.3-.3-.3-.3-.3-.8-.2.8-.2.8.3.8zM370.4 135.9c0 .3 0 .3 0 0 .6.3.6.9.9 1.1.2-.5-.1-.8-.9-1.1zM371.2 137.4zM369.8 136.2zM376 125.7zM376.9 126.3zM375.8 125.5zM371.2 121.8h-.3c.1 0 .3.3.3 0zM371.8 121.5s0 .3 0 0c0 .3 0 .3 0 0 0 .3 0 .3 0 0 0 .3 0 0 0 0zM371 121.8zM370.4 120.9zM370.4 120.9zM379.5 129.1c-.3 0-.3 0-.3.3s.3.3.3.3c.3 0 .9 0 .3-.6l-.3-.3c0 .1.2.3 0 .3zM379.5 128.9zM378.9 129.7v-.3c-.3 0-.3 0 0 .3-.3 0-.3 0 0 0zM349.4 123.8s-.3 0 0 0c-.3.2 0 .2 0 0zM363.3 121.5c-.3 0-.3 0 0 0-.3 0-.3 0 0 0-.3 0 0 0 0 0zM360.8 123.2s-.3 0 0 0c-.3.3-.3.3 0 0 0 .3 0 .3 0 0zM367.8 139.3zM364.4 137.9s0-.3 0 0zM361.3 107.3c.3.3.9.6.9 0h.3v.3c-.3.6.9.6.9 1.1 0 0 .3-.3.3 0l.3.3c0-.3-.6-.6-.6-.8h.9c0-.3-.3-.6-.6-.6s-.9-.3-1.1-.6l-.3-.3c0 .3-.3.6-.6.3h-.3c0 .3-.3.3-.6.3 0-.3.5-.3.5 0zm.3-.5zM362.5 106.2v-.3h-.3c0 .3 0 .3.3.3zM348.3 108.2c.3 0 .6 0 .9-.3-.3 0-.6.3-.9.3zM347.7 108.5c0-.3-.3 0-.3 0h.3zM339.8 115.5zM323.4 125.2c0-.3 0-.3-.3-.3 0 .3 0 .6.3.3 0 .3 0 .3 0 0zM368.1 117.8s0 .3 0 0h.3c0 .3 0 0-.3 0 .3 0 .3 0 0 0zM371 118.9v-.3c0 .1-.3.1 0 .3 0-.2 0-.2 0 0zM360.2 112.7v-.3.3zM370.4 109.6h-.3c0 .3 0 .3.3.3h.6c-.3-.3-.6-.3-.6-.3zM370.1 109c.3 0 .3.3.6 0 0-.3 0-.3-.3-.3 0 .3 0 .6-.3.3zM374.1 120.6c-.3-.3-.3-.6-.9-.3-.3.3-.3.3-.3.6s.3.3.9 0c-.3 0-.6 0-.3-.3 0-.2.3.3.6 0zM371.8 120.1c0 .3.3.6.9.3 0-.3-.3-.3-.3-.3-.3-.3-.6-.3-.6 0zM372.9 120.4c-.3.2-.3.2 0 0-.3.2 0 .2 0 0zM372.6 120.6zM351.1 113.3s.3-.3.3 0v.3c0 .3.3.3.3.3h.6c.3-.6.9-.8.9-.3.3.8 1.1.3 1.4.8 0 0 .9.3 1.1 0 0-.3-.6-.3-.6-.3.3-.3.6 0 .9 0 .3-.3 0-.3-.3-.6.3-.8-.3-.6-.9-.6h-.3l-.3.3h-.3V114.1c-.3 0-.3 0-.3-.3s0-.6-.3-.8h-1.1s-.9 0-1.1-.3h-.6c0 .3-.3.6-.3.8v.3c.3.3.3.3.6.3-.3-.5 0-.5.3-.8zm3.4 0c.3 0 .3 0 .3.3.3.3-.3.3-.3.3 0-.3-.3-.3 0-.6zM353.4 110.2c.3 0 .3.3.3.3.3.3.3 0 .6 0 0 0 .3 0 .3-.3s0-.6-.3-.6 0 .3-.3.6c-.3-.3-.6-.8-1.1 0 0 .3-.3 0-.6 0s0-.3 0-.3c.3-.3 0-.3 0-.6h-.3c0 .3-.6.3-.6.8.3 0 .6.3.9.6h.6l.3.3c.2-.3-.1-.6.2-.8zM342.9 119.2h.6c-.3-.3-1.1-.3-.3-1.1-.6.3-.9.3-.9-.3 0-.3-.3-.3-.3-.3h-.3c0-.6-.3-.6-.9-.6v-.3c-.3 0-.3-.3-.6-.3h-.3v.3s.3 0 .3.3c0 .6.3.6.9.6 0 .3 0 .3-.3.3s-.3 0-.3.3.3.3.3.3h.3v.3h-.6c0 .3.6.3.6.6s.6 0 .6.3h.3c.3-.4.6-.1.9-.4zm-2-1.1s0-.3.3-.3.6.3.6.6 0 .3.3.3c0 0 .3 0 .3.3s-.3.3-.3.3c-.6-.4-.9-.6-1.2-1.2zM339.5 116.7 344.3 120.1c.3 0 .3.3.9.3 0-.3 0-.3-.3-.3-.3-.3-.6-.3-.9-.6h-.3v.3c.1 0 .3.3.6.3zM335.8 116.1c0 .3 0 .6.3.6s.6 0 .6.3l.3-.3c-.3-.3-.6-.3-.9-.6 0 0 0-.3-.3 0zM342.9 120.4c.3 0 .3 0 .6-.3v-.3l-.3-.3c-.6.3-.3.6-.3.9zM343.5 120.1zM342.9 119.8zM342 120.4c-.6 0-.3.3-.3.3v.3h.3v.3c.3 0 0-.3 0-.3v-.3-.3c.3 0 .3 0 0 0 .3 0 .3.3.3.3h0c.3-.6 0-.6-.3-.3zM342.9 120.4zM339.5 118.1c0 .3 0 .3 0 0zM343.2 122.6s0 .3 0 0h.3c0 .3 0 0-.3 0zM338.6 114.7h-.3c.3.3.3.3.3 0zM342.9 119.8zM342.6 119.5c.3 0 .3 0 0 0 .3 0 .3 0 0 0 .3 0 .3 0 0 0zM345.5 123.2zM332.4 116.4c.6 0 .9.3.6.8v.6c.6-.6.9-.3 1.4 0-.3-.3.3-.8-.3-.8v-.3c0-.3 0-.3.3-.3s.6 0 .9.3h.6v.3c0 .3 0 .6.3.6 0-.3 0-.3.3-.6 0-.3-.3-.3-.3-.6h-.3v-.3c0-.3-.3-.3-.6-.3 0 0-.3 0-.3.3-.3 0-.6-.3-.3-.6 0-.3 0-.3-.3-.6v.3c-.3 0 0-.3 0-.3h-.3v.3c0 .3 0 .3-.3.3 0 0-.3 0-.3.3 0 0 .3 0 .3.3 0 0 .3.3 0 .3 0 .3-.3 0-.3 0-.5-.6-.8-.9-1.1 0v-.3.3c-.3-.3-.3 0 0 0zM335.8 118.7c-.3 0-.6-.6-.9-.3-.3.3-.6.3-1.1.3.3 0 .6.3 1.1.6.3 0 .6 0 .9-.3v-.3zM338.4 121.2c0-.3-.3-.8-.3-1.1 0-.3-.3 0-.3 0-.3 0-.3.3 0 .3-.3.5 0 .8.6.8zM335.2 119.8s.3.3.6.3v-.3h-.6zM335.2 119.8zM333.5 117.8zM334.7 117.8zM335.8 117.5c0 .3 0 .3 0 0 0 .3 0 0 0 0zM326.5 121.5c-.3 0-.3 0 0 0-.3 0-.3 0 0 0-.3 0 0 0 0 0zM322.8 129.7c0-.3-.3-.3 0 0-.3 0-.3 0 0 0zM332.7 125.2z"/><path d="M334.7 115c.3.8.6.8 1.4.8-.6-.3-.6-.3 0-.8v.3H337l.3-.3.3.3v.3c0 .3 0 .6.3.8 0-.6.3-.8.9-1.1v-.3-.3c-.3 0-.3.3-.9.3 0-.3 0-.3-.3-.3 0 0 .3 0 .3-.3h.3s.3.3.9.6c.3.3.9.3 1.1.6 0-.3-.9-.8-.3-1.1.3.6.9.3 1.1.3s.6.6 1.1.6c0 0 .3 0 .3.3s-.3.3-.3 0c-.6-.3-1.1.3-1.7-.3 0 .3.3.6.3.8.3.3-.3.3-.3.6.3 0 .9.6 1.1-.3 0 .6.6.3.9.6 0 0-.3-.3-.3-.6.3 0 .6-.3.6-.3.6.6 1.1.8 1.7.6.3 0 .9 0 1.1.3.3.3.6 0 .9 0h.6s.3 0 .6.3v.6h.3s.3 0 .3.3v.6H349.1c.3-.3.6-.3.9 0h.3c0 .3-.9-.6-.3.3-.3 0-.3-.3-.6-.3h-.3s-.3-.3-.3 0c.3.3.3.3.9.3.6 0 .9 0 .3.6-.6-.3-1.1-.3-1.4-.8 0 .3.3.8.3 1.1-.3-.3-.6-.8-.9-.8s-.3 0-.3.3c.3 0 0 .3 0 .3l.6.6c.3.3.6.8.9 0 0 0 .3-.3.6-.3-.3.3-.6.6-.3.8 0 0-.3.6-.6.6 0 .3 0 .6.3.6s.6 0 .9-.3c.3-.3-.3-.3 0-.3s.9 0 1.1.3c.6.3-.3.8 0 1.1.3-.8.9-.8 1.4-1.1-.3-.3-.9-.3-.9-.6s-.3-.6-.6-.3c-.6.3-.3 0-.3-.3h-.3s-.3 0-.3-.3v-.3c.3 0 .6.3.9 0 .3-.3.9 0 1.1.3 0 0-.3.3.3.3.3 0 .3-.3.3-.3-.3-.6 0-.6.3-.6h.3c-.3-.3-.6-.8-.3-1.4.3 0 .3.6.6.3.6 0 .6.3.6.6v.3c0 .3.3.3.3.3h.3c0-.3-.3-.3-.3-.6s.6.3.6-.3v-.3c-.3 0-1.1-.6-1.1-.8 0-.3.3 0 .3 0 0 .6.3.3.6.3h.3c0-.3.3-.3.3-.3-.3 0-.3 0-.3-.6 0-.3 0-.6-.3-.8 0-.3-.3-.3-.6-.3l.3-.3c.3 0 .6-.3.9 0 0 0 .3 0 .3-.3s0-.3-.3-.3c-.9.3-1.4-.3-2-.6 0 .3-.3.6-.3.8.6-.3.9-.3 1.1.3-.3.3-.6 0-.9.3 0 0 0 .3.3.3l-.3.3v-.3c-.3-.3-.3 0-.6 0 0 0-.3.3 0 .3 0 .3.6.3.3.6h-.6c-.3 0-.6-.3-.9-.3-.3 0-.3-.3-.3-.8h-.3c-.3.3-.3.3-.3-.3 0 0-.3 0-.3-.3-.3.3 0 .3 0 .6-.3-.3-.3-.8-.9-.3h-.3-.3v.6s.3 0 .3.3-.3.3-.3.3c-.3 0-.3 0-.3.3h-.3c-.3 0-.6-.3-.3-.8 0 0 0-.6-.3-.6s-.3-.3-.3-.3c0-.3 0-.3.3-.3v-.3h-.3v-.3-.3c.3 0 .3 0 .6.3v-.6c.6.3 1.1.3 1.4.6 0-.3-.6-.3-.9-.6 0 0-.3 0 0-.3 0 0 .3-.3.3 0 .3.6.3-.3.6-.3 0-.3-.3-.3-.3-.3.3-.6.6.3 1.1 0 0 0 .3-.3 0-.3s-.6-.3-.9-.8c-.3-.3.3-.3.6-.3h.3v-.3l-.3-.6s-.3 0-.3-.3H350.6c-.3 0-.3-.3-.3-.3s0-.3-.3-.3h-.6v.3h-.3c-.3-.3-.3-.6-.3-.8-.9.3-1.7.6-2.6.8 0 0 0 .3-.3.3h-.3v.3c0 .3 0 .8-.6.8 0-.3.3-.3.3-.6-.3 0-.6.3-.6.3 0 .3-.3.3-.3 0-.6.3-1.1.6-1.7.8H343.6v-.3c.9 0 1.1.8 1.7 1.4-.9 0-1.1-.6-1.4-.8-.3.3-.3.6 0 .8.3 0 0 .3-.3.3s-.9.3-1.1 0c.3-.6 0-.8-.6-.8H341c0 .3.3.3.3.3.3 0 .3.3.6.3.3.3.6.8.6 1.1.3 0 0-.3.3-.3s0 .6.6.6c.3 0 .3.3.3.8-.3-.3-.3-.3-.6-.3 0 0-.3-.3-.6 0s-.9 0-.9-.3 0-.6-.3-.3h-.3c-.6-.8-1.1-.3-1.7 0 .3-.3.6-.6 0-.8l-1.7.8c-.3 0-.3.3-.6.3v.3s0 .3-.3.3c0 0-.3 0-.3-.3 0 0-.3 0-.3.3-1.4-1.3-1.4-1-1.4-.7zm15 5.6zm3.4-3.6c0-.3 0-.3-.3-.6 0 0 .3.3.3.6zm-2 0c.3 0 .3 0 .3.3 0-.3 0-.3-.3-.3zm-1.7 2.2c-.3 0-.3 0 0 0zm.6-3.1c.3 0 .3 0 0 0 .3.3.3.3 0 0zm0 3.1c-.3-.3-.3-.3-.6-.3.3-.2.3-.2.6.3zm-2.9-2.8h1.2c0 .6 0 .6.6.6.3 0 .6 0 .9.3-.3 0-.9 0-1.1.3-.3.3-.6 0-.9 0-.3-.3-.3-.6-.6-.8-.1-.1-.1-.1-.1-.4zm-.5-5.1c.3-.3.6 0 .9 0 .3 0 .3.3 0 .3-.3.3-.3.6-.9.3v-.6zm-2 2.3c.3-.3.3-.3.9 0-.6 0-.9.2-.9 0zm0-1.2c.3.3 0 .6.6.6l-.3.3c-.3-.3-.6-.3-.9-.8.3-.4.6.2.6-.1zm-2.3-.5zm0 3.1zm-4.2-1.2s0 .3 0 0c0 .3 0 .3 0 0zM344.3 109.6h-.3c0 .3 0 .3.3 0-.3.3-.3 0 0 0zM351.7 107.9h.6l.3.3c0 .3.3 0 .3 0h.6c0-.3.9-.3.3-.6-.3-.3-.9-.3-1.4 0-.3.3-.3 0-.6 0s-.6 0-.9.3h.8c-.3 0-.3 0 0 0zM355.1 107.6s.3 0 .3-.3c.6-.6 0 .6.3.3 0-.3.3-.3 0-.6h-.3c-.3 0-.3.3-.3.6-.3 0-.3-.3-.3-.3l-.3-.3c-.3 0-.6 0-1.1.3v.3c.8-.3 1.4-.8 1.7 0z"/><path d="M354.2 107.6c.3 0 .3 0 0 0 0-.3-.3-.3-.3 0 .1 0 .1.3.3 0zM352.8 109.9c0 .3 0 .3 0 0 0 .3 0 .3 0 0 .3.3.3.3 0 0zM350 108.5c.3.3.9.3 1.1 0v-.3l-.3-.3s-.3 0-.3.3c0 0-.3.3-.3 0v-.3h-.3.3-.2.3c-.3 0-.6.6-.3.6zM350.8 115.5v-.3c-.3-.3-.6-.3-.9-.3 0 .3.6 0 .3.3.1.3.3.6.6.3zM346.6 113.3zM347.1 115.3c0-.3-.3-.3-.3-.8-.3 0 0-.3-.3-.3.1.5.4.8.6 1.1-.2 0-.2 0 0 0zM345.7 119.2c-.3 0 0 .3 0 .3 0 .3.3.3.6.3v-.3s-.3 0-.3-.3h-.3zM346.3 118.9c-.3 0-.3 0 0 0-.3 0-.3 0 0 0-.3.3-.3.3 0 0zM334.7 115.5s-.3 0 0 0c-.3.3 0 .3 0 0 .3.3.3.3 0 0zM334.7 115.8zM334.7 115.8c.3.3.3.3 0 0 .3.3 0 0 0 0zM335 116.1zM335 115.8c0 .3 0 .3 0 0 0 .3 0 .3 0 0 0 .3 0 .3 0 0zM335 116.1z"/><path fill="#D07F1B" d="M339.5 111.6 382 135.9c-.3-.3-.6 0-.9 0 .6.3.6.3.9 0 0 0 .3 0 0 0 .3-.2 0-.2 0 0zM367 106.5h.6c-.3-.3-.9-.3-1.4-.6 0 0 0 .3.3.3-.1.3.2.3.5.3zM375.5 117.5c-.3 0-.3 0-.6.3.3 0 .3.3.6.3v-.6zM377.2 123.8s-.3 0-.6-.3c0-.3.3 0 .3-.3-.3 0-.3 0-.6-.3 0 0-.3.3-.3 0s-.3-.3-.3 0c-.3.6-.6 0-.9-.3-.3.3-.3.3-.6 0-.6-.3-1.1 0-1.1.3.3 0 .3 0 .6.3.3 0 .9-.3.9.3h.3c.3 0 .9 0 .9.8h.3v-.3-.3c0-.3 0 0 .3 0h.6v.3c0 .3.3.3.6.3v.3h.3s.3 0 .6.3l-.3.3c0-.3-.6 0-.3-.6h-.9c0 .3.3.3.3.6.3 0 .3.3.6.3 0-.3.3-.3.3 0 .3.3.6.3 1.1.3-.3-.6-.6-1.1-.9-1.7-.6-.1-.9-.1-1.2-.3zM367 120.6c.3-.3-.3-.3-.3-.8h.3c.6 0 .9.8 1.4 0-.6 0-.9-.3-1.1-.8-.3-.3-.6-.3-.6 0-.3.3-.3.3-.3 0 0 0-.3 0-.3-.3-.3-.3-.3.3-.6 0 0-.3.3-.3.3-.3 0-.3-.3-.3-.3-.6 0 .3-.3 0-.3 0-.3.3-.9.6-1.4.3-.3.3.3.3 0 .6s-.6.3-.9 0c0 .8.9.8.9 1.4-.9 0-.9-.8-1.4-1.1.6 0 .6-.3.6-.6h-1.2v.6h.3s.3 0 .3.3c0 0 .6 0 .3.3s0 .3.3.6.9.3 1.1.6h.3c.3-.6.9-.8 1.4-.8.3 0 .3 0 .3-.3s-.3-.3-.3 0h-.9c0-.3 0-.6.3-.8.3.3 0 .8.6.6.3 0 .9 0 1.1.6h-.6v.6c.3.3.3 0 .6 0 .6.3-.3.3 0 .6-.2-.1.1-.4.1-.7zm-2.6-1.4c0 .3 0 .6.3.8-.8.1-.8.1-.3-.8zM347.1 122.1s.3 0 0 0c.3.3.3.3.6.3l.3-.3h.6l.6.6c.3.3.6.3.9.6v-.3h.3v.3s.3-.3.3 0c.6.6.9-.3 1.4-.3 0-.3.3-.3.3-.3-.3.3-.3 0-.3 0v-.3h-.6c-.3.3-1.1.3-1.4 1.1-.3-.6.6-.8 0-1.1-.3-.3-.9 0-1.1-.3 0 .3.3.3 0 .3s-.6.3-.9.3c0 0-.3-.3-.3-.6 0 0-.3-.3-.3 0h-.4c-.2-.3-.2 0 0 0z"/><path fill="#D07F1B" d="M353.4 124v.6c.6.3.6-.3.9-.8.3 0 .3.3.6.3.3-.3 0-.3-.3-.6-.3 0-.9.3-.3-.6v-.3c-.3 0-.9 0-1.1.3 0 0-.3.3-.3 0l-.3-.3h-.3l-.3.3s-.3 0-.3-.3c0 .3.3.8-.3.8v.3c0 .3.3.3.3.6 0 0 0-.3.3 0l-.3.3v.6h-.3v.3c-.3.3 0 .3 0 .3l.3.3s.3-.3 0-.3c-.3-.8.3-.6.6-.6 0 0 .3.3.3 0s0-.3-.3-.3c-.3-.3-.3-.6-.3-.8h-.3c-.3 0 0 .6-.3.3 0 0 0-.3.3-.6.3 0 .3 0 .3.3v.3s.3 0 .3.3c.3.3.6.3.9.3-.1-1 .2-1 .2-1zM371 121.9h-.3s.3-.3 0-.3-.3 0-.3.3h-.3s-.3-.3-.3-.8c-.3.6-.6.3-.9.3 0 0 0-.3.3-.3s.6-.3.6-.6-.3-.3-.6-.3c-.3-.3-.3.3-.6.3-.3-.3.6-.8 0-1.1v.6c-.3 0-.6 0-.6-.3v-.3c-.3-.8-.6-.8-1.1-.3v.6c-.3-.6-1.1-.6-.9-1.4-.3-.8 0-1.7.9-1.7.6 0 .9.3 1.1.8 0 .3.3.3.6.3-.3-.3-.3-.8-1.1-.8.6-.3.6-.6.3-.8 0 0-.3-.3 0-.3 0-.3.3 0 .3 0h.3s.3.3.3 0c-.3-.3-.3-.3-.3-.6s.3-.3.3-.8v-.6h-.3c-.3-.3-.9 0-1.4-.3.3 0 .6-.3.9-.3h.6s.3 0 .3.3v.6h.3s0-.3.3-.3v.6c0 .3.3.3.3.3s0-.3.3-.3c0-.3.3-.3.6-.3h.6V113.2s.3 0 .3-.3v-.6h1.7c-.3-.6-.9-1.1-1.1-1.7h-.3s0 .3-.3.3c0 0-.3 0-.3-.3 0 0-.3-.3-.3 0-.3.3-.3.6 0 .8l.3-.3c0 .6-.3.3-.3.3h-.3c0 .3 0 .3-.3.3 0 0-.3 0-.3-.3V112.3h-.3c0-.3 0-.8-.3-.8H370.3l.3-.3v-.3c0-.3.3-.8-.3-.8-.3 0 .3-.3 0-.8h-.3s-.3 0-.3-.3.3-.3.6-.3c.3.3.6 0 .9 0-.3-.3-.6-.6-.9-.8-.3 0-.3-.3-.6-.3 0 0-.3 0-.3.3-.3.3-.6 0-.9-.3 0 0 0-.3-.3-.3s-.3.3-.3.3c-.3.3-.9.6-1.1 1.1.3 0 .3.3.3.3-.9.6.3.8.3 1.1.3-.6.6 0 .9 0 0 .6-.3 0-.6.3.3.3 1.1 0 .9.8 0 .6-.3.3-.9.3 0 .3.3.6 0 .6 0-.3-.9-.6-.3-1.1h-.3v.3s0 .3-.3.3h-.3c-.9.6-.9.6-1.1.6-.6.3-.3-.3-.3-.3.3 0 .6.6.9 0-.3 0-.3-.3-.3-.3h-.3c-.3 0-.6-.3-.9-.8-.9 0-.6.3-.3 1.1-.9-.8-1.4 0-2.3 0 0 0-.3 0-.3.3 0 .8-.6.8-1.1.6-.6-.3-1.1-.3-1.7-.8.6 0 .9 0 .6-.6.3 0 .3.3.6.3s.3 0 .3.3 0 .3.3.3c0 0 .3-.3 0-.3-.3-.3-.3-.6-.3-1.1-.9.6-1.4.3-2 0 0-.3.3-.3.3-.6-.9-.8-1.7-.3-2.5 0h-.6c0 .3-.3.3-.6.3h-.9c.9.3 1.4.8 2.3.3 0 0 .3-.3.3 0s-.3 0-.3 0v.3h.3c0 .3 0 .3-.3.6-.3 0-.3-.6-.9 0h.3l.3.3c-.3 0-.3-.3-.3-.3v-.3h-.9l-.3-.3h-.3c.3 0 .3.3.3.6s0 .3-.3.3-.3.3-.6 0c0 0 0-.3-.3-.3s0 .3 0 .6l-.3-.3h-.3-.3v.3h-.3c-.3 0-.9 0-.9-.3-.3-.3.3-.3.3-.6-.6 0-.9.3-1.1.3s-.3-.3-.3-.3-.3.3-.3.6v.6c0 .3 0 .6.3.6s.6-.3.6-.8v-.3.3c.6.3 1.4 0 2.3.6 0 0 .3.3.3 0s0 0 .3 0-.3.8.6.6h.3c0 .3 0 .6.3.8h.3c.3 0 .9-.3.9.6.3 0 .6.3.3.6s-.6 0-.9 0c.3.3.6 0 .6.3-.3.3-.9.3-1.1 0-.3-.6-1.1 0-1.4-.8 0-.3-.6-.3-.9.3h-.6 0s-.6 0-.3-.3c0 0 .3 0 0-.3 0-.3-.3 0-.3 0-.3 0-.6.3-.9.3 0 0-.3 0-.6-.3-.6.3-1.1-.3-1.4-.3 0-.3-.3-.3 0-.6h.3s0-.3-.3-.3-.6-.6-1.1 0c0 .3.3 0 .3.3-.3 0 0 .8-.6.3h-.3v.3c.3.3.6.3.9.6-.6-.3-1.1-.3-1.4-.6v.6h1.5c.3 0 0 .6.6.6 0 0 .3 0 0 .3 0 0 0 .3-.3.3h-.3c.3.3 0 .8-.3.8h.3s.3.3.3 0c.3-.6.6-.3.9.3v-.6c-.6 0-.6-.3 0-.8-.3.3.3.3 0 .8 0 0 .3 0 .3.3s0 .3.3.3h.3c.3-.3-.3 0-.3-.3.3 0 .6 0 .9.3v.3c-.3.3-.3 0-.6 0 0 .3.3.6.3.8.3.3.6.3.9.3 0 0 .6.3.6 0 .3-.3 0-.3-.3-.6v-.3c.3-.3.3-.3.6 0v.3l.3-.3c-.3 0 0-.3-.3-.3.3-.3.6-.3.9-.3-.3-.6-.6-.6-1.1-.3 0-.3.3-.6.3-.8.6.3 1.1.8 2 .6.3 0 .3.3.3.3 0 .3-.3.3-.3.3-.3-.3-.6 0-.9 0l-.3.3c.3 0 .6.3.6.3s.3.6.3.8c0 .3 0 .3.3.6 0 .3-.3.3-.3.3h.3c0 .6.6.3.9.3-.3-.3-.6-.6-.3-1.1 0 0-.6-.3 0-.8.3-.3 1.1-.3 1.4 0 0-.3.6 0 .6-.3-.3 0-.3-.3-.3-.3v-.6c-.3 0-.6 0-.3-.3s.9-.3 1.1-.3.6.3.9.6v.3h-.3c0-.3-.3-.3-.3 0 0 0 0 .3.3.3s.6.3.9.3v-.3c0-.3-.9-.6 0-.6 0 0 0-.3-.3-.3-.9 0-.6-.3-.3-.8v-.3c-.3 0-.3-.6-.6-.6s-.3 0-.6.3c-.3 0-.6-.3-.9-.6 0 0 0-.3-.3-.3s0-.6.3-.8c0 0 0-.6.3-.3.6.3.3 0 .3-.3h.3l-.3.3v.3h.3c0-.3.9-.3.3-.6 0 0 0-.3.3-.3s.3.3.6.6h.6c0-.3 0-.6-.3-.6-.6 0-.9-.6-.3-.8v-.3-.3c.3 0 .3.3.3.6s-.3.3-.3.3c.3 0 .3.3.9 0l.3-.3v.6c.3 0 .3-.3.6-.3h.9s.6.3.9.3c0-.3 0-.3.3-.3h.6c.3-.3-.3-.3 0-.6.3 0 .6 0 .9.3.3.3.3.6.6 1.1.3-.3.3-.8.6-.3 0 0 .3.3.6.3.6 0 .9.6 1.1.8.3 0 0 .3-.3.3 0 0-.3.3-.3 0 0-.6-.3-.6-.6 0 0 0-.3.3-.3 0 0 0-.6-.8-.9 0h-.3v-.3c.3-.3 0-.6 0-.6-.3 0-.6-.3-.3.3 0 0-.3 0-.3-.3h-.3c0 .3 0 .3.3.3s.3.3.3.3c-.6.3-1.1.3-1.4.6 0 0-.3.3 0 .3v.3c0-.3-.6.6-.6-.3 0 0 0-.3-.3-.3s-.3 0-.6-.3c-.3 0-.6 0-.9-.3-.3.3-.3.3 0 .6.6-.3.9.3 1.1.8-.3-.3-.6-.3-.9-.3l.3.3c.6 0 1.1.3.9 1.1 0 0 .3 0 .3.3 0-.3.3-.6.9-.6.3 0 .6 0 .9-.3.3 0 .3.3.6.3s.3.3.6.3 0 .3 0 .3l.3.3h1.8c.3.3.6.6.3 1.1 0 .3.9.3 0 .3.3.3.6 0 .9.3-.6 0-1.1-.3-1.1-.6s-.3-.3-.6-.6l-.3.3h-.3.3c.3.3 0 .6-.3.6s-.3.3 0 .3c.6 0 1.1 0 1.4.3.3.3.3-.3.6 0h.6s-.3-.3 0-.3.6 0 .9.3c.3 0 .3 0 .6.3s.3 0 .3-.3c0 0-.3 0-.3-.3v.3s.3 0 .3.3c0 .6.3.3.6 0 0 .3 0 .6.3.6l.3.3v.3c0 .3-.3.3-.3.3.6.3 1.7.3 1.7 1.4h.6c.3-.3.9-.6 1.1 0h.3v-.3c-2.2.7-2.5.4-3.3.1zm-1.8-11.6c0 .3 0 .3 0 0 0 .3 0 .3 0 0zm.6-1.1c0 .3 0 .3 0 0zm-2.8.5c.3 0 .3-.3.6 0-.3.3-.6.3-.6 0zm-13 9.1zm4.2-7.9zm0 0s-.3 0-.3-.3 0-.3-.3-.3-.3 0-.3.3v.6c0 .3.3.6-.3.6-.3 0-.3-.3-.9-.3 0-.3.3-.3.3-.3 0-.3.3-.6 0-.8.3 0 .3-.3.3-.6v-.3h.6c1.2.5.9 1.1.9 1.4zm5.7 3.1s-.3 0 0 0c-.3 0-.3 0 0 0-.3 0-.3-.3 0 0 0-.3 0 0 0 0zm3.4.3s.2 0 0 0c.3.3.6.3.9.3-.3.3-.6.3-.9.3v-.3c-.3 0-.3-.3 0-.3zm-1.7-.3c0-.3.3-.3.6-.3s.9.8.6.8c-.3.3-.3 0-.6 0h-.3c0-.2-.3-.2-.3-.5zm-.9 2.3c0 .3-.3.6-.6.3l-.3-.3v-.3c.3.5.6 0 .9.3 0-.3 0-.3 0 0 0-.3 0 0 0 0zm0-1.7s-.3 0 0-.3c0 0 .3-.3.3 0s.3 0 .3.3c.3 0 .9.3 0 .8 0 0 0 .3-.3.3.6-.6 0-.9-.3-1.1zm.6 1.7c0-.3.3-.6.6-.8.3 0 .3 0 .6-.3.3 0 .3-.3.6-.3 0 .6.6.8.6 1.1l-.3-.3c-.3-.3-.6-.3-.9-.6 0 .3-.3.3 0 .6h.3c-.3.3-.3 0-.6 0 0 0-.3-.3-.3 0v.6c-.3.2-.6.2-.6 0zm5.1 5.6zm.6.9h.3c-.1.3-.3 0-.3 0zm.8 0s0-.3 0 0c0-.3 0 0 0 0zM356.8 126.3c-.3 0 0-.3 0-.3v-.3h-.3c-.3.3-.6 0-.9.3.3 0 .3 0 .6.3-.6.6-.9.6-1.1 0h-.3-.3s-.3 0-.3.3 0 .3.3.3.6 0 .9.3c.6-.3 1.1-.6 1.4-.6.3 0 0-.3 0-.3zM357.4 126.6c.2 0 0 0 0 0zM370.4 138.8c-.6.3-.9.3-.9 0-.3.3-.3 0-.6 0h-.9c-.3 0 0-.3 0-.6 0-.6-.6 0-.6-.3h-.3c-.3.3 0 .3.3.6s.6.6.6 1.1H370.6l.3-.3c-.2-.2-.2-.5-.5-.5zM350 128.9c-.3 0-.3 0-.3-.3 0 .3-.3.3-.6.3s-.6 0-.6-.6c-.3 0-.3 0-.3-.3v-.6c0 .6-.6.6-.9.6 0 .3.3.6.6.8.3 0 .6 0 .6.3 0 0 .3 0 .3.3v.3c-.6.3 0 .6 0 .6.3 0 .3.3.9.3-.3-.3-.6 0-.9-.6.3 0 .6 0 .6-.3s0 0 .3 0l.3.3.3-.3c0-.6-.3-.6-.3-.8zM346.3 125.2v-.6s0-.3-.3-.3c-.3.3-.6.3-1.1.3-.3 0-.3 0-.3-.3s0-.3-.3-.3h-.3.3c-.9 0-.6.3-.3.8.3.6.6 0 .9 0v1.1h.3s.6 0 .6-.3v-.3c.2-.1.2.2.5-.1zM349.4 123.8l-.3-.3c-.3 0-.3-.3-.3-.3s0-.3-.3-.3h-.3s-.3-.3-.6-.3c-.3.3.6.3.3.6-.9 0-1.1 0-1.4.6.3 0 .6.3 1.1 0 .3 0 .3 0 0 .3s0 .3 0 .3c.3-.3.6-.3.9 0 .3 0 .9.3.9.3.6-.7 0-.4 0-.9zm-.3 0s.3 0 0 0c.3 0 .3 0 0 0 .3 0 .3 0 0 0 .3.2 0 .2 0 0zM363.6 121.5h.3c0-.3-.3-.3-.3-.3h-.6s-.3.3-.3.6c0 0-.3.6.3.6 0 0-.3.3 0 .6s.3-.6.6-.3c.3 0 .9 0 1.1.3 0 0 .3 0 .3-.3s-.6-.6-.9-.8c0-.3-.3 0-.3.3h-.3c-.2-.4.1-.4.1-.7zm-.6 0c.3 0 .3 0 0 0 .3 0 0 0 0 0zM344 113.3h.3c0-.3-.3-.3-.3-.3h-.6s-.3.3-.3.6c0 0-.3.6.3.6 0 0-.3.3 0 .6s.3-.6.6-.3c.3 0 .9 0 1.1.3 0 0 .3 0 .3-.3s-.6-.6-.9-.8c0-.3-.3 0-.3.3h-.2c-.2-.4-.2-.4 0-.7zm-.5 0c.3 0 .3 0 0 0zM330.1 125.5h.3c0-.3-.3-.3-.3-.3h-.6s-.3.3-.3.6c0 0-.3.6.3.6 0 0-.3.3 0 .6s.3-.6.6-.3c.3 0 .9 0 1.1.3 0 0 .3 0 .3-.3s-.6-.6-.9-.8c0-.3-.3 0-.3.3h-.3c-.1-.7.1-.7.1-.7zm-.2 0c0-.3 0-.3 0 0 0-.3 0-.3 0 0 0-.3 0-.3 0 0 0-.3 0-.3 0 0zM355.1 120.9c-.9-.3-.9.3-.9.6.6-.3 1.1-.3 1.7-.3-.3-.3-.9-.8-.6-1.1l-.3-.3c-.3-.3-.6 0-.6 0-.3.3.3.3.3.3v.3c.4.2.4.5.4.5zM375.2 133.4l-.3-.3s-.3 0-.3.3 0 .3-.3 0h-.3l-.3-.3h-.3c-.3.6 0 .8.3.8l.3.3v-.3l.3-.3.3.3h.3c0 .1-.3-.2.3-.5 0 .3 0 .3 0 0zM354.5 128.3l-.3.3c0-.3.3-.6.3-.8v.5zM352.5 129.1c-.3 0-.3.3 0 0-.3-.3-.9 0-.9-.3-.3 0-.6 0-.6-.3 0 0 0 .3-.3.3v.3c0-.3.3 0 .3 0 .6 0 .6 1.1 1.4.6 0 .3.3 0 .3 0l-.3-.3c.1-.5.1-.5.1-.3z"/><path fill="#D07F1B" d="M355.6 124.6l.3-.3s.3.3.3 0-.3-.3-.6-.3c-.3.3-.9 0-1.1 0 .3.9.9 1.2 1.1.6zM354.8 124.3 357.1 119.5v-.8s-.3 0-.3.3 0 .3-.3.6-.3.3 0 .6c.3-.8.6-.8 1.1-.3.6.3.3-.3.6-.3-.8-.4-.8-.1-1.1-.1zM346.6 126.6c0 .6.3.6.9.8.3.3.6 0 1.1 0 .6-.8-.3-.3-.6-.6-.3 0-.9 0-.9-.6-.5.1-.5.1-.5.4zM364.7 138.2c.3 0 .3-.3.6-.6-.3-.3-.6 0-.9 0v0c-.3 0-.3.3-.3.3.3.3.3.3 0 .6 0 0 .3 0 .3.3h.6c.6-.3 0-.3-.3-.6zM347.1 129.1c.3 0 .3 0 0 0 .3 0 0 0 0 0-.3-.3-.3-.3-.6 0s-.3.3-.6.3l.3.3h1.1v-.3c.1 0 .1 0-.2-.3zM349.4 125.2s-.3 0 0 0c-.3-.8-.3-1.1-.9-.6-.3.3-.3 0-.6 0 0 .6.9.3.9.6.1-.6.1.3.6 0zM367.5 138.8s0-.3 0 0c-.3-.3-.6-.3-.9-.3 0 .3.3.3.3.9s.6 0 .9.3c0-.9 0-.9-.3-.9zM353.4 119.5c0 .3.3.3 0 0l.3.3c.3 0 .3-.3.3-.6-.3 0-.3-.6-.6-.8 0 .6-.3 0-.6.3.3.2.9.2.6.8.3 0 0 0 0 0zM357.6 119.2c.6.3.9 0 .9-.8-.3 0-.3 0-.6.3.3.2-.3.2-.3.5zM351.4 128c.3 0 .3 0 .6.3 0 0 0-.3.3-.3h.3s0 .3.3.3 0-.3 0-.3c0-.3-.3-.3-.6-.3s-.6 0-.9.3c-.3 0 0 0 0 0zM369 131.7c.9 0 .3-.6.3-.8-.3 0-.3.3-.6.3.5-.1-.3.5.3.5zM362.5 128.9v.3s0 .3.3.3h.3c-.4-.1-.4-.4-.6-.6zM354.2 128.3c-.3 0-.3 0-.6.3 0 0 0-.3-.3-.3s0 .3.3.3c.4.3.4.3.6-.3 0 .3 0 .3 0 0zM363 130h.3-.3c-.3 0 0 0 0 0zM350 128.3c.3 0 .3 0 .6.3v-.3s-.3 0-.3-.3h-.6c0 .3.3.3.3.3zM361.3 119.5s-.3 0-.3.3h.3s.6 0 .6-.3h-.6zM363.6 123.2h-.3v.3c0 .3 0 0 0 0s0-.3.3-.3c0 .3.3 0 .6 0-.3-.3-.3 0-.6 0zM350 125.2c.3 0 .3 0 0 0 .3 0 0 0 0-.3h.3-1.2c.3.3.9 0 .9.3zM375.2 134c.3 0 .3.3.6 0v-.3c-.3.3-.6 0-.6.3zM358.5 126.6h0zM372.1 128.6c0-.3 0-.3-.3-.6-.3.6 0 .6.3.6zM351.4 128.6c0-.3.6.3.3-.3h-.6c0 .3.3.3.3.3zM369 128.3c0 .8.3.3.9.3-.4-.3-.7-.3-.9-.3zM369.8 138.5c0-.3-.3-.3-.3-.3.3 0 .3.3.3.3zM365.6 137.9s-.3 0 0 0v.3h.3l-.3-.3zM369.2 138.2c0 .3 0 .3 0 0 .3 0 .3 0 .3-.3-.3 0-.3.3-.3.3zM369.5 138.2zM355.4 126.3c0 .3.2.3 0 0 .2 0 .2 0 0 0 .2 0 .2 0 0 0zM367 137.9s-.3 0 0 0c-.3 0-.3 0 0 0zM368.7 128c.3 0 .3 0 0 0z"/><path fill="#D07F1B" d="M361.9 119.8h.3c0-.3-.3-.3-.3 0zM362.2 119.5v.3-.3zM369.8 130.6v0zM365.9 120.4c0 .2 0 .2 0 0zM366.1 120.6zM358.8 119.2c-.3 0-.3 0 0 0zM372.1 128s0 .3 0 0c0 .3 0 .3 0 0 .3.3 0 0 0 0zM347.4 128.9zM348.3 125.2c-.3.3-.3.6-.6.8.6 0 .6-.5.6-.8zM365.3 137.4v0zM359.9 106.5c.3 0 .6 0 .9-.3v.3s.3-.3.6 0h.3c.3.3.3 0 .6-.3-.3 0-.3 0-.3-.3s0 0 .3 0c.9 0 .3.6.3.8.3.3.6.6 1.1.6.3 0 .6 0 .6.6h.3l.3-.3s0-.3.3-.3c0-.3-.6 0-.6-.3s.3-.3.6-.3c0-.3.3-.3.3-.6s-.3-.3-.3-.3c-.3 0-.3 0-.6-.3v.3h-.3v-.3h-.6s-.3 0-.6-.3c-.6 0-1.1 0-1.7.3 0 0-.9 0-2 .3 0 .3 0 .3.3.6-.1-.5-.1-.2.2.1zm4.2 0s0 .3 0 0c-.3.3-.3 0-.6 0 .4-.3.6-.3.6 0zm-3.1-.6c-.2 0-.2 0 0 0zM375.5 120.1c0 .3-.3.6-.6.6s-.6-.3-.6-.8c-.6-.3-.6 0-.6.3l-.3-.3c-.3 0-.3-.3-.6-.3l-.3-.3h-.6c-.3 0-.3 0-.6-.3h.6v-.3h-.3s-.3 0-.3.3v.3c0 .3.3.6.3.8-.6-.3-1.1-.3-1.1.3.3 0 .3.3.6 0 .6-.3.6 0 .6.3s.3.6.9.3c.3-.3.6-.3.9-.3v.6c-.3.3-.3.3 0 .3.6.3.9.3 1.4.3.3 0 .9 0 .9-.6 0 0 0-.3.3 0s.3 0 .6 0v-.3s-.3 0 0-.3h.6c-.3-.3-.3-.8-.3-1.1-1.2-.1-1.8-.1-1.5.5zm-3.7 0c0-.3.3-.3.3 0s.3.3.3.3c-.3 0-.6 0-.6-.3zm.8.5c.3 0 0 0 0 0zm.9.3c0 .3 0 .3.3.3-.3.3-.6.3-.9 0 0-.3 0-.3.3-.6s.6-.3.9.3c-.3 0-.6-.5-.6 0zM372.6 116.4c-.2 0-.2 0 0 0h-.3v.3h-.3c-.3-.3-.3-.8-.9-.6h-.3s-.3 0-.3.3c0 0-.3 0-.3.3h.3v.3c-.6 0-.6.3-.9.6l.3.3c.3.3.6.8.9.8.3 0 0-.6.3-.8 0 0-.3 0-.3-.3s.3-.3.3-.3c.3 0 0 .3 0 .3l.3.3c.6 0 .3.3.3.6.6.3 1.1.3 1.4.6 0-.3.3-.3.3-.6-.9.3-1.1-.3-1.4-1.1v-.4h.3c0 .3.3.3.6.3h.3v-.6h-.6v-.3zM374.4 119.2s.3 0 .3.3c0 0 0 .3.3.3v-.3c0-.3 0-.3-.3-.3s0-.3 0-.3c0-.3-.3-.3-.3-.6-.3-.6-.3-.3-.3 0 0 .4.5.6.3.9zM369.8 114.7c0-.3-.6 0-.6-.3l-.3.3c0 .3 0 .3.3.6.3 0 .3 0 .3.3h.3c-.3-.6-.3-.9 0-.9zM369.2 113.6c-.2 0-.2 0 0 0-.2 0 0 0 0 0zM352.5 117.5c0 .3.9.8 1.1.8h.3c0-.3-.6 0-.3-.6 0-.3-.6 0-.6-.3-.2-.2-.5-.2-.5.1zM362.7 117.8c0-.3-.3-.6-.3-.3-.3 0 0 .3-.3.6v.3c.6 0 .4-.6.6-.6zM355.1 117.8c0 .3 0 .3 0 0h.6c.3 0 .3.3.6 0-.3 0-.6-.3-.9-.3 0 .3 0 .3-.3.3zM356.5 115.5c.3-.2 0-.2 0 0l-.3-.3v.3h.3zM358.2 113.6v.3c.3-.1.3-.3 0-.3zM357.9 114.4c.3 0 .3 0 0 0 .3 0 .3 0 0 0 .3 0 .3 0 0 0zM354.2 119.2zM369.8 131.7c.6 0 .3-.8 1.1-.8-.8-.3-1.1-.3-1.1.8zM371.8 130.3c-.3 0-.3 0 0 0-.3 0-.9-.3-.9 0s.3.3.3.3h.3l.3-.3c-.3 0-.3 0 0 0zM369 132c0-.3 0-.3 0 0z"/><path fill="#D07F1B" d="M376.3 122.1c.3 0 .3.3 0 .3h.3v-.3s0-.3-.3-.3h-.9c.6 0 .6.3.9.3zM374.6 122.1c0 .2 0 .2 0 0l.3.3c0-.1 0-.3-.3-.3zM346.9 124.3c.2 0 0-.3 0 0l-.3-.3c0 .3.3.3.3.3zM346 124.3c.3-.3 0-.3 0-.3.3-.3.3-.8-.3-.8h-.3v.3c.6 0 .6 0 .6.8 0-.3 0-.3 0 0zM351.1 129.4s-.3 0 0 0zM351.1 129.4zM366.4 118.7zM327.6 124.3c-.6 0-.9-.3-1.4-.3-.3 0-.9-.3-1.4-.6-.3 0-.3-.3-.6-.3l-.3.3v.3s-.3 0-.3.3c.6 0 1.1-.8 1.4-.3h-.3v.3h.3c.3 0 .3.6.6.6h.3c.3 0 .9-.3.9 0s.3.3.6 0h.3s.3.3.3 0v-.3c-.1.3-.1 0-.4 0zM327.9 120.6c0-.2 0-.2 0 0v-.3l-.3-.3-.3.3c.3.1.3.1.6.3zM324.8 122.9c.3-.3.6 0 .9.3 0 0 .3.6.6.3s0-.3-.3-.6c0 0-.6-.3-.3-.3.3-.3.3-.8.9-.6.3 0 .9-.3 1.1-.3h-.3c-.3 0-.6 0-.3-.6v-.3-.3c-.9.7-1.8 1.6-2.3 2.4-.3 0 0 0 0 0zm1.7-1.4s-.3 0 0 0c-.3 0-.3 0 0 0-.3 0-.3 0 0 0zM323.6 128.6c-.3 0-.3-.3-.9-.3.6-.3.3-.6.3-1.1h-.3s-.3.3-.3 0c0-.6-.6-.3-.9-.3h-.3c0 .3-.3.3-.3.6 0 0 0 .3.3.3h.3s.3-.6.6-.3 0 .3 0 .3c.6-.3.9 0 .6.6.4.2.7.2.9.2v.3h.3c-.3 0-.3 0-.3-.3zM320.8 128zM327.3 127.4c-.3-.3-.9-.3-1.1-.8 0 0-.3-.3-.3 0-.3.6-.9 0-1.1 0 0 .3 0 .3.3.6.3 0 .6.3.9.3.3 0 .6.3.6.6h1.2c-.2-.1-.5-.1-.5-.7zM330.4 117.8h-.9l-.6.6c.3 0 .3.3.6 0h.3v.6h-.3.3v.3c0-.3.3-.3.6-.3 0 0 .3 0 .3-.3v-.3c.3 0 .3-.6-.3-.6zM328.5 121.8s0-.3 0 0c-.3-.3-.3-.3-.6-.3 0 .3.3.6 0 .8 0 0 0 .3.3.3h.6v-.3c-.6-.2-.6-.2-.3-.5zM329.6 121.5c0 .3-.3.6-.3.8v.3c.3 0 .3-.3.3-.3 0-.3.3-.3.3-.6 0-.2 0-.2-.3-.2zM329.3 122.6zM329.3 122.6zM325.6 128c0 .3-.3 0-.6.3.3 0 .3.3.6.3s.3-.3.3-.3v-.3c-.3-.3-.3-.3-.3 0zM338.4 119.8c-.3.3.6.3.3.6.3 0 .3 0 .6-.3-.7 0-.7-.6-.9-.3zM325.6 126.6s.3 0 0 0c0-.3 0-.3-.3-.3 0 .3.3.3.3.3zM326.8 128zM370.4 109s.3 0 .3.3l.3.3h.6c-.3-.3-.6-.8-.9-1.1-.3.2-.3.2-.3.5zM341.8 111.3h-.6-.3c-.3.3-.9.3-1.1.6h.6c.6 0 .9.3.6.8.3.3.9 0 1.1 0s.3-.3.3-.3c-.9-.8-.6-.8-.6-1.1zM344 109.9c-.3.3-.9.3-1.4.6.3.3.3.3.3 0 .3-.3.6-.6 1.1-.6 0 .6-.6.6-.3.8.3-.3.3-.5.3-.8zM341.8 113.8c-.6 0-.3-.6-.6-.6 0 0 0 .3-.3.3 0-.6 0-.8-.6-1.1 0 0-.3-.3-.6-.3s-.3-.3-.3-.3c0 .3-.3.3-.3.3h-.3c-.3.3-.9.3-1.1.6.6.3.3.6 0 .8.6-.3 1.1-.8 1.7 0h.3c.3-.3.3 0 .3.3 0 .6.9.8.9.3.3-.3.3 0 .6 0s.3.3.6.3c-.3-.3-.1-.8-.3-.6zM333.3 115.5s.3 0 .3-.3v-.3c-.3.1-.3.4-.3.6-.3 0 0 0 0 0zM323.1 126.9s0-.3-.3-.3c0 .3 0 .3.3.3zM360.8 109.6c0 .3 0 .3 0 0zM362.2 109.3c-.3 0-.3-.3-.6-.3s-.3 0-.3-.3.3-.3 0-.6-.3.3-.6.6h.6c0 .3 0 .8-.3.8.6.4.9.4 1.2-.2zM367.5 117.8c.3-.3.3-.6.6-.8-.3 0-.6.2-.6.8zM369.5 116.1c0-.3 0 0 0 0s.3 0 0 0zM369.5 117.8zM371 118.1c0 .3 0 .3 0 0 0 .3 0 .3 0 0 0 .3 0 0 0 0zM366.1 117zM369.2 117c-.2 0-.2 0 0 0-.2 0-.2 0 0 0zM368.1 117.8s0-.3 0 0c0-.3 0-.3 0 0 0-.3 0 0 0 0zM361.6 112.4c0-.3 0-.6-.3-.3 0 .3 0 .3-.3.6 0 0 .3 0 .6-.3zM363.9 118.9c0-.8-.6-.8-.9-.8-.3.6.6.3.9.8zM363.6 120.1zM351.7 107.6c.3-.3.9-.3 1.4 0 .6.3-.3.3-.3.6h.3s.6-.3.9-.3h.3c.6.3.9 0 1.1 0s.3-.3.6-.3c0-.3-.3-.3 0-.3s.6 0 .3.6v.3h.3v-.3c0-.3-.6-.3-.6-.8.3 0 .6.3.9.3 0 0 .3 0 .3.3h-.3c.3.3.6.6.9.3 0-.6.3-.3.6-.3l-.3-.3s-.3-.3-.6-.3c-.3.3-.3 0-.3 0v-.3h-.9c-.6 0-1.1.3-1.7.3 0 0 .3 0 .3.3s0 .3.3.3c0-.3 0-.6.3-.6h.3c.3.3 0 .6 0 .6-.3.3 0-.8-.3-.3 0 .3-.3.3-.3.3-.3-.6-1.1-.3-1.4-.3v-.4c-.9.3-1.7.3-2.6.6h.5zm2.3 0h.3v.3c-.1-.3-.1-.3-.3-.3zM373.5 119.2h.6c-.3-.3-.6-.3-1.1-.6.2.3.5.6.5.6zM346 116.7v.3c0 .3-.6.3 0 .6h1.2v-.6c-.3-.3-.3-.3-.6-.3h-.6zM349.4 118.4c-.3 0-.3-.3-.3-.3-.3 0-.3 0-.6.3.3 0 .3.3.6.3-.5-.9.3 0 .3-.3zM349.4 118.9c.3 0 .3.3.6.3-.3-.5-.3-.5-.6-.3zM351.1 117c0 .3 0 .3.3.3 0-.3 0-.3-.3-.3zM350.3 116.1c-.3 0-.3.3 0 0 0 .3 0 .3 0 0 0 .3 0 0 0 0zM348.9 115.5zM348.9 115.5zM353.1 117.2zM355.1 116.7zM344.6 119.8c.3 0 .3 0 .3.3h.3s.3-.3.6-.3c-.3.6 0 .8.3.8.6 0 .3-.3.6-.6-.3.3-.3 0-.6-.3 0 0-.3-.3 0-.3h.3s.3 0 .3.3v-.3c0-.3 0-.3.3-.3 0-.3.3-.6-.3-.6s-.9-.3-1.4-.8c.2 1-.1 1.5-.7 2.1zm2-.6s-.3 0 0 0c-.3 0 0 0 0 0zm-.3-.3c0 .3-.3.3 0 0-.3 0-.3 0 0 0-.3 0-.3 0 0 0zM346.6 120.1zM337.2 115.5v-.3s0-.3-.3-.3c0 0 0 .3-.3.3H335.7v-.3c-.6.3-.6.3 0 .8-.9.3-1.1 0-1.4-.8h-.6s-.3 0-.3.3h.3s-.3.3 0 .3 0-.3 0-.3c.3 0 .3.3.3.6-.3.3 0 .6.3.6 0 0 0-.3.3-.3 0 0-.3 0-.3-.3h.3v.3h-.3c0 .3.3.3.6.3v.3s.3-.3.3 0 .3.3.3.6 0 .3-.3.6v.3c0-.3.3-.3.6-.3s.3-.3.3-.3c0-.3-.3-.6-.6-.3-.3 0-.3-.3-.3-.3v-.3h.6c.3.3.6.3.9.6.6.3.6 0 .6-.3-.1-.9-.1-1.2-.1-1.5zM345.5 117.8c0-.3 0-.3 0 0 0-.3 0-.3 0 0 0-.3 0-.3 0 0 0-.3 0 0 0 0zM345.2 117.2zM327 120.4c-.2 0-.2 0 0 0-.2 0 0 0 0 0zM348.6 109.3s0 .3 0 0c.3.3.3.6.6.6H348.3c0 .3 0 .3.3.3 0 0 .3 0 .3.3.6.3.9 0 1.4-.3 0-.3-.3-.3-.3-.6.3 0 .6.3.9.3 0-.3-.3-.3-.3-.8-.6 0-.9-.3-1.1-.8-.3 0-.6.3-.9 0-.3 0-.6 0-.9-.3 0 .3.3.6.3.8.3.5.3.5.6.5zm1.1.3zM344.6 109.6h-.3.3zM346.9 111.9c.3 0 .6-.3.9-.3v-.3c-.3 0-.6-.3-.9 0-.3 0-.3.6 0 .6zM345.7 113.6h.3v-.3s-.3-.3-.6-.3c.3.3.3.6.3.6zM348 109.9zM348 109.9 342.3 111.9zM340.9 112.4zM351.7 111.9c-.9-.3-.9-.3-1.4.3-.3 0-.3.3-.3.3l.3.3c.3 0 .3-.3.6 0s.9.3 1.1.3h1.1v-.3c-.3 0-.6-.3-.9-.8 0 .3-.3.8-.6.8 0 0 0-.3-.3-.3.1-.6.4-.4.4-.6zM354.2 113c0-.3-.3-.3-.3-.3v.3c.1.3.1.3.3 0h-.3c.1.3.1.3.3 0-.2.3 0 0 0 0zM353.4 113.6c0 .3.3.3.3.3v-.3h-.3zM354.8 113.3l-.3-.3c-.3.3 0 .3 0 .6 0 0 .6 0 .3-.3zM350.3 107.9c0 .6.3.3.3.3 0-.3.3-.3.3-.3l.3.3h0v.3h.9v1.2h.3c0-.3 0-.8.3-1.1h-.3c0 .3 0 .3-.3.3 0-.3-.3-.3-.3-.3h-.6c-.3 0-.6-.3-.9-.3h-.3c0-.7 0-.7.3-.4-.3 0 0 0 0 0zM350 107.9zM346.9 114.1h-.3s0 .3.3.3c0 0 .2 0 0-.3zM347.1 114.4h.3M347.7 114.1zM336.1 115z"/><path fill="#CF731C" d="M380.3 133.4l-.3-.3c-.3.3-.3.6-.3.8 0 0 .3 0 .3.3s.3.6.6.6v-.6c.5-.8 0-.5-.3-.8zm.3.6s0-.3 0 0c0-.3 0-.3 0 0 0-.3 0 0 0 0zM381.7 134h-.3-.3c0 .3-.3.6 0 .6s.9 0 .9-.3c.3-.1 0-.1-.3-.3zM355.4 122.9c.2 0 .2-.3 0 0 .3-.3.3-.3 0-.3s-.3 0-.3-.3h.3c.3 0 0 .6.6.8.3-1.1.6-1.4 0-1.7l.3-.3s0-.3.3-.3c0 1.1 0 1.1.9.8 0-.3-.3-.3-.3-.3s-.3-.3 0-.3h.3c0 .3.3.3.6.3v-.3c0-.3-.3-.3-.6-.3s-.9 0-.9-.6c-.6-.6-.6-.6-1.1.3-.3-.3-.6-.3 0-.6.3 0 .3-.3.3-.6.3 0 .3-.3.3-.3v.8c.3 0 .3-.3.6-.3h.3c0-.3.6-.3.3-.6 0-.6.6-.8.6-1.4.3 0 .3-.6.3-.6.3 0 .9 0 1.1.3v.3s-.3 0-.6.3c0 0 .3 0 .3.3 0 0 .3.3.6.3h.3c-.3 0-.3-.3-.3-.3v-.3s0-.3.3-.3v.3c.3.3.6.6.9 1.1h.6v-.6h-.3c0-.6-.9-.3-1.1-.8.3 0 .3-.3.6-.3 0 0-.3.3 0 .3s.3 0 .3-.3c.3 0-.3-.3 0-.3.6.3.9-.6 1.1-.6l-.3-.3c-.3.3-.9.3-1.1.6 0 0-.9 0-1.1-.3-.3 0-.3-.3-.6-.3 0 0-.3 0-.3-.3.3-.8-.3-.8-.9-1.1 0 0-.3 0-.3-.3v-.3.6c-.3.3-.6.6.3.8 0 0 .3 0 .3.3-.9 0-.3.3 0 .6v.3c-.3 0-.6-.3-.9-.3-.3 0-.3-.3-.3-.3 0-.3.3-.3.3 0h.3v-.3c-.3-.3-.3-.6-.9-.6-.3 0-.9 0-1.1.3-.3.3 0 .3.3.3 0 .3-.3.3-.3.6s0 .3.3.3c.3.3.6.3 0 .8l-.3.3v.3c0 .3.3.3 0 .6s-.3.3-.6 0h-.6c-.3-.3-.9.3-.9-.3h-.3-.3c-.3.3.3.3.3.6h-.3v.3c.3 0 .3.6.6.8 0 .3-.3.3-.3.6v.3s0 .3-.3.3v.3c.3.3.3.3.6.3.3-.3 0-.8.9-.6v-.3-.3c0-.3-.6 0-.3-.3s.3-.3.6 0c0 0 .3 0 .3.3 0 .6.3.8.6 1.1-.6 0-1.1 0-1.7.3-.3.6.3.8.6 1.1.8-.1 1.1-.1 1.1-.1zm4.8-5.9s.3 0 0 0c.3 0 0 0 0 0zm-2.3-2.6c.3 0 .3 0 0 0 .3 0 .3 0 0 0 .3 0 .3 0 0 0zm.3 3.1c-.3.3-.3.6-.6.6v-.3c0-.3.3 0 .6-.3zm-1.7-2v-.3h.3v.3h-.3zM373.5 130.3c-.3 0-.3.3-.6.3 0-.6-.3-.6-.6-.6h-1.2c-.3.3-.3.3-.6 0s-.6.3-1.1 0c0 .3 0 .3.3.6.3 0 .3.3 0 .3h-.3c0 .3.3.9-.3.9s.3-.3-.3-.6h-.3l-.3.3c-.3 0-.3.3-.6.3s-.6 0-.9-.3h-.6c0 .3 0 .3.3.6s.9.3 1.1.8v1.2h.3v-.8h.6s.6 0 .3-.6v-.3c.3.3.6.3.3.9v.6c.3.3.6.3.9 0h.3v.3s.3.3 0 .6c-.3-.6-.9 0-1.1 0-.6 0-1.1.6-2 .3v.6c.3 0 .3.3.9.3h.3v-.3c0-.3 0-.6.3-.6s.3 0 .3.3.3 0 .6.3h.3c.3-.3.6-.8 1.1-.3 0-.3.3-.9.6-.9-.9-.3-.3-.8-.3-1.1 0-.3.3-.3.9 0-.3 0-.3.3-.3.6 0 .6.6.9.6 1.4h.3s.3-.3.3 0-.3.3-.3.3c0 .3-.3.3-.3.6.3 0 1.1.3.9-.6 0 0 0-.3.3-.3h.3v.3c-.3.6-.3 1.1.6 1.1v-2l-.3-.3c-.6 0-.9-.3-.3-.8v-.3-.6c0-.3 0-.8-.9-.6 0 0-.6 0-.6-.3s.3 0 .3 0c.3 0 .3-.3.3-.6.3-.3.3-.3.9 0-.4-.5-.4-.7-.4-1zm-3.7 1.4c0-1.1.3-1.1 1.1-.8-.5-.1-.5.5-1.1.8zm1.4.8zm.3-2.2v.3h-.3l-.3-.3s.3.3.6 0c0 0 .3 0 0 0 .3 0 .3 0 0 0 .3 0 .3 0 0 0z"/><path fill="#CF731C" d="M363.3 118.3c.3 0 .6 0 .6.3.3.6.9.3 1.1 0 .3 0 0-.3 0-.3-.3-.6-.3-.6.3-.6h0s-.6 0-.3-.3c.6-.6-.3-.3-.3-.6h-.3v1.2s0 .3-.3.3-.3 0-.3-.3 0-.3-.3-.6c-.6-.3-.3-.3 0-.6-.3-.3-.6 0-.9 0h-.3c-.3 0-.3 0-.6.3 0 0-.3.3-.6-.3s-.6-.8-1.1-.6c.6-.3.3-.6.3-.8l.3.3h.6c.3-.3-.3-.3-.3-.6h.9c0-.3-.3-.3-.6-.3-.9 0-1.7 0-2.5-.3h-.6c0 .3 0 .3-.3.6v.3c0 .3 0 .3.3.3.3-.3.3-.3.6 0 0 .3-.3.6-.6.8-.3.3 0 .3 0 .3h2v.3h.3v.3l.3.3h.6s.9 0 1.1.3c.3.6.3.6.9.3.3.6 0 .3 0 0zm-4.8-3.7zm.3-.3zm.8.6s-.3-.3 0-.3c0 0 0-.3.3 0v.3c0 .3-.3 0-.3 0zm1.2 1.7zM358.5 125.5 372.9 137.9h-.3c-.3-.3-.3-.8-.9-.8.3-.9 0-.9-.6-1.4.3 0 .6 0 .6-.3.3 0 .3.3.6.3 0-.3-.3-.3-.6-.3-.3-.3-.6 0-.9-.3 0 0 0-.3-.3-.3v.3c0 .3 0 .3-.3.3s-.3.3-.6.3c-.3.3-.3 1.1-.9.9h-.3c.3.6-.3 0-.3.3.3.3.9.3.9.8 0 0 .3.3.3 0s.6-.3.6-.8c0-.3.3-.3.6 0 0 0-.3 0-.3.3 0 0-.3.3 0 .3s.3-.3.6-.3c0 .3-.3.6.3.6.3 0 .3 0 .3-.3.9 0 1.1.3 1.4 1.1 0 .3 0 .3.3.3 0 0 .3.3.3 0-.2-.4-.2-.7-.5-1zm-3.1-1.7zm1.4 1.2c-.3-.3-.3-1.1-1.1-1.1v-.3h.3c.8.2 1.1.5.8 1.4zM377.8 126.6c0 .3.3.3.3.3l.3-.3c0-.6-.6-.8-.9-1.1 0 .3 0 .3-.3.3-.3-.3-.6 0-.9 0l.3-.3c0-.3-.3-.3-.3-.6 0 0 0-.3-.3-.3v.3c0 .3 0 .3-.3.6 0 .3-.3 0-.3 0-.3 0-.3-.3-.3-.3.6-.6-.3-.6-.3-.8h-.3v.3s.3 0 .3.3h-.6s-.3-.3-.3 0v.3c0 .3.3-.3.3 0l.3.3h.6c-.3.3-.9.8 0 1.1l-.3.3h.3l.3.3h.3c.3-.8.9-.3 1.4-.3 0 0 0 .3-.3.3h-.6c.3.3.3 0 .6.3.4.1.7-.7 1-1zm-2-1.1zm.2.2zm.9.6zM365.9 120.6c-.3.3.3.6 0 .8-.3 0-.6.3-.6-.3 0-.3-.3-.3-.6-.3 0 .6.6.8.9 1.1 0 .3.3.3.6.3h.3c.9-.3 1.1.3 1.4.6.6.6.9 0 1.1 0s-.3-.3-.3-.6-.3 0-.6-.3c0-.3.3 0 .6-.3s.3-.6.3-.8c0-.3-.3-.3-.9-.3-.3 0-.3 0-.3.6 0 .3-.6.3-.3.8-.3 0-.6.3-.9.3-.3-.3-.6-.8-.6-.8.7-.8-.4-.5-.1-.8zM330.4 118.9c-.3.3.3.6 0 .8-.3 0-.6.3-.6-.3 0-.3-.3-.3-.6-.3 0 .6.6.8.9 1.1 0 .3.3.3.6.3h.3c.9-.3 1.1.3 1.4.6.6.6.9 0 1.1 0s-.3-.3-.3-.6-.3 0-.6-.3c0-.3.3 0 .6-.3s.3-.6.3-.8c0-.3-.3-.3-.9-.3-.3 0-.3 0-.3.6 0 .3-.6.3-.3.8-.3 0-.6.3-.9.3-.3-.3-.6-.8-.6-.8.8-.5-.1-.2-.1-.8zM379.7 130.6h.3l-.3-.3c.3.3.9 0 1.1.3.3 0 .3-.3.3-.3 0-.3-.3-.6-.3-.8 0 0-.3-.3-.6-.3-.3-.3-.3 0-.3 0-.6 0-1.1-.3-1.4-.3-.3 0-.6 0-.3.3.3.6.9 1.1 1.1 1.4-.1-.3.2-.3.4 0zm-.2-1.5c.3 0 .3-.3.3-.3l.3.3c.6.6 0 .6-.3.6s-.3 0-.3-.3c-.3 0-.3-.3 0-.3zm-.9.3h.3-.3c0 .3 0 .3 0 0zM350.8 133.1v.3s.3 0 .3.3c0 0 0-.3-.3-.3.3 0 .3 0 0-.3zM346 125.7c-.3.3-.3.6-.3.8v-.3c0-.3-.3-.3-.6-.6H344.2c0-.3.6-.3.3-.6s-.3 0-.6 0h-.3l.3.3.3.3c.3 0 .6.3.9.3.3 0 .6 0 .3.3-.3 0-.9-.3-1.1-.3l.3.3v.3s0-.3.3-.3l.3-.3c1.1 1 .8.1.8-.2.3.3 0 0 0 0zM356.5 123.2c.3.3.3.8.9.8v.3c0 .3 0 .3.3.6.3-.3 0-.6.6-.6 0-.3.3-.3.6 0h.3c0-.3.3-.3.3-.6-.3 0-.6-.3-.9 0 0 0-.3.3-.6 0v-.3h.3-.3c-.4-.2-.9-.2-1.5-.2zM361.6 123.8v-.3c-.9-.3-.9-.8-1.1-1.4-.3-.3-.3-.3-.6-.3-.3.3 0 .3 0 .6.3.3.3.6-.3.8h-.3c0 .3.3.3.3.3h.3c.3-.3.6-.3 1.1 0 .3.5.6.5.6.3zm-.8-.6h-.3.3zM347.1 110.4v-.3c-.6-.3-.9-.8-1.1-1.1l-.6.3c.3.3.3.6-.3.8h-.3c0 .3.3.3.3.3h.3c.3-.3.6-.3 1.1 0 .1 0 .4.3.6 0zm-1.1-.5h-.3.3zM353.7 131.4h-.3c-.3 0-.3.3-.3.6.3 0 .3.3.9.3-.3-.6-.3-.6-.3-.9zM352.8 131.7 352.8 122.1h-.6s-.3 0-.3.3 0 .6-.3.8h.6s.3 0 .3.3.3 0 .3 0v-.3c.3-.6.3-.6 0-1.1zM376 129.4c.3-.6-.3-.6-.3-.8s-.3-.6-.6-.6c-.3.6-.6 0-.9 0h-.3c.7.6 1.6.6 2.1 1.4zM352.5 133.7c0 .3-.3.3-.3 0s-.3-.3-.3-.3c-.3 0 0 .3 0 .3v.3c.3.3.9.3 1.1.6v-.6c-.2 0-.2-.3-.5-.3zM352.5 133.7 364.1 126.9c.3-.3.9-.3.3-.6-.3 0-.3-.3-.6-.3h-.3c-.3 0-.3 0-.6.3.4 0 1 0 1.2.6h-.6.6zM356.5 125.2c.3 0 0-.3 0-.3v.3c-.3 0-.3.3-.6 0 0 0-.3 0-.3.3v.6s-.3 0-.3.3c0 0 0-.3.3-.3l.3.3c.3 0 .6.3.9-.3-.3-.4-.9-.6-.3-.9zM357.4 125.5c.3-.6-.3-.6-.6-.6 0 .3.3.3.3.6 0 0 0 .3-.3.3v.3c.3 0 .9-.3.6.3h.6v-.3c-.4-.4-.6-.4-.6-.6zM365.3 123.2c-.3.3-.6.3-.3.8 0 .3.3.6.3.3.3-.3.6-.3.6-.8-.6.5-.6.3-.6-.3zM361.9 125.7c.3 0 .3 0 0 0 .3 0 .3.3.6.6 0-.3.3 0 .6-.3-.6-.3-.9-1.1-1.4-.8-.1.3-.1.8.2.5zM373.8 131.1h-.6c0 .3-.3.3-.3.6.6 0 .9-.6 1.4-.3 0-.3-.3-.3-.3-.6.1 0-.2 0-.2.3zM373.2 131.1 348.3 130.3c-.3-.3-.6 0-.6 0-.3.6 0 .6.3.6.3.3.3 0 .6-.3 0-.3-.3-.3-.3-.3zM353.7 133.4s0 .6.3.6c0-.3-.3-.6-.3-.6 0-.3 0 0 0 0zM352.5 131.7v1.2c.3 0 .6-.3.6-.3.3-.3-.3-.3-.3-.3v-.3c0-.3 0-.3-.3-.3.3 0 0 0 0 0zM352.8 131.7 375.5 136.5h-1.2v.3c.3 0 .6.3 1.1.3v-.3c.4 0 .4 0 .1-.3zM361.3 118.7c0-.3-.3-.3-.6-.3v.6s.3.3.6.3.3-.4 0-.6c.3.2 0 .2 0 0zM360.5 118.7c-.3-.6-.9-.6-1.4-.8.2.8.8.5 1.4.8zM374.6 123.5c0-.6-.6-.3-.9-.3.1.8.7.6.9.3zM367.8 128c.3.3.3.3 0 0 .3-.3 0-.6-.3-.6h-.3c.1.6.6.6.6.6zM373.8 136.8h-.9c0 .6.6.3.9.3 0 0 .3 0 .3-.3h-.3zM367 125.5h.3c0-.3.3-.3.3-.3l-.3-.3c-.6-.3-.3.3-.6.3l.3.3zM360.8 119.5c-.3 0-.3.3-.6.3s-.3 0-.3.3c.3 0 .3-.3.3-.3.3 0 .3 0 .3.3.3.3.3 0 .6-.3h-.3v-.3zM366.1 124c-.3 0-.3 0-.3.3v.3c.3 0 .3 0 .6-.3s0-.3-.3-.3zM375.2 137.1c0-.3-.3-.3-.3 0v.3c.3.6.6 0 .9 0-.3-.3-.6 0-.6-.3z"/><path fill="#CF731C" d="M355.6 126v0l-.3.3c.3.6.6.6 1.1 0-.5 0-.5-.3-.8-.3zM368.1 136.2c0-.3 0-.3-.3-.6h-.3c0 .3 0 .3-.3.6v.3c.6.3.6 0 .9-.3.3.3 0 .3 0 0zM363.6 132.3c.3 0 .6 0 .9.3v-.3c-.4-.3-.6-.6-.9 0zM367.8 124.6s.3 0 0 0c.3-.3.3-.3 0-.3s-.6-.3-1.1-.3c.3.6.8.3 1.1.6zM376 131.7c0-.8-.9-.8-1.1-1.1h-.3v.3c.6.2.9.5 1.4.8 0 .3-.3.3-.3.6.3 0 .6.3.9 0-.3-.3-.6-.3-.6-.6zM368.4 129.7c0-.3-.3 0-.6 0h-.3.3s.3.3.6 0zM370.7 122.9v-.3c-.3-.3-.6.3-.9 0 0 .3.3.6.9.3zM361.9 128.3l.3.3s-.3 0-.3-.3zM358.2 125.5s-.3 0-.3.3.3 0 .3.3c.6.3.3-.3.3-.6s0-.3-.3 0zM361 126s0 .3.3.3.3 0 .3-.3 0-.3-.3-.3c0 0 0 .3-.3.3zM368.1 125.2c.3.3.3.6.9.6-.3-.3-.6-.6-.9-.6zM353.4 132.8c-.3 0-.3.3-.9.3.6.6.6 0 .9-.3zM374.9 135.9c0-.3.3-.3 0-.6-.3 0-.3 0-.3.3s0 .3.3.3c0 .3 0 0 0 0zM365.3 135.9c0-.2 0-.2 0 0-.3 0-.3.3-.3.3.3 0 .3.3.6 0-.3 0-.6 0-.3-.3zM358.2 121.5c0 .3-.3 0-.6.3.6.3.6.3.6-.3zM351.1 130.8c0 .6.6.3.9.6-.3-.3-.6-.3-.9-.6 0 .3 0 .3 0 0zM371 123.8c-.3.3.3.3 0 .8 0 0 .3 0 .3-.3v-.3c-.1 0-.1-.2-.3-.2zM358.5 120.4c0 .6.3.3.9.3-.6-.1-.6-.3-.9-.3zM371.2 124c.3 0 .6 0 .9.3-.3-.3-.3-.8-.9-.3zM371.2 124 370.1 124.9v.6c.3-.3.6-.3 0-.6.3 0 0 0 0 0zM369.2 130.3v-.3c0-.3 0-.3-.3-.3 0 0 .3 0 .3.3v.3l-.3.3c.1-.3.1-.3.3-.3zM378.6 126.9c.3 0 .3 0 .3.3.3 0 .3-.3 0-.6 0 0-.3 0-.3.3-.3 0-.3 0 0 0zM369.5 128.9s0 .3.3.3.3-.3.3-.3c.3 0 .6-.3.9-.3v-.3c-.3 0-.3.3-.3.3h-.3c-.6.3-.9.3-.9.3zM362.2 121.8c0-.6-.9-.6-.9-1.4 0-.3-.3 0-.6 0v.3c0 .3.3.3.3.3.3 0 .3 0 0 .3 0 .3 0 .3.3.3h.3c.3-.1.3.2.6.2v.8c0-.3.3-.5 0-.8zM365.6 135.9h.6-.6zM369 135.7h.3c0-.3-.3-.3-.3-.3-.3 0-.3.3 0 .3zM370.7 124.9c0 .3 0 .3.3.6 0-.3 0-.3-.3-.6 0 0 .3-.3 0-.3s0 .3 0 .3zM369.2 125.7s0-.2 0 0c0-.2 0-.2 0 0zM371.2 125.7c0-.2 0 0 0 0zM352.8 131.1c.3 0 .3 0 0 0 .3 0 0-.3 0 0 0-.3 0 0 0 0zM371.8 134.8h-.3s.3.3.3 0c0 .3 0 .3 0 0zM360.8 124c0-.2 0-.2 0 0zM356.8 124.3zM358.5 120.1s-.3 0 0 0c-.3 0-.3 0 0 0zM373.2 136.5c-.3 0 0 0 0 0zM368.1 131.1c0 .3.3 0 0 0 .3 0 0 0 0 0zM376.3 131.4c0 .3 0 .3 0 0 0 .3 0 .3 0 0 0 .3 0 .3 0 0zM368.1 130.3c0 .3 0 .3 0 0 0 .3 0 .3 0 0 0 .3 0 0 0 0zM375.2 136.2c-.3 0-.3 0 0 0 0 .3 0 .3 0 0zM354 121.8c-.3-.3-.9-.3-1.1-.8 0-.3-.3 0-.6 0s-.9.3-1.1 0c0 0-.3.3-.6 0 0-.3.3-.3.3-.3.3-.3.3-.3.9 0 .6.3 1.1-.3 1.4 0 0-.3.3-.3.3-.6v-.3h-.3l-.3-.3v-.3c0-.3 0-.8-.6-.6-.3 0-.3-.3-.6-.3-.3.6 0 .8.3 1.4 0 .3-.3 0-.3 0-.3 0-.6 0-.3.6 0 .3 0 .3-.3.3s0-.3-.3-.3c0-.6-.6-.8-1.1-.3-.3.3-.6 0-.9 0v.3s0 .3.3.3h.3c0 .3 0 .6.3.3l.6.3c0 .3.6.6.9.6H352.1c.3 0 .9 0 1.1.3.3 0 .3.3.3.3h.3l.2-.6zM353.1 122.6zM359.3 117.2zM352.5 133.7zM360.8 118.1c.2 0 .2.3 0 0 .2 0 .2 0 0 0zM359 117.5zM358.8 117.8zM352.5 132.3zM368.4 130.3c.3 0 .3 0 0 0 .3-.3.3-.3 0 0 .3-.3.3-.3 0 0zM362.7 125.5zM379.7 134h-.3s0-.3-.3-.3h-.6v.3s.3.3 0 .3c-.3.3-.3.3 0 .6s.3 0 .3-.3c.4-.4.7-.4.9-.6 0 .2 0 .2 0 0 0 .2 0 .2 0 0z"/><path fill="#CF731C" d="M378 134.2c0 .3.3.3.3 0h-.3zM378.6 134.2zM378 134.2zM380 134.5c0 .3 0 .3 0 0zM371.5 110.2s.3 0 0 0v-.6h-.3c0 .3 0 .6.3.8v-.2zM321.6 126.9c.3 0 .6-.3.9.3 0 .3.3 0 .3 0s-.3 0-.3-.3 0-.3-.3-.6c-.3.3-.6.8-.9 1.1l.3-.5zM322.2 126c.3 0 .9.3 1.1.3v-.3h.3l.3.3c.3.3.6.3.9.3.3 0 .6-.3.6-.8 0-.3-.3-.3-.6-.3h-.3c-.3-.3-.9-.3-1.4-.6-.3.3-.6.8-.9 1.1 0-.3 0-.3 0 0zm1.2-.8c0 .3 0 .3 0 0-.3 0-.3 0-.3-.3l.3.3zM320 130.6c0-.3 0-.3 0 0-.3-.3-.3-.3-.3-.6-.3.3-.3.9-.6 1.1.3 0 .6.3.9.3v-.3h-.3c-.3-.5 0-.5.3-.5zM322.8 130.6c0-.3-.6-.3-.6-.9 0-.3-1.1-.3-1.1-.3s-.3.3 0 .3c.3.3.3.6.6.9v-.3c.3.3.3.6.6.6-.1-.1-.1-.1.5-.3-.3 0-.3 0 0 0h.3v-.3c-.3 0-.3.3-.3.3zM358.8 107.6c0 .3 0 .3.3.3 0 .3.3 0 .3.3s-.3.3-.6.3c0 .3-.3.3-.3.6.6.3 1.1.6 2 0 0 .6 0 .8.3 1.1.3.3 0 .3 0 .3-.3 0-.3 0-.3-.3s-.3-.3-.3-.3c-.3 0-.3-.3-.6-.3 0 .3 0 .8-.6.6.6.6 1.1.6 1.7.8.6.3.9 0 1.1-.6 0 0 0-.3.3-.3.9.3 1.4-.8 2.3 0-.3-.6-.3-1.1.3-1.1 0 0-.3-.6.3-.3.3 0 .9.3.6.8-.3.3-.3-.8-.9-.3 0 .6.3.8.9.8h.3v-.3s.3 0 .3-.3c0 0 .3 0 .3-.3-.6-.3-1.1-.6-.9-1.1 0 0-.3 0 0-.3v.3h.3c0-.3-.3-.3.3-.3.3 0-.3-.3 0-.6h-.3l-.3.3s0 .3-.3.3h-.3c-.3 0-.6-.3-.9 0 0 .3.6.6.6.8l-.3-.3h-.3c0-.6-.9-.6-.9-1.1v-.1h-.2c0 .8-.3.3-.6 0h-.3c0 .3-.3.3-.6.3s-.3-.6-.3-.8c0-.3.3-.3.3-.3v-.3c-.3.3-.3.3-.9.3 0 .3 0 .3.3.6h-1.2c-.9.2-1.5.5-.9.8zm2.5.9c.3.3 0 .3 0 .6 0 0 .3 0 .3.3 0 0 .3 0 .3.3-.3.3-.9.3-1.1.3.3-.3.3-.6.3-.8h-.6c.5-.5.5-1 .8-.7zm-.5 1.1c0 .3 0 .3 0 0zM374.6 115s0 .3-.3.3v.6h.6c0-.4-.3-.6-.3-.9zM371 113.3h-.3.3zM372.1 114.1z"/><path d="M355.9 113c.3.3.6.8 1.1.8 0-.3.3-.3.6-.3 0-.3.3-.6.9-.3.6-.3 1.1-.3 1.4 0 .3.3.3.3.6 0s.3 0 .3 0c0-.3.3-.6.3-.8 0-.3 0-.3.3-.6v-.3c-.3-.3-.6-.3-.9-.3h-.9c.3.3 0 .8.9.8v.3s.3.3 0 .3v-.3h-1.8c-.3 0-.3-.3-.3-.6v-.3c0-.3-.3-.3-.6-.6s-.3 0-.3.3c.3.6-.3.3-.3.6h-.3v-.3c.3 0 .3-.3.3-.3s-.3 0-.3-.3c0 .3.3.6-.3.3-.3 0 0 .3-.3.3-.4 1-.7 1.6-.4 1.6z"/><path fill="#CF731C" d="M368.7 114.4c.3 0 .3 0 .3-.3l-.3-.3v-.3c0-.3 0-.3.3-.3v-.2h-.3-.3v.3c0 .3-.3.3-.3.8.3 0 .3.3.6.3zM366.4 111s0 .3-.3.3c.3 0 .3-.3.3-.3zM369.2 117s.3 0 .3.3c0-.1-.3-.3-.3-.3zM374.1 116.4zM373.5 118.1c0-.3 0-.3-.3-.3s0-.3 0-.3c-.3-.3-.6 0-.6-.3h-.3v.3c.1.3.3.9 1.2.6z"/><path fill="#CF731C" d="M374.4 119.2c.3-.3-.3-.6-.3-.8-.3 0-.3 0-.6-.3 0 .3-.3.3-.3.6.3.2.9.2 1.2.5zM371.2 114.4c.3.3.6 0 .9-.3-.6 0-.9-.6-1.4-.3.3.3.5.6.5.6zM372.1 114.1zM373.8 115.8c.3-.3 0-.3 0-.6h-.3c0 .6.3.6.3.6zM374.1 115.8zM374.1 116.1zM374.1 116.1c0-.3 0-.3 0 0zM374.9 116.7c-.3 1.1.3.6.6.8v-.3c-.3-.2-.3-.5-.6-.5 0-.3 0-.3 0 0zM373.2 114.7c.3 0 .3 0 0 0zM371 115.8c-.3 0-.3 0 0 0-.3.3-.3.3 0 0zM369.8 114.1zM377.8 125.2s.3 0 .3-.3-.3-.3-.6-.3h-.3c0 .6.6.3.6.6zM377.5 124.6zM348 120.1c-.3.8-.6.3-.9 0l-.6-.6v.3c0 .3 0 .8-.6.6-.3 0-.6-.3-.3-.8-.3 0-.3.3-.6.3h-.3c-.3 0-.3 0-.9-.3-.3 0-.3-.3-.6-.3v-.3c0-.3.3-.3.3 0 .3.3.9 0 .9.6.6-.6.6-1.1.6-2.3.3.6.9.8 1.4.8.3 0 .3.3.3.6.3.3.6.6.9.8 0-.6 0-.8-.3-1.1.3.3 1.1.6 1.4.8.3-.6 0-.8-.3-.6-.3 0-.6 0-.9-.3.3-.3.3 0 .3 0h-.3s-.3 0 0-.3v-.3s0-.3-.3-.3h-.3-.3c-.3.3-.6.3-.9 0-.6 0 .3-.3 0-.6v-.3h-.9c-.3-.3-.9-.3-1.1-.3-.9 0-1.1-.3-1.7-.6 0 0-.3 0-.6.3.3.3.3.3.3.6-.3-.3-.9 0-.9-.6 0 .8-.6.3-1.1.3 0-.3.6 0 .3-.6 0-.3-.3-.3-.3-.8.6.6 1.1.3 1.7.3h.3s0-.3-.3-.3c-.6 0-.6-.3-1.1-.6-.3 0-.9 0-1.1-.3-.6.6.3.8.3 1.1-.3-.3-.9-.3-1.1-.6-.3-.3-.6-.6-.9-.6h-.3s-.3 0-.3.3c.3 0 .3 0 .3.3.3.3.3-.3.9-.3v.6c-.6.3-.6.6-.9 1.1 0 .3 0 .8-.6.3 0 .3-.3.3-.3.3 0 .3 0 .3-.3.3v.3c.3 0 .9.6.9-.3.3 0 .3.3.3.3h.3c.3.3.3.6.9.6.3-.6-.3-.6-.9-.8h1.1s.3 0 .3.3 0 .3-.3.6v.3c.6-.3.9.6 1.4.3-.3.3-.3.3 0 .8-1.1-.3-1.1-.3-1.1.6h.3v-.6c.6 0 .9.8 1.4.8-.3.3-.6 0-.6.3s.3 0 .6.3h.3c.3 0 .3-.3.6-.3v-.3c0-.3 0-.3.3-.3.3-.3.3 0 .6 0h.3v-.8l-.3-.3H341c0-.3-.6 0-.6-.3s-.3-.3-.6-.6h.6v-.3h-.3c-.3 0-.3 0-.3-.3s.3-.3.3-.3.3 0 .3-.3c-.3 0-.9 0-.9-.6 0 0-.3 0-.3-.3 0 .3-.3.6-.6.3-.6-.6-.9-.3-.9.6 0-.3-.6-.3-.3-.6 0-.3.3-.3.6-.6 0 0 .3 0 .3-.3 0 0 0-.3.3-.3s0 .3 0 .3c0 .3.3 0 .6 0v.1h.3s.3.3.6.3v.3c.3 0 .9 0 .9.6h.3c.3 0 .3 0 .3.3 0 .6.6.3.9.3-.6.6 0 .8.3 1.1h-.6v.3l.3.3.3.3v.3c0 .3-.3.3-.6.3 0 .3-.3.3-.3 0h-.3v.6s.3.3 0 .3c0 .3 0 .6.3.8.3 0 .3.3.3.3l.3.6h.3-.3c.3.6.6 1.1.9 1.7.3.3.3-.3.6-.3-.3-.3-.3-.8.3-.8h-.3s0-.3.3 0c0 0 .6 0 .3.3s0 .3.3.3.9 0 1.1-.3c0 0-.3-.3 0-.3 0-.6 0-.6-.6-.8h-.3c-.3-.3 0-.6 0-.8 0 0-.3-.3 0-.3s.3 0 .3.3c.3.3.9.3 1.1 0-.3 0-.3-.3-.6-.3 0 0-.3 0-.3-.3s.3 0 .3 0h.6l.3.3c.3 0 .3 0 .6-.3 0-.3.3 0 .3 0 .3 0 .9-.6.6-.6-.3-.3 0-.6.3-.8-.3 1.1-.6 1.1-.6 1.1zm-2.5-2.6c0 .3 0 0 0 0zm-.3-.3zm-5.7.9s0-.3 0 0 0 .3 0 0c0 0-.3 0 0 0zm-1.1-3.1h.3-.3zm4.8 7.9s0-.3 0 0c0-.3 0-.3 0 0zm1.1-1.1c-.3.6-.3.6-.9.8 0-.3.3-.3 0-.6 0 0 0-.8.3-.3-.3 0-.3-.3 0-.3.3-.3.3 0 .3 0h.3c.3 0 .9-.3 1.4 0-.2-.2-.5.4-1.4.4zM345.5 122.6s.2 0 0 0zM347.1 122.1c.3-.3 0 0 0 0zM374.1 134.2zM338.6 120.9s0-.3 0 0v-.3s-.3 0-.3-.3l-.3-.3-.6-.6c-.3.3-.3.3-.6 0l-.3-.3v-.3c.3 0 .3-.3.3-.6-.3-.3-.3-.3-.3 0s0 .3-.6 0c0 0 0-.3.3-.3s.3-.3 0-.3h-.3-.3v-.3c-.3 0-.3-.3-.3-.6v-.3h-.3-.3c-.3-.3-.6 0-.9-.3 0 0-.3 0-.3.3v.3c.9 0 .3.3.3.8-.6-.3-1.1-.6-1.4 0v-.6c.3-.6 0-.8-.6-.8-.3 0-.3 0-.3-.3-.6.3-1.1.8-1.7 1.4.3 0 .9.3 1.1.3s.9.3 1.1.6c0 0 0-.3.3-.3 0 .3 0 .3-.3.3v.3c.3 0 .6-.3.9-.3 0 0 .3-.3.3 0 0 0 .3.3 0 .3-.9.6 0 .6.3.8.3 0 .3.3.6.3h.3c.3 0 .3 0 .6.3-.3 0-.3.3-.3.3s0 .3.3.3c.9 0 1.1.8 1.1 1.4 0 .6.3.6.6.3.6-.3.9-.8 1.4-.3h.3c0-.3 1.1-.6.2-.9zm-5.1-3.1zm1.2 0zm.8 2.3c-.3.3-.3 0-.6-.3 0-.3.3 0 .6 0s.3.3 0 .3zm.3-1.2c-.3 0-.6.3-.9.3s-.6-.3-1.1-.6c.3 0 .9 0 1.1-.3.3-.3.6 0 .9.3v.3zm1.7 1.7v-.3c.3 0 .3-.3.3 0s.3.6.3 1.1c-.3-.2-.6-.5-.6-.8zM332.4 116.1c.3-.6.3-.3.9 0 0 0 .3.3.3 0v-.3l-.3-.3c-.6 0-.6.3-.9.6zM338.6 120.4zM328.5 127.4s0-.3.3 0 .3 0 0-.3-.9-.3-1.1-.3-.3.3-.6.6c0 .3.3.3.6.6h.3c.3 0 .6.3.9.3.3 0 .3 0 .6-.3-.5.3-.8 0-1-.6 0 .3 0 .3 0 0zM323.4 126.9s0 .3-.3.3c0 .3 0 .8-.3 1.1.3 0 .6.3.9.3 0-.3.3-.3.3-.6s.3-.3.6-.3.3.3.6 0v-.6c-.4-.2-1.3-.5-1.8-.2zM323.6 129.4c0-.3 0-.3 0 0 0 0-.3 0-.3-.3 0 .3.3.3 0 .6 0 0-.3 0-.3-.3-.3-.6-.9-.3-1.1-.6v.3c.3.3.6.3.9.6v.3h.6v.3c-.3.3-.3.3 0 .3s.6 0 .9-.3c0-.3-.3-.3-.3-.3-.4-.3-.4-.6-.4-.6zM330.4 122.6c-.3.3-.3.3-.6.3h-.8s-.3 0-.3-.3c0 0 0-.3-.3-.3v.3c.6 0 .6 1.1 1.1.8H330.4c0-.8.6-.6.9-.6-.3.1-.3-.5-.9-.2zM330.7 127.4c-.3 0-.3.3-.3.6.3 0 .3 0 .6-.3l-.3-.3zM333.8 124.6v-.3c-.3 0-.3-.3-.6-.3-.3-.3-.3 0-.3.3v.3c0 .3-.3 0-.3 0l-.3.3v.3l.3.3v-.3h1.1c.4 0 .4 0 .1-.6 0 .3 0 .3 0 0zm-1.1.6zM326.8 129.4c0-.3-.3-.3-.3-.3-.3 0-.3.3-.6.3 0 .3.3.3.6.6.3 0 .6-.3.9-.3h-.3c-.1-.3-.3-.3-.3-.3zM327.6 126.6v-.3c-.3-.3-.9-.6-1.4-.8 0 0-.3 0-.3.3v.3c.6.3.9 1.1 1.4.8 0-.3.3-.3.3-.3zM335.8 121.8c-.3-.3-.6-.6-.9-.3h-.3v-.3h-.3c0 .3 0 1.1.9.8 0 0 .3 0 0 .3 0 .3 0 .3.3.3h.3c.3-.5.3-.5 0-.8zM335.8 122.3 340.1 122.1h.3c0-.3 0-.3-.3 0zM333.3 122.9v-.3c0 .3-.3.3-.3.3.3.3.3.8.6 1.1v-.3h.3v-.3.3s-.3 0-.3-.3c-.1-.2-.1-.2-.3-.5zM330.4 124.6v-.8c-.3 0-.3.3-.3.3 0 .5.3.8.3.5zM339.5 120.9h.6c0-.6-.3-.3-.9-.3l.3.3zM339.5 120.4"/><path fill="#CF731C" d="M336.7 122.9c0-.3-.3-.3-.6-.3s-.3-.3-.3-.3c-.3.3-.3.3-.9.3.3 0 .6.8 1.1.3.3.3.3.6.9.3.1 0-.2-.3-.2-.3zM340.1 122.1c-.3 0-.3-.6-.9-.8v.6c.3.2.6.2.9.2zM325.3 128.6c-.3 0-.3 0 0 0-.3 0-.3.3-.3.3.3-.3.3 0 .6 0 0 0 0-.3-.3-.3zM333.8 123.8c0 .3.3.3.3.3h.3s0-.3.3-.3c-.3-.6-.6 0-.9 0zM325.9 124.9c.3 0 .3 0 0 0 .3-.3.3-.3 0 0-.3-.3-.3-.3-.3 0 0 0-.3.3 0 .3s.3 0 .3-.3zM328.2 126.6c0-.3-.3-.3 0 0 0-.3 0-.3-.3-.3l.3.3c-.3-.3-.6 0 0 0-.3 0 0 0 0 0zM339.2 122.1s0-.3 0 0zM337 123.8zM323.4 124.3zM339.8 122.3c-.3 0-.3 0 0 0-.9 0-.6.3-.3.6h.3c-.3-.3-.3-.3 0-.6-.3 0-.3 0 0 0zM331 123.2s0 .3 0 0l-.3.3c.3.3.3 0 .3-.3.3.3.3 0 0 0 .3 0 .3 0 0 0zM362.5 106.2l.3.3c0-.3.6-.8-.3-.8v.5zM361.3 106.2h-.6c.3.3.6.3.6 0zM361 105.9zM334.1 115.3c0-.3 0-.3 0 0 .3 0 .6 0 .6-.3.3-.3 0-.3 0-.6-.3 0-.3.3-.9.3l.3.6c-.3-.3-.3 0-.3 0 0-.3 0-.3.3 0zM321.6 128.6c.3 0 .3 0 0 0 .3.3.6 0 .9 0 0-.6 0-.8-.6-.6-.3.3-.5.3-.3.6zM320.8 128.6c0-.3.3-.3.3-.6l-.3-.3-.3.3c.3.3 0 .3.3.6zM321.9 128s.3 0 0-.3-.3 0-.6.3c.3.3.3.3.6 0zM320.5 128.3c0 .3 0 .3 0 0 0 .3 0 .3 0 0 0 .3 0 .3 0 0zM369 115c0 .3 0 .3 0 0l.3.3c-.1 0-.1-.3-.3-.3zM365.3 108.7h.9c-.3-.2-.6-.5-.9 0zM365.9 109.6zM352.5 109.9s-.3.3 0 .3h.6c.3-.8.9-.3 1.1 0 .3 0 0-.6.3-.6-.3 0-.3 0-.3-.3s-.3-.3-.3-.6-.3-.3-.3 0c-.3.3.3.3 0 .3s-.3-.3-.3-.6v-.3h-.3-.3c-.3.3-.3.8-.3 1.1s.4.4.1.7zm.3 0c.3.3.3.3 0 0 0 .3 0 .3 0 0 0 .3 0 .3 0 0zM358.2 107.3s0 .6.3 0c0 .3 0 0-.3 0zM354.5 109.3zM348.6 110.4s0 .3 0 0c0 .3-.3.3-.3.3h-.3c-.3 0-.9 0-.6.3 0 .3.3.8.9.8v.3c.3 0 .3.3.3.3h-.3v.6c.6 0 1.1.6 1.4.3v-.3c0-.3.3-.6.3-.8-.3 0-.3 0-.3-.3s0 0 .3-.3c.9-.6.9-.6 1.4-.3 0 .3-.6 0-.3.3 0 0 0 .3.3.3s.3-.6.6-.8c0 .3.3.8.9.8.3 0 .3.3 0 .3.3.3.3.6.3.8h.6v-.3-.3c.3 0 .3 0 .3.3l.3-.3c-.3 0-.3-.6-.3-.8 0 0-.3-.3-.3 0-.9.3-.3-.6-.6-.6h-.3c0 .3-.3.3-.3 0-.6-.6-1.4-.3-2.3-.6 0 .3-.3.6-.6.8-.3 0-.3-.3-.3-.6v-.6c0-.3.3-.3.3-.6-.3 1-.6 1.3-1.1 1zM348.3 108.7h.9c.3.3.9.6 1.1.8 0 .3.3.3.3.8-.3 0-.6-.3-.9-.3-.3.3.3.3.3.6 0 0 0 .3.3.3.6 0 .9-.3 1.1-.3 0-.3.3-.3.6-.8v-.3-.3-.3-.3h-.9c-.3.3-.9.3-1.1 0-.3-.3 0-.3 0-.6h-.3s-.6 0-.9.3c0-.3-.3-.3-.6-.3s-.3 0-.6.3v.3c.4.1.4.1.7.1z"/><path d="M351.7 110.2c0 .3-.6.3-.3.6s.6.3.9.3h.3v-.3c-.4-.4-.4-.6-.9-.6z"/><path fill="#CF731C" d="M350.3 111c.2 0 .2 0 0 0 0-.3 0-.3 0 0zM350.5 111zM357.1 113.8c-.3 0-.3 0 0 0-.3 0-.3 0 0 0zM354 117.8zM346.3 115c.3 0 .3.6.3.6-.3.6 0 .6.3.8h.3c0-.3 0-.3.3-.3 0 0 .3 0 .3-.3s-.3-.3-.3-.3v-.3-.3c.3-.3.6-.6.3-.8h.3c.3 0 .3 0 .3-.3v-.3c-.3 0-.3-.3-.6-.6h-.3H346.6h-.3v.3c-.3 0-.3 0-.3.3 0 1.2 0 1.5.3 1.5zm1.4-.6c0-.3 0-.3 0 0 0-.3 0-.3 0 0zm-.3 0zm-.8-.3c.3 0 .3-.3.3-.3.3.3 0 .3 0 .3 0 .3.3.3.3.6-.3.3-.6 0-.6-.6 0 .3 0 .3 0 0zM348.9 117.2c-.6 0-.6 0-.6-.6h-1.2c0 .3.3.3 0 .3.3.3.3.6.6.8.3.3.6.3.9 0 .3-.3.9-.3 1.1-.3-.3-.2-.6-.2-.8-.2zM349.4 119.2s-.3 0 0 0c-.3 0-.3 0 0 0zM348.6 118.4c-.3 0-.3 0 0 0h-.3.3zM355.1 117.5h-.3s0 .3.3 0zM355.4 117.8zM349.7 120.6zM359 106.5c-.3-.3-.3 0-.9 0 .3 0 .3 0 .3.3.4 0 .9 0 .6-.3zM358.8 107z"/><path fill="#CF731C" d="M358.2 106.5c.3 0 0 0 0 0 0-.3-.3-.3-.3-.3 0 .3.3.3.3.3 0 .3 0 .3 0 0zM341.8 111.3c.6.3.9.8 1.7.8-.6-.6-.9-1.4-1.7-1.4v.6c0-.3 0-.3 0 0zM347.4 109.6c.3 0 .3 0 0 0 .3 0 .3-.3.3-.3 0-.3-.3-.3-.3-.8h-.3c0 .5 0 .8.3 1.1zM345.2 113.3s0-.3 0 0c-.3-.3 0-.6-.3-.8 0 .3-.6 0-.3 0-.3.5.3.5.6.8zM344.6 113.6c.3.3.3.3.9 0-.6 0-.9-.3-.9 0zM342.3 115c0-.3 0-.3 0 0zM338.1 113.8c0 .3 0 .3 0 0 0 .3 0 0 0 0zM354.5 113s.3 0 0 0c.3 0 .3 0 0 0zM354 113.3zM348.9 115c.3-.3-.3-.3 0-.8-.6.5-.6.5 0 .8zM346.6 119.2s-.3 0 0 0c-.3 0 0 0 0 0zM342 118.7c-.3.3-.3 0-.3-.3s-.3-.3-.6-.6c-.3 0 0 .3-.3.3.3.3.6.8 1.4.8 0 0 .3 0 .3-.3-.2.1-.2.1-.5.1zM340.9 118.1zM338.4 118.7h-.3v.3c0 .3.3.6.9.8 0-.3-.6-.3-.3-.8l-.3-.3zM337.5 119.2c.3-.3 0-.6 0-.8v.3c-.3.2-.3.5 0 .5z"/><path fill="#CF731C" d="M338.1 118.7c0-.3 0-.3 0 0h-.3c-.3-.3-.3 0 .3 0-.3 0-.3 0 0 0zM335.2 114.4c.3 0 .3 0 .3-.3v-.3c-.3 0-.3.3-.3.6-.2 0-.2 0 0 0zM349.7 109.6zM352.2 108.5c.3 0 .3-.3.3-.3s-.3.3-.3 0c0 0 0-.3-.3-.3h-.3c.4.3.6.3.6.6zM351.1 108.2c.3.3.3.3 0 0 .3.3.3 0 0 0z"/><path d="M354.5 112.4c.3-.3.9-.3 1.1-.6v-.3c-.3 0-.3 0-.6-.3-.3 0-.3-.3-.6-.3-.3.3-.3.3-.9.3-.3 0-.9.3-.9.6.3 0 .3.3.6.3.5.3 1 .6 1.3.3zM362.2 109.9c.3-.3.9-.3 1.1-.6v-.3c-.3 0-.3 0-.6-.3-.3 0-.3-.3-.6-.3-.3.3-.3.3-.9.3-.3 0-.9.3-.9.6.3 0 .3.3.6.3.4 0 1 .3 1.3.3zM362.7 113.6v-.3c-.3-.3-.6-.3-.9-.3 0 .3.6 0 .3.3.4.3.6.5.6.3zM357.4 116.7v-.3c-.3-.3-.6-.3-.9-.3 0 .3.6 0 .3.3.3.3.3.6.6.3zM357.6 118.7v-.3c-.3-.3-.6-.3-.9-.3 0 .3.6 0 .3.3.4.3.4.5.6.3zM349.4 112.4c-.3 0-.6-.6-.9-.3-.3.3-.6.3-1.1.3.3 0 .6.3 1.1.6.3 0 .6 0 .9-.3v-.3zM355.6 119.5c-.3 0-.6-.6-.9-.3-.3.3-.6.3-1.1.3.3 0 .6.3 1.1.6.3 0 .6 0 .9-.3v-.3zM370.7 131.7c-.3 0-.6-.6-.9-.3-.3.3-.6.3-1.1.3.3 0 .6.3 1.1.6.3 0 .6 0 .9-.3.3.3.3 0 0-.3zM360.8 109.6c-.3 0-.6 0-.9.3 0 .3-.3.6-.9.8.3-.3.9 0 1.1 0 .3 0 .3-.3.6-.6.3-.2.1-.2.1-.5zM350.3 113.8c-.3 0-.6 0-.9.3 0 .3-.3.6-.9.8.3-.3.9 0 1.1 0s.3-.3.6-.6c.3-.2.3-.5.1-.5zM339.5 112.4c-.3 0-.6 0-.9.3 0 .3-.3.6-.9.8.3-.3.9 0 1.1 0 .3 0 .3-.3.6-.6.4-.2.4-.5.1-.5zM342.3 117.8s.3-.3.3 0v.3c0 .3.3.3.3.3h.6c.3-.6.9-.8.9-.3.3.8 1.1.3 1.4.8 0 0 .9.3 1.1 0 0-.3-.6-.3-.6-.3.3-.3.6 0 .9 0 .3-.3 0-.3-.3-.6.3-.8-.3-.6-.9-.6h-.3l-.3.3h-.3V118.6c-.3 0-.3 0-.3-.3s0-.6-.3-.8h-1.1s-.9 0-1.1-.3h-.6c0 .3-.3.6-.3.8v.3c.3.3.3.3.6.3-.2-.8 0-.8.3-.8zm3.4-.3c.3 0 .3 0 .3.3.3.3-.3.3-.3.3 0-.3-.2-.3 0-.6zM355.4 115.5s.3-.3.3 0v.3c0 .3.3.3.3.3h.6c.3-.6.9-.8.9-.3.3.8 1.1.3 1.4.8 0 0 .9.3 1.1 0 0-.3-.6-.3-.6-.3.3-.3.6 0 .9 0 .3-.3 0-.3-.3-.6.3-.8-.3-.6-.9-.6h-.3l-.3.3h-.3V116.3c-.3 0-.3 0-.3-.3s0-.6-.3-.8h-1.1s-.9 0-1.1-.3h-.6c0 .3-.3.6-.3.8v.3c.3.3.3.3.6.3-.3-.5 0-.5.3-.8zm3.4 0c.3 0 .3 0 .3.3.3.3-.3.3-.3.3 0-.3-.3-.6 0-.6zM350.3 111.6h-.3c0-.3 0-.3.3-.3.3-.3 0-.3-.3-.3h-.3.3-.6c-.3.6-.9.8-1.1.3 0-.8-1.1-.3-1.1-.8 0 0-.6-.3-1.1 0 0 .3.3.3.6.6-.3 0-.6-.3-.9 0-.3.3 0 .6.3.6-.3.8.3.6.6.6h.3s.3 0 .3-.3h.3v-.6c.3 0 .3 0 .3.3s0 .6.3.8h1.1c.3 0 .9 0 1.1.3 0 .3.3 0 .6 0l.6-.6c0-.3-.3-.3-.3-.3-.5-.6-.8-.3-1-.3zm-3.4-.6c-.3 0-.3 0-.3-.3-.3-.3.3-.3.3-.3 0 .3.2.6 0 .6zM363 114.4h-.3c0-.3 0-.3.3-.3.3-.3 0-.3-.3-.3h-.3.3-.6c-.3.6-.9.8-1.1.3 0-.8-1.1-.3-1.1-.8 0 0-.6-.3-1.1 0 0 .3.3.3.6.6-.3 0-.6-.3-.9 0-.3.3 0 .6.3.6-.3.8.3.6.6.6h.3s.3 0 .3-.3h.3v-.6c.3 0 .3 0 .3.3s0 .6.3.8h1.1c.3 0 .9 0 1.1.3 0 .3.3 0 .6 0l.6-.6c0-.3-.3-.3-.3-.3-.4-.6-.7-.3-1-.3zm-3.4-.6c-.3 0-.3 0-.3-.3-.3-.3.3-.3.3-.3 0 .4.3.4 0 .6zM349.4 109c.6-.3.3-.6 0-.8 0 0-.3 0-.3-.3s-.3 0-.3 0c-.3.3 0 .3 0 .3.3.3.9.3.6.8 0 .3 0 0 0 0zM347.4 109c.3 0 .6 0 .9-.3-.3 0-.6 0-.6-.3h-.3l-.3.3c.3 0 .3.3.3.3zM323.1 127.4c-.3 0-.6-.6-.9-.3-.3.3-.6.3-1.1.3.3 0 .6.3 1.1.6.3 0 .6 0 .9-.3.3 0 .3-.3 0-.3zM338.9 116.1c0-.3.3-.3 0-.6s-.3.3-.6.3-.3.3-.6.3c-.3.3-.9.6-.9.8 0 .3.9.6 1.1.6 0-1.1-.3-1.4.9-.6.3.3.9 0 .9-.6-.2-.2-.8.4-.8-.2z"/><g><path d="M374.1 115.8"/></g><g><path d="M372.1 114.1"/></g><g><path d="M365.3 107.3c-.3.3.3.3 0 .6-.3 0-.3.3-.3.3 0 .3 0 .3-.3 0 0 .8.3 1.1.9 1.1l-.3.3s-.3 0-.3.3v.3c0 .3 0 .3.3.3s.6.3.9.3v-.3c0-.3 0 0 0 0h.3c-.3.6.3.6.3 1.1.3-.3 0-.3 0-.6.3.3.9.3.9-.3 0-.8-.6-.6-.9-.8 0-.3.6 0 .6-.3-.3.3-.6-.3-.9 0 0-.3-.9-.6-.3-1.1 0 0 0-.3-.3-.3 0 0 0 .3-.3 0v-.3s.3-.3.3-.6-.3 0-.6 0c.3 0 .3 0 0 0 .3 0 .3 0 0 0zm.8 1.4h-.9c.4-.5.7-.2.9 0z"/></g><g><path d="M365 108.5z"/></g><g><path d="M365 108.5"/></g><g><path d="M365.9 109.6l-.3.3s.3 0 .3-.3z"/></g><g><path d="M371.2 111.9v0z"/></g><g><path d="M367.8 106.8c0 .3.3.3.6.6.3 0 .3.3.3.3l.3-.3c-.6-.4-.9-.4-1.2-.6z"/></g><g><path d="M369.5 107.9s0-.3 0 0c0-.3 0-.3 0 0 0-.3 0-.3 0 0z"/></g><g><path d="M365.9 115h.3s.3.3.6 0h-.3v-.6c-.3 0-.3 0-.6.3-.3 0-.6.6-.6.8 0 .3.3.3.6.3 0-.5-.3-.8 0-.8z"/></g><g><path d="M367.8 108.7c.3 0 .3 0 .3.3.3.3.3.3.9 0h-.3c-.3-.3 0-.3 0-.8-.3 0-.6 0-.9.3-.3.3-.9.8-.9 1.1s.3.3.9.3c0-.6-.3-.9 0-1.2z"/></g><g><path d="M359.6 108.2c.3 0 .3 0 .3.3.3.3.3.3.6 0h-.3c-.3-.3 0-.3 0-.6-.3 0-.6 0-.9.3-.3.3-.6.6-.6 1.1 0 .3.3.3.9.3 0-.9-.3-1.1 0-1.4z"/></g><g><path d="M366.1 115s.3.3.6 0c-.3.3-.6.3-.6 0z"/></g><g><path d="M366.4 114.4c0 .3-.3.3 0 .6-.3-.3 0-.3 0-.6z"/></g><g><path d="M367.3 115l.3.3c0-.6-.9-.8-.6-1.1-.3.3-.3.3-.6.3.3.2.6.2.9.5z"/></g><g><path d="M366.4 114.4c.3 0 .6.3.9.6-.3-.3-.6-.3-.9-.6z"/></g><g><path d="M366.4 114.4z"/></g><g><path d="M366.4 114.4z"/></g><g><path d="M365 109.3c0-.6-.3-.6-.6-.8-.3 0 0 .3-.3.3.6-.1.3 1.1.9.5z"/></g><g><path d="M371.2 109.6c-.2 0-.2 0 0 0-.3-.3-.3-.3-.6-.3-.3.3-.3 0-.6 0h-.3c0 .3-.3.6 0 .8.6.3.3.6.3.8v.3c0 .3-.3.3-.3.3h-.6-.3c.3 0 .3.6.3.8h.3v-.3-.3-.3s.3 0 .3.3c0 0 0-.3.3-.3h.3v-.8h.3l.3.3c.3-.7.3-1 .3-1.3zm-1.1.6l-.3-.3c0-.3.3 0 .3 0 .3 0 .3 0 .3.3 0-.3 0 0-.3 0zM357.1 118.7c-.3-.3-.3-.3-.6-.3-.3.3-.3 0-.6 0h-.3c0 .3-.3.6 0 .8.6.3.3.6.3.8v.3c0 .3-.3.3-.3.3h-.6-.3c.3 0 .3.6.3.8h.3v-.3-.3-.3s.3 0 .3.3c0 0 0-.3.3-.3h.3v-.8h.3l.3.3c.3-.8.3-1.1.3-1.3zm-1.2.2l-.3-.3c0-.3.3 0 .3 0 .3 0 .3 0 .3.3 0 0 0 .3-.3 0zM347.4 118.7c-.3 0-.3 0 0 0-.3-.3-.3-.3-.6-.3-.3.3-.3 0-.6 0h-.2c0 .3-.3.6 0 .8.6.3.3.6.3.8v.3c0 .3-.3.3-.3.3h-.6-.3c.3 0 .3.6.3.8h.3v-.3-.3-.3s.3 0 .3.3c0 0 0-.3.3-.3h.3v-.8h.3l.3.3c.2-.8.2-1.1.2-1.3zm-1.1.2l-.3-.3c0-.3.3 0 .3 0 .3 0 .3 0 .3.3h-.3zM349.7 112.4c-.3-.3-.3-.3-.6-.3-.3.3-.3 0-.6 0h-.3c0 .3-.3.6 0 .8.6.3.3.6.3.8v.3c0 .3-.3.3-.3.3h-.6-.3c.3 0 .3.6.3.8h.3v-.3-.3-.3s.3 0 .3.3c0 0 0-.3.3-.3h.3v-.8h.3l.3.3c.3-.7.3-1 .3-1.3zm-1.1.3l-.3-.3c0-.3.3 0 .3 0 .3 0 .3 0 .3.3 0 0 0 .3-.3 0zM369.2 109c.3 0 .3 0 0 0h.3v-.6c0 .1-.3.3-.3.6z"/></g><g><path d="M346.3 122.1c-.3 0-.3-.3 0 0-.3-.3-.3-.3-.6-.3-.3.3-.3 0-.6 0h-.3c0 .3-.3.6 0 .8.6.3.3.6.3.8v.3c0 .3-.3.3-.3.3h-.6-.3c.3 0 .3.6.3.8h.3v-.3-.3-.3s.3 0 .3.3c0 0 0-.3.3-.3h.3v-.8h.3l.3.3c.3-.8 0-1.1.3-1.3zm-1.1.2l-.3-.3c0-.3.3 0 .3 0 .3 0 .3 0 .3.3h-.3zM367.8 111.6s0-.3 0 0c-.3-.3-.3-.3-.6-.3-.3.3-.3 0-.6 0h-.3c0 .3-.3.6 0 .8.6.3.3.6.3.8v.3c0 .3-.3.3-.3.3h-.6-.3c.3 0 .3.6.3.8h.3v-.3-.3-.3s.3 0 .3.3c0 0 0-.3.3-.3h.3v-.8h.3l.3.3c.6-1 .3-1.3.3-1.3zm-1.1.3l-.3-.3c0-.3.3 0 .3 0 .3 0 .3 0 .3.3h-.3zM365.3 108.7c-.3-.3-.3-.3-.6-.3-.3.3-.3 0-.6 0h-.3c0 .3-.3.6 0 .8.6.3.3.6.3.8v.3c0 .3-.3.3-.3.3h-.6-.3c.3 0 .3.6.3.8h.3v-.3-.3-.3s.3 0 .3.3c0 0 0-.3.3-.3h.3v-.8h.3l.3.3c.3-.7.3-1 .3-1.3zm-1.2.3l-.3-.3c0-.3.3 0 .3 0 .3 0 .3 0 .3.3 0 0 0 .3-.3 0zM352.2 108.2c-.2 0-.2 0 0 0-.3-.3-.3-.3-.6-.3-.3.3-.3 0-.6 0h-.3c0 .3-.3.6 0 .8.6.3.3.6.3.8v.3c0 .3-.3.3-.3.3h-.6-.3c.3 0 .3.6.3.8h.3v-.3-.3-.3s.3 0 .3.3c0 0 0-.3.3-.3h.3v-.8h.3l.3.3c.3-.8.3-1 .3-1.3zm-1.1.3l-.3-.3c0-.3.3 0 .3 0 .3 0 .3 0 .3.3 0 0-.3.2-.3 0zM344.3 121.5h.3v-.6c-.3 0-.3 0-.3.6-.3 0 0 0 0 0z"/></g><g><path d="M369.5 109z"/></g><g><path d="M368.7 113c.3 0 .3.3 0 0 .3 0 .3-.3 0-.3l-.3-.3v.3l.3.3z"/></g><g><path d="M368.7 113z"/></g><g><path d="M368.7 113c.3 0 .3.3 0 0 .3 0 0 0 0 0z"/></g><g><path d="M368.7 113z"/></g><g><path d="M367 108.7c.3 0 .3.3.6 0h-.6z"/></g><g><path d="M371 110.7l-.3.3s.3.3.3-.3z"/></g><g><path d="M370.7 111z"/></g><g><path d="M370.7 111z"/></g><g><path d="M370.7 111z"/></g><g><path d="M369.2 109.3c0 .3 0 .3 0 0 0 .3 0 0 0 0z"/></g><g><path d="M369.2 109.3z"/></g><g><path d="M366.7 115c-.3 0-.3 0 0 0z"/></g><g><path d="M366.7 115z"/></g><g><path d="M376.9 121.8c-.3-.3-.3-.8-.6-1.1h-.6c-.3.3 0 .3 0 .3v.3c.3 0 0 .3.3.6.3-.1.6-.1.9-.1z"/></g><g><path d="M360.5 106.8c0 .3 0 .6.3.8.3 0 .3-.3.6-.3 0-.3-.6-.3-.6-.8 0 0-.6 0-.3.3z"/></g><g><path d="M360.8 106.5z"/></g><g><path d="M365.3 107.3c.3 0 .3 0 0 0 .3-.6-.3-.6-.3-.8-.3 0-.6 0-.6.3s.3 0 .6.3l.3.2z"/></g><g><path d="M365.6 107.3h-.3.3z"/></g><g><path d="M365.6 107.3z"/></g><g><path d="M364.1 106.8s0-.3 0 0c0-.3-.3-.6-.6-.3.4 0 .4.3.6.3z"/></g><g><path d="M363.9 105.9v.3h.3c-.1-.3-.1-.3-.3-.3z"/></g><g><path d="M364.1 106.2z"/></g><g><path d="M365 108.2c-.3 0 0 0 0 0z"/></g><g><path d="M365 108.5z"/></g><g><path d="M365 108.5z"/></g><g><path d="M373.8 114.7c-.3-.8-.3-.8-.9-.3.6-.3.6.3.9.3z"/></g><g><path d="M370.1 109h0z"/></g><g><path d="M370.1 109"/></g><g><path d="M370.1 109z"/></g><g><path d="M370.1 109z"/></g><g><path d="M370.1 109z"/></g><g><path d="M370.1 109z"/></g><g><path d="M370.4 109z"/></g><g><path d="M370.1 109z"/></g><g><path d="M370.1 109z"/></g><g><path d="M370.4 109z"/></g><g><path d="M372.4 119.2c-.3 0-.3 0 0 0-.3 0 0 0 0 0z"/></g><g><path d="M370.7 116.7c-.3 0-.3 0-.3.3s.3 0 .3.3c0-.3.3-.3 0-.6z"/></g><g><path d="M370.7 117.2z"/></g><g><path d="M373.2 116.4c0-.3 0 0 0 0 .3 0 .3 0 0 0z"/></g><g><path d="M373.2 116.4c-.3 0-.3 0 0 0-.3 0-.3 0 0 0z"/></g><g><path d="M373.2 116.4z"/></g><g><path d="M373.2 116.4z"/></g><g><path d="M373.2 116.4z"/></g><g><path d="M383.7 134.5c-.3-.3-.3-.9-.9-1.4v.3-.3c-.3-.3-.3-.8-.6-1.1-.3-.6-.6-1.1-.9-1.4-.3-.3-.3-.6-.6-.9 0 .3 0 .3-.3.6-.3 0-.9 0-1.1-.3l.3.3h-.3c-.3 0-.6 0-.9-.3-.6-.3-.9-1.1-1.1-1.4 0-.3.3-.3.3-.3.6 0 1.1.3 1.4.3 0 0 .3-.3.3 0 0 0 .3.3.6.3 0-.3-.3-.3-.3-.6s-.3-.6-.3-.8c-.3-.6-.6-1.1-.9-1.7-.3 0-.9 0-1.1-.3 0-.3-.3 0-.3 0 0 .3.9.6.9 1.1 0 .3-.3.3-.3.3l-.3-.3s0-.3-.3-.3v.3c-.3 0-.6.3-.9 0-.3-.3-.6 0-.6-.3h.6s.3 0 .3-.3c-.6 0-1.1-.6-1.4.3h-.3s-.3 0-.3-.3h-.3c.3 0 .3-.3.3-.3-.6-.3-.3-.6 0-1.1h-.6l-.3-.3c0-.3-.3.3-.3 0v-.3c0-.3.3 0 .3 0 0 .3.3 0 .6 0 .3-.3-.3-.3-.3-.3v-.3h.3c0 .3.9.3.3.8-.3.3 0 .3.3.3 0 0 .3.3.3 0s0-.3.3-.6h-.3c0-.8-.3-.8-.9-.8h-.3c-.3.3-.9.6-.9-.3 0-.3-.3-.3-.6-.3 0-.6.9-.8 1.1-.3.3.3.3.3.6 0 .3.3.3.8.9.3.3-.3.3 0 .3 0h.3c0 .3.3.3.6.3 0 .3-.3 0-.3.3s.3 0 .6.3.6.3.9.6c-.3-.3-.3-.8-.6-1.4 0 0 0-.3-.3-.3 0 0 0-.3-.3-.3v.3h-.1c0-.3.3-.3 0-.3-.6 0-.3-.3-.3-.3-.3 0 0-.6-.3-.6s-.3.3-.6 0h-.3c0 .6-.3.6-.9.6-.6.3-1.1 0-1.4-.3-.3 0-.6-.3 0-.3v-.6c-.3 0-.6 0-.9.3-.3.3-.6 0-.9-.3 0-.3 0-.8-.6-.3h-.6c.3-.6.9-.3 1.1-.3-.3-.3-.3-.6-.3-.8v-.3h.3s.3 0 .3-.3h.4v.3c0 .3.3.3.6.3h.6l.3.3c.3 0 .3.3.6.3 0 0 .3 0 .3.3 0-.3 0-.8.6-.3.3 0 .6.6 1.1.3-.3-.6.3-.6.6-.8v-.6c0 .3 0 .3 0 0v-.3c-.3 0-.3 0-.6-.3 0-.3.3-.3.3-.3v-.3c-.3-.3-1.1.3-.6-.6.3 0 .3.3.3.3 0-.3-.3-.8-.3-1.1h-.6v-.6s0-.3.3-.3c-.3.3-.9 0-1.1-.3.3 0 .9.3 1.1.3-.3-.6-.3-1.1-.9-1.4-.3-.6-.6-1.1-.9-1.7-.6-.3-1.1-.3-1.7 0v.6c-.3 0-.3 0-.3.3V113.8h-.6s-.3 0-.6.3c0 0 0 .3-.3.3s-.3-.3-.3-.3v-.6l-.3.3v.3s0 .3-.3.3v.3l.3.3c0 .3.6 0 .6.3-.3 0-.3.3-.3.6 0 0 .3 0 0 0h-.3v-.3s-.3 0-.3-.3c-.3 0-.3-.3-.3-.6 0 .3-.3.3-.3 0h-.3s-.3-.3-.3 0v.3c.3.3.3.6-.3.8.6 0 .6.8 1.1.8-.3 0-.6 0-.9-.3-.3-.3-.6-.8-1.1-.8-.9 0-1.4.8-.9 1.7.3 0 .3.3.9.3.3 0 .3.3.3.6.6-.6 1.1-.3 1.1.3.3 0 .3 0 .6.3v-.3c.6.3-.3.8 0 1.1 0-.3.3-.6.6-.3.3 0 .6.3.6.3 0 .3-.3.6-.6.6 0 0-.3 0-.3.3.3 0 .6.3.9-.3 0 .3 0 .6.3.8h.3c0-.3.3-.3.3-.3.3 0 0 .3 0 .3h.3c.9.3 1.1.8 1.7 1.1 0 0 .3.3 0 .3h-.3c-.3-.6-.9-.3-1.1 0h-.6c0-1.1-1.1-.8-1.7-1.4 0-.3.3-.3.3-.3v-.3c0-.3 0 0 0 0l-.3-.3-.3-.3v-.3c-.3 0-.6.6-.6 0 0-.3 0-.3-.3-.3 0 .3 0 .3-.3.3-.3-.3-.3-.3-.6-.3 0-.3-.6-.3-.9-.3-.3 0 0 .3 0 .3h-.3c0-.3-.3-.3-.3 0-.3-.3-.3.3-.6 0s-.9-.3-1.4-.3c.3.3.9.3.9.8-.3-.3-.9-.3-.9-.8v-.3c.3 0 .6-.3.3-.6h.3l.3-.3c0 .3.3.3.6.6s.9.6 1.1.6c0-.3-.6 0-.9-.3.9 0 0-.3 0-.3.3-.6-.3-.8-.3-1.1h-.3-1.2-.3s-.6.8-1.1.6c0 .3.3.3 0 .3 0 0 0 .3-.3.3s0-.3 0-.3c-.3 0-.3.3-.6.3 0 .6.9.3 1.1.8h.3c0-.3-.3-.6.3-.6.3 0 .3.3.3.3-.3 0 0 .8-.6.6v.3h.9c0 .3 0 .6-.6.6.6.3.6 1.4 1.4 1.1.3-.6-.9-.6-.9-1.4.3.3.6.3.9 0 .3-.3-.3-.3 0-.6.6.3.9.3 1.4-.3 0 0 .3.3.3 0 .3 0 .6.3.3.6 0 0-.3 0-.3.3s.3 0 .6 0c0 0 .3 0 .3.3.3.3.3.3.3 0s.6-.3.6 0c.3.6.6.8 1.1.8-.6.8-.9 0-1.4 0h-.3c0 .3.3.3.3.8 0 .3-.3.3-.6.3-.3-.3.6-.3 0-.6 0 0-.3.3-.6 0h-.3.3v-.3-.3h.6c-.3-.3-.6-.6-1.1-.6.6-.3.6-.9.6-1.1-.3.3-.3.6-.3.8h1.2s0 .3-.3.3c-.6 0-1.1.3-1.4.8h-.3c-.3-.3-.9-.3-1.1-.6-.3-.3-.6-.3-.3-.6s-.3 0-.3-.3c0 0 0 .3-.3.3h.3c0-.3 0-.3-.3-.3h-.3c-.3 0-.6-.3-.6-.3v-.6c.3 0 .6 0 .6.3 0 0 0 .3.3 0v-.3c0-.3-.6-.6-.9-1.1v-.3s-.3 0-.3.3v.3c0 .3 0 .3.3.3h-.3c-.3 0-.3-.3-.6-.3l-.3-.3c0-.3.3-.3.6-.3v-.3c-.3-.3-.9 0-1.1-.3-.3 0 0 .6-.3.6 0 .6-.6.8-.6 1.4.3 0 .3 0 .6-.3 0 .8-.3 1.1-.9.8h-.3c0 .3 0 .8-.6.3 0 .6.3.6.9.6.3 0 .6 0 .6.3 0 0-.3.3 0 .3-.3 0-.3 0-.6-.3 0-.3-.3 0-.3 0v.3s.3 0 .3.3c-.6.3-.6.3-.9-.8-.3 0-.3.3-.3.3l-.3.3c.3.3.3.6 0 1.7-.3 0 0-.6-.6-.8h-.3s0 .3.3.3c0 0 .3 0 0 0 0 0 0 .3-.3.3s-.6 0-.6-.3c-.3-.3-.9-.3-.6-1.1-.3 0-.3-.3-.6-.3v-.3c.3 0 .3-.3.3-.3v-.6h-.3c0 .3-.3.3-.3.6-.6-.3-1.1.3-1.4 0h-.9l-.3.3c0 .3.3 0 .6 0 .3.3.9 0 1.1 0h.6c.3.3.9.3 1.1.8h-.3s-.3 0-.3-.3c-.3-.3-.9-.3-1.1-.3h-.3v.3c0 .3 0 .3.3 0H354.1V121.8c.3-.3.9-.3 1.1-.3 0 0 .3 0 0 .3-.6.8.3.3.3.6.3 0 .9 0 .3.6h1.1s.3-.3.6.3c0 .6-.3 0-.3 0l-.3.3c-.6.3-.9 0-1.1-.6-.3 0-.3-.3-.6-.3 0 .3 0 .8-.9.8v-.3-.3h-.3c-.3.3-.6 0-.9-.3 0 0-.3 0-.3-.3 0 .3 0 .6.3.8l.3.3c0 .3-.3 0-.3 0-.3 0-.9-.3-.6.6v.3c-.3 0-.3 0-.3-.3 0 0-.3 0 0-.3.3 0 0-.3 0-.3h.3v-.3-.3s.3 0 .3-.3h-.3c0-.3-.3-.3-.3-.6v-.3h-.3.3c.9 0 .3-.3.3-.8 0 0 .3 0 .3.3 0-.3 0-.6.3-.8-.6 0-.9.8-1.4.3h.3v-.3h-.3v.6c-.3-.3-.6-.3-.9-.6v.3s0 .3.3.3c0 .3.3.3.3.3h.3c0 .3.6 0 .3.3 0 0-.6-.3-.9-.3-.3 0-.9-.3-.9 0 0 0-.3 0 0-.3v-.3c-.3 0-.6-.3-1.1 0 .3-.6.6-.6 1.4-.6.3-.3-.6-.3-.3-.6.3 0 .3.3.6.3h.3v-.3c0-.3-.3-.6-.6-.6h-.3-.3s-.3 0-.3.3c0 0-.3 0-.3-.3h-.3v-.3l-.3-.3h-.3-.4s.3 0 .3.3c.3 0 .3 0 .6.3-.6.3-.9 0-1.1 0l-.3-.3c-.3 0 0 .3 0 .3v.8-.6c.3 0 0 0 0 .3h.3c.6.3.6.6.3.8 0 0 .3 0 0 .3 0 0 0 .3.3.3v.6h-.6v.3c0 .3-.3.3-.6.3.3 0 .3.3.6.6v.3c.3-.3.3-.3.3-.6 0 0 0-.3.3-.3-.3.3 0 1.1-.6 1.1 0 0-.3 0-.3.3 0 0 0 .3-.3.3.3.6.9 1.1 1.1 1.7.3 0 .3 0 .6-.3s.3 0 .6 0c0 .3.3.3.3.3v.3h-1.1c.9.8 1.7 1.7 2.6 2.6.6.6 1.1.8 2 1.4v-.3s.3 0 .3.3c0 0 0 .3.3.3s.3.3.6.3v-.3s-.3-.3 0-.3c0 0 .3-.3.3.3 0 .3.3.3.3 0 .3 0 .3.3.3.3v.6c.3.3.9.3 1.1.6 0-.3 0-.9-.3-1.1-.3 0-.3-.3-.3-.6v-.9-.6c-.3 0-.6 0-.9-.3v.3s.3 0 .3.3-.3.3-.6.3c0 0-.3 0 0-.3 0-.3.3-.3 0-.6v.1h.3c0-.3.3-.3.3-.6h.3v-.3c0-.8.3-1.7.6-2.3 0 .3-.3.3-.6.3s-.3-.3-.3-.3c.3-.3.3 0 .3.3 0-.3.3-.3.6-.3s.3-.3.6-.3c.3-.3.6-.6.9-.8 0-.3-.3-.3-.9-.3-.3 0-.3-.3-.3-.3 0-.3 0-.3.3-.3h.6s.3 0 .3-.3c0 0-.3 0-.3-.3 0 0 0 .3-.3.3 0 0 0-.3.3-.3 0-.3.3-.3 0-.6 0-.3.3-.3.3-.3.3.3.3 0 .3 0s0-.3.3 0c0 0 .3.3 0 .3-.6.3 0 .3 0 .6h.3c.3 0 .3-.3.3-.3 0-.3-.3-.3-.3-.6.3 0 .9 0 .6.6 0 .3.3.3.3.6v.3h-.6c0-.6-.3-.3-.6-.3 0 0-.3.3 0 .3 0 0 .3 0 .3.3h1.2s-.6 0 0-.3c.3 0 .6-.3.6-.8 0-.3-.3-.3-.6 0 0 .3.3.6-.3.6 0 0-.3 0-.3-.3s.3-.3.3-.3h.6c-.3 0-.3-.3-.3-.3v-.3c0-.3 0-.3.3-.6h.6c.9 0 1.7.3 2.6.3.3 0 .3 0 .6.3h-.9c0 .3.6.3.3.6h-.3-.3s-.3 0-.3-.3c0 .3.3.6-.3.8.9-.3 1.1 0 1.1.6s.6.3.6.3c0-.3.3-.3.6-.3h.3v-.3c0-.3-.3-.3-.3-.6h-.3l-.3-.3c.9-.6 1.1.3 1.4.8 0 .3-.3 0-.6.3v.3c.3 0 .6-.3.9 0-.6.3-.6.3 0 .6.3 0 .3.3.3.6 0 0 0 .3.3.3l.3-.3v-.6-.6h.3c0 .3.9 0 .3.6 0 0 .3 0 .3.3h0c-.6 0-.6 0-.3.6 0 0 .3 0 0 .3s-.9.6-1.1 0c0-.3-.3-.3-.6-.3 0 .3.3.3.3.6-.6 0-.6 0-.9-.6-.3-.6-.9-.3-1.1-.3h-.6c.3 0 .3.3.6.6l.3.3s.3.3.3.6v-.3c.3.3.3.6.6.8h-.3s0 .3.3.3h.3-.3c.3.6.6 1.4.6 2 .3-.3.6-.3 1.1.3 0 0 .3 0 0 .3-.3-.3-.6-.3-.9 0 0 .3 0 .9.3 1.1v5.1c.3 0 .6 0 .9.3h.3l-.3-.3c0-.3.3-.3 0-.6 0 0-.3-.3.3-.3h.9c0 .3-.3.6-.6.6.3.3.9 0 .9.8.9 0 1.7.3 2.6.3 0-.3-.6.3-.9-.3 0-.3-.3-.3-.3-.8.3 0 .3 0 .6.3h.3s.3.3.3.6h.3c0-.6-.3-.8-.6-1.1 0 0-.3-.3-.3-.6 0 0 .3-.3.3 0s.9 0 .6.3c0 .3-.3.6 0 .6h1.5c.3.3.3.3.9 0h.3l.3.3c.3-.3.3-.3.6-.3-.3 0-.3 0-.6.3l-.3.3H375.3c1.7-.3 3.7-.6 5.1-1.1h.6c.3 0 .3 0 .6-.3h.3c.3-.3.9-.3 1.4-.6.3 0 .6-.3.9-.3h.3m-5.6-7.1s.3.3 0 .6v0s0-.3-.3-.3v0c0-.3.3-.3.3-.3zm-4.3-4.5c.3 0 .3 0 0 0 0 .2 0 0 0 0zm-8.5-5.1zm1.7.8c0-.6 0-.8.6-.8-.3.2-.6.2-.6.8zm.3 0c0-.3 0-.3 0 0zm.3.3s0-.3 0 0c0-.3 0-.3 0 0 0-.3 0 0 0 0zm1.1 0c0-.3 0-.3 0 0 0-.3 0-.3 0 0 0-.3 0-.3 0 0zm1.5.3c0-.3 0-.3 0 0zm3.9-.3zm-1.1-2.6c.3 0 .3.3.3.6-.3-.3-.6-.3-.3-.6-.3 0 0 0 0 0zm-1.7.3h.3-.3zm1.1-1.4c.6-.3.6-.3.9.3-.6 0-.6-.6-.9-.3zm-.3-.8c0-.3 0-.3 0 0 0-.3 0 0 0 0zm-.3-.6c0 .3-.3.3-.3.3s.3 0 .3-.3v-.6c.3.3.3.3 0 .6zm-1.1-.3v-.3.3zm-1.1 2c0-.3 0-.3 0 0 0-.3 0-.3 0 0zm-.6-.6zm-.3 2c0-.3 0-.3 0 0 .3 0 0 0 0 0 0-.3-.3-.3-.3-.6 0 .3 0 .3.3.6zm-.3.9l.3.3c.3-.3.3-.8.9-.6v-.3c0-.3-.3 0-.3 0s0-.3.3-.3c0 0 .3 0 .3-.3h.3c.6 0 .6.3.9.6 0 0 .3.3.3 0v-.3H373.1s0-.3.3 0v.3h.6c.3.3.6.3.6 0v.3c-.3.3-.3 0-.6 0h-.3v.6h-.3s-.3.3 0 .3.3.3.3.3c.3 0 .3 0 .6.3 0-.3.3-.6.3 0 0 .3.3.3.3.6 0 0-.3.3 0 .3 0 0 .3 0 .3.3v.3c-.3.3-.3 0-.3-.3s0 .3-.3.3h-.6c-.3 0-.3-.3-.3-.6-.6-.3-1.1-.3-1.4-.6 0-.3 0-.8-.3-.6-.3 0-.3-.3-.3-.3-.3.3.3.8-.3.8-.3 0-.6-.3-.9-.8l-.3-.3c-.7-.1-1-.3-1-.3-.2 0-.2 0 0 0-.2 0-.2 0 0 0zm.9 1.9v-.3.3zm-.9-.2c.3 0 .3 0 0 0zm-5.6 1.4zm-10.5 2.5zm.3 10.2c0 .3 0 .8-.9.3.3 0 .6-.3.9-.3zm-3.4-8.2h.3c0 .3 0 0-.3 0 0 .3.3.3 0 .6v-.3c-.3 0-.6 0-.6-.3.3.3.6.3.6 0zm0 1.4c0-.3 0-.3 0 0 0-.3 0-.3 0 0zm-.6-.3h-.3c0 .3 0 .3.3 0 0 .3 0 .3 0 0zm-1.4-1.4c.9-.3.9 0 1.1.6v.3c-.3.3-.6-.6-.9 0-.3-.3-.9 0-.9-.6.4 0 .7 0 .7-.3zm.6.9s-.3 0 0 0c-.3.3-.3.8-.6.8 0-.3 0-.5.6-.8-.3 0-.3 0 0 0-.3 0-.3 0 0 0zm-1.7-1.2s.2 0 0 0c0 .3 0 .3 0 0h-.3.3zm-.3 2.6c0-.3 0-.3.3-.3 0 .3.3.6.9.6.3.3 1.1-.3.6.6h-1.1c-.4-.1-.7-.3-.7-.9zm2 4c0 .3-.3.6-.6.3 0 0-.6 0-.3-.6 0-.3.3-.3.6 0 0 0 .3 0 .3.3zm1.7-1.5c0 .3-.3.3-.3.3s-.3 0-.3-.3c0 0 0-.3-.3 0 0 .3-.3 0-.6.3 0 .3.6.3.9.6-.3 0-.6 0-.9-.3 0 0-.6-.3 0-.6v-.3l-.3-.3c0-.3-.3-.3-.6-.3s-.9-.3-.6-.8c.6 0 .9 0 .9-.6v.6c0 .3.3.6.3.6 0 .6 0 .6.6.6.3 0 .3 0 .6-.3 0 .3-.3.3.3.3 0 .5.3.5.3.5zm.8.3c-.3 0 0 0 0 0zm0 1.4c.3 0 .6 0 .9.3-.3 0-.6.3-.9-.3zm1.4-1.1c0-.3 0-.3 0 0-.9.3-1.1-.6-1.4-.6 0 0-.3-.3-.3 0v-.3l-.6-.6c-.3 0-.6 0-.3-.3h.6l.3.3s.3 0 .3.3h.3v-.3c.3 0 .3-.3.9-.3.3 0 .3 0 .6.3 0 0 .3.3 0 .3s-.3 0-.3-.3h-.3s0 .3-.3.3v.3c.3.6-.3 0-.3.3-.3 0-.3-.3-.3-.3s-.3 0-.3-.3v.3c0-.3-.3-.3-.6-.3l.6.6.3-.3c.3.3.3.3.6.3.3.3.6 0 .9.3-.4-.3-.4-.3-.4.3 0 0 .3 0 .3.3 0-.3-.3 0-.3-.3zm.3 1.4v-.3l-.3-.3s.3 0 .3.3c.3 0 .3 0 0 .3.3 0 .3 0 0 0zm8.5-5.4s.3 0 .3.3l-.3.3-.3-.3c.3 0 .3-.3.3-.3zm-.3-7.3s0-.3 0 0c0-.3 0-.3 0 0zm-.2 1.1s0 .3 0 0H361.7c-.3.3-.3.3-.6.3 0 .3 0 .6-.6.3l-.3-.3s0 .3-.3.3c0-.3 0-.3.3-.3 0 0 .3-.3.6-.3zm-1.5-2.3zm-.3.3zm-.2.3zm-.3 1.4c.3 0 .3 0 0 0zm.8 1.4c-.3.3-.6.3-.9-.3.4.1.4.3.9.3zm-.8-.5c-.3 0-.3 0 0 0-.3 0 0 0 0 0zm-.3 1.4c0 .6 0 .6-.6.3.3 0 .6 0 .6-.3zm-1.4 2.8zm2.2-.5h-.3c-.3-.3-.3 0-.6 0s-.3.3-.6.6c-.3 0-.3-.3-.3-.6v-.3c-.6 0-.6-.6-.9-.8.6.3 1.1 0 1.7 0h0s-.3.3 0 .3h.6c0-.6.6 0 .9 0-.2.8-.5.8-.5.8zm0-6c.6 0 1.1.3 1.4.8-.5-.2-1.1.1-1.4-.8zm1.8 6.2c0-.2 0-.2 0 0zm.8-.2h-.6c-.6-.3-.6-.3-1.1 0h-.3l-.3-.3c0-.3 0 0 .3 0 .6 0 .6-.3.3-.8-.3-.3-.3-.3 0-.6.3 0 .3 0 .6.3.5.2.5 1.1 1.1 1.4 0-.3.3 0 0 0zm.3-1.2v-.8c0-.3-.3-.3-.3-.3h-.3s-.3 0-.3-.3v-.3s-.3 0-.3-.3v-.3c.3.3.6 0 .6 0 0 .6.9.8.9 1.4.3.4 0 .6-.3.9zm.8 2.9zm14.5 5.1zm0 .2zm-2.6-2.8c.3 0 .6.3.9 0 0-.3.6.3.6.6s.6.3.3.8c-.6-.8-1.4-.8-2.3-1.1.3-.3.5-.3.5-.3zm-2.2.3c-.3 0-.3 0 0 0-.3 0-.3-.3 0 0-.3-.3-.3-.3 0 0-.3-.3 0 0 0 0zm-1.4-4.5c.3-.3.3.3.3.3.3-.6.6 0 .9.3-.3 0-.6 0-.9-.3v.3l-.3.3c0-.7-.3-.7 0-.9zm1.1 4.8c-.3 0-.3-.3-.3-.6.3.3.3.6.3.6zm-.9-2.9s0-.2 0 0c0-.2 0 0 0 0zm-.5-.8c.3 0 .3.3.3.6-.3 0-.3-.3-.3-.6 0 0-.3-.3 0-.3s0 .3 0 .3zm-.9 4s0-.3 0 0c.3-.3.3-.6.6-.6v.3s0 .3-.6.3c0 .3 0 .6-.3.3l-.3-.3h.6zm.3-4s.3 0 0 0c.6.3.3.3 0 .6v-.6zm.6-2.3v.3c-.3.3-.6 0-.9-.3.3.3.6-.3.9 0zm-1.5 2.9v0zm.6 3.1c-.3 0-.9.3-.9-.3.3 0 .6 0 .9.3zm-.8 1.1c.3.3.3.3 0 .6s-.3 0-.6 0c.3-.3.6-.3.6-.6 0 0-.3 0-.3-.3.3 0 .3.3.3.3zm0-1.7zm0-2.3c-.3 0-.6-.3-.9-.6.3.1.6.4.9.6zm-.9 4h-.6-.3.3c.3 0 .6-.6.6 0 .3 0 .3 0 0 0zm0 .9c0-.3 0-.3 0 0 0-.3 0 0 0 0zm-1.1-5.4c.3 0 0-.6.6-.3l.3.3c0 .3-.3.3-.3.3h-.3c-.6-.3-.6-.3-.3-.3zm-.3-1.2c.3 0 .9.3 1.1.3 0 0 .3 0 0 .3 0 0-.3.3-.3 0s-.5 0-.8-.6zm1.1 3.4c.3.3.6.3.3.6 0 .3-.3 0-.3 0-.3-.3-.9-.3-.6-.6.3-.2.3-.2.6 0zm-2.8-6.2c0 .3.3.3.6.3.6-.3 0-.3 0-.8 0 .3.9 0 .3.8 0 0 .3.6.6.8.3 0 .3-.3.9-.3-.3-.3.3-.3.3-.8 0-.3 0-.6.3-.6s.9 0 .9.3 0 .6-.3.8c0 0-.3 0-.6.3 0 .3.3 0 .6.3s.6.6.3.6-.6.8-1.1 0c-.3-.3-.9-.8-1.4-.6h-.3s-.6 0-.6-.3c0-.6-.9-.6-.9-1.1.1 0 .4 0 .4.3zm-2 .9c-.6 0-.3-.3-.3-.6s0-.3.3-.6h.6s.3 0 .3.3-.3 0-.3 0c-.3.6-.3.6-.6.9h.6l.3-.3c.3.3.6.6.9.8l-.3.3c-.3-.3-.9-.3-1.1-.3-.3-.3-.3.3-.6.3-.1-.3.2-.8.2-.8zm1.1 1.1c-.3 0-.6.3-.9 0 0 0 0 .3-.3.3v-.3h.6c.4 0 .4-.3.6 0zm0 3.7c-.3 0-.9 0-.9-.6h.6c-.3-.6-.6-.3-1.1-.6.3-.3.3-.3.6-.3h.3c.3 0 .3.3.6.3.8.9.2.9-.1 1.2zm.6-2.9c-.3-.3.3-.6.3-.8 0 .3.3.6.6.3 0 .6-.3.8-.6.8 0 .3 0 0-.3-.3zm.6 13.4v-.3.3zm-.3-1.2c0-.3 0-.3.3-.6h.3c-.6.6 0 .6 0 .9-.3 0-.6-.3-.6-.3zm.6 1.7c0 .3 0 .3 0 0h-.3.3c.3 0 .3 0 0 0zm0-2c.3-.3.3 0 .6 0-.3.3-.3.3-.6 0zm.3-1.4s.3 0 .3-.3c-.1.3-.1.3-.3.3zm0-10.2c-.3 0-.3-.3-.3-.3 0-.3.3-.3.3-.3s.3 0 .3.3c.2.3-.1.6-.3.3zm.8 10.8zm0 0v-.9.9zm.3 2.8c-.3 0-.3 0 0 0-.3 0 0 0 0 0zm.5-2.2c-.3 0-.6 0-.6.3-.2-.1.1-.3.6-.3zm-.5-.6c.3 0 .3.3.6.3-.3 0-.6 0-.6-.3zm1.1 1.4h-.3s-.3-.3 0-.3c0-.3 0-.3.3-.6h.3c-.3.3-.3.6-.3.9 0 0 .3 0 0 0zm1.4 1.7v.3h-.3c0-.3 0-.6.3-.3 0 0 0-.3 0 0 .3 0 .3 0 .3.3 0 0 0-.3-.3-.3zm2.6.3v.3-.3zm1.1.3c0 .3-.3 0-.3 0-.3 0-.3-.3-.3-.3-.3-.6-.6-1.1-1.4-1.1 0 .3 0 .3-.3.3s0-.3-.3-.6c-.3 0-.3.6-.6.3v-.3s.3 0 .3-.3c-.3-.3-.6 0-.6 0 0 .6-.6.3-.6.8 0 .3-.3 0-.3 0 0-.6-.6-.6-.9-.8 0-.3.9.3.3-.3h.3c.9.3.9-.3.9-.9 0-.3 0-.6.6-.3.3 0 .3 0 .3-.3v-.3s.3 0 .3.3c.3.3.6.3.9.3.3 0 .3 0 .6.3-.3.3-.3-.3-.6-.3 0 .3 0 .6-.6.3.6.3 1.1.6.6 1.4.6 0 .6.8.9.8h.3c.5.4.5.7.5 1zm-1.7-4s.3 0 0 0c.3 0 .3 0 0 0 .3.3.3.3 0 0 .3.3 0 0 0 0zm2.3 2.3c-.3 0-.6 0-.9-.3h.9c.3 0 .3 0 .3.3h-.3zm-.6-.6zm1.2-2.5c0 .2 0 .2 0 0-.3.3-.3.3-.3.6v2c-.9-.3-.9-.6-.6-1.1v-.3h-.3s-.3 0-.3.3c.3 1.1-.6.6-.9.6 0-.3.3-.3.3-.6 0 0 .3 0 .3-.3s-.3 0-.3 0h-.3c0-.6-.3-1.1-.6-1.4 0-.3 0-.3.3-.6h-.9c0 .3-.3.8.3 1.1-.6 0-.6.3-.6.9-.6-.6-.9-.3-1.1.3 0 0 0 .3-.3 0s-.6 0-.6-.3 0-.3-.3-.3-.3.3-.3.6v.3s.3 0 .3.3h-.3v-.3h-.3c-.3 0-.3-.3-.9-.3v-.6c.9.3 1.4-.3 2-.3.3 0 .6-.6 1.1 0v-.6-.3h-1.2c-.3 0-.3-.3 0-.6.3-.6 0-.6-.3-.9v.3c.3.3 0 .6-.3.6h-.6c-.3 0-.3.3 0 .8h-.3v-1.1c0-.6-.9-.6-1.1-.8 0-.3-.3-.3-.3-.6h.6s.3.3.9.3c.3 0 .3-.3.6-.3v-.3.3s.3 0 .3-.3h.3s.3-.3.6-.3h.3v-.3c-.3 0-.3-.3-.3-.6.3 0 .6-.6 1.1 0 .3.3.3.3.6 0h.3c.3.3.6.3.9 0 .3 0 .9 0 .6.6.3 0 .3-.3.6-.3 0 .3 0 .6-.3.8h.6c.6-.3.6-.3.9-.3 0 .3 0 .3.3.6-.6-.3-.9.6-1.4.3 0-.3.3-.3.3-.6-.3-.3-.6-.3-.9 0 0 .3.3.3-.3.6-.3 0-.3-.3-.3 0s.3.3.6.3c.6-.3.6.3.9.6 0 .3-.3.3 0 .6v.3h.3s.3 0 .3.3c0 0 .3-.3.3 0 .3.3.3.3.3 0l.3-.3.3.3c.3.3 0 .3 0 .3-.3 0 0 .3 0 .3 0 .3-.3.3-.3 0-.4-.1-.4-.3-.6-.3zm1.6 0v.3h-.6c-.2-.6.1-.3.6-.3zm-.8 2.2c0 .3 0 .3 0 0-.3 0-.3 0 0 0zm-.6-.5l.3-.3c.3.3 0 .3 0 .6 0 0 0 .3-.3 0 0-.1-.2-.1 0-.3zm0 1.7v-.3h.3c0 .3.3 0 .6.3-.3 0-.6.5-.9 0zm1.2-.6v.3c-.3 0-.6-.3-1.1-.3v-.3s.3-.3.3 0c.3.3.3 0 .6 0 0-.3.3-.9.3-1.1-.3.3-.3.6-.3 1.1l.2.3zm.5-4.5c-.3.3-.3-.3-.9 0 0-.3.3-.3.3-.6-.6-.3-.9-.8-1.1-.8v-.3h.3c.3.3 1.1.6 1.1 1.1 0 .3.3.3.3.6zm0-.6c0-.3 0-.3 0 0zm.6 5.1s.3 0 .3.3l-.3-.3zm.3-4.5c-.3 0 0 0 0 0zm.3-1.2c0 .3-.3.3-.3.6 0-.3.3-.3.3-.6zm2.5.6c.3 0 .6-.3 1.1-.3-.5 0-.8 0-1.1.3v.3c0-.3-.3-.3 0-.3zm-.5-.9v0zm0 .6s.2 0 0 0c-.3 0 0 0 0 0zm-.9-.3v-.3.3zm-.8 2.6zm0 0c.3 0 .3.3.6.3-.1-.3-.4-.3-.6-.3zm.8 3.1s-.3 0 0 0c-.3 0 0 0 0 0h0zm1.4-2zm1.1-.8c-.3 0 0 .3 0 .6-.3 0-.6-.3-.6-.6 0 0-.3 0-.3-.3v.3c-.3 0-.6 0-.6.3l-.3.3c-.3-.3-.3-.3 0-.6v-.3c0 .3-.3 0-.6 0h.3v-.3h.6c0-.3-.6-.3 0-.6-.3.3 0 .3 0 .6 0 0 0 .3.3.3 0 .3.3 0 .3 0 0-.3 0-.9.3-.9l.3.3s.3 0 .3-.3c.3 0 .3 0 .6-.3 0 .3 0 .3-.6.3 0 0-.3 0-.3.3-.2.6.3.3.3.9zm0 .2c.3 0 .3-.3.3-.3 0-.3-.3-.6 0-.8v.8h.3c.3 0 .6.3.6.6-.3.3-.6.3-.9.3-.5 0-.3-.6-.3-.6zm0 2.3zm.9-.6c-.3.3-.6.3-.9 0 .3 0 .6-.5.9 0 0-.2.3 0 0 0 .3 0 0 0 0 0zM371.2 118.9s.3 0 0 0c0-.2 0-.2 0 0zM344 121.5c.3-.3.9.3.6-.3h-.3s-.3-.3-.3 0c-.2 0 0 .3 0 .3zM374.4 119.8c0 .3.3.8.6.8s.6-.3.6-.6c-.7.4-1-.2-1.2-.2zM373.5 116.7h-.3c0-.3 0 0 .3 0z"/><path d="M344.6 121.2c0 .6-.3 0-.6.3 0 0 0 .3 0 0-.6-.3-.6.3-.3.3.3.3 0 .3 0 .6.6-.3.6-.3.9-.6.6 0 .9-.8 1.4-.8-.5-.4-.8.2-1.4.2z"/></g><g><path d="M361.6 106.8z"/></g><g><path fill="#F19221" d="M552.3 232.8c-26.9-81.9-95.8-54.4-95.8-54.4l-.3-.3c-8.5 39.7-1.4 67.4 5.4 82.7 10.5 3.7 21 6.8 29.2 6.8 16.7.3 59.2-.6 75.7 30.3-19.3-26.9-59.2-26.9-75.9-27.8h-2.3c-.6 0-1.1 0-1.4-.3h-.6c-.6 0-1.4-.3-2-.3h-.6c-.6 0-1.1-.3-1.4-.3s-.6 0-.9-.3c-.6 0-1.1-.3-1.4-.3s-.9-.3-1.1-.3c-.6 0-1.1-.3-1.4-.3s-.9-.3-1.1-.3-.9-.3-1.1-.3-.9-.3-1.1-.3c-.3 0-.3 0-.6-.3-.9-.3-1.7-.6-2.5-.9-.3 0-.3 0-.6-.3-.6-.3-1.1-.3-1.7-.6h-.3c-1.7-.6-3.7-1.4-5.4-2-17.9-6.8-35.4-16.7-40.5-19.3-.9-.6-1.4-.9-1.4-.9-4.2-4.5-14.7-10.8-14.7-10.8s-6.8-5.1-9.4-6.5c0 0-4.2-4-8.2-5.4 0 0-3.1-3.1-4.8-4 0 0-4.8-6.8-10.8-9.1 0 0-7.4-3.1-9.4-3.7 0 0-6.5-1.1-7.6-.9 0 0-2.3 0-2.6 2.3-.3 2.3.9 4.2 9.9 6.8.3 0 7.4 4 8.2 4.2.3.6 4.8 5.4 5.9 6.2l-.3 1.4-9.1-4s-3.7-.9-5.1-.9h-9.9s-7.6.3-9.4 1.1c0 0-2.6.6-2.3 2.8.3 2.3 2.6 5.1 11.1 4 .3 0 8.8 1.1 10.5.9 0 0 7.4 2.6 9.6 3.1.3.3 3.1 1.1 2.5 2.6 0 0-.3.9-2.3.3 0 0-4.2-.9-5.1-1.1-.9 0-3.7-.3-6.5 0l-11 .9s-7.6-.6-7.6 3.1c0 0-.6 4.5 6.5 4l11.3.3h6.8l9.4 2v2.8l-9.9 1.4-5.4 1.1H355s-3.4 0-3.1 2.8c.3 2.6 2.8 4.5 8.8 4.2 0 0 9.1 0 11.1-.9h6.8l4.2.9 15 4 5.7 1.7c1.7 1.4 5.9 5.1 5.9 5.1 106.8 120.4 164.9 96.6 164.9 96.6l.9-7.1c1.1-6.2 1.7-12.2 2-17.3 13-53.6-24.9-104.9-24.9-104.9z"/></g><g><path fill="#030202" d="M400.7 508.2c.9.3 1.4.6 2.3.9h.3c2.6 1.1 5.1 2 7.9 2.5.9.3 2 .3 3.1.3 1.7 0 3.1-.3 4.8-.3 1.4-.3 2.6-.3 4-.3h1.4c0-.3-.3-.6-.3-.9-.3-2.8 2.6-5.1 3.7-5.7s2.6-.9 4-.9c.9 0 1.7 0 3.1.3 1.7.3 3.1.9 4.5 1.4 1.1.3 2 .9 3.1 1.1 1.4.3 3.1.6 4.5.9.9 0 1.7.3 2.5.3 1.7.3 4 .6 6 .6 2.5 0 5.7-.3 8.8-.9.9 0 1.7-.3 2.8-.6 1.4-24.1-5.7-51.3-43.6-51.3-32.6 0-37.7 27.8-37.1 47 .3 0 .9.3 1.1.3 4.3 2.2 8.9 3.9 13.1 5.3z"/></g><g><path fill="#CF731C" d="M368.4 131.1s.3 0 0 0c.3-.3.3-.3 0-.3s-.3 0-.3-.3h.3c.3 0 0 .6.6.8.3-1.1.6-1.4 0-1.7l.3-.3s0-.3.3-.3c0 1.1 0 1.1.9.8 0-.3-.3-.3-.3-.3s-.3-.3 0-.3h.3c0 .3.3.3.6.3v-.3c0-.3-.3-.3-.6-.3s-.9 0-.9-.6c-.6-.6-.6-.6-1.1.3-.3-.3-.6-.3 0-.6.3 0 .3-.3.3-.6.3 0 .3-.3.3-.3v.8c.3 0 .3-.3.6-.3h.3c0-.3.6-.3.3-.6 0-.6.6-.8.6-1.4.3 0 .3-.6.3-.6.3 0 .9 0 1.1.3v.3s-.3 0-.6.3c0 0 .3 0 .3.3 0 0 .3.3.6.3h.3c-.3 0-.3-.3-.3-.3v-.3s0-.3.3-.3v.3c.3.3.6.6.9 1.1h.6v-.6h-.3c0-.6-.9-.3-1.1-.8.3 0 .3-.3.6-.3 0 0-.3.3 0 .3s.3 0 .3-.3c.3 0-.3-.3 0-.3.6.3.9-.6 1.1-.6l-.3-.3c-.3.3-.9.3-1.1.6 0 0-.9 0-1.1-.3-.3 0-.3-.3-.6-.3 0 0-.3 0-.3-.3.3-.8-.3-.8-.9-1.1 0 0-.3 0-.3-.3v-.3.6c-.3.3-.6.6.3.8 0 0 .3 0 .3.3-.9 0-.3.3 0 .6v.3c-.3 0-.6-.3-.9-.3-.3 0-.3-.3-.3-.3 0-.3.3-.3.3 0h.3v-.3c-.3-.3-.3-.6-.9-.6-.3 0-.9 0-1.1.3-.3.3 0 .3.3.3 0 .3-.3.3-.3.6s0 .3.3.3c.3.3.6.3 0 .8l-.3.3v.3c0 .3.3.3 0 .6s-.3.3-.6 0h-.8c-.3-.3-.9.3-.9-.3h-.3-.3c-.3.3.3.3.3.6h-.3v.3c.3 0 .3.6.6.8 0 .3-.3.3-.3.6v.3s0 .3-.3.3v.3c.3.3.3.3.6.3.3-.3 0-.8.9-.6v-.3-.3c0-.3-.6 0-.3-.3s.3-.3.6 0c0 0 .3 0 .3.3 0 .6.3.8.6 1.1-.6 0-1.1 0-1.7.3-.3.6.3.9.6 1.1 1 .2 1 .2 1.3-.1zm5.1-5.6c-.3 0-.3 0 0 0zm-2.5-2.6zm.2 3.1c-.3.3-.3.6-.6.6v-.3c.1-.3.4 0 .6-.3zm-2-2v-.3h.3v.3h-.3z"/></g><g><path d="M371.2 124c-.3.3-.9.6-.3.8v.3h-.3c-.6-.3-.9.6-1.1.3v.3l-.3.3c.3 0 .6-.3 1.1-.3 0 .3-.3.6-.3.8.3.3.6 0 .6-.3.3-.3.3-.8.9-.8h.6c-.3-.3-.3-.3 0-.6l.3-.3c-.3-.3-.3-.3 0-.6-.6-.4-.6.1-1.2.1zm.6.3z"/></g><g><path d="M371.8 130.8s.3-.3 0-.3-.3 0-.3.3c0 0-.3 0-.3.3-.3 0-.6.3-.6.6s.3.3.3.6c0-.9.3-1.1.9-.6.3.3.6 0 .6-.3-.3-.6-.6-.3-.6-.6z"/></g><g><path d="M332.1 117s.3-.3 0-.3-.3 0-.3.3c0 0-.3 0-.3.3-.3 0-.6.3-.6.6s.3.3.3.6c0-.8.3-1.1.9-.6.3.3.6 0 .6-.3-.3-.4-.3-.4-.6-.6z"/></g><g><path d="M365.3 111.9s.3-.3 0-.3-.3 0-.3.3-.3 0-.3.3c-.3 0-.6.3-.6.6s.3.3.3.6c0-.8.3-1.1.9-.6.3.3.6 0 .6-.3-.3-.6-.6-.4-.6-.6z"/></g><g><path d="M372.6 117.2s.3-.3 0-.3-.3 0-.3.3c0 0-.3 0-.3.3-.3 0-.6.3-.6.6s.3.3.3.6c0-.8.3-1.1.9-.6.3.3.6 0 .6-.3-.3-.6-.6-.3-.6-.6z"/></g><g><path d="M337 120.1s.3-.3 0-.3-.3 0-.3.3c0 0-.3 0-.3.3-.3 0-.6.3-.6.6s.3.3.3.6c0-.8.3-1.1.9-.6.3.3.6 0 .6-.3-.4-.3-.6-.3-.6-.6z"/></g><g><path d="M344 120.6s.3-.3 0-.3-.3 0-.3.3-.3 0-.3.3c-.3 0-.6.3-.6.6s.3.3.3.6c0-.8.3-1.1.9-.6.3.3.6 0 .6-.3-.3-.3-.6 0-.6-.6z"/></g><g><path d="M337.2 118.7v.3c-.3-.3-.6-.3-.3-.8v-.3s0-.3-.3-.3c0 0 0 .3.3.3.3.2.3.5.3.8z"/></g><g><path d="M337.5 117.8h-.3c.3-.3.3-.3.3 0 0-.3.3 0 0 0z"/></g><g><path d="M338.1 118.7v-.3s.3-.3.3 0c0 0 .6.3.3.3-.6.6.3.6.3 1.1-.4-.6-.9-.6-.9-1.1z"/></g></svg>