<?xml version="1.0" encoding="utf-8"?>
<!-- Generator: Adobe Illustrator 18.1.1, SVG Export Plug-In . SVG Version: 6.00 Build 0)  -->
<svg version="1.1" xmlns="http://www.w3.org/2000/svg" xmlns:xlink="http://www.w3.org/1999/xlink" x="0px" y="0px"
	 viewBox="0 0 362.7 614" enable-background="new 0 0 362.7 614" xml:space="preserve">
<g id="ENTER_THE_PROCTOLOGIST">
</g>
<g id="REARSEARCH_METHOD_1_">
</g>
<g id="DR._BEN_DOVER">
</g>
<g id="AMOROUS_ANAL-YSIST">
</g>
<g id="NUTTY_PROFESSOR">
</g>
<g id="SACK__x26__SAVE">
</g>
<g id="CHECK_PLEASE_PLEASE_PLEASE">
</g>
<g id="OPEN-BOOK_TESTE">
</g>
<g id="TESTE_x2C__TESTE_x2C__1_x2C__2_x2C__3">
</g>
<g id="GUY-ROPRACTOR">
</g>
<g id="ORAL-EXAM">
</g>
<g id="DOCTOR_x2019_S_ORDERS">
</g>
<g id="LEGS_UP_CHECK-UP">
</g>
<g id="INSIDER_INFORMATION">
</g>
<g id="TRIPLE_X-RAY">
</g>
<g id="DERM-OH-OH-_x0D_OH-TOLOGY">
	<g>
		<g>
			<path fill="none" d="M215.4,492.2c0.6,0.2,1.1,0.5,1.5,0.9c0.5,0.5,0.9,1,1.2,1.7c0,0,0,0,0,0c0.1,0.3,0.2,0.6,0.3,0.9
				c0.1,0.2,0.1,0.3,0.2,0.5c0,0,0,0,0,0c5.1,13.4,10.1,26.9,12.3,41.1c1.4,9.1,1.6,18.5-0.1,27.5c0,0,0-0.1,0-0.1
				c57.1-5.9,79.4-40.9,79.4-40.9c-9.5-31.6-62.7-55.6-62.7-55.6c-6.4-2.1-17,0.4-25.4,3.1C218.1,476.1,214.4,483.1,215.4,492.2z"/>
		</g>
		<path fill="none" d="M110.9,341.4c0-0.1,0.1-0.1,0.1-0.2c-0.1,0.1-0.2,0.2-0.3,0.2L110.9,341.4z"/>
		<g>
			<path fill="#070909" d="M218.2,494.8C218.2,494.8,218.2,494.8,218.2,494.8c0.1,0.3,0.2,0.6,0.3,0.9
				C218.4,495.4,218.3,495.1,218.2,494.8z"/>
		</g>
		<g>
			<path d="M231.1,537.2c-2.2-14.2-7.2-27.7-12.3-41.1c0,0,0,0,0,0c-0.1-0.2-0.1-0.3-0.2-0.5c-0.1-0.3-0.2-0.6-0.4-0.9
				c-0.3-0.6-0.7-1.2-1.2-1.7c-0.5-0.4-1-0.7-1.5-0.9c-0.4-0.2-0.8-0.3-1.2-0.4c-8.5-2.2-18.1,2-22.5,9.8c-1.8,3.3-2.7,7.4-1.2,10.8
				c1.1,2.4,3.2,4.1,4.2,6.5c1.7,3.9-0.3,8.9-4.1,10.6c-0.9,0.4-1.8,0.6-2.8,0.3c-2.2-0.6-3-3.2-3.4-5.4c-0.5-2.2-1.4-4.8-3.6-5.2
				c-1.8-0.3-3.5,1.3-4.2,3c-0.7,1.8-0.6,3.7-0.8,5.6c-0.6,5.3-3.5,10.2-7.7,13.2c-3.2,2.2-7,3.3-10.9,3.2c-0.5-1.2-1-2.5-1.4-3.7
				c-1.2-4.2-1.6-8.5-2.9-12.7c-2.1-7.1-6.6-13.5-12.5-17.9c2.5-0.5,5.1-0.6,7.6-0.5c0.2-1.3-0.5-4.5-1.9-5.4c0.6-1.1,3-1.1,4.5-1
				c-0.6-0.7-3.1-2-3.7-2.7c1.6-1.3,0.7-5.5,0.9-7.5c0.1-0.8-0.1-1.5-0.3-2.3c-0.5-2.1-1.8-4.5,1-5c2.2-0.4,4.5-0.4,6.8-0.5
				c4.6-0.1,9.3,0.6,13.9,0.2c5.8-0.5,9.5-4.2,11.8-9.2c0,0,6.3-24.2-23.7-16.7c-12,3-22.3,3.5-30.7,1.3c-12.5-3.2-21-12.3-25-27.5
				c-6.3-23.7-15.2-48.5-16.4-51.6c-0.2,18.2,2,54.4,2,54.4c-0.4,7.2,3,14.2,5.4,21.2c3.2,9.3,4.9,19,4.8,28.8c0,1-0.3,2.4-1.6,2.5
				c-0.6,0.1-1.2-0.2-1.6-0.6c-5.4-3.8-2.8-11.6-6.6-16.6c-0.5-0.7-1.3-1.4-2.2-1.4c-1.8-0.2-2.9,1.7-3.2,3.2
				c-1.1,4.7-1,9.5-0.9,14.3c0.1,5,0.2,10,0.4,14.9c0,1.1,0,2.3-0.7,3.2c-0.7,0.9-2.4,1.4-3.3,0.6c-0.5-0.4-0.6-0.9-0.8-1.4
				c-0.5-1.9-1-3.7-1.5-5.6c0,2.2,0,4.5,0.1,6.7c0,0.8,0,1.6-0.4,2.4c-0.4,0.7-1.5,1.2-2.4,0.9c-0.9-0.3-1.2-1.2-1.4-1.9
				c-0.5-1.8-1-3.6-1.6-5.4c-1.4,1.1,0.9,3.3-4.2,3.2c-2-5.6-3.3-11.4-3.8-17.3c-1.5,0.7-1.6,2.5-1.8,3.9c-0.2,1.5-1.7,3.2-3.3,2.6
				c-0.6-12.2,1.3-24.5,5.7-36.1c0.9-2.5,2-4.9,2.5-7.4c0.6-2.9,0.7-9.8,0.6-10.3c-11.3-41-14.1-68.9-12.5-87.9
				c-2.4,2.5-5.1,4.7-7.9,6.6c-7,4.8-14.9,8.4-21.9,13.2c-7.1,4.8-13.6,11.1-16.1,19.3c-2.5,8.2,0,18.3,7.4,22.5
				c-5.5,4.6-11.2,9.7-13.4,16.5c-2.2,6.8,0.8,15.9,7.8,17.5c-2.7,13.5,16.2,22.8,16.5,36.5c0.2,9-7.5,15.9-12.5,23.4
				c-8.4,12.8-8.8,30.3-1,43.5c7.8,13.2,23.3,21.3,38.5,20.2c1.3-0.1,2.6-0.3,3.8-0.5c-0.4,1.2-0.7,2.5-1.1,3.7
				c-1.5,5.4-3,11.4-0.7,16.5c3.5,7.7,13.8,9.6,22.1,8c8.3-1.6,16.1-5.7,24.6-6c-3.2,4.3-0.7,11.1,4.1,13.7
				c4.8,2.6,10.7,1.7,15.7-0.4c5-2.1,9.4-5.4,14.2-7.8c4.8-2.5,10.4-4.1,15.6-2.6c7.6,2.2,11.9,10.1,18.7,14.1
				c10.2,6,23.4,1.9,33.4-4.3c7.9-4.9,15.1-11.2,20.5-18.7c6.8-10.7,9.3-21.7,9.5-22.6C232.6,555.7,232.5,546.3,231.1,537.2z"/>
		</g>
		<g>
			<path fill="#F15A29" d="M361.5,521.5C346.9,464.2,279,416.2,279,416.2s-17.3-22.1-26.2-80.3c-4.8-4-9.3-8.2-13.6-12.7
				c-0.1,0.3-0.3,0.6-0.4,0.9c-1.7,3.2-3.5,6.7-4.9,10.1c-0.3,1.1-0.6,2.3-0.9,3.4c-0.5,1.4-1.8,3.4-1.7,5.2
				c0.1,2.1,1.9,5.1,2.5,7.1c1,3.1,1.6,6.3,2.9,9.1c0.7,0.9,1.4,1.9,2.1,2.8c2.1,2.8,4.4,5.7,6.9,8.1c0.7,0.7,1.1,1.5,1.8,2.2
				c1.4,1.4,3.1,2.4,4.4,3.8c0.4,0.5,1.3,1.5,0.8,2.6c-1.1,2.3-4.5,0-5.5-0.8c-0.7-0.8-1.5-1.5-2.2-2.3c-2.2-1.9-4.4-3.8-6.6-5.6
				c-1-0.8-2.3-2.5-4.1-1.7c0,0.1,0,0.1,0,0.2c1.5,2.5,2.7,5.3,4,7.9c1.9,3.8,3.9,7.8,5.9,11.4c0.7,1.3,3.2,5.1,0.8,6.4
				c-2.3,1.2-4.5-2.8-5.2-4c-1.1-2.1-2.3-4.3-3.4-6.4c-1.3-1.9-2.5-3.9-3.8-5.8c-0.7-1.1-1.8-4.1-3.3-4.3c-0.3,0.1-0.5,0.2-0.8,0.3
				c-0.6,1.8,0.6,4.2,0.9,5.8c0.4,1.9,0.9,3.4,1.3,5c0.9,4.1,1.2,7.6,2.6,11c0.7,1.7,3.2,5.8-0.1,6.5c-2.6,0.6-3.4-2-4.3-3.6
				c-0.9-1.7-1.3-3.7-2-5.7c-1.4-3.7-2.4-7.7-3.2-11.8c-0.3-1.4-1.1-7.1-2-7.3c-0.8,0.2-1.2,0.3-1.7,0.6c-0.1,1.2-0.2,2.9,0,4.4
				c0,0.9-0.1,1.8-0.1,2.6c0,2.3-0.1,4.6-0.1,6.9c0.2,2.5,0.8,5.4,1.3,7.8c0.4,2-0.2,3.3-2.1,3.4c-3.1,0.1-3.6-5.1-4.1-7.8
				c-0.3-2.1-0.7-4.3-1-6.4c0-3.6,0-7.3,0-10.9c-0.2-1.3-0.6-2.4-0.7-3.6c-0.3-1.9-0.1-3.5-0.6-5.1c-0.4-1.4-1.3-2.7-1.6-4
				c-0.2-0.1-0.5-0.1-0.7-0.2c-0.4,0.4-0.9,0.8-1.3,1.3c-0.4,0.9-0.8,1.8-1.1,2.7c-1.5,3.3-3.1,7.2-5.9,9c-1.3,0.8-3.5,2.3-5.2,1
				c-0.4-2.3,2.1-3.9,2.9-5.6c1.3-3.3,2.5-6.6,3.8-9.9c0.8-2.4,1.2-5,2-7.2c0.5-1.7,1-3.3,1.6-5c0.4-1.3,0.4-2.6,0.9-3.7
				c1.1-2.5,3.3-4,4.5-6.5c0.9-1.9,1.4-4.4,2.3-6.4c0.7-1.5,1.9-2.6,2.7-4.2c2.3-4.9,4.1-10.2,6.1-15.5c0.3-0.7,0.9-2.6,1.7-5.1
				c-14.9-19-26.3-39.4-34-55.3c-2.4,0.1-4.8,0.1-7.4,0.1c-1.1,0-2.2,0-3.3,0c-7.1,14.6-17.3,33-30.4,50.6c3.5,7.2,6.5,13,7.3,14.4
				c2.7,5,5.3,10,8.3,14.5c1,1.5,2.3,2.4,3.3,3.8c1.2,1.8,2.1,4.2,3.3,6c1.6,2.3,4,3.5,5.4,5.8c0.6,1,0.8,2.3,1.4,3.5
				c0.8,1.6,1.5,3.1,2.3,4.7c1.1,2.1,1.8,4.6,3,6.8c1.7,3.1,3.5,6.2,5.2,9.2c1,1.5,3.7,2.8,3.7,5.1c-1.5,1.6-4,0.4-5.3-0.2
				c-3-1.4-5.2-5.1-7.1-8.1c-0.5-0.8-1-1.7-1.5-2.5c-0.5-0.4-1-0.7-1.5-1.1c-0.2,0.1-0.5,0.2-0.7,0.3c-0.2,1.4-0.8,2.8-1,4.2
				c-0.3,1.6,0.1,3.2,0.1,5.1c0,1.2-0.2,2.4-0.2,3.7c0.5,3.6,1.1,7.2,1.6,10.8c0,2.2-0.1,4.3-0.1,6.5c-0.1,2.7,0.2,7.9-2.9,8.3
				c-1.9,0.2-2.7-1-2.6-3c0.1-2.5,0.3-5.4,0.1-7.9c-0.4-2.3-0.7-4.6-1.1-6.8c-0.2-0.9-0.4-1.7-0.5-2.6c-0.1-1.4-0.3-3.2-0.7-4.3
				c-0.6-0.3-1-0.3-1.8-0.4c-0.9,0.3-0.9,6.1-0.9,7.5c-0.2,4.2-0.6,8.3-1.5,12.2c-0.4,2.1-0.5,4.1-1.2,5.9c-0.6,1.7-1.1,4.4-3.7,4.2
				c-3.4-0.3-1.5-4.6-1.1-6.4c0.9-3.6,0.7-7.1,1-11.3c0.1-1.7,0.4-3.2,0.5-5.1c0.1-1.6,0.9-4.2,0-5.8c-0.3-0.1-0.5-0.1-0.8-0.2
				c-1.5,0.4-2.2,3.5-2.7,4.7c-1,2.1-1.9,4.2-2.9,6.3c-0.8,2.3-1.6,4.6-2.4,6.8c-0.5,1.3-2.1,5.6-4.5,4.7c-2.6-0.9-0.7-5.1-0.1-6.4
				c1.5-3.9,2.9-8.1,4.1-12.2c0.9-2.8,1.6-5.7,2.8-8.4c0-0.1,0-0.1,0-0.2c-1.9-0.5-2.9,1.3-3.8,2.3c-1.9,2.2-3.8,4.4-5.7,6.5
				c-0.6,0.9-1.2,1.7-1.8,2.6c-0.9,1-3.9,3.8-5.4,1.6c-0.7-1,0-2.2,0.4-2.7c1.1-1.6,2.6-2.9,3.8-4.4c0.6-0.7,0.9-1.7,1.5-2.4
				c2.1-2.7,4-5.9,5.7-9c0.5-1,1.1-2.1,1.6-3.1c0.9-2.9,1-6.2,1.5-9.4c0.3-2.1,1.6-5.3,1.4-7.4c-0.2-1.8-1.7-3.6-2.5-4.9
				c-0.5-1.1-0.9-2.1-1.4-3.2c-2-3.1-4.2-6.4-6.4-9.2c-1.4-2.1-2.8-4.2-4.2-6.3c-1.3-1.7-2.6-3.5-3.8-5.2c-7.3,8-15.3,15.4-24,21.8
				c0,0.1-0.1,0.1-0.1,0.2l-0.2,0.1c-0.8,0.6-1.6,1.2-2.5,1.8c-0.5-2.1-1.6-5.9-3.8-12.4c-6.5-19.5-16-17.7-16-17.7
				s-30.4-7.1-35.1,37.5c-0.1,0.6-0.1,1.2-0.2,1.9c-1.6,19,1.2,46.9,12.5,87.9c0.1,0.5,0,7.4-0.6,10.3c-0.5,2.5-1.6,5-2.5,7.4
				c-4.4,11.6-6.3,23.9-5.7,36.1c1.6,0.6,3-1.1,3.3-2.6c0.2-1.5,0.3-3.3,1.8-3.9c0.5,5.9,1.7,11.7,3.8,17.3c5.2,0.1,2.8-2.2,4.2-3.2
				c0.5,1.8,1,3.6,1.6,5.4c0.2,0.8,0.5,1.6,1.4,1.9c0.9,0.3,1.9-0.2,2.4-0.9c0.4-0.7,0.4-1.6,0.4-2.4c0-2.2,0-4.5-0.1-6.7
				c0.5,1.9,1,3.7,1.5,5.6c0.1,0.5,0.3,1.1,0.8,1.4c0.9,0.8,2.6,0.3,3.3-0.6c0.7-0.9,0.7-2.1,0.7-3.2c-0.1-5-0.2-10-0.4-14.9
				c-0.1-4.8-0.2-9.6,0.9-14.3c0.4-1.5,1.4-3.4,3.2-3.2c1,0.1,1.7,0.8,2.2,1.4c3.8,5,1.2,12.8,6.6,16.6c0.5,0.3,1,0.6,1.6,0.6
				c1.2-0.1,1.6-1.5,1.6-2.5c0.1-9.7-1.5-19.4-4.8-28.8c-2.4-7-5.8-13.9-5.4-21.2c0,0-2.2-36.2-2-54.4c1.1,3.1,10.1,27.9,16.4,51.6
				c4,15.2,12.5,24.3,25,27.5c8.4,2.2,18.7,1.7,30.7-1.3c30-7.5,23.7,16.7,23.7,16.7c-2.4,5-6.1,8.7-11.8,9.2
				c-4.6,0.4-9.3-0.3-13.9-0.2c-2.2,0-4.6,0.1-6.8,0.5c-2.9,0.5-1.6,2.9-1,5c0.2,0.8,0.4,1.5,0.3,2.3c-0.1,2.1,0.8,6.3-0.9,7.5
				c0.6,0.7,3.1,2,3.7,2.7c-1.5-0.1-3.9-0.1-4.5,1c1.3,0.9,2.1,4.2,1.9,5.4c-2.5-0.2-5.1,0-7.6,0.5c5.9,4.4,10.4,10.8,12.5,17.9
				c1.2,4.2,1.7,8.5,2.9,12.7c0.4,1.3,0.8,2.5,1.4,3.7c3.8,0.1,7.7-1,10.9-3.2c4.3-3,7.2-8,7.7-13.2c0.2-1.9,0.1-3.8,0.8-5.6
				c0.7-1.8,2.3-3.3,4.2-3c2.2,0.4,3.2,3,3.6,5.2c0.5,2.2,1.3,4.8,3.4,5.4c0.9,0.2,1.9,0,2.8-0.3c3.8-1.6,5.8-6.7,4.1-10.6
				c-1-2.4-3.2-4.2-4.2-6.5c-1.6-3.4-0.7-7.5,1.2-10.8c4.3-7.7,14-11.9,22.5-9.8c0.4,0.1,0.8,0.2,1.2,0.4c-1-9.2,2.7-16.2,6.9-21
				c8.4-2.7,19-5.2,25.4-3.1c0,0,53.1,24,62.7,55.6c0,0-22.3,34.9-79.4,40.9c0,0,0,0,0,0.1c-0.2,0.9-2.7,11.9-9.5,22.6
				c0,0,0,0.1-0.1,0.1C221.4,587.4,376.2,578.8,361.5,521.5z"/>
		</g>
		<g>
			<path fill="#FBD206" d="M120.6,56.5c-6.7,28-5.7,51.7-3.8,66.3c0.3,2.2,0.6,4.3,0.9,6.1c0.1,0.7,0.2,1.4,0.4,2
				c10.4,14.5,31.7,24.5,56.6,24.5c29.3,0,53.9-6.4,61.4-28.8c0.1-0.6,0.3-1.6,0.6-3.1c0.3-2.1,0.6-5.1,0.7-9.3
				c-0.8,1.3-1.6,2.5-2.6,3.6c-2.4,2.8-5.2,4.9-8.8,5.8c-2.2,0.5-4.6,0.6-7.3,0.1c-11.3-2-13.2-13.8-18.2-23.2
				c-1.3-2.5-2.9-4.8-4.9-6.7c-2.6-0.7-5-1.8-7.2-3.3c-7.3-4.7-12.8-12.7-15.7-17.5c-1.5-2.4-2.2-4.1-2.2-4.1c0.2,1,0.4,1.9,0.6,2.8
				c2.6,9.7,8.8,15.9,14.1,19.5c4.7,3.2,8.6,4.4,8.6,4.4c-4.7,0.1-9.2-1.6-13.4-4.2c-0.4-0.2-0.7-0.5-1.1-0.7
				c-9.5-6.5-17-17.7-20.1-23c-1-1.7-1.6-2.8-1.6-2.8c-7.2,1.7-10.2,9.2-10.2,9.2c-1.5,11.2,1.6,14.7,1.6,14.7
				c-7.3-3.9-8.8-10-8.8-10c-8.2-17-3.8-31.8,0.4-40.2c1.1-2.2,2.1-3.9,2.9-5.1c0,0,0,0,0,0c-5.5,0.9-11.7,2.3-18.1,4.6l0.6,0.2
				C123.7,44.5,122,50.6,120.6,56.5z"/>
			<path fill="#FBD206" d="M188.9,370.5c-1.7-3.1-3.5-6.2-5.2-9.2c-1.2-2.2-1.9-4.8-3-6.8c-0.8-1.6-1.5-3.1-2.3-4.7
				c-0.5-1.2-0.8-2.5-1.4-3.5c-1.5-2.3-3.8-3.5-5.4-5.8c-1.2-1.7-2-4.1-3.3-6c-0.9-1.4-2.3-2.3-3.3-3.8c-3-4.5-5.5-9.4-8.3-14.5
				c-0.8-1.5-3.7-7.2-7.3-14.4c-6.5-13.3-15.1-31.5-16.1-36.1c-0.6-3.1-3.5-12.9-7.4-24.2c-4.8-13.8-11.3-29.9-17.5-38.9
				c0,0,0-0.7,0.1-2c0.5-6.4,2.2-27.3,5.7-51.3c0.8-5.6,1.7-11.4,2.7-17.1c-0.6-3-1.3-7-1.8-11.8c-1.6-14.2-2.2-35.8,3.3-60.9
				c1.5-6.8,3.5-13.9,6-21.2C91.2,50.5,52.2,86.5,67.6,190c0,0,1.7,14.9,15,43.7c9.8,21.2,25.9,49.9,52.3,85.7
				c1.3,1.7,2.5,3.4,3.8,5.2c1.4,2.1,2.8,4.2,4.2,6.3c2.2,2.9,4.4,6.1,6.4,9.2c0.5,1.1,0.9,2.1,1.4,3.2c0.7,1.3,2.3,3.1,2.5,4.9
				c0.2,2.1-1.1,5.3-1.4,7.4c-0.5,3.2-0.6,6.5-1.5,9.4c-0.5,1-1.1,2.1-1.6,3.1c-1.7,3.1-3.6,6.2-5.7,9c-0.6,0.8-0.9,1.7-1.5,2.4
				c-1.2,1.6-2.7,2.8-3.8,4.4c-0.4,0.5-1.1,1.7-0.4,2.7c1.4,2.2,4.5-0.6,5.4-1.6c0.6-0.9,1.2-1.7,1.8-2.6c1.9-2.2,3.8-4.4,5.7-6.5
				c0.9-1,1.9-2.8,3.8-2.3c0,0.1,0,0.1,0,0.2c-1.2,2.7-1.9,5.6-2.8,8.4c-1.3,4-2.7,8.3-4.1,12.2c-0.5,1.4-2.5,5.5,0.1,6.4
				c2.4,0.9,4-3.4,4.5-4.7c0.8-2.3,1.6-4.6,2.4-6.8c1-2.1,1.9-4.2,2.9-6.3c0.5-1.2,1.2-4.3,2.7-4.7c0.3,0.1,0.5,0.1,0.8,0.2
				c0.9,1.7,0.1,4.2,0,5.8c-0.1,1.9-0.4,3.5-0.5,5.1c-0.2,4.2-0.1,7.7-1,11.3c-0.5,1.8-2.3,6.1,1.1,6.4c2.6,0.2,3.1-2.5,3.7-4.2
				c0.7-1.8,0.7-3.8,1.2-5.9c0.8-3.8,1.2-7.9,1.5-12.2c0.1-1.4,0-7.1,0.9-7.5c0.8,0.1,1.2,0.1,1.8,0.4c0.3,1.1,0.6,2.9,0.7,4.3
				c0.2,0.9,0.4,1.7,0.5,2.6c0.4,2.3,0.7,4.6,1.1,6.8c0.1,2.5,0,5.4-0.1,7.9c-0.1,2.1,0.7,3.2,2.6,3c3.1-0.3,2.8-5.6,2.9-8.3
				c0-2.2,0.1-4.3,0.1-6.5c-0.5-3.6-1.1-7.2-1.6-10.8c0-1.3,0.2-2.5,0.2-3.7c0-1.9-0.4-3.5-0.1-5.1c0.2-1.4,0.9-2.9,1-4.2
				c0.2-0.1,0.5-0.2,0.7-0.3c0.5,0.4,1,0.7,1.5,1.1c0.5,0.8,1,1.7,1.5,2.5c2,3,4.1,6.7,7.1,8.1c1.4,0.6,3.8,1.8,5.3,0.2
				C192.7,373.3,189.9,372,188.9,370.5z"/>
			<path fill="#FBD206" d="M292.5,173.7c0-20.1-1.7-37.3-4.6-52.3c-0.7-3.5-1.4-6.8-2.3-10.1C281,93,274.3,78.7,266.3,67.5
				c-24.4-14.3-15.7,15.6-25.1,38.9c-0.8,1.9-1.6,3.7-2.5,5.4c-0.1,7.7-0.8,12.2-1.3,14.2c1.8,5.8,3.4,11.5,5,17.1
				c7.3,26.6,11.5,49,11.5,49c-0.4,0.7-0.7,1.5-1,2.3c-5.3,12.2-9.6,32.3-12,47c-1.4,8-2.2,14.4-2.3,16.8
				c-0.3,5.9-9.8,35.8-13.9,48.3c-0.8,2.5-1.4,4.3-1.7,5.1c-2,5.4-3.8,10.6-6.1,15.5c-0.7,1.6-2,2.7-2.7,4.2c-0.9,2-1.4,4.5-2.3,6.4
				c-1.2,2.5-3.4,4-4.5,6.5c-0.5,1.1-0.5,2.4-0.9,3.7c-0.5,1.7-1,3.3-1.6,5c-0.8,2.2-1.1,4.8-2,7.2c-1.3,3.3-2.5,6.6-3.8,9.9
				c-0.7,1.7-3.3,3.3-2.9,5.6c1.7,1.3,4-0.2,5.2-1c2.8-1.8,4.4-5.7,5.9-9c0.4-0.9,0.8-1.8,1.1-2.7c0.4-0.4,0.9-0.8,1.3-1.3
				c0.2,0.1,0.5,0.1,0.7,0.2c0.4,1.3,1.2,2.6,1.6,4c0.5,1.6,0.4,3.2,0.6,5.1c0.2,1.2,0.6,2.3,0.7,3.6c0,3.6,0,7.3,0,10.9
				c0.3,2.1,0.7,4.3,1,6.4c0.5,2.6,1,7.9,4.1,7.8c1.9-0.1,2.5-1.3,2.1-3.4c-0.5-2.4-1.1-5.3-1.3-7.8c0-2.3,0.1-4.6,0.1-6.9
				c0-0.9,0.1-1.8,0.1-2.6c-0.1-1.4-0.1-3.2,0-4.4c0.5-0.4,1-0.5,1.7-0.6c1,0.2,1.8,5.9,2,7.3c0.9,4.1,1.9,8.2,3.2,11.8
				c0.7,2,1.1,4,2,5.7c0.9,1.6,1.7,4.2,4.3,3.6c3.3-0.8,0.8-4.8,0.1-6.5c-1.4-3.4-1.8-6.9-2.6-11c-0.3-1.6-0.9-3.1-1.3-5
				c-0.3-1.6-1.5-4-0.9-5.8c0.3-0.1,0.5-0.2,0.8-0.3c1.5,0.1,2.6,3.1,3.3,4.3c1.3,1.9,2.5,3.9,3.8,5.8c1.1,2.1,2.3,4.3,3.4,6.4
				c0.7,1.3,2.9,5.2,5.2,4c2.4-1.3-0.1-5.1-0.8-6.4c-2-3.6-4-7.6-5.9-11.4c-1.3-2.7-2.4-5.4-4-7.9c0-0.1,0-0.1,0-0.2
				c1.8-0.8,3.1,0.9,4.1,1.7c2.2,1.9,4.4,3.8,6.6,5.6c0.7,0.8,1.5,1.5,2.2,2.3c1,0.9,4.5,3.2,5.5,0.8c0.5-1.1-0.3-2.1-0.8-2.6
				c-1.3-1.5-3-2.4-4.4-3.8c-0.7-0.7-1.1-1.5-1.8-2.2c-2.5-2.4-4.9-5.2-6.9-8.1c-0.7-0.9-1.4-1.9-2.1-2.8c-1.3-2.8-1.9-6-2.9-9.1
				c-0.7-2-2.4-5-2.5-7.1c-0.1-1.8,1.2-3.8,1.7-5.2c0.3-1.1,0.6-2.3,0.9-3.4c1.5-3.4,3.2-6.9,4.9-10.1c0.1-0.3,0.3-0.6,0.4-0.9
				c0.9-2,1.8-4,2.8-6c19.6-36.2,31.6-65.4,38.9-87.8c3.7-11.3,6.2-20.8,7.9-28.6C292.8,182.6,292.5,173.7,292.5,173.7z"/>
		</g>
		<g>
			<path fill="#06090A" d="M318.6,187.4c-2.1-1.6-3.1-8.4-0.5-19.8c3-12.9,9.8-42.4-16.2-56c0.4-2,1.1-4.8,1.7-7
				c3-11.3,7.2-26.8-0.6-40.2c-4.9-8.4-13.7-14.3-26.1-17.6c-7.3-1.9-33.9-7.2-35.3-15c-3.6-20.1-6-26.9-24.6-30.1
				c-55.2-9.4-73.6,31.8-73.6,31.8l0,0c0,0,0,0,0,0c-0.8,1.3-1.9,3-2.9,5.1c-4.2,8.4-8.5,23.3-0.4,40.2c0,0,1.5,6.1,8.8,10
				c0,0-3.1-3.5-1.6-14.7c0,0,3-7.5,10.2-9.2c0,0,0.6,1.1,1.6,2.8c3.1,5.2,10.6,16.5,20.1,23c0.3,0.2,0.7,0.5,1.1,0.7
				c4.2,2.6,8.7,4.4,13.4,4.2c0,0-3.9-1.2-8.6-4.4c-5.3-3.6-11.6-9.8-14.1-19.5c-0.2-0.9-0.5-1.8-0.6-2.8c0,0,0.8,1.6,2.2,4.1
				c2.9,4.8,8.4,12.8,15.7,17.5c2.2,1.4,4.7,2.6,7.2,3.3c2,1.9,3.6,4.2,4.9,6.7c5.1,9.4,7,21.2,18.2,23.2c2.7,0.5,5.1,0.4,7.3-0.1
				c3.5-0.9,6.4-3,8.8-5.8c0.9-1.1,1.8-2.3,2.6-3.6c0.5-0.7,0.9-1.5,1.3-2.3c0.9-1.7,1.7-3.5,2.5-5.4c9.5-23.2,0.7-53.2,25.1-38.9
				c7.9,11.1,14.7,25.5,19.3,43.8c0.8,3.2,1.6,6.6,2.3,10.1c2.9,14.9,4.6,32.2,4.6,52.3c0,0,0.3,9-3.7,27.1
				c-1.7,7.8-4.2,17.4-7.9,28.6c1.4,1.8,2.7,3.5,3.9,5.2c3.6,4.9,6.9,9.7,9.9,14.3c8.2,12.8,14.1,24.6,18.5,35.3
				C359.1,250.1,334.7,199.7,318.6,187.4z"/>
			<path fill="#06090A" d="M232.2,166.3c0,0-2.2,1.2,0,4c1.3,1.7,11.9,12.7,20.6,24.1c0.3-0.8,0.7-1.6,1-2.3c0,0-4.2-22.3-11.5-49
				C240.4,152,237.1,160.1,232.2,166.3z"/>
		</g>
	</g>
	<g>
		<path d="M158.1,530.6c1.4,1.4,3.2,2.3,5.1,2.6c0.4,0.1,0.9,0.1,1.4,0.1c1.6,0,3.2-0.8,4.4-1.9c1.2-1.1,2.1-2.5,2.7-4
			c0.3,0,0.3,0.5,0.2,0.8c-0.6,1.4-1.3,2.8-2.3,3.9c-1,1.1-2.4,2.1-3.9,2.3c-1.9,0.3-3.8-0.5-5.5-1.3c-0.8-0.4-1.6-0.8-2.2-1.3
			c-0.2-0.2-0.5-0.5-0.5-0.8S157.9,530.4,158.1,530.6z"/>
	</g>
	<path d="M166.5,521.3c-0.8-1.7-2.6-2.8-4.5-2.8c-0.4,0-0.7,0-1.1,0.1c-1.1,0.3-2.1,1.1-2.7,2.3c-0.5,1-0.6,2.2-0.2,3.2l0.6,1.4
		l0.8-1.4c0.5-0.9,1.5-1.4,2.6-1.4c0.5,0,1,0.1,1.4,0.4c0.1,0.1,0.2,0.1,0.2,0.2c0.2,0.2,0.5,0.3,0.8,0.5c0.2,0.1,0.5,0.1,0.7,0.1
		c0,0,0,0,0,0c0.5,0,0.9-0.2,1.2-0.5C166.9,522.9,166.9,522.1,166.5,521.3z"/>
	<path fill="#06090A" d="M159.2,92.6c0,0,4.5,4.9,11.9,1.1c0,0-0.6,3-6.9,2.9C164.2,96.6,159.7,95.9,159.2,92.6z"/>
	<path fill="#06090A" d="M155.7,86.1c0,0,8.1,4.7,16.4,5.6C172.2,91.6,162.3,92.4,155.7,86.1z"/>
	<path fill="#06090A" d="M171,112.4c0,0,3.4,2.6,8.6,2.6c6.7,0,10.3-3.3,10.3-3.3s-2.1,5.1-9.6,5.1S171,112.4,171,112.4z"/>
</g>
<g id="CAT__x28_OR_MATT_x29__SCAN">
</g>
<g id="DEEP-ASSESSMENT">
</g>
<g id="SPLIT_SCREENING">
</g>
<g id="AREOLA_51">
</g>
<g id="INSPECTOR_GRAB-IT">
</g>
<g id="WHAT_x2019_S_CUPPED_x2C__DOC_x3F_">
</g>
<g id="ULTRABOUND_TEST">
</g>
<g id="HANDY_SCAN">
</g>
<g id="CHEST_XXXAM">
</g>
<g id="PAIR-SCOPE">
</g>
<g id="CLOSER_EXAMINATION">
</g>
<g id="PRIVATE_SCREENING">
</g>
<g id="WHAM_BAM_MAMMOGRAM">
</g>
<g id="Layer_34">
</g>
<g id="MAN-O-GRAM">
</g>
<g id="INSPECT-A-PEC">
</g>
<g id="STUDY_BUDDY">
</g>
<g id="Layer_33">
</g>
</svg>
