<svg xmlns="http://www.w3.org/2000/svg" viewBox="0 0 362.7 614"><path fill="none" d="M215.4 492.2c.6.2 1.1.5 1.5.9.5.5.9 1 1.2 1.7l.3.9c.1.2.1.3.2.5 5.1 13.4 10.1 26.9 12.3 41.1 1.4 9.1 1.6 18.5-.1 27.5v-.1c57.1-5.9 79.4-40.9 79.4-40.9-9.5-31.6-62.7-55.6-62.7-55.6-6.4-2.1-17 .4-25.4 3.1-4 4.8-7.7 11.8-6.7 20.9zM110.9 341.4c0-.1.1-.1.1-.2-.1.1-.2.2-.3.2h.2z"/><path fill="#070909" d="M218.2 494.8l.3.9-.3-.9z"/><path d="M231.1 537.2c-2.2-14.2-7.2-27.7-12.3-41.1-.1-.2-.1-.3-.2-.5-.1-.3-.2-.6-.4-.9-.3-.6-.7-1.2-1.2-1.7-.5-.4-1-.7-1.5-.9-.4-.2-.8-.3-1.2-.4-8.5-2.2-18.1 2-22.5 9.8-1.8 3.3-2.7 7.4-1.2 10.8 1.1 2.4 3.2 4.1 4.2 6.5 1.7 3.9-.3 8.9-4.1 10.6-.9.4-1.8.6-2.8.3-2.2-.6-3-3.2-3.4-5.4-.5-2.2-1.4-4.8-3.6-5.2-1.8-.3-3.5 1.3-4.2 3-.7 1.8-.6 3.7-.8 5.6-.6 5.3-3.5 10.2-7.7 13.2-3.2 2.2-7 3.3-10.9 3.2-.5-1.2-1-2.5-1.4-3.7-1.2-4.2-1.6-8.5-2.9-12.7-2.1-7.1-6.6-13.5-12.5-17.9 2.5-.5 5.1-.6 7.6-.5.2-1.3-.5-4.5-1.9-5.4.6-1.1 3-1.1 4.5-1-.6-.7-3.1-2-3.7-2.7 1.6-1.3.7-5.5.9-7.5.1-.8-.1-1.5-.3-2.3-.5-2.1-1.8-4.5 1-5 2.2-.4 4.5-.4 6.8-.5 4.6-.1 9.3.6 13.9.2 5.8-.5 9.5-4.2 11.8-9.2 0 0 6.3-24.2-23.7-16.7-12 3-22.3 3.5-30.7 1.3-12.5-3.2-21-12.3-25-27.5-6.3-23.7-15.2-48.5-16.4-51.6-.2 18.2 2 54.4 2 54.4-.4 7.2 3 14.2 5.4 21.2 3.2 9.3 4.9 19 4.8 28.8 0 1-.3 2.4-1.6 2.5-.6.1-1.2-.2-1.6-.6-5.4-3.8-2.8-11.6-6.6-16.6-.5-.7-1.3-1.4-2.2-1.4-1.8-.2-2.9 1.7-3.2 3.2-1.1 4.7-1 9.5-.9 14.3.1 5 .2 10 .4 14.9 0 1.1 0 2.3-.7 3.2-.7.9-2.4 1.4-3.3.6-.5-.4-.6-.9-.8-1.4-.5-1.9-1-3.7-1.5-5.6 0 2.2 0 4.5.1 6.7 0 .8 0 1.6-.4 2.4-.4.7-1.5 1.2-2.4.9-.9-.3-1.2-1.2-1.4-1.9-.5-1.8-1-3.6-1.6-5.4-1.4 1.1.9 3.3-4.2 3.2-2-5.6-3.3-11.4-3.8-17.3-1.5.7-1.6 2.5-1.8 3.9-.2 1.5-1.7 3.2-3.3 2.6-.6-12.2 1.3-24.5 5.7-36.1.9-2.5 2-4.9 2.5-7.4.6-2.9.7-9.8.6-10.3-11.3-41-14.1-68.9-12.5-87.9-2.4 2.5-5.1 4.7-7.9 6.6-7 4.8-14.9 8.4-21.9 13.2-7.1 4.8-13.6 11.1-16.1 19.3-2.5 8.2 0 18.3 7.4 22.5-5.5 4.6-11.2 9.7-13.4 16.5-2.2 6.8.8 15.9 7.8 17.5-2.7 13.5 16.2 22.8 16.5 36.5.2 9-7.5 15.9-12.5 23.4-8.4 12.8-8.8 30.3-1 43.5 7.8 13.2 23.3 21.3 38.5 20.2 1.3-.1 2.6-.3 3.8-.5-.4 1.2-.7 2.5-1.1 3.7-1.5 5.4-3 11.4-.7 16.5 3.5 7.7 13.8 9.6 22.1 8 8.3-1.6 16.1-5.7 24.6-6-3.2 4.3-.7 11.1 4.1 13.7 4.8 2.6 10.7 1.7 15.7-.4s9.4-5.4 14.2-7.8c4.8-2.5 10.4-4.1 15.6-2.6 7.6 2.2 11.9 10.1 18.7 14.1 10.2 6 23.4 1.9 33.4-4.3 7.9-4.9 15.1-11.2 20.5-18.7 6.8-10.7 9.3-21.7 9.5-22.6 1.8-8.9 1.7-18.3.3-27.4z"/><path fill="#F15A29" d="M361.5 521.5C346.9 464.2 279 416.2 279 416.2s-17.3-22.1-26.2-80.3c-4.8-4-9.3-8.2-13.6-12.7-.1.3-.3.6-.4.9-1.7 3.2-3.5 6.7-4.9 10.1-.3 1.1-.6 2.3-.9 3.4-.5 1.4-1.8 3.4-1.7 5.2.1 2.1 1.9 5.1 2.5 7.1 1 3.1 1.6 6.3 2.9 9.1.7.9 1.4 1.9 2.1 2.8 2.1 2.8 4.4 5.7 6.9 8.1.7.7 1.1 1.5 1.8 2.2 1.4 1.4 3.1 2.4 4.4 3.8.4.5 1.3 1.5.8 2.6-1.1 2.3-4.5 0-5.5-.8-.7-.8-1.5-1.5-2.2-2.3-2.2-1.9-4.4-3.8-6.6-5.6-1-.8-2.3-2.5-4.1-1.7v.2c1.5 2.5 2.7 5.3 4 7.9 1.9 3.8 3.9 7.8 5.9 11.4.7 1.3 3.2 5.1.8 6.4-2.3 1.2-4.5-2.8-5.2-4-1.1-2.1-2.3-4.3-3.4-6.4-1.3-1.9-2.5-3.9-3.8-5.8-.7-1.1-1.8-4.1-3.3-4.3-.3.1-.5.2-.8.3-.6 1.8.6 4.2.9 5.8.4 1.9.9 3.4 1.3 5 .9 4.1 1.2 7.6 2.6 11 .7 1.7 3.2 5.8-.1 6.5-2.6.6-3.4-2-4.3-3.6-.9-1.7-1.3-3.7-2-5.7-1.4-3.7-2.4-7.7-3.2-11.8-.3-1.4-1.1-7.1-2-7.3-.8.2-1.2.3-1.7.6-.1 1.2-.2 2.9 0 4.4 0 .9-.1 1.8-.1 2.6 0 2.3-.1 4.6-.1 6.9.2 2.5.8 5.4 1.3 7.8.4 2-.2 3.3-2.1 3.4-3.1.1-3.6-5.1-4.1-7.8-.3-2.1-.7-4.3-1-6.4v-10.9c-.2-1.3-.6-2.4-.7-3.6-.3-1.9-.1-3.5-.6-5.1-.4-1.4-1.3-2.7-1.6-4-.2-.1-.5-.1-.7-.2-.4.4-.9.8-1.3 1.3-.4.9-.8 1.8-1.1 2.7-1.5 3.3-3.1 7.2-5.9 9-1.3.8-3.5 2.3-5.2 1-.4-2.3 2.1-3.9 2.9-5.6 1.3-3.3 2.5-6.6 3.8-9.9.8-2.4 1.2-5 2-7.2.5-1.7 1-3.3 1.6-5 .4-1.3.4-2.6.9-3.7 1.1-2.5 3.3-4 4.5-6.5.9-1.9 1.4-4.4 2.3-6.4.7-1.5 1.9-2.6 2.7-4.2 2.3-4.9 4.1-10.2 6.1-15.5.3-.7.9-2.6 1.7-5.1-14.9-19-26.3-39.4-34-55.3-2.4.1-4.8.1-7.4.1h-3.3c-7.1 14.6-17.3 33-30.4 50.6 3.5 7.2 6.5 13 7.3 14.4 2.7 5 5.3 10 8.3 14.5 1 1.5 2.3 2.4 3.3 3.8 1.2 1.8 2.1 4.2 3.3 6 1.6 2.3 4 3.5 5.4 5.8.6 1 .8 2.3 1.4 3.5.8 1.6 1.5 3.1 2.3 4.7 1.1 2.1 1.8 4.6 3 6.8 1.7 3.1 3.5 6.2 5.2 9.2 1 1.5 3.7 2.8 3.7 5.1-1.5 1.6-4 .4-5.3-.2-3-1.4-5.2-5.1-7.1-8.1-.5-.8-1-1.7-1.5-2.5-.5-.4-1-.7-1.5-1.1-.2.1-.5.2-.7.3-.2 1.4-.8 2.8-1 4.2-.3 1.6.1 3.2.1 5.1 0 1.2-.2 2.4-.2 3.7.5 3.6 1.1 7.2 1.6 10.8 0 2.2-.1 4.3-.1 6.5-.1 2.7.2 7.9-2.9 8.3-1.9.2-2.7-1-2.6-3 .1-2.5.3-5.4.1-7.9-.4-2.3-.7-4.6-1.1-6.8-.2-.9-.4-1.7-.5-2.6-.1-1.4-.3-3.2-.7-4.3-.6-.3-1-.3-1.8-.4-.9.3-.9 6.1-.9 7.5-.2 4.2-.6 8.3-1.5 12.2-.4 2.1-.5 4.1-1.2 5.9-.6 1.7-1.1 4.4-3.7 4.2-3.4-.3-1.5-4.6-1.1-6.4.9-3.6.7-7.1 1-11.3.1-1.7.4-3.2.5-5.1.1-1.6.9-4.2 0-5.8-.3-.1-.5-.1-.8-.2-1.5.4-2.2 3.5-2.7 4.7-1 2.1-1.9 4.2-2.9 6.3-.8 2.3-1.6 4.6-2.4 6.8-.5 1.3-2.1 5.6-4.5 4.7-2.6-.9-.7-5.1-.1-6.4 1.5-3.9 2.9-8.1 4.1-12.2.9-2.8 1.6-5.7 2.8-8.4v-.2c-1.9-.5-2.9 1.3-3.8 2.3-1.9 2.2-3.8 4.4-5.7 6.5-.6.9-1.2 1.7-1.8 2.6-.9 1-3.9 3.8-5.4 1.6-.7-1 0-2.2.4-2.7 1.1-1.6 2.6-2.9 3.8-4.4.6-.7.9-1.7 1.5-2.4 2.1-2.7 4-5.9 5.7-9 .5-1 1.1-2.1 1.6-3.1.9-2.9 1-6.2 1.5-9.4.3-2.1 1.6-5.3 1.4-7.4-.2-1.8-1.7-3.6-2.5-4.9-.5-1.1-.9-2.1-1.4-3.2-2-3.1-4.2-6.4-6.4-9.2l-4.2-6.3c-1.3-1.7-2.6-3.5-3.8-5.2-7.3 8-15.3 15.4-24 21.8 0 .1-.1.1-.1.2l-.2.1c-.8.6-1.6 1.2-2.5 1.8-.5-2.1-1.6-5.9-3.8-12.4-6.5-19.5-16-17.7-16-17.7s-30.4-7.1-35.1 37.5c-.1.6-.1 1.2-.2 1.9-1.6 19 1.2 46.9 12.5 87.9.1.5 0 7.4-.6 10.3-.5 2.5-1.6 5-2.5 7.4-4.4 11.6-6.3 23.9-5.7 36.1 1.6.6 3-1.1 3.3-2.6.2-1.5.3-3.3 1.8-3.9.5 5.9 1.7 11.7 3.8 17.3 5.2.1 2.8-2.2 4.2-3.2.5 1.8 1 3.6 1.6 5.4.2.8.5 1.6 1.4 1.9.9.3 1.9-.2 2.4-.9.4-.7.4-1.6.4-2.4 0-2.2 0-4.5-.1-6.7.5 1.9 1 3.7 1.5 5.6.1.5.3 1.1.8 1.4.9.8 2.6.3 3.3-.6.7-.9.7-2.1.7-3.2-.1-5-.2-10-.4-14.9-.1-4.8-.2-9.6.9-14.3.4-1.5 1.4-3.4 3.2-3.2 1 .1 1.7.8 2.2 1.4 3.8 5 1.2 12.8 6.6 16.6.5.3 1 .6 1.6.6 1.2-.1 1.6-1.5 1.6-2.5.1-9.7-1.5-19.4-4.8-28.8-2.4-7-5.8-13.9-5.4-21.2 0 0-2.2-36.2-2-54.4 1.1 3.1 10.1 27.9 16.4 51.6 4 15.2 12.5 24.3 25 27.5 8.4 2.2 18.7 1.7 30.7-1.3 30-7.5 23.7 16.7 23.7 16.7-2.4 5-6.1 8.7-11.8 9.2-4.6.4-9.3-.3-13.9-.2-2.2 0-4.6.1-6.8.5-2.9.5-1.6 2.9-1 5 .2.8.4 1.5.3 2.3-.1 2.1.8 6.3-.9 7.5.6.7 3.1 2 3.7 2.7-1.5-.1-3.9-.1-4.5 1 1.3.9 2.1 4.2 1.9 5.4-2.5-.2-5.1 0-7.6.5 5.9 4.4 10.4 10.8 12.5 17.9 1.2 4.2 1.7 8.5 2.9 12.7.4 1.3.8 2.5 1.4 3.7 3.8.1 7.7-1 10.9-3.2 4.3-3 7.2-8 7.7-13.2.2-1.9.1-3.8.8-5.6.7-1.8 2.3-3.3 4.2-3 2.2.4 3.2 3 3.6 5.2.5 2.2 1.3 4.8 3.4 5.4.9.2 1.9 0 2.8-.3 3.8-1.6 5.8-6.7 4.1-10.6-1-2.4-3.2-4.2-4.2-6.5-1.6-3.4-.7-7.5 1.2-10.8 4.3-7.7 14-11.9 22.5-9.8.4.1.8.2 1.2.4-1-9.2 2.7-16.2 6.9-21 8.4-2.7 19-5.2 25.4-3.1 0 0 53.1 24 62.7 55.6 0 0-22.3 34.9-79.4 40.9v.1c-.2.9-2.7 11.9-9.5 22.6 0 0 0 .1-.1.1-.9-.4 153.9-9 139.2-66.3z"/><g fill="#FBD206"><path d="M120.6 56.5c-6.7 28-5.7 51.7-3.8 66.3.3 2.2.6 4.3.9 6.1.1.7.2 1.4.4 2 10.4 14.5 31.7 24.5 56.6 24.5 29.3 0 53.9-6.4 61.4-28.8.1-.6.3-1.6.6-3.1.3-2.1.6-5.1.7-9.3-.8 1.3-1.6 2.5-2.6 3.6-2.4 2.8-5.2 4.9-8.8 5.8-2.2.5-4.6.6-7.3.1-11.3-2-13.2-13.8-18.2-23.2-1.3-2.5-2.9-4.8-4.9-6.7-2.6-.7-5-1.8-7.2-3.3-7.3-4.7-12.8-12.7-15.7-17.5-1.5-2.4-2.2-4.1-2.2-4.1.2 1 .4 1.9.6 2.8 2.6 9.7 8.8 15.9 14.1 19.5 4.7 3.2 8.6 4.4 8.6 4.4-4.7.1-9.2-1.6-13.4-4.2-.4-.2-.7-.5-1.1-.7-9.5-6.5-17-17.7-20.1-23-1-1.7-1.6-2.8-1.6-2.8-7.2 1.7-10.2 9.2-10.2 9.2-1.5 11.2 1.6 14.7 1.6 14.7-7.3-3.9-8.8-10-8.8-10-8.2-17-3.8-31.8.4-40.2 1.1-2.2 2.1-3.9 2.9-5.1-5.5.9-11.7 2.3-18.1 4.6l.6.2c-2.3 6.2-4 12.3-5.4 18.2z"/><path d="M188.9 370.5c-1.7-3.1-3.5-6.2-5.2-9.2-1.2-2.2-1.9-4.8-3-6.8-.8-1.6-1.5-3.1-2.3-4.7-.5-1.2-.8-2.5-1.4-3.5-1.5-2.3-3.8-3.5-5.4-5.8-1.2-1.7-2-4.1-3.3-6-.9-1.4-2.3-2.3-3.3-3.8-3-4.5-5.5-9.4-8.3-14.5-.8-1.5-3.7-7.2-7.3-14.4-6.5-13.3-15.1-31.5-16.1-36.1-.6-3.1-3.5-12.9-7.4-24.2-4.8-13.8-11.3-29.9-17.5-38.9 0 0 0-.7.1-2 .5-6.4 2.2-27.3 5.7-51.3.8-5.6 1.7-11.4 2.7-17.1-.6-3-1.3-7-1.8-11.8-1.6-14.2-2.2-35.8 3.3-60.9 1.5-6.8 3.5-13.9 6-21.2C91.2 50.5 52.2 86.5 67.6 190c0 0 1.7 14.9 15 43.7 9.8 21.2 25.9 49.9 52.3 85.7 1.3 1.7 2.5 3.4 3.8 5.2l4.2 6.3c2.2 2.9 4.4 6.1 6.4 9.2.5 1.1.9 2.1 1.4 3.2.7 1.3 2.3 3.1 2.5 4.9.2 2.1-1.1 5.3-1.4 7.4-.5 3.2-.6 6.5-1.5 9.4-.5 1-1.1 2.1-1.6 3.1-1.7 3.1-3.6 6.2-5.7 9-.6.8-.9 1.7-1.5 2.4-1.2 1.6-2.7 2.8-3.8 4.4-.4.5-1.1 1.7-.4 2.7 1.4 2.2 4.5-.6 5.4-1.6.6-.9 1.2-1.7 1.8-2.6 1.9-2.2 3.8-4.4 5.7-6.5.9-1 1.9-2.8 3.8-2.3v.2c-1.2 2.7-1.9 5.6-2.8 8.4-1.3 4-2.7 8.3-4.1 12.2-.5 1.4-2.5 5.5.1 6.4 2.4.9 4-3.4 4.5-4.7.8-2.3 1.6-4.6 2.4-6.8 1-2.1 1.9-4.2 2.9-6.3.5-1.2 1.2-4.3 2.7-4.7.3.1.5.1.8.2.9 1.7.1 4.2 0 5.8-.1 1.9-.4 3.5-.5 5.1-.2 4.2-.1 7.7-1 11.3-.5 1.8-2.3 6.1 1.1 6.4 2.6.2 3.1-2.5 3.7-4.2.7-1.8.7-3.8 1.2-5.9.8-3.8 1.2-7.9 1.5-12.2.1-1.4 0-7.1.9-7.5.8.1 1.2.1 1.8.4.3 1.1.6 2.9.7 4.3.2.9.4 1.7.5 2.6.4 2.3.7 4.6 1.1 6.8.1 2.5 0 5.4-.1 7.9-.1 2.1.7 3.2 2.6 3 3.1-.3 2.8-5.6 2.9-8.3 0-2.2.1-4.3.1-6.5-.5-3.6-1.1-7.2-1.6-10.8 0-1.3.2-2.5.2-3.7 0-1.9-.4-3.5-.1-5.1.2-1.4.9-2.9 1-4.2.2-.1.5-.2.7-.3.5.4 1 .7 1.5 1.1.5.8 1 1.7 1.5 2.5 2 3 4.1 6.7 7.1 8.1 1.4.6 3.8 1.8 5.3.2.1-2-2.7-3.3-3.7-4.8zM292.5 173.7c0-20.1-1.7-37.3-4.6-52.3-.7-3.5-1.4-6.8-2.3-10.1-4.6-18.3-11.3-32.6-19.3-43.8-24.4-14.3-15.7 15.6-25.1 38.9-.8 1.9-1.6 3.7-2.5 5.4-.1 7.7-.8 12.2-1.3 14.2 1.8 5.8 3.4 11.5 5 17.1 7.3 26.6 11.5 49 11.5 49-.4.7-.7 1.5-1 2.3-5.3 12.2-9.6 32.3-12 47-1.4 8-2.2 14.4-2.3 16.8-.3 5.9-9.8 35.8-13.9 48.3-.8 2.5-1.4 4.3-1.7 5.1-2 5.4-3.8 10.6-6.1 15.5-.7 1.6-2 2.7-2.7 4.2-.9 2-1.4 4.5-2.3 6.4-1.2 2.5-3.4 4-4.5 6.5-.5 1.1-.5 2.4-.9 3.7-.5 1.7-1 3.3-1.6 5-.8 2.2-1.1 4.8-2 7.2-1.3 3.3-2.5 6.6-3.8 9.9-.7 1.7-3.3 3.3-2.9 5.6 1.7 1.3 4-.2 5.2-1 2.8-1.8 4.4-5.7 5.9-9 .4-.9.8-1.8 1.1-2.7.4-.4.9-.8 1.3-1.3.2.1.5.1.7.2.4 1.3 1.2 2.6 1.6 4 .5 1.6.4 3.2.6 5.1.2 1.2.6 2.3.7 3.6v10.9c.3 2.1.7 4.3 1 6.4.5 2.6 1 7.9 4.1 7.8 1.9-.1 2.5-1.3 2.1-3.4-.5-2.4-1.1-5.3-1.3-7.8 0-2.3.1-4.6.1-6.9 0-.9.1-1.8.1-2.6-.1-1.4-.1-3.2 0-4.4.5-.4 1-.5 1.7-.6 1 .2 1.8 5.9 2 7.3.9 4.1 1.9 8.2 3.2 11.8.7 2 1.1 4 2 5.7.9 1.6 1.7 4.2 4.3 3.6 3.3-.8.8-4.8.1-6.5-1.4-3.4-1.8-6.9-2.6-11-.3-1.6-.9-3.1-1.3-5-.3-1.6-1.5-4-.9-5.8.3-.1.5-.2.8-.3 1.5.1 2.6 3.1 3.3 4.3 1.3 1.9 2.5 3.9 3.8 5.8 1.1 2.1 2.3 4.3 3.4 6.4.7 1.3 2.9 5.2 5.2 4 2.4-1.3-.1-5.1-.8-6.4-2-3.6-4-7.6-5.9-11.4-1.3-2.7-2.4-5.4-4-7.9v-.2c1.8-.8 3.1.9 4.1 1.7 2.2 1.9 4.4 3.8 6.6 5.6.7.8 1.5 1.5 2.2 2.3 1 .9 4.5 3.2 5.5.8.5-1.1-.3-2.1-.8-2.6-1.3-1.5-3-2.4-4.4-3.8-.7-.7-1.1-1.5-1.8-2.2-2.5-2.4-4.9-5.2-6.9-8.1-.7-.9-1.4-1.9-2.1-2.8-1.3-2.8-1.9-6-2.9-9.1-.7-2-2.4-5-2.5-7.1-.1-1.8 1.2-3.8 1.7-5.2.3-1.1.6-2.3.9-3.4 1.5-3.4 3.2-6.9 4.9-10.1.1-.3.3-.6.4-.9.9-2 1.8-4 2.8-6 19.6-36.2 31.6-65.4 38.9-87.8 3.7-11.3 6.2-20.8 7.9-28.6 4.6-18.4 4.3-27.3 4.3-27.3z"/></g><g fill="#06090A"><path d="M318.6 187.4c-2.1-1.6-3.1-8.4-.5-19.8 3-12.9 9.8-42.4-16.2-56 .4-2 1.1-4.8 1.7-7 3-11.3 7.2-26.8-.6-40.2-4.9-8.4-13.7-14.3-26.1-17.6-7.3-1.9-33.9-7.2-35.3-15-3.6-20.1-6-26.9-24.6-30.1-55.2-9.4-73.6 31.8-73.6 31.8-.8 1.3-1.9 3-2.9 5.1-4.2 8.4-8.5 23.3-.4 40.2 0 0 1.5 6.1 8.8 10 0 0-3.1-3.5-1.6-14.7 0 0 3-7.5 10.2-9.2 0 0 .6 1.1 1.6 2.8 3.1 5.2 10.6 16.5 20.1 23 .3.2.7.5 1.1.7 4.2 2.6 8.7 4.4 13.4 4.2 0 0-3.9-1.2-8.6-4.4-5.3-3.6-11.6-9.8-14.1-19.5-.2-.9-.5-1.8-.6-2.8 0 0 .8 1.6 2.2 4.1 2.9 4.8 8.4 12.8 15.7 17.5 2.2 1.4 4.7 2.6 7.2 3.3 2 1.9 3.6 4.2 4.9 6.7 5.1 9.4 7 21.2 18.2 23.2 2.7.5 5.1.4 7.3-.1 3.5-.9 6.4-3 8.8-5.8.9-1.1 1.8-2.3 2.6-3.6.5-.7.9-1.5 1.3-2.3.9-1.7 1.7-3.5 2.5-5.4 9.5-23.2.7-53.2 25.1-38.9 7.9 11.1 14.7 25.5 19.3 43.8.8 3.2 1.6 6.6 2.3 10.1 2.9 14.9 4.6 32.2 4.6 52.3 0 0 .3 9-3.7 27.1-1.7 7.8-4.2 17.4-7.9 28.6 1.4 1.8 2.7 3.5 3.9 5.2 3.6 4.9 6.9 9.7 9.9 14.3 8.2 12.8 14.1 24.6 18.5 35.3 46-34.2 21.6-84.6 5.5-96.9zM232.2 166.3s-2.2 1.2 0 4c1.3 1.7 11.9 12.7 20.6 24.1.3-.8.7-1.6 1-2.3 0 0-4.2-22.3-11.5-49-1.9 8.9-5.2 17-10.1 23.2z"/></g><path d="M158.1 530.6c1.4 1.4 3.2 2.3 5.1 2.6.4.1.9.1 1.4.1 1.6 0 3.2-.8 4.4-1.9 1.2-1.1 2.1-2.5 2.7-4 .3 0 .3.5.2.8-.6 1.4-1.3 2.8-2.3 3.9-1 1.1-2.4 2.1-3.9 2.3-1.9.3-3.8-.5-5.5-1.3-.8-.4-1.6-.8-2.2-1.3-.2-.2-.5-.5-.5-.8s.4-.6.6-.4zM166.5 521.3c-.8-1.7-2.6-2.8-4.5-2.8-.4 0-.7 0-1.1.1-1.1.3-2.1 1.1-2.7 2.3-.5 1-.6 2.2-.2 3.2l.6 1.4.8-1.4c.5-.9 1.5-1.4 2.6-1.4.5 0 1 .1 1.4.4.1.1.2.1.2.2.2.2.5.3.8.5.2.1.5.1.7.1.5 0 .9-.2 1.2-.5.6-.5.6-1.3.2-2.1z"/><path fill="#06090A" d="M159.2 92.6s4.5 4.9 11.9 1.1c0 0-.6 3-6.9 2.9 0 0-4.5-.7-5-4zM155.7 86.1s8.1 4.7 16.4 5.6c.1-.1-9.8.7-16.4-5.6zM171 112.4s3.4 2.6 8.6 2.6c6.7 0 10.3-3.3 10.3-3.3s-2.1 5.1-9.6 5.1-9.3-4.4-9.3-4.4z"/></svg>