<svg xmlns="http://www.w3.org/2000/svg" viewBox="0 0 603.1 271.9"><path d="M224.9 28.8C222.8 16.7 208.8 6.2 196 2.1c-16.9-5.3-34.7 5.4-43.3 15.8-16.1 19.6-20.5 46.8-19.7 72 .2 5.3-.8 15.9 5.2 20.1 4.3 3 6.3.3 7.2 5.2.8 4.4-2.8 10.6-3.7 14.7-2.1 10.3-2.1 21.2-.4 32 1 6.3 2.4 19.1 12.1 14.8 1.9 10.1 3.1 26.1 19.1 28.1 11.1 1.4 17.6-8.1 19.8-15.8.7-2.5.2-7.3 2.2-9.3 4.1-3.9 3 1 8.1 2.7 16.8 5.7 16.9-28.8 18.2-36.2 3.7 7.5 12.2 10.4 19.9 8 6.3-2 12.9-11.8 14.9-17.2 3.6-9.7 3.3-23.2 2.4-33.8-1.3-15.8-10.9-27.9-18.9-42.3-4.4-8-8.8-16.7-11.5-25.2-.3-.8-1.9-8.6-2.7-6.9z"/><path fill="#AED03C" d="M168.5 38.9s6.3 13.7 41.4-9.6l4-3.5c.7-5.6 2.4-9.8 4.5-12.9 1.7-3.5 4.6-6.3 9.4-7.8 2.1-.9 3.5-1.1 3.5-1.1.8 0 1.5 0 2.2.1h.3C260.9 2.5 284.1 37 284.1 37c25.3 53.5 77.1 50.4 77.1 50.4s64.5-19.2 56.5 50.1l-63.8 23.7c-21.3 4.4-44.1-21.9-44.1-21.9-26.7-3.5-49.9-26-62.2-40.2.5 6.2 1.5 13 1.5 13 2.2 6-7.5 39.2-9 43.4-1.5 4.2-23.9 58.3-23.9 58.3-1.2 3.9-5.6 6.3-5.6 6.3L180.5 209c1.9-2.4 20.9-5.4 20.9-5.4 8.9-5.7 10.1-45.2 9.3-61.6-.8-16.5 3.7-24.5 7.8-34.7 1.8-4.5 2-14.4 1.7-24-5.2-1.8-8.6-5.2-8.6-5.2 3.3-6.8 4.4-19.3 4.7-26.3-.8-3.2-1.5-6.2-1.9-9-5.9 2.7-7 9.9-6.9 14.5.2 5.8-4 5.4-4 5.4-3.4-1.5-4.4-.1-4.4-.1l-3.8-4.9c-.3 2.1-1.8 4.5-1.8 4.5-2.1-3.3-3.3-2.3-3.3-2.3l-2.9 4.7c-2.2-3.6-7.3-6.2-7.3-6.2-17.6-2.5-11.5-19.5-11.5-19.5z"/><path d="M361.2 87.4s65.5-18.8 58.4 48.4l-4.3 2.6-93.6 11.9c-7.1-5.5-11.8-11-11.8-11h-.1L331.5 82c16.4 6.2 29.7 5.4 29.7 5.4z"/><path d="M304.9 134.4c-3-4.8 2.5-6.5 2.5-6.5-2.5-4.5 2.8-7 2.8-7-3-5.5 3-8 3-8-2.5-4 3-7.2 3-7.2-2.8-5.5 3.2-8.2 3.2-8.2-3.5-5 3.5-8.8 3.5-8.8-3.2-3.9 1.6-8 2.9-9 1.9.9 3.8 1.7 5.7 2.4l-21.7 57.2c-2.8-.4-5.5-1-8.2-1.7.3-1.8 3.3-3.2 3.3-3.2z"/><path fill="#2FC4F1" d="M99.3 209c-.6 2.5-1.1 4.9-1.6 7h-.1c.5-2.2 1.1-4.5 1.7-7z"/><path d="M182.3 55.5c-.7 0-1.4-1-1.4-2.4s.7-3.1 1.4-3.2c-.5 1.3 1.7 3.1.1 4-.2.1.2.3.3.4.1.2.1.5 0 .8 0 .3-.3.4-.4.4zM177.6 54.2c-.7-1-1.1-2.2-1.2-3.4V50c.2-1 .7-1.9 1.5-2.6.7-.7 1.6-1.1 2.6-1.3 0-.2-.3-.2-.5-.2-.9.3-1.8.6-2.5 1.1s-1.4 1.3-1.6 2.2c-.3 1.2 0 2.4.4 3.5.2.5.3 1 .6 1.5.1.2.2.3.4.4.2 0 .4-.2.3-.4z"/><path fill="none" d="M367.6 100.9c.1-.2-.3-.2-.2-.3.1-.2 0-.3.1-.5 0-.2.1-.2.2-.1.2.1.3.3.5.4.1.1.3.1.4.2l-.9.3h-.1zM365.6 101.8c.1-.2 0-.3-.2-.3-.3 0-.6 0-.9.1-.4 0-.8.1-1.2.3-.5.2-.8.6-1.1 1-.2.2-.3.5-.6.3-.2-.1-.4-.2-.5-.2-.4-.2-.7-.3-1.1-.3-.7-.1-1.3-.1-2 0-.7 0-1.3.3-1.9.6-.1 0-.2.1-.2 0-.1-.1 0-.2 0-.2.1-.5 0-.9-.3-1.2-.3-.3-.5-.8-1.1-.9-.4-.1-.9-.1-1.2.2-.1.1-.1.2-.1.3 0 .1.1.2.2.2s.3 0 .3-.1c0-.3.3-.3.5-.3s.4-.1.5.1c.2.3.5.6.6.9.2.4 0 .8.1 1.3 0 .2-.1.4-.2.6-.4.4-.6.9-.7 1.5 0 .1-.1.2-.1.3-.3-.2-.2-.6-.6-.8-.1 0-.1-.3 0-.3.3-.2.3-.7.6-.9.2-.2.2-.6 0-.7-.6-.1-1.2-.4-1.9-.2-.1 0-.3 0-.5-.1-.3-.1-.4-.4-.7-.5-.3-.2-.6-.5-.7-.9-.1-.3-.2-.5-.3-.7-.1-.3 0-.3.2-.4.4-.1 1-.5 1.1-1 .1-.4.1-.7.1-1.1 0-.6-.1-1.1-.3-1.6-.1-.4-.2-.8-.2-1.3 0-.4.1-.8.3-1.2.2-.3 0-.5-.1-.6-.1-.2-.3-.1-.5.1s-.4.1-.5-.1c-.2-.3-.1-.3-.5-.2-.2.1-.2.2-.2.3-.1.3-.3.2-.4.1 0 0-.1 0-.1-.1-.1-.1-.3-.1-.4 0-.1 0-.1.3-.1.3.3.5 0 1-.1 1.5s-.4 1-.6 1.5c-.1.3-.3.5-.2.8.1.3-.1.7.1 1 .1.3.2.6.4.8.1.2.3.5.5.5.3 0 .4.3.6.3.1 0 .4.1.5.4.1.3.2.5.4.7 0 0 .2.2.1.3 0 .1-.1.1-.2 0-.4-.1-.8-.2-1.2-.2-.4 0-.7-.2-1.1-.2-.3 0-.5-.1-.7-.3-.1-.1-.2-.3-.3-.4-.2-.2-.1-.5-.1-.7.1-.4.2-.4.5-.1.1.1.2.1.3 0 .1-.1.1-.3.1-.4-.1-.2-.6-.2-.8-.2-.2 0-.2.2-.3.3-.3.2-.3.6-.1.9.1.2.3.4.5.6.1.1.1.1 0 .2 0 0-.1.1-.1 0-.6-.1-1.2.2-1.8.4-.8.3-1.5.3-2.3.3-.4 0-.2-.3-.2-.3.2-.2.3-.4.5-.6.4-.7 1.1-1 1.4-1.8.1-.3.3-.6.6-.8.1.1.2.2.2.3.3.4.8.5 1.2.2.1 0 .1-.1.2-.1.4-.2.6-.5.6-1 0-.2-.1-.4-.3-.4-.1 0-.2-.1-.3 0-.1.1-.1.3 0 .4.3.2.1.3 0 .5-.2.3-.6.3-.9.1-.3-.3-.2-.7 0-1.1.3-.4.5-.9.9-1.3.2-.2.4-.6.6-.9.5-.6.9-1.3 1.5-1.8.1-.1.3-.2.4-.4.3-.4.7-.8 1-1.1.5-.5 1.1-1 1.5-1.6.4-.5 1-.9 1.5-1.4.6-.5 1.1-1.1 1.7-1.5.1-.1.2-.2.3-.1.1.1 0 .2-.1.3-.4.3-.6.8-.9 1.1-.3.2-.4.6-.6.9-.2.3-.4.6-.5.9-.2.6-.4 1.2-.5 1.8-.1.6-.2 1.1-.1 1.7 0 .2.1.3.1.5 0 .4.1.8.1 1.3 0 .3.2.5.2.8.1.6.4 1 .6 1.5.2.3.3.6.3 1 0 .3-.2.5-.5.6-.2.1-.3-.1-.4-.2-.1-.1-.1-.1-.2-.1s-.2.2-.2.2c.1.2.2.5.5.5.2 0 .3.1.5 0 .3-.1.5-.3.6-.6.1-.2.5-.2.5 0 .2.5.7.8 1.1 1.1.4.3.8.3 1.2.5.2.1.5.2.8.2.2 0 .5.1.8.1.3.1.6.2.8.1.4-.1.7 0 1 0h.2c.3 0 .6-.2 1-.2s.7-.2 1.1-.3l.9-.6c.5-.4.9-.9 1.1-1.5.1-.3.4-.5.4-.9.4-.2.4-.7.6-1 .2-.3.3-.7.4-1.1.1-.3.3-.5.4-.9.2-.9.4-1.8.8-2.6.3-.7.5-1.5.8-2.2 0-.1 0-.3.2-.3.1 0 .2.1.3.2.5.5.7 1.2.9 1.8.1.2.1.4.1.5 0 .1 0 .1-.1.1-.3 0-.5-.1-.8-.1-.5.1-.9.4-1.1.9-.4.7-.3 1.6.4 2 .1.1.2.2.4.1s.5-.3.5-.6c0-.1-.1-.2-.1-.3-.2-.1-.3 0-.5.1-.1.1 0 .2.1.2s.1.1 0 .1c0 .1 0 .1-.1.1-.2 0-.4 0-.5-.2-.2-.3-.1-1.3.2-1.7.4-.4 1.4-.5 1.7 0 .2.4.4.8.5 1.2.1.4.1.7.5 1 .1.1.1.2.1.3-.1.1-.2 0-.3 0-.3-.1-.7-.1-1 0-.4.1-.8.3-1.1.5-.5.2-.9.6-1 1.1-.1.4-.2.5-.7.6-.2 0-.4.1-.6.2-.9.3-1.3 1-1.6 1.8-.1.2-.1.4.2.5.6.1 1.2-.1 1.7-.4.3-.2.6-.5.8-.8.1-.1.1 0 .1 0 .1 0 0 .1.1.1.1.2-.1.4-.1.6 0 .2-.1.3-.3.3-.2 0-.3.1-.5.3-.2.3-.3.6-.3.9-.1.1-.3.1-.4.2-.1.3-.1.2-.1.2zM329.4 110.3c-.2 0-.4.1-.6.1-.8.4-1.1 1.3-.8 2.1.2.5.6.7 1 .6.2-.1.2-.3.3-.4 0 0-.1-.2-.2-.2-.2-.1-.2.1-.3.2-.1.2-.2.1-.3 0-.3-.4-.2-.8 0-1.3s.6-.6 1-.7c.1 0 .2.1.4.1.4.1.7.5 1.1.6.2.1.2.3 0 .4-.3.2-.4.5-.7.7-.2.2-.5.4-.6.7-.2.3-.2.6-.2 1 0 .3.1.7.3.9.3.3.6.7 1 1 .2.1.3.2.3.4 0 .4.2.6.4.9.5.7.7.7 1.4.3.1-.1.2-.1.3-.1.4 0 .6-.5.5-.8-.1-.3-.3-.5-.4-.8 0-.3-.3-.4-.5-.6-.2-.4-.2-.9-.2-1.3 0-.9-.4-1.5-1.3-1.6-.1 0-.2.1-.2-.1 0-.1.1-.1.1-.2.2-.2.5-.3.8-.4.4-.1 1.1-.1 1.5.2.4.3.8.6 1 1 .2.3.3.6.4 1 0 .1 0 .1-.1.2-.1 0-.1 0-.1-.1-.4-.3-.7-.3-1.1 0-.3.2-.2.6.1.7 0 0 .2.1.2 0s.1-.1 0-.2 0-.2.1-.2c.2-.1.4-.1.7 0 .3.2.4.4.4.8 0 .5-.3 1-.4 1.5-.1.3-.3.6-.6.8-.6.6-1.3.9-2.1 1.1-.4.1-.9 0-1.3 0s-.7-.3-1-.4c-.1 0-.3 0-.3-.2.1-.1.2-.1.4-.1.7-.1 1.1-.7.8-1.4-.2-.5-.5-.6-1-.5-.2.1-.2.3-.2.4 0 .2.2 0 .3 0l.1-.1c.1.1.2-.2.3 0 .1.2.3.4.2.6-.1.2-.3.5-.6.5-.4 0-.7.1-1.1-.1-.3-.1-.5-.4-.7-.6-.2-.2-.4-.4-.4-.6 0-.5-.2-1.1-.2-1.6s-.1-1 0-1.6c.1-.4.1-.8.2-1.2.1-.4.1-.9.1-1.3.1-.7.2-1.5.2-2.2 0-.2 0-.3.1-.4s.2 0 .3 0c.3 0 .5 0 .6.1.1.1.1.3.2.6v.2c.2.4.2.9.6 1.2-.1.2 0 .4-.2.4zM377.7 98.9c-.9 0-1.7 0-2.5.1l.1-.1.9-.6c.4-.3.8-.6 1.2-.8.3-.2.6-.2.9-.5.4-.4.9-.7 1.3-1 .3-.2.6-.5 1-.6.1 0 .2 0 .2-.1.2-.4.7-.5 1-.8.3-.2.5-.3.7-.5.2-.2.5-.4.8-.5.2-.1.5-.2.8 0 .1.1.3.3.3.5s-.2.2-.3.2c-.1 0-.2 0-.2.2 0 .1 0 .2.1.3.1 0 .2.1.3 0 .3-.1.5-.3.5-.6s-.1-.6-.3-.7c-.4-.3-.4-.5 0-.8.3-.2.5-.5.8-.7.2-.1.4-.3.5-.5.1-.1.2-.3.4-.3h0c.3-.1.5-.3.8-.4.3-.1.5-.3.8-.3.3 0 .5-.1.8-.1h.7c.3 0 .5.2.8.2.5 0 .8.2 1 .6.1.3-.1.4-.2.6-.1.2-.3.1-.5 0s-.3 0-.4.1c-.1.1 0 .4.1.4.3 0 .5.2.8.2.2 0 .4-.1.4-.3.1-.3.3-.6.1-1v-.3c.1 0 .3-.1.4.1.1.2.2.2.4.3.4.3.7.6.9 1 .3.6.3 1.2.3 1.9 0 .6-.1 1.2-.2 1.7-.1.7-.5 1.3-1.2 1.4-.2 0-.4-.1-.5-.3-.1-.1 0-.2.1-.3v-.4c-.1-.1-.2 0-.2 0-.1 0-.3.3-.4-.2-.1-.4-.2-.5.1-.8.1-.2.4-.3.4-.5 0-.3-.2-.5-.5-.6-.3-.2-.4-.4-.3-.5.2-.2.2-.5.1-.7-.1-.3-.1-.3-.4-.2-.4.2-.8.2-1.2.2-.5 0-1-.2-1.5-.3-.7-.1-1.1.4-1.5.8-.3.4-.3.8-.3 1.3 0 .3.1.4-.2.5-.8.4-1.1 1-.9 1.9 0 .2.1.3.1.5-.3-.5-.8-.7-1.2-1-.2-.1-.5-.3-.8-.2-.5.1-.5.1-.6-.4-.1-.5-.5-.8-.8-.7-.3.1-.6.2-.9.4-.5.4-.7 1-.9 1.5-.2.6-.5 1-1 1.4h-.1c-.4.3-.6.3-.9.3zM356.2 108.6c0-.1.1-.1.2-.1.2 0 .3 0 .5.1-.1.1-.3.2-.5.2 0 0-.1 0-.1-.1 0 0-.1 0-.1-.1z"/><path fill="none" d="M360.9 103.7c-.4-.2-.8-.3-1.2-.4-.2-.1-.3-.2-.2-.3 0-.1.2-.1.3-.1.2.1.4.1.7.2.5.1.9.4 1.3.6.2.1.3.2.4.3-.2.1-.3.2-.5.3 0 0 0-.1-.1-.1-.1-.1-.4-.3-.7-.5zM320.9 119c.4-.4.9-.5 1.4-.6.3-.1.7-.2 1.1-.1.2.1.5.1.7.2.5.1.9.3 1.3.5.3.1.5.4.8.6.3.2.5.5.7.8.2.4.3.8.4 1.3.2.8.1 1.5-.1 2.2l-.3.9c-.1.2-.1.5-.2.7-.1.4-.5.7-.6 1.1-.1-.4 0-.7.1-1.1.2-.7.3-1.4 0-2.1-.1-.2-.3-.5-.3-.7-.1-.2-.1-.3-.3-.3-.2 0-.3.2-.4.4-.1.2-.1.5-.5.5.1-.3 0-.5-.1-.7-.1-.3.1-.3.2-.3.4 0 .6-.3.7-.5.2-.4-.1-1.2-.7-1.4-.1 0-.3-.1-.3-.2-.1-.5-.4-.8-.9-1-.5-.2-.9-.1-1.2.3-.1.2-.3.2-.5.1s-.4 0-.6.1c-.5.3-.9 1-.5 1.6.1.1.1.3 0 .5-.2.2-.2.4-.1.6.1.3.3.5.4.7.1.3.4.4.5.4.3 0 .7.2.9-.3 0 0 .1-.1.1 0 .2.1.1.3.2.4.1.1-.1.1-.1.2-.3.2-.6.1-1 .1-.6 0-1-.5-1.4-.8-.3-.3-.4-.7-.5-1.2-.1-.4 0-.7.1-1.1.1-.7.4-1.3 1-1.8zM382.8 97.4c-.2-.1-.2-.2 0-.3.1-.1.8.1.9.2.2.2.4.4.7.6-.4 0-.8.1-1.2.1 0-.2-.1-.4-.4-.6zM392.7 98.1c.4-.6.9-1.2 1-2 .1-.4.2-.8.2-1.3 0-.6 0-1.2-.2-1.7 0-.1 0-.1.1-.2s.1.1.1.1c.3.1.5.4.8.6.8.5 1.6.7 2.6.7.4 0 .9 0 1.3.4.3.3.4.6.3.9-.1.4-.4.5-.6.7-.2.2-.4.2-.6-.1-.1-.2-.3-.2-.4 0-.1.1-.1.4.1.5.2.1.4.2.7.2.7-.1 1.4-.9 1.1-1.6-.1-.4-.4-.7-.7-.9-.1 0-.2-.1-.2-.3 0-.1.1-.1.2-.2.1 0 .2-.1.3-.1.4-.1.8-.2 1-.6.1-.2.3-.3.4-.6.1-.2.2 0 .3 0 .5.4 1 .9 1.6 1.3.2.2.1.5 0 .5-.2.1-.3.3-.4.4-.1.1-.1.3-.2.4-.6.7-.8 1.5-1 2.3v.2c.1.3 0 .5-.1.8-.1.1-.2.2-.3 0-.1-.3-.4-.3-.6-.5-.2-.2-.6-.2-.8-.4-.6-.3-1.2-.3-1.8-.3-.3 0-.5.2-.9.1s-.7-.2-1-.4c-.6-.4-.6-1.1-.2-1.7.2-.2.4-.2.6-.3.1 0 .2.2.2.3 0 .2.1.3.2.3s.3.1.4-.1c.1-.2.1-.3 0-.5-.2-.3-.7-.4-1-.3-.4.1-.6.3-.8.6-.4.6-.3 1.4.2 1.8.2.1.4.2.6.4.2.2.2.3-.1.4-.3.1-.6.3-.8.5l-.4.4c-.6-.2-1.1-.3-1.7-.5.2.2.4 0 .5-.2z"/><path fill="none" d="M399.6 100.2c.1-.1.1-.3 0-.3-.1-.1-.2-.2-.4-.1s-.4.1-.5.3c-.1.1-.2.2-.3.1-.1 0 0-.2 0-.2-.1-.1 0-.2 0-.3 0-.3 0-.6-.3-.9-.1-.1-.1 0-.1 0-.4.2-.4.7-.5 1-.1.1-.1.3-.2.3s-.1-.1-.1-.2c-.2-.3-.4-.3-.7-.5-.1 0-.3.1-.3.1v.3c-.6-.2-1.1-.4-1.7-.6.1-.1.2-.2.3-.2.6-.4 1.3-.7 2-.9.6-.2 1.2-.2 1.9 0 .3.1.7.2 1 .4l.9.6c.2.2.4.4.4.7 0 .3.1.5.1.7.2.4.2.9.4 1.3.1.3.3.6.5.8.1.1.2.4.1.5-.7-.6-1.5-1.1-2.3-1.6-.5-.4-.5-.8-.2-1.3zM404.2 93.5c.6-.1 1.2-.2 1.8-.1.8.2 1.6.5 2 1.3.2.4.4.8.4 1.3 0 .4-.1.8-.3 1.2 0 .1-.1.3-.3.2-.2-.1-.5-.2-.6-.4-.3-.3-.7-.5-1-.7-.5-.4-1-.7-1.5-1-.5-.3-.9-.7-1.4-1-.2-.1-.3-.3-.1-.5.4-.1.7-.3 1-.3zM390.3 95.2c.2 0 .3-.2.5-.2.2-.1.2-.3.1-.5-.1-.1-.2-.2-.4-.3-.3-.1-.4-.3-.2-.6.1-.1.1-.2.1-.4-.1.2-.3.2-.4.2-.4 0-.9.1-1.3 0-.3-.1-.7-.1-1.1 0-.6.1-.9.5-1.1 1-.1.3-.1.6.1.9.1.2.3.4.1.6-.2.3.2.9.5 1.2.4.4.8.3 1.3.3.3 0 .5-.1.7-.3.2-.3.5-.4.8-.6.1 0 .1-.1.2 0 .1 0 .4 0 .3-.1 0-.2.1-.4-.2-.5h-.1c-.1-.1-.2-.2-.2-.3 0-.3.2-.4.3-.4zm-2.3-.8c0 .1-.1.2-.1.2-.2.1-.4.1-.5.1-.1.1-.2.1-.3 0-.1-.1 0-.1.1-.2.2-.2.4-.2.6-.3.1 0 .2.1.2.2zm.3.9c0 .1-.2.2-.3.2h-.4c-.1 0-.2-.1-.2-.2s.1-.1.2-.1c.2 0 .3 0 .4-.1.1-.1.2 0 .3.2zM372.2 90.6c-.1-.2-.1-.2.1-.3.2 0 .3-.1.5 0 .4.1.5.2.4.6 0 .2 0 .3-.1.5.1.1 0 .2 0 .3.4.6.5 1.3 1.4 1.5.5.1 1 .1 1.4 0 .4-.1.8-.3 1.1-.5.3-.2.6-.3.9-.6.1-.1.2-.3.1-.4-.1-.2-.3-.4-.5-.5-.4-.3-.7-.7-.9-1.1-.3-.5-.6-1-1.2-1.3-.2-.1-.4-.3-.6-.3-.4 0-.9.1-1.3.4-.3.3-.4.6-.2.9 0 .1.1.2.1.2-.1.1-.2.1-.3 0-.2-.1-.5-.1-.7-.1-.2 0-.4 0-.6.1-.4 0-.5-.4-.7-.6-.3-.5-.7-1-1.2-1.3-.3-.2-.3-.4 0-.6.4-.3.8-.4 1.3-.5.6-.1 1.1-.1 1.6.3l.3.3c.2.5.2.5-.4.8-.1.1-.2.2-.2.3 0 .1.2.2.3.2.3-.1.6-.2.7-.5.1-.3.1-.6 0-.8-.3-.4-.7-.8-1.3-1-.1 0-.1 0-.1-.1s.1-.1.1-.1h.2c.4.1.9 0 1.3 0 .7 0 1.3.2 1.9.6.6.3 1.1.8 1.6 1.2.5.4.8.9 1.1 1.3.4.6.6 1.3.6 2v1c-.1.3-.1.7-.2 1-.1.2-.2.5-.2.7-.1.3-.2.6-.4.8-.3.2-.5.5-.8.7-.4.2-.7.5-1.2.6-.1 0-.3 0-.3-.1-.1-.3-.4-.3-.6-.5-.3-.3-.6-1-.3-1.3.2-.3.4-.4.7-.5.3-.1.4.2.5.3.1.1.1.1.2.1 0 0 .1 0 .1-.1.1-.4-.2-.9-.6-.8-.3.1-.7.2-1 .4-.6.6-.5 1.2 0 1.8.2.2.4.4.6.5.1 0 .2.1.2.2 0 .2-.2.2-.3.2-.2-.1-.3 0-.5.1-.2 0-.4.2-.6.2-.2 0-.3 0-.3-.2v-.4c-.1-.8-.2-1.5-.4-2.3-.1-.6-.4-1.2-.6-1.9-.2-.4-.3-.9-.7-1.4z"/><path fill="none" d="M413.8 103.3c-.3-.2-.6-.4-.9-.5-.3-.1-.6-.3-1-.4-.3 0-.6-.1-.9-.2-.6-.2-1.1-.3-1.7-.4-.6-.1-1.2-.2-1.9-.1-.4.1-.7.1-1.1.1-.8.1-1.6.2-2.4.4-.5.1-1 .3-1.4.5-.1.1-.3.1-.4-.1-.2-.5-.3-.9-.1-1.5.1-.3.3-.4.6-.3.1 0 .2 0 .3.1.1 0 .2 0 .2-.1-.1-.1.1-.2-.1-.3-.3-.2-.7-.3-1 0-.3.2-.5.4-.5.9-.1-.2-.1-.2-.2-.3-.2-.5-.3-1-.4-1.6-.1-.3-.1-.6-.1-.8.1-.4.1-.8.2-1.2.1-.5.1-1 .4-1.4.3-.4.5-1 .9-1.4.2-.2.3-.3.6-.1l1.2.9c.4.2.8.6 1.2.8.4.2.7.5 1.1.8.3.2.5.4.8.5.1.1.3.2.2.3-.4.3-.7.6-1.2.7-.4.1-.7-.1-.6-.5 0-.4.1-.7-.2-1.1-.2-.3-.4-.6-.7-.8-.4-.2-.6-.1-.7.3 0 .1 0 .2-.2.2-.3-.1-.5-.1-.8-.1-.2 0-.3 0-.4.2-.2.3-.2.6 0 .9.1.2.1.3 0 .4-.3.4-.4.6 0 1 .1.1.2.2.1.3 0 .2.1.4.2.5.5.4 1.3.4 1.8.1.3-.2.5-.5.7-.8.1-.1.1-.3.3-.2.3.1.6 0 .9-.1.2 0 .3 0 .2.2-.1.7.1 1.3.6 1.8.3.3.8.3 1.1.1.5-.4.6-.7.4-1.1-.1-.1-.1-.3-.3-.1-.2.1-.4.2-.3.5.1.2.1.3 0 .4-.1.1-.3.1-.4 0-.1-.1-.3-.2-.4-.3-.2-.2-.3-.4-.3-.7 0-.3-.1-.6.1-.9.1-.1.2-.3.2-.4.1-.3.3-.4.6-.2.6.4 1.3.9 1.9 1.3l1.8 1.2c.6.4 1.2 1 1.8 1.4.3.2.5.5.9.7.1 0 .3.2.4.3.3.5.5 1.1.8 1.6l-.9-.6c-.1-.2-.5-.5-1-.8zM404.6 91.2h.3c.3-.1.4 0 .4.3v.1c.5.1.7.6 1.1.8.5.2 1 .4 1.6.5.3 0 .5.3.6.5.3.6.5 1.4 1.1 1.9.5.4 1 .8 1.6 1 .5.2 1 .3 1.4.5.8.6.8 1.4.1 2.1-2.3-3.2-5.1-5.7-8.2-7.7z"/><path fill="#AED03C" d="M323.4 103.3c-.1-.2-.1-.3.1-.5.1 0 .1-.1.1-.1l-.2.6c0 .1 0 0 0 0z"/><path fill="none" d="M343.1 85.8c.1 0 .3.1.3.3 0 .2-.2.2-.4.3-.4.3-.8.6-1.1.9-.2.2-.5.2-.7.3-.4 0-.8 0-1.1-.2-.2-.1-.4-.2-.5-.4-.1-.3 0-.6 0-.9 0-.3.2-.3.5-.2.5.3 1.1.2 1.4-.4.1-.1.1-.3.1-.4.4.1.7.2 1.1.2.1.3.2.4.4.5zM331.5 82s.1 0 .1.1c-.1 0-.1 0-.1-.1z"/><path fill="none" d="M339 85.8c.1 0 .2.2.1.3-.3.5-.2.9.3 1.3.3.3.7.5 1.1.6.3.1.5 0 .8 0 .1 0 .2-.1.3 0 .1.1 0 .3-.1.4-.2.2-.3.5-.2.7.1.4.1.8.3 1.1.1.3.2.5.4.8v.1c.5.1.4.6.4.9.1.3-.2.7-.4.9-.3.2-.6.2-1 .1-.1 0-.1 0-.2-.1-.3-.1-.4-.3-.1-.6.1-.1.2-.2 0-.3-.2-.1-.3-.2-.5 0-.2.3 0 .9.3 1.1.7.4 1.5.3 2-.3.3-.3.3-.8.2-1.2 0-.2 0-.2.2-.3.4-.1.9 0 1.2-.4.1-.1.2-.1.3.1.3.5.7.9 1.3 1 .2 0 .3-.1.5-.2.4-.3.7-.9.6-1.4-.1-.3-.3-.6-.5-.7-.3-.1-.1-.3 0-.4.3-.4.1-1-.3-1.3-.3-.1-.5-.3-.8-.3-.3 0-.6.1-.8.3-.1.1-.2.1-.3 0-.2-.2-.5-.2-.8-.2-.4 0-.9.6-.8 1 0 .4.2.7.4 1 .2.2.4.5.7.6 0 0 .2 0 .1.1 0 .1 0 .2-.1.2-.4.1-.9.1-1.3 0-.2 0-.3-.4-.4-.6-.2-.4-.2-.9-.2-1.4.3-.7.7-1.4 1.3-1.8.5-.4 1.2-.6 1.8-.4.6.1 1.2.2 1.7.6.3.2.5.5.7.8.1.2.3.4.4.7 0 .1.1.2.1.2 0 .4.1.8.1 1.2 0 .6-.3 1.2-.5 1.7-.2.4-.6.7-.9 1.1-.3.3-.6.6-1.1.6-.2 0-.5.2-.7.3-.2 0-.3-.1-.2-.2.2-.3.2-.6 0-.9-.1-.2-.2-.4-.5-.5-.1 0-.2 0-.2.1s-.1.2.1.3c.3.2.4.4.3.8-.1.2-.5.6-.7.6-.3-.1-.6.2-.9.2-.3 0-.6.2-1 .1-.4 0-.8.1-1.2.3-.5.3-1 .6-1.2 1.1-.3.7-.6 1.5-.6 2.3 0 .6.3 1 .4 1.6 0 .1.2 0 .1.2 0 .1.1.2 0 .3-.1-.1-.2-.1-.3-.1-.8-.3-1.6-.4-2.4 0-.4.2-.9.4-1.2.8-.2.3-.3.6-.4.9-.1.3-.3.6-.5.9-.2.3-.7.5-1.1.5-.6 0-.8-.4-.5-1.1.1-.2.3-.1.4-.4.1.2.1.3.2.4.1.1.2.2.4.1.1-.1.1-.2 0-.3-.3-.4-.3-.4-.8-.3-.3.1-.5.2-.7.4-.1.1-.1.2-.3.1-.3-.1-.6-.3-.8-.6-.1-.1.1-.2 0-.3.1.1.2-.1.3 0 .3.1.5 0 .8-.1.5-.1.9-.3 1.3-.4.2-.1.4-.2.7-.3.3-.1.7-.2.9-.4.4-.3.8-.6 1.2-1 .5-.4 1-1 1.4-1.5.3-.3.5-.7.7-1.1.3-.5.6-1 .7-1.5.2-.7.3-1.4.3-2.1 0-.4.1-.8.1-1.2-.1-.8-.1-1.5-.3-2.3-.1-.5-.3-1-.4-1.5-.2-.4-.4-.7-.6-1-.2-.2-.4-.4-.5-.6-.5-.6-1-1.1-1.5-1.6-.3-.3-.6-.5-.9-.7-.1 0-.1-.1-.1-.1s.1-.1.2-.1h.3c.9.3 1.8.6 2.7.8-.1.2-.1.4-.1.6.1.3.5.8.8.9zM419.4 122.1s-.2-.1-.1-.3l.6-1.5c.1.8.1 1.5.2 2.3-.2-.2-.4-.4-.7-.5zM410.8 99.4c-.7-.5-1.5-.9-2.2-1.4-.1-.1-.1-.2-.1-.2.1-.2.1-.5.2-.7.2-.5.1-.9 0-1.4-.1-.8-.5-1.4-1.1-2-.2-.2-.5-.2-.8-.3-.4-.2-.8-.4-1.1-.4-.6 0-1.3-.1-2 .2-.3.1-.6.3-.8.5-.1.1-.3.2-.4 0-.2-.2-.4-.2-.6-.4-.3-.3-.6-.5-.9-.8-.2-.2-.3-.4 0-.6.1-.1.1-.2.1-.3.2-.6.3-1.2.3-1.8v-.2c.6.3 1.2.6 1.7.9.1.1.2.3.3.4.3.3.7.5 1.2.5 3.1 2 5.8 4.5 8.2 7.8-.2.2-.6.2-.8.1-.1-.1-.2-.1-.1-.3.1-.2 0-.3-.1-.4-.1-.1-.3-.1-.4.1-.1.1-.2.3 0 .5.1.2.2.4.4.5.2.1.3.2.5.1s.4 0 .6-.1c0 0 .1 0 .1-.1.7.9 1.3 1.9 1.9 3-.7-.6-1.4-1.1-2.2-1.7-.6-.6-1.3-1.1-1.9-1.5zM418.7 122.9c.1-.2.1-.4.4-.5.3-.1.4.1.6.2.1.1.1.3 0 .5-.1.1-.3.2-.1.4.1.1.4 0 .5 0v4.2c-.4-1.5-.9-3-1.6-4.4.1-.1.1-.2.2-.4zM312.1 134.6c0-.1-.1-.2.1-.2.1 0 .4 0 .4.1.1.2.3.2.4.4 0 0 0-.1.1 0 .3.5.7.8.9 1.3.4.6.7 1.2.9 1.9.1.4.1.9 0 1.4-.1.4-.2.8-.3 1.1-.2.6-.7 1.1-1.3 1.4-.2.1-.3.2-.5.3l-.8-.8c.3.1.6.2.9.2.1 0 .3.1.4-.1.1-.2 0-.4-.1-.4-.3-.3-.3-.6-.3-.9-.1-.7-.4-1.2-1.1-1.4-.2 0-.3-.4-.2-.6.1-.1.1 0 .1 0 .2.3.4.5.7.6.3.1.6.4 1 .4.3 0 .6.1.8.2.1 0 .2.1.3 0 0-.1.1-.1 0-.3-.2-.5-.5-1-.8-1.4-.1-.1-.1-.1-.1-.2 0-.4-.3-.6-.6-.7-.3-.2-.6-.4-1-.4h-.1c-.4.3-.7 0-1-.2l.2-.4c.3 0 .6 0 .8-.2.2-.3.3-.7.2-1.1z"/><path fill="none" d="M311.2 135.4l.4-1c.1.2.1.3.1.5-.1.3-.3.5-.5.5zM310.7 139.9l.1.2c0 .1 0 .1.1.2l-.3-.3s0-.1.1-.1zM315.2 140.2c.1-.5.2-1 .2-1.5 0-.2.1-.2.3-.2.3.2.8.1 1-.2.4-.4.6-1 .2-1.5-.1-.2-.6-.4-.7-.3-.2.1-.2.3-.2.4 0 .2.2.3.3.2.2-.1.2.1.3.2.1.1 0 .2-.1.2-.2.5-.8.6-1.1.3-.1-.1-.1-.2-.1-.3-.1-.5-.4-.8-.6-1.2-.2-.3-.4-.6-.5-.9 0-.1-.2-.1 0-.2.1-.1.2-.1.3-.1.4.2.9.2 1.3.3.6.2 1.1 0 1.7.1.4 0 .8-.1 1.3-.1.4-.1.7-.2 1-.3.4-.1.3.3.3.4 0 .4-.1.7-.1 1.1 0 .1 0 .1-.1.2-.1 0-.1 0-.2-.1-.6-.7-1.2-.7-1.7.1-.3.4-.3.7-.5 1.1-.3.7-.5 1.4-1.3 1.7-.1 0-.3.1-.2.2 0 .1.1.2.3.3.2 0 .3 0 .5.1.5.1 1-.1 1.5 0 .2 0 .4-.1.6-.1.3-.1.6-.2.9-.4.6-.3.9-.9 1-1.6 0-.2-.1-.4-.3-.5-.2-.1-.3-.3-.2-.5.1-.2.1-.4.1-.7.1.1.2.1.3.3.1.2.3.3.5.4.4.4.9.4 1.2.9.1.2.1.4-.1.5-.1.1-.3.3-.5.1-.1-.1-.2 0-.3.1-.1 0 0 .2 0 .2.1.1.3.2.5.2-.3.4-.6.7-.9 1.1h-.4c-.2 0-.5.1-.7.2-.4.2-.8.2-1.1.2-.1 0-.3 0-.3.1-.3.2-.6.2-.9.2-.8.1-1.5.3-2.2.6-.4.2-.8.4-1.1.6-.4.2-.7.4-1 .7l-.4-.4c.5-.1.8-.4 1.2-.7.6-.2.9-.8 1-1.5zM325.2 134.7c0-.2.1-.4.1-.7 0-.3-.2-.3-.3-.4-.2-.1-.3 0-.5.1-.3.3-.6.6-1 .8-.3.2-.5.5-.6.8-.2.5-.3 1-.2 1.5 0 .2 0 .3-.2.4-.3.1-.6.1-.9-.1-.6-.4-1.2-.8-1.2-1.7 0-.3.1-.6.5-.6.2 0 .3-.1.4-.1.4-.2.9-.3 1.2-.7l.7-.7c.3-.3.5-.6.7-.9.1-.2.2-.2.4-.2.4.1.8.3 1.2.5.3.2.5.5.6.7.1.2.2.4.3.5-.4.5-.8 1-1.1 1.5-.1 0-.1-.4-.1-.7zM322.6 138c-.1-.1-.3-.1-.2-.2.1-.2.3-.1.4-.1.2 0 .3 0 .5.1l-.6.6c0-.2 0-.3-.1-.4zM352.9 88.6c-.4.4-.8.6-1.2 1l-.9.9-.7.7s-.1 0-.1.1c-.3.4-.6.6-.9 1-.6.7-1.3 1.4-1.8 2.2-.3.4-.7.7-1 1.2-.4.6-.9 1.2-1.3 1.9-.2.4-.6.7-.7 1.1 0 .1-.2.2-.3.3-.5.6-.9 1.2-1.4 1.9-.2.3-.5.5-.6.8-.2.4-.5.1-.8 0-.4-.2-.7-.5-1-.9-.4-.5-.6-1.1-.9-1.7-.3-.7-.3-1.3-.3-2 0-.4.1-.8.3-1.2.3-.5.6-.9 1.2-1.2.3-.2.6-.4 1-.2.2.1.5 0 .7.2.1.1.2.1.2.2s-.1.1-.2.1c-.3.1-.6 0-.9.2-.7.5-1 1.3-1 2.1 0 .2-.1.4-.3.5-.2.3-.1.7.3.8.3.1.2.3.2.4.1.5.2.5.7.3.2-.1.3-.1.5-.2s.3.2.4.3c.1.2.3.2.5.2s.2-.2.2-.4c.1-.4.2-.8.3-1.1.2-.5.7-.8.7-1.4 0-.3.1-.6.1-.9 0-.3-.3-.5-.6-.6-.2 0-.2-.2-.2-.3 0-.2-.1-.4-.3-.6-.1-.1-.1-.2.1-.2s.3-.1.5-.1c.5.1.9-.1 1.3-.2l.9-.3c.2-.1.4-.1.7-.2.4-.2.7-.4 1-.7.7-.7 1-1.5 1.2-2.4 0-.1 0-.1.1-.1.1-.1.1-.4.3-.4.2 0 .1.2.1.4.2.4.5.5.9.3.6-.4 1-.9 1.3-1.5.1-.3.3-.5.5-.6.1-.1.3-.2.3-.4s-.3-.1-.4-.2c-.5-.2-1.1-.3-1.7-.3-.5 0-1 .2-1.1.6-.1.3-.4.6 0 1 .1.1 0 .2-.1.3l-.1.1c-.1-.1 0-.2-.1-.3-.2-.7-.3-1.5-.9-2.1-.3-.3-.6-.5-.9-.7-.5-.3-1-.5-1.6-.5-.5 0-1-.1-1.4-.4 1.9.4 3.6.7 5.2 1 .5.2 1.1.5 1.6.5.7 0 1.3.3 1.9.2.3-.1.6-.1.9-.1.4 0 .8.1 1.2.1-.3.2-.5.5-.8.6-.3.4-.6.7-.8.9z"/><path fill="#AED03C" d="M412.3 99.5c-.2.1-.3-.1-.5-.1-.2-.1-.3-.3-.4-.5-.2-.2 0-.4 0-.5.1-.1.3-.1.4-.1.2.1.2.3.1.4-.1.1 0 .2.1.3.1.1.6.1.8-.1.1.1.2.3.3.4 0 0-.1 0-.1.1-.2.1-.5.1-.7.1zM330.6 84.4l-.5 1.2s0 .1.1.1l-.1.1h-.1l-.5 1.4c.2-.2.3-.4.4-.6 0-.1.1-.2.1-.2.5-.1.6-.8 1.2-.7.1 0 .3-.6.3-.7-.1-.3-.5-.5-.8-.4 0-.2-.1-.2-.1-.2zm.3.4c0 .1.2.1.2.2s-.1.2-.2.2c-.2-.1-.4 0-.4-.2.1-.1.3-.1.4-.2zM381.4 89c0-.2.2-.2.4-.2 0 0 .1 0 .1-.1.2-.2.4-.1.5 0 .2.2.6.3.8.4 0 0 .1.1.2 0 .6-.3 1.1-.6 1.3-1.3.1-.4.3-.7.5-1 .1-.2.3-.3.5-.3.3-.1.3-.2.2-.5-.1-.2-.3-.3-.6-.4-.2-.1-.3-.1-.2-.3 0-.1.1-.1.1-.2h-.5c.1.1.1.2.1.4-.1.3 0 .4.3.5.1 0 .2-.1.2.1 0 .1 0 .2-.1.2-.1.1-.3.2-.4.4-.2.6-.4 1.2-.8 1.7-.2.2-.4.4-.6.3-.3-.1-.7-.1-.8-.6 0-.2-.2-.2-.3-.3-.3 0-.4-.3-.4-.4 0-.8.3-1.3.8-1.7.3-.2.5-.5.6-.8h-.4c-.2.3-.5.5-.8.7-.3.2-.4.4-.5.6-.2.3-.2.6-.2.9.1.3.2.5.4.7.2.3.1.4-.1.5-.2.1-.3 0-.5 0-.5 0-.9-.4-1.1-.9-.2-.4-.1-.7-.1-1-.1-.5.1-.9.2-1.4 0-.1.1-.2.1-.2h-.7c-.1.2-.2.5-.4.7-.3.4-.6.7-1.2.6-.2 0-.3-.1-.4-.1-.3 0-.3-.3-.3-.4.1-.3-.2-.2-.2-.2-.1 0-.3.1-.3.3 0 .2.1.4.2.4.2.1.4.2.7.3.5.2 1.3 0 1.6-.4.2.1.2.4.2.6 0 .8.3 1.4.9 1.8.2.2.5.4.7.6.4.4.6.8.6 1.2 0 .2 0 .3-.2.2-.4-.1-.9.2-1.1.6-.1.2 0 .3-.1.5-.1.4-.1.9 0 1.3 0 .4.1.8.1 1.1 0 .1-.1.2 0 .2s.2 0 .3-.1c.2-.1.4-.4.5-.6.1-.2.2 0 .3-.2.2-.4.6-.7.9-.9.6-.5.5-1.3-.2-1.7-.1 0-.2-.1-.2-.2 0-.3 0-.6-.1-.8 0 0-.1-.1 0-.2.1 0 .1-.1.2 0 .3.2.7.4.9.6.3.3.6.4.9.4.4.1.9 0 1.3-.2.1-.1.3-.1.4-.1.4-.1.4-.2.2-.5-.3-.3-.7-.5-1.1-.6-.3-.1-.8-.1-1.2 0-.5.1-1.1.3-1.6.1-.2.1-.5.1-.5-.1zm1.4.9c.1-.1.2-.1.4-.2.1 0 .1 0 .2.1.4.2.8.2 1.1.1.1 0 .1-.1.1-.2s0-.1.1-.1c.2 0 .7.3.8.5-.4.1-.7.3-1.1.4-.4 0-.9-.1-1.3-.3-.2-.1-.4-.2-.3-.3zm-1 1.2c.3 0 .7.5.6.7-.1.3-.2.6-.5.8-.2.2-.4.4-.7.6l-.6.6c0-.2-.2-.2-.2-.4.1-.4-.1-.9 0-1.3 0-.1.1-.3.1-.4.1-.7.3-.8 1-.6h.3zM319.6 118.3c.2.2 0 .3-.2.4-.3.2-.7.4-1 .7-.1.1-.2.2-.4.1s-.1.1-.1.2c-.3.1-.6.3-.9.5l.2-.6c.4-.2.8-.5 1.2-.7l.3-.3c.2-.1 0-.3 0-.3-.4 0-.7-.2-1-.2l.1-.3c.3 0 .5.1.8.1.4 0 .7.2 1 .4zM328.1 91.1l-.3.4c.2 0 .4.1.4.2 0 .4.1.8.3 1.1.2.4.5.8 1 .9.1 0 .3.3.2.3-.1.5-.1 1-.3 1.5-.2.4-.3.8-.5 1.1-.1.2 0 .4.3.4.2 0 .4.1.4.2.1.4.3.3.6.2.4-.2.4-.2.9-.1.1 0 .2.2.3 0 .1-.3.4-.6.6-.9.2-.3.3-.2.5-.1.3.2.5.1.6-.3.1-.2.1-.4.4-.5.2 0 .3-.3.2-.5-.1-.2 0-.2.1-.2.4 0 .5-.1.6-.5 0-.1.1-.2.2-.3.2-.1.3-.3.1-.5-.4-.4-.2-.7 0-1 .1-.1 0-.4-.2-.4-.1 0-.2-.1-.3-.1l.2-.2c.3-.3.3-.5-.1-.7-.2-.1 0-.1 0-.1.1-.3 0-.7-.2-.6-.4.1-.3-.2-.3-.4s-.1-.5-.3-.5c-.2-.1-.3.1-.4.3-.4.4-.7.7-1.2.9-.3.1-.7.1-1 .2-.3.2-.6.2-1 .1-.4-.2-.8-.2-1.1-.1-.1.2-.4.2-.7.2zm6.1.9c-.3.2-.6.2-.9.3-.5 0-1 0-1.6.1-.1 0-.2 0-.2-.1s0-.2.1-.2c.2-.2.5-.2.8-.2.2 0 .2-.2.4-.2v-.1c-.1-.1-.2 0-.3 0-.1 0-.2 0-.3.1-.1.1-.3.2-.4 0-.1-.2 0-.4.2-.5.2-.1.5-.2.7-.3.3-.1.5-.5.9-.5 0 .3.1.6.5.7.2 0 .1.1.1.2-.1.1 0 .3.1.3.1.1.1.2-.1.4zm-2.2 1.4c.2 0 .3-.1.4.1 0 0 .3.1.3 0s-.1-.2-.2-.3c-.1 0-.3 0-.5-.1-.1 0-.3-.1-.3-.2s.2-.2.3-.1c.7 0 1.3-.2 2-.1.3 0 .3 0 .2.3-.1.1-.1.3 0 .4.4.4-.1.7-.1 1 0 .2-.3.1-.4.1-.6-.3-1.2-.6-1.7-1.1zm-.9.8c0-.1-.1-.1 0-.2s.1.1.2.1c.2.2.1.4.2.6.1.1.1.1.2.1s.1-.1.1-.2c-.1-.2-.2-.5-.3-.7 0-.1-.1-.1 0-.2s.1 0 .2 0c.3.1.5.3.7.5.3.2.6.4.8.7.1.1.1.3-.1.3-.3 0-.3.2-.3.5v.2c0-.1-.1 0-.2-.1-.3-.3-.3-.3-.6.1-.1.1-.1.2-.2.2s-.1-.1-.1-.2c-.2-.6-.6-1.1-.6-1.7zm-1.1 1.2c.1-.2 0-.5.3-.7.1.1 0 .3 0 .4v.2c0 .1 0 .1.1.2.1-.2.1-.4.2-.6 0-.1 0-.1.1-.2.1.1.2.2.1.2-.1.6.3 1 .5 1.5.1.1 0 .3 0 .4 0 0-.2.1-.2 0-.3-.4-.6-.1-.7.1-.2.2-.2.1-.3-.1-.1-.1-.1-.2-.3-.2 0-.1-.3-.1-.2-.3.2-.2.3-.5.4-.9zm-1.2-3.4c-.1-.5.3-.7.9-.6.4.1.9.2 1.3 0 .1 0 .2 0 .2.1 0 .2-.1.3-.2.5-.3.4-.3.4 0 .7.1.1.3.2.2.4-.1.2-.3.2-.4.2-.3 0-.4 0-.5.3-.1.2-.1.2-.3 0-.2-.1-.4-.3-.6-.5-.3-.1-.6-.5-.6-1.1zM326 97.2"/><path fill="#AED03C" d="M373 99.3c.2 0 .4-.1.6-.1.1-.5.2-.9.2-1.4 0-.2.1-.4.2-.4.4 0 .7-.3 1-.3.7 0 1.2-.4 1.7-.7l.9-.6c.4-.3.7-.6.9-.9.4-.8.7-1.6.8-2.6 0-.6-.1-1.2-.1-1.8 0-.4-.2-.8-.4-1.2-.4-.7-.8-1.4-1.5-1.8-.4-.3-.7-.7-1.2-.9-.4-.2-.7-.4-1.1-.5-.6-.2-1.2-.2-1.8-.3-.9 0-1.8.2-2.6.6-.2.1-.3.4-.6.3-.1-.2 0-.5 0-.7v-.4c-.2 0-.3 0-.5.1.1.5 0 1-.1 1.5 0 .1-.1.2-.2.1-.2-.2-.5-.3-.7-.5-.4-.3-.9-.5-1.4-.8-.2 0-.5.1-.7.1.2.1.4.2.5.2.3.1.6.4.9.6l.9.6c.3.2.2.3.1.5-.3.4-.5.7-.7 1.1-.1.2-.3.2-.5 0-.3-.3-.6-.5-1-.8-.4-.3-.8-.5-1.2-.6-.5-.2-1-.2-1.5-.3-.8-.2-1.4.1-2.2.3-.5.1-.8.4-1.2.7-.3.2-.7.4-.9.8-.2.3-.4.4-.6.6-.2.2-.5.3-.7.2-.2-.1 0-.4 0-.6v-.1c0-.3-.1-.6-.3-.7-.4-.2-.8-.4-1.2-.2-.4.1-.9 0-1.4-.1-.1 0-.3 0-.4.1-.1.1 0 .2.1.3l.4.4c.4.6.7 1.2 1.3 1.5.2.1.9.2.9.1.2-.3.5-.3.8-.4.3 0 .3.1.2.3-.1.2-.3.4-.4.6-.2.4-.6.8-1 1-.3.2-.4.1-.4-.2 0-.3-.1-.5-.4-.6-.5 0-1-.1-1.4 0-.5.1-.9.2-1.4 0-.1 0-.2 0-.3.1-.1.1-.1.2 0 .3.2.2.4.3.5.6.3.5.8.9 1.3 1.2.3.2.6.3 1 .4.3 0 .5-.1.7-.2.2-.1.4-.5.3-.7-.1-.3.1-.3.2-.4 0 0 .1 0 .2-.1.7-.5 1.3-1.2 1.7-2 .1-.2.2-.5.3-.8.1-.2.2-.3.3-.3 0 .4-.1.8.1 1.1.2.5.5.9 1.1 1.3.6.4 1.7.4 2.1 0 .1-.1.2-.1.3 0 .7.5 1.4-.1 1.5-.8.1-.6-.3-1.1-.5-1.6-.1-.4-.4-.7-.3-1.1 0-.2-.1-.2-.1-.3 0-.1-.1 0-.2.1-.3.2-.7.4-1 .7-.4.3-.9.6-1.1 1.1-.3.7 0 1.4.7 1.6.1 0 .2.1.2.2 0 .2-.1.2-.2.2-.7 0-1.3-.2-1.8-.8-.2-.3-.2-.6-.3-.9-.1-.6.4-1.6.9-1.8.2-.1.4-.3.7-.3.4 0 .8-.2 1.2-.2.2 0 .4-.1.6 0 .2.1.4.1.6.1.5 0 1 .1 1.5.4.4.2.8.5 1.2.8.6.3.7.6.4 1.2-.2.4-.3.9-.6 1.3 0-.2-.2-.3-.2-.5-.1-.2-.4-.2-.5-.5-.1.1-.2.1-.4.2-.1.1-.1.2-.2.3-.1.1-.1.2 0 .3.1 0 .2 0 .3-.1.1-.2.5-.2.6 0 .1.5.3.9.1 1.4-.3.8-.6 1.6-.8 2.5-.1.5-.3 1-.5 1.5 0 .1.1.2-.1.2s-.1-.2-.1-.2c-.1-.8-.3-1.6-.7-2.3-.2-.3-.5-.6-.9-.8-.4-.3-.8-.5-1.3-.6-.5-.1-.9 0-1.4 0-.1 0-.1 0-.2.1-.2.2-.5.4-.8.3-.3-.1-.6 0-.7.2-.2.3-.5.2-.7.2-.6-.2-1.5.6-1.4 1.1.1.4-.2.5-.3.7-.2.2-.3.7-.2 1 .1.3.3.6.2.9-.1.8.1 1.2.8 1.5.2.1.3 0 .4.1.3.3.6.5.9.7.2.1.8.1 1 0 .2-.2.4-.3.7-.1.1 0 .2 0 .2.1.2.1.8-.2.9-.4.1-.3.3-.5.2-.9 0-.2.1-.3.2-.3.2-.1.4-.2.5-.4.3-.4.3-.8 0-1.2-.3-.5-.2-1-.3-1.4-.1-.5-.6-1-1-.9-.2 0-.3 0-.3-.1-.1-.2 0-.4 0-.5 0-.1.2-.1.3-.1.2 0 .4.1.7 0 .4 0 .7.1 1 .3.1.1.3.2.4.2.3.1.4.3.5.5.5.8.9 1.6.8 2.5 0 .2.1.4 0 .6-.2.4-.2.9-.5 1.3-.1.1-.1.2-.1.2-.2.2-.3.6-.6.8v-.7c0-.3-.3-.5-.5-.7-.1-.1-.3-.3-.5 0-.1.1-.1.1-.1.3 0 .2.1.1.2.1.2-.1.3-.1.4.1.1.1.2.3.2.5-.1.3-.1.6-.3.8-.3.6-.8.9-1.5 1-.5 0-.9.2-1.4.3-.9.2-1.8 0-2.7-.3-.5-.1-1-.4-1.4-.7-.5-.3-.9-.8-1.2-1.2-.1-.1 0-.1 0-.2.1-.1.2-.2.4-.3.6-.3.9-1.2.5-1.8-.1-.1-.2-.3-.2-.5-.1-.2 0-.4.1-.6.1-.4 0-.7-.3-1-.5-.5-.9-1-1.5-1.4-.1 0-.1-.2-.2-.2-.1.1-.2.1-.2.3 0 .6-.1 1.1 0 1.7 0 .2.2.4.2.7.1.5.7.9 1.2.7.1 0 .1-.1.2 0 .2.2.3.5.4.8 0 .5-.3.8-.6 1.2-.2.2-.6.1-.7-.2-.3-.5-.5-1.1-.7-1.7-.2-.6-.3-1.1-.4-1.7-.1-.6-.2-1.2-.1-1.8.1-.6.2-1.1.4-1.7.1-.3.2-.7.4-1 .4-.5.7-1.2 1.2-1.7s.8-1.1 1.4-1.5c-.5 0-.9-.1-1.5-.1-.3.2-.5.5-.8.6-.3.2-.5.5-.8.8-.4.4-.8.6-1.2 1l-.9.9-.7.7s-.1 0-.1.1c-.3.4-.6.6-.9 1-.6.7-1.3 1.4-1.8 2.2-.3.4-.7.7-1 1.2-.4.6-.9 1.2-1.3 1.9-.2.4-.6.7-.7 1.1 0 .1-.2.2-.3.3-.5.6-.9 1.2-1.4 1.9-.2.3-.5.5-.6.8-.2.4-.5.1-.8 0-.4-.2-.7-.5-1-.9-.4-.5-.6-1.1-.9-1.7-.3-.7-.3-1.3-.3-2 0-.4.1-.8.3-1.2.3-.5.6-.9 1.2-1.2.3-.2.6-.4 1-.2.2.1.5 0 .7.2.1.1.2.1.2.2s-.1.1-.2.1c-.3.1-.6 0-.9.2-.7.5-1 1.3-1 2.1 0 .2-.1.4-.3.5-.2.3-.1.7.3.8.3.1.2.3.2.4.1.5.2.5.7.3.2-.1.3-.1.5-.2s.3.2.4.3c.1.2.3.2.5.2s.2-.2.2-.4c.1-.4.2-.8.3-1.1.2-.5.7-.8.7-1.4 0-.3.1-.6.1-.9 0-.3-.3-.5-.6-.6-.2 0-.2-.2-.2-.3 0-.2-.1-.4-.3-.6-.1-.1-.1-.2.1-.2s.3-.1.5-.1c.5.1.9-.1 1.3-.2l.9-.3c.2-.1.4-.1.7-.2.4-.2.7-.4 1-.7.7-.7 1-1.5 1.2-2.4 0-.1 0-.1.1-.1.1-.1.1-.4.3-.4.2 0 .1.2.1.4.2.4.5.5.9.3.6-.4 1-.9 1.3-1.5.1-.3.3-.5.5-.6.1-.1.3-.2.3-.4s-.3-.1-.4-.2c-.5-.2-1.1-.3-1.7-.3-.5 0-1 .2-1.1.6-.1.3-.4.6 0 1 .1.1 0 .2-.1.3l-.1.1c-.1-.1 0-.2-.1-.3-.2-.7-.3-1.5-.9-2.1-.3-.3-.6-.5-.9-.7-.5-.3-1-.5-1.6-.5-.5 0-1-.1-1.4-.4-.3-.1-.6-.1-.8-.2.1.2.2.3.4.4.1 0 .3.1.3.3 0 .2-.2.2-.4.3-.4.3-.8.6-1.1.9-.2.2-.5.2-.7.3-.4 0-.8 0-1.1-.2-.2-.1-.4-.2-.5-.4-.1-.3 0-.6 0-.9 0-.3.2-.3.5-.2.5.3 1.1.2 1.4-.4.1-.1.1-.3.1-.4-.2 0-.4-.1-.5-.1v.1c0 .2 0 .5-.4.5s-.6-.3-.6-.6c0-.1.2-.1.3-.2-.3-.1-.5-.1-.8-.2v.1c0 .3-.2.4-.4.4s-.5-.2-.5-.4 0-.3.1-.4c-.2-.1-.4-.1-.6-.2-.1.2-.1.4-.1.6 0 .3.5.8.8.8.1 0 .2.2.1.3-.3.5-.2.9.3 1.3.3.3.7.5 1.1.6.3.1.5 0 .8 0 .1 0 .2-.1.3 0 .1.1 0 .3-.1.4-.2.2-.3.5-.2.7.1.4.1.8.3 1.1.1.3.2.5.4.8v.1c.5.1.4.6.4.9.1.3-.2.7-.4.9-.3.2-.6.2-1 .1-.1 0-.1 0-.2-.1-.3-.1-.4-.3-.1-.6.1-.1.2-.2 0-.3-.2-.1-.3-.2-.5 0-.2.3 0 .9.3 1.1.7.4 1.5.3 2-.3.3-.3.3-.8.2-1.2 0-.2 0-.2.2-.3.4-.1.9 0 1.2-.4.1-.1.2-.1.3.1.3.5.7.9 1.3 1 .2 0 .3-.1.5-.2.4-.3.7-.9.6-1.4-.1-.3-.3-.6-.5-.7-.3-.1-.1-.3 0-.4.3-.4.1-1-.3-1.3-.3-.1-.5-.3-.8-.3-.3 0-.6.1-.8.3-.1.1-.2.1-.3 0-.2-.2-.5-.2-.8-.2-.4 0-.9.6-.8 1 0 .4.2.7.4 1 .2.2.4.5.7.6 0 0 .2 0 .1.1 0 .1 0 .2-.1.2-.4.1-.9.1-1.3 0-.2 0-.3-.4-.4-.6-.2-.4-.2-.9-.2-1.4.3-.7.7-1.4 1.3-1.8.5-.4 1.2-.6 1.8-.4.6.1 1.2.2 1.7.6.3.2.5.5.7.8.1.2.3.4.4.7 0 .1.1.2.1.2 0 .4.1.8.1 1.2 0 .6-.3 1.2-.5 1.7-.2.4-.6.7-.9 1.1-.3.3-.6.6-1.1.6-.2 0-.5.2-.7.3-.2 0-.3-.1-.2-.2.2-.3.2-.6 0-.9-.1-.2-.2-.4-.5-.5-.1 0-.2 0-.2.1s-.1.2.1.3c.3.2.4.4.3.8-.1.2-.5.6-.7.6-.3-.1-.6.2-.9.2-.3 0-.6.2-1 .1-.4 0-.8.1-1.2.3-.5.3-1 .6-1.2 1.1-.3.7-.6 1.5-.6 2.3 0 .6.3 1 .4 1.6 0 .1.2 0 .1.2 0 .1.1.2 0 .3-.1-.1-.2-.1-.3-.1-.8-.3-1.6-.4-2.4 0-.4.2-.9.4-1.2.8-.2.3-.3.6-.4.9-.1.3-.3.6-.5.9-.2.3-.7.5-1.1.5-.6 0-.8-.4-.5-1.1.1-.2.3-.1.4-.4.1.2.1.3.2.4.1.1.2.2.4.1.1-.1.1-.2 0-.3-.3-.4-.3-.4-.8-.3-.3.1-.5.2-.7.4-.1.1-.1.2-.3.1-.3-.1-.6-.3-.8-.6-.1-.1.1-.2 0-.3.1.1.2-.1.3 0 .3.1.5 0 .8-.1.5-.1.9-.3 1.3-.4.2-.1.4-.2.7-.3.3-.1.7-.2.9-.4.4-.3.8-.6 1.2-1 .5-.4 1-1 1.4-1.5.3-.3.5-.7.7-1.1.3-.5.6-1 .7-1.5.2-.7.3-1.4.3-2.1 0-.4.1-.8.1-1.2-.1-.8-.1-1.5-.3-2.3-.1-.5-.3-1-.4-1.5-.2-.4-.4-.7-.6-1-.2-.2-.4-.4-.5-.6-.5-.6-1-1.1-1.5-1.6-.3-.3-.6-.5-.9-.7-.1 0-.1-.1-.1-.1s.1-.1.2-.1h.3c-1.3-.4-2.7-.9-4-1.4h-.2l-.1.3c.4.1.7.2 1 .3.4.1.9.2 1 .8 0 .3.2.5 0 .8-.2.3-.4.3-.6.1-.1-.1-.3-.2-.4-.1-.1.1-.2.3-.1.4.2.3.6.5 1.1.3.4-.2.8-.9.5-1.4-.1-.1-.1-.2 0-.3h.2c.5.3.9.6 1.2 1.1.2.3.3.7.4 1 .1.3.1.6 0 .8-.1.2-.2.5-.2.8 0 .3-.3.2-.4.4-.2-.1-.3-.1-.3-.3 0-.1-.1-.1-.2-.2-.5-.5-1.1-.4-1.7-.2-.2.1-.5.1-.7.2-.7.2-1.2.6-1.8.9-.2.1-.4.3-.3.5.1.2.3.1.5.1.2.1.5-.1.7.1.2.2.5.2.7.2.5 0 .9.1 1.4.3.5.1 1.2-.1 1.3-.5.1-.4.4-.4.6-.5.1.3 0 .7.1 1 .1.3.3.7-.3 1-.1 0-.1.1-.1.2-.3.5 0 .9.1 1.3.2.6.6 1 .9 1.6.3.6.6 1.1.7 1.8 0 .1 0 .3.2.3s.3-.1.4-.2c.4-.4.5-.9.6-1.4.1-.5.2-1.1.2-1.6.1-.7.2-1.4-.4-2-.3-.4-.9-.6-1.4-.4-.2.1-.3 0-.4-.2-.1-.1-.1-.3-.1-.4-.2-.7 0-1.5.2-2.2.1-.4.2-.7.1-1.1 0-.1 0-.3-.1-.4.2 0 .3.1.4.2.2.2.4.4.6.7.3.4.6.9.9 1.2.1.1.1.4.1.5-.1.2-.2.5-.3.7-.1.1-.2.2-.3.2-.1 0-.1-.1-.1-.2-.1-.1-.1-.3-.3-.2-.2.1-.2.5 0 .6.4.3.9.2 1.1-.3.1-.2.2-.2.3-.2.2 0 .2.2.2.3.1.3.1.6.2.9.1.3.2.6.2.9 0 .4-.1.7 0 1.1v.7c-.1.5-.2 1-.2 1.5 0 .4-.2.8-.3 1.2-.2.4-.4.9-.6 1.3-.2.3-.4.6-.6.8-.3.4-.6.6-.9 1-.2.3-.5.5-.8.7-.3.3-.5.6-.9.6-.6.1-1 .6-1.6.7-.2 0-.5.2-.7.3-.3.1-.6 0-1 .1s-.5-.1-.4-.6c0-.1 0-.3.1-.4 0-.3.2-.4.5-.2.1.1.1.2.3.2.4 0 .8.1 1.2-.1.3-.2.7-.3 1-.5.2-.2.3-.5.5-.6.4-.3.8-.5 1.1-.8.2-.2.5-.3.8-.4.3-.1.4-.2.2-.5-.1-.2-.8-.4-1.1-.4-.3 0-.6.1-.9.1-.6 0-1.1.2-1.6.4-.3.1-.6.2-.9.5-.2.2-.4.3-.6.5-.2.2-.2.6-.4.8-.4.5-.6 1-.6 1.6 0 .1-.1.2-.3.2-.3 0-.6-.1-.9-.2l-1.2-.3c-.8-.3-1.1-.9-1.2-1.7 0-.1-.1-.4.3-.2.1.1.4-.1.5-.1.4-.3.5-1 .3-1.5s-.3-1-.4-1.5c-.1-.3 0-.7.2-.9.2-.2.1-.3 0-.4 0-.1-.2-.2-.3-.1-.1 0-.3.1-.4.1l-.4 1c0-.1.1-.1.1-.2.1-.1.1-.2.2-.1v.8c.2.6.4 1.1.5 1.7.1.4-.1 1-.6 1s-.8-.2-.8-.5c0-.2-.1-.5 0-.7-.1-.5.1-.9.2-1.3 0-.2.1-.4.1-.6l-.8 2.1v.5c0 .1 0 .1-.1.2.1 0 .1.1.2.1.2.2.3.4.4.6.1.1 0 .2-.1.2-.1.1-.2 0-.2-.1-.1-.3-.4-.5-.4-.9 0 0-.1 0-.1-.1s0-.1-.1-.2l-.4 1.1c.2.1.3.3.5.4.2.2.5.4.7.6.5.5.9.9 1.6 1.2.3.1.6.3.9.4.5.1 1 0 1.4.2.2.1.1.3.2.4.1.1-.1.2-.2.2-.2 0-.4.1-.6.1-.7.1-1.1.5-1.4 1.1-.3.6-.1 1.6.2 2 .2.3.4.1.5.1.1 0 .2-.2.2-.2 0-.2-.2-.3-.4-.3-.3-.1-.4-.3-.3-.5 0-.1 0-.2.1-.4.3-.6.4-.6.7-1 .2-.2.5-.2.6-.4 0 0 .3-.1.4-.1.3.1.7.1 1 .2.1 0 .2.1.2.1l.6.6c.4.5 1.1.6 1.7.3.2-.1.5-.2.6-.5 0-.1.1-.2.2-.2 0 .1.2.2.1.3 0 .1 0 .1.1.2.3.4.6.8 1.1 1 .5.2 1 .4 1.5.3 1.2-.2 1.5-1 1.6-2.1.1-.3-.2-.6-.4-.9-.1-.2-.5-.1-.6.2-.1.2-.2.3-.4.3s-.5-.1-.7 0c-.2.1-.3.2-.5.2s-.4.2-.4.3c-.1.2-.2.5-.1.8v.2c-.1.1-.1-.1-.1-.1-.5-.1-.6-.6-.7-1 0-.1-.1-.3 0-.5.3-.6.6-1.1 1.3-1.4.4-.2.8-.2 1.3-.2.8 0 1.4.5 2.1 1 .4.3.7.9 1.3 1.1l.1.1c.1.2 0 .3-.2.5-.3.3-.6.5-.9.8-.6.7-1.3 1.1-2 1.5-.4.3-.9.5-1.4.7-.4.2-.9.4-1.3.6-.3.1-.7.3-1 .4-.5.2-1 .3-1.5.4-.6.2-1.2.2-1.8.3-.5.1-.9.1-1.4.2-.1 0-.2 0-.2-.1-.1-.1-.1-.1 0-.2.3-.3.5-.8.9-1.1.1 0 .1-.2.2-.1.1 0 .1.2.1.2 0 .2.1.2.2.3.3.2.6.3 1 .2.5-.1.9-.3 1.4-.6.3-.2.5-.4.7-.6.3-.2.6-.3.8-.5.4-.4.3-.6-.2-.9-.3-.1-.6-.1-.9-.2-.8-.3-1.6-.5-2.5-.3-.6.1-1.2.9-.8 1.6.1.2 0 .2-.1.3-.5.3-.9.8-1.2 1.3-.2.5-.5.6-1.1.5-.3-.1-.3-.2-.3-.4v-.7c0-.5-.1-.9-.1-1.4 0-.4 0-.9-.1-1.2-.2-.6-.3-1.2-.6-1.7s-.5-1-1-1.5c-.4-.4-.7-.8-1.1-1.1l-.1.4c.3.3.6.6.8.9.3.4.6.9.9 1.5.2.4-.2 1.6-.5 1.9-.3.2-.5.3-.8 0-.1-.1-.2 0-.2.1-.1.1.3.6.4.6.6 0 1-.3 1.3-.8 0-.1.1-.2.2-.2s.1.1.1.2c-.1.9-.1 1.9-.4 2.8 0 .1-.1.4-.3.3-.2-.1-.4-.1-.5-.2-.5-.3-1.2-.4-1.7-.8-.3-.2-.7-.4-1.1-.6-.1 0-.1-.1-.2-.1l-.1.4c.3.1.6.3.9.4.6.4 1.3.6 1.9.9.2.1.5.2.7.4.1.1.2.2.1.3-.1.4-.3.7-.5 1-.2.2-.3.5-.7.7-.3.1-.6.1-.9 0-.2 0-.6.1-.8-.2-.1-.1-.2-.2 0-.3.1 0 .1-.1.2-.1.4-.2.6-.8.3-1.1-.4-.5-1.1-.8-1.7-1h-.1l.2.1c.1.1.2.1.4.2s.3.2.5.2c.2-.1.2.1.3.1.2.1.4.3.5.5.1.3-.1.5-.4.6-.3 0-.4.4-.7.5-.1.1-.3.2-.4 0-.2-.3-.4-.7-.5-1l-.2.5.3.6c.3.4.6.5 1.1.3.1 0 .2-.1.3-.1.4.3.8.4 1.2.4.1 0 .2 0 .2.1s0 .2-.1.3c-.2.1-.4.3-.6.4-.2.1-.3.3-.4.3-.3 0-.6.3-.9.3-.3 0-.4.2-.7.2-.5.1-.9 0-1.4 0l-.2.5c.3 0 .7.1 1 .1.5.1 1-.1 1.4-.1.4-.1.7-.3 1.1-.5.1-.1.1-.1.2 0 .2.2.2.4.4.6.3.3.6.5 1 .5.5-.1.9-.4 1-.9.1-.2 0-.5-.2-.5s-.2.2-.2.4c0 .3-.3.4-.5.5-.2.1-.5 0-.6-.1-.4-.5-.4-.8.2-1.1 0 0 .1 0 .1-.1.2-.4.6-.6.9-1 .3-.5.7-.9.9-1.5.1-.2.2-.4.4-.3.1 0 .2 0 .3.2.1.5.1 1.1 0 1.6-.1.2-.1.5-.1.7 0 .5-.1.9-.1 1.4 0 .3-.1.7-.4 1l-.3.6c-.1.2-.3.3-.5.5s-.3.2-.4-.1c-.1-.5-.6-.7-1-.8-.4-.1-.7.1-1.1.3-.3.1-.5.3-.8.3-.7.2-1.4.1-2.2.1-.1 0-.3-.1-.4.1-.1.2.1.3.2.4.5.4 1 .6 1.5 1s1.2.6 1.8 1c.5.3.9.3 1.4.2.3-.1.7-.1.9-.5.2-.4.2-.7-.1-1.1-.1-.2-.1-.3.1-.4.3-.1.4-.4.6-.6.1-.1 0-.2.2-.2.1.1.1.2.1.3 0 .4.1.7 0 1.1 0 .4.2.8.2 1.2 0 .2 0 .4.1.6.1.3.4.5.6.7.6.7 1.3 1.2 2.1 1.6.2.1.4.3.7.3.3.1.7 0 1 .1.5 0 .9-.1 1.3-.2s.8-.2 1.1-.6c.2-.2.4-.3.6-.5.2-.2.2 0 .2.1v.7c0 .8-.1 1.5-.1 2.3 0 .2-.1.2-.2.2v-.2c0-.1-.1-.1-.1-.1-.4-.4-.8-.8-1.5-.8-.6 0-1 .3-1 .9 0 .4.3.8.6.8.1 0 .3-.1.3-.2s.1-.2 0-.3c-.1-.1-.2 0-.3 0-.2 0-.4-.2-.3-.3.1-.2.2-.4.5-.4s.7 0 1 .2c.7.4 1 1.1 1.3 1.8l.3 1.2.4-.4c-.1-.7-.3-1.3-.3-2.1s.3-1.3.8-1.8c.4-.3.8-.3 1.2-.1.3.1.5.4.5.8 0 .2 0 .4-.3.4-.1 0-.3 0-.3.2 0 .1 0 .3.1.3.2.1.3.2.5.1.3-.2.6-.4.6-.7 0-.4 0-.8-.4-1.1-.2-.2-.4-.2-.6-.4-.5-.4-1.2-.3-1.7.2-.2.2-.3.6-.6.8 0-.6.1-1.1.1-1.7 0-.6.1-1.2.4-1.8.3-.5.5-1.1.7-1.6.2-.3.4-.7.6-1 .3-.4.5-.8.9-1.2.4-.4.8-.9 1.2-1.3.6-.6 1.1-1.2 1.8-1.6.1-.1.2-.3.4 0 .3.6.8 1.1 1.3 1.6.5.4.9.8 1.5 1 .5.2 1 .3 1.5.2.3 0 .6-.1.8.2.1.2.3.3.6.4.3.1.7.2 1 .4.2.1.4 0 .4-.2 0-.4 0-.8-.2-1.1-.1-.3 0-.5.2-.6.2-.1.4-.3.6-.5.1-.1.2-.1.3-.1.6.1 1.2.1 1.8.4.2.1.3 0 .4-.1.1-.1 0-.1 0-.2-.4-.5-.7-1.1-1.1-1.6-.1-.2-.2-.4-.1-.5.1-.4.1-.9 0-1.3 0-.2 0-.3.2-.3.4-.1.8.2 1.3.2.3 0 .6.1.8.1.5.1.9.2 1.4.3.1 0 .4 0 .3.3 0 .2-.1.4 0 .6 0 .2-.2.4-.1.7 0 .1 0 .2-.1.3-.2.1-.2-.1-.2-.2-.1-.3-.3-.4-.5-.6-.5-.4-.9-.3-1.4-.1-.4.1-.4.6-.2.9.1.1.3.1.4.1.1-.1.1-.2 0-.3-.1-.1-.1-.3.1-.4.4-.2.8-.1 1.2.3.3.3.3.7.3 1.1v.1c.3-.3.7-.5 1.1-.8.1-.4.1-.8.2-1.2.1-.3.1-.4.4-.2.1.1.2.1.2.1.2.1.5.2.7.2.1-.1.3-.2.4-.3 0 0-.1 0-.1-.1-.1 0-.2-.1-.1-.1 0-.1.1-.1.2-.1.2 0 .3 0 .5.1.3-.2.5-.3.8-.5-.4 0-.9-.1-1.3-.1s-.9 0-1.3-.1-.5-.2-.4-.6c.1-.2.1-.4.1-.6.1-.8.1-1.5.6-2.1.3-.4.5-.8.9-1 .7-.3 1.4-.7 2.3-.6.2 0 .3.1.4.2.1.1.2.3.1.4 0 .1-.2.1-.3 0h-.1c-.7.1-1.3.3-1.8.8-.2.2-.5.4-.5.8 0 .2-.1.4-.4.5-.1 0-.1.1-.2.2-.1.4.2.8.4 1 .3.2.5.6 1 .5v.1c.2.3.4.6.7.7l.3-.3h-.2c-.1 0-.1-.1-.2-.2-.1-.4.2-.6.3-.9.1-.1.2-.2.4-.1.1.1.2.2.1.4v.3c.1-.1.2-.2.2-.3 0-.1 0-.2.2-.2 0 0 .1 0 .1.1.5-.5 1-1 1.6-1.4-.1 0-.2.1-.3.1 0 0-.1.2-.2.1s-.1-.1-.1-.2 0-.2.1-.2c.1-.1.1-.1 0-.2 0 0-.1-.1-.2 0s-.2.2-.4.2c-.1 0-.2 0-.3-.2.1-.1 0-.2.1-.3.3-.1.3-.4.4-.7 0 0 0-.2.2-.1.4.2.8.3 1.1.6.1.1.2.2.2.3.1-.1.2-.2.3-.2 0 0 0-.1-.1-.1-.3-.2-.5-.4-.8-.6-.4-.2-.8-.3-1.2-.4-.2-.1-.3-.2-.2-.3 0-.1.2-.1.3-.1.2.1.4.1.7.2.5.1.9.4 1.3.6.2.1.3.2.4.3.3-.2.5-.4.8-.6h-.5s-.2 0-.2-.1 0-.1.1-.2c.3-.3.5-.6.8-.9.4-.4.9-.2 1.3-.5.3 0 .4.1.3.3-.1.1-.1.2-.2.3.3-.2.5-.3.8-.5 0 0 0-.1.1-.1.1-.2 0-.3-.2-.3-.3 0-.6 0-.9.1-.4 0-.8.1-1.2.3-.5.2-.8.6-1.1 1-.2.2-.3.5-.6.3-.2-.1-.4-.2-.5-.2-.4-.2-.7-.3-1.1-.3-.7-.1-1.3-.1-2 0-.7 0-1.3.3-1.9.6-.1 0-.2.1-.2 0-.1-.1 0-.2 0-.2.1-.5 0-.9-.3-1.2-.3-.3-.5-.8-1.1-.9-.4-.1-.9-.1-1.2.2-.1.1-.1.2-.1.3 0 .1.1.2.2.2s.3 0 .3-.1c0-.3.3-.3.5-.3s.4-.1.5.1c.2.3.5.6.6.9.2.4 0 .8.1 1.3 0 .2-.1.4-.2.6-.4.4-.6.9-.7 1.5 0 .1-.1.2-.1.3-.3-.2-.2-.6-.6-.8-.1 0-.1-.3 0-.3.3-.2.3-.7.6-.9.2-.2.2-.6 0-.7-.6-.1-1.2-.4-1.9-.2-.1 0-.3 0-.5-.1-.3-.1-.4-.4-.7-.5-.3-.2-.6-.5-.7-.9-.1-.3-.2-.5-.3-.7-.1-.3 0-.3.2-.4.4-.1 1-.5 1.1-1 .1-.4.1-.7.1-1.1 0-.6-.1-1.1-.3-1.6-.1-.4-.2-.8-.2-1.3 0-.4.1-.8.3-1.2.2-.3 0-.5-.1-.6-.1-.2-.3-.1-.5.1s-.4.1-.5-.1c-.2-.3-.1-.3-.5-.2-.2.1-.2.2-.2.3-.1.3-.3.2-.4.1 0 0-.1 0-.1-.1-.1-.1-.3-.1-.4 0-.1 0-.1.3-.1.3.3.5 0 1-.1 1.5s-.4 1-.6 1.5c-.1.3-.3.5-.2.8.1.3-.1.7.1 1 .1.3.2.6.4.8.1.2.3.5.5.5.3 0 .4.3.6.3.1 0 .4.1.5.4.1.3.2.5.4.7 0 0 .2.2.1.3 0 .1-.1.1-.2 0-.4-.1-.8-.2-1.2-.2-.4 0-.7-.2-1.1-.2-.3 0-.5-.1-.7-.3-.1-.1-.2-.3-.3-.4-.2-.2-.1-.5-.1-.7.1-.4.2-.4.5-.1.1.1.2.1.3 0 .1-.1.1-.3.1-.4-.1-.2-.6-.2-.8-.2-.2 0-.2.2-.3.3-.3.2-.3.6-.1.9.1.2.3.4.5.6.1.1.1.1 0 .2 0 0-.1.1-.1 0-.6-.1-1.2.2-1.8.4-.8.3-1.5.3-2.3.3-.4 0-.2-.3-.2-.3.2-.2.3-.4.5-.6.4-.7 1.1-1 1.4-1.8.1-.3.3-.6.6-.8.1.1.2.2.2.3.3.4.8.5 1.2.2.1 0 .1-.1.2-.1.4-.2.6-.5.6-1 0-.2-.1-.4-.3-.4-.1 0-.2-.1-.3 0-.1.1-.1.3 0 .4.3.2.1.3 0 .5-.2.3-.6.3-.9.1-.3-.3-.2-.7 0-1.1.3-.4.5-.9.9-1.3.2-.2.4-.6.6-.9.5-.6.9-1.3 1.5-1.8.1-.1.3-.2.4-.4.3-.4.7-.8 1-1.1.5-.5 1.1-1 1.5-1.6.4-.5 1-.9 1.5-1.4.6-.5 1.1-1.1 1.7-1.5.1-.1.2-.2.3-.1.1.1 0 .2-.1.3-.4.3-.6.8-.9 1.1-.3.2-.4.6-.6.9-.2.3-.4.6-.5.9-.2.6-.4 1.2-.5 1.8-.1.6-.2 1.1-.1 1.7 0 .2.1.3.1.5 0 .4.1.8.1 1.3 0 .3.2.5.2.8.1.6.4 1 .6 1.5.2.3.3.6.3 1 0 .3-.2.5-.5.6-.2.1-.3-.1-.4-.2-.1-.1-.1-.1-.2-.1s-.2.2-.2.2c.1.2.2.5.5.5.2 0 .3.1.5 0 .3-.1.5-.3.6-.6.1-.2.5-.2.5 0 .2.5.7.8 1.1 1.1.4.3.8.3 1.2.5.2.1.5.2.8.2.2 0 .5.1.8.1.3.1.6.2.8.1.4-.1.7 0 1 0h.2c.3 0 .6-.2 1-.2s.7-.2 1.1-.3l.9-.6c.5-.4.9-.9 1.1-1.5.1-.3.4-.5.4-.9.4-.2.4-.7.6-1 .2-.3.3-.7.4-1.1.1-.3.3-.5.4-.9.2-.9.4-1.8.8-2.6.3-.7.5-1.5.8-2.2 0-.1 0-.3.2-.3.1 0 .2.1.3.2.5.5.7 1.2.9 1.8.1.2.1.4.1.5 0 .1 0 .1-.1.1-.3 0-.5-.1-.8-.1-.5.1-.9.4-1.1.9-.4.7-.3 1.6.4 2 .1.1.2.2.4.1s.5-.3.5-.6c0-.1-.1-.2-.1-.3-.2-.1-.3 0-.5.1-.1.1 0 .2.1.2s.1.1 0 .1c0 .1 0 .1-.1.1-.2 0-.4 0-.5-.2-.2-.3-.1-1.3.2-1.7.4-.4 1.4-.5 1.7 0 .2.4.4.8.5 1.2.1.4.1.7.5 1 .1.1.1.2.1.3-.1.1-.2 0-.3 0-.3-.1-.7-.1-1 0-.4.1-.8.3-1.1.5-.5.2-.9.6-1 1.1-.1.4-.2.5-.7.6-.2 0-.4.1-.6.2-.9.3-1.3 1-1.6 1.8-.1.2-.1.4.2.5.6.1 1.2-.1 1.7-.4.3-.2.6-.5.8-.8.1-.1.1 0 .1 0 .1 0 0 .1.1.1.1.2-.1.4-.1.6 0 .2-.1.3-.3.3-.2 0-.3.1-.5.3-.2.3-.3.6-.3.9.1-.1.2-.1.3-.2 0-.1.1-.2.1-.3.1-.3.6-.4.9-.2 0 0 .1 0 .1.1.1 0 .2-.1.3-.1h-.2c.1-.2-.3-.2-.2-.3.1-.2 0-.3.1-.5 0-.2.1-.2.2-.1.2.1.3.3.5.4.1.1.3.1.4.2.2-.1.3-.1.5-.2l-.1-.1-.1-.1c-.6-.1-1.1-.5-1.3-1 0 0-.1-.2 0-.2h.2c.2.3.6.4.9.6.1.1.2 0 .3-.1.1-.1 0-.2-.2-.3-.2-.1-.4-.3-.6-.3-.1 0-.1-.2-.2-.3.1 0 .1-.1.2-.1.5.1 1.2.9 1.2 1.5v.2c.1 0 .2-.1.3-.1 0-.5-.3-1-.6-1.4-.2-.2-.5-.3-.8-.4-.2-.1-.5-.1-.7 0-.3 0-.3-.1-.3-.3 0-.4.3-.6.5-.8.2-.3.6-.4 1-.5.1 0 .2-.1.3-.1h.8c.3 0 .6 0 .9.1.3 0 .3.3.5.3.3.1.6.4 1 .4.3 0 .5.1.8.2.1 0 .2.1.1.3-.1.1-.1.3-.1.5-.3-.1-.3.3-.4.6zm-6.1-.4c0 .3-.2.5-.5.7-.4.3-.9.6-1.5.6-.2.1-.2-.1-.1-.3.1-.3.3-.6.5-.8.4-.3.8-.5 1.2-.5.3-.1.4.1.4.3zm-17.4 1.2c-.2 0-.3 0-.4-.1-.4-.3-.7-.7-.8-1.1 0-.1-.2-.1-.1-.3.1-.6.1-1.2.4-1.7.1-.4.3-.7.4-1.1.1-.5.4-1 .1-1.6 0 0 0-.2.1-.1.1 0 .2 0 .3.1.3.1.3.1.4-.1.2-.2.3-.2.4 0 .1.2.2.3.5.1.1-.1.2-.2.4-.1.1.1 0 .3-.1.4-.1.1-.1.2-.1.3-.2.4 0 .9 0 1.4 0 .4.2.7.2 1 .1.4.1.9.2 1.3.1.5-.2 1.3-.6 1.4-.5.1-1-.1-1.3.2zm9 5.5c0-.1.1-.4.3-.4.2 0 .5-.2.7-.1.1.1.3.4.2.5-.2.1-.3.4-.6.3h-.2c-.2 0-.4-.1-.4-.3zm-1-.1c.1.1.3 0 .3.1.1.2-.2.2-.2.3 0 .1-.1 0-.2.1-.1 0-.1 0-.1.1s.1.1.1.1h.6c0 .2-.2.3-.2.4-.1.3-.5.4-.8.2-.3-.1-.5-.4-.6-.6-.2-.2.1-.7.4-.7.2 0 .5-.1.7 0zm1.6-1.5c.1.2-.1.4-.2.5-.2.2-.4.2-.7 0l-.1.1c0 .3 0 .5-.3.6-.2 0-.4 0-.6-.1-.1-.1-.4-.1-.3-.3.1-.2.2-.3.4-.4.5-.2.8-.5 1.4-.4.2-.1.4-.1.4 0zm-33.7 11.3c-.3.4-.8.4-1.1.3-.7-.1-1.3-.4-1.9-.7-.4-.2-.8-.5-1.2-.7-.1-.1-.2-.1-.2-.3.1-.2.2-.1.3-.1h.2c.2-.1.4-.1.6-.1.4 0 .7-.1 1.1-.3.3-.2.6-.3.9-.3.5 0 .8.3.8.6s.2.6.4.8c.2.3.4.5.1.8zm1.4-11.7c0 .1 0 .1 0 0 0 .1 0 .1 0 0h-.1.1zm.2.1s-.1 0 0 0c-.1 0-.1 0 0 0-.1 0-.1 0 0 0-.1 0 0 0 0 0zm4 .6c.2-.1.4-.2.6-.2.2 0 .4-.1.5 0 .2.1.3.1.5.1.1.1.2 0 .3 0 .5.2.9.3 1.4.4.1 0 .2 0 .2.1s-.1.1-.1.1c-.3.2-.7.5-1 .7-.3.3-.6.5-1 .7-.3.1-.5.3-.8.2-.5-.1-.6-.2-.4-.7 0-.1.1-.2-.1-.3-.1 0-.2 0-.3-.2-.3-.3-.2-.7.2-.9zm5.6-1.5c0-.3.3-.6.4-.5.2.2.3 0 .5-.1.1-.1.3-.3.4 0h.1c.2-.1.5-.1.6-.4 0-.1.1-.1.1-.1.1 0 .1.1.1.2 0 .3 0 .7-.1 1-.2.7-.8 1.1-1.3 1.1h-.4c-.2-.1-.4-.1-.3-.4 0-.3-.1-.6-.1-.8zm-5-4.5c.3-.3.5-.6.8-.8.3-.2.7-.4 1.1-.4.2 0 .5 0 .6-.2.1-.1.1 0 .2 0s.3.1.3 0c.2-.3.5 0 .7-.2 0 .1 0 .1.1 0 0 0 .2.2.1.2-.4.1-.5.5-.8.7-.3.2-.5.6-.8.9-.4.4-.9.5-1.4.6-.4 0-.7-.1-1.1-.4.1-.1.1-.3.2-.4zm2.7-10c-.2.4-.5.2-.8.2-.3.1-.6-.1-.9-.1-.2-.1-.4 0-.6-.1-.3-.1-.7-.1-1-.2-.1 0-.1.1-.2-.1 0-.2.1-.2.1-.2.2 0 .4-.1.5-.2.3-.2.7-.4 1.1-.4.4-.1.9-.3 1.4-.2.3.1.5.3.4.6v.7zm2.1 1.4c.4-.2.7-.1.9.3.3.4.4.9.3 1.4v.2c-.1.3 0 .7-.1 1 0 .4-.1.8-.2 1.2 0 .2-.1.4-.3.5v-.2c0-.1-.1-.1-.1-.2-.2-.6-.6-1.2-1-1.8-.2-.3-.4-.7-.5-1.1-.1-.4-.1-.7.1-.9.2-.2.6-.2.9-.4zm8.4.7c.1 0 .2-.1.3 0 .1.1.3.1.5.2-.1-.2-.1-.3-.2-.4-.4-.1 0-.2 0-.3.3-.1.6 0 .8.1.3.2.3.6.2.9-.1.2-.2.4-.5.5-.2.1-.3-.1-.4-.1-.3-.1-.4-.5-.6-.7-.1.1-.2-.1-.1-.2zm.3-2.2c.5-.1 1 .3 1 .8 0 .1.1.1 0 .2-.2.2-.6.2-.8.1.3-.1.2-.3.3-.5-.4 0-.4.4-.6.5-.1-.2-.2-.4-.2-.5-.2-.2 0-.5.3-.6zm-1.3 2.1c-.3-.1-.5-.3-.6-.6 0-.2-.1-.3-.2-.5-.2-.3 0-.5.1-.7.2-.2.4-.3.6-.1.1.1.2.2.2.3.3.2.3.5.4.8.1.1-.1.2-.1.2-.1.1-.1-.1-.1-.1-.2-.1-.2-.3-.4-.4-.1 0 0 .1 0 .1 0 .3.2.5.3.7 0 .1.1.2 0 .3h-.2zm5-1.8c-.1.1 0 0 0 0 .2-.4.5-.5.8-.5.3-.1.6 0 1 0 .1 0 .5-.1.4.2 0 .1 0 .3-.1.4-.1.2-.3.3-.4.5-.2.5-.5.9-.9 1.3h-.1c-.3 0-.4-.2-.3-.6.1-.3.1-.5-.2-.7-.3-.1-.2-.3-.2-.6zm-5.7 7.3c.4.2.6.7.4 1.1-.3.5-.5 1-.9 1.4v.7c0 .1-.1.3-.2.3-.2.1-.2-.1-.2-.2-.2-.2-.3-.4-.6-.1-.1.1-.2.1-.2.1-.1 0-.2.2-.3 0-.1-.1 0-.1.1-.2 0-.2 0-.3-.1-.4-.1-.2-.1 0-.2 0s-.2 0-.3-.1c0-.1 0-.2.1-.3.2-.3.3-.7.4-1.1.1-.3.1-.6.3-.9.2-.4.5-.6 1-.7.2 0 .4.3.7.4zm10.4 8.2c-.3.5-.7.9-1.3 1-.4.1-.8-.1-1.1.1-.1 0-.3.1-.4-.1 0-.2.2-.2.3-.3.5-.3 1.1-.4 1.6-.7.1-.1.2 0 .2-.2s-.2-.1-.3-.1c-.3.2-.7.2-1 .3-.4.2-.8.4-1.1.7-.1.1-.2.2 0 .2 0 0 .1 0 .1.1l-.1.1c-.2 0-.4.2-.6.3 0 0-.1.1-.1 0s-.1 0-.1-.1c.1-.2.2-.3.3-.5.2-.6.8-.8 1.2-1.1.4-.2.9-.4 1.4-.5.4-.1.9-.1 1.3 0 .2 0 .2.1.1.2-.2.2-.3.4-.4.6zm-9.8 2.8c.1.2.3.3.4.3.6 0 1.1.2 1.7.2-.2.1-.3.2-.5.2-.6.1-1.2.1-1.8.4-.4.2-.4.2-.5-.3 0-.1 0-.2.1-.3.3-.5.4-.9.8-1.3s.7-.7 1.2-.9c.3-.1.7-.1 1 0 .1 0 .1.1.1.1s0 .1-.1.1c-.4.1-.8.3-1.1.5-.3.2-.6.5-1 .7-.2.1-.4.2-.3.3zm3.1-1.1c.1.1.1.1.1.2s-.1.1-.2.1c-.3.1-.6.2-1 .2-.1 0-.2.1-.3.2-.1 0 0 .1 0 .1s0 .1.1 0c.5-.2 1.1-.1 1.6-.5.1-.1.3-.1.4.1.1.1.1.2 0 .2-.1.1-.2.3-.4.3-.3.1-.7.2-1 .2-.5 0-1-.2-1.6-.2.3-.4.7-.6 1.1-.9.4-.1.8-.1 1.2 0zm-.5-.7c0-.3.2 0 .3 0 .4-.1.8.1 1.1.3-.1.1-.2.1-.3.2-.3.2-.5-.1-.8-.1 0-.1-.3-.1-.3-.4zm2.1.8c.4.3.6.7.8 1 .1.2.1.3-.1.3-.6.2-1.2 0-1.9.2-.1 0-.1 0-.1-.1s.1-.1.1-.2c.8-.2.9-.4.6-1.1 0-.1 0-.1-.1-.2v-.1c.3.2.5.1.7.2zm.9 1.9c.4 0 .5.2.5.5v.8c0 .3-.1.3-.3.2-.3-.2-.7-.4-1-.4-.3-.1-.5-.1-.8-.1-.3 0-.6.1-.9.3-.1.1-.3.2-.3.3.1.3-.2.3-.3.4-.1.1-.2.1-.3.2-.3.2-.7.3-1.1.2-.5-.1-.9-.4-1.2-.9-.2-.4-.2-.4.2-.6.4-.2.8-.3 1.2-.4.3 0 .6-.2.9-.2.5-.1 1-.1 1.5-.1.6-.1 1.3-.1 1.9-.2zm.4-1c0-.2 0-.3.1-.4.1-.3.4-.7.8-.7.4-.1.9 0 1.3 0 .5 0 .9 0 1.3-.3.2-.1.4-.2.5.1.2.5.5.9.5 1.5 0 .1 0 .3.1.4.2.3-.1.6-.4.5-.4-.1-.8-.1-1.2-.2-.7-.2-1.3-.4-2.1-.4-.1 0-.2-.1-.4 0-.4 0-.4-.2-.5-.5zm-1.1 4.1c-.4-.1-.7-.3-1-.5-.1-.1-.3-.1-.4-.3 0-.2-.2-.3-.3-.4-.1-.1-.1-.2 0-.3.3-.3.7-.3 1.1-.4.8 0 1.4.3 1.8.9.3.4.5.8.8 1.2-.5 0-.8-.1-1.2-.2-.2.1-.5.1-.8 0zm-.9.9c-.2.1 0-.1-.1-.2-.4-.3-.9-.6-1.4-.9-.1-.1-.3-.1-.3-.3 0-.1.2-.1.3-.2.1 0 .1-.1.2-.1.1-.1.3-.1.4-.1.1.2.3.3.5.4.2.2.4.6.8.6 0 0 .4.2.2.4-.2.3-.4.4-.6.4zm-2.3-.6c0-.1-.1-.2 0-.3.1-.1.2-.1.3-.1.4.1.8.3 1.1.6.5.4.9.9.8 1.6 0 .5 0 .5-.4.4-.1 0-.2-.1-.3-.2-.7-.1-.9-.7-1.3-1.2 0-.1-.1-.5-.2-.8zm-3.7-1.7c.3-.2.6-.3.9-.5h.2c.1.2.3.3.4.5.3.5.7.9 1.3.9.2 0 .5.2.5.4-.1.5.2.9.4 1.3.1.3.1.4-.2.4-.1 0-.2 0-.3-.1-.2-.1-.4 0-.5-.2 0 .1 0 .1-.1.1-.3-.2-.7-.2-1-.5-.3-.2-.6-.4-.7-.7-.2-.4-.4-.8-.7-1.1-.3-.1-.4-.3-.2-.5zm.1-4c.4-.8 1-1.4 1.6-2 .5-.4 1-.7 1.6-1 .4-.2.9-.3 1.4-.4.1 0 .4-.2.5 0 .1.1-.1.3-.2.4-.1.2-.2.4-.2.7.1.5.4.8 1 .8.2 0 .3.1.5-.2.1-.1 0-.2 0-.2-.2-.1-.3-.2-.5 0-.1.1-.2 0-.2-.1-.3-.2-.1-.5-.1-.7.1-.5.6-.8 1.1-.8.3 0 .6.1.9.1.4 0 .7.1 1 .2.4.1.7.4 1.2.5-.1.2.2.1.2.3 0 .2-.2.1-.2.2-.2-.1-.4.1-.5.3-.2.1-.4.1-.5.3-.4 0-.5.3-.7.5-.3.3-.5.7-.5 1.1 0 .1-.1.2-.1.3-.4-.6-1-.8-1.5-1.1-.5-.2-1.1-.2-1.7-.2-.6 0-1.2.2-1.8.5-.5.4-.9.8-1.2 1.3-.2.3-.4.7-.4 1.1.1.5 0 .9-.5 1.1-.6.3-.6.3-.6-.3-.2-.8-.1-1.8.4-2.7zm-14.4 1.5c0 .1 0 .2-.2.3-.1 0-.1-.1-.1-.2.1-.1 0-.4.2-.4.1 0 0 .2.1.3zm2.1 3.1c-.1.1.1.3-.2.2-.2 0-.4.1-.6.1-.8.4-1.1 1.3-.8 2.1.2.5.6.7 1 .6.2-.1.2-.3.3-.4 0 0-.1-.2-.2-.2-.2-.1-.2.1-.3.2-.1.2-.2.1-.3 0-.3-.4-.2-.8 0-1.3s.6-.6 1-.7c.1 0 .2.1.4.1.4.1.7.5 1.1.6.2.1.2.3 0 .4-.3.2-.4.5-.7.7-.2.2-.5.4-.6.7-.2.3-.2.6-.2 1 0 .3.1.7.3.9.3.3.6.7 1 1 .2.1.3.2.3.4 0 .4.2.6.4.9.5.7.7.7 1.4.3.1-.1.2-.1.3-.1.4 0 .6-.5.5-.8-.1-.3-.3-.5-.4-.8 0-.3-.3-.4-.5-.6-.2-.4-.2-.9-.2-1.3 0-.9-.4-1.5-1.3-1.6-.1 0-.2.1-.2-.1 0-.1.1-.1.1-.2.2-.2.5-.3.8-.4.4-.1 1.1-.1 1.5.2.4.3.8.6 1 1 .2.3.3.6.4 1 0 .1 0 .1-.1.2-.1 0-.1 0-.1-.1-.4-.3-.7-.3-1.1 0-.3.2-.2.6.1.7 0 0 .2.1.2 0s.1-.1 0-.2 0-.2.1-.2c.2-.1.4-.1.7 0 .3.2.4.4.4.8 0 .5-.3 1-.4 1.5-.1.3-.3.6-.6.8-.6.6-1.3.9-2.1 1.1-.4.1-.9 0-1.3 0s-.7-.3-1-.4c-.1 0-.3 0-.3-.2.1-.1.2-.1.4-.1.7-.1 1.1-.7.8-1.4-.2-.5-.5-.6-1-.5-.2.1-.2.3-.2.4 0 .2.2 0 .3 0l.1-.1c.1.1.2-.2.3 0 .1.2.3.4.2.6-.1.2-.3.5-.6.5-.4 0-.7.1-1.1-.1-.3-.1-.5-.4-.7-.6-.2-.2-.4-.4-.4-.6 0-.5-.2-1.1-.2-1.6s-.1-1 0-1.6c.1-.4.1-.8.2-1.2.1-.4.1-.9.1-1.3.1-.7.2-1.5.2-2.2 0-.2 0-.3.1-.4s.2 0 .3 0c.3 0 .5 0 .6.1s.1.3.2.6v.2c.2.6.3 1.1.6 1.4zm2.3 6.4c0 .2-.2.1-.2.1-.1-.2-.3-.3-.3-.5-.1-.3-.4-.5-.6-.7-.3-.4-.5-.8-.6-1.3.1-.1 0-.3.1-.4.1-.3.2-.7.6-.8.2 0 .4-.1.6-.1.2-.1.7.1.8.3.3.5.2 1 .2 1.5 0 .3 0 .5.2.7.2.2.1.5.4.6 0 0 .1.2-.1.2h-.3c-.5-.1-.7.1-.8.4zm.4.6c.2 0 .2.2.3.3 0 .1-.1.2-.2.2-.1-.1-.3 0-.3-.2-.1-.3.1-.3.2-.3zm.9-.4c0 .1.2 0 .2.1 0 .2-.1.3-.3.3-.1 0-.2-.1-.2-.2s.2-.1.3-.2zm9.4-14.1c.3.1.7 0 1.1 0l-.8.8c-.5.4-1 1-1.3 1.5-.2.3-.4.6-.5.9-.2.6-.4 1.1-.3 1.7.1.4-.1.8.1 1.2.1.3-.1.6-.5.8-.2.1-.4.3-.6.4-.2.2-.4.4-.7.6-.3.2-.5.4-.7.6-.4.4-.8.9-1.2 1.3-.5.6-.9 1.3-1.2 2-.1.2-.2.4-.5.6-.1-.2-.1-.5-.1-.7 0-.2-.1-.5-.1-.7 0-.2-.2-.4-.2-.5 0-.4-.2-.7-.3-1.1-.1-.5 0-1.1.4-1.5-.1.2.1.3.2.4.2.5.9.7 1.4.6.4-.1.7-.4 1-.6.6-.4.8-1 1.2-1.6.3-.5.4-1 .5-1.5.1-.4.2-.8.2-1.3 0-.1.1-.3-.1-.3-.2-.1-.3 0-.4.2-.2.3-.5.5-.8.7-.4.3-.8.5-1.3.5-.4 0-.8.2-1.2.3-1.1.3-1.1 1.2-.9 1.9.1.2 0 .3-.1.4-.4.3-.6.7-.5 1.2v.5c-.2.1-.3-.2-.5-.3-.4-.3-.9-.5-1.4-.4-.3 0-.7.1-1-.1-.7-.3-1-.7-.8-1.5.1-.5 1-1 1.6-.9.2.1.4.2.4.4.1.2 0 .4-.3.4 0 0-.2.2 0 .3.2.1.4.2.6.1.2-.1.4-.2.3-.5 0-.4-.3-.6-.5-.8-.3-.2-.6-.3-1-.4-.3-.1-.6.1-.9.3-.4.2-.8.5-.8 1.1 0 .1 0 .3-.1.4-.1.1-.1.1-.1 0-.4-.5-.5-1.1-.6-1.7 0-.2 0-.4.4-.4.5.1 1.1-.2 1.6 0 .1-.3.6.1.7-.3.5.1.9-.2 1.4-.2.6 0 1.1-.2 1.6-.5.1 0 .2-.2.3-.2.6 0 1-.4 1.5-.6.4-.1.8-.3 1.2-.5.6-.3 1.2-.7 1.8-1.1.4-.3.7-.6 1-.9.3-.3.6-.5.8-.8.4-.2.6-.2 1-.2zm-7.1 7.4s-.2 0-.2-.2v-.5c0-.2.1-.4.2-.5.4-.3.9-.5 1.4-.6.3 0 .6-.1.8-.2.4-.1.7-.3.9-.6.1-.1.2-.1.3-.1.1.1.1.2 0 .3 0 .3-.2.6-.2.9-.1.8-.5 1.5-1 2.1-.3.4-.8.7-1.4.7-.4 0-.7-.3-.6-.7.2-.3.1-.5-.2-.6zm19.3-14c-.2.1-.4 0-.3.3 0 .1-.2.2-.3.1-.2-.1-.4-.3-.5-.5-.2-.5-.2-1.1-.3-1.8 0-.1.1-.2.2-.3 0 0 .1 0 .1.1.1.2.2.2.4.4.3.3.7.6.9 1 .1.3.1.6-.2.7zm5.7 1.1c.1-.1.2-.3.4-.1.1.1.2 0 .4 0 0 0 .1 0 0-.1s-.1-.2-.3-.1c-.1 0-.1-.1-.1-.2s.1-.1.1-.1c.3.1.5 0 .7-.1.3-.1.5.1.5.4v.3c0 .3-.4.7-.7.6-.3-.2-.7-.3-1-.6zm-.3.6c.1-.1.1.1.1.1 0 .2.2.3.3.4.1-.1.1-.2.1-.3 0-.1-.2-.2 0-.3.1-.1.1.1.3.2l.1.1c.5.3.6.6.3 1-.1.3-.4.4-.7.3-.2-.1-.5-.2-.4-.6 0-.2 0-.5-.1-.8-.2.1-.1 0 0-.1zm-3 0c.3-.4.6-.7 1.2-.7 0 .2-.3.3-.3.6h.2c.1-.2.1-.4.4-.3l-.4.4c0 .3-.3.5-.4.7-.2.5-.3.5-.7.2-.1-.2-.1-.7 0-.9zm.4-1.9c.2.1.1.2 0 .3-.1.1 0 .2 0 .2.5.3.3.4-.1.5-.1.1-.3.3-.5.2-.2-.1-.2-.3-.2-.5.1-.2.2-.5.4-.7.2-.1.3-.1.4 0zm1.4-.2c.1.2-.2.3-.2.5h-.2l-.9-.9s0-.1-.1-.1 0-.1 0-.1c0-.3.2-.5.3-.7.1 0 .1-.1.2-.1h.3c.2 0 .2.1.2.2.2.4.2.8.4 1.2zm.2 2.2v.1c0 .1 0 .3.1.3s.2-.1.2-.3c0-.1 0-.2.1-.2s.2.1.2.2c-.1.2.1.5 0 .7 0 .2 0 .4-.1.6-.1.2-.6.2-.9 0-.4-.3-.4-.5-.3-.8.1-.3.3-.5.4-.8.1-.1.1-.2.2-.2.2.2.1.4.1.4zm.4-.8c-.2 0-.2-.1-.2-.2 0-.2.1-.1.2-.2.1 0 .2 0 .2.1 0 .2-.1.3-.2.3zm.8-2.8c0 .4-.2.8-.4 1.2h-.1c-.1-.1.1-.1 0-.1-.1-.1 0-.2-.2-.2-.1 0-.1.1-.1.2s0 .3-.1.4c-.2-.3-.3-.7-.3-1.1 0-.3.1-.6.4-.7.3-.1.7 0 .8.3zm.4.6c.1-.2.5-.3.7-.2.4.2.3.7.4.9 0 .2 0 .4-.3.4-.2 0-.4.1-.5.2-.2.1-.5.2-.7.2h-.2c-.1-.1.1-.1.1-.1.1-.1.2-.2.4-.3.1-.1.2-.2.1-.3-.3-.1-.2-.2-.1-.4 0-.1 0-.2.1-.4zm1.6-3.3c-.2-.1-.3-.3-.2-.6-.1-.3.1-.7.3-.9.4-.3.6-.7 1.1-.9.3-.1.4-.1.5.2v.2c.3.5.6 1 .7 1.6 0 .3-.1.5-.3.6-.2.2-.5.2-.6-.1 0-.1-.1-.1-.2-.2-.2-.1-.3-.3-.5-.1-.3.4-.5.4-.8.2zm-5.3 2c-.1.1-.1.3-.3.3-.2 0-.5 0-.7-.1-.4-.2-.8-.4-1.2-.7-.2-.2-.5-.4-.6-.6-.1-.1 0-.2.1-.2.2-.1.5 0 .7-.1.3-.1.7 0 1 0 .4 0 .7.2.6.4 0 .3 0 .5.3.6.1.1 0 .3.1.4zm.9-3.7c0 .3-.1.5-.2.7 0 .1-.1.3-.2.3-.2 0-.9-.3-1-.5-.2-.3-.5-.6-.5-1 0-.1-.2 0-.1-.1 0-.1.1-.1.2-.1.4 0 .7-.1 1.1-.1.4 0 .8.3.7.8zm11.6-1.4c.3.2.6.5.8.8.2.3.5.5.7.9.1.2.2.3 0 .5s-.4.3-.6.5c-.4.4-.5.9-.7 1.3-.2-.1-.3-.2-.3-.4 0-.3-.1-.6-.3-.7-.3-.3-.4-.7-.7-.9-.2-.2-.4-.5 0-.7-.1-.1.1-.2.1-.2.2-.3.3-.6.6-.9.2-.2.2-.3.4-.2zm2.6-1.9c0 .1-.1.1-.1.1-.1 0 0-.1.1-.1-.1 0-.1 0 0 0zm1.4 7.6c-.1-.6-.4-1.2-.6-1.9-.2-.5-.3-1-.7-1.5-.1-.2-.1-.2.1-.3.2 0 .3-.1.5 0 .4.1.5.2.4.6 0 .2 0 .3-.1.5.1.1 0 .2 0 .3.4.6.5 1.3 1.4 1.5.5.1 1 .1 1.4 0 .4-.1.8-.3 1.1-.5.3-.2.6-.3.9-.6.1-.1.2-.3.1-.4-.1-.2-.3-.4-.5-.5-.4-.3-.7-.7-.9-1.1-.3-.5-.6-1-1.2-1.3-.2-.1-.4-.3-.6-.3-.4 0-.9.1-1.3.4-.3.3-.4.6-.2.9 0 .1.1.2.1.2-.1.1-.2.1-.3 0-.2-.1-.5-.1-.7-.1-.2 0-.4 0-.6.1-.4 0-.5-.4-.7-.6-.3-.5-.7-1-1.2-1.3-.3-.2-.3-.4 0-.6.4-.3.8-.4 1.3-.5.6-.1 1.1-.1 1.6.3l.3.3c.2.5.2.5-.4.8-.1.1-.2.2-.2.3 0 .1.2.2.3.2.3-.1.6-.2.7-.5.1-.3.1-.6 0-.8-.3-.4-.7-.8-1.3-1-.1 0-.1 0-.1-.1s.1-.1.1-.1h.2c.4.1.9 0 1.3 0 .7 0 1.3.2 1.9.6.6.3 1.1.8 1.6 1.2.5.4.8.9 1.1 1.3.4.6.6 1.3.6 2v1c-.1.3-.1.7-.2 1-.1.2-.2.5-.2.7-.1.3-.2.6-.4.8-.3.2-.5.5-.8.7-.4.2-.7.5-1.2.6-.1 0-.3 0-.3-.1-.1-.3-.4-.3-.6-.5-.3-.3-.6-1-.3-1.3.2-.3.4-.4.7-.5.3-.1.4.2.5.3.1.1.1.1.2.1 0 0 .1 0 .1-.1.1-.4-.2-.9-.6-.8-.3.1-.7.2-1 .4-.6.6-.5 1.2 0 1.8.2.2.4.4.6.5.1 0 .2.1.2.2 0 .2-.2.2-.3.2-.2-.1-.3 0-.5.1-.2 0-.4.2-.6.2-.2 0-.3 0-.3-.2v-.4c0-.7-.2-1.5-.4-2.2zm.3-4.1c-.1-.2-.1-.4-.1-.5 0-.4.3-.5.9-.6h.2s.1.1.2.1c.5 0 .7.4 1 .7.3.3.5.7.8 1 .3.3.5.6.9.9.2.1.2.3 0 .4-.7.5-1.4.8-2.2.9-.4 0-.8-.1-1.2-.3-.4-.3-.5-.7-.6-1-.1-.2-.1-.5.1-.7.1-.3.1-.6 0-.9zm-.4 6.5c0 .2 0 .5-.2.6-.2-.2-.4 0-.7-.1l-.9-.3c-.3-.2-.6-.3-.8-.7-.3-.6-.2-1.2 0-1.8.1-.4.7-.7 1.1-.6.1 0 .2 0 .2.2 0 .1.1.3-.1.2 0 .1-.2.1-.1.2s.2.2.3.1c.2-.1.3-.5.2-.7-.2-.3-.9-.6-1.2-.5-.5.1-.7.4-.9.8-.1.2 0 .5-.2.7-.1-.3-.1-.6-.2-.9-.1-.6.2-1.1.3-1.6.2-.5.6-1 1-1.3.1-.1.3-.2.5 0 .4.4.4 1 .7 1.5.2.3.3.8.4 1.1l.3 1.2c.2.7.4 1.3.3 1.9z"/><path fill="#AED03C" d="M342.8 118.5c-.1.2-.2.4-.2.6.3-.1.6-.2.9-.4.1-.3.2-.5.4-.8.2-.4.5-.7.8-1 .2-.3.5-.5.9-.5.5-.1.9 0 1.3.2.3.1.4.4.4.7 0 .3-.2.4-.4.4-.1 0-.1 0-.1.1.3-.1.6-.2.9-.2 0 0 0-.1.1-.1 0-.8-.3-1.1-1.1-1.4-.1 0-.2 0-.2-.1s.1-.1.1-.2c.2-.1.5-.2.7-.3.6-.1 1.2-.2 1.8-.2h.2c.2-.3.5-.6.7-.9-.1 0-.2.1-.3.1-.3.1-.6.3-.9.3-.5 0-1.1 0-1.6.2-.8.2-1.6.4-2.2 1-.1.1-.2 0-.2-.1 0-.4-.1-.7 0-1.1.1-.6.3-.9.7-1 .2-.1.4.1.5.3v.1c0 .1.1 0 .1.1.1.1.2.1.3 0 .1-.1.2-.3.1-.5-.2-.4-.8-.5-1.2-.4-.4.1-.6.5-.8.7l-.3-.3c-.3-.4-.6-.6-1-.8-.3-.2-.6-.1-.9-.3-.3-.1-.6 0-.9-.1-.4-.1-.8.1-1.1.2-.1.1-.3 0-.4.1-.3.2-.6.5-.9.8-.5.5-.6 1.1-.7 1.7 0 .2-.1.3-.2.3-.4.1-.6.4-.7.8-.1.2-.1.4-.1.6.1.5.4.9.8 1.2.4.3.9.7 1.3 1.1.2.2.2.7.7.8 0 0 .1 0 0 .1-.1.2.2.1.2.3.1 0 .3 0 .4-.1.1-.1.2-.2.2-.3.1-.2.3-.2.3-.1s.1.1.1.1c.1-.1.2-.1.3-.2.1-.1.1-.2.1-.3-.1-.5-.1-.5.4-.7.2 0 .3-.1.3-.3 0-.2-.1-.3-.3-.3-.5-.1-.6-.5-.8-.9-.3-.5-.2-1.2-.6-1.7-.3-.4-.3-.6-.8-.8-.4-.2-.7-.1-1.1 0-.1-.3.2-.5.3-.7.5-.7 1.2-1 2-1.1.4 0 .8 0 1.1.1.4.1.9.2 1.2.6.1.1.2.3.2.5-.1.1-.3 0-.4 0-.6-.2-1.1 0-1.6.5-.2.3-.3.6-.3.9 0 .3.2.6.4.8.1.1.2.2.4.2.3 0 .6-.1.7-.3.1-.2-.1-.4-.3-.4-.1 0-.1 0-.2.1-.3.1-.5 0-.5-.3 0-.4.6-1 1-1h.9c.3.2.5.6.5.9 0 .3-.1.7-.2 1-.4.5-.8 1.1-1.2 1.7zm-4.2-2.8c.1-.6.5-.8 1-.7.2.1.4.2.5.4.2.6.4 1.2.5 1.8.1.3.3.6.5.9.2.2.4.4-.1.4-.1 0-.1.1-.1.1-.2.2-.1.4 0 .8-.6-.6-.8-.1-1.1.4-.1-.1-.1-.2-.2-.3-.1-.2-.2-.4-.4-.6-.4-.4-.9-.5-1.3-.8-.3-.2-.6-.4-.6-.9 0-.3.1-.6.3-.9.1-.2.2-.4.5-.3.4.1.5-.1.5-.3zM316.8 122.6c-.3.1-.6.2-.8.2l-.2.5c.6 0 1.1-.1 1.7-.4.6-.3 1.1-.7 1.4-1.3 0-.1 0-.2.2-.2.1 0 .1.2.2.3.1.6.4 1.2.9 1.6l.6.6c.2.2.5.3.7.3.6.1 1.2.2 1.7-.3.3-.3.7-.1 1-.3.1-.1.2-.2.4-.2v.2c-.1.3-.2.7-.3 1.1-.1.3 0 .7 0 1 .1.6.4 1.2.9 1.7.2.2.4.4.3.6-.3.8-.3 1.5-.1 2.3.2.7.4 1.2.7 1.8.3.5.6 1 .7 1.5.2-.2.3-.4.5-.6v-.5c.1-.6.4-1 .5-1.6 0 0 .1-.3.2-.3s.2.1.3.3c0 .1.2.2.3.2.2 0 .3 0 .4.1.5-.4.9-.8 1.4-1.2 0 0 0-.1.1-.1 0-.1.1-.2.1-.2.1-.4-.2-.9-.6-1-.5-.2-.8 0-1 .5-.1.2-.1.4-.3.4-.3-.1-.5.2-.7.3-.2.1-.1-.1-.1-.1-.1-.4-.4-.8-.2-1.3 0-.1 0-.4-.2-.4-.1-.1-.3 0-.4.1-.4.4-.6.8-.8 1.3-.1.3 0 .6 0 .9 0 .2-.1.5 0 .7-.4-.9-.6-1.7-.3-2.7.2-.8.9-1.1 1.4-1.5.3-.2.7-.1 1.1-.1.4 0 .8 0 1.1.2.2.1.4.1.4.3 0 .2-.1.4-.4.4-.2 0-.3.2-.3.3 0 .1.1.3.3.3.5 0 .8-.3.8-.8 0-.1-.1-.3.2-.3.3 0 .5.2.6.4.1.2.3.4.4.6.1-.1.1-.2.2-.3v-.1c0-.1-.2-.3-.3-.4-.3-.2-.4-.6-.1-.7.8-.5.9-1 .6-1.8-.2-.5-.5-.9-1-1.1-.4-.1-.7.1-.7.5 0 .1.1.2.2.2.1.1.3-.1.3-.1 0-.2.2-.2.3-.2.2 0 .5.2.5.3.1.3.2.6 0 1-.1.4-.6.8-1 .9-.5.1-1-.2-1.6-.2-.5 0-1-.2-1.5.1-.1 0-.2 0-.3-.1 0-.1 0-.3.1-.3.4 0 .6-.4 1-.5.9-.3 1.6-1.3 1.7-2.2.1-.5-.1-1 .2-1.4.1-.1-.1-.3-.3-.3-.3 0-.5.2-.8.3-.4.2-.7.5-1.1.7-.1.1-.1.2-.2 0s0-.5-.1-.7c0-.9-.4-1.7-.9-2.3-.5-.6-1.1-1-1.9-1.3-.6-.2-1.2-.4-1.8-.5-.3-.1-.6 0-.9.1-.3.1-.5.1-.8.2-.6.2-1.1.5-1.4 1-.6.6-.9 1.4-1.4 2.1-.5.9-.9 1.2-1.8 1.5zm12.6 6.8c0-.3.1-.4.3-.3.3 0 .5.2.6.5 0 .2-.1.3-.3.3-.2 0-.6-.4-.6-.5zm-1.1.9c0-.3.4 0 .5-.2.1.2.4.1.5.4 0 .2-.2.4-.5.4-.2 0-.4-.2-.5-.6zM327 129c.1-.1.2-.1.2 0 .1.2.2.5.2.7.1.3.1.6 0 .9 0 .1-.2.1-.2.2-.1 0 0-.2-.1-.2-.1-.1 0-.2-.1-.3.1-.1 0-.2 0-.4 0-.1-.1-.1-.2-.1s-.1 0-.1.1c0 .4 0 .9.2 1.2.1.1 0 .3-.1.4h-.1c-.1-.2-.3-.4-.3-.6 0-.6.2-1.3.6-1.9zm.2-3.5c.1-.5.3-1.1.5-1.5.4-.6.9-1.1 1.5-1.4.2-.1.2 0 .3.1.2.4 0 .9-.1 1.2-.2.5-.6.8-1.1 1.1 0-.1 0-.2.1-.3.2-.4.5-.8.6-1.2 0-.1.1-.2 0-.3-.1-.1-.1.1-.2.1-.2.1-.1.2-.2.3-.3.4-.5.7-.7 1.1-.1.3 0 .8-.5.9-.1 0-.1.1-.2 0v-.1zm-1.9-2.2c0-.1.2-.3.4 0 .2.4.1.7.1 1.1 0 .4-.2.7-.2 1.1 0 .1 0 .2-.2.2-.1 0-.1-.1-.1-.2v-1.1c0-.1-.1-.2-.2-.2-.2 0-.1.1-.1.2v.8c.1.4 0 .8.4 1.1.2.1.1.4.1.6 0 .1-.1.1-.2 0-.2-.2-.3-.5-.4-.7-.3-1.1-.1-2 .4-2.9zm-1.9-2.9c0-.1 0-.1-.1-.2-.1 0-.1 0-.2.1l-.3.3c-.4-.5-.3-.9.3-1h.4c.4 0 .4.2.4.5 0 .1-.3.5-.5.5 0 0-.1-.1 0-.2zm.7.3c.2-.2.5-.2.7 0 .2.1.2.3.2.6 0 .2 0 .4-.2.4s-.5 0-.8-.1c-.2-.1-.1-.2 0-.2.1-.1.1-.1.1-.2-.1-.1-.1-.1-.2-.1 0 0-.1.1-.2-.1 0-.1 0-.2.1-.2.1.1.2 0 .3-.1zm-1.1 1.6c0-.1 0-.1.1-.2.1 0 .2.1.2.1 0 .1 0 .2.2.2.2-.1 0-.2 0-.3v-.2c.1-.1.1.1.2.1.2.1.3.2.4.4.2.2.2.5.1.7-.1.2-.4.1-.5.3-.3-.1-.6-.1-.7-.4v-.7zm-.3-1c0-.1.1-.2.1-.3.1.1.4 0 .3.2 0 .1-.1.3-.3.3-.1 0 0-.2-.1-.2zm-2.9-.5c.1-.7.5-1.3 1-1.8.4-.4.9-.5 1.4-.6.3-.1.7-.2 1.1-.1.2.1.5.1.7.2.5.1.9.3 1.3.5.3.1.5.4.8.6.3.2.5.5.7.8.2.4.3.8.4 1.3.2.8.1 1.5-.1 2.2l-.3.9c-.1.2-.1.5-.2.7-.1.4-.5.7-.6 1.1-.1-.4 0-.7.1-1.1.2-.7.3-1.4 0-2.1-.1-.2-.3-.5-.3-.7-.1-.2-.1-.3-.3-.3-.2 0-.3.2-.4.4-.1.2-.1.5-.5.5.1-.3 0-.5-.1-.7-.1-.3.1-.3.2-.3.4 0 .6-.3.7-.5.2-.4-.1-1.2-.7-1.4-.1 0-.3-.1-.3-.2-.1-.5-.4-.8-.9-1-.5-.2-.9-.1-1.2.3-.1.2-.3.2-.5.1s-.4 0-.6.1c-.5.3-.9 1-.5 1.6.1.1.1.3 0 .5-.2.2-.2.4-.1.6.1.3.3.5.4.7.1.3.4.4.5.4.3 0 .7.2.9-.3 0 0 .1-.1.1 0 .2.1.1.3.2.4.1.1-.1.1-.1.2-.3.2-.6.1-1 .1-.6 0-1-.5-1.4-.8-.3-.3-.4-.7-.5-1.2 0-.4.1-.8.1-1.1zm2.2-.1c.2 0 .1.3.2.4.1.1-.1.1-.1.1-.3 0-.5-.1-.8 0-.1.1-.2 0-.2-.1-.1-.2-.2-.4-.1-.6.1-.4.6-.7.9-.5.2.1.3.2.4.3.1.1.2.2.1.3-.1.2-.2 0-.3-.1 0 0-.1-.1-.1 0v.2zm.6 1.5c.1.3-.5.8-.8.8-.1.1-.2-.1-.3-.1 0-.3-.3-.4-.4-.6v-.1c0-.3.5-.6.8-.6.2 0 .4 0 .2.3 0 0-.1.1-.1.2 0 0 .1.1.2 0 .1.1.3-.1.4.1zM370.1 97.7c0-.3.3-.2.4-.1.3.1.5.4.8.7.3.3.5.7.7 1.1 0 0 0 .1.1.1-.1 0-.2.1-.4.1v-.1c-.1-.2-.2-.3-.3-.4-.2-.3-.4-.5-.6-.8-.1-.1-.2-.2-.2-.1s-.1.1-.1.3c.1.3.1.6 0 .9-.1.2.3.2 0 .3 0 .1 0 .1.1.2-.1 0-.3.1-.4.1 0-.1-.1-.3-.1-.4-.2-.6 0-1.2 0-1.9zM379.6 97.4c.2-.6.4-1.1.9-1.5.3-.2.6-.3.9-.4.3-.1.7.2.8.7.1.5.1.5.6.4.3 0 .6.1.8.2.4.3.9.6 1.2 1h-.5c-.2-.2-.4-.4-.7-.6-.2-.1-.8-.3-.9-.2-.2.1-.2.2 0 .3.3.1.4.3.4.6-.2 0-.3 0-.5.1v-.1c0-.2-.3-.6-.6-.6-.4 0-.4-.1-.3-.4 0-.2.1-.3.1-.5-.1-.2-.1-.4-.3-.5-.3-.1-.6 0-.8.2-.5.5-.7 1.1-1 1.8-.1.2-.3.5-.4.7-.3.1-.6.1-.9.2.7-.3 1-.8 1.2-1.4zM315.5 141.7c.7-.3 1.4-.5 2.2-.6.3 0 .6 0 .9-.2.1 0 .2 0 .3-.1.4-.1.8 0 1.1-.2.2-.1.5-.2.7-.2h.4c-.3.4-.6.8-.8 1.2-.2 0-.4-.1-.5-.1-.3-.1-.6.1-.9.1-.3 0-.7.1-1 0-.2 0-.3.1-.4.2-.1.1.1.2.1.2.3.2.4.4.4.8s-.5.9-.9.8c-.2 0-.5 0-.5-.2s.2-.3.5-.3c.2 0 .4-.1.4-.3 0-.2 0-.4-.1-.6-.3-.3-.6-.3-1-.3s-.6.3-.9.4c-.3.1-.6.5-.8.5-.3.1-.5.3-.8.5l-.4-.4c.3-.2.6-.5 1-.7l1-.5zM399 100.4c-.3 0-.4.2-.5.4-.1.1-.1.2-.2.1-.1 0-.2 0-.2-.2 0-.4-.1-.7-.2-1.1-.3.3-.2.7-.3 1-.3-.1-.6-.3-.8-.4l-.1-.1c-.2-.1-.4-.2-.7-.3v-.3c0-.1.2-.2.3-.1.3.1.5.2.7.5 0 .1 0 .2.1.2s.2-.1.2-.3c.1-.3.2-.8.5-1 .1 0 0-.1.1 0 .3.2.3.6.3.9v.5c.1.1.2 0 .3-.1.1-.2.3-.2.5-.3.1-.1.3 0 .4.1.1.1.1.2 0 .3-.3.4-.3.9-.2 1.3-.2-.1-.3-.2-.5-.3.2-.2.3-.5.3-.8zM404.2 105.3c.2.1.3.2.5.3-.3-.2-.5-.4-.8-.6-.1-.1-.2-.3-.1-.3.2-.1.3-.3.5-.5s.5-.4.8-.6c.3-.3.7-.6 1.1-.7.5-.2 1-.3 1.5-.4.7-.1 1.3 0 1.9 0 .3 0 .7.1 1 .2.5.1 1 .2 1.4.3.5.2 1.1.4 1.5.8.4.3.8.5 1.2.7.4.2.7.4 1 .6.2.2.5.4.7.6-.1-.3-.2-.6-.4-.9l-.9-.6c-.5-.3-.9-.6-1.4-.9-.3-.2-.6-.4-.9-.5-.3-.1-.6-.3-1-.4-.3 0-.6-.1-.9-.2-.6-.2-1.1-.3-1.7-.4-.6-.1-1.2-.2-1.9-.1-.4.1-.7.1-1.1.1-.8.1-1.6.2-2.4.4-.5.1-1 .3-1.4.5-.1.1-.3.1-.4-.1-.2-.5-.3-.9-.1-1.5.1-.3.3-.4.6-.3.1 0 .2 0 .3.1.1 0 .2 0 .2-.1-.1-.1.1-.2-.1-.3-.3-.2-.7-.3-1 0-.3.2-.5.4-.5.9-.1-.2-.1-.2-.2-.3-.2-.5-.3-1-.4-1.6-.1-.3-.1-.6-.1-.8.1-.4.1-.8.2-1.2.1-.5.1-1 .4-1.4.3-.4.5-1 .9-1.4.2-.2.3-.3.6-.1l1.2.9c.4.2.8.6 1.2.8.4.2.7.5 1.1.8.3.2.5.4.8.5.1.1.3.2.2.3-.4.3-.7.6-1.2.7-.4.1-.7-.1-.6-.5 0-.4.1-.7-.2-1.1-.2-.3-.4-.6-.7-.8-.4-.2-.6-.1-.7.3 0 .1 0 .2-.2.2-.3-.1-.5-.1-.8-.1-.2 0-.3 0-.4.2-.2.3-.2.6 0 .9.1.2.1.3 0 .4-.3.4-.4.6 0 1 .1.1.2.2.1.3 0 .2.1.4.2.5.5.4 1.3.4 1.8.1.3-.2.5-.5.7-.8.1-.1.1-.3.3-.2.3.1.6 0 .9-.1.2 0 .3 0 .2.2-.1.7.1 1.3.6 1.8.3.3.8.3 1.1.1.5-.4.6-.7.4-1.1-.1-.1-.1-.3-.3-.1-.2.1-.4.2-.3.5.1.2.1.3 0 .4-.1.1-.3.1-.4 0-.1-.1-.3-.2-.4-.3-.2-.2-.3-.4-.3-.7 0-.3-.1-.6.1-.9.1-.1.2-.3.2-.4.1-.3.3-.4.6-.2.6.4 1.3.9 1.9 1.3l1.8 1.2c.6.4 1.2 1 1.8 1.4.3.2.5.5.9.7.1 0 .3.2.4.3-.1-.3-.3-.5-.4-.8-.7-.6-1.4-1.1-2.2-1.7-.7-.5-1.4-.9-2-1.4-.7-.5-1.5-.9-2.2-1.4-.1-.1-.1-.2-.1-.2.1-.2.1-.5.2-.7.2-.5.1-.9 0-1.4-.1-.8-.5-1.4-1.1-2-.2-.2-.5-.2-.8-.3-.4-.2-.8-.4-1.1-.4-.6 0-1.3-.1-2 .2-.3.1-.6.3-.8.5-.1.1-.3.2-.4 0-.2-.2-.4-.2-.6-.4-.3-.3-.6-.5-.9-.8-.2-.2-.3-.4 0-.6.1-.1.1-.2.1-.3.2-.6.3-1.2.3-1.8v-.2c-.2-.1-.3-.2-.5-.2 0 .3 0 .5-.1.8-.1.3-.1.7-.1 1 0 .2-.1.4-.1.6-.1.1-.2.3-.4.1-.3-.3-.6-.7-.9-1.1-.1-.2-.3-.4-.5-.6-.2-.2-.4-.6-.6-.8-.3-.5-.6-.9-.9-1.4-.2-.1-.4-.1-.6-.2.3.5.6 1 .9 1.4.3.6.7 1.1 1.1 1.6.4.5.7 1 1.2 1.5 0 0 .1.1 0 .2l-.6.6c-.6.5-1.3.6-2.1.8-.8.2-1.6-.1-2.3-.4-.5-.2-.9-.6-1.3-.9-.3-.3-.7-.5-.9-.9-.2-.3-.5-.5-.9-.7-.3-.2-.6-.4-1-.4-.1 0-.2-.1-.3-.2 0-.1 0-.2.1-.3.2-.1.4-.4.6-.6.3-.3.2-.6.1-1-.2-.3-.5-.4-.8-.5-.2 0-.3.1-.3.3 0 .1-.1.3 0 .3.1.1.2 0 .4-.1.1-.1.2-.1.3.1.3.3.1.6-.1.8-.4.4-.8.9-1.5.8-.4-.1-.8 0-1.2 0-.3 0-.6 0-.8.2-.1-.3.2-.4.3-.5.5-.5 1-1 1.5-1.6.2-.2.4-.5.5-.8.1-.2.2-.5.4-.6.2-.2.3-.4.4-.6-.1 0-.3-.1-.4-.1-.2.4-.5.7-.8 1.1-.1.2-.2.3-.3.5-.3.3-.6.6-.8 1-.2.3-.5.5-.8.8v-.1c.1-.4.3-.8.3-1.3v-.6c0-.4.1-.8 0-1.2v-.5c-.2 0-.4-.1-.6-.1v.2c0 .1.1.3 0 .3s-.2 0-.3-.1c-.5-.3-1 0-1 .6 0 .2.1.4.3.4.2 0 .2-.2.2-.4v-.1c0-.1.1-.3.3-.2.3 0 .7.4.7.8.1.6-.1 1.1-.2 1.7-.1.7-.4 1.2-.9 1.7-.3.3-.6.7-.9 1-.3.2-.5.5-.9.7-.4.2-.7.6-1.1.8-.3.1-.5.5-.8.7-.9.7-1.8 1.3-2.8 1.9-.6.4-1.1.8-1.7 1.1-.8.4-1.5.9-2.2 1.3-.2.1-.3.3-.5.4-.2.2-.5.3-.7.5l-.5.5c.3 0 .6-.1.9-.1l.1-.1.9-.6c.4-.3.8-.6 1.2-.8.3-.2.6-.2.9-.5.4-.4.9-.7 1.3-1 .3-.2.6-.5 1-.6.1 0 .2 0 .2-.1.2-.4.7-.5 1-.8.3-.2.5-.3.7-.5.2-.2.5-.4.8-.5.2-.1.5-.2.8 0 .1.1.3.3.3.5s-.2.2-.3.2c-.1 0-.2 0-.2.2 0 .1 0 .2.1.3.1 0 .2.1.3 0 .3-.1.5-.3.5-.6s-.1-.6-.3-.7c-.4-.3-.4-.5 0-.8.3-.2.5-.5.8-.7.2-.1.4-.3.5-.5.1-.1.2-.3.4-.3v-.1c.3-.1.5-.3.8-.4.3-.1.5-.3.8-.3.3 0 .5-.1.8-.1h.7c.3 0 .5.2.8.2.5 0 .8.2 1 .6.1.3-.1.4-.2.6-.1.2-.3.1-.5 0s-.3 0-.4.1c-.1.1 0 .4.1.4.3 0 .5.2.8.2.2 0 .4-.1.4-.3.1-.3.3-.6.1-1V91c.1 0 .3-.1.4.1.1.2.2.2.4.3.4.3.7.6.9 1 .3.6.3 1.2.3 1.9 0 .6-.1 1.2-.2 1.7-.1.7-.5 1.3-1.2 1.4-.2 0-.4-.1-.5-.3-.1-.1 0-.2.1-.3v-.4c-.1-.1-.2 0-.2 0-.1 0-.3.3-.4-.2-.1-.4-.2-.5.1-.8.1-.2.4-.3.4-.5 0-.3-.2-.5-.5-.6-.3-.2-.4-.4-.3-.5.2-.2.2-.5.1-.7-.1-.3-.1-.3-.4-.2-.4.2-.8.2-1.2.2-.5 0-1-.2-1.5-.3-.7-.1-1.1.4-1.5.8-.3.4-.3.8-.3 1.3 0 .3.1.4-.2.5-.8.4-1.1 1-.9 1.9 0 .2.1.3.1.5h.5c-.2-.6-.3-1.3.2-1.9.2-.2.3-.3.5-.2.1 0 .1.3.1.4 0 .6.3 1 .7 1.4.4.3.9.3 1.4.3.4 0 .7-.1 1-.4.1-.1.2-.3.3-.4.2-.2.4-.4.8-.3.1 0 .3-.1.4-.1 0 .7.4 1.1 1.4 1-.1.3-.4.5-.5.7 0 0-.1 0-.1.1.2 0 .4.1.6.1.2-.1.3-.3.4-.5.4-.6.9-1.2 1-2 .1-.4.2-.8.2-1.3 0-.6 0-1.2-.2-1.7 0-.1 0-.1.1-.2s.1.1.1.1c.3.1.5.4.8.6.8.5 1.6.7 2.6.7.4 0 .9 0 1.3.4.3.3.4.6.3.9-.1.4-.4.5-.6.7-.2.2-.4.2-.6-.1-.1-.2-.3-.2-.4 0-.1.1-.1.4.1.5.2.1.4.2.7.2.7-.1 1.4-.9 1.1-1.6-.1-.4-.4-.7-.7-.9-.1 0-.2-.1-.2-.3 0-.1.1-.1.2-.2.1 0 .2-.1.3-.1.4-.1.8-.2 1-.6.1-.2.3-.3.4-.6.1-.2.2 0 .3 0 .5.4 1 .9 1.6 1.3.2.2.1.5 0 .5-.2.1-.3.3-.4.4-.1.1-.1.3-.2.4-.6.7-.8 1.5-1 2.3v.2c.1.3 0 .5-.1.8-.1.1-.2.2-.3 0-.1-.3-.4-.3-.6-.5-.2-.2-.6-.2-.8-.4-.6-.3-1.2-.3-1.8-.3-.3 0-.5.2-.9.1s-.7-.2-1-.4c-.6-.4-.6-1.1-.2-1.7.2-.2.4-.2.6-.3.1 0 .2.2.2.3 0 .2.1.3.2.3s.3.1.4-.1c.1-.2.1-.3 0-.5-.2-.3-.7-.4-1-.3-.4.1-.6.3-.8.6-.4.6-.3 1.4.2 1.8.2.1.4.2.6.4.2.2.2.3-.1.4-.3.1-.6.3-.8.5l-.4.4c.1 0 .2.1.4.1.1-.1.2-.2.3-.2.6-.4 1.3-.7 2-.9.6-.2 1.2-.2 1.9 0 .3.1.7.2 1 .4l.9.6c.2.2.4.4.4.7 0 .3.1.5.1.7.2.4.2.9.4 1.3.1.3.3.6.5.8.1.1.2.4.1.5 1.7 1.1 2.6 1.9 3.3 2.6zm-13.9-10.1c-.1 0-.3.1-.3.3 0 .1.1.3.2.3h.1c.3.1.2.3.2.5 0 .1-.2.1-.3.1h-.2c-.3.2-.6.4-.8.6-.2.2-.4.3-.7.3-.5 0-.9.1-1.3-.3-.3-.3-.7-.9-.5-1.2.2-.3 0-.5-.1-.6-.2-.3-.2-.6-.1-.9.2-.5.5-.9 1.1-1 .4-.1.7-.1 1.1 0 .5.1.9.1 1.3 0 .1 0 .3 0 .4-.2 0 .2 0 .3-.1.4-.2.3-.1.5.2.6.1 0 .3.1.4.3.2.2.1.4-.1.5-.2.1-.3.3-.5.3zm15.3 2.7c0 .1 0 .1-.1.1s-.1 0-.1-.1c-.2-.1-.3-.3-.5-.4-.1-.1-.2-.1-.2 0-.1 0-.1.1 0 .2.2.2.4.3.6.5.2.2.3.3.3.6 0 .1 0 .2-.1.4-.5.6-1 .9-1.8.6-.3-.1-.3-.2-.2-.4.1-.2.1-.4-.2-.4-.2 0-.3-.2-.3-.4 0-.1.1-.2.2-.3.2-.1.3-.2.2-.5-.1-.1-.1-.3-.2-.4-.1-.2 0-.3.2-.4.3-.1.5 0 .7.2.1.1.2.2.3.1.1-.1.1-.2.1-.4v-.1c0-.3.1-.4.3-.3.4.3.8 1.1.8 1.4zm-2.3-4c.3-.2.6-.4.9-.4.6-.1 1.2-.2 1.8-.1.8.2 1.6.5 2 1.3.2.4.4.8.4 1.3 0 .4-.1.8-.3 1.2 0 .1-.1.3-.3.2-.2-.1-.5-.2-.6-.4-.3-.3-.7-.5-1-.7-.5-.4-1-.7-1.5-1-.5-.3-.9-.7-1.4-1-.1-.1-.1-.3 0-.4zm.3 10.3c-.1.1-.3.1-.3.1-.2-.2-.4-.5-.7-.8-.1-.1 0-.1.1-.1.3-.2.6-.3 1-.4.3-.1.6-.1.8-.2.4-.1.7-.1 1.2-.2-.2.4-.6.4-.8.6-.5.3-.9.6-1.3 1zM332.5 124.8c-.2-.5-.5-1-.8-1.5-.1-.3-.4-.4-.5-.7-.3-.5-.7-.9-1-1.4-.2-.3-.5-.5-.8-.7-.4-.3-.7-.6-1.1-.9-.7-.5-1.4-1.1-2.3-1.4-.3-.1-.7-.3-1-.5-.3-.2-.6-.1-1-.2-.1 0-.2 0-.2-.1-.4-.2-.8-.2-1.2-.3-.4-.1-.8-.1-1.2-.2-.3 0-.7-.1-1-.1-.4-.1-.8.1-1.2 0-.2 0-.5 0-.7-.1h-.1l.2-.5h.3c.8 0 1.6 0 2.4.1.3 0 .5.2.8.2.5 0 .9.1 1.3.2.1 0 .3 0 .4.1.4.3.9.2 1.3.4s.9.4 1.3.5c.5.2.9.5 1.4.7.3.2.6.5.9.7h.1s-.1.1 0 .1c.3.1.5.4.8.6.4.2.6.5.9.7.3.2.5.6.7.9.3.3.5.7.8 1 .5.6.8 1.2 1.2 1.9.2.4.3.8.5 1.2-.2.2-.3.4-.5.6-.3-.3-.5-.8-.7-1.3zM419.6 123.6c-.2-.2 0-.3.1-.4.1-.2.1-.4 0-.5-.1-.1-.3-.3-.6-.2-.3.1-.3.3-.4.5-.1.1-.1.3-.2.4-.2-.5-.5-.9-.7-1.4v-.2c0-.1-.1-.3-.2-.4-.1-.1-.1-.1-.2-.1-.1-.2-.3-.4-.4-.6h.2c.4.1.9.7 1 1.1 0 .2.1.4.2.6.3-.2.3-.5.4-.8.4-.9.7-1.8 1-2.7v-.1c.1.5.1 1 .1 1.6l-.6 1.5c-.1.2.1.3.1.3.3.1.5.3.6.5v.9c-.1.1-.3.1-.4 0zM413.2 113.2c.2.3.5.7.7 1v-.1c0-.8-.2-1.5-.6-2.2-.3-.5-.6-.9-1.1-1.1-.1-.1-.2-.1-.2-.2s.1-.2.3-.2c.2 0 .3-.1.5-.3.1-.1.1-.3 0-.3-.2-.1-.5-.3-.8-.3-.4 0-.3-.2-.3-.4 0-.3-.2-.7-.5-.8-.3-.1-.5-.1-.8.3-.1.1-.2.2-.3 0-.1-.3-.4-.4-.5-.6 0-.1-.2-.2-.4-.1-.1.1-.1.2 0 .3 0 .1 0 .3.1.4v.2c-.1 0-.1 0-.1-.1-.3-.4-.5-.7-.8-1-.3-.5-.4-1-.5-1.6-.1-.3.1-.8.3-1.1.3-.4.6-.8 1.1-.9.2-.1.3-.1.5 0-.1.1 0 .3-.2.4-.2.1-.4.3-.5.5-.2.5-.3.9-.2 1.4.2.6.8 1.2 1.5.8.2-.1.2 0 .3.1.1.1.2.3.4.5.3.2.5.2.9.3.5 0 .6 0 .6-.5 0-.2.1-.4.1-.6 0-.3.3-.5.2-.8-.1-.3-.2-.5-.4-.8l.1-.1c.5-.5.5-.6.1-1.2-.3-.3-.7-.6-1.2-.4-.3.1-.6.2-1 0s-.9-.2-1.3 0c-.5.3-1 .6-1.3 1.1-.1.2-.3.2-.5 0l-.6-.6c-.3-.2-.6-.1-.8-.1-.2.1-.4.3-.5.5-.2.3 0 .7.3.8.2.1.3 0 .4-.2.1-.1 0-.2-.1-.3-.2-.2-.2-.4.1-.5.3-.2.5 0 .7.2.4.3.6.7.6 1.2 0 .6.2 1.2.5 1.8 0 .1.1.2.1.3.6.4 1.1.9 1.6 1.3 0-.1.1-.2.2-.2s.2.2.2.2v.4l.6.6s.1 0 .1-.1c.4-.4.8-.4 1.3-.3.1 0 .2.2.1.3-.2 0-.2.2-.3.3-.2.1-.3.3-.5.5l.3.3c.2-.2.4-.2.6 0 .4.5.9 1 1 1.7-.2 0-.1.2-.1.3zm-3.3-8.7c.4-.1.8-.3 1.1-.5.3-.2.7-.1.9 0 .4.2.4.6 0 .9-.2.2-.2.4 0 .5.3.2.3.4.3.7 0 .1 0 .3-.1.4-.1.2-.2.4-.2.6 0 .4-.2.3-.4.2-.4-.2-.6-.5-.8-.8-.1-.3-.2-.3-.5-.1-.1.1-.1.1-.2.1-.2.2-.5.1-.6-.2-.1-.3-.1-.6-.2-.9.1-.3.4-.9.7-.9zm1.3 4.4c0 .1 0 .3-.3.3-.2 0-.4-.2-.4-.4 0-.1.1-.3.2-.3.2-.1.5.1.5.4z"/><path fill="#AED03C" d="M316.6 123.8c-.3.2-.7.2-1.1.3l-.2.7c.1 0 .3-.1.4-.1.1 0 .1-.2.1-.1.2.2.4 0 .6 0 .2 0 .5-.1.7-.1.4 0 .7-.1 1.1 0h.7c.6.2 1.2.4 1.9.6.2 0 .3.1.4.2.4.4.9.6 1.3 1.1.4.4.7.8 1 1.3.1.2.3.5.3.8.2.5.3.9.2 1.4 0 .1-.1.3-.1.4-.1.6-.1 1.2-.4 1.7 0 .1 0 .1-.1.1-.4 0-.6-.2-.8-.5-.4-.4-.4-.8.1-1.1.4-.2.7-.5.6-1 0-.2 0-.4-.1-.6-.1-.7-.5-1.3-.8-1.8-.4-.5-.9-1-1.4-1.4-.1-.1-.2-.3-.4-.2-.2.1-.1.3-.1.5 0 .5.2 1 .2 1.5v.4c0 .1 0 .2-.1.2-.1.1-.1-.1-.2-.1-.3-.2-.7-.4-1-.5-.2-.1-.4-.2-.5-.3-.1-.1-.1-.2-.3-.2-.2-.4-.6-.3-1-.5s-.8-.1-1.2 0c-.2.1-.5 0-.6.3-.1.1-.3.1-.4 0-.1-.1-.1-.1-.2-.1h-.5l-.2.5c.1-.1.3-.1.4-.1.3.1.9 0 .9.7l.1.1c0 .1.2 0 .2.1s-.2.1-.2.1h-.8c-.3-.1-.5.2-.7.2-.1 0-.2 0-.3-.1l-.4 1.2c.1.2.2.4.4.6.2.2.5.4.8.5.4.2.8.4 1.3.5.2 0 .4 0 .6.1.3.2.6.3.9.3.3 0 .6.1.9-.1.2-.2.6-.2.9-.2.8.2 1.2-.3 1.1-1.1 0-.1 0-.2.1-.3.1-.1.1-.2.2 0 .1.3.3.6.5.9.1.1.2.1.3.2.3.4.5.9.9 1.2-.2 0-.3 0-.4.1-.3.3-.7.5-1 .7-.2.2-.3.4-.6.6-.2.1-.4.2-.6.4-.4.3-.7.5-1.3.3-.4-.2-.5-.4-.5-.9.1-.6.5-.7.9-.9.2-.1.4-.1.4.2v.1c0 .1.2.1.2.2.1 0 .2-.1.2-.2 0-.2 0-.3-.1-.5-.2-.2-.4-.4-.8-.4-.3 0-.5.1-.8.2-.4.2-.6.5-.7.9 0 .1-.1.2-.3.1-.1-.2-.3-.3-.4-.4-.5-.3-1.2-.2-1.3.3-.1.2 0 .3.2.4.1.1.2.1.3 0 .2-.1.1-.2 0-.3-.1-.1 0-.2.2-.2.4 0 .7.2.9.5.3.4.6.8 1 1.1.5.4 1.2.4 1.7.1.1-.1.1.1.2 0 0 .1-.2.7-.3.7-.4.1-.9.3-1.3.4-.5.1-1 0-1.5.1-.2 0-.2 0-.3-.1-.2.3-.5.1-.7.1-.4-.1-.9-.1-1.3-.3-.4-.2-.7-.4-1.1-.5-.6-.2-1.1-.5-1.5-.9l-.3.9c.1.2.1.3.1.5 0 .3-.2.5-.4.5l-.2.5c.3 0 .6 0 .8-.2.3-.3.5-.7.3-1.1 0-.1-.1-.2.1-.2.1 0 .4 0 .4.1.1.2.3.2.4.4 0 0 0-.1.1 0 .3.5.7.8.9 1.3.4.6.7 1.2.9 1.9.1.4.1.9 0 1.4-.1.4-.2.8-.3 1.1-.2.6-.7 1.1-1.3 1.4-.2.1-.3.2-.5.3l.3.3c.5-.1.8-.4 1.2-.7.6-.4.9-1 1.1-1.7.1-.5.2-1 .2-1.5 0-.2.1-.2.3-.2.3.2.8.1 1-.2.4-.4.6-1 .2-1.5-.1-.2-.6-.4-.7-.3-.2.1-.2.3-.2.4 0 .2.2.3.3.2.2-.1.2.1.3.2.1.1 0 .2-.1.2-.2.5-.8.6-1.1.3-.1-.1-.1-.2-.1-.3-.1-.5-.4-.8-.6-1.2-.2-.3-.4-.6-.5-.9 0-.1-.2-.1 0-.2.1-.1.2-.1.3-.1.4.2.9.2 1.3.3.6.2 1.1 0 1.7.1.4 0 .8-.1 1.3-.1.4-.1.7-.2 1-.3.4-.1.3.3.3.4 0 .4-.1.7-.1 1.1 0 .1 0 .1-.1.2-.1 0-.1 0-.2-.1-.6-.7-1.2-.7-1.7.1-.3.4-.3.7-.5 1.1-.3.7-.5 1.4-1.3 1.7-.1 0-.3.1-.2.2 0 .1.1.2.3.3.2 0 .3 0 .5.1.5.1 1-.1 1.5 0 .2 0 .4-.1.6-.1.3-.1.6-.2.9-.4.6-.3.9-.9 1-1.6 0-.2-.1-.4-.3-.5-.2-.1-.3-.3-.2-.5.1-.2.1-.4.1-.7.1.1.2.1.3.3.1.2.3.3.5.4.4.4.9.4 1.2.9.1.2.1.4-.1.5-.1.1-.3.3-.5.1-.1-.1-.2 0-.3.1-.1 0 0 .2 0 .2.1.1.3.2.5.2.3-.3.5-.6.8-.9 0-.1-.1-.2-.1-.3-.1-.1-.3-.1-.2-.2.1-.2.3-.1.4-.1.2 0 .3 0 .5.1l.6-.6c-.1.1-.2.1-.3.2-.1 0-.2.1-.3 0-.1-.1 0-.2.1-.3 0-.1.1.1.2 0 .4-.4.7-.9.8-1.4 0-.1-.1-.2-.2-.2s-.1 0-.2.2c-.2.5-.4 1-.8 1.4-.1-.2-.1-.4-.1-.6.1-.4.2-.8.4-1.1.3-.3.7-.5 1-.9h.2c0 .1.1.1 0 .2-.1.5-.1.9-.2 1.4-.1.3-.2.7-.4.9l.3-.3.6-.9c0-.3.1-.6 0-.9 0-.2.1-.4.1-.7 0-.3-.2-.3-.3-.4-.2-.1-.3 0-.5.1-.3.3-.6.6-1 .8-.3.2-.5.5-.6.8-.2.5-.3 1-.2 1.5 0 .2 0 .3-.2.4-.3.1-.6.1-.9-.1-.6-.4-1.2-.8-1.2-1.7 0-.3.1-.6.5-.6.2 0 .3-.1.4-.1.4-.2.9-.3 1.2-.7l.7-.7c.3-.3.5-.6.7-.9.1-.2.2-.2.4-.2.4.1.8.3 1.2.5.3.2.5.5.6.7.1.2.2.4.3.5l.3-.3c-.1-.3-.3-.5-.4-.7-.4-.5-.8-.9-1.5-1-.5-.1-.6-.3-.4-.8.2-.5.2-1 .3-1.5 0-.6 0-1.2-.2-1.8-.3-.7-.6-1.4-1.2-1.9-.3-.3-.6-.5-.9-.8-.4-.3-.8-.5-1.2-.7-.4-.2-.8-.4-1.2-.5-.5-.2-.9-.3-1.4-.3h-1.7c-.4-.3-.5-.4-.6-.3zm3.6 14.3c0 .4-.2.7-.4 1-.2.2-.5.2-.7.4-.2.2-.4.3-.7.3-.3 0-.6 0-.9.1h-.3c-.1-.1 0-.2.1-.3.3-.5.6-1 .9-1.6.1-.3.2-.6.4-.8.2-.2.3-.2.6-.2.2 0 .3.1.3.3.1.3.1.6.6.5-.1.1.2.1.1.3zm-4.2-9.5c-.1.1-.2.3-.3.4-.1.1-.1.2 0 .3.1.1.2-.1.4 0-.1.3-.2.6-.2.9 0 .1-.1.2-.2.1-.2-.1-.4-.1-.5-.2-.1-.1-.3-.2-.5-.3-.3-.1-.5-.4-.4-.7 0-.3.3-.4.5-.5.4-.2.8-.3 1.3-.1.1 0 .1-.2.2 0-.2.1-.3 0-.3.1zm2.3.8s.1-.1.1 0c.2.2.3 0 .4-.1 0-.2-.3-.2-.4-.3 0-.1-.2 0-.1-.1 0-.1.1 0 .2 0 .5.2 1 .4 1.3.9.1.2.1.5-.1.5-.6.2-1.2-.1-1.4-.7v-.2zm-1.9.3c.1-.2.3-.5.5-.7v.2c0 .2.1.4.3.4.2 0 .2-.2.2-.3 0-.1 0-.1.1-.2 0 .1.1 0 .2.1.2.3.3.6.5.9.2.2 0 .4-.3.4-.4 0-.9 0-1.3-.2-.3-.1-.3-.3-.2-.6zm1.8-2.4c-.3.1-.6.3-.8.5 0-.1-.1-.2-.1-.4 0-.1 0-.2-.2-.2-.1 0-.2.1-.1.2 0 .1 0 .1-.1.1 0 .1-.1 0-.1 0-.3-.2-.5-.4-.7-.6-.1-.1-.1-.2 0-.2s.3-.1.4-.1c.5-.2 1 .1 1.5.1.2 0 .3.2.3.3.2.2 0 .2-.1.3zm2 1.7c-.2.2-.3.1-.5 0-.3-.2-.6-.4-1-.5-.2-.1-.4-.1-.6-.2.2-.1.4-.1.5-.2.1-.1.2-.1.1-.2 0-.1-.2-.1-.2-.1-.2.1-.3 0-.5.1.1-.2.4-.3.6-.3.6-.1 1.1.1 1.5.5.3.2.3.6.1.9zm1.6 1c-.2.1-.4.1-.5-.2-.2-.6-.1-1.3-.3-1.9.2-.6 0-1.2-.1-1.7 0-.1 0-.2.1-.2.2-.1.1.1.1.1.1 0 .1.1.2.2.4.2.6.6.7.9.3.6.7 1.3.6 2.1-.1.3-.1.5-.4.6-.1-.1-.2 0-.4.1zm1.4 2.3c-.1.2-.3.5-.5.7-.3.3-.7.6-1 .8-.4.2-.7.5-1.2.6 0-.2 0-.4.1-.6.2-.3.4-.5.7-.8.2-.2.4-.5.7-.6.3-.2.7-.2 1-.3.1 0 .3 0 .2.2zM315.9 144.7c.5-.6 1.3-.7 1.9-.4.1 0 .3 0 .4.2 0 .1.1-.1.1-.2.2-.7.5-1.2 1.2-1.5-.4.6-.7 1.3-1 1.9l-.3.3c-.2-.2-.4-.4-.6-.5-.2-.1-.3 0-.5.1-.3 0-.9.7-.8.9 0 .1 0 .1.1.2l-.6-.6c.1 0 .1-.1.2-.1-.1-.1-.2-.2-.1-.3zM415 113.8c-.1.1-.3.2-.4.4.3.1.4-.2.7-.2.3 0 .6 0 .8.2.1.1.4.2.5 0 .1-.1.2-.2.3-.2.2-.1.4-.3.6-.1.2.2.3.4.2.6-.1.3.1.4.3.4.3.1.5 0 .7.3.2.3 0 .5-.2.7-.3.2-.2.3 0 .5s.4.4.5.7c.2.4.2.6-.2.8-.1.1-.1.2-.1.3.1.5.1 1 .2 1.5 0 .1-.1.3-.1.5s-.2.1-.2.1c-.2-.2-.6-.3-.9-.5-.1-.1 0 0-.1 0-.4.3-.7.2-1-.2-.3-.5-.5-1-.6-1.5 0-.2-.1-.4-.4-.5-.1-.1-.1-.3-.2-.4.1.1.3.1.4.1.3 0 .5.3.5.7.1.5.2.9.5 1.3.1.2.2.2.4.1.3-.2.3-.1.5.2.1.1.3.2.5.3.1 0 .2-.1.2-.2-.1-.4-.1-.8-.2-1.2 0-.2 0-.3.2-.4.2-.1.2-.2.2-.5-.1-.4-.4-.7-.7-1-.2-.2-.1-.5.2-.5.1 0 .2-.1.2-.2s0-.2-.2-.2-.3-.1-.5-.1c-.1-.1-.3-.2-.2-.4 0-.1 0-.3-.1-.4-.2-.1-.3 0-.4.1-.3.5-.8.6-1.3.8-.3.1-.3.1-.1.4.2.2 0 .4-.1.6 0 .1-.1.2-.2.2-.1-.1-.2-.3-.2-.4.1-.2.1-.4-.1-.6-.2-.2-.1-.5.3-.5l.9-.3c-.2-.3-.5-.3-.7-.2-.3.2-.6.4-.8.7-.2-.3-.3-.5-.5-.8 0 0 0 .1.1.1.5-.7 1.1-1.2 1.9-1.6.6-.3 1.1-.3 1.7-.3.3 0 .8-.3 1-.7 0 .2.1.4.1.5-.5.3-1 .6-1.7.6-1-.5-1.7-.3-2.2.4zM360.9 87.8c-.3 0-.6-.1-.8-.3 0 0-.1 0-.1-.1h1.3s.2 0 .5-.1v.1c-.3.3-.6.4-.9.4zM350.4 87.1c-.5 0-1.1-.3-1.6-.5 1.6.2 3.1.4 4.5.6-.3 0-.6 0-.9.1-.7.1-1.3-.2-2-.2z"/><path fill="#AED03C" d="M310.9 136.3l-.2.4c.2.2.3.4.1.7 0 .1-.1.1-.1.2l-.5.4c0 .1 0 .2.1.2.2.2.3.5.2.9l-.3.6.4.4c.1-.1.1-.1.2-.1l.1.2c0 .1 0 .1.1.2.3.3.6.7 1 1.1.3.1.6.2.9.2.1 0 .3.1.4-.1.1-.2 0-.4-.1-.4-.3-.3-.3-.6-.3-.9-.1-.7-.4-1.2-1.1-1.4-.2 0-.3-.4-.2-.6.1-.1.1 0 .1 0 .2.3.4.5.7.6.3.1.6.4 1 .4.3 0 .6.1.8.2.1 0 .2.1.3 0 0-.1.1-.1 0-.3-.2-.5-.5-1-.8-1.4-.1-.1-.1-.1-.1-.2 0-.4-.3-.6-.6-.7-.3-.2-.6-.4-1-.4h-.1c-.5.3-.8 0-1-.2zm.7.8c.1.1.1.2.2.3.4.3.7.7 1 1 .1.1.1.3.3.1.1-.1.1-.2 0-.4-.4-.4-.7-.8-1.2-1.1 0-.1.1-.1.1-.1.5 0 .9.2 1.2.7.2.3.2.6.5.9.1.1.1.3.1.4h-.2c-.5 0-1-.2-1.4-.5-.2-.1-.3-.4-.4-.5-.3-.2-.2-.5-.2-.8zm-.7 1.9c.1-.2-.2-.5.1-.8 0 .3.1.6-.1.8zm.9.3c.2.1.5.1.4.4 0 .4.2.8.1 1.1v.1c.2 0 .1.2.1.2 0 .1-.1.1-.2.1-.2-.1-.4-.2-.7-.5-.3-.2-.2-.5-.3-.8-.1-.4.3-.8.6-.6zM325.3 101.9c-.1.6-.1 1.2-.5 1.6-.1.1-.3.1-.5.1-.1 0-.2.1-.3.2-.3.5-.5.6-1 .6l.1-.3h.1c.2 0 .3-.1.3-.3 0-.2-.1-.3-.1-.4l.2-.5c.1 0 .2 0 .3.1.1.1.2.1.2.3 0 .1.3.2.4 0 .1-.1.3-.3.2-.5-.1-.3 0-.6.1-.9.1-.3-.1-.4-.3-.5-.1-.1-.3-.1-.4-.1l.2-.5c.1 0 .2.1.3.1.4.2.7.5.7 1zM371.2 85.6h.3c-.1 0-.1 0-.2.1l-.1-.1zM418 110.9c-.1 0-.2.1-.3 0-.1-.1 0-.2.1-.3.1-.2.3-.2.5-.2 0 .2.1.3.1.5-.2-.1-.3-.1-.4 0zM396.5 87.9c0-.2-.1-.4-.2-.6l-.9-.3c-.1.2-.2.2-.3.1-.4-.2-.6-.1-.9.1-.2.2-.4.5-.7.7-.2.1-.3.4-.3.6.1.4.3.8.8 1 .5.3 1 .3 1.5.2.1 0 .3 0 .2.2-.1.4-.7.7-1.1.6-.3-.1-.4-.4-.7-.4-.3 0-.4-.3-.6-.4-.4-.5-.4-1.2-.4-1.8 0-.6.2-1 .4-1.5-.2 0-.3-.1-.5-.1 0 .1-.1.2-.1.2-.3.8-.4 1.5-.2 2.4.1.6.4 1.1.9 1.5.4.4.9.8 1.5.6h1c.8-.3 1.7-.2 1.9.8.1.2.1.2-.2.2-.2 0-.2.2-.3.3-.1.1.1.1 0 .2.3.1.6.1.8-.1.2-.1.2-.3.2-.5-.1-.6-.5-.8-.9-1.2-.1-.1-.3-.1-.5-.1-.2-.1-.5-.2-.8-.1-.2 0-.4-.1-.3-.3.1-.2.1-.4 0-.4-.3-.3-.1-.5.1-.8.5-.3.6-.7.6-1.1zm-.8.9c-.1.1-.3.2-.4.4 0 .1-.1.2-.2.3-.1.1-.2.1-.4 0-.3 0-.5-.1-.7-.2-.2-.1-.3-.4-.4-.6-.1-.2.1-.6.3-.5.5.1.4-.2.5-.5 0-.2.1-.4.3-.4.1 0 .3 0 .3.2l.1.1c.1.1.4.1.4-.1 0-.3.2-.3.3-.3.3 0 .2.2.2.4.2.5.1.9-.3 1.2zM403.2 90.4c.5.3 1 .6 1.4.9-.5 0-.9-.1-1.2-.5 0-.2-.1-.3-.2-.4zM417.4 108c0-.1-.1-.2-.1-.3h-.7s-.1 0-.1.1c-.2.2-.3.2-.4 0-.2-.6-.6-1-1.1-1.3-.2-.1-.4-.3-.6-.1-.2.2-.5.4-.6.8 0 .3-.1.6-.3.9-.3.3-.3.5-.2.9.1.3.2.6-.1.9-.2.2-.2.6 0 .8l.6.3c.5.2 1 .1 1.4-.3.1-.1.2-.3.4-.1.2.1.4.2.6.2.6.1 1.4-.4 1.6-.9.2-.6-.4-1.3-.9-1.5 0-.3.3-.4.5-.4zm-.7.7c.5.1.8.6.6.9-.1.2-.3.3-.5.4-.3.2-.6.2-.9 0-.4-.2-.8-.3-1.2.2-.2.3-.7.4-1.1.2-.1-.1-.2-.2-.4-.3.1-.2.4-.3.4-.6 0-.2 0-.5-.1-.7-.1-.4 0-.7.5-.7.3 0 .4-.2.2-.5-.2-.2-.1-.7.2-.9.2-.1.4 0 .6.1.1.1.3.2.4.4.1.3.5.5.3.9 0 .1 0 .3.2.3.3.2.6.2.8.3zM398.6 88.1c.2.1.5.2.7.3-.3.1-.5 0-.7-.3zM314.9 131.8c.2.6.4 1.2.7 1.8 0 .1.1.2.1.3.1.2.1.3 0 .5-.2.2-.3 0-.4-.1-.4-.3-.8-.5-1.2-.7-.4-.2-.8-.3-1.1-.6-.2-.2-.5-.4-.6-.6l.2-.5c.2.4.5.7.9.9.5.3 1 .5 1.5.8 0 0 .1.1.1 0 .1-.1 0-.2 0-.3-.3-.7-.5-1.3-.7-2.1-.1-.3-.2-.7-.6-.8-.2-.1-.4-.2-.6-.1l.2-.5c.1.1.2.1.3.2.7.4 1 1.1 1.2 1.8zM384.1 85.4c-.3.2-.4.2-.5-.2v-.1h.8c-.1 0-.1.1-.2.1 0 .1-.1.1-.1.2zM386.2 91.2zM328.6 119.3c.1 0 .1 0 0 0zM387.9 95.4h-.4c-.1 0-.2-.1-.2-.2s.1-.1.2-.1c.2 0 .3 0 .4-.1.2 0 .3 0 .4.2 0 .2-.2.2-.4.2z"/><path fill="#AED03C" d="M387.9 95.4h-.4.2c.1 0 .2.1.2 0zM387.8 94.5c-.2.1-.4.1-.5.1-.1.1-.2.1-.3 0-.1-.1 0-.1.1-.2.2-.2.4-.2.6-.3.1-.1.2 0 .2.1.1.3 0 .3-.1.3zM350.4 98c.1-.1-.1-.3.1-.2.1 0 .2.1.2.2v.7c0 .2 0 .4-.2.6-.1 0-.1.2-.2.1s-.1-.2 0-.2c.1-.4.2-.8.1-1.2zM349.3 99.4c-.1 0-.2 0-.2-.1-.2-.3-.3-.7-.3-1.1 0-.1.1-.2.2-.3.1 0 .1.1.1.2.1.3.1.7.2 1 0 .1.1.2 0 .3zM374.5 90.6c.1 0 .1 0 .2.1.3.2.6.5.9.5.1 0 .2.1.3.3v.2c-.1.1-.1 0-.2 0-.4-.1-.6-.4-1-.5-.1-.1-.3-.2-.3-.4s.1-.2.1-.2zM375 90.3c-.2.1-.4 0-.4-.2s.2-.1.3-.1c.2 0 .4 0 .4.3.1.1-.1-.1-.3 0zM339.2 116.7c.2.1.2.3.3.5 0 .1.1.2 0 .2s-.2 0-.2-.1c-.1-.2-.3-.4-.4-.6 0-.1-.2-.2-.2-.2 0-.1 0-.2.1-.2.1-.1.1 0 .2.1.2 0 0 .2.2.3zM339.3 116s.1-.1.2 0c.3.1.6.6.5 1.1-.1-.1-.3-.1-.3-.3 0-.2-.2-.4-.3-.6-.1-.1-.2-.1-.1-.2zM416.6 115.4c0 .2.2.2.2.4.1.2.1.4.2.6l.6 1.5c0 .2 0 .2-.2.2-.1 0-.1-.1-.2-.1-.1-.1-.1-.3-.2-.5-.3-.7-.5-1.3-.7-2 0-.1 0-.2.1-.2s.2.1.2.1zM337.1 110.2c0 .1-.1.1-.1.1-.2.2-.5.2-.7.1.2-.3.5-.2.7-.4 0 0 .1.1.1.2zM336.7 108.8c-.1.2-.2.4-.4.4-.1 0-.2 0-.2-.2.2 0 .2-.3.5-.3.1 0 .1.1.1.1zM382.4 87.3c0-.2.1-.4.2-.6 0-.1.1-.1.2-.1.1.1.2.1.1.2-.2.3-.3.5-.5.5zM383 88c-.1 0-.1-.1-.1-.1 0-.1.5-.4.5-.4.1 0 .1.1 0 .1 0 .3-.2.4-.4.4zM380.9 97.8c.1-.1.2-.2.3-.1.1 0 .2.1.1.2s-.2.2-.3.4c-.2 0-.4.1-.6.1.2-.1.4-.3.5-.6zM416.2 109.4c-.3 0-.6-.2-.8-.4-.1-.1-.4-.1-.4.1-.1.2-.3.4-.4.5 0 0 0 .2-.2.1-.1-.1 0-.2 0-.3.1-.3.4-.5.6-.7.1-.1.2-.2 0-.4-.1-.2-.3-.3-.2-.6 0-.1-.2-.3.1-.3.1 0 .2.2.2.2-.1.1 0 .1 0 .1 0 .4.3.5.5.8.2.3.4.5.7.5.1 0 .2.1.2.2-.1.3-.3.2-.3.2zM410.9 104.8c.4.4.5 1 .7 1.5 0 .1-.1.1-.2.2-.1-.2-.3-.4-.3-.7-.1-.3-.1-.6-.4-.8 0 0-.2-.1-.1-.2.1-.2.2-.1.3 0zM341.7 97c-.1.1-.1.2-.3.2-.1-.1 0-.2 0-.3.1-.3.2-.7.5-.9.1-.1.2-.1.3 0 .1.1.1.2 0 .3-.2.1-.2.5-.5.7zM342.2 97.4V97c.2-.3.3-.6.4-.9 0-.1.1-.1.2-.1s.1.1.1.2c-.3.4-.4.8-.7 1.2zM343.2 96.6c.1.2-.1.3-.2.4h.1c-.1.1-.2.2-.3.4-.1.1-.1-.2-.2-.1v-.1l.3-.6c0-.1.1-.2.2-.2.2-.1.1.1.1.2zM324.4 114.8c-.2-.1-.4 0-.6 0-.4 0-.7-.1-1-.2-.2 0-.2-.2-.2-.3 0-.1.1-.1.2 0 .3.2.7.1 1 .2.1 0 .3.1.5 0 .1-.1.2-.1.3 0 .1.1.1.2 0 .2l-.2.1zM330.6 114c.1.2 0 .3-.1.4-.1 0-.1 0-.1-.1v-.7c0-.1.1-.1.1-.1.1-.1.1.1.1.1.1.1-.1.3 0 .4zM331.4 112.8c.1.4.5.7.3 1.2 0-.4-.5-.7-.3-1.2zM331.7 105.1c.5-.1.8-.5 1.4-.4-.1.1-.1.3-.2.3-.3.1-.7.2-1 .3-.1.1-.4 0-.4-.1-.1 0 .1 0 .2-.1zM405.3 98.8c.1.1 0 .1 0 .2-.1.2-.3.4-.6.5-.2.1-.2 0-.3-.1 0 0 0-.1.1-.1.2-.2.5-.3.7-.5 0-.1.1-.1.1 0zM313.7 131.8s-.1.1-.1 0c-.1-.2-.3-.2-.4-.4-.1-.2-.2-.3-.3-.5l.1-.3c.2.3.5.7.7 1 .1.1.1.2 0 .2zM319 138.8c-.3.2-.5.4-.9.5-.1 0-.1-.1-.2 0 0-.1.1-.1.1-.1.3-.3.7-.4 1-.8l.3-.3c.1 0 .2.3.2.3-.2.2-.3.2-.5.4zM332.1 98.3c.6-.2 1-.8 1.5-1.1.1-.1.2 0 .3.1 0 .1 0 .2-.1.2-.2.2-.5.2-.7.4-.2.3-.5.4-.8.5-.1.1-.2 0-.3-.1 0 .1 0 .1.1 0zM321.7 127.5c.1 0 .1.1.2.2.1.3.2.6.2.8 0 .2.1.4-.1.6-.1 0-.1.2-.2 0-.1-.4-.2-.8-.3-1.3.1-.1 0-.3.2-.3zM317.8 118.5c0 .1 0 .1-.1.2-.1 0-.1.1-.2.1l.1-.3c.1-.1.2-.1.2 0zM329.1 92.1c.1 0 .1 0 0 0l.6.3s.1.1 0 .2c0 .1-.1.1-.2.1-.1-.1-.3-.2-.4-.3.1-.1-.1-.2 0-.3zM395.1 88.2c0-.1.1 0 .1-.1.2.1.3.3.2.5-.2 0-.3-.1-.3-.4zM394.8 88.9c-.2-.1-.2-.3 0-.5 0 .1.1.3.2.3.1.1.1.2 0 .2-.1.1-.1 0-.2 0zM333.1 88.1c0-.2-.3.1-.3-.2 0-.3.2-.2.3-.2.2-.1.3.1.3.2s-.2 0-.3.2zM322.5 108.1c0 .1 0 .1-.1.2 0-.1-.2-.1-.2-.2s0-.2.1-.2c.1.1.2.1.2.2zM381.1 92.7c-.1-.2.1-1.3.2-1.4.1-.1.1 0 .2 0s.1.1 0 .2c-.1.4-.1.9-.4 1.2zM356.1 93c-.2-.1-.5-.2-.7-.3-.1 0-.1-.2 0-.3.1-.1.1.1.1.1.3 0 .5.2.7.3.1 0 .2.1.2.1-.1.1-.2.1-.3.1zM353.9 95.1c-.2-.1-.1-.3-.2-.4 0-.1.1-.2.1-.1.2 0 .2.3.3.4.1 0-.1.2-.2.1zM310.1 138.8c.1.1.1.3 0 .4-.1.1-.1.2-.2.2l-.1-.1h-.1l.2-.5c.1-.1.2-.1.2 0zM366.6 98.9c-.5.2-.7.7-1.2.8.3-.5.8-.9 1.2-.8zM358.5 95.4c0-.1-.2 0-.1-.1s.1 0 .2 0 0 .1 0 .2v.1c-.1-.1-.1-.1-.1-.2zM358.6 95.7zM358.6 95.5s.1.1 0 0c.1.1 0 .1 0 0 0 .1 0 0 0 0zM363 103.2c-.1 0-.2 0-.2-.1s0-.2.1-.2c.4-.1.7-.4 1-.6.1-.1.2 0 .2 0s.1.1 0 .1c-.1.2-.6.7-.9.7 0 0-.1.1-.2.1zM358 104.4l.1-.1c.1 0 0 .1.1.2l-.1.1s0-.1-.1-.2zM413.9 114.3c0-.1 0-.1 0 0 0-.1 0 0 0 0zM373.5 99.7c0-.2.1-.3.1-.5.2 0 .5-.1.7-.1-.2.2-.4.3-.5.5-.1.1-.2.2-.3.1zM384.9 97.9zM380.1 98.7s0-.1.1-.1l-.1.1zM326.8 133.8v.1c-.1 0-.1 0-.1-.1v-.1l.2-.2c-.1.2-.1.3-.1.3zM346.7 118c-.1-.1-.1-.2-.1-.3v-.1c.3-.1.6-.2.9-.2 0 0 0-.1.1-.1 0 .6-.5.9-.9.7zM322.5 139.1c-.1.1-.4.2-.6.2.3-.3.5-.6.8-.9.1.2 0 .5-.2.7zM397.5 100.8c-.1 0-.3.1-.4 0-.1-.2-.2-.3-.3-.5 0 0 0-.1-.1-.1.3.1.6.3.8.4.1.1.1.2 0 .2zM341.2 119.9c-.1.1-.2.1-.2 0 .1-.1.2-.1.3-.2 0 .1-.1.1-.1.2zM410.2 110.2c-.1-.1-.2-.1-.2-.3 0-.2 0-.3-.1-.5l.6.6-.1.1c0 .1-.1.2-.2.1zM330.5 130c0-.1.1-.2.1-.2v.1l-.1.1zM323.6 137.8h-.2l.6-.6.3-.3.3-.3.6-.9v.4c-.1.7-.7 1.5-1.6 1.7zM319.6 145.8h-.1.1zM415.1 116.4c.1.2.2.3.2.5-.1 0-.2-.1-.2-.1-.1-.2 0-.3 0-.4zM322.3 144.9h-.6c-.1 0-.3 0-.4-.1.2 0 .4.1.4.1h.6zM361.5 104.8c-.1.2-.2.4-.5.3h-.1c.2-.2.4-.3.6-.5v.2zM363.1 103.4c.5-.4 1.1-.7 1.6-1-.1.1-.1.2-.2.3-.4.4-.9.6-1.4.7zM369.3 100.4h-.2c.1 0 .2-.1.3-.1.1 0 0 .1-.1.1zM353.7 112.1c0 .1 0 .1 0 0-.1.1 0 0 0 0z"/><path fill="#AED03C" d="M380.3 98.8c-.1 0-.2 0-.2-.1 0 0 0-.1.1-.1l.2-.2c.2 0 .4-.1.6-.1-.2.2-.4.4-.7.5z"/><path fill="#AED03C" d="M380.3 98.8c-.1 0-.2 0-.2-.1 0 .2.1.2.2.1z"/><g><path fill="none" d="M512 202.2c-.1-.2-.1-.4-.1-.4s0 .1.1.4zM339.7 136.5c-.2-.7-.3-1.3-.5-2 .1.6.3 1.3.5 2zM338.6 132c-.1-.6-.3-1.2-.4-1.8.1.6.2 1.2.4 1.8zM337.5 127.6c-.1-.5-.2-1-.3-1.4.1.4.2.9.3 1.4zM340.9 141c-.2-.7-.4-1.4-.6-2.2.2.7.4 1.4.6 2.2zM343.5 150.2c-.2-.8-.5-1.6-.7-2.3.3.7.5 1.5.7 2.3zM342.2 145.5c-.2-.8-.4-1.5-.7-2.3.2.8.4 1.6.7 2.3z"/><path fill="#2DC4F1" d="M332.8 223.4c-.8-.1-1.6-.1-2.3-.2.6 0 1.3.1 2.3.2zM335.7 223.6zM328.1 223c-.7 0-.9-.1 0 0zM335.4 223.6c-.4 0-1.1-.1-2-.1.6 0 1.2 0 2 .1z"/><path fill="none" d="M387.7 135.1c.6.8 1.2 1.5 1.8 2.3-.6-.8-1.2-1.6-1.8-2.3zM389.5 137.4c.6.8 1.2 1.6 1.8 2.5-.6-.9-1.2-1.7-1.8-2.5zM383.5 130.2c.6.6 1.2 1.3 1.8 2-.6-.7-1.2-1.4-1.8-2zM378.6 125.6c.7.6 1.4 1.2 2.1 1.9-.6-.7-1.3-1.3-2.1-1.9zM385.6 132.5c.6.7 1.3 1.5 1.9 2.2-.7-.7-1.3-1.5-1.9-2.2zM383.2 129.9l-2-2c.7.7 1.4 1.3 2 2z"/><path fill="#2DC4F1" d="M380.8 127.5c.2.1.3.3.5.4-.2-.1-.4-.3-.5-.4zM387.4 134.7l.3.3c-.1 0-.2-.2-.3-.3zM391.2 139.9c0 .1.1.1.1.2 0-.1 0-.2-.1-.2zM389.5 137.4zM385.3 132.2l.3.3-.3-.3zM383.5 130.2l-.3-.3.3.3z"/><path fill="#03AEAC" d="M286.1 49.2c.8.3 4.7 1.3 4.7 1.3 1.4.5 7.8.8 7.8.8 1.7-.3 4 .4 5.5 1.4 1.5 1 5.4 2.6 5.4 2.6 6.3-.1 25.5 9.5 25.5 9.5 9 2.6 11.7 10 11.7 10 .9 1.1 1.4 2.2 2.1 3.5l-8.4 2.2 8.4-2.2c.6 1.4 1.4 3.1 2.6 5.5l1.8 3.3c2.8 4.9 6.1 10.2 9.4 15.3 8.1 12.3 16.1 23.2 16.1 23.2.7.6 1.4 1.2 2.1 1.9.2.1.3.3.5.4.7.6 1.3 1.3 2 2l.3.3c.6.6 1.2 1.3 1.8 2l.3.3c.6.7 1.3 1.5 1.9 2.2l.3.3c.6.8 1.2 1.5 1.8 2.3.6.8 1.2 1.6 1.8 2.5 0 .1.1.1.1.2 1.2 1.7 2.2 3.4 3.3 5 5.4-2 14.2-4.4 23.7-3.3 3.5.4 7 1.2 10.5 2.8 0 0 34.5 15.1 43.8 23.2 0 0 5.1 4 11.6 10.7-3.2-.2-6.7 0-10.5.7 0 0-38.2-25.7-65.5-14.3l-1.8-1.1-2.2-1.4s-2.3-5.1-6.5-11.9c4.1 7.5 6.3 13.4 6.3 13.4l1.6 1 2.4 1.5c27.3-11.3 65.5 14.3 65.5 14.3.8-.2 1.7-.3 2.5-.4.2 0 .4 0 .5-.1.7-.1 1.5-.2 2.2-.2h.7c.5 0 1.1-.1 1.6-.1h2.3c.3 0 .6 0 1 .1.5 0 1 .1 1.5.1 20.2 2.4 26.1 21.7 26.1 21.7s0 .1.1.4c.4 1.6 1.8 8.7 1 16.7.9-6.9.1-13.4-.5-16.5 5.6 2.5 8.2-.5 8.2-.5s.3-6.3 3.1-8.5c2.8-2.3 6.4.4 6.4.4.6.4 2.4 1.9 2.4 1.9 1.6-.5.6 1.5 1.1 3 .6 1.8 1.9 3.3 1.9 3.3 1.2-2 3.6-4.1 3.6-4.1l3.9 2.5 3.8-6.6c8.1 4.9 13.8 9.9 17.8 14.7 2 2.5 3.6 4.9 4.8 7.3 6.6 12.7 2.6 22.7 2.6 22.7s-5.3 12.8-13.2 19.9c-2.9 2.6-6.2 4.4-9.7 4.4-8.2.2-20.4-10.9-26.8-13.3-6.3-2.4-13.6-4.6-20.8-6.4-5.3 4.8-12.4 10.2-20.7 14.5-1.1-.7-2.3-1.3-3.6-1.7-2.4-.8-5.1-1.2-7.4-2.2-5.3-2.2-8.7-7-12.4-11.1-1.2-1.3-2.4-2.5-4-3.4-1.6-.8-3.5-1.2-5.4-.7-1.9.5-3.5 2-4.9 3.4-1.4 1.5-2.5 3.3-4.2 4.3-.9.5-2.4 1.2-4.4 1.9 0 0-7.9 2.4-19.3 2.5-10.6-.5-24-4-39.3-13.9-13.4-8.7-27.7-12-40.1-12.9l20.7-13.2c3.3-2.5 6.5-4.9 9.6-7.3-9.2-16.6-16-33-20.9-48.1-.3-.8-.5-1.5-.7-2.3-.3-.8-.5-1.6-.8-2.4-.2-.8-.5-1.6-.7-2.3-.2-.8-.5-1.5-.7-2.3-.2-.8-.4-1.5-.7-2.3-.2-.8-.4-1.5-.6-2.3-.2-.7-.4-1.4-.6-2.2-.2-.8-.4-1.6-.6-2.3-.2-.7-.3-1.3-.5-2l-.6-2.4c-.1-.6-.3-1.2-.4-1.8l-.6-2.7c-.1-.5-.2-1-.3-1.4-.3-1.3-.6-2.7-.8-4-4.5-21.8-4.9-36.5-5-37.7l-37.8-23.8c-.2-.8.3-1.3.3-1.3l-8.3-4.9c-.5-.3.1-1 .1-1l-2.5-1.6c-.8-3.7 1.5-3.2 2.3-2.9z"/><path fill="#8C1C55" d="M330.4 223.2c-1.1-.1-1.9-.1-2.3-.2.5.1 1.4.1 2.3.2zM333.4 223.4h-.6.6zM335.6 223.6h-.3.3zM336.4 122.2c.3 1.3.5 2.6.8 4-.3-1.4-.6-2.7-.8-4zM339.2 134.5l-.6-2.4c.2.7.4 1.5.6 2.4z"/><g><path fill="none" d="M333.4 223.4c.4 0 .9.1 1.3.1-.3 0-.8-.1-1.3-.1zM328.1 223c-.7 0-.9-.1 0 0zM329.4 223.1c.3 0 .6 0 1 .1-.3 0-.7-.1-1-.1zM335.7 223.6z"/><path fill="#03AEAC" d="M5.2 234.9c-1.7-2.2-2.7-5.3-1.8-7.8.9-2.5 4.2-3.9 6.3-2.2 1 .8 1.6 2.2 2.2 3.4 2.8 5.1 8.3 8.5 13.7 8.5 4.8-.1 7.3-.6 11.4-3 7.5-4.5 20.1-10.1 29.5-16.8 9.2-24 30-129.7 36.2-168.6.2-1.1.5-2.2.9-3.2.6-3.6 7.9-10.5 7.9-10.5l16.9-9.7C216.3 89.6 257.9 147.5 271 168.2c13.9-1.6 23.3-5.2 35.5-8.3-14.3 21.6-23.5 39.3-29.5 53.5-.4.9-.7 1.8-1.1 2.7-7.8 19.4-9.4 32.1-9.4 39.3V257.3c0 .6.1 1.1.1 1.5 0 .2 0 .4.1.6v.1c0 .2 0 .3.1.4v.2c0 .1 0 .2.1.4v.2c0 .1 0 .2.1.3v.1c0 .1.1.3.1.4.2.9.4 1.4.4 1.4s.2.3.7.7c-4.8.4-9.7.4-14.6-.2-74.6 3.1-98.4-122.1-101.6-141.5 8-13.8 12.9-29.6 8.8-46.1 2.1 16.2-2.6 30.5-9.5 42.6-9.8 17.1-24.3 29.9-31.2 37.9-9.4 10.9-16.7 36-20.7 52.7-.6 2.5-1.2 4.8-1.7 6.9h.1l.3.1c-2.1 7.9-.1 16.5 1.3 24.8 1.5 8.3 2.5 12.7-1.7 19.5-.2.4-.1 6.4-17.6.8-4.8-1.5-9.8-2.5-14.6-2-5.1.5-9.8 2.8-14.7 4.1-10.2 2.6-21.6.4-30.7-5.9-1.8-1.3-3.8-3.4-3.1-5.5-1.3-.1-2.6-.2-3.7-.9s-2-2.1-1.6-3.4c-1.4-.2-3-.4-4.2-1.3-1.2-.9-2-2.7-1.3-4-1.3-.1-2.7-.2-3.9-.8S0 239.4 0 238c.1-2.4 2.9-3.3 5.2-3.1z"/><path fill="#8C1C55" d="M328.1 223c.2 0 .4 0 .7.1-.3-.1-.5-.1-.7-.1z"/><path fill="#AED03C" d="M267.2 261.7c.2.9.4 1.4.4 1.4s.2.3.7.7c1.2 1.1 3.6 3.4 5.9 4.1 0 0 47.9 13.5 150-2.4 0 0 6.4-1.6 19.3-.2l26.1 2.7c2.3.2 4.7.5 6.7 1.5s3.7 2.8 3.7 5c1.1.3 2.4-.1 3.2-1 .8-.9 1-2.1.6-3.1 1 .1 2 .3 3.1.4.3 0 .5.1.8 0 .6-.1 1-.8 1-1.3 0-.6-.3-1-.5-1.5.4-.1.8-.1 1.2-.2.8-1 .1-2.6-1.3-2.7 1.2.1 2.4-1.1 2.4-2.2s-1.3-1.9-2.5-1.6c.8-.9-.1-2.2-1.2-2.3-1.1-.1-2.3.5-3.3 1.1-.5-1.1-1.3-1.9-2.3-2.6-1.1-.7-2.3-1.3-3.6-1.7-2.4-.8-5.1-1.2-7.4-2.2-5.3-2.2-8.7-7-12.4-11.1-1.2-1.3-2.4-2.5-4-3.4-1.6-.8-3.5-1.2-5.4-.7-1.9.5-3.5 2-4.9 3.4-1.4 1.5-2.5 3.3-4.2 4.3-.9.5-2.4 1.2-4.4 1.9 0 0-7.9 2.4-19.3 2.5-10.6-.5-24-4-39.3-13.9-13.4-8.7-27.7-12-40.1-12.9h-.1.1l20.7-13.2c3.3-2.5 6.5-4.9 9.6-7.3-9.2-16.6-16-33-20.9-48.1-.3-.8-.5-1.5-.7-2.3-.3-.8-.5-1.6-.8-2.4-.2-.8-.5-1.6-.7-2.3-.2-.8-.5-1.5-.7-2.3-.2-.8-.4-1.5-.7-2.3-.2-.8-.4-1.5-.6-2.3-.2-.7-.4-1.4-.6-2.2-.2-.8-.4-1.6-.6-2.3-.2-.7-.3-1.3-.5-2l-.6-2.4c-.1-.6-.3-1.2-.4-1.8l-.6-2.7c-.1-.5-.2-1-.3-1.4-.3-1.3-.6-2.7-.8-4-8.4 8.4-17.5 19.3-27.1 33.7-.9 1.3-1.8 2.6-2.6 3.9-14.3 21.6-23.5 39.3-29.5 53.5-13.1 29.1-11.6 43.9-10.6 48.2zm66.2-38.3c.4 0 .9.1 1.3.1-.3 0-.8-.1-1.3-.1zm-4-.3c.3 0 .6 0 1 .1-.3 0-.7-.1-1-.1zm-1.3-.1c.2 0 .4 0 .7.1-.3-.1-.5-.1-.7-.1-.7 0-.9-.1 0 0z"/></g><path fill="#8C1C55" d="M338.1 130.3l-.6-2.7.6 2.7zM342.8 147.8c-.2-.8-.5-1.5-.7-2.3.3.8.5 1.6.7 2.3zM340.3 138.8c-.2-.8-.4-1.6-.6-2.3.2.7.4 1.5.6 2.3zM341.5 143.2c-.2-.8-.4-1.5-.6-2.3.2.8.4 1.6.6 2.3z"/></g><path d="M513.4 246.3c6-3.7 10 .2 12.9-7.9.6-1.6 3.5-2 5.1-2.5 2.1-.6 2-.4 3.3 1.7 2.1 3.2 2.8 7.2 7.3 7 3.8-.1 6.7-4.2 5-8-2.3-5.1-8.2-7.1-11.1-11.8.5-.5 2.7-2.6 3.5-2.7 1.7-.1 4.9 3.6 6.4 4.5 2 1.2 4.8 2.6 7.1 1.7 2.1-.9 3.3-3.6 5.6-4 .3 5.8 7 2.4 9.1.4 1.2-1.1 2.5-3 3.9-3.8.1-.1.1-.1.2-.1-.5-1.6-1.2-3.3-2.1-5 .4 0 .8-.1 1.2 0 7.3 0 12.6 6.1 14.2 11.4-1.3-1.2-2.8-2.2-4.8-2.2 5.2 3.6 2.3 10.5 9 14.2 3.4 1.8 7.4 2.5 10.1 5.4 3.4 3.6 4.2 9 3.9 13.5-.2 2.2-1.1 3.8-1.7 5.8H558v-.1h-37.1c-4-.2-12-14.7-7.5-17.5zM556.8 210c.4-.7.8-1.6 1.6-2 .3 2.1-1.1 4.7-2.7 6.8-1.2 1.6-2.9 3.2-4.5 3.3-.8 0-1.5-.5-1.4-1.4 2.8-1.2 5.5-3.8 7-6.7zM553.3 206c.7.4.8 1.7 0 3.1s-2.4 2.6-3.1 2.3c1.2-.9.1-3.9 2.1-3.9.2 0-.1-.4-.1-.6 0-.2.2-.5.4-.7.3-.3.6-.3.7-.2z"/><path fill="#AED03C" d="M397.5 150.4c-4.4-8.1-10.9-17.9-19-24.7 0 0-8-10.9-16-23.2 20-10 31.8-3.7 31.8-3.7 29.3 13.5 33.8 36.2 11.1 65.8l-1.4-.9c-.1 0-2.3-5.9-6.5-13.3z"/></svg>