<?xml version="1.0" encoding="utf-8"?>
<!-- Generator: Adobe Illustrator 18.1.1, SVG Export Plug-In . SVG Version: 6.00 Build 0)  -->
<svg version="1.1" id="Layer_1" xmlns="http://www.w3.org/2000/svg" xmlns:xlink="http://www.w3.org/1999/xlink" x="0px" y="0px"
	 viewBox="37.3 110 283.1 143.9" enable-background="new 37.3 110 283.1 143.9" xml:space="preserve">
<g id="ENTER_THE_PROCTOLOGIST">
	<g>
		<path fill="none" d="M289.8,216.6c0.4,4,1.1,6.8,1.1,6.9C290.2,219,289.9,217.3,289.8,216.6z"/>
		<path fill="none" d="M106.8,221.7c8.5-5.4,19.5-18.6,38-4.4c0,0-0.7-15.4-4-23.8c-4.7-5-9.1-9-9.1-9c1.1,24.6-16.5,24.5-26,27.7
			c-5.2,1.8-11.5,7.4-16.1,12l0.9,2.5C96.3,225.8,102.8,224.2,106.8,221.7z"/>
		<path fill="none" d="M226.2,168.5c0,0-6.7,4.7-27-0.6c0.7,1.4,6.9,13,12.3,27.5c0.1,0,0.2,0,0.3-0.1c9.6-6.7,29.5-21.2,29.5-21.2
			c1.5-3.2,3.3-5.8,5.4-7.8C241.6,168.5,235,169.6,226.2,168.5z"/>
		<g>
			<path fill="#50C0AD" d="M45.2,230.6c-2,1.9-3,3.6-3,3.6c-4.5-0.4-4.9,3.7-4.9,3.7H56c-0.3-0.1-0.6-0.1-1-0.2
				C51.3,236.6,47.7,234,45.2,230.6z"/>
			<path fill="#50C0AD" d="M150.5,206.7c-1.7-4-5.9-9-9.9-13.2c3.3,8.5,4,23.8,4,23.8c-18.5-14.2-29.4-1-38,4.4
				c-4,2.5-10.5,4-16.4,5l-0.9-2.5c-1,1.1-2,2.1-2.9,3c-2.3,2.5-3.7,4.2-3.7,4.2l0,0c-1.3,1.9-2.1,4.1-2.9,6.4c0.7,0,1.6,0,2.6,0H87
				v-0.1c21.5-0.5,73-1.7,73-1.7l6.7,0.5l3-5.8c0.1,0,0.3,0,0.5,0c-0.1-0.1-0.2-0.2-0.3-0.2C157.8,220.5,150.5,206.7,150.5,206.7z"
				/>
			<path fill="#50C0AD" d="M282.2,112c-3.3-2.7-7,1.4-7,1.4c-7,6.9-15.2,6.4-15.2,6.4c-4.5,0.6-12-3.7-12-3.7
				c-0.6-0.5-1.3-0.9-2-1.2c-3-2.2-7.9-4-15.6-4.1c0,0-8.9,0.7-11.3,4.1c0,0-22.3-2.9-39.2,11.6c-34.1-3.2-44.7,11.9-46.5,28.3
				l2.2,0.5c10,3.9,19.9,9,28.7,14.3c2.3,1.4,4.6,2.8,6.7,4.1c-4.4-16.6-4-29-3.4-34.5c0.2-2,0.4-3.1,0.4-3.1l1.9-0.5
				c-1.1,5.1-3.3,19.3,1.9,38.7c9,5.8,16.4,11.2,20.6,14.5c-0.6-5.6-1-11.5-0.2-15.4c1.9-9.5,3.7-11.9,2.4-18.6
				c0,0,19.8,3.3,32.1-6.5c0,0,26,3.6,24.9-19.9c2.4,25-23.3,20.9-23.3,20.9c-12.2,9.9-33,7-33,7c0.8,4.3,0.4,6.8-0.5,10.5
				c-0.5,2.1-1.2,4.6-1.9,8.1c-0.8,4-0.4,9.6,0.4,14.6c2,1.6,3.1,2.5,3.1,2.5c10,6.7,14.3,3.7,14.3,3.7s0.2-0.1,0.6-0.2
				c-5.4-14.5-11.5-26.2-12.3-27.5c20.3,5.3,27,0.6,27,0.6c8.8,1.2,15.4,0.1,20.4-2.1c2-2,4.3-3.4,6.7-4.5
				c7.9-7.6,8.3-18.5,8.3-18.5c1.4-5.5,5.4-7,5.4-7c3.5-1.5,4.6,2.5,4.6,2.5c0.7,4.2,4.2,3.1,4.2,3.1l8.2-3.8l2.3,2.6l2.6-4.6
				C297.9,121,282.2,112,282.2,112z"/>
		</g>
		<path fill="#D61F29" d="M319.1,194c0,0,7.8-16-16.6-25.7c0,0,6.3-12,9.7-16.7c0,0,6.6-6.4-8.1-14.7c0,0-6-2.7-17.5,3.7l3.5,5
			c0,0-3.8,3-6,7.4l6.6,5.4l-1.9,5.7c0,0-20.5-8.8-35.5-2.1c-2.4,1.1-4.6,2.5-6.7,4.5c-2.1,2-3.9,4.6-5.4,7.8
			c0,0-19.8,14.5-29.5,21.2c-0.1,0-0.2,0-0.3,0.1c-0.4,0.1-0.6,0.2-0.6,0.2s-4.3,3-14.3-3.7c0,0-1.1-0.9-3.1-2.5
			c-0.3-0.2-0.6-0.5-0.9-0.7c-4.3-3.3-11.6-8.7-20.6-14.5c-0.3-0.2-0.5-0.3-0.8-0.5c-2.1-1.4-4.4-2.8-6.7-4.1
			c-8.8-5.3-18.7-10.5-28.7-14.3l-2.2-0.5l-5.2-1.1l-3.5,5.8c0,0-38.7,50.7-47.9,62.7c-5.1,2.6-15.5,1.3-21.2,1.4
			c-2.1,0-3.3-0.3-5.2-1.4c-2.2-1.2-3.7-3.7-3.8-6.2c0-0.6,0-1.2-0.2-1.8c-0.5-1.1-2.1-1.3-3-0.5s-1.1,2.1-0.9,3.4
			c-0.9-0.5-2.2-0.9-2.7,0c-0.3,0.5-0.2,1.2,0.2,1.8c0.4,0.5,0.9,0.9,1.4,1.2c-0.5,0.4-0.6,1.2-0.3,1.8s0.9,1,1.4,1.4
			c-0.4,0.4-0.4,1.1,0,1.6c0.3,0.5,0.8,0.9,1.3,1.1c-0.7,0.6-0.4,1.9,0.1,2.8c0.4,0.7,0.8,1.3,1.2,2c2.5,3.4,6,6,9.9,7
			c0.3,0.1,0.6,0.2,1,0.2c2,0.4,4,0.6,5.8,1.5c2,0.9,3.9,2.4,5.5,4c5.9,6,7.1,3.7,7.3,3.6c3.1-1.6,3.6-3.6,4.7-7
			c0.2-0.6,0.4-1.3,0.6-1.9c0.7-2.3,1.5-4.5,2.9-6.4l0,0c0,0,1.5-1.8,3.7-4.2c0.9-0.9,1.8-2,2.9-3c4.6-4.7,10.9-10.3,16.1-12
			c9.5-3.2,27-3.1,26-27.7c0,0,4.5,4,9.1,9c4,4.3,8.2,9.3,9.9,13.2c0,0,7.3,13.8,19.3,23.9c0.1,0.1,0.2,0.2,0.3,0.2
			c12.5,10.4,30.1,16.5,50-0.8c0,0,1.2-0.8,2.7-2.2c0.6-0.3,3.9-1.6,7-1c3.7,0.6,34.1,8.1,58.7-9.9c0.5-10.9,2.3-12.5,2.3-12.5
			c-1.3,4-1.4,8.5-1,12.1c0.1,0.7,0.4,2.5,1.1,6.9l0,0l0,0l0,0c0,0-14.3,3.1-31.2,9.5c-4.7,1.5-12.5,2.1-13.3,2.2
			c-7,0.3-17.3,1-18.5,0.9s-2.5-0.2-3.6,0.2c-0.9,0.3-1.7,0.9-2.5,1.4c-3.5,2.2-7.6,2.8-11.3,4.9c-2,1.1-3.8,2.6-5.9,3.3
			c-0.7,0.2-1.5,0.5-1.9,1.2c-0.3,0.8,0,1.8,0.6,2.2c0.6,0.5,1.4,0.5,2.1,0.4c0.5,1.3,1.9,1.8,3.1,1.5c1.2-0.3,2.2-1.1,3.3-1.8
			c2.4-1.6,5.1-2.7,7.8-3.2c-1.7,1.3-3.5,2.7-5.2,4c-0.2,0.1-0.3,0.3-0.5,0.5c-0.4,0.6-0.2,1.5,0.2,2c0.5,0.5,1.1,0.7,1.8,0.7
			c3.4,0,6.1-3.5,9.4-4.7c2.7-1,5.6-0.5,8.4,0.2c3.8,1,8,2.4,11.4,0.1c0.4-0.2,0.7-0.5,1-0.8l0,0l0,0c0.2-0.2,0.4-0.4,0.6-0.5
			c2.1-1.2,8.3-0.7,12.9,0.2c3.9,0.7,8.6,1,10.5,1.1c0,0,0,0,0.1,0h36.9l3.9-1.4C325.3,199.6,319.1,194,319.1,194z"/>
	</g>
	<path d="M294.4,127.7c-1.5,0-3.1-5.2-3.8-6.6c-5.5-12.4-10.9-11.5-13.4-10.6c-1.2,0.4-2.2,1.4-3.1,2.3c-1.5,1.5-3,3.2-4.4,5
		c1.4,2.2,3.5,3.8,5.9,4.4c0.5-1.1,1-2.2,2-2.9s2.5-0.3,2.7,0.9c0.2,0.9-0.4,1.8-1,2.5c2.3,0.2,4.7-0.7,6.3-2.5
		C287.1,123.5,291.2,129.6,294.4,127.7z"/>
	<path d="M290,145.5c0,0-1.4,1.3-1.9,1.8l4.2,3c0,0-1.2,4.2-5.1,2.3c0,0-1.7-0.6-1.8-2c0,0-1,1.5-1.4,2.3l3.2,2.5c0,0,3.2,2,6.2-5.2
		C293.5,150.2,294.2,148.3,290,145.5z"/>
	<path d="M296,141c-0.3-0.1-0.7-0.3-0.9-0.6c0.9-0.2,2,0.3,3,0.9c0.7,0.5,1.5,1,1.5,1.7c0,0.3-0.1,0.6-0.5,0.6
		C298.5,142.5,297.3,141.5,296,141z"/>
	<path d="M294.5,141.8c0.3-0.4,1.1-0.3,1.8,0.3s1.3,1.6,1,2c-0.4-0.8-2.3-0.5-2-1.6c0-0.1-0.2,0-0.4,0c-0.1,0-0.3-0.1-0.4-0.3
		S294.4,141.9,294.5,141.8z"/>
	<path d="M282.7,128.9c-0.3-0.2-0.6-0.4-0.7-0.7c0.9,0,1.9,0.6,2.7,1.4c0.6,0.5,1.2,1.3,1.2,2c0,0.3-0.3,0.6-0.6,0.5
		C284.8,130.8,283.8,129.6,282.7,128.9z"/>
	<path d="M281.9,130.5c0.4-0.3,1.1,0,1.7,0.7s0.9,1.9,0.6,2.2c-0.3-0.9-2.1-0.9-1.7-2c0-0.1-0.2,0-0.4-0.1c-0.1,0-0.3-0.2-0.3-0.4
		C281.7,130.6,281.8,130.5,281.9,130.5z"/>
	<path fill="#FFFFFF" d="M223.6,240.9c0,0,0.9,0.6,1.3,2.4c0,0-0.8,0.2-1.5,0.7c0,0-0.1-1.3-1.2-2.3L223.6,240.9z"/>
	<path fill="#FFFFFF" d="M223.6,133v0.8c0,0-2.9,0.7-3.7-3.5l0,0l8.4-3l0.5,1.9c-0.2,0.1-0.2,0.2-0.2,0.4c0,0.1,0,0.5,0.1,0.5
		c0.1,0.1,0.4,0.3,0.5,0.3s0.4,0,0.5-0.2c0.2,0,0.2-0.2,0.3-0.3c0.1-0.2,0.1-0.4-0.1-0.5c-0.1-0.1-0.3-0.3-0.5-0.3h-0.1l-0.4-1.9
		l1.4-0.5c0.2,0.5,0.7,0.7,1.2,0.5c0.6-0.1,0.9-0.7,0.8-1.3c-0.1-0.6-0.7-0.9-1.3-0.8c-0.4,0.1-0.7,0.5-0.8,0.9l-1.5,0.5l-0.4-2
		c0.1,0,0.1-0.1,0.1-0.3c0.1-0.2,0.1-0.4-0.1-0.5c-0.1-0.1-0.3-0.3-0.5-0.3s-0.4,0-0.5,0.1c-0.2,0.1-0.2,0.2-0.3,0.5
		c0,0.1,0,0.5,0.1,0.5c0.1,0.1,0.3,0.2,0.5,0.3l0.5,1.9l-8.5,2.8c-1.3-4.5,1.4-5.3,1.4-5.3l0.4,0.8c0.3-0.5,0-1.5,0-1.5
		c-3.8,0.9-2.7,4.5-2.5,5.4c0,0.4-0.1,0.7-0.2,0.9l-1.5,1l1.4-0.1c0.3,0,0.8,0.1,1,0.6c0.3,0.7,1,3.9,4.8,2.9
		C224.4,134.2,224,133.3,223.6,133z M231.7,126c0.1,0.3-0.1,0.6-0.4,0.7c-0.3,0.1-0.5,0-0.6-0.3l0,0l-0.1-0.2c0-0.3,0.1-0.6,0.4-0.6
		C231.3,125.5,231.6,125.7,231.7,126z"/>
</g>
</svg>
