<svg xmlns="http://www.w3.org/2000/svg" viewBox="37.3 110 283.1 143.9"><path fill="none" d="M289.8 216.6c.4 4 1.1 6.8 1.1 6.9-.7-4.5-1-6.2-1.1-6.9zM106.8 221.7c8.5-5.4 19.5-18.6 38-4.4 0 0-.7-15.4-4-23.8-4.7-5-9.1-9-9.1-9 1.1 24.6-16.5 24.5-26 27.7-5.2 1.8-11.5 7.4-16.1 12l.9 2.5c5.8-.9 12.3-2.5 16.3-5zM226.2 168.5s-6.7 4.7-27-.6c.7 1.4 6.9 13 12.3 27.5.1 0 .2 0 .3-.1 9.6-6.7 29.5-21.2 29.5-21.2 1.5-3.2 3.3-5.8 5.4-7.8-5.1 2.2-11.7 3.3-20.5 2.2z"/><g fill="#50C0AD"><path d="M45.2 230.6c-2 1.9-3 3.6-3 3.6-4.5-.4-4.9 3.7-4.9 3.7H56c-.3-.1-.6-.1-1-.2-3.7-1.1-7.3-3.7-9.8-7.1zM150.5 206.7c-1.7-4-5.9-9-9.9-13.2 3.3 8.5 4 23.8 4 23.8-18.5-14.2-29.4-1-38 4.4-4 2.5-10.5 4-16.4 5l-.9-2.5c-1 1.1-2 2.1-2.9 3-2.3 2.5-3.7 4.2-3.7 4.2-1.3 1.9-2.1 4.1-2.9 6.4H87v-.1l73-1.7 6.7.5 3-5.8h.5c-.1-.1-.2-.2-.3-.2-12.1-10-19.4-23.8-19.4-23.8zM282.2 112c-3.3-2.7-7 1.4-7 1.4-7 6.9-15.2 6.4-15.2 6.4-4.5.6-12-3.7-12-3.7-.6-.5-1.3-.9-2-1.2-3-2.2-7.9-4-15.6-4.1 0 0-8.9.7-11.3 4.1 0 0-22.3-2.9-39.2 11.6-34.1-3.2-44.7 11.9-46.5 28.3l2.2.5c10 3.9 19.9 9 28.7 14.3 2.3 1.4 4.6 2.8 6.7 4.1-4.4-16.6-4-29-3.4-34.5.2-2 .4-3.1.4-3.1l1.9-.5c-1.1 5.1-3.3 19.3 1.9 38.7 9 5.8 16.4 11.2 20.6 14.5-.6-5.6-1-11.5-.2-15.4 1.9-9.5 3.7-11.9 2.4-18.6 0 0 19.8 3.3 32.1-6.5 0 0 26 3.6 24.9-19.9 2.4 25-23.3 20.9-23.3 20.9-12.2 9.9-33 7-33 7 .8 4.3.4 6.8-.5 10.5-.5 2.1-1.2 4.6-1.9 8.1-.8 4-.4 9.6.4 14.6 2 1.6 3.1 2.5 3.1 2.5 10 6.7 14.3 3.7 14.3 3.7s.2-.1.6-.2c-5.4-14.5-11.5-26.2-12.3-27.5 20.3 5.3 27 .6 27 .6 8.8 1.2 15.4.1 20.4-2.1 2-2 4.3-3.4 6.7-4.5 7.9-7.6 8.3-18.5 8.3-18.5 1.4-5.5 5.4-7 5.4-7 3.5-1.5 4.6 2.5 4.6 2.5.7 4.2 4.2 3.1 4.2 3.1l8.2-3.8 2.3 2.6 2.6-4.6c9.2-15.3-6.5-24.3-6.5-24.3z"/></g><path fill="#D61F29" d="M319.1 194s7.8-16-16.6-25.7c0 0 6.3-12 9.7-16.7 0 0 6.6-6.4-8.1-14.7 0 0-6-2.7-17.5 3.7l3.5 5s-3.8 3-6 7.4l6.6 5.4-1.9 5.7s-20.5-8.8-35.5-2.1c-2.4 1.1-4.6 2.5-6.7 4.5-2.1 2-3.9 4.6-5.4 7.8 0 0-19.8 14.5-29.5 21.2-.1 0-.2 0-.3.1-.4.1-.6.2-.6.2s-4.3 3-14.3-3.7c0 0-1.1-.9-3.1-2.5-.3-.2-.6-.5-.9-.7-4.3-3.3-11.6-8.7-20.6-14.5-.3-.2-.5-.3-.8-.5-2.1-1.4-4.4-2.8-6.7-4.1-8.8-5.3-18.7-10.5-28.7-14.3l-2.2-.5-5.2-1.1-3.5 5.8s-38.7 50.7-47.9 62.7c-5.1 2.6-15.5 1.3-21.2 1.4-2.1 0-3.3-.3-5.2-1.4-2.2-1.2-3.7-3.7-3.8-6.2 0-.6 0-1.2-.2-1.8-.5-1.1-2.1-1.3-3-.5s-1.1 2.1-.9 3.4c-.9-.5-2.2-.9-2.7 0-.3.5-.2 1.2.2 1.8.4.5.9.9 1.4 1.2-.5.4-.6 1.2-.3 1.8s.9 1 1.4 1.4c-.4.4-.4 1.1 0 1.6.3.5.8.9 1.3 1.1-.7.6-.4 1.9.1 2.8.4.7.8 1.3 1.2 2 2.5 3.4 6 6 9.9 7 .3.1.6.2 1 .2 2 .4 4 .6 5.8 1.5 2 .9 3.9 2.4 5.5 4 5.9 6 7.1 3.7 7.3 3.6 3.1-1.6 3.6-3.6 4.7-7 .2-.6.4-1.3.6-1.9.7-2.3 1.5-4.5 2.9-6.4 0 0 1.5-1.8 3.7-4.2.9-.9 1.8-2 2.9-3 4.6-4.7 10.9-10.3 16.1-12 9.5-3.2 27-3.1 26-27.7 0 0 4.5 4 9.1 9 4 4.3 8.2 9.3 9.9 13.2 0 0 7.3 13.8 19.3 23.9.1.1.2.2.3.2 12.5 10.4 30.1 16.5 50-.8 0 0 1.2-.8 2.7-2.2.6-.3 3.9-1.6 7-1 3.7.6 34.1 8.1 58.7-9.9.5-10.9 2.3-12.5 2.3-12.5-1.3 4-1.4 8.5-1 12.1.1.7.4 2.5 1.1 6.9 0 0-14.3 3.1-31.2 9.5-4.7 1.5-12.5 2.1-13.3 2.2-7 .3-17.3 1-18.5.9s-2.5-.2-3.6.2c-.9.3-1.7.9-2.5 1.4-3.5 2.2-7.6 2.8-11.3 4.9-2 1.1-3.8 2.6-5.9 3.3-.7.2-1.5.5-1.9 1.2-.3.8 0 1.8.6 2.2.6.5 1.4.5 2.1.4.5 1.3 1.9 1.8 3.1 1.5 1.2-.3 2.2-1.1 3.3-1.8 2.4-1.6 5.1-2.7 7.8-3.2-1.7 1.3-3.5 2.7-5.2 4-.2.1-.3.3-.5.5-.4.6-.2 1.5.2 2 .5.5 1.1.7 1.8.7 3.4 0 6.1-3.5 9.4-4.7 2.7-1 5.6-.5 8.4.2 3.8 1 8 2.4 11.4.1.4-.2.7-.5 1-.8.2-.2.4-.4.6-.5 2.1-1.2 8.3-.7 12.9.2 3.9.7 8.6 1 10.5 1.1h37l3.9-1.4c14.2-48.5 8-54.1 8-54.1z"/><path d="M294.4 127.7c-1.5 0-3.1-5.2-3.8-6.6-5.5-12.4-10.9-11.5-13.4-10.6-1.2.4-2.2 1.4-3.1 2.3-1.5 1.5-3 3.2-4.4 5 1.4 2.2 3.5 3.8 5.9 4.4.5-1.1 1-2.2 2-2.9s2.5-.3 2.7.9c.2.9-.4 1.8-1 2.5 2.3.2 4.7-.7 6.3-2.5 1.5 3.3 5.6 9.4 8.8 7.5zM290 145.5s-1.4 1.3-1.9 1.8l4.2 3s-1.2 4.2-5.1 2.3c0 0-1.7-.6-1.8-2 0 0-1 1.5-1.4 2.3l3.2 2.5s3.2 2 6.2-5.2c.1 0 .8-1.9-3.4-4.7zM296 141c-.3-.1-.7-.3-.9-.6.9-.2 2 .3 3 .9.7.5 1.5 1 1.5 1.7 0 .3-.1.6-.5.6-.6-1.1-1.8-2.1-3.1-2.6zM294.5 141.8c.3-.4 1.1-.3 1.8.3s1.3 1.6 1 2c-.4-.8-2.3-.5-2-1.6 0-.1-.2 0-.4 0-.1 0-.3-.1-.4-.3s-.1-.3 0-.4zM282.7 128.9c-.3-.2-.6-.4-.7-.7.9 0 1.9.6 2.7 1.4.6.5 1.2 1.3 1.2 2 0 .3-.3.6-.6.5-.5-1.3-1.5-2.5-2.6-3.2zM281.9 130.5c.4-.3 1.1 0 1.7.7s.9 1.9.6 2.2c-.3-.9-2.1-.9-1.7-2 0-.1-.2 0-.4-.1-.1 0-.3-.2-.3-.4-.1-.3 0-.4.1-.4z"/><path fill="#FFF" d="M223.6 240.9s.9.6 1.3 2.4c0 0-.8.2-1.5.7 0 0-.1-1.3-1.2-2.3l1.4-.8zM223.6 133v.8s-2.9.7-3.7-3.5l8.4-3 .5 1.9c-.2.1-.2.2-.2.4 0 .1 0 .5.1.5.1.1.4.3.5.3s.4 0 .5-.2c.2 0 .2-.2.3-.3.1-.2.1-.4-.1-.5-.1-.1-.3-.3-.5-.3h-.1l-.4-1.9 1.4-.5c.2.5.7.7 1.2.5.6-.1.9-.7.8-1.3-.1-.6-.7-.9-1.3-.8-.4.1-.7.5-.8.9l-1.5.5-.4-2c.1 0 .1-.1.1-.3.1-.2.1-.4-.1-.5-.1-.1-.3-.3-.5-.3s-.4 0-.5.1c-.2.1-.2.2-.3.5 0 .1 0 .5.1.5.1.1.3.2.5.3l.5 1.9-8.5 2.8c-1.3-4.5 1.4-5.3 1.4-5.3l.4.8c.3-.5 0-1.5 0-1.5-3.8.9-2.7 4.5-2.5 5.4 0 .4-.1.7-.2.9l-1.5 1 1.4-.1c.3 0 .8.1 1 .6.3.7 1 3.9 4.8 2.9 0 0-.4-.9-.8-1.2zm8.1-7c.1.3-.1.6-.4.7-.3.1-.5 0-.6-.3l-.1-.2c0-.3.1-.6.4-.6.3-.1.6.1.7.4z"/></svg>