<svg xmlns="http://www.w3.org/2000/svg" viewBox="160 12.2 137.6 216"><path d="M249.6 14.9c-2.5-1.2-5.4-.5-7.9.3-3.5-6-14.5-1.4-17.7 2.4-1.6 1.9-1.6 3.7-2.5 5.8-1.6 3.9-4.2 3.7-7.8 4.4-3.6.8-6.4 3.1-7.6 6.6s.6 6.6-.1 9.9c-.4 2-2.3 2.8-3.6 4.1-.4.1-.8.2-1.3.3-4.7 1.1-8.3 4.7-10.4 8.9-2.2 4.3-2.9 9.3-1.9 14.1.5 2.5 3 7.5 5.5 8-4.7 4.1-.6 8 3.9 9.1 1.4.4 3 .4 4.2.2 1.4-.3 2.7-.9 3.8-1.8.3-.2 1-.5 1.3-.7 10.4-4.9 19.8-40.9 44.6-58.7 2.5-4.6 3.4-10.3-2.5-12.9z"/><path d="M244.3 42c-3.7-.2-4.5 1.7-4.2 4.3 1.4 1.4 3.4 2.3 5.3 2.9-1.2-2.4-1.8-4.2-1.1-7.2zM238 182.6s-3.9-2.4-8.1-2.5c0 0-7 0-9.7 2.7 0 0-6 6.4-5.6 14.9 0 1.1.3 2.2.5 3.3 0 .2.1.3.2.5 0 0 0 .1.1.3.2.8.7 2.6.8 4.9 0 .3 0 .8.1 1.3.4 3.8 2.5 11.9 13.1 11.9 11.5 0 14-6.4 14.3-12.4v-.8s.3-4 .6-5.6v-.3c0-.1.1-.3.1-.7.1-.8.3-2.4.2-4.2-.3-3.7-1.5-9.1-6.6-13.3z"/><path fill="none" d="M193 174.2s.1 0 .3-.1c.1-1.6.4-3.7 1.2-5.8 0 0-2.5 3.1-6.1 4.7 0 0 1.3 1.5 2.5 3.8.9-1.7 2.1-2.6 2.1-2.6zM264.7 172.9c.1.2.3.3.4.4 1.9-3.6 5.2-6.1 5.2-6.1-1.8-.8-4.6-2.5-8-4.4 1.4 2.7 2.8 6.4 2.4 10.1z"/><path fill="#CFD74D" d="M292.9 189.4c.4-3-.3-7.4-1.4-12.1-2.4-9.7-6.5-20.7-6.9-22.5-.7-2.9-.1-4.8-.1-4.8 1.1-1.4 1.8-2.6 2.2-3.7 1.3-3 .8-4.7.7-5.8 0-1.4-1-1.4-1.4-1.3-.3.1-.5-.6-.5-.6-.4-2.4-2.2-2-2.6-1.7-.4.3-.6-.2-.6-.2-.7-3.8-2.6-2.7-3.3-2.3-.7.4-.8-.3-.8-.3-.8-2.7-2.7-1.8-3.2-.9-.3.4-.5 1.4-.8 2.6-.4 1.5-.8 3.4-1.2 4.3-.6 1.7-2 .6-2 .6l-1.3-.4-1.9-3s-.1-2.2-3.6-2.4c0 0-1.3.4-1.4 1-.2.7 1.6 1.9 1.6 1.9s.5.4.7.8c.2.4.3.8.8 1.4.6.6 1.1 1.8 1.3 2.9.2 1.1 1.4 2.5 2 3.2.6.7 5.2 3.3 5.4 4.1 2.3 8 .1 18.4.1 18.4-3.1 7.7-4.3 12.8-4.7 16.1 1.6-1.2 3.1-1.9 4.7-2.5 6.2-1.9 11.4 1.2 11.4 1.2-8-2.4-12.4-.6-14.6 1-.8.6-1.4 1.2-1.6 1.5v.2c-.1.2-.2.3-.2.3v-1.5c-.2-2.3-1.2-6.9-6.4-12.4-6.8-3.3-13.2-5.4-19.3-6.6 6 .8 12.5 2.4 19.3 5.3.6.6 1.1 1.2 1.6 1.8.3-3.7-1.1-7.5-2.4-10-3.5-1.9-7.7-4-12.5-5.3-12.4-3.6-18.5-9.2-18.5-9.2l-1.4-1.7-1.4 1.7s-5.7 7.5-18.5 9.2c-12.8 1.8-16 10.7-16 10.7-.8 2.2-1 4.2-1.2 5.8 1.2-.8 7.5-4.4 17.7-6.8-11.3 3.3-18 8.2-18 8.2s-3.7 2.1-3.9 8.9v-1.8c-.7-3-1.9-7.1-4.1-12.4 0 0-2.1-10.5.1-18.4.3-.8 4.7-3.4 5.4-4.1.6-.7 1.9-2.1 2-3.2.2-1.1.6-2.3 1.3-2.9.6-.6.6-.8.8-1.4.3-.5.7-.8.7-.8s1.8-1.2 1.6-1.9c-.2-.7-1.4-1-1.4-1-3.6.1-3.6 2.4-3.6 2.4l-1.9 3-1.3.4s-1.4 1.2-2-.6c-.4-1.3-1-3.7-1.5-5.4-.2-.7-.4-1.3-.5-1.5-.5-.8-2.5-1.8-3.2.9 0 0-.2.7-.8.3-.6-.4-2.5-1.5-3.3 2.3 0 0 0 .1-.2.2-.1 0-.3.1-.4 0-.4-.3-2.2-.7-2.6 1.7v.2c-.1.2-.2.5-.4.4-.3-.1-1.4-.2-1.4 1.3 0 .9-.5 2.5.4 4.9.4 1.3 1.3 2.7 2.5 4.6 0 0 .6 1.9-.1 4.8-.5 2.2-6.2 16.8-8 27.3-.4 2.4-.6 4.5-.5 6.3-4.8 7.4-1.4 18.6 4.1 23.3 0 0 5.4 18.7 33.1 12.8s48.5 1.3 48.5 1.3 18.7 4.9 27.9-9.2c.1-.1 20.1-16.2 12.9-28.9zM189 187.1s-3-5.2-11.9-3.5c-.8.2-1.8.4-2.8.8h-.1s7.6-4.8 14.7 1.4l.1.1v1.2zm25.1 11.3c0 .1 0 .1 0 0-.1.1-.1 0 0 0zm31.3 10.4c-.5.2-1.3-.3-1.9-1.1-.3 6-2.8 12.4-14.3 12.4-10.6 0-12.7-8-13.1-11.9-.7.9-1.4 1.4-1.9 1.3-.7-.2-1-1.3-.8-2.7-.1-.8 0-1.8.3-2.9.3-1.1.8-2.1 1.4-2.7-.3-1.1-.5-2.2-.5-3.3-.4-8.5 5.6-14.9 5.6-14.9 2.7-2.7 9.7-2.7 9.7-2.7 4.2.1 8.1 2.5 8.1 2.5 5.1 4.2 6.4 9.7 6.6 13.5.1 1.9 0 3.4-.2 4.2.6.6 1.2 1.6 1.6 2.8.3 1.1.4 2.1.3 2.9.1 1.2-.1 2.2-.9 2.6z"/><path fill="#FFF" d="M174.2 184.4c1.1-.3 2-.6 2.9-.8 8.9-1.8 11.9 3.5 11.9 3.5v-1.3l-.1-.1c-7.1-6.3-14.7-1.3-14.7-1.3z"/><path fill="#CFD74D" d="M216.1 206.9c-.1-2.3-.5-4.1-.8-4.9-.7.6-1.3 1.7-1.7 3-.2.6-.3 1.2-.3 1.8-.1 1.4.2 2.5.8 2.7.6.2 1.4-.3 1.9-1.3.1-.6.1-1 .1-1.3zM244.3 201.2c-.3 1.5-.6 5.6-.6 5.6v.8c.6.8 1.3 1.3 1.9 1.1.7-.2 1-1.3.8-2.7 0-.5-.2-1.2-.3-1.8-.5-1.3-1.2-2.4-1.8-3z"/><path fill="#F29220" d="M175.7 137.9c-.9 0-1.8.8-1.8 1.8 0 .3 0 .5.2.8v-.2c.4-2.4 2.2-2 2.6-1.7.2.1.3.1.4 0-.3-.4-.9-.7-1.4-.7z"/><path fill="#F05523" d="M292.8 156s-1.8-2.3-3-5.4c-.4-1-1.3-2.5-3-4.6-.4 1.1-1.2 2.3-2.2 3.7 0 0-.6 1.9.1 4.8.4 1.9 4.7 12.8 6.9 22.5 1.4-1.9 2.9-4.1 4.4-6.8 0 0 1-1.9 1.5-4.9.5-2.3-2.4-6.9-4.7-9.3z"/><path fill="#A9882F" d="M269.6 186v.3s.1-.1.2-.3v-.2c-.1.2-.2.3-.2.2z"/><path fill="#F05523" d="M268.9 145.9c-.6-.7-1.9-2.1-2-3.2-.2-1.1-.6-2.3-1.3-2.9-.6-.6-.6-.8-.8-1.4-.2-.4-.7-.8-.7-.8s-1.8-1.2-1.6-1.9 1.4-1 1.4-1c3.6.1 3.6 2.4 3.6 2.4l1.9 3 1.3.4s1.4 1.2 2-.6c.3-1 .8-2.8 1.2-4.3-3.3-2.1-7.3-4.5-12-6.9 0 0-2.8-2.5-3-5.1-.3-2.5-3.6-9.5-8.7-13.5-5.1-4.1-.5-13.9-.5-13.9s5.4-10.8 4.9-27.2c0 0 3 10.7-4.5 28.9 0 0-4.5 9 2.5 12.7 0 0 8.9-7.7 10.2-31.8 0 0 9.2-28.2-12.2-28.9 0 0-2.5-.1-5.3-.8-1.9-.5-4-1.4-5.3-2.9-.3-2.5.5-4.4 4.2-4.3h.2c1.7.1 3 .6 4.7.8.8.1 1.7.2 2.5.2 1 0 .7-.8.6-1.6 0-.3-.1-.5 0-.8.2-.7.4-2.1 1-2.4-.2-.3-1-.8-1.3-1.1.5.1 1.4.3 1.7-.1-.4-.3-.6-1.4-.4-1.9.8-.1 1.9-.8 1.9-.8-2.3-4.2-2.2-3.9-2.7-6.4v-.2c-.3-1.3-.4-1.9-.7-3.2-.3-2-1.4-4-3.6-4.7-.1 0-.3 0-.3-.1.4.4.8.9 1.2 1.4-1.9-.8-3.6-.9-5.3.1-1.8 1.1-3 3-3.4 5.2-.3 1.9-.1 4.2-1.7 5.1.2-.9-.4-1.9-1.3-2.1-.9-.2-1.9.2-2.2 1-.6 1.3.3 2.7.3 4.1v.6c.3 2.6-.4 6.6-1.1 7.9-1.6 3.3-4.1 5.5-7.4 6.9-.2.1-.3.2-.5.3-1.9.8-4.1 1.2-6.4 1.2-.8.4-1.4.8-1.9 1.4-3.4 4.1.9 6.6 1.4 10.5.5 5.1-5.9 5.1-8.1 8.7-1.8 3-.3 5.8-.8 9-.4 2.1-1.6 4.1-3.1 5.5 1.4 6.1 3.2 9.7 3.2 9.7s4.7 9.7-.5 13.9c-5.2 4.1-8.6 11-8.8 13.5-.3 2.5-3 5.1-3 5.1-5 2.5-9.2 5.2-12.8 7.6.5 1.7 1.1 4.2 1.5 5.4.6 1.7 2 .6 2 .6l1.3-.4 1.9-3s.1-2.2 3.6-2.4c0 0 1.3.4 1.4 1 .2.7-1.6 1.9-1.6 1.9s-.5.4-.7.8c-.2.4-.3.8-.8 1.4-.6.6-1.1 1.8-1.3 2.9-.2 1.1-1.4 2.5-2 3.2s-5.2 3.3-5.4 4.1c-2.3 8-.1 18.4-.1 18.4 2.1 5.2 3.4 9.3 4.1 12.4.2-2.7.8-4.6 1.6-5.9-1.1-2.4-2.5-3.8-2.5-3.8 3.6-1.5 6.1-4.7 6.1-4.7s3.1-8.9 16-10.7c12.8-1.8 18.5-9.2 18.5-9.2l1.4-1.7 1.4 1.7s6 5.7 18.5 9.2c4.8 1.4 9.1 3.4 12.5 5.3 3.5 1.9 6.2 3.6 8 4.4 0 0-3.4 2.5-5.2 6.1 4.7 5.8 4.6 10.4 4.5 11.4l.3-.3c.4-3.3 1.6-8.4 4.7-16.1 0 0 2.1-10.5-.1-18.4-1.1-.6-5.7-3.2-6.3-3.9zm-39.5-23.4c.4-3.5 0-14.6 0-14.6-1.2-30.1.3-54.2.3-54.2 0 5.3-.4 34.5 0 50.7s-.3 18.1-.3 18.1zM172.6 147c-2.9 3.1-4.4 5.5-4.9 6.7-1.3 3-3 5.4-3 5.4-2.3 2.3-5.2 6.9-4.7 9.5.8 3.6 1.5 4.9 1.5 4.9 1.7 4.3 3.6 7.7 5.6 10.2 1.8-10.5 7.5-25.1 8-27.3.7-2.9.1-4.8.1-4.8-1.4-1.7-2.2-3.3-2.6-4.6z"/><path fill="#F05523" d="M207.4 110.6c6.9-3.7 2.5-12.7 2.5-12.7-1.6-3.9-2.8-7.5-3.6-10.7-1.1.8-2.5 1.4-3.8 1.8-1.3.3-2.8.2-4.2-.2 2.8 16.3 9.1 21.8 9.1 21.8z"/><path fill="#FFFFFE" d="M229.6 108.1s.4 11.1 0 14.6c0 0 .8-1.9.3-18-.4-16.1 0-45.3 0-50.7 0 0-1.5 23.9-.3 54.1z"/><path d="M250.7 27.1c-.3-.6-.8-1.1-1.5-1.4-.2-.1-.3-.2-.4-.2-.6-.2-1.2-.1-1.7.1s-1 .5-1.3.9c-.1 0 0-.2 0-.3.3-.3.8-.7 1.2-.9.4-.3 1-.3 1.6-.3.7.2 1.3.6 1.8 1.1.3.2.4.4.7.7.1.1.1.2.1.3-.3.1-.4.3-.5 0zM250 28.8l-.4.3c-.4.3-1.2.2-1.6-.2l-.3-.3c-.2-.2-.4-.2-.5-.2h-.1l-.1.1c-.2.2-.2.4-.2.6.1.7.8 1.4 1.6 1.5h.2c.4 0 .8-.2 1.1-.5.2-.3.3-.6.3-.9v-.4z"/><path fill="none" d="M244.3 194.3c-.1-.8-.3-1.8-.6-2.7.3.9.5 1.7.6 2.7zM244.6 196.1c.1 1.2 0 2.2 0 3v.1c0 .4-.1.8-.1 1.1.1-.9.2-2.3.1-4.2 0-.5 0-1-.1-1.5-.1.4.1.9.1 1.5zM214.6 197.9c0 .4.1.8.1 1.2-.1-.4-.1-.7-.1-1.2zM244.3 200.4c0 .3-.1.4-.1.5 0 0 .1-.3.1-.5zM243.6 191.3c-.2-.5-.3-1-.5-1.4.3.3.4.9.5 1.4zM242.8 188.9l.3.6c-.2-.4-.4-.8-.6-1.3 0 .2.1.4.3.7zM214.4 196.8v0zM214.4 196.3v0zM215 201.2c0-.1 0-.1 0 0-.2-.7-.3-1.4-.4-2 .1.6.3 1.2.4 2 0-.1 0-.1 0 0 0-.1 0 0 0 0z"/><path fill="#CFD74D" d="M229.8 180.1h-.7c.5.1.6 0 .7 0zM228.7 180.2c-.3 0-.6 0-.9.1.3-.1.7-.1.9-.1zM227.6 180.4c-.4 0-.9.1-1.4.2.4-.1.9-.1 1.4-.2zM214.7 194.4c-.2.4-.2.7-.2 1 .1-.4.1-.6.2-1zM225.7 180.5c-.3 0-.5.1-.7.2.2-.1.4-.1.7-.2zM215 192.6s-.1 0 0 0c-.2.6-.3 1.1-.3 1.7.1-.5.2-1.1.3-1.7zM214.4 197.8v-.9-.3-.3c0-.2 0-.4.1-.6-.1.7-.1 1.5-.1 2.1 0 .1 0 0 0 0zM214.6 197.9c-.2 0-.2 0 0 0 0 .4 0 .8.1 1.2-.1-.4-.1-.7-.1-1.2zM215 192.5c.2-.6.3-1.1.4-1.6v-.1c-.1.3-.2.5-.3.8v.1c-.1.3-.2.7-.3 1l.2-.2zM217.1 187.1c.1-.2.2-.3.3-.4-.2.3-.2.4-.3.4zM218.9 184.4c-.1 0-.1 0 0 0-.1.1-.1.2-.2.2-.3.5-.8 1.2-1.3 1.9.7-1 1.2-1.6 1.5-2.1zM219 184.2c.1-.2.2-.3.3-.4h-.1c0 .3-.1.4-.2.4zM217.1 187.2c0 .1 0 .1 0 0 0 .1 0 0 0 0zM217.1 187.3s-.1 0 0 0c-.3.4-.5.9-.8 1.4.2-.3.5-.9.8-1.4zM224.5 180.8c-.4.1-.9.3-1.4.3.5 0 1-.1 1.4-.3zM221 182.3c-.1.1-.2.1-.3.2.2-.2.3-.2.3-.2zM216.2 189c-.3.5-.4 1-.7 1.5.3-.4.5-1 .7-1.5zM222.7 181.3c-.5.2-.9.3-1.4.6.5-.1.9-.3 1.4-.6zM219.9 183.2s-.1 0 0 0l-.3.3v.1c.1-.1.2-.2.3-.4zM220.4 182.8c0-.2 0-.2 0 0l-.3.3c.1-.3.2-.3.3-.3z"/><path fill="#FFF" d="M215.2 201.6s.1.2.1.4c-.1-.3-.1-.4-.1-.4zM215 201.2c0 .2 0 .2 0 0z"/><path fill="#CFD74D" d="M215.3 202.2z"/><path fill="#E27326" d="M214 198.4c0 .1 0 .1 0 0z"/><path d="M215 192.5zM239.7 184.3c.6.7 1.2 1.4 1.7 2.1.1.1.2.3.3.3.1.2.2.3.3.4.1.1.1.2.2.3.2.3.3.5.4.8-.3-.5-.5-1-.8-1.4-.8-.9-1.4-1.8-2.1-2.5zM215 192.5zM215 192.6c-.2.6-.3 1.1-.3 1.8-.1.3-.1.7-.1 1 0-1 .2-1.8.4-2.8zM214.6 195.7c0 .2 0 .4-.1.6.1-.1.1-.3.1-.6zM216.2 189c-.3.5-.4 1-.6 1.5.2-.4.4-1 .6-1.5zM215.5 190.9c-.2.5-.3 1-.4 1.5.1-.5.3-1 .4-1.5zM229.1 180.2h1H229.8c-.1-.1-.2 0-.7 0zM217.4 186.7c-.1.2-.2.3-.3.4l-.1.1c-.3.4-.5.9-.7 1.4.4-.4.8-1.2 1.1-1.9zM230.2 180.2c.3 0 .6.1.9.1h.3c.1 0 .3 0 .3.1.1 0 .2 0 .3.1.3.1.6.1.8.2.2 0 .3.1.4.1.5.2.9.3 1.4.4.2.1.3.1.4.2.4.2.8.3 1.2.5.2.1.3.1.3.2.2.1.3.2.4.3.2.1.3.2.3.2.3.2.4.3.4.3.6.5 1.2 1.1 1.7 1.6.7.8 1.4 1.5 1.9 2.4-.9-1.4-2-2.8-3.6-4 0 0-3.9-2.4-8.1-2.5h.1c.4-.2.5-.2.6-.2zM224.1 181.1c.2-.1.3-.1.5-.1-.4.1-.9.3-1.4.4.4-.3.5-.3.9-.3z"/><path d="M234.7 181.1c-.4-.2-.8-.3-1.4-.4.4.3.9.4 1.4.4zM221.2 182.2c-.1 0-.1.1-.2.1-.1.1-.2.1-.3.2.2-.2.3-.2.5-.3zM220.2 182.9c.1-.1.2-.2.3-.2-.2.1-.3.1-.3.2-.1 0 0 0 0 0zM232.8 180.6c-.3-.1-.5-.2-.8-.2.3.1.6.1.8.2zM236.3 181.8c-.3-.2-.8-.3-1.2-.5.5.3.8.4 1.2.5zM236.4 181.8s0 .1 0 0c0 .1 0 .1 0 0zM236.6 182c.2.1.3.2.5.3-.1 0-.2-.1-.5-.3zM219.3 183.8c-.2.2-.3.3-.3.4.2 0 .3-.2.3-.4zM217.9 185.9s.1 0 0 0c.4-.6.8-1.1 1-1.5-.4.6-.8 1.3-1.4 2.1.2-.3.3-.5.4-.6zM219.9 183.4c0-.2 0-.2 0 0l-.3.3c.1-.2.2-.3.3-.3zM238 182.8c.6.5 1.2 1 1.7 1.6-.5-.7-1.1-1.2-1.7-1.6 0 0-.2-.2-.4-.3.2.1.4.3.4.3zM228.7 180.2h-.9c.3.2.7.2.9 0zM227 180.5c.3 0 .5-.1.8-.1h-.2c-.4.1-.9.1-1.4.2.2-.1.5-.1.8-.1zM231.4 180.4c.2 0 .3.1.5.1-.1 0-.3 0-.3-.1h-.2zM225.6 180.6c0-.1.1-.1 0 0-.3 0-.4.1-.7.1.3 0 .5-.1.7-.1zM231.1 180.4c-.3-.1-.6-.1-.9-.1.3-.1.7.1.9.1z"/><path fill="#CFD74D" d="M244.3 194.5c.1 0 .1 0 0 0v-.3.3zM214.4 197.9c.2 0 0 0 0 0zM214.6 199.1s0 .1 0 0c0 .1 0 .1 0 0 0 .1 0 0 0 0zM244.6 199.1s0 .1 0 0c0 .1 0 .1 0 0 0 .1 0 0 0 0zM243.6 191.3c0 .1.1.2.1.3 0-.2 0-.2-.1-.3zM244.3 200.4zM243.1 189.8c0-.1-.1-.3-.2-.3.2 0 .2.1.2.3zM242.8 188.9zM214.4 196.6v0zM214.6 199.1s0 .1 0 0c0 .1 0 .1 0 0 0 .1 0 0 0 0zM227.8 180.4h-.3.3zM219.5 183.5l-.3.3h.1c.1 0 .2-.2.2-.3zM220.1 182.9s-.2.1-.3.3l.3-.3zM220.8 182.4c-.1.1-.3.2-.3.3.1-.2.1-.3.3-.3zM223.2 181.1c-.2 0-.3.1-.4.2.2 0 .2-.1.4-.2zM219 184.2c-.1 0-.1.1 0 0 0 .1 0 .1 0 0zM221 182.3c.1-.1.3-.2.3-.2-.1-.1-.2.1-.3.2zM215.3 191.5c0 .1 0 .1 0 0zM226.1 180.5c-.2 0-.3 0-.4.1.1-.1.3-.1.4-.1zM215 192.5c0 .1-.1.1 0 0-.1.1 0 .1 0 0 0 .1 0 .1 0 0zM214.6 195.7v-.3.3zM214.7 194.4s-.1 0 0 0c-.1 0 0 0 0 0zM215.6 190.7s-.1 0 0 0c-.1.1-.1.1-.1.2v.1c0-.2 0-.2.1-.3zM217.1 187.3s-.1 0 0 0c-.1 0 0 0 0 0zM217.6 186.5c-.1.1-.2.3-.3.3.3-.2.3-.3.3-.3zM217.1 187.1c0 .1 0 .1 0 0 0 .1 0 0 0 0zM216.3 188.9c-.1.1-.1.2-.2.3.1-.2.2-.3.2-.3zM218.8 184.4zM214.4 197.9v-.2.2c.2 0 0 0 0 0zM229.1 180.2h-.4.4zM224.9 180.7c-.2 0-.3.1-.4.1.3-.1.3-.1.4-.1zM215 192.5zM214.4 196.6v0zM220.9 183.1c.1.1.1.2.2.3h.1c0-.1 0-.1.1-.1v-.1h.1v-.3h-.3v-.1h-.1v.1c-.1 0-.1 0-.1.2-.1 0-.1 0 0 0zM219.9 193.9c0-.1 0-.1 0 0l.2-.1v-.1h-.2v-.1.1h-.1c0 .1 0 .1.1.2zM222.6 187.1v.3h.3v-.2h.1V186.9c-.1 0 0 0-.1.1-.2.1-.2.1-.3.1zM221.5 182.5c.1.1.1.2.1.3.1 0 0 0 .1-.1h.3v-.3c-.2 0-.3 0-.3-.1-.1 0 0 0-.1.1h-.1v.1c0-.1 0-.1 0 0 0 0-.1-.1 0 0zM222.1 181.9c.1.1.1.2.1.3.1 0 0 0 .1-.1h.3v-.3h-.1v-.1h-.3v.1h-.1v.1c0-.1-.1-.1 0 0 0 0-.1-.1 0 0zM219.8 191.6h.3v-.3h-.3v.1h-.1v.1c.1 0 .1-.1.1.1zM219.9 199.8s-.1 0 0 0zM219.9 201c0-.1 0-.1 0 0zM219.8 196.1v.3h.3v-.2h-.1v-.2c-.1.1-.1.1-.2.1zM219.9 194.9c-.1.1-.1.3-.1.3h.1v-.1h.1c0-.2-.1-.2-.1-.2zM224.2 183.8c.1 0 0 0 0 0l.1-.2h.1v-.3h-.3v-.1c-.2.1-.2.2-.3.3v.1h.1v.1c.1.1.1.3.3.1zM223.9 182.5l.1.2c.1 0 0 0 .1-.1h.3v-.3h-.3v-.1c-.2.2-.2.2-.2.3-.1 0-.2-.1 0 0zM224.8 183.1c.1-.1.1-.2.1-.3h-.3v-.1h-.1c0 .2 0 .1-.1.3h-.1v.1h.1c0 .2 0 .2.1.3.3 0 .3-.2.3-.3zM223.6 182.8c-.2.1-.2.2-.3.3v.1h.1v.1h.1s0 .1.1.1 0 0 .1-.1h.1v-.1h.1v-.3c-.3 0-.3 0-.3-.1 0 .1 0 0 0 0zM222.7 182.5c.1.1.1.2.1.3.1 0 0 0 .1-.1h.3v-.3c-.2 0-.3 0-.3-.1-.1 0-.1.1-.3.1.1 0 .1 0 .1.1 0-.1-.1-.1 0 0-.1 0-.1-.1 0 0zM223.3 181.9c.1.1.1.2.1.3.1 0 0 0 .1-.1h.3v-.3h-.3v-.1c-.1 0 0 0-.1.1h-.1v.1c0-.1-.1-.1 0 0-.1 0-.1-.1 0 0zM222.1 190.3c.2.1.3.1.3.1v-.4h-.3v.3zM222.4 182.8c-.2 0 0 0 0 0-.3.1-.3.1-.3.2s0 0 .1.1v.1h.1s0 .1.1.2c.1 0 0 0 .1-.1h.1v-.1h.1v-.3c-.3 0-.3 0-.3-.1zM220.4 196.6c-.1.1-.1.2-.1.3h.3c0-.2 0-.2-.2-.3zM220.6 189.8v-.3h-.3v.3h.1v.1c0-.1.2-.1.2-.1zM220.4 191h.3v-.3h-.3c-.1.2 0 .1 0 .3zM220.4 201.5s.2 0 0 0zM220.4 192.1h.3v-.3h-.3v.1h-.1c0 .1 0 0 .1.2zM220.4 197.8v.3h.2c0-.2 0-.2-.2-.3zM220.6 195.6c0-.2 0-.1-.1-.3h-.1v.3c0 .1 0 .1.2 0 0 0-.2 0 0 0zM224.5 181.8c0 .2 0 .2.2.2.1 0 0 0 .1-.1h.3v-.3h-.2v-.1h-.3c.2.2 0 .3-.1.3-.1.1-.2 0 0 0zM220.6 183.8c.1-.2.1-.3.1-.3h-.3v-.1h-.1v.1c-.1 0-.1 0-.3.1.1.2.2.2.3.3l.3-.1zM219.8 198.6h.3v-.1c-.2 0-.2 0-.3.1 0-.1 0-.1 0 0zM220.4 199.2h.3v-.1c-.1 0-.3 0-.3.1zM219.7 190.1v.3h.1v.1h.3v-.3c-.2-.2-.3-.2-.4-.1zM220 189.1v-.3h-.4v.3c.3.1.3.1.4 0zM219.9 192.5c-.1.2-.2.1 0 0v.2h.1l-.1-.2.2.1v-.3h-.3l.1.2zM219.6 184.2c.1.2.2.2.3.3h.1c0-.1.1-.2.3-.3-.1-.2-.2-.2-.3-.3-.2.1-.2.2-.4.3zM219.9 197.4h.3v-.1c-.2.1-.3.1-.3.1zM219.7 186.7h.4c0-.1.1-.1 0-.3l-.1-.1h-.1v-.1.1h-.1c-.1.2-.1.3-.1.4zM219.8 185.2c-.1.2-.1.3-.1.4.3 0 .3 0 .4-.1 0-.2 0-.1-.1-.3h-.2l.1-.1c0 .1 0 .1-.1.1zM220 187.8h-.4v.3h.4c0-.3.1-.3 0-.3 0 0 .1 0 0 0zM220.6 200.4s-.2 0 0 0c-.2 0-.2 0 0 0zM225.2 181.4c.2.2.2 0 0 0 .2-.1.3-.1.3-.1 0-.3 0-.3-.1-.4h-.3c0 .2-.1.3-.3.3.2.1.2.2.4.2zM231.4 182.3c-.1.2-.2.3-.3.3 0 .1 0 0 .1.1 0 .1 0 .2.2.2.1 0 0 0 .1-.1h.3v-.3c-.3-.2-.4-.2-.4-.2zM230.8 183.1c.1-.1.1-.2.1-.3h-.3v-.1h-.1c0 .2 0 .1-.1.3h-.1v.1h.1c0 .2 0 .2.1.3.3 0 .3-.2.3-.3zM232 183.4c0-.2.1-.2.3-.3v-.3h-.3v-.1h-.1v.1c-.2 0-.1 0-.3.1 0 .2.1.3.3.3l.1.2c-.2 0-.2 0 0 0zM230.9 181.7h-.3v-.1h-.1c0 .2-.1.3-.3.3 0 .1 0 0 .1.1 0 .2 0 .2.2.2.1 0 0 0 .1-.1h.3v-.4zM230.8 181.1c.1-.1.2-.1.3-.1v-.3c-.1 0-.1 0-.2-.1-.3 0-.2 0-.3.1v.1h-.1c-.1 0 0 0 .3.3-.2 0-.2 0 0 0zM231.6 182l.2.1v-.1h.3c0-.3 0-.3-.1-.4h-.3v.1h-.1c0 .1-.1.1 0 .3 0 0 0-.2 0 0zM229.8 182.5l.1.2c.1 0 0 0 .1-.1h.3v-.3h-.3v-.1c-.2.2-.2.2-.2.3 0 0-.1-.1 0 0z"/><path fill="#CFD74D" d="M231.1 181.4c.1.2.1 0 0 0 .2-.1.3-.1.3-.1 0-.3 0-.3-.1-.4h-.3c0 .2-.1.3-.3.3.2.1.3.2.4.2zM230 181.4c.1.2 0 .2 0 0h.3v-.3h-.1v-.1h-.3v.1c-.2 0-.1.1-.3.1 0 .1.1.1.1.3.2-.1.2-.1.3-.1zM233.5 181.3c.1.1.1.2.1.3.1 0 0 0 .1-.1h.3v-.4h-.3v.1l-.2.1c0-.2 0-.2 0 0 0-.1-.1-.1 0 0-.1 0-.2-.1 0 0zM234 181.9c.1.1.1.2.1.3.1 0 0 0 .1-.1h.3v-.3h-.1v-.1h-.3v.1h-.1v.1c0-.1-.1-.1 0 0-.1 0-.1-.1 0 0zM233.5 182.5c.1.1.1.2.1.3.1 0 0 0 .1-.1h.3v-.3c-.2 0-.3 0-.3-.1-.1 0 0 0-.1.1h-.1v.1c0-.1-.1-.1 0 0-.1 0-.2-.1 0 0zM234.4 183.4c.1-.2.1-.3.1-.3-.2 0-.3 0-.3-.1-.1 0 0 0-.1.1-.2 0-.2 0-.3.1 0 .1 0 0 .1.1v.1h.1s0 .1.1.2c.1 0 0 0 .1-.1l.2-.1zM232.2 181.4l.2.1v-.1h.3v-.3h-.1v-.1h-.3v.1h-.1c0 .1-.1.1 0 .3 0 0 0-.2 0 0zM232.2 182.6c.3.1.2 0 .4 0v-.3h-.3v-.1h-.1v.1h-.1c.1.1 0 .1.1.3 0 0 0-.2 0 0zM232.8 181.9c.1.1.1.2.1.3.2 0 .1-.1.3-.1v-.3h-.3v-.1.1h-.1v.1c0-.1-.1-.1 0 0-.1 0-.2-.1 0 0zM233.1 182.8c-.3.1-.3.1-.3.2s0 0 .1.1v.1h.1s0 .1.1.2h.1c0-.1 0-.1.1-.1v-.1h.1v-.3c-.3 0-.3 0-.3-.1 0 .1 0 .1 0 0zM230.1 183.8c.1 0 0 0 0 0l.1-.2h.1v-.3h-.3v-.1c-.2.1-.2.2-.3.3v.1h.1v.1c.2.1.2.3.3.1zM227.1 182.8c-.3.1-.3.1-.3.2s0 0 .1.1v.1h.1s0 .1.1.2h.1c0-.1 0-.1.1-.1v-.1h.1v-.3c-.2 0-.3 0-.3-.1 0 .1 0 .1 0 0zM226.9 181.9c.1.1.1.2.1.3.2 0 .1-.1.3-.1v-.3h-.1v-.1h-.3v.2c0-.1-.1-.1 0 0-.1 0-.2-.1 0 0zM227.5 182.5c.1.1.1.2.1.3.1 0 0 0 .1-.1h.3v-.3c-.2 0-.3 0-.3-.1-.1 0 0 0-.1.1h-.1v.1c0-.1-.1-.1 0 0-.1 0-.2-.1 0 0zM226.3 181.4l.2.1v-.1h.3v-.3h-.1v-.1h-.3v.1h-.1c0 .1-.1.1 0 .3 0 0 0-.2 0 0zM227.5 181.3c.1.1.1.2.1.3.1 0 0 0 .1-.1h.3v-.4h-.3v.1l-.2.1c0-.2 0-.2 0 0 0-.1-.1-.1 0 0-.1 0-.2-.1 0 0zM226.3 182.6c.3.1.2 0 .4 0v-.3h-.3v-.1h-.1v.1h-.1c.1.1 0 .1.1.3 0 0-.1-.2 0 0zM225.4 182.3c-.1.2-.2.3-.3.3 0 .1 0 0 .1.1 0 .1 0 .2.2.2.1 0 0 0 .1-.1h.3v-.3c-.3-.2-.4-.2-.4-.2z"/><path fill="#CFD74D" d="M226 183.4c0-.2.1-.2.3-.3v-.3h-.3v-.1h-.1v.1c-.2 0-.1 0-.3.1 0 .2.1.3.3.3l.1.2zM225.7 182l.2.1v-.1h.3v-.3h-.3v-.1h-.1v.1h-.1c0 .1-.1.1 0 .3 0 0-.1-.2 0 0zM228.1 181.8c-.1.2-.1.1 0 .2v.1h.1v.2c.1 0 0 0 .1-.1h.3v-.3h-.3v-.1c-.2-.1-.1-.1-.2 0zM228.1 180.6c.1.2.1.2.1.3.1 0 0 0 .1-.1h.3v-.3h-.1v-.1h-.3v.1h-.1v.1c0-.1-.1-.1 0 0-.1.1-.2 0 0 0zM228.7 181.3c.1.1.1.2.1.3.1 0 0 0 .1-.1h.3v-.3h-.1v-.1h-.3v.1l-.1.1c0-.2 0-.2 0 0 0-.1-.1-.1 0 0-.1 0-.2-.1 0 0zM229.3 181.9c.1.1.1.2.1.3.1 0 0 0 .1-.1h.3v-.3h-.1v-.1h-.3v.1h-.1v.1c0-.1-.1-.1 0 0-.1 0-.2-.1 0 0zM229.3 180.6c.1.2.1.2.1.3.1 0 0 0 .1-.1h.3v-.3h-.1v-.1h-.3v.1h-.1v.1c0-.1-.1-.1 0 0-.1.1-.2 0 0 0zM228.7 182.5c.1.1.1.2.1.3.1 0 0 0 .1-.1h.3v-.3c-.2 0-.3 0-.3-.1-.1 0-.1.1-.3.1.1 0 .1 0 .1.1 0-.1-.1-.1 0 0-.1 0-.2-.1 0 0zM229 183.8l.1-.2h.1v-.3c-.2 0-.3 0-.3-.1-.1 0-.2.1-.3.3h-.1v.1h.1v.1c.2.1.2.3.4.1zM223.4 191.4c.1.1 0 .2.2.2l.1-.1v-.3h-.3v.2zM228.4 182.8c-.2 0 0 0 0 0-.3.1-.3.1-.3.2s0 0 .1.1v.1h.1s0 .1.1.2c.1 0 0 0 .1-.1h.1v-.1h.1v-.3c-.3 0-.3 0-.3-.1zM223 183.8l.1-.2h.1v-.3c-.2 0-.3 0-.3-.1-.1 0-.2.1-.3.3h-.1v.1h.1v.1c.2.1.2.3.4.1zM222.2 198.6h.3v-.1c-.1 0-.1 0-.3.1 0-.1 0-.1 0 0zM223.6 185.4l-.1-.2c-.1 0 0 0-.1.1h-.1c0 .3.1.3.1.4.1 0 0 0 .1-.1.2 0 .2-.1.3-.1-.1-.1-.1-.1-.2-.1zM223 197.8c-.1.1-.1.2-.1.3h.2v-.1h-.1v-.2zM223 196.7c0-.1 0-.1 0 0-.1 0-.1.1-.1.2h.3v-.2h-.2zM222.4 196.1c-.1 0-.1.1-.1.2h.3v-.2h-.2zM222.8 199.2h.3v-.1c-.1 0-.1 0-.3.1zM223.7 186.5l-.2-.1v-.1c-.1 0 0 0-.1.1h-.1v.3h.3c.1 0 .1-.1.1-.2 0 .1 0 .1 0 0 0 .1 0 .1 0 0zM222.5 185.4l-.2-.1v-.1c-.1 0 0 0-.1.1h-.1v.3c.3-.1.3-.1.4-.2zM222.2 197.4h.3v-.1c-.1.1-.1.1-.3.1zM223 184.7c-.2 0-.2-.1-.3-.1l-.1.1v.1h-.1v.1c.2 0 .3.1.3.3.1 0 .2-.1.3-.3h.1v-.1l-.2-.1c0 .1 0 .1 0 0zM223.3 184.4c.2 0 .1.1.3.1l.1-.1v-.1h.1v-.1h-.1v-.1c-.2 0-.2-.1-.3-.1l-.1.1v.1h-.1l.1.2zM222.2 193.9c.2 0 0 0 0 0l.2-.1c0-.1-.1-.1-.1-.3-.1 0 0 0-.1.1h-.1c0 .1 0 0 .1.1v.2zM222.2 199.8c.2 0 .2 0 0 0zM222.8 200.4c.2 0 .2 0 0 0 .2 0 .2 0 0 0 .2 0 .2 0 0 0zM223 188.3h-.3v.3h.3v-.2h.1l-.1-.1zM223 195.5c-.1.1-.1.3-.1.3.1 0 0 0 .1-.1h.1v-.1l-.1-.1zM222.4 201c0-.1 0-.1 0 0-.2 0-.3-.1 0 0zM222.7 194.4c.1.1.1.2.1.3.1 0 0 0 .1-.1h.1c0-.1-.1-.1-.1-.3-.1.1-.1.1-.2.1zM223.4 199.8c.2 0 .2 0 0 0 .2 0 .2 0 0 0 .2 0 .2 0 0 0zM222.4 194.9c-.1.1-.1.3-.1.3.1 0 0 0 .1-.1h.1v-.1l-.1-.1zM223.4 192.5c-.1 0-.1 0 0 0v.3c.1 0 0 0 .1-.1h.1v-.3c0 .1-.2.1-.2.1zM222.6 190.9c.2 0 .2.1.3.1v-.3h-.3v.2zM223 185.9c-.2-.1-.1-.1-.2 0h-.1v.3h.1v.1c.1 0 0 0 .1-.1h.1v-.1h.1v-.1l-.1-.1zM222.2 192.5c-.1.2-.1.1 0 0v.3c.1 0 .1-.1.3-.1v-.3c-.1.1-.1.1-.3.1zM222.1 189.2h.3v-.3h-.3v.3zM222.5 187.8h-.3v.3h.3v-.3l.1.1c0-.1 0-.1-.1-.1zM222.2 191.4c.1.1.1.2.3.2v-.3h-.3v.1zM234.8 183.8c.2 0 0 0 0 0l.1-.2h.1v-.3c-.2 0-.3 0-.3-.1-.1 0-.2.1-.3.3h-.1v.1h.1v.1c.4.1.4.3.4.1zM223.6 197.3c0-.1 0-.1 0 0-.1 0-.1.1-.1.2h.3v-.2h-.2zM223.6 193.7c-.1 0-.1.1-.3.1 0 .1 0 0 .1.1v.1c.1 0 0 0 .1-.1h.1v-.2c0 .1 0 .1 0 0zM223.6 196.1c-.1 0-.1.1-.1.2h.3v-.2h-.2zM223 201.5s-.2 0 0 0zM223.4 198.6h.3v-.1c-.1 0-.1 0-.3.1 0-.1 0-.1 0 0zM222.8 193.3c.1 0 .1-.1.3-.1v-.3c-.3 0-.2.1-.3.1-.1.2-.1.2 0 .3zM223 189.5h-.3v.3h.3v-.3zM222.8 192.1h.3v-.3h-.3v.1h-.1c0 .1 0 .1.1.2zM223.6 194.9c-.1.1-.1.3-.1.3.1 0 0 0 .1-.1h.1v-.1l-.1-.1zM220.6 187.1h-.2v.3c.3 0 .3-.1.4-.1-.1-.2-.2-.2-.2-.2zM221 192.5c0 .2-.1.1 0 0v.2h.1c0-.2.1-.1.1-.3 0 .1-.2.1-.2.1zM221 191.4v.2c.2 0 .1 0 .3-.1v-.3h-.3v.2zM221 198.6h.3v-.1c-.1 0-.2 0-.3.1 0-.1 0-.1 0 0zM221 197.2v.3h.3c0-.2-.1-.1-.1-.3h-.2zM221.1 196.1c-.1 0-.1 0 0 0-.1.1-.1.2-.1.3h.3c-.1-.3-.1-.3-.2-.3zM220.9 187.8v.3h.3v-.1h.1c0-.1-.1-.1-.1-.3-.1.1-.2.1-.3.1zM222.5 186.5l-.2-.1v-.1c-.1 0 0 0-.1.1h-.1v.3h.3c.1 0 .1-.1.1-.2 0 .1 0 .1 0 0 0 .1 0 .1 0 0zM220.9 189c.2.1.3.1.3.1v-.3h-.3v.2zM220.9 190.3c.2.1.3.1.3.1v-.4h-.3v.3zM220.6 194.3l-.2.1c0 .1 0 0 .1.1v.1h.1v-.3c0 .1 0 .1 0 0zM220.6 185.8c-.2 0-.2-.2 0 0-.1.1-.2.1-.2.1v.3h.1v.1h.1c0-.2.1-.3.2-.3v-.1h-.1c-.1 0-.1 0-.1-.1zM220.3 188.3v.3h.3v-.1h.1c0-.1-.1-.1-.1-.3 0 .1-.2.1-.3.1zM220.9 186.7c.3 0 .3 0 .4-.1v-.1h-.1c0-.2 0-.2-.1-.3-.1 0 0 0-.1.1h-.1v.4zM220.4 193.2s-.1 0 0 0v.2h.1c0-.2.1-.2.1-.3h-.3c.1 0 .1 0 .1.1zM221 194.9v.3h.1c0-.1 0-.1.1-.1 0-.2 0-.2-.2-.2zM221.1 199.8s-.1 0 0 0c-.1 0-.1 0 0 0zM221 193.9c.1-.2.2-.2.2-.2l-.1-.1h-.1v.1h-.1c.1.1.1.1.1.2zM220.6 184.6c-.2.1-.2.2-.3.3 0 .2 0 .1.1.3h.1v.1h.1v-.2c.1 0 0 0 .1-.1h.1v-.1h-.1c-.1-.2-.1-.2-.1-.3zM220.9 185.3v.3h.1v.1h.1v-.1c.1 0 0 0 .1-.1h.1v-.1h-.1c0-.2 0-.2-.1-.3l-.2.2c.1 0 .1 0 0 0zM221.6 194.4c-.1 0-.1 0 0 0v.3c.1 0 0 0 .1-.1h.1c0-.2-.1-.2-.2-.2 0 0 0-.1 0 0zM221.6 193.2c-.1 0-.1 0 0 0v.3c.1 0 .1-.1.3-.1v-.3c-.1 0-.2 0-.3.1 0-.1 0-.1 0 0zM221.8 188.3h-.3v.3h.3v-.2h.1l-.1-.1zM221.6 196.7c0-.1 0-.1 0 0-.1 0-.1.1-.1.2h.3v-.2h-.2zM221.7 195.5c-.1 0-.1 0 0 0-.1.1-.1.3-.1.3.1 0 0 0 .1-.1h.1v-.1l-.1-.1zM222.1 184.4c.2 0 .1.1.3.1l.1-.1v-.1h.1v-.1h-.1v-.1c-.2 0-.2-.1-.3-.1l-.1.1v.1h-.1l.1.2zM221.5 185.9v.3h.3v-.2h.1v-.1h-.1v-.1h-.1v-.1c-.1 0 0 0-.1.1l-.1.1zM221.2 184c-.2 0-.1 0-.3.1v.2h.1v.1c.1 0 .1 0 .1.1.2 0 .1 0 .3-.1v-.1h.1v-.1h-.1c-.2-.1-.2 0-.2-.2zM221.5 187.3h.3v-.2h.1v-.1h-.1v-.1h-.1v-.1c-.1 0 0 0-.1.1h-.1v.4zM221.9 184.8c-.2 0-.2-.1-.3-.1l-.1.1v.1h-.1v.1c.1 0 .1 0 .1.1h.1v.2c.2-.1.2-.2.3-.3v-.2zM221.5 190.9c.2 0 .2.1.3.1v-.3h-.3v.2zM221.6 197.9h.3v-.1c-.2.1-.3.1-.3.1zM221.8 189.5h-.3v.3h.3v-.3zM221.5 183.8c.2 0 .1.1.3.1l.1-.1v-.1h.1v-.3c-.2 0-.3 0-.3-.1-.1 0 0 0-.1.1-.2 0-.2 0-.3.1 0 .1 0 0 .1.1s.1.2.1.2zM221.6 192.1h.3v-.3h-.3v.1h-.1c0 .1 0 0 .1.2zM221.7 201.5c-.1 0-.1 0 0 0zM221.6 199.2h.3v-.1c-.2 0-.3 0-.3.1zM221.6 200.4c.1 0 .1 0 0 0zM229.6 182.8c-.2.1-.2.2-.3.3v.1h.1v.1h.1s0 .1.1.1 0 0 .1-.1h.1v-.1h.1v-.3c-.3 0-.3 0-.3-.1 0 .1 0 0 0 0zM215.6 199.2h.3v-.1c-.1 0-.1 0-.3.1zM216.3 197.3c0-.1 0-.1 0 0-.1 0-.1.1-.1.2h.3v-.2h-.2zM215.8 196.7c0-.1 0-.1 0 0-.1 0-.1.1-.1.2h.3v-.2h-.2zM215.8 197.8c-.1.1-.1.2-.1.3h.2v-.1h-.1v-.2zM215.8 195.5c-.1.1-.1.3-.1.3.1 0 0 0 .1-.1h.1v-.1l-.1-.1zM216.2 199.8c.1 0 .1 0 0 0 .1 0 .1 0 0 0 .1 0 .1 0 0 0zM216.2 198.6h.3v-.1c-.1 0-.2 0-.3.1 0-.1 0-.1 0 0zM216.2 193.9c.1 0 0 0 0 0l.2-.1c0-.1-.1-.1-.1-.3-.1 0 0 0-.1.1h-.1c0 .1 0 0 .1.1v.2zM215.8 193.2c-.2 0-.3 0 0 0v.3c.1 0 .1-.1.3-.1v-.3c-.2 0-.3 0-.3.1 0-.1 0-.1 0 0zM215.8 194.4c-.2 0-.3 0 0 0v.3c.1 0 0 0 .1-.1h.1c-.1-.2-.2-.2-.2-.2-.2 0 0-.1 0 0zM215 198.6h.3v-.1c-.1 0-.2 0-.3.1 0-.1 0-.1 0 0zM215.8 200.4zM215.2 199.8s-.1 0 0 0c-.1 0-.2 0 0 0zM215 194.9v.3h.1c0-.1 0-.1.1-.1 0-.2 0-.2-.2-.2.1 0 .1 0 0 0zM215 197.4h.3v-.1c-.1.1-.2.1-.3.1zM215.1 196.1c-.1.1-.1.2-.1.3h.3c0-.3-.1-.3-.2-.3zM215.8 201.5s-.2 0 0 0zM215.6 192.1h.3v-.3h-.3v.1h-.1c0 .1 0 0 .1.2zM216.3 196.1c-.1 0-.1.1-.1.2h.3v-.2h-.2zM217.1 192.1v-.3h-.3v.1h-.1c0 .1.1.1.1.3.1-.1.2-.1.3-.1zM217.1 193.2v-.3c-.3 0-.2.1-.3.1 0 .1.1.1.1.3.1-.1.1-.1.2-.1zM217.1 190.7h-.3v.3c.2 0 .2.1.3.1v-.4zM217 201.5c-.1 0-.2 0 0 0zM216.9 200.4c.1 0 .1 0 0 0zM216.9 196.7c0-.1 0-.1 0 0-.1 0-.1.1-.1.2h.3v-.2h-.2zM234.7 182.5c.1.1.1.2.1.3.1 0 0 0 .1-.1h.3v-.3c-.2 0-.3 0-.3-.1-.1 0-.1.1-.3.1.1 0 .1 0 .1.1 0-.1-.1-.1 0 0-.1 0-.2-.1 0 0zM217.1 189.5h-.3v.3h.3v-.3zM215 193.9c.1-.2.2-.2.2-.2l-.1-.1h-.1v.1h-.1c0 .1 0 .1.1.2zM216.8 199.2h.3v-.1c-.1 0-.2 0-.3.1zM216.2 192.5c-.1.2-.1.1 0 0v.3c.1 0 .1-.1.3-.1v-.3c-.1.1-.2.1-.3.1zM216.1 190.3c.2.1.3.1.3.1v-.4h-.3v.3zM216.2 191.4c.1.1 0 .2.2.2l.1-.1v-.3h-.3v.2zM216.4 194.9c-.1 0-.1 0 0 0-.1.1-.1.3-.1.3.1 0 0 0 .1-.1h.1v-.1c-.2-.1-.1-.1-.1-.1zM218.2 187.2c.1 0 .1 0 0 0 .1-.1 0-.1 0 0v-.2h-.1v-.1c-.1 0 0 0-.1.1h-.1v.3c.1 0 .3 0 .3-.1 0 .1 0 .1 0 0zM218.8 186.6c.1 0 .1 0 0 0 .1-.1 0-.1 0 0v-.2h-.1v-.1h-.1c0 .1 0 .1-.1.1v.3h.3v-.1zM218.8 188.9h-.3c0 .2.1.2.1.3h.3c-.1-.2-.1-.3-.1-.3zM218.8 190.3v-.3h-.3c0 .3.1.3.1.4.2 0 .2 0 .2-.1zM214.7 196.8c0-.1 0-.2-.2-.3h-.1v.3h.3zM227.8 180.4s-.1 0 0 0c-.1 0 0 0 0 0zM228.7 180.4h.3v-.1c0-.1-.2-.1-.3.1zM230.2 180.4c-.1-.1-.2-.1-.3-.1v.1h.3zM227 180.5l-.2.1c0 .1 0 0 .1.1v.1h.1v.1h.1v-.1h.3v-.3h-.1v-.1c-.1.1-.1.1-.3.1.1 0 .1 0 0 0zM222.7 181.4c.1 0 .1.1.1.2.1 0 0 0 .1-.1h.3v-.3c-.2 0-.2.1-.5.2zM231.1 180.4c.1 0 .1 0 0 0zM224.1 181.1c-.2 0-.1.1-.3.1 0 .1.1.1.1.3h.1v.1c.1 0 0 0 .1-.1h.3v-.3h-.1v-.1h-.2zM224.6 181.1c.2-.1.3-.1.3-.1v-.1c-.1-.1-.1.1-.3.2 0-.1 0-.1 0 0zM225.6 180.7c.1.1 0 0 0 0l.2.1v.1h.1v-.1h.3v-.3c-.2 0-.4.1-.6.2 0-.1 0-.1 0 0zM236.9 182.4c0 .1 0 0 0 0 .1.2.1.3.3.3.1 0 0 0 .1-.1h.3v-.2c-.1-.1-.3-.1-.3-.2-.3.2-.3.2-.4.2zM231.8 180.5c-.1.2-.2.2-.2.3l.1.1h.1v.1h.4c0-.2 0-.3-.1-.3-.1-.2-.1-.2-.3-.2zM221.4 182.2s0-.2 0 0c-.1 0-.1 0 0 0zM236.5 182.2c.3 0 .1.1 0 0 0-.1-.1-.2-.2-.2.1 0 .1 0 .2.2zM242 187.3c-.1-.1-.1-.2-.2-.3v.3h.2zM241.2 186.5v.3h.3v-.1c-.1-.1-.1-.2-.3-.2.1 0 0 0 0 0zM232.8 180.6c-.1.1-.2 0 0 0v.2h.1v.1h.1v-.1h.3v-.1c-.2 0-.3-.1-.5-.1zM236.4 181.8c-.1 0-.1 0 0 0zM234.7 181.2c-.1.1-.2 0 0 0v.2h.1v.2c.1 0 0 0 .1-.1h.3v-.1c-.2-.1-.4-.2-.5-.2 0-.1 0 0 0 0zM220.4 182.8c.2 0 .1-.1.3-.1v-.2c-.1 0-.1.1-.3.3zM214.6 195.6c0-.2 0-.1-.1-.3.1.2.1.3.1.3zM214.6 197.9h.2c0-.1 0-.1-.1-.3h-.1v.1c-.2.2 0 .2 0 .2zM242.4 188.9c0 .2.1.2.1.3h.3v-.3h-.4zM217 195.5c-.1 0-.1 0 0 0-.1.1-.1.3-.1.3.1 0 0 0 .1-.1h.1v-.1l-.1-.1zM244.3 200.4zM244.2 199.1c0 .1 0 .1 0 0 .1.1.2.1.2.1v-.1h-.2zM243 189.8h.2c-.1-.1-.1-.2-.2-.3v.3zM243.6 191.4v.2h.1c0-.1-.1-.2-.1-.3v.1zM244.3 194.3c-.1.2-.1.1 0 .2v.1h.1c-.1-.2-.1-.2-.1-.3zM214.7 199.1c-.1 0-.1 0 0 0-.1 0-.1.1 0 0-.1.1 0 .1 0 0 0 .1 0 0 0 0zM219 184.4c0-.1 0-.1 0 0 0-.1 0-.1 0 0zM219.5 183.7c-.1 0-.1.1-.2.2.1-.1.1-.2.2-.2zM219.9 183.4c.1-.1.2-.1.3-.2v-.3l-.1.1c0-.1-.1 0-.2.4zM217.9 186.1c.2.1.1.1.2 0h.1v-.1h.1v-.1h-.1v-.1h-.1v-.1c-.1 0 0 0-.1.1h-.1v.3zM217.7 186.7v-.2h.1v-.1h-.1v-.1c-.1.1-.2.3-.2.3.1.1.1.1.2.1zM215.9 191v-.3h-.3c0 .1-.1.2-.1.3.3-.1.3 0 .4 0zM216.2 189c.1.1.2.1.3.1v-.3h-.2c0 .1 0 .2-.1.2zM215 192.5c0 .1 0 .1 0 0 0 .1 0 .1 0 0v.2h.1c0-.2.1-.1.1-.3h-.3l.1.1zM216.8 197.9h.3v-.1c-.1.1-.2.1-.3.1zM244.6 195.6c0-.2 0-.1-.1-.3h-.1v.3c-.1.1-.1.1.2 0-.2 0-.3 0 0 0zM219.5 187.3c0-.2.1-.1 0-.3l-.1-.1h-.1v-.1h-.1c0 .2-.1.3-.1.4.2.1.2.1.4.1zM219.1 184.8l-.1.2c.2 0 .1 0 .3.1v.1h.1v-.1c.2 0 .1 0 .3-.1-.1-.2-.2-.2-.3-.3-.2 0-.2 0-.3.1zM219.3 185.8c0 .1 0 .1 0 0-.1.2-.1.3-.1.4h.3c0-.2.1-.1 0-.3-.1-.1 0 0-.2-.1 0 .1 0 0 0 0zM244.3 196.6c-.1.1-.1.2-.1.3h.3c.1-.2.1-.2-.2-.3zM243.8 199.8s-.1 0 0 0c-.1 0-.2 0 0 0zM219.5 188.3h-.3v.3h.3c0-.2.1-.2 0-.3 0 0 0 .1 0 0zM243.6 201c0-.1 0-.1 0 0zM244.4 197.8c-.1.1-.1.2-.1.3h.2c-.1-.2-.1-.2-.1-.3zM219.2 197.8v.3h.3v-.1h-.1v-.1c-.1-.1-.1-.1-.2-.1zM219.3 201.5c0 .1-.1 0 0 0zM219.1 189.8h.3v-.3h-.3v.3zM243.6 198.6h.3v-.1c-.1 0-.2 0-.3.1 0-.1 0-.1 0 0zM219.2 199.2h.3v-.1c-.2 0-.2 0-.3.1zM219.3 200.4s-.1 0 0 0zM219.1 190.7c0 .2 0 .3.1.3h.3v-.3h-.4zM219.1 192c.1.1 0 0 0 0 .2.1.3.1.3.1v-.3h-.3c.1.2 0 .2 0 .2zM219.1 193.2c.1.1 0 0 0 0l.2.1v-.1h.1v-.3h-.3c.1.3 0 .3 0 .3zM243.6 192.6h.2v-.3h-.3c.1.2.1.2.1.3 0-.1 0-.1 0 0zM241 192.1v-.3h-.3v.1h-.1c0 .1.1.1.1.3.1-.1.3-.1.3-.1zM237.7 183.2c.1-.1.2-.1.3-.2v-.3h-.3v-.1h-.1v.1c-.2 0-.1 0-.3.1.2.3.2.4.4.4zM240.4 186.6c0-.1 0-.1 0 0v-.2h-.1v-.1c-.1 0 0 0-.1.1h-.2v.3h.3c.1 0 .1-.1.1-.1zM240.1 185.6c.2-.1.2-.2.3-.3v-.1h-.1v-.1h-.1v-.1c-.1 0 0 0-.1.1h-.1c.1.3.1.4.1.5zM236.3 183.1c.1.2.1.2.2.3.1 0 .2-.2.3-.3h.1v-.3h-.3v-.1h-.1l-.2.4c0-.1 0-.1 0 0zM235.2 181.9c.1.1.1.2.1.3.1 0 0 0 .1-.1h.3v-.3h-.3v-.1c-.1 0 0 0-.1.1h-.1v.1c0-.1-.1-.1 0 0 0 0-.1-.1 0 0zM235.4 182.8c-.2.1-.2.2-.3.3v.1h.1v.1h.1s0 .1.1.1 0 0 .1-.1h.1v-.1h.1v-.3c-.1 0-.3 0-.3-.1 0 .1 0 0 0 0zM235.9 182.5l.1.2c.1 0 0 0 .1-.1h.3v-.3h-.3v-.1c-.2.2-.2.2-.2.3-.1 0-.2-.1 0 0zM236.1 183.8c.1 0 0 0 0 0l.1-.2h.1v-.3h-.3v-.1c-.2.1-.2.2-.3.3v.1h.1v.1c.1.1.1.3.3.1zM219.4 196.8c0-.1 0 0 0 0-.1-.1-.1-.2-.1-.3h-.1v.3h.2zM243.8 197.3c-.1 0-.1.1-.1.2.1 0 .2 0 .3-.1 0-.1 0 0-.2-.1zM241 190.7h-.3v.3c.2 0 .2.1.3.1v-.4zM243.6 194.9v.3h.1v-.1h.1c0-.2-.1-.2-.2-.2.1 0 .1 0 0 0zM243.7 196.1c-.1 0-.1.1-.1.2h.3v-.2h-.2zM243.6 193.8c.1 0 .1 0 0 0h.2v-.1l-.2.1.1-.2h-.1v.2zM216.7 194.4c.1.1.1.2.1.3.1 0 0 0 .1-.1h.1c0-.1-.1-.1-.1-.3 0 .1 0 .1-.2.1zM241 189.5h-.3v.3h.3v-.3zM241 187.2c0-.1 0-.1 0 0v-.2h-.1v-.1c-.1 0 0 0-.1.1h-.1v.3s.3 0 .3-.1c0 .1 0 .1 0 0zM241 186v-.2h-.1v-.1c-.1 0 0 0-.1.1h-.1v.3h.3v-.1zM218.2 196.7c0-.1 0-.1 0 0-.1 0-.1.1-.1.2h.3v-.2h-.2zM217.3 189.2h.3v-.3h-.3v.3zM217.3 190.3c.2.1.3.1.3.1v-.4h-.3v.3zM217.4 191.4c.1.1.1.2.3.2v-.3h-.3v.1zM218.1 197.8v.3h.2v-.1h-.1c0-.1 0-.2-.1-.2zM218.2 201.5c-.1 0-.2 0 0 0zM217.4 192.5v.3c.1 0 0 0 .1-.1h.1v-.3c0 .1-.2.1-.2.1zM218.1 199.2h.3v-.1c-.2 0-.2 0-.3.1zM218.1 200.4c.1 0 .1 0 0 0zM217.7 187.8h-.3v.3h.3v-.3l.1.1-.1-.1zM217.6 193.7c-.1 0-.1.1-.3.1 0 .1 0 0 .1.1v.1c.1 0 0 0 .1-.1h.1v-.2c0 .1 0 .1 0 0zM217.6 201c0-.1 0-.1 0 0 0 0-.2-.1 0 0zM217.1 188.3h-.3v.3h.3v-.2h.1c-.1 0-.1 0-.1-.1zM217.4 198.6h.3v-.1c-.1 0-.1 0-.3.1 0-.1 0-.1 0 0zM217.6 199.8zM217.4 197.4h.3v-.1c-.1.1-.1.1-.3.1zM217.6 194.9c-.1.1-.1.3-.1.3.1 0 0 0 .1-.1h.1v-.1l-.1-.1zM217.6 196.1c-.1 0-.1.1-.1.2h.3v-.2h-.2zM217.9 190.9c.2 0 .2.1.3.1v-.3h-.3v.2zM218.2 195.5c-.1.1-.1.3-.1.3.1 0 0 0 .1-.1h.1v-.1l-.1-.1zM218.8 194.9v.3c.1 0 0 0 .1-.1h.1l-.2-.2zM218.8 193.7c-.1.2-.2.2-.2.3l.1.1h.1v-.2h.1c-.1-.1-.1-.1-.1-.2 0 .1 0 .1 0 0zM218.8 196.1c-.1 0-.1.1-.1.2h.3v-.2h-.2zM219.2 194.3c0 .2-.1.2-.1.3l.1.1h.1v-.2h.1v-.1l-.2-.1c.1 0 .1 0 0 0zM218.6 198.6h.3v-.1c-.1 0-.1 0-.3.1 0-.1 0-.1 0 0zM218.8 185.4l-.1-.2h-.1c0 .1 0 .1-.1.1 0 .3 0 .3.1.4h.1v-.2c.2 0 .2-.1.3-.1h-.2zM218.8 187.8h-.3v.3h.3v-.3l.1.1c0-.1 0-.1-.1-.1zM218.6 192.6c.2.1 0 0 0 0l.2.1v-.1h.1v-.3h-.3c.2.2 0 .2 0 .3zM218.1 193.3c.1 0 0 0 0 0l.2-.1v-.3c-.3 0-.2.1-.3.1 0 .2.1.2.1.3zM219.4 195.6c0-.2-.1-.1-.1-.3h-.1v.3c.1.1.1.1.2 0zM218.1 191.9c-.1.1 0 .1 0 .3h.3v-.3h-.3zM218.8 199.8s-.2 0 0 0zM218.2 194.3c-.1 0-.1.1-.3.1 0 .1 0 0 .1.1v.1c.1 0 0 0 .1-.1h.1v-.2c0 .1 0 .1 0 0zM217.9 189.8h.3v-.3h-.3v.3zM218.8 191.6v-.3h-.3c0 .1 0 .1-.1.1 0 .2 0 .1.1.3l.3-.1zM218.2 188.3h-.3v.3h.3v-.2h.1l-.1-.1zM218.8 197.3c-.1 0-.1.1-.1.2h.3l-.2-.2zM236 195.5c-.1.1-.1.3-.1.3.1 0 0 0 .1-.1h.1v-.1c-.1-.1 0-.1-.1-.1zM235.9 190.9c.2 0 .2.1.3.1v-.3h-.3v.2zM236.2 188.3h-.3v.3h.3v-.2h.1l-.1-.1zM236.8 195c0-.2-.1-.1-.1-.3h-.1v.3c0 .1-.1.1.2 0zM236 194.3c-.1 0-.1.1-.3.1 0 .1 0 0 .1.1v.1c.1 0 0 0 .1-.1h.1v-.2c0 .1 0 .1 0 0zM236 193.3c.1 0 0 0 0 0l.2-.1v-.3c-.3 0-.2.1-.3.1 0 .2 0 .2.1.3zM235.4 194.9c-.1.1-.1.3-.1.3.1 0 0 0 .1-.1h.1v-.1c-.1-.1.1-.1-.1-.1zM236.5 184.6c.2 0 .3-.1.3-.3h.1v-.1c-.2 0-.3-.1-.3-.3-.2 0-.1 0-.3.1v.1h-.1v.1h.1l.2.4zM237.8 193.8l-.2.1c0 .1 0 0 .1.1v.1h.1v-.1h.1c.1-.2.1-.2-.1-.2zM236.9 186.5l-.2-.1v-.1h-.1c0 .1 0 .1-.1.1v.3h.3c.1 0 .1-.1.1-.2-.1.1-.1.1 0 0 0 .1 0 .1 0 0zM236.5 193.7c0 .2-.1.2-.1.3l.1.1h.1v-.2h.1v-.1l-.2-.1zM236.8 191.6v-.3h-.3c0 .1 0 .1-.1.1 0 .2 0 .1.1.3.1-.1.3-.1.3-.1zM236.8 188.9h-.3v.3h.3v-.3zM236.8 185.4l-.1-.2h-.1c0 .1 0 .1-.1.1v.3c.3-.1.3-.1.3-.2 0 0 .1 0 0 0zM235.9 189.8h.3v-.3h-.3v.3zM235.2 189c.2.1.3.1.3.1v-.3h-.3v.2zM235.2 190.3c.2.1.3.1.3.1v-.4h-.3v.3zM235.6 187.8h-.3v.3h.3v-.3l.1.1c0-.1 0-.1-.1-.1zM235.3 192.5v.3c.1 0 0 0 .1-.1h.1v-.3c-.1.1-.2.1-.2.1zM235.4 193.7c-.1 0-.1.1-.3.1 0 .1 0 0 .1.1v.1c.1 0 0 0 .1-.1h.1v-.2c0 .1 0 .1 0 0zM235.3 191.4c.1.1 0 .2.2.2l.1-.1v-.3h-.3v.2zM235.9 185c.1 0 0 0 0 0 .3-.1.3-.2.3-.2 0-.1 0 0-.1-.1v-.1c-.2 0-.2-.1-.3-.1l-.1.1v.1h-.1v.1c.3.1.3.1.3.2zM236 201.5s-.1 0 0 0zM235.9 200.4c.1 0 .1 0 0 0 .1 0 .1 0 0 0 .1 0 .1 0 0 0zM235.9 199.2h.3v-.1c-.1 0-.2 0-.3.1zM235.9 197.8v.3h.2v-.1h-.1c0-.1 0-.2-.1-.2.1 0 .1 0 0 0zM236 196.7c0-.1 0-.1 0 0-.1 0-.1.1-.1.2h.3v-.2h-.2zM236.3 186l-.2-.1v-.1c-.1 0 0 0-.1.1h-.1v.3h.3c.1 0 .1-.1.1-.2-.1 0-.1 0 0 0zM236.3 187.1l-.2-.1c-.1 0 0 0-.1.1h-.1v.3h.3c.1 0 .1-.1.1-.3-.1.1-.1.1 0 0zM235.9 191.9c-.1.1 0 .1 0 .3h.3v-.3h-.3zM237.1 185.8c0 .1 0 .1 0 0-.1.3-.1.4 0 .5h.1v-.1h.1c0-.2.1-.2.1-.3l-.1-.1h-.2c.1.1.1 0 0 0 .1 0 .1 0 0 0zM237 184.8l-.1.2c.2 0 .1 0 .3.1v.1h.1v-.1c.2 0 .1 0 .3-.1-.1-.2-.2-.2-.3-.3-.3 0-.2 0-.3.1zM237.4 188.3h-.3v.3h.3c0-.2.1-.2 0-.3 0 0 0 .1 0 0zM237.4 187.3c0-.2.1-.1 0-.3l-.1-.1h-.1v-.1h-.1c0 .2-.1.3-.1.4.1.1.4.1.4.1zM237 189.8h.3v-.3h-.3v.3zM237 192c.1.1 0 0 0 0 .2.1.3.1.3.1v-.3h-.3c.1.2 0 .2 0 .2zM237 190.7c0 .2 0 .3.1.3h.3v-.3h-.4zM237.7 194.9v.3h.1v-.1h.1c.1-.2-.1-.2-.2-.2zM237.8 197.3c-.1 0-.1.1-.1.2.1 0 .2 0 .3-.1 0-.1 0 0-.2-.1zM237.8 196.1c-.1 0-.1.1-.1.2h.3v-.2h-.2zM237 193.2c.1.1 0 0 0 0l.2.1v-.1h.1v-.3h-.3c.1.3 0 .3 0 .3zM237.8 199.8s-.1 0 0 0c-.1 0-.1 0 0 0zM237.7 198.6h.3v-.1c-.2 0-.3 0-.3.1 0-.1 0-.1 0 0zM237.2 183.4c-.1.2-.1.1-.2.3h-.1v.1h.1c0 .2 0 .1.1.3.2-.1.2-.2.3-.3v-.3l-.2-.1zM236.8 187.8h-.3v.3h.3v-.3l.1.1c0-.1 0-.1-.1-.1zM236.4 196.2h.3v-.2h-.1v-.1h-.1c-.1.2-.1.3-.1.3zM236.4 198.6h.3v-.1c-.1 0-.2 0-.3.1 0-.1 0-.1 0 0zM236.4 192.6c.1.1 0 0 0 0l.2.1v-.1h.1v-.3h-.3c.1.2 0 .2 0 .3zM236.5 197.4h.2s0-.1.1-.1c0 .1-.2.1-.3.1zM236.6 201c-.1 0-.2-.1 0 0zM236.6 199.8s-.1 0 0 0c-.1 0-.2 0 0 0zM237.2 201.5c-.1.1-.2 0 0 0zM237.1 199.2h.3v-.1s-.2 0-.3.1zM237.1 197.8v.3h.3v-.1h-.1v-.1c-.1-.1-.2-.1-.2-.1zM237.2 200.4s-.1 0 0 0c-.1 0-.2 0 0 0zM237.1 194.3c0 .2-.1.2-.1.3l.1.1h.1v-.2h.1v-.1l-.2-.1zM237.4 195.6c0-.2-.1-.1-.1-.3h-.1v.3c0 .1-.1.1.2 0zM237.4 196.8c0-.1 0 0 0 0-.1-.1-.1-.2-.1-.3h-.1v.3h.2zM236.5 190.4h.3v-.3h-.3c-.1.1-.1.1 0 .3zM233.4 185.9v.3h.3v-.2h.1v-.1h-.1v-.1h-.1v-.1c-.1 0 0 0-.1.1 0 .1 0 .1-.1.1zM234 184.4c.2 0 .1.1.3.1l.1-.1v-.1h.1v-.1h-.1v-.1c-.2 0-.2-.1-.3-.1l-.1.1v.1h-.1l.1.2zM233.8 184.8c-.2 0-.2-.1-.3-.1l-.1.1v.1h-.1v.1c.1 0 .1 0 .1.1h.1v.2c.2-.1.2-.2.3-.3v-.2zM233.4 187.3h.3v-.2h.1v-.1h-.1v-.1h-.1v-.1c-.1 0 0 0-.1.1h-.1v.4zM233.6 194.4c-.1 0-.2 0 0 0v.3c.1 0 0 0 .1-.1h.1c-.1-.2-.1-.2-.2-.2s0-.1 0 0zM233.7 195.5c-.1 0-.1 0 0 0-.1.1-.1.3-.1.3.1 0 0 0 .1-.1h.1v-.1l-.1-.1zM233.7 188.3h-.3v.3h.3v-.2h.1l-.1-.1zM233.6 193.2c-.1 0-.2 0 0 0v.3c.1 0 .1-.1.3-.1v-.3c-.2 0-.2 0-.3.1 0-.1 0-.1 0 0zM234.2 199.8zM234.2 198.6h.3v-.1c-.1 0-.3 0-.3.1 0-.1 0-.1 0 0zM234.4 186.5l-.2-.1v-.1c-.1 0 0 0-.1.1h-.1v.3h.3c.1 0 .1-.1.1-.2 0 .1 0 .1 0 0 0 .1 0 .1 0 0zM234.2 201c0-.1 0-.1 0 0 0 0-.1-.1 0 0zM234.2 193.9l.2-.1c0-.1-.1-.1-.1-.3-.1 0 0 0-.1.1h-.1c0 .1 0 0 .1.1v.2zM234.4 185.4l-.2-.1v-.1c-.1 0 0 0-.1.1h-.1v.3c.4-.1.4-.1.4-.2zM233.1 186.4c-.2 0-.1-.2 0 0-.1.1-.2.1-.2.1v.3c.3 0 .3 0 .4-.1v-.1h-.1c-.1-.1-.1-.1-.1-.2zM233.1 184c-.2 0-.1 0-.3.1v.1h-.1v.1h.1v.1c.1 0 0 0 .1.1.2 0 .1 0 .3-.1v-.1h.1v-.1h-.1c-.1-.1-.1 0-.1-.2zM233.4 183.8c.2 0 .1.1.3.1l.1-.1v-.1h.1v-.3c-.2 0-.3 0-.3-.1-.1 0 0 0-.1.1-.2 0-.2 0-.3.1 0 .1 0 0 .1.1s.1.2.1.2zM233.1 185.2c-.2 0-.1-.2 0 0-.1.1-.2.1-.2.1v.3h.1v.1h.1v-.1c.1 0 0 0 .1-.1h.1v-.1h-.1c-.1-.1-.1-.1-.1-.2zM233.5 192.1h.3v-.3h-.3v.1h-.1c0 .1 0 0 .1.2zM233.6 196.7c0-.1 0-.1 0 0-.1 0-.1.1-.1.2h.3v-.2h-.2zM234.2 197.4h.3v-.1c-.1.1-.3.1-.3.1zM235.4 196.1c-.1 0-.1.1-.1.2h.3v-.2h-.2zM233 191.4c0 .1-.1.1 0 .2.2 0 .1 0 .3-.1v-.3h-.3v.2zM233.6 200.4c.1 0 .1 0 0 0zM233.5 199.2h.3v-.1c-.1 0-.2 0-.3.1zM233.4 190.9c.2 0 .2.1.3.1v-.3h-.3v.2zM233.5 197.9h.3v-.1c-.1.1-.2.1-.3.1zM233.7 189.5h-.3v.3h.3v-.3zM233.7 201.5c-.1 0-.2 0 0 0zM232.8 187.8v.3h.3v-.1h.1c0-.1-.1-.1-.1-.3 0 .1-.2.1-.3.1zM235 188.3h-.3v.3h.3v-.2h.1c-.1 0-.1 0-.1-.1zM234.6 187.1v.3h.3v-.2h.1v-.2h-.1v-.1c-.1 0 0 0-.1.1s-.1.1-.2.1zM235 184.7c-.2 0-.2-.1-.3-.1l-.1.1v.1h-.1v.1c.2 0 .3.1.3.3.1 0 .2-.1.3-.3h.1v-.1l-.2-.1c0 .1 0 .1 0 0zM235 185.9c-.2-.1-.1-.1-.2 0h-.1v.3h.1v.1c.1 0 0 0 .1-.1h.1v-.1h.1v-.1l-.1-.1zM234.8 196.7c0-.1 0-.1 0 0-.1 0-.1.1-.1.2h.3v-.2h-.2zM234.8 195.5c-.1.1-.1.3-.1.3.1 0 0 0 .1-.1h.1v-.1l-.1-.1zM234.7 194.4c.1.1.1.2.1.3.1 0 0 0 .1-.1h.1c0-.1-.1-.1-.1-.3-.1.1-.1.1-.2.1zM235.3 199.8c.1 0 .1 0 0 0 .1 0 .1 0 0 0 .1 0 .1 0 0 0zM235.3 198.6h.3v-.1s-.2 0-.3.1c0-.1 0-.1 0 0zM234.8 197.8c-.1.1-.1.2-.1.3h.2v-.1h-.1v-.2zM235.2 184.4c.2 0 .1.1.3.1l.1-.1v-.1h.1v-.1h-.1v-.1c-.2 0-.2-.1-.3-.1l-.1.1v.1h-.1l.1.2zM235.4 197.3c0-.1 0-.1 0 0-.1 0-.1.1-.1.2h.3v-.2h-.2zM235.6 186.5l-.2-.1v-.1c-.1 0 0 0-.1.1h-.1v.3h.3c.1 0 .1-.1.1-.2 0 .1 0 .1 0 0 0 .1 0 .1 0 0zM235.6 185.4l-.1-.2c-.1 0 0 0-.1.1h-.1c0 .3.1.3.1.4.1 0 0 0 .1-.1.2 0 .2-.1.3-.1-.2-.1-.1-.1-.2-.1zM234.8 201.5zM234.4 187.8h-.3v.3h.3v-.3l.1.1-.1-.1zM234.2 191.4c.1.1.1.2.3.2v-.3h-.3v.1zM234 189.2h.3v-.3h-.3v.3zM234 190.3c.2.1.3.1.3.1v-.4h-.3v.3zM234.2 192.5c-.1.2-.2.1 0 0v.3c.1 0 .1-.1.3-.1v-.3c-.1.1-.3.1-.3.1zM234.2 194.9c-.1.1-.1.3-.1.3.1 0 0 0 .1-.1h.1v-.1c-.1-.1.1-.1-.1-.1zM234.8 192.1h.3v-.3h-.3v.1h-.1c0 .1 0 .1.1.2zM234.2 196.1c-.1 0-.1.1-.1.2h.3v-.2h-.2zM234.8 193.3c.1 0 .1-.1.3-.1v-.3c-.3 0-.2.1-.3.1-.1.2-.1.2 0 .3zM234.8 200.4h.3v-.1l-.3.1zM234.8 199.2h.3v-.1c-.3 0-.3 0-.3.1zM234.6 190.9c.2 0 .2.1.3.1v-.3h-.3v.2zM235 189.5h-.3v.3h.3v-.3zM240.1 199.8c.1 0 .1 0 0 0 .1 0 .1 0 0 0 .1 0 .1 0 0 0zM241.3 192.5s-.1 0 0 0v.3c.1 0 0 0 .1-.1h.1v-.3c-.1.1-.2.1-.2.1zM241.4 194.9c-.1.1-.1.3-.1.3.1 0 0 0 .1-.1h.1v-.1l-.1-.1zM241.4 193.7c-.1 0-.1.1-.3.1 0 .1 0 0 .1.1v.1c.1 0 0 0 .1-.1h.1v-.2c0 .1 0 .1 0 0zM241.4 196.1c-.1 0-.1.1-.1.2h.3v-.2h-.2zM241.4 199.8zM241.3 197.4h.3v-.1c-.2.1-.2.1-.3.1zM241.3 198.6h.3v-.1c-.2 0-.2 0-.3.1 0-.1 0-.1 0 0zM241.6 187.8h-.3v.3h.3v-.3l.1.1-.1-.1zM242 201.5s-.1 0 0 0zM241.3 191.4c.1.1.1.2.3.2v-.3h-.3v.1zM240.4 194.9c-.2 0-.2 0 0 0-.1.1-.1.3-.1.3.1 0 0 0 .1-.1h.1v-.1c-.3-.1-.1-.1-.1-.1zM241.4 201c0-.1 0-.1 0 0 0 0-.1-.1 0 0zM241.2 189.2h.3v-.3h-.3v.3zM241.2 190.3c.2.1.3.1.3.1v-.4h-.3v.3zM241 188.3h-.3v.3h.3v-.2h.1c-.1 0-.1 0-.1-.1zM240 189c.2.1.3.1.3.1v-.3h-.3v.2zM240.8 201.5s-.1 0 0 0zM241 193.2v-.3c-.3 0-.2.1-.3.1 0 .1.1.1.1.3 0-.1 0-.1.2-.1zM240.4 187.8h-.3v.3h.3v-.3l.1.1-.1-.1zM240 190.3c.2.1.3.1.3.1v-.4h-.3v.3zM242 199.2h.3v-.1c-.3 0-.3 0-.3.1zM240.1 191.4c.1.1 0 .2.2.2l.1-.1v-.3h-.3v.2zM240.1 192.5c-.1.2-.2.1 0 0v.3c.1 0 .1-.1.3-.1v-.3c0 .1-.2.1-.3.1zM240.8 195.5c-.1.1-.1.3-.1.3.1 0 0 0 .1-.1h.1v-.1c-.1-.1.1-.1-.1-.1zM240.8 196.6c-.1 0-.1 0 0 0-.1.1-.1.3-.1.3.1 0 .1 0 .3-.1v-.1h-.1c-.1 0-.1 0-.1-.1zM240.6 194.4c.1.1.1.2.1.3.1 0 0 0 .1-.1h.1c0-.1-.1-.1-.1-.3-.1.1-.1.1-.2.1zM240.7 199.2h.3v-.1s-.2 0-.3.1zM240.8 197.8c-.1.1-.1.2-.1.3h.2v-.1h-.1v-.2zM240.7 200.4c.1 0 .1 0 0 0 .1 0 .1 0 0 0 .1 0 .1 0 0 0zM242 200.4zM243.1 197.9h.3v-.1h-.1v-.1h-.1l-.1.2zM243.4 196.8c0-.1 0 0 0 0l-.1-.2h-.1v.3s0-.1.2-.1zM243.4 191v-.3h-.3c0 .2 0 .3.1.3h.2zM243.4 195.6c0-.2-.1-.1-.1-.3h-.1v.3c0 .1-.1.1.2 0-.2 0-.2 0 0 0zM243.2 200.4s-.1 0 0 0c-.1 0-.1 0 0 0zM243.1 199.2h.3v-.1c-.2 0-.3 0-.3.1zM243.1 192.1h.3v-.3h-.3c0 .2-.1.2 0 .3 0 0 0-.1 0 0zM242.1 188.3h-.3v.3h.3v-.2h.1l-.1-.1zM242.8 190.3v-.3h-.3c0 .3.1.3.1.4l.2-.1zM242.8 191.4v-.3h-.3c0 .2 0 .1-.1.1 0 .2 0 .1.1.3.1.1.1 0 .3-.1zM243.2 201.5c-.1.1-.1 0 0 0zM242.4 192.6c.1.1 0 0 0 0l.2.1v-.1h.1v-.3h-.3c.1.2 0 .2 0 .3zM243.1 193.3l.2-.1v-.3h-.3c0 .2-.1.2-.1.3.2 0 .2 0 .2.1zM243.1 194.5c.1 0 .1-.1.1-.2h.1v-.1h-.1v-.1h-.1c0 .3-.1.3 0 .4 0 0 0-.1 0 0zM242.8 197.4c0-.1 0 0 0 0l-.1-.2h-.1v.3c-.1-.1 0-.1.2-.1zM242 194.3c-.1 0-.1.1-.3.1 0 .1 0 0 .1.1v.1c.1 0 0 0 .1-.1h.1v-.2c0 .1 0 .1 0 0zM242.6 193.7c-.1.2-.2.2-.2.3l.1.1h.1v-.2h.1c.1-.1.1-.1-.1-.2 0 .1 0 .1 0 0zM242 191.9c-.1.1 0 .1 0 .3h.3v-.3h-.3zM242 193.3l.2-.1v-.3c-.3 0-.2.1-.3.1 0 .2.1.2.1.3zM242 195.5c-.1.1-.1.3-.1.3.1 0 0 0 .1-.1h.1v-.1l-.1-.1zM242 196.7c0-.1 0-.1 0 0-.1 0-.1.1-.1.2h.3v-.2h-.2zM241.8 190.9c.2 0 .2.1.3.1v-.3h-.3v.2zM242.5 196.1c-.1 0-.1.1-.1.2h.3v-.2h-.2zM242 197.8v.3h.2v-.1h-.1c-.1-.1-.1-.2-.1-.2zM242.8 195c0-.2-.1-.1-.1-.3h-.1v.3c0 .1-.1.1.2 0-.2 0-.2 0 0 0zM242.5 198.6h.3v-.1c-.2 0-.3 0-.3.1 0-.1 0-.1 0 0zM242.6 199.8s-.1 0 0 0c-.1 0-.1 0 0 0zM241.8 189.8h.3v-.3h-.3v.3zM238.6 183.8c.1-.2.1-.3.1-.3h-.3v-.1h-.1v.1c-.1 0-.1 0-.3.1.1.2.2.2.3.3.3-.1.1-.1.3-.1zM238.3 193.2c-.1 0-.2 0 0 0v.2h.1c0-.2.1-.2.1-.3h-.3c.1 0 .1 0 .1.1zM238.1 188.3v.3h.3v-.1h.1c0-.1-.1-.1-.1-.3 0 .1-.1.1-.3.1zM238.4 187.1h-.2v.3c.3 0 .3-.1.4-.1 0-.2 0-.2-.2-.2zM238.1 185.9v.3c.3 0 .3-.1.4-.1v-.1h-.1c0-.2 0-.2-.1-.3-.1 0 0 0-.2.2.1 0 .1 0 0 0zM238.4 196.6c-.1 0-.1 0 0 0-.1.1-.1.2-.1.3h.3c0-.2 0-.2-.2-.3zM238.6 195.6c0-.2 0-.1-.1-.3h-.1v.3c-.1.1-.1.1.2 0-.2 0-.2 0 0 0zM238.6 194.3l-.2.1c0 .1 0 0 .1.1v.1h.1v-.3c0 .1 0 .1 0 0zM239.1 191.3h-.3v.1h-.1v.1c.2 0 .2.1.3.1.1-.2.1-.2.1-.3zM238.3 197.9h.3v-.1c0 .1-.2.1-.3.1zM239.1 188.9h-.3v.3h.3v-.3zM239 200.9c-.1 0 0 0 0 0zM239.1 190.4v-.4h-.3v.3h.1v.1h.2zM238.8 184.4c.1 0 0 0 0 0 .3.1.2.1.3 0v-.1h.1v-.1h-.1c0-.2 0-.1-.1-.3-.2 0-.1 0-.3.1v.1h-.1v.1h.1l.1.2zM238.6 184.6c-.2.1-.2.2-.3.3 0 .2 0 .1.1.3h.1v.1h.1v-.2c.1 0 0 0 .1-.1h.1v-.1h-.1c-.1-.2-.1-.2-.1-.3zM239 199.8s-.1 0 0 0c0 0-.1 0 0 0zM238 187.8h-.4v.3h.4c0-.3.1-.3 0-.3zM237.7 185.2c-.1.2-.1.3-.1.4h.1v.1h.1v-.1c.2 0 .1 0 .3-.1 0-.2 0-.1-.1-.3v-.2c-.2.2-.3.2-.3.2zM237.5 186.7h.4c0-.1.1-.1 0-.3l-.1-.1h-.1v-.1h-.1v.1h-.1v.4zM237.6 189c.2.1.3.1.3.1v-.3h-.4c.1.1.1.2.1.2zM237.7 191.4c-.1 0-.1 0 0 0v.2c.2 0 .2-.1.3-.1v-.3h-.3v.2zM237.6 190.1v.3h.1v.1h.3v-.3c-.2-.2-.3-.2-.4-.1zM237.5 184.2c.1.2.2.2.3.3h.1c0-.1.1-.2.3-.3-.1-.2-.2-.2-.3-.3-.3.1-.3.2-.4.3zM238.6 189.5h-.3v.3h.3v-.3zM238.4 201.5c-.1 0 0 0 0 0zM238.3 199.2h.3v-.1s-.2 0-.3.1zM238.6 200.4s-.2 0 0 0c-.2 0-.3 0 0 0zM238.3 191h.3v-.3h-.3c-.2.2-.1.1 0 .3zM238.3 192.1h.3v-.3h-.3v.1h-.1c0 .1 0 0 .1.2zM237.7 192.5c-.1.2-.2.1 0 0v.2h.1l-.1-.2.2.1v-.3h-.3l.1.2zM238.9 197.4h.3v-.1c-.1.1-.2.1-.3.1zM239.4 189.8h.3v-.3h-.3v.3zM239.7 188.3h-.3v.3h.3v-.2h.1l-.1-.1zM239.4 190.9c.2 0 .2.1.3.1v-.3h-.3v.2zM239.5 192c-.1.1-.2 0 0 0v.2h.3v-.3h-.3v.1zM239.4 185.9v.3h.1v.1c.1 0 0 0 .1-.1h.1v-.1h.1v-.1h-.1v-.1h-.1v-.1c-.1.1 0 .1-.2.1zM239.6 195.5c-.1.1-.1.3-.1.3.1 0 0 0 .1-.1h.1v-.1c-.1-.1 0-.1-.1-.1zM239.5 193.2c-.1 0-.2 0 0 0v.3c.1 0 .1-.1.3-.1v-.3c-.1 0-.2 0-.3.1 0-.1 0-.1 0 0zM239.7 184.8c-.2 0-.2-.1-.3-.1l-.1.1v.1h-.1v.1c.1 0 .1 0 .1.1h.1v.2c.2-.1.2-.2.3-.3v-.2zM240.1 198.6h.3v-.1s-.2 0-.3.1c0-.1 0-.1 0 0zM233 192.5c-.1.2-.2.1 0 0v.2h.1c0-.2.1-.1.1-.3 0 .1-.2.1-.2.1zM240.2 197.3c0-.1 0-.1 0 0-.1 0-.1.1-.1.2h.3v-.2h-.2zM240.1 193.9c.1 0 0 0 0 0l.2-.1c0-.1-.1-.1-.1-.3-.1 0 0 0-.1.1h-.1c0 .1 0 0 .1.1v.2zM238.9 198.6h.3v-.1c-.2 0-.2 0-.3.1 0-.1 0-.1 0 0zM239.6 196.7c0-.1 0-.1 0 0-.1 0-.1.1-.1.2h.3v-.2h-.2zM239.4 187.3h.3v-.2h.1v-.1h-.1v-.1h-.1v-.1c-.1 0 0 0-.1.1h-.1v.4zM238.9 194.9v.3h.1c0-.1 0-.1.1-.1 0-.2 0-.2-.2-.2.1 0 .1 0 0 0zM239 193.8l-.2.1c0 .1 0 0 .1.1v.1h.1c0-.3.1-.3 0-.3 0 0 .1 0 0 0zM238.9 192.5c-.1.2-.2.1 0 0v.2h.1c0-.2.1-.1.1-.3h-.3l.1.1zM238.7 187.8v.3h.3v-.1h.1c0-.1-.1-.1-.1-.3 0 .1-.1.1-.3.1zM239.5 199.2h.3v-.1c-.1 0-.2 0-.3.1zM239 196.1c-.1 0-.1 0 0 0-.1.1-.1.2-.1.3h.3c-.1-.3-.1-.3-.2-.3zM240.2 196.1c-.1 0-.1.1-.1.2h.3v-.2h-.2zM239.6 201.5s-.1 0 0 0zM239.5 197.8v.3h.2v-.1h-.1c0-.1 0-.2-.1-.2zM239.5 200.4c.1 0 .1 0 0 0 .1 0 .1 0 0 0 .1 0 .1 0 0 0zM239 185.2c-.1 0 0-.2 0 0-.1.1-.2.1-.2.1v.3h.1v.1h.1v-.1c.1 0 0 0 .1-.1h.1v-.1h-.1c0-.1 0-.1-.1-.2zM239 186.4c-.1 0 0-.2 0 0-.1.1-.2.1-.2.1v.3c.3 0 .3 0 .4-.1v-.1h-.1c0-.1 0-.1-.1-.2zM239.5 194.5c.1 0 0 0 0 0l.2-.1c0-.1-.1-.1-.1-.3-.1 0 0 0-.1.1h-.1c0 .1 0 0 .1.1v.2zM226.6 188.3h-.3v.3h.3v-.3zM227 191.4c.1.1.1.2.3.2v-.3h-.3v.1zM227 192.5c-.1.2-.2.1 0 0v.2h.1c0-.2.1-.1.1-.3 0 .1-.2.1-.2.1zM226.9 189.2h.3v-.3h-.3v.3zM227 200.9s.1 0 0 0zM227 196.1c-.1.1-.1.2-.1.3h.3c-.1-.3-.1-.3-.2-.3zM227.1 199.8s-.1 0 0 0c-.1 0-.1 0 0 0zM227 198.6h.3v-.1c-.2 0-.3 0-.3.1 0-.1 0-.1 0 0zM227 197.4h.3v-.1c-.2.1-.3.1-.3.1zM226.9 190.3c.2.1.3.1.3.1v-.4h-.3v.3zM226.9 187.8v.3h.3v-.1h.1c0-.1-.1-.1-.1-.3-.1.1-.2.1-.3.1zM227.5 190.9c.2 0 .2.1.3.1v-.3h-.3v.2zM227.5 183.8c.2 0 .1.1.3.1l.1-.1v-.1h.1v-.3c-.2 0-.3 0-.3-.1-.1 0 0 0-.1.1-.2 0-.2 0-.3.1 0 .1 0 0 .1.1s.1.2.1.2zM227.6 192.1h.3v-.3h-.3v.1h-.1c0 .1 0 0 .1.2zM227.1 184c-.2 0-.1 0-.3.1v.1h-.1v.1h.1v.1c.1 0 0 0 .1.1.2 0 .1 0 .3-.1v-.1h.1v-.1h-.1c0-.1-.1 0-.1-.2zM226.9 185.3v.3c.3 0 .3 0 .4-.1v-.1h-.1c0-.2 0-.2-.1-.3-.1 0 0 0-.1.1 0 .1-.1.1-.1.1zM226.9 186.7c.3 0 .3 0 .4-.1v-.1h-.1c0-.2 0-.2-.1-.3-.1 0 0 0-.1.1h-.1v.4zM227 193.9c.1-.2.2-.2.2-.2l-.1-.1h-.1v.1h-.1c0 .1 0 .1.1.2zM226.4 199.2h.3v-.1c-.1 0-.1 0-.3.1zM227 194.9v.3h.1c0-.1 0-.1.1-.1-.1-.2-.1-.2-.2-.2zM226.4 197.8v.3h.2c0-.2 0-.2-.2-.3zM226.6 196.6c-.2 0-.2 0 0 0-.1.1-.1.2-.1.3h.3c-.2-.2-.2-.2-.2-.3zM226.6 201.5c-.2 0 0 0 0 0zM223.3 190.3c.2.1.3.1.3.1v-.4h-.3v.3zM226.4 191h.3v-.3h-.3c-.1.2-.1.1 0 .3zM226.6 200.4s-.2 0 0 0zM226.3 185.9v.3c.3 0 .3-.1.4-.1v-.1h-.1c0-.2 0-.2-.1-.3-.1 0 0 0-.2.2zM226.6 184.6c-.2.1-.2.2-.3.3 0 .2 0 .1.1.3h.1v.1h.1v-.2c.1 0 0 0 .1-.1h.1v-.1h-.1c-.1-.2-.1-.2-.1-.3zM226.6 195.6c0-.2 0-.1-.1-.3h-.1v.3c0 .1 0 .1.2 0zM227.8 189.5h-.3v.3h.3v-.3zM226.6 194.3l-.2.1c0 .1 0 0 .1.1v.1h.1v-.3c0 .1 0 .1 0 0zM226.4 193.2c-.1 0-.1 0 0 0v.2h.1c0-.2.1-.2.1-.3 0 .1-.2.1-.2.1 0-.1 0-.1 0 0zM226.6 187.1h-.2v.3c.3 0 .3-.1.4-.1-.1-.2-.2-.2-.2-.2zM227.6 199.2h.3v-.1c-.2 0-.3 0-.3.1zM228.1 192.5c0 .2-.1.1 0 0v.3c.1 0 .1-.1.3-.1v-.3c0 .1-.2.1-.3.1zM228.1 191.4c.1.1 0 .2.2.2l.1-.1v-.3h-.3v.2zM228.4 194.9c-.2 0-.2 0 0 0-.1.1-.1.3-.1.3.1 0 0 0 .1-.1h.1v-.1c-.3-.1-.1-.1-.1-.1zM228.1 199.8c.1 0 .1 0 0 0 .1 0 .1 0 0 0 .1 0 .1 0 0 0zM228.1 190.3c.2.1.3.1.3.1v-.4h-.3v.3zM228.1 198.6h.3v-.1s-.2 0-.3.1c0-.1 0-.1 0 0zM228.2 197.3c0-.1 0-.1 0 0-.1 0-.1.1-.1.2h.3v-.2h-.2zM228.2 196.1c-.1 0-.1.1-.1.2h.3v-.2h-.2zM229 190.7h-.3v.3c.2 0 .2.1.3.1v-.4zM228.7 191.9c0 .1.1.1.1.3h.3v-.3h-.4zM229.1 186l-.2-.1v-.1c-.1 0 0 0-.1.1h-.1v.3h.3c.1 0 .1-.1.1-.2-.1 0-.1 0 0 0zM228.4 187.8h-.3v.3h.3v-.3l.1.1c0-.1 0-.1-.1-.1zM228.1 189c.2.1.3.1.3.1v-.3h-.3v.2zM229.1 187.1l-.2-.1v-.1c-.1 0 0 0-.1.1h-.1v.3h.3c.1.1.1 0 .1-.2-.1.1-.1.1 0 0zM228.7 185.2c.1 0 .2-.1.3-.3h.1v-.1h-.1v-.1c-.2 0-.2-.1-.3-.1l-.1.1v.1h-.1v.1c.2 0 .2 0 .2.3zM229 189.5h-.3v.3h.3v-.3zM227.6 195.5c-.1.1-.1.3-.1.3.1 0 0 0 .1-.1h.1v-.1c-.1-.1 0-.1-.1-.1zM227.6 196.7c0-.1 0-.1 0 0-.1 0-.1.1-.1.2h.3v-.2h-.2zM227.6 194.4s-.1 0 0 0v.3c.1 0 0 0 .1-.1h.1c-.1-.2-.2-.2-.2-.2s0-.1 0 0zM227.6 197.8c-.1.1-.1.2-.1.3h.2v-.1h-.1v-.2zM227.6 193.2s-.1 0 0 0v.3c.1 0 .1-.1.3-.1v-.3c-.2 0-.3 0-.3.1 0-.1 0-.1 0 0zM227.6 201.5zM226.3 189.8h.3v-.3h-.3v.3zM228.1 193.9c.1 0 0 0 0 0l.2-.1c0-.1-.1-.1-.1-.3-.1 0 0 0-.1.1h-.1c0 .1 0 0 .1.1v.2zM228.5 186.5l-.2-.1v-.1c-.1 0 0 0-.1.1h-.1v.3h.3c.1 0 .1-.1.1-.2-.1.1-.1.1 0 0 0 .1 0 .1 0 0zM228.1 184.4c.2 0 .1.1.3.1l.1-.1v-.1h.1v-.1h-.1v-.1c-.2 0-.2-.1-.3-.1l-.1.1v.1h-.1l.1.2zM228.5 185.4l-.2-.1v-.1c-.1 0 0 0-.1.1h-.1v.3h.1v.1l.3-.3zM227.5 187.1v.3h.3v-.2h.1v-.1h-.1v-.1h-.1v-.1c-.1 0 0 0-.1.1 0 .1-.1.1-.1.1zM227.8 184.8c-.2 0-.2-.1-.3-.1l-.1.1v.1h-.1v.1c.1 0 .1 0 .1.1h.1v.2c.2-.1.2-.2.3-.3v-.2zM227.8 188.3h-.3v.3h.3v-.2h.1l-.1-.1zM227.8 185.9c-.2-.1-.1-.1-.2 0h-.1v.3h.1v.1c.1 0 0 0 .1-.1h.1v-.1h.1v-.1l-.1-.1zM227.6 200.4zM224.6 190.4h.3v-.3h-.3c-.1.1 0 .1 0 .3zM224.8 188.9h-.3v.3h.3v-.3zM224.8 185.4l-.1-.2h-.1c0 .1 0 .1-.1.1v.3c.3-.1.3-.1.3-.2 0 0 .1 0 0 0zM224.8 201c-.2 0-.2-.1 0 0zM223.9 189.8h.3v-.3h-.3v.3zM224.3 188.3h-.3v.3h.3v-.2h.1c-.1 0-.1 0-.1-.1zM224.9 186.5l-.2-.1v-.1h-.1c0 .1 0 .1-.1.1v.3h.3c.1 0 .1-.1.1-.2-.1.1-.1.1 0 0 0 .1 0 .1 0 0zM224.6 184.6c.2 0 .3-.1.3-.3h.1v-.1c-.2 0-.3-.1-.3-.3-.2 0-.1 0-.3.1v.1h-.1v.1h.1l.2.4zM224.8 191.6v-.3h-.3c0 .1 0 .1-.1.1 0 .2 0 .1.1.3l.3-.1zM224.8 193.7c-.1.2-.2.2-.2.3l.1.1h.1v-.2h.1c-.1-.1-.1-.1-.1-.2 0 .1 0 .1 0 0zM224.5 192.6c.1.1 0 0 0 0l.2.1v-.1h.1v-.3h-.3c.1.2 0 .2 0 .3zM224.8 195c0-.2-.1-.1-.1-.3h-.1v.3c.2.1 0 .1.2 0zM224.8 196.1c-.1 0-.1.1-.1.2h.3v-.2h-.2zM224.6 198.6h.3v-.1c-.1 0-.3 0-.3.1 0-.1 0-.1 0 0zM224.8 197.4c0-.1 0 0 0 0l-.1-.2h-.1v.3l.2-.1zM224.8 199.8s-.2 0 0 0c-.2 0-.2 0 0 0zM223.3 189.2h.3v-.3h-.3v.3zM224.2 196.7c-.1 0-.1-.1-.1-.2h-.1v.3c.1 0 .1 0 .2-.1 0 .1 0 .1 0 0zM224 197.8v.3h.2v-.1h-.1c0-.1 0-.2-.1-.2.1 0 .1 0 0 0zM224.3 187.1l-.2-.1c-.1 0 0 0-.1.1h-.1v.3h.3c.1 0 .1-.1.1-.3 0 .1 0 .1 0 0zM224.3 186l-.2-.1v-.1c-.1 0 0 0-.1.1h-.1v.3h.3c.1 0 .1-.1.1-.2zM224.8 187.8h-.3v.3h.3v-.3l.1.1c0-.1 0-.1-.1-.1zM224 185c.1 0 0 0 0 0 .3-.1.3-.2.3-.2 0-.1 0 0-.1-.1v-.1c-.2 0-.2-.1-.3-.1l-.1.1v.1h-.1v.1c.2.1.3.1.3.2zM223.7 187.8h-.3v.3h.3v-.3l.1.1-.1-.1zM224 200.4c.1 0 .1 0 0 0 .1 0 .1 0 0 0 .1 0 .1 0 0 0zM224.2 194.3c-.1 0-.1.1-.3.1 0 .1 0 0 .1.1v.1c.1 0 0 0 .1-.1h.1v-.2c0 .1 0 .1 0 0zM226.4 192.1h.3v-.3h-.3v.1h-.1c0 .1 0 0 .1.2zM224 191.9c-.1.1 0 .1 0 .3h.3v-.3h-.3zM224.2 195.5c-.1 0-.1 0 0 0-.1.1-.1.3-.1.3.1 0 0 0 .1-.1h.1v-.1c-.2-.1-.1-.1-.1-.1zM223.9 190.9c.2 0 .2.1.3.1v-.3h-.3v.2zM224.1 201.5s-.1 0 0 0zM224 199.2h.3v-.1c-.1 0-.2 0-.3.1zM224.1 193.3c.1 0 0 0 0 0l.2-.1v-.3c-.3 0-.2.1-.3.1 0 .2 0 .2.1.3zM225.8 191.4c-.1 0-.1 0 0 0v.2c.2 0 .2-.1.3-.1v-.3h-.3v.2zM225.8 194.9v.3h.1v-.1h.1c0-.2 0-.2-.2-.2.2 0 .2 0 0 0zM225.8 192.5c-.1.2-.2.1 0 0v.2h.1l-.1-.2.2.1v-.3h-.3l.1.2zM226 193.8l-.2.1c0 .1 0 0 .1.1v.1h.1v-.1h.1l-.1-.2zM225.8 198.6h.3v-.1c-.1 0-.1 0-.3.1 0-.1 0-.1 0 0zM225.2 194.3c0 .2-.1.2-.1.3l.1.1h.1v-.2h.1v-.1l-.2-.1zM226 197.3c-.1 0-.1.1-.1.2.1 0 .2 0 .3-.1-.2-.1-.2 0-.2-.1zM226 199.8s-.2 0 0 0c0 0-.2 0 0 0zM225.6 186.7h.4c0-.1.1-.1 0-.3l-.1-.1v-.1h-.1v.1h-.1c-.1.2-.1.3-.1.4zM225.7 190.1v.3h.1v.1h.3v-.3c-.1-.2-.3-.2-.4-.1zM226.6 183.8c.1-.2.1-.3.1-.3h-.3v-.1h-.1v.1c-.1 0-.1 0-.3.1.1.2.2.2.3.3l.3-.1zM225.5 184.2c.1.2.2.2.3.3h.1c0-.1.1-.2.3-.3-.1-.2-.2-.2-.3-.3-.2.1-.2.2-.4.3zM225.8 185.2c-.1.2-.1.3-.1.4h.1v.1h.1v-.1c.2 0 .1 0 .3-.1 0-.2 0-.1-.1-.3h-.3l.1-.1c.1.1.1.1-.1.1zM225.7 189c.2.1.3.1.3.1v-.3h-.4c.1.1.1.2.1.2zM226 187.8h-.4v.3h.4c0-.3.1-.3 0-.3zM226 196.1c-.1 0-.1.1-.1.2h.3v-.2h-.2zM225.4 201.5c-.2.1-.3 0 0 0zM225.2 200.4h.3v-.1c-.1.1-.1.1-.3.1zM225.2 199.2h.3v-.1c-.1 0-.1 0-.3.1zM225.1 193.2c.1.1 0 0 0 0l.2.1v-.1h.1v-.3h-.3c.1.3 0 .3 0 .3zM225.2 197.8v.3h.3v-.1h-.1v-.1c0-.1-.2-.1-.2-.1zM225.4 183.4c-.1.2-.1.1-.2.3h-.2v.1h.1c0 .2 0 .1.1.3.2-.1.2-.2.3-.3v-.3c-.1 0-.1 0-.1-.1zM225.4 196.8c0-.1 0 0 0 0-.1-.1-.1-.2-.1-.3h-.1v.3h.2zM225.4 195.6c0-.2-.1-.1-.1-.3h-.1v.3c.2.1.2.1.2 0zM225.4 187.3c0-.2.1-.1 0-.3l-.1-.1h-.1v-.1h-.1c0 .2-.1.3-.1.4.2.1.4.1.4.1zM225.2 185.8c0 .1 0 .1 0 0-.1.3-.1.4 0 .5h.1v-.1h.1c0-.2.1-.2.1-.3l-.1-.1h-.2c.2.1.2 0 0 0 .2 0 .2 0 0 0zM225 184.8l-.1.2c.2 0 .1 0 .3.1v.1h.1v-.1c.2 0 .1 0 .3-.1-.1-.2-.2-.2-.3-.3-.2 0-.1 0-.3.1zM225.1 192c.1.1 0 0 0 0l.2.1v-.1h.1v-.3h-.3c.1.3 0 .3 0 .3zM225.4 188.3h-.3v.3h.3c0-.2.1-.2 0-.3 0 0 0 .1 0 0zM225.2 191h.3v-.3h-.3c-.1.1-.1.1 0 .3zM225.4 189.5h-.3v.3h.3v-.3zM230.8 187.8h-.3v.3h.3v-.3l.1.1c0-.1 0-.1-.1-.1zM231 190.7c0 .2 0 .3.1.3h.3v-.3h-.4zM231.4 188.3h-.3v.3h.3c0-.2.1-.2 0-.3 0 0 .1.1 0 0zM231 193.2c.1.1 0 0 0 0l.2.1v-.1h.1v-.3h-.3c.1.3 0 .3 0 .3zM231.1 197.8v.3h.3v-.1h-.1v-.1c-.1-.1-.1-.1-.2-.1zM231 192c.1.1 0 0 0 0 .2.1.3.1.3.1v-.3h-.3c.1.2 0 .2 0 .2zM231.1 199.2h.3v-.1s-.2 0-.3.1zM231.4 201.5c-.2.1-.3 0 0 0zM231.4 200.4s-.2 0 0 0c-.2 0-.3 0 0 0zM232 194.9c-.1.1-.1.3-.1.3h.1v-.1h.1l-.1-.2zM231.8 193.9c.2-.1.2-.1 0 0l.2-.1v-.2h-.1v.1h-.1c-.1.1-.1.1 0 .2zM231.7 191.6h.3v-.3h-.3v.1h-.1v.1c.1 0 .1-.1.1.1zM231.7 196.1v.3h.3v-.2h-.1v-.2c-.1.1-.1.1-.2.1zM231.4 187.3c0-.2.1-.1 0-.3l-.1-.1h-.1v-.1h-.1c0 .2-.1.3-.1.4.2.1.4.1.4.1zM231.2 185.8c0 .1 0 .1 0 0-.1.2-.1.3-.1.4h.3c0-.2.1-.1 0-.3 0-.1 0 0-.2-.1.2.1.2 0 0 0zM231.4 183.4c-.1.2-.1.1-.2.3h-.2v.1h.1c0 .2 0 .1.1.3.2-.1.2-.2.3-.3v-.3s-.1 0-.1-.1zM231 184.8l-.1.2c.2 0 .1 0 .3.1v.1h.1v-.1c.2 0 .1 0 .3-.1-.1-.2-.2-.2-.3-.3-.2 0-.2 0-.3.1zM231 189.8h.3v-.3h-.3v.3zM230.5 193.7c0 .2-.1.2-.1.3l.1.1h.1v-.2h.1v-.1l-.2-.1c.1 0 .1 0 0 0zM230.8 191.4v-.3h-.3c0 .2 0 .1-.1.1 0 .2 0 .1.1.3.3.1.3 0 .3-.1zM230.8 195c0-.2-.1-.1-.1-.3h-.1v.3c.2.1 0 .1.2 0zM230.8 197.4c0-.1 0 0 0 0l-.1-.2h-.1v.3c0-.1.2-.1.2-.1zM230.8 188.9h-.3c0 .2.1.2.1.3h.3c-.1-.2-.1-.3-.1-.3zM230.5 184.6c.2 0 .3-.1.3-.3h.1v-.1c-.2 0-.3-.1-.3-.3-.2 0-.1 0-.3.1v.1h-.1v.1h.1c.2.2.2.2.2.4zM230.8 199.8s-.2 0 0 0c-.2 0-.3 0 0 0zM230.5 190.4h.3v-.3h-.3c-.1.1 0 .1 0 .3zM231.1 194.3c0 .2-.1.2-.1.3l.1.1h.1v-.2h.1v-.1l-.2-.1c.1 0 .1 0 0 0zM230.8 185.4l-.1-.2h-.1c0 .1 0 .1-.1.1 0 .3 0 .3.1.4h.1v-.2c.2 0 .2-.1.3-.1h-.2zM231.4 196.8c0-.1 0 0 0 0-.1-.1-.1-.2-.1-.3h-.1v.3h.2zM231.4 195.6c0-.2-.1-.1-.1-.3h-.1v.3c.2.1 0 .1.2 0zM230.5 192.6c.1.1 0 0 0 0l.2.1v-.1h.1v-.3h-.3v.3zM230.6 196.1c-.1 0-.1.1-.1.2h.3v-.2h-.2zM230.5 198.6h.3v-.1s-.2 0-.3.1c0-.1 0-.1 0 0zM233.1 193.8l-.2.1c0 .1 0 0 .1.1v.1h.1v-.3zM230.5 186.4c0 .1 0 .1 0 0-.1.2-.1.3-.1.4h.3v-.2h.1v-.1h-.1v-.1h-.2c.1.1.1 0 0 0 .1 0 .1 0 0 0zM232.4 192c-.1.1-.2 0 0 0v.2h.1c0-.2.1-.2.1-.3h-.3c.1 0 .1 0 .1.1zM232.6 185.8c-.3 0-.2-.2 0 0-.1.1-.2.1-.2.1v.3h.1v.1h.1c0-.2.1-.3.2-.3v-.1h-.1c-.1 0-.1 0-.1-.1zM232 199.8s-.2 0 0 0c-.2 0-.3 0 0 0zM232.6 187.1h-.2v.3c.3 0 .3-.1.4-.1l-.2-.2zM232.4 193.2c-.1 0-.2 0 0 0v.2h.1c0-.2.1-.2.1-.3 0 .1-.2.1-.2.1 0-.1 0-.1 0 0zM232.4 196.6c-.1.1-.1.2-.1.3h.3c0-.2 0-.2-.2-.3zM232.6 194.3l-.2.1c0 .1 0 0 .1.1v.1h.1v-.3c0 .1 0 .1 0 0zM232.3 197.8v.3h.2c.1-.2.1-.2-.2-.3.1 0 .1 0 0 0zM232.6 195.6c0-.2 0-.1-.1-.3h-.1v.3c0 .1 0 .1.2 0 0 0-.2 0 0 0zM233 196.1c-.1.1-.1.2-.1.3h.3c-.1-.3-.1-.3-.2-.3zM232.9 197.2v.3h.3c0-.2 0-.1-.1-.3h-.2zM232.6 184.6c-.2.1-.2.2-.3.3 0 .2 0 .1.1.3h.1v.1h.1v-.2c.1 0 0 0 .1-.1h.1v-.1h-.1c-.1-.2-.1-.2-.1-.3zM233 194.9v.3h.1c0-.1 0-.1.1-.1-.1-.2-.1-.2-.2-.2zM232.9 198.6h.3v-.1c-.1 0-.2 0-.3.1 0-.1 0-.1 0 0zM232.8 190.3c.2.1.3.1.3.1v-.4h-.3v.3zM233.1 199.8s-.1 0 0 0c-.1 0-.2 0 0 0zM232.2 188.3v.3h.3v-.1h.1c0-.1-.1-.1-.1-.3.1.1-.2.1-.3.1zM231.6 190.1v.3h.1v.1h.3v-.3c-.2-.2-.3-.2-.4-.1zM232 189.1v-.3h-.4v.3c.2.1.4.1.4 0zM232 187.8h-.4v.3h.4v-.3zM231.8 197.4h.3v-.1c-.1.1-.1.1-.3.1zM231.7 198.6h.3v-.1s-.2 0-.3.1c0-.1 0-.1 0 0zM231.7 185.2c-.1.2-.1.3-.1.4.3 0 .3 0 .4-.1 0-.2 0-.1-.1-.3v-.2c-.1.2-.1.2-.2.2zM231.8 192.5c-.1.2-.2.1 0 0v.2h.1l-.1-.2.2.1v-.3h-.3l.1.2zM232.6 189.8v-.3h-.3v.3h.1v.1c0-.1.2-.1.2-.1zM232.4 201.5c-.1 0 0 0 0 0s.2 0 0 0zM232.6 200.4s-.2 0 0 0c-.2 0-.3 0 0 0zM232.3 191h.3v-.3h-.3c-.1.2-.1.1 0 .3zM232.6 183.8c.1-.2.1-.3.1-.3h-.3v-.1h-.1v.1c-.1 0-.1 0-.3.1.1.2.2.2.3.3l.3-.1zM231.5 184.2c.1.2.2.2.3.3h.1c0-.1.1-.2.3-.3-.1-.2-.2-.2-.3-.3-.2.1-.2.2-.4.3zM231.6 186.7h.4c0-.1.1-.1 0-.3l-.1-.1v-.1h-.1v.1h-.1c-.1.2-.1.3-.1.4zM232.3 199.2h.3v-.1s-.2 0-.3.1zM233.1 188.9h-.3v.3h.3v-.3zM230.3 187.1l-.2-.1c-.1 0 0 0-.1.1h-.1v.3h.3c.1 0 .1-.1.1-.3-.1.1 0 .1 0 0zM229.6 193.7c-.1 0-.1.1-.3.1 0 .1 0 0 .1.1v.1c.1 0 0 0 .1-.1h.1v-.2c0 .1 0 .1 0 0zM229.3 192.5v.3c.1 0 0 0 .1-.1h.1v-.3c-.1.1-.2.1-.2.1zM229.6 194.9c-.2 0-.2 0 0 0-.1.1-.1.3-.1.3.1 0 0 0 .1-.1h.1v-.1c-.3-.1-.1-.1-.1-.1zM229.4 196.1c-.1 0-.1.1-.1.2h.3v-.2h-.2zM229.3 197.4h.3v-.1c0 .1-.2.1-.3.1zM229.6 185.4l-.1-.2c-.1 0 0 0-.1.1h-.1c0 .3.1.3.1.4.1 0 0 0 .1-.1.2 0 .2-.1.3-.1-.1-.1-.1-.1-.2-.1zM229.9 185c.1 0 0 0 0 0 .3-.1.3-.2.3-.2 0-.1 0 0-.1-.1v-.1c-.2 0-.2-.1-.3-.1l-.1.1v.1h-.1v.1c.2.1.3.1.3.2zM229.3 189.2h.3v-.3h-.3v.3zM229.3 198.6h.3v-.1s-.2 0-.3.1c0-.1 0-.1 0 0zM229.6 186.5c-.2-.1-.1-.1-.2 0h-.1v.3h.3v-.3l.1.1v-.1h-.1zM229.3 188h.3v-.3h-.3v.3zM229.3 190.3c.2.1.3.1.3.1v-.4h-.3v.3zM228.7 199.2h.3v-.1s-.2 0-.3.1zM228.8 200.4zM228.8 201.5s-.1 0 0 0zM229.4 199.8c.2 0 .2 0 0 0zM228.7 197.9h.3v-.1c0 .1-.2.1-.3.1zM229 193.2v-.3c-.3 0-.2.1-.3.1 0 .1.1.1.1.3 0-.1 0-.1.2-.1zM229 188.3h-.3v.3h.3v-.2h.1l-.1-.1zM229.3 184.4c.2 0 .1.1.3.1l.1-.1v-.1h.1v-.1h-.1v-.1c-.2 0-.2-.1-.3-.1l-.1.1v.1h-.1l.1.2zM228.8 195.5c-.1.1-.1.3-.1.3.1 0 0 0 .1-.1h.1v-.1c-.1-.1.1-.1-.1-.1zM228.7 194.4c.1.1.1.2.1.3.1 0 0 0 .1-.1h.1c0-.1-.1-.1-.1-.3-.1.1-.1.1-.2.1zM228.8 196.6c-.1.1-.1.3-.1.3.1 0 .1 0 .3-.1v-.1h-.1c-.1 0-.1 0-.1-.1zM229.3 191.4c.1.1.1.2.3.2v-.3h-.3v.1zM230.1 196.7c0-.1 0-.1 0 0-.1 0-.1.1-.1.2h.3v-.2h-.2zM230 199.2c.1 0 .1-.1 0 0 0-.1 0-.1 0 0zM230.1 195.5c-.1.1-.1.3-.1.3.1 0 0 0 .1-.1h.1v-.1l-.1-.1zM229.8 190.9c.2 0 .2.1.3.1v-.3h-.3v.2zM230 191.9c-.1.1 0 .1 0 .3h.3v-.3h-.3zM230 193.3c.1 0 0 0 0 0l.2-.1v-.3c-.3 0-.2.1-.3.1 0 .2.1.2.1.3zM230.1 194.3c-.1 0-.1.1-.3.1 0 .1 0 0 .1.1v.1c.1 0 0 0 .1-.1h.1v-.2c0 .1 0 .1 0 0zM230.1 197.8c-.1 0-.1 0 0 0-.1.1-.1.2-.1.3h.2v-.1h-.1v-.2zM229.8 189.6c.2.1.3.1.3.1v-.3h-.3v.2zM230.1 201.5c-.1 0-.2 0 0 0zM230 200.4c.1 0 .1 0 0 0zM230.2 188.3h-.3v.3h.3v-.2h.1l-.1-.1zM230.3 186l-.2-.1v-.1c-.1 0 0 0-.1.1h-.1v.3h.1v.1c.1 0 0 0 .1-.1h.1l.1-.2c-.1 0 0 0 0 0zM215 192.5z"/><path fill="#CFD74D" d="M237.5 182.4c-.1-.1-.3-.2-.3-.3.2.2.2.3.3.3zM228.7 180.2h.4-.4zM233.3 180.7c-.2-.1-.3-.1-.4-.2.1.1.2.2.4.2zM227 180.5zM230.2 180.2h-.3H230.2zM235.1 181.3c-.2-.1-.3-.2-.4-.2.1.1.3.2.4.2zM214.7 194.4zM232 180.5c-.1-.1-.2-.1-.3-.1l.3.1zM219 184.3c-.1.1 0 .1 0 0zM231.4 180.4h.2-.2c-.2 0-.2 0 0 0zM236.4 181.8c0 .1 0 .1 0 0 .2.1.2.1.3.2-.2-.1-.3-.1-.3-.2-.1 0-.1 0 0 0zM215 192.5c0 .1 0 .1 0 0 0 .1 0 .1 0 0 0 .1 0 .1 0 0zM214.6 195.5v0zM217.6 186.5c-.1.1-.2.3-.3.3.3-.2.3-.3.3-.3zM220.8 182.4c-.1.1-.3.2-.3.3.1-.1.1-.2.3-.3zM221.4 182c-.1 0-.3.1-.3.2.1 0 .1-.1.2-.1 0 .1 0-.1.1-.1zM219.5 183.6s0-.1 0 0l-.3.3s.1 0 .1-.1l.2-.2zM219.9 183.4l.3-.3.1-.1h-.1s-.2 0-.3.4c0-.2 0-.2 0 0zM217.1 187.1s0 .1 0 0c0 .1 0 .1 0 0zM217.9 185.9s.1 0 0 0c.1 0 0 0 0 0zM226.1 180.5h-.4.4zM227.7 180.4s.1 0 0 0c.1 0 .1 0 0 0h-.2.2zM217.1 187.3zM224.9 180.7c-.2 0-.3 0-.4.1.3 0 .3 0 .4-.1zM215.5 190.9c0-.1.1-.2.1-.3-.1.2-.1.2-.1.3zM223.2 181.2c-.2 0-.3.1-.4.1.2 0 .2-.1.4-.1zM216.3 188.9c-.1.1-.1.2-.1.3.1-.2.1-.3.1-.3zM224.1 181.1z"/></svg>