<svg xmlns="http://www.w3.org/2000/svg" xmlns:xlink="http://www.w3.org/1999/xlink" viewBox="0 0 216 216"><path d="M128.7 12.2c-1-2.7-3-4.4-5.8-4.8-.4-.2-1-.2-1.4-.2-1 0-1.9.2-2.6.5-2-.9-4.5-1.3-7.1-1.3-3.6 0-7 .9-9.8 2.4-3.3 1.9-5.5 4.7-6.2 8-.2 1-.3 2-.3 3 0 1.2-.1 2.2-.4 3-.3.8-.6 1-1.6 1.4-.5.3-1.3.6-2 1.2-3.5 2.6-3 6-2.8 8.7.3 2.6.4 4.2-1.3 5.6-.4.3-.7.5-1.1.8-2.1 1.6-5.5 3.9-3.8 8.2.3.6.6 1.3.9 1.7.8 1.3.9 1.7.4 2.5-.4.5-.9 1-1.6 1.5-1.1.8-2.3 1.9-3 3.6-1.1 3 .3 4.9 1.3 6.4.7 1.1 1.2 1.8 1.1 2.8-.2 1.3-.9 2.5-1.6 3.8-1.3 2.1-2.9 4.7-1.6 8.3 1.8 4.9 7.3 6.7 11.7 6.7 2.6 0 5.1-.5 7.1-1.5 2.3-1.2 3.8-3 5.1-4.6 1.6-2-1.4-20.4-2.4-20.6-2-.3.4-2.9-1-3.4 0-.6.6-4.7.7-5.4.3-1.3 1.1-8.9.7-10.2 1-.2 13.1 7.2 14.2 7.1 3.9-.1 7.1-.2 7.9-2.3.8-2.2.1-3.9-.5-5.3-.3-.5-.4-1.1-.5-1.5-.3-1-.2-1.3.3-2.1.2-.4.4-.9.7-1.5.4-1 .4-2 .4-2.8 0-.4 0-.7.1-1.1.2-1.6 1.2-2.7 2.4-4.1.3-.4.6-.7.9-1 2.5-3.1 4.1-9 2.5-13.5z"/><path fill="none" d="M129.1 62s-.1.2-.1.3c0-.2.1-.2.1-.3zM131.1 74.1c-.4.2-.8.6-1.3.7-.3 0-1 5.3-1.5 8.8.4 2.7.8 5.3.9 7.8.3-4.7 1.1-9.8 2.7-14.9.1-1 .3-2 .4-2.8-.5.1-.9.2-1.2.4zM132.5 68.7c-.1-.3-.2-.5-.4-.8.1.3.2.6.4.8zM137.1 33.1c-1.5.1-3 .5-4.5.7-.7.1-2.5.1-2.7-1.3 0-.3 0-2.5-.5-2.8.2-.3.9-.7 1.1-1-.4.1-1.3.2-1.4-.1.2-.2.4-.5.4-1-.4.2-1.2.5-1.8.5-.1.4 0 1.3.4 1.6-.3.3-1 .2-1.4.1.2.3.9.7 1.1 1-.5.3-.4 1.5-.5 2.1-.1.2 0 .4 0 .7 0 .1.1.3.1.4 6 .8 11.3 1.7 12.4 1.9 1.2.3 2.4.3 3.4.3-1.1-1.8-2.9-3.2-6.1-3.1zM129 55.6s0 .1.1.2c0-.1.1-.2.1-.2 2.4-.5 4.8-1.9 7.1-3.3-6.7-.9-14-2.5-18.9-3.8 2.6 2.5 7.2 6.1 11.6 7.1zM129.4 26.6h-.5c.2.3.4.5.4.9.2-.4.2-.7.1-.9zM128.6 65.3c0-.7 0-1.3.1-1.9-.4 1.2-1 2.3-1.9 3.5 0 0-1.2 1.6-1.2 2.7 0 .5.2 1.9.4 3.8 1.6-2.4 2.6-6.1 2.6-8.1z"/><path fill="#50C0AD" d="M127.1 34.2c0-.1-.1-.3-.1-.4 0-.3-.1-.4 0-.7.1-.6 0-1.9.5-2.1-.2-.3-.9-.7-1.1-1 .4.1 1.3.2 1.4-.1-.4-.4-.5-1.3-.4-1.6.6 0 1.4-.4 1.8-.5.1-.1.2-.1.2-.1 0-.1-.1-.2-.1-.3-.2-.4-.4-.6-.4-.9-.3-.4-.4-.8-.6-1.1-1-1.6-1.2-1.9-1.5-3.4-.3-1.3-.4-1.8-.6-3-.4-1.8-1.3-3.6-3.2-4.1-1.7-.4-3.7-.2-5 .8-.5.4-1 .9-1.4 1.4-1.8 2.1-3.5 4-5 6.4-.4.6-.8.8-1.2 1.4-.3.5-5.4 3-5.3 3.7.4 1.5.2 2.9-.2 4 1.5-.1 2.6-.1 2.6-.1 2.9-.4 11.8.6 19.6 1.7z"/><path fill="#D61F29" d="M92.8 96.6c-26.6-3.2-48.3 5-48.3 5 1.3 36 28.1 82.5 28.1 82.5s1.9 2.8 3.5 9.4c1.1 4.5 2.9 8.2 3.9 12.7.3 1.2.5 2.4.4 3.7-.1 1.3-.7 2.5-1.8 3 .1.6.4 1.2 1.1 1.3.5.2 1.3 0 1.6-.4.1.5.2 1.1.4 1.6 0 .2.1.3.1.4.2.3.5.3.8.2.3-.1.4-.4.6-.6.1.2.2.4.3.5.6.2 1.3-.6 1.1-1.3.2.6 1 .9 1.5.6s.7-1.2.4-1.6c.5.2 1.1-.5.9-1.2-.1-.6-.6-1-1.1-1.3.9-1.1 1.1-2.5 1.1-3.9s-.3-2.8-.2-4.2c.2-3.1 2-6 3.3-8.8.4-.9.8-1.8 1-2.8s0-2.1-.6-2.9c-.6-.8-1.6-1.3-2.5-1.5-1-.3-2.1-.4-2.8-1.1-1-.7-9.7-16.7-8.1-29.6 3.2-25.9-1.3-33-1.3-33 13.8 11.7 25.3 19.5 35 24.7-.1-1.3 0-2.6.2-3.9.4-2.5-9.8-20.6-9.8-20.6s-7.3-16.3-8.8-26.9z"/><path fill="#F0572E" d="M127.9 63c0-.1.1-.2.1-.3-.2 0-.2.1-.1.3z"/><path fill="#50C0AD" d="M136.4 68.9c-.6.2-1.3.4-1.8.6-.8.2-1.5.2-2.1-.4 0-.1-.1-.3-.1-.4-.1-.2-.3-.4-.4-.8-.4-.6-.7-1-.7-1-1.3-1.6-2-3.4-2.3-4.9 0 .1-.1.2-.1.3 0-.1.1-.3.1-.4.6-2.9.2-5.3 0-6 0-.1-.1-.2-.1-.2-4.5-1-9-4.6-11.7-7.1-.3-.3-.5-.4-.7-.6-1.2-1.1-1.8-1.8-1.8-1.8-4.5-1.8-9.5-14.1-20.5-7.6-.4.3-.8.4-1.2.7h-.1c-3.2 2.2-5 5.2-5.9 8.2-2.4 7 1 15.7 1.6 17.5 1 2.7 2.7 11.6 3.2 14 .4 2.4.7 16.5.7 16.5.1.4.1.9.2 1.3 1.6 10.5 8.7 26.9 8.7 26.9s10.1 18.1 9.8 20.6c-.2 1.3-.3 2.5-.2 3.9.1 1.3.4 2.7.7 3.8.4 1 .8 1.3 1.3 1.3s.9-.4.9-.4c.3-.1.5.3.7.4 0 .1.1.1.1.1.4.4.6.4.9.4.4 0 .6-.3.7-.4.3-.2.5 0 .5 0 .1.2.2.3.3.4.3.3.5.4.7.4.4 0 .8-.4.9-.6.2-.3.5.4.5.4 0 .1.1.2.1.3.4.9 1.3.9 1.3.9.7.1 1.1-1 1.2-2 .1-1 .1-2 .1-2 .3-1.1.4-2 .4-2.7h.4l.8-.1 1.8 1.3s.6 1.3 2.7.4c0 0 .6-.5.5-1-.1-.4-1.3-.6-1.3-.6s-.4-.1-.6-.4c-.3-.2-.4-.4-.8-.5s-1.1-.7-1.4-1.3c-.4-.6-1.4-1.1-2-1.3-.4-.1-1.6-.3-2.7-.5-.4-.2-.6-.3-.9-.3-1.5-.4-2.1-1.6-2.1-1.6-1.4-2.9-5.8-31.3-5.8-31.3v-.6c.4-17.2-4.3-20.4-4.3-20.4.4-5.7-.7-16.5-.8-19.3-.1-2.8 1-16.4 1-16.4.7-8.1-2.1-11.6-5-13.3 3.2 1.3 6.6 4.8 5.8 13.6 0 0-1.1 13.6-1 16.4 0 .5.1 1.4.1 2.5.3 4.3.7 11.8.4 16.3 0 0 3 2.7 3.8 10.7 5.8 1.9 11.6 4.5 17.4 7.9.4-2 .6-4.7.9-7.9-.2-2.8-.2-5.9 0-9.2-.2-2.5-.4-5.1-.9-7.8.6-3.6 1.3-8.8 1.5-8.8.5-.1.9-.5 1.3-.7.3-.1.6-.2 1-.3.2 0 .3-.1.4-.1.1 0 .2-.1.3-.1 1.1-.4 2-.9 2.8-1.8.5-.4 1.1-1.3 1.8-1.5.4-.2 1.1-.2 1.5-.5 1.7-1.6-1.8-1.4-2.5-1.1zm-8.5-6.3c0 .1 0 .2-.1.3 0-.1 0-.2.1-.3zm.7 2.7c.1 2.1-1 5.7-2.6 8.1-.3-1.9-.4-3.2-.4-3.8 0-1.1 1.2-2.7 1.2-2.7.9-1.2 1.5-2.3 1.9-3.5-.1.5-.2 1.2-.1 1.9z"/><g><path d="M104.6 32.6c.6-3-.8-6.5-.9-9.6-.1-2.6 1.2-5.2 3-6.9 1.9-1.7 4.2-2.8 6.7-3.3 1.9-.4 3.9-.6 5.8-.2 2 .4 3.2 1.8 4.4 3.5-1.7-.6-3.1-.8-4.7.1-1.6 1-2.7 2.7-3 4.7-.3 1.6-.1 3.8-1.5 4.5.1-.8-.4-1.7-1.1-2-.7-.3-1.6.2-2 .9-.5 1.1.3 2.4.3 3.7 0 1.4-1.3 3.3-2.7 3.9-1.3.5-2.8.6-4.3.7z"/></g><g><path fill="#231F20" d="M125.4 21.2c-.3-.5-.8-1-1.3-1.3-.1-.1-.3-.1-.4-.2-.5-.2-1.1-.1-1.5.1s-.9.4-1.2.8c-.1 0-.1-.2 0-.3.3-.4.6-.6 1.1-.8.4-.2.9-.3 1.4-.2.6.1 1.2.5 1.6 1 .2.2.4.4.5.6.1.1.1.2.1.3s-.3.1-.3 0z"/></g><path fill="#231F20" d="M124.7 22.6l-.4.3c-.1.1-.4.2-.5.2-.3 0-.6-.2-.8-.4-.1 0-.1-.1-.1-.1l-.2-.2c-.2-.2-.4-.2-.5-.1s-.3.4-.2.6c.1.7.7 1.3 1.4 1.3h.2c.4 0 .7-.2.9-.4.2-.3.3-.5.3-.8l-.1-.4z"/><path fill="#D61F29" d="M166.1 40.7c-.9-1.5-2.2-2.4-3.3-3-2.3-1.6-4.5-2-6.4-1.6-2.2-1.3-5.5-4-4.5-8.8.7-2.6 1.3-5.2 1.3-7.9 0-3-.9-6.3-3.1-8.4-1.7-1.7-4.1-2.6-6.5-2.8-2.9-.2-5.8.6-8.1 2.2-2.1 1.5-3.6 3.6-4.4 6-.2.4-.3.8-.4 1.3-.3 1.3-.2 1.8-.6 3-.6 1.8-.4 1.9-1.8 4.7.2.3.4.6.6 1.1h.5c.1.2 0 .5 0 .9 0 .1.1.2.1.3 0 0-.1 0-.2.1-.1.4-.3.8-.4 1 .3.3 1 .2 1.4.1-.2.3-.9.7-1.1 1 .5.3.5 2.6.5 2.8.2 1.3 2 1.3 2.7 1.3 1.5-.2 3-.6 4.5-.7 3.2-.2 5 1.3 6 3.3-1.1 0-2.3-.1-3.4-.3-1.2-.3-6.4-1.1-12.4-1.9-7.8-1.1-16.8-2.1-19.7-1.8 0 0-1.1 0-2.6.1-3.4.3-9.1.9-9.8 2.7 0 0-2.1 1-2.1 3.2v.7c.4-.3.7-.5 1.2-.7 11-6.4 16.1 5.9 20.5 7.6 0 0 .6.7 1.8 1.8 7.5 1.9 21.9 5.1 30 4.5 0 0 .5-.4 3 .2 1 .2 5.1 2.8 9 3-3.9.4-8-2.3-9-2.5-2-.4-3-.2-3-.2-2.9.3-6.5 0-10.5-.5-2.1 1.4-4.7 2.8-7.1 3.3 0 0 0 .1-.1.2.2.7.6 3.1 0 6v.1c.4 1.6 1.1 3.3 2.3 4.9 0 0 .4.4.7 1 .1.3.3.5.4.8 0 .1.1.3.1.4.5.6 1.3.6 2.1.4.5-.2 1.2-.4 1.8-.6.7-.3 4.1-.4 2.5.8-.4.4-1.1.3-1.5.5-.7.3-1.3 1.1-1.8 1.5-.8.8-1.7 1.4-2.8 1.8-.1 0-.2.1-.3.1s-.3.1-.4.1c-.1.8-.3 1.8-.4 2.8-1.6 5-2.4 10.1-2.7 14.9-.2 3.3-.2 6.4 0 9.2-.2 3.2-.5 5.9-.9 7.9-5.7-3.4-11.6-6-17.4-7.9.3 2.6.4 5.8 0 9.7v.6s4.4 28.5 5.8 31.3c0 0 .6 1.2 2.1 1.6.3.1.5.2.9.3 1.1.2 2.3.4 2.7.5.5.2 1.6.7 2 1.3s1 1.2 1.4 1.3c.4.2.6.4.8.5l.6.4s1.3.2 1.3.6c.1.4-.5 1-.5 1-2.1.8-2.7-.4-2.7-.4l-1.8-1.3-.8.1s-.2-.1-.4 0c0 .8-.1 1.7-.4 2.7 0 0 0 1-.1 2 44.3 16.6 38.2-38.2 38.2-38.2l-3.4-14.2c-.4-4.6.7-15 12.4-34.7.4-.1 7.6-14.1-2.4-25.1z"/><g><path fill="#231F20" d="M131.6 20c.3-.5.8-1 1.3-1.3.1-.1.3-.1.4-.2.5-.2 1.1-.1 1.5.1.4.2.9.4 1.2.8.1 0 .1-.2 0-.3-.3-.4-.6-.6-1.1-.8-.4-.2-.9-.3-1.4-.2-.6.1-1.2.5-1.6 1-.2.2-.4.4-.5.6-.1.1-.1.2-.1.3.1 0 .2.1.3 0z"/></g><path fill="#231F20" d="M134.7 21c-.1-.1-.4-.1-.5.1-.1 0-.1.1-.2.2l-.1.1c-.2.3-.4.4-.8.4-.2 0-.4-.1-.5-.2l-.4-.3-.1.4c0 .3.1.5.3.8.3.3.6.4 1 .4h.1c.6-.1 1.3-.6 1.4-1.3.1-.2 0-.5-.2-.6z"/><g><path d="M164.6 6.4c-.7-1.4-2.1-2.2-2.9-2.6-.3-.5-.6-.8-1.1-1.2-.7-1.6-2.3-2.5-4.3-2.5-.5 0-1.1.1-1.3.1-5 0-7 5.8-7.1 6l-.1.3c-1-.4-2.1-.5-3.4-.5-.6 0-1.3 0-2 .2-.5-.2-2-.5-3.7-.5-2.9 0-5.3 1-7 2.9 0 0-1 1.3-1.6 3-.8 2.3-.6 4.6.5 6.3l2.1 3-.5-3.1c.8.8 2.1 2 3.7 2.6l.9.4.1-.9s.2-1.1.6-2.4c.4 2 1.6 4.7 4.6 7.6l.5.5.5-.6c.5-.7 2.6-2.8 4-2.8.3 0 .4.1.5.2.4.3.4.5.4.5 0 .6-.9 1.6-1.6 2.1l-.2.2-.1.3c0 .1-.5 1.6.4 2.9.8 1.3 2.6 1.9 5.1 2.1h.3l.2-.1c.1 0 6.6-4.2 5.2-10.7h.4c.4 0 .5.1.9.1 1.7 0 2.7-.7 3.3-1.3.5-.6.8-1.4 1-2.1.8-.4 1.3-.8 1.6-1.3.7-1.2.6-2.5.4-3.3.5-2.1.5-4-.3-5.4z"/><defs><path id="a" d="M164.6 6.4c-.7-1.4-2.1-2.2-2.9-2.6-.3-.5-.6-.8-1.1-1.2-.7-1.6-2.3-2.5-4.3-2.5-.5 0-1.1.1-1.3.1-5 0-7 5.8-7.1 6l-.1.3c-1-.4-2.1-.5-3.4-.5-.6 0-1.3 0-2 .2-.5-.2-2-.5-3.7-.5-2.9 0-5.3 1-7 2.9 0 0-1 1.3-1.6 3-.8 2.3-.6 4.6.5 6.3l2.1 3-.5-3.1c.8.8 2.1 2 3.7 2.6l.9.4.1-.9s.2-1.1.6-2.4c.4 2 1.6 4.7 4.6 7.6l.5.5.5-.6c.5-.7 2.6-2.8 4-2.8.3 0 .4.1.5.2.4.3.4.5.4.5 0 .6-.9 1.6-1.6 2.1l-.2.2-.1.3c0 .1-.5 1.6.4 2.9.8 1.3 2.6 1.9 5.1 2.1h.3l.2-.1c.1 0 6.6-4.2 5.2-10.7h.4c.4 0 .5.1.9.1 1.7 0 2.7-.7 3.3-1.3.5-.6.8-1.4 1-2.1.8-.4 1.3-.8 1.6-1.3.7-1.2.6-2.5.4-3.3.5-2.1.5-4-.3-5.4z"/></defs><clipPath id="b"><use xlink:href="#a" overflow="visible"/></clipPath><g clip-path="url(#b)"><path fill="#D72129" d="M130.5 9.9c-.3.1-.4-.1-.6-.2-.2-.1-.4-.3-.4 0 0 0-.1.1-.2 0M129.1 16.4c.3 0 .3-.2.4-.4s-.1-.2-.2-.3l-.2-.2-.1-.1c.4 0 .5.1.8.3.2.1.4.1.5.1 0 0 .1 0 .1.1h-.5s-.1-.1-.1 0c0 .2-.3.4-.4.4-.1.2-.3.3-.4.5v-.1c.2 0 .3-.1.1-.3M129 12c.2.1.3 0 .4 0 .1 0 .2 0 .2-.2 0-.1-.1-.2-.3-.2 0-.1.2 0 .2-.2 0-.1 0-.2-.2-.3-.1 0-.3-.1-.4-.3.5.3 1 .4 1.5.6.4.1.5.3.9.4.3.1.4 0 .4-.3v-.1c.2-.1.1-.3 0-.4.4 0 .4.3.6.4.4.2.8.4 1.3.5h.1s.4.1.4-.1c0-.1-.2 0-.3-.1l-.1-.1c.1 0 .3.1.4 0l-.1-.1c.1-.1.2 0 .2-.1.2-.2.4-.2.5 0 .2.2.4.2.5.4-.1 0-.3-.1-.4-.2-.2-.1-.4-.2-.5.1-.2.2-.4.2-.5.4h-.1V12h.2c-.4-.3-.8-.4-1.3-.5-.2 0-.3.1-.4.1-.4.2-.7.4-.8.6 0 .1 0 .3.1.3-.2 0-.4.2-.5.1 0 0-.1 0-.1-.1 0 0 .1 0 .1-.1 0 0 .1 0 .1.1s.1.1.1 0 .2-.2.1-.3c0 0-.2.1-.2-.1 0-.1.1-.3.3-.2v.1-.1c0-.2-.1-.2-.2-.2-.3-.1-.5-.1-.7-.4-.1-.1-.2 0-.3 0-.4 0-.5.3-.6.5 0 .1-.1.2-.2.1-.1 0-.2.1-.3.1v-.2c.1-.1 0-.2 0-.2M139.7 19.5c-.1.1-.2.3-.4.3 0 0-.2 0 0 .1v.1c-.2 0-.3.2-.4.2-.1 0 0 0 0 .1 0 .2.1.4.2.4.1.2 0 .4-.1.5.1-.4 0-.6-.4-.6.4 0 .2-.3.3-.4 0-.1-.1-.1-.2-.1-.2-.1-.4-.2-.5-.3-.4-.2-.4-.2-.6.2-.1.2-.1.2-.4.1h-.4c-.4-.1-.6-.2-1-.2-.2 0-.3 0-.4.2 0 .1-.1.3-.1.4-.1.1 0 .3.2.3h.4c-.3.1-.4 0-.6.1-.1 0-.1 0 0-.1 0-.3-.1-.4 0-.6 0-.1-.1-.2-.2-.2-.2 0-.4-.2-.5-.2-.1 0-.2 0-.3-.2.6.2 1.3.4 2 .4.3 0 .4 0 .6.1.2 0 .3-.1.4-.3 0-.2 0-.3-.2-.4-.2-.1-.3-.2-.4-.3.3.2.5.3.8.4.4.3.6.4 1 .4.4.1.4 0 .5-.4 0-.2 0-.2-.2-.4.5.2.8.2.9.4zM139.2 5.8c.2.1.6 0 .7-.2 0 0 .1-.2 0-.2 0 0-.1-.1 0-.2.1 0 .1-.1.2 0 .1.3.3.4.4.5.2.2.4.2.5 0 .1-.1.2-.3.1-.4-.1-.1-.1-.4-.2-.4.2.1.2.2.3.4.1.2.1.4.4.5.2.1-.2.2 0 .4h-.2c-.4.1-.7-.2-1.1 0-.1 0-.3.1-.3.3 0 0-.3.1-.3 0-.1-.1-.3-.4-.5-.7zM152.8.9V.6v.6s0 .3.2.3c.1 0 .2.2.4.1.1-.1.2-.1.2-.3 0-.1 0-.2.1-.3 0 .4-.1.5-.1.9 0 .1-.1.1-.2 0-.3-.1-.5-.2-.7-.4h-.1c-.1-.4-.4-.3-.6-.4-.1 0-.1-.1-.1-.2 0-.3.1-.4.1-.7.1.4.4.4.5.4.2.1.2.2.3.3zM129.8 14c.2 0 .3.1.4.1.2 0 .3 0 .4-.1s.2-.3 0-.4c.1 0-.2-.2 0-.3v-.1s-.2 0-.2-.1h.1c.1 0 .3 0 .3.1s-.1.1-.1.2c.1.1.1 0 .2 0h.2v.1c-.1.1-.1.3-.2.4-.2.2-.4.3-.5.4 0-.2 0-.3-.3-.1-.1 0-.3-.2-.3.1 0-.4-.2-.4-.4-.4M157.7 3.3c.1 0 .2.1.3 0 0-.1-.3-.1-.2-.3.4.1.4.1.2.4 0 .1-.1.3-.1.4 0 .2-.1.4.2.4h.1c.1.4.2.3.4 0h.1v.1c-.1.2-.2.4-.3.5h-.1c-.3-.3-.6-.4-.8-.8 0-.1-.1-.2-.2-.2-.4-.1-.2-.4-.2-.5 0 0 0-.1.1-.1s0 .1 0 .1c.2.2.4.3.5.4l.1-.1c-.1-.1.1-.3-.1-.3zM135.1 7.7c.2.1.3.3.4.4.2.2.4.2.5 0 .1-.1.2-.3.4-.1h.2c-.1-.2-.1-.4-.1-.4.2.3.3.4.4.6 0 .1 0 .1-.1.1-.3 0-.4.1-.5.2-.2.1-.3.2-.4.1l-.7.4c0 .1.2.1.1.3-.1-.1-.3 0-.3-.3 0 0-.1-.1-.2 0-.3.1-.4-.2-.6-.3.1-.1.2 0 .3.1.2 0 .4.1.5 0 0 0 .3-.1.3-.3 0-.1-.1-.1-.2-.2s-.3-.2-.4-.3c.1 0 .2.1.3.1 0 0 .1.1.2.1s-.1-.1 0-.2c.2 0 .2.4.4.2 0-.1-.1-.1-.1-.2s.2-.1.1-.2c0 0-.2.1-.2 0 0 0-.1 0 0 0-.2.1-.3 0-.3-.1zM130.2 18.3c.2 0 .4-.1.4-.3v-.2c0-.2-.2-.4-.4-.4s-.4-.1-.5-.2c.9.2 1.7.3 2.6.2-.4.1-.6-.1-.9.3l-.2-.2c-.1.1-.4.1-.4.4 0 .1 0 .3-.3.3 0 .1-.3.2 0 .3v.2h-.1c-.1-.3-.4-.2-.4-.2M155.5 1.6c-.1.4-.2.5-.2.8 0 .2.1.2.2.3.2.1.1-.2.3-.2.1 0 0 .2.1.2.2 0 .3-.1.4-.3 0 .2.2.4-.1.4v.3c-.4 0-.5-.3-.8-.4s-.5-.4-.7-.4v-.2c0-.2 0-.4.1-.4.1.1.2.3.3.4.1.1.2.3.4.1h.2c.1 0 .1 0 .1-.1-.5-.3-.5-.5-.3-.5zM159.3 4.7c.1.1.3.2.4.4.2.2.3.3.4-.1 0 .3-.1.4-.2.5v.3l.1.1c.3-.2.1.1.2.2s.1.1.2 0 .2-.3.2-.4c0-.1 0-.2.1-.1.1 0-.1-.1 0-.1s.1.1.1.2c-.2.3-.2.4-.4.6 0 .1-.1 0-.1 0-.3-.1-.4-.3-.5-.4-.2-.2-.3-.4-.4-.4-.2-.1-.2-.3-.1-.4-.1-.2 0-.3 0-.4zM155.8 5.8c-.2.2-.1.4-.2.6 0 .1 0 .2.1.2.2 0 .2 0 .2.2s.2.4 0 .4c0 0-.1.1-.2 0s-.3-.2-.4-.2c0-.1-.1-.1-.1-.2 0-.2-.1-.4-.3-.4-.1 0-.1-.1 0-.2s.2-.2.2-.4c.1-.3.2-.2.4-.1.1.1.1.1.2 0-.1.1 0 .1.1.1zM146.7 10c.1 0 .3-.1.3.2 0 .1.3.2.4.2.2 0 .3 0 .1.3h.2c.4.2.3-.1.3-.3v-.1c.1 0 .1.1.1.1v.4s0 .2.1.2c.2 0 0-.1.1-.2 0 0 0-.1.1-.2v.2c0 .1 0 .2.2.2s.2-.1.2-.2v-.5c.1.4.1.6.2.9v.2c-.1 0-.1-.1-.2-.1-.1-.1-.2-.2-.4-.2s-.4-.2-.5-.3c-.2-.1-.4-.1-.5-.1-.1 0-.1 0-.2.1 0 0 0 .1-.1.1s-.2 0-.2-.2c-.1-.1-.2-.4-.2-.7zM149.4 4.2c0-.2 0-.4.1-.4.2 0-.1.5.4.4.1.1 0 .1 0 .2 0 .4-.1.4-.4.3-.2-.1-.4 0-.5-.3 0-.1-.2-.2-.4-.1-.1 0-.2-.1-.2-.2 0-.3 0-.5.1-.7 0 .2.2.3.4.2.1 0-.1-.2 0-.3.1 0 .2 0 .2.2 0 .3-.1.5.1.8 0 .1.1.2.2.1-.1-.5-.1-.3 0-.2zM155.1 0v.4c.1.2.3.2.4.2.1 0 .2.1.4.1 0-.1.1-.2.1-.4v.4s0 .1-.1 0c-.3-.1-.5-.3-.7-.4-.2-.1-.4-.4-.5-.4-.1-.1-.4 0-.4-.2M137 7.1c.3-.1.3-.1.4.1.1-.1-.1-.2 0-.3v-.1c0-.1.2-.1 0-.3 0 0-.2-.1-.1-.3.2.2.4.4.4.5.3.3.6.3.8 0 .1-.1.1-.3 0-.4s-.3-.4-.4-.5c.4.4.5.5.5.8.1 0 .1-.2.2-.1.1 0 0 .2.2.3v.1c-.3.1-.5.3-.8.3s-.4 0-.5.1c-.1 0-.1.1-.2.1s-.2.1-.2.1h-.1c0-.2-.2-.2-.2-.4-.1-.1 0-.2.1-.2s.2 0 .3-.1c-.2.2-.4.2-.4.3zM137 6c-.4 0-.5.1-.8.3-.2.1-.4 0-.5.2-.1.1-.2-.2-.2-.3-.1-.1.1-.1.1-.1s.1 0 .2-.1c0 0 .1-.1.1-.2s-.1 0-.1 0 0-.1-.1-.1c.3-.1.4.2.5.3.1 0 .2 0 .3-.1.1-.1 0-.1 0-.2-.1-.1-.2-.3-.4-.4.2 0 .2.2.4.2.1 0 .1.1.2.1.1-.1 0-.1 0-.2v-.3c-.1.4.1.5.3.9zM156.9 8c0-.2-.2-.3 0-.4.2-.1.3-.3.5-.1.2.1.3.3.2.4v.5s.2-.1.2-.2h.1c0 .2-.1.4 0 .5l.3-.3c0 .2-.1.4-.2.4 0 .1-.1.1-.1 0-.3-.2-.5-.4-.7-.5-.1-.1 0-.2 0-.2 0-.1 0-.2-.1-.3-.2-.1-.1.1-.2.2zM141.9 16.8c0-.1-.1-.2-.1-.3h.1c.2 0 .4.1.4 0s-.1-.2-.3-.3c-.2-.1-.3-.3-.4-.4.1-.1.2 0 .2 0 .1.1.2.2.4.2.3-.1.1-.3.1-.4l.3.3c.1.2.4.3.5.1.1-.1 0-.2 0-.3 0-.1-.1-.2-.1-.4.1.2.2.4.3.4.1.2.1.2.3.3.1 0 0 .2 0 .3 0 .1 0 .1-.1.1-.2 0-.4 0-.5.1 0 0 0 .2-.1.1-.2-.1.1-.2 0-.3-.6.4-.7.5-1 .5zM154 5.6c0 .2-.2.3-.2.4-.1 0-.2 0-.2-.2s-.2-.4-.4-.4c-.4 0-.4-.3-.3-.6 0-.1.1-.3.3-.1.1.1.3.1.4.2h.1v-.2c.1 0 .1.1.1.1-.1.2 0 .4-.1.4 0 .1-.1.4.1.4.1.1 0 0 .2 0zM134.3 17c.2 0 .4 0 .4-.1 0-.2.1-.4.1-.4 0-.2 0-.1-.2-.2-.2 0-.4-.1-.5-.2.2-.1.4-.1.5-.1.2 0 .3-.1.2-.4.3.1.5.3.7-.1.1-.4-.2-.4-.4-.5.5.1.8.4 1.3.5h-.4c-.2-.3-.3 0-.4.1-.2.2-.3.4-.5.3-.1 0-.1.1-.2.2v.1c.1 0 .1 0 .2-.1 0 0 0-.1.1 0-.1.1-.2.3-.3.4-.1.1-.3.3 0 .4v.1c-.1 0-.1.2-.3.2 0-.1-.2-.1-.3-.2zM144 12.1c0-.2-.1-.4 0-.5v.5c.1.1.3.2.4.2.1 0 .3-.3.3-.4 0-.1 0-.2-.1-.3.2 0 .2.1.2.2v.3c.1.4.1.4-.3.4-.2 0-.4 0-.4.1-.2 0-.4.1-.5 0-.2-.1-.4.2-.5.1v.1s.1.2.1.3c-.3-.2-.4-.5-.4-.7v.1c.1.2.1.1.3.1.1 0 .3-.1.4-.1.3 0 .3-.1.2-.3 0 0-.1-.1 0-.1h.1s.1 0 .1.1c-.3-.1-.2 0 .1-.1zM150.9 4.6c0-.2 0-.3.1-.4 0-.1 0-.3.1-.4.1 0 .3 0 .4.1 0-.1 0-.3.1-.4 0 .3-.1.5 0 .7 0 .2 0 .2.2.3 0 0 0 .1.1.1 0-.2.1-.4.2-.5v.5c0 .1 0 .1.1.1 0 0 0-.1.1-.1v.1c.1.2 0 .3-.1.4-.1.1-.1 0-.2-.1-.2 0-.4-.1-.4-.3-.5 0-.7-.1-.7-.1zM132 14.7c.2-.1.2-.3.4-.4.1-.1 0-.1 0-.2-.3-.2-.4-.1-.6-.2-.2 0-.4-.1-.5 0-.1 0 0-.1 0-.2s0-.1.1-.1c.4.1.7.3 1.2.4.3 0 .4-.1.5-.3 0 0 0-.2-.1-.2s-.3-.1-.4-.1c.2-.1.2-.1-.2-.3h.4c.3 0 .4.2.6.1 0 0 .1-.1.2 0 0 .1 0 .1-.1.1-.3.1-.4.4-.4.5 0 .1-.2.2-.3.4-.1.1-.2.2-.2.4 0 .1-.1 0-.1 0-.3.2-.4 0-.5.1zM155.8 9.5c0-.2.1-.3.3-.4.1.4-.1.5-.3.6l-.2-.2c-.2-.1-.4-.2-.4-.4 0-.1-.1-.2-.2-.2-.4-.2-.4-.4-.2-.6.1-.2.2-.2.4-.1 0 0 0 .1.1 0h.1v.1c0 .2-.1.3-.1.4-.1.4 0 .4.4.4.1 0 .1.2.2.2-.2-.1-.2.1-.1.2zM159.7 12.7c0-.1.3.1 0 0 .2 0 .3-.1.4-.1-.3.3-.5.4-.6.7-.1-.1-.3-.1-.3-.4 0-.1 0-.3-.2-.4l-.3-.3c-.4-.4-.4-.4-.1-.8 0 0 .1-.1.1-.2.1.1.1.2 0 .2-.1.1 0 .2 0 .2.1.1.1.1 0 .3-.1.2.1.4.3.4.2.1.2-.1.3-.1 0 0 .1-.1.2-.1.3-.2.3-.2.4.1-.1 0-.3-.1-.2.1-.1 0-.3 0-.2.2-.1.4.1.3.2.2zM133 10.7s.1 0 0 0c-.2 0-.3-.1-.4-.1-.1-.1.1-.1.1-.1 0-.1.2-.2 0-.2s-.2-.1-.2-.3c.2.2.4.2.6.4.1.1.3 0 .4-.1.1 0 .1-.2 0-.3v-.1c.4-.3 0-.4-.1-.5.3.1.4.3.5.4-.2.4.3.3.4.5-.5-.1-1 0-1.3.4 0 0 0-.1 0 0-.1-.1-.1-.1 0 0-.1-.1-.1-.1 0 0 0-.1 0 0 0 0zM148.5 16.3c0 .4 0 .4-.4.3-.2-.1-.4-.3-.5-.3-.3 0-.4-.4-.5-.4-.1 0-.1-.1-.1-.2s.1 0 .2 0 .1.1.3 0c-.1-.1-.5-.1-.4-.4 0 .4.4.4.5.4.1.1.3.1.2-.1 0-.2.2-.3.2-.4 0 .2 0 .4-.1.5-.1.4-.1.4.3.5.1.1.2.3.3.1zM158.9 2.9s-.1-.3.1-.2c-.3-.2.1-.4 0-.5 0 0 0-.1.1 0 0 0 .1 0 0 .1s-.1.2 0 .3c.2.4.4.5.8.7.2 0 .1.1.1.2s-.1.2-.1.3c0 .2.2.2.2.4-.2-.2-.4-.1-.4-.4 0-.1-.1-.2-.2-.3-.1-.5-.3-.6-.6-.6zM152.5 2.8c.3 0 .3.3.4.4 0-.2.1-.3.3-.2.1 0 .3 0 .3-.2.1 0 .1.2.1.2-.2.3 0 .4.1.5.1.2.3.1.4 0 .1-.3.1 0 .1 0v.1c0 .1.2.1.1.3-.1.1-.2-.1-.3-.1s-.2 0-.3-.1-.2-.1-.3-.2c-.2-.3-.4-.4-.6-.4-.2-.1-.3-.1-.3-.3 0 .1 0 .1 0 0zM130.5 9.9h.5c.3 0 .2-.3.3-.4 0 0-.1 0-.1-.1.1 0 .4-.1.1-.3-.1 0-.3-.1-.2-.4.4.3.6.4 1 .6 0 0 .1.1 0 .1-.3.1-.5.2-.7.3-.3.1-.4.4-.5.4 0 0 0 .1-.1 0-.1 0 0-.2-.1-.2h.1s.2 0 .2-.1-.1-.1-.2-.1c-.2.3-.3.3-.3.2zM165.5 9.9c-.1-.3-.4-.4-.4-.7 0-.1-.1-.2-.2-.4s-.1-.4.1-.4h.1c.2.2.4.4.4.5s.3.4 0 .5c.1.4.1.5 0 .5zM147 5c.2.1.4.1.4 0 0 .2 0 .4.1.5 0 .2.1.4.4.3.2 0 .3-.1.2-.4 0 0 0-.2.1-.2v.3c.1.1-.1.4.3.3.1 0 .1.1.1.1-.1.1-.2.3-.4.2-.2-.1-.4 0-.5-.3 0-.1-.2-.1-.3-.1-.3-.1-.4-.2-.3-.5 0 0 0-.1-.1-.2zM157.3 1.3c.2 0 .3.1.4 0 0 .3-.2.4-.1.6-.2 0-.4-.2-.4-.3-.2-.3-.4-.4-.6-.5-.1-.1-.2-.1-.1-.3.1-.2.2.1.2 0-.2-.3-.2-.4 0-.6 0 .4.2.5.4.7 0 0-.1 0 0 0 .2.1.4.3.5.4-.2.1-.3.1-.3 0zM148.1 9.5c-.5-.3-1.3-.3-1.8-.4.3-.2.3-.2.5 0 .1-.2 0-.4 0-.4h.1c.4-.1.5.1.5.4 0 0 0 .1.1.1.2.1.4 0 .5.1.1 0 .1-.1.1-.3-.1-.2 0-.4.1-.5-.1.3-.1.5-.1 1zM147.4 13.6c0 .4.2.5.5.6h.1c.1-.1 0-.1 0-.2h.1c.3-.1.2.1.1.2-.1.3-.1.3-.4.2-.3-.1-.5-.3-.7-.3-.3 0-.4-.2-.5-.1-.2 0 0-.2-.1-.2.1 0 0-.2.2-.2h.5c.2.1.2.1.2 0zM153.1 19.3c-.2.3.1.3.2.4-.2.2-.4.2-.5.3-.2.2-.5.2-.4.5-.1-.2-.4-.4-.1-.5v-.2c-.3 0-.2-.3-.4-.4-.1-.1 0-.2.1-.2s.1-.1.2 0c0 .1.2.1 0 .2-.1.1 0 .3.1.4.1.1.2.1.4 0 .1-.3.3-.4.4-.5zM144.8 18.3c.1.1.1.4.3.4 0 0 0 .1.1.2.2.1.3 0 .3-.2v.5h-.3c-.3-.3-.5-.1-.7 0-.1 0-.2 0-.1.2 0 .1 0 .1-.1.2h-.2c0-.2-.2-.2-.3-.3.2.1.4 0 .4-.1.1-.1-.2-.1 0-.2.1.1.3.2.4 0 .1 0 .1 0 .2.1 0-.2-.1-.3-.1-.4h-.1c-.1.2-.1 0-.2 0 .1-.3.4-.1.4-.4zM137.1 17.6c-.2.2-.4.1-.5.3 0 0-.1 0-.1.1s0 .1-.1.1c-.4-.1-.8 0-1.3-.2v-.1c.4 0 .5.1.8.1.2 0 .4 0 .4-.1 0-.2 0-.4-.2-.4-.3-.1-.5-.2-.8-.3h-.1c0-.1.1 0 .1 0 .4-.1.8.3 1.3.4.2-.1.3.1.5.1zM157.1 5.2c0 .2.4.4.4.4.2 0 .1-.1.1-.4.2.1.3.2.2.4 0 .1 0 .2-.1.3 0 .4 0 .4.4.4.1.1 0 .3.1.4.1 0 0 .1 0 .1h-.1c-.2-.2-.4-.3-.5-.4-.1 0 0-.2-.1-.3-.2-.2-.4-.4-.5-.4-.3-.1-.2-.2-.1-.4.1 0 .1 0 .2-.1zM138 18c.4 0 .5-.4.5-.6 0-.1 0-.1-.1-.1-.3-.1-.5-.3-.8-.4.4.1.8.3 1.2.5l.1.1c.3-.3.4.1.5.1.2 0 .4.2.5.1-.1.2-.1.2-.3.1-.2-.1-.4-.2-.5-.2-.4 0-.5.3-.7.5 0 .1-.1.2-.2 0 0 0 0-.1-.1 0 0 0 .1.2 0 .1-.1 0-.1 0-.1-.2zM131.5 7.9c.2 0 .4.2.5.4.2.2.4.1.5 0 .1 0 .1-.1.1-.2s0-.2-.1-.2-.2-.2-.4-.2c.2-.1.4.3.5.1 0-.1-.1-.1-.1-.2l.7.7c-.2-.1-.4-.1-.5-.1-.3 0-.4.1-.5.3 0 0-.1 0-.1.1h-.1v-.1s.1-.1 0-.2c0 .1-.2-.2-.5-.4zM163.3 6.3c.3.4.5.5.7.8v.1c0 .1-.1.3-.2.4-.2-.2-.4-.4-.4-.5 0-.1-.1-.2-.2-.3-.1-.2-.2-.4.1-.5zM141.6 18.1c-.3 0-.4-.2-.6-.2h-.2c-.1.2-.4.1-.5.3 0-.3-.2-.4-.4-.3.1 0 0-.4.3-.1.1.1.4 0 .4-.1.1-.1 0-.4-.1-.4-.2-.1-.4-.3-.4-.4.5.4 1.1.7 1.5 1.2zM132.8 15.8c-.3 0-.5-.1-.7-.1h-.1c-.1.4-.4.4-.5.6 0-.3-.1-.3-.3-.3-.2 0-.4 0-.5-.2h.3c.4.1.5.1.7-.2 0 0-.2-.1 0-.2.1 0 0-.1 0-.2-.1-.1-.3-.2-.4-.3.4.4.8.7 1.5.9zM148.9 26.9c-.2-.1-.4-.1-.5-.2-.1 0-.4.2-.4.3 0 .2 0 .1-.1.1-.1-.1-.3-.1-.4 0-.4.2-.4.2-.4-.2.2.3.3.2.4 0 .1-.1-.1-.1 0-.2 0 0 .1.1.2.1s.2 0 .3-.1 0-.1-.1-.2c0 0-.2-.1-.1-.2.1 0 .1-.2.3-.1.2.3.5.5.8.7 0-.1 0-.1 0 0zM138.9 11.3c.4.3.5.5.8.8.3.2.4 0 .4-.1.1 0 .1-.3 0-.4 0 0 0-.1-.1-.1s0 0 0-.1h.1c.1.2.3.4.4.5-.4 0-.6.4-1 .4-.2 0-.4.1-.5.4.1-.3.4-.3.4-.4 0 0 .2 0 .1-.2s-.2 0-.3 0c-.1.1-.3.2-.4.3-.1 0-.2 0-.2-.1s0 0 .1-.1c.2 0 .4-.2.4-.3.1 0 0-.1 0-.1l-.4-.4c.3.1.2.1.2-.1zM135.6 10.7c0-.1-.2 0-.3-.2.1-.1.3.1.4 0 0-.1-.2-.1-.1-.2 0-.1.1 0 .2 0 0 0 .1 0 .1-.1v-.1l-.4-.4c.5 0 .9.4 1.3.8-.1 0-.2 0-.3-.1-.2-.2-.4-.2-.5 0 0 .3-.2.3-.4.3zM143.7 15.4c.1-.1.2-.1.3-.2 0 .2.1.4.2.4s.1.3.3.1c.1-.1 0-.2 0-.3.1 0 .2.2.3.1 0-.1.1-.2 0-.4v-.2c.1 0 .1 0 .1.1 0 .2 0 .4.1.4.1.2 0 .3-.2.3h-.4-.2v.1s-.1-.1 0-.1c0-.1 0-.2-.1-.2 0 0-.1-.1 0-.3-.2.2-.3.2-.4.2zM157.2 10.7c-.3-.1-.4-.4-.5-.4v-.1c0-.2.1-.4.2-.5.1-.1.3.2.4.2.4.2.1.4 0 .5 0 0-.1.1-.1.3zM144.6 10.5c.3.1.4 0 .6 0 0 0 .1-.1.1 0 .1.1-.1 0-.1.1s.1.2.2.3v-.2c.1.2.1.2.4 0h.1c0 .1 0 .1.1.1s.1-.1 0-.1v-.2c0 .1.1.1.1.3 0 .1.1.2.1.3-.2-.2-.4-.1-.5 0-.2.1-.4 0-.4 0-.3 0-.4-.2-.7-.1v-.5zM161.9 5.5c-.2-.1-.3-.2-.3-.4 0-.1-.1-.3-.3-.3-.3-.1-.2-.3-.2-.4 0-.1.1-.1.1-.2 0 0 .1 0 .2.1.1.2.3.4.4.4.1 0 .1.1.1.3v.5zM163.7 12.5c0-.1 0-.1 0 0 .2 0 .4.1.4.2-.1.2.1.3 0 .4.1 0 .2-.1.2-.2s.1-.1.1-.1v.1c.1.1 0 .1-.1.1-.3.2-.4.4-.5.5-.1-.3-.2-.5-.4-.7v-.2c.3 0 .3-.1.3-.1.1 0 .1 0 0 0 .1 0 .1 0 0 0zM138.3 15.8c-.4.2-.8.3-1.3.5 0-.2-.1-.4-.3-.4.1 0 .2.1.4.1s.4 0 .4-.2c.1-.2-.2-.1-.3-.3h.3c-.1-.4-.4-.4-.5-.5.3.4.9.5 1.3.8zM151.9 13.9c0 .1 0 .3-.1.4-.1.2 0 .3 0 .4-.1-.3-.4-.2-.5-.5 0-.1 0-.2-.2-.2-.3 0-.4-.2-.5-.2-.1 0 0 0 0-.1 0-.2 0-.3.1-.4 0 .2 0 .4.4.4.1 0 .1.1.2.2.2.1.2 0 .3-.1 0-.1.1-.1.1-.2.1.1 0 .2 0 .4 0 .3.1.4.3.4 0 0 .1 0 .1-.1-.4-.3-.4-.4-.2-.4zM139.4 22.9h.3c-.1.1-.3.1-.4.1-.2 0-.3 0-.3.3M138.6 22c.4-.1.7-.2 1.1-.1-.2.1-.4 0-.4.3h-.1M139.4 9.7c.2.2.4.4.5.4.1.1.3.2.4 0 .1-.1.3-.3.2-.4-.1-.1-.1-.3-.2-.4v-.2c.1.2.2.3.3.4 0 0 .1.1 0 .2 0 .1 0 .1.1 0 .1 0 .1.1.2.2s0 .1-.1.1c-.3.2-.5.1-.8.2-.1 0-.3 0-.3.2l-.1.1s.2.1 0 .1-.4 0-.4-.1 0-.1.1-.1.3-.1.4-.2c.3-.1.3-.2.1-.4-.3.1-.4 0-.4-.1zM161.5 7.5c-.3-.2-.4-.4-.5-.5-.1 0-.1-.1 0-.2s.1-.3.3-.4c.2.1.2.4.4.4 0-.1-.1-.3.1-.3h.1s-.1-.2.1-.1c.1 0 0 .1 0 .2-.1.2-.2.4-.3.5-.2.2-.2.3-.2.4zM134.4 6.4c.1.3.2.4.3.5 0 .1 0 .1-.1.1-.2.1-.4.1-.5.3h-.1c-.2-.2-.4-.4-.5-.6.2.1.3.4.4.4 0 0 .1.1.1 0 0 0 .2-.1 0-.2 0 0 0-.2.1-.1.2.1.2-.2.3-.4zM157.5 13.5c-.1 0-.2-.1-.2-.3-.1-.3-.3-.5-.4-.6-.1-.1-.2-.2-.1-.4.1-.1 0-.3.1-.4.1.1.3.2.4.4.1.1.3.3.4-.1 0 .3-.1.4-.2.4-.1.1-.1.3-.1.4 0 .1.1.3.3.1-.1.3-.2.4-.2.5zM150 5.7c0 .4 0 .4.4.5-.2 0-.2.3-.3.4-.2-.3-.4-.5-.7-.5-.1 0-.1-.1-.1-.2v-.5c.1 0 .3.1.4 0-.1.3 0 .5.1.7 0 0 0 .1.1.1 0 0 .1 0 0-.1-.2-.3.1-.2.1-.4zM150 11.4c.1-.1.1-.3.2-.4.1.1-.1.4.2.4v.1c.1.4.1.4.4.5.1-.1 0-.3.1-.4v.3c0 .1 0 .3-.1.3s-.1-.1-.2-.2-.2-.1-.3-.3c-.2-.2-.4-.2-.5-.2-.2 0-.4-.1-.4-.4V11c.3 0 .3 0 .4-.3.2.3.2.5.2.7zM145.7 15.3c-.2-.2-.2-.2-.3 0v-.1-.1c.2-.1.3.1.4 0v.2c0 .4 0 .4.4.5v-.1c-.1-.2.1-.2.1-.3h.1v.2c-.1.1 0 .3-.1.4-.2-.1-.4-.1-.5-.2 0 0-.1-.1-.2 0 0 0-.2 0 0-.1v-.1c-.2 0-.2-.2-.1-.3.1 0 .2.1.2 0zM162.8 8.3c.2.2.3.5.5.5v-.1-.1c.1.2.3 0 .4 0-.3.3-.4.5-.5.8 0 0-.1-.1-.1-.2 0-.3-.2-.4-.4-.5-.1 0-.1-.2.1-.4zM164.9 11.6c0 .2-.3.2-.2.4-.2-.3-.3-.4-.3-.5s-.1-.4-.2-.5c-.1-.1-.1-.3.1-.4.1.1 0 .3.2.3.1-.2-.4-.4 0-.5 0 0 .1 0 0 .1 0 .2 0 .3.2.4-.4-.1-.1.2-.2.2.3 0 .1.4.4.5zM152 7.3c-.4-.2-.5-.5-.8-.6 0 0-.1-.1 0-.2.1-.3.1-.4.1-.6.1 0 .1 0 .1.1s0 .2.1.2 0-.1 0-.1c0-.1.1 0 .1 0 .1.1.1.2.1.3 0 .3-.1.5.2.7 0 0 .1.1.2.1-.1-.1-.1-.1-.1.1zM150.8 8.3c0 .3-.1.4-.4.2-.1 0-.3-.1-.4-.2-.1 0 0-.3 0-.4.1 0 .2.1.4.1 0 0 .1 0 .1-.1s-.1 0-.1 0c-.2.1-.2-.2-.4-.2.1.1.1.2.3.1.2 0 .1-.2.2-.3-.1.4.2.6.3.8zM159.3 10.1c-.1-.2-.2-.4-.3-.4-.1-.1 0-.5.1-.6.1-.1.1.1.2.1.3.1.3.3.1.4v.1c0 .1 0 .2-.1.4zM159.1 15.9c-.1-.1-.1-.2-.1-.3 0-.4-.2-.5-.4-.6-.1-.1-.1-.1 0-.2s.1-.4.3-.4.1.3.2.4c.3.2.3.4.1.5-.2.1-.1.3-.1.6 0-.2 0-.1 0 0zM137.9 14.6c-.3-.1-.5-.3-.7-.4-.2-.1-.4-.1-.5 0-.1.1-.2.2-.4.3 0-.1 0-.2-.1-.2-.2-.1-.4-.2-.4-.3-.1 0-.1-.1 0-.1 0-.1.1 0 .1 0 .1.1.3.1.4.2.1.1.3.1.4 0 .3-.3.3-.3 0-.5-.1-.1-.2-.2-.3-.4.5.4.8.9 1.5 1.2.1.1.1.1 0 .2zM147.1 12.3c.1 0 .1.1.2.1v-.3c0 .3.1.4.1.5s-.1 0-.2 0c-.4-.1-.7-.2-1.1-.3-.1 0-.3-.1-.4.1h-.2v-.1c0-.1.1-.1.2 0 .3.1.4 0 .6 0 0 0 .1 0 .1-.1s-.3 0-.1-.3c.1-.1-.2-.1-.2-.2.2 0 .3 0 .4.2 0 .1 0 .2.1.3 0 .3.3.2.4.3.1-.1 0-.2.1-.2zM141.3 11.4c-.1-.1-.2-.1 0-.2s.2-.3 0-.4c0 0-.1 0 0-.1l.3.3c.1.2.4.4.5.4.1 0 .1 0 .1-.1 0 0-.2-.1 0-.2.2 0 0-.2 0-.4v-.2c0 .4.4.5.3.9h-1.2c.1.1 0 .2 0 0 0-.1.1-.1.2-.2-.1 0-.2.1-.2.2zM161.5 13.3v.2c0-.2.1-.4-.1-.5v-.1c.2-.1.3-.4.5-.4.1.2 0 .4-.1.4 0 .1-.2.2-.1.3.1 0 .2 0 .3-.1h.1v.1c-.2.2-.3.4 0 .5 0 0 0 .2.1.3v.1c-.1 0-.1 0-.1-.1-.3-.3-.4-.5-.6-.7zM155.8 19.3c.1.1.4.1 0 .3-.2.1-.3.3-.1.5 0 0 .2.2 0 .2s-.1-.1-.2-.2c-.1-.3-.2-.5-.1-.7 0-.2 0-.4-.3-.4.3-.1.4-.4.7-.4 0 .2-.3.2-.4.3-.1.1-.1.1 0 .2.2-.1.3.1.4.2-.1 0 0 0 0 0zM148.8 28.7c.2 0 .4.2.4.4.4.3.6.1.9-.1.2-.1.2 0 .3 0-.2.1-.4.1-.5.3-.2.3-.5.1-.6.4 0 0-.1 0-.1-.1s.1-.1.1-.2c-.1 0-.3 0-.2-.3 0 0-.1-.2-.2-.2 0-.2 0-.2-.1-.2zM137.6 8.1h.2c.2.4.5.5.8.7l.4.4c-.2-.3-.4-.3-.6-.1h-.1c0-.3-.3-.3-.4-.4.2 0 .3.4.4.3-.1-.4-.4-.7-.7-.9zM140.6 22.8c-.4 0-.4.3-.4.5s.1.4.4.3c.3-.1.5-.3.9-.3-.4.1-.5.2-.8.3-.1 0-.2.1-.3.2-.1.2-.3.1-.4 0-.1-.1-.1-.3-.3 0 .1-.2.3-.4.3-.5s-.1-.4-.4-.4c.6-.2.9-.2 1-.1zM146.1 6c-.1-.2-.3-.3-.4-.4-.4 0-.5-.1-.5-.5 0-.2-.1-.4-.1-.4.2-.1.2.1.2.2 0 .3.3.4.4.6.2-.1.3.1.4 0 0 0 .1 0 .1-.1 0 0-.1-.2 0-.1.1 0 .2.1.1.3-.3.1-.2.3-.2.4zM162.7 15.9c-.1-.4-.1-.5-.3-.8 0 0 0-.1.1-.1.2-.1.4-.3.5-.4 0 0 .1-.1.2 0s.1.2 0 .3c-.4.3-.5.4-.4.9 0 0 0 .1-.1.1zM131.4 19.8c-.2.2-.4.2-.5.3-.2.1-.2.1-.3.3 0 .1-.3.1-.4.2 0 0-.3-.2-.3-.3M148.5 28.5s-.1 0 0 0c-.3-.2-.4.1-.5.2v.1s.1 0 0 .1h-.1c-.1-.4-.4-.1-.5-.1-.4.1-.4.1-.4-.4.1.2.2.3.3.2.2 0-.1-.2 0-.2.3.2.4.3.5 0 .4 0 .2-.2.1-.3 0 0-.1-.1-.1-.2.3.1.5.4.7.6zM155 12.4c.1.4.4.5.5.7 0 0 .2 0 .1.2 0 .1-.1.2-.2.3l-.2-.1c-.1-.3-.3-.4-.5-.5v-.1c.1-.3.2-.4.3-.5zM143.7 10c0 .3.1.5.2.8 0 .1 0 .2-.1.2h-.5c-.2 0-.3-.1-.4-.2v-.1c.3 0 .1-.2.1-.3.1 0 .1 0 .2.1 0 .2.2.2.3.3 0 0 .1.1.1 0 .1-.2.2.1.3 0 .1-.1.1-.2 0-.4-.3 0-.2-.2-.2-.4zM154.6 20.2h.2c0 .2-.4.2-.1.4l-.1.1c-.3.1-.4.4-.3.5v.4c-.1-.1-.1-.2-.1-.4 0-.1 0-.2-.2-.2.3-.3.2-.5.1-.8 0-.1-.1-.1 0-.2.1 0 .2-.1.3 0 .1.4.1.3.2.2zM150.4 23.1c-.1.1-.2.1-.4.1.2.4.2.4-.2.4-.1 0-.1.1-.2.2 0 0 0 .2-.1.1s0-.1 0-.2c.2-.2.2-.4.2-.5 0-.2-.3-.2-.3-.4h-.1c0-.1.1-.2.2-.2 0 0 .1 0 .1.1.4.4.4.4.8.4zM154.3 22.6c.3-.1.4-.1.7-.2 0 .1 0 .2-.1.3 0 0 0-.2-.1-.2s-.1.1-.1.2v.1h-.1c-.1 0-.1-.1-.1 0 0 .2-.1.4 0 .4v.1c-.3.3-.2.5-.2.7 0 0 0 .1-.1.1s-.1 0-.1-.1c.1-.3 0-.5.2-.8.2-.1.2-.4 0-.6zM153.6 21.6c-.1 0-.2 0-.3.2 0 .1-.1-.1-.2-.1.1.1 0 .3.1.4v.1c-.4.2-.4.2-.4.5-.2-.1 0-.2 0-.4.1-.3 0-.4-.2-.5.4-.1.6-.3 1-.4.1 0-.1.1 0 .2zM148.9 24.9c.4 0 .8 0 1.2.1-.2 0-.4.1-.5.1-.2 0-.1.3-.2.4v.1c-.3 0-.4.3-.6.4h-.1c.1 0 0-.1.1-.1s.2-.1.3-.2c.2-.1.3-.2.3-.4-.3-.2-.4-.2-.5-.4zM135.1 17.8c-.5-.1-.6.4-.7.6-.1 0-.1-.2-.3-.2.4-.2.4-.3.1-.5-.2-.2-.4-.2-.6-.3.4.2 1 .3 1.5.4zM146.4 7.1c.2 0 .1.2.2.3 0 0 0 .1.1.1s.2 0 .2-.2-.1-.4 0-.5c.3.2.2.5.4.6.1-.1-.1-.2.1-.3.1.2 0 .4.1.5 0 .1 0 .1-.1.1-.2 0-.4-.1-.5-.1s0 0 0-.1c-.4-.2-.4-.2-.5-.4zM132.8 15.8h.4c.2 0 .4 0 .4-.2.1-.1.1-.3 0-.4 0-.1-.2-.1-.3-.2s-.3-.1-.4-.3c.4.2.8.4 1.3.5-.1 0-.4-.1-.4-.1-.2.2-.4.4-.4.5 0 0 0 .1-.1.1s-.1-.1 0-.2 0-.1-.1-.1c-.1.5-.3.5-.4.4zM141.5 21s0-.1 0 0c.3.1.4.2.5.3 0 0 .1.2.2 0 .1 0 .1.1.3.2-.2 0-.4 0-.4.1 0 0-.1.3-.2 0 0 .4-.4 0-.4.2 0 0 0-.2-.1-.2.2 0 .4 0 .4-.3 0-.2-.1-.3-.3-.3zM155.1 4c.1.1.3 0 .3.3.1 0 .1-.1.2-.1-.1 0 0 0 0-.1.1 0 .2 0 .2-.1s-.1-.2-.4-.1c.1-.1.3-.1.4 0 .1.1 0 .2 0 .3 0 .2-.1.4-.1.4 0 .2.2.2.2.4-.2 0-.3-.1-.3-.3s-.3-.3-.4-.4h-.1c-.1 0-.1 0-.1-.1s.1 0 .1 0h.1c-.1 0-.1-.1-.1-.2zM149.1 20.2v.2c0 .3.1.4.4.4 0 0 .1-.1.1 0 0 0 0 .1-.1.1s-.1.1 0 .2c0 0 .1.1 0 .2-.2.1-.1.4-.2.5-.2-.2-.2-.4-.1-.5 0-.2 0-.4-.2-.4-.1-.4-.1-.5.1-.7 0 .1 0 0 0 0zM148.3 13v-.3c.4.1.6.3 1 .4.2.1.3.3.4.4 0 0 0 .1-.1 0-.2-.1-.3-.3-.5-.3-.1-.4-.4-.3-.6-.4-.2 0-.2.2-.2.2zM149.5 15.2c-.1-.3-.4-.4-.5-.4 0 0-.1 0 0-.1s0-.2 0-.3c0-.2 0-.3.3-.2.4.1.4.4.3.5-.2.3-.1.3-.1.5zM153.4 24.1c-.2 0-.4-.1-.5 0 0 0-.3.1-.2-.2 0-.1 0-.2-.2-.2h-.4c.1-.1 1.3-.4 1.4-.4 0 .1-.1.1-.2.1-.2 0-.4.2-.5.2v.1c0 .1 0 0 .1 0 .4.2.5.3.5.4zM142.9 7.2c.1 0 .2.1.3.2 0-.3-.1-.4-.2-.6.3.4.3.6.4.8v.2h-.4c-.4 0-.5-.1-.9-.1.3-.1-.1-.2 0-.4.2.1.3.3.4.3h.4c.1-.2 0-.3 0-.4 0 .1 0 .1 0 0zM144.5 17c0 .3.1.4.2.6-.3 0-.4 0-.5.1 0-.1.1-.1.2-.2-.5 0-.5-.4-.7-.7l.4.4c.1.2.4.3.5.1-.1 0-.1-.1-.1-.3zM138 11.3c-.4.2-.7.2-.6.7-.1-.2-.2-.3-.3-.4h.1c.1.1.1 0 .1-.1 0-.2.4-.2.2-.4 0-.1-.2-.2-.3-.1-.1 0-.1.1-.2 0 0-.1.1-.1.1-.2.1-.2.1 0 .1 0 .2.3.4.4.8.5zM155.7 20.7c.1 0 .2.1.2.2s0 .1.1.1c0 0 .1-.1.1 0 .1.1 0 .1 0 .2s-.2.1 0 .2c.1.1.2.1.3 0h.2s-.1.1-.2.1-.2.1-.1.3c0 .2.1.4 0 .5-.2.2-.1.4-.1.6 0-.3-.2-.4 0-.6.1-.1 0-.4 0-.4 0-.2 0-.4-.2-.4-.1 0 0-.2-.1-.3-.1-.2-.1-.4-.2-.5zM156.7 23.7v.2c-.3-.2-.3.3-.4.2-.1 0 .1.1.1.2-.1 0-.2 0-.3.1-.1.2.1.2.1.3-.2.2-.2-.1-.4-.1 0-.2.2-.4-.1-.5.1-.1.2-.2.3-.1h.1c0-.1.1-.2.3-.2h.1c.1-.2.1-.2.2-.1zM160.4 11.6c-.2-.3 0-.4.1-.5.1-.1.2-.3.3-.4v.2c-.2.2-.2.4 0 .5-.4.1 0 .4 0 .4v.1h-.1c-.2-.1-.3-.2-.3-.3zM134.3 14c.2 0 .4.2.4-.1 0 0 .1 0 0-.1s-.1 0-.2 0c.2 0 .4-.1.4-.3h.1c0 .2.2.2.3.3.1.1.3 0 .4.2-.2 0-.4-.1-.4-.1h-.3c-.2.2-.4.3-.5.4 0-.2-.2-.2-.2-.3zM147.9 7h.2c.4.1.3-.1.2-.3v-.3c.1.2.1.4.3.5.1.1.2.1.3.1s.1-.2 0-.3c-.1-.1 0-.3 0-.4 0 .4.1.6.4.9-.3-.1-.5-.3-.7-.4-.1 0-.1-.1-.2 0h-.1c-.2.2-.3.2-.4.2 0 .1 0 .1 0 0zM151.5 26c.4 0 .8-.4 1.3-.1-.2 0-.4.1-.4.2-.3.2-.3.2-.1.4-.1 0-.2 0-.2-.1s0-.2-.2-.2c0 0-.3 0 0-.2 0 0 0-.1-.1-.1-.1.1-.2.1-.3.1zM160.9 14.3c0 .1.1.1.1.2-.1.1-.1-.1-.2 0 .2.2.1.4 0 .4-.1.1 0 .3 0 .4v.4c-.1-.2-.1-.4-.2-.5 0-.1 0-.3-.2-.4-.1 0 0-.1 0-.1.2.1.2-.3.5-.4-.1 0 0 0 0 0zM162.8 10.8c.1 0 .1.1 0 .2s-.1.4-.2.5c-.2-.2-.3-.4-.4-.5-.1-.2-.2-.2-.3 0 0 0-.1.1-.2 0 0-.1.1-.1.1-.2.2-.3.3-.3.4 0H162.8c-.1 0-.1 0 0 0zM147.4 22.5c-.1.1-.2.2-.1.4.1.1 0 .5.4.4-.1.2-.1.3-.3.4v-.1c-.4 0-.2-.4-.3-.5-.1-.2-.3-.4-.3-.5 0 0-.1-.1 0-.1 0 0 .1-.2.2 0 .1-.2.2 0 .4 0zM157.2 10.7c.1 0 .1.1.2.2s.1.2.2 0c0 0 0-.2.1-.1 0 0 .1.1.1.2-.1.2 0 .3.2.4.2.1.2-.2.3-.1 0 .2-.2.3-.3.4-.2-.3-.4-.4-.5-.6-.3-.3-.3-.4-.3-.4zM150.9 2c0 .2-.1.4.1.5-.4-.1-.5-.3-.8-.3-.1 0 0-.2 0-.3 0-.1.1 0 .1 0 .1 0 .3.3.4 0 .1.3 0-.1.2.1zM155.2 15.6c-.2-.2-.3-.5-.5-.5-.1 0-.1-.1-.1-.2.1-.2.2-.4.2-.5.1.2.2.3 0 .4v.2c.2.1.3.3.4.4.1 0 .2.2.2 0h.1c.1 0 0 .1 0 .1-.2-.2-.2-.1-.3.1zM141 15.4c.3-.3-.2-.4-.1-.4.1.1.2.2.4.2.1 0 .2 0 .3-.1 0 0 .1-.3 0-.3-.2-.1-.1-.4-.3-.4.2 0 .2 0 .3.1.1.1 0 .4.3.4 0 .1 0 .2-.1.3-.1 0-.2.1-.3.1-.2 0-.3 0-.5.1zM142.3 19.8h-.3c-.4-.2-.4-.1-.6.1-.1.1-.4.1-.5.2 0-.1.1-.1.2-.2.4-.2.4-.4.1-.5 0 0-.1 0-.1-.1.3 0 .7.2 1.2.5-.1 0 0 0 0 0zM141.4 13.3c.1-.1.2-.2 0-.4-.1 0-.2-.2-.2-.4.2.1.2.3.3.4.2.2.3 0 .4-.1.1 0 .3.4.3 0 .1.1.1-.1.2 0 0 .1.2.1.2.2s0 .1-.1.1c-.7-.1-.9.2-1.1.2zM134.1 16.9c-.1.2-.3.1-.4.1h-.4c-.4 0-.5.2-.4.5 0 .1-.2.1-.1.3-.2 0 0-.4-.3-.3.3-.3.3-.5.4-.8.1.2.2.2.4.2h.8zM151.2 17.6c.1.2.1.2.3 0 .1.1 0 .2-.1.3-.1.3-.3.5 0 .7.1.1 0 .1 0 .2-.1 0 0 0-.1-.1-.1-.2-.2-.4-.4-.5-.1-.1 0-.1 0-.1 0-.2.1-.4.3-.5zM155 17.2c0 .1-.1.2-.1.3-.2.3-.2.4 0 .6 0 0 .1 0 0 0 0 0-.1.1-.1 0-.1-.1-.2-.2-.2-.4s0-.4-.2-.5c-.1-.1-.3-.2-.4 0 0-.2 0-.4.2-.4 0 .1.2.2.2.4 0 .1.1.1.2.1s0-.1 0-.2c.3.1.4.1.4.1zM139.8 14.1c0 .3-.1.3-.3.3s-.4-.1-.4.2c0 .1-.1.1-.2 0v-.1c.2-.1 0-.2 0-.3 0 0-.1-.1-.2-.1.4-.3-.3-.4-.1-.5l.4.4c.1.2.3.3.4.4.2 0 .3-.2.4-.3zM153.3 27.2c.1-.3.2-.5-.2-.6.4.1.7.2 1.1.3-.2 0-.3.1-.4.1h-.1c0 .2-.3 0-.4.2zM148.9 7.5c-.2.2-.4.2-.6.2-.2 0-.4-.2-.3-.4 0 0 0-.1.1-.1h.1s-.2.1 0 .2c.2 0 .3.1.4.1.1-.1.2-.2.3 0-.1.1 0-.1 0 0zM157.2 15.7c-.1 0-.2-.1-.2-.2 0-.2-.1-.4-.3-.4-.2-.2-.2-.4 0-.5 0 0 0-.1.1-.1s.1.2.2.2c-.1 0-.2 0-.3.1.2 0 .2.3.4.4.1 0 0 .1 0 .2-.1-.1-.1.1.1.3zM152.3 9.3c-.4 0-.5-.2-.7-.4-.3-.3.1-.5.1-.8v.4c-.1.3 0 .5.3.5 0-.2.1-.4.1-.4.1 0 0 .1 0 .2-.1.2-.1.3.2.5zM155 26.4c.4 0 .8.1 1.3.3-.6-.3-1 0-1.2.5 0-.2 0-.4.1-.4 0-.1 0-.2-.2-.4zM150.9 19.3c-.1.3-.2.4-.3.5-.1.3-.1.4.2.5h.1s-.1.1-.2.1h-.1c-.1-.2-.2-.4-.3-.4v-.2c.1-.1.2-.4.6-.5zM154.1 8.2c-.2.1-.4-.1-.4.2-.2-.4-.5-.4-.5-.8s.1-.6.3-1c-.4.8-.4 1.4.6 1.6zM158.4 17s-.1 0 0 0c-.1-.2-.1-.3 0-.3s0 .1.1.1c-.1.1 0 .1-.1.2-.2.3.1.5.1.8 0 .1.2.1.1.3 0 0 0 .1-.1.1s-.1-.1-.1-.1c0-.3-.1-.5-.2-.6v-.1s-.2-.1-.1-.3c.1-.2.2.1.3-.1zM148.3 20.1c-.1-.1-.3-.2-.4-.3-.2-.2-.2-.4 0-.5 0-.1 0-.2.1-.1 0 0 .1.1.1.2 0 .3 0 .4.3.5-.1.1-.1.1-.1.2.1 0 0 0 0 0zM141.7 9.3c.2.1.3.4.5.2.1-.1.2-.1.1-.3-.2-.3-.2-.5-.4-.8.2.2.2.3.2.4 0 .1.1.2.2.3.2.1.2.3.3.4 0 .1 0 .1-.1.1-.4.1-.5.1-.9.1-.1-.3.2-.2.1-.4zM140.4 7.6c.1 0 .3.3.4 0 .2.2.2.4.4.5v.1c-.3-.1-.4.1-.6-.1.2-.2-.1-.3-.2-.5zM152.9 15.2c0 .1.1.1.2.2s.3.2.4 0c-.1.4 0 .8.4 1.1-.2 0-.3-.2-.4-.3-.1-.1-.2-.3-.3 0 .1-.4.1-.5-.3-.7-.1-.1-.1-.1 0-.3zM155 10.7c0-.1 0-.3.2-.1 0 0 .1.1.2.1.3.1.2.3.1.4-.1.2-.2 0-.3 0-.2 0-.4 0-.4-.2s.1-.2.2-.2c0 0 .1 0 0 0 .1 0 0 0 0 0zM144.7 23.9c-.2.4-.3.8-.4 1.2 0-.3.1-.4-.1-.5v-.2c.1-.1.2-.4.5-.5zM144.7 13.6c.3-.2.4.1.4.2.2.3.4.2.5.1 0 0 .1-.1.2 0v.2c0 .1-.1.1-.2 0-.2-.1-.4 0-.4 0-.2 0-.3-.1-.3-.3 0 0 0-.2-.2-.2zM161.4 9.6c-.3-.1-.3-.4-.5-.5l.4-.4c.1 0 .3 0 .2.2-.4.1-.2.4-.1.7zM137.6 13.2h.3c.3 0 .4-.1.3-.4 0-.1-.1-.3-.2-.4 0 0-.1-.1 0-.1h.1c.1.3.2.4.4.5.1 0 .1.2.1.4-.2-.1-.4-.1-.5 0-.2.2-.4.2-.5 0z"/><path fill="#D72129" d="M144.5 12.9c.1.4.1.4.4.5-.1.2-.4-.2-.4 0s0 .3.2.3c-.1.1-.2.3-.4.1-.2-.2-.1-.3 0-.4.1-.1.2-.2 0-.4 0 .1 0 .1.2-.1zM147.3 21c.1.2.4.2.3.5 0 .1.1.3.3.4 0-.1.1.2.2 0 0-.2.3-.3.4-.4-.1.3-.4.4-.5.5h-.1c-.1-.1-.4-.3-.4-.4 0-.2-.1-.5-.2-.6zM156.9 17.3c0 .2-.2.3-.3.4-.1-.3-.2-.4-.4-.5-.1 0-.1-.1 0-.2 0-.1.2-.2.3-.3-.1.3.3.4.1.5 0 .1.2.1.3.1zM151.2 23.2c0-.2 0-.3-.3-.3.4-.2.8-.2 1.3-.4-.1.1 0 .4-.2.1 0 .3-.3.2-.4.3-.1.2-.3.1-.4.3zM144.9 7.4c-.2 0-.4-.1-.5 0-.1 0-.1-.1-.1-.2.1-.1.3 0 .4-.1-.1-.2-.4 0-.5-.1.2-.1.4 0 .4-.2.1-.1-.1-.3 0-.4 0 .4.1.8.3 1zM147.5 18.2c.4-.2-.1-.2 0-.4.1-.1.1-.3.1-.4.2 0 .3.2.4.3h-.1c-.1 0-.2-.1-.2 0 0 .2.1 0 .2.1.2.1.3.4.3.5-.4-.1-.5-.2-.7-.1zM148.9 12.7s.2 0 0 0c0-.4-.1-.5-.4-.5.2.1.4 0 .5.4 0 .3.4.3.4.4.1-.1 0-.2.1-.3 0 .1.1.2.1.2 0 .1.2.1.1.2h-.3c-.1-.2-.3-.3-.5-.4zM151.3 27.3c0-.2.1-.3.2-.4-.1-.2-.4-.1-.5-.3.4.1.6.2.9-.1 0 .1-.1.2-.2.3-.1.1-.1.1 0 .2v.1c0 .1-.1.1-.2.1.1 0-.1 0-.2.1zM155.1 25.1c-.1 0-.3.1-.4.1-.1 0-.1 0-.1.2 0 .1.1 0 .2.1-.2 0-.4 0-.5.3 0-.2.1-.4 0-.4v-.1c.1-.2.4-.2.8-.2 0-.1 0-.1 0 0zM152 30.4c-.1 0-.2-.1-.3-.2-.2-.2-.4-.3-.7-.2.3-.3.1-.4 0-.5.4.3.7.5 1 .9zM145.2 17.1c.1.3.3.3.4.2.1 0 .4 0 .3-.4 0-.1-.1-.3 0-.4.1.4.4.5.4.8-.2 0-.1-.2-.2-.3-.3.1-.4.1-.6.1-.2.2-.4.1-.3 0zM141.1 21.4c-.4-.2-.5 0-.6.4 0-.2 0-.3.1-.4 0-.1 0-.2-.1-.1s-.2 0-.3-.1c-.2-.2-.4-.3-.6-.3.5.1 1 .4 1.5.5zM140 19.6c.4.1.5.2.8.4-.1.1-.3.1-.4.3 0 0 0-.1-.1-.1-.2 0-.2-.3-.4-.2 0 0-.1-.1 0-.1.2-.2 0-.3.1-.3zM136.3 12.4c.1-.1.2-.2 0-.2.2-.3-.2-.4-.1-.5.3.1.4.4.5.5-.2.3-.4.2-.4.2zM139.7 7.8c-.1-.1-.1-.1-.2-.3.4.2.5.5.9.5-.4.2-.4-.2-.5-.2-.2 0-.4-.1-.4 0-.1 0-.2.1-.4 0 .2 0 .3-.1.6 0zM133 18.6c0 .1-.2.1-.3.2-.1.1-.3.1-.3.4 0 .1-.1.2-.3 0 0-.1-.1-.3-.3-.3.4-.2.9-.2 1.2-.3zM160.3 17.3c0 .1-.3.2 0 .3.1 0 0 .1 0 .1-.1.1-.2.1-.2.3-.1-.4-.1-.5-.3-.8.1-.1.1 0 .2 0h.1c-.1.1-.1.1.2.1-.1.1 0 .1 0 0 0 .1 0 0 0 0zM160 1.5s.1-.1.2 0 .2.1.4-.1c0 .2-.1.3 0 .4.1 0 .2-.1.3-.2 0 .2-.1.4-.2.5-.3-.3-.6-.3-.7-.6zM146.8 19.8c-.2.4 0 .9.4 1.3-.1 0-.2.1-.4 0-.1-.1-.4-.2-.2-.4.1-.2 0-.4 0-.5.1-.2.1-.4.2-.4zM141.9 18.3c.2 0 .3.2.4.2.1 0 .3 0 .4-.1s-.1-.3-.1-.4c0-.1-.1-.1-.1-.3.1.2.3.3.4.4.1.1.3.2.4.4-.3-.2-.4 0-.5 0-.5 0-.6 0-.9-.2zM146.1 27.5v.2c-.1 0-.1-.1 0-.2-.1 0-.1-.1-.1-.2s0-.1.1-.1c0 0 .2 0 .2-.1s.1-.1.1 0c.1.1.3.2.3.4 0 .1-.2 0-.4 0h-.2zM145.1 6.7c.2.2.2.4.4.5.1-.1-.1-.3 0-.4V7c0 .2.2.4 0 .4-.1.1-.5 0-.6-.2h.2s.3.1.4 0c.1-.1 0-.3-.1-.4-.3.2-.3 0-.3-.1zM152.2 24.5c-.4.1-.8-.2-1.1.4-.1-.2 0-.4-.1-.5.5 0 .8 0 1.2.1zM145.7 23.5c-.2-.1-.4 0-.4 0v-.1c.2-.2.2-.3 0-.4-.1-.3-.4-.5-.5-.7.4.2.4.5.6.8v.1c0 .2.1.3.3.3zM159 7.1c.2.1.4.3.5.4.1 0 .2.1.1-.1 0 0 0-.1.2-.1s0 .1 0 .2c-.2.4 0 .5.2.7-.1 0-.3-.1-.3-.2 0-.4-.4-.5-.5-.7-.2 0-.2-.1-.2-.2zM142.8 24.4c0 .2.1.4 0 .5s.2.4.4.4c-.1.1-.3.1-.3 0-.3-.2-.3-.6-.1-.9zM146.3 18.6c.2 0 .4 0 .3-.3v-.1s.1 0 .1.1v.3c0 .3 0 .4.4.5.1 0 .1.1.1.2 0 0 0 .1-.1.1s-.1 0-.2-.1c0-.1-.1-.2-.3-.3-.1 0 0 0 0-.1s0-.2-.3-.3c0 .1 0 .1 0 0zM152 10.8c-.1 0-.2-.3-.4-.2 0 0-.2-.1-.1-.2 0-.1.1-.2.1-.3 0 0 0-.1.1 0 .2.2.2 0 .2-.1.1 0 .1.2 0 .2-.1.3-.1.5.1.6zM141.9 16.8s.1.1 0 0v.4c-.2 0-.2-.3-.4-.2-.2 0-.4-.3-.5-.2 0-.1 0-.2.1-.3.2.2.4.1.5.4 0 .1.1 0 .3-.1zM156.2 11.2c0 .4-.2.5-.2.7-.4-.3-.5-.4-.8-.7.3-.1.4.4.5.1 0 .1-.1.3 0 .4.2.1.3.1.4 0v-.2c.1-.1.1-.2.1-.3zM139.5 16.6s-.1 0 0 0c-.2.2-.2.1-.3.1.1-.4-.3-.3-.4-.5.4.2.5.4 1 .2-.1-.1-.1 0-.3.2.1 0 .1 0 0 0zM161.8 16.2c-.1.2-.3.4-.4.4-.1.2.1.4-.1.5 0-.2 0-.4-.2-.5-.1-.1 0-.1.1-.2.3.1.4 0 .6-.2zM137.3 8.8c.2.1.4.1.4.4 0 0 .2.2.4.3-.3 0-.5.1-.6.3-.1.1-.2 0-.2 0v-.1c.1 0 .5-.2.5-.3s-.1-.2-.1-.3c-.3-.1-.4-.2-.4-.3zM148.9 8.8c0 .4-.3.6.3.8-.4 0-.4 0-.5-.4 0-.2.1-.3.2-.4zM149.3 16.1v.3c-.1.2 0 .3.2.4.1 0 .1.1.1.2-.1 0-.1.3-.3.2-.2 0-.2-.1-.1-.2 0-.4-.1-.7.1-.9zM149.6 19.3s-.1.1 0 0c-.1-.1-.2-.2-.3-.4 0-.1-.2-.1-.2-.3.1-.1.2-.3.3-.4h.1v.1c-.1.6-.1.9.1 1zM153.4 11.8c.3 0 .2.2.4.4.1.1.2.2.3.1.1 0 0-.2 0-.3s.2-.3.4-.4c-.1.3-.3.4-.3.6 0 .1 0 .1-.1 0-.4-.1-.7-.2-.7-.4zM154.8 28.4c-.1.3-.4-.1-.4.3-.1-.4-.4-.5-.6-.6.4-.1.5.2 1 .3zM153.4 8.8c.2.1 0 .3 0 .4-.1.2-.1.4-.1.5 0 .1.1.3.1.4-.4-.2-.4-.2-.2-.5s.2-.6.2-.8zM148.3 23.3c-.1 0-.1-.1-.1-.2V23c-.3-.3.1-.4.2-.5l.3-.3c.1.1-.1.2-.2.3-.3.2-.2.5-.2.8zM144.5 20.6c.1 0 .2 0 .3-.1.2-.1.3-.3.1-.4 0-.1-.1-.1-.1-.3 0 0 0-.1.1-.1 0 0 .1 0 .1.1 0 .3.2.4.2.6-.3.2-.5.2-.7.2zM139.8 14.1c.2-.1.1-.3.1-.4 0-.1-.1-.3-.2-.4.2.3.4.4.5.7-.1.1-.2.3-.4.1zM157.7 18.8c-.1.1-.4.3-.4.4 0 .2 0 .4.3.4-.1 0-.2.1-.3.1 0-.1-.1-.2-.1-.3v-.1c.1-.2.1-.3.5-.5zM151.6 2.3c0 .2-.1.4-.1.5 0 .2-.1.1-.2.1l-.1-.1c-.1-.1-.3 0-.3-.2 0-.1.2-.1.3-.1.2 0 .4 0 .4-.2zM134.7 10.4c.2 0 .4.1.5.2.1 0 .3.1.4 0-.1.2-.3.4-.4.4 0-.1 0-.2.1-.3v-.1c-.1 0-.3 0-.6-.2.1.1 0 .1 0 0zM159.2 19.1c-.3.1-.1.4-.2.5 0-.3-.1-.5-.2-.6-.1-.2.1-.2.2-.3.2.1-.1.4.2.4zM139.7 15.5c.3.2.4.3.7.4-.1.1-.1.1-.3 0v.1c0 .1.1.1.1.2h-.1s-.2-.1-.2-.2c.2-.2-.1-.3-.2-.5 0 .1 0 0 0 0zM146.5 11.4c-.1-.4-.4-.2-.4-.2-.1 0-.2 0-.2-.1s.1 0 .2-.1.4 0 .4 0v.4zM143 23.9c.4-.3.6-.4 1.1-.4-.1.1-.1.2-.3.2-.1 0-.3 0-.3.1-.1.2-.4.1-.5.1zM150.1 28.5s0-.1 0 0c-.1-.1-.2-.1-.2-.2s.1 0 .2 0c.4 0 .5.3.8.2-.2 0-.5-.1-.8 0zM150.9 10.2l-.2.2c-.1-.1-.4-.1-.4-.2-.1-.1-.1-.3 0-.4.1.3.5.2.6.4zM138.7 11.1c-.3-.1-.4.2-.5.2.1-.3.3-.4.4-.4-.1-.1.1 0 .1.2zM153.1 28.6c-.2.1-.4.2-.5.2.3-.3 0-.4-.1-.5.1 0 .4.2.6.3zM153.4 11.8c-.1-.1-.2-.2-.4-.3-.1-.1-.1-.3 0-.4h.1c.1.2.2 0 .3 0 0 .4-.1.5 0 .7zM151.3 21c.1.3-.1.4-.2.5 0-.2-.2-.3-.1-.4 0-.1.1-.1.3-.1zM135.3 12.2c.2 0 .3.1.4.2.2.1.4.1.5.1-.1.2-.2.4-.4.1-.1-.1 0 .1-.1.2.1-.3-.2-.4-.4-.4.1-.1 0-.2 0-.2zM143.1 22.5c-.1.2-.2.3-.4.4.1-.4-.1-.4-.5-.4.3-.1.9 0 .9 0zM158.1 2.3c.4-.2.3-.5.5-.8-.1.4-.3.7-.4 1.1 0-.2-.1-.2-.1-.3zM146.1 19.9v.5c-.1.2-.2 0-.3 0-.1-.2-.2-.4-.3-.5.1.1.2.3.3.4 0 .1 0 .1.1.1s.1 0 .1-.1c0-.2.1-.3.1-.4zM152.1 11.9c0 .2-.1.4-.1.5-.1 0-.2-.1-.2-.1-.1 0 0 .2-.1.3 0-.2 0-.4.1-.5.2 0 .2 0 .3-.2zM133.3 13.9c0-.2.2-.4.2-.5.1.3.3.4.5.4 0 0 .1 0 0 .1h-.1c-.2-.1-.4-.2-.6 0zM148.3 24.3c0-.1.1-.4-.2-.4.3 0 .5-.1.7 0-.2 0-.3.2-.4.2 0 0 .1 0 .2.1-.3-.2-.3 0-.3.1zM152.9 17.8c-.2-.1-.2-.4-.4-.4v-.2s.1-.1.1 0c.2.2.4.4.3.6zM144.7 9c.1 0 .2.1.3.3h-.5c-.1 0 0-.2-.1-.3h.3zM149.7 9.9c-.1-.2-.3-.1-.4-.3.4.1.3-.4.4-.4v.4c0 .2.1.2 0 .3zM151.7 16.7c-.1-.4-.4-.5-.5-.6-.1 0-.1 0 0-.1h.1c.1.1.4.3.4.7zM133.9 11.6c-.4-.2-.6-.5-1.1-.7.4-.1.7.4 1.1.7zM155.6 13.7c.2 0 .2-.2.3-.2.1.1-.1.2 0 .3.1.2.2.2.4 0-.1.4-.1.4-.4.1-.1 0-.2-.1-.3-.2z"/><path d="M159.7 12.7c0 .2-.1.2-.3.1 0 0-.3-.1-.1-.3 0 0 .2-.3.3-.1 0 .2 0 .3.1.3z"/><path fill="#D72129" d="M130.3 13.3c-.4.1-.6-.2-.9-.4.4.2.6.3.9.4zM158.7 14.1c.2 0 .2.1.3.2.1.2.2.4.4.4 0 0-.1 0-.1-.1-.2-.1-.5-.3-.6-.5zM156 24.5c0 .2.1.4-.1.5 0 0 0 .1-.1 0v-.2c0-.1.1-.2.2-.3zM159.6 1.3c.2-.1.2-.3.4-.3-.1.2-.2.4-.1.4-.1.1-.1-.1-.3-.1zM143.4 20.8c.3.1.4.4.4.5-.1-.2-.3-.3-.4-.5-.2.1 0 .1 0 0zM143.4 14.1c.2 0 .3.1.2.2 0 .2-.2.1-.4.1 0 0-.1 0-.1-.1.1-.1.3-.1.3-.2zM141.6 23.4c.3-.1.4-.3.5-.2-.1.3-.1.3-.5.2zM153.7 18.9c-.1.3 0 .5.1.7-.1 0-.1 0-.2-.1 0-.1-.1-.3-.1-.4-.1-.1 0-.1.2-.2zM143.1 14.3c-.2.1-.4.2-.4 0 .2-.3 0-.4-.2-.5.2 0 .3.2.3.3.2 0 .2.1.3.2z"/><path d="M157.3 1.3c0 .2.3.1.3.4-.3-.1-.5-.3-.7-.4h.4z"/><path fill="#D72129" d="M150 26.8c0 .3-.2.4-.4.4-.2.1-.3 0-.4-.1.4.1.6-.1.8-.3zM153.1 15c0-.1 0-.1.1-.2.1.1.3.2.3.3 0 .2.3.1.2.3-.1.1-.2-.1-.3-.2-.2-.2-.3-.2-.3-.2zM142.7 21.6c.2 0 .4 0 .5-.2 0 0 .1-.1.1 0v.1l-.1.1c-.1 0-.1 0-.2.1s-.1 0-.3-.1zM150 17.4s-.1 0 0 0c-.4-.4-.4-.4-.1-.6-.2.2-.1.4.1.6zM151 15.2c.3.1.4.2.4.3.1 0 .2.1.3.2 0 0 .1 0 .1.1 0 0-.1.1-.2 0 0-.2-.4-.3-.6-.6zM144.1 21.5h-.3c0 .1.1.1.1.3-.1 0-.2-.2-.4-.2 0 0-.1 0 0-.1s.3 0 .4-.2l.2.2zM146.6 23.1c-.1.1-.3.1-.4.1.1-.2.3-.3.3-.5.1.2.1.3.1.4zM141.7 21.9c.2.2-.2.5.2.6-.3 0-.3-.1-.2-.6zM157.4 16.1c.3.2.3-.1.4-.2 0 .2-.2.3-.1.4 0 0 0 .1-.1.1s0 0-.1-.1c0-.1-.1-.2-.1-.2zM152.3 24.5c.4 0 .4-.2.5-.4 0-.1.1 0 .1 0v.1c0 .3-.3.3-.6.3zM146.8 17.1c0 .3 0 .4-.1.5-.1.3-.3 0-.4-.1h.1c.2.1.3 0 .3-.2 0 0 0-.1.1-.2zM145.5 11.7s.3 0 .1.2c-.1.1 0 .3.2.2h.3c-.5 0-.5 0-.6-.4zM153.5 13.6c-.1.2.1.3.2.4-.1.1-.3 0-.3 0 0-.3-.2-.4-.3-.4.3-.3.3 0 .4 0zM161.5 3.9c.2.2.3.4.4.5-.4-.2-.5-.3-.4-.5zM143.7 8.9c.2.1.2.2.3.3-.1 0-.3 0-.4-.1h-.2s0 .1-.1 0V9c0-.1 0 0 .1 0s.2.1.3.1.1-.1 0-.2zM142.7 19.2c.1.2.3.3.4.4 0 0 .2 0 0 .1h-.2c0-.3-.2-.4-.2-.5zM143.4 20h-.4v-.2h.2c.2 0 .3.1.2.2zM156.6 17.7c.1.3.1.5.4.6v.1h-.1c-.1-.2-.4-.3-.3-.7zM146.5 22.5c-.1-.4-.1-.4 0-.7.1.2.1.4 0 .7zM146.2 27.7h.6v.1c-.2-.1-.4 0-.6-.1zM132 11c.4.1.5.3.8.4-.1-.1-.5-.2-.8-.4zM139.7 18.6c.1-.1.2-.1.3-.3l.1-.1c0 .1.1.1.1.1 0 .1 0 .1-.1.1s0 .1-.1.1c-.1.2-.2.2-.3.1zM145.4 22.1c.2.3.4.5.1.8.1-.2 0-.5-.1-.8zM150.7 13.3c0-.3 0-.4.1-.5 0 .2.1.4-.1.5zM160.9 14.3c0-.1 0-.4.3-.1h.3c-.3.1-.4.2-.6.1.1-.2 0-.2 0 0zM159.4 13.6c.3.1.3.4.5.4-.2.2-.2.2-.4 0 .1-.1 0-.2-.1-.4zM152 10.8c.3.1.4.3.5.4-.1-.1-.5-.1-.5-.4zM146.1 9h-.4s-.1 0-.1-.1c.1.1.3 0 .5.1zM149.9 26.5c.3 0 .4.1.5.1-.2.1-.4.1-.5-.1zM147.4 22.5c-.1-.2 0-.4-.2-.5.3 0 .3.3.4.4-.1.1-.2 0-.2.1zM153.1 11.2c.1-.2.1-.3.2-.4.1 0 0 .2.2.2.1 0 0 .1 0 .1 0 .1-.1 0-.1 0 0-.1-.1 0-.3.1zM145.9 25.6c.2.1.1.4.4.3-.1 0-.2.2-.3.1-.1 0-.1-.2-.1-.4zM155.2 14.8c.2 0 .2.3.4.2 0 .1 0 .1-.1 0-.2 0-.3-.1-.3-.2zM134 19c.1.1-.3.4.2.4-.1 0-.2.2-.3 0 0-.1 0-.2-.1-.4.2.3.1.1.2 0zM140 21.9c.3-.2.4.1.4.2-.2 0-.3-.2-.4-.2zM162.7 11.6c.3.1.1.4.4.5-.4-.2-.5-.2-.4-.5zM154.8 16.9c-.1-.1-.3-.1-.3-.2s.1-.2.2-.3.1 0 .1 0 .1 0 0 .1v.4zM162.6 10.7c0-.1 0-.3-.2-.4-.1 0-.1-.1 0-.1.1-.1.1 0 .1.1.1.1.3.3.3.4-.1.1-.2.1-.2 0zM150.9 10.2c0-.3-.1-.4.3-.5-.2.2-.2.3-.3.5zM163.9 14c0-.2-.3-.2-.2-.4h.3c-.2.2 0 .4-.1.4zM148.8 29.5c.1 0 .2.2.4 0 0 0 .1-.1.2 0 0 .1 0 .1-.1.1-.4.1-.4.1-.5-.1zM148.6 17.9c.1 0 .2-.2.4-.2-.1.2-.2.4-.3.5-.1 0 .2-.3-.1-.3zM153.2 12.9c.1.2-.1.4 0 .4h-.1c-.1 0 0-.1 0-.1 0-.1 0-.2.1-.3zM159.3 16.1c-.1-.1-.2-.2-.3-.2l.1-.1c0 .1.3-.1.2.1.1.1.1.2 0 .2zM145 24.7c0 .3.1.4 0 .5 0 0-.3-.1 0-.5zM157.3 3.2c-.1.1-.2-.1-.3-.1-.1 0 0-.1 0-.1 0-.1 0-.2.2-.1.1 0 .1 0 0 .1-.1 0 .1 0 .1.2zM146.4 25h-.4c-.1-.1 0-.1 0-.2s.1 0 .1 0c.1 0 .2 0 .3.2zM159.7 2.1c-.2 0-.4-.1-.4-.1s-.1 0-.1-.1.1 0 .1 0c.1 0 .3 0 .4.2zM153.5 13.6c0-.1-.1-.1 0-.2.1-.2 0-.2-.1-.3.1-.2.2.1.4 0 .1.1 0 .2 0 .2-.2.1-.3.2-.3.3zM156.4 20.3c0 .2-.2.2-.3.3 0 0-.1.1-.1 0v-.2c.2-.1.2-.1.4-.1zM159.4 10.3c.2.1.2.3.4.3 0 0 .1.1 0 .1h-.1c-.3-.1-.3-.3-.3-.4zM156.7 23.7s.1 0 0 0M151.3 15.9c.1.1.3 0 .4.1 0 0-.1.1-.1.2-.1-.1-.3-.1-.3-.3zM148.9 27.7c.1 0 .2-.1.3-.2 0 0 .1-.1.1 0v.1c-.2.1-.3.1-.4.1zM142.3 19.8c.2 0 .4.2.5.2h.2c-.2.2-.4.1-.7-.2zM133.1 14.1s-.1 0 0 0c.1-.1 0-.3.2-.4.1 0 .1 0 .1.1-.3.2-.2.3-.3.3zM130.2 14.4c0 .3-.1.4-.3.5.1-.1.2-.3.3-.5zM144.7 9c-.1-.2-.2-.4-.1-.5.1.1.1.3.1.5zM155.1 3.3c.1.1.3.1.4.3-.4 0-.4 0-.4-.3zM147 24.4c-.1 0-.1.2-.2.3.1-.2-.2-.3-.1-.4 0 0 .1.1.3.1zM155.1 4.6c-.1.2-.3.3-.4.2h-.1l.1-.1c.2 0 .3-.1.4-.1zM154.3 13.6c0 .2-.1.4-.2.4 0-.1.1-.2.2-.4zM161.9 8.1c-.2-.1-.3-.3-.4-.4.2 0 .2 0 .4.4zM140.9 21.9c.2 0 .4-.1.5 0 .1 0 .1.1 0 .1 0 .1-.1 0-.1 0s-.2.1-.4-.1zM144.6 22.7c-.3 0-.4 0-.7-.2.1.2.4.2.7.2zM134.4 13c.2 0 .2.3.4.3v.1h-.1c-.1-.1-.2-.2-.3-.4zM151.6 20.9c0-.1.1-.1.2-.2 0 0 .1-.2.2-.1.1 0-.1.1 0 .2v.1c-.3-.3-.3 0-.4 0zM144.9 16.5c.2.1.2.3.4.4.1 0 0 .1 0 .1-.1 0-.1 0-.1-.1-.2-.1-.2-.2-.3-.4zM160.3 3.9c.1.1.2.2.4.2h.1v.1h-.1c-.3-.1-.4-.1-.4-.3zM151 21.6c.1.3.1.4.1.5-.1-.1-.1-.2-.1-.5zM141.9 6.8c.1.2.3.3.4.4h-.1c-.1-.1-.4-.2-.3-.4zM165.5 8.4v.2c-.1 0-.2-.1-.4-.1.2-.2.3-.1.4-.1 0 .1 0 0 0 0zM135.2 10c.3 0 .4.2.5.3-.3 0-.5-.2-.5-.3zM136.5 16.1v.4c-.2-.2-.2-.4 0-.4zM152.1 4.1c0 .2-.1.4-.1.4s0 .1-.1 0c.1 0 .1-.2.2-.4zM157.7 1.3c-.1-.2 0-.4.1-.5 0 .3 0 .5-.1.5zM151.7 16.8c.1 0 .3-.1.4 0v.2h-.1c-.2-.1-.3-.2-.3-.2zM161.5 6.4s0 .1 0 0c-.1 0-.3 0-.3-.1 0 0 0-.2.1-.1s.2.1.2.2zM161 3.4c-.1.2-.1.4-.3.4 0-.2 0-.3.3-.4zM154 10c-.1 0 0 .2-.1.2 0 0-.1 0-.1-.1s0-.2.2-.1c-.1 0 0-.1 0 0zM143.4 20c.2 0 .2 0 .4.4-.2-.2-.2-.3-.4-.4zM139.3 8.2c.1 0 .2 0 .3-.1h.2s0 .1-.1.1c-.2 0-.3.1-.4 0zM138.3 10.7c-.2 0-.3-.3-.4-.4.2.1.3.3.4.4zM153.4 24.4c.1 0 .3-.1.2-.3.2 0 .2.2.1.2 0 .1-.2 0-.3.1zM161.6 3.9c.1.1.3.2.4.3-.2 0-.3-.2-.4-.3zM156.2 13.6c.1-.2.2-.4.3-.5 0 .2-.1.3-.3.5zM159.9 16.9c-.1.1-.1 0 0 0l-.1-.2c.1 0 0 .1.1.2.1-.1.2-.2.2-.1 0 .2-.2.1-.2.1zM163.6 5.8c-.1.3.1.3.1.4-.1-.1-.2 0-.3-.1 0 0 .1-.1.2-.3zM142.6 14.4c-.1.2-.4.1-.4.4h-.1v-.1c.4-.2.4-.3.5-.3zM137.3 8.8c-.3 0-.4-.3-.4-.4.3 0 .3.3.4.4zM139.7 8.3v.4c-.1 0-.2-.1-.3-.1.3-.2.3-.2.3-.3zM130.5 19.2c0-.2-.2-.4.1-.4 0 .1-.2.2-.1.4zM143.6 17.7c.1-.1.3-.1.3 0 0 0-.1.1-.1 0 0 .1-.2.2-.2 0zM155 17.2c0-.1-.1-.1-.1-.2.1 0 .2.1.4 0-.2.1-.2.2-.3.2zM152.9 17.2c-.4-.2-.1-.4 0-.5 0 .2-.1.3 0 .5zM157.1 9.2c0 .1-.2 0 0 0l-.1.2h-.1c-.1 0 0-.1 0-.1 0-.2.1-.2.2-.1zM149.9 17.4c.1 0 .1 0 0 0 .1 0 .3 0 .3.2-.2 0-.3 0-.3-.2.1 0 0 0 0 0zM142.6 20.2c.2.1.2.3.1.4h-.1c-.1-.2 0-.3 0-.4zM162.4 5.8c-.2 0-.3-.1-.4-.3.3.1.2.3.4.3zM150.2 22.5c-.1.1-.3.2-.3.4.1-.4.1-.4.3-.4zM160.3 17.4c.1 0 .2-.1.3-.2-.2.2-.2.2-.3.2 0-.1 0 0 0 0zM157.3 5.3c0-.1 0-.1 0 0 .1 0 .2.1.3.2 0 0 0 .1 0 0-.2-.1-.3-.1-.3-.2zM151.3 21c.1-.1.1-.1.3-.1v.4c-.2-.2-.1-.3-.3-.3zM163.8 9.8c0 .3-.2.3-.3.4 0 0-.1-.1-.1-.2.3-.1.3-.1.4-.2zM159 19.7c.1.1.1.2 0 .4-.1-.2-.1-.3 0-.4zM155.1 4h-.2s-.1.1-.1 0v-.1h.1c.2 0 .2.1.2.1zM134.7 10.4c-.2 0-.4-.2-.5-.1.3-.2.4 0 .5.1zM133.1 9c.2.1.3.2.4.3-.1-.2-.3-.3-.4-.3zM147.4 20.5c0 .2 0 .3-.1.4h-.1c0-.2.2-.3.2-.4zM157 11.9v-.4l.2.2c-.1.1-.2.1-.2.2zM135.9 12.8c0 .2-.1.3-.4.2.1-.1.3-.2.4-.2zM150.9 25.1c-.2.1-.3.1-.4 0 .3.1.4-.1.4 0zM142.1 18.7c.1-.1.1-.2.3-.2-.1.2-.1.4-.3.2zM144.5 12.2c-.1-.2-.1-.4-.1-.4 0 .1.1.1.1.4zM161.3 9.6c.2-.1.2.3.4.2 0 0 0 .1-.1.1h-.1c0-.1-.1-.2-.2-.3.1 0 0 0 0 0zM137 6.6c0 .2-.1.2-.3.2.1-.1.1-.2.3-.2zM164.2 6.3c-.2 0-.3 0-.4-.1.2 0 .3 0 .4.1zM147.9 14.5c.2-.1.3 0 .4.1-.2.1-.3-.1-.4-.1zM165 5.9c0 .1-.1.2-.3.2.1-.2.2-.2.3-.2zM133.9 8.8c-.1-.1-.3-.2-.4-.2.2 0 .3.1.4.2zM132 9.8c.1.1.3.1.4.2-.2-.1-.3-.1-.4-.2zM165.1 11.4c0-.1-.1-.1 0-.2 0 .1.2 0 .3.1-.1 0-.1.1-.3.1zM132 19.9c0-.1-.1-.3.1-.4 0 .2-.1.3-.1.4zM143.4 13.6c0 .2.1.4 0 .4 0 0-.1-.2 0-.4z"/><path fill="#D72129" d="M145.8 8.6c0 .1.1.2.1.4 0 0-.1 0-.2-.1.1-.1.1-.2.1-.3zM153.9 9.4c0 .2-.1.3-.1.4-.1-.1-.1-.3.1-.4zM153.2 25.9c-.1 0-.3.2-.4 0h.4zM144.9 21.4c.1 0 .1 0 0 0h.4v.1c-.2-.1-.3.1-.4-.1zM149.1 6.8v0zM134.3 11.6c-.1 0-.2.2-.3 0v-.1c.2 0 .2.1.3.1zM157.6 3c-.1 0-.1.2-.3.1 0 0-.1 0 0-.1s.2 0 .3 0zM129.1 12.5 156.2 5.2c-.1-.1-.2-.1-.2-.2.1 0 .2 0 .3-.1-.1.2-.2.2-.1.3zM143 23c0 .1 0 .1 0 0h-.3l.1-.1s.2 0 .2.1zM140.9 15c-.2 0-.2-.2-.3-.3.1.1.3.2.3.3zM163.7 6c0-.1-.1-.2-.1-.3h.1V6zM136.9 8.5c-.1 0-.2-.1-.3-.2.4-.2.4 0 .3.2zM140 19.6c-.1 0-.2 0-.2.1-.1 0 0-.2-.1-.3.1.1.2.1.3.2zM139.5 16.6c.1-.1.1-.1 0 0 .2 0 .2 0 .4.1-.2 0-.4.2-.4-.1zM141.6 18.1c.2 0 .3.1.4.2-.3 0-.3-.1-.4-.2zM157.1 18.2c.1 0 .1-.4.3-.3-.1.1-.1.2-.3.3zM141.7 7.4c.1-.1.3 0 .3-.1s.1 0 .1 0v.1h-.4zM154.1 25.7c0 .2 0 .4-.3.3.2-.1.3-.2.3-.3zM150.6 25.6c0 .1 0 .2-.1.3h-.1c0-.2.1-.3.2-.3zM157.1 24.5c0-.1-.1-.2 0-.4v.4h.2c-.1.1-.2 0-.2 0zM141.7 9.3c-.2 0-.1-.2-.2-.2V9h.1c0 .1.1.2.1.3zM150.8 8.3c0-.2 0-.3.2-.4-.1.2-.1.3-.2.4zM145.2 10c0 .1.1.1 0 .2 0 0 0 .2-.1 0-.1 0 0-.1.1-.2zM162 7.9c.1-.1.1-.3.3-.3-.2.2-.3.2-.3.3zM146.7 17c0-.1.1-.3.1-.4.1.2 0 .3-.1.4.1 0 .1 0 0 0zM135.1 7.7c-.1-.1-.2 0-.3 0 .1 0 .1-.1.1-.2.1.1.3.1.2.2zM148.8 29.5c-.1-.1-.2-.1-.2-.2 0 0 .3 0 .2.2zM130.5 10.5c.1.1.1.2 0 .2s-.1 0 0-.2c-.1.2-.1.1 0 0zM135.2 10.9c0 .4-.2-.1-.2 0h.2zM140.5 13.2c.1 0 .3 0 .2.2l-.2-.2zM157.7 13.7c-.1 0-.2-.1-.2-.2.2.1.3 0 .2.2zM147.2 15.3c0-.1 0-.3.1-.4 0 .2.1.3-.1.4zM163.1 8.3c-.1 0-.2 0-.3-.1.2-.1.2 0 .3.1zM141 15.4c-.1.1-.1.1 0 0-.1.1-.2.1-.3.1v-.1c.1-.1.2 0 .3 0-.1 0-.1 0 0 0zM143.1 20.6c.1 0 .2.1.3.2-.3 0-.3-.1-.3-.2zM143.1 22.5h.5c-.1 0-.2.1-.5 0zM160.1 4.9c0-.1 0-.2-.1-.3.2.1.2.1.1.3zM142.3 24c-.2.2-.2.2-.3-.1.2 0 .2.1.3.1zM146.9 24.3c.2 0 .3 0 .4.1-.2 0-.3 0-.4-.1zM145.8 24.5c-.1-.1-.1-.2-.1-.3s.2 0 .1 0v.3zM149 27c0 .2.2.2.1.3 0 0-.1-.1-.2 0 0-.2 0-.2.1-.3zM156.2 19.1c-.1.1-.2.1-.2-.2 0 .1.1.1.2.2 0-.1 0-.1 0 0zM159.2 19.1c0-.2.2-.2.3-.4-.1.3-.2.3-.3.4zM148.3 18.3c-.1 0-.2-.1-.2-.2h.1c.1 0 0 .1.1.2zM153.9 18.8c0-.2.2-.2.4-.3-.2.1-.2.2-.4.3zM153.3 28.7c-.2.1-.4.1-.4 0h.4zM145.8 20.6c.1.1.1.2.1.4-.1-.2-.1-.3-.1-.4zM151.9 13.9c-.1-.2 0-.2.1-.3 0 .1-.1.2-.1.3zM152.3 28.9c-.1 0-.2.1-.3.1v-.1h.3zM153.6 29.1c.1-.1.2-.1.3-.1v.1c-.1.1-.2 0-.3 0zM160.2 8.5c-.2-.1 0-.2 0-.3.1.1.1.2 0 .3zM146.4 18.8s-.1.1-.1.2c0 0-.1 0 0 0 0-.1 0-.2.1-.2zM160.4 11.6c0 .1 0 .2 0 0-.1.1-.2.1-.2 0 .1-.1.1 0 .2 0zM155.4 5.6c0 .1-.1.2-.2.2v-.2h.2zM133.4 19.2c0 .1.1.2 0 .3h-.1c-.1-.2 0-.2.1-.3zM139.6 18.4s0 .2-.1.2c0-.1 0-.1.1-.2-.2-.1 0 0 0 0zM162.4 12.8l-.3.3c0-.3.1-.3.3-.3zM129.8 14.7c0-.1 0-.2-.1-.3.1.1.1.1.1.3zM145.8 23.6c-.1-.1-.1-.2 0-.2 0 .1.1.1 0 .2zM150.9 15.7c-.1-.1 0-.2.1-.4-.1.2 0 .4-.1.4zM131.1 16.6c0-.1 0-.2.2-.3 0 .2-.1.3-.2.3zM156 15.8c0 .1-.1.2-.2.3.1-.2.1-.3.2-.3zM132.2 19.4c0-.1 0-.2.1-.3 0 .2-.1.2-.1.3zM157.3 9.8c.1-.1.2-.2.3 0h-.3zM138.7 11.1c.2 0 .2.1.3.2-.2 0-.2-.1-.3-.2zM137.6 20.9c.1.1 0 .1 0 0 0 .1-.1.1 0 0-.1 0 0 0 0 0zM153.1 24.4c.1-.2.2 0 .3 0h-.3zM141.5 21s0 .1 0 0c0 .1 0 .1 0 0-.1.1-.1 0 0 0zM147.1 8.5h-.4c.1 0 .2-.1.4 0zM144.2 21.7c.1 0 .2.1.3.2-.3 0-.3-.1-.3-.2zM142.3 24c.1-.1.3 0 .4 0-.2-.1-.3.1-.4 0zM153.6 21.6c.1.1.1.2.1.4-.2-.2-.1-.3-.1-.4zM165 10.7c-.1 0-.2 0-.3-.1.1 0 .2 0 .3.1zM149.1 7.7c-.1 0 0 .2-.1.2 0-.2.1-.2.1-.2zM145.8 25c-.1-.1 0-.2 0-.3 0 .1.1.2 0 .3zM162.7 10.1c0 .1 0 .1-.1.2l.1-.2c-.1 0-.1 0 0 0-.1-.1-.1 0 0 0zM150.5 14.1v-.3c.1.3 0 .3 0 .3zM132.5 16.7c.2 0 .3 0 .3.2-.1-.1-.2-.1-.3-.2zM157.7 13.7s.2 0 .2.1v.1c-.2 0-.2-.1-.2-.2zM156.9 17.3c0-.1 0-.1-.1-.2h.2c-.1.1-.1.1-.1.2zM150.9 15.8c0 .1 0 .1 0 0 0 .1 0 .1 0 0 0 .1 0 0 0 0zM152.9 15.2c0-.1.1-.3.2-.4 0 .2 0 .4-.2.4zM152 14.9h.2v.1c-.1 0-.1 0-.2-.1zM145.7 14.8c.1.1.1.1.1.2-.1 0-.1-.1-.1-.2zM138.8 16.1c-.2.1-.2-.1-.4-.1.2-.1.3.1.4.1zM152.6 27.6c.1 0 .1-.1.2-.1v.1h-.2zM152.6.4c-.1-.1-.2-.2-.3-.2.2.2.3.2.3.2zM153 18.1c.1.1.2.2.2.3h-.1c0-.1-.1-.2-.1-.3zM150.1 28.5c-.1.2-.1.2-.3 0 .2 0 .2.1.3 0zM151.2 28.6h.3c-.2.1-.3.1-.3 0zM154.5 1.3c.1 0 .1.1.1.2h-.1c0-.1.1-.2 0-.2zM143.5 21.7c-.1 0-.1.1-.3 0 .1 0 .2.1.3 0zM137.7 19.3c-.1 0-.2-.1-.3-.2.2.2.2.2.3.2zM141.1 19.3c-.1 0-.2 0-.3-.2.1.1.2.1.3.2zM155.1 9.9c0 .1.1.3-.1.4.1-.3.1-.4.1-.4zM147.6 15.3c.1 0 .2 0 .2.1 0 .2 0 .1-.2-.1.1.1.1.1 0 0zM132 20.3v-.4.4zM164.6 10.6c0-.1 0-.2.1-.2 0 0 0 .1-.1.2zM156.9 16.9c.1 0 .2 0 .2.1l-.2-.1c.1.1 0 .1 0 0zM141.4 13.3c0 .1-.1.2-.3.2.1-.1.1-.2.3-.2zM132 11c-.1 0-.2 0-.3-.1.3-.1.3 0 .3.1zM154.2 21.3c0 .1-.1.1-.3.1.1-.1.2-.2.3-.1zM149.6 19.3c.1 0 .2 0 .2.2-.1 0-.2 0-.2-.2zM152.6 11.1c-.1-.2 0-.3.1-.4.1.2-.1.2-.1.4zM144.5 20.8c-.2 0-.1 0-.2-.1.1 0 .2.1.2.1zM157.2 1h-.3c.1-.2.2 0 .3 0zM147.4 25.3h-.2v-.1c.1 0 .1 0 .2.1zM148.9 28.7c-.1 0-.2 0-.3-.2.1.1.2.2.3.2-.1 0 0 0 0 0zM139.7 5c.1 0 .1.1.2.2-.2 0-.2-.1-.2-.2zM154 28.7s0 .1 0 0c-.1.1-.1 0-.2 0h.2zM162.6 5.6c0-.2.1-.2.3-.3-.1.2-.2.2-.3.3zM149.7 23.9c0 .1.1.2 0 .3-.1-.1-.1-.2 0-.3zM146.6 23.2c.1.1.1-.2.2-.1v.1c-.2.2-.2 0-.2 0 0-.1 0 0 0 0zM150.9 22.9c-.1.1-.2 0-.4 0 .4 0 .4.1.4 0zM152.8 22.7c.1 0 .2.1.1.2-.1-.2 0-.2-.1-.2zM143.1 8.5c.1 0 .2 0 .3.1-.2.2-.2.1-.3-.1zM158.9 2.9v.4c-.1-.3 0-.4 0-.4zM150 15.6s-.1-.1-.1-.2c.1 0 .1.1.1.2zM140.9 13.6c-.1-.1-.2-.1-.2-.2.1 0 .2.1.2.2zM159.4 4.6c.1 0 .2.1.3.2-.3-.1-.3-.1-.3-.2zM137.2 12.9c.1.1.2.1.3.2-.2-.1-.3-.1-.3-.2zM152 14.9c0-.1-.2 0-.2-.1.2-.1.2 0 .2.1zM134.3 14c-.1 0-.2 0-.3-.1.1 0 .2.1.3.1z"/><path fill="#D72129" d="M147.5 15.3c-.1 0-.2 0-.2-.1.1 0 .2 0 .2.1zM134.5 14.1c0 .1 0 .2-.2.2.1 0 0-.2.2-.2 0 .1 0 0 0 0zM161.2 14s.1 0 0 0h-.2c.1-.1.1-.1.2 0 0-.2 0-.1 0 0zM149.9 3.8c0-.1.1-.2.1-.3 0 .1 0 .2-.1.3zM163 10.7s-.1 0 0 0c0-.1 0-.1 0 0zM155.1 8h-.2c.1-.2.1-.1.2 0zM154 7.6s-.1-.1-.1-.2c.1 0 .2.1.1.2zM135.7 9.8c-.1 0-.1-.1-.2-.1.2-.1.2.1.2.1zM165 9.8v.3c-.1-.2 0-.3 0-.3zM164.8 10.2c0 .1 0 .1 0 0-.1.1-.2 0-.2 0v-.1l.2.1zM138.9 10.5c-.1-.1-.2-.2-.2-.3.1.1.1.1.2.3zM162.7 10.2c.1.1.2.1.2.2-.1 0-.2 0-.2-.2zM141.4 8.8c.1.1 0 .2 0 0 0 .1 0 .1 0 0zM135.5 5.6c-.1-.1-.2-.1-.2-.3.2.1.2.2.2.3zM133.7 12.5v.2s-.2 0 0-.2c0 .2 0 .1 0 0zM155.1 12.6s0-.1 0 0c.1-.1.2-.1 0 0 .1 0 .2.1 0 0 .1.1 0 .1 0 0zM135.2 5.3c.1 0 .1-.1.2-.1-.2.2-.2.1-.2.1zM137 12.8c.1 0 .1.1.2.1-.1 0-.2-.1-.2-.1zM159 7.1c.1-.1.1-.1.2 0h-.2zM146.3 6.9c0-.1 0-.2-.1-.3.2 0 .2.1.1.3zM139.7 5.6c-.1.2-.2.1-.3.1.2-.1.3-.1.3-.1zM164.9 11.6c0-.2 0-.2.2-.2 0 .1-.1.1-.2.2zM147.3 11.7v0zM148.6 19.7v-.3c.2.1 0 .1 0 .3zM154.6 20.2s-.1 0 0 0zM132.9 21c0-.1.1-.1.2-.1 0 .1-.1.2-.2.1zM154.9 27.7v-.4c.1.3.1.4 0 .4zM156.6 21.1c.1 0 .1-.1.3 0-.1 0-.2.1-.3 0zM153.7 21.4c-.1 0 0 0 0 0s.1 0 0 0c.1 0 .1 0 0 0zM138 18c-.1 0-.2 0-.3-.1.2-.1.3 0 .3.1zM136.2 18.3s0-.1 0 0c0-.1 0-.2 0 0 .1-.1.1-.1 0 0 .1-.1.1-.1 0 0zM152.6 18.8c-.1 0 0 .1 0 0-.2 0-.1 0 0 0zM156.2 19.1c0-.1 0-.1 0 0-.1-.1-.1-.2 0-.2v.2zM153.1 28.6h.4c-.2.1-.3.1-.4 0zM146.6 23.9c0 .2 0 .1 0 0zM141.4 21.5c-.1 0-.2 0-.2-.1.1 0 .2 0 .2.1zM138.9 21.9h-.4.4zM149.3 22.8c-.1.2-.2.2-.3.2.1-.1.2-.1.3-.2zM151.2 23.6v-.3.3zM157.4 17.7c.1-.1.1-.2.3-.2-.1.2-.1.2-.3.2zM152.9 17.2c.1 0 .2 0 .2.1-.1 0-.1 0-.2-.1zM141.5 15.9c-.1.1-.1.1-.2.1.1-.1.2-.1.2-.1zM155.6 16.1c-.1 0-.1-.1-.2-.2.1.2.2.2.2.2zM140.7 16.5c.2 0 .2.1.3.2-.1 0-.2-.1-.3-.2zM157.4 1h.2c-.1.1-.1 0-.2 0zM145.1 6.7c-.1-.1 0-.2 0-.3v.3zM141.9 6.8c-.1 0-.1-.1-.1-.2 0 0 .1 0 .1.2zM139.6 7.6c-.2 0-.2 0-.2-.2l.2.2zM147.8 25.4c-.1 0-.1 0-.2-.1.2 0 .2 0 .2.1zM157.1 7.3c0 .1-.1.1 0 0-.1.1-.1.1 0 0-.1 0-.1 0 0 0zM151 7.1c0 .1 0 .1-.1.2 0-.1 0-.1.1-.2zM152 7.1s0-.1.1-.2c0 .1.1.3-.1.2zM145.7 26h.2c-.2.1-.2 0-.2 0z"/><path fill="#D72129" d="M153.4 28.7s-.1 0 0 0c-.1.1-.2.1-.2 0h.2zM162.2 4.6c-.1.1-.1.1-.2 0h.2c-.1 0-.1 0 0 0zM153.7 4.6s.1 0 0 0c0 .1 0 .1 0 0 0 .1 0 .1 0 0zM159.4 4.6zM162.2 4.1l.2.2c-.1.1-.2 0-.2-.2zM160.3 2.6s-.1 0-.2-.1c.2 0 .2-.1.2.1zM153.1 27.7c-.1 0 0 0 0 0s0 .1 0 0zM154.5 27.5s0 .1 0 0c.1.1.1.2 0 .2s0-.1 0-.2c0 .1 0 0 0 0zM144.8 18.3s-.1-.1-.1-.2c.1.1.1.2.1.2zM148.3 12.2c0-.1 0-.2.1-.2.1.1-.1.1-.1.2 0-.1 0 0 0 0zM152.4 12.6c-.1.1-.1.1 0 0-.1.1-.1 0 0 0-.1 0-.1 0 0 0zM152.1 12.7c0 .2 0 .1 0 0zM152.4.5c-.1 0-.2 0-.3-.1.1.1.2.1.3.1zM148.5 18.7c-.1 0-.1.1 0 0h-.2s0-.1.2 0c-.1 0-.1 0 0 0zM152.5 14.2v.2c-.2 0 0-.1 0-.2zM155.6 16.1c.1 0 .1 0 .2.1-.2.1-.2 0-.2-.1zM155.2 14.8c-.1 0-.1-.1-.2-.2.2 0 .2 0 .2.2zM141.9 15.5s.1 0 0 0c.1 0 .2 0 0 0 0 .2 0 .1 0 0zM134.1 16.9h.2c-.2.1-.2.1-.2 0 0 .1 0 .1 0 0zM146.1 16.8v0zM132.5 16.7h-.3.3zM143.5 16.7h-.2v-.1c.1.1.2.1.2.1zM143.7 8.8c0-.1-.1-.2-.1-.3.1.1.1.2.1.3zM148.9 23.8h.2v.1c-.1 0-.1-.1-.2-.1zM142 23.7c0-.1 0-.1-.1-.2.1.1.1.1.1.2zM135 7.8s-.1.1-.2 0h.2zM156.3 24.6c.1-.1.2 0 .4-.1-.1.1-.2.1-.4.1zM137.3 8.1c0 .1-.1.1-.2.1 0-.1.1-.1.2-.1zM157.1 24.5c-.1.1-.2 0-.3 0h.3zM147.1 8.6c0-.1 0-.2.1-.3.1.1.1.2-.1.3zM161.4 8.3c.1 0 .1 0 .2.1-.2 0-.2-.1-.2-.1zM148.2 24.2c0 .1-.1.1-.2.2.1-.1.1-.2.2-.2.1.1 0 0 0 0zM154.8.9s-.1.1 0 0c-.1-.1 0-.1 0 0 .1-.1.1-.1 0 0 .1 0 .1 0 0 0zM155.3 10.2c0-.1 0-.1 0 0 0-.1 0-.1 0 0 0 0 .1.1 0 0zM143.1 20.6c-.1 0-.2 0-.2-.1.1-.1.2 0 .2.1zM150.4 9.8v-.3.3zM150.6 22.3c.1 0 .1-.1.2-.1 0 .1-.1.1-.2.1zM138.4 21.9h-.3.3z"/><path d="M131.3 12.4s.1-.1.2 0 0 .2-.1.3c0 0-.1.1-.1 0-.2-.3-.1-.3 0-.3zM152.7.9c-.1 0-.2.1-.4 0 .2-.1.3-.1.4 0z"/><path fill="#FFF" d="M152.2.9c-.1 0-.1 0 0 0 0-.1 0-.1 0 0 0-.1 0-.1 0 0z"/><path d="M157.3 3.9c.1 0 .2 0 .2.2-.2-.1-.1-.2-.2-.2z"/><path fill="#FFF" d="M137.7 4.9c.1 0 .2 0 .3-.1 0 .2-.1.2-.3.1z"/><path d="M154.9 2.1c.1 0 .3 0 .4.1-.2.1-.3-.1-.4-.1z"/><path fill="#FFF" d="M155 .3c-.2 0-.3-.1-.4-.1.1-.2.2 0 .4.1z"/><path d="M137.4 6.9c-.1 0-.1 0 0 0-.1-.1 0-.1 0 0 0-.1.1-.1 0 0 .1 0 0 0 0 0zM137.4 7.2c.1-.2.2-.1.4-.1-.2.1-.2.1-.4.1zM153.4 4.9h-.2v-.1s.1.1.2.1zM133 10.7c-.1 0-.2 0-.2-.1s.1-.2.3-.2c0 .1-.2.1-.1.3zM159.4 2.8c.2.1.3.2.4.3 0 0 .1 0 0 .1h-.1c-.3-.2-.3-.2-.3-.4zM147.2 8.9c-.1.1-.2.1-.4 0 .3-.1.3-.1.4 0zM147.1 13.9c-.2.1-.3 0-.4 0 .1-.1.1-.1.4 0zM144.9 18.6s-.1 0 0 0c-.1.1-.1.1 0 0-.2 0-.2-.1 0 0-.1-.1-.1-.1 0 0zM157 9.9c.1 0 .2 0 .3.1-.1-.1-.2-.1-.3-.1zM161.6 4.8c-.1-.1-.2 0-.2-.1.2 0 .2 0 .2.1zM163.9 13.2c-.2-.1-.3-.3-.4-.4v-.1h.1c.1.3.2.4.3.5zM163.7 12.5c.1 0 .1.1.1.2 0-.1-.1-.1-.1-.2zM157.2 12.6c-.1 0-.1-.3-.2-.3.2 0 .4 0 .4.2 0 .1 0 0-.1 0 0 0 0 .2-.1.1zM157.2 12.6c.1.1.2.1.1.2 0-.1-.1 0-.1-.2zM149.3 5.6s.1 0 0 0c.1 0 .1 0 0 0s-.1 0 0 0c-.1 0-.1 0 0 0zM141.3 11.4c.1-.3.1-.4.4-.1-.3-.1-.3 0-.4.1zM142.1 11.1c.1 0 0-.1 0 0 .1-.1.2-.1.2 0s-.1 0-.2 0zM155.8 19.3c0 .1 0 .1-.1.2-.1-.2 0-.2.1-.2zM153.1 21.8v.3c-.1-.2 0-.2 0-.3zM149.1 14.3c0 .1.3 0 .2.1 0 .1.2.2 0 .2s-.1-.2-.2-.3zM162.6 10.7h.2s0 .1-.2 0c0 .1 0 .1 0 0zM155 10.7c.1 0 .2.1.3.3-.2-.3-.3-.3-.3-.3zM147.6 17.8h.2v.1c-.1 0-.1-.1-.2-.1zM148.9 9.4c-.1-.2-.1-.3 0-.4v.4zM151.5 2.7c-.1 0-.1 0 0 0-.1-.1-.1-.1 0 0-.1-.1 0-.1 0 0z"/></g></g></svg>