<svg xmlns="http://www.w3.org/2000/svg" xmlns:xlink="http://www.w3.org/1999/xlink" viewBox="44.7 171.2 216 97.3"><path fill="none" d="M169.4 208.8c-.9.7-1.8 1.4-2.8 2.1 2.3-.2 4.9-.2 7.7.2l.9-3.4c-2.9 1.4-5.8 1.1-5.8 1.1zM102.5 247.2s8.2-18 10.1-26.8c-1.1-1.2-2.2-2.6-3.3-4 0 0-1.1 5.5-14.5 16.4-4.2 3.4-7 9.2-8.5 13.4 4.9-2.5 10.8-3.6 16.2 1z"/><path fill="#FFF" d="M201.1 187.9s1.2-6.3-2.6-9.9c3.4 3.7 2.3 9.6 2.3 9.6s2.1 4-6.8 12.8v.2l.4.2c3.1-3.1 4.8-5.4 5.8-7.4 1.8-3.8.9-5.5.9-5.5z"/><g fill="#AFD13B"><path d="M217.8 180.8c-1.9-1.6-6.8-1.4-8.8-2.1-1.2-.4-2.4-.9-3.7-1.4-4.5-1.9-8.9-4.5-9.9-4.9 0 0 0-.1-.1-.1 0 0-8.8-4.8-25.1 5.2-8.5 5.2-13.9 18.4-25.6 19.4 0 0-12.8-5.2-22.4.8 10.1 4.1 22.4 10.2 31.2 18.2 1.3-.8 6-4.2 13.1-5 .9-.7 1.9-1.3 2.8-2.1 0 0 3 .3 5.9-1.1l-.9 3.4-6 22.1-5.4 20.2c-1 4 .2 5.4.2 5.4h17.8c.2-.2.2-.4.2-.4l3.8.1c.2 0 .2-.2.2-.2h1.2c.8-.8-.1-1.2-.4-1.2-.3 0-1.8-.4-1.8-.4-.6-.1-2.8-1.1-2.8-1.1-.5-.3-1.4-.6-2.1-.5-.7.1-2.4-.2-2.4-.2-1.3-.7-4-1.6-5.6-2.2 2-5 5.7-13.2 5.7-13.2.2-.3.4-.7.7-1 7.9-12 6.4-16 6.4-16 1.8-1.6 3.4-3.4 4.6-5.3 5-7.4 5.4-15.4 5.4-16.5v-.2c8.8-8.8 6.8-12.8 6.8-12.8s1.2-5.9-2.3-9.6c3.9 3.7 2.6 9.9 2.6 9.9s.9 1.7-1 5.4h.1c.2-.1.7-.2.7-.2.6.9 1.7-.1 1.7-.1v1.1l1.8-.1.3 2.1c1.8.2 3.5 0 4.9-.2.8-.2 1.6-.3 2.2-.5 2.6-.5 4.1-1.3 5.1-2.1 1.3-1.2 1.5-2.1 1.5-2.1s.2-.5.3-1.2c.6-2.7 1.4-7.3-.9-9.3zM66.6 253c-1.7-1.2-4.3-2.5-4.3-2.5-3.1-1-5 2.6-5 2.6-8.9-2.3-11.5 4.5-11.5 4.5-1.4 0-1.1 1.4-1.1 1.4h24.4c-.2-.2-.2-.4-.2-.6 0-.4.2-.8.6-1 .6.5 1.6.6 2.3.4.8-.2 1.6-1.4 2.3-2.2 1.5-1.6 1.6-2.6 2.1-4.1-4.7 2.2-9.6 1.5-9.6 1.5zM112.6 220.3c-1.8 8.8-10.1 26.8-10.1 26.8-5.4-4.5-11.3-3.5-16.3-1.2-.9 2.5-1.3 4.3-1.2 4.5.1.7.6 1.2.8 1.8.3.6.6 1.2.5 1.9s-.5 1.2-1 1.6c-.5.4-1.1.7-1.7.9-1.8.5-2.8 1.4-3.6 2.4h37.8c6.6-5.8 12-14.5 16-22.4-6.3-2.2-13.4-7.2-21.2-16.3z"/></g><path d="M199.4 256s4.9 0 8.4.6c0-.1.1-.2.2-.2-2.1-.3-6.4-.9-8.6-.4zM257.6 254.6h-1c-1.4-.2-1.2-1.9-2.5-2.4-.8-.3-1.8 0-2.7-.2-1.8-.4-1.8-2.7-3.7-2.9-.7-.1-1.6.2-2.3.1-.7-.2-.9-.8-1.1-1.2-.4-1.1-1.2-2.4-2.8-2.5-1-.1-2 .3-2.9 0-.7-.2-1.1-.7-1.2-1.2s0-1.1-.1-1.6c-.2-2-2.9-3.5-5.8-3.7-1.6-.1-3.4.2-4.8.9.8.5 1.4 1.2 1.8 1.9.2.6.3 1.2.2 1.9-.3 1.1-1.3 2-2.5 2.1-1 .1-2-.3-2.9-.1-1 .2-1.6 1.2-1.6 2.2-1.2-.5-2.1-.9-3.5-.9-1.6 0-2.7 0-4 .3-.5.2-1.1.4-1.6.7-.1.1-.2.2-.3.2 1.2 1.7 2.1 4.4-.9 7.3 0 0-1.9.7-2.3 1 0 0-.5-.1-1.2-.2-.1.1-.1.2-.2.2.7.1 1.2.2 1.8.4 3.4.9 14.3 1.3 16.2 1.2 1.8-.1 4-1.2 5.9-.2.4.2.8.3 1.2.6.1.1.2.2.4.2l27.3.1c.4-2.8-1.1-4.2-2.9-4.2z"/><path fill="#00AFAD" d="M166.6 210.8c-7.1.8-11.9 4.2-13.1 5-8.9-8.1-21.2-14.2-31.2-18.2-10.1-4.1-18.1-6.2-18.1-6.2-15.9 17.8-24.5 52.4-24.5 52.4s-.4 2.2-2.6 6.1c-.4.7-.7 1.3-.8 1.8-.5 1.4-.6 2.5-2.1 4.1-.7.8-1.6 2-2.3 2.2-.8.2-1.7.2-2.3-.4-.4.2-.6.6-.6 1 0 .2.1.4.2.6.1.2.2.2.4.3l-.9.6c-.1 0-.2.1-.2.2-.1.2 0 .4.1.5.2.2.3.2.6.2-.1.1-.2.2-.2.3.1.4.7.7 1.1.4-.3.2-.3.8 0 1.1.3.2.8.2 1.1-.2 0 .4.6.5.9.3.3-.2.5-.7.6-1 4.9 1 5.9-.9 7.5-2.7.8-1 1.8-1.9 3.6-2.4.7-.2 1.2-.5 1.7-.9s.9-1 1-1.6-.2-1.3-.5-1.9c-.3-.6-.8-1.2-.8-1.8 0-.3.4-2.1 1.2-4.5 1.5-4.1 4.3-9.9 8.5-13.4 13.4-10.9 14.5-16.4 14.5-16.4 1.2 1.4 2.2 2.8 3.3 4 7.8 9.1 14.9 14 21.1 16.5 11.5 4.5 19.8.1 23.9-3.2 3.7-1.2 7.6-1 10.7-.4l6-22.1c-2.9-.5-5.5-.5-7.8-.3z"/><g fill="#00AFAD"><path d="M233.7 262.5c-.1.1-.2.2-.2.3.4.2.8.2 1.2.4.5.3.5.7.7 1.2.4 1 1 1.6-.2 2.4.6.1 1.6-.4 1.6-1 .1-.7-.2-1.6-.5-2.1-.3-.9-1.5-1.3-2.6-1.2zM237.9 262.9c-.3-.5-1.6-1.9-1.9-.6-.3 0-.6-.1-.9 0 .2.3 1.3.6 1.6 1.1.4.6.7 1.4.7 2.1 1-.1.8-1.8.5-2.6z"/><path d="M233.7 263.2c-.6-.2-1.4-.8-1.6-.1-.2 1 1.9 1.2 1.5 1.8-.2.3-.8-.2-1-.3-.5-.3-.8-.4-.8-1 0-.4-.1-1.2.4-1.2.3 0 .5.4.9.4.1-.2.2-.3.3-.5.4-.1.9.1 1.3.1 0-.3.3-.4.7-.3-.5-.7-2.5-1.9-2.5-1.9 1.2.3 2.5 1.6 2.7 1.8.1-.2.4-.4.7-.6-.6-.7-1.5-1.1-2.1-1.7-.3-.3-.7-.7-1-.9-.1-.1-.2-.2-.4-.2-.4-.2-.7-.4-1.2-.6-2-.9-4.1.1-5.9.2-1.9.1-12.8-.3-16.2-1.2-.5-.2-1.2-.2-1.8-.4-3.5-.6-8.4-.6-8.4-.6 2.1-.5 6.4.1 8.6.4.8.1 1.2.2 1.2.2.4-.3 2.3-1 2.3-1 3-3 2.2-5.6.9-7.3.1-.1.2-.2.3-.2.6-.3 1.1-.5 1.6-.7 1.2-.4 2.5-.3 4-.3s2.4.4 3.5.9c.1-1 .7-2 1.6-2.2.9-.2 1.9.2 2.9.1 1.2-.1 2.1-.9 2.5-2.1.2-.6.1-1.2-.2-1.9-.4-.7-1.1-1.4-1.8-1.9-.3-.2-.6-.4-.9-.5 0 0-1.4-1.2-1.7-2.6l-1.3 1.2s-.5.2-.8-1c0 0-.7.2-1.6.4l-.2-1.1s-.4.3-1.4-.4c0 0-1.2-.5-1.7 1.2-.4 1.6-.6 4.5-3.2 4.3l-1.4-.8c-.8-1.3-1.7-2.5-2.3-3.3-2.1-2.8-3.4-6.3-4.1-8.7-.7-2.2-1.3-6.6-2.1-6.9-3.5-.9-7.8 1.5-7.8 1.5-2.7-2.6-5.3-4.6-7.8-6.3-1.2 1.8-2.7 3.6-4.6 5.3 0 0 1.5 4-6.4 16 7.3 9.2 13.1 13.9 17.7 16.1.7-.5 1.6-1 2.7-1.5 0 0 4-1.9 4.9-3.4-1.2 1.5-4.5 3.5-4.5 3.5-10.3 5.3-3.5 12-3.5 12 4.4 2.1 18.1.1 21.8-1 3.3-1 9.1-.1 9.9.1.1.1.2.2.3.2 1 .7 1.6 1.8 2.3 3 .8 1.6 2.3 1.6 3.8.7.4-.2.8-.6 1.2-.8.4-.2.8-.3 1.2-.5.8-.5.2-1.6-.2-2.2-.1-1.1-.4-1-1.3-1.3z"/></g><path fill="#00AFAD" d="M235.4 262.1c0 .1.1.1.1.2 0 0 .2 0 .2-.2-.2-.2-1.6-1.5-2.7-1.8 0-.1 2 1.1 2.4 1.8z"/><path d="M209.8 194.7c-.1.2-.2.5 0 .7.5-.4.7-1.2.8-2.1 0-.6 0-1.3-.3-1.6-.2-.2-.4-.2-.6 0 .2.9.3 2 .1 3zM208.5 194.3v-.2s0-.2-.1-.2c-.1-.4 0-.9.2-1.1-.2-.2-.6 0-.7.4s0 .8.2 1.1h.4zM220.7 177.5c0 .1 0 0 0 0zM222.6 181.3c1.2-.8.1-2.3-.7-2.7-.4-.2-1.5-.4-1.2-1 0 0 0-.1-.1-.1.8-.7.3-2.2-.7-2.5.4.4.2 1.4-.3 1.6.1-1-.7-1.7-1.6-2-.4-.1-1 .1-1.4 0-.3 0-.2 0-.4-.1-.2-.2-.3-.4-.6-.6-.4-.2-1.1-.3-1.6-.3-.7.1-.8.5-1.4.7-.4.1-.8 0-1.2.2-.9.3-1.7.7-2.6 1.2-1.2.6-2.1 1.4-3.4 1.7-.2.1-.5.2-.7.2.4.5.7 1.2 1.2 1.6.7.7 1.6.8 2.6.7 1-.2 3-.6 3.2.9 1.3.3.3 2.5-.3 3-1 .9-1.7 2.1-1.6 3.5.8.3 1.6.2 2.4.8.7.7 1 1.5.7 2.4-.2.8-1.7 3.1-.7 3.8-.2-1.2.8-3.1 2.1-3-.9.2-1.5 1.5-1.2 2.3.2-1.1 1.5-1.3 2.4-1.2.4.1.6.2 1 .4.3.2.6.3.8.4-.9.8-2.5 1.6-5.1 2.1-.7.1-1.4.3-2.2.5.1.1.1.2.2.2.7.5 1.3.2 2 .5-.7.4-1.6.2-2.4 0 .5.5 1.2.7 1.8.8.4.1 1 .2 1.4.2.3 0 .7-.3.9-.3.8-.1 1.6.5 2.5.4.7-.1 1.2-.2 1.8-.7.4-.3.7-.8 1.2-1.1.8-.6 1.2-.8 1.7-2 .4-1.1.4-2.1.7-3.2 1.1-1.2 1.9-2.9 2.1-4.4.1-1.3.1-4.1-1.3-4.9zM224.1 241.8c.1 0 .1-.1.1-.2v-.2c-.1-.4.2-.8.6-.8-.2-.2-.7-.2-1 .2-.2.3-.2.7.1 1 0-.1.1 0 .2 0zM226.7 241.5c0-.2 0-.3-.1-.5 0-.1 0-.1-.1-.2s-.2 0-.1.1c.2.4.2.7.1 1.2 0 .1 0 .2-.1.2-.2.3-.4.5-.7.7-.3.1-.7.2-.9.2 0 .1.1.1.1.1.3 0 .6 0 .9-.1.3-.1.6-.2.7-.5.2-.4.2-.8.2-1.2z"/><defs><path id="a" d="M86.2 246c-.9 2.5-1.3 4.3-1.2 4.5.1.7.6 1.2.8 1.8.3.6.6 1.2.5 1.9-.1.7-.5 1.2-1 1.6-.5.4-1.1.7-1.7.9-1.8.5-2.8 1.4-3.6 2.4h13.8L92.6 244c-2.3.4-4.4 1.1-6.4 2zm-10.1 5.7c-.5 1.4-.6 2.5-2.1 4.1-.7.8-1.6 2-2.3 2.2-.8.2-1.7.2-2.3-.4-.4.2-.6.6-.6 1 0 .2.1.4.2.6H44.6s-.3-1.4 1.1-1.4c0 0 2.6-6.8 11.5-4.5 0 0 2.1-3.6 5-2.6 0 0 2.6 1.3 4.3 2.5.1-.2 5 .5 9.6-1.5z"/></defs><clipPath id="b"><use xlink:href="#a" overflow="visible"/></clipPath><g clip-path="url(#b)"><path d="M58.7 249.3c.2.2.4.5.6.7l.4.4c.2.2.2.3.4.4.2.2.2.3.4.4.2.2.4.4.5.6.2.2.5.6.8.8l.3.3-.5.5-.6.6-.2.2-.2.2-.2.2-.2.2c-.1 0-.1.1-.1.2-.2.2-.4.4-.6.7-.3.3-.7.7-.9 1l-.2.2-.7-.7-.7-.7c-.2-.2-.4-.5-.7-.7-.2-.2-.4-.5-.7-.7-.2-.2-.4-.5-.7-.7l-.4.4c-.1.1-.2.2-.3.4-.1.1-.2.2-.3.4-.1.1-.2.2-.3.4l-.4.4c-.1 0-.1-.1-.2-.1 0 0 0 .1.1.1s0 .1 0 .2c-.2.2-.5.5-.7.8-.2.2-.2.3-.4.4l-.5.5v.1l.2.2.8.8h.1c0 .1.1.1.2.2.1.2.2.2.4.4 0 0 .1.1 0 .1 0 0 0 .1-.1.1.1 0 .2 0 .1-.1.1 0 .2 0 .2.1l.3.3 1.2 1.2s.1 0 .1.1h-3.5c0-.1-.2-.1-.2-.1v.1h-3.4s.1-.1.1-.2l.7-.7c.2-.2.5-.6.8-.8h.2c-.1-.1 0-.2.1-.2.2-.2.3-.3.4-.5l.3-.3c.3-.3.6-.6.8-.9-.6-.6-1.2-1.2-1.7-1.8 0 0 0-.1.1-.1h-.1c-.6-.6-1.2-1.2-1.7-1.8-.3.3-.6.7-.9.9-.2.2-.5.5-.7.8 0 0-.1.1-.2.1 0 .1 0 .1-.1.2l-.3.3c-.4.4-.8.8-1.2 1.3 0 0-.1 0-.1.1v-3.6c.1 0 .1.1.2.1 0 0-.1-.1-.1-.2s.1-.1.1-.2c0 0-.1.1-.2.1m40-8.8c.2-.2.2-.3.4-.4.2-.2.2-.3.4-.4.2-.2.4-.4.6-.7l.3-.3.8-.8h.1c.3.3.6.7.9.9.2.2.4.5.7.7 0 0 .1.1.1.2.1 0 .2.1.2.1.2.2.3.4.5.6.2.2.5.6.8.8l.3.3c-.2.2-.5.5-.7.8-.2.2-.4.5-.7.8-.1.1-.2.2-.3.2 0 .1 0 .1-.1.2-.3.3-.6.6-.8.9-.2.2-.5.6-.7.8l.6.6c.3.4.7.7 1.1 1.2 0 0 .1.1.1.2 0 0 .1 0 .1.1l.3.3c.4.4.7.8 1.2 1.2l.2.2c-.2.2-.3.3-.4.5-.2.2-.4.4-.6.7-.2.2-.4.4-.6.7h-.1s0 .1-.1.1l-.4.4c-.3.4-.7.7-1.1 1.2-.1.1-.2.1-.2.2-1.2-1.2-2.3-2.5-3.5-3.7-.1 0-.2.1-.2.1-.2.2-.5.6-.8.8l-.6.6-.2.2c-.1 0-.1-.1-.2-.1 0 0 .1 0 .1.1v.1s-.1.1-.1.2l-.5.5c-.2.2-.4.4-.6.7-.2.2-.4.3-.5.5h-.1c-.3-.3-.6-.7-.9-1-.2-.2-.5-.6-.8-.8 0 0 0-.1.1-.2-.1 0-.1 0-.2.1-.6-.6-1.2-1.2-1.7-1.8-.2.2-.2.3-.4.4-.4.4-.7.7-1.1 1.2-.1.1-.2.2-.3.2v.1c-.2.2-.5.6-.8.8-.2.2-.4.5-.7.7l-.2.2-1.2-1.2-1.2-1.2c-.4-.4-.7-.8-1.2-1.2l-.2.2-.2.2-.2.2-.2.2c-.1.1-.1.2-.2.2l-.2.2-.2.2-.2.2c-.1-.1-.1-.1-.2-.1 0 .1.1.1.2.2l-.2.2-.8.8c-.2.2-.4.5-.7.7 0 0-.1.1 0 .2s.2.2.2.3c.2.2.5.5.7.8h.1c.1.2.4.4.5.7 0 0-.1.1-.1.2 0 0 .1-.1.2-.1l.3.3 1 1c.2.2.3.3.4.5H66s-.1 0-.2-.1l.1.1h-3.5l.2-.2c.1-.2.2-.3.4-.4l.7-.7c.2-.2.3-.3.4-.5 0 0 .1 0 .2.1 0-.1-.1-.1-.1-.2.6-.6 1.2-1.2 1.7-1.8-.6-.6-1.2-1.2-1.7-1.8 0 0 0-.1.1-.1h-.1c-.6-.6-1.2-1.2-1.7-1.8.6-.6 1.2-1.2 1.7-1.8h.1c-.2-.1-.1-.2 0-.2l.2-.2c.4-.4.7-.8 1.2-1.2l.2-.2m13.9-7.5c0 .1.1.1.2.2m-22.1 10.2c.1 0 0-.1 0 0-.1 0-.1 0 0 0s.1 0 0 0zm29.9 1.8c.1 0 0 0 0 0s0-.1 0 0c-.1-.1-.1 0 0 0zm-42.4 0s.1 0 0 0c.1 0 .1 0 0 0 0-.1 0-.1 0 0zm41.5-8.4s0 .1.2.1c-.1-.1-.1-.1-.2-.1 0-.1.1-.2.1-.2s-.1.1-.2.1l-.2-.2c.1 0 .1.1.2.2.1 0 0 .1.1.1-.1 0-.1 0 0 0-.2 0-.2.1-.2.2 0-.1 0-.1.2-.2zm-.1 7.3c-.1-.1-.1-.2-.2-.2l.2.2c-.1 0 0 0 0 0s0 .1 0 0l-.2.2c.1 0 .1 0 .2-.2 0 .1.1.2.2.2l-.2-.2c.1 0 .1-.1.2-.1-.1 0-.1 0-.2.1zm-28.2 0c-.1-.1-.1-.2-.2-.2l.2.2s0 .1 0 0l-.2.2c.2 0 .2 0 .2-.2.1.1.1.2.2.2 0-.1-.1-.1-.2-.2.1-.1.2-.1.2-.2-.1.1-.2.1-.2.2zM75 247c-.2.2-.2.3-.4.4 0 0-.1 0-.1.1 0 0 0 .1-.1.1m-1.7 1.8l.6.6c.3.4.7.7 1 1.1 0 0 .2.1.1.2.1 0 .1.1.2.1l.4.4c.2.2.5.6.8.8.2.2.3.3.4.5.6-.6 1.2-1.2 1.7-1.8 0 0 .1 0 .2.1 0-.1-.1-.1-.1-.2.2-.2.3-.4.5-.6.4-.4.7-.8 1.2-1.2.1-.1.1-.1 0-.2l-.8-.8c-.2-.3-.5-.6-.8-.8 0 0 0-.1.1-.2-.1 0-.1 0-.2.1m-26.4 1.8c.1.2.2.2.2.3.2.2.4.4.5.6l.3.3v.1l.3.3.2.2-.2.2s.1-.1.2-.1c.2.2.2.3.4.4l1.2 1.2c.1.1.2.1.2 0 .2-.2.3-.3.4-.5l.8-.8.7-.7.2-.2.2-.2s.1-.2.2-.2l.2-.2.5-.5c.1-.1.1-.2 0-.2m7.7 0s-.1.1 0 .2l.2.2c.3.3.6.7.9.9h.1c-.1.1.1.2.1.2.1.2.3.2.4.4 0 0-.1.1-.1.2 0 0 .1-.1.2-.1.6.6 1.2 1.2 1.7 1.8.1 0 .2-.1.2-.2l.2-.2c.3-.3.6-.7.9-1l.5-.5s.1-.2.2-.2.2-.1.2-.2c.3-.3.6-.6.8-.9.2-.2.2-.3.4-.4.1-.1.1-.2 0-.2m9.7-2.6l-.2.2-.3.3-.3.3c-.1 0-.1-.1-.2-.1 0 0 .1.1.1.2l-.2.2-.5.5c-.2.2-.4.4-.6.7l-.2.2s-.2.1-.1.2h-.1s.1.1.1.2l.7.7.3.3h.1c0 .1 0 .1.1.2l.2.2h.1V251.3c0 .1 0 0-.1.1 0 0 .1-.1.2-.1.3.3.6.6.8.9.3.3.6.6.8.9l.2-.2c.2-.2.5-.5.7-.8l.2-.2s.1-.1.1-.2l.2-.2.2-.2s.1-.1.1-.2.1-.1.1-.1c.2-.2.3-.4.5-.6.2-.2.2-.3.4-.4l.7-.7c.1-.1.1-.2 0-.2l-.2-.2c-.2-.2-.3-.3-.4-.5l-.5-.5c-.2-.3-.6-.6-.8-.9-.2-.2-.4-.5-.7-.8M51.5 253c0 .1 0 .2-.1.2h.2l-.1-.2zm14.2.1c-.1 0-.1 0-.2-.1 0 .1.1.1.1.1s0 .1-.1.1c.1 0 .2 0 .2-.1zm14 .2s.2 0 .2-.1-.2-.1-.2-.1v.2c0-.1 0-.1 0 0zm-6.8-.4c-.1 0-.2.1-.2.2 0 0 0 .1.2.2 0-.1-.1-.1-.2-.2.1 0 .2-.1.2-.2zm-7.4 7.5c0-.1-.1-.2-.2-.2 0 .1.1.1.2.2zm1.1-6.3c-.1-.2-.1-.2-.2-.2.1.1.1.2.2.2zm-1.4-.6s.1 0 0 0c.1 0 .2-.1.2-.2 0 .1-.1.1-.2.2zm8.1-1c.1-.1.2-.1.2-.2-.1.1-.2.1-.2.2zm-6.9-.1s-.1 0 0 0c-.1 0-.2.1-.2.2 0-.1.1-.1.2-.2zm.6 2.2c0 .1.1.2.2.2 0-.1-.1-.2-.2-.2zm4.3 0c.1-.1.2-.1.2-.2-.1 0-.2.1-.2.2zm-11.9-.7c0-.1 0-.2-.2-.2 0 .1.1.1.2.2zm-2 .5c-.1 0-.2.1-.2.2.1-.1.2-.1.2-.2zm-11.6.1c0-.1 0-.2-.2-.2l.2.2zm40.1-9.8c0-.1 0-.2-.2-.2.1.1.1.2.2.2zm-20.4 8.2c-.1-.2-.1-.2-.2-.2 0 .1 0 .2.2.2zm7.5 0c.2-.1.2-.1.2-.2-.1 0-.1.1-.2.2zm-14-.3c-.1 0-.2.1-.2.2.2 0 .2-.1.2-.2zm5.7-.5c0 .1.1.2.2.2-.1-.1-.1-.2-.2-.2zm21.2.1c0-.1 0-.2-.2-.2l.2.2zm-14.2-.2c0 .1 0 .2.2.2l-.2-.2zm-14.1 0c0 .1 0 .2.2.2l-.2-.2zm30.5-.3c-.1 0-.2.1-.2.2.2 0 .2-.1.2-.2zM67.2 259c-.1 0-.2.1-.2.2l.2-.2zm-21-7.5c-.1 0-.2.1-.2.2.1-.1.1-.2.2-.2zm10.9 0c0-.1 0-.2-.2-.2.1.2.2.2.2.2zm15.6 1.7s-.1 0 0 0c-.1 0-.2.1-.2.2.1 0 .1-.1.2-.2zm-.3.2c0 .1-.2.1-.2.2.1 0 .2 0 .2-.2zm8.2-7c0 .1.1.2.2.2-.1 0-.2-.1-.2-.2zm4.6 1c.1 0 .2-.1.2-.2-.1.1-.2.1-.2.2zm3-3.3c.2 0 .2-.1.2-.2 0 .1-.1.2-.2.2zm-21.8 15.8s-.1 0 0 0c-.1 0-.2.1-.2.2 0-.1.1-.2.2-.2zm18.9-15.8c0-.1-.1-.2-.2-.2.1.1.2.1.2.2zm-20.2 15.8c0 .1 0 .2.2.2l-.2-.2zm-7.7-8c0-.1 0-.2-.2-.2.1 0 .1.1.2.2zm9.6-.2c.1 0 .2-.1.2-.2-.1.1-.2.1-.2.2zm-13.9-.2c-.1 0-.2.1-.2.2.1 0 .1-.1.2-.2zm0 7.5c-.2 0-.2.1-.2.2.1-.1.1-.2.2-.2zm18.3-7.3s-.1 0 0 0c0 .1.1.2.1.2.1-.1-.1-.2-.1-.2zm14.1 0s-.1 0 0 0c0 .1 0 .2.2.2-.1-.1-.1-.2-.2-.2zm-11.6.2c.1 0 .2-.1.2-.2l-.2.2zm-9.3.1c0-.1 0-.1-.1-.2-.1.1 0 .2.1.2zm2.1 0s.1 0 0 0c.1 0 .2-.1.2-.2-.1.1-.1.2-.2.2zm14.4-.1c-.1 0-.1 0 0 0-.2.1-.2.1-.2.2 0-.1.1-.1.2-.2zm-28.6.2s-.1 0 0 0c-.1 0-.2.1-.2.2.1 0 .1-.1.2-.2zm14.1 0c-.1 0-.1 0 0 0-.1 0-.2.1-.2.2.1 0 .1-.1.2-.2zm14 .3c.1 0 .2-.1.2-.2-.2 0-.2 0-.2.2zm-1.6-5.9c-.2 0-.2.1-.2.2.1 0 .1-.1.2-.2zm8.9.3c0-.1-.1-.2-.2-.2 0 .1.1.2.2.2zm-2.1 0c.1 0 .2-.1.2-.2-.2.1-.2.2-.2.2zm-5 0c0 .2.1.2.2.2 0-.1-.1-.2-.2-.2zm7.3.3c0-.2 0-.2-.2-.2.2.1.2.1.2.2zm-17 4.3c0 .1.1.2.1.2 0-.1 0-.1-.1-.2zm-10.9 0c-.2.1-.2.1-.2.2.2-.1.2-.1.2-.2zm28.3.1c-.1 0-.2.1-.2.2.1-.2.1-.2.2-.2zm-15 2.4c-.1-.2-.1-.2-.2-.2l.2.2zm-1.6 0s.1 0 0 0c.1 0 .2-.1.2-.2 0 .1-.1.1-.2.2zm14.2 0c.1 0 .2-.1.2-.2-.2.1-.2.1-.2.2zm-5.4.3c0-.1-.1-.2-.2-.2.1 0 .1.1.2.2zm-15.8-.2c-.2.1-.2.1-.2.2.1 0 .1-.1.2-.2zm-7.3.3c.1 0 .2-.1.2-.2-.2.1-.2.1-.2.2zm28.3-.2c-.1 0-.2.1-.2.2.1-.1.2-.1.2-.2zm-33.3.2c0 .1.1.2.2.2 0-.2 0-.2-.2-.2zm-2.1 0c-.1 0-.2.1-.2.2l.2-.2zm14.1 0c-.1 0-.2.1-.2.2l.2-.2zm23.4 0c.1 0 .1.2.2.2-.1-.1-.1-.2-.2-.2zm-6.7.5c0-.1 0-.2-.2-.2.1 0 .1.1.2.2zm-31.3 0s.1 0 0 0c.1 0 .2-.1.2-.2-.1 0-.1.1-.2.2zm-4.1-.2c.1.2.1.2.2.2 0 0 0-.1-.2-.2zm11.2.1c-.2.1-.2.1-.2.2.2-.1.2-.1.2-.2zm28.2 0c-.1 0-.2.1-.2.2.2-.1.2-.1.2-.2zm-20.2-2.2c0-.1 0-.2-.2-.2.2.1.2.2.2.2zm21.2.1c0 .1.1.2.1.2.1-.1 0-.2-.1-.2zm-35.2.1c0 .1.1.2.2.2 0-.1 0-.1-.2-.2zm28.3 0c0 .1.1.2.2.2l-.2-.2zm-28.3.8c.1 0 .2-.1.2-.2 0 .1-.1.1-.2.2zm-6.2.1l-.2-.2c.2.1.2.2.2.2zm14.1 0c0-.1 0-.2-.2-.2.2.1.2.1.2.2zm14-.2c0 .1.1.2.2.2-.1-.1-.1-.2-.2-.2zm-14.7.1c-.1 0-.2.1-.2.2l.2-.2zm-6.1.3c0-.1 0-.2-.2-.2 0 .1.1.2.2.2zm12.8 0c.1 0 .2-.1.2-.2-.1.2-.1.2-.2.2zm-19.9 0c0 .1 0 .1.1.2.1-.2 0-.2-.1-.2zm41.2-7.6c.2-.1.2-.1.2-.2-.1.1-.2.1-.2.2zm1 0c0-.1-.1-.2-.2-.2.1 0 .1.1.2.2zm-36 14.2c0-.1-.1-.2-.2-.2.1 0 .2.1.2.2zm-.3-.4c0-.1 0-.2-.2-.2.1.1.2.1.2.2zm13.8-.3c0-.1 0-.2-.2-.2.1.1.1.2.2.2zm20.7-15.4s-.1 0 0 0c0 .1 0 .2.1.2 0-.1 0-.2-.1-.2zm1.9 2c0 .1.1.2.1.2.1-.2 0-.2-.1-.2zm-20.7 13.2c.1 0 .2-.1.2-.2-.1 0-.1.1-.2.2zm12.9-6.1c-.2 0-.2.1-.2.2l.2-.2zm8-8.5c-.2 0-.2.1-.2.2.1-.1.2-.1.2-.2zm-7.6 8.5c0 .2 0 .2.2.2-.1-.2-.1-.2-.2-.2zm-13.9 0c0-.1-.1-.1-.2-.2.1.2.1.2.2.2zm-14.1.1c0-.2-.1-.2-.2-.2 0 .1.1.1.2.2zm35.2-.1c0 .2 0 .2.2.2-.2-.1-.2-.2-.2-.2zm1.2 1.4s.1 0 0 0c0-.1 0-.2-.2-.2.1.2.2.2.2.2zm-.8-2.4c-.1 0-.2.1-.2.2l.2-.2zm-8.4 0s-.1 0 0 0c0 .1 0 .2.2.2-.2-.1-.2-.2-.2-.2zm-8 2.3c-.2.1-.2.1-.2.2.2-.1.2-.1.2-.2zM52 252.6c.1 0 .2-.1.2-.2-.1.1-.2.1-.2.2zm28.2 0s.1 0 0 0c.1 0 .2-.1.2-.2 0 .1-.1.1-.2.2zm-22.1 0c0 .1.1.2.2.2-.1-.1-.1-.2-.2-.2zm28.4-7.2c0-.1-.1-.2-.2-.2.1 0 .1.1.2.2zm.8 7.3c-.1 0-.2.1-.2.2.1-.1.1-.2.2-.2zm-36.6 7c0-.1 0-.1 0 0 0-.1 0-.2-.1-.2 0 .1.1.2.1.2zm15.4-6.9s-.1 0 0 0c-.1 0-.2.1-.2.2l.2-.2zm13.9.1c.2-.1.2-.1.2-.2l-.2.2zm-26.9 1.9c0-.1 0-.1 0 0 0-.1-.1-.1-.1-.2-.1 0 0 .1.1.2zm20.9-.3c0-.1 0-.2-.2-.2l.2.2zm-14.2-.2c0 .1 0 .2.2.2 0-.1-.1-.1-.2-.2zm18.7.2c.1-.1.2-.1.2-.2-.1 0-.2.1-.2.2zm2.3-.3c0 .1.1.2.2.2 0-.1-.1-.1-.2-.2zm-9-.1c-.1 0-.2.1-.2.2l.2-.2zm-19.5 5.7c.1 0 .1 0 0 0 .2 0 .2-.1.2-.2-.1 0-.1.1-.2.2zm34.2-6.4c-.1 0-.2.1-.2.2.2 0 .2-.1.2-.2zm-36.1 6.1c0-.1 0-.2-.2-.2.1 0 .2.1.2.2zm.6-5.8c-.1 0-.2.1-.2.2.2-.1.2-.1.2-.2zm13.4 5.5c0 .1.1.2.2.2l-.2-.2zm23-5.4c0 .1 0 .2.2.2 0-.2-.1-.2-.2-.2zm-29.6.1s.1 0 0 0c.1 0 .1-.1.2-.2l-.2.2zm-5.4.2s.1 0 0 0c0-.1 0-.2-.2-.2.2.1.2.2.2.2zm21.8.6c0 .1 0 .2.2.2 0-.1-.1-.1-.2-.2zm4.5-7.9c-.1 0-.2.1-.2.2.1 0 .2-.1.2-.2zm-26.9 13.6c.1 0 .2-.1.2-.2-.1.1-.2.1-.2.2zm.8-8.4s.1 0 0 0c.1 0 .2-.1.2-.2-.1.1-.1.2-.2.2zm-.4 7.9c-.1 0-.2.1-.2.2l.2-.2zm26.5-7.9c0-.1-.1-.2-.2-.2l.2.2zm-18.7-.3c-.1 0-.2.1-.2.2.1 0 .2-.1.2-.2zm-14.3.3c.1 0 .2-.1.2-.2-.1 0-.2.1-.2.2zm39.6-.6c0 .1 0 .2.2.2-.2-.1-.2-.1-.2-.2zm-11 .1c-.1 0-.2.1-.2.2l.2-.2zM64.2 259c0 .1.1.1.2.2-.1-.2-.2-.2-.2-.2zm21.9-6.7c0 .1.1.1.1.2 0-.1 0-.1-.1-.2zm-4.9-5.2s-.1 0 0 0c0 .1 0 .2.1.2-.1-.1-.1-.1-.1-.2zm6.5 5.1c.2 0 .2-.1.2-.2-.1.1-.2.1-.2.2zm-28.3.2c-.1 0-.2.1-.2.2l.2-.2zm4.9 2.2c-.1 0-.2.1-.2.1.1.1.1 0 .2-.1zm21.2-7.4c.1 0 .2-.1.2-.2-.2 0-.2.1-.2.2zM50.7 254c-.1.1-.2.1-.2.2.2-.1.2-.1.2-.2zm28.3 0c-.1 0-.2.1-.2.2l.2-.2zm-18.9.6c0 .1 0 .2.2.2-.1 0-.1-.1-.2-.2zm13.5-.6c0 .1 0 .2.1.2 0 0 0-.1-.1-.2zm4.8-6.8s-.1 0 0 0c-.1 0-.2.1-.2.2.1-.1.1-.2.2-.2zm7.3 7.2c-.1 0-.2.1-.2.2.1-.1.2-.1.2-.2zm-33.1 5.1c.1 0 .2-.1.2-.2-.1 0-.1.1-.2.2zm14.4-5.1c-.1-.2-.1-.2-.2-.2 0 .1 0 .2.2.2zm21.5-7.1c0-.1-.1-.1-.2-.2 0 .2.1.2.2.2zm-22.6 13.1l.2-.2c-.1.1-.2.1-.2.2zm-20.5-8.2c.1 0 .2-.1.2-.2-.2.1-.2.1-.2.2zm27.2.7c0 .1 0 .2.2.2-.2-.1-.2-.2-.2-.2zm-13.1-.7c.1-.1.2-.1.2-.2-.1.1-.2.1-.2.2zm14.3-.1s0-.1 0 0c-.1 0-.2.1-.2.2.1-.2.1-.2.2-.2zm-23.1.2c0-.1-.1-.2-.2-.2.1 0 .2.1.2.2zm28.3 0c0-.1-.1-.2-.1-.2-.1.1 0 .1.1.2zm-34.1.3c-.1 0-.2.1-.2.2.2 0 .2 0 .2-.2zm27.3 0c0 .1 0 .1.2.2 0-.1-.1-.2-.2-.2zm-21.3-.2c0 .1 0 .2.1.2 0-.1 0-.2-.1-.2zm36.2-7s.1 0 0 0c.1 0 .2-.1.2-.2-.1.1-.1.2-.2.2zM45 252.5c.1 0 .1 0 0 0 .2-.1.2-.1.2-.2 0 .1-.1.1-.2.2zm19.2-1c0 .1.1.1.1.2 0-.1-.1-.2-.1-.2zm17.1 0c-.1 0-.2.1-.2.2.1 0 .1-.1.2-.2zm-14.9 2.3c0-.1-.1-.2-.2-.2 0 .1 0 .2.2.2zM50.5 252c0-.1-.1-.1-.2-.2 0 .1.1.2.2.2zm16.1 7.6c-.1 0-.2.1-.2.2l.2-.2zm-16.5-.5s.1 0 0 0c0-.1-.1-.2-.1-.2.1.1.1.1.1.2zm29.1-5.4c-.2.1-.2.1-.2.2.2-.1.2-.1.2-.2zm-27.4-.8c.1 0 .2-.1.2-.2l-.2.2zm7.8 1.3s.1 0 0 0c0-.1 0-.2-.2-.2l.2.2zm26.5-9.3s-.1 0 0 0c0 .1.1.2.2.2-.1-.2-.1-.2-.2-.2zm-14 7.5c0-.1 0-.1-.2-.2.1.2.1.2.2.2zm15.9-7.9c.1 0 .2-.1.2-.2-.1 0-.1.1-.2.2zm-.3.3c.1 0 .2-.1.2-.2-.1.1-.2.1-.2.2zm-9.3 9.8s-.1 0 0 0c-.1 0-.2.1-.2.2.1 0 .1-.1.2-.2zm1.9-1s-.1 0 0 0c0 .1 0 .2.1.2 0 0-.1-.1-.1-.2zm-30.1-1.9c0-.1 0-.1-.1-.2-.1.1 0 .1.1.2zm28.1-.1c0-.1 0-.1 0 0 0-.1 0 0 0 0zm7.9-5.3c-.1 0-.1.1-.1.2.1 0 .1-.1.1-.2zM93.9 256.8c-.6-.6-1.2-1.2-1.7-1.8 0 0 0-.1.1-.1h-.2l-.2-.2c-.3-.3-.6-.7-.9-1l-.5-.5c-.1-.1 0-.1 0-.2.3-.3.6-.7.9-.9.2-.2.4-.5.7-.7l.1-.1h.1s0-.1-.1-.1l.6-.6.6-.6c.2-.2.3-.3.4-.5.1-.1.1-.2 0-.2-.2-.2-.5-.6-.8-.8-.2-.3-.5-.6-.8-.8 0 0 0-.1.1-.1H92l-.2-.2c-.3-.3-.6-.6-.8-.9l-.6-.6c-.1-.1 0-.1 0-.2.4-.4.8-.9 1.2-1.3.1-.2.2-.2.4-.4h.1s0-.1-.1-.1c.3-.3.6-.7.9-1l.7-.7.1-.1v3.6l-.1-.1c.1.1.1.2 0 .2.1 0 .1 0 .1-.1v7.3h-.1s0 .1.1.1c0 0 0 .1-.1.1l.1-.1c.2 1.3.2 2.6.2 3.7zm-.4-11.5c0 .1 0 .1.2.2 0-.1-.1-.1-.2-.2zm-.4 8.7c-.2 0-.2.1-.2.2.1-.1.2-.1.2-.2zm.5-1.1c0-.1 0-.2-.2-.2l.2.2zm-.4-.5c0 .1 0 .2.2.2-.1-.1-.1-.2-.2-.2zm-.3-.3c0 .1.1.1.2.2 0-.1-.1-.2-.2-.2zm-.3-.3c0 .1.1.2.2.2 0-.1 0-.2-.2-.2zm.1-4.8c0-.1.1-.1.2-.2-.2.1-.2.1-.2.2zm-.2.2c-.1 0-.2.1-.2.2l.2-.2zm1.2 6.2c-.1 0-.2.1-.2.2.1-.1.1-.2.2-.2zm-1.2-1.7c0-.1-.1-.2-.2-.2.1 0 .1.1.2.2zm.7-6.8c0 .1.1.2.2.2l-.2-.2zm-.3-.3c0 .1.1.2.2.2l-.2-.2zm-.1-.1c0-.1-.1-.2-.2-.2.1.1.1.2.2.2zm-.4 10.3c.1 0 .2-.1.2-.2-.2.1-.2.1-.2.2zm.1-10.6c0-.1-.1-.2-.2-.2.1.1.1.2.2.2zm1 1.9c.1 0 .2-.1.2-.2-.1 0-.2.1-.2.2zm-.9 8.3s.1 0 0 0c.1 0 .2-.1.2-.2 0 .1-.1.2-.2.2zm.7-.7c-.1 0-.2.1-.2.2.2-.1.2-.1.2-.2zm-.1-7.4c.1 0 .2 0 .2-.2-.1.2-.1.2-.2.2zm-.3.5c.1-.1.2-.1.2-.2-.1 0-.2.1-.2.2z"/><path d="M76.3 260.6c.6-.6 1.2-1.2 1.7-1.8h.1s0-.1-.1-.1c.2-.2.3-.4.5-.6.2-.2.4-.4.6-.7l.6-.6h.1c.2.2.5.5.7.8l.3.3s0 .1.2 0c-.1.1.1.2.1.2 0 .1.1.1.2.2l.2.2c.1.1.1.2 0 .2.1 0 .1-.1.2-.1.3.2.6.6.8.9.3.3.6.6.8.9h-3.5c-.1 0-.1 0-.2-.1 0 0 0 .1.1.1-1.1.2-2.3.2-3.4.2zm3.3-.2c0-.1-.1-.2-.2-.2 0 .1.1.1.2.2zm1.1-.8c-.1 0-.2.1-.2.2l.2-.2zm-2-.1c0-.1-.1-.2-.2-.2s.1.1.2.2zm2.4-.4c.1 0 .2-.1.2-.2l-.2.2zm-1.9.9c0-.1-.1-.1-.2-.2.2.1.2.1.2.2zm1.6-.5c.1 0 .2 0 .2-.2l-.2.2zm-2.5-.5c0 .1 0 .2.2.2l-.2-.2zm1.9 1c.1 0 .2-.1.2-.2 0 .1-.1.1-.2.2zm-.2.4c.1-.1.1-.1.1-.2 0 .1-.1.1-.1.2zm-1.1-.8s0 .1 0 0c.1.1 0 0 0 0zM83.4 260.6c0-.1-.1-.1 0 0 .1-.2.2-.2.3-.4l.5-.5c.2-.2.4-.3.5-.6.1-.2.3-.2.4-.4h.1c.3-.3.6-.6.8-.9.2-.2.4-.4.6-.7.1-.1.2-.2.2-.3h.1c.3.3.6.7.9 1l.7.7s.1.1.1.2c.2.1.2.2.4.3.4.4.8.9 1.3 1.4 0 0 .1.1.1.2h-3.5s.1-.1.1-.2c0 0-.1.1-.2.1s-.1-.2-.2-.2c.1.1.2.1.2.2-1.1.1-2.3.1-3.4.1zm1.9-1.8c0 .1 0 .1.1.2-.1 0-.1-.1-.1-.2zm.6.8c0-.1 0-.2-.2-.2l.2.2zm-.3-.3c.1 0 .1 0 0 0 0-.1 0-.2-.2-.2l.2.2zm2.9-.4c-.1 0-.2.1-.2.2l.2-.2zm-1.1 1c.1 0 .2-.1.2-.2-.1.2-.2.2-.2.2zm-.9.4c0-.1 0-.2-.2-.2.1 0 .1.1.2.2zm.6 0c.2 0 .2-.1.2-.2-.1 0-.1.1-.2.2zm-1-.6c0 .1 0 .1 0 0 0 .1.1.1.1.2 0 0 0-.1-.1-.2zm1.6 0c.2 0 .2-.1.2-.2-.1 0-.2.1-.2.2zm.4-.5c-.1 0-.2.1-.2.2.2-.1.2-.1.2-.2zM55.1 260.5c.1 0 .2-.1.2-.2.3-.3.7-.7 1-1.1.2-.2.3-.4.5-.6.2-.3.6-.6.8-.9 0-.1.1-.1.2-.2l.2-.2.4-.4c.1-.1.1-.2.2-.2s.1 0 .2.1c.2.2.4.5.7.7.2.2.5.6.8.8.1.1.2.1.2.2.3.2.4.4.7.7.4.4.7.8 1.2 1.2h-3.5s.1-.1.1-.2c0 0-.1.1-.2.1l-.2-.2c0 .1.1.2.2.2-1.4.3-2.6.3-3.7.2zm1.9-1.7c0 .1 0 .2.2.2-.1 0-.1-.1-.2-.2zm.6.7c0 .1.1.2.2.2-.1-.2-.2-.2-.2-.2zm.5.4c0-.1-.1-.1-.2-.2 0 .1 0 .2.2.2zm0 .1c0 .1 0 .2.2.2 0-.1-.1-.1-.2-.2zm1.9-.8c-.1 0-.2.1-.2.2l.2-.2zm-2.6.1c0-.1-.1-.2-.2-.2.1.1.1.2.2.2zm2 .5c-.2.1-.2.1-.2.2.1-.1.2-.1.2-.2zm.6-.8s.1 0 0 0c.1 0 .2-.1.2-.2 0 .2-.1.2-.2.2zm-1 1.1c-.1 0-.2.1-.2.2.2 0 .2-.1.2-.2zm.5-.5c.1-.1.1-.1.1-.2 0 .1-.1.1-.1.2zM69.3 260.6c.2-.2.3-.3.4-.5.2-.2.2-.3.4-.4l.2-.2c.2-.3.5-.6.8-.8.2-.2.4-.4.6-.7.2-.3.6-.6.8-.9l.1-.1c.1 0 .1 0 .1.1.2.3.5.6.8.8l.8.8c.1 0 0 .2.2.2.1 0 .1.1.2.2l.2.2.2.2.2.2c.3.3.6.7.9.9 0 0 0 .1.1.1h-3.5s.1-.1.1-.2c-.1.1-.2.1-.2.2-1.1-.1-2.3-.1-3.4-.1zm4.8-1.6s.1 0 0 0c.1 0 .2-.1.2-.2-.1.2-.1.2-.2.2zm-1.5 1.4c0 .1.1.2.2.2l-.2-.2zm-1.3-1.3c0 .1.1.2.2.2 0-.1 0-.2-.2-.2zm1.9 1s-.1 0 0 0c-.1 0-.2.1-.2.2.1 0 .1-.1.2-.2zm-2.1-1.3c0 .1 0 .1.2.2-.1 0-.1-.1-.2-.2zm.9.9c0 .1.1.1.2.2 0 0-.2-.1-.2-.2zm1.3.2c.1 0 .2-.1.2-.2-.1.2-.1.2-.2.2zm.6-.5c.1 0 .2-.1.2-.2-.1 0-.2.1-.2.2zm-1.7.6c0 .1 0 .1.2.2l-.2-.2zm-.5-.5c0 .1.1.2.2.2-.1-.2-.2-.2-.2-.2zm2.1 0s-.1 0 0 0c-.1 0-.2 0-.2.2.1-.1.1-.2.2-.2zM44.5 256.9s.1 0 0 0c.3.3.5.6.7.8.2.2.4.4.6.7l.3.3s0 .1.1.2c.1 0 .1.1.2.1.5.5 1 1.1 1.6 1.6v.1h-3.5l.2-.2c-.1 0-.1.1-.2.1v-3.7zm1.4 2.1c.1 0 .2-.1.2-.2-.1.2-.1.2-.2.2zm-1 1.1c-.1 0-.2.1-.2.2.2 0 .2-.1.2-.2zm.8-.7c.1 0 .2-.1.2-.2-.1 0-.2.1-.2.2zm-.6.5c.1 0 .2-.1.2-.2-.1.2-.2.2-.2.2zm.5-.4c-.1 0-.1 0 0 0-.2 0-.2 0 0 0-.1 0-.1 0 0 0zM90.4 260.6l.2-.2c.4-.4.7-.7 1.1-1.2.1-.2.2-.2.4-.4h.1s0-.1-.1-.1l.6-.6c.2-.3.5-.6.8-.8.1-.1.2-.2.3-.4v3.6l-.1-.1s0 .1.1.1c-1.1.1-2.3.1-3.4.1zm3.1-.5c0 .1 0 .2.2.2-.1 0-.1-.1-.2-.2zm-.2-.1c0-.1-.1-.2-.2-.2.2.1.2.1.2.2zm-.5-.5s0-.1 0 0c0-.1-.1-.2-.2-.2.1 0 .1.1.2.2zm.1 0c0 .1.1.1.1.2.1-.1 0-.2-.1-.2zm-.4-.4c0-.1-.1-.2-.2-.2l.2.2z"/><path fill="#FFF" d="M58.6 260.6c-.1-.1-.2-.1-.2-.2.2 0 .2 0 .2.2 0-.1.1-.1.2-.2l-.2.2zM86.8 260.6c-.1-.1-.2-.1-.2-.2.1 0 .1 0 .2.2.1-.1.1-.2.2-.2l-.2.2zM44.5 253.1s.1-.1.2-.1c-.1 0-.1.1-.2.1l.2.2c-.1 0-.1-.1-.2-.2 0 .1 0 0 0 0zM93.9 253.2c-.1.1-.1.1 0 0-.1.1-.1.1 0 0-.1.1-.1 0 0 0-.1-.1-.1-.1-.1-.2h.1v.2zM93.9 245.8c-.1 0 0-.1-.1-.2l.1.2c0-.1 0-.1 0 0zM51.5 260.6c.1-.1.2-.1.2 0h-.2zM65.6 260.6s0-.1 0 0c0-.1.1-.1 0 0zM79.7 260.6s0-.1 0 0c0-.1.1-.1.2 0h-.2zM44.5 260.5c.1 0 .1-.1.2-.1 0 0-.1.1-.2.1 0 .1 0 0 0 0zM72.7 260.6c0-.1.1-.1.2-.2l-.2.2zM93.8 260.6s0-.1 0 0c0-.1 0-.1 0 0 0-.1.1 0 0 0zM58.6 253.1l.2-.2c0 .1-.1.2-.2.2.1.1.1.2.2.2-.1 0-.1-.1-.2-.1l-.2.2c0-.1 0-.2.1-.2l.1-.1zM86.8 253.1s.1-.1.2-.1c0 0-.1.1-.2.1l.2.2-.2-.2c-.1.2-.1.2-.2.2.1 0 .1-.1.2-.2zM86.8 245.8s0-.1 0 0c-.2-.1-.2-.2-.2-.2.1-.1.1 0 .2.2-.1-.1 0-.2.1-.2.1-.1-.1 0-.1.2.1 0 .1 0 0 0zM51.5 253s.1 0 .2.1v.1h-.1-.1v-.2c0 .1 0 0 0 0zM65.7 253.1c0 .1-.1.1-.2.2.1 0 .1-.1.2-.2-.1.1-.1 0-.2 0 .1-.1.2-.1.2 0zM79.7 253.3s0-.1 0 0c.1-.1.1-.2 0-.2 0 0 .2 0 .2.1s-.2 0-.2.1zM72.9 252.9s-.1.1-.1.2l.2.2c-.2 0-.2-.1-.2-.2-.1 0 0-.1.1-.2zM65.5 260.4c-.1 0-.2-.1-.2-.2.1 0 .1.1.2.2zM66.6 254.1c-.1 0-.2-.1-.2-.2.1 0 .1 0 .2.2zM65.2 253.5c0-.1.1-.1.2-.2.1.1-.1.1-.2.2.1 0 .1 0 0 0zM73.3 252.5c0-.1.1-.2.2-.2 0 .1-.1.2-.2.2zM66.4 252.4c0 .1-.1.1-.2.2-.1-.1 0-.1.2-.2zM67 254.6l.2.2c-.1-.1-.2-.1-.2-.2zM71.3 254.6c0-.1.1-.2.2-.2.1.1 0 .1-.2.2zM59.4 253.9c0-.1-.1-.1-.2-.2.2.1.2.1.2.2zM57.4 254.4c0 .1-.1.1-.2.2.1-.1.1-.2.2-.2zM45.8 254.5c0-.1-.1-.1-.2-.2.2.1.2.1.2.2zM85.9 244.7l-.2-.2c.1.1.2.1.2.2zM65.5 252.9c-.1 0-.2-.1-.2-.2l.2.2zM73 252.9c0-.1.1-.1.2-.2-.1 0-.1.1-.2.2zM59 252.6c0 .1-.1.2-.2.2.2 0 .2-.1.2-.2zM64.7 252.1c.1 0 .2.1.2.2l-.2-.2zM85.9 252.2c0-.1-.1-.1-.2-.2.2 0 .2.1.2.2 0-.1 0-.1 0 0zM71.7 252c.1 0 .2.1.2.2-.2-.1-.2-.1-.2-.2zM57.6 252c.1 0 .2.1.2.2-.2-.1-.2-.1-.2-.2zM88.1 251.7c0 .1-.1.2-.2.2.1 0 .2-.1.2-.2zM67.2 259c0 .1-.1.2-.2.2 0-.1.1-.2.2-.2zM46.2 251.5c0 .1-.1.2-.2.2 0-.2 0-.2.2-.2zM57.1 251.5l-.2-.2c.2.1.2.2.2.2zM72.7 253.2l-.2.2c.1-.1.1-.2.2-.2-.1 0 0 0 0 0zM72.4 253.4c0 .1-.1.1-.2.2l.2-.2zM80.6 246.4c.1 0 .2.1.2.2-.2 0-.2 0-.2-.2zM85.2 247.4c0-.1.1-.2.2-.2-.1.1-.1.2-.2.2zM88.2 244.1c0-.1.1-.1.2-.2.1.1 0 .2-.2.2zM66.4 259.9c0 .1-.1.1-.2.2-.1-.1 0-.2.2-.2zM85.3 244.1c-.1 0-.2-.1-.2-.2.2.1.2.1.2.2zM65.1 259.9c0 .1.1.1.2.2l-.2-.2zM57.4 251.9c0-.1-.1-.1-.2-.2.1 0 .2.1.2.2zM67 251.7c0-.1.1-.1.2-.2 0 .1-.2.1-.2.2zM53.1 251.5l-.2.2c0-.1 0-.1.2-.2zM53.1 259l-.2.2c0-.1 0-.2.2-.2zM71.4 251.7c.1 0 .2.1.1.2 0-.1-.1-.2-.1-.2-.1 0-.1 0 0 0zM85.5 251.7c0 .1.1.1.2.2-.2-.1-.2-.2-.2-.2zM73.9 251.9c0-.1.1-.1.2-.2-.1.1-.1.2-.2.2 0 .1 0 .1 0 0zM64.6 252c-.1 0-.1-.1-.2-.2.1 0 .1 0 .2.2 0-.1 0 0 0 0zM66.7 252l.2-.2c0 .2-.1.2-.2.2.1 0 0 0 0 0zM81.1 251.9c0 .1-.1.1-.2.2-.1-.1-.1-.1.2-.2-.1 0-.1 0 0 0zM52.5 252.1c0 .1-.1.1-.2.2l.2-.2zM66.6 252.1c0 .1-.1.1-.2.2 0-.1.1-.1.2-.2-.1 0 0 0 0 0zM80.6 252.4c0-.1.1-.1.2-.2-.1 0-.2.1-.2.2zM79 246.5l-.2.2c0-.1.1-.1.2-.2zM87.9 246.8l-.2-.2c.1 0 .1.1.2.2zM85.8 246.8c0-.1.1-.1.2-.2-.1.2-.2.2-.2.2zM80.8 246.8l.2.2-.2-.2zM88.1 247.1c-.1 0-.1-.1-.2-.2.2 0 .2 0 .2.2zM71.1 251.4c.1.1.2.1.1.2 0-.1-.1-.1-.1-.2zM60.2 251.4c0 .1-.1.2-.2.2l.2-.2zM88.5 251.5c0 .1-.1.2-.2.2 0-.2.1-.2.2-.2zM73.5 253.9c-.1 0-.1-.1-.2-.2l.2.2zM71.9 253.9l.2-.2c.1.1 0 .2-.2.2.1 0 0 0 0 0zM86.1 253.9c0-.1 0-.1.2-.2-.1.1-.1.2-.2.2zM80.7 254.2l-.2-.2c.1-.1.2 0 .2.2zM64.9 254c0 .1-.1.2-.2.2 0-.1 0-.1.2-.2zM57.6 254.3c0-.1.1-.1.2-.2-.1.1-.2.1-.2.2zM85.9 254.1c0 .1-.1.1-.2.2l.2-.2zM52.6 254.3c.1 0 .2.1.2.2-.1-.2-.1-.2-.2-.2zM50.5 254.3c0 .1-.1.2-.2.2 0-.1.1-.2.2-.2zM64.6 254.3c0 .1-.1.2-.2.2 0-.1.1-.2.2-.2zM88 254.3c.1 0 .2.1.2.2-.1 0-.1-.1-.2-.2zM81.3 254.8c-.1-.1-.1-.2-.2-.2.1 0 .2 0 .2.2zM50 254.8c0-.1.1-.1.2-.2-.1.1-.1.2-.2.2.1 0 0 0 0 0zM45.9 254.6c.2 0 .2.1.2.2-.1 0-.1 0-.2-.2zM57.1 254.7c0 .1-.1.1-.2.2l.2-.2zM85.3 254.7c0 .1-.1.1-.2.2.1-.1.2-.1.2-.2zM65.1 252.5l-.2-.2c.2.1.2.1.2.2zM86.3 252.6c.1 0 .2.1.2.2l-.2-.2zM51.1 252.7c.2 0 .2.1.2.2-.1 0-.1-.1-.2-.2zM79.4 252.7c.1 0 .2.1.2.2-.1 0-.2-.1-.2-.2zM86.8 253.1s-.1 0 0 0c-.2 0-.2-.1-.2-.2.1 0 .1.1.2.2zM51.1 253.5c0-.1.1-.1.2-.2.1.1 0 .2-.2.2zM44.9 253.6c-.1 0-.2-.1-.2-.2.2 0 .2 0 .2.2zM59 253.6c0-.1-.1-.1-.2-.2.2 0 .2.1.2.2zM73 253.4c.1 0 .2.1.2.2-.1 0-.1-.1-.2-.2zM58.3 253.5l-.2.2c0-.1.1-.2.2-.2zM52.2 253.8c0-.1-.1-.1-.2-.2.2.1.2.2.2.2zM65 253.8l.2-.2c-.1.2-.1.2-.2.2zM45.1 253.8l.2.2c-.1-.2-.2-.2-.2-.2zM86.3 246.2c0-.1.1-.1.2-.2 0 .1 0 .1-.2.2zM87.3 246.2c-.1 0-.2-.1-.2-.2.1 0 .1.1.2.2zM51.3 260.4l-.2-.2c.2 0 .2.1.2.2zM86.8 245.8c-.1.1-.1.2-.2.2.1-.1.1-.2.2-.2-.1-.1 0 0 0 0zM51 260l-.2-.2c.2.1.2.1.2.2zM64.8 259.7c0-.1-.1-.1-.2-.2.2 0 .2.1.2.2zM85.5 244.3c0 .1.1.1.2.2-.2-.1-.2-.2-.2-.2zM87.4 246.3c0 .1.1.1.2.2l-.2-.2zM66.7 259.5c0-.1 0-.1.2-.2 0 .1-.1.2-.2.2zM79.6 253.4l-.2.2c0-.1.1-.2.2-.2zM87.6 244.9l-.2.2c0-.1 0-.2.2-.2zM80 253.4l.2.2-.2-.2zM66.1 253.4c-.1 0-.1 0-.2-.2.1.2.1.2.2.2zM52 253.5l-.2-.2.2.2zM87.2 253.4l.2.2c-.2 0-.2-.1-.2-.2zM88.4 254.8l-.2-.2c.2.1.2.1.2.2.1 0 0 0 0 0zM87.6 252.4c0 .1-.1.2-.2.2 0-.2.1-.2.2-.2zM79.2 252.4c0 .1.1.1.2.2-.2-.1-.2-.2-.2-.2-.1 0 0 0 0 0zM71.2 254.7c0 .1-.1.1-.2.2l.2-.2zM52 252.6c0-.1.1-.2.2-.2 0 .1-.1.1-.2.2zM80.2 252.6c0-.1.1-.1.2-.2 0 .1-.1.1-.2.2.1 0 0 0 0 0zM58.1 252.6l.2.2c-.1 0-.2-.1-.2-.2zM86.5 245.4l-.2-.2c.1 0 .2 0 .2.2zM87.3 252.7c0 .1-.1.1-.2.2.1-.1.1-.2.2-.2zM50.7 259.7c0-.1-.1-.1-.2-.2.1 0 .1 0 .2.2 0-.1.1-.1 0 0zM66.1 252.8s0 .1 0 0l-.2.2c0-.1.1-.1.2-.2-.1 0 0 0 0 0zM80 252.9l.2-.2c0 .2 0 .2-.2.2zM53.1 254.8c-.1 0-.2-.1-.2-.2.1 0 .1.1.2.2 0-.1 0-.1 0 0zM74 254.5c-.1 0-.2-.1-.2-.2.2 0 .2.1.2.2zM59.8 254.3c0 .1.1.1.2.2-.1 0-.2-.1-.2-.2zM78.5 254.5c0-.1.1-.2.2-.2l-.2.2zM80.8 254.2c.1 0 .1.1.2.2-.1 0-.1-.1-.2-.2zM71.8 254.1c0 .1-.1.1-.2.2l.2-.2zM52.3 259.8l.2-.2-.2.2c.1 0 .1 0 0 0zM86.5 253.4c0 .1 0 .2-.2.2l.2-.2zM50.4 259.5l-.2-.2c.2 0 .3 0 .2.2zM51 253.7c0 .1-.1.1-.2.2.1-.1.2-.1.2-.2zM64.4 259.2c.1 0 .2.1.2.2-.1 0-.2-.1-.2-.2zM87.4 253.8c0 .1.1.1.2.2-.1-.2-.2-.2-.2-.2zM57.8 253.9c0-.1.1-.1.2-.2 0 .1-.1.2-.2.2.1 0 0 0 0 0zM52.4 254.1c0-.1-.1-.1-.2-.2.2 0 .2.1.2.2.1 0 0 0 0 0zM74.2 254.7c.1.1.2.1.2.2-.2-.1-.2-.2-.2-.2zM78.7 246.8c0 .1-.1.1-.2.2l.2-.2zM51.8 260.4c0-.1.1-.2.2-.2 0 .1-.1.2-.2.2zM52.6 252l.2-.2c0 .2-.1.2-.2.2zM52.2 259.9c0 .1-.1.2-.2.2 0-.2.1-.2.2-.2zM78.7 252c-.1-.1-.2-.1-.2-.2.2 0 .2.1.2.2zM60 251.7c0 .1-.1.2-.2.2l.2-.2zM45.7 252c0-.1.1-.2.2-.2l-.2.2zM85.3 251.4c0 .1.1.1.2.2-.2-.1-.2-.1-.2-.2zM74.3 251.5c0 .1 0 .1-.2.2.1-.2.1-.2.2-.2zM64.2 259c.1 0 .2.1.2.2l-.2-.2zM86.1 252.3c.1 0 .1.1.2.2-.1-.1-.2-.1-.2-.2zM81.2 247.1l.2.2c-.2-.1-.2-.1-.2-.2-.1 0-.1 0 0 0zM87.7 252.2l.2-.2-.2.2zM59.4 252.4c0 .1-.1.1-.2.2l.2-.2zM64.3 254.6l-.2.2c.1 0 .1-.1.2-.2zM85.5 247.2c0-.1.1-.1.2-.2l-.2.2zM50.7 254c0 .1 0 .1-.2.2l.2-.2zM79 254c0 .1-.1.1-.2.2 0-.1.1-.2.2-.2zM60.1 254.6l.2.2c-.2 0-.2 0-.2-.2zM73.6 254l.2.2c-.1 0-.1 0-.2-.2 0 .1 0 .1 0 0zM78.4 247.2c-.1 0-.1.1-.2.2.1-.1.1-.2.2-.2zM85.7 254.4c0 .1-.1.1-.2.2 0-.1.1-.2.2-.2zM52.6 259.5c0-.1.1-.1.2-.2 0 .1-.1.2-.2.2zM67 254.4c-.2 0-.2-.1-.2-.2 0 .1 0 .1.2.2zM88.5 247.3c-.1 0-.2-.1-.2-.2.1.2.2.2.2.2zM65.9 260.4c0-.1 0-.2.2-.2-.1.1-.1.2-.2.2zM45.4 252.2l.2-.2-.2.2zM72.6 252.9c0 .1.1.1.2.2-.2-.1-.2-.2-.2-.2zM58.6 253.1c-.2 0-.2-.1-.2-.2.2 0 .2.1.2.2zM59.5 252.2c0-.1.1-.2.2-.2 0 .1-.2.1-.2.2zM73.8 252.1l-.2.2c0-.2 0-.2.2-.2 0-.1 0 0 0 0zM50.7 252.3l-.2-.2c.2 0 .2.1.2.2zM79 252.3c-.1 0-.2-.1-.1-.2 0 0 0 .1.1.2zM44.9 252.6c0 .1-.1.2-.2.2.2 0 .2-.1.2-.2zM72.2 252.6c0 .1.1.1.2.2-.1 0-.2-.1-.2-.2zM50.9 252.4l.2.2c-.2-.1-.2-.2-.2-.2zM87.1 245.4c0-.1.1-.1.2-.2-.1.1-.1.2-.2.2.1 0 0 0 0 0zM45 252.5l.2-.2c.1.1.1.1-.2.2.1 0 .1 0 0 0zM64.2 251.5s.1.1.1.2c-.1-.1-.1-.1-.1-.2zM81.3 251.5c-.1 0-.1.1-.2.2 0-.1.1-.2.2-.2zM66.4 253.8c-.1 0-.2-.1-.2-.2.1.1.1.2.2.2zM50.5 252c-.1 0-.2-.1-.2-.2.1 0 .2.1.2.2zM66.6 259.6c0 .1-.1.1-.2.2.1-.1.1-.2.2-.2zM50.1 259.1l-.2-.2c.2.1.2.2.2.2.1 0 0 0 0 0zM79.2 253.7l-.2.2c.2-.1.2-.1.2-.2zM51.8 252.9c0-.1.1-.2.2-.2 0 .2-.1.2-.2.2zM59.6 254.2l-.2-.2c.2.1.2.2.2.2zM86.1 244.9c.1 0 .2.1.2.2l-.2-.2zM72.1 252.4l-.2-.2c.2.2.3.2.2.2zM88 244.5c0-.1.1-.2.2-.2-.1.1-.1.2-.2.2zM87.7 244.8l.2-.2-.2.2zM78.4 254.6c-.1 0-.1.1-.2.2l.2-.2zM80.3 253.6l.2.2c-.2 0-.2-.1-.2-.2zM50.2 251.7s-.2-.1-.1-.2c0 0 .1.1.1.2zM78.3 251.6c0-.1 0-.1 0 0zM86.2 246.3c0 .1 0 .1-.1.2 0-.1 0-.1.1-.2zM45.4 254.2c0-.1 0-.1 0 0zM87.8 254.2c-.1 0-.1 0 0 0 0-.2 0-.1 0 0zM53.3 258.7c.1.1 0 .1 0 0-.1.1-.1.1 0 0zM87.8 254.2s.1 0 0 0zM57.9 252.4c.1 0 .1 0 0 0zM86.9 245.8c.1 0 .1 0 .2.1-.2 0-.2-.1-.2-.1zM57.9 252.4c-.1 0-.1 0 0 0 0-.1 0 0 0 0zM45.4 254.2c.1 0 .1 0 0 0 .1 0 .1 0 0 0z"/><path d="M81.3 258.3c.1 0 .1 0 0 0 .1 0 .1 0 0 0zM83.8 259.9s0 .1 0 0c-.1.1-.1.1 0 0-.1.1 0 0 0 0zM81.6 256.2zM83 254.8zM82.9 253.9s.1 0 0 0c.1 0 .1 0 0 0 .1.1 0 0 0 0zM83.9 258.8zM80.6 256.5c0 .1 0 .1 0 0zM83 259.9zM86 242.5s.1 0 0 0c.1 0 .1 0 0 0 .1 0 .1 0 0 0zM54.8 259.9zM55.6 259.9c-.1 0-.1 0 0 0-.1.1-.1.1 0 0-.1.1-.1 0 0 0zM54.8 254.8zM55.7 258.8zM53.1 258.3c.1 0 0 0 0 0zM57.1 257.2zM52.4 256.5c-.1.1-.1.1 0 0-.1 0-.1 0 0 0zM69.7 259.9c0 .1 0 .1 0 0-.1.1 0 0 0 0zM68.9 254.8zM68.8 253.9c.1 0 .1 0 0 0zM67.2 258.3c.1 0 0 0 0 0zM66.4 256.5c.1 0 0 0 0 0z"/><path fill="#FFF" d="M93.5 245.3c.1.1.2.1.2.2-.2-.1-.2-.1-.2-.2zM93.1 254c0 .1-.1.1-.2.2 0-.1 0-.1.2-.2zM93.6 252.9c0-.1-.1-.1-.2-.2.2.1.3.1.2.2.1 0 .1 0 0 0zM93.2 252.4c0 .1.1.1.2.2l-.2-.2zM92.9 252.1c.1 0 .2.1.2.2-.1-.1-.2-.1-.2-.2zM92.6 251.8c.1 0 .2.1.2.2l-.2-.2zM92.7 247c0-.1 0-.2.2-.2-.1.1-.1.2-.2.2zM92.5 247.2c-.1 0-.1.1-.2.2.1-.1.1-.2.2-.2zM93.7 253.4l-.2.2c0-.1.1-.2.2-.2zM92.5 251.7c-.1 0-.2-.1-.2-.2.1 0 .1.1.2.2zM93.2 244.9c.1 0 .2.1.2.2-.1 0-.1-.1-.2-.2zM92.9 244.6c0 .1.1.1.2.2-.1 0-.2-.1-.2-.2 0 .1 0 .1 0 0zM92.8 244.5c-.1 0-.2-.1-.2-.2.2.1.2.2.2.2zM92.4 254.8c0-.1 0-.1.2-.2l-.2.2zM92.5 244.2c-.1 0-.2-.1-.2-.2l.2.2zM93.5 246.1c0-.1.1-.1.2-.2l-.2.2zM92.6 254.4c0-.1.1-.1.2-.2 0 .1-.1.1-.2.2.1.1 0 .1 0 0zM93.3 253.7c0 .1-.1.1-.2.2.1-.1.2-.1.2-.2zM93.2 246.3l.2-.2c-.1.2-.1.2-.2.2zM92.9 246.8c0-.1.1-.1.2-.2 0 .1-.1.1-.2.2zM79.6 260.4c-.1 0-.2-.1-.2-.2.1 0 .2.1.2.2zM80.7 259.6c0 .1-.1.1-.2.2.1-.1.1-.2.2-.2zM78.7 259.5c-.1-.1-.2-.1-.2-.2.1 0 .2.1.2.2zM81.1 259.1l.2-.2c0 .1-.1.2-.2.2zM79.2 260c-.1 0-.2-.1-.2-.2.2.1.2.1.2.2zM80.8 259.5l.2-.2c0 .1-.1.2-.2.2zM78.3 259c.1 0 .1.1.2.2l-.2-.2zM80.2 260c0-.1.1-.1.2-.2 0 .1 0 .2-.2.2zM80 260.4c0-.1.1-.1.1-.2.1.1.1.1-.1.2zM78.9 259.6c0 .1 0 .1 0 0zM85.3 258.8c0 .1.1.1.2.2-.2 0-.3-.1-.2-.2-.1 0-.1 0 0 0zM85.9 259.6l-.2-.2c.1.1.2.1.2.2zM85.6 259.3c0-.1-.1-.1-.2-.2.2 0 .2.1.2.2.1 0 .1 0 0 0zM88.5 258.9c0 .1-.1.2-.2.2 0-.1.1-.1.2-.2zM87.4 259.9c0-.1.1-.1.2-.2 0 .2-.1.2-.2.2zM86.5 260.3l-.2-.2c.1-.1.2 0 .2.2zM87.1 260.3c0-.1.1-.1.2-.2 0 .1-.1.1-.2.2zM86.1 259.7c.1 0 .2.1.2.2-.1 0-.1 0-.2-.2 0 .1 0 .1 0 0 0 .1 0 .1 0 0zM87.7 259.7l.2-.2c-.1 0-.1.1-.2.2zM88.1 259.2c-.1.1-.1.2-.2.2.2-.1.2-.2.2-.2zM57 258.8c.1.1.2.1.2.2-.1 0-.2-.1-.2-.2zM57.6 259.5c.1 0 .2.1.2.2l-.2-.2zM58.1 259.9c-.1 0-.2-.1-.2-.2.1.1.1.2.2.2zM58.1 260l.2.2c-.1 0-.2 0-.2-.2zM60 259.2c0 .1-.1.1-.2.2 0-.1.1-.2.2-.2zM57.4 259.3c-.1 0-.2-.1-.2-.2.1 0 .2.1.2.2zM59.4 259.8c0 .1-.1.2-.2.2 0-.1.1-.1.2-.2zM60 259c0-.1.1-.1.2-.2 0 .2 0 .2-.2.2zM59 260.1c0 .1-.1.2-.2.2l.2-.2zM59.5 259.6c0-.1.1-.1.1-.2 0 .1 0 .1-.1.2zM74.1 259c0-.1.1-.1.2-.2 0 .2-.1.2-.2.2.1 0 .1 0 0 0zM72.6 260.4c.1 0 .2.1.2.2l-.2-.2zM71.3 259.1c.1 0 .2.1.2.2-.1 0-.1-.1-.2-.2zM73.2 260.1c0 .1-.1.1-.2.2l.2-.2zM71.1 258.8c0 .1.1.1.2.2-.1 0-.2-.1-.2-.2zM72 259.7c.1 0 .2.1.2.2-.1 0-.3 0-.2-.2zM73.3 259.9c0-.1.1-.1.2-.2-.1.2-.1.2-.2.2zM73.9 259.4c0-.1.1-.2.2-.2l-.2.2zM72.2 260c0 .1.1.1.2.2-.2-.1-.2-.1-.2-.2zM71.7 259.5c.1 0 .2.1.2.2l-.2-.2zM73.8 259.5l-.2.2c0-.2.1-.2.2-.2-.1 0-.1 0 0 0zM45.9 259c0-.1.1-.1.2-.2 0 .2-.1.2-.2.2zM44.9 260.1c0 .1-.1.2-.2.2.2-.1.2-.2.2-.2zM45.7 259.4c0-.1.1-.1.2-.2l-.2.2zM45.1 259.9l.2-.2c0 .2-.1.2-.2.2zM45.6 259.5c-.2 0-.2 0 0 0-.1 0-.1 0 0 0zM93.5 260.1c0 .1.1.1.2.2-.1 0-.2-.1-.2-.2zM93.3 260c-.1-.1-.2-.1-.2-.2.2.1.2.1.2.2zM92.8 259.5c-.1 0-.1-.1-.2-.2.1 0 .2.1.2.2 0-.1 0 0 0 0zM92.9 259.5c.1 0 .2.1.2.2-.1 0-.2-.1-.2-.2zM92.5 259.1c-.1 0-.2-.1-.2-.2l.2.2z"/><path d="M54.8 252.1s-.1 0 0 0c0-.1 0 0 0 0zM83 252c0 .1 0 .1 0 0zM84.5 247.7c.1 0 .1 0 0 0zM83.7 246.7s0 .1 0 0c0 .1 0 0 0 0z"/></g></svg>