<?xml version="1.0" encoding="utf-8"?>
<!-- Generator: Adobe Illustrator 18.1.1, SVG Export Plug-In . SVG Version: 6.00 Build 0)  -->
<svg version="1.1" id="Layer_1" xmlns="http://www.w3.org/2000/svg" xmlns:xlink="http://www.w3.org/1999/xlink" x="0px" y="0px"
	 viewBox="44.7 111.8 262 118" enable-background="new 44.7 111.8 262 118" xml:space="preserve">
<g id="INSPECT-A-PEC">
	<path fill="none" d="M195.9,157.4c-1.1,0.9-2.2,1.7-3.4,2.5c2.8-0.3,6-0.3,9.4,0.3l1.1-4.1C199.5,157.8,195.9,157.4,195.9,157.4z"
		/>
	<path fill="none" d="M114.8,204c0,0,10-21.8,12.2-32.5c-1.3-1.5-2.7-3.2-4-4.9c0,0-1.3,6.7-17.6,19.9c-5.1,4.1-8.5,11.2-10.3,16.2
		C101.1,199.8,108.3,198.5,114.8,204z"/>
	<path fill="#FFFFFF" d="M234.4,132.1c0,0,1.5-7.6-3.2-12c4.1,4.5,2.8,11.6,2.8,11.6s2.5,4.8-8.2,15.5c0,0,0,0,0,0.2l0.5,0.3
		c3.7-3.7,5.8-6.6,7-9C235.5,134.2,234.4,132.1,234.4,132.1z"/>
	<g>
		<path fill="#AFD13B" d="M254.7,123.5c-2.3-2-8.3-1.7-10.7-2.5c-1.4-0.5-2.9-1.1-4.5-1.7c-5.4-2.3-10.8-5.4-12-6c0,0,0-0.1-0.1-0.1
			c0,0-10.7-5.8-30.5,6.3c-10.3,6.3-16.8,22.3-31,23.5c0,0-15.5-6.3-27.2,1c12.2,5,27.2,12.4,37.9,22.1c1.6-1,7.3-5.1,15.9-6.1
			c1.1-0.8,2.3-1.6,3.4-2.5c0,0,3.6,0.4,7.1-1.3l-1.1,4.1l-7.3,26.8l-6.6,24.5l0,0c-1.2,4.8,0.2,6.5,0.2,6.5h21.6
			c0.3-0.2,0.2-0.5,0.2-0.5l4.6,0.1c0.3,0,0.2-0.3,0.2-0.3h1.5c1-1-0.1-1.4-0.5-1.4s-2.2-0.5-2.2-0.5c-0.7-0.1-3.4-1.3-3.4-1.3
			c-0.6-0.4-1.7-0.7-2.6-0.6s-2.9-0.3-2.9-0.3c-1.6-0.9-4.8-2-6.8-2.7c2.4-6.1,6.9-16,6.9-16c0.3-0.4,0.5-0.8,0.8-1.2
			c9.6-14.5,7.8-19.4,7.8-19.4c2.2-2,4.1-4.1,5.6-6.4c6.1-9,6.5-18.7,6.6-20c0-0.1,0-0.2,0-0.2c10.7-10.7,8.2-15.5,8.2-15.5
			s1.4-7.1-2.8-11.6c4.7,4.5,3.2,12,3.2,12s1.1,2.1-1.2,6.5h0.1c0.3-0.1,0.9-0.3,0.9-0.3c0.7,1.1,2.1-0.1,2.1-0.1v1.3l2.2-0.1
			l0.4,2.6c2.2,0.3,4.3,0,6-0.3c1-0.2,1.9-0.4,2.7-0.6c3.1-0.6,5-1.6,6.2-2.6c1.6-1.4,1.8-2.6,1.8-2.6s0.2-0.6,0.4-1.5
			C256.5,131.5,257.4,125.9,254.7,123.5z"/>
		<path fill="#AFD13B" d="M71.3,211.1c-2.1-1.4-5.2-3-5.2-3c-3.7-1.2-6.1,3.1-6.1,3.1c-10.8-2.8-14,5.5-14,5.5
			c-1.7,0-1.3,1.7-1.3,1.7h29.6c-0.2-0.2-0.3-0.5-0.3-0.7c0-0.5,0.3-1,0.7-1.2c0.7,0.6,1.9,0.7,2.8,0.5c1-0.3,2-1.7,2.8-2.7
			c1.8-2,1.9-3.2,2.5-5C77.2,211.9,71.3,211.1,71.3,211.1z"/>
		<path fill="#AFD13B" d="M127,171.4c-2.2,10.7-12.2,32.5-12.2,32.5c-6.5-5.5-13.7-4.2-19.8-1.4c-1.1,3-1.6,5.2-1.5,5.5
			c0.1,0.8,0.7,1.5,1,2.2c0.4,0.7,0.7,1.5,0.6,2.3s-0.6,1.5-1.2,2s-1.3,0.9-2.1,1.1c-2.2,0.6-3.4,1.7-4.4,2.9h45.8
			c8-7,14.5-17.6,19.4-27.2C145.1,188.5,136.5,182.5,127,171.4z"/>
	</g>
	<path d="M232.4,214.7c0,0,5.9,0,10.2,0.7c0-0.1,0.1-0.2,0.2-0.3C240.2,214.8,235,214.1,232.4,214.7z"/>
	<path d="M302.9,213c-0.4,0-0.8,0-1.2,0c-1.7-0.3-1.4-2.3-3-2.9c-1-0.4-2.2,0-3.3-0.2c-2.2-0.5-2.2-3.3-4.5-3.5
		c-0.9-0.1-1.9,0.3-2.8,0.1c-0.8-0.2-1.1-1-1.3-1.5c-0.5-1.3-1.4-2.9-3.4-3c-1.2-0.1-2.4,0.4-3.5,0c-0.8-0.2-1.3-0.9-1.4-1.5
		s0-1.3-0.1-1.9c-0.3-2.4-3.5-4.3-7-4.5c-2-0.1-4.1,0.3-5.8,1.1c1,0.6,1.7,1.5,2.2,2.3c0.3,0.7,0.4,1.5,0.2,2.3
		c-0.4,1.3-1.6,2.4-3,2.5c-1.2,0.1-2.4-0.4-3.5-0.1c-1.2,0.3-1.9,1.5-2,2.7c-1.4-0.6-2.5-1.1-4.2-1.1c-1.9,0-3.3,0-4.8,0.4
		c-0.6,0.2-1.3,0.5-1.9,0.9c-0.1,0.1-0.3,0.2-0.4,0.3c1.5,2.1,2.5,5.3-1.1,8.9c0,0-2.3,0.9-2.8,1.2c0,0-0.6-0.1-1.5-0.2
		c-0.1,0.1-0.1,0.2-0.2,0.3c0.8,0.1,1.5,0.3,2.2,0.5c4.1,1.1,17.3,1.6,19.6,1.5c2.2-0.1,4.8-1.4,7.2-0.2c0.5,0.2,1,0.4,1.4,0.7
		c0.1,0.1,0.3,0.2,0.5,0.3l33.1,0.1C307,214.7,305.1,213,302.9,213z"/>
	<path fill="#00AFAD" d="M192.5,159.9c-8.6,1-14.4,5.1-15.9,6.1c-10.8-9.8-25.7-17.2-37.9-22.1c-12.3-5-21.9-7.5-21.9-7.5
		C97.5,158,87.1,200,87.1,200s-0.5,2.7-3.2,7.4c-0.5,0.9-0.8,1.6-1,2.2c-0.6,1.7-0.7,3-2.5,5c-0.9,1-1.9,2.4-2.8,2.7
		c-1,0.3-2.1,0.2-2.8-0.5c-0.5,0.2-0.7,0.7-0.7,1.2c0,0.3,0.1,0.5,0.3,0.7c0.1,0.2,0.3,0.3,0.5,0.4c-0.4,0.2-0.7,0.5-1.1,0.7
		c-0.1,0-0.2,0.1-0.3,0.2c-0.1,0.2,0,0.5,0.1,0.6c0.2,0.2,0.4,0.2,0.7,0.3c-0.1,0.1-0.2,0.2-0.3,0.4c0.1,0.5,0.9,0.8,1.3,0.5
		c-0.4,0.3-0.4,1,0,1.3s1,0.2,1.3-0.2c0,0.5,0.7,0.6,1.1,0.4s0.6-0.8,0.7-1.2c6,1.2,7.2-1.1,9.1-3.3c1-1.2,2.2-2.3,4.4-2.9
		c0.8-0.2,1.5-0.6,2.1-1.1s1.1-1.2,1.2-2s-0.2-1.6-0.6-2.3s-1-1.4-1-2.2c0-0.4,0.5-2.5,1.5-5.5c1.8-5,5.2-12,10.3-16.2
		c16.3-13.2,17.6-19.9,17.6-19.9c1.4,1.7,2.7,3.4,4,4.9c9.5,11,18.1,17,25.6,20c14,5.5,24,0.1,29-3.9c4.5-1.5,9.2-1.2,13-0.5
		l7.3-26.8C198.5,159.6,195.4,159.6,192.5,159.9z"/>
	<g>
		<path fill="#00AFAD" d="M274,222.6c-0.1,0.1-0.2,0.2-0.2,0.4c0.5,0.3,1,0.2,1.5,0.5c0.6,0.4,0.6,0.9,0.9,1.5
			c0.5,1.2,1.2,2-0.2,2.9c0.7,0.1,1.9-0.5,2-1.2c0.1-0.8-0.3-2-0.6-2.6C276.8,222.9,275.3,222.5,274,222.6z"/>
		<path fill="#00AFAD" d="M279,223.1c-0.4-0.6-2-2.3-2.3-0.7c-0.4,0-0.7-0.1-1.1,0c0.3,0.4,1.6,0.7,2,1.3c0.5,0.7,0.8,1.7,0.8,2.5
			C279.7,226.1,279.4,224,279,223.1z"/>
		<path fill="#00AFAD" d="M274,223.5c-0.7-0.2-1.7-1-1.9-0.1c-0.3,1.2,2.3,1.5,1.8,2.2c-0.3,0.4-1-0.2-1.2-0.4c-0.6-0.4-1-0.5-1-1.2
			c0-0.5-0.1-1.4,0.5-1.5c0.4,0,0.6,0.5,1.1,0.5c0.1-0.2,0.3-0.4,0.4-0.6c0.5-0.1,1.1,0.1,1.6,0.1c0-0.4,0.4-0.5,0.8-0.4
			c-0.6-0.8-3-2.3-3-2.3c1.4,0.4,3,1.9,3.3,2.2c0.1-0.3,0.5-0.5,0.8-0.7c-0.7-0.8-1.8-1.3-2.5-2.1c-0.4-0.4-0.8-0.8-1.2-1.1
			c-0.1-0.1-0.3-0.2-0.5-0.3c-0.5-0.3-0.9-0.5-1.4-0.7c-2.4-1.1-5,0.1-7.2,0.2c-2.3,0.1-15.5-0.4-19.6-1.5c-0.6-0.2-1.4-0.3-2.2-0.5
			c-4.3-0.7-10.2-0.7-10.2-0.7c2.5-0.6,7.8,0.1,10.4,0.5c1,0.1,1.5,0.2,1.5,0.2c0.5-0.4,2.8-1.2,2.8-1.2c3.6-3.6,2.7-6.8,1.1-8.9
			c0.1-0.1,0.3-0.2,0.4-0.3c0.7-0.4,1.3-0.6,1.9-0.9c1.5-0.5,3-0.4,4.8-0.4c1.8,0,2.9,0.5,4.2,1.1c0.1-1.2,0.9-2.4,2-2.7
			s2.3,0.2,3.5,0.1c1.4-0.1,2.6-1.1,3-2.5c0.2-0.7,0.1-1.5-0.2-2.3c-0.5-0.9-1.3-1.7-2.2-2.3c-0.4-0.2-0.7-0.5-1.1-0.6
			c0,0-1.7-1.5-2.1-3.1l-1.6,1.4c0,0-0.6,0.2-1-1.2c0,0-0.9,0.3-1.9,0.5l-0.2-1.3c0,0-0.5,0.4-1.7-0.5c0,0-1.5-0.6-2.1,1.5
			c-0.5,1.9-0.7,5.5-3.9,5.2c0,0-0.9-0.5-1.7-1c-1-1.6-2.1-3-2.8-4c-2.5-3.4-4.1-7.7-5-10.5c-0.8-2.7-1.6-8-2.5-8.4
			c-4.3-1.1-9.5,1.8-9.5,1.8c-3.3-3.1-6.4-5.6-9.5-7.6c-1.5,2.2-3.3,4.4-5.6,6.4c0,0,1.8,4.9-7.8,19.4c8.9,11.2,15.9,16.9,21.5,19.5
			c0.9-0.6,2-1.2,3.3-1.8c0,0,4.8-2.3,6-4.1l0,0c-1.4,1.8-5.5,4.2-5.5,4.2c-12.5,6.4-4.2,14.6-4.2,14.6c5.3,2.5,22,0.1,26.4-1.2
			c4-1.2,11-0.1,12,0.1c0.1,0.1,0.3,0.2,0.4,0.3c1.2,0.9,2,2.2,2.8,3.6c1,1.9,2.8,2,4.6,0.9c0.5-0.3,1-0.7,1.5-1s1-0.4,1.4-0.6
			c1-0.6,0.2-1.9-0.2-2.7C275.4,223.7,275,223.8,274,223.5z"/>
	</g>
	<path fill="#00AFAD" d="M276,222.1c0,0.1,0.1,0.1,0.1,0.2c0,0,0.3,0,0.3-0.2l0,0c-0.3-0.3-1.9-1.8-3.3-2.2
		C273.1,219.8,275.5,221.3,276,222.1z"/>
	<path d="M245,140.3c-0.1,0.3-0.2,0.6,0,0.9c0.6-0.5,0.9-1.5,1-2.5c0-0.7,0-1.6-0.4-2c-0.2-0.2-0.5-0.2-0.7,0
		C245.1,137.8,245.2,139.1,245,140.3z"/>
	<path d="M243.4,139.9c0,0,0-0.2,0-0.3s0-0.2-0.1-0.3c-0.1-0.5,0-1.1,0.3-1.3c-0.3-0.2-0.7,0-0.8,0.5s0,1,0.3,1.3
		C243.2,139.9,243.3,139.9,243.4,139.9z"/>
	<path d="M258.2,119.5L258.2,119.5C258.2,119.6,258.2,119.5,258.2,119.5z"/>
	<path d="M260.5,124.1c1.4-1,0.1-2.8-0.9-3.3c-0.5-0.2-1.8-0.5-1.4-1.2c0,0,0-0.1-0.1-0.1c1-0.9,0.4-2.7-0.8-3
		c0.5,0.5,0.2,1.7-0.4,2c0.1-1.2-0.9-2.1-2-2.4c-0.5-0.1-1.2,0.1-1.7,0c-0.4,0-0.2,0-0.5-0.1c-0.3-0.2-0.4-0.5-0.7-0.7
		c-0.5-0.3-1.3-0.4-1.9-0.4c-0.8,0.1-1,0.6-1.7,0.8c-0.5,0.1-1,0-1.5,0.2c-1.1,0.4-2.1,0.8-3.1,1.4c-1.4,0.7-2.6,1.7-4.1,2.1
		c-0.3,0.1-0.6,0.2-0.9,0.2c0.5,0.6,0.8,1.4,1.4,1.9c0.9,0.8,1.9,1,3.1,0.9c1.2-0.2,3.6-0.7,3.9,1.1c1.6,0.4,0.4,3-0.4,3.6
		c-1.2,1.1-2.1,2.5-1.9,4.2c1,0.4,2,0.2,2.9,1c0.8,0.8,1.2,1.8,0.8,2.9c-0.3,1-2.1,3.7-0.8,4.6c-0.2-1.5,1-3.8,2.6-3.6
		c-1.1,0.3-1.8,1.8-1.5,2.8c0.2-1.3,1.8-1.6,2.9-1.4c0.5,0.1,0.7,0.2,1.2,0.5c0.4,0.2,0.7,0.4,1,0.5c-1.1,1-3,2-6.2,2.6
		c-0.8,0.1-1.7,0.4-2.7,0.6c0.1,0.1,0.1,0.2,0.2,0.2c0.8,0.6,1.6,0.3,2.4,0.6c-0.9,0.5-1.9,0.3-2.9,0c0.6,0.6,1.4,0.8,2.2,1
		c0.5,0.1,1.2,0.3,1.7,0.2c0.4,0,0.8-0.4,1.1-0.4c1-0.1,1.9,0.6,3,0.5c0.9-0.1,1.5-0.3,2.2-0.9c0.5-0.4,0.9-1,1.4-1.3
		c1-0.7,1.5-1,2.1-2.4c0.5-1.3,0.5-2.6,0.9-3.9c1.3-1.5,2.3-3.5,2.6-5.3C262.2,128.5,262.2,125.1,260.5,124.1z"/>
	<path d="M262.3,197.5c0.1,0,0.1-0.1,0.1-0.2c0-0.1,0-0.2,0-0.3c-0.1-0.5,0.2-1,0.7-1c-0.3-0.3-0.9-0.2-1.2,0.2
		c-0.3,0.4-0.2,0.9,0.1,1.2C262.1,197.4,262.2,197.5,262.3,197.5z"/>
	<path d="M265.5,197.1c0-0.2,0-0.4-0.1-0.6c0-0.1,0-0.1-0.1-0.2s-0.2,0-0.1,0.1c0.2,0.5,0.2,0.9,0.1,1.4c0,0.1,0,0.2-0.1,0.3
		c-0.2,0.4-0.5,0.6-0.9,0.8c-0.4,0.1-0.8,0.2-1.1,0.2c0,0.1,0.1,0.1,0.1,0.1c0.4,0,0.7,0,1.1-0.1s0.7-0.3,0.9-0.6
		C265.5,198.1,265.5,197.6,265.5,197.1z"/>
	<g>
		<g>
			<g>
				<defs>
					<path id="SVGID_1_" d="M95,202.6c-1.1,3-1.6,5.2-1.5,5.5c0.1,0.8,0.7,1.5,1,2.2c0.4,0.7,0.7,1.5,0.6,2.3s-0.6,1.5-1.2,2
						s-1.3,0.9-2.1,1.1c-2.2,0.6-3.4,1.7-4.4,2.9h16.7l-1.4-18.3C100,200.6,97.5,201.5,95,202.6z M82.8,209.5c-0.6,1.7-0.7,3-2.5,5
						c-0.9,1-1.9,2.4-2.8,2.7c-1,0.3-2.1,0.2-2.8-0.5c-0.5,0.2-0.7,0.7-0.7,1.2c0,0.3,0.1,0.5,0.3,0.7H44.6c0,0-0.4-1.7,1.3-1.7
						c0,0,3.2-8.3,14-5.5c0,0,2.5-4.4,6.1-3.1c0,0,3.1,1.6,5.2,3C71.3,211.1,77.2,211.9,82.8,209.5z"/>
				</defs>
				<clipPath id="SVGID_2_">
					<use xlink:href="#SVGID_1_"  overflow="visible"/>
				</clipPath>
				<g id="argyle_1_" clip-path="url(#SVGID_2_)">
					<g>
						<path d="M61.7,206.6v0.1c0.2,0.2,0.5,0.5,0.7,0.7s0.4,0.4,0.5,0.5c0.2,0.2,0.3,0.4,0.5,0.5c0.2,0.2,0.3,0.4,0.5,0.5
							c0.2,0.2,0.5,0.5,0.6,0.7c0.3,0.3,0.6,0.7,1,1c0.1,0.1,0.2,0.3,0.4,0.4c-0.2,0.2-0.4,0.4-0.6,0.6c-0.2,0.2-0.5,0.5-0.7,0.7
							c0,0-0.1,0.1-0.2,0.2s-0.1,0.1-0.2,0.2c0,0-0.1,0.1-0.2,0.2c0,0-0.1,0.1-0.2,0.2c-0.1,0-0.1,0.1-0.1,0.2l0,0
							c-0.2,0.3-0.5,0.5-0.7,0.8c-0.4,0.4-0.8,0.8-1.1,1.2c0,0-0.1,0.1-0.2,0.2c-0.2-0.3-0.6-0.6-0.9-0.9c-0.3-0.3-0.6-0.6-0.9-0.9
							c-0.3-0.3-0.5-0.6-0.9-0.9c-0.3-0.3-0.5-0.6-0.9-0.9c-0.3-0.3-0.5-0.6-0.9-0.9c-0.1,0.1-0.3,0.3-0.5,0.5
							c-0.1,0.1-0.3,0.3-0.4,0.5c-0.1,0.1-0.3,0.3-0.4,0.5c-0.1,0.1-0.3,0.3-0.4,0.5c-0.1,0.1-0.3,0.3-0.5,0.5
							c-0.1,0-0.1-0.1-0.2-0.1l0,0c0,0,0,0.1,0.1,0.1s0,0.1,0,0.2c-0.3,0.3-0.6,0.6-0.9,1c-0.2,0.2-0.3,0.4-0.5,0.5
							c-0.2,0.2-0.4,0.4-0.6,0.6v0.1c0.1,0.1,0.2,0.2,0.3,0.3c0.3,0.3,0.6,0.6,1,1h0.1c0,0.1,0.1,0.1,0.2,0.2
							c0.1,0.2,0.3,0.3,0.5,0.5c0,0,0.1,0.1,0,0.1c0,0,0,0.1-0.1,0.1c0.1,0,0.2,0,0.1-0.1c0.1,0,0.2,0,0.3,0.1s0.2,0.3,0.4,0.4
							c0.5,0.5,1,1,1.5,1.5c0,0,0.1,0,0.1,0.1l0,0c-1.4,0-2.8,0-4.2,0c0-0.1-0.2-0.1-0.2-0.1v0.1c-1.4,0-2.8,0-4.1,0
							c0,0,0.1-0.1,0.1-0.2c0.3-0.3,0.6-0.6,0.9-0.9c0.3-0.3,0.6-0.7,1-1c0,0,0,0,0.1,0H51c-0.1-0.1,0-0.2,0.1-0.3
							c0.2-0.2,0.4-0.4,0.5-0.6c0.1-0.1,0.2-0.3,0.4-0.4c0.4-0.4,0.7-0.7,1-1.1c-0.7-0.7-1.4-1.5-2.1-2.2c0,0,0-0.1,0.1-0.1l0,0
							h-0.1c-0.7-0.7-1.4-1.5-2.1-2.2c-0.4,0.4-0.7,0.8-1.1,1.1c-0.3,0.3-0.6,0.6-0.9,1c0,0-0.1,0.1-0.2,0.1c0,0.1,0,0.1-0.1,0.2
							c-0.1,0.1-0.3,0.3-0.4,0.4c-0.5,0.5-1,1-1.5,1.6c0,0-0.1,0-0.1,0.1c0-1.5,0-3,0-4.4c0.1,0,0.1,0.1,0.2,0.1
							c0,0-0.1-0.1-0.1-0.2c0-0.1,0.1-0.1,0.1-0.2l0,0c0,0-0.1,0.1-0.2,0.1 M92.8,200.9c0.2-0.2,0.3-0.4,0.5-0.5
							c0.2-0.2,0.3-0.4,0.5-0.5c0.3-0.2,0.5-0.5,0.7-0.8c0.1-0.1,0.2-0.3,0.4-0.4c0.3-0.3,0.7-0.7,1-1c0,0,0,0,0.1,0
							c0.4,0.4,0.7,0.8,1.1,1.1c0.3,0.3,0.5,0.6,0.8,0.9c0,0,0.1,0.1,0.1,0.2l0,0c0.1,0,0.2,0.1,0.2,0.1c0.2,0.2,0.4,0.5,0.6,0.7
							c0.3,0.3,0.6,0.7,1,1c0.1,0.1,0.2,0.2,0.4,0.4c-0.3,0.3-0.6,0.6-0.9,1c-0.3,0.3-0.5,0.6-0.9,1c-0.1,0.1-0.2,0.3-0.4,0.3l0,0
							c0,0.1,0,0.1-0.1,0.2c-0.4,0.4-0.7,0.7-1,1.1c-0.3,0.3-0.6,0.7-0.9,1c0.2,0.2,0.5,0.5,0.7,0.7c0.4,0.5,0.9,0.9,1.3,1.4
							c0,0,0.1,0.1,0.1,0.2l0,0c0,0,0.1,0,0.1,0.1c0.1,0.1,0.3,0.3,0.4,0.4c0.5,0.5,0.9,1,1.4,1.4c0.1,0.1,0.2,0.2,0.3,0.3
							c-0.2,0.2-0.4,0.4-0.5,0.6c-0.2,0.3-0.5,0.5-0.7,0.8s-0.5,0.5-0.7,0.8h-0.1c0,0,0,0.1-0.1,0.1c-0.2,0.2-0.4,0.4-0.5,0.5
							c-0.4,0.5-0.9,0.9-1.3,1.4c-0.1,0.1-0.2,0.1-0.3,0.2c-1.4-1.5-2.8-3-4.2-4.5c-0.1,0-0.2,0.1-0.2,0.1c-0.3,0.3-0.6,0.7-1,1
							c-0.2,0.2-0.5,0.5-0.7,0.7c-0.1,0.1-0.2,0.2-0.3,0.3c-0.1,0-0.1-0.1-0.2-0.1l0,0c0,0,0.1,0,0.1,0.1v0.1c0,0-0.1,0.1-0.1,0.2
							c-0.2,0.2-0.4,0.4-0.6,0.6c-0.2,0.3-0.5,0.5-0.7,0.8c-0.2,0.2-0.5,0.4-0.6,0.6c0,0,0,0-0.1,0c-0.4-0.4-0.7-0.8-1.1-1.2
							c-0.3-0.3-0.6-0.7-1-1c0,0,0-0.1,0.1-0.2c-0.1,0-0.1,0-0.2,0.1c-0.7-0.7-1.4-1.5-2.1-2.2c-0.2,0.2-0.3,0.4-0.5,0.5
							c-0.5,0.5-0.9,0.9-1.3,1.4c-0.1,0.1-0.2,0.3-0.4,0.3l0,0v0.1c-0.3,0.3-0.6,0.7-1,1c-0.3,0.3-0.5,0.6-0.9,0.9
							c-0.1,0.1-0.2,0.2-0.3,0.3c-0.5-0.5-1-1-1.4-1.5c-0.5-0.5-1-1-1.4-1.5c-0.5-0.5-0.9-1-1.4-1.5c-0.1,0.1-0.2,0.2-0.3,0.3
							c-0.1,0.1-0.2,0.2-0.3,0.3c-0.1,0.1-0.2,0.2-0.3,0.3c-0.1,0.1-0.2,0.2-0.3,0.3s-0.1,0.2-0.2,0.3s-0.2,0.2-0.3,0.3
							c-0.1,0.1-0.2,0.2-0.3,0.3s-0.2,0.2-0.3,0.3c-0.1-0.1-0.1-0.1-0.2-0.1c0,0.1,0.1,0.1,0.2,0.2c-0.1,0.1-0.1,0.1-0.2,0.2
							c-0.3,0.3-0.6,0.6-1,1c-0.3,0.3-0.5,0.6-0.9,0.9c0,0-0.1,0.1,0,0.2c0.1,0.1,0.2,0.3,0.3,0.4c0.3,0.3,0.6,0.6,0.9,1h0.1
							c0.1,0.3,0.5,0.5,0.6,0.8c0,0-0.1,0.1-0.1,0.2l0,0c0,0,0.1-0.1,0.2-0.1c0.1,0.1,0.3,0.2,0.4,0.4c0.4,0.4,0.8,0.8,1.2,1.2
							c0.2,0.2,0.4,0.4,0.5,0.6c-1.4,0-2.8,0-4.2,0l0,0c0,0-0.1,0-0.2-0.1l0.1,0.1c-1.4,0-2.8,0-4.2,0c0.1-0.1,0.2-0.2,0.2-0.3
							c0.1-0.2,0.3-0.4,0.5-0.5c0.3-0.3,0.5-0.5,0.8-0.8c0.2-0.2,0.4-0.4,0.5-0.6c0,0,0.1,0,0.2,0.1c0-0.1-0.1-0.1-0.1-0.2
							c0.7-0.7,1.4-1.5,2.1-2.2c-0.7-0.7-1.4-1.5-2.1-2.2c0,0,0-0.1,0.1-0.1l0,0h-0.1c-0.7-0.7-1.4-1.5-2.1-2.2
							c0.7-0.7,1.4-1.5,2.1-2.2H68l0,0c-0.2-0.1-0.1-0.2,0-0.3s0.2-0.2,0.3-0.3c0.5-0.5,0.9-1,1.4-1.5c0.1-0.1,0.2-0.2,0.3-0.3
							 M87.3,197.7c0,0.1,0.1,0.1,0.2,0.2 M60.7,210.3C60.8,210.3,60.7,210.2,60.7,210.3C60.6,210.3,60.6,210.3,60.7,210.3
							c0,0,0,0.1,0.1,0.1C60.8,210.4,60.8,210.3,60.7,210.3z M97,212.5L97,212.5C97.1,212.5,97,212.5,97,212.5s0-0.1-0.1-0.1
							C96.9,212.4,96.9,212.5,97,212.5z M45.6,212.5C45.6,212.5,45.7,212.5,45.6,212.5C45.7,212.5,45.7,212.5,45.6,212.5
							c0-0.1,0-0.1-0.1-0.1L45.6,212.5z M95.9,202.3c0,0,0,0.1,0.2,0.1C96,202.3,96,202.3,95.9,202.3c0-0.1,0.1-0.2,0.1-0.3
							c0,0-0.1,0.1-0.2,0.1c-0.1-0.1-0.1-0.1-0.2-0.2l0,0c0.1,0,0.1,0.1,0.2,0.2S95.8,202.3,95.9,202.3
							C95.8,202.3,95.8,202.3,95.9,202.3c-0.2,0-0.2,0.1-0.3,0.2C95.7,202.5,95.7,202.4,95.9,202.3L95.9,202.3z M95.8,211.2
							c-0.1-0.1-0.1-0.2-0.3-0.2C95.6,211.1,95.7,211.1,95.8,211.2C95.7,211.2,95.8,211.2,95.8,211.2S95.8,211.3,95.8,211.2
							c-0.1,0.1-0.2,0.2-0.2,0.3C95.7,211.4,95.7,211.4,95.8,211.2c0,0.1,0.1,0.2,0.2,0.2l0,0C96,211.4,95.9,211.3,95.8,211.2
							c0.1,0,0.1-0.1,0.2-0.1l0,0C95.9,211.1,95.9,211.1,95.8,211.2z M61.6,211.2c-0.1-0.1-0.1-0.2-0.3-0.2
							C61.4,211.1,61.4,211.1,61.6,211.2C61.5,211.2,61.5,211.2,61.6,211.2C61.6,211.2,61.6,211.3,61.6,211.2
							c-0.1,0.1-0.2,0.2-0.2,0.3C61.5,211.4,61.5,211.4,61.6,211.2c0.1,0.1,0.1,0.2,0.3,0.2C61.8,211.3,61.7,211.3,61.6,211.2
							c0.1-0.1,0.2-0.1,0.2-0.2C61.7,211.1,61.6,211.1,61.6,211.2z M81.5,203.8c-0.2,0.2-0.3,0.4-0.5,0.5c0,0-0.1,0-0.1,0.1
							c0,0,0,0.1-0.1,0.1 M78.7,206.7c0.2,0.3,0.5,0.5,0.7,0.7c0.4,0.5,0.8,0.9,1.2,1.3c0,0,0.2,0.1,0.1,0.2l0,0
							c0.1,0,0.1,0.1,0.2,0.1c0.1,0.1,0.3,0.3,0.5,0.5c0.3,0.3,0.6,0.7,1,1c0.2,0.2,0.4,0.4,0.5,0.6c0.7-0.7,1.4-1.5,2.1-2.2
							c0,0,0.1,0,0.2,0.1c0-0.1-0.1-0.1-0.1-0.2c0.2-0.2,0.4-0.5,0.6-0.7c0.5-0.5,0.9-1,1.4-1.4c0.1-0.1,0.1-0.1,0-0.2
							c-0.4-0.4-0.7-0.7-1-1c-0.3-0.4-0.6-0.7-1-1c0,0,0-0.1,0.1-0.2c-0.1,0-0.1,0-0.2,0.1 M53.1,206.6v0.1c0.1,0.1,0.2,0.2,0.3,0.3
							c0.2,0.2,0.5,0.5,0.6,0.7c0.1,0.1,0.3,0.3,0.4,0.4l0,0v0.1c0.1,0.1,0.3,0.3,0.4,0.4c0.1,0.1,0.2,0.2,0.2,0.3
							c0,0-0.1,0.1-0.2,0.2l0,0c0,0,0.1-0.1,0.2-0.1c0.2,0.2,0.3,0.4,0.5,0.5c0.5,0.5,1,1,1.5,1.5c0.1,0.1,0.2,0.1,0.3,0
							c0.2-0.2,0.4-0.4,0.5-0.6c0.3-0.3,0.6-0.6,1-1c0.3-0.3,0.5-0.5,0.8-0.8c0.1-0.1,0.2-0.2,0.3-0.3s0.2-0.2,0.3-0.3
							s0.1-0.3,0.3-0.3c0.1-0.1,0.2-0.2,0.3-0.3c0.2-0.2,0.4-0.4,0.6-0.6c0.1-0.1,0.1-0.2,0-0.2 M70.3,206.6c0,0-0.1,0.1,0,0.2
							c0,0,0.1,0.1,0.2,0.2c0.4,0.4,0.7,0.8,1.1,1.1c0,0,0,0,0.1,0l0,0l0,0c-0.1,0.1,0.1,0.2,0.1,0.3c0.1,0.2,0.4,0.3,0.5,0.5
							c0,0-0.1,0.1-0.1,0.2l0,0c0,0,0.1-0.1,0.2-0.1c0.7,0.7,1.4,1.5,2.1,2.2c0.1,0,0.2-0.1,0.2-0.2c0.1-0.1,0.2-0.2,0.3-0.3
							c0.4-0.4,0.7-0.8,1.1-1.2c0.2-0.2,0.4-0.4,0.6-0.6c0,0,0.1-0.2,0.2-0.2s0.2-0.1,0.3-0.2c0.4-0.4,0.7-0.7,1-1.1
							c0.2-0.2,0.3-0.4,0.5-0.5c0.1-0.1,0.1-0.2,0-0.3 M90.4,203.4c-0.1,0.1-0.1,0.1-0.2,0.2c-0.1,0.1-0.3,0.3-0.4,0.4
							s-0.3,0.3-0.4,0.4c-0.1,0-0.1-0.1-0.2-0.1l0,0c0,0,0.1,0.1,0.1,0.2c-0.1,0.1-0.2,0.2-0.3,0.3c-0.2,0.2-0.4,0.4-0.6,0.6
							c-0.2,0.3-0.5,0.5-0.7,0.8c-0.1,0.1-0.2,0.2-0.3,0.3c0,0-0.2,0.1-0.1,0.2c0,0,0,0-0.1,0c0,0,0.1,0.1,0.1,0.2
							c0.3,0.3,0.5,0.5,0.8,0.8c0.1,0.1,0.2,0.3,0.4,0.4h0.1c0,0.1,0,0.1,0.1,0.2l0,0c0.1,0.1,0.2,0.2,0.3,0.3h0.1v0.1
							c0,0,0,0.1,0,0.2s0,0-0.1,0.1l0,0c0,0,0.1-0.1,0.2-0.1c0.4,0.4,0.7,0.7,1,1.1c0.4,0.4,0.7,0.7,1,1.1c0.1-0.1,0.2-0.2,0.3-0.3
							c0.3-0.3,0.6-0.6,0.9-1c0,0,0.1-0.1,0.2-0.2c0,0,0.1-0.1,0.1-0.2c0,0,0.1-0.1,0.2-0.2c0,0,0.1-0.1,0.2-0.2
							c0,0,0.1-0.1,0.1-0.2c0-0.1,0.1-0.1,0.1-0.1c0.2-0.2,0.4-0.5,0.6-0.7s0.3-0.4,0.5-0.5c0.3-0.3,0.6-0.6,0.9-0.9
							c0.1-0.1,0.1-0.2,0-0.3s-0.2-0.2-0.3-0.3c-0.2-0.2-0.4-0.4-0.5-0.6c-0.2-0.2-0.4-0.4-0.6-0.6c-0.3-0.4-0.7-0.7-1-1.1
							c-0.3-0.3-0.5-0.6-0.9-1 M52.9,211.1L52.9,211.1v0.1c0,0,0,0.1-0.1,0.1h0.1H53v-0.1C53,211.1,53,211.1,52.9,211.1z
							 M70.2,211.2c-0.1,0-0.1,0-0.3-0.1c0,0.1,0.1,0.1,0.1,0.1s0,0.1-0.1,0.1C70.1,211.3,70.2,211.3,70.2,211.2L70.2,211.2z
							 M87.1,211.4C87.1,211.4,87.2,211.4,87.1,211.4c0,0,0.2,0,0.2-0.1s-0.2-0.1-0.2-0.1C87.2,211.2,87.2,211.2,87.1,211.4
							C87.2,211.3,87.1,211.3,87.1,211.4z M78.9,211L78.9,211c-0.1,0-0.2,0.1-0.2,0.2c0,0,0,0.1,0.2,0.2c0-0.1-0.1-0.1-0.2-0.2
							C78.8,211.2,78.9,211.1,78.9,211z M69.9,220c0-0.1-0.1-0.2-0.2-0.2C69.7,219.9,69.8,219.9,69.9,220z M71.3,212.4
							c-0.1-0.2-0.1-0.2-0.2-0.2C71.1,212.3,71.2,212.4,71.3,212.4z M69.6,211.7C69.6,211.7,69.7,211.7,69.6,211.7
							c0.1,0,0.2-0.1,0.2-0.2l0,0C69.8,211.6,69.7,211.6,69.6,211.7z M79.4,210.5c0.1-0.1,0.2-0.1,0.2-0.3
							C79.5,210.4,79.4,210.4,79.4,210.5z M71,210.4C71,210.4,70.9,210.4,71,210.4c-0.1,0-0.2,0.1-0.2,0.2
							C70.8,210.5,70.9,210.5,71,210.4z M71.8,213L71.8,213c0,0.1,0.1,0.2,0.2,0.2C72,213.1,71.9,213,71.8,213z M77,213
							c0.1-0.1,0.2-0.1,0.2-0.3C77.1,212.8,77,212.9,77,213z M62.5,212.2L62.5,212.2c0-0.1,0-0.2-0.2-0.2
							C62.3,212,62.4,212.1,62.5,212.2z M60.1,212.8c-0.1,0-0.2,0.1-0.2,0.2C60,212.9,60.1,212.9,60.1,212.8z M46,212.9
							c0-0.1,0-0.2-0.2-0.2C45.9,212.8,46,212.9,46,212.9z M94.7,201c0-0.1,0-0.2-0.2-0.2C94.5,200.9,94.6,201,94.7,201z
							 M69.9,210.9c-0.1-0.2-0.1-0.2-0.2-0.2C69.7,210.8,69.7,210.9,69.9,210.9z M79,210.9L79,210.9c0.2-0.1,0.2-0.1,0.2-0.2
							C79.1,210.7,79.1,210.8,79,210.9z M62.1,210.6c-0.1,0-0.2,0.1-0.2,0.2C62,210.8,62.1,210.7,62.1,210.6z M69,210L69,210
							c0,0.1,0.1,0.2,0.2,0.3l0,0C69.1,210.1,69.1,210,69,210z M94.7,210.1L94.7,210.1c0-0.1,0-0.2-0.2-0.2l0,0
							C94.5,210,94.6,210,94.7,210.1z M77.4,209.9c0,0.1,0,0.2,0.2,0.2C77.6,210,77.5,209.9,77.4,209.9z M60.3,209.9
							c0,0.1,0,0.2,0.2,0.2C60.5,210,60.4,209.9,60.3,209.9z M97.4,209.5c-0.1,0-0.2,0.1-0.2,0.2C97.3,209.7,97.4,209.6,97.4,209.5z
							 M72,218.3c-0.1,0-0.2,0.1-0.2,0.2C71.9,218.5,72,218.4,72,218.3z M46.5,209.2c-0.1,0-0.2,0.1-0.2,0.2
							C46.4,209.4,46.4,209.3,46.5,209.2z M59.8,209.3L59.8,209.3c0-0.1,0-0.2-0.2-0.2l0,0C59.6,209.2,59.7,209.3,59.8,209.3z
							 M78.7,211.3C78.7,211.3,78.6,211.3,78.7,211.3c-0.1,0-0.2,0.1-0.2,0.2l0,0C78.5,211.5,78.6,211.4,78.7,211.3z M78.3,211.6
							c0,0.1-0.2,0.1-0.2,0.2C78.2,211.8,78.3,211.8,78.3,211.6z M88.2,203.1c0,0.1,0.1,0.2,0.2,0.2
							C88.4,203.3,88.3,203.2,88.2,203.1z M93.8,204.3c0.1,0,0.2-0.1,0.2-0.2C93.9,204.1,93.8,204.2,93.8,204.3z M97.5,200.3
							c0.2,0,0.2-0.1,0.2-0.2C97.7,200.2,97.6,200.3,97.5,200.3z M71,219.5C71,219.5,70.9,219.5,71,219.5c-0.1,0-0.2,0.1-0.2,0.2
							C70.8,219.6,70.9,219.5,71,219.5z M94,200.3L94,200.3c0-0.1-0.1-0.2-0.2-0.3l0,0C93.8,200.2,93.9,200.2,94,200.3z M69.4,219.4
							c0,0.1,0,0.2,0.2,0.2C69.5,219.5,69.4,219.4,69.4,219.4z M60.1,209.7L60.1,209.7c0-0.1,0-0.2-0.2-0.3l0,0
							C60,209.5,60,209.6,60.1,209.7z M71.7,209.5C71.7,209.5,71.8,209.5,71.7,209.5c0.1,0,0.2-0.1,0.2-0.2l0,0
							C71.9,209.4,71.8,209.4,71.7,209.5z M54.9,209.3L54.9,209.3c-0.1,0-0.2,0.1-0.3,0.2l0,0C54.8,209.5,54.8,209.4,54.9,209.3z
							 M54.9,218.4c-0.2,0-0.2,0.1-0.2,0.2l0,0C54.8,218.5,54.8,218.4,54.9,218.4z M77.1,209.5C77.1,209.5,77,209.5,77.1,209.5
							c0,0.1,0.1,0.2,0.1,0.3C77.3,209.6,77.1,209.5,77.1,209.5z M94.2,209.5C94.2,209.5,94.1,209.5,94.2,209.5c0,0.1,0,0.2,0.2,0.3
							l0,0C94.3,209.6,94.3,209.5,94.2,209.5z M80.1,209.7L80.1,209.7c0.1,0,0.2-0.1,0.2-0.2C80.2,209.6,80.1,209.7,80.1,209.7z
							 M68.8,209.8L68.8,209.8v-0.1c0,0,0,0-0.1-0.1C68.6,209.7,68.7,209.8,68.8,209.8z M71.4,209.9
							C71.4,209.9,71.5,209.9,71.4,209.9c0.1,0,0.2-0.1,0.2-0.2C71.5,209.7,71.5,209.8,71.4,209.9z M88.8,209.7
							C88.7,209.7,88.7,209.7,88.8,209.7c-0.2,0.1-0.2,0.1-0.2,0.2C88.6,209.8,88.7,209.8,88.8,209.7z M54.2,210
							C54.2,210,54.1,210,54.2,210c-0.1,0-0.2,0.1-0.2,0.2C54,210.2,54.1,210.1,54.2,210z M71.3,210C71.2,210,71.2,210,71.3,210
							c-0.1,0-0.3,0.1-0.2,0.2C71.2,210.2,71.2,210.1,71.3,210z M88.2,210.3c0.1,0,0.2-0.1,0.2-0.2
							C88.3,210.1,88.2,210.1,88.2,210.3z M86.3,203.2c-0.2,0-0.2,0.1-0.2,0.2C86.2,203.4,86.2,203.3,86.3,203.2z M97.1,203.5
							c0-0.1-0.1-0.2-0.3-0.3C96.9,203.4,97,203.5,97.1,203.5z M94.5,203.5C94.5,203.5,94.5,203.6,94.5,203.5c0.1,0,0.2-0.1,0.2-0.2
							l0,0C94.6,203.4,94.5,203.5,94.5,203.5z M88.5,203.5L88.5,203.5c0,0.2,0.1,0.2,0.2,0.2C88.7,203.7,88.6,203.6,88.5,203.5z
							 M97.4,203.9L97.4,203.9c0-0.2,0-0.2-0.2-0.2C97.3,203.8,97.3,203.8,97.4,203.9z M76.7,209.1L76.7,209.1
							c0,0.1,0.1,0.2,0.1,0.3C76.9,209.2,76.8,209.2,76.7,209.1z M63.5,209.1c-0.2,0.1-0.2,0.1-0.2,0.2
							C63.5,209.3,63.5,209.3,63.5,209.1z M97.8,209.2L97.8,209.2c-0.1,0-0.2,0.1-0.2,0.2C97.7,209.3,97.7,209.3,97.8,209.2z
							 M79.6,212.2c-0.1-0.2-0.1-0.2-0.3-0.2C79.5,212,79.5,212.1,79.6,212.2z M77.7,212.2C77.7,212.2,77.8,212.2,77.7,212.2
							c0.1,0,0.2-0.1,0.2-0.2C77.9,212.1,77.8,212.1,77.7,212.2z M94.9,212.2c0.1,0,0.2-0.1,0.2-0.2
							C94.9,212.1,94.9,212.1,94.9,212.2z M88.4,212.5c0-0.1-0.1-0.2-0.2-0.2C88.2,212.3,88.3,212.4,88.4,212.5z M69.2,212.3
							c-0.2,0.1-0.2,0.1-0.2,0.2C69.1,212.5,69.1,212.4,69.2,212.3z M60.3,212.6L60.3,212.6c0.1,0,0.2-0.1,0.2-0.2l0,0
							C60.4,212.5,60.3,212.5,60.3,212.6z M94.7,212.4L94.7,212.4c-0.1,0-0.2,0.1-0.2,0.2l0,0C94.6,212.5,94.7,212.5,94.7,212.4z
							 M54.3,212.6L54.3,212.6c0,0.1,0.1,0.2,0.2,0.2l0,0C54.5,212.7,54.5,212.6,54.3,212.6z M51.7,212.6c-0.1,0-0.2,0.1-0.2,0.2
							C51.6,212.8,51.7,212.7,51.7,212.6z M68.8,212.6c-0.1,0-0.2,0.1-0.2,0.2C68.7,212.8,68.8,212.7,68.8,212.6z M97.2,212.7
							c0.1,0,0.1,0.2,0.2,0.2C97.4,212.8,97.4,212.7,97.2,212.7z M89.1,213.2c0-0.1,0-0.2-0.2-0.3C89,213,89,213.1,89.1,213.2z
							 M51.1,213.2C51.1,213.2,51.2,213.2,51.1,213.2c0.1,0,0.2-0.1,0.2-0.2l0,0C51.2,213,51.2,213.1,51.1,213.2z M46.2,213
							c0.1,0.2,0.1,0.2,0.3,0.2C46.4,213.2,46.4,213.1,46.2,213z M59.8,213.1L59.8,213.1c-0.2,0.1-0.2,0.1-0.2,0.2
							C59.7,213.3,59.8,213.2,59.8,213.1z M94,213.1L94,213.1c-0.1,0-0.2,0.1-0.2,0.2l0,0C93.9,213.3,94,213.2,94,213.1z
							 M69.5,210.5L69.5,210.5c0-0.1,0-0.2-0.2-0.2C69.4,210.4,69.4,210.5,69.5,210.5z M95.2,210.6L95.2,210.6
							c0,0.1,0.1,0.2,0.1,0.2l0,0C95.4,210.7,95.3,210.6,95.2,210.6z M52.5,210.7c0,0.1,0.1,0.2,0.3,0.3
							C52.7,210.8,52.7,210.8,52.5,210.7z M86.8,210.7c0,0.1,0.1,0.2,0.2,0.2C87,210.9,86.9,210.8,86.8,210.7z M52.5,211.7
							L52.5,211.7c0.1,0,0.2-0.1,0.2-0.2l0,0C52.7,211.6,52.6,211.6,52.5,211.7z M45,211.8c-0.1-0.1-0.1-0.1-0.2-0.2
							C44.9,211.7,44.9,211.8,45,211.8z M62.1,211.8L62.1,211.8c0-0.1,0-0.2-0.2-0.2C62,211.7,62,211.7,62.1,211.8z M79,211.6
							c0,0.1,0.1,0.2,0.2,0.2C79.2,211.7,79.2,211.6,79,211.6z M61.2,211.7L61.2,211.7c-0.1,0-0.2,0.1-0.2,0.2l0,0
							C61.1,211.8,61.2,211.7,61.2,211.7z M53.8,212L53.8,212c0-0.1,0-0.2-0.2-0.3l0,0C53.6,211.9,53.7,212,53.8,212z M69.3,212.1
							L69.3,212.1c0.1,0,0.2-0.1,0.2-0.2l0,0C69.4,212,69.4,212,69.3,212.1z M45.2,212L45.2,212c0,0.1,0,0.1,0.1,0.2l0,0
							C45.4,212.1,45.3,212,45.2,212z M95.2,202.8L95.2,202.8c0.2-0.1,0.2-0.1,0.2-0.2C95.3,202.7,95.2,202.7,95.2,202.8z
							 M96.4,202.8c0-0.1-0.1-0.2-0.2-0.2C96.2,202.6,96.2,202.7,96.4,202.8z M52.7,220c0-0.1-0.1-0.2-0.2-0.2
							C52.6,219.8,52.7,219.9,52.7,220z M52.4,219.6c0-0.1,0-0.2-0.2-0.2C52.2,219.5,52.3,219.5,52.4,219.6z M69.1,219.2
							c0-0.1,0-0.2-0.2-0.2C69,219.1,69,219.2,69.1,219.2z M94.2,200.5C94.2,200.5,94.1,200.5,94.2,200.5c0,0.1,0,0.2,0.1,0.2l0,0
							C94.3,200.6,94.3,200.5,94.2,200.5z M96.5,202.9L96.5,202.9c0,0.1,0.1,0.2,0.1,0.2l0,0C96.7,203,96.6,203,96.5,202.9z
							 M71.4,218.9c0.1,0,0.2-0.1,0.2-0.2C71.5,218.7,71.5,218.8,71.4,218.9z M87,211.5c-0.2,0-0.2,0.1-0.2,0.2
							C86.9,211.7,87,211.6,87,211.5z M96.7,201.3c-0.2,0-0.2,0.1-0.2,0.2C96.6,201.4,96.7,201.4,96.7,201.3z M87.5,211.5
							L87.5,211.5c0,0.2,0,0.2,0.2,0.2C87.6,211.6,87.6,211.5,87.5,211.5z M70.6,211.6c0-0.1-0.1-0.1-0.2-0.2
							C70.5,211.6,70.5,211.6,70.6,211.6z M53.5,211.7c0-0.2-0.1-0.2-0.2-0.2C53.3,211.5,53.4,211.6,53.5,211.7z M96.2,211.6
							L96.2,211.6c0,0.2,0,0.2,0.2,0.2C96.3,211.7,96.3,211.6,96.2,211.6z M97.7,213.3C97.7,213.3,97.8,213.3,97.7,213.3
							c0-0.1,0-0.2-0.2-0.2C97.6,213.2,97.7,213.2,97.7,213.3z M96.7,210.3c-0.1,0-0.2,0.1-0.2,0.2
							C96.6,210.5,96.7,210.4,96.7,210.3z M86.5,210.3C86.5,210.3,86.4,210.3,86.5,210.3c0,0.1,0,0.2,0.2,0.2l0,0
							C86.6,210.5,86.5,210.4,86.5,210.3z M76.9,213.1L76.9,213.1c-0.2,0.1-0.2,0.1-0.2,0.2C76.8,213.3,76.9,213.2,76.9,213.1z
							 M53.6,210.6c0.1,0,0.2-0.1,0.2-0.2C53.7,210.5,53.6,210.5,53.6,210.6z M87.8,210.6C87.8,210.6,87.9,210.6,87.8,210.6
							c0.1,0,0.2-0.1,0.2-0.2l0,0C88,210.5,87.9,210.5,87.8,210.6z M61,210.6L61,210.6c0,0.1,0.1,0.2,0.2,0.2
							C61.1,210.7,61.1,210.6,61,210.6z M95.4,201.8c0-0.1-0.1-0.2-0.2-0.2C95.3,201.6,95.3,201.7,95.4,201.8z M96.4,210.7
							c-0.1,0-0.2,0.1-0.2,0.2l0,0C96.3,210.8,96.3,210.7,96.4,210.7z M52,219.2c0-0.1,0-0.1,0-0.1s0-0.1-0.1-0.1
							C51.9,219.1,52,219.2,52,219.2z M70.6,210.8C70.6,210.8,70.5,210.8,70.6,210.8c-0.1,0-0.2,0.1-0.2,0.2
							C70.5,210.9,70.5,210.9,70.6,210.8L70.6,210.8z M87.5,211c0.2-0.1,0.2-0.1,0.2-0.2C87.6,210.8,87.5,210.9,87.5,211z
							 M54.9,213.2C54.9,213.1,54.9,213.1,54.9,213.2c0-0.1-0.1-0.1-0.1-0.2l0,0C54.7,213,54.8,213.1,54.9,213.2z M80.3,212.9
							c0-0.1,0-0.2-0.2-0.2C80.1,212.8,80.2,212.9,80.3,212.9z M63,212.7c0,0.1,0,0.2,0.2,0.2C63.2,212.8,63.1,212.8,63,212.7z
							 M85.7,212.9c0.1-0.1,0.2-0.1,0.2-0.2C85.8,212.7,85.7,212.8,85.7,212.9z M88.5,212.5c0,0.1,0.1,0.2,0.2,0.2
							C88.7,212.7,88.6,212.6,88.5,212.5z M77.6,212.4L77.6,212.4c-0.1,0-0.2,0.1-0.2,0.2l0,0C77.5,212.5,77.5,212.5,77.6,212.4z
							 M53.9,219.3C54,219.3,54,219.3,53.9,219.3c0.2,0,0.2-0.1,0.2-0.2l0,0C54,219.1,54,219.2,53.9,219.3z M95.4,211.6
							c-0.1,0-0.2,0.1-0.2,0.2C95.4,211.8,95.4,211.7,95.4,211.6z M51.6,218.9c0-0.1,0-0.2-0.2-0.2
							C51.5,218.7,51.6,218.8,51.6,218.9z M52.4,211.9c-0.1,0-0.2,0.1-0.2,0.2C52.3,212,52.4,212,52.4,211.9z M68.6,218.6
							c0,0.1,0.1,0.2,0.2,0.2C68.8,218.8,68.7,218.7,68.6,218.6z M96.5,212c0,0.1,0,0.2,0.2,0.2C96.7,212.1,96.6,212,96.5,212z
							 M60.6,212.2C60.6,212.2,60.7,212.2,60.6,212.2c0.1,0,0.1-0.1,0.2-0.2C60.7,212.1,60.7,212.1,60.6,212.2z M54.1,212.4
							C54.1,212.4,54.2,212.4,54.1,212.4c0-0.1,0-0.2-0.2-0.2C54,212.3,54,212.4,54.1,212.4z M80.5,213.1L80.5,213.1
							c0,0.1,0,0.2,0.2,0.2C80.7,213.3,80.6,213.2,80.5,213.1L80.5,213.1z M86,203.6C86,203.6,85.9,203.6,86,203.6
							c-0.1,0-0.2,0.1-0.2,0.2C85.8,203.8,85.9,203.7,86,203.6z M53.3,220c0.1,0,0.2-0.1,0.2-0.2C53.4,219.9,53.3,219.9,53.3,220z
							 M54.3,209.9C54.3,209.9,54.4,209.9,54.3,209.9c0.1,0,0.2-0.1,0.2-0.2C54.4,209.7,54.4,209.8,54.3,209.9z M53.8,219.5
							c-0.1,0-0.2,0.1-0.2,0.2C53.7,219.6,53.8,219.5,53.8,219.5z M85.9,209.8c0-0.1-0.1-0.2-0.2-0.2
							C85.8,209.7,85.8,209.7,85.9,209.8z M63.2,209.5c-0.1,0-0.2,0.1-0.2,0.2C63.1,209.7,63.2,209.6,63.2,209.5z M45.9,209.8
							c0.1,0,0.2-0.1,0.2-0.2C46,209.6,45.9,209.7,45.9,209.8z M93.9,209.1c0,0.1,0,0.2,0.2,0.2C94,209.2,93.9,209.2,93.9,209.1z
							 M80.6,209.2c-0.1,0-0.2,0.1-0.2,0.2C80.6,209.3,80.6,209.3,80.6,209.2z M68.3,218.3L68.3,218.3c0,0.1,0.1,0.1,0.2,0.2l0,0
							C68.5,218.4,68.4,218.3,68.3,218.3z M94.9,210.2L94.9,210.2c0,0.1,0.1,0.1,0.1,0.2l0,0C95,210.3,95,210.3,94.9,210.2z
							 M89,203.9C89,203.9,88.9,203.9,89,203.9c0,0.1,0,0.2,0.1,0.2l0,0C89,204,89,204,89,203.9z M96.8,210.1c0.2,0,0.2-0.1,0.2-0.2
							C97,210,96.9,210,96.8,210.1z M62.5,210.3L62.5,210.3c-0.1,0-0.2,0.1-0.2,0.2l0,0C62.4,210.5,62.5,210.4,62.5,210.3z
							 M68.5,213L68.5,213c-0.1,0-0.2,0.1-0.2,0.1l0,0C68.4,213.2,68.4,213.1,68.5,213z M94.2,204c0.1,0,0.2-0.1,0.2-0.2
							C94.2,203.8,94.2,203.9,94.2,204z M52,212.3c-0.1,0.1-0.2,0.1-0.2,0.2C52,212.4,52,212.4,52,212.3z M86.3,212.3L86.3,212.3
							c-0.1,0-0.2,0.1-0.2,0.2C86.2,212.4,86.2,212.4,86.3,212.3z M63.4,213c0,0.1,0,0.2,0.2,0.2C63.5,213.2,63.5,213.1,63.4,213z
							 M79.8,212.3v0.1c0,0,0,0.1,0.1,0.1C79.9,212.5,79.9,212.4,79.8,212.3z M85.6,204C85.6,204,85.5,204,85.6,204
							c-0.1,0-0.2,0.1-0.2,0.2C85.5,204.1,85.5,204,85.6,204z M94.4,212.8L94.4,212.8c-0.1,0-0.2,0.1-0.2,0.2l0,0
							C94.3,212.9,94.4,212.9,94.4,212.8z M54.3,218.9c0.1,0,0.2-0.1,0.2-0.2C54.4,218.7,54.4,218.8,54.3,218.9z M71.7,212.8
							c-0.1-0.2-0.1-0.2-0.3-0.2C71.5,212.6,71.5,212.8,71.7,212.8z M97.8,204.2c0-0.1-0.1-0.1-0.2-0.2
							C97.6,204.1,97.7,204.2,97.8,204.2z M70.4,220c0,0,0.1-0.1,0.2-0.2l0,0C70.5,219.9,70.4,219.9,70.4,220z M45.5,210.1
							L45.5,210.1c0.1,0,0.2-0.1,0.2-0.2l0,0C45.6,210,45.6,210,45.5,210.1z M78.5,211c0,0.1,0,0.2,0.2,0.2
							C78.6,211.1,78.5,211,78.5,211z M62.6,210.1c0.1-0.1,0.2-0.1,0.2-0.3C62.8,210,62.6,210,62.6,210.1z M80,210
							C80,210,80,209.9,80,210c-0.1,0-0.2,0.1-0.2,0.2C79.9,210,79.9,210,80,210z M52,210.2c0-0.1-0.1-0.2-0.3-0.3
							C51.9,210,52,210.1,52,210.2z M86.3,210.2L86.3,210.2c0-0.1-0.1-0.2-0.1-0.2C86.1,210.1,86.2,210.1,86.3,210.2z M45,210.6
							c-0.1,0-0.2,0.1-0.2,0.2C45,210.8,45,210.8,45,210.6z M78.1,210.6L78.1,210.6c0,0.1,0,0.1,0.2,0.2l0,0
							C78.3,210.7,78.2,210.6,78.1,210.6z M52.2,210.3L52.2,210.3c0,0.1,0,0.2,0.1,0.2l0,0C52.4,210.5,52.3,210.4,52.2,210.3z
							 M96.1,201.8C96.1,201.8,96.2,201.8,96.1,201.8c0.1,0,0.2-0.1,0.2-0.2C96.2,201.7,96.2,201.8,96.1,201.8z M45.1,210.5
							C45.2,210.5,45.2,210.5,45.1,210.5c0.2-0.1,0.2-0.1,0.2-0.2C45.3,210.4,45.2,210.4,45.1,210.5z M68.3,209.3
							c0,0.1,0.1,0.1,0.1,0.2l0,0C68.5,209.4,68.4,209.3,68.3,209.3z M89.1,209.3L89.1,209.3c-0.1,0-0.2,0.1-0.2,0.2l0,0
							C89,209.5,89,209.4,89.1,209.3z M71,212c0-0.1-0.1-0.2-0.2-0.2C70.8,211.9,70.8,212,71,212z M51.7,209.8
							c0-0.1-0.1-0.1-0.2-0.2C51.5,209.7,51.6,209.8,51.7,209.8z M71.3,219.1L71.3,219.1c-0.1,0-0.2,0.1-0.2,0.2
							C71.2,219.2,71.2,219.2,71.3,219.1z M51.3,218.5C51.3,218.5,51.4,218.5,51.3,218.5c0-0.1-0.1-0.2-0.1-0.2l0,0
							C51.2,218.4,51.3,218.4,51.3,218.5z M86.6,211.9c-0.2,0.1-0.2,0.1-0.2,0.2C86.5,212,86.6,212,86.6,211.9z M53.3,211
							c0.1,0,0.2-0.1,0.2-0.2C53.4,210.8,53.3,210.9,53.3,211z M62.8,212.5C62.8,212.5,62.9,212.5,62.8,212.5c0-0.1,0-0.2-0.2-0.2
							C62.7,212.4,62.8,212.5,62.8,212.5z M94.9,201.2C94.9,201.2,94.8,201.2,94.9,201.2c0,0.1,0.1,0.2,0.2,0.3
							C95,201.3,95,201.2,94.9,201.2z M77.9,210.4c0-0.1,0-0.1-0.2-0.2C77.8,210.3,77.8,210.4,77.9,210.4z M97.2,200.7
							c0.1,0,0.2-0.1,0.2-0.2C97.3,200.5,97.3,200.6,97.2,200.7z M96.8,201.1C96.9,201.1,96.9,201.1,96.8,201.1
							c0.1,0,0.2-0.1,0.2-0.2C97,201,96.9,201,96.8,201.1z M85.6,213C85.6,213,85.5,213,85.6,213c-0.1,0-0.2,0.1-0.2,0.2
							C85.5,213.2,85.5,213.1,85.6,213z M87.9,211.8C87.9,211.8,87.8,211.8,87.9,211.8c0,0.1,0,0.2,0.1,0.2l0,0
							C88,212,87.9,211.9,87.9,211.8z M51.4,209.5c0-0.1,0-0.1-0.1-0.2C51.1,209.4,51.3,209.4,51.4,209.5z M85.5,209.4
							c0-0.1,0-0.1-0.1-0.1C85.4,209.3,85.5,209.4,85.5,209.4z M95,203c-0.1,0-0.1,0.1-0.1,0.2C95,203.2,95,203.1,95,203z"/>
						<path d="M104.4,215.7c-0.7-0.7-1.4-1.5-2.1-2.2c0,0,0-0.1,0.1-0.1c-0.1,0-0.1,0-0.2,0c-0.1-0.1-0.2-0.2-0.3-0.3
							c-0.4-0.4-0.7-0.8-1.1-1.2c-0.2-0.2-0.4-0.4-0.6-0.6c-0.1-0.1,0-0.1,0-0.2c0.4-0.4,0.7-0.8,1.1-1.1c0.3-0.3,0.5-0.6,0.8-0.9
							c0,0,0,0,0.1-0.1h0.1l0,0c0,0,0-0.1-0.1-0.1c0.2-0.2,0.5-0.5,0.7-0.7s0.5-0.5,0.7-0.7s0.4-0.4,0.5-0.6c0.1-0.1,0.1-0.2,0-0.3
							c-0.3-0.3-0.6-0.7-1-1c-0.3-0.4-0.6-0.7-1-1c0,0,0-0.1,0.1-0.1l0,0h-0.1c-0.1-0.1-0.2-0.2-0.3-0.3c-0.4-0.4-0.7-0.7-1-1.1
							c-0.2-0.2-0.5-0.5-0.7-0.7c-0.1-0.1,0-0.1,0-0.2c0.5-0.5,1-1.1,1.5-1.6c0.1-0.2,0.3-0.3,0.5-0.5h0.1l0,0c0,0,0-0.1-0.1-0.1
							c0.4-0.4,0.7-0.8,1.1-1.2c0.3-0.3,0.6-0.6,0.9-0.9l0.1-0.1c0,1.5,0,3,0,4.4c0,0,0,0-0.1-0.1l0,0c0.1,0.1,0.1,0.2,0,0.3
							c0.1,0,0.1,0,0.1-0.1c0,3,0,5.9,0,8.9h-0.1l0,0c0,0,0,0.1,0.1,0.1c0,0,0,0.1-0.1,0.1l0,0c0,0,0,0,0.1-0.1
							C104.4,212.8,104.4,214.3,104.4,215.7z M103.9,201.7c0,0.1,0,0.1,0.2,0.2C104.1,201.8,104,201.8,103.9,201.7z M103.4,212.3
							c-0.2,0-0.2,0.1-0.2,0.2C103.3,212.4,103.4,212.4,103.4,212.3z M104,211L104,211c0-0.1,0-0.2-0.2-0.2
							C103.9,210.8,104,210.9,104,211z M103.5,210.3L103.5,210.3c0,0.1,0,0.2,0.2,0.2l0,0C103.7,210.5,103.6,210.4,103.5,210.3z
							 M103.2,210c0,0.1,0.1,0.1,0.2,0.2C103.4,210.1,103.3,210,103.2,210z M102.8,209.6c0,0.1,0.1,0.2,0.2,0.2
							C103,209.7,103,209.6,102.8,209.6z M102.9,203.8c0-0.1,0.1-0.1,0.2-0.2C102.9,203.7,102.9,203.7,102.9,203.8z M102.7,204
							L102.7,204c-0.1,0-0.2,0.1-0.2,0.2C102.6,204.1,102.6,204.1,102.7,204z M104.1,211.5L104.1,211.5c-0.1,0-0.2,0.1-0.2,0.2l0,0
							C104,211.7,104,211.6,104.1,211.5z M102.7,209.5c0-0.1-0.1-0.2-0.2-0.2C102.5,209.3,102.5,209.4,102.7,209.5z M103.5,201.3
							c0,0.1,0.1,0.2,0.2,0.2C103.7,201.4,103.6,201.4,103.5,201.3z M103.2,200.9L103.2,200.9c0,0.1,0.1,0.2,0.2,0.2l0,0
							C103.4,201.1,103.3,201,103.2,200.9z M103,200.8c0-0.1-0.1-0.2-0.2-0.2C102.9,200.6,102.9,200.7,103,200.8z M102.5,213.2
							c0.1,0,0.2-0.1,0.2-0.2C102.5,213.1,102.5,213.1,102.5,213.2z M102.7,200.4L102.7,200.4c0-0.1-0.1-0.2-0.2-0.2
							C102.5,200.3,102.6,200.4,102.7,200.4z M103.9,202.7L103.9,202.7c0.1,0,0.2-0.1,0.2-0.2l0,0
							C104,202.5,103.9,202.6,103.9,202.7z M102.8,212.8C102.8,212.8,102.9,212.8,102.8,212.8c0.1,0,0.2-0.1,0.2-0.2l0,0
							C103,212.7,102.9,212.8,102.8,212.8z M103.7,211.9c-0.1,0-0.2,0.1-0.2,0.2C103.6,212,103.7,212,103.7,211.9z M103.5,203
							L103.5,203c0.1,0,0.2,0,0.2-0.2C103.6,202.9,103.6,203,103.5,203z M103.2,203.5L103.2,203.5c0.1-0.1,0.2-0.1,0.2-0.2l0,0
							C103.3,203.3,103.2,203.4,103.2,203.5z"/>
						<path d="M83,220.3c0.7-0.7,1.4-1.5,2.1-2.2h0.1l0,0c0,0,0-0.1-0.1-0.1c0.2-0.2,0.4-0.5,0.6-0.7c0.2-0.3,0.5-0.5,0.7-0.8
							c0.2-0.2,0.5-0.5,0.7-0.7c0,0,0,0,0.1,0c0.3,0.3,0.6,0.6,0.9,1c0.1,0.1,0.2,0.3,0.4,0.4c0,0,0,0.1,0.2,0
							c-0.1,0.1,0.1,0.2,0.1,0.3s0.1,0.1,0.2,0.2c0,0,0.1,0.1,0.2,0.2c0.1,0.1,0.1,0.2,0,0.3l0,0c0.1,0,0.1-0.1,0.2-0.1
							c0.4,0.3,0.7,0.7,1,1.1c0.4,0.4,0.7,0.7,1,1.1c-1.4,0-2.8,0-4.2,0l0,0c-0.1,0-0.1,0-0.3-0.1c0,0,0,0.1,0.1,0.1
							C85.8,220.3,84.4,220.3,83,220.3z M87,220c0-0.1-0.1-0.2-0.2-0.2C86.8,219.9,86.9,219.9,87,220z M88.4,219.1L88.4,219.1
							c-0.1,0-0.2,0.1-0.2,0.2l0,0C88.3,219.2,88.4,219.1,88.4,219.1z M86,218.9c0-0.1-0.1-0.2-0.2-0.2
							C85.7,218.7,85.8,218.8,86,218.9z M88.9,218.5L88.9,218.5c0.1,0,0.2-0.1,0.2-0.2l0,0C89,218.4,88.9,218.5,88.9,218.5z
							 M86.6,219.6c0-0.1-0.1-0.1-0.2-0.2C86.5,219.5,86.5,219.5,86.6,219.6z M88.5,218.9L88.5,218.9c0.1,0,0.2,0,0.2-0.2
							C88.6,218.8,88.6,218.8,88.5,218.9z M85.4,218.3c0,0.1,0,0.2,0.2,0.2C85.5,218.4,85.5,218.3,85.4,218.3z M87.8,219.6
							L87.8,219.6c0.1,0,0.2-0.1,0.2-0.2l0,0C88,219.5,87.9,219.5,87.8,219.6z M87.5,220c0.1-0.1,0.1-0.1,0.1-0.2
							C87.6,219.9,87.5,219.9,87.5,220z M86.2,219.1L86.2,219.1c0,0,0,0.1,0.1,0.1C86.3,219.2,86.2,219.1,86.2,219.1z"/>
						<path d="M91.6,220.3C91.6,220.2,91.5,220.2,91.6,220.3c0.1-0.2,0.3-0.3,0.4-0.5c0.2-0.2,0.4-0.4,0.6-0.6
							c0.2-0.2,0.5-0.4,0.6-0.7c0.1-0.2,0.4-0.3,0.5-0.5h0.1c0.4-0.4,0.7-0.7,1-1.1c0.2-0.3,0.5-0.5,0.7-0.8
							c0.1-0.1,0.2-0.2,0.3-0.4h0.1c0.4,0.4,0.7,0.8,1.1,1.2c0.3,0.3,0.5,0.5,0.8,0.8c0,0,0.1,0.1,0.1,0.2l0,0
							c0.2,0.1,0.3,0.2,0.5,0.4c0.5,0.5,1,1.1,1.6,1.7c0,0,0.1,0.1,0.1,0.2c-1.4,0-2.8,0-4.2,0c0,0,0.1-0.1,0.1-0.2l0,0
							c0,0-0.1,0.1-0.2,0.1s-0.1-0.2-0.3-0.2l0,0c0.1,0.1,0.2,0.1,0.3,0.2C94.4,220.3,93,220.3,91.6,220.3z M93.9,218.1L93.9,218.1
							c0,0.1,0,0.1,0.1,0.2l0,0C94,218.3,93.9,218.2,93.9,218.1z M94.7,219.1c0-0.1,0-0.2-0.2-0.2C94.5,219,94.6,219,94.7,219.1z
							 M94.3,218.7C94.4,218.7,94.4,218.7,94.3,218.7c0-0.1,0-0.2-0.2-0.2C94.2,218.6,94.3,218.7,94.3,218.7z M97.8,218.2
							c-0.1,0-0.2,0.1-0.2,0.2C97.7,218.4,97.7,218.3,97.8,218.2z M96.5,219.5L96.5,219.5c0.1,0,0.2-0.1,0.2-0.2l0,0
							C96.6,219.4,96.5,219.5,96.5,219.5z M95.4,219.9c0-0.1,0-0.2-0.2-0.2C95.3,219.7,95.3,219.8,95.4,219.9z M96.1,219.9
							L96.1,219.9c0.2,0,0.2-0.1,0.2-0.2C96.3,219.7,96.2,219.8,96.1,219.9z M94.9,219.2C94.9,219.3,94.9,219.3,94.9,219.2v0.1
							c0,0,0.1,0,0.1,0.1C95,219.4,95,219.3,94.9,219.2z M96.8,219.2c0.2,0,0.2-0.1,0.2-0.2C97,219,96.9,219.1,96.8,219.2z
							 M97.4,218.6c-0.1,0-0.2,0.1-0.3,0.2C97.3,218.7,97.3,218.7,97.4,218.6z"/>
						<path d="M57.3,220.2c0.1,0,0.2-0.1,0.2-0.2c0.4-0.4,0.8-0.9,1.2-1.3c0.2-0.2,0.4-0.5,0.6-0.7c0.3-0.4,0.7-0.7,1-1.1
							c0-0.1,0.1-0.1,0.2-0.2s0.1-0.1,0.2-0.2c0.2-0.2,0.3-0.3,0.5-0.5c0.1-0.1,0.1-0.2,0.2-0.3c0.1,0,0.1,0,0.2,0.1
							c0.3,0.3,0.5,0.6,0.8,0.9c0.3,0.3,0.6,0.7,1,1c0.1,0.1,0.2,0.1,0.2,0.3l0,0c0.4,0.2,0.5,0.5,0.8,0.8c0.5,0.5,0.9,1,1.4,1.5
							c-1.4,0-2.8,0-4.2,0c0,0,0.1-0.1,0.1-0.2l0,0c0,0-0.1,0.1-0.2,0.1c-0.1-0.1-0.1-0.1-0.2-0.2l0,0c0,0.1,0.1,0.2,0.3,0.3
							C60.1,220.3,58.7,220.3,57.3,220.2L57.3,220.2z M59.6,218.1c0,0.1,0,0.2,0.2,0.2C59.8,218.3,59.7,218.2,59.6,218.1z
							 M60.3,218.9c0,0.1,0.1,0.2,0.2,0.2C60.5,219,60.4,218.9,60.3,218.9z M60.9,219.5c0-0.1-0.1-0.1-0.2-0.2
							C60.7,219.3,60.7,219.4,60.9,219.5z M61,219.6L61,219.6c0,0.1,0,0.2,0.2,0.2C61.2,219.7,61.1,219.7,61,219.6z M63.2,218.6
							L63.2,218.6c-0.1,0-0.2,0.1-0.2,0.2l0,0C63.1,218.7,63.1,218.7,63.2,218.6z M60.1,218.7c0-0.1-0.1-0.2-0.2-0.2
							C60,218.6,60,218.7,60.1,218.7z M62.5,219.3c-0.2,0.1-0.2,0.1-0.2,0.2C62.4,219.5,62.5,219.4,62.5,219.3z M63.3,218.4
							C63.3,218.4,63.4,218.4,63.3,218.4c0.1,0,0.2-0.1,0.2-0.2l0,0C63.5,218.3,63.4,218.3,63.3,218.4z M62.1,219.7L62.1,219.7
							c-0.1,0-0.2,0.1-0.2,0.2C62,219.9,62.1,219.8,62.1,219.7z M62.7,219.1c0.1-0.1,0.1-0.1,0.1-0.2C62.8,219,62.7,219,62.7,219.1z
							"/>
						<path d="M74.5,220.3L74.5,220.3c0.2-0.2,0.4-0.4,0.5-0.6c0.2-0.2,0.3-0.4,0.5-0.5c0.1-0.1,0.2-0.2,0.3-0.3
							c0.3-0.4,0.6-0.7,1-1c0.2-0.3,0.5-0.5,0.7-0.8c0.3-0.4,0.7-0.7,1-1.1l0.1-0.1c0.1,0,0.1,0,0.1,0.1c0.3,0.4,0.6,0.7,1,1
							c0.3,0.3,0.6,0.6,1,1l0,0c0.1,0,0,0.2,0.2,0.2c0.1,0,0.1,0.1,0.2,0.2c0.1,0.1,0.1,0.1,0.2,0.2c0.1,0.1,0.1,0.1,0.2,0.2
							c0.1,0.1,0.1,0.1,0.2,0.2c0.4,0.4,0.7,0.8,1.1,1.1c0,0,0,0.1,0.1,0.1c-1.4,0-2.8,0-4.2,0c0,0,0.1-0.1,0.1-0.2
							c-0.1,0.1-0.2,0.1-0.2,0.2C77.3,220.3,75.9,220.3,74.5,220.3z M80.4,218.4C80.4,218.4,80.5,218.4,80.4,218.4
							c0.1,0,0.2-0.1,0.2-0.2l0,0C80.5,218.3,80.5,218.3,80.4,218.4z M78.5,220c0,0.1,0.1,0.2,0.2,0.2C78.6,220.1,78.6,220,78.5,220
							z M77,218.5c0,0.1,0.1,0.2,0.2,0.2C77.2,218.6,77.2,218.5,77,218.5z M79.3,219.7C79.3,219.7,79.2,219.7,79.3,219.7
							c-0.1,0-0.2,0.1-0.2,0.2l0,0C79.1,219.9,79.2,219.8,79.3,219.7z M76.7,218.1L76.7,218.1c0,0.1,0,0.1,0.2,0.2l0,0
							C76.9,218.3,76.8,218.2,76.7,218.1z M77.8,219.2c0,0.1,0.1,0.1,0.2,0.2C78,219.4,77.8,219.3,77.8,219.2z M79.4,219.5
							L79.4,219.5c0.1,0,0.2-0.1,0.2-0.2l0,0C79.5,219.4,79.5,219.5,79.4,219.5z M80.1,218.8L80.1,218.8c0.1,0,0.2-0.1,0.2-0.2
							C80.2,218.6,80.1,218.7,80.1,218.8z M78.1,219.6L78.1,219.6c0,0.1,0,0.1,0.2,0.2C78.3,219.8,78.2,219.7,78.1,219.6z
							 M77.4,218.9c0,0.1,0.1,0.2,0.2,0.2C77.6,219,77.5,218.9,77.4,218.9z M80,219C80,219,79.9,219,80,219c-0.1,0-0.2,0-0.2,0.2
							C79.9,219.1,79.9,219,80,219z"/>
						<path d="M44.5,215.8c0,0,0.1,0,0.1,0.1c0.3,0.3,0.5,0.6,0.8,0.9c0.2,0.3,0.5,0.5,0.7,0.8c0.1,0.1,0.2,0.3,0.4,0.4
							c0,0,0,0.1,0.1,0.2c0.1,0,0.1,0.1,0.2,0.1c0.6,0.6,1.2,1.3,1.9,2c0,0,0,0,0,0.1c-1.4,0-2.8,0-4.2,0c0,0,0.1-0.1,0.2-0.2l0,0
							c-0.1,0-0.1,0.1-0.2,0.1C44.5,218.7,44.5,217.2,44.5,215.8z M46.2,218.4L46.2,218.4c0.1,0,0.2-0.1,0.2-0.2
							C46.3,218.3,46.3,218.3,46.2,218.4z M45,219.7L45,219.7c-0.1,0-0.2,0.1-0.2,0.2l0,0C45,219.9,45,219.8,45,219.7z M45.9,218.8
							c0.1,0,0.2-0.1,0.2-0.2C46,218.6,45.9,218.7,45.9,218.8z M45.2,219.5L45.2,219.5c0.1,0,0.2-0.1,0.2-0.2
							C45.3,219.4,45.2,219.5,45.2,219.5z M45.8,219C45.7,219,45.7,219,45.8,219c-0.2,0-0.2,0-0.1,0.1C45.7,219,45.7,219,45.8,219z"
							/>
						<path d="M100.1,220.3c0.1-0.1,0.2-0.2,0.3-0.3c0.5-0.5,0.9-0.9,1.3-1.4c0.1-0.2,0.3-0.3,0.5-0.5h0.1l0,0c0,0,0-0.1-0.1-0.1
							c0.2-0.2,0.5-0.5,0.7-0.7c0.3-0.4,0.6-0.7,1-1c0.1-0.1,0.3-0.3,0.4-0.5c0,1.5,0,3,0,4.4c0,0,0,0-0.1-0.1l0,0
							c0,0,0,0.1,0.1,0.1C102.9,220.3,101.5,220.3,100.1,220.3z M103.9,219.7L103.9,219.7c0,0.1,0,0.2,0.2,0.3l0,0
							C104,219.9,104,219.8,103.9,219.7z M103.7,219.6c0-0.1-0.1-0.2-0.2-0.2C103.6,219.5,103.6,219.5,103.7,219.6z M103,218.9
							C103,218.9,103,218.8,103,218.9c0-0.1-0.1-0.2-0.2-0.2l0,0C102.9,218.7,102.9,218.8,103,218.9z M103.2,219L103.2,219
							c0,0.1,0.1,0.1,0.1,0.2l0,0C103.4,219.1,103.3,219,103.2,219z M102.7,218.5L102.7,218.5c0-0.1-0.1-0.2-0.2-0.2l0,0
							C102.5,218.4,102.5,218.4,102.7,218.5z"/>
						<path fill="#FFFFFF" d="M61.6,220.3c-0.1-0.1-0.2-0.1-0.3-0.3l0,0C61.5,220.1,61.5,220.1,61.6,220.3c0-0.1,0.1-0.1,0.2-0.2
							l0,0C61.8,220.1,61.7,220.2,61.6,220.3L61.6,220.3z"/>
						<path fill="#FFFFFF" d="M95.8,220.3c-0.1-0.1-0.2-0.1-0.3-0.2l0,0C95.7,220,95.7,220.1,95.8,220.3c0.1-0.1,0.1-0.2,0.2-0.2
							l0,0C96,220.1,95.9,220.2,95.8,220.3L95.8,220.3z"/>
						<path fill="#FFFFFF" d="M44.5,211.2c0,0,0.1-0.1,0.2-0.1l0,0C44.6,211.1,44.6,211.2,44.5,211.2c0.1,0.1,0.2,0.2,0.2,0.2
							C44.6,211.4,44.6,211.3,44.5,211.2C44.5,211.3,44.5,211.2,44.5,211.2z"/>
						<path fill="#FFFFFF" d="M104.4,211.3C104.3,211.4,104.3,211.4,104.4,211.3c-0.1,0.1-0.1,0.1-0.1,0.1
							C104.3,211.4,104.3,211.3,104.4,211.3c-0.1-0.1-0.1-0.1-0.1-0.2l0,0h0.1C104.4,211.1,104.4,211.2,104.4,211.3z"/>
						<path fill="#FFFFFF" d="M104.4,202.3c0,0,0,0-0.1,0.1c0-0.1,0.1-0.2,0-0.3l0,0C104.3,202.1,104.3,202.1,104.4,202.3
							C104.4,202.2,104.4,202.2,104.4,202.3z"/>
						<path fill="#FFFFFF" d="M53,220.3v-0.1c0.1,0,0.2,0,0.2,0.1C53.1,220.3,53,220.3,53,220.3z"/>
						<path fill="#FFFFFF" d="M70.1,220.3c0,0,0-0.1-0.1-0.1C70.1,220.2,70.2,220.2,70.1,220.3L70.1,220.3L70.1,220.3z"/>
						<path fill="#FFFFFF" d="M87.2,220.3c0,0,0-0.1-0.1-0.1c0.1,0,0.2,0,0.3,0.1l0,0C87.3,220.3,87.2,220.3,87.2,220.3z"/>
						<path fill="#FFFFFF" d="M44.5,220.2c0.1,0,0.1-0.1,0.2-0.1l0,0C44.7,220.1,44.6,220.2,44.5,220.2
							C44.5,220.3,44.5,220.2,44.5,220.2z"/>
						<path fill="#FFFFFF" d="M78.7,220.3c0-0.1,0.1-0.1,0.2-0.2C78.9,220.1,78.8,220.2,78.7,220.3L78.7,220.3z"/>
						<path fill="#FFFFFF" d="M104.3,220.3c0,0,0-0.1-0.1-0.1l0,0C104.3,220.2,104.3,220.2,104.3,220.3
							C104.3,220.2,104.4,220.3,104.3,220.3z"/>
						<path fill="#FFFFFF" d="M61.6,211.2c0,0,0.1-0.1,0.2-0.2C61.8,211.1,61.7,211.2,61.6,211.2c0.1,0.1,0.1,0.2,0.2,0.3
							c-0.1,0-0.1-0.1-0.2-0.1c-0.1,0.1-0.1,0.1-0.2,0.2c0-0.1,0-0.2,0.1-0.2C61.6,211.2,61.6,211.2,61.6,211.2L61.6,211.2z"/>
						<path fill="#FFFFFF" d="M95.8,211.2c0,0,0.1-0.1,0.2-0.1l0,0C96,211.1,95.9,211.2,95.8,211.2c0.1,0.1,0.2,0.2,0.2,0.2l0,0
							C96,211.4,95.9,211.3,95.8,211.2c-0.1,0.2-0.1,0.2-0.2,0.3C95.6,211.4,95.6,211.3,95.8,211.2L95.8,211.2L95.8,211.2z"/>
						<path fill="#FFFFFF" d="M95.8,202.3c0,0,0-0.1-0.1-0.1s-0.1-0.1-0.2-0.2l0,0c0.1,0,0.1,0.1,0.2,0.2c0,0,0.1-0.1,0.2-0.1
							C96,202,95.8,202.1,95.8,202.3L95.8,202.3C95.9,202.3,95.9,202.3,95.8,202.3L95.8,202.3z"/>
						<path fill="#FFFFFF" d="M52.9,211.1c0,0,0.1,0,0.2,0.1v0.1H53c0,0,0,0-0.1,0c0,0,0-0.1,0.1-0.1
							C53,211.2,52.9,211.1,52.9,211.1L52.9,211.1z"/>
						<path fill="#FFFFFF" d="M70.2,211.2v0.1c0,0-0.1,0-0.2,0.1c0,0,0-0.1,0.1-0.1c0,0,0-0.1-0.1-0.1
							C70.1,211.1,70.2,211.1,70.2,211.2z"/>
						<path fill="#FFFFFF" d="M87.1,211.4c0,0,0-0.1,0.1-0.1c0,0,0-0.1-0.1-0.1c0,0,0.2,0,0.2,0.1S87.2,211.3,87.1,211.4L87.1,211.4
							z"/>
						<path fill="#FFFFFF" d="M78.9,211c0,0-0.1,0.1-0.1,0.2c0,0,0.1,0.1,0.2,0.2c-0.2,0-0.2-0.1-0.2-0.2
							C78.7,211.2,78.8,211.1,78.9,211L78.9,211z"/>
						<path fill="#FFFFFF" d="M69.9,220c-0.1,0-0.2-0.1-0.2-0.2C69.8,219.8,69.8,219.9,69.9,220z"/>
						<path fill="#FFFFFF" d="M71.3,212.4c-0.1,0-0.2-0.1-0.2-0.2C71.2,212.2,71.2,212.2,71.3,212.4z"/>
						<path fill="#FFFFFF" d="M69.6,211.7c0-0.1,0.1-0.1,0.2-0.2l0,0C69.9,211.6,69.7,211.6,69.6,211.7
							C69.7,211.7,69.7,211.7,69.6,211.7z"/>
						<path fill="#FFFFFF" d="M79.4,210.5c0-0.1,0.1-0.2,0.2-0.3C79.6,210.4,79.5,210.5,79.4,210.5z"/>
						<path fill="#FFFFFF" d="M71,210.4c0,0.1-0.1,0.1-0.2,0.2C70.7,210.5,70.8,210.5,71,210.4L71,210.4z"/>
						<path fill="#FFFFFF" d="M71.8,213c0,0,0.1,0.1,0.2,0.2C71.9,213.1,71.8,213.1,71.8,213L71.8,213z"/>
						<path fill="#FFFFFF" d="M77,213c0-0.1,0.1-0.2,0.2-0.3C77.3,212.9,77.2,212.9,77,213z"/>
						<path fill="#FFFFFF" d="M62.5,212.2c0-0.1-0.1-0.1-0.2-0.2C62.5,212,62.5,212,62.5,212.2L62.5,212.2z"/>
						<path fill="#FFFFFF" d="M60.1,212.8c0,0.1-0.1,0.1-0.2,0.2C60,212.9,60,212.8,60.1,212.8z"/>
						<path fill="#FFFFFF" d="M46,212.9c0-0.1-0.1-0.1-0.2-0.2C46,212.8,46,212.8,46,212.9z"/>
						<path fill="#FFFFFF" d="M94.7,201c0,0-0.1-0.1-0.2-0.2C94.6,200.9,94.7,200.9,94.7,201z"/>
						<path fill="#FFFFFF" d="M69.9,210.9c-0.1,0-0.2-0.1-0.2-0.2C69.8,210.8,69.8,210.8,69.9,210.9z"/>
						<path fill="#FFFFFF" d="M79,210.9c0-0.1,0.1-0.1,0.2-0.2C79.2,210.7,79.2,210.8,79,210.9L79,210.9z"/>
						<path fill="#FFFFFF" d="M62.1,210.6c0,0.1-0.1,0.2-0.2,0.2C62,210.8,62,210.7,62.1,210.6z"/>
						<path fill="#FFFFFF" d="M69,210c0.1,0,0.2,0.1,0.2,0.2l0,0C69.1,210.1,69,210,69,210L69,210z"/>
						<path fill="#FFFFFF" d="M94.7,210.1c0-0.1-0.1-0.1-0.2-0.2l0,0C94.7,209.9,94.7,210,94.7,210.1C94.7,210,94.7,210,94.7,210.1z
							"/>
						<path fill="#FFFFFF" d="M77.4,209.9c0.1,0,0.2,0.1,0.2,0.2C77.5,210,77.5,210,77.4,209.9z"/>
						<path fill="#FFFFFF" d="M60.3,209.9c0.1,0,0.2,0.1,0.2,0.2C60.4,210,60.3,210,60.3,209.9z"/>
						<path fill="#FFFFFF" d="M97.4,209.5c0,0.1-0.1,0.2-0.2,0.2C97.2,209.7,97.3,209.6,97.4,209.5z"/>
						<path fill="#FFFFFF" d="M72,218.3c0,0.1-0.1,0.2-0.2,0.2C71.8,218.5,71.9,218.4,72,218.3z"/>
						<path fill="#FFFFFF" d="M46.5,209.2c0,0.1-0.1,0.2-0.2,0.2C46.3,209.3,46.3,209.2,46.5,209.2z"/>
						<path fill="#FFFFFF" d="M59.8,209.3c-0.1-0.1-0.1-0.1-0.2-0.2l0,0C59.7,209.1,59.8,209.2,59.8,209.3L59.8,209.3z"/>
						<path fill="#FFFFFF" d="M78.7,211.3c-0.1,0.1-0.1,0.1-0.2,0.2l0,0C78.5,211.4,78.5,211.3,78.7,211.3
							C78.6,211.3,78.7,211.3,78.7,211.3z"/>
						<path fill="#FFFFFF" d="M78.3,211.6c0,0.1-0.1,0.1-0.2,0.2C78.1,211.8,78.2,211.7,78.3,211.6z"/>
						<path fill="#FFFFFF" d="M88.2,203.1c0.1,0,0.2,0.1,0.2,0.2C88.3,203.3,88.2,203.3,88.2,203.1z"/>
						<path fill="#FFFFFF" d="M93.8,204.3c0-0.1,0.1-0.2,0.2-0.2C94,204.2,93.9,204.3,93.8,204.3z"/>
						<path fill="#FFFFFF" d="M97.5,200.3c0-0.1,0.1-0.1,0.2-0.2C97.8,200.2,97.7,200.3,97.5,200.3z"/>
						<path fill="#FFFFFF" d="M71,219.5c0,0.1-0.1,0.1-0.2,0.2C70.7,219.6,70.8,219.5,71,219.5L71,219.5z"/>
						<path fill="#FFFFFF" d="M94,200.3c-0.1,0-0.2-0.1-0.2-0.2l0,0C94,200.2,94,200.2,94,200.3L94,200.3z"/>
						<path fill="#FFFFFF" d="M69.4,219.4c0,0.1,0.1,0.1,0.2,0.2C69.4,219.5,69.4,219.5,69.4,219.4z"/>
						<path fill="#FFFFFF" d="M60.1,209.7c0-0.1-0.1-0.1-0.2-0.2l0,0C60,209.5,60.1,209.6,60.1,209.7L60.1,209.7z"/>
						<path fill="#FFFFFF" d="M71.7,209.5c0-0.1,0.1-0.1,0.2-0.2l0,0C72,209.4,71.8,209.4,71.7,209.5
							C71.8,209.5,71.8,209.5,71.7,209.5z"/>
						<path fill="#FFFFFF" d="M54.9,209.3c-0.1,0.1-0.1,0.1-0.2,0.2l0,0C54.7,209.4,54.7,209.4,54.9,209.3L54.9,209.3z"/>
						<path fill="#FFFFFF" d="M54.9,218.4c-0.1,0.1-0.1,0.1-0.2,0.2l0,0C54.7,218.5,54.7,218.4,54.9,218.4z"/>
						<path fill="#FFFFFF" d="M77.1,209.5c0.1,0,0.2,0.1,0.1,0.2C77.2,209.6,77.1,209.5,77.1,209.5C77,209.5,77,209.5,77.1,209.5z"
							/>
						<path fill="#FFFFFF" d="M94.2,209.5c0,0.1,0.1,0.1,0.2,0.2l0,0C94.2,209.6,94.2,209.5,94.2,209.5L94.2,209.5z"/>
						<path fill="#FFFFFF" d="M80.1,209.7c0-0.1,0.1-0.1,0.2-0.2C80.3,209.6,80.2,209.7,80.1,209.7
							C80.1,209.8,80.1,209.8,80.1,209.7z"/>
						<path fill="#FFFFFF" d="M68.8,209.8c-0.1,0-0.1-0.1-0.2-0.2C68.7,209.6,68.7,209.6,68.8,209.8
							C68.8,209.7,68.8,209.8,68.8,209.8L68.8,209.8z"/>
						<path fill="#FFFFFF" d="M71.4,209.9c0,0,0.1-0.1,0.2-0.2C71.6,209.8,71.5,209.8,71.4,209.9C71.5,209.9,71.4,209.9,71.4,209.9z
							"/>
						<path fill="#FFFFFF" d="M88.8,209.7c0,0.1-0.1,0.1-0.2,0.2C88.5,209.8,88.5,209.8,88.8,209.7
							C88.7,209.7,88.7,209.7,88.8,209.7z"/>
						<path fill="#FFFFFF" d="M54.2,210c0,0.1-0.1,0.1-0.2,0.2C54,210.1,54.1,210.1,54.2,210L54.2,210z"/>
						<path fill="#FFFFFF" d="M71.3,210c0,0.1-0.1,0.1-0.2,0.2C71,210.1,71.2,210.1,71.3,210C71.2,210,71.3,210,71.3,210z"/>
						<path fill="#FFFFFF" d="M88.2,210.3c0-0.1,0.1-0.1,0.2-0.2C88.4,210.1,88.3,210.2,88.2,210.3z"/>
						<path fill="#FFFFFF" d="M86.3,203.2c-0.1,0.1-0.1,0.1-0.2,0.2C86.1,203.3,86.2,203.3,86.3,203.2z"/>
						<path fill="#FFFFFF" d="M97.1,203.5c-0.1-0.1-0.2-0.2-0.3-0.3C97,203.3,97,203.4,97.1,203.5z"/>
						<path fill="#FFFFFF" d="M94.5,203.5c0-0.1,0.1-0.1,0.2-0.2l0,0C94.7,203.5,94.6,203.5,94.5,203.5
							C94.5,203.6,94.5,203.5,94.5,203.5z"/>
						<path fill="#FFFFFF" d="M88.5,203.5c0.1,0.1,0.1,0.1,0.2,0.2C88.6,203.7,88.6,203.7,88.5,203.5L88.5,203.5z"/>
						<path fill="#FFFFFF" d="M97.4,203.9c-0.1,0-0.1-0.1-0.2-0.2C97.3,203.7,97.4,203.7,97.4,203.9L97.4,203.9z"/>
						<path fill="#FFFFFF" d="M76.7,209.1c0.1,0.1,0.2,0.1,0.1,0.2C76.8,209.2,76.7,209.2,76.7,209.1L76.7,209.1z"/>
						<path fill="#FFFFFF" d="M63.5,209.1c0,0.1-0.1,0.2-0.2,0.2C63.4,209.3,63.4,209.2,63.5,209.1z"/>
						<path fill="#FFFFFF" d="M97.8,209.2c0,0.1-0.1,0.2-0.2,0.2C97.6,209.3,97.7,209.2,97.8,209.2L97.8,209.2z"/>
						<path fill="#FFFFFF" d="M79.6,212.2c-0.1,0-0.1-0.1-0.3-0.2C79.5,212,79.5,212,79.6,212.2z"/>
						<path fill="#FFFFFF" d="M77.7,212.2c0,0,0.1-0.1,0.2-0.2C78,212.1,77.9,212.2,77.7,212.2C77.8,212.2,77.7,212.2,77.7,212.2z"
							/>
						<path fill="#FFFFFF" d="M94.9,212.2c0-0.1,0-0.1,0.2-0.2C95,212.1,95,212.2,94.9,212.2z"/>
						<path fill="#FFFFFF" d="M88.4,212.5c-0.1-0.1-0.1-0.1-0.2-0.2C88.3,212.2,88.4,212.3,88.4,212.5z"/>
						<path fill="#FFFFFF" d="M69.2,212.3c0,0.1-0.1,0.2-0.2,0.2C69,212.4,69,212.4,69.2,212.3z"/>
						<path fill="#FFFFFF" d="M60.3,212.6c0-0.1,0.1-0.1,0.2-0.2l0,0C60.5,212.5,60.4,212.5,60.3,212.6L60.3,212.6z"/>
						<path fill="#FFFFFF" d="M94.7,212.4c0,0.1-0.1,0.1-0.2,0.2l0,0C94.5,212.5,94.6,212.5,94.7,212.4L94.7,212.4z"/>
						<path fill="#FFFFFF" d="M54.3,212.6c0.1,0,0.2,0.1,0.2,0.2l0,0C54.4,212.7,54.4,212.7,54.3,212.6L54.3,212.6z"/>
						<path fill="#FFFFFF" d="M51.7,212.6c0,0.1-0.1,0.2-0.2,0.2C51.5,212.8,51.6,212.7,51.7,212.6z"/>
						<path fill="#FFFFFF" d="M68.8,212.6c0,0.1-0.1,0.2-0.2,0.2C68.6,212.8,68.7,212.7,68.8,212.6z"/>
						<path fill="#FFFFFF" d="M97.2,212.7c0.1,0,0.2,0.1,0.2,0.2C97.3,212.9,97.3,212.8,97.2,212.7z"/>
						<path fill="#FFFFFF" d="M89.1,213.2c-0.1-0.1-0.1-0.2-0.2-0.3C89,213,89.1,213,89.1,213.2z"/>
						<path fill="#FFFFFF" d="M51.1,213.2c0-0.1,0.1-0.1,0.2-0.2l0,0C51.3,213.1,51.2,213.2,51.1,213.2
							C51.2,213.2,51.1,213.2,51.1,213.2z"/>
						<path fill="#FFFFFF" d="M46.2,213c0.2,0,0.2,0.1,0.3,0.2C46.3,213.3,46.3,213.2,46.2,213z"/>
						<path fill="#FFFFFF" d="M59.8,213.1c0,0.1-0.1,0.1-0.2,0.2C59.6,213.3,59.6,213.2,59.8,213.1L59.8,213.1z"/>
						<path fill="#FFFFFF" d="M94,213.1c0,0.1-0.1,0.1-0.2,0.2l0,0C93.8,213.3,93.9,213.2,94,213.1L94,213.1z"/>
						<path fill="#FFFFFF" d="M69.5,210.5c0,0-0.1-0.1-0.2-0.2C69.4,210.4,69.5,210.4,69.5,210.5L69.5,210.5z"/>
						<path fill="#FFFFFF" d="M95.2,210.6c0.1,0,0.2,0.1,0.2,0.2l0,0C95.3,210.7,95.3,210.7,95.2,210.6L95.2,210.6z"/>
						<path fill="#FFFFFF" d="M52.5,210.7c0.2,0,0.2,0.1,0.3,0.3C52.6,210.9,52.6,210.8,52.5,210.7z"/>
						<path fill="#FFFFFF" d="M86.8,210.7c0.1,0,0.2,0.1,0.2,0.2C86.9,210.9,86.8,210.8,86.8,210.7z"/>
						<path fill="#FFFFFF" d="M95.8,211.2C95.8,211.2,95.7,211.2,95.8,211.2c-0.2,0-0.2-0.1-0.3-0.2C95.7,211,95.7,211.1,95.8,211.2
							L95.8,211.2z"/>
						<path fill="#FFFFFF" d="M52.5,211.7c0-0.1,0.1-0.1,0.2-0.2l0,0C52.8,211.6,52.7,211.7,52.5,211.7L52.5,211.7z"/>
						<path fill="#FFFFFF" d="M45,211.8c-0.1,0-0.2-0.1-0.2-0.2C45,211.6,45,211.6,45,211.8z"/>
						<path fill="#FFFFFF" d="M62.1,211.8c0-0.1-0.1-0.1-0.2-0.2C62,211.6,62.1,211.7,62.1,211.8L62.1,211.8z"/>
						<path fill="#FFFFFF" d="M79,211.6c0.1,0,0.2,0.1,0.2,0.2C79.1,211.8,79.1,211.7,79,211.6z"/>
						<path fill="#FFFFFF" d="M61.2,211.7c0,0-0.1,0.1-0.2,0.2l0,0C61,211.8,61.1,211.7,61.2,211.7L61.2,211.7z"/>
						<path fill="#FFFFFF" d="M53.8,212c0-0.1-0.1-0.1-0.2-0.2l0,0C53.8,211.9,53.8,212,53.8,212L53.8,212z"/>
						<path fill="#FFFFFF" d="M69.3,212.1c0,0,0.1-0.1,0.2-0.2l0,0C69.5,212,69.4,212,69.3,212.1L69.3,212.1z"/>
						<path fill="#FFFFFF" d="M45.2,212c0,0,0.1,0.1,0.2,0.2l0,0C45.3,212.1,45.2,212,45.2,212L45.2,212z"/>
						<path fill="#FFFFFF" d="M95.2,202.8c0-0.1,0.1-0.1,0.2-0.2C95.4,202.7,95.4,202.7,95.2,202.8L95.2,202.8z"/>
						<path fill="#FFFFFF" d="M96.4,202.8c-0.1,0-0.2-0.1-0.2-0.2C96.3,202.6,96.3,202.7,96.4,202.8z"/>
						<path fill="#FFFFFF" d="M52.7,220c-0.1-0.1-0.1-0.1-0.2-0.2C52.7,219.8,52.7,219.9,52.7,220z"/>
						<path fill="#FFFFFF" d="M95.8,202.3c-0.1,0.1-0.1,0.2-0.3,0.2C95.6,202.4,95.7,202.3,95.8,202.3
							C95.7,202.2,95.8,202.3,95.8,202.3L95.8,202.3z"/>
						<path fill="#FFFFFF" d="M52.4,219.6c0,0-0.1-0.1-0.2-0.2C52.3,219.4,52.4,219.5,52.4,219.6z"/>
						<path fill="#FFFFFF" d="M69.1,219.2c0-0.1-0.1-0.1-0.2-0.2C69.1,219,69.1,219.1,69.1,219.2z"/>
						<path fill="#FFFFFF" d="M94.2,200.5c0,0.1,0.1,0.1,0.2,0.2l0,0C94.2,200.6,94.2,200.5,94.2,200.5L94.2,200.5z"/>
						<path fill="#FFFFFF" d="M96.5,202.9c0,0.1,0.1,0.1,0.2,0.2l0,0C96.6,203.1,96.5,203,96.5,202.9
							C96.5,203,96.5,202.9,96.5,202.9z"/>
						<path fill="#FFFFFF" d="M71.4,218.9c0-0.1,0-0.1,0.2-0.2C71.6,218.8,71.5,218.9,71.4,218.9z"/>
						<path fill="#FFFFFF" d="M87,211.5c0,0-0.1,0.1-0.2,0.2C86.8,211.7,86.9,211.6,87,211.5z"/>
						<path fill="#FFFFFF" d="M96.7,201.3c0,0-0.1,0.1-0.2,0.2C96.5,201.4,96.5,201.3,96.7,201.3z"/>
						<path fill="#FFFFFF" d="M87.5,211.5c0,0,0.1,0.1,0.2,0.2C87.5,211.6,87.5,211.6,87.5,211.5L87.5,211.5z"/>
						<path fill="#FFFFFF" d="M70.6,211.6c-0.1,0-0.1,0-0.2-0.2C70.5,211.5,70.5,211.5,70.6,211.6z"/>
						<path fill="#FFFFFF" d="M53.5,211.7c-0.1-0.1-0.1-0.1-0.2-0.2C53.4,211.5,53.4,211.5,53.5,211.7z"/>
						<path fill="#FFFFFF" d="M96.2,211.6c0,0,0.1,0.1,0.2,0.2C96.3,211.8,96.2,211.7,96.2,211.6L96.2,211.6z"/>
						<path fill="#FFFFFF" d="M97.7,213.3c0,0-0.1-0.1-0.2-0.2C97.7,213.1,97.7,213.1,97.7,213.3C97.8,213.3,97.7,213.3,97.7,213.3z
							"/>
						<path fill="#FFFFFF" d="M96.7,210.3c0,0.1-0.1,0.2-0.2,0.2C96.5,210.4,96.6,210.4,96.7,210.3z"/>
						<path fill="#FFFFFF" d="M86.5,210.3c0,0.1,0.1,0.1,0.2,0.2l0,0C86.5,210.5,86.5,210.4,86.5,210.3
							C86.4,210.4,86.5,210.3,86.5,210.3z"/>
						<path fill="#FFFFFF" d="M76.9,213.1c0,0.1-0.1,0.1-0.2,0.2C76.7,213.3,76.7,213.2,76.9,213.1L76.9,213.1z"/>
						<path fill="#FFFFFF" d="M53.6,210.6c0-0.1,0.1-0.2,0.2-0.2C53.8,210.5,53.7,210.5,53.6,210.6z"/>
						<path fill="#FFFFFF" d="M87.8,210.6c0-0.1,0.1-0.1,0.2-0.2l0,0C88,210.5,87.9,210.5,87.8,210.6
							C87.9,210.6,87.8,210.6,87.8,210.6z"/>
						<path fill="#FFFFFF" d="M61,210.6c0,0,0.1,0.1,0.2,0.2C61.1,210.8,61,210.7,61,210.6L61,210.6z"/>
						<path fill="#FFFFFF" d="M95.4,201.8c-0.1-0.1-0.1-0.1-0.2-0.2C95.3,201.6,95.4,201.6,95.4,201.8z"/>
						<path fill="#FFFFFF" d="M96.4,210.7c0,0.1-0.1,0.1-0.2,0.2l0,0C96.2,210.8,96.2,210.7,96.4,210.7z"/>
						<path fill="#FFFFFF" d="M52,219.2c0-0.1-0.1-0.1-0.2-0.2c0.1,0,0.1,0,0.1,0.1C52,219.1,52.1,219.1,52,219.2z"/>
						<path fill="#FFFFFF" d="M70.6,210.8C70.6,210.8,70.6,210.9,70.6,210.8c-0.1,0.1-0.1,0.1-0.2,0.2
							C70.4,210.9,70.5,210.9,70.6,210.8C70.5,210.8,70.6,210.8,70.6,210.8z"/>
						<path fill="#FFFFFF" d="M87.5,211c0,0,0.1-0.1,0.2-0.2C87.7,210.9,87.7,210.9,87.5,211z"/>
						<path fill="#FFFFFF" d="M54.9,213.2c-0.1,0-0.2-0.1-0.2-0.2l0,0C54.8,213,54.8,213.1,54.9,213.2
							C54.9,213.1,54.9,213.1,54.9,213.2z"/>
						<path fill="#FFFFFF" d="M80.3,212.9c-0.1,0-0.2-0.1-0.2-0.2C80.2,212.7,80.3,212.8,80.3,212.9z"/>
						<path fill="#FFFFFF" d="M63,212.7c0,0.1,0.1,0.1,0.2,0.2C63.1,212.9,63,212.8,63,212.7z"/>
						<path fill="#FFFFFF" d="M85.7,212.9c0-0.1,0.1-0.2,0.2-0.2C86,212.7,85.8,212.8,85.7,212.9z"/>
						<path fill="#FFFFFF" d="M88.5,212.5c0.1,0,0.1,0.1,0.2,0.2C88.6,212.8,88.6,212.7,88.5,212.5z"/>
						<path fill="#FFFFFF" d="M77.6,212.4c0,0.1-0.1,0.1-0.2,0.2l0,0C77.5,212.5,77.5,212.5,77.6,212.4L77.6,212.4z"/>
						<path fill="#FFFFFF" d="M53.9,219.3c0,0,0.1-0.1,0.2-0.2l0,0C54.1,219.2,54.1,219.2,53.9,219.3C54,219.3,54,219.3,53.9,219.3z
							"/>
						<path fill="#FFFFFF" d="M95.4,211.6c0,0.1,0,0.2-0.2,0.2C95.2,211.8,95.3,211.7,95.4,211.6z"/>
						<path fill="#FFFFFF" d="M51.6,218.9c0,0-0.1-0.1-0.2-0.2C51.6,218.7,51.7,218.7,51.6,218.9z"/>
						<path fill="#FFFFFF" d="M52.4,211.9c0,0.1-0.1,0.1-0.2,0.2C52.2,212,52.3,212,52.4,211.9z"/>
						<path fill="#FFFFFF" d="M68.6,218.6c0.1,0,0.2,0.1,0.2,0.2C68.7,218.8,68.6,218.7,68.6,218.6z"/>
						<path fill="#FFFFFF" d="M96.5,212c0,0.1,0.1,0.1,0.2,0.2C96.6,212.1,96.5,212.1,96.5,212z"/>
						<path fill="#FFFFFF" d="M60.6,212.2c0-0.1,0.1-0.1,0.2-0.2C60.8,212.1,60.7,212.2,60.6,212.2
							C60.7,212.2,60.6,212.2,60.6,212.2z"/>
						<path fill="#FFFFFF" d="M54.1,212.4c0-0.1-0.1-0.1-0.2-0.2C54.1,212.2,54.1,212.3,54.1,212.4
							C54.2,212.4,54.1,212.4,54.1,212.4z"/>
						<path fill="#FFFFFF" d="M80.5,213.1L80.5,213.1c0.1,0.1,0.2,0.1,0.2,0.2C80.5,213.2,80.5,213.1,80.5,213.1L80.5,213.1z"/>
						<path fill="#FFFFFF" d="M86,203.6c0,0.1-0.1,0.1-0.2,0.2C85.7,203.8,85.8,203.7,86,203.6C85.9,203.6,86,203.6,86,203.6z"/>
						<path fill="#FFFFFF" d="M53.3,220c0-0.1,0.1-0.2,0.2-0.2C53.5,219.9,53.4,220,53.3,220z"/>
						<path fill="#FFFFFF" d="M54.3,209.9c0,0,0.1-0.1,0.2-0.2C54.5,209.8,54.4,209.8,54.3,209.9L54.3,209.9z"/>
						<path fill="#FFFFFF" d="M53.8,219.5c0,0.1-0.1,0.2-0.2,0.2C53.6,219.5,53.7,219.5,53.8,219.5z"/>
						<path fill="#FFFFFF" d="M85.9,209.8c-0.1-0.1-0.2-0.1-0.2-0.2C85.9,209.6,85.9,209.7,85.9,209.8z"/>
						<path fill="#FFFFFF" d="M63.2,209.5c0,0.1-0.1,0.2-0.2,0.2C63,209.7,63.1,209.6,63.2,209.5z"/>
						<path fill="#FFFFFF" d="M45.9,209.8c0-0.1,0.1-0.2,0.2-0.2C46.1,209.6,46,209.7,45.9,209.8z"/>
						<path fill="#FFFFFF" d="M93.9,209.1c0,0.1,0.1,0.1,0.2,0.2C93.9,209.3,93.9,209.2,93.9,209.1z"/>
						<path fill="#FFFFFF" d="M80.6,209.2c0,0.1,0,0.1-0.2,0.2C80.5,209.3,80.5,209.2,80.6,209.2z"/>
						<path fill="#FFFFFF" d="M88,203"/>
						<path fill="#FFFFFF" d="M68.3,218.3c0.1,0,0.2,0.1,0.2,0.2l0,0C68.4,218.4,68.3,218.4,68.3,218.3L68.3,218.3z"/>
						<path fill="#FFFFFF" d="M94.9,210.2c0.1,0,0.1,0.1,0.2,0.2l0,0C95,210.4,94.9,210.3,94.9,210.2L94.9,210.2z"/>
						<path fill="#FFFFFF" d="M89,203.9c0,0,0.1,0.1,0.2,0.2l0,0C89,204,89,204,89,203.9C88.9,203.9,88.9,203.9,89,203.9z"/>
						<path fill="#FFFFFF" d="M96.8,210.1c0,0,0.1-0.1,0.2-0.2C97,210,97,210,96.8,210.1z"/>
						<path fill="#FFFFFF" d="M80.7,204.2"/>
						<path fill="#FFFFFF" d="M62.5,210.3c0,0.1-0.1,0.1-0.2,0.2l0,0C62.4,210.5,62.5,210.4,62.5,210.3L62.5,210.3z"/>
						<path fill="#FFFFFF" d="M68.5,213c0,0-0.1,0.1-0.2,0.2l0,0C68.3,213.2,68.4,213.1,68.5,213L68.5,213z"/>
						<path fill="#FFFFFF" d="M94.2,204c0-0.1,0.1-0.1,0.2-0.2C94.4,203.8,94.3,203.9,94.2,204z"/>
						<path fill="#FFFFFF" d="M52,212.3c0,0.1,0,0.1-0.2,0.2C51.9,212.4,51.9,212.4,52,212.3z"/>
						<path fill="#FFFFFF" d="M86.3,212.3c0,0.1-0.1,0.1-0.2,0.2C86.1,212.4,86.2,212.3,86.3,212.3L86.3,212.3z"/>
						<path fill="#FFFFFF" d="M63.4,213c0,0,0.1,0.1,0.2,0.2C63.4,213.2,63.4,213.2,63.4,213z"/>
						<path fill="#FFFFFF" d="M79.8,212.3c0,0,0.1,0.1,0.2,0.2C79.9,212.5,79.9,212.5,79.8,212.3C79.8,212.4,79.8,212.4,79.8,212.3z
							"/>
						<path fill="#FFFFFF" d="M85.6,204c-0.1,0-0.1,0.1-0.2,0.2C85.4,204.1,85.5,204,85.6,204L85.6,204z"/>
						<path fill="#FFFFFF" d="M94.4,212.8c0,0.1-0.1,0.1-0.2,0.2l0,0C94.2,212.9,94.3,212.8,94.4,212.8L94.4,212.8z"/>
						<path fill="#FFFFFF" d="M54.3,218.9c0-0.1,0.1-0.1,0.2-0.2C54.5,218.8,54.4,218.9,54.3,218.9z"/>
						<path fill="#FFFFFF" d="M71.7,212.8c-0.2,0-0.2-0.1-0.3-0.2C71.5,212.6,71.5,212.6,71.7,212.8z"/>
						<path fill="#FFFFFF" d="M97.8,204.2c-0.1,0-0.2-0.1-0.2-0.2C97.7,204.1,97.8,204.2,97.8,204.2z"/>
						<path fill="#FFFFFF" d="M70.4,220c0-0.1,0-0.2,0.2-0.2l0,0C70.5,219.9,70.5,220,70.4,220z"/>
						<path fill="#FFFFFF" d="M45.5,210.1c0.1-0.1,0.1-0.1,0.2-0.2l0,0C45.7,210,45.6,210.1,45.5,210.1L45.5,210.1z"/>
						<path fill="#FFFFFF" d="M78.5,211c0,0.1,0.1,0.1,0.2,0.2C78.5,211.1,78.5,211,78.5,211z"/>
						<path fill="#FFFFFF" d="M61.6,211.2C61.5,211.2,61.5,211.2,61.6,211.2c-0.2,0-0.2-0.1-0.3-0.2C61.5,211,61.5,211.1,61.6,211.2
							L61.6,211.2z"/>
						<path fill="#FFFFFF" d="M62.6,210.1c0-0.1,0.1-0.2,0.2-0.3C62.9,210,62.7,210,62.6,210.1z"/>
						<path fill="#FFFFFF" d="M80,210c0,0-0.1,0.1-0.2,0.2C79.8,210,79.8,210,80,210C80,209.9,80,210,80,210z"/>
						<path fill="#FFFFFF" d="M52,210.2c-0.1-0.1-0.2-0.2-0.3-0.3C52,210,52,210.1,52,210.2z"/>
						<path fill="#FFFFFF" d="M86.3,210.2c-0.1,0-0.2-0.1-0.1-0.2C86.2,210,86.2,210.1,86.3,210.2L86.3,210.2z"/>
						<path fill="#FFFFFF" d="M45,210.6c0,0.1-0.1,0.2-0.2,0.2C44.9,210.8,45,210.7,45,210.6z"/>
						<path fill="#FFFFFF" d="M78.1,210.6c0,0.1,0.1,0.1,0.2,0.2l0,0C78.2,210.8,78.1,210.7,78.1,210.6L78.1,210.6z"/>
						<path fill="#FFFFFF" d="M52.2,210.3c0,0,0.1,0.1,0.2,0.2l0,0C52.2,210.5,52.2,210.4,52.2,210.3
							C52.2,210.4,52.2,210.4,52.2,210.3z"/>
						<path fill="#FFFFFF" d="M96.1,201.8c0-0.1,0.1-0.1,0.2-0.2C96.3,201.7,96.2,201.8,96.1,201.8
							C96.2,201.8,96.1,201.8,96.1,201.8z"/>
						<path fill="#FFFFFF" d="M45.1,210.5c0,0,0.1-0.1,0.2-0.2C45.4,210.4,45.4,210.4,45.1,210.5C45.2,210.5,45.2,210.5,45.1,210.5z
							"/>
						<path fill="#FFFFFF" d="M68.3,209.3c0,0,0.1,0.1,0.1,0.2l0,0C68.4,209.4,68.3,209.4,68.3,209.3z"/>
						<path fill="#FFFFFF" d="M89.1,209.3c-0.1,0-0.1,0.1-0.2,0.2l0,0C88.9,209.4,89,209.3,89.1,209.3L89.1,209.3z"/>
						<path fill="#FFFFFF" d="M71,212c-0.1,0-0.2-0.1-0.2-0.2C70.9,211.9,70.9,212,71,212z"/>
						<path fill="#FFFFFF" d="M51.7,209.8c-0.1,0-0.2-0.1-0.2-0.2C51.6,209.6,51.7,209.7,51.7,209.8z"/>
						<path fill="#FFFFFF" d="M86.5,203.1"/>
						<path fill="#FFFFFF" d="M71.3,219.1c0,0.1-0.1,0.1-0.2,0.2C71.1,219.2,71.2,219.1,71.3,219.1L71.3,219.1z"/>
						<path fill="#FFFFFF" d="M51.3,218.5c0,0-0.1-0.1-0.2-0.2l0,0C51.2,218.4,51.3,218.5,51.3,218.5
							C51.4,218.5,51.3,218.5,51.3,218.5z"/>
						<path fill="#FFFFFF" d="M86.6,211.9c0,0-0.1,0.1-0.2,0.2C86.5,212,86.5,212,86.6,211.9z"/>
						<path fill="#FFFFFF" d="M53.3,211c0-0.1,0.1-0.2,0.2-0.2C53.5,210.9,53.4,211,53.3,211z"/>
						<path fill="#FFFFFF" d="M62.8,212.5c0,0-0.1-0.1-0.2-0.2C62.8,212.4,62.8,212.5,62.8,212.5L62.8,212.5z"/>
						<path fill="#FFFFFF" d="M94.9,201.2c0.1,0,0.2,0.1,0.2,0.3C95,201.4,94.9,201.3,94.9,201.2L94.9,201.2z"/>
						<path fill="#FFFFFF" d="M77.9,210.4c0,0-0.1-0.1-0.2-0.2C77.9,210.3,78,210.4,77.9,210.4z"/>
						<path fill="#FFFFFF" d="M97.2,200.7c0-0.1,0.1-0.2,0.2-0.2C97.4,200.6,97.3,200.7,97.2,200.7z"/>
						<path fill="#FFFFFF" d="M96.8,201.1c0,0,0.1-0.1,0.2-0.2C97,201,97,201,96.8,201.1C96.9,201.1,96.9,201.1,96.8,201.1z"/>
						<path fill="#FFFFFF" d="M85.6,213c-0.1,0-0.1,0.1-0.2,0.2C85.4,213.1,85.5,213.1,85.6,213L85.6,213z"/>
						<path fill="#FFFFFF" d="M87.9,211.8c0,0,0.1,0.1,0.2,0.2l0,0C87.9,212,87.9,211.9,87.9,211.8L87.9,211.8z"/>
						<path fill="#FFFFFF" d="M51.4,209.5c0,0-0.2-0.1-0.1-0.2C51.3,209.3,51.4,209.4,51.4,209.5z"/>
						<path fill="#FFFFFF" d="M85.5,209.4l-0.1-0.1C85.5,209.3,85.5,209.3,85.5,209.4z"/>
						<path fill="#FFFFFF" d="M95,203c0,0.1,0,0.1-0.1,0.2C94.9,203.1,94.9,203.1,95,203z"/>
						<path fill="#FFFFFF" d="M45.6,212.5l-0.1-0.1C45.6,212.4,45.6,212.4,45.6,212.5L45.6,212.5z"/>
						<path fill="#FFFFFF" d="M97,212.5c-0.1,0-0.1,0-0.1-0.1C97,212.3,97,212.4,97,212.5L97,212.5z"/>
						<path fill="#FFFFFF" d="M55.1,218c0.1,0.1,0,0.1-0.1,0.1C55,218.1,55,218.1,55.1,218L55.1,218z"/>
						<path fill="#FFFFFF" d="M97,212.5C97,212.5,97.1,212.5,97,212.5L97,212.5L97,212.5z"/>
						<path fill="#FFFFFF" d="M60.7,210.3c0.1,0,0.1,0,0.1,0.1C60.7,210.4,60.7,210.4,60.7,210.3L60.7,210.3z"/>
						<path fill="#FFFFFF" d="M95.9,202.3c0.1,0,0.1,0,0.2,0.1C95.9,202.4,95.9,202.3,95.9,202.3L95.9,202.3z"/>
						<path fill="#FFFFFF" d="M60.7,210.3C60.6,210.3,60.6,210.3,60.7,210.3C60.7,210.2,60.7,210.3,60.7,210.3L60.7,210.3z"/>
						<path fill="#FFFFFF" d="M45.6,212.5C45.7,212.5,45.7,212.5,45.6,212.5C45.7,212.5,45.7,212.5,45.6,212.5L45.6,212.5z"/>
						<path d="M89.1,217.5C89.2,217.5,89.2,217.5,89.1,217.5L89.1,217.5C89.2,217.5,89.2,217.5,89.1,217.5L89.1,217.5z"/>
						<path d="M92.1,219.5C92.1,219.5,92.1,219.6,92.1,219.5C92,219.6,92,219.6,92.1,219.5C92,219.6,92.1,219.5,92.1,219.5
							L92.1,219.5z"/>
						<path d="M89.4,214.9C89.5,214.9,89.5,214.9,89.4,214.9L89.4,214.9L89.4,214.9L89.4,214.9z"/>
						<path d="M91.2,213.2L91.2,213.2C91.2,213.3,91.2,213.3,91.2,213.2C91.2,213.3,91.2,213.3,91.2,213.2
							C91.1,213.2,91.1,213.2,91.2,213.2z"/>
						<path d="M91,212.2C91,212.2,91.1,212.2,91,212.2C91.1,212.2,91.1,212.2,91,212.2C91.1,212.3,91,212.2,91,212.2z"/>
						<path d="M92.3,218.1L92.3,218.1L92.3,218.1L92.3,218.1L92.3,218.1z"/>
						<path d="M88.2,215.3L88.2,215.3C88.2,215.4,88.2,215.4,88.2,215.3L88.2,215.3z"/>
						<path d="M91.1,219.4L91.1,219.4L91.1,219.4L91.1,219.4z"/>
						<path d="M94.8,198.3C94.8,198.3,94.9,198.3,94.8,198.3C94.9,198.3,94.9,198.3,94.8,198.3C94.9,198.3,94.9,198.3,94.8,198.3z"
							/>
						<path d="M56.9,219.4L56.9,219.4L56.9,219.4L56.9,219.4L56.9,219.4z"/>
						<path d="M57.9,219.5C57.8,219.5,57.8,219.5,57.9,219.5C57.8,219.6,57.8,219.6,57.9,219.5C57.8,219.6,57.8,219.5,57.9,219.5z"
							/>
						<path d="M57,213.3L57,213.3C56.9,213.3,56.9,213.3,57,213.3C56.9,213.2,56.9,213.2,57,213.3C56.9,213.2,56.9,213.2,57,213.3z"
							/>
						<path d="M58,218.1L58,218.1L58,218.1L58,218.1C58.1,218.1,58,218.1,58,218.1z"/>
						<path d="M54.9,217.5L54.9,217.5C55,217.5,54.9,217.5,54.9,217.5L54.9,217.5z"/>
						<path d="M59.7,216.2L59.7,216.2L59.7,216.2L59.7,216.2C59.8,216.2,59.7,216.2,59.7,216.2z"/>
						<path d="M54,215.3L54,215.3C53.9,215.4,53.9,215.4,54,215.3C53.9,215.3,53.9,215.3,54,215.3L54,215.3z"/>
						<path d="M75,219.5L75,219.5C75,219.6,75,219.6,75,219.5C74.9,219.6,75,219.5,75,219.5z"/>
						<path d="M74.1,213.3C74,213.3,74,213.3,74.1,213.3C74,213.3,74,213.3,74.1,213.3L74.1,213.3C74,213.2,74,213.2,74.1,213.3z"/>
						<path d="M73.9,212.2C73.9,212.2,73.9,212.2,73.9,212.2C74,212.2,74,212.2,73.9,212.2L73.9,212.2z"/>
						<path d="M72,217.5L72,217.5L72,217.5C72.1,217.5,72,217.5,72,217.5L72,217.5z"/>
						<path d="M71,215.3L71,215.3C71.1,215.3,71,215.3,71,215.3L71,215.3z"/>
						<path fill="#FFFFFF" d="M103.9,201.7c0.1,0.1,0.2,0.1,0.2,0.2C103.9,201.8,103.9,201.8,103.9,201.7z"/>
						<path fill="#FFFFFF" d="M103.4,212.3c0,0.1-0.1,0.1-0.2,0.2C103.2,212.4,103.2,212.4,103.4,212.3z"/>
						<path fill="#FFFFFF" d="M104,211c0-0.1-0.1-0.1-0.2-0.2C104,210.8,104.1,210.8,104,211C104.1,210.9,104.1,211,104,211z"/>
						<path fill="#FFFFFF" d="M103.5,210.3c0,0.1,0.1,0.1,0.2,0.2l0,0C103.6,210.5,103.5,210.4,103.5,210.3
							C103.5,210.4,103.5,210.3,103.5,210.3z"/>
						<path fill="#FFFFFF" d="M103.2,210c0.1,0,0.2,0.1,0.2,0.2C103.3,210.1,103.2,210.1,103.2,210z"/>
						<path fill="#FFFFFF" d="M102.8,209.6c0.1,0,0.2,0.1,0.2,0.2C103,209.8,102.9,209.7,102.8,209.6z"/>
						<path fill="#FFFFFF" d="M102.9,203.8c0-0.1,0-0.2,0.2-0.2C103,203.7,103,203.8,102.9,203.8z"/>
						<path fill="#FFFFFF" d="M102.7,204c-0.1,0-0.1,0.1-0.2,0.2C102.5,204.1,102.5,204,102.7,204L102.7,204z"/>
						<path fill="#FFFFFF" d="M104.1,211.5c-0.1,0.1-0.1,0.1-0.2,0.2l0,0C103.9,211.7,104,211.6,104.1,211.5L104.1,211.5z"/>
						<path fill="#FFFFFF" d="M102.7,209.5c-0.1,0-0.2-0.1-0.2-0.2C102.6,209.3,102.6,209.4,102.7,209.5z"/>
						<path fill="#FFFFFF" d="M103.5,201.3c0.1,0,0.2,0.1,0.2,0.2C103.6,201.5,103.6,201.4,103.5,201.3z"/>
						<path fill="#FFFFFF" d="M103.2,200.9c0,0.1,0.1,0.1,0.2,0.2l0,0C103.3,201.1,103.2,201,103.2,200.9
							C103.2,201,103.2,201,103.2,200.9z"/>
						<path fill="#FFFFFF" d="M103,200.8c-0.1,0-0.2-0.1-0.2-0.2C103,200.6,103,200.7,103,200.8z"/>
						<path fill="#FFFFFF" d="M102.5,213.2c0-0.1,0-0.1,0.2-0.2C102.7,213.1,102.6,213.2,102.5,213.2z"/>
						<path fill="#FFFFFF" d="M102.7,200.4c-0.1,0-0.2-0.1-0.2-0.2C102.6,200.3,102.6,200.3,102.7,200.4L102.7,200.4z"/>
						<path fill="#FFFFFF" d="M103.9,202.7c0-0.1,0.1-0.1,0.2-0.2l0,0C104,202.6,104,202.6,103.9,202.7L103.9,202.7z"/>
						<path fill="#FFFFFF" d="M102.8,212.8c0-0.1,0.1-0.1,0.2-0.2l0,0C103,212.7,102.9,212.7,102.8,212.8
							C102.9,212.9,102.8,212.9,102.8,212.8z"/>
						<path fill="#FFFFFF" d="M103.7,211.9c0,0.1-0.1,0.1-0.2,0.2C103.5,212,103.6,212,103.7,211.9z"/>
						<path fill="#FFFFFF" d="M103.5,203c0,0,0.1-0.1,0.2-0.2C103.7,203,103.6,203,103.5,203L103.5,203z"/>
						<path fill="#FFFFFF" d="M103.2,203.5c0-0.1,0.1-0.1,0.2-0.2l0,0C103.4,203.4,103.3,203.4,103.2,203.5L103.2,203.5z"/>
						<path fill="#FFFFFF" d="M87,220c-0.1,0-0.2-0.1-0.2-0.2C86.9,219.8,87,219.9,87,220z"/>
						<path fill="#FFFFFF" d="M88.4,219.1c0,0.1-0.1,0.1-0.2,0.2l0,0C88.2,219.2,88.3,219.1,88.4,219.1L88.4,219.1z"/>
						<path fill="#FFFFFF" d="M86,218.9c-0.1-0.1-0.2-0.1-0.2-0.2C85.8,218.7,85.9,218.8,86,218.9z"/>
						<path fill="#FFFFFF" d="M88.9,218.5c0,0,0.1-0.1,0.2-0.2l0,0C89.1,218.4,89,218.5,88.9,218.5L88.9,218.5z"/>
						<path fill="#FFFFFF" d="M86.6,219.6c-0.1,0-0.2-0.1-0.2-0.2C86.5,219.4,86.6,219.5,86.6,219.6z"/>
						<path fill="#FFFFFF" d="M88.5,218.9c0,0,0.1-0.1,0.2-0.2C88.7,218.8,88.6,218.9,88.5,218.9L88.5,218.9z"/>
						<path fill="#FFFFFF" d="M85.4,218.3c0.1,0,0.1,0.1,0.2,0.2C85.5,218.4,85.4,218.4,85.4,218.3z"/>
						<path fill="#FFFFFF" d="M87.8,219.6c0-0.1,0.1-0.1,0.2-0.2l0,0C88,219.5,88,219.6,87.8,219.6L87.8,219.6z"/>
						<path fill="#FFFFFF" d="M87.5,220c0-0.1,0.1-0.1,0.1-0.2C87.7,219.9,87.7,219.9,87.5,220z"/>
						<path fill="#FFFFFF" d="M86.2,219.1l0.1,0.1C86.2,219.2,86.2,219.2,86.2,219.1L86.2,219.1z"/>
						<path fill="#FFFFFF" d="M93.9,218.1c0,0.1,0.1,0.1,0.2,0.2l0,0C93.9,218.3,93.8,218.2,93.9,218.1
							C93.8,218.1,93.8,218.1,93.9,218.1z"/>
						<path fill="#FFFFFF" d="M94.7,219.1c0,0-0.1-0.1-0.2-0.2C94.6,218.9,94.7,219,94.7,219.1z"/>
						<path fill="#FFFFFF" d="M94.3,218.7c0-0.1-0.1-0.1-0.2-0.2C94.3,218.5,94.3,218.6,94.3,218.7
							C94.4,218.7,94.4,218.7,94.3,218.7z"/>
						<path fill="#FFFFFF" d="M97.8,218.2c0,0.1-0.1,0.2-0.2,0.2C97.6,218.3,97.7,218.3,97.8,218.2z"/>
						<path fill="#FFFFFF" d="M96.5,219.5c0-0.1,0.1-0.1,0.2-0.2l0,0C96.7,219.4,96.6,219.5,96.5,219.5L96.5,219.5z"/>
						<path fill="#FFFFFF" d="M95.4,219.9c-0.1-0.1-0.1-0.1-0.2-0.2C95.3,219.6,95.4,219.7,95.4,219.9z"/>
						<path fill="#FFFFFF" d="M96.1,219.9c0-0.1,0.1-0.1,0.2-0.2C96.4,219.8,96.3,219.8,96.1,219.9L96.1,219.9z"/>
						<path fill="#FFFFFF" d="M94.9,219.2c0.1,0,0.2,0.1,0.2,0.2C95,219.4,95,219.4,94.9,219.2C94.9,219.3,94.9,219.3,94.9,219.2
							C94.9,219.3,94.9,219.3,94.9,219.2z"/>
						<path fill="#FFFFFF" d="M96.8,219.2c0.1-0.1,0.1-0.1,0.2-0.2C97,219,97,219.1,96.8,219.2z"/>
						<path fill="#FFFFFF" d="M97.4,218.6c-0.1,0.1-0.1,0.2-0.3,0.2C97.3,218.7,97.3,218.6,97.4,218.6z"/>
						<path fill="#FFFFFF" d="M59.6,218.1c0.1,0.1,0.2,0.1,0.2,0.2C59.7,218.3,59.6,218.2,59.6,218.1z"/>
						<path fill="#FFFFFF" d="M60.3,218.9c0.1,0,0.2,0.1,0.2,0.2C60.4,219,60.3,219,60.3,218.9z"/>
						<path fill="#FFFFFF" d="M60.9,219.5c-0.1,0-0.2-0.1-0.2-0.2C60.8,219.3,60.8,219.4,60.9,219.5z"/>
						<path fill="#FFFFFF" d="M61,219.6c0.1,0.1,0.1,0.1,0.2,0.2C61.1,219.8,61,219.8,61,219.6L61,219.6z"/>
						<path fill="#FFFFFF" d="M63.2,218.6c0,0.1-0.1,0.1-0.2,0.2l0,0C63,218.7,63.1,218.6,63.2,218.6L63.2,218.6z"/>
						<path fill="#FFFFFF" d="M60.1,218.7c-0.1,0-0.2-0.1-0.2-0.2C60,218.5,60.1,218.6,60.1,218.7z"/>
						<path fill="#FFFFFF" d="M62.5,219.3c0,0.1-0.1,0.2-0.2,0.2C62.3,219.4,62.4,219.4,62.5,219.3z"/>
						<path fill="#FFFFFF" d="M63.3,218.4c0-0.1,0.1-0.1,0.2-0.2l0,0C63.5,218.3,63.5,218.3,63.3,218.4L63.3,218.4z"/>
						<path fill="#FFFFFF" d="M62.1,219.7c0,0.1-0.1,0.2-0.3,0.2C61.9,219.8,62,219.7,62.1,219.7L62.1,219.7z"/>
						<path fill="#FFFFFF" d="M62.7,219.1c0-0.1,0.1-0.1,0.1-0.2C62.8,219,62.8,219,62.7,219.1z"/>
						<path fill="#FFFFFF" d="M80.4,218.4c0-0.1,0.1-0.1,0.2-0.2l0,0C80.6,218.3,80.5,218.3,80.4,218.4
							C80.5,218.4,80.5,218.4,80.4,218.4z"/>
						<path fill="#FFFFFF" d="M78.5,220c0.1,0,0.2,0.1,0.2,0.2C78.5,220.1,78.5,220.1,78.5,220z"/>
						<path fill="#FFFFFF" d="M77,218.5c0.1,0,0.2,0.1,0.2,0.2C77.1,218.7,77.1,218.6,77,218.5z"/>
						<path fill="#FFFFFF" d="M79.3,219.7c0,0.1-0.1,0.1-0.2,0.2l0,0C79.1,219.8,79.1,219.8,79.3,219.7L79.3,219.7z"/>
						<path fill="#FFFFFF" d="M76.7,218.1c0,0.1,0.1,0.1,0.2,0.2l0,0C76.8,218.3,76.7,218.2,76.7,218.1L76.7,218.1z"/>
						<path fill="#FFFFFF" d="M77.8,219.2c0.1,0,0.2,0.1,0.2,0.2C77.9,219.4,77.7,219.4,77.8,219.2z"/>
						<path fill="#FFFFFF" d="M79.4,219.5c0-0.1,0.1-0.1,0.2-0.2l0,0C79.5,219.4,79.5,219.4,79.4,219.5L79.4,219.5z"/>
						<path fill="#FFFFFF" d="M80.1,218.8c0-0.1,0.1-0.2,0.2-0.2C80.3,218.7,80.2,218.7,80.1,218.8L80.1,218.8z"/>
						<path fill="#FFFFFF" d="M78.1,219.6c0,0.1,0.1,0.1,0.2,0.2C78.1,219.7,78.1,219.7,78.1,219.6L78.1,219.6z"/>
						<path fill="#FFFFFF" d="M77.4,218.9c0.1,0,0.2,0.1,0.2,0.2C77.5,219,77.5,219,77.4,218.9z"/>
						<path fill="#FFFFFF" d="M80,219c0,0-0.1,0.1-0.2,0.2C79.7,219,79.9,219,80,219C79.9,219,79.9,219,80,219z"/>
						<path fill="#FFFFFF" d="M46.2,218.4c0-0.1,0.1-0.1,0.2-0.2C46.4,218.3,46.3,218.4,46.2,218.4L46.2,218.4z"/>
						<path fill="#FFFFFF" d="M45,219.7c0,0.1-0.1,0.2-0.2,0.2l0,0C44.9,219.8,44.9,219.7,45,219.7L45,219.7z"/>
						<path fill="#FFFFFF" d="M45.9,218.8c0-0.1,0.1-0.1,0.2-0.2C46,218.7,46,218.7,45.9,218.8z"/>
						<path fill="#FFFFFF" d="M45.2,219.5c0,0,0.1-0.1,0.2-0.2C45.4,219.4,45.3,219.5,45.2,219.5L45.2,219.5z"/>
						<path fill="#FFFFFF" d="M45.8,219l-0.1,0.1C45.6,219,45.6,219,45.8,219C45.7,219,45.7,219,45.8,219z"/>
						<path fill="#FFFFFF" d="M103.9,219.7c0,0.1,0.1,0.1,0.2,0.2l0,0C104,219.9,103.9,219.8,103.9,219.7L103.9,219.7z"/>
						<path fill="#FFFFFF" d="M103.7,219.6c-0.1-0.1-0.2-0.1-0.2-0.2C103.7,219.4,103.7,219.5,103.7,219.6z"/>
						<path fill="#FFFFFF" d="M103,218.9c-0.1,0-0.1-0.1-0.2-0.2l0,0C102.9,218.7,103,218.8,103,218.9
							C103,218.8,103,218.9,103,218.9z"/>
						<path fill="#FFFFFF" d="M103.2,219c0.1,0,0.2,0.1,0.2,0.2l0,0C103.3,219.2,103.2,219.1,103.2,219L103.2,219z"/>
						<path fill="#FFFFFF" d="M102.7,218.5c-0.1,0-0.2-0.1-0.2-0.2l0,0C102.6,218.3,102.6,218.4,102.7,218.5L102.7,218.5z"/>
						<path d="M56.9,210C56.9,210,56.8,210,56.9,210L56.9,210C56.9,209.9,56.9,210,56.9,210L56.9,210z"/>
						<path d="M91.1,209.9L91.1,209.9L91.1,209.9C91.1,210,91.1,210,91.1,209.9L91.1,209.9z"/>
						<path d="M93,204.6L93,204.6L93,204.6C93.1,204.6,93.1,204.6,93,204.6C93,204.7,93,204.6,93,204.6z"/>
						<path d="M92,203.4C92,203.4,92,203.5,92,203.4C92,203.5,92,203.4,92,203.4L92,203.4z"/>
					</g>
				</g>
			</g>
		</g>
	</g>
</g>
</svg>
