<?xml version="1.0" encoding="utf-8"?>
<!-- Generator: Adobe Illustrator 18.1.1, SVG Export Plug-In . SVG Version: 6.00 Build 0)  -->
<svg version="1.1" id="Layer_1" xmlns="http://www.w3.org/2000/svg" xmlns:xlink="http://www.w3.org/1999/xlink" x="0px" y="0px"
	 viewBox="44.7 171.2 216 97.3" enable-background="new 44.7 171.2 216 97.3" xml:space="preserve">
<g id="INSPECT-A-PEC">
	<path fill="none" d="M169.4,208.8c-0.9,0.7-1.8,1.4-2.8,2.1c2.3-0.2,4.9-0.2,7.7,0.2l0.9-3.4C172.3,209.1,169.4,208.8,169.4,208.8z
		"/>
	<path fill="none" d="M102.5,247.2c0,0,8.2-18,10.1-26.8c-1.1-1.2-2.2-2.6-3.3-4c0,0-1.1,5.5-14.5,16.4c-4.2,3.4-7,9.2-8.5,13.4
		C91.2,243.7,97.1,242.6,102.5,247.2z"/>
	<path fill="#FFFFFF" d="M201.1,187.9c0,0,1.2-6.3-2.6-9.9c3.4,3.7,2.3,9.6,2.3,9.6s2.1,4-6.8,12.8c0,0,0,0,0,0.2l0.4,0.2
		c3.1-3.1,4.8-5.4,5.8-7.4C202,189.6,201.1,187.9,201.1,187.9z"/>
	<g>
		<path fill="#AFD13B" d="M217.8,180.8c-1.9-1.6-6.8-1.4-8.8-2.1c-1.2-0.4-2.4-0.9-3.7-1.4c-4.5-1.9-8.9-4.5-9.9-4.9
			c0,0,0-0.1-0.1-0.1c0,0-8.8-4.8-25.1,5.2c-8.5,5.2-13.9,18.4-25.6,19.4c0,0-12.8-5.2-22.4,0.8c10.1,4.1,22.4,10.2,31.2,18.2
			c1.3-0.8,6-4.2,13.1-5c0.9-0.7,1.9-1.3,2.8-2.1c0,0,3,0.3,5.9-1.1l-0.9,3.4l-6,22.1l-5.4,20.2l0,0c-1,4,0.2,5.4,0.2,5.4h17.8
			c0.2-0.2,0.2-0.4,0.2-0.4l3.8,0.1c0.2,0,0.2-0.2,0.2-0.2h1.2c0.8-0.8-0.1-1.2-0.4-1.2c-0.3,0-1.8-0.4-1.8-0.4
			c-0.6-0.1-2.8-1.1-2.8-1.1c-0.5-0.3-1.4-0.6-2.1-0.5c-0.7,0.1-2.4-0.2-2.4-0.2c-1.3-0.7-4-1.6-5.6-2.2c2-5,5.7-13.2,5.7-13.2
			c0.2-0.3,0.4-0.7,0.7-1c7.9-12,6.4-16,6.4-16c1.8-1.6,3.4-3.4,4.6-5.3c5-7.4,5.4-15.4,5.4-16.5c0-0.1,0-0.2,0-0.2
			c8.8-8.8,6.8-12.8,6.8-12.8s1.2-5.9-2.3-9.6c3.9,3.7,2.6,9.9,2.6,9.9s0.9,1.7-1,5.4h0.1c0.2-0.1,0.7-0.2,0.7-0.2
			c0.6,0.9,1.7-0.1,1.7-0.1v1.1l1.8-0.1l0.3,2.1c1.8,0.2,3.5,0,4.9-0.2c0.8-0.2,1.6-0.3,2.2-0.5c2.6-0.5,4.1-1.3,5.1-2.1
			c1.3-1.2,1.5-2.1,1.5-2.1s0.2-0.5,0.3-1.2C219.3,187.4,220.1,182.8,217.8,180.8z"/>
		<path fill="#AFD13B" d="M66.6,253c-1.7-1.2-4.3-2.5-4.3-2.5c-3.1-1-5,2.6-5,2.6c-8.9-2.3-11.5,4.5-11.5,4.5
			c-1.4,0-1.1,1.4-1.1,1.4h24.4c-0.2-0.2-0.2-0.4-0.2-0.6c0-0.4,0.2-0.8,0.6-1c0.6,0.5,1.6,0.6,2.3,0.4c0.8-0.2,1.6-1.4,2.3-2.2
			c1.5-1.6,1.6-2.6,2.1-4.1C71.5,253.7,66.6,253,66.6,253z"/>
		<path fill="#AFD13B" d="M112.6,220.3c-1.8,8.8-10.1,26.8-10.1,26.8c-5.4-4.5-11.3-3.5-16.3-1.2c-0.9,2.5-1.3,4.3-1.2,4.5
			c0.1,0.7,0.6,1.2,0.8,1.8c0.3,0.6,0.6,1.2,0.5,1.9s-0.5,1.2-1,1.6c-0.5,0.4-1.1,0.7-1.7,0.9c-1.8,0.5-2.8,1.4-3.6,2.4h37.8
			c6.6-5.8,12-14.5,16-22.4C127.5,234.4,120.4,229.4,112.6,220.3z"/>
	</g>
	<path d="M199.4,256c0,0,4.9,0,8.4,0.6c0-0.1,0.1-0.2,0.2-0.2C205.9,256.1,201.6,255.5,199.4,256z"/>
	<path d="M257.6,254.6c-0.3,0-0.7,0-1,0c-1.4-0.2-1.2-1.9-2.5-2.4c-0.8-0.3-1.8,0-2.7-0.2c-1.8-0.4-1.8-2.7-3.7-2.9
		c-0.7-0.1-1.6,0.2-2.3,0.1c-0.7-0.2-0.9-0.8-1.1-1.2c-0.4-1.1-1.2-2.4-2.8-2.5c-1-0.1-2,0.3-2.9,0c-0.7-0.2-1.1-0.7-1.2-1.2
		s0-1.1-0.1-1.6c-0.2-2-2.9-3.5-5.8-3.7c-1.6-0.1-3.4,0.2-4.8,0.9c0.8,0.5,1.4,1.2,1.8,1.9c0.2,0.6,0.3,1.2,0.2,1.9
		c-0.3,1.1-1.3,2-2.5,2.1c-1,0.1-2-0.3-2.9-0.1c-1,0.2-1.6,1.2-1.6,2.2c-1.2-0.5-2.1-0.9-3.5-0.9c-1.6,0-2.7,0-4,0.3
		c-0.5,0.2-1.1,0.4-1.6,0.7c-0.1,0.1-0.2,0.2-0.3,0.2c1.2,1.7,2.1,4.4-0.9,7.3c0,0-1.9,0.7-2.3,1c0,0-0.5-0.1-1.2-0.2
		c-0.1,0.1-0.1,0.2-0.2,0.2c0.7,0.1,1.2,0.2,1.8,0.4c3.4,0.9,14.3,1.3,16.2,1.2c1.8-0.1,4-1.2,5.9-0.2c0.4,0.2,0.8,0.3,1.2,0.6
		c0.1,0.1,0.2,0.2,0.4,0.2l27.3,0.1C260.9,256,259.4,254.6,257.6,254.6z"/>
	<path fill="#00AFAD" d="M166.6,210.8c-7.1,0.8-11.9,4.2-13.1,5c-8.9-8.1-21.2-14.2-31.2-18.2c-10.1-4.1-18.1-6.2-18.1-6.2
		c-15.9,17.8-24.5,52.4-24.5,52.4s-0.4,2.2-2.6,6.1c-0.4,0.7-0.7,1.3-0.8,1.8c-0.5,1.4-0.6,2.5-2.1,4.1c-0.7,0.8-1.6,2-2.3,2.2
		c-0.8,0.2-1.7,0.2-2.3-0.4c-0.4,0.2-0.6,0.6-0.6,1c0,0.2,0.1,0.4,0.2,0.6c0.1,0.2,0.2,0.2,0.4,0.3c-0.3,0.2-0.6,0.4-0.9,0.6
		c-0.1,0-0.2,0.1-0.2,0.2c-0.1,0.2,0,0.4,0.1,0.5c0.2,0.2,0.3,0.2,0.6,0.2c-0.1,0.1-0.2,0.2-0.2,0.3c0.1,0.4,0.7,0.7,1.1,0.4
		c-0.3,0.2-0.3,0.8,0,1.1c0.3,0.2,0.8,0.2,1.1-0.2c0,0.4,0.6,0.5,0.9,0.3c0.3-0.2,0.5-0.7,0.6-1c4.9,1,5.9-0.9,7.5-2.7
		c0.8-1,1.8-1.9,3.6-2.4c0.7-0.2,1.2-0.5,1.7-0.9c0.5-0.4,0.9-1,1-1.6s-0.2-1.3-0.5-1.9c-0.3-0.6-0.8-1.2-0.8-1.8
		c0-0.3,0.4-2.1,1.2-4.5c1.5-4.1,4.3-9.9,8.5-13.4c13.4-10.9,14.5-16.4,14.5-16.4c1.2,1.4,2.2,2.8,3.3,4c7.8,9.1,14.9,14,21.1,16.5
		c11.5,4.5,19.8,0.1,23.9-3.2c3.7-1.2,7.6-1,10.7-0.4l6-22.1C171.5,210.6,168.9,210.6,166.6,210.8z"/>
	<g>
		<path fill="#00AFAD" d="M233.7,262.5c-0.1,0.1-0.2,0.2-0.2,0.3c0.4,0.2,0.8,0.2,1.2,0.4c0.5,0.3,0.5,0.7,0.7,1.2
			c0.4,1,1,1.6-0.2,2.4c0.6,0.1,1.6-0.4,1.6-1c0.1-0.7-0.2-1.6-0.5-2.1C236,262.8,234.8,262.4,233.7,262.5z"/>
		<path fill="#00AFAD" d="M237.9,262.9c-0.3-0.5-1.6-1.9-1.9-0.6c-0.3,0-0.6-0.1-0.9,0c0.2,0.3,1.3,0.6,1.6,1.1
			c0.4,0.6,0.7,1.4,0.7,2.1C238.4,265.4,238.2,263.7,237.9,262.9z"/>
		<path fill="#00AFAD" d="M233.7,263.2c-0.6-0.2-1.4-0.8-1.6-0.1c-0.2,1,1.9,1.2,1.5,1.8c-0.2,0.3-0.8-0.2-1-0.3
			c-0.5-0.3-0.8-0.4-0.8-1c0-0.4-0.1-1.2,0.4-1.2c0.3,0,0.5,0.4,0.9,0.4c0.1-0.2,0.2-0.3,0.3-0.5c0.4-0.1,0.9,0.1,1.3,0.1
			c0-0.3,0.3-0.4,0.7-0.3c-0.5-0.7-2.5-1.9-2.5-1.9c1.2,0.3,2.5,1.6,2.7,1.8c0.1-0.2,0.4-0.4,0.7-0.6c-0.6-0.7-1.5-1.1-2.1-1.7
			c-0.3-0.3-0.7-0.7-1-0.9c-0.1-0.1-0.2-0.2-0.4-0.2c-0.4-0.2-0.7-0.4-1.2-0.6c-2-0.9-4.1,0.1-5.9,0.2c-1.9,0.1-12.8-0.3-16.2-1.2
			c-0.5-0.2-1.2-0.2-1.8-0.4c-3.5-0.6-8.4-0.6-8.4-0.6c2.1-0.5,6.4,0.1,8.6,0.4c0.8,0.1,1.2,0.2,1.2,0.2c0.4-0.3,2.3-1,2.3-1
			c3-3,2.2-5.6,0.9-7.3c0.1-0.1,0.2-0.2,0.3-0.2c0.6-0.3,1.1-0.5,1.6-0.7c1.2-0.4,2.5-0.3,4-0.3c1.5,0,2.4,0.4,3.5,0.9
			c0.1-1,0.7-2,1.6-2.2c0.9-0.2,1.9,0.2,2.9,0.1c1.2-0.1,2.1-0.9,2.5-2.1c0.2-0.6,0.1-1.2-0.2-1.9c-0.4-0.7-1.1-1.4-1.8-1.9
			c-0.3-0.2-0.6-0.4-0.9-0.5c0,0-1.4-1.2-1.7-2.6l-1.3,1.2c0,0-0.5,0.2-0.8-1c0,0-0.7,0.2-1.6,0.4l-0.2-1.1c0,0-0.4,0.3-1.4-0.4
			c0,0-1.2-0.5-1.7,1.2c-0.4,1.6-0.6,4.5-3.2,4.3c0,0-0.7-0.4-1.4-0.8c-0.8-1.3-1.7-2.5-2.3-3.3c-2.1-2.8-3.4-6.3-4.1-8.7
			c-0.7-2.2-1.3-6.6-2.1-6.9c-3.5-0.9-7.8,1.5-7.8,1.5c-2.7-2.6-5.3-4.6-7.8-6.3c-1.2,1.8-2.7,3.6-4.6,5.3c0,0,1.5,4-6.4,16
			c7.3,9.2,13.1,13.9,17.7,16.1c0.7-0.5,1.6-1,2.7-1.5c0,0,4-1.9,4.9-3.4l0,0c-1.2,1.5-4.5,3.5-4.5,3.5c-10.3,5.3-3.5,12-3.5,12
			c4.4,2.1,18.1,0.1,21.8-1c3.3-1,9.1-0.1,9.9,0.1c0.1,0.1,0.2,0.2,0.3,0.2c1,0.7,1.6,1.8,2.3,3c0.8,1.6,2.3,1.6,3.8,0.7
			c0.4-0.2,0.8-0.6,1.2-0.8c0.4-0.2,0.8-0.3,1.2-0.5c0.8-0.5,0.2-1.6-0.2-2.2C234.9,263.4,234.6,263.5,233.7,263.2z"/>
	</g>
	<path fill="#00AFAD" d="M235.4,262.1c0,0.1,0.1,0.1,0.1,0.2c0,0,0.2,0,0.2-0.2l0,0c-0.2-0.2-1.6-1.5-2.7-1.8
		C233,260.2,235,261.4,235.4,262.1z"/>
	<path d="M209.8,194.7c-0.1,0.2-0.2,0.5,0,0.7c0.5-0.4,0.7-1.2,0.8-2.1c0-0.6,0-1.3-0.3-1.6c-0.2-0.2-0.4-0.2-0.6,0
		C209.9,192.6,210,193.7,209.8,194.7z"/>
	<path d="M208.5,194.3c0,0,0-0.2,0-0.2s0-0.2-0.1-0.2c-0.1-0.4,0-0.9,0.2-1.1c-0.2-0.2-0.6,0-0.7,0.4s0,0.8,0.2,1.1
		C208.3,194.3,208.4,194.3,208.5,194.3z"/>
	<path d="M220.7,177.5L220.7,177.5C220.7,177.6,220.7,177.5,220.7,177.5z"/>
	<path d="M222.6,181.3c1.2-0.8,0.1-2.3-0.7-2.7c-0.4-0.2-1.5-0.4-1.2-1c0,0,0-0.1-0.1-0.1c0.8-0.7,0.3-2.2-0.7-2.5
		c0.4,0.4,0.2,1.4-0.3,1.6c0.1-1-0.7-1.7-1.6-2c-0.4-0.1-1,0.1-1.4,0c-0.3,0-0.2,0-0.4-0.1c-0.2-0.2-0.3-0.4-0.6-0.6
		c-0.4-0.2-1.1-0.3-1.6-0.3c-0.7,0.1-0.8,0.5-1.4,0.7c-0.4,0.1-0.8,0-1.2,0.2c-0.9,0.3-1.7,0.7-2.6,1.2c-1.2,0.6-2.1,1.4-3.4,1.7
		c-0.2,0.1-0.5,0.2-0.7,0.2c0.4,0.5,0.7,1.2,1.2,1.6c0.7,0.7,1.6,0.8,2.6,0.7c1-0.2,3-0.6,3.2,0.9c1.3,0.3,0.3,2.5-0.3,3
		c-1,0.9-1.7,2.1-1.6,3.5c0.8,0.3,1.6,0.2,2.4,0.8c0.7,0.7,1,1.5,0.7,2.4c-0.2,0.8-1.7,3.1-0.7,3.8c-0.2-1.2,0.8-3.1,2.1-3
		c-0.9,0.2-1.5,1.5-1.2,2.3c0.2-1.1,1.5-1.3,2.4-1.2c0.4,0.1,0.6,0.2,1,0.4c0.3,0.2,0.6,0.3,0.8,0.4c-0.9,0.8-2.5,1.6-5.1,2.1
		c-0.7,0.1-1.4,0.3-2.2,0.5c0.1,0.1,0.1,0.2,0.2,0.2c0.7,0.5,1.3,0.2,2,0.5c-0.7,0.4-1.6,0.2-2.4,0c0.5,0.5,1.2,0.7,1.8,0.8
		c0.4,0.1,1,0.2,1.4,0.2c0.3,0,0.7-0.3,0.9-0.3c0.8-0.1,1.6,0.5,2.5,0.4c0.7-0.1,1.2-0.2,1.8-0.7c0.4-0.3,0.7-0.8,1.2-1.1
		c0.8-0.6,1.2-0.8,1.7-2c0.4-1.1,0.4-2.1,0.7-3.2c1.1-1.2,1.9-2.9,2.1-4.4C224,184.9,224,182.1,222.6,181.3z"/>
	<path d="M224.1,241.8c0.1,0,0.1-0.1,0.1-0.2s0-0.2,0-0.2c-0.1-0.4,0.2-0.8,0.6-0.8c-0.2-0.2-0.7-0.2-1,0.2c-0.2,0.3-0.2,0.7,0.1,1
		C223.9,241.7,224,241.8,224.1,241.8z"/>
	<path d="M226.7,241.5c0-0.2,0-0.3-0.1-0.5c0-0.1,0-0.1-0.1-0.2c-0.1-0.1-0.2,0-0.1,0.1c0.2,0.4,0.2,0.7,0.1,1.2
		c0,0.1,0,0.2-0.1,0.2c-0.2,0.3-0.4,0.5-0.7,0.7c-0.3,0.1-0.7,0.2-0.9,0.2c0,0.1,0.1,0.1,0.1,0.1c0.3,0,0.6,0,0.9-0.1
		c0.3-0.1,0.6-0.2,0.7-0.5C226.7,242.3,226.7,241.9,226.7,241.5z"/>
	<g>
		<g>
			<g>
				<g>
					<defs>
						<path id="SVGID_1_" d="M86.2,246c-0.9,2.5-1.3,4.3-1.2,4.5c0.1,0.7,0.6,1.2,0.8,1.8c0.3,0.6,0.6,1.2,0.5,1.9
							c-0.1,0.7-0.5,1.2-1,1.6c-0.5,0.4-1.1,0.7-1.7,0.9c-1.8,0.5-2.8,1.4-3.6,2.4h13.8l-1.2-15.1C90.3,244.4,88.2,245.1,86.2,246z
							 M76.1,251.7c-0.5,1.4-0.6,2.5-2.1,4.1c-0.7,0.8-1.6,2-2.3,2.2c-0.8,0.2-1.7,0.2-2.3-0.4c-0.4,0.2-0.6,0.6-0.6,1
							c0,0.2,0.1,0.4,0.2,0.6H44.6c0,0-0.3-1.4,1.1-1.4c0,0,2.6-6.8,11.5-4.5c0,0,2.1-3.6,5-2.6c0,0,2.6,1.3,4.3,2.5
							C66.6,253,71.5,253.7,76.1,251.7z"/>
					</defs>
					<clipPath id="SVGID_2_">
						<use xlink:href="#SVGID_1_"  overflow="visible"/>
					</clipPath>
					<g id="argyle_1_" clip-path="url(#SVGID_2_)">
						<g>
							<path d="M58.7,249.3L58.7,249.3c0.2,0.2,0.4,0.5,0.6,0.7c0.2,0.2,0.3,0.3,0.4,0.4c0.2,0.2,0.2,0.3,0.4,0.4
								c0.2,0.2,0.2,0.3,0.4,0.4c0.2,0.2,0.4,0.4,0.5,0.6c0.2,0.2,0.5,0.6,0.8,0.8c0.1,0.1,0.2,0.2,0.3,0.3
								c-0.2,0.2-0.3,0.3-0.5,0.5c-0.2,0.2-0.4,0.4-0.6,0.6c0,0-0.1,0.1-0.2,0.2c-0.1,0.1-0.1,0.1-0.2,0.2c0,0-0.1,0.1-0.2,0.2
								c0,0-0.1,0.1-0.2,0.2c-0.1,0-0.1,0.1-0.1,0.2l0,0c-0.2,0.2-0.4,0.4-0.6,0.7c-0.3,0.3-0.7,0.7-0.9,1c0,0-0.1,0.1-0.2,0.2
								c-0.2-0.2-0.5-0.5-0.7-0.7c-0.2-0.2-0.5-0.5-0.7-0.7c-0.2-0.2-0.4-0.5-0.7-0.7c-0.2-0.2-0.4-0.5-0.7-0.7
								c-0.2-0.2-0.4-0.5-0.7-0.7c-0.1,0.1-0.2,0.2-0.4,0.4c-0.1,0.1-0.2,0.2-0.3,0.4c-0.1,0.1-0.2,0.2-0.3,0.4
								c-0.1,0.1-0.2,0.2-0.3,0.4c-0.1,0.1-0.2,0.2-0.4,0.4c-0.1,0-0.1-0.1-0.2-0.1l0,0c0,0,0,0.1,0.1,0.1c0.1,0,0,0.1,0,0.2
								c-0.2,0.2-0.5,0.5-0.7,0.8c-0.2,0.2-0.2,0.3-0.4,0.4c-0.2,0.2-0.3,0.3-0.5,0.5v0.1c0.1,0.1,0.2,0.2,0.2,0.2
								c0.2,0.2,0.5,0.5,0.8,0.8h0.1c0,0.1,0.1,0.1,0.2,0.2c0.1,0.2,0.2,0.2,0.4,0.4c0,0,0.1,0.1,0,0.1c0,0,0,0.1-0.1,0.1
								c0.1,0,0.2,0,0.1-0.1c0.1,0,0.2,0,0.2,0.1c0.1,0.1,0.2,0.2,0.3,0.3c0.4,0.4,0.8,0.8,1.2,1.2c0,0,0.1,0,0.1,0.1l0,0
								c-1.2,0-2.3,0-3.5,0c0-0.1-0.2-0.1-0.2-0.1v0.1c-1.2,0-2.3,0-3.4,0c0,0,0.1-0.1,0.1-0.2c0.2-0.2,0.5-0.5,0.7-0.7
								c0.2-0.2,0.5-0.6,0.8-0.8c0,0,0,0,0.1,0h0.1c-0.1-0.1,0-0.2,0.1-0.2c0.2-0.2,0.3-0.3,0.4-0.5c0.1-0.1,0.2-0.2,0.3-0.3
								c0.3-0.3,0.6-0.6,0.8-0.9c-0.6-0.6-1.2-1.2-1.7-1.8c0,0,0-0.1,0.1-0.1l0,0h-0.1c-0.6-0.6-1.2-1.2-1.7-1.8
								c-0.3,0.3-0.6,0.7-0.9,0.9c-0.2,0.2-0.5,0.5-0.7,0.8c0,0-0.1,0.1-0.2,0.1c0,0.1,0,0.1-0.1,0.2c-0.1,0.1-0.2,0.2-0.3,0.3
								c-0.4,0.4-0.8,0.8-1.2,1.3c0,0-0.1,0-0.1,0.1c0-1.2,0-2.5,0-3.6c0.1,0,0.1,0.1,0.2,0.1c0,0-0.1-0.1-0.1-0.2s0.1-0.1,0.1-0.2
								l0,0c0,0-0.1,0.1-0.2,0.1 M84.4,244.6c0.2-0.2,0.2-0.3,0.4-0.4c0.2-0.2,0.2-0.3,0.4-0.4c0.2-0.2,0.4-0.4,0.6-0.7
								c0.1-0.1,0.2-0.2,0.3-0.3c0.2-0.2,0.6-0.6,0.8-0.8c0,0,0,0,0.1,0c0.3,0.3,0.6,0.7,0.9,0.9c0.2,0.2,0.4,0.5,0.7,0.7
								c0,0,0.1,0.1,0.1,0.2l0,0c0.1,0,0.2,0.1,0.2,0.1c0.2,0.2,0.3,0.4,0.5,0.6c0.2,0.2,0.5,0.6,0.8,0.8c0.1,0.1,0.2,0.2,0.3,0.3
								c-0.2,0.2-0.5,0.5-0.7,0.8c-0.2,0.2-0.4,0.5-0.7,0.8c-0.1,0.1-0.2,0.2-0.3,0.2l0,0c0,0.1,0,0.1-0.1,0.2
								c-0.3,0.3-0.6,0.6-0.8,0.9c-0.2,0.2-0.5,0.6-0.7,0.8c0.2,0.2,0.4,0.4,0.6,0.6c0.3,0.4,0.7,0.7,1.1,1.2c0,0,0.1,0.1,0.1,0.2
								l0,0c0,0,0.1,0,0.1,0.1c0.1,0.1,0.2,0.2,0.3,0.3c0.4,0.4,0.7,0.8,1.2,1.2c0.1,0.1,0.2,0.2,0.2,0.2c-0.2,0.2-0.3,0.3-0.4,0.5
								c-0.2,0.2-0.4,0.4-0.6,0.7c-0.2,0.2-0.4,0.4-0.6,0.7h-0.1c0,0,0,0.1-0.1,0.1c-0.2,0.2-0.3,0.3-0.4,0.4
								c-0.3,0.4-0.7,0.7-1.1,1.2c-0.1,0.1-0.2,0.1-0.2,0.2c-1.2-1.2-2.3-2.5-3.5-3.7c-0.1,0-0.2,0.1-0.2,0.1
								c-0.2,0.2-0.5,0.6-0.8,0.8c-0.2,0.2-0.4,0.4-0.6,0.6c-0.1,0.1-0.2,0.2-0.2,0.2c-0.1,0-0.1-0.1-0.2-0.1l0,0c0,0,0.1,0,0.1,0.1
								v0.1c0,0-0.1,0.1-0.1,0.2c-0.2,0.2-0.3,0.3-0.5,0.5c-0.2,0.2-0.4,0.4-0.6,0.7c-0.2,0.2-0.4,0.3-0.5,0.5c0,0,0,0-0.1,0
								c-0.3-0.3-0.6-0.7-0.9-1c-0.2-0.2-0.5-0.6-0.8-0.8c0,0,0-0.1,0.1-0.2c-0.1,0-0.1,0-0.2,0.1c-0.6-0.6-1.2-1.2-1.7-1.8
								c-0.2,0.2-0.2,0.3-0.4,0.4c-0.4,0.4-0.7,0.7-1.1,1.2c-0.1,0.1-0.2,0.2-0.3,0.2l0,0v0.1c-0.2,0.2-0.5,0.6-0.8,0.8
								c-0.2,0.2-0.4,0.5-0.7,0.7c-0.1,0.1-0.2,0.2-0.2,0.2c-0.4-0.4-0.8-0.8-1.2-1.2c-0.4-0.4-0.8-0.8-1.2-1.2
								c-0.4-0.4-0.7-0.8-1.2-1.2c-0.1,0.1-0.2,0.2-0.2,0.2c-0.1,0.1-0.2,0.2-0.2,0.2c-0.1,0.1-0.2,0.2-0.2,0.2
								c-0.1,0.1-0.2,0.2-0.2,0.2c-0.1,0.1-0.1,0.2-0.2,0.2c-0.1,0.1-0.2,0.2-0.2,0.2s-0.2,0.2-0.2,0.2c-0.1,0.1-0.2,0.2-0.2,0.2
								c-0.1-0.1-0.1-0.1-0.2-0.1c0,0.1,0.1,0.1,0.2,0.2c-0.1,0.1-0.1,0.1-0.2,0.2c-0.2,0.2-0.5,0.5-0.8,0.8
								c-0.2,0.2-0.4,0.5-0.7,0.7c0,0-0.1,0.1,0,0.2c0.1,0.1,0.2,0.2,0.2,0.3c0.2,0.2,0.5,0.5,0.7,0.8h0.1c0.1,0.2,0.4,0.4,0.5,0.7
								c0,0-0.1,0.1-0.1,0.2l0,0c0,0,0.1-0.1,0.2-0.1c0.1,0.1,0.2,0.2,0.3,0.3c0.3,0.3,0.7,0.7,1,1c0.2,0.2,0.3,0.3,0.4,0.5
								c-1.2,0-2.3,0-3.5,0l0,0c0,0-0.1,0-0.2-0.1l0.1,0.1c-1.2,0-2.3,0-3.5,0c0.1-0.1,0.2-0.2,0.2-0.2c0.1-0.2,0.2-0.3,0.4-0.4
								c0.2-0.2,0.4-0.4,0.7-0.7c0.2-0.2,0.3-0.3,0.4-0.5c0,0,0.1,0,0.2,0.1c0-0.1-0.1-0.1-0.1-0.2c0.6-0.6,1.2-1.2,1.7-1.8
								c-0.6-0.6-1.2-1.2-1.7-1.8c0,0,0-0.1,0.1-0.1l0,0h-0.1c-0.6-0.6-1.2-1.2-1.7-1.8c0.6-0.6,1.2-1.2,1.7-1.8h0.1l0,0
								c-0.2-0.1-0.1-0.2,0-0.2c0.1-0.1,0.2-0.2,0.2-0.2c0.4-0.4,0.7-0.8,1.2-1.2c0.1-0.1,0.2-0.2,0.2-0.2 M79.8,242
								c0,0.1,0.1,0.1,0.2,0.2 M57.9,252.4C58,252.4,57.9,252.3,57.9,252.4C57.8,252.4,57.8,252.4,57.9,252.4
								C57.9,252.4,57.9,252.4,57.9,252.4C58,252.4,58,252.4,57.9,252.4z M87.8,254.2L87.8,254.2C87.9,254.2,87.8,254.2,87.8,254.2
								S87.8,254.1,87.8,254.2C87.7,254.1,87.7,254.2,87.8,254.2z M45.4,254.2C45.4,254.2,45.5,254.2,45.4,254.2
								C45.5,254.2,45.5,254.2,45.4,254.2C45.4,254.1,45.4,254.1,45.4,254.2L45.4,254.2z M86.9,245.8c0,0,0,0.1,0.2,0.1
								C87,245.8,87,245.8,86.9,245.8c0-0.1,0.1-0.2,0.1-0.2c0,0-0.1,0.1-0.2,0.1c-0.1-0.1-0.1-0.1-0.2-0.2l0,0
								c0.1,0,0.1,0.1,0.2,0.2C86.9,245.7,86.8,245.8,86.9,245.8C86.8,245.8,86.8,245.8,86.9,245.8c-0.2,0-0.2,0.1-0.2,0.2
								C86.7,245.9,86.7,245.9,86.9,245.8L86.9,245.8z M86.8,253.1c-0.1-0.1-0.1-0.2-0.2-0.2C86.7,253,86.7,253,86.8,253.1
								C86.7,253.1,86.8,253.1,86.8,253.1S86.8,253.2,86.8,253.1c-0.1,0.1-0.2,0.2-0.2,0.2C86.7,253.3,86.7,253.3,86.8,253.1
								c0,0.1,0.1,0.2,0.2,0.2l0,0C87,253.3,86.9,253.2,86.8,253.1c0.1,0,0.1-0.1,0.2-0.1l0,0C86.9,253,86.9,253,86.8,253.1z
								 M58.6,253.1c-0.1-0.1-0.1-0.2-0.2-0.2C58.5,253,58.5,253,58.6,253.1C58.6,253.1,58.6,253.1,58.6,253.1
								C58.6,253.1,58.6,253.2,58.6,253.1c-0.1,0.1-0.2,0.2-0.2,0.2C58.6,253.3,58.6,253.3,58.6,253.1c0.1,0.1,0.1,0.2,0.2,0.2
								C58.8,253.2,58.7,253.2,58.6,253.1c0.1-0.1,0.2-0.1,0.2-0.2C58.7,253,58.6,253,58.6,253.1z M75,247c-0.2,0.2-0.2,0.3-0.4,0.4
								c0,0-0.1,0-0.1,0.1c0,0,0,0.1-0.1,0.1 M72.7,249.4c0.2,0.2,0.4,0.4,0.6,0.6c0.3,0.4,0.7,0.7,1,1.1c0,0,0.2,0.1,0.1,0.2l0,0
								c0.1,0,0.1,0.1,0.2,0.1c0.1,0.1,0.2,0.2,0.4,0.4c0.2,0.2,0.5,0.6,0.8,0.8c0.2,0.2,0.3,0.3,0.4,0.5c0.6-0.6,1.2-1.2,1.7-1.8
								c0,0,0.1,0,0.2,0.1c0-0.1-0.1-0.1-0.1-0.2c0.2-0.2,0.3-0.4,0.5-0.6c0.4-0.4,0.7-0.8,1.2-1.2c0.1-0.1,0.1-0.1,0-0.2
								c-0.3-0.3-0.6-0.6-0.8-0.8c-0.2-0.3-0.5-0.6-0.8-0.8c0,0,0-0.1,0.1-0.2c-0.1,0-0.1,0-0.2,0.1 M51.6,249.3L51.6,249.3
								c0.1,0.2,0.2,0.2,0.2,0.3c0.2,0.2,0.4,0.4,0.5,0.6c0.1,0.1,0.2,0.2,0.3,0.3l0,0v0.1c0.1,0.1,0.2,0.2,0.3,0.3s0.2,0.2,0.2,0.2
								c0,0-0.1,0.1-0.2,0.2l0,0c0,0,0.1-0.1,0.2-0.1c0.2,0.2,0.2,0.3,0.4,0.4c0.4,0.4,0.8,0.8,1.2,1.2c0.1,0.1,0.2,0.1,0.2,0
								c0.2-0.2,0.3-0.3,0.4-0.5c0.2-0.2,0.5-0.5,0.8-0.8c0.2-0.2,0.4-0.4,0.7-0.7c0.1-0.1,0.2-0.2,0.2-0.2c0.1-0.1,0.2-0.2,0.2-0.2
								s0.1-0.2,0.2-0.2c0.1-0.1,0.2-0.2,0.2-0.2c0.2-0.2,0.3-0.3,0.5-0.5c0.1-0.1,0.1-0.2,0-0.2 M65.8,249.3c0,0-0.1,0.1,0,0.2
								c0,0,0.1,0.1,0.2,0.2c0.3,0.3,0.6,0.7,0.9,0.9c0,0,0,0,0.1,0l0,0l0,0c-0.1,0.1,0.1,0.2,0.1,0.2c0.1,0.2,0.3,0.2,0.4,0.4
								c0,0-0.1,0.1-0.1,0.2l0,0c0,0,0.1-0.1,0.2-0.1c0.6,0.6,1.2,1.2,1.7,1.8c0.1,0,0.2-0.1,0.2-0.2c0.1-0.1,0.2-0.2,0.2-0.2
								c0.3-0.3,0.6-0.7,0.9-1c0.2-0.2,0.3-0.3,0.5-0.5c0,0,0.1-0.2,0.2-0.2s0.2-0.1,0.2-0.2c0.3-0.3,0.6-0.6,0.8-0.9
								c0.2-0.2,0.2-0.3,0.4-0.4c0.1-0.1,0.1-0.2,0-0.2 M82.4,246.7c-0.1,0.1-0.1,0.1-0.2,0.2c-0.1,0.1-0.2,0.2-0.3,0.3
								c-0.1,0.1-0.2,0.2-0.3,0.3c-0.1,0-0.1-0.1-0.2-0.1l0,0c0,0,0.1,0.1,0.1,0.2c-0.1,0.1-0.2,0.2-0.2,0.2
								c-0.2,0.2-0.3,0.3-0.5,0.5c-0.2,0.2-0.4,0.4-0.6,0.7c-0.1,0.1-0.2,0.2-0.2,0.2c0,0-0.2,0.1-0.1,0.2c0,0,0,0-0.1,0
								c0,0,0.1,0.1,0.1,0.2c0.2,0.2,0.4,0.4,0.7,0.7c0.1,0.1,0.2,0.2,0.3,0.3h0.1c0,0.1,0,0.1,0.1,0.2l0,0c0.1,0.1,0.2,0.2,0.2,0.2
								h0.1v0.1c0,0,0,0.1,0,0.2c0,0.1,0,0-0.1,0.1l0,0c0,0,0.1-0.1,0.2-0.1c0.3,0.3,0.6,0.6,0.8,0.9c0.3,0.3,0.6,0.6,0.8,0.9
								c0.1-0.1,0.2-0.2,0.2-0.2c0.2-0.2,0.5-0.5,0.7-0.8c0,0,0.1-0.1,0.2-0.2c0,0,0.1-0.1,0.1-0.2c0,0,0.1-0.1,0.2-0.2
								c0,0,0.1-0.1,0.2-0.2c0,0,0.1-0.1,0.1-0.2c0-0.1,0.1-0.1,0.1-0.1c0.2-0.2,0.3-0.4,0.5-0.6c0.2-0.2,0.2-0.3,0.4-0.4
								c0.2-0.2,0.5-0.5,0.7-0.7c0.1-0.1,0.1-0.2,0-0.2c-0.1-0.1-0.2-0.2-0.2-0.2c-0.2-0.2-0.3-0.3-0.4-0.5
								c-0.2-0.2-0.3-0.3-0.5-0.5c-0.2-0.3-0.6-0.6-0.8-0.9c-0.2-0.2-0.4-0.5-0.7-0.8 M51.5,253L51.5,253L51.5,253
								c0,0.1,0,0.2-0.1,0.2h0.1h0.1L51.5,253C51.5,253,51.5,253,51.5,253z M65.7,253.1c-0.1,0-0.1,0-0.2-0.1c0,0.1,0.1,0.1,0.1,0.1
								s0,0.1-0.1,0.1C65.6,253.2,65.7,253.2,65.7,253.1L65.7,253.1z M79.7,253.3C79.7,253.3,79.7,253.3,79.7,253.3
								c0,0,0.2,0,0.2-0.1s-0.2-0.1-0.2-0.1C79.7,253.1,79.7,253.1,79.7,253.3C79.7,253.2,79.7,253.2,79.7,253.3z M72.9,252.9
								L72.9,252.9c-0.1,0-0.2,0.1-0.2,0.2c0,0,0,0.1,0.2,0.2c0-0.1-0.1-0.1-0.2-0.2C72.8,253.1,72.9,253,72.9,252.9z M65.5,260.4
								c0-0.1-0.1-0.2-0.2-0.2C65.3,260.3,65.4,260.3,65.5,260.4z M66.6,254.1c-0.1-0.2-0.1-0.2-0.2-0.2
								C66.5,254,66.5,254.1,66.6,254.1z M65.2,253.5C65.2,253.5,65.3,253.5,65.2,253.5c0.1,0,0.2-0.1,0.2-0.2l0,0
								C65.4,253.4,65.3,253.4,65.2,253.5z M73.3,252.5c0.1-0.1,0.2-0.1,0.2-0.2C73.4,252.4,73.3,252.4,73.3,252.5z M66.4,252.4
								C66.4,252.4,66.3,252.4,66.4,252.4c-0.1,0-0.2,0.1-0.2,0.2C66.2,252.5,66.3,252.5,66.4,252.4z M67,254.6L67,254.6
								c0,0.1,0.1,0.2,0.2,0.2C67.2,254.7,67.1,254.6,67,254.6z M71.3,254.6c0.1-0.1,0.2-0.1,0.2-0.2
								C71.4,254.4,71.3,254.5,71.3,254.6z M59.4,253.9L59.4,253.9c0-0.1,0-0.2-0.2-0.2C59.2,253.8,59.3,253.8,59.4,253.9z
								 M57.4,254.4c-0.1,0-0.2,0.1-0.2,0.2C57.3,254.5,57.4,254.5,57.4,254.4z M45.8,254.5c0-0.1,0-0.2-0.2-0.2
								C45.7,254.4,45.8,254.5,45.8,254.5z M85.9,244.7c0-0.1,0-0.2-0.2-0.2C85.8,244.6,85.8,244.7,85.9,244.7z M65.5,252.9
								c-0.1-0.2-0.1-0.2-0.2-0.2C65.3,252.8,65.3,252.9,65.5,252.9z M73,252.9L73,252.9c0.2-0.1,0.2-0.1,0.2-0.2
								C73.1,252.7,73.1,252.8,73,252.9z M59,252.6c-0.1,0-0.2,0.1-0.2,0.2C59,252.8,59,252.7,59,252.6z M64.7,252.1L64.7,252.1
								c0,0.1,0.1,0.2,0.2,0.2l0,0C64.8,252.2,64.8,252.1,64.7,252.1z M85.9,252.2L85.9,252.2c0-0.1,0-0.2-0.2-0.2l0,0
								C85.8,252.1,85.8,252.1,85.9,252.2z M71.7,252c0,0.1,0,0.2,0.2,0.2C71.8,252.1,71.7,252,71.7,252z M57.6,252
								c0,0.1,0,0.2,0.2,0.2C57.7,252.1,57.6,252,57.6,252z M88.1,251.7c-0.1,0-0.2,0.1-0.2,0.2C88.1,251.9,88.1,251.8,88.1,251.7z
								 M67.2,259c-0.1,0-0.2,0.1-0.2,0.2C67.1,259.1,67.2,259,67.2,259z M46.2,251.5c-0.1,0-0.2,0.1-0.2,0.2
								C46.1,251.6,46.1,251.5,46.2,251.5z M57.1,251.5L57.1,251.5c0-0.1,0-0.2-0.2-0.2l0,0C57,251.5,57.1,251.5,57.1,251.5z
								 M72.7,253.2C72.7,253.2,72.6,253.2,72.7,253.2c-0.1,0-0.2,0.1-0.2,0.2l0,0C72.6,253.4,72.6,253.3,72.7,253.2z M72.4,253.4
								c0,0.1-0.2,0.1-0.2,0.2C72.3,253.6,72.4,253.6,72.4,253.4z M80.6,246.4c0,0.1,0.1,0.2,0.2,0.2
								C80.7,246.6,80.6,246.5,80.6,246.4z M85.2,247.4c0.1,0,0.2-0.1,0.2-0.2C85.3,247.3,85.2,247.3,85.2,247.4z M88.2,244.1
								c0.2,0,0.2-0.1,0.2-0.2C88.4,244,88.3,244.1,88.2,244.1z M66.4,259.9C66.4,259.9,66.3,259.9,66.4,259.9
								c-0.1,0-0.2,0.1-0.2,0.2C66.2,260,66.3,259.9,66.4,259.9z M85.3,244.1L85.3,244.1c0-0.1-0.1-0.2-0.2-0.2l0,0
								C85.2,244,85.3,244,85.3,244.1z M65.1,259.9c0,0.1,0,0.2,0.2,0.2C65.1,259.9,65.1,259.9,65.1,259.9z M57.4,251.9L57.4,251.9
								c0-0.1,0-0.2-0.2-0.2l0,0C57.3,251.7,57.3,251.8,57.4,251.9z M67,251.7C67,251.7,67,251.7,67,251.7c0.1,0,0.2-0.1,0.2-0.2
								l0,0C67.1,251.6,67,251.6,67,251.7z M53.1,251.5L53.1,251.5c-0.1,0-0.2,0.1-0.2,0.2l0,0C53,251.7,53,251.6,53.1,251.5z
								 M53.1,259c-0.2,0-0.2,0.1-0.2,0.2l0,0C53,259.1,53,259,53.1,259z M71.4,251.7C71.4,251.7,71.3,251.7,71.4,251.7
								c0,0.1,0.1,0.2,0.1,0.2C71.6,251.8,71.4,251.7,71.4,251.7z M85.5,251.7C85.5,251.7,85.4,251.7,85.5,251.7
								c0,0.1,0,0.2,0.2,0.2l0,0C85.6,251.8,85.6,251.7,85.5,251.7z M73.9,251.9L73.9,251.9c0.1,0,0.2-0.1,0.2-0.2
								C74,251.8,73.9,251.9,73.9,251.9z M64.6,252L64.6,252L64.6,252c0-0.1,0-0.1-0.1-0.2C64.4,251.9,64.5,252,64.6,252z M66.7,252
								C66.7,252,66.8,252,66.7,252c0.1,0,0.2-0.1,0.2-0.2C66.8,251.9,66.8,252,66.7,252z M81.1,251.9C81,251.9,81,251.9,81.1,251.9
								c-0.2,0.1-0.2,0.1-0.2,0.2C80.9,252,81,252,81.1,251.9z M52.5,252.1C52.5,252.1,52.4,252.1,52.5,252.1
								c-0.1,0-0.2,0.1-0.2,0.2C52.4,252.3,52.4,252.2,52.5,252.1z M66.6,252.1C66.5,252.1,66.5,252.1,66.6,252.1
								c-0.1,0-0.2,0.1-0.2,0.2C66.5,252.3,66.5,252.2,66.6,252.1z M80.6,252.4c0.1,0,0.2-0.1,0.2-0.2
								C80.6,252.2,80.6,252.2,80.6,252.4z M79,246.5c-0.2,0-0.2,0.1-0.2,0.2C78.9,246.7,78.9,246.6,79,246.5z M87.9,246.8
								c0-0.1-0.1-0.2-0.2-0.2C87.7,246.7,87.8,246.8,87.9,246.8z M85.8,246.8C85.8,246.8,85.8,246.8,85.8,246.8
								c0.1,0,0.2-0.1,0.2-0.2l0,0C85.8,246.7,85.8,246.8,85.8,246.8z M80.8,246.8L80.8,246.8c0,0.2,0.1,0.2,0.2,0.2
								C81,246.9,80.9,246.8,80.8,246.8z M88.1,247.1L88.1,247.1c0-0.2,0-0.2-0.2-0.2C88.1,247,88.1,247,88.1,247.1z M71.1,251.4
								L71.1,251.4c0,0.1,0.1,0.2,0.1,0.2C71.2,251.5,71.2,251.5,71.1,251.4z M60.2,251.4c-0.2,0.1-0.2,0.1-0.2,0.2
								C60.2,251.5,60.2,251.5,60.2,251.4z M88.5,251.5L88.5,251.5c-0.1,0-0.2,0.1-0.2,0.2C88.4,251.5,88.4,251.5,88.5,251.5z
								 M73.5,253.9c-0.1-0.2-0.1-0.2-0.2-0.2C73.4,253.8,73.4,253.8,73.5,253.9z M71.9,253.9C71.9,253.9,72,253.9,71.9,253.9
								c0.1,0,0.2-0.1,0.2-0.2C72.1,253.8,72,253.8,71.9,253.9z M86.1,253.9c0.1,0,0.2-0.1,0.2-0.2
								C86.1,253.8,86.1,253.8,86.1,253.9z M80.7,254.2c0-0.1-0.1-0.2-0.2-0.2C80.6,254,80.6,254.1,80.7,254.2z M64.9,254
								c-0.2,0.1-0.2,0.1-0.2,0.2C64.8,254.2,64.8,254.1,64.9,254z M57.6,254.3L57.6,254.3c0.1,0,0.2-0.1,0.2-0.2l0,0
								C57.6,254.2,57.6,254.2,57.6,254.3z M85.9,254.1L85.9,254.1c-0.1,0-0.2,0.1-0.2,0.2l0,0C85.8,254.2,85.9,254.2,85.9,254.1z
								 M52.6,254.3L52.6,254.3c0,0.1,0.1,0.2,0.2,0.2l0,0C52.8,254.3,52.8,254.3,52.6,254.3z M50.5,254.3c-0.1,0-0.2,0.1-0.2,0.2
								C50.4,254.4,50.5,254.3,50.5,254.3z M64.6,254.3c-0.1,0-0.2,0.1-0.2,0.2C64.5,254.4,64.6,254.3,64.6,254.3z M88,254.3
								c0.1,0,0.1,0.2,0.2,0.2C88.1,254.4,88.1,254.3,88,254.3z M81.3,254.8c0-0.1,0-0.2-0.2-0.2C81.2,254.6,81.2,254.7,81.3,254.8z
								 M50,254.8C50,254.8,50.1,254.8,50,254.8c0.1,0,0.2-0.1,0.2-0.2l0,0C50.1,254.6,50.1,254.7,50,254.8z M45.9,254.6
								c0.1,0.2,0.1,0.2,0.2,0.2C46.1,254.8,46.1,254.7,45.9,254.6z M57.1,254.7L57.1,254.7c-0.2,0.1-0.2,0.1-0.2,0.2
								C57.1,254.8,57.1,254.8,57.1,254.7z M85.3,254.7L85.3,254.7c-0.1,0-0.2,0.1-0.2,0.2l0,0C85.3,254.8,85.3,254.8,85.3,254.7z
								 M65.1,252.5L65.1,252.5c0-0.1,0-0.2-0.2-0.2C65.1,252.4,65.1,252.5,65.1,252.5z M86.3,252.6L86.3,252.6
								c0,0.1,0.1,0.2,0.1,0.2l0,0C86.5,252.7,86.4,252.6,86.3,252.6z M51.1,252.7c0,0.1,0.1,0.2,0.2,0.2
								C51.3,252.8,51.3,252.8,51.1,252.7z M79.4,252.7c0,0.1,0.1,0.2,0.2,0.2C79.6,252.9,79.5,252.8,79.4,252.7z M51.1,253.5
								L51.1,253.5c0.1,0,0.2-0.1,0.2-0.2l0,0C51.3,253.4,51.2,253.4,51.1,253.5z M44.9,253.6c-0.1-0.1-0.1-0.1-0.2-0.2
								C44.9,253.5,44.9,253.6,44.9,253.6z M59,253.6L59,253.6c0-0.1,0-0.2-0.2-0.2C59,253.5,59,253.5,59,253.6z M73,253.4
								c0,0.1,0.1,0.2,0.2,0.2C73.1,253.5,73.1,253.4,73,253.4z M58.3,253.5L58.3,253.5c-0.1,0-0.2,0.1-0.2,0.2l0,0
								C58.2,253.6,58.3,253.5,58.3,253.5z M52.2,253.8L52.2,253.8c0-0.1,0-0.2-0.2-0.2l0,0C52,253.7,52.1,253.8,52.2,253.8z
								 M65,253.8L65,253.8c0.1,0,0.2-0.1,0.2-0.2l0,0C65.1,253.8,65.1,253.8,65,253.8z M45.1,253.8L45.1,253.8c0,0.1,0,0.1,0.1,0.2
								l0,0C45.3,253.8,45.2,253.8,45.1,253.8z M86.3,246.2L86.3,246.2c0.2-0.1,0.2-0.1,0.2-0.2C86.4,246.1,86.3,246.1,86.3,246.2z
								 M87.3,246.2c0-0.1-0.1-0.2-0.2-0.2C87.2,246,87.2,246.1,87.3,246.2z M51.3,260.4c0-0.1-0.1-0.2-0.2-0.2
								C51.2,260.2,51.3,260.3,51.3,260.4z M51,260c0-0.1,0-0.2-0.2-0.2C50.9,259.9,51,259.9,51,260z M64.8,259.7
								c0-0.1,0-0.2-0.2-0.2C64.7,259.6,64.7,259.7,64.8,259.7z M85.5,244.3C85.5,244.3,85.4,244.3,85.5,244.3c0,0.1,0,0.2,0.1,0.2
								l0,0C85.6,244.4,85.6,244.3,85.5,244.3z M87.4,246.3L87.4,246.3c0,0.1,0.1,0.2,0.1,0.2l0,0C87.6,246.3,87.5,246.3,87.4,246.3
								z M66.7,259.5c0.1,0,0.2-0.1,0.2-0.2C66.8,259.3,66.8,259.4,66.7,259.5z M79.6,253.4c-0.2,0-0.2,0.1-0.2,0.2
								C79.5,253.5,79.6,253.4,79.6,253.4z M87.6,244.9c-0.2,0-0.2,0.1-0.2,0.2C87.5,245,87.6,245,87.6,244.9z M80,253.4L80,253.4
								c0,0.2,0,0.2,0.2,0.2C80.1,253.4,80.1,253.4,80,253.4z M66.1,253.4c0-0.1-0.1-0.1-0.2-0.2C66,253.4,66,253.4,66.1,253.4z
								 M52,253.5c0-0.2-0.1-0.2-0.2-0.2C51.8,253.4,51.9,253.4,52,253.5z M87.2,253.4L87.2,253.4c0,0.2,0,0.2,0.2,0.2
								C87.2,253.5,87.2,253.4,87.2,253.4z M88.4,254.8C88.4,254.8,88.5,254.8,88.4,254.8c0-0.1,0-0.2-0.2-0.2
								C88.3,254.8,88.4,254.8,88.4,254.8z M87.6,252.4c-0.1,0-0.2,0.1-0.2,0.2C87.5,252.5,87.6,252.4,87.6,252.4z M79.2,252.4
								C79.2,252.4,79.1,252.4,79.2,252.4c0,0.1,0,0.2,0.2,0.2l0,0C79.2,252.5,79.2,252.4,79.2,252.4z M71.2,254.7L71.2,254.7
								c-0.2,0.1-0.2,0.1-0.2,0.2C71.2,254.8,71.2,254.8,71.2,254.7z M52,252.6c0.1,0,0.2-0.1,0.2-0.2C52.1,252.5,52,252.5,52,252.6
								z M80.2,252.6C80.2,252.6,80.3,252.6,80.2,252.6c0.1,0,0.2-0.1,0.2-0.2l0,0C80.4,252.5,80.3,252.5,80.2,252.6z M58.1,252.6
								L58.1,252.6c0,0.1,0.1,0.2,0.2,0.2C58.2,252.7,58.2,252.6,58.1,252.6z M86.5,245.4c0-0.1-0.1-0.2-0.2-0.2
								C86.4,245.2,86.4,245.3,86.5,245.4z M87.3,252.7c-0.1,0-0.2,0.1-0.2,0.2l0,0C87.2,252.8,87.2,252.7,87.3,252.7z M50.7,259.7
								C50.7,259.6,50.7,259.6,50.7,259.7c0-0.1,0-0.2-0.1-0.2C50.6,259.6,50.7,259.7,50.7,259.7z M66.1,252.8
								C66.1,252.8,66,252.8,66.1,252.8c-0.1,0-0.2,0.1-0.2,0.2C66,252.9,66,252.9,66.1,252.8L66.1,252.8z M80,252.9
								c0.2-0.1,0.2-0.1,0.2-0.2C80.1,252.8,80,252.9,80,252.9z M53.1,254.8C53.1,254.7,53.1,254.7,53.1,254.8
								c0-0.1-0.1-0.1-0.1-0.2l0,0C52.9,254.6,53,254.7,53.1,254.8z M74,254.5c0-0.1,0-0.2-0.2-0.2C73.9,254.4,74,254.5,74,254.5z
								 M59.8,254.3c0,0.1,0,0.2,0.2,0.2C60,254.4,59.9,254.4,59.8,254.3z M78.5,254.5c0.1-0.1,0.2-0.1,0.2-0.2
								C78.6,254.3,78.5,254.4,78.5,254.5z M80.8,254.2c0,0.1,0.1,0.2,0.2,0.2C81,254.3,80.9,254.3,80.8,254.2z M71.8,254.1
								L71.8,254.1c-0.1,0-0.2,0.1-0.2,0.2l0,0C71.7,254.2,71.7,254.2,71.8,254.1z M52.3,259.8C52.4,259.8,52.4,259.8,52.3,259.8
								c0.2,0,0.2-0.1,0.2-0.2l0,0C52.4,259.6,52.4,259.7,52.3,259.8z M86.5,253.4c-0.1,0-0.2,0.1-0.2,0.2
								C86.5,253.6,86.5,253.5,86.5,253.4z M50.4,259.5c0-0.1,0-0.2-0.2-0.2C50.3,259.3,50.4,259.4,50.4,259.5z M51,253.7
								c-0.1,0-0.2,0.1-0.2,0.2C51,253.8,51,253.8,51,253.7z M64.4,259.2c0,0.1,0.1,0.2,0.2,0.2C64.6,259.4,64.5,259.3,64.4,259.2z
								 M87.4,253.8c0,0.1,0,0.2,0.2,0.2C87.6,253.8,87.5,253.8,87.4,253.8z M57.8,253.9C57.8,253.9,57.9,253.9,57.8,253.9
								c0.1,0,0.1-0.1,0.2-0.2C57.9,253.8,57.9,253.8,57.8,253.9z M52.4,254.1C52.4,254.1,52.5,254.1,52.4,254.1
								c0-0.1,0-0.2-0.2-0.2C52.4,254,52.4,254.1,52.4,254.1z M74.2,254.7L74.2,254.7c0,0.1,0,0.2,0.2,0.2
								C74.4,254.8,74.3,254.8,74.2,254.7L74.2,254.7z M78.7,246.8C78.7,246.8,78.7,246.8,78.7,246.8c-0.1,0-0.2,0.1-0.2,0.2
								C78.6,247,78.7,246.9,78.7,246.8z M51.8,260.4c0.1,0,0.2-0.1,0.2-0.2C51.9,260.3,51.8,260.3,51.8,260.4z M52.6,252
								C52.6,252,52.7,252,52.6,252c0.1,0,0.2-0.1,0.2-0.2C52.7,251.9,52.7,252,52.6,252z M52.2,259.9c-0.1,0-0.2,0.1-0.2,0.2
								C52.1,260,52.2,259.9,52.2,259.9z M78.7,252c0-0.1-0.1-0.2-0.2-0.2C78.6,251.9,78.6,251.9,78.7,252z M60,251.7
								c-0.1,0-0.2,0.1-0.2,0.2C59.9,251.9,60,251.8,60,251.7z M45.7,252c0.1,0,0.2-0.1,0.2-0.2C45.8,251.8,45.7,251.9,45.7,252z
								 M85.3,251.4c0,0.1,0,0.2,0.2,0.2C85.3,251.5,85.3,251.5,85.3,251.4z M74.3,251.5c-0.1,0-0.2,0.1-0.2,0.2
								C74.3,251.5,74.3,251.5,74.3,251.5z M64.2,259L64.2,259c0,0.1,0.1,0.1,0.2,0.2l0,0C64.3,259,64.2,259,64.2,259z M86.1,252.3
								L86.1,252.3c0,0.1,0.1,0.1,0.1,0.2l0,0C86.2,252.4,86.2,252.4,86.1,252.3z M81.2,247.1C81.2,247.1,81.1,247.1,81.2,247.1
								c0,0.1,0,0.2,0.1,0.2l0,0C81.2,247.2,81.2,247.2,81.2,247.1z M87.7,252.2c0.2,0,0.2-0.1,0.2-0.2
								C87.8,252.1,87.7,252.1,87.7,252.2z M59.4,252.4L59.4,252.4c-0.1,0-0.2,0.1-0.2,0.2l0,0C59.3,252.5,59.4,252.4,59.4,252.4z
								 M64.3,254.6L64.3,254.6c-0.1,0-0.2,0.1-0.2,0.1l0,0C64.2,254.8,64.2,254.7,64.3,254.6z M85.5,247.2c0.1,0,0.2-0.1,0.2-0.2
								C85.5,247,85.5,247.1,85.5,247.2z M50.7,254c-0.1,0.1-0.2,0.1-0.2,0.2C50.7,254.1,50.7,254.1,50.7,254z M79,254L79,254
								c-0.1,0-0.2,0.1-0.2,0.2C78.9,254.1,78.9,254.1,79,254z M60.1,254.6c0,0.1,0,0.2,0.2,0.2C60.2,254.8,60.2,254.7,60.1,254.6z
								 M73.6,254L73.6,254c0,0.1,0,0.2,0.1,0.2C73.7,254.2,73.7,254.1,73.6,254z M78.4,247.2C78.4,247.2,78.3,247.2,78.4,247.2
								c-0.1,0-0.2,0.1-0.2,0.2C78.3,247.3,78.3,247.2,78.4,247.2z M85.7,254.4L85.7,254.4c-0.1,0-0.2,0.1-0.2,0.2l0,0
								C85.6,254.5,85.7,254.5,85.7,254.4z M52.6,259.5c0.1,0,0.2-0.1,0.2-0.2C52.7,259.3,52.7,259.4,52.6,259.5z M67,254.4
								c-0.1-0.2-0.1-0.2-0.2-0.2C66.8,254.3,66.8,254.4,67,254.4z M88.5,247.3c0-0.1-0.1-0.1-0.2-0.2
								C88.3,247.3,88.4,247.3,88.5,247.3z M65.9,260.4c0,0,0.1-0.1,0.2-0.2l0,0C66,260.3,65.9,260.3,65.9,260.4z M45.4,252.2
								L45.4,252.2c0.1,0,0.2-0.1,0.2-0.2l0,0C45.4,252.1,45.4,252.1,45.4,252.2z M72.6,252.9c0,0.1,0,0.2,0.2,0.2
								C72.6,253,72.6,252.9,72.6,252.9z M59.5,252.2c0.1-0.1,0.2-0.1,0.2-0.2C59.6,252.1,59.5,252.1,59.5,252.2z M73.8,252.1
								C73.8,252.1,73.8,252,73.8,252.1c-0.1,0-0.2,0.1-0.2,0.2C73.7,252.1,73.7,252.1,73.8,252.1z M50.7,252.3
								c0-0.1-0.1-0.2-0.2-0.2C50.6,252.1,50.7,252.2,50.7,252.3z M79,252.3L79,252.3c0-0.1-0.1-0.2-0.1-0.2
								C78.8,252.2,78.9,252.2,79,252.3z M44.9,252.6c-0.1,0-0.2,0.1-0.2,0.2C44.9,252.8,44.9,252.8,44.9,252.6z M72.2,252.6
								L72.2,252.6c0,0.1,0,0.1,0.2,0.2l0,0C72.4,252.7,72.3,252.6,72.2,252.6z M50.9,252.4L50.9,252.4c0,0.1,0,0.2,0.1,0.2l0,0
								C51,252.5,51,252.4,50.9,252.4z M87.1,245.4C87.1,245.4,87.2,245.4,87.1,245.4c0.1,0,0.2-0.1,0.2-0.2
								C87.2,245.3,87.2,245.4,87.1,245.4z M45,252.5C45.1,252.5,45.1,252.5,45,252.5c0.2-0.1,0.2-0.1,0.2-0.2
								C45.2,252.4,45.1,252.4,45,252.5z M64.2,251.5c0,0.1,0.1,0.1,0.1,0.2l0,0C64.3,251.6,64.2,251.5,64.2,251.5z M81.3,251.5
								L81.3,251.5c-0.1,0-0.2,0.1-0.2,0.2l0,0C81.2,251.7,81.2,251.6,81.3,251.5z M66.4,253.8c0-0.1-0.1-0.2-0.2-0.2
								C66.2,253.7,66.2,253.8,66.4,253.8z M50.5,252c0-0.1-0.1-0.1-0.2-0.2C50.3,251.9,50.4,252,50.5,252z M66.6,259.6L66.6,259.6
								c-0.1,0-0.2,0.1-0.2,0.2C66.5,259.7,66.5,259.7,66.6,259.6z M50.1,259.1C50.1,259.1,50.2,259.1,50.1,259.1
								c0-0.1-0.1-0.2-0.1-0.2l0,0C50.1,259,50.1,259,50.1,259.1z M79.2,253.7c-0.2,0.1-0.2,0.1-0.2,0.2
								C79.2,253.8,79.2,253.8,79.2,253.7z M51.8,252.9c0.1,0,0.2-0.1,0.2-0.2C51.9,252.8,51.8,252.9,51.8,252.9z M59.6,254.2
								C59.6,254.2,59.7,254.2,59.6,254.2c0-0.1,0-0.2-0.2-0.2C59.5,254.1,59.6,254.2,59.6,254.2z M86.1,244.9
								C86.1,244.9,86,244.9,86.1,244.9c0,0.1,0.1,0.2,0.2,0.2C86.2,244.9,86.2,244.9,86.1,244.9z M72.1,252.4c0-0.1,0-0.1-0.2-0.2
								C72,252.4,72,252.4,72.1,252.4z M88,244.5c0.1,0,0.2-0.1,0.2-0.2C88.1,244.3,88.1,244.4,88,244.5z M87.7,244.8
								C87.7,244.8,87.7,244.8,87.7,244.8c0.1,0,0.2-0.1,0.2-0.2C87.8,244.7,87.7,244.7,87.7,244.8z M78.4,254.6
								C78.4,254.6,78.3,254.6,78.4,254.6c-0.1,0-0.2,0.1-0.2,0.2C78.3,254.8,78.3,254.7,78.4,254.6z M80.3,253.6
								C80.3,253.6,80.2,253.6,80.3,253.6c0,0.1,0,0.2,0.1,0.2l0,0C80.4,253.8,80.3,253.7,80.3,253.6z M50.2,251.7
								c0-0.1,0-0.1-0.1-0.2C50,251.6,50.1,251.6,50.2,251.7z M78.3,251.6C78.3,251.5,78.3,251.5,78.3,251.6
								C78.3,251.5,78.3,251.6,78.3,251.6z M86.2,246.3c-0.1,0-0.1,0.1-0.1,0.2C86.2,246.5,86.2,246.4,86.2,246.3z"/>
							<path d="M93.9,256.8c-0.6-0.6-1.2-1.2-1.7-1.8c0,0,0-0.1,0.1-0.1c-0.1,0-0.1,0-0.2,0c-0.1-0.1-0.2-0.2-0.2-0.2
								c-0.3-0.3-0.6-0.7-0.9-1c-0.2-0.2-0.3-0.3-0.5-0.5c-0.1-0.1,0-0.1,0-0.2c0.3-0.3,0.6-0.7,0.9-0.9c0.2-0.2,0.4-0.5,0.7-0.7
								c0,0,0,0,0.1-0.1h0.1l0,0c0,0,0-0.1-0.1-0.1c0.2-0.2,0.4-0.4,0.6-0.6c0.2-0.2,0.4-0.4,0.6-0.6c0.2-0.2,0.3-0.3,0.4-0.5
								c0.1-0.1,0.1-0.2,0-0.2c-0.2-0.2-0.5-0.6-0.8-0.8c-0.2-0.3-0.5-0.6-0.8-0.8c0,0,0-0.1,0.1-0.1l0,0H92
								c-0.1-0.1-0.2-0.2-0.2-0.2c-0.3-0.3-0.6-0.6-0.8-0.9c-0.2-0.2-0.4-0.4-0.6-0.6c-0.1-0.1,0-0.1,0-0.2c0.4-0.4,0.8-0.9,1.2-1.3
								c0.1-0.2,0.2-0.2,0.4-0.4h0.1l0,0c0,0,0-0.1-0.1-0.1c0.3-0.3,0.6-0.7,0.9-1c0.2-0.2,0.5-0.5,0.7-0.7l0.1-0.1
								c0,1.2,0,2.5,0,3.6c0,0,0,0-0.1-0.1l0,0c0.1,0.1,0.1,0.2,0,0.2c0.1,0,0.1,0,0.1-0.1c0,2.5,0,4.9,0,7.3h-0.1l0,0
								c0,0,0,0.1,0.1,0.1c0,0,0,0.1-0.1,0.1l0,0c0,0,0,0,0.1-0.1C93.9,254.4,93.9,255.7,93.9,256.8z M93.5,245.3
								c0,0.1,0,0.1,0.2,0.2C93.7,245.4,93.6,245.4,93.5,245.3z M93.1,254c-0.2,0-0.2,0.1-0.2,0.2C93,254.1,93.1,254.1,93.1,254z
								 M93.6,252.9L93.6,252.9c0-0.1,0-0.2-0.2-0.2C93.5,252.8,93.6,252.9,93.6,252.9z M93.2,252.4L93.2,252.4c0,0.1,0,0.2,0.2,0.2
								l0,0C93.3,252.5,93.3,252.4,93.2,252.4z M92.9,252.1c0,0.1,0.1,0.1,0.2,0.2C93.1,252.2,93,252.1,92.9,252.1z M92.6,251.8
								c0,0.1,0.1,0.2,0.2,0.2C92.8,251.9,92.8,251.8,92.6,251.8z M92.7,247c0-0.1,0.1-0.1,0.2-0.2C92.7,246.9,92.7,246.9,92.7,247z
								 M92.5,247.2L92.5,247.2c-0.1,0-0.2,0.1-0.2,0.2C92.4,247.3,92.4,247.3,92.5,247.2z M93.7,253.4L93.7,253.4
								c-0.1,0-0.2,0.1-0.2,0.2l0,0C93.6,253.5,93.6,253.4,93.7,253.4z M92.5,251.7c0-0.1-0.1-0.2-0.2-0.2
								C92.4,251.5,92.4,251.6,92.5,251.7z M93.2,244.9c0,0.1,0.1,0.2,0.2,0.2C93.3,245,93.3,245,93.2,244.9z M92.9,244.6
								L92.9,244.6c0,0.1,0.1,0.2,0.2,0.2l0,0C93.1,244.8,93,244.7,92.9,244.6z M92.8,244.5c0-0.1-0.1-0.2-0.2-0.2
								C92.7,244.4,92.7,244.5,92.8,244.5z M92.4,254.8c0.1,0,0.2-0.1,0.2-0.2C92.4,254.7,92.4,254.7,92.4,254.8z M92.5,244.2
								L92.5,244.2c0-0.1-0.1-0.2-0.2-0.2C92.4,244.1,92.4,244.2,92.5,244.2z M93.5,246.1L93.5,246.1c0.1,0,0.2-0.1,0.2-0.2l0,0
								C93.6,245.9,93.5,246,93.5,246.1z M92.6,254.4C92.6,254.4,92.7,254.4,92.6,254.4c0.1,0,0.2-0.1,0.2-0.2l0,0
								C92.8,254.3,92.7,254.4,92.6,254.4z M93.3,253.7c-0.1,0-0.2,0.1-0.2,0.2C93.3,253.8,93.3,253.8,93.3,253.7z M93.2,246.3
								L93.2,246.3c0.1,0,0.2,0,0.2-0.2C93.3,246.3,93.3,246.3,93.2,246.3z M92.9,246.8L92.9,246.8c0.1-0.1,0.2-0.1,0.2-0.2l0,0
								C93,246.6,92.9,246.7,92.9,246.8z"/>
							<path d="M76.3,260.6c0.6-0.6,1.2-1.2,1.7-1.8h0.1l0,0c0,0,0-0.1-0.1-0.1c0.2-0.2,0.3-0.4,0.5-0.6c0.2-0.2,0.4-0.4,0.6-0.7
								c0.2-0.2,0.4-0.4,0.6-0.6c0,0,0,0,0.1,0c0.2,0.2,0.5,0.5,0.7,0.8c0.1,0.1,0.2,0.2,0.3,0.3c0,0,0,0.1,0.2,0
								c-0.1,0.1,0.1,0.2,0.1,0.2c0,0.1,0.1,0.1,0.2,0.2c0,0,0.1,0.1,0.2,0.2c0.1,0.1,0.1,0.2,0,0.2l0,0c0.1,0,0.1-0.1,0.2-0.1
								c0.3,0.2,0.6,0.6,0.8,0.9c0.3,0.3,0.6,0.6,0.8,0.9c-1.2,0-2.3,0-3.5,0l0,0c-0.1,0-0.1,0-0.2-0.1c0,0,0,0.1,0.1,0.1
								C78.6,260.6,77.4,260.6,76.3,260.6z M79.6,260.4c0-0.1-0.1-0.2-0.2-0.2C79.4,260.3,79.5,260.3,79.6,260.4z M80.7,259.6
								L80.7,259.6c-0.1,0-0.2,0.1-0.2,0.2l0,0C80.6,259.7,80.7,259.6,80.7,259.6z M78.7,259.5c0-0.1-0.1-0.2-0.2-0.2
								S78.6,259.4,78.7,259.5z M81.1,259.1L81.1,259.1c0.1,0,0.2-0.1,0.2-0.2l0,0C81.2,259,81.1,259.1,81.1,259.1z M79.2,260
								c0-0.1-0.1-0.1-0.2-0.2C79.2,259.9,79.2,259.9,79.2,260z M80.8,259.5L80.8,259.5c0.1,0,0.2,0,0.2-0.2
								C80.9,259.4,80.9,259.4,80.8,259.5z M78.3,259c0,0.1,0,0.2,0.2,0.2C78.3,259,78.3,259,78.3,259z M80.2,260L80.2,260
								c0.1,0,0.2-0.1,0.2-0.2l0,0C80.4,259.9,80.3,259.9,80.2,260z M80,260.4c0.1-0.1,0.1-0.1,0.1-0.2
								C80.1,260.3,80,260.3,80,260.4z M78.9,259.6L78.9,259.6C78.9,259.6,78.9,259.7,78.9,259.6C79,259.7,78.9,259.6,78.9,259.6z"
								/>
							<path d="M83.4,260.6C83.4,260.5,83.3,260.5,83.4,260.6c0.1-0.2,0.2-0.2,0.3-0.4c0.2-0.2,0.3-0.3,0.5-0.5
								c0.2-0.2,0.4-0.3,0.5-0.6c0.1-0.2,0.3-0.2,0.4-0.4h0.1c0.3-0.3,0.6-0.6,0.8-0.9c0.2-0.2,0.4-0.4,0.6-0.7
								c0.1-0.1,0.2-0.2,0.2-0.3h0.1c0.3,0.3,0.6,0.7,0.9,1c0.2,0.2,0.4,0.4,0.7,0.7c0,0,0.1,0.1,0.1,0.2l0,0
								c0.2,0.1,0.2,0.2,0.4,0.3c0.4,0.4,0.8,0.9,1.3,1.4c0,0,0.1,0.1,0.1,0.2c-1.2,0-2.3,0-3.5,0c0,0,0.1-0.1,0.1-0.2l0,0
								c0,0-0.1,0.1-0.2,0.1s-0.1-0.2-0.2-0.2l0,0c0.1,0.1,0.2,0.1,0.2,0.2C85.7,260.6,84.5,260.6,83.4,260.6z M85.3,258.8
								L85.3,258.8c0,0.1,0,0.1,0.1,0.2l0,0C85.3,259,85.3,258.9,85.3,258.8z M85.9,259.6c0-0.1,0-0.2-0.2-0.2
								C85.8,259.5,85.8,259.5,85.9,259.6z M85.6,259.3C85.7,259.3,85.7,259.3,85.6,259.3c0-0.1,0-0.2-0.2-0.2
								C85.5,259.2,85.6,259.3,85.6,259.3z M88.5,258.9c-0.1,0-0.2,0.1-0.2,0.2C88.4,259,88.4,259,88.5,258.9z M87.4,259.9
								L87.4,259.9c0.1,0,0.2-0.1,0.2-0.2l0,0C87.5,259.9,87.4,259.9,87.4,259.9z M86.5,260.3c0-0.1,0-0.2-0.2-0.2
								C86.4,260.1,86.4,260.2,86.5,260.3z M87.1,260.3L87.1,260.3c0.2,0,0.2-0.1,0.2-0.2C87.2,260.1,87.2,260.2,87.1,260.3z
								 M86.1,259.7C86.1,259.8,86.1,259.8,86.1,259.7L86.1,259.7c0,0.1,0.1,0.1,0.1,0.2C86.2,259.9,86.2,259.8,86.1,259.7z
								 M87.7,259.7c0.2,0,0.2-0.1,0.2-0.2C87.8,259.5,87.7,259.6,87.7,259.7z M88.1,259.2c-0.1,0-0.2,0.1-0.2,0.2
								C88.1,259.3,88.1,259.3,88.1,259.2z"/>
							<path d="M55.1,260.5c0.1,0,0.2-0.1,0.2-0.2c0.3-0.3,0.7-0.7,1-1.1c0.2-0.2,0.3-0.4,0.5-0.6c0.2-0.3,0.6-0.6,0.8-0.9
								c0-0.1,0.1-0.1,0.2-0.2c0.1-0.1,0.1-0.1,0.2-0.2c0.2-0.2,0.2-0.2,0.4-0.4c0.1-0.1,0.1-0.2,0.2-0.2c0.1,0,0.1,0,0.2,0.1
								c0.2,0.2,0.4,0.5,0.7,0.7c0.2,0.2,0.5,0.6,0.8,0.8c0.1,0.1,0.2,0.1,0.2,0.2l0,0c0.3,0.2,0.4,0.4,0.7,0.7
								c0.4,0.4,0.7,0.8,1.2,1.2c-1.2,0-2.3,0-3.5,0c0,0,0.1-0.1,0.1-0.2l0,0c0,0-0.1,0.1-0.2,0.1c-0.1-0.1-0.1-0.1-0.2-0.2l0,0
								c0,0.1,0.1,0.2,0.2,0.2C57.4,260.6,56.2,260.6,55.1,260.5L55.1,260.5z M57,258.8c0,0.1,0,0.2,0.2,0.2
								C57.1,259,57.1,258.9,57,258.8z M57.6,259.5c0,0.1,0.1,0.2,0.2,0.2C57.7,259.5,57.6,259.5,57.6,259.5z M58.1,259.9
								c0-0.1-0.1-0.1-0.2-0.2C57.9,259.8,57.9,259.9,58.1,259.9z M58.1,260L58.1,260c0,0.1,0,0.2,0.2,0.2
								C58.3,260.1,58.2,260.1,58.1,260z M60,259.2L60,259.2c-0.1,0-0.2,0.1-0.2,0.2l0,0C59.9,259.3,59.9,259.3,60,259.2z
								 M57.4,259.3c0-0.1-0.1-0.2-0.2-0.2C57.3,259.2,57.3,259.3,57.4,259.3z M59.4,259.8c-0.2,0.1-0.2,0.1-0.2,0.2
								C59.3,259.9,59.4,259.9,59.4,259.8z M60,259C60,259,60.1,259,60,259c0.1,0,0.2-0.1,0.2-0.2l0,0C60.2,259,60.1,259,60,259z
								 M59,260.1L59,260.1c-0.1,0-0.2,0.1-0.2,0.2C59,260.3,59,260.2,59,260.1z M59.5,259.6c0.1-0.1,0.1-0.1,0.1-0.2
								C59.6,259.5,59.5,259.5,59.5,259.6z"/>
							<path d="M69.3,260.6L69.3,260.6c0.2-0.2,0.3-0.3,0.4-0.5c0.2-0.2,0.2-0.3,0.4-0.4c0.1-0.1,0.2-0.2,0.2-0.2
								c0.2-0.3,0.5-0.6,0.8-0.8c0.2-0.2,0.4-0.4,0.6-0.7c0.2-0.3,0.6-0.6,0.8-0.9l0.1-0.1c0.1,0,0.1,0,0.1,0.1
								c0.2,0.3,0.5,0.6,0.8,0.8c0.2,0.2,0.5,0.5,0.8,0.8l0,0c0.1,0,0,0.2,0.2,0.2c0.1,0,0.1,0.1,0.2,0.2c0.1,0.1,0.1,0.1,0.2,0.2
								c0.1,0.1,0.1,0.1,0.2,0.2c0.1,0.1,0.1,0.1,0.2,0.2c0.3,0.3,0.6,0.7,0.9,0.9c0,0,0,0.1,0.1,0.1c-1.2,0-2.3,0-3.5,0
								c0,0,0.1-0.1,0.1-0.2c-0.1,0.1-0.2,0.1-0.2,0.2C71.6,260.6,70.4,260.6,69.3,260.6z M74.1,259C74.1,259,74.2,259,74.1,259
								c0.1,0,0.2-0.1,0.2-0.2l0,0C74.2,259,74.2,259,74.1,259z M72.6,260.4c0,0.1,0.1,0.2,0.2,0.2
								C72.6,260.4,72.6,260.4,72.6,260.4z M71.3,259.1c0,0.1,0.1,0.2,0.2,0.2C71.5,259.2,71.5,259.1,71.3,259.1z M73.2,260.1
								C73.2,260.1,73.1,260.1,73.2,260.1c-0.1,0-0.2,0.1-0.2,0.2l0,0C73.1,260.3,73.1,260.2,73.2,260.1z M71.1,258.8L71.1,258.8
								c0,0.1,0,0.1,0.2,0.2l0,0C71.2,259,71.2,258.9,71.1,258.8z M72,259.7c0,0.1,0.1,0.1,0.2,0.2C72.2,259.9,72,259.8,72,259.7z
								 M73.3,259.9L73.3,259.9c0.1,0,0.2-0.1,0.2-0.2l0,0C73.4,259.9,73.4,259.9,73.3,259.9z M73.9,259.4L73.9,259.4
								c0.1,0,0.2-0.1,0.2-0.2C74,259.2,73.9,259.3,73.9,259.4z M72.2,260L72.2,260c0,0.1,0,0.1,0.2,0.2
								C72.4,260.2,72.3,260.1,72.2,260z M71.7,259.5c0,0.1,0.1,0.2,0.2,0.2C71.8,259.5,71.7,259.5,71.7,259.5z M73.8,259.5
								C73.8,259.5,73.7,259.5,73.8,259.5c-0.1,0-0.2,0-0.2,0.2C73.7,259.6,73.7,259.5,73.8,259.5z"/>
							<path d="M44.5,256.9C44.5,256.9,44.6,256.9,44.5,256.9c0.3,0.3,0.5,0.6,0.7,0.8c0.2,0.2,0.4,0.4,0.6,0.7
								c0.1,0.1,0.2,0.2,0.3,0.3c0,0,0,0.1,0.1,0.2c0.1,0,0.1,0.1,0.2,0.1c0.5,0.5,1,1.1,1.6,1.6c0,0,0,0,0,0.1c-1.2,0-2.3,0-3.5,0
								c0,0,0.1-0.1,0.2-0.2l0,0c-0.1,0-0.1,0.1-0.2,0.1C44.5,259.3,44.5,258.1,44.5,256.9z M45.9,259L45.9,259
								c0.1,0,0.2-0.1,0.2-0.2C46,259,46,259,45.9,259z M44.9,260.1L44.9,260.1c-0.1,0-0.2,0.1-0.2,0.2l0,0
								C44.9,260.3,44.9,260.2,44.9,260.1z M45.7,259.4c0.1,0,0.2-0.1,0.2-0.2C45.8,259.2,45.7,259.3,45.7,259.4z M45.1,259.9
								L45.1,259.9c0.1,0,0.2-0.1,0.2-0.2C45.2,259.9,45.1,259.9,45.1,259.9z M45.6,259.5C45.5,259.5,45.5,259.5,45.6,259.5
								C45.4,259.5,45.4,259.5,45.6,259.5C45.5,259.5,45.5,259.5,45.6,259.5z"/>
							<path d="M90.4,260.6c0.1-0.1,0.2-0.2,0.2-0.2c0.4-0.4,0.7-0.7,1.1-1.2c0.1-0.2,0.2-0.2,0.4-0.4h0.1l0,0c0,0,0-0.1-0.1-0.1
								c0.2-0.2,0.4-0.4,0.6-0.6c0.2-0.3,0.5-0.6,0.8-0.8c0.1-0.1,0.2-0.2,0.3-0.4c0,1.2,0,2.5,0,3.6c0,0,0,0-0.1-0.1l0,0
								c0,0,0,0.1,0.1,0.1C92.7,260.6,91.5,260.6,90.4,260.6z M93.5,260.1L93.5,260.1c0,0.1,0,0.2,0.2,0.2l0,0
								C93.6,260.3,93.6,260.2,93.5,260.1z M93.3,260c0-0.1-0.1-0.2-0.2-0.2C93.3,259.9,93.3,259.9,93.3,260z M92.8,259.5
								C92.8,259.5,92.8,259.4,92.8,259.5c0-0.1-0.1-0.2-0.2-0.2l0,0C92.7,259.3,92.7,259.4,92.8,259.5z M92.9,259.5L92.9,259.5
								c0,0.1,0.1,0.1,0.1,0.2l0,0C93.1,259.6,93,259.5,92.9,259.5z M92.5,259.1L92.5,259.1c0-0.1-0.1-0.2-0.2-0.2l0,0
								C92.4,259,92.4,259,92.5,259.1z"/>
							<path fill="#FFFFFF" d="M58.6,260.6c-0.1-0.1-0.2-0.1-0.2-0.2l0,0C58.6,260.4,58.6,260.4,58.6,260.6c0-0.1,0.1-0.1,0.2-0.2
								l0,0C58.8,260.4,58.7,260.5,58.6,260.6L58.6,260.6z"/>
							<path fill="#FFFFFF" d="M86.8,260.6c-0.1-0.1-0.2-0.1-0.2-0.2l0,0C86.7,260.4,86.7,260.4,86.8,260.6c0.1-0.1,0.1-0.2,0.2-0.2
								l0,0C87,260.4,86.9,260.5,86.8,260.6L86.8,260.6z"/>
							<path fill="#FFFFFF" d="M44.5,253.1c0,0,0.1-0.1,0.2-0.1l0,0C44.6,253,44.6,253.1,44.5,253.1c0.1,0.1,0.2,0.2,0.2,0.2
								C44.6,253.3,44.6,253.2,44.5,253.1C44.5,253.2,44.5,253.1,44.5,253.1z"/>
							<path fill="#FFFFFF" d="M93.9,253.2C93.8,253.3,93.8,253.3,93.9,253.2C93.8,253.3,93.8,253.3,93.9,253.2
								C93.8,253.3,93.8,253.2,93.9,253.2c-0.1-0.1-0.1-0.1-0.1-0.2l0,0h0.1C93.9,253,93.9,253.1,93.9,253.2z"/>
							<path fill="#FFFFFF" d="M93.9,245.8C93.9,245.8,93.9,245.8,93.9,245.8c-0.1,0,0-0.1-0.1-0.2l0,0
								C93.8,245.6,93.8,245.6,93.9,245.8C93.9,245.7,93.9,245.7,93.9,245.8z"/>
							<path fill="#FFFFFF" d="M51.5,260.6L51.5,260.6c0.1-0.1,0.2-0.1,0.2,0C51.6,260.6,51.5,260.6,51.5,260.6z"/>
							<path fill="#FFFFFF" d="M65.6,260.6C65.6,260.6,65.6,260.5,65.6,260.6C65.6,260.5,65.7,260.5,65.6,260.6L65.6,260.6
								L65.6,260.6z"/>
							<path fill="#FFFFFF" d="M79.7,260.6C79.7,260.6,79.7,260.5,79.7,260.6c0-0.1,0.1-0.1,0.2,0l0,0
								C79.8,260.6,79.7,260.6,79.7,260.6z"/>
							<path fill="#FFFFFF" d="M44.5,260.5c0.1,0,0.1-0.1,0.2-0.1l0,0C44.7,260.4,44.6,260.5,44.5,260.5
								C44.5,260.6,44.5,260.5,44.5,260.5z"/>
							<path fill="#FFFFFF" d="M72.7,260.6c0-0.1,0.1-0.1,0.2-0.2C72.9,260.4,72.8,260.5,72.7,260.6L72.7,260.6z"/>
							<path fill="#FFFFFF" d="M93.8,260.6C93.8,260.6,93.8,260.5,93.8,260.6L93.8,260.6C93.8,260.5,93.8,260.5,93.8,260.6
								C93.8,260.5,93.9,260.6,93.8,260.6z"/>
							<path fill="#FFFFFF" d="M58.6,253.1c0,0,0.1-0.1,0.2-0.2C58.8,253,58.7,253.1,58.6,253.1c0.1,0.1,0.1,0.2,0.2,0.2
								c-0.1,0-0.1-0.1-0.2-0.1c-0.1,0.1-0.1,0.1-0.2,0.2c0-0.1,0-0.2,0.1-0.2C58.6,253.1,58.6,253.1,58.6,253.1L58.6,253.1z"/>
							<path fill="#FFFFFF" d="M86.8,253.1c0,0,0.1-0.1,0.2-0.1l0,0C87,253,86.9,253.1,86.8,253.1c0.1,0.1,0.2,0.2,0.2,0.2l0,0
								C87,253.3,86.9,253.2,86.8,253.1c-0.1,0.2-0.1,0.2-0.2,0.2C86.7,253.3,86.7,253.2,86.8,253.1L86.8,253.1L86.8,253.1z"/>
							<path fill="#FFFFFF" d="M86.8,245.8C86.8,245.8,86.8,245.7,86.8,245.8c-0.2-0.1-0.2-0.2-0.2-0.2l0,0
								C86.7,245.5,86.7,245.6,86.8,245.8c-0.1-0.1,0-0.2,0.1-0.2C87,245.5,86.8,245.6,86.8,245.8L86.8,245.8
								C86.9,245.8,86.9,245.8,86.8,245.8L86.8,245.8z"/>
							<path fill="#FFFFFF" d="M51.5,253c0,0,0.1,0,0.2,0.1v0.1h-0.1c0,0,0,0-0.1,0C51.5,253.2,51.5,253.1,51.5,253
								C51.5,253.1,51.5,253,51.5,253L51.5,253z"/>
							<path fill="#FFFFFF" d="M65.7,253.1L65.7,253.1c0,0.1-0.1,0.1-0.2,0.2C65.6,253.3,65.6,253.2,65.7,253.1
								c-0.1,0.1-0.1,0-0.2,0C65.6,253,65.7,253,65.7,253.1z"/>
							<path fill="#FFFFFF" d="M79.7,253.3C79.7,253.3,79.7,253.2,79.7,253.3c0.1-0.1,0.1-0.2,0-0.2c0,0,0.2,0,0.2,0.1
								S79.7,253.2,79.7,253.3L79.7,253.3z"/>
							<path fill="#FFFFFF" d="M72.9,252.9c0,0-0.1,0.1-0.1,0.2c0,0,0.1,0.1,0.2,0.2c-0.2,0-0.2-0.1-0.2-0.2
								C72.7,253.1,72.8,253,72.9,252.9L72.9,252.9z"/>
							<path fill="#FFFFFF" d="M65.5,260.4c-0.1,0-0.2-0.1-0.2-0.2C65.4,260.2,65.4,260.3,65.5,260.4z"/>
							<path fill="#FFFFFF" d="M66.6,254.1c-0.1,0-0.2-0.1-0.2-0.2C66.5,253.9,66.5,253.9,66.6,254.1z"/>
							<path fill="#FFFFFF" d="M65.2,253.5c0-0.1,0.1-0.1,0.2-0.2l0,0C65.5,253.4,65.3,253.4,65.2,253.5
								C65.3,253.5,65.3,253.5,65.2,253.5z"/>
							<path fill="#FFFFFF" d="M73.3,252.5c0-0.1,0.1-0.2,0.2-0.2C73.5,252.4,73.4,252.5,73.3,252.5z"/>
							<path fill="#FFFFFF" d="M66.4,252.4c0,0.1-0.1,0.1-0.2,0.2C66.1,252.5,66.2,252.5,66.4,252.4L66.4,252.4z"/>
							<path fill="#FFFFFF" d="M67,254.6c0,0,0.1,0.1,0.2,0.2C67.1,254.7,67,254.7,67,254.6L67,254.6z"/>
							<path fill="#FFFFFF" d="M71.3,254.6c0-0.1,0.1-0.2,0.2-0.2C71.6,254.5,71.5,254.5,71.3,254.6z"/>
							<path fill="#FFFFFF" d="M59.4,253.9c0-0.1-0.1-0.1-0.2-0.2C59.4,253.8,59.4,253.8,59.4,253.9L59.4,253.9z"/>
							<path fill="#FFFFFF" d="M57.4,254.4c0,0.1-0.1,0.1-0.2,0.2C57.3,254.5,57.3,254.4,57.4,254.4z"/>
							<path fill="#FFFFFF" d="M45.8,254.5c0-0.1-0.1-0.1-0.2-0.2C45.8,254.4,45.8,254.4,45.8,254.5z"/>
							<path fill="#FFFFFF" d="M85.9,244.7c0,0-0.1-0.1-0.2-0.2C85.8,244.6,85.9,244.6,85.9,244.7z"/>
							<path fill="#FFFFFF" d="M65.5,252.9c-0.1,0-0.2-0.1-0.2-0.2C65.4,252.8,65.4,252.8,65.5,252.9z"/>
							<path fill="#FFFFFF" d="M73,252.9c0-0.1,0.1-0.1,0.2-0.2C73.1,252.7,73.1,252.8,73,252.9L73,252.9z"/>
							<path fill="#FFFFFF" d="M59,252.6c0,0.1-0.1,0.2-0.2,0.2C59,252.8,59,252.7,59,252.6z"/>
							<path fill="#FFFFFF" d="M64.7,252.1c0.1,0,0.2,0.1,0.2,0.2l0,0C64.8,252.2,64.7,252.1,64.7,252.1L64.7,252.1z"/>
							<path fill="#FFFFFF" d="M85.9,252.2c0-0.1-0.1-0.1-0.2-0.2l0,0C85.9,252,85.9,252.1,85.9,252.2
								C85.9,252.1,85.9,252.1,85.9,252.2z"/>
							<path fill="#FFFFFF" d="M71.7,252c0.1,0,0.2,0.1,0.2,0.2C71.7,252.1,71.7,252.1,71.7,252z"/>
							<path fill="#FFFFFF" d="M57.6,252c0.1,0,0.2,0.1,0.2,0.2C57.6,252.1,57.6,252.1,57.6,252z"/>
							<path fill="#FFFFFF" d="M88.1,251.7c0,0.1-0.1,0.2-0.2,0.2C88,251.9,88.1,251.8,88.1,251.7z"/>
							<path fill="#FFFFFF" d="M67.2,259c0,0.1-0.1,0.2-0.2,0.2C67,259.1,67.1,259,67.2,259z"/>
							<path fill="#FFFFFF" d="M46.2,251.5c0,0.1-0.1,0.2-0.2,0.2C46,251.5,46,251.5,46.2,251.5z"/>
							<path fill="#FFFFFF" d="M57.1,251.5c-0.1-0.1-0.1-0.1-0.2-0.2l0,0C57.1,251.4,57.1,251.5,57.1,251.5L57.1,251.5z"/>
							<path fill="#FFFFFF" d="M72.7,253.2c-0.1,0.1-0.1,0.1-0.2,0.2l0,0C72.6,253.3,72.6,253.2,72.7,253.2
								C72.6,253.2,72.7,253.2,72.7,253.2z"/>
							<path fill="#FFFFFF" d="M72.4,253.4c0,0.1-0.1,0.1-0.2,0.2C72.2,253.6,72.3,253.5,72.4,253.4z"/>
							<path fill="#FFFFFF" d="M80.6,246.4c0.1,0,0.2,0.1,0.2,0.2C80.6,246.6,80.6,246.6,80.6,246.4z"/>
							<path fill="#FFFFFF" d="M85.2,247.4c0-0.1,0.1-0.2,0.2-0.2C85.3,247.3,85.3,247.4,85.2,247.4z"/>
							<path fill="#FFFFFF" d="M88.2,244.1c0-0.1,0.1-0.1,0.2-0.2C88.5,244,88.4,244.1,88.2,244.1z"/>
							<path fill="#FFFFFF" d="M66.4,259.9c0,0.1-0.1,0.1-0.2,0.2C66.1,260,66.2,259.9,66.4,259.9L66.4,259.9z"/>
							<path fill="#FFFFFF" d="M85.3,244.1c-0.1,0-0.2-0.1-0.2-0.2l0,0C85.3,244,85.3,244,85.3,244.1L85.3,244.1z"/>
							<path fill="#FFFFFF" d="M65.1,259.9c0,0.1,0.1,0.1,0.2,0.2C65.1,259.9,65.1,259.9,65.1,259.9z"/>
							<path fill="#FFFFFF" d="M57.4,251.9c0-0.1-0.1-0.1-0.2-0.2l0,0C57.3,251.7,57.4,251.8,57.4,251.9L57.4,251.9z"/>
							<path fill="#FFFFFF" d="M67,251.7c0-0.1,0.1-0.1,0.2-0.2l0,0C67.2,251.6,67,251.6,67,251.7C67,251.7,67,251.7,67,251.7z"/>
							<path fill="#FFFFFF" d="M53.1,251.5c-0.1,0.1-0.1,0.1-0.2,0.2l0,0C52.9,251.6,52.9,251.6,53.1,251.5L53.1,251.5z"/>
							<path fill="#FFFFFF" d="M53.1,259c-0.1,0.1-0.1,0.1-0.2,0.2l0,0C52.9,259.1,52.9,259,53.1,259z"/>
							<path fill="#FFFFFF" d="M71.4,251.7c0.1,0,0.2,0.1,0.1,0.2C71.5,251.8,71.4,251.7,71.4,251.7
								C71.3,251.7,71.3,251.7,71.4,251.7z"/>
							<path fill="#FFFFFF" d="M85.5,251.7c0,0.1,0.1,0.1,0.2,0.2l0,0C85.5,251.8,85.5,251.7,85.5,251.7L85.5,251.7z"/>
							<path fill="#FFFFFF" d="M73.9,251.9c0-0.1,0.1-0.1,0.2-0.2C74,251.8,74,251.9,73.9,251.9C73.9,252,73.9,252,73.9,251.9z"/>
							<path fill="#FFFFFF" d="M64.6,252c-0.1,0-0.1-0.1-0.2-0.2C64.5,251.8,64.5,251.8,64.6,252C64.6,251.9,64.6,252,64.6,252
								L64.6,252z"/>
							<path fill="#FFFFFF" d="M66.7,252c0,0,0.1-0.1,0.2-0.2C66.9,252,66.8,252,66.7,252C66.8,252,66.7,252,66.7,252z"/>
							<path fill="#FFFFFF" d="M81.1,251.9c0,0.1-0.1,0.1-0.2,0.2C80.8,252,80.8,252,81.1,251.9C81,251.9,81,251.9,81.1,251.9z"/>
							<path fill="#FFFFFF" d="M52.5,252.1c0,0.1-0.1,0.1-0.2,0.2C52.4,252.2,52.4,252.2,52.5,252.1L52.5,252.1z"/>
							<path fill="#FFFFFF" d="M66.6,252.1c0,0.1-0.1,0.1-0.2,0.2C66.4,252.2,66.5,252.2,66.6,252.1
								C66.5,252.1,66.6,252.1,66.6,252.1z"/>
							<path fill="#FFFFFF" d="M80.6,252.4c0-0.1,0.1-0.1,0.2-0.2C80.7,252.2,80.6,252.3,80.6,252.4z"/>
							<path fill="#FFFFFF" d="M79,246.5c-0.1,0.1-0.1,0.1-0.2,0.2C78.8,246.6,78.9,246.6,79,246.5z"/>
							<path fill="#FFFFFF" d="M87.9,246.8c-0.1-0.1-0.2-0.2-0.2-0.2C87.8,246.6,87.8,246.7,87.9,246.8z"/>
							<path fill="#FFFFFF" d="M85.8,246.8c0-0.1,0.1-0.1,0.2-0.2l0,0C85.9,246.8,85.8,246.8,85.8,246.8
								C85.8,246.8,85.8,246.8,85.8,246.8z"/>
							<path fill="#FFFFFF" d="M80.8,246.8c0.1,0.1,0.1,0.1,0.2,0.2C80.9,246.9,80.9,246.9,80.8,246.8L80.8,246.8z"/>
							<path fill="#FFFFFF" d="M88.1,247.1c-0.1,0-0.1-0.1-0.2-0.2C88.1,246.9,88.1,246.9,88.1,247.1L88.1,247.1z"/>
							<path fill="#FFFFFF" d="M71.1,251.4c0.1,0.1,0.2,0.1,0.1,0.2C71.2,251.5,71.1,251.5,71.1,251.4L71.1,251.4z"/>
							<path fill="#FFFFFF" d="M60.2,251.4c0,0.1-0.1,0.2-0.2,0.2C60.1,251.5,60.1,251.5,60.2,251.4z"/>
							<path fill="#FFFFFF" d="M88.5,251.5c0,0.1-0.1,0.2-0.2,0.2C88.3,251.5,88.4,251.5,88.5,251.5L88.5,251.5z"/>
							<path fill="#FFFFFF" d="M73.5,253.9c-0.1,0-0.1-0.1-0.2-0.2C73.4,253.8,73.4,253.8,73.5,253.9z"/>
							<path fill="#FFFFFF" d="M71.9,253.9c0,0,0.1-0.1,0.2-0.2C72.2,253.8,72.1,253.9,71.9,253.9C72,253.9,71.9,253.9,71.9,253.9z"
								/>
							<path fill="#FFFFFF" d="M86.1,253.9c0-0.1,0-0.1,0.2-0.2C86.2,253.8,86.2,253.9,86.1,253.9z"/>
							<path fill="#FFFFFF" d="M80.7,254.2c-0.1-0.1-0.1-0.1-0.2-0.2C80.6,253.9,80.7,254,80.7,254.2z"/>
							<path fill="#FFFFFF" d="M64.9,254c0,0.1-0.1,0.2-0.2,0.2C64.7,254.1,64.7,254.1,64.9,254z"/>
							<path fill="#FFFFFF" d="M57.6,254.3c0-0.1,0.1-0.1,0.2-0.2l0,0C57.7,254.2,57.6,254.2,57.6,254.3L57.6,254.3z"/>
							<path fill="#FFFFFF" d="M85.9,254.1c0,0.1-0.1,0.1-0.2,0.2l0,0C85.8,254.2,85.8,254.2,85.9,254.1L85.9,254.1z"/>
							<path fill="#FFFFFF" d="M52.6,254.3c0.1,0,0.2,0.1,0.2,0.2l0,0C52.7,254.3,52.7,254.3,52.6,254.3L52.6,254.3z"/>
							<path fill="#FFFFFF" d="M50.5,254.3c0,0.1-0.1,0.2-0.2,0.2C50.3,254.4,50.4,254.3,50.5,254.3z"/>
							<path fill="#FFFFFF" d="M64.6,254.3c0,0.1-0.1,0.2-0.2,0.2C64.4,254.4,64.5,254.3,64.6,254.3z"/>
							<path fill="#FFFFFF" d="M88,254.3c0.1,0,0.2,0.1,0.2,0.2C88.1,254.5,88.1,254.4,88,254.3z"/>
							<path fill="#FFFFFF" d="M81.3,254.8c-0.1-0.1-0.1-0.2-0.2-0.2C81.2,254.6,81.3,254.6,81.3,254.8z"/>
							<path fill="#FFFFFF" d="M50,254.8c0-0.1,0.1-0.1,0.2-0.2l0,0C50.1,254.7,50.1,254.8,50,254.8C50.1,254.8,50,254.8,50,254.8z"
								/>
							<path fill="#FFFFFF" d="M45.9,254.6c0.2,0,0.2,0.1,0.2,0.2C46,254.8,46,254.8,45.9,254.6z"/>
							<path fill="#FFFFFF" d="M57.1,254.7c0,0.1-0.1,0.1-0.2,0.2C57,254.8,57,254.8,57.1,254.7L57.1,254.7z"/>
							<path fill="#FFFFFF" d="M85.3,254.7c0,0.1-0.1,0.1-0.2,0.2l0,0C85.2,254.8,85.3,254.8,85.3,254.7L85.3,254.7z"/>
							<path fill="#FFFFFF" d="M65.1,252.5c0,0-0.1-0.1-0.2-0.2C65.1,252.4,65.1,252.4,65.1,252.5L65.1,252.5z"/>
							<path fill="#FFFFFF" d="M86.3,252.6c0.1,0,0.2,0.1,0.2,0.2l0,0C86.4,252.7,86.4,252.7,86.3,252.6L86.3,252.6z"/>
							<path fill="#FFFFFF" d="M51.1,252.7c0.2,0,0.2,0.1,0.2,0.2C51.2,252.9,51.2,252.8,51.1,252.7z"/>
							<path fill="#FFFFFF" d="M79.4,252.7c0.1,0,0.2,0.1,0.2,0.2C79.5,252.9,79.4,252.8,79.4,252.7z"/>
							<path fill="#FFFFFF" d="M86.8,253.1C86.8,253.1,86.7,253.1,86.8,253.1c-0.2,0-0.2-0.1-0.2-0.2
								C86.7,252.9,86.7,253,86.8,253.1L86.8,253.1z"/>
							<path fill="#FFFFFF" d="M51.1,253.5c0-0.1,0.1-0.1,0.2-0.2l0,0C51.4,253.4,51.3,253.5,51.1,253.5L51.1,253.5z"/>
							<path fill="#FFFFFF" d="M44.9,253.6c-0.1,0-0.2-0.1-0.2-0.2C44.9,253.4,44.9,253.4,44.9,253.6z"/>
							<path fill="#FFFFFF" d="M59,253.6c0-0.1-0.1-0.1-0.2-0.2C59,253.4,59,253.5,59,253.6L59,253.6z"/>
							<path fill="#FFFFFF" d="M73,253.4c0.1,0,0.2,0.1,0.2,0.2C73.1,253.6,73.1,253.5,73,253.4z"/>
							<path fill="#FFFFFF" d="M58.3,253.5c0,0-0.1,0.1-0.2,0.2l0,0C58.1,253.6,58.2,253.5,58.3,253.5L58.3,253.5z"/>
							<path fill="#FFFFFF" d="M52.2,253.8c0-0.1-0.1-0.1-0.2-0.2l0,0C52.2,253.7,52.2,253.8,52.2,253.8L52.2,253.8z"/>
							<path fill="#FFFFFF" d="M65,253.8c0,0,0.1-0.1,0.2-0.2l0,0C65.1,253.8,65.1,253.8,65,253.8L65,253.8z"/>
							<path fill="#FFFFFF" d="M45.1,253.8c0,0,0.1,0.1,0.2,0.2l0,0C45.2,253.8,45.1,253.8,45.1,253.8L45.1,253.8z"/>
							<path fill="#FFFFFF" d="M86.3,246.2c0-0.1,0.1-0.1,0.2-0.2C86.5,246.1,86.5,246.1,86.3,246.2L86.3,246.2z"/>
							<path fill="#FFFFFF" d="M87.3,246.2c-0.1,0-0.2-0.1-0.2-0.2C87.2,246,87.2,246.1,87.3,246.2z"/>
							<path fill="#FFFFFF" d="M51.3,260.4c-0.1-0.1-0.1-0.1-0.2-0.2C51.3,260.2,51.3,260.3,51.3,260.4z"/>
							<path fill="#FFFFFF" d="M86.8,245.8c-0.1,0.1-0.1,0.2-0.2,0.2C86.7,245.9,86.7,245.8,86.8,245.8
								C86.7,245.7,86.8,245.8,86.8,245.8L86.8,245.8z"/>
							<path fill="#FFFFFF" d="M51,260c0,0-0.1-0.1-0.2-0.2C51,259.9,51,259.9,51,260z"/>
							<path fill="#FFFFFF" d="M64.8,259.7c0-0.1-0.1-0.1-0.2-0.2C64.8,259.5,64.8,259.6,64.8,259.7z"/>
							<path fill="#FFFFFF" d="M85.5,244.3c0,0.1,0.1,0.1,0.2,0.2l0,0C85.5,244.4,85.5,244.3,85.5,244.3L85.5,244.3z"/>
							<path fill="#FFFFFF" d="M87.4,246.3c0,0.1,0.1,0.1,0.2,0.2l0,0C87.5,246.4,87.4,246.3,87.4,246.3
								C87.4,246.3,87.4,246.3,87.4,246.3z"/>
							<path fill="#FFFFFF" d="M66.7,259.5c0-0.1,0-0.1,0.2-0.2C66.9,259.4,66.8,259.5,66.7,259.5z"/>
							<path fill="#FFFFFF" d="M79.6,253.4c0,0-0.1,0.1-0.2,0.2C79.4,253.5,79.5,253.4,79.6,253.4z"/>
							<path fill="#FFFFFF" d="M87.6,244.9c0,0-0.1,0.1-0.2,0.2C87.4,245,87.4,244.9,87.6,244.9z"/>
							<path fill="#FFFFFF" d="M80,253.4c0,0,0.1,0.1,0.2,0.2C80,253.4,80,253.4,80,253.4L80,253.4z"/>
							<path fill="#FFFFFF" d="M66.1,253.4c-0.1,0-0.1,0-0.2-0.2C66,253.4,66,253.4,66.1,253.4z"/>
							<path fill="#FFFFFF" d="M52,253.5c-0.1-0.1-0.1-0.1-0.2-0.2C51.9,253.4,51.9,253.4,52,253.5z"/>
							<path fill="#FFFFFF" d="M87.2,253.4c0,0,0.1,0.1,0.2,0.2C87.2,253.6,87.2,253.5,87.2,253.4L87.2,253.4z"/>
							<path fill="#FFFFFF" d="M88.4,254.8c0,0-0.1-0.1-0.2-0.2C88.4,254.7,88.4,254.7,88.4,254.8C88.5,254.8,88.4,254.8,88.4,254.8
								z"/>
							<path fill="#FFFFFF" d="M87.6,252.4c0,0.1-0.1,0.2-0.2,0.2C87.4,252.4,87.5,252.4,87.6,252.4z"/>
							<path fill="#FFFFFF" d="M79.2,252.4c0,0.1,0.1,0.1,0.2,0.2l0,0C79.2,252.5,79.2,252.4,79.2,252.4
								C79.1,252.4,79.2,252.4,79.2,252.4z"/>
							<path fill="#FFFFFF" d="M71.2,254.7c0,0.1-0.1,0.1-0.2,0.2C71.1,254.8,71.1,254.8,71.2,254.7L71.2,254.7z"/>
							<path fill="#FFFFFF" d="M52,252.6c0-0.1,0.1-0.2,0.2-0.2C52.2,252.5,52.1,252.5,52,252.6z"/>
							<path fill="#FFFFFF" d="M80.2,252.6c0-0.1,0.1-0.1,0.2-0.2l0,0C80.4,252.5,80.3,252.5,80.2,252.6
								C80.3,252.6,80.2,252.6,80.2,252.6z"/>
							<path fill="#FFFFFF" d="M58.1,252.6c0,0,0.1,0.1,0.2,0.2C58.2,252.8,58.1,252.7,58.1,252.6L58.1,252.6z"/>
							<path fill="#FFFFFF" d="M86.5,245.4c-0.1-0.1-0.1-0.1-0.2-0.2C86.4,245.2,86.5,245.2,86.5,245.4z"/>
							<path fill="#FFFFFF" d="M87.3,252.7c0,0.1-0.1,0.1-0.2,0.2l0,0C87.2,252.8,87.2,252.7,87.3,252.7z"/>
							<path fill="#FFFFFF" d="M50.7,259.7c0-0.1-0.1-0.1-0.2-0.2C50.6,259.5,50.6,259.5,50.7,259.7
								C50.7,259.6,50.8,259.6,50.7,259.7z"/>
							<path fill="#FFFFFF" d="M66.1,252.8C66.1,252.8,66.1,252.9,66.1,252.8c-0.1,0.1-0.1,0.1-0.2,0.2
								C65.9,252.9,66,252.9,66.1,252.8C66,252.8,66.1,252.8,66.1,252.8z"/>
							<path fill="#FFFFFF" d="M80,252.9c0,0,0.1-0.1,0.2-0.2C80.2,252.9,80.2,252.9,80,252.9z"/>
							<path fill="#FFFFFF" d="M53.1,254.8c-0.1,0-0.2-0.1-0.2-0.2l0,0C53,254.6,53,254.7,53.1,254.8
								C53.1,254.7,53.1,254.7,53.1,254.8z"/>
							<path fill="#FFFFFF" d="M74,254.5c-0.1,0-0.2-0.1-0.2-0.2C74,254.3,74,254.4,74,254.5z"/>
							<path fill="#FFFFFF" d="M59.8,254.3c0,0.1,0.1,0.1,0.2,0.2C59.9,254.5,59.8,254.4,59.8,254.3z"/>
							<path fill="#FFFFFF" d="M78.5,254.5c0-0.1,0.1-0.2,0.2-0.2C78.7,254.3,78.6,254.4,78.5,254.5z"/>
							<path fill="#FFFFFF" d="M80.8,254.2c0.1,0,0.1,0.1,0.2,0.2C80.9,254.4,80.9,254.3,80.8,254.2z"/>
							<path fill="#FFFFFF" d="M71.8,254.1c0,0.1-0.1,0.1-0.2,0.2l0,0C71.7,254.2,71.7,254.2,71.8,254.1L71.8,254.1z"/>
							<path fill="#FFFFFF" d="M52.3,259.8c0,0,0.1-0.1,0.2-0.2l0,0C52.4,259.7,52.4,259.7,52.3,259.8
								C52.4,259.8,52.4,259.8,52.3,259.8z"/>
							<path fill="#FFFFFF" d="M86.5,253.4c0,0.1,0,0.2-0.2,0.2C86.3,253.6,86.4,253.5,86.5,253.4z"/>
							<path fill="#FFFFFF" d="M50.4,259.5c0,0-0.1-0.1-0.2-0.2C50.4,259.3,50.5,259.3,50.4,259.5z"/>
							<path fill="#FFFFFF" d="M51,253.7c0,0.1-0.1,0.1-0.2,0.2C50.9,253.8,51,253.8,51,253.7z"/>
							<path fill="#FFFFFF" d="M64.4,259.2c0.1,0,0.2,0.1,0.2,0.2C64.5,259.4,64.4,259.3,64.4,259.2z"/>
							<path fill="#FFFFFF" d="M87.4,253.8c0,0.1,0.1,0.1,0.2,0.2C87.5,253.8,87.4,253.8,87.4,253.8z"/>
							<path fill="#FFFFFF" d="M57.8,253.9c0-0.1,0.1-0.1,0.2-0.2C58,253.8,57.9,253.9,57.8,253.9C57.9,253.9,57.8,253.9,57.8,253.9
								z"/>
							<path fill="#FFFFFF" d="M52.4,254.1c0-0.1-0.1-0.1-0.2-0.2C52.4,253.9,52.4,254,52.4,254.1C52.5,254.1,52.4,254.1,52.4,254.1
								z"/>
							<path fill="#FFFFFF" d="M74.2,254.7L74.2,254.7c0.1,0.1,0.2,0.1,0.2,0.2C74.2,254.8,74.2,254.7,74.2,254.7L74.2,254.7z"/>
							<path fill="#FFFFFF" d="M78.7,246.8c0,0.1-0.1,0.1-0.2,0.2C78.5,247,78.6,246.9,78.7,246.8C78.7,246.8,78.7,246.8,78.7,246.8
								z"/>
							<path fill="#FFFFFF" d="M51.8,260.4c0-0.1,0.1-0.2,0.2-0.2C52,260.3,51.9,260.4,51.8,260.4z"/>
							<path fill="#FFFFFF" d="M52.6,252c0,0,0.1-0.1,0.2-0.2C52.8,252,52.7,252,52.6,252L52.6,252z"/>
							<path fill="#FFFFFF" d="M52.2,259.9c0,0.1-0.1,0.2-0.2,0.2C52,259.9,52.1,259.9,52.2,259.9z"/>
							<path fill="#FFFFFF" d="M78.7,252c-0.1-0.1-0.2-0.1-0.2-0.2C78.7,251.8,78.7,251.9,78.7,252z"/>
							<path fill="#FFFFFF" d="M60,251.7c0,0.1-0.1,0.2-0.2,0.2C59.8,251.9,59.9,251.8,60,251.7z"/>
							<path fill="#FFFFFF" d="M45.7,252c0-0.1,0.1-0.2,0.2-0.2C45.9,251.8,45.8,251.9,45.7,252z"/>
							<path fill="#FFFFFF" d="M85.3,251.4c0,0.1,0.1,0.1,0.2,0.2C85.3,251.5,85.3,251.5,85.3,251.4z"/>
							<path fill="#FFFFFF" d="M74.3,251.5c0,0.1,0,0.1-0.2,0.2C74.2,251.5,74.2,251.5,74.3,251.5z"/>
							<path fill="#FFFFFF" d="M80.4,246.3"/>
							<path fill="#FFFFFF" d="M64.2,259c0.1,0,0.2,0.1,0.2,0.2l0,0C64.2,259,64.2,259,64.2,259L64.2,259z"/>
							<path fill="#FFFFFF" d="M86.1,252.3c0.1,0,0.1,0.1,0.2,0.2l0,0C86.2,252.4,86.1,252.4,86.1,252.3L86.1,252.3z"/>
							<path fill="#FFFFFF" d="M81.2,247.1c0,0,0.1,0.1,0.2,0.2l0,0C81.2,247.2,81.2,247.2,81.2,247.1
								C81.1,247.1,81.1,247.1,81.2,247.1z"/>
							<path fill="#FFFFFF" d="M87.7,252.2c0,0,0.1-0.1,0.2-0.2C87.8,252.1,87.8,252.1,87.7,252.2z"/>
							<path fill="#FFFFFF" d="M74.4,247.3"/>
							<path fill="#FFFFFF" d="M59.4,252.4c0,0.1-0.1,0.1-0.2,0.2l0,0C59.3,252.5,59.4,252.4,59.4,252.4L59.4,252.4z"/>
							<path fill="#FFFFFF" d="M64.3,254.6c0,0-0.1,0.1-0.2,0.2l0,0C64.2,254.8,64.2,254.7,64.3,254.6L64.3,254.6z"/>
							<path fill="#FFFFFF" d="M85.5,247.2c0-0.1,0.1-0.1,0.2-0.2C85.7,247,85.6,247.1,85.5,247.2z"/>
							<path fill="#FFFFFF" d="M50.7,254c0,0.1,0,0.1-0.2,0.2C50.6,254.1,50.6,254.1,50.7,254z"/>
							<path fill="#FFFFFF" d="M79,254c0,0.1-0.1,0.1-0.2,0.2C78.8,254.1,78.9,254,79,254L79,254z"/>
							<path fill="#FFFFFF" d="M60.1,254.6c0,0,0.1,0.1,0.2,0.2C60.1,254.8,60.1,254.8,60.1,254.6z"/>
							<path fill="#FFFFFF" d="M73.6,254c0,0,0.1,0.1,0.2,0.2C73.7,254.2,73.7,254.2,73.6,254C73.6,254.1,73.6,254.1,73.6,254z"/>
							<path fill="#FFFFFF" d="M78.4,247.2c-0.1,0-0.1,0.1-0.2,0.2C78.3,247.3,78.3,247.2,78.4,247.2L78.4,247.2z"/>
							<path fill="#FFFFFF" d="M85.7,254.4c0,0.1-0.1,0.1-0.2,0.2l0,0C85.5,254.5,85.6,254.4,85.7,254.4L85.7,254.4z"/>
							<path fill="#FFFFFF" d="M52.6,259.5c0-0.1,0.1-0.1,0.2-0.2C52.8,259.4,52.7,259.5,52.6,259.5z"/>
							<path fill="#FFFFFF" d="M67,254.4c-0.2,0-0.2-0.1-0.2-0.2C66.8,254.3,66.8,254.3,67,254.4z"/>
							<path fill="#FFFFFF" d="M88.5,247.3c-0.1,0-0.2-0.1-0.2-0.2C88.4,247.3,88.5,247.3,88.5,247.3z"/>
							<path fill="#FFFFFF" d="M65.9,260.4c0-0.1,0-0.2,0.2-0.2l0,0C66,260.3,66,260.4,65.9,260.4z"/>
							<path fill="#FFFFFF" d="M45.4,252.2c0.1-0.1,0.1-0.1,0.2-0.2l0,0C45.5,252.1,45.4,252.2,45.4,252.2L45.4,252.2z"/>
							<path fill="#FFFFFF" d="M72.6,252.9c0,0.1,0.1,0.1,0.2,0.2C72.6,253,72.6,252.9,72.6,252.9z"/>
							<path fill="#FFFFFF" d="M58.6,253.1C58.6,253.1,58.6,253.1,58.6,253.1c-0.2,0-0.2-0.1-0.2-0.2
								C58.6,252.9,58.6,253,58.6,253.1L58.6,253.1z"/>
							<path fill="#FFFFFF" d="M59.5,252.2c0-0.1,0.1-0.2,0.2-0.2C59.7,252.1,59.5,252.1,59.5,252.2z"/>
							<path fill="#FFFFFF" d="M73.8,252.1c0,0-0.1,0.1-0.2,0.2C73.6,252.1,73.6,252.1,73.8,252.1C73.8,252,73.8,252.1,73.8,252.1z"
								/>
							<path fill="#FFFFFF" d="M50.7,252.3c-0.1-0.1-0.2-0.2-0.2-0.2C50.7,252.1,50.7,252.2,50.7,252.3z"/>
							<path fill="#FFFFFF" d="M79,252.3c-0.1,0-0.2-0.1-0.1-0.2C78.9,252.1,78.9,252.2,79,252.3L79,252.3z"/>
							<path fill="#FFFFFF" d="M44.9,252.6c0,0.1-0.1,0.2-0.2,0.2C44.9,252.8,44.9,252.7,44.9,252.6z"/>
							<path fill="#FFFFFF" d="M72.2,252.6c0,0.1,0.1,0.1,0.2,0.2l0,0C72.3,252.8,72.2,252.7,72.2,252.6L72.2,252.6z"/>
							<path fill="#FFFFFF" d="M50.9,252.4c0,0,0.1,0.1,0.2,0.2l0,0C50.9,252.5,50.9,252.4,50.9,252.4
								C50.9,252.4,50.9,252.4,50.9,252.4z"/>
							<path fill="#FFFFFF" d="M87.1,245.4c0-0.1,0.1-0.1,0.2-0.2C87.2,245.3,87.2,245.4,87.1,245.4
								C87.2,245.4,87.1,245.4,87.1,245.4z"/>
							<path fill="#FFFFFF" d="M45,252.5c0,0,0.1-0.1,0.2-0.2C45.3,252.4,45.3,252.4,45,252.5C45.1,252.5,45.1,252.5,45,252.5z"/>
							<path fill="#FFFFFF" d="M64.2,251.5c0,0,0.1,0.1,0.1,0.2l0,0C64.2,251.6,64.2,251.6,64.2,251.5z"/>
							<path fill="#FFFFFF" d="M81.3,251.5c-0.1,0-0.1,0.1-0.2,0.2l0,0C81.1,251.6,81.2,251.5,81.3,251.5L81.3,251.5z"/>
							<path fill="#FFFFFF" d="M66.4,253.8c-0.1,0-0.2-0.1-0.2-0.2C66.3,253.7,66.3,253.8,66.4,253.8z"/>
							<path fill="#FFFFFF" d="M50.5,252c-0.1,0-0.2-0.1-0.2-0.2C50.4,251.8,50.5,251.9,50.5,252z"/>
							<path fill="#FFFFFF" d="M79.2,246.4"/>
							<path fill="#FFFFFF" d="M66.6,259.6c0,0.1-0.1,0.1-0.2,0.2C66.5,259.7,66.5,259.6,66.6,259.6L66.6,259.6z"/>
							<path fill="#FFFFFF" d="M50.1,259.1c0,0-0.1-0.1-0.2-0.2l0,0C50.1,259,50.1,259.1,50.1,259.1
								C50.2,259.1,50.1,259.1,50.1,259.1z"/>
							<path fill="#FFFFFF" d="M79.2,253.7c0,0-0.1,0.1-0.2,0.2C79.2,253.8,79.2,253.8,79.2,253.7z"/>
							<path fill="#FFFFFF" d="M51.8,252.9c0-0.1,0.1-0.2,0.2-0.2C52,252.9,51.9,252.9,51.8,252.9z"/>
							<path fill="#FFFFFF" d="M59.6,254.2c0,0-0.1-0.1-0.2-0.2C59.6,254.1,59.6,254.2,59.6,254.2L59.6,254.2z"/>
							<path fill="#FFFFFF" d="M86.1,244.9c0.1,0,0.2,0.1,0.2,0.2C86.2,245,86.1,244.9,86.1,244.9L86.1,244.9z"/>
							<path fill="#FFFFFF" d="M72.1,252.4c0,0-0.1-0.1-0.2-0.2C72.1,252.4,72.2,252.4,72.1,252.4z"/>
							<path fill="#FFFFFF" d="M88,244.5c0-0.1,0.1-0.2,0.2-0.2C88.1,244.4,88.1,244.5,88,244.5z"/>
							<path fill="#FFFFFF" d="M87.7,244.8c0,0,0.1-0.1,0.2-0.2C87.8,244.7,87.8,244.7,87.7,244.8C87.7,244.8,87.7,244.8,87.7,244.8
								z"/>
							<path fill="#FFFFFF" d="M78.4,254.6c-0.1,0-0.1,0.1-0.2,0.2C78.3,254.7,78.3,254.7,78.4,254.6L78.4,254.6z"/>
							<path fill="#FFFFFF" d="M80.3,253.6c0,0,0.1,0.1,0.2,0.2l0,0C80.3,253.8,80.3,253.7,80.3,253.6L80.3,253.6z"/>
							<path fill="#FFFFFF" d="M50.2,251.7c0,0-0.2-0.1-0.1-0.2C50.1,251.5,50.2,251.6,50.2,251.7z"/>
							<path fill="#FFFFFF" d="M78.3,251.6L78.3,251.6C78.3,251.5,78.3,251.5,78.3,251.6z"/>
							<path fill="#FFFFFF" d="M86.2,246.3c0,0.1,0,0.1-0.1,0.2C86.1,246.4,86.1,246.4,86.2,246.3z"/>
							<path fill="#FFFFFF" d="M45.4,254.2L45.4,254.2C45.4,254.1,45.4,254.1,45.4,254.2L45.4,254.2z"/>
							<path fill="#FFFFFF" d="M87.8,254.2C87.7,254.2,87.7,254.2,87.8,254.2C87.8,254,87.8,254.1,87.8,254.2L87.8,254.2z"/>
							<path fill="#FFFFFF" d="M53.3,258.7C53.4,258.8,53.3,258.8,53.3,258.7C53.2,258.8,53.2,258.8,53.3,258.7L53.3,258.7z"/>
							<path fill="#FFFFFF" d="M87.8,254.2C87.8,254.2,87.9,254.2,87.8,254.2L87.8,254.2L87.8,254.2z"/>
							<path fill="#FFFFFF" d="M57.9,252.4C58,252.4,58,252.4,57.9,252.4C57.9,252.4,57.9,252.4,57.9,252.4L57.9,252.4z"/>
							<path fill="#FFFFFF" d="M86.9,245.8c0.1,0,0.1,0,0.2,0.1C86.9,245.9,86.9,245.8,86.9,245.8L86.9,245.8z"/>
							<path fill="#FFFFFF" d="M57.9,252.4C57.8,252.4,57.8,252.4,57.9,252.4C57.9,252.3,57.9,252.4,57.9,252.4L57.9,252.4z"/>
							<path fill="#FFFFFF" d="M45.4,254.2C45.5,254.2,45.5,254.2,45.4,254.2C45.5,254.2,45.5,254.2,45.4,254.2L45.4,254.2z"/>
							<path d="M81.3,258.3C81.4,258.3,81.4,258.3,81.3,258.3L81.3,258.3C81.4,258.3,81.4,258.3,81.3,258.3L81.3,258.3z"/>
							<path d="M83.8,259.9C83.8,259.9,83.8,260,83.8,259.9C83.7,260,83.7,260,83.8,259.9C83.7,260,83.8,259.9,83.8,259.9
								L83.8,259.9z"/>
							<path d="M81.6,256.2C81.6,256.2,81.6,256.2,81.6,256.2L81.6,256.2L81.6,256.2L81.6,256.2z"/>
							<path d="M83,254.8L83,254.8C83,254.8,83,254.8,83,254.8C83,254.8,83,254.8,83,254.8C83,254.8,83,254.8,83,254.8z"/>
							<path d="M82.9,253.9C82.9,253.9,83,253.9,82.9,253.9C83,253.9,83,253.9,82.9,253.9C83,254,82.9,253.9,82.9,253.9z"/>
							<path d="M83.9,258.8L83.9,258.8L83.9,258.8L83.9,258.8L83.9,258.8z"/>
							<path d="M80.6,256.5L80.6,256.5C80.6,256.6,80.6,256.6,80.6,256.5L80.6,256.5z"/>
							<path d="M83,259.9L83,259.9L83,259.9L83,259.9z"/>
							<path d="M86,242.5C86,242.5,86.1,242.5,86,242.5C86.1,242.5,86.1,242.5,86,242.5C86.1,242.5,86.1,242.5,86,242.5z"/>
							<path d="M54.8,259.9L54.8,259.9L54.8,259.9L54.8,259.9L54.8,259.9z"/>
							<path d="M55.6,259.9C55.5,259.9,55.5,259.9,55.6,259.9C55.5,260,55.5,260,55.6,259.9C55.5,260,55.5,259.9,55.6,259.9z"/>
							<path d="M54.8,254.8L54.8,254.8C54.8,254.8,54.8,254.8,54.8,254.8C54.8,254.8,54.8,254.8,54.8,254.8
								C54.8,254.8,54.8,254.8,54.8,254.8z"/>
							<path d="M55.7,258.8L55.7,258.8L55.7,258.8L55.7,258.8C55.7,258.8,55.7,258.8,55.7,258.8z"/>
							<path d="M53.1,258.3L53.1,258.3C53.2,258.3,53.1,258.3,53.1,258.3L53.1,258.3z"/>
							<path d="M57.1,257.2L57.1,257.2L57.1,257.2L57.1,257.2C57.1,257.2,57.1,257.2,57.1,257.2z"/>
							<path d="M52.4,256.5L52.4,256.5C52.3,256.6,52.3,256.6,52.4,256.5C52.3,256.5,52.3,256.5,52.4,256.5L52.4,256.5z"/>
							<path d="M69.7,259.9L69.7,259.9C69.7,260,69.7,260,69.7,259.9C69.6,260,69.7,259.9,69.7,259.9z"/>
							<path d="M68.9,254.8C68.9,254.8,68.9,254.8,68.9,254.8C68.9,254.8,68.9,254.8,68.9,254.8L68.9,254.8
								C68.9,254.8,68.9,254.8,68.9,254.8z"/>
							<path d="M68.8,253.9L68.8,253.9C68.9,253.9,68.9,253.9,68.8,253.9L68.8,253.9z"/>
							<path d="M67.2,258.3L67.2,258.3L67.2,258.3C67.3,258.3,67.2,258.3,67.2,258.3L67.2,258.3z"/>
							<path d="M66.4,256.5L66.4,256.5C66.5,256.5,66.4,256.5,66.4,256.5L66.4,256.5z"/>
							<path fill="#FFFFFF" d="M93.5,245.3c0.1,0.1,0.2,0.1,0.2,0.2C93.5,245.4,93.5,245.4,93.5,245.3z"/>
							<path fill="#FFFFFF" d="M93.1,254c0,0.1-0.1,0.1-0.2,0.2C92.9,254.1,92.9,254.1,93.1,254z"/>
							<path fill="#FFFFFF" d="M93.6,252.9c0-0.1-0.1-0.1-0.2-0.2C93.6,252.8,93.7,252.8,93.6,252.9
								C93.7,252.9,93.7,252.9,93.6,252.9z"/>
							<path fill="#FFFFFF" d="M93.2,252.4c0,0.1,0.1,0.1,0.2,0.2l0,0C93.3,252.5,93.2,252.4,93.2,252.4
								C93.2,252.4,93.2,252.4,93.2,252.4z"/>
							<path fill="#FFFFFF" d="M92.9,252.1c0.1,0,0.2,0.1,0.2,0.2C93,252.2,92.9,252.2,92.9,252.1z"/>
							<path fill="#FFFFFF" d="M92.6,251.8c0.1,0,0.2,0.1,0.2,0.2C92.8,252,92.7,251.9,92.6,251.8z"/>
							<path fill="#FFFFFF" d="M92.7,247c0-0.1,0-0.2,0.2-0.2C92.8,246.9,92.8,247,92.7,247z"/>
							<path fill="#FFFFFF" d="M92.5,247.2c-0.1,0-0.1,0.1-0.2,0.2C92.4,247.3,92.4,247.2,92.5,247.2L92.5,247.2z"/>
							<path fill="#FFFFFF" d="M93.7,253.4c-0.1,0.1-0.1,0.1-0.2,0.2l0,0C93.5,253.5,93.6,253.4,93.7,253.4L93.7,253.4z"/>
							<path fill="#FFFFFF" d="M92.5,251.7c-0.1,0-0.2-0.1-0.2-0.2C92.4,251.5,92.4,251.6,92.5,251.7z"/>
							<path fill="#FFFFFF" d="M93.2,244.9c0.1,0,0.2,0.1,0.2,0.2C93.3,245.1,93.3,245,93.2,244.9z"/>
							<path fill="#FFFFFF" d="M92.9,244.6c0,0.1,0.1,0.1,0.2,0.2l0,0C93,244.8,92.9,244.7,92.9,244.6
								C92.9,244.7,92.9,244.7,92.9,244.6z"/>
							<path fill="#FFFFFF" d="M92.8,244.5c-0.1,0-0.2-0.1-0.2-0.2C92.8,244.4,92.8,244.5,92.8,244.5z"/>
							<path fill="#FFFFFF" d="M92.4,254.8c0-0.1,0-0.1,0.2-0.2C92.5,254.7,92.4,254.8,92.4,254.8z"/>
							<path fill="#FFFFFF" d="M92.5,244.2c-0.1,0-0.2-0.1-0.2-0.2C92.4,244.1,92.4,244.1,92.5,244.2L92.5,244.2z"/>
							<path fill="#FFFFFF" d="M93.5,246.1c0-0.1,0.1-0.1,0.2-0.2l0,0C93.6,246,93.6,246,93.5,246.1L93.5,246.1z"/>
							<path fill="#FFFFFF" d="M92.6,254.4c0-0.1,0.1-0.1,0.2-0.2l0,0C92.8,254.3,92.7,254.3,92.6,254.4
								C92.7,254.5,92.6,254.5,92.6,254.4z"/>
							<path fill="#FFFFFF" d="M93.3,253.7c0,0.1-0.1,0.1-0.2,0.2C93.2,253.8,93.3,253.8,93.3,253.7z"/>
							<path fill="#FFFFFF" d="M93.2,246.3c0,0,0.1-0.1,0.2-0.2C93.3,246.3,93.3,246.3,93.2,246.3L93.2,246.3z"/>
							<path fill="#FFFFFF" d="M92.9,246.8c0-0.1,0.1-0.1,0.2-0.2l0,0C93.1,246.7,93,246.7,92.9,246.8L92.9,246.8z"/>
							<path fill="#FFFFFF" d="M79.6,260.4c-0.1,0-0.2-0.1-0.2-0.2C79.5,260.2,79.6,260.3,79.6,260.4z"/>
							<path fill="#FFFFFF" d="M80.7,259.6c0,0.1-0.1,0.1-0.2,0.2l0,0C80.6,259.7,80.6,259.6,80.7,259.6L80.7,259.6z"/>
							<path fill="#FFFFFF" d="M78.7,259.5c-0.1-0.1-0.2-0.1-0.2-0.2C78.6,259.3,78.7,259.4,78.7,259.5z"/>
							<path fill="#FFFFFF" d="M81.1,259.1c0,0,0.1-0.1,0.2-0.2l0,0C81.3,259,81.2,259.1,81.1,259.1L81.1,259.1z"/>
							<path fill="#FFFFFF" d="M79.2,260c-0.1,0-0.2-0.1-0.2-0.2C79.2,259.9,79.2,259.9,79.2,260z"/>
							<path fill="#FFFFFF" d="M80.8,259.5c0,0,0.1-0.1,0.2-0.2C81,259.4,80.9,259.5,80.8,259.5L80.8,259.5z"/>
							<path fill="#FFFFFF" d="M78.3,259c0.1,0,0.1,0.1,0.2,0.2C78.3,259,78.3,259,78.3,259z"/>
							<path fill="#FFFFFF" d="M80.2,260c0-0.1,0.1-0.1,0.2-0.2l0,0C80.4,259.9,80.4,260,80.2,260L80.2,260z"/>
							<path fill="#FFFFFF" d="M80,260.4c0-0.1,0.1-0.1,0.1-0.2C80.2,260.3,80.2,260.3,80,260.4z"/>
							<path fill="#FFFFFF" d="M78.9,259.6L78.9,259.6C78.9,259.7,78.9,259.7,78.9,259.6L78.9,259.6z"/>
							<path fill="#FFFFFF" d="M85.3,258.8c0,0.1,0.1,0.1,0.2,0.2l0,0C85.3,259,85.2,258.9,85.3,258.8
								C85.2,258.8,85.2,258.8,85.3,258.8z"/>
							<path fill="#FFFFFF" d="M85.9,259.6c0,0-0.1-0.1-0.2-0.2C85.8,259.5,85.9,259.5,85.9,259.6z"/>
							<path fill="#FFFFFF" d="M85.6,259.3c0-0.1-0.1-0.1-0.2-0.2C85.6,259.1,85.6,259.2,85.6,259.3
								C85.7,259.3,85.7,259.3,85.6,259.3z"/>
							<path fill="#FFFFFF" d="M88.5,258.9c0,0.1-0.1,0.2-0.2,0.2C88.3,259,88.4,259,88.5,258.9z"/>
							<path fill="#FFFFFF" d="M87.4,259.9c0-0.1,0.1-0.1,0.2-0.2l0,0C87.6,259.9,87.5,259.9,87.4,259.9L87.4,259.9z"/>
							<path fill="#FFFFFF" d="M86.5,260.3c-0.1-0.1-0.1-0.1-0.2-0.2C86.4,260,86.5,260.1,86.5,260.3z"/>
							<path fill="#FFFFFF" d="M87.1,260.3c0-0.1,0.1-0.1,0.2-0.2C87.3,260.2,87.2,260.2,87.1,260.3L87.1,260.3z"/>
							<path fill="#FFFFFF" d="M86.1,259.7c0.1,0,0.2,0.1,0.2,0.2C86.2,259.9,86.2,259.9,86.1,259.7
								C86.1,259.8,86.1,259.8,86.1,259.7C86.1,259.8,86.1,259.8,86.1,259.7z"/>
							<path fill="#FFFFFF" d="M87.7,259.7c0.1-0.1,0.1-0.1,0.2-0.2C87.8,259.5,87.8,259.6,87.7,259.7z"/>
							<path fill="#FFFFFF" d="M88.1,259.2c-0.1,0.1-0.1,0.2-0.2,0.2C88.1,259.3,88.1,259.2,88.1,259.2z"/>
							<path fill="#FFFFFF" d="M57,258.8c0.1,0.1,0.2,0.1,0.2,0.2C57.1,259,57,258.9,57,258.8z"/>
							<path fill="#FFFFFF" d="M57.6,259.5c0.1,0,0.2,0.1,0.2,0.2C57.6,259.5,57.6,259.5,57.6,259.5z"/>
							<path fill="#FFFFFF" d="M58.1,259.9c-0.1,0-0.2-0.1-0.2-0.2C58,259.8,58,259.9,58.1,259.9z"/>
							<path fill="#FFFFFF" d="M58.1,260c0.1,0.1,0.1,0.1,0.2,0.2C58.2,260.2,58.1,260.2,58.1,260L58.1,260z"/>
							<path fill="#FFFFFF" d="M60,259.2c0,0.1-0.1,0.1-0.2,0.2l0,0C59.8,259.3,59.9,259.2,60,259.2L60,259.2z"/>
							<path fill="#FFFFFF" d="M57.4,259.3c-0.1,0-0.2-0.1-0.2-0.2C57.3,259.1,57.4,259.2,57.4,259.3z"/>
							<path fill="#FFFFFF" d="M59.4,259.8c0,0.1-0.1,0.2-0.2,0.2C59.2,259.9,59.3,259.9,59.4,259.8z"/>
							<path fill="#FFFFFF" d="M60,259c0-0.1,0.1-0.1,0.2-0.2l0,0C60.2,259,60.2,259,60,259L60,259z"/>
							<path fill="#FFFFFF" d="M59,260.1c0,0.1-0.1,0.2-0.2,0.2C58.9,260.2,59,260.1,59,260.1L59,260.1z"/>
							<path fill="#FFFFFF" d="M59.5,259.6c0-0.1,0.1-0.1,0.1-0.2C59.6,259.5,59.6,259.5,59.5,259.6z"/>
							<path fill="#FFFFFF" d="M74.1,259c0-0.1,0.1-0.1,0.2-0.2l0,0C74.3,259,74.2,259,74.1,259C74.2,259,74.2,259,74.1,259z"/>
							<path fill="#FFFFFF" d="M72.6,260.4c0.1,0,0.2,0.1,0.2,0.2C72.6,260.4,72.6,260.4,72.6,260.4z"/>
							<path fill="#FFFFFF" d="M71.3,259.1c0.1,0,0.2,0.1,0.2,0.2C71.4,259.3,71.4,259.2,71.3,259.1z"/>
							<path fill="#FFFFFF" d="M73.2,260.1c0,0.1-0.1,0.1-0.2,0.2l0,0C73.1,260.2,73.1,260.2,73.2,260.1L73.2,260.1z"/>
							<path fill="#FFFFFF" d="M71.1,258.8c0,0.1,0.1,0.1,0.2,0.2l0,0C71.2,259,71.1,258.9,71.1,258.8L71.1,258.8z"/>
							<path fill="#FFFFFF" d="M72,259.7c0.1,0,0.2,0.1,0.2,0.2C72.1,259.9,71.9,259.9,72,259.7z"/>
							<path fill="#FFFFFF" d="M73.3,259.9c0-0.1,0.1-0.1,0.2-0.2l0,0C73.4,259.9,73.4,259.9,73.3,259.9L73.3,259.9z"/>
							<path fill="#FFFFFF" d="M73.9,259.4c0-0.1,0.1-0.2,0.2-0.2C74,259.3,74,259.3,73.9,259.4L73.9,259.4z"/>
							<path fill="#FFFFFF" d="M72.2,260c0,0.1,0.1,0.1,0.2,0.2C72.2,260.1,72.2,260.1,72.2,260L72.2,260z"/>
							<path fill="#FFFFFF" d="M71.7,259.5c0.1,0,0.2,0.1,0.2,0.2C71.7,259.5,71.7,259.5,71.7,259.5z"/>
							<path fill="#FFFFFF" d="M73.8,259.5c0,0-0.1,0.1-0.2,0.2C73.6,259.5,73.7,259.5,73.8,259.5C73.7,259.5,73.7,259.5,73.8,259.5
								z"/>
							<path fill="#FFFFFF" d="M45.9,259c0-0.1,0.1-0.1,0.2-0.2C46.1,259,46,259,45.9,259L45.9,259z"/>
							<path fill="#FFFFFF" d="M44.9,260.1c0,0.1-0.1,0.2-0.2,0.2l0,0C44.9,260.2,44.9,260.1,44.9,260.1L44.9,260.1z"/>
							<path fill="#FFFFFF" d="M45.7,259.4c0-0.1,0.1-0.1,0.2-0.2C45.8,259.3,45.8,259.3,45.7,259.4z"/>
							<path fill="#FFFFFF" d="M45.1,259.9c0,0,0.1-0.1,0.2-0.2C45.3,259.9,45.2,259.9,45.1,259.9L45.1,259.9z"/>
							<path fill="#FFFFFF" d="M45.6,259.5L45.6,259.5C45.4,259.5,45.4,259.5,45.6,259.5C45.5,259.5,45.5,259.5,45.6,259.5z"/>
							<path fill="#FFFFFF" d="M93.5,260.1c0,0.1,0.1,0.1,0.2,0.2l0,0C93.6,260.3,93.5,260.2,93.5,260.1L93.5,260.1z"/>
							<path fill="#FFFFFF" d="M93.3,260c-0.1-0.1-0.2-0.1-0.2-0.2C93.3,259.9,93.3,259.9,93.3,260z"/>
							<path fill="#FFFFFF" d="M92.8,259.5c-0.1,0-0.1-0.1-0.2-0.2l0,0C92.7,259.3,92.8,259.4,92.8,259.5
								C92.8,259.4,92.8,259.5,92.8,259.5z"/>
							<path fill="#FFFFFF" d="M92.9,259.5c0.1,0,0.2,0.1,0.2,0.2l0,0C93,259.7,92.9,259.6,92.9,259.5L92.9,259.5z"/>
							<path fill="#FFFFFF" d="M92.5,259.1c-0.1,0-0.2-0.1-0.2-0.2l0,0C92.4,259,92.4,259,92.5,259.1L92.5,259.1z"/>
							<path d="M54.8,252.1C54.8,252.1,54.7,252.1,54.8,252.1L54.8,252.1C54.8,252,54.8,252.1,54.8,252.1L54.8,252.1z"/>
							<path d="M83,252L83,252L83,252C83,252.1,83,252.1,83,252L83,252z"/>
							<path d="M84.5,247.7L84.5,247.7L84.5,247.7C84.6,247.7,84.6,247.7,84.5,247.7C84.5,247.7,84.5,247.7,84.5,247.7z"/>
							<path d="M83.7,246.7C83.7,246.7,83.7,246.8,83.7,246.7C83.7,246.8,83.7,246.7,83.7,246.7L83.7,246.7z"/>
						</g>
					</g>
				</g>
			</g>
		</g>
	</g>
</g>
</svg>
