<svg xmlns="http://www.w3.org/2000/svg" viewBox="79.7 0 126.2 216"><path d="M152.3 134c0 .1 0 0 0 0zM133.9 137.3c.2.1.3.1.4.1.5.1 1.2.3 1.8.3-1.1-.3-2.2-.4-2.2-.4zM132.6 165.7c-.3-.2-.6-.2-.6-.2 1-.1 2-.1 2.9 0-3.7-.8-7.9-1.2-12.2.1-1.3.4-2.6.9-3.8 1.7 4.7-2.1 9.5-2.3 13.7-1.6zM154.2 165.3c.1 0 .3 0 .3-.1 0 .1-.2.1-.3.1zM154.7 165.2l-.8.5c1.8-.3 2.6-.3 2.6-.3-.3.1-.5.2-.8.3 4.3-.6 9.2-.5 13.9 1.6-1.3-.8-2.6-1.3-3.9-1.7-3.8-1.2-7.6-1.1-11-.4z"/><g fill="#FBD106"><path d="M123.8 155.9s1.8 4.3-.9 9.5c4.2-1.3 8.5-.9 12.2-.1.7.1 1.3.3 2.1.4 1.1.2 2.6.3 4.5.4 3.3.2 7.6 0 12.6-1 .1 0 .3 0 .3-.1h.2c3.3-.7 7.2-.8 10.9.3-2.6-5.3-.6-9.5-.6-9.5 11.7 14.1 15.2 9.6 16.1 6.7.9-2.4.5-6.7-1.2-11.1-1.5-4-3.8-7.1-5.9-8.6-.8 1.3-1.8 2.8-2.8 4-1.4-1.2-2.3-1.8-2.3-1.8-1.2-2.8-3.7-4.8-6.3-6 .9 1.6.1 3.3-2.4 3.3-4.3.1-3.8 1.3-2.1 3.8 1.7 2.4 1.3 8.5-8.4 9.6-2.7.3-5 .3-6.9 0-4.9-.7-7.5-2.9-8.4-5.7-1.3-3.5 1.8-5 1.8-5s2.9-1.8 3.2-4.5c.1-1.4-1.4-2.3-2.8-2.7-.8-.1-1.3-.3-1.8-.3-.2 0-.3-.1-.4-.1-3.3-.4-11.7 1.8-14.3 7.8 0 0-1.8 1.3-4.2 3.4-1.2-1.3-2.2-2.7-3.2-4.1 0 0 0 .1-.1.2-1.4 1.7-2.8 3.9-3.8 6.6-1.7 4.4-2 8.7-1 11 .4 3 3.7 8.1 15.9-6.4zM179.9 176.7c-2.8-4.9-6.4-7.9-10.2-9.5-4.6-2.1-9.5-2.2-13.9-1.6-9.2 3.2-11.5 17.1-11.5 17.1 0-11.5-9.2-16.1-11.6-17.1-4.2-.6-9-.4-13.7 1.6-3.8 1.7-7.4 4.6-10.2 9.5 0 0-3.1 5.2-5.5 13 2.1-2.3 9.1-8.7 18.9-7.6 12.1 1.3 15.2 5.9 19.4 8.7.9.6 1.8.9 2.8 1.2h.2c3.3.8 6.1-.5 6.1-.5s18.4-7.6 37.4 9.4c-1.8-13.4-8.2-24.2-8.2-24.2z"/></g><g fill="#F05A28"><path d="M204.3 5.4c-.1-1.7-1.9-1.3-1.9-1.3-.6-1.8-1.9-1.1-1.9-1.1.2-.8-1-1.3-1-1.3-.8-.3-1.1.5-1.1.5 0-.8-1.3-1.3-1.3-1.3-2.3-.6-1.8 1.8-1.7 2.3.1.5-.2 1.8-.2 1.8-.4 1.2 0 3 .4 3.9.4.9.4 4.8.3 5.9-.3 1.2-.6 3.5-.6 4.4 0 .9-.4 1.8-.4 1.8-.8 1.3-1.2 2.8-1.1 3.8 0 .4-.3 1.3-.5 2.2-6.9 13.6-10.5 25.9-11.5 28.8-1.1 3-8.2 21.4-8.2 21.4-2.2 2.8-4.9 10.9-4.9 10.9-10.5 19.7-14.8 35.7-16.5 44.4l.3 1.2v.1c.1.5.8 2.3 5 2.5 2.8.2 4.5 1.3 5.2 2.4 2.7 1.3 5.2 3.3 6.3 6 0 0 .9.7 2.3 1.8 1-1.3 2-2.6 2.8-4 12.5-19.8 9.4-48.4 8.9-50-.5-1.9 1.7-4.1 1.7-4.1 10.2-9 15-29 13.6-37.8s1.8-23.5 1.8-23.5h-.2c.2-.3.3-.5.3-.5.6-1 1.2-2.5 1.3-4.1 0-1.6 1.4-5.8 1.4-5.8s2.3-6.3 2.9-8.7c.7-2.7-1.5-2.6-1.5-2.6zM133.9 137.3v-.9-.8c-1.3-7.4-5.2-25.1-17-47.2 0 0-2.8-8.2-4.9-10.9 0 0-7.1-18.4-8.2-21.4-1-2.8-4.6-15.1-11.3-28.4.2-.1.3-.1.3-.1s-1-1.3-.9-2.4c0-1.1-.3-2.6-1.1-3.8 0 0-.4-.8-.4-1.8s-.4-3.3-.6-4.4c-.3-1.2-.2-5 .3-5.9.4-.9.8-2.8.4-3.9 0 0-.3-1.2-.3-1.7s.5-2.9-1.7-2.3c0 0-1.3.4-1.3 1.3 0 0-.3-.8-1.1-.5 0 0-1.2.4-1 1.3 0 0-1.3-.8-1.9 1.1 0 0-1.8-.4-1.9 1.3 0 0-2.1 0-1.3 2.6.7 2.5 2.9 8.7 2.9 8.7s1.3 4.2 1.4 5.8c0 1.6.6 3.1 1.3 4.1 0 0 .1.3.3.5h-.2s.8 8.8-.5 17.6c-1.3 8.7-3.8 20 15.9 43.9 0 0 2.2 2.2 1.7 4.1-.5 1.8-3.7 31.8 9.9 51.6 1 1.4 2.1 2.8 3.2 4.1 2.3-2.2 4.2-3.4 4.2-3.4 2.5-5.9 10.9-8.2 14.3-7.8l-.5-.4z"/></g><path d="M135 165.4c.1 0 .8.2 2.1.4-.6-.1-1.3-.3-2.1-.4zM162.5 139.1c-.7-1.2-2.4-2.2-5.2-2.4-4.2-.3-4.9-2.1-5-2.5v-.1l-.3-1.2c-1.3-4.6-4.7-7.9-8.8-7.9-4.9 0-8.9 4.8-9.2 10.7V137.4s1.1.1 2.3.4c1.4.4 2.9 1.3 2.8 2.7-.2 2.7-3.2 4.5-3.2 4.5s-2.9 1.5-1.8 5c.9 2.8 3.6 5 8.4 5.7 1.9.3 4.3.3 6.9 0 9.6-1 10-7.2 8.4-9.6-1.7-2.4-2.3-3.7 2.1-3.8 2.7 0 3.5-1.7 2.6-3.2z"/><path d="M153.9 165.7l.8-.5h-.2s-.3 0-.3.1c-4.9 1-9.2 1.2-12.6 1-1.8-.1-3.3-.3-4.5-.4-1.3-.2-1.9-.4-2.1-.4-1-.1-2-.2-2.9 0 0 0 .2.1.6.2 2.3.9 11.6 5.4 11.6 17.1 0 0 2.3-13.8 11.5-17.1.3-.1.4-.2.8-.3-.1 0-1-.1-2.7.3z"/><g><path d="M101.6 199.5z"/><path fill="none" d="M172.4 205.6c-.1 0-.1 0-.2-.1.1.1.2.1.2.1zM135.8 199.8zM117 187h-.4c.1.1.2.1.4 0zM167 195.4c-.1 0-.1 0 0 0-.1 0-.1 0 0 0-.1 0-.1 0 0 0zM131.9 197.6l.6.3c-.2-.2-.4-.3-.6-.3zM109.8 195.6c.4-.1.9-.2 1.4-.3-.5.1-1 .2-1.4.3z"/><path d="M106.7 189.9zM115 194.7h.5c-.2-.1-.4-.1-.5 0zM118.2 194.6h.4-.4zM121.5 194.8h-.3.3zM130.4 196.9l.6.3-.6-.3zM105.8 197c.1 0 .2-.1.3-.1-.1 0-.2.1-.3.1zM139 202.2c0 .1 0 .1 0 0 0 .1 0 .1 0 0zM139 202.2z"/><path fill="none" d="M139.2 202.4c.3.2.6.5.9.7-.3-.2-.6-.4-.9-.7zM141.3 204c-.3-.2-.7-.5-1-.7.4.2.7.5 1 .7zM141.3 204c.3.2.6.4.8.5-.2-.2-.5-.3-.8-.5zM142.3 204.6c-.1 0-.1-.1-.2-.1.1 0 .2.1.2.1zM172.1 205.5c.1 0 .1 0 .2.1-.1-.1-.2-.1-.2-.1zM111.2 195.3h.2c-.1-.1-.2-.1-.2 0zM111.2 195.3zM135.8 199.8c.1.1.2.1.3.2 0 0-.1-.1-.3-.2z"/><path d="M171.6 205.3c.2.1.3.1.5.2-.2-.1-.4-.1-.5-.2zM171.5 205.3c.1 0 .1 0 0 0zM111.2 195.3 115 194.7c-.1 0-.1 0 0 0zM119 194.6h-.3.3zM121.5 194.8c.1 0 .2 0 .4.1-.2-.1-.3-.1-.4-.1zM139.1 202.3zM139.1 202.3c.1.1.1.1 0 0 .1.1.1.1 0 0z"/><path fill="none" d="M166.9 195.4zM145.3 202.2c0 .1 0 .1 0 0 .1 0 .1.1.1.1"/><path d="M111.2 195.3zM165.8 195.8c-.1-.2-.3-.2-.5-.1l-.1.1c-.1.1-.1.3 0 .4.1.1.2.2.3.2h.1c.2-.2.3-.4.2-.6zM164.6 195.2l.1-.1h-.7c0 .1.1.2.1.2.1 0 .1.1.2.1.2-.1.3-.1.3-.2zM166.9 195.4c-.2-.1-.3-.1-.4-.1-.1 0-.1 0-.2.1-.1.2-.1.4.1.5h.2c.1 0 .2 0 .3-.2.1 0 .1-.2 0-.3zM165 196.9c-.1-.2-.3-.3-.5-.2-.2.1-.3.3-.2.5.1.1.2.2.3.2h.2c.2-.1.3-.3.2-.5zM166.1 196.4c-.2 0-.3.1-.4.2v.2c0 .1.1.3.2.3h.2c.1 0 .2-.2.3-.3.1-.2 0-.3-.3-.4zM158.4 201.3c-.2.1-.3.3-.2.5v.1c.1.1.2.2.3.2h.1c.2-.1.2-.2.2-.4v-.1c0-.3-.2-.4-.4-.3zM160.1 201s-.1 0 0 0c-.2 0-.4.1-.4.3v.2c0 .1.1.2.2.3H160.2c.1 0 .1-.1.2-.2v-.1c0-.3-.1-.4-.3-.5zM156.6 202.7c-.1-.2-.3-.2-.5-.1l-.1.1c-.1.1-.1.3 0 .4.1.1.2.2.3.2h.1c.2-.2.3-.4.2-.6zM157.7 202.3l-.1-.1h-.3l-.1.1c-.1.2-.1.4.1.5.1 0 .1.1.2.1s.2 0 .3-.1c0-.1 0-.4-.1-.5zM155.8 203.9c-.1-.2-.3-.3-.5-.2-.1.1-.2.2-.2.3h.1c.2 0 .4-.1.6-.1zM157.1 203.7c.1 0 .1 0 0 0h.1c0-.2-.1-.3-.3-.4-.2 0-.3.1-.4.3 0 0-.1.1-.1.2H156.7M165.8 200.5c-.1-.2-.3-.2-.5-.1l-.1.1c-.1.1-.2.3-.1.5.1.1.2.2.3.2h.2c.2-.3.3-.6.2-.7zM164.7 199.9s0-.1 0 0c0-.1 0-.1 0 0 .2-.2.1-.5 0-.6-.2-.1-.4 0-.5.1v.4l.1.1c.1 0 .1.1.2.1 0 0 .1-.1.2-.1zM166.2 201c-.2 0-.4.1-.4.3v.1c0 .1.1.2.2.3h.1c.1 0 .2 0 .3-.1l.1-.1v-.1c0-.2-.1-.3-.3-.4zM164.5 201.3c-.2.1-.3.3-.2.5v.1c.1.1.2.2.3.2h.2c.1-.1.2-.2.2-.4v-.1c-.1-.3-.3-.4-.5-.3zM162.8 202.7c-.1-.2-.3-.2-.5-.1l-.1.1c-.1.1-.1.3 0 .4.1.1.2.2.3.2h.1c.2-.2.3-.4.2-.6zM161.6 201.5c-.2-.1-.4-.1-.5.1v.1c0 .1 0 .3.2.4h.2s.1 0 .2-.1l.1-.1s0-.2-.2-.4zM163.8 202.3l-.1-.1h-.3l-.1.1c-.1.2-.1.4.1.5.1 0 .1.1.2.1s.2 0 .3-.1c0-.1 0-.4-.1-.5zM163 203.4c-.2 0-.3.1-.4.3h.8c0-.2-.2-.3-.4-.3zM168.6 198.7c.1 0 .1 0 0 0h.2c.2-.1.2-.3.1-.5s-.3-.2-.5-.1c0 0-.1 0-.1.1-.1.1-.1.3-.1.4.2 0 .3.1.4.1zM167.4 197.6c.1 0 .1.1.2.1s.1 0 .2-.1l.1-.1c.1-.2 0-.4-.1-.5-.2-.1-.4-.1-.5.1v.1c-.1.1 0 .3.1.4zM171.2 196.9c-.1-.2-.3-.3-.5-.2-.2.1-.3.3-.2.5.1.1.2.2.3.2h.1c.3-.1.4-.3.3-.5zM169.9 197.7c-.2-.1-.4-.1-.5.1-.1.2-.1.4.1.5.1 0 .2.1.2.1.1 0 .2 0 .3-.1.1-.3.1-.5-.1-.6zM167.7 199.1c-.2.1-.3.3-.2.5v.1c.1.1.2.2.3.2h.2c.2-.1.2-.2.2-.4v-.1c-.1-.3-.3-.4-.5-.3zM168.9 199.1v.1c0 .1.1.1.1.2l.1.1h.2c.1 0 .2-.1.2-.2 0 0 0-.1.1-.1 0-.2-.1-.4-.3-.4h-.1c-.1 0-.2.1-.2.2l-.1.1zM170.5 199.9c.1 0 .1.1.2.1s.1 0 .2-.1l.1-.1c.1-.2.1-.4-.1-.5-.2-.1-.4-.1-.5.1 0 0 0 .1-.1.1 0 .1 0 .2.1.3 0 .1.1.1.1.1zM169 202.7c-.1-.2-.3-.2-.5-.1l-.1.1c-.1.1-.1.3 0 .4.1.1.2.2.3.2h.2c.1-.2.2-.4.1-.6zM167.8 202.2l.1-.1c.1-.2 0-.4-.1-.5-.2-.1-.4-.1-.5.1 0 0 0 .1-.1.1 0 .1 0 .3.2.4h.4zM166.9 200c-.2-.1-.4-.1-.5.1-.1.2-.1.4.1.5.1 0 .1.1.2.1s.2 0 .3-.1c.1-.2.1-.4-.1-.6.1 0 .1 0 0 0zM169.9 202.3c-.2-.1-.3-.1-.4 0l-.1.1c-.1.2-.1.4.1.5.1 0 .1.1.2.1s.2 0 .3-.1c.1-.2.1-.5-.1-.6.1 0 .1 0 0 0zM170.7 201.3c-.2.1-.3.3-.2.5l.1.1c.1.1.2.2.3.2h.1c.2-.1.2-.2.2-.4v-.1c-.1-.3-.3-.4-.5-.3zM173.5 197.6c.1 0 .1.1.2.1s.2 0 .2-.1l.1-.1v-.1c-.2-.1-.5-.2-.7-.3 0 .2.1.4.2.5zM174.8 198.7h.2c.2-.1.2-.3.1-.5s-.3-.2-.5-.1c0 0-.1 0-.1.1-.1.1-.1.3-.1.4.1 0 .2.1.4.1zM172 196.9c.1.2.1.2.2.3h.2c.1 0 .2-.2.3-.3-.1 0-.2-.1-.3-.1h-.1c-.1 0-.2-.1-.2-.1-.1 0-.1 0-.1.2-.1-.1 0-.1 0 0 0-.1 0 0 0 0zM175.6 198.3c.1 0 .2.1.2.1.1 0 .2 0 .3-.1-.1-.1-.2-.1-.3-.1-.1 0-.2-.1-.3-.1 0 0 0 .1.1.2zM173 200c-.2-.1-.4-.1-.5.1-.1.2-.1.4.1.5.1 0 .1.1.2.1s.2 0 .3-.1c.1-.2.1-.4-.1-.6.1 0 .1 0 0 0zM173.8 199.1c-.2.1-.3.3-.2.5v.1c.1.1.2.2.3.2h.2c.2-.1.2-.2.2-.4v-.1c-.1-.3-.3-.4-.5-.3zM175 199.1v.1c0 .1.1.1.1.2H175.4c.1 0 .2-.1.2-.2v-.1c0-.2-.1-.4-.4-.4h-.1c-.1 0-.2.1-.3.2.3.1.2.2.2.2zM176.1 202.3c-.1 0-.1 0 0 0-.2-.1-.3-.1-.4 0l-.1.1c-.1.2-.1.4.1.5.1 0 .1.1.2.1s.2 0 .3-.1c0-.2 0-.5-.1-.6zM175.1 202.7c-.1-.2-.3-.2-.5-.1l-.1.1c-.1.1-.1.3 0 .4.1.1.2.2.3.2h.1c.2-.2.3-.4.2-.6zM173.7 202.2c.1 0 .1 0 .2-.1l.1-.1c.1-.2 0-.4-.1-.5-.2-.1-.4-.1-.5.1v.1c0 .1 0 .3.2.4 0 .1 0 .1.1.1zM172.7 201.6v-.1c0-.2-.1-.4-.3-.4-.2 0-.4.2-.4.4v.1c0 .1.1.2.2.3h.1c.1 0 .2 0 .3-.1 0-.2 0-.2.1-.2zM173 204.6c-.2-.1-.4-.1-.5.1s-.1.4.1.5h.2c.1 0 .2-.1.3-.1 0 0 0-.3-.1-.5 0 .1 0 0 0 0zM175.4 203.4c-.2 0-.3.1-.4.3V204l.2.2h.1c.1 0 .2 0 .2-.1.1 0 .1-.1.1-.2v-.1c.1-.2 0-.4-.2-.4zM173.7 203.7c-.2.1-.3.3-.2.5 0 0 0 .1.1.1.1.1.2.1.3.1h.2c.2-.1.2-.2.2-.4v-.1c-.2-.2-.4-.3-.6-.2zM171.4 200.8c.1.1.2.2.3.2h.2c.2-.1.2-.3.1-.5s-.3-.2-.5-.1l-.1.1c0 .1-.1.2 0 .3zM172.1 205.2c-.1-.2-.3-.2-.5-.1l-.1.1s0 .1-.1.1h.2c.2.1.3.1.5.1v-.2zM167.7 203.7c-.2.1-.3.3-.2.5v.1c.1 0 .3.1.4.1.2-.1.2-.2.2-.4v-.1c0-.2-.2-.3-.4-.2zM169.3 203.4c-.2 0-.3.1-.4.2 0 0 0 .1-.1.2v.1c0 .1.1.1.1.2.1 0 .1.1.2.1h.1c.1 0 .2-.1.2-.2v-.1c.3-.3.1-.5-.1-.5zM170.9 203.9c-.2-.1-.4-.1-.5.1 0 0 0 .1-.1.1 0 .1 0 .3.1.4h.2s.1 0 .2-.1l.1-.1c.2-.1.2-.3 0-.4zM177.8 201c.1 0 .1 0 0 0h.2c.2-.1.2-.3.1-.5s-.3-.2-.5-.1l-.1.1c-.1.1-.1.3 0 .4.1.1.2.1.3.1zM176.8 201.3c-.2.1-.3.3-.2.5v.1c.1.1.2.2.3.2h.2c.2-.1.2-.2.2-.4v-.1c-.1-.3-.3-.4-.5-.3zM178.1 205.2c-.1-.2-.3-.2-.5-.1l-.1.1c-.1.1-.2.3-.1.5.1.1.2.2.3.2h.2c.2-.3.3-.6.2-.7zM176.6 199.9c.1 0 .1.1.2.1s.1 0 .2-.1l.1-.1c.1-.2 0-.4-.1-.5-.2-.1-.4 0-.5.1v.1c-.1.2 0 .3.1.4zM176.9 204.5c.1 0 .1 0 0 0l.1-.1c.1-.2.1-.4-.1-.5-.2-.1-.4-.1-.5.1v.1c0 .1 0 .3.1.4h.2c.1.1.2 0 .2 0zM176.8 206.1c-.2.1-.3.3-.2.5v.1c.1.1.2.2.3.2h.2c.2-.1.2-.2.2-.4v-.1c-.1-.3-.3-.4-.5-.3zM119.8 188.8c-.1-.2-.3-.2-.5-.1 0 0-.1 0-.1.1-.1.1-.1.3-.1.4.1.1.2.2.3.2h.2c.2-.2.3-.4.2-.6zM114.5 188.4c-.2-.1-.4-.1-.5.1-.1.2-.1.4.1.5.1.1.1.1.2.1s.2 0 .3-.1c.1-.2.1-.5-.1-.6zM115.8 187.6c-.1-.2-.3-.3-.5-.2-.2.1-.3.3-.2.5.1.1.2.2.3.2h.2c.2 0 .3-.3.2-.5zM118.5 187.7c-.2-.1-.4-.1-.5.1v.1c-.1.2 0 .3.1.4h.2s.2 0 .2-.1l.1-.1c.1-.1.1-.3-.1-.4zM116.9 187.2c-.2 0-.3.1-.4.3V187.8c0 .1.1.1.2.2h.1c.1 0 .2 0 .2-.1l.2-.2c.1-.4-.1-.5-.3-.5zM120.8 188.4c-.2-.2-.4-.1-.6 0-.1.2-.1.4.1.5h.1s.1.1.2.1.2 0 .3-.1c0-.1 0-.3-.1-.5zM123.4 187.3H123.1h-.2c-.1 0-.1.1-.1.1V187.7c0 .1.1.1.2.2h.2c.1 0 .2-.2.3-.3 0-.2 0-.3-.1-.3zM122 187.6c-.1-.2-.3-.3-.5-.2s-.3.3-.2.5c.1.1.2.2.3.2h.2c.2 0 .3-.2.2-.5 0 .1 0 0 0 0zM117.7 190.7c-.2-.2-.4-.1-.6 0-.1.2-.1.4.1.5.1 0 .1.1.2.1s.2 0 .3-.1c.1-.2.1-.4 0-.5zM122.9 191.1c-.1-.2-.3-.2-.5-.1l-.1.1c-.1.1-.1.3 0 .4.1.1.2.2.3.2h.2c.1-.2.2-.4.1-.6zM119 190s0-.1 0 0c-.1-.3-.3-.4-.5-.3-.2.1-.3.3-.2.5v.1c.1.1.2.2.3.2h.2c.2-.2.3-.4.2-.5zM121.7 189.9c-.2-.1-.4 0-.5.1 0 0 0 .1-.1.1 0 .1 0 .3.2.4.1 0 .1.1.2.1s.1 0 .2-.1l.1-.1c.1-.1.1-.4-.1-.5zM120.1 189.4c-.2 0-.3.1-.4.3v.2c0 .1.1.2.2.3H120.2l.2-.2v-.1c.1-.3-.1-.5-.3-.5zM123.9 190.7c-.2-.2-.4-.1-.6 0-.1.2-.1.4.1.5.1 0 .1.1.2.1s.2 0 .3-.1c.1-.2.1-.4 0-.5zM125.9 188.8c-.1-.2-.3-.2-.5-.1-.1.1-.2.3-.1.5.1.1.2.2.3.2h.1c.2-.2.3-.4.2-.6zM124.7 188.3c.1 0 .1-.1 0 0l.1-.1c.1-.2 0-.4-.1-.5-.2-.1-.4-.1-.5.1-.1.2 0 .4.1.5h.2c.1.1.2 0 .2 0zM126.9 188.4s0-.1 0 0l-.1-.1c-.1-.1-.2-.1-.3 0l-.1.1c-.1.2-.1.4.1.5h.2c.1 0 .2 0 .3-.1 0-.1 0-.3-.1-.4zM124.6 189.7c-.2.1-.3.3-.2.5v.1c.1.1.2.2.3.2h.1c.2-.1.2-.2.2-.4v-.1c0-.3-.2-.4-.4-.3zM126.2 189.4c-.2 0-.3.1-.4.2v.4l.2.2h.2c.1 0 .2-.1.2-.2l.1-.1c.1-.3-.1-.5-.3-.5zM135.1 191.2c0-.1 0-.1 0 0-.1-.2-.3-.3-.4-.3h-.1l-.1.1c-.1.1-.2.3-.1.5.1.1.2.2.3.2h.2c.2-.2.2-.4.2-.5zM132.4 189.7c-.1 0-.1-.1-.1-.1-.1 0-.2 0-.3.1v.2c0 .1.1.1.2.2h.1c.1 0 .2 0 .3-.1l.1-.1v-.1c-.1 0-.2 0-.3-.1zM130.7 189.7c-.2.1-.3.3-.2.5 0 0 0 .1.1.1.1.1.2.1.3.1h.2c.2-.1.2-.2.2-.4v-.1c-.2-.2-.4-.3-.6-.2zM133.4 190.2c0 .1 0 .3.1.3s.1.1.2.1.2 0 .2-.1c-.1-.1-.3-.2-.5-.3zM113.6 188.8c-.1-.2-.3-.2-.5-.1 0 0-.1 0-.1.1-.1.1-.1.3-.1.4.1.1.2.2.3.2h.2c.2-.2.3-.4.2-.6zM112 187.9c-.1 0-.1 0 0 0h-.1c0 .1 0 .3.1.3h.2c.1 0 .1 0 .2-.1 0 0 .1 0 .1-.1.1-.1.1-.3 0-.4-.2.2-.4.2-.5.3zM111.5 190.7c-.2-.2-.5-.2-.6 0-.1.2-.1.4.1.5 0 0 .1 0 .1.1h.1c.1 0 .2 0 .3-.1.1-.2.1-.3 0-.5zM116.6 191.1c-.1-.2-.3-.2-.5-.1l-.1.1c-.1.1-.2.3-.1.4.1.1.2.2.3.2h.2c.2-.2.3-.4.2-.6zM115.4 189.9c-.2-.1-.4 0-.5.1v.1c0 .1 0 .3.1.4h.2s.1 0 .2-.1c0 0 .1 0 .1-.1.1 0 .1-.3-.1-.4zM112.7 189.9c-.1-.2-.3-.3-.5-.2-.2.1-.3.3-.2.5 0 0 0 .1.1.1.1.1.2.1.3.1h.2c.2-.1.2-.2.2-.4-.1 0-.1-.1-.1-.1zM113.8 189.4c-.2 0-.4.1-.4.3v.2c0 .1.1.1.2.2h.1c.1 0 .2 0 .3-.1 0 0 0-.1.1-.1v-.1c.1-.2 0-.4-.3-.4zM110.5 191.1c-.1-.2-.3-.2-.5-.1l-.1.1c-.1.1-.1.3 0 .4.1.1.2.2.3.2h.2c.2-.2.3-.4.1-.6zM104 191.4c-.1 0-.1.1-.2.1.1.1.2.1.3.1h.1c.2-.1.2-.3.2-.5-.1.1-.2.2-.4.3zM105.5 190.7c-.1 0-.1 0 0 0l-.1-.1c-.2.1-.4.2-.5.3-.1.1-.2.1-.4.2.1-.1.2-.1.4-.2 0 .1 0 .2.1.3.1 0 .1.1.2.1s.2 0 .3-.1c.1-.2.1-.4 0-.5zM106.7 189.9c-.2.1-.4.2-.7.3.1.1.2.2.3.2h.2c.2-.1.2-.3.2-.5 0 .1 0 0 0 0zM109.4 189.9c-.2-.1-.4 0-.5.1 0 0 0 .1-.1.1 0 .1 0 .3.2.4.1 0 .1.1.2.1s.1 0 .2-.1l.1-.1c.1-.1.1-.4-.1-.5zM107.7 189.4c-.1 0-.2.1-.2.1.1 0 .2-.1.2-.1z"/><path d="M107.8 189.4c-.2 0-.3.1-.4.3v.2c0 .1.1.2.1.2.1 0 .1.1.2.1h.2c.1 0 .1-.1.2-.2v-.1c.1-.3-.1-.5-.3-.5zM108.5 193c-.2-.2-.4-.1-.6 0-.1.2-.1.4.1.5.1 0 .1.1.2.1s.2-.1.3-.2c.1 0 .1-.2 0-.4zM113.6 193.4c-.1-.2-.3-.2-.5-.1l-.1.1c-.1.1-.1.3 0 .4.1.1.2.2.3.2h.2c.1-.2.2-.4.1-.6zM112.4 192.3c-.2-.1-.4-.1-.5.1 0 0 0 .1-.1.1 0 .1 0 .3.1.4h.2c.1 0 .1 0 .2-.1l.1-.1c.2-.1.2-.3 0-.4zM109.7 192.2c-.1-.2-.3-.3-.5-.2-.2.1-.3.3-.2.5v.1c.1.1.2.2.3.2h.2c.2-.1.3-.3.2-.6 0 .1 0 .1 0 0zM110.8 191.8c-.2 0-.3.1-.4.2v.4c0 .1.1.1.2.2h.2c.1 0 .2-.1.2-.2 0 0 0-.1.1-.1.1-.4-.1-.5-.3-.5zM114.6 193c-.2-.2-.4-.1-.6 0-.1.2-.1.4.1.5.1 0 .1.1.2.1s.2-.1.3-.2c.1 0 .1-.2 0-.4zM119.8 193.4c-.1-.2-.3-.2-.5-.1l-.1.1c-.1.1-.1.3 0 .4.1.1.2.2.3.2h.1c.2-.2.3-.4.2-.6zM118.5 192.3c-.2-.1-.4-.1-.5.1v.1c0 .1 0 .3.2.4h.2s.1 0 .2-.1l.1-.1c0-.1 0-.3-.2-.4zM115.8 192.2c-.1-.2-.3-.3-.5-.2-.2.1-.3.3-.2.5v.1c.1.1.2.2.3.2h.2c.2-.1.3-.3.2-.6 0 .1 0 .1 0 0zM116.9 191.8c-.2 0-.3.1-.4.3V192.4c0 .1.1.1.2.2h.1c.1 0 .2 0 .2-.1.1 0 .1-.1.1-.2v-.1c.2-.3 0-.4-.2-.4zM115.4 194.6c-.2-.1-.4-.1-.5 0h.5zM113.4 194.5c.1 0 .1 0 0 0 .1.1.1.1 0 0 .1 0 .1 0 0 0zM112.7 194.6c-.1-.2-.3-.3-.5-.2-.2.1-.3.3-.2.5 0 0 0 .1.1.1l.1.1c.2 0 .3-.1.5-.1.1-.1.1-.2.1-.3-.1 0-.1-.1-.1-.1zM113.5 194.6z"/><path d="M113.8 194.1c-.2 0-.3.1-.4.3v.4c0 .1.1.1.2.2h.4s.1-.1.1-.2v-.1c.1-.4 0-.6-.3-.6zM120.8 193c-.2-.2-.4-.1-.6 0-.1.2-.1.4.1.5.1 0 .1.1.2.1s.2-.1.3-.2c.1 0 .1-.2 0-.4zM125.9 193.4c-.1-.2-.3-.2-.5-.1l-.1.1c-.1.1-.1.3 0 .4.1.1.2.2.3.2h.2c.1-.2.2-.4.1-.6zM122 192.2c-.1-.2-.3-.3-.5-.2-.2.1-.3.3-.2.5v.1c.1.1.2.2.3.2h.2c.2-.1.3-.3.2-.6 0 .1 0 .1 0 0zM124.7 192.3c-.2-.1-.4-.1-.5.1 0 0 0 .1-.1.1 0 .1 0 .3.1.4h.2c.1 0 .1 0 .2-.1l.1-.1c.2-.1.2-.3 0-.4z"/><g><path d="M122.7 192.1c.1-.1 0 0 0 0zM123.1 191.8c-.2 0-.3.1-.4.3.1-.1.2-.1.3-.1 0 .1-.1.2-.1.3H122.6v.1c0 .1.1.1.2.2h.1c.1 0 .2 0 .2-.1l.1-.1s0-.1.1-.1c.2-.4.1-.5-.2-.5z"/></g><path d="M126.9 193.1c0-.1 0-.1 0 0-.2-.2-.5-.2-.6 0-.1.2-.1.4.1.5h.2c.1 0 .2-.1.3-.2.1 0 .1-.2 0-.3z"/><g><path d="M129 191.1c-.1-.2-.3-.2-.5-.1l-.1.1c-.1.1-.1.3 0 .4.1.1.2.2.3.2h.1c.2-.2.3-.4.2-.6zM127.6 190.6c.1 0 .1 0 .2-.1l.1-.1c.1-.2.1-.4-.1-.5-.2-.1-.4 0-.5.1v.1c0 .1 0 .3.2.4 0 .1 0 .1.1.1zM130 190.7c-.2-.2-.5-.2-.6 0s-.1.4.1.5h.2c.1 0 .2 0 .3-.1.1-.1.1-.2 0-.4zM127.6 192c-.2.1-.3.3-.2.5l.1.1c.1.1.2.1.3.1h.2c.2-.1.2-.2.2-.4v-.1c-.2-.2-.4-.2-.6-.2zM129.3 191.8c-.2 0-.4.1-.4.2V192.3c0 .1.1.2.3.2.1 0 .2 0 .2-.1.1 0 .1-.1.1-.2 0 0 0-.1.1-.1 0-.1-.1-.3-.3-.3z"/></g><path d="M125 194.6c-.1-.2-.3-.3-.5-.2-.2.1-.3.3-.2.5 0 0 0 .1.1.1.1.1.2.1.3.1h.2c.2-.1.2-.2.2-.4l-.1-.1zM126.2 194.1c-.2 0-.4.1-.5.2v.4c.1.1.1.2.3.2.1 0 .2 0 .2-.1.1 0 .1-.1.1-.2v-.1c.2-.2.1-.3-.1-.4zM119 194.6c-.1-.2-.3-.3-.5-.2-.1 0-.1.1-.2.2h.7zM121.9 194.9c0-.1-.1-.2-.2-.3-.2-.1-.4-.1-.5.1h.3c.1.1.2.1.4.2zM120.1 194.1c-.2 0-.3.1-.4.2v.4h.6s0-.1.1-.1v-.1c.1-.2-.1-.4-.3-.4z"/><g><path d="M135.4 191.8c-.2 0-.4.1-.4.2v.2c0 .1.1.1.1.2 0 0 .1.1.2.1s.2 0 .2-.1c.1 0 .1-.1.1-.2v-.1c.1-.1 0-.3-.2-.3zM133.7 192c-.2.1-.3.3-.2.5 0 0 0 .1.1.1.1.1.2.1.3.1h.2c.1-.1.2-.2.2-.4v-.1c-.2-.2-.4-.2-.6-.2z"/></g><g><path d="M132 193.4c-.1-.2-.3-.2-.5-.1l-.1.1c-.1.1-.2.3-.1.4.1.1.2.2.3.2h.2c.2-.2.3-.4.2-.6zM130.8 192.9s.1 0 0 0l.1-.1c.1-.2.1-.4-.1-.5-.2-.1-.4-.1-.5.1v.1c0 .1 0 .3.1.4h.2c.1.1.2 0 .2 0zM133 193.1c0-.1 0-.1 0 0-.2-.2-.5-.2-.6 0s-.1.4.1.5h.2c.1 0 .2-.1.3-.2.1 0 .1-.2 0-.3zM130.7 194.4c-.2.1-.3.3-.2.5 0 0 0 .1.1.1.1.1.2.1.3.1h.2c.1-.1.2-.2.2-.4v-.1c-.2-.2-.4-.3-.6-.2zM132.3 194.1c-.2 0-.3.1-.4.2v.4c0 .1.1.1.2.2h.2c.1 0 .2-.1.2-.2v-.1c.2-.3.1-.5-.2-.5z"/></g><g><path d="M150.5 198.1c-.1-.2-.3-.2-.5-.1 0 0-.1 0-.1.1-.1.1-.1.3-.1.4.1.1.2.2.3.2h.2c.2-.2.3-.4.2-.6zM149.3 197.6c0-.1.1-.1 0 0l.1-.1c.1-.2 0-.4-.1-.5-.1 0-.3.1-.4.1v.1c-.1.2 0 .3.1.4.1 0 .1.1.2.1 0-.1.1-.1.1-.1zM151.4 197.7c-.2-.1-.4-.1-.5.1-.1.2-.1.4.1.5.1 0 .1.1.2.1s.2 0 .3-.1c.1-.3.1-.5-.1-.6zM149.2 199.1c-.2.1-.3.3-.2.5v.1c.1.1.2.2.3.2h.1c.2-.1.2-.2.2-.4v-.1c0-.3-.2-.4-.4-.3zM150.8 198.8h-.1c-.1 0-.2.1-.2.2 0 0 0 .1-.1.2v.1c0 .1.1.1.1.2 0 0 .1 0 .1.1h.2c.1 0 .2-.1.2-.2v-.1c.2-.3 0-.5-.2-.5zM147.8 197.3c-.1-.1-.1-.1-.2-.1h-.1-.2c-.1.1-.1.2-.1.3 0 .1 0 .2.1.3.1.1.2.1.3.1s.2 0 .3-.1c.1-.1.1-.2.1-.3-.1 0-.1-.1-.2-.2z"/></g><g><path d="M138.1 193.4c-.1-.2-.3-.2-.5-.1 0 0-.1 0-.1.1-.1.1-.1.3-.1.4.1.1.2.2.3.2h.2c.2-.2.3-.4.2-.6zM136.9 192.9c.1 0 .1 0 0 0l.1-.1c0-.1.1-.1 0-.2 0-.1-.1-.2-.2-.3-.1-.1-.2-.1-.3 0-.1 0-.2.1-.2.2v.1c0 .1 0 .3.1.4h.2c.2 0 .3-.1.3-.1zM136.8 194.4c-.2.1-.3.3-.2.5 0 0 0 .1.1.1.1.1.2.1.3.1h.2c.2-.1.2-.2.2-.4v-.1c-.2-.2-.4-.3-.6-.2zM138.4 194.1c-.2 0-.3.1-.4.3v.4c0 .1.1.1.2.2h.1c.1 0 .2 0 .2-.1 0 0 .1-.1.1-.2 0 0 0-.1.1-.1.1-.3-.1-.5-.3-.5z"/></g><path d="M133 197.7c-.2-.1-.4-.1-.5.1v.1h.1c.1 0 .1.1.2.1.1.1.2.1.4.2 0-.2 0-.4-.2-.5z"/><g><path d="M135.1 195.8c-.1-.2-.3-.2-.5-.1 0 0 0 .1-.1.1-.1.1-.2.3-.1.4.1.1.2.2.3.2h.2c.2-.2.3-.4.2-.6zM133.9 195.2l.1-.1c.1-.2.1-.4-.1-.5-.2-.1-.4-.1-.5.1v.1c0 .1 0 .3.1.4.1 0 .1.1.2.1s.2 0 .2-.1zM136.1 195.4c-.2-.2-.5-.2-.6 0s-.1.4.1.5h.2c.1 0 .2 0 .3-.2.1 0 .1-.2 0-.3zM134.3 196.9c-.1-.2-.3-.3-.5-.2-.2.1-.3.3-.2.5.1.1.2.2.3.2h.1c.3-.1.4-.3.3-.5zM135.4 196.4c-.2 0-.3.1-.4.2 0 0-.1.1-.1.2v.1c0 .1.1.1.2.2h.2c.1 0 .2-.2.3-.3.2-.2 0-.3-.2-.4z"/></g><g><path d="M141.2 195.8c-.1-.2-.3-.2-.5-.1l-.1.1c-.1.1-.2.3-.1.5.1.1.2.2.3.2h.2c.2-.3.3-.5.2-.7zM140 195.2s.1 0 0 0l.1-.1s0-.1.1-.2c-.2-.1-.3-.2-.5-.4-.1 0-.1.1-.2.1v.1c0 .1 0 .3.1.4.1 0 .1.1.2.1.1.1.2.1.2 0zM141.5 196.4c-.2 0-.3.1-.3.2 0 0 0 .1-.1.2v.2c0 .1.1.1.1.1.1 0 .1.1.2.1h.1c.1 0 .2-.2.3-.3.1-.3-.1-.4-.3-.5zM140.4 196.9c-.1-.2-.3-.3-.5-.2-.2.1-.3.3-.2.5.1.1.2.2.3.2h.2c.2-.1.3-.3.2-.5z"/></g><g><path d="M145.3 197.7c-.2-.1-.4-.1-.5.1-.1.2-.1.4.1.5.1 0 .2.1.2.1.1 0 .2 0 .3-.1.1-.3.1-.5-.1-.6zM144.4 198.1c-.1-.2-.3-.2-.5-.1 0 0 0 .1-.1.1-.1.1-.1.3-.1.4.1.1.2.2.3.2h.2c.2-.2.3-.4.2-.6zM143 197.6c.1 0 .1 0 .2-.1 0 0 .1 0 .1-.1.1-.2 0-.4-.1-.5-.1-.1-.4-.1-.5.1v.1c-.1.2 0 .3.1.4.1.1.1.1.2.1zM144.7 198.8c-.1 0-.1 0 0 0-.2 0-.3.1-.4.3v.2l.1.1h.2c.1 0 .1 0 .2-.1.1 0 .1-.1.1-.2v-.1c.1 0 0-.2-.2-.2zM143 199.1c-.2.1-.3.3-.2.5 0 0 0 .1.1.1.1.1.2.1.3.1h.2c.2-.1.2-.2.2-.4v-.1c-.2-.2-.4-.3-.6-.2z"/></g><g><path d="M138.2 198.1c-.1-.2-.3-.2-.5-.1 0 0-.1 0-.1.1-.1.1-.1.3-.1.4.1.1.2.2.3.2h.2c.2-.2.3-.4.2-.6zM136.8 197.6c.1 0 .1 0 .2-.1 0 0 .1 0 .1-.1.1-.2 0-.4-.1-.5-.2-.1-.4-.1-.5.1v.1c-.1.2 0 .3.1.4.1.1.1.1.2.1zM139.1 197.7c-.2-.1-.4-.1-.5.1-.1.2-.1.4.1.5.1 0 .1.1.2.1s.2 0 .3-.1c.1-.3.1-.5-.1-.6zM136.8 199.1c-.2.1-.3.3-.2.5 0 0 0 .1.1.1.1.1.2.1.3.1h.2c.2-.1.2-.2.2-.4v-.1c-.2-.2-.4-.3-.6-.2zM138.4 198.8c-.2 0-.3.1-.4.3v.2l.1.1h.2c.1 0 .1 0 .2-.1.1 0 .1-.1.1-.2v-.1c.2 0 0-.2-.2-.2z"/></g><path d="M130.8 196.9c-.2-.1-.3-.1-.5.1l.6.3c.1-.3 0-.4-.1-.4z"/><g><path d="M128.9 195.8c-.1-.2-.3-.2-.5-.1l-.1.1c-.1.1-.2.3-.1.5h.1c.1 0 .2 0 .2.1h.2c.2-.2.3-.4.2-.6zM127.7 194.6c-.2-.1-.4-.1-.5.1v.1c0 .1 0 .3.1.4.1 0 .1.1.2.1s.1 0 .2-.1c0 0 .1 0 .1-.1.2-.2.1-.4-.1-.5zM130 195.4c-.2-.2-.5-.2-.6 0s-.1.4.1.5h.2c.1 0 .2 0 .3-.2.1 0 .1-.2 0-.3zM129.3 196.4c-.2 0-.3 0-.4.1.1 0 .2.1.3.1.1 0 .2.1.3.1 0-.2 0-.3-.2-.3z"/></g><path d="M106.3 192.9zM107.5 193.4c-.1-.2-.3-.2-.5-.1l-.1.1c-.1.1-.1.3 0 .4.1.1.2.2.3.2h.1c.2-.2.3-.4.2-.6z"/><g><path d="M101.4 193.3c.1-.1.3-.2.4-.2-.1.1-.3.2-.5.3 0-.1.1-.1.1-.1zM102.1 192.9c-.1 0-.1 0 0 0-.1 0-.1 0 0 0z"/><path d="M102.3 193c-.1-.1-.2-.1-.4-.1-.1 0-.1.1-.2.1-.1.2-.1.4.1.5.1 0 .1.1.2.1s.2-.1.3-.2c.2 0 .2-.2 0-.4zM102.9 192.2c-.1.1-.1.2 0 .4l.1.1c.1.1.2.2.3.2h.2c.2-.1.2-.2.2-.4v-.1c-.1-.2-.3-.2-.4-.2-.2-.1-.3-.1-.4 0"/></g><g><path d="M104.3 192.1s0 .1 0 0zM104.3 192.2s.1.1 0 0c.1.2.1.2.2.3h.1c.1 0 .1 0 .2-.1.1 0 .1-.1.1-.2v-.1c0-.2-.1-.4-.4-.4-.2 0-.3.1-.4.3M106.3 192.3c-.2-.1-.4-.1-.5.1v.1c0 .1 0 .3.1.4h.2s.1 0 .2-.1l.1-.1c.1-.1.1-.3-.1-.4z"/></g><path d="M109.4 194.6c-.2-.1-.4-.1-.5.1 0 0 0 .1-.1.1 0 .1 0 .3.1.4.1 0 .1.1.2.1s.1 0 .2-.1l.1-.1c.2-.2.2-.4 0-.5zM107.8 194.1c-.2 0-.3.1-.3.2 0 0 0 .1-.1.2v.1c0 .1.1.1.1.2.1 0 .1.1.2.1h.1c.1 0 .2-.1.2-.2l.1-.1c.1-.3-.1-.5-.3-.5zM106.7 194.6c-.1-.2-.3-.3-.5-.2-.2.1-.3.3-.2.5v.1c.1.1.2.2.3.2h.2c.2-.2.2-.4.2-.6zM103.3 195.2zM101.3 198.1l-.1-.1v.6c.2-.1.3-.3.1-.5zM105.8 197c.1 0 .2-.1.3-.1-.1 0-.2 0-.3.1zM102.3 197.7c-.2-.1-.4-.1-.5.1-.1.2-.1.4.1.5.1 0 .2.1.2.1.1 0 .2 0 .3-.1.1-.3.1-.5-.1-.6z"/><g><path d="M105.5 195.4c-.1 0-.1-.1 0 0-.2-.2-.4-.1-.6 0-.1.2-.1.4.1.5.1 0 .1.1.2.1s.2 0 .3-.2c.1-.1.1-.3 0-.4zM104.5 195.8c-.1-.2-.3-.2-.5-.1l-.1.1c-.1.1-.1.3 0 .4.1.1.2.2.3.2h.1c.2-.2.2-.4.2-.6zM104.7 196.4c-.2 0-.3.1-.4.3V197c0 .1.1.1.2.2h.1c.1 0 .2 0 .2-.1l.2-.2c.1-.3-.1-.4-.3-.5zM103.6 196.9c-.1-.2-.3-.3-.5-.2-.2.1-.3.3-.2.5.1.1.2.2.3.2h.2c.2-.1.3-.3.2-.5z"/></g><path d="M102 199c0-.1-.2-.2-.3-.3h-.1c-.1 0-.2.1-.2.2 0 0 0 .1-.1.2v.1c0 .1.1.1.1.2.1-.1.2-.1.3-.2l.1-.1c.1 0 .2 0 .2-.1zM139.1 202.2c-.1.1-.1.1 0 0 0 .1 0 .1.1.1-.1 0 0 0-.1-.1.1.1.1.1 0 0 0 .1 0 .1 0 0zM139.1 202.2h-.1.1zM139.2 202.4s0-.1-.1-.1c.1 0 0 0 .1.1z"/><g><path d="M142.2 200.1s0-.1 0 0c-.2-.2-.5-.2-.6 0-.1.2-.1.4.1.5h.2c.1 0 .2 0 .3-.1.1-.1.1-.3 0-.4zM141.2 200.5c-.1-.2-.3-.2-.5-.1l-.1.1c-.1.1-.2.3-.1.5.1.1.2.2.3.2h.2c.2-.3.3-.6.2-.7zM140.1 199.9s0-.1 0 0c0-.1 0-.1 0 0 .2-.2.1-.5 0-.6-.2-.1-.4 0-.5.1v.4l.1.1c.1 0 .1.1.2.1 0 0 .1-.1.2-.1zM141.6 201c-.2 0-.4.1-.4.3v.2c0 .1.1.2.2.3H141.7c.1 0 .2-.1.2-.2v-.1c0-.3-.1-.4-.3-.5zM139.9 201.3c-.2.1-.3.3-.2.5v.1c.1.1.2.2.3.2h.2c.2-.1.2-.2.2-.4v-.1c-.1-.3-.3-.4-.5-.3z"/></g><g><path d="M150.5 202.7c-.1-.2-.3-.2-.5-.1l-.1.1c-.1.1-.1.3 0 .4.1.1.2.2.3.2h.2c.1-.2.2-.4.1-.6zM149.3 202.2l.1-.1c.1-.2 0-.4-.1-.5-.2-.1-.4-.1-.5.1v.1c0 .1 0 .3.2.4H149.3zM151.4 202.3c-.2-.1-.3-.1-.4 0l-.1.1c-.1.2-.1.4.1.5.1 0 .1.1.2.1s.2 0 .3-.1c.1-.2.1-.5-.1-.6.1 0 .1 0 0 0zM153.6 200.5c-.1-.2-.3-.2-.5-.1l-.1.1c-.1.1-.1.3 0 .4s.2.2.3.2h.1c.2-.2.3-.5.2-.6zM154.5 200c-.2-.1-.4-.1-.5.1-.1.2-.1.4.1.5.1 0 .1.1.2.1s.2 0 .3-.1c.1-.2.1-.4-.1-.6.1 0 .1 0 0 0zM153.4 201.4s0 .1 0 0c.1.1.1.1 0 0 .1.1 0 0 0 0zM154.6 195.4h-.2c-.2 0-.4.1-.5.1s-.2 0-.2.1c.1 0 .2 0 .2-.1 0 .1 0 .3.1.4.1 0 .1.1.2.1s.2 0 .3-.2c.2-.1.2-.2.1-.4zM153.6 195.8c-.1-.1-.1-.1 0 0 0-.1 0-.1.1-.1-.1 0-.2 0-.1.1-.3-.1-.4 0-.6 0v.4c.1.1.2.2.3.2h.1c.2-.2.3-.4.2-.6zM156.6 198.1c-.1-.2-.3-.2-.5-.1 0 0-.1 0-.1.1-.1.1-.1.3-.1.4.1.1.2.2.3.2h.2c.2-.2.3-.4.2-.6zM153.8 196.4c-.2 0-.3.1-.4.3l-.1.1V197.1c0 .1.1.2.2.2h.1c.1 0 .2 0 .2-.1l.2-.2c.2-.4.1-.5-.2-.6zM152.7 196.9c-.1-.2-.3-.3-.5-.2-.2.1-.3.3-.2.5.1.1.2.2.3.2h.2c.2-.1.3-.3.2-.5zM155.4 197.6c0-.1.1-.1 0 0l.1-.1c.1-.2.1-.4-.1-.5-.2-.1-.4-.1-.5.1v.1c-.1.2 0 .3.1.4.1 0 .1.1.2.1.1-.1.2-.1.2-.1zM159.3 196.3c.1 0 .1 0 0 0h.2c.2-.1.2-.3.1-.5s-.3-.2-.5-.1l-.1.1c-.1.1-.1.3 0 .4.1.1.2.1.3.1zM158.1 195.2c.1.1.2.1.2.1.1 0 .1 0 .2-.1l.1-.1v-.2h-.7c.1.2.1.3.2.3zM160.7 195.3c-.2-.1-.4-.1-.5.1s-.1.4.1.5c.1 0 .1.1.2.1s.2 0 .3-.2c0-.1 0-.3-.1-.5 0 .1 0 0 0 0zM161.2 194.9s.1 0 0 0c.1.2.2.2.3.2h.2s.2-.1.2-.2h-.5-.2zM163.7 197.7c-.2-.1-.4-.1-.5.1-.1.2-.1.4 0 .5.1 0 .1.1.2.1s.2 0 .3-.1c.2-.3.2-.5 0-.6zM162.8 198c-.1-.2-.3-.2-.5-.1l-.1.1c-.1.1-.1.3 0 .4.1.1.2.2.3.2h.1c.2-.2.3-.4.2-.6zM158.4 196.6c-.2.1-.3.3-.2.5v.1c.1.1.2.2.3.2h.1c.2-.1.2-.2.2-.4v-.1c0-.3-.2-.3-.4-.3zM161.2 197.5h.2s.1 0 .2-.1l.1-.1c.1-.2 0-.4-.1-.5-.2-.1-.4 0-.5.1 0 0 0 .1-.1.1 0 .3.1.4.2.5zM160.4 196.9v-.1c0-.2-.1-.4-.3-.4h-.1c-.2 0-.3.1-.3.3v.2c0 .1.1.2.1.2.1 0 .1.1.2.1h.2c.1-.2.1-.2.2-.3zM163 198.8c-.2 0-.3.1-.4.3v.2c0 .1.1.1.1.1h.2c.1 0 .1 0 .2-.1.1 0 .1-.1.1-.2v-.1c.2 0 0-.2-.2-.2zM161.4 199.1c-.2.1-.3.3-.2.5 0 0 0 .1.1.1.1.1.2.1.3.1h.2c.2-.1.2-.2.2-.4v-.1c-.2-.2-.4-.3-.6-.2zM159.2 200.3c-.1 0-.1.1-.1.1-.1.1-.1.3 0 .4.1.1.2.2.3.2h.2c.2-.1.2-.3.1-.5s-.4-.3-.5-.2zM158.5 199.3c-.2-.1-.4 0-.5.1 0 0 0 .1-.1.1 0 .1 0 .2.1.3l.1.1c.1 0 .1.1.2.1s.1 0 .2-.1l.1-.1c.1-.2.1-.4-.1-.5zM160.7 200c-.2-.1-.4-.1-.5.1-.1.2-.1.4.1.5h.2c.1 0 .2 0 .3-.1 0-.1 0-.3-.1-.5 0 .1 0 0 0 0zM157.6 197.6c-.2-.1-.3-.1-.4 0l-.1.1c-.1.2-.1.4.1.5.1 0 .1.1.2.1s.2 0 .3-.2c.1-.1.1-.3-.1-.5.1 0 .1 0 0 0zM156.9 198.8c-.1 0-.2.1-.3.1-.1.1-.1.1-.1.2v.1c0 .1.1.2.1.2H156.9c.1 0 .2-.1.2-.2v-.1c.2-.1.1-.3-.2-.3zM152.4 199.3c-.2-.1-.4 0-.5.1v.1c0 .1 0 .2.1.3l.1.1c.1 0 .1.1.2.1s.1 0 .2-.1l.1-.1c0-.2 0-.4-.2-.5zM155.3 199.1c-.2.1-.3.3-.2.5v.1c.1.1.2.2.3.2h.2c.2-.1.2-.2.2-.4v-.1c-.1-.3-.3-.4-.5-.3zM153.5 201.5c-.1.1 0 .2.1.3h.1c.1 0 .2 0 .3-.1l.1-.1v-.1c0-.2-.1-.4-.3-.4-.2 0-.4.2-.4.4 0-.1.1-.1.1 0M155.4 201.5c-.2-.1-.4-.1-.5.1v.1c0 .1 0 .3.2.4h.2s.1 0 .2-.1l.1-.1c.1 0 0-.2-.2-.4zM152.2 201.3c-.2.1-.3.3-.2.5v.1c.1.1.2.2.3.2h.2c.2-.1.2-.2.2-.4v-.1c-.1-.3-.3-.4-.5-.3zM150.8 203.4c-.2 0-.3.1-.4.2V203.9c0 .1.1.1.1.2.1 0 .1.1.2.1h.1c.1 0 .2-.1.2-.2v-.1c.2-.3 0-.5-.2-.5zM152.4 203.9c-.2-.1-.4-.1-.5.1v.1c0 .1 0 .3.1.4h.2s.1 0 .2-.1h.1-.1l.1-.1c.1-.1.1-.3-.1-.4zM148.4 204.6c-.2-.1-.4-.1-.5.1s-.1.4.1.5c.1 0 .1.1.2.1s.2-.1.3-.1c.1-.1.1-.4-.1-.6.1 0 .1 0 0 0zM149.2 203.7c-.2.1-.3.3-.2.5l.1.1c.1.1.2.2.3.2h.1c.2-.1.2-.2.2-.4v-.1c-.1-.3-.3-.4-.5-.3zM147.4 205.2c-.1-.2-.3-.2-.5-.1l-.1.1c-.1.1-.2.3-.1.5.1.1.2.2.3.2h.2c.2-.3.3-.6.2-.7zM146.2 203.9c-.2-.1-.4-.1-.5.1v.1c0 .1 0 .3.1.4h.2s.2 0 .2-.1c0 0 .1 0 .1-.1.1-.1.1-.3-.1-.4z"/></g><g><path d="M148.5 200.1c0-.1 0-.1 0 0-.2-.2-.4-.1-.6 0-.1.2-.1.4.1.5.1 0 .1.1.2.1s.2 0 .3-.1c.1-.2.1-.4 0-.5zM147.8 201c-.2 0-.4.1-.4.3v.1c0 .1.1.2.2.3h.1c.1 0 .2 0 .3-.1l.1-.1v-.1c0-.2-.1-.3-.3-.4zM147.2 201c.2-.1.2-.3.1-.5s-.3-.2-.5-.1c0 0 0 .1-.1.1-.1.1-.2.3-.1.4s.2.2.3.2c.2-.1.2-.1.3-.1zM145.7 199.4s0 .1 0 0c-.1.2 0 .3 0 .4l.1.1c.1 0 .1.1.2.1s.2 0 .3-.1l.1-.1c.1-.2.1-.4-.1-.5-.3-.1-.5-.1-.6.1zM147.8 202c-.1-.1-.1-.1-.2-.1H147.3c-.1.1-.1.2-.1.3 0 .1 0 .2.1.3.1.1.2.1.3.1s.2 0 .3-.1c.1-.1.1-.2.1-.3-.1-.1-.1-.2-.2-.2zM145.3 202.3h-.4l-.1.1c-.1.2-.1.4.1.5.1 0 .1.1.2.1s.2 0 .3-.1c.1-.2.1-.5-.1-.6.1 0 .1 0 0 0zM144.4 202.7c-.1-.2-.3-.2-.5-.1l-.1.1c-.1.1-.1.3 0 .4.1.1.2.2.3.2h.2c.1-.2.2-.4.1-.6zM143 202.2c.1 0 .1 0 .2-.1l.1-.1c.1-.2.1-.4-.1-.5-.2-.1-.4-.1-.5.1v.1c0 .1 0 .3.2.4 0 .1.1.1.1.1zM144.7 203.4c-.2 0-.3.1-.4.3V204s.1.2.2.2h.1c.1 0 .1 0 .2-.1.1 0 .1-.1.1-.2v-.1c.1-.2 0-.4-.2-.4zM143 203.7c-.2.1-.3.3-.2.5 0 0 0 .1.1.1.1.1.2.1.3.1h.2c.2-.1.2-.2.2-.4v-.1c-.2-.2-.4-.3-.6-.2z"/></g><path fill="none" d="M99.8 194.1c.2-.1.3-.1.5-.2-.2.1-.3.2-.5.2z"/><g><path d="M103.3 194.6c-.2-.1-.4-.1-.5.1v.1c0 .1 0 .3.2.4.1 0 .1.1.2.1s.1 0 .2-.1l.1-.1c0-.2 0-.4-.2-.5zM101.7 194.1c-.2 0-.3.1-.3.2v.4s0 .1.1.1.1.1.2.1h.1c.1 0 .2-.1.2-.2v-.1c.1-.3-.1-.5-.3-.5zM100.1 194.4c-.2.1-.3.3-.2.5l.1.1c.1.1.2.2.3.2h.1v-.7c-.1-.2-.2-.2-.3-.1z"/></g><path d="M100.2 196.9c-.2-.1-.4-.1-.5.1v.1c-.1.2 0 .3.1.4.1 0 .1.1.2.1s.1 0 .2-.1v-.6c0 .1 0 .1 0 0zM99.4 200.6c.1-.1.1-.3 0-.4v.4zM100.1 199.1c-.2.1-.3.3-.2.5v.1c.1.1.1.1.2.1v-.7c.1 0 0 0 0 0z"/><g><path d="M179.6 208.8c.1 0 .2.1.2.1 0-.1-.1-.1-.2-.1zM180.9 203.3h.2c.2-.1.2-.3.1-.5s-.3-.2-.5-.1l-.1.1c-.1.1-.1.3 0 .4 0 0 .1.1.3.1zM179.8 202.2c.1 0 .1 0 .2-.1l.1-.1c.1-.2 0-.4-.1-.5-.2-.1-.4-.1-.5.1v.1c0 .1 0 .3.2.4 0 .1.1.1.1.1zM181.7 202.9h.1c.1 0 .2 0 .3-.1.1-.1.1-.3 0-.4 0 0 0-.1-.1-.1h-.4l-.1.1c-.1.1-.1.3.2.5-.1 0 0 0 0 0zM179.8 203.7c-.2.1-.3.3-.2.5 0 0 0 .1.1.1.1.1.2.1.3.1h.2c.1-.1.2-.2.2-.4v-.1c-.1-.2-.4-.3-.6-.2zM181.1 203.7c0 .1 0 .1 0 0v.2c0 .1.1.1.2.2h.2c.1 0 .2-.1.2-.2v-.1c0-.2-.1-.4-.3-.4-.2 0-.3.1-.4.2.1 0 .1.1.1.1zM183.9 205.7h.2c.2-.1.2-.3.1-.5s-.3-.2-.5-.1l-.1.1c-.1.1-.2.3-.1.5h.4zM182.6 204.5h.2s.2 0 .2-.1c0 0 .1 0 .1-.1.1-.2.1-.4-.1-.5-.2-.1-.4-.1-.5.1v.1c-.1.2 0 .4.1.5zM184.8 205.3h.1c.1 0 .2-.1.3-.1.1-.1.1-.3 0-.5 0 0 0-.1-.1-.1-.2-.1-.4-.1-.5.1-.1.1-.1.5.2.6-.1 0 0 0 0 0zM182.2 207.1c-.2-.1-.4-.1-.5.1-.1.2-.1.4.1.5.1 0 .1.1.2.1s.2-.1.3-.1c0-.3 0-.5-.1-.6zM182.9 206.1c-.2.1-.3.3-.2.5v.1c.1.1.2.2.3.2h.1c.2-.1.2-.2.2-.4v-.1c0-.3-.2-.4-.4-.3zM184.1 206.2s.1 0 0 0v.2c0 .1.1.1.2.2h.2c.1 0 .2-.1.2-.2 0 0 0-.1.1-.1 0-.2-.1-.4-.4-.4-.1 0-.3.1-.3.2.1 0 .1 0 0 .1zM187 208.1c.1 0 .1 0 .2-.1.2-.1.2-.3.1-.5s-.3-.2-.5-.1l-.1.1c-.1.1-.1.3 0 .4 0 .1.1.2.3.2zM185.7 207c.1 0 .1.1.2.1s.1 0 .2-.1l.1-.1c.1-.2 0-.4-.1-.5-.2-.1-.4-.1-.5.1 0 0 0 .1-.1.1 0 .1.1.3.2.4 0-.1 0 0 0 0zM185.3 209.4c-.2-.1-.4-.1-.5.1-.1.2-.1.4.1.5.1 0 .1.1.2.1s.2 0 .3-.1c0-.2 0-.4-.1-.6zM186.5 208.6c-.1-.2-.3-.3-.5-.2-.2.1-.3.3-.2.5v.1c.1.1.2.2.3.2h.2c.2-.1.3-.3.2-.6 0 .1 0 .1 0 0zM187.3 208.5v.1c0 .1.1.2.1.2.1 0 .1.1.2.1v-.7h-.1c-.1 0-.2.1-.3.2.1 0 .1 0 .1.1zM181.2 207.5c-.1-.2-.3-.2-.5-.1l-.1.1c-.1.1-.1.3 0 .4.1.1.2.2.3.2h.2c.1-.2.2-.4.1-.6zM180 206.3c-.2-.1-.4-.1-.5.1v.1c0 .1 0 .3.2.4.1 0 .1.1.2.1s.1 0 .2-.1l.1-.1c.1-.1 0-.4-.2-.5zM179.1 200c-.2-.1-.4-.1-.5.1-.1.2-.1.4.1.5h.2c.1 0 .2 0 .3-.1 0-.1 0-.3-.1-.5 0 .1 0 0 0 0zM178.3 201.8H178.6c.1 0 .2-.1.2-.2v-.1c0-.2-.1-.4-.3-.4-.2 0-.3.1-.4.3v.2l.2.2zM179.1 204.6c-.2-.1-.4-.1-.5.1-.1.2-.1.4.1.5h.2c.1 0 .2-.1.3-.1 0 0 0-.3-.1-.5 0 .1 0 0 0 0zM178.4 205.8c-.2 0-.3.1-.4.2v.4c0 .1.1.1.2.2h.2c.1 0 .2-.1.2-.2v-.1c.2-.3.1-.5-.2-.5zM184.2 209.8c-.1-.2-.3-.2-.5-.1l-.1.1c-.1.1-.2.3-.1.5.1.1.2.2.3.2h.2c.2-.2.3-.5.2-.7zM181.5 208.2c-.2 0-.3.1-.4.3V208.8c0 .1.1.1.2.2h.1c.1 0 .2 0 .2-.1.1 0 .1-.1.1-.2v-.1c.1-.2 0-.4-.2-.4zM182.5 208.8c-.1.2 0 .4.1.5.1 0 .1.1.2.1s.2 0 .2-.1c0 0 .1 0 .1-.1.1-.2.1-.4-.1-.5-.2-.1-.4-.1-.5.1zM187.2 212.2c-.1-.2-.3-.2-.5-.1s-.2.3-.1.5c.1.1.2.2.3.2h.1c.3-.2.3-.4.2-.6zM184.5 210.5c-.2 0-.4.1-.4.2v.1c0 .1.1.2.1.3 0 0 .1.1.2.1.2 0 .3-.1.3-.2v-.1c.1-.2 0-.3-.2-.4zM186.2 211.5c.1-.2 0-.4-.1-.5-.2-.1-.4 0-.5.1-.1.2 0 .4.1.5.1 0 .1.1.2.1s.2 0 .2-.1l.1-.1c-.1 0 0 0 0 0zM183.3 211s0 .1 0 0c.1.1.1.1 0 0 .1.1.1 0 0 0zM187.7 213.1v-.3h-.1c-.2 0-.3.1-.4.3v.2l.1.1h.2c.1 0 .1 0 .2-.1v-.3.1zM186.4 213.4c0-.1 0-.1 0 0-.1-.2-.2-.2-.3-.3l.3.3c.1 0 .1 0 0 0 .1 0 .1 0 0 0zM188.8 209.3c.1 0 .1.1.2.1s.1 0 .2-.1l.3.3v-.4h-.3l.1-.1c.1-.2.1-.4-.1-.5s-.4 0-.5.1v.4c0 .1 0 .1.1.2zM189.5 211c-.1-.2-.3-.3-.5-.2-.2.1-.3.3-.2.5.1.1.2.2.3.2h.2c.2-.1.3-.3.2-.5zM189.2 213.9s.1 0 0 0c.1-.2.1-.4-.1-.5-.1-.1-.3 0-.4 0v.6c.1 0 .1.1.2.1.2-.1.3-.1.3-.2zM189 215.4c-.1 0-.1.1-.1.1l.3.3c.1.1.2.1.2.2.1-.1.1-.2.1-.3v-.1c-.1-.2-.3-.3-.5-.2z"/></g></g></svg>