<?xml version="1.0" encoding="utf-8"?>
<!-- Generator: Adobe Illustrator 18.1.1, SVG Export Plug-In . SVG Version: 6.00 Build 0)  -->
<svg version="1.1" id="Layer_1" xmlns="http://www.w3.org/2000/svg" xmlns:xlink="http://www.w3.org/1999/xlink" x="0px" y="0px"
	 viewBox="79.7 0 126.2 216" enable-background="new 79.7 0 126.2 216" xml:space="preserve">
<g>
	<path d="M152.3,134L152.3,134C152.3,134.1,152.3,134,152.3,134z"/>
	<path d="M133.9,137.3L133.9,137.3c0.2,0.1,0.3,0.1,0.4,0.1c0.5,0.1,1.2,0.3,1.8,0.3C135,137.4,133.9,137.3,133.9,137.3z"/>
	<path d="M132.6,165.7c-0.3-0.2-0.6-0.2-0.6-0.2c1-0.1,2-0.1,2.9,0l0,0c-3.7-0.8-7.9-1.2-12.2,0.1c-1.3,0.4-2.6,0.9-3.8,1.7
		C123.6,165.2,128.4,165,132.6,165.7z"/>
	<path d="M154.2,165.3c0.1,0,0.3,0,0.3-0.1C154.5,165.3,154.3,165.3,154.2,165.3z"/>
	<path d="M154.7,165.2l-0.8,0.5c1.8-0.3,2.6-0.3,2.6-0.3c-0.3,0.1-0.5,0.2-0.8,0.3c4.3-0.6,9.2-0.5,13.9,1.6
		c-1.3-0.8-2.6-1.3-3.9-1.7C161.9,164.4,158.1,164.5,154.7,165.2z"/>
	<g>
		<path fill="#FBD106" d="M123.8,155.9c0,0,1.8,4.3-0.9,9.5c4.2-1.3,8.5-0.9,12.2-0.1l0,0l0,0c0.7,0.1,1.3,0.3,2.1,0.4
			c1.1,0.2,2.6,0.3,4.5,0.4c3.3,0.2,7.6,0,12.6-1c0.1,0,0.3,0,0.3-0.1c0.1,0,0.1,0,0.2,0l0,0c3.3-0.7,7.2-0.8,10.9,0.3
			c-2.6-5.3-0.6-9.5-0.6-9.5c11.7,14.1,15.2,9.6,16.1,6.7c0.9-2.4,0.5-6.7-1.2-11.1c-1.5-4-3.8-7.1-5.9-8.6l0,0
			c-0.8,1.3-1.8,2.8-2.8,4c-1.4-1.2-2.3-1.8-2.3-1.8c-1.2-2.8-3.7-4.8-6.3-6c0.9,1.6,0.1,3.3-2.4,3.3c-4.3,0.1-3.8,1.3-2.1,3.8
			c1.7,2.4,1.3,8.5-8.4,9.6c-2.7,0.3-5,0.3-6.9,0c-4.9-0.7-7.5-2.9-8.4-5.7c-1.3-3.5,1.8-5,1.8-5s2.9-1.8,3.2-4.5
			c0.1-1.4-1.4-2.3-2.8-2.7c-0.8-0.1-1.3-0.3-1.8-0.3c-0.2,0-0.3-0.1-0.4-0.1c-3.3-0.4-11.7,1.8-14.3,7.8c0,0-1.8,1.3-4.2,3.4
			c-1.2-1.3-2.2-2.7-3.2-4.1c0,0,0,0.1-0.1,0.2c-1.4,1.7-2.8,3.9-3.8,6.6c-1.7,4.4-2,8.7-1,11C108.3,165.3,111.6,170.4,123.8,155.9z
			"/>
		<path fill="#FBD106" d="M179.9,176.7c-2.8-4.9-6.4-7.9-10.2-9.5c-4.6-2.1-9.5-2.2-13.9-1.6c-9.2,3.2-11.5,17.1-11.5,17.1
			c0-11.5-9.2-16.1-11.6-17.1c-4.2-0.6-9-0.4-13.7,1.6c-3.8,1.7-7.4,4.6-10.2,9.5c0,0-3.1,5.2-5.5,13c2.1-2.3,9.1-8.7,18.9-7.6
			c12.1,1.3,15.2,5.9,19.4,8.7c0.9,0.6,1.8,0.9,2.8,1.2c0,0,0.1,0,0.2,0c3.3,0.8,6.1-0.5,6.1-0.5s18.4-7.6,37.4,9.4
			C186.3,187.5,179.9,176.7,179.9,176.7z"/>
	</g>
	<g>
		<path fill="#F05A28" d="M204.3,5.4c-0.1-1.7-1.9-1.3-1.9-1.3c-0.6-1.8-1.9-1.1-1.9-1.1c0.2-0.8-1-1.3-1-1.3
			c-0.8-0.3-1.1,0.5-1.1,0.5c0-0.8-1.3-1.3-1.3-1.3c-2.3-0.6-1.8,1.8-1.7,2.3c0.1,0.5-0.2,1.8-0.2,1.8c-0.4,1.2,0,3,0.4,3.9
			c0.4,0.9,0.4,4.8,0.3,5.9c-0.3,1.2-0.6,3.5-0.6,4.4c0,0.9-0.4,1.8-0.4,1.8c-0.8,1.3-1.2,2.8-1.1,3.8c0,0.4-0.3,1.3-0.5,2.2
			c-6.9,13.6-10.5,25.9-11.5,28.8c-1.1,3-8.2,21.4-8.2,21.4c-2.2,2.8-4.9,10.9-4.9,10.9c-10.5,19.7-14.8,35.7-16.5,44.4
			c0.1,0.4,0.2,0.8,0.3,1.2l0,0l0,0v0.1c0.1,0.5,0.8,2.3,5,2.5c2.8,0.2,4.5,1.3,5.2,2.4c2.7,1.3,5.2,3.3,6.3,6c0,0,0.9,0.7,2.3,1.8
			c1-1.3,2-2.6,2.8-4l0,0c12.5-19.8,9.4-48.4,8.9-50c-0.5-1.9,1.7-4.1,1.7-4.1c10.2-9,15-29,13.6-37.8s1.8-23.5,1.8-23.5h-0.2
			c0.2-0.3,0.3-0.5,0.3-0.5c0.6-1,1.2-2.5,1.3-4.1c0-1.6,1.4-5.8,1.4-5.8s2.3-6.3,2.9-8.7C206.5,5.3,204.3,5.4,204.3,5.4z"/>
		<path fill="#F05A28" d="M133.9,137.3L133.9,137.3c0-0.3,0-0.6,0-0.9c0-0.3,0-0.5,0-0.8c-1.3-7.4-5.2-25.1-17-47.2
			c0,0-2.8-8.2-4.9-10.9c0,0-7.1-18.4-8.2-21.4c-1-2.8-4.6-15.1-11.3-28.4c0.2-0.1,0.3-0.1,0.3-0.1s-1-1.3-0.9-2.4
			c0-1.1-0.3-2.6-1.1-3.8c0,0-0.4-0.8-0.4-1.8s-0.4-3.3-0.6-4.4c-0.3-1.2-0.2-5,0.3-5.9c0.4-0.9,0.8-2.8,0.4-3.9
			c0,0-0.3-1.2-0.3-1.7s0.5-2.9-1.7-2.3c0,0-1.3,0.4-1.3,1.3c0,0-0.3-0.8-1.1-0.5c0,0-1.2,0.4-1,1.3c0,0-1.3-0.8-1.9,1.1
			c0,0-1.8-0.4-1.9,1.3c0,0-2.1,0-1.3,2.6c0.7,2.5,2.9,8.7,2.9,8.7s1.3,4.2,1.4,5.8c0,1.6,0.6,3.1,1.3,4.1c0,0,0.1,0.3,0.3,0.5h-0.2
			c0,0,0.8,8.8-0.5,17.6c-1.3,8.7-3.8,20,15.9,43.9c0,0,2.2,2.2,1.7,4.1c-0.5,1.8-3.7,31.8,9.9,51.6c1,1.4,2.1,2.8,3.2,4.1
			c2.3-2.2,4.2-3.4,4.2-3.4c2.5-5.9,10.9-8.2,14.3-7.8C133.9,137.3,133.9,137.3,133.9,137.3L133.9,137.3z"/>
	</g>
	<path d="M135,165.4c0.1,0,0.8,0.2,2.1,0.4C136.5,165.7,135.8,165.5,135,165.4z"/>
	<path d="M162.5,139.1c-0.7-1.2-2.4-2.2-5.2-2.4c-4.2-0.3-4.9-2.1-5-2.5c0-0.1,0-0.1,0-0.1l0,0l0,0c-0.1-0.4-0.2-0.8-0.3-1.2
		c-1.3-4.6-4.7-7.9-8.8-7.9c-4.9,0-8.9,4.8-9.2,10.7c0,0.3,0,0.5,0,0.8c0,0.3,0,0.7,0,0.9l0,0l0,0c0,0,1.1,0.1,2.3,0.4
		c1.4,0.4,2.9,1.3,2.8,2.7c-0.2,2.7-3.2,4.5-3.2,4.5s-2.9,1.5-1.8,5c0.9,2.8,3.6,5,8.4,5.7c1.9,0.3,4.3,0.3,6.9,0
		c9.6-1,10-7.2,8.4-9.6c-1.7-2.4-2.3-3.7,2.1-3.8C162.6,142.3,163.4,140.6,162.5,139.1z"/>
	<path d="M153.9,165.7l0.8-0.5l0,0c-0.1,0-0.1,0-0.2,0s-0.3,0-0.3,0.1c-4.9,1-9.2,1.2-12.6,1c-1.8-0.1-3.3-0.3-4.5-0.4
		c-1.3-0.2-1.9-0.4-2.1-0.4l0,0l0,0l0,0c-1-0.1-2-0.2-2.9,0c0,0,0.2,0.1,0.6,0.2c2.3,0.9,11.6,5.4,11.6,17.1c0,0,2.3-13.8,11.5-17.1
		c0.3-0.1,0.4-0.2,0.8-0.3C156.5,165.4,155.6,165.3,153.9,165.7z"/>
</g>
<g>
	<path d="M101.6,199.5L101.6,199.5L101.6,199.5z"/>
	<path fill="none" d="M172.4,205.6L172.4,205.6c-0.1,0-0.1,0-0.2-0.1C172.3,205.6,172.4,205.6,172.4,205.6z"/>
	<path fill="none" d="M135.8,199.8L135.8,199.8L135.8,199.8L135.8,199.8z"/>
	<path fill="none" d="M117,187c-0.1,0-0.3,0-0.4,0C116.7,187.1,116.8,187.1,117,187L117,187z"/>
	<path fill="none" d="M167,195.4L167,195.4C166.9,195.4,166.9,195.4,167,195.4C166.9,195.4,166.9,195.4,167,195.4
		C166.9,195.4,166.9,195.4,167,195.4z"/>
	<path fill="none" d="M131.9,197.6L131.9,197.6c0.2,0.1,0.4,0.2,0.6,0.3l0,0C132.3,197.7,132.1,197.6,131.9,197.6z"/>
	<path fill="none" d="M109.8,195.6L109.8,195.6c0.4-0.1,0.9-0.2,1.4-0.3C110.7,195.4,110.2,195.5,109.8,195.6z"/>
	<path d="M106.7,189.9L106.7,189.9L106.7,189.9z"/>
	<path d="M115,194.7c0.2,0,0.3,0,0.5,0l0,0C115.3,194.6,115.1,194.6,115,194.7z"/>
	<path d="M118.2,194.6L118.2,194.6c0.1,0,0.3,0,0.4,0C118.5,194.6,118.4,194.6,118.2,194.6z"/>
	<path d="M121.5,194.8c-0.1,0-0.2,0-0.3,0l0,0C121.3,194.8,121.4,194.8,121.5,194.8z"/>
	<path d="M130.4,196.9L130.4,196.9c0.2,0.1,0.4,0.2,0.6,0.3l0,0C130.8,197.1,130.6,197,130.4,196.9z"/>
	<path d="M105.8,197L105.8,197c0.1,0,0.2-0.1,0.3-0.1l0,0C106,196.9,105.9,197,105.8,197z"/>
	<path d="M139,202.2C139,202.3,139,202.3,139,202.2C139,202.3,139,202.3,139,202.2L139,202.2z"/>
	<path d="M139,202.2L139,202.2L139,202.2L139,202.2L139,202.2z"/>
	<path fill="none" d="M139.2,202.4c0.3,0.2,0.6,0.5,0.9,0.7C139.8,202.9,139.5,202.7,139.2,202.4L139.2,202.4z"/>
	<path fill="none" d="M141.3,204c-0.3-0.2-0.7-0.5-1-0.7C140.7,203.5,141,203.8,141.3,204z"/>
	<path fill="none" d="M141.3,204c0.3,0.2,0.6,0.4,0.8,0.5l0,0C141.9,204.3,141.6,204.2,141.3,204z"/>
	<path fill="none" d="M142.3,204.6c-0.1,0-0.1-0.1-0.2-0.1l0,0C142.2,204.5,142.3,204.6,142.3,204.6L142.3,204.6z"/>
	<path fill="none" d="M172.1,205.5c0.1,0,0.1,0,0.2,0.1C172.2,205.5,172.1,205.5,172.1,205.5L172.1,205.5z"/>
	<path fill="none" d="M111.2,195.3L111.2,195.3c0.1,0,0.1,0,0.2,0l0,0C111.3,195.2,111.2,195.2,111.2,195.3z"/>
	<path fill="none" d="M111.2,195.3L111.2,195.3L111.2,195.3L111.2,195.3z"/>
	<path fill="none" d="M135.8,199.8c0.1,0.1,0.2,0.1,0.3,0.2l0,0C136.1,200,136,199.9,135.8,199.8z"/>
	<path d="M171.6,205.3L171.6,205.3c0.2,0.1,0.3,0.1,0.5,0.2l0,0C171.9,205.4,171.7,205.4,171.6,205.3z"/>
	<path d="M171.5,205.3L171.5,205.3C171.6,205.3,171.6,205.3,171.5,205.3L171.5,205.3z"/>
	<polygon points="111.2,195.3 111.2,195.3 111.2,195.3 	"/>
	<path d="M115,194.7L115,194.7C114.9,194.7,114.9,194.7,115,194.7L115,194.7z"/>
	<path d="M119,194.6L119,194.6c-0.1,0-0.2,0-0.3,0C118.7,194.6,118.9,194.6,119,194.6z"/>
	<path d="M121.5,194.8c0.1,0,0.2,0,0.4,0.1l0,0C121.7,194.8,121.6,194.8,121.5,194.8z"/>
	<path d="M139.1,202.3L139.1,202.3L139.1,202.3L139.1,202.3z"/>
	<path d="M139.1,202.3L139.1,202.3C139.2,202.4,139.2,202.4,139.1,202.3L139.1,202.3C139.2,202.4,139.2,202.4,139.1,202.3z"/>
	<path fill="none" d="M166.9,195.4L166.9,195.4L166.9,195.4L166.9,195.4z"/>
	<path fill="none" d="M145.3,202.2C145.3,202.3,145.3,202.3,145.3,202.2c0.1,0,0.1,0.1,0.1,0.1"/>
	<path d="M111.2,195.3L111.2,195.3L111.2,195.3z"/>
	<g>
		<path d="M165.8,195.8c-0.1-0.2-0.3-0.2-0.5-0.1l-0.1,0.1c-0.1,0.1-0.1,0.3,0,0.4c0.1,0.1,0.2,0.2,0.3,0.2l0,0c0.1,0,0.1,0,0.1,0
			C165.8,196.2,165.9,196,165.8,195.8z"/>
		<path d="M164.6,195.2L164.6,195.2l0.1-0.1l0,0l0,0c-0.1,0-0.3,0-0.4,0s-0.2,0-0.3,0l0,0c0,0.1,0.1,0.2,0.1,0.2l0,0
			c0.1,0,0.1,0.1,0.2,0.1C164.5,195.3,164.6,195.3,164.6,195.2z"/>
		<path d="M166.9,195.4L166.9,195.4L166.9,195.4c-0.2-0.1-0.3-0.1-0.4-0.1l0,0c-0.1,0-0.1,0-0.2,0.1c-0.1,0.2-0.1,0.4,0.1,0.5h0.1
			h0.1c0.1,0,0.2,0,0.3-0.2C167,195.7,167,195.5,166.9,195.4z"/>
		<path d="M165,196.9c-0.1-0.2-0.3-0.3-0.5-0.2c-0.2,0.1-0.3,0.3-0.2,0.5l0,0c0.1,0.1,0.2,0.2,0.3,0.2c0,0,0.1,0,0.2,0
			C165,197.3,165.1,197.1,165,196.9L165,196.9z"/>
		<path d="M166.1,196.4L166.1,196.4c-0.2,0-0.3,0.1-0.4,0.2c0,0,0,0.1,0,0.2l0,0c0,0.1,0.1,0.3,0.2,0.3h0.1l0,0h0.1
			c0.1,0,0.2-0.2,0.3-0.3l0,0C166.5,196.6,166.4,196.5,166.1,196.4z"/>
	</g>
	<g>
		<path d="M158.4,201.3c-0.2,0.1-0.3,0.3-0.2,0.5c0,0,0,0,0,0.1c0.1,0.1,0.2,0.2,0.3,0.2h0.1c0.2-0.1,0.2-0.2,0.2-0.4v-0.1
			C158.8,201.3,158.6,201.2,158.4,201.3z"/>
		<path d="M160.1,201C160.1,201,160,201,160.1,201c-0.2,0-0.4,0.1-0.4,0.3c0,0,0,0,0,0.1v0.1c0,0.1,0.1,0.2,0.2,0.3h0.1l0,0
			c0.1,0,0.1,0,0.2,0c0.1,0,0.1-0.1,0.2-0.2v-0.1C160.4,201.2,160.3,201.1,160.1,201z"/>
	</g>
	<g>
		<path d="M156.6,202.7c-0.1-0.2-0.3-0.2-0.5-0.1l-0.1,0.1c-0.1,0.1-0.1,0.3,0,0.4c0.1,0.1,0.2,0.2,0.3,0.2l0,0c0.1,0,0.1,0,0.1,0
			C156.6,203.1,156.7,202.9,156.6,202.7z"/>
		<path d="M157.7,202.3L157.7,202.3c-0.1-0.1-0.1-0.1-0.1-0.1c-0.1,0-0.2,0-0.3,0l-0.1,0.1c-0.1,0.2-0.1,0.4,0.1,0.5l0,0
			c0.1,0,0.1,0.1,0.2,0.1s0.2,0,0.3-0.1C157.8,202.7,157.8,202.4,157.7,202.3z"/>
		<path d="M155.8,203.9c-0.1-0.2-0.3-0.3-0.5-0.2c-0.1,0.1-0.2,0.2-0.2,0.3l0,0h0.1C155.4,204,155.6,203.9,155.8,203.9L155.8,203.9
			L155.8,203.9L155.8,203.9z"/>
		<path d="M157.1,203.7L157.1,203.7C157.2,203.7,157.2,203.7,157.1,203.7c0.1,0,0.1,0,0.1,0l0,0c0-0.2-0.1-0.3-0.3-0.4l0,0
			c-0.2,0-0.3,0.1-0.4,0.3c0,0-0.1,0.1-0.1,0.2l0,0l0,0l0,0l0,0c0,0,0,0,0.1,0l0,0h0.1h0.1l0,0"/>
	</g>
	<g>
		<path d="M165.8,200.5c-0.1-0.2-0.3-0.2-0.5-0.1c0,0,0,0-0.1,0.1c-0.1,0.1-0.2,0.3-0.1,0.5c0.1,0.1,0.2,0.2,0.3,0.2h0.1h0.1
			C165.8,200.9,165.9,200.6,165.8,200.5z"/>
		<path d="M164.7,199.9C164.7,199.9,164.7,199.8,164.7,199.9C164.7,199.8,164.7,199.8,164.7,199.9c0.2-0.2,0.1-0.5,0-0.6
			c-0.2-0.1-0.4,0-0.5,0.1v0.1c0,0.1,0,0.2,0,0.3l0.1,0.1c0.1,0,0.1,0.1,0.2,0.1C164.5,200,164.6,199.9,164.7,199.9z"/>
		<path d="M166.2,201L166.2,201c-0.2,0-0.4,0.1-0.4,0.3l0,0v0.1c0,0.1,0.1,0.2,0.2,0.3h0.1l0,0c0.1,0,0.2,0,0.3-0.1l0.1-0.1v-0.1
			C166.5,201.2,166.4,201.1,166.2,201z"/>
		<path d="M164.5,201.3c-0.2,0.1-0.3,0.3-0.2,0.5c0,0,0,0,0,0.1c0.1,0.1,0.2,0.2,0.3,0.2c0,0,0.1,0,0.2,0l0,0
			c0.1-0.1,0.2-0.2,0.2-0.4v-0.1C164.9,201.3,164.7,201.2,164.5,201.3z"/>
	</g>
	<g>
		<path d="M162.8,202.7c-0.1-0.2-0.3-0.2-0.5-0.1l-0.1,0.1c-0.1,0.1-0.1,0.3,0,0.4c0.1,0.1,0.2,0.2,0.3,0.2l0,0c0.1,0,0.1,0,0.1,0
			C162.8,203.1,162.9,202.9,162.8,202.7z"/>
		<path d="M161.6,201.5c-0.2-0.1-0.4-0.1-0.5,0.1v0.1c0,0.1,0,0.3,0.2,0.4c0.1,0,0.1,0,0.2,0s0.1,0,0.2-0.1l0.1-0.1
			C161.8,201.9,161.8,201.7,161.6,201.5z"/>
		<path d="M163.8,202.3L163.8,202.3l-0.1-0.1c-0.1,0-0.2,0-0.3,0l-0.1,0.1c-0.1,0.2-0.1,0.4,0.1,0.5l0,0c0.1,0,0.1,0.1,0.2,0.1
			s0.2,0,0.3-0.1C163.9,202.7,163.9,202.4,163.8,202.3z"/>
		<path d="M163,203.4L163,203.4c-0.2,0-0.3,0.1-0.4,0.3l0,0l0,0l0,0l0,0l0,0l0,0c0.1,0,0.2,0,0.3,0c0.1,0,0.2,0,0.3,0l0,0
			c0.1,0,0.1,0,0.2,0l0,0C163.4,203.5,163.2,203.4,163,203.4z"/>
	</g>
	<g>
		<path d="M168.6,198.7C168.7,198.7,168.7,198.7,168.6,198.7c0.1,0,0.2,0,0.2,0c0.2-0.1,0.2-0.3,0.1-0.5c-0.1-0.2-0.3-0.2-0.5-0.1
			c0,0-0.1,0-0.1,0.1c-0.1,0.1-0.1,0.3-0.1,0.4C168.4,198.6,168.5,198.7,168.6,198.7z"/>
		<path d="M167.4,197.6c0.1,0,0.1,0.1,0.2,0.1s0.1,0,0.2-0.1l0,0c0,0,0,0,0.1-0.1c0.1-0.2,0-0.4-0.1-0.5c-0.2-0.1-0.4-0.1-0.5,0.1
			c0,0,0,0,0,0.1C167.2,197.3,167.3,197.5,167.4,197.6L167.4,197.6z"/>
		<path d="M171.2,196.9c-0.1-0.2-0.3-0.3-0.5-0.2c-0.2,0.1-0.3,0.3-0.2,0.5l0,0c0.1,0.1,0.2,0.2,0.3,0.2h0.1
			C171.2,197.3,171.3,197.1,171.2,196.9L171.2,196.9z"/>
		<path d="M169.9,197.7c-0.2-0.1-0.4-0.1-0.5,0.1c-0.1,0.2-0.1,0.4,0.1,0.5l0,0c0.1,0,0.2,0.1,0.2,0.1c0.1,0,0.2,0,0.3-0.1l0,0
			C170.1,198,170.1,197.8,169.9,197.7L169.9,197.7z"/>
		<path d="M167.7,199.1c-0.2,0.1-0.3,0.3-0.2,0.5c0,0,0,0,0,0.1c0.1,0.1,0.2,0.2,0.3,0.2s0.1,0,0.2,0c0.2-0.1,0.2-0.2,0.2-0.4v-0.1
			C168.1,199.1,167.9,199,167.7,199.1z"/>
		<path d="M168.9,199.1v0.1c0,0.1,0.1,0.1,0.1,0.2c0,0,0,0,0.1,0.1l0,0h0.1l0,0h0.1c0.1,0,0.2-0.1,0.2-0.2c0,0,0-0.1,0.1-0.1
			c0-0.2-0.1-0.4-0.3-0.4h-0.1c-0.1,0-0.2,0.1-0.2,0.2C169,199,168.9,199.1,168.9,199.1z"/>
		<path d="M170.5,199.9c0.1,0,0.1,0.1,0.2,0.1s0.1,0,0.2-0.1l0.1-0.1l0,0c0.1-0.2,0.1-0.4-0.1-0.5c-0.2-0.1-0.4-0.1-0.5,0.1
			c0,0,0,0.1-0.1,0.1c0,0.1,0,0.2,0.1,0.3C170.4,199.9,170.5,199.9,170.5,199.9z"/>
		<path d="M169,202.7c-0.1-0.2-0.3-0.2-0.5-0.1l-0.1,0.1c-0.1,0.1-0.1,0.3,0,0.4c0.1,0.1,0.2,0.2,0.3,0.2l0,0c0.1,0,0.1,0,0.2,0
			C169,203.1,169.1,202.9,169,202.7z"/>
		<path d="M167.8,202.2l0.1-0.1c0.1-0.2,0-0.4-0.1-0.5c-0.2-0.1-0.4-0.1-0.5,0.1c0,0,0,0.1-0.1,0.1c0,0.1,0,0.3,0.2,0.4
			c0.1,0,0.1,0,0.2,0C167.7,202.2,167.8,202.2,167.8,202.2z"/>
		<path d="M166.9,200c-0.2-0.1-0.4-0.1-0.5,0.1c-0.1,0.2-0.1,0.4,0.1,0.5l0,0c0.1,0,0.1,0.1,0.2,0.1s0.2,0,0.3-0.1
			C167.1,200.4,167.1,200.2,166.9,200C167,200,167,200,166.9,200z"/>
		<path d="M169.9,202.3L169.9,202.3c-0.2-0.1-0.3-0.1-0.4,0l-0.1,0.1c-0.1,0.2-0.1,0.4,0.1,0.5l0,0c0.1,0,0.1,0.1,0.2,0.1
			s0.2,0,0.3-0.1C170.1,202.7,170.1,202.4,169.9,202.3C170,202.3,170,202.3,169.9,202.3z"/>
		<path d="M170.7,201.3c-0.2,0.1-0.3,0.3-0.2,0.5c0,0,0,0,0.1,0.1c0.1,0.1,0.2,0.2,0.3,0.2h0.1c0.2-0.1,0.2-0.2,0.2-0.4v-0.1
			C171.1,201.3,170.9,201.2,170.7,201.3z"/>
		<g>
			<path d="M173.5,197.6c0.1,0,0.1,0.1,0.2,0.1c0.1,0,0.2,0,0.2-0.1l0,0c0,0,0,0,0.1-0.1v-0.1l0,0c-0.2-0.1-0.5-0.2-0.7-0.3l0,0l0,0
				C173.3,197.3,173.4,197.5,173.5,197.6L173.5,197.6z"/>
			<path d="M174.8,198.7L174.8,198.7c0.1,0,0.2,0,0.2,0c0.2-0.1,0.2-0.3,0.1-0.5c-0.1-0.2-0.3-0.2-0.5-0.1c0,0-0.1,0-0.1,0.1
				c-0.1,0.1-0.1,0.3-0.1,0.4C174.5,198.6,174.6,198.7,174.8,198.7z"/>
			<path d="M172,196.9L172,196.9c0.1,0.2,0.1,0.2,0.2,0.3h0.1l0,0h0.1c0.1,0,0.2-0.2,0.3-0.3l0,0l0,0l0,0c-0.1,0-0.2-0.1-0.3-0.1
				h-0.1c-0.1,0-0.2-0.1-0.2-0.1l0,0l0,0l0,0C172,196.7,172,196.7,172,196.9C171.9,196.8,172,196.8,172,196.9
				C172,196.8,172,196.9,172,196.9z"/>
			<path d="M175.6,198.3L175.6,198.3c0.1,0,0.2,0.1,0.2,0.1c0.1,0,0.2,0,0.3-0.1l0,0l0,0l0,0c-0.1-0.1-0.2-0.1-0.3-0.1
				c-0.1,0-0.2-0.1-0.3-0.1l0,0C175.5,198.1,175.5,198.2,175.6,198.3z"/>
			<path d="M173,200c-0.2-0.1-0.4-0.1-0.5,0.1c-0.1,0.2-0.1,0.4,0.1,0.5l0,0c0.1,0,0.1,0.1,0.2,0.1s0.2,0,0.3-0.1
				C173.2,200.4,173.2,200.2,173,200C173.1,200,173.1,200,173,200z"/>
			<path d="M173.8,199.1c-0.2,0.1-0.3,0.3-0.2,0.5c0,0,0,0,0,0.1c0.1,0.1,0.2,0.2,0.3,0.2c0,0,0.1,0,0.2,0l0,0
				c0.2-0.1,0.2-0.2,0.2-0.4v-0.1C174.2,199.1,174,199,173.8,199.1z"/>
			<path d="M175,199.1v0.1c0,0.1,0.1,0.1,0.1,0.2h0.1l0,0c0,0,0,0,0.1,0l0,0h0.1c0.1,0,0.2-0.1,0.2-0.2v-0.1c0-0.2-0.1-0.4-0.4-0.4
				h-0.1c-0.1,0-0.2,0.1-0.3,0.2C175.1,199,175,199.1,175,199.1z"/>
			<path d="M176.1,202.3C176,202.3,176,202.3,176.1,202.3c-0.2-0.1-0.3-0.1-0.4,0l-0.1,0.1c-0.1,0.2-0.1,0.4,0.1,0.5l0,0
				c0.1,0,0.1,0.1,0.2,0.1s0.2,0,0.3-0.1l0,0C176.2,202.7,176.2,202.4,176.1,202.3L176.1,202.3z"/>
			<path d="M175.1,202.7c-0.1-0.2-0.3-0.2-0.5-0.1l-0.1,0.1c-0.1,0.1-0.1,0.3,0,0.4l0,0c0.1,0.1,0.2,0.2,0.3,0.2l0,0
				c0.1,0,0.1,0,0.1,0C175.1,203.1,175.2,202.9,175.1,202.7z"/>
			<path d="M173.7,202.2c0.1,0,0.1,0,0.2-0.1l0.1-0.1c0.1-0.2,0-0.4-0.1-0.5c-0.2-0.1-0.4-0.1-0.5,0.1v0.1c0,0.1,0,0.3,0.2,0.4
				C173.6,202.2,173.6,202.2,173.7,202.2z"/>
			<path d="M172.7,201.6v-0.1c0-0.2-0.1-0.4-0.3-0.4l0,0c-0.2,0-0.4,0.2-0.4,0.4l0,0v0.1c0,0.1,0.1,0.2,0.2,0.3h0.1l0,0
				c0.1,0,0.2,0,0.3-0.1C172.6,201.6,172.6,201.6,172.7,201.6z"/>
			<path d="M173,204.6c-0.2-0.1-0.4-0.1-0.5,0.1s-0.1,0.4,0.1,0.5h0.1h0.1c0.1,0,0.2-0.1,0.3-0.1C173.1,205.1,173.1,204.8,173,204.6
				C173,204.7,173,204.6,173,204.6z"/>
			<path d="M175.4,203.4L175.4,203.4c-0.2,0-0.3,0.1-0.4,0.3v0.1v0.1l0,0c0,0,0,0,0,0.1s0.1,0.1,0.2,0.2h0.1l0,0
				c0.1,0,0.2,0,0.2-0.1c0.1,0,0.1-0.1,0.1-0.2v-0.1C175.7,203.6,175.6,203.4,175.4,203.4z"/>
			<path d="M173.7,203.7c-0.2,0.1-0.3,0.3-0.2,0.5c0,0,0,0.1,0.1,0.1c0.1,0.1,0.2,0.1,0.3,0.1c0,0,0.1,0,0.2,0
				c0.2-0.1,0.2-0.2,0.2-0.4v-0.1C174.1,203.7,173.9,203.6,173.7,203.7z"/>
			<path d="M171.4,200.8c0.1,0.1,0.2,0.2,0.3,0.2l0,0c0.1,0,0.1,0,0.2,0c0.2-0.1,0.2-0.3,0.1-0.5l0,0c-0.1-0.2-0.3-0.2-0.5-0.1
				l-0.1,0.1C171.4,200.6,171.3,200.7,171.4,200.8L171.4,200.8z"/>
			<path d="M172.1,205.2c-0.1-0.2-0.3-0.2-0.5-0.1l-0.1,0.1c0,0,0,0.1-0.1,0.1l0,0h0.1h0.1c0.2,0.1,0.3,0.1,0.5,0.1
				C172.1,205.4,172.1,205.3,172.1,205.2L172.1,205.2z"/>
		</g>
		<path d="M167.7,203.7c-0.2,0.1-0.3,0.3-0.2,0.5c0,0,0,0,0,0.1l0,0l0,0c0.1,0,0.3,0.1,0.4,0.1l0,0c0.2-0.1,0.2-0.2,0.2-0.4v-0.1
			C168.1,203.7,167.9,203.6,167.7,203.7z"/>
		<path d="M169.3,203.4L169.3,203.4c-0.2,0-0.3,0.1-0.4,0.2c0,0,0,0.1-0.1,0.2v0.1c0,0.1,0.1,0.1,0.1,0.2c0.1,0,0.1,0.1,0.2,0.1l0,0
			h0.1c0.1,0,0.2-0.1,0.2-0.2v-0.1C169.7,203.6,169.5,203.4,169.3,203.4z"/>
		<path d="M170.9,203.9c-0.2-0.1-0.4-0.1-0.5,0.1c0,0,0,0.1-0.1,0.1c0,0.1,0,0.3,0.1,0.4l0,0c0.1,0,0.1,0,0.2,0s0.1,0,0.2-0.1l0,0
			l0.1-0.1C171.1,204.2,171.1,204,170.9,203.9z"/>
	</g>
	<g>
		<path d="M177.8,201C177.9,201,177.9,201,177.8,201c0.1,0,0.1,0,0.2,0c0.2-0.1,0.2-0.3,0.1-0.5l0,0c-0.1-0.2-0.3-0.2-0.5-0.1
			l-0.1,0.1c-0.1,0.1-0.1,0.3,0,0.4C177.6,201,177.7,201,177.8,201z"/>
		<path d="M176.8,201.3c-0.2,0.1-0.3,0.3-0.2,0.5c0,0,0,0,0,0.1c0.1,0.1,0.2,0.2,0.3,0.2c0,0,0.1,0,0.2,0l0,0
			c0.2-0.1,0.2-0.2,0.2-0.4v-0.1C177.2,201.3,177,201.2,176.8,201.3z"/>
		<path d="M178.1,205.2c-0.1-0.2-0.3-0.2-0.5-0.1c0,0,0,0-0.1,0.1c-0.1,0.1-0.2,0.3-0.1,0.5c0.1,0.1,0.2,0.2,0.3,0.2h0.1h0.1
			C178.1,205.6,178.2,205.3,178.1,205.2z"/>
		<path d="M176.6,199.9L176.6,199.9c0.1,0,0.1,0.1,0.2,0.1s0.1,0,0.2-0.1l0,0l0.1-0.1c0.1-0.2,0-0.4-0.1-0.5c-0.2-0.1-0.4,0-0.5,0.1
			v0.1C176.4,199.7,176.5,199.8,176.6,199.9L176.6,199.9z"/>
		<path d="M176.9,204.5C177,204.5,177,204.5,176.9,204.5c0.1-0.1,0.1-0.1,0.1-0.1c0.1-0.2,0.1-0.4-0.1-0.5c-0.2-0.1-0.4-0.1-0.5,0.1
			v0.1c0,0.1,0,0.3,0.1,0.4l0,0c0.1,0,0.1,0,0.2,0C176.8,204.6,176.9,204.5,176.9,204.5z"/>
		<path d="M176.8,206.1c-0.2,0.1-0.3,0.3-0.2,0.5c0,0,0,0,0,0.1c0.1,0.1,0.2,0.2,0.3,0.2c0,0,0.1,0,0.2,0c0.2-0.1,0.2-0.2,0.2-0.4
			v-0.1C177.2,206.1,177,206,176.8,206.1z"/>
	</g>
	<path d="M119.8,188.8c-0.1-0.2-0.3-0.2-0.5-0.1c0,0-0.1,0-0.1,0.1c-0.1,0.1-0.1,0.3-0.1,0.4c0.1,0.1,0.2,0.2,0.3,0.2h0.1h0.1
		C119.8,189.2,119.9,189,119.8,188.8z"/>
	<path d="M114.5,188.4L114.5,188.4c-0.2-0.1-0.4-0.1-0.5,0.1c-0.1,0.2-0.1,0.4,0.1,0.5l0,0c0.1,0.1,0.1,0.1,0.2,0.1s0.2,0,0.3-0.1
		C114.7,188.8,114.7,188.5,114.5,188.4z"/>
	<path d="M115.8,187.6L115.8,187.6c-0.1-0.2-0.3-0.3-0.5-0.2c-0.2,0.1-0.3,0.3-0.2,0.5l0,0c0.1,0.1,0.2,0.2,0.3,0.2c0,0,0.1,0,0.2,0
		C115.8,188.1,115.9,187.8,115.8,187.6z"/>
	<path d="M118.5,187.7c-0.2-0.1-0.4-0.1-0.5,0.1c0,0,0,0,0,0.1c-0.1,0.2,0,0.3,0.1,0.4l0,0c0.1,0,0.1,0,0.2,0s0.2,0,0.2-0.1l0,0
		c0,0,0,0,0.1-0.1C118.7,188,118.7,187.8,118.5,187.7z"/>
	<path d="M116.9,187.2L116.9,187.2c-0.2,0-0.3,0.1-0.4,0.3v0.1l0,0c0,0,0,0,0,0.1v0.1c0,0.1,0.1,0.1,0.2,0.2h0.1l0,0
		c0.1,0,0.2,0,0.2-0.1c0.1-0.1,0.1-0.1,0.2-0.2l0,0C117.3,187.3,117.1,187.2,116.9,187.2z"/>
	<path d="M120.8,188.4L120.8,188.4c-0.2-0.2-0.4-0.1-0.6,0c-0.1,0.2-0.1,0.4,0.1,0.5c0,0,0,0,0.1,0s0.1,0.1,0.2,0.1
		c0.1,0,0.2,0,0.3-0.1C120.9,188.8,120.9,188.6,120.8,188.4z"/>
	<path d="M123.4,187.3c-0.1,0-0.1,0-0.2,0h-0.1c0,0,0,0-0.1,0h-0.1c-0.1,0-0.1,0.1-0.1,0.1s0,0.1,0,0.2l0,0l0,0v0.1
		c0,0.1,0.1,0.1,0.2,0.2h0.1l0,0h0.1c0.1,0,0.2-0.2,0.3-0.3l0,0C123.5,187.4,123.5,187.3,123.4,187.3z"/>
	<path d="M122,187.6c-0.1-0.2-0.3-0.3-0.5-0.2s-0.3,0.3-0.2,0.5l0,0c0.1,0.1,0.2,0.2,0.3,0.2c0.1,0,0.1,0,0.2,0
		C122,188.1,122.1,187.9,122,187.6C122,187.7,122,187.6,122,187.6z"/>
	<path d="M117.7,190.7L117.7,190.7c-0.2-0.2-0.4-0.1-0.6,0c-0.1,0.2-0.1,0.4,0.1,0.5l0,0c0.1,0,0.1,0.1,0.2,0.1s0.2,0,0.3-0.1
		C117.8,191,117.8,190.8,117.7,190.7z"/>
	<path d="M122.9,191.1c-0.1-0.2-0.3-0.2-0.5-0.1l-0.1,0.1c-0.1,0.1-0.1,0.3,0,0.4c0.1,0.1,0.2,0.2,0.3,0.2l0,0c0.1,0,0.1,0,0.2,0
		C122.9,191.5,123,191.3,122.9,191.1z"/>
	<path d="M119,190C119,190,119,189.9,119,190c-0.1-0.3-0.3-0.4-0.5-0.3c-0.2,0.1-0.3,0.3-0.2,0.5c0,0,0,0,0,0.1
		c0.1,0.1,0.2,0.2,0.3,0.2c0,0,0.1,0,0.2,0l0,0C119,190.3,119.1,190.1,119,190z"/>
	<path d="M121.7,189.9c-0.2-0.1-0.4,0-0.5,0.1c0,0,0,0.1-0.1,0.1c0,0.1,0,0.3,0.2,0.4l0,0c0.1,0,0.1,0.1,0.2,0.1s0.1,0,0.2-0.1l0,0
		l0.1-0.1C121.9,190.3,121.9,190,121.7,189.9z"/>
	<path d="M120.1,189.4L120.1,189.4c-0.2,0-0.3,0.1-0.4,0.3c0,0,0,0,0,0.1v0.1c0,0.1,0.1,0.2,0.2,0.3h0.1l0,0c0.1,0,0.1,0,0.2,0
		s0.1-0.1,0.2-0.2v-0.1C120.5,189.6,120.3,189.4,120.1,189.4z"/>
	<path d="M123.9,190.7L123.9,190.7c-0.2-0.2-0.4-0.1-0.6,0c-0.1,0.2-0.1,0.4,0.1,0.5l0,0c0.1,0,0.1,0.1,0.2,0.1c0.1,0,0.2,0,0.3-0.1
		C124,191,124,190.8,123.9,190.7z"/>
	<g>
		<path d="M125.9,188.8c-0.1-0.2-0.3-0.2-0.5-0.1l0,0c-0.1,0.1-0.2,0.3-0.1,0.5c0.1,0.1,0.2,0.2,0.3,0.2h0.1l0,0
			C125.9,189.2,126,189,125.9,188.8z"/>
		<path d="M124.7,188.3C124.8,188.3,124.8,188.2,124.7,188.3c0.1-0.1,0.1-0.1,0.1-0.1c0.1-0.2,0-0.4-0.1-0.5
			c-0.2-0.1-0.4-0.1-0.5,0.1l0,0c-0.1,0.2,0,0.4,0.1,0.5l0,0c0.1,0,0.1,0,0.2,0C124.6,188.4,124.7,188.3,124.7,188.3z"/>
		<path d="M126.9,188.4C126.9,188.4,126.9,188.3,126.9,188.4c-0.1-0.1-0.1-0.1-0.1-0.1c-0.1-0.1-0.2-0.1-0.3,0l-0.1,0.1
			c-0.1,0.2-0.1,0.4,0.1,0.5h0.1h0.1c0.1,0,0.2,0,0.3-0.1C127,188.7,127,188.5,126.9,188.4z"/>
		<path d="M124.6,189.7c-0.2,0.1-0.3,0.3-0.2,0.5c0,0,0,0,0,0.1c0.1,0.1,0.2,0.2,0.3,0.2h0.1c0.2-0.1,0.2-0.2,0.2-0.4V190
			C125,189.7,124.8,189.6,124.6,189.7z"/>
		<path d="M126.2,189.4L126.2,189.4c-0.2,0-0.3,0.1-0.4,0.2c0,0,0,0.1,0,0.2v0.1l0,0c0,0,0,0,0,0.1s0.1,0.1,0.2,0.2h0.1l0,0h0.1
			c0.1,0,0.2-0.1,0.2-0.2l0.1-0.1C126.6,189.6,126.4,189.4,126.2,189.4z"/>
	</g>
	<g>
		<path d="M135.1,191.2C135.1,191.1,135.1,191.1,135.1,191.2c-0.1-0.2-0.3-0.3-0.4-0.3h-0.1c0,0,0,0-0.1,0.1
			c-0.1,0.1-0.2,0.3-0.1,0.5c0.1,0.1,0.2,0.2,0.3,0.2h0.1h0.1C135.1,191.5,135.1,191.3,135.1,191.2z"/>
		<path d="M132.4,189.7L132.4,189.7c-0.1,0-0.1-0.1-0.1-0.1l0,0l0,0c-0.1,0-0.2,0-0.3,0.1l0,0c0,0,0,0,0,0.1l0,0c0,0,0,0,0,0.1
			c0,0.1,0.1,0.1,0.2,0.2h0.1l0,0c0.1,0,0.2,0,0.3-0.1l0.1-0.1c0,0,0,0,0-0.1C132.6,189.8,132.5,189.8,132.4,189.7L132.4,189.7z"/>
		<path d="M130.7,189.7c-0.2,0.1-0.3,0.3-0.2,0.5c0,0,0,0.1,0.1,0.1c0.1,0.1,0.2,0.1,0.3,0.1c0,0,0.1,0,0.2,0
			c0.2-0.1,0.2-0.2,0.2-0.4v-0.1C131.1,189.7,130.9,189.6,130.7,189.7z"/>
		<path d="M133.4,190.2c0,0.1,0,0.3,0.1,0.3l0,0c0.1,0,0.1,0.1,0.2,0.1s0.2,0,0.2-0.1l0,0C133.8,190.4,133.6,190.3,133.4,190.2
			L133.4,190.2z"/>
	</g>
	<path d="M113.6,188.8c-0.1-0.2-0.3-0.2-0.5-0.1c0,0-0.1,0-0.1,0.1c-0.1,0.1-0.1,0.3-0.1,0.4c0.1,0.1,0.2,0.2,0.3,0.2c0,0,0,0,0.1,0
		h0.1C113.6,189.2,113.7,189,113.6,188.8z"/>
	<g>
		<path d="M112,187.9C111.9,187.9,111.9,187.9,112,187.9c-0.1,0-0.1,0-0.1,0c0,0.1,0,0.3,0.1,0.3l0,0c0.1,0,0.1,0,0.2,0
			c0.1,0,0.1,0,0.2-0.1l0,0c0,0,0.1,0,0.1-0.1c0.1-0.1,0.1-0.3,0-0.4C112.3,187.8,112.1,187.8,112,187.9z"/>
	</g>
	<path d="M111.5,190.7L111.5,190.7c-0.2-0.2-0.5-0.2-0.6,0c-0.1,0.2-0.1,0.4,0.1,0.5c0,0,0.1,0,0.1,0.1h0.1c0.1,0,0.2,0,0.3-0.1
		C111.6,191,111.6,190.9,111.5,190.7z"/>
	<path d="M116.6,191.1c-0.1-0.2-0.3-0.2-0.5-0.1c0,0,0,0-0.1,0.1c-0.1,0.1-0.2,0.3-0.1,0.4c0.1,0.1,0.2,0.2,0.3,0.2h0.1h0.1
		C116.6,191.5,116.7,191.3,116.6,191.1z"/>
	<path d="M115.4,189.9c-0.2-0.1-0.4,0-0.5,0.1v0.1c0,0.1,0,0.3,0.1,0.4l0,0l0,0c0.1,0,0.1,0,0.2,0s0.1,0,0.2-0.1l0,0
		c0,0,0.1,0,0.1-0.1C115.6,190.3,115.6,190,115.4,189.9z"/>
	<path d="M112.7,189.9c-0.1-0.2-0.3-0.3-0.5-0.2c-0.2,0.1-0.3,0.3-0.2,0.5c0,0,0,0.1,0.1,0.1c0.1,0.1,0.2,0.1,0.3,0.1
		c0,0,0.1,0,0.2,0c0.2-0.1,0.2-0.2,0.2-0.4C112.7,190,112.7,189.9,112.7,189.9z"/>
	<path d="M113.8,189.4L113.8,189.4c-0.2,0-0.4,0.1-0.4,0.3l0,0l0,0l0,0c0,0,0,0,0,0.1c0,0,0,0,0,0.1c0,0.1,0.1,0.1,0.2,0.2h0.1l0,0
		c0.1,0,0.2,0,0.3-0.1c0,0,0-0.1,0.1-0.1v-0.1C114.2,189.6,114.1,189.4,113.8,189.4z"/>
	<path d="M110.5,191.1c-0.1-0.2-0.3-0.2-0.5-0.1l-0.1,0.1c-0.1,0.1-0.1,0.3,0,0.4c0.1,0.1,0.2,0.2,0.3,0.2l0,0c0.1,0,0.1,0,0.2,0
		C110.6,191.5,110.7,191.3,110.5,191.1z"/>
	<g>
		<path d="M104,191.4L104,191.4c-0.1,0-0.1,0.1-0.2,0.1l0,0c0.1,0.1,0.2,0.1,0.3,0.1l0,0c0.1,0,0.1,0,0.1,0c0.2-0.1,0.2-0.3,0.2-0.5
			C104.3,191.2,104.2,191.3,104,191.4z"/>
		<path d="M105.5,190.7C105.4,190.7,105.4,190.7,105.5,190.7c-0.1-0.1-0.1-0.1-0.1-0.1c-0.2,0.1-0.4,0.2-0.5,0.3
			c-0.1,0.1-0.2,0.1-0.4,0.2c0.1-0.1,0.2-0.1,0.4-0.2c0,0.1,0,0.2,0.1,0.3l0,0c0.1,0,0.1,0.1,0.2,0.1s0.2,0,0.3-0.1
			C105.6,191,105.6,190.8,105.5,190.7z"/>
	</g>
	<path d="M106.7,189.9L106.7,189.9L106.7,189.9c-0.2,0.1-0.4,0.2-0.7,0.3l0,0l0,0c0.1,0.1,0.2,0.2,0.3,0.2c0,0,0.1,0,0.2,0
		C106.7,190.3,106.7,190.1,106.7,189.9C106.7,190,106.7,189.9,106.7,189.9z"/>
	<path d="M109.4,189.9c-0.2-0.1-0.4,0-0.5,0.1c0,0,0,0.1-0.1,0.1c0,0.1,0,0.3,0.2,0.4l0,0c0.1,0,0.1,0.1,0.2,0.1s0.1,0,0.2-0.1l0,0
		l0.1-0.1C109.6,190.3,109.6,190,109.4,189.9z"/>
	<g>
		<path d="M107.7,189.4c-0.1,0-0.2,0.1-0.2,0.1C107.6,189.5,107.7,189.4,107.7,189.4L107.7,189.4z"/>
		<path d="M107.8,189.4L107.8,189.4c-0.2,0-0.3,0.1-0.4,0.3c0,0,0,0,0,0.1v0.1c0,0.1,0.1,0.2,0.1,0.2c0.1,0,0.1,0.1,0.2,0.1l0,0
			c0.1,0,0.1,0,0.2,0c0.1,0,0.1-0.1,0.2-0.2v-0.1C108.2,189.6,108,189.4,107.8,189.4z"/>
	</g>
	<path d="M108.5,193L108.5,193c-0.2-0.2-0.4-0.1-0.6,0c-0.1,0.2-0.1,0.4,0.1,0.5l0,0c0.1,0,0.1,0.1,0.2,0.1s0.2-0.1,0.3-0.2
		C108.6,193.4,108.6,193.2,108.5,193z"/>
	<path d="M113.6,193.4c-0.1-0.2-0.3-0.2-0.5-0.1l-0.1,0.1c-0.1,0.1-0.1,0.3,0,0.4c0.1,0.1,0.2,0.2,0.3,0.2l0,0c0.1,0,0.1,0,0.2,0
		C113.6,193.8,113.7,193.6,113.6,193.4z"/>
	<path d="M112.4,192.3L112.4,192.3c-0.2-0.1-0.4-0.1-0.5,0.1c0,0,0,0.1-0.1,0.1c0,0.1,0,0.3,0.1,0.4l0,0c0.1,0,0.1,0,0.2,0
		c0.1,0,0.1,0,0.2-0.1l0,0l0.1-0.1C112.6,192.6,112.6,192.4,112.4,192.3z"/>
	<path d="M109.7,192.2c-0.1-0.2-0.3-0.3-0.5-0.2c-0.2,0.1-0.3,0.3-0.2,0.5c0,0,0,0,0,0.1c0.1,0.1,0.2,0.2,0.3,0.2s0.1,0,0.2,0
		C109.7,192.7,109.8,192.5,109.7,192.2C109.7,192.3,109.7,192.3,109.7,192.2z"/>
	<path d="M110.8,191.8L110.8,191.8c-0.2,0-0.3,0.1-0.4,0.2c0,0,0,0.1,0,0.2c0,0,0,0,0,0.1l0,0c0,0,0,0,0,0.1c0,0.1,0.1,0.1,0.2,0.2
		h0.1l0,0h0.1c0.1,0,0.2-0.1,0.2-0.2c0,0,0-0.1,0.1-0.1C111.2,191.9,111,191.8,110.8,191.8z"/>
	<path d="M114.6,193L114.6,193c-0.2-0.2-0.4-0.1-0.6,0c-0.1,0.2-0.1,0.4,0.1,0.5l0,0c0.1,0,0.1,0.1,0.2,0.1s0.2-0.1,0.3-0.2
		C114.7,193.4,114.7,193.2,114.6,193z"/>
	<path d="M119.8,193.4c-0.1-0.2-0.3-0.2-0.5-0.1l-0.1,0.1c-0.1,0.1-0.1,0.3,0,0.4c0.1,0.1,0.2,0.2,0.3,0.2l0,0c0.1,0,0.1,0,0.1,0
		C119.8,193.8,119.9,193.6,119.8,193.4z"/>
	<path d="M118.5,192.3L118.5,192.3c-0.2-0.1-0.4-0.1-0.5,0.1v0.1c0,0.1,0,0.3,0.2,0.4l0,0l0,0c0.1,0,0.1,0,0.2,0s0.1,0,0.2-0.1l0,0
		l0.1-0.1C118.7,192.6,118.7,192.4,118.5,192.3z"/>
	<path d="M115.8,192.2c-0.1-0.2-0.3-0.3-0.5-0.2c-0.2,0.1-0.3,0.3-0.2,0.5c0,0,0,0,0,0.1c0.1,0.1,0.2,0.2,0.3,0.2c0,0,0.1,0,0.2,0
		C115.8,192.7,115.9,192.5,115.8,192.2C115.8,192.3,115.8,192.3,115.8,192.2z"/>
	<path d="M116.9,191.8L116.9,191.8c-0.2,0-0.3,0.1-0.4,0.3v0.1v0.1l0,0c0,0,0,0,0,0.1c0,0.1,0.1,0.1,0.2,0.2h0.1l0,0
		c0.1,0,0.2,0,0.2-0.1c0.1,0,0.1-0.1,0.1-0.2v-0.1C117.3,191.9,117.1,191.8,116.9,191.8z"/>
	<path d="M115.4,194.6L115.4,194.6L115.4,194.6c-0.2-0.1-0.4-0.1-0.5,0l0,0C115.1,194.6,115.3,194.6,115.4,194.6z"/>
	<path d="M113.4,194.5C113.5,194.5,113.5,194.5,113.4,194.5C113.5,194.6,113.5,194.6,113.4,194.5
		C113.5,194.5,113.5,194.5,113.4,194.5z"/>
	<path d="M112.7,194.6c-0.1-0.2-0.3-0.3-0.5-0.2c-0.2,0.1-0.3,0.3-0.2,0.5c0,0,0,0.1,0.1,0.1l0.1,0.1l0,0c0.2,0,0.3-0.1,0.5-0.1l0,0
		c0.1-0.1,0.1-0.2,0.1-0.3C112.7,194.7,112.7,194.6,112.7,194.6z"/>
	<path d="M113.5,194.6L113.5,194.6L113.5,194.6L113.5,194.6z"/>
	<path d="M113.8,194.1L113.8,194.1c-0.2,0-0.3,0.1-0.4,0.3v0.1c0,0,0,0,0,0.1c0,0,0,0,0,0.1c0,0,0,0,0,0.1c0,0.1,0.1,0.1,0.2,0.2
		l0,0l0,0c0.1,0,0.2,0,0.3,0l0,0h0.1c0,0,0.1-0.1,0.1-0.2v-0.1C114.2,194.3,114.1,194.1,113.8,194.1z"/>
	<path d="M120.8,193L120.8,193c-0.2-0.2-0.4-0.1-0.6,0c-0.1,0.2-0.1,0.4,0.1,0.5l0,0c0.1,0,0.1,0.1,0.2,0.1c0.1,0,0.2-0.1,0.3-0.2
		C120.9,193.4,120.9,193.2,120.8,193z"/>
	<path d="M125.9,193.4c-0.1-0.2-0.3-0.2-0.5-0.1l-0.1,0.1c-0.1,0.1-0.1,0.3,0,0.4c0.1,0.1,0.2,0.2,0.3,0.2l0,0c0.1,0,0.1,0,0.2,0
		C125.9,193.8,126,193.6,125.9,193.4z"/>
	<path d="M122,192.2c-0.1-0.2-0.3-0.3-0.5-0.2c-0.2,0.1-0.3,0.3-0.2,0.5c0,0,0,0,0,0.1c0.1,0.1,0.2,0.2,0.3,0.2c0.1,0,0.1,0,0.2,0
		C122,192.7,122.1,192.5,122,192.2C122,192.3,122,192.3,122,192.2z"/>
	<path d="M124.7,192.3L124.7,192.3c-0.2-0.1-0.4-0.1-0.5,0.1c0,0,0,0.1-0.1,0.1c0,0.1,0,0.3,0.1,0.4l0,0c0.1,0,0.1,0,0.2,0
		c0.1,0,0.1,0,0.2-0.1l0,0l0.1-0.1C124.9,192.6,124.9,192.4,124.7,192.3z"/>
	<g>
		<path d="M122.7,192.1L122.7,192.1L122.7,192.1C122.8,192,122.7,192.1,122.7,192.1z"/>
		<path d="M123.1,191.8L123.1,191.8c-0.2,0-0.3,0.1-0.4,0.3c0.1-0.1,0.2-0.1,0.3-0.1l0,0c0,0.1-0.1,0.2-0.1,0.3c-0.1,0-0.1,0-0.2,0
			h-0.1l0,0l0,0c0,0,0,0,0,0.1c0,0.1,0.1,0.1,0.2,0.2h0.1l0,0c0.1,0,0.2,0,0.2-0.1l0.1-0.1c0,0,0-0.1,0.1-0.1
			C123.5,191.9,123.4,191.8,123.1,191.8z"/>
	</g>
	<path d="M126.9,193.1C126.9,193,126.9,193,126.9,193.1c-0.2-0.2-0.5-0.2-0.6,0c-0.1,0.2-0.1,0.4,0.1,0.5h0.1h0.1
		c0.1,0,0.2-0.1,0.3-0.2C127,193.4,127,193.2,126.9,193.1z"/>
	<g>
		<path d="M129,191.1c-0.1-0.2-0.3-0.2-0.5-0.1l-0.1,0.1c-0.1,0.1-0.1,0.3,0,0.4c0.1,0.1,0.2,0.2,0.3,0.2l0,0c0.1,0,0.1,0,0.1,0
			C129,191.5,129.1,191.3,129,191.1z"/>
		<path d="M127.6,190.6c0.1,0,0.1,0,0.2-0.1l0,0l0.1-0.1c0.1-0.2,0.1-0.4-0.1-0.5c-0.2-0.1-0.4,0-0.5,0.1v0.1c0,0.1,0,0.3,0.2,0.4
			l0,0C127.5,190.6,127.5,190.6,127.6,190.6z"/>
		<path d="M130,190.7L130,190.7c-0.2-0.2-0.5-0.2-0.6,0s-0.1,0.4,0.1,0.5h0.1h0.1c0.1,0,0.2,0,0.3-0.1
			C130.1,191,130.1,190.9,130,190.7z"/>
		<path d="M127.6,192c-0.2,0.1-0.3,0.3-0.2,0.5l0.1,0.1c0.1,0.1,0.2,0.1,0.3,0.1c0,0,0.1,0,0.2,0c0.2-0.1,0.2-0.2,0.2-0.4v-0.1
			C128,192,127.8,192,127.6,192z"/>
		<path d="M129.3,191.8L129.3,191.8c-0.2,0-0.4,0.1-0.4,0.2v0.1v0.1l0,0c0,0,0,0,0,0.1c0,0.1,0.1,0.2,0.3,0.2l0,0l0,0
			c0.1,0,0.2,0,0.2-0.1c0.1,0,0.1-0.1,0.1-0.2c0,0,0-0.1,0.1-0.1C129.6,192,129.5,191.8,129.3,191.8z"/>
	</g>
	<path d="M125,194.6c-0.1-0.2-0.3-0.3-0.5-0.2c-0.2,0.1-0.3,0.3-0.2,0.5c0,0,0,0.1,0.1,0.1c0.1,0.1,0.2,0.1,0.3,0.1c0,0,0.1,0,0.2,0
		c0.2-0.1,0.2-0.2,0.2-0.4C125.1,194.7,125,194.6,125,194.6z"/>
	<path d="M126.2,194.1L126.2,194.1c-0.2,0-0.4,0.1-0.5,0.2v0.1c0,0,0,0,0,0.1c0,0,0,0,0,0.1c0,0,0,0,0,0.1c0.1,0.1,0.1,0.2,0.3,0.2
		l0,0l0,0c0.1,0,0.2,0,0.2-0.1c0.1,0,0.1-0.1,0.1-0.2v-0.1C126.5,194.3,126.4,194.2,126.2,194.1z"/>
	<path d="M119,194.6L119,194.6c-0.1-0.2-0.3-0.3-0.5-0.2c-0.1,0-0.1,0.1-0.2,0.2c0.1,0,0.3,0,0.4,0S118.9,194.6,119,194.6z"/>
	<path d="M121.9,194.9c0-0.1-0.1-0.2-0.2-0.3c-0.2-0.1-0.4-0.1-0.5,0.1l0,0c0.1,0,0.2,0,0.3,0C121.6,194.8,121.7,194.8,121.9,194.9z
		"/>
	<path d="M120.1,194.1L120.1,194.1c-0.2,0-0.3,0.1-0.4,0.2c0,0,0,0.1,0,0.2v0.1v0.1l0,0h0.1c0.1,0,0.3,0,0.4,0h0.1l0,0
		c0,0,0-0.1,0.1-0.1v-0.1C120.5,194.3,120.3,194.1,120.1,194.1z"/>
	<g>
		<path d="M135.4,191.8L135.4,191.8c-0.2,0-0.4,0.1-0.4,0.2l0,0v0.1v0.1c0,0.1,0.1,0.1,0.1,0.2c0,0,0.1,0.1,0.2,0.1l0,0l0,0
			c0.1,0,0.2,0,0.2-0.1c0.1,0,0.1-0.1,0.1-0.2v-0.1C135.7,192,135.6,191.8,135.4,191.8z"/>
		<path d="M133.7,192c-0.2,0.1-0.3,0.3-0.2,0.5c0,0,0,0.1,0.1,0.1c0.1,0.1,0.2,0.1,0.3,0.1c0,0,0.1,0,0.2,0c0.1-0.1,0.2-0.2,0.2-0.4
			v-0.1C134.1,192,133.9,192,133.7,192z"/>
	</g>
	<g>
		<path d="M132,193.4c-0.1-0.2-0.3-0.2-0.5-0.1c0,0,0,0-0.1,0.1c-0.1,0.1-0.2,0.3-0.1,0.4c0.1,0.1,0.2,0.2,0.3,0.2h0.1h0.1
			C132,193.8,132.1,193.6,132,193.4z"/>
		<path d="M130.8,192.9C130.8,192.9,130.9,192.9,130.8,192.9c0.1-0.1,0.1-0.1,0.1-0.1c0.1-0.2,0.1-0.4-0.1-0.5l0,0
			c-0.2-0.1-0.4-0.1-0.5,0.1v0.1c0,0.1,0,0.3,0.1,0.4l0,0c0.1,0,0.1,0,0.2,0C130.7,193,130.8,192.9,130.8,192.9z"/>
		<path d="M133,193.1C133,193,133,193,133,193.1c-0.2-0.2-0.5-0.2-0.6,0s-0.1,0.4,0.1,0.5h0.1h0.1c0.1,0,0.2-0.1,0.3-0.2
			C133.1,193.4,133.1,193.2,133,193.1z"/>
		<path d="M130.7,194.4c-0.2,0.1-0.3,0.3-0.2,0.5c0,0,0,0.1,0.1,0.1c0.1,0.1,0.2,0.1,0.3,0.1c0,0,0.1,0,0.2,0l0,0
			c0.1-0.1,0.2-0.2,0.2-0.4v-0.1C131.1,194.4,130.9,194.3,130.7,194.4z"/>
		<path d="M132.3,194.1L132.3,194.1c-0.2,0-0.3,0.1-0.4,0.2c0,0,0,0.1,0,0.2v0.1l0,0c0,0,0,0,0,0.1c0,0.1,0.1,0.1,0.2,0.2h0.1l0,0
			h0.1c0.1,0,0.2-0.1,0.2-0.2v-0.1C132.7,194.3,132.6,194.1,132.3,194.1z"/>
	</g>
	<g>
		<path d="M150.5,198.1c-0.1-0.2-0.3-0.2-0.5-0.1c0,0-0.1,0-0.1,0.1c-0.1,0.1-0.1,0.3-0.1,0.4c0.1,0.1,0.2,0.2,0.3,0.2
			c0,0,0,0,0.1,0h0.1C150.5,198.5,150.6,198.3,150.5,198.1z"/>
		<path d="M149.3,197.6C149.3,197.5,149.4,197.5,149.3,197.6c0.1-0.1,0.1-0.1,0.1-0.1c0.1-0.2,0-0.4-0.1-0.5l0,0l0,0l0,0l0,0
			c-0.1,0-0.3,0.1-0.4,0.1l0,0l0,0c0,0,0,0,0,0.1c-0.1,0.2,0,0.3,0.1,0.4l0,0c0.1,0,0.1,0.1,0.2,0.1
			C149.2,197.6,149.3,197.6,149.3,197.6z"/>
		<path d="M151.4,197.7L151.4,197.7c-0.2-0.1-0.4-0.1-0.5,0.1c-0.1,0.2-0.1,0.4,0.1,0.5l0,0c0.1,0,0.1,0.1,0.2,0.1s0.2,0,0.3-0.1
			l0,0C151.6,198,151.6,197.8,151.4,197.7z"/>
		<path d="M149.2,199.1L149.2,199.1c-0.2,0.1-0.3,0.3-0.2,0.5c0,0,0,0,0,0.1c0.1,0.1,0.2,0.2,0.3,0.2h0.1c0.2-0.1,0.2-0.2,0.2-0.4
			v-0.1C149.6,199.1,149.4,199,149.2,199.1z"/>
		<path d="M150.8,198.8h-0.1c-0.1,0-0.2,0.1-0.2,0.2c0,0,0,0.1-0.1,0.2v0.1c0,0.1,0.1,0.1,0.1,0.2c0,0,0.1,0,0.1,0.1l0,0h0.1l0,0
			h0.1c0.1,0,0.2-0.1,0.2-0.2v-0.1C151.2,199,151,198.8,150.8,198.8z"/>
		<path d="M147.8,197.3L147.8,197.3c-0.1-0.1-0.1-0.1-0.2-0.1l0,0h-0.1l0,0c0,0,0,0-0.1,0l0,0h-0.1c-0.1,0.1-0.1,0.2-0.1,0.3l0,0
			c0,0.1,0,0.2,0.1,0.3c0.1,0.1,0.2,0.1,0.3,0.1s0.2,0,0.3-0.1c0.1-0.1,0.1-0.2,0.1-0.3l0,0C147.9,197.5,147.9,197.4,147.8,197.3z"
			/>
	</g>
	<g>
		<path d="M138.1,193.4c-0.1-0.2-0.3-0.2-0.5-0.1c0,0-0.1,0-0.1,0.1c-0.1,0.1-0.1,0.3-0.1,0.4c0.1,0.1,0.2,0.2,0.3,0.2h0.1h0.1
			C138.1,193.8,138.2,193.6,138.1,193.4z"/>
		<path d="M136.9,192.9C137,192.9,137,192.9,136.9,192.9c0.1-0.1,0.1-0.1,0.1-0.1c0-0.1,0.1-0.1,0-0.2c0-0.1-0.1-0.2-0.2-0.3l0,0
			c-0.1-0.1-0.2-0.1-0.3,0c-0.1,0-0.2,0.1-0.2,0.2v0.1c0,0.1,0,0.3,0.1,0.4l0,0c0.1,0,0.1,0,0.2,0
			C136.8,193,136.9,192.9,136.9,192.9z"/>
		<path d="M136.8,194.4c-0.2,0.1-0.3,0.3-0.2,0.5c0,0,0,0.1,0.1,0.1c0.1,0.1,0.2,0.1,0.3,0.1c0,0,0.1,0,0.2,0
			c0.2-0.1,0.2-0.2,0.2-0.4v-0.1C137.2,194.4,137,194.3,136.8,194.4z"/>
		<path d="M138.4,194.1L138.4,194.1c-0.2,0-0.3,0.1-0.4,0.3v0.1c0,0,0,0,0,0.1c0,0,0,0,0,0.1c0,0,0,0,0,0.1c0,0.1,0.1,0.1,0.2,0.2
			h0.1l0,0c0.1,0,0.2,0,0.2-0.1c0,0,0.1-0.1,0.1-0.2c0,0,0-0.1,0.1-0.1C138.8,194.3,138.6,194.1,138.4,194.1z"/>
	</g>
	<path d="M133,197.7L133,197.7c-0.2-0.1-0.4-0.1-0.5,0.1v0.1h0.1c0.1,0,0.1,0.1,0.2,0.1c0.1,0.1,0.2,0.1,0.4,0.2l0,0
		C133.2,198,133.2,197.8,133,197.7z"/>
	<g>
		<path d="M135.1,195.8c-0.1-0.2-0.3-0.2-0.5-0.1c0,0,0,0.1-0.1,0.1c-0.1,0.1-0.2,0.3-0.1,0.4c0.1,0.1,0.2,0.2,0.3,0.2h0.1h0.1
			C135.1,196.2,135.2,196,135.1,195.8z"/>
		<path d="M133.9,195.2L133.9,195.2c0.1-0.1,0.1-0.1,0.1-0.1c0.1-0.2,0.1-0.4-0.1-0.5c-0.2-0.1-0.4-0.1-0.5,0.1v0.1
			c0,0.1,0,0.3,0.1,0.4l0,0c0.1,0,0.1,0.1,0.2,0.1S133.9,195.3,133.9,195.2z"/>
		<path d="M136.1,195.4L136.1,195.4c-0.2-0.2-0.5-0.2-0.6,0s-0.1,0.4,0.1,0.5h0.1h0.1c0.1,0,0.2,0,0.3-0.2
			C136.2,195.7,136.2,195.5,136.1,195.4z"/>
		<path d="M134.3,196.9c-0.1-0.2-0.3-0.3-0.5-0.2c-0.2,0.1-0.3,0.3-0.2,0.5l0,0c0.1,0.1,0.2,0.2,0.3,0.2h0.1
			C134.3,197.3,134.4,197.1,134.3,196.9L134.3,196.9z"/>
		<path d="M135.4,196.4L135.4,196.4c-0.2,0-0.3,0.1-0.4,0.2c0,0-0.1,0.1-0.1,0.2l0,0l0,0v0.1c0,0.1,0.1,0.1,0.2,0.2h0.1l0,0h0.1
			c0.1,0,0.2-0.2,0.3-0.3l0,0C135.8,196.6,135.6,196.5,135.4,196.4z"/>
	</g>
	<g>
		<path d="M141.2,195.8c-0.1-0.2-0.3-0.2-0.5-0.1c0,0,0,0-0.1,0.1c-0.1,0.1-0.2,0.3-0.1,0.5c0.1,0.1,0.2,0.2,0.3,0.2h0.1h0.1
			C141.2,196.2,141.3,196,141.2,195.8z"/>
		<path d="M140,195.2C140,195.2,140.1,195.2,140,195.2c0.1-0.1,0.1-0.1,0.1-0.1s0-0.1,0.1-0.2c-0.2-0.1-0.3-0.2-0.5-0.4l0,0l0,0
			c-0.1,0-0.1,0.1-0.2,0.1v0.1c0,0.1,0,0.3,0.1,0.4l0,0c0.1,0,0.1,0.1,0.2,0.1C139.9,195.3,140,195.3,140,195.2z"/>
		<path d="M141.5,196.4L141.5,196.4c-0.2,0-0.3,0.1-0.3,0.2c0,0,0,0.1-0.1,0.2l0,0c0,0,0,0,0,0.1v0.1c0,0.1,0.1,0.1,0.1,0.1
			c0.1,0,0.1,0.1,0.2,0.1l0,0h0.1c0.1,0,0.2-0.2,0.3-0.3l0,0C141.9,196.6,141.7,196.5,141.5,196.4z"/>
		<path d="M140.4,196.9c-0.1-0.2-0.3-0.3-0.5-0.2l0,0c-0.2,0.1-0.3,0.3-0.2,0.5l0,0c0.1,0.1,0.2,0.2,0.3,0.2c0,0,0.1,0,0.2,0
			C140.4,197.3,140.5,197.1,140.4,196.9L140.4,196.9z"/>
	</g>
	<g>
		<path d="M145.3,197.7L145.3,197.7c-0.2-0.1-0.4-0.1-0.5,0.1c-0.1,0.2-0.1,0.4,0.1,0.5l0,0c0.1,0,0.2,0.1,0.2,0.1
			c0.1,0,0.2,0,0.3-0.1l0,0C145.5,198,145.5,197.8,145.3,197.7z"/>
		<path d="M144.4,198.1c-0.1-0.2-0.3-0.2-0.5-0.1c0,0,0,0.1-0.1,0.1c-0.1,0.1-0.1,0.3-0.1,0.4l0,0c0.1,0.1,0.2,0.2,0.3,0.2
			c0,0,0,0,0.1,0h0.1C144.4,198.5,144.5,198.3,144.4,198.1z"/>
		<path d="M143,197.6c0.1,0,0.1,0,0.2-0.1l0,0c0,0,0.1,0,0.1-0.1c0.1-0.2,0-0.4-0.1-0.5c-0.1-0.1-0.4-0.1-0.5,0.1c0,0,0,0,0,0.1
			c-0.1,0.2,0,0.3,0.1,0.4l0,0C142.9,197.6,142.9,197.6,143,197.6z"/>
		<path d="M144.7,198.8C144.6,198.8,144.6,198.8,144.7,198.8c-0.2,0-0.3,0.1-0.4,0.3l0,0l0,0l0,0v0.1v0.1l0.1,0.1c0,0,0,0,0.1,0h0.1
			l0,0l0,0c0.1,0,0.1,0,0.2-0.1c0.1,0,0.1-0.1,0.1-0.2V199C145,199,144.9,198.8,144.7,198.8z"/>
		<path d="M143,199.1c-0.2,0.1-0.3,0.3-0.2,0.5c0,0,0,0.1,0.1,0.1c0.1,0.1,0.2,0.1,0.3,0.1s0.1,0,0.2,0c0.2-0.1,0.2-0.2,0.2-0.4
			v-0.1C143.4,199.1,143.2,199,143,199.1z"/>
	</g>
	<g>
		<path d="M138.2,198.1c-0.1-0.2-0.3-0.2-0.5-0.1c0,0-0.1,0-0.1,0.1c-0.1,0.1-0.1,0.3-0.1,0.4l0,0c0.1,0.1,0.2,0.2,0.3,0.2
			c0,0,0,0,0.1,0h0.1C138.2,198.5,138.3,198.3,138.2,198.1z"/>
		<path d="M136.8,197.6c0.1,0,0.1,0,0.2-0.1l0,0c0,0,0.1,0,0.1-0.1c0.1-0.2,0-0.4-0.1-0.5c-0.2-0.1-0.4-0.1-0.5,0.1c0,0,0,0,0,0.1
			c-0.1,0.2,0,0.3,0.1,0.4l0,0C136.7,197.6,136.7,197.6,136.8,197.6z"/>
		<path d="M139.1,197.7L139.1,197.7c-0.2-0.1-0.4-0.1-0.5,0.1c-0.1,0.2-0.1,0.4,0.1,0.5l0,0c0.1,0,0.1,0.1,0.2,0.1s0.2,0,0.3-0.1
			l0,0C139.3,198,139.3,197.8,139.1,197.7z"/>
		<path d="M136.8,199.1c-0.2,0.1-0.3,0.3-0.2,0.5c0,0,0,0.1,0.1,0.1c0.1,0.1,0.2,0.1,0.3,0.1s0.1,0,0.2,0c0.2-0.1,0.2-0.2,0.2-0.4
			v-0.1C137.2,199.1,137,199,136.8,199.1z"/>
		<path d="M138.4,198.8L138.4,198.8c-0.2,0-0.3,0.1-0.4,0.3l0,0l0,0l0,0v0.1v0.1l0.1,0.1c0,0,0,0,0.1,0h0.1l0,0l0,0
			c0.1,0,0.1,0,0.2-0.1c0.1,0,0.1-0.1,0.1-0.2V199C138.8,199,138.6,198.8,138.4,198.8z"/>
	</g>
	<path d="M130.8,196.9c-0.2-0.1-0.3-0.1-0.5,0.1c0.2,0.1,0.4,0.2,0.6,0.3C131,197,130.9,196.9,130.8,196.9z"/>
	<g>
		<path d="M128.9,195.8c-0.1-0.2-0.3-0.2-0.5-0.1c0,0,0,0-0.1,0.1c-0.1,0.1-0.2,0.3-0.1,0.5c0,0,0,0,0.1,0l0,0c0.1,0,0.2,0,0.2,0.1
			h0.1l0,0h0.1C128.9,196.2,129,196,128.9,195.8z"/>
		<path d="M127.7,194.6c-0.2-0.1-0.4-0.1-0.5,0.1v0.1c0,0.1,0,0.3,0.1,0.4l0,0c0.1,0,0.1,0.1,0.2,0.1c0.1,0,0.1,0,0.2-0.1l0,0
			c0,0,0.1,0,0.1-0.1C128,194.9,127.9,194.7,127.7,194.6z"/>
		<path d="M130,195.4L130,195.4c-0.2-0.2-0.5-0.2-0.6,0s-0.1,0.4,0.1,0.5h0.1h0.1c0.1,0,0.2,0,0.3-0.2
			C130.1,195.7,130.1,195.5,130,195.4z"/>
		<path d="M129.3,196.4L129.3,196.4c-0.2,0-0.3,0-0.4,0.1l0,0c0.1,0,0.2,0.1,0.3,0.1l0,0c0.1,0,0.2,0.1,0.3,0.1l0,0
			C129.5,196.5,129.5,196.4,129.3,196.4z"/>
	</g>
	<path d="M106.3,192.9L106.3,192.9L106.3,192.9z"/>
	<path d="M107.5,193.4c-0.1-0.2-0.3-0.2-0.5-0.1l-0.1,0.1c-0.1,0.1-0.1,0.3,0,0.4c0.1,0.1,0.2,0.2,0.3,0.2l0,0c0.1,0,0.1,0,0.1,0
		C107.5,193.8,107.6,193.6,107.5,193.4z"/>
	<g>
		<path d="M101.4,193.3c0.1-0.1,0.3-0.2,0.4-0.2c-0.1,0.1-0.3,0.2-0.5,0.3C101.3,193.3,101.4,193.3,101.4,193.3z"/>
		<path d="M102.1,192.9L102.1,192.9C102,192.9,102,192.9,102.1,192.9C102,192.9,102,192.9,102.1,192.9L102.1,192.9z"/>
		<path d="M102.3,193c-0.1-0.1-0.2-0.1-0.4-0.1c-0.1,0-0.1,0.1-0.2,0.1l0,0l0,0l0,0c-0.1,0.2-0.1,0.4,0.1,0.5l0,0
			c0.1,0,0.1,0.1,0.2,0.1s0.2-0.1,0.3-0.2C102.5,193.4,102.5,193.2,102.3,193L102.3,193z"/>
		<path d="M102.9,192.2c-0.1,0.1-0.1,0.2,0,0.4c0,0,0,0,0.1,0.1c0.1,0.1,0.2,0.2,0.3,0.2c0,0,0.1,0,0.2,0c0.2-0.1,0.2-0.2,0.2-0.4
			v-0.1c-0.1-0.2-0.3-0.2-0.4-0.2C103.1,192.1,103,192.1,102.9,192.2"/>
	</g>
	<g>
		<g>
			<path d="M104.3,192.1C104.3,192.1,104.3,192.2,104.3,192.1L104.3,192.1C104.3,192,104.3,192.1,104.3,192.1z"/>
			<path d="M104.3,192.2L104.3,192.2L104.3,192.2C104.3,192.2,104.4,192.3,104.3,192.2c0.1,0.2,0.1,0.2,0.2,0.3h0.1l0,0
				c0.1,0,0.1,0,0.2-0.1c0.1,0,0.1-0.1,0.1-0.2v-0.1c0-0.2-0.1-0.4-0.4-0.4l0,0c-0.2,0-0.3,0.1-0.4,0.3"/>
		</g>
		<path d="M106.3,192.3L106.3,192.3c-0.2-0.1-0.4-0.1-0.5,0.1v0.1c0,0.1,0,0.3,0.1,0.4l0,0c0.1,0,0.1,0,0.2,0s0.1,0,0.2-0.1l0,0l0,0
			l0.1-0.1C106.5,192.6,106.5,192.4,106.3,192.3z"/>
	</g>
	<path d="M109.4,194.6c-0.2-0.1-0.4-0.1-0.5,0.1c0,0,0,0.1-0.1,0.1c0,0.1,0,0.3,0.1,0.4l0,0c0.1,0,0.1,0.1,0.2,0.1
		c0.1,0,0.1,0,0.2-0.1l0,0l0.1-0.1C109.6,194.9,109.6,194.7,109.4,194.6z"/>
	<path d="M107.8,194.1L107.8,194.1c-0.2,0-0.3,0.1-0.3,0.2c0,0,0,0.1-0.1,0.2v0.1c0,0.1,0.1,0.1,0.1,0.2c0.1,0,0.1,0.1,0.2,0.1l0,0
		h0.1c0.1,0,0.2-0.1,0.2-0.2l0.1-0.1C108.2,194.3,108,194.1,107.8,194.1z"/>
	<path d="M106.7,194.6c-0.1-0.2-0.3-0.3-0.5-0.2c-0.2,0.1-0.3,0.3-0.2,0.5c0,0,0,0,0,0.1c0.1,0.1,0.2,0.2,0.3,0.2c0,0,0.1,0,0.2,0
		C106.7,195,106.7,194.8,106.7,194.6L106.7,194.6z"/>
	<path d="M103.3,195.2L103.3,195.2L103.3,195.2z"/>
	<path d="M101.3,198.1l-0.1-0.1v0.6C101.4,198.5,101.5,198.3,101.3,198.1z"/>
	<path d="M105.8,197c0.1,0,0.2-0.1,0.3-0.1C106,196.9,105.9,196.9,105.8,197z"/>
	<path d="M102.3,197.7L102.3,197.7c-0.2-0.1-0.4-0.1-0.5,0.1c-0.1,0.2-0.1,0.4,0.1,0.5l0,0c0.1,0,0.2,0.1,0.2,0.1
		c0.1,0,0.2,0,0.3-0.1l0,0C102.5,198,102.5,197.8,102.3,197.7z"/>
	<g>
		<path d="M105.5,195.4C105.4,195.4,105.4,195.3,105.5,195.4c-0.2-0.2-0.4-0.1-0.6,0c-0.1,0.2-0.1,0.4,0.1,0.5l0,0
			c0.1,0,0.1,0.1,0.2,0.1s0.2,0,0.3-0.2C105.6,195.7,105.6,195.5,105.5,195.4z"/>
		<path d="M104.5,195.8c-0.1-0.2-0.3-0.2-0.5-0.1l-0.1,0.1c-0.1,0.1-0.1,0.3,0,0.4c0.1,0.1,0.2,0.2,0.3,0.2l0,0c0.1,0,0.1,0,0.1,0
			C104.5,196.2,104.5,196,104.5,195.8z"/>
		<path d="M104.7,196.4L104.7,196.4c-0.2,0-0.3,0.1-0.4,0.3v0.1l0,0c0,0,0,0,0,0.1v0.1c0,0.1,0.1,0.1,0.2,0.2h0.1l0,0
			c0.1,0,0.2,0,0.2-0.1c0.1-0.1,0.1-0.1,0.2-0.2l0,0C105.1,196.6,104.9,196.5,104.7,196.4z"/>
		<path d="M103.6,196.9c-0.1-0.2-0.3-0.3-0.5-0.2l0,0c-0.2,0.1-0.3,0.3-0.2,0.5l0,0c0.1,0.1,0.2,0.2,0.3,0.2c0,0,0.1,0,0.2,0
			C103.6,197.3,103.7,197.1,103.6,196.9L103.6,196.9z"/>
	</g>
	<path d="M102,199c0-0.1-0.2-0.2-0.3-0.3h-0.1c-0.1,0-0.2,0.1-0.2,0.2c0,0,0,0.1-0.1,0.2v0.1c0,0.1,0.1,0.1,0.1,0.2l0,0l0,0
		c0.1-0.1,0.2-0.1,0.3-0.2l0.1-0.1C101.9,199.1,102,199.1,102,199L102,199z"/>
	<path d="M139.1,202.2L139.1,202.2C139,202.3,139,202.3,139.1,202.2c0,0.1,0,0.1,0.1,0.1C139.1,202.3,139.2,202.3,139.1,202.2
		C139.2,202.3,139.2,202.3,139.1,202.2C139.1,202.3,139.1,202.3,139.1,202.2z"/>
	<path d="M139.1,202.2H139C139,202.2,139,202.2,139.1,202.2L139.1,202.2z"/>
	<path d="M139.2,202.4c0,0,0-0.1-0.1-0.1C139.2,202.3,139.1,202.3,139.2,202.4L139.2,202.4z"/>
	<g>
		<path d="M142.2,200.1C142.2,200.1,142.2,200,142.2,200.1c-0.2-0.2-0.5-0.2-0.6,0c-0.1,0.2-0.1,0.4,0.1,0.5h0.1h0.1
			c0.1,0,0.2,0,0.3-0.1C142.3,200.4,142.3,200.2,142.2,200.1z"/>
		<path d="M141.2,200.5c-0.1-0.2-0.3-0.2-0.5-0.1c0,0,0,0-0.1,0.1c-0.1,0.1-0.2,0.3-0.1,0.5c0.1,0.1,0.2,0.2,0.3,0.2h0.1h0.1
			C141.2,200.9,141.3,200.6,141.2,200.5z"/>
		<path d="M140.1,199.9C140.1,199.9,140.1,199.8,140.1,199.9C140.1,199.8,140.1,199.8,140.1,199.9c0.2-0.2,0.1-0.5,0-0.6
			c-0.2-0.1-0.4,0-0.5,0.1v0.1c0,0.1,0,0.2,0,0.3l0.1,0.1c0.1,0,0.1,0.1,0.2,0.1C139.9,200,140,199.9,140.1,199.9z"/>
		<path d="M141.6,201L141.6,201c-0.2,0-0.4,0.1-0.4,0.3c0,0,0,0,0,0.1v0.1c0,0.1,0.1,0.2,0.2,0.3h0.1l0,0c0.1,0,0.1,0,0.2,0
			c0.1,0,0.2-0.1,0.2-0.2v-0.1C141.9,201.2,141.8,201.1,141.6,201z"/>
		<path d="M139.9,201.3c-0.2,0.1-0.3,0.3-0.2,0.5c0,0,0,0,0,0.1c0.1,0.1,0.2,0.2,0.3,0.2c0,0,0.1,0,0.2,0c0.2-0.1,0.2-0.2,0.2-0.4
			v-0.1C140.3,201.3,140.1,201.2,139.9,201.3z"/>
	</g>
	<g>
		<g>
			<path d="M150.5,202.7c-0.1-0.2-0.3-0.2-0.5-0.1l-0.1,0.1c-0.1,0.1-0.1,0.3,0,0.4c0.1,0.1,0.2,0.2,0.3,0.2l0,0c0.1,0,0.1,0,0.2,0
				C150.5,203.1,150.6,202.9,150.5,202.7z"/>
			<path d="M149.3,202.2l0.1-0.1c0.1-0.2,0-0.4-0.1-0.5c-0.2-0.1-0.4-0.1-0.5,0.1v0.1c0,0.1,0,0.3,0.2,0.4c0.1,0,0.1,0,0.2,0
				C149.2,202.2,149.3,202.2,149.3,202.2z"/>
			<path d="M151.4,202.3L151.4,202.3c-0.2-0.1-0.3-0.1-0.4,0l-0.1,0.1c-0.1,0.2-0.1,0.4,0.1,0.5l0,0c0.1,0,0.1,0.1,0.2,0.1
				s0.2,0,0.3-0.1C151.6,202.7,151.6,202.4,151.4,202.3C151.5,202.3,151.5,202.3,151.4,202.3z"/>
			<g>
				<path d="M153.6,200.5c-0.1-0.2-0.3-0.2-0.5-0.1l-0.1,0.1c-0.1,0.1-0.1,0.3,0,0.4s0.2,0.2,0.3,0.2l0,0c0.1,0,0.1,0,0.1,0
					C153.6,200.9,153.7,200.6,153.6,200.5z"/>
				<path d="M154.5,200c-0.2-0.1-0.4-0.1-0.5,0.1c-0.1,0.2-0.1,0.4,0.1,0.5l0,0c0.1,0,0.1,0.1,0.2,0.1s0.2,0,0.3-0.1
					C154.7,200.4,154.7,200.2,154.5,200C154.6,200,154.6,200,154.5,200z"/>
				<path d="M153.4,201.4C153.4,201.4,153.4,201.5,153.4,201.4C153.5,201.5,153.5,201.5,153.4,201.4
					C153.5,201.5,153.4,201.4,153.4,201.4L153.4,201.4z"/>
				<g>
					<path d="M154.6,195.4c-0.1,0-0.1,0-0.2,0c-0.2,0-0.4,0.1-0.5,0.1s-0.2,0-0.2,0.1c0.1,0,0.2,0,0.2-0.1c0,0.1,0,0.3,0.1,0.4l0,0
						c0.1,0,0.1,0.1,0.2,0.1s0.2,0,0.3-0.2C154.7,195.7,154.7,195.6,154.6,195.4L154.6,195.4z"/>
					<path d="M153.6,195.8C153.5,195.7,153.5,195.7,153.6,195.8c0-0.1,0-0.1,0.1-0.1C153.6,195.7,153.5,195.7,153.6,195.8
						c-0.3-0.1-0.4,0-0.6,0l0,0c0,0,0,0,0,0.1l0,0c0,0.1,0,0.2,0,0.3c0.1,0.1,0.2,0.2,0.3,0.2l0,0c0.1,0,0.1,0,0.1,0
						C153.6,196.2,153.7,196,153.6,195.8z"/>
					<path d="M156.6,198.1c-0.1-0.2-0.3-0.2-0.5-0.1c0,0-0.1,0-0.1,0.1c-0.1,0.1-0.1,0.3-0.1,0.4c0.1,0.1,0.2,0.2,0.3,0.2
						c0,0,0,0,0.1,0h0.1C156.6,198.5,156.7,198.3,156.6,198.1z"/>
					<path d="M153.8,196.4L153.8,196.4c-0.2,0-0.3,0.1-0.4,0.3c0,0,0,0-0.1,0.1c0,0,0,0,0,0.1l0,0c0,0,0,0,0,0.1v0.1
						c0,0.1,0.1,0.2,0.2,0.2h0.1l0,0c0.1,0,0.2,0,0.2-0.1c0.1-0.1,0.1-0.1,0.2-0.2l0,0C154.2,196.6,154.1,196.5,153.8,196.4z"/>
					<path d="M152.7,196.9c-0.1-0.2-0.3-0.3-0.5-0.2l0,0c-0.2,0.1-0.3,0.3-0.2,0.5l0,0c0.1,0.1,0.2,0.2,0.3,0.2c0,0,0.1,0,0.2,0
						C152.7,197.3,152.8,197.1,152.7,196.9L152.7,196.9z"/>
					<path d="M155.4,197.6C155.4,197.5,155.5,197.5,155.4,197.6c0.1-0.1,0.1-0.1,0.1-0.1c0.1-0.2,0.1-0.4-0.1-0.5
						c-0.2-0.1-0.4-0.1-0.5,0.1c0,0,0,0,0,0.1c-0.1,0.2,0,0.3,0.1,0.4l0,0c0.1,0,0.1,0.1,0.2,0.1
						C155.3,197.6,155.4,197.6,155.4,197.6z"/>
					<g>
						<path d="M159.3,196.3C159.4,196.3,159.4,196.3,159.3,196.3c0.1,0,0.1,0,0.2,0c0.2-0.1,0.2-0.3,0.1-0.5
							c-0.1-0.2-0.3-0.2-0.5-0.1l-0.1,0.1c-0.1,0.1-0.1,0.3,0,0.4C159.1,196.3,159.2,196.3,159.3,196.3z"/>
						<path d="M158.1,195.2L158.1,195.2c0.1,0.1,0.2,0.1,0.2,0.1c0.1,0,0.1,0,0.2-0.1l0,0l0.1-0.1c0-0.1,0-0.1,0-0.2l0,0
							c-0.2,0-0.4,0-0.5,0s-0.1,0-0.2,0l0,0C158,195.1,158,195.2,158.1,195.2z"/>
						<path d="M160.7,195.3c-0.2-0.1-0.4-0.1-0.5,0.1s-0.1,0.4,0.1,0.5l0,0c0.1,0,0.1,0.1,0.2,0.1s0.2,0,0.3-0.2
							C160.8,195.7,160.8,195.5,160.7,195.3C160.7,195.4,160.7,195.3,160.7,195.3z"/>
						<path d="M161.2,194.9C161.2,194.9,161.3,194.9,161.2,194.9c0.1,0.2,0.2,0.2,0.3,0.2c0,0,0.1,0,0.2,0s0.2-0.1,0.2-0.2l0,0
							c-0.2,0-0.3,0-0.5,0C161.4,194.9,161.3,194.9,161.2,194.9L161.2,194.9L161.2,194.9z"/>
						<path d="M163.7,197.7L163.7,197.7c-0.2-0.1-0.4-0.1-0.5,0.1c-0.1,0.2-0.1,0.4,0,0.5l0,0c0.1,0,0.1,0.1,0.2,0.1
							c0.1,0,0.2,0,0.3-0.1l0,0C163.9,198,163.9,197.8,163.7,197.7z"/>
						<path d="M162.8,198c-0.1-0.2-0.3-0.2-0.5-0.1l-0.1,0.1c-0.1,0.1-0.1,0.3,0,0.4c0.1,0.1,0.2,0.2,0.3,0.2l0,0c0.1,0,0.1,0,0.1,0
							C162.8,198.4,162.9,198.2,162.8,198z"/>
						<path d="M158.4,196.6c-0.2,0.1-0.3,0.3-0.2,0.5c0,0,0,0,0,0.1c0.1,0.1,0.2,0.2,0.3,0.2h0.1c0.2-0.1,0.2-0.2,0.2-0.4v-0.1
							C158.8,196.6,158.6,196.6,158.4,196.6z"/>
						<path d="M161.2,197.5c0.1,0,0.1,0,0.2,0s0.1,0,0.2-0.1l0.1-0.1c0.1-0.2,0-0.4-0.1-0.5c-0.2-0.1-0.4,0-0.5,0.1
							c0,0,0,0.1-0.1,0.1C161,197.3,161.1,197.4,161.2,197.5L161.2,197.5z"/>
						<path d="M160.4,196.9v-0.1c0-0.2-0.1-0.4-0.3-0.4c0,0,0,0-0.1,0c-0.2,0-0.3,0.1-0.3,0.3c0,0,0,0,0,0.1v0.1
							c0,0.1,0.1,0.2,0.1,0.2c0.1,0,0.1,0.1,0.2,0.1l0,0c0.1,0,0.1,0,0.2,0C160.3,197,160.3,197,160.4,196.9z"/>
						<path d="M163,198.8L163,198.8c-0.2,0-0.3,0.1-0.4,0.3l0,0l0,0l0,0v0.1v0.1c0,0.1,0.1,0.1,0.1,0.1s0,0,0.1,0h0.1l0,0l0,0
							c0.1,0,0.1,0,0.2-0.1c0.1,0,0.1-0.1,0.1-0.2V199C163.4,199,163.2,198.8,163,198.8z"/>
						<path d="M161.4,199.1c-0.2,0.1-0.3,0.3-0.2,0.5c0,0,0,0.1,0.1,0.1c0.1,0.1,0.2,0.1,0.3,0.1c0,0,0.1,0,0.2,0
							c0.2-0.1,0.2-0.2,0.2-0.4v-0.1C161.8,199.1,161.6,199,161.4,199.1z"/>
						<path d="M159.2,200.3c-0.1,0-0.1,0.1-0.1,0.1c-0.1,0.1-0.1,0.3,0,0.4c0.1,0.1,0.2,0.2,0.3,0.2l0,0c0.1,0,0.1,0,0.2,0
							c0.2-0.1,0.2-0.3,0.1-0.5S159.3,200.2,159.2,200.3z"/>
						<path d="M158.5,199.3L158.5,199.3c-0.2-0.1-0.4,0-0.5,0.1c0,0,0,0.1-0.1,0.1c0,0.1,0,0.2,0.1,0.3l0.1,0.1
							c0.1,0,0.1,0.1,0.2,0.1c0.1,0,0.1,0,0.2-0.1l0.1-0.1l0,0C158.7,199.6,158.7,199.4,158.5,199.3z"/>
						<path d="M160.7,200c-0.2-0.1-0.4-0.1-0.5,0.1c-0.1,0.2-0.1,0.4,0.1,0.5h0.1h0.1c0.1,0,0.2,0,0.3-0.1
							C160.8,200.4,160.8,200.2,160.7,200C160.7,200.1,160.7,200,160.7,200z"/>
						<path d="M157.6,197.6L157.6,197.6c-0.2-0.1-0.3-0.1-0.4,0l-0.1,0.1c-0.1,0.2-0.1,0.4,0.1,0.5l0,0c0.1,0,0.1,0.1,0.2,0.1
							s0.2,0,0.3-0.2C157.8,198,157.8,197.8,157.6,197.6C157.7,197.6,157.7,197.6,157.6,197.6z"/>
					</g>
					<path d="M156.9,198.8L156.9,198.8c-0.1,0-0.2,0.1-0.3,0.1c-0.1,0.1-0.1,0.1-0.1,0.2v0.1c0,0.1,0.1,0.2,0.1,0.2s0,0,0.1,0h0.1
						l0,0l0,0h0.1c0.1,0,0.2-0.1,0.2-0.2v-0.1C157.3,199,157.2,198.8,156.9,198.8z"/>
					<path d="M152.4,199.3c-0.2-0.1-0.4,0-0.5,0.1v0.1c0,0.1,0,0.2,0.1,0.3l0.1,0.1c0.1,0,0.1,0.1,0.2,0.1s0.1,0,0.2-0.1l0.1-0.1
						l0,0C152.6,199.6,152.6,199.4,152.4,199.3z"/>
					<path d="M155.3,199.1c-0.2,0.1-0.3,0.3-0.2,0.5c0,0,0,0,0,0.1c0.1,0.1,0.2,0.2,0.3,0.2c0,0,0.1,0,0.2,0
						c0.2-0.1,0.2-0.2,0.2-0.4v-0.1C155.7,199.1,155.5,199,155.3,199.1z"/>
				</g>
				<path d="M153.5,201.5L153.5,201.5c-0.1,0.1,0,0.2,0.1,0.3h0.1l0,0c0.1,0,0.2,0,0.3-0.1l0.1-0.1v-0.1c0-0.2-0.1-0.4-0.3-0.4l0,0
					c-0.2,0-0.4,0.2-0.4,0.4C153.4,201.4,153.5,201.4,153.5,201.5"/>
				<path d="M155.4,201.5c-0.2-0.1-0.4-0.1-0.5,0.1v0.1c0,0.1,0,0.3,0.2,0.4c0.1,0,0.1,0,0.2,0s0.1,0,0.2-0.1l0.1-0.1
					C155.7,201.9,155.6,201.7,155.4,201.5z"/>
				<path d="M152.2,201.3c-0.2,0.1-0.3,0.3-0.2,0.5c0,0,0,0,0,0.1c0.1,0.1,0.2,0.2,0.3,0.2c0,0,0.1,0,0.2,0c0.2-0.1,0.2-0.2,0.2-0.4
					v-0.1C152.6,201.3,152.4,201.2,152.2,201.3z"/>
			</g>
			<path d="M150.8,203.4L150.8,203.4c-0.2,0-0.3,0.1-0.4,0.2c0,0,0,0.1,0,0.2v0.1c0,0.1,0.1,0.1,0.1,0.2c0.1,0,0.1,0.1,0.2,0.1l0,0
				h0.1c0.1,0,0.2-0.1,0.2-0.2v-0.1C151.2,203.6,151,203.4,150.8,203.4z"/>
			<path d="M152.4,203.9c-0.2-0.1-0.4-0.1-0.5,0.1v0.1c0,0.1,0,0.3,0.1,0.4l0,0c0.1,0,0.1,0,0.2,0s0.1,0,0.2-0.1l0,0l0,0h0.1l0,0
				h-0.1l0.1-0.1C152.6,204.2,152.6,204,152.4,203.9z"/>
			<path d="M148.4,204.6c-0.2-0.1-0.4-0.1-0.5,0.1s-0.1,0.4,0.1,0.5l0,0c0.1,0,0.1,0.1,0.2,0.1s0.2-0.1,0.3-0.1
				C148.6,205.1,148.6,204.8,148.4,204.6C148.5,204.6,148.5,204.6,148.4,204.6z"/>
			<path d="M149.2,203.7c-0.2,0.1-0.3,0.3-0.2,0.5c0,0,0,0,0.1,0.1c0.1,0.1,0.2,0.2,0.3,0.2h0.1c0.2-0.1,0.2-0.2,0.2-0.4V204
				C149.6,203.7,149.4,203.6,149.2,203.7z"/>
		</g>
		<path d="M147.4,205.2c-0.1-0.2-0.3-0.2-0.5-0.1c0,0,0,0-0.1,0.1c-0.1,0.1-0.2,0.3-0.1,0.5c0.1,0.1,0.2,0.2,0.3,0.2l0,0l0,0l0,0
			h0.1h0.1C147.4,205.6,147.5,205.3,147.4,205.2z"/>
		<path d="M146.2,203.9c-0.2-0.1-0.4-0.1-0.5,0.1v0.1c0,0.1,0,0.3,0.1,0.4l0,0c0.1,0,0.1,0,0.2,0s0.2,0,0.2-0.1l0,0
			c0,0,0.1,0,0.1-0.1C146.4,204.2,146.4,204,146.2,203.9z"/>
	</g>
	<g>
		<g>
			<path d="M148.5,200.1C148.5,200,148.5,200,148.5,200.1c-0.2-0.2-0.4-0.1-0.6,0c-0.1,0.2-0.1,0.4,0.1,0.5l0,0
				c0.1,0,0.1,0.1,0.2,0.1c0.1,0,0.2,0,0.3-0.1C148.6,200.4,148.6,200.2,148.5,200.1z"/>
			<path d="M147.8,201L147.8,201c-0.2,0-0.4,0.1-0.4,0.3l0,0v0.1c0,0.1,0.1,0.2,0.2,0.3h0.1l0,0c0.1,0,0.2,0,0.3-0.1l0.1-0.1v-0.1
				C148.1,201.2,148,201.1,147.8,201z"/>
			<path d="M147.2,201c0.2-0.1,0.2-0.3,0.1-0.5s-0.3-0.2-0.5-0.1c0,0,0,0.1-0.1,0.1c-0.1,0.1-0.2,0.3-0.1,0.4s0.2,0.2,0.3,0.2
				C147.1,201,147.1,201,147.2,201L147.2,201z"/>
			<path d="M145.7,199.4C145.7,199.4,145.7,199.5,145.7,199.4c-0.1,0.2,0,0.3,0,0.4l0.1,0.1c0.1,0,0.1,0.1,0.2,0.1s0.2,0,0.3-0.1
				c0,0,0,0,0.1-0.1l0,0c0.1-0.2,0.1-0.4-0.1-0.5C146,199.2,145.8,199.2,145.7,199.4z"/>
			<path d="M147.8,202c-0.1-0.1-0.1-0.1-0.2-0.1c-0.1,0-0.1,0-0.2,0l0,0h-0.1c-0.1,0.1-0.1,0.2-0.1,0.3l0,0c0,0.1,0,0.2,0.1,0.3
				c0.1,0.1,0.2,0.1,0.3,0.1s0.2,0,0.3-0.1c0.1-0.1,0.1-0.2,0.1-0.3l0,0C147.9,202.1,147.9,202,147.8,202L147.8,202z"/>
			<path d="M145.3,202.3L145.3,202.3h-0.4l-0.1,0.1c-0.1,0.2-0.1,0.4,0.1,0.5l0,0c0.1,0,0.1,0.1,0.2,0.1c0.1,0,0.2,0,0.3-0.1
				C145.5,202.7,145.5,202.4,145.3,202.3C145.4,202.3,145.4,202.3,145.3,202.3z"/>
		</g>
		<path d="M144.4,202.7c-0.1-0.2-0.3-0.2-0.5-0.1l-0.1,0.1c-0.1,0.1-0.1,0.3,0,0.4c0.1,0.1,0.2,0.2,0.3,0.2l0,0c0.1,0,0.1,0,0.2,0
			C144.4,203.1,144.5,202.9,144.4,202.7z"/>
		<path d="M143,202.2c0.1,0,0.1,0,0.2-0.1l0.1-0.1c0.1-0.2,0.1-0.4-0.1-0.5c-0.2-0.1-0.4-0.1-0.5,0.1v0.1c0,0.1,0,0.3,0.2,0.4
			C142.9,202.2,143,202.2,143,202.2z"/>
		<path d="M144.7,203.4L144.7,203.4c-0.2,0-0.3,0.1-0.4,0.3v0.1v0.1l0,0c0,0,0,0,0,0.1s0.1,0.2,0.2,0.2h0.1l0,0c0.1,0,0.1,0,0.2-0.1
			c0.1,0,0.1-0.1,0.1-0.2v-0.1C145,203.6,144.9,203.4,144.7,203.4z"/>
		<path d="M143,203.7L143,203.7c-0.2,0.1-0.3,0.3-0.2,0.5c0,0,0,0.1,0.1,0.1c0.1,0.1,0.2,0.1,0.3,0.1s0.1,0,0.2,0
			c0.2-0.1,0.2-0.2,0.2-0.4v-0.1C143.4,203.7,143.2,203.6,143,203.7z"/>
	</g>
	<path fill="none" d="M99.8,194.1c0.2-0.1,0.3-0.1,0.5-0.2C100.1,194,100,194.1,99.8,194.1z"/>
	<g>
		<path d="M103.3,194.6c-0.2-0.1-0.4-0.1-0.5,0.1v0.1c0,0.1,0,0.3,0.2,0.4l0,0c0.1,0,0.1,0.1,0.2,0.1s0.1,0,0.2-0.1l0,0l0,0l0.1-0.1
			C103.5,194.9,103.5,194.7,103.3,194.6z"/>
		<path d="M101.7,194.1L101.7,194.1c-0.2,0-0.3,0.1-0.3,0.2l0,0v0.3v0.1c0,0,0,0.1,0.1,0.1c0.1,0,0.1,0.1,0.2,0.1l0,0h0.1
			c0.1,0,0.2-0.1,0.2-0.2v-0.1C102.1,194.3,101.9,194.1,101.7,194.1z"/>
		<path d="M100.1,194.4c-0.2,0.1-0.3,0.3-0.2,0.5c0,0,0,0,0.1,0.1c0.1,0.1,0.2,0.2,0.3,0.2h0.1v-0.3v-0.4
			C100.3,194.3,100.2,194.3,100.1,194.4L100.1,194.4z"/>
	</g>
	<path d="M100.2,196.9L100.2,196.9c-0.2-0.1-0.4-0.1-0.5,0.1c0,0,0,0,0,0.1c-0.1,0.2,0,0.3,0.1,0.4l0,0c0.1,0,0.1,0.1,0.2,0.1
		c0.1,0,0.1,0,0.2-0.1l0,0l0,0V196.9C100.2,197,100.2,197,100.2,196.9z"/>
	<path d="M99.4,200.6c0.1-0.1,0.1-0.3,0-0.4V200.6L99.4,200.6z"/>
	<path d="M100.1,199.1L100.1,199.1c-0.2,0.1-0.3,0.3-0.2,0.5c0,0,0,0,0,0.1c0.1,0.1,0.1,0.1,0.2,0.1v-0.2V199.1
		C100.2,199.1,100.1,199.1,100.1,199.1z"/>
	<g>
		<path d="M179.6,208.8c0.1,0,0.2,0.1,0.2,0.1C179.8,208.8,179.7,208.8,179.6,208.8L179.6,208.8z"/>
		<path d="M180.9,203.3L180.9,203.3c0.1,0,0.1,0,0.2,0c0.2-0.1,0.2-0.3,0.1-0.5c-0.1-0.2-0.3-0.2-0.5-0.1l-0.1,0.1
			c-0.1,0.1-0.1,0.3,0,0.4C180.6,203.2,180.7,203.3,180.9,203.3z"/>
		<path d="M179.8,202.2c0.1,0,0.1,0,0.2-0.1l0.1-0.1c0.1-0.2,0-0.4-0.1-0.5c-0.2-0.1-0.4-0.1-0.5,0.1v0.1c0,0.1,0,0.3,0.2,0.4
			C179.7,202.2,179.8,202.2,179.8,202.2z"/>
		<path d="M181.7,202.9h0.1c0.1,0,0.2,0,0.3-0.1l0,0c0.1-0.1,0.1-0.3,0-0.4c0,0,0-0.1-0.1-0.1h-0.1c-0.1,0-0.2,0-0.3,0l-0.1,0.1
			C181.4,202.5,181.4,202.7,181.7,202.9C181.6,202.9,181.7,202.9,181.7,202.9z"/>
		<path d="M179.8,203.7c-0.2,0.1-0.3,0.3-0.2,0.5c0,0,0,0.1,0.1,0.1c0.1,0.1,0.2,0.1,0.3,0.1s0.1,0,0.2,0l0,0
			c0.1-0.1,0.2-0.2,0.2-0.4v-0.1C180.3,203.7,180,203.6,179.8,203.7z"/>
		<path d="M181.1,203.7C181.1,203.8,181.1,203.8,181.1,203.7c0,0.1,0,0.1,0,0.1s0,0,0,0.1c0,0.1,0.1,0.1,0.2,0.2h0.1l0,0h0.1
			c0.1,0,0.2-0.1,0.2-0.2v-0.1c0-0.2-0.1-0.4-0.3-0.4l0,0c-0.2,0-0.3,0.1-0.4,0.2C181.1,203.6,181.1,203.7,181.1,203.7z"/>
		<path d="M183.9,205.7h0.1h0.1c0.2-0.1,0.2-0.3,0.1-0.5c-0.1-0.2-0.3-0.2-0.5-0.1c0,0,0,0-0.1,0.1c-0.1,0.1-0.2,0.3-0.1,0.5
			C183.6,205.7,183.7,205.7,183.9,205.7z"/>
		<path d="M182.6,204.5c0.1,0,0.1,0,0.2,0s0.2,0,0.2-0.1l0,0c0,0,0.1,0,0.1-0.1c0.1-0.2,0.1-0.4-0.1-0.5c-0.2-0.1-0.4-0.1-0.5,0.1
			v0.1C182.4,204.2,182.5,204.4,182.6,204.5L182.6,204.5z"/>
		<path d="M184.8,205.3h0.1c0.1,0,0.2-0.1,0.3-0.1c0.1-0.1,0.1-0.3,0-0.5c0,0,0-0.1-0.1-0.1c-0.2-0.1-0.4-0.1-0.5,0.1
			C184.5,204.8,184.5,205.2,184.8,205.3C184.7,205.3,184.8,205.3,184.8,205.3z"/>
		<path d="M182.2,207.1c-0.2-0.1-0.4-0.1-0.5,0.1c-0.1,0.2-0.1,0.4,0.1,0.5l0,0c0.1,0,0.1,0.1,0.2,0.1c0.1,0,0.2-0.1,0.3-0.1
			C182.3,207.4,182.3,207.2,182.2,207.1L182.2,207.1z"/>
		<path d="M182.9,206.1c-0.2,0.1-0.3,0.3-0.2,0.5c0,0,0,0,0,0.1c0.1,0.1,0.2,0.2,0.3,0.2h0.1c0.2-0.1,0.2-0.2,0.2-0.4v-0.1
			C183.3,206.1,183.1,206,182.9,206.1z"/>
		<path d="M184.1,206.2C184.1,206.2,184.2,206.2,184.1,206.2c0,0.1,0,0.1,0,0.1v0.1c0,0.1,0.1,0.1,0.2,0.2h0.1l0,0h0.1
			c0.1,0,0.2-0.1,0.2-0.2c0,0,0-0.1,0.1-0.1c0-0.2-0.1-0.4-0.4-0.4l0,0c-0.1,0-0.3,0.1-0.3,0.2C184.2,206.1,184.2,206.1,184.1,206.2
			z"/>
		<path d="M187,208.1L187,208.1c0.1,0,0.1,0,0.2-0.1c0.2-0.1,0.2-0.3,0.1-0.5c-0.1-0.2-0.3-0.2-0.5-0.1l-0.1,0.1
			c-0.1,0.1-0.1,0.3,0,0.4C186.7,208,186.8,208.1,187,208.1z"/>
		<path d="M185.7,207c0.1,0,0.1,0.1,0.2,0.1s0.1,0,0.2-0.1l0,0l0.1-0.1c0.1-0.2,0-0.4-0.1-0.5c-0.2-0.1-0.4-0.1-0.5,0.1
			c0,0,0,0.1-0.1,0.1C185.5,206.7,185.6,206.9,185.7,207C185.7,206.9,185.7,207,185.7,207z"/>
		<path d="M185.3,209.4c-0.2-0.1-0.4-0.1-0.5,0.1c-0.1,0.2-0.1,0.4,0.1,0.5l0,0c0.1,0,0.1,0.1,0.2,0.1c0.1,0,0.2,0,0.3-0.1
			C185.4,209.8,185.4,209.6,185.3,209.4L185.3,209.4z"/>
		<path d="M186.5,208.6c-0.1-0.2-0.3-0.3-0.5-0.2l0,0c-0.2,0.1-0.3,0.3-0.2,0.5c0,0,0,0,0,0.1c0.1,0.1,0.2,0.2,0.3,0.2
			c0,0,0.1,0,0.2,0C186.5,209.1,186.6,208.9,186.5,208.6C186.5,208.7,186.5,208.7,186.5,208.6z"/>
		<path d="M187.3,208.5v0.1c0,0.1,0.1,0.2,0.1,0.2c0.1,0,0.1,0.1,0.2,0.1l0,0l0,0v-0.3v-0.2v-0.2h-0.1c-0.1,0-0.2,0.1-0.3,0.2
			C187.3,208.4,187.3,208.4,187.3,208.5z"/>
		<path d="M181.2,207.5c-0.1-0.2-0.3-0.2-0.5-0.1l-0.1,0.1c-0.1,0.1-0.1,0.3,0,0.4c0.1,0.1,0.2,0.2,0.3,0.2l0,0c0.1,0,0.1,0,0.2,0
			C181.2,207.9,181.3,207.7,181.2,207.5z"/>
		<path d="M180,206.3c-0.2-0.1-0.4-0.1-0.5,0.1v0.1c0,0.1,0,0.3,0.2,0.4l0,0c0.1,0,0.1,0.1,0.2,0.1s0.1,0,0.2-0.1l0,0l0.1-0.1
			C180.3,206.7,180.2,206.4,180,206.3z"/>
		<path d="M179.1,200c-0.2-0.1-0.4-0.1-0.5,0.1c-0.1,0.2-0.1,0.4,0.1,0.5h0.1h0.1c0.1,0,0.2,0,0.3-0.1
			C179.2,200.4,179.2,200.2,179.1,200C179.1,200.1,179.1,200,179.1,200z"/>
		<path d="M178.3,201.8h0.1l0,0c0.1,0,0.1,0,0.2,0c0.1,0,0.2-0.1,0.2-0.2v-0.1c0-0.2-0.1-0.4-0.3-0.4l0,0c-0.2,0-0.3,0.1-0.4,0.3
			c0,0,0,0,0,0.1v0.1C178.1,201.6,178.2,201.7,178.3,201.8z"/>
		<path d="M179.1,204.6c-0.2-0.1-0.4-0.1-0.5,0.1c-0.1,0.2-0.1,0.4,0.1,0.5h0.1h0.1c0.1,0,0.2-0.1,0.3-0.1
			C179.2,205.1,179.2,204.8,179.1,204.6C179.1,204.7,179.1,204.6,179.1,204.6z"/>
		<path d="M178.4,205.8L178.4,205.8c-0.2,0-0.3,0.1-0.4,0.2c0,0,0,0.1,0,0.2v0.1l0,0c0,0,0,0,0,0.1c0,0.1,0.1,0.1,0.2,0.2h0.1l0,0
			h0.1c0.1,0,0.2-0.1,0.2-0.2v-0.1C178.8,206,178.7,205.8,178.4,205.8z"/>
		<path d="M184.2,209.8c-0.1-0.2-0.3-0.2-0.5-0.1c0,0,0,0-0.1,0.1c-0.1,0.1-0.2,0.3-0.1,0.5c0.1,0.1,0.2,0.2,0.3,0.2h0.1h0.1
			C184.2,210.3,184.3,210,184.2,209.8z"/>
		<path d="M181.5,208.2L181.5,208.2c-0.2,0-0.3,0.1-0.4,0.3v0.1c0,0,0,0,0,0.1l0,0c0,0,0,0,0,0.1c0,0.1,0.1,0.1,0.2,0.2h0.1l0,0
			c0.1,0,0.2,0,0.2-0.1c0.1,0,0.1-0.1,0.1-0.2v-0.1C181.8,208.4,181.7,208.2,181.5,208.2z"/>
		<path d="M182.5,208.8L182.5,208.8c-0.1,0.2,0,0.4,0.1,0.5l0,0c0.1,0,0.1,0.1,0.2,0.1s0.2,0,0.2-0.1l0,0c0,0,0.1,0,0.1-0.1
			c0.1-0.2,0.1-0.4-0.1-0.5C182.8,208.6,182.6,208.6,182.5,208.8z"/>
		<path d="M187.2,212.2c-0.1-0.2-0.3-0.2-0.5-0.1l0,0c-0.2,0.1-0.2,0.3-0.1,0.5c0.1,0.1,0.2,0.2,0.3,0.2h0.1l0,0
			C187.3,212.6,187.3,212.4,187.2,212.2z"/>
		<path d="M184.5,210.5L184.5,210.5c-0.2,0-0.4,0.1-0.4,0.2v0.1l0,0l0,0c0,0.1,0.1,0.2,0.1,0.3c0,0,0.1,0.1,0.2,0.1l0,0l0,0
			c0.2,0,0.3-0.1,0.3-0.2v-0.1l0,0C184.8,210.7,184.7,210.6,184.5,210.5z"/>
		<path d="M186.2,211.5c0.1-0.2,0-0.4-0.1-0.5c-0.2-0.1-0.4,0-0.5,0.1l0,0c-0.1,0.2,0,0.4,0.1,0.5l0,0c0.1,0,0.1,0.1,0.2,0.1
			s0.2,0,0.2-0.1C186.1,211.6,186.1,211.6,186.2,211.5C186.1,211.5,186.2,211.5,186.2,211.5z"/>
		<path d="M183.3,211L183.3,211C183.3,211,183.3,211.1,183.3,211C183.4,211.1,183.4,211.1,183.3,211
			C183.4,211.1,183.4,211,183.3,211L183.3,211z"/>
		<path d="M187.7,213.1v-0.3h-0.1l0,0c-0.2,0-0.3,0.1-0.4,0.3l0,0l0,0l0,0l0,0c0,0.1,0,0.1,0,0.2l0.1,0.1c0,0,0,0,0.1,0h0.1l0,0l0,0
			c0.1,0,0.1,0,0.2-0.1V213L187.7,213.1z"/>
		<path d="M186.4,213.4C186.4,213.3,186.4,213.3,186.4,213.4c-0.1-0.2-0.2-0.2-0.3-0.3l0,0C186.2,213.2,186.3,213.3,186.4,213.4
			L186.4,213.4C186.5,213.4,186.5,213.4,186.4,213.4C186.5,213.4,186.5,213.4,186.4,213.4z"/>
		<path d="M188.8,209.3c0.1,0,0.1,0.1,0.2,0.1s0.1,0,0.2-0.1c0.1,0.1,0.2,0.2,0.3,0.3v-0.4h-0.3l0.1-0.1c0.1-0.2,0.1-0.4-0.1-0.5
			s-0.4,0-0.5,0.1c0,0,0,0,0,0.1v0.1v0.2C188.7,209.2,188.7,209.2,188.8,209.3L188.8,209.3z"/>
		<path d="M189.5,211c-0.1-0.2-0.3-0.3-0.5-0.2c-0.2,0.1-0.3,0.3-0.2,0.5l0,0c0.1,0.1,0.2,0.2,0.3,0.2c0,0,0.1,0,0.2,0
			C189.5,211.4,189.6,211.2,189.5,211L189.5,211z"/>
		<path d="M189.2,213.9L189.2,213.9C189.2,213.9,189.3,213.9,189.2,213.9c0.1-0.2,0.1-0.4-0.1-0.5c-0.1-0.1-0.3,0-0.4,0v0.2v0.3v0.1
			c0.1,0,0.1,0.1,0.2,0.1C189.1,214,189.2,214,189.2,213.9z"/>
		<path d="M189,215.4L189,215.4c-0.1,0-0.1,0.1-0.1,0.1c0.1,0.1,0.2,0.2,0.3,0.3c0.1,0.1,0.2,0.1,0.2,0.2c0.1-0.1,0.1-0.2,0.1-0.3
			v-0.1C189.4,215.4,189.2,215.3,189,215.4z"/>
	</g>
</g>
</svg>
