<svg xmlns="http://www.w3.org/2000/svg" viewBox="51.4 0 113.4 216"><path fill="none" d="M85.8 67.9c-3.9-3.9-6.1-20.2-6.1-20.2-2.8 7.8-11.5 12.5-11.5 12.5 1.6 1 6.1 8.6 6.6 11.7.5 3 3.3 5.8 4.2 7.5.9 1.7 3.5 1.7 3.5 1.7 1.7-.4 3-.1 3.8.1l-.5-13.3zM138.2 61.2s1.2-5-1.5-12.9c0 0-1.8 9.5-4.4 15.5 2.6-1 4.9-1.9 5.9-2.6zM100.6 21.9c-.7.2-1.3.4-1.7.5.7-.2 1.3-.3 1.7-.5z"/><path fill="#FFF" d="M122.5 157.8s.1-.9-.1-1.6c-5.1 1.5-15.3 3.3-32.4 1.9 1.1 7.7 1.1 13.1.5 17 1.4 2.6 2.6 5.7 3.5 9.6.1.2.1.4.1.7.3-.2 9-8.1 12.4-8.1 3 0 10.9 5.8 12.8 7.5v-1c.1-1.9.5-4.8 1.9-8.1-.7-3.9-.5-9.6 1.3-17.9z"/><path fill="none" d="M115.7 161.1c-.1 0-.1 0 0 0-.1 0 0 0 0 0zM115.7 161z"/><path fill="#217780" d="M115.7 161zm0 .1c-.1 0-.1 0 0 0-.1 0 0 0 0 0zM94.1 184.6c0-.1 0-.1 0 0 0-.1 0-.1 0 0 0-.1 0-.1 0 0zM91.7 178.3s0 .1 0 0l.1.1s-.1 0-.1-.1zM91.6 178.1c.1 0 .1 0 0 0v-.1.1zM91.7 178.3s0-.1 0 0z"/><path fill="none" d="M102.8 166.4zM119.7 176.5c0 .1.1.1.1.1 0-.1 0-.1-.1-.1zM120.1 176.3zM99 162.6c.1-.1.4-.1.5 0 0 .1.1.1.1.1.1-.1 0-.1.1-.1s.1 0 0-.1v-.1c.1-.1.4-.1.5.1.1.1.1.2 0 .4l-.2.2c-.1.1-.2.1-.2.1l-.2.2s0 .1-.1.1c-.1-.2-.3-.3-.5-.4-.2 0-.1-.4 0-.5zm-3.7 0c.1-.2.4-.2.5 0l.1.1c.1 0 .1 0 .1-.1.1-.2.2-.2.5-.1.1 0 .1.1.1.1.1.2.1.5-.1.6-.2.1-.3.2-.5.4-.1-.1-.3-.2-.4-.4-.4-.1-.4-.4-.3-.6zm-1.2 14.3c-.1-.1-.1-.1-.1-.2-.1 0-.1-.1-.1-.1l-.1-.1c-.1 0-.1-.1-.1-.1-.1-.1-.2-.3-.1-.4 0-.1.1-.2.1-.2.2-.1.3-.1.4.1l.1.1c.1-.1.1-.2.2-.2.1-.1.3 0 .4.1 0 .1.1.1.1.1.1.2-.1.3-.2.4-.1.1-.2.2-.4.3-.2.1-.2.1-.2.2.1 0 0 0 0 0zm-.6-12.3c.1-.2.4-.2.5 0 0 .1 0 .1.1.1.1-.1.2-.2.3-.2.1 0 .2.1.3.2.1.2.1.3-.1.4l-.2.2c-.1.1-.1.1-.2.1l-.1.1c-.1-.1-.2-.3-.4-.4-.1-.1-.2-.1-.2-.2-.1 0-.1-.1-.1-.1l.1-.2zm.6 4c-.1-.1-.1 0-.1-.1s-.1-.1-.1-.1c-.1 0 0-.1 0-.1-.1 0-.1-.1-.2 0 0 .1.1 0 .1 0 .1 0 .1.1.1.1h-.1c0 .1.1.1 0 .1 0 0-.1 0-.1-.1-.1-.1 0-.1-.1-.2l.1-.1c.1 0 .2 0 .2.1.1 0 .1.1.1.1 0 .1.1.1.1.1l.1-.1c.1-.1.2-.1.4-.1.1 0 .2.1.2.2.1.2.1.4-.2.5l-.3.3-.1.1c-.1-.2-.2-.3-.4-.4-.1-.1-.2-.2-.2-.4.1.1.2.1.5.1zm-.6 3.7c-.1-.1 0-.2.1-.2.1-.1.2-.1.4 0 .1.1.1.1.1.2.1 0 .1-.1.1-.1.1-.1.2-.2.4-.1.1.1.2.2.2.3v.2c0 .1-.1.2-.1.2-.2.1-.4.2-.5.4-.1 0-.1 0-.1-.1-.1-.1-.2-.2-.4-.3l-.2-.2c-.1 0-.1-.1-.1-.1 0-.1 0-.1.1-.2zm-1.5-9.8c0 .1.1.1.1.1.1 0 .1.1 0 .1 0 .1-.1.1-.1.1 0-.1-.1-.1-.1-.2.1 0 .1 0 .1-.1 0 .1 0 .1 0 0zm-.1 0c.1.1 0 .1 0 .1-.1 0-.1-.1 0-.1zm-.1 0s0 .1 0 0l-.1.1s0-.1.1-.1zm-.1.2c.1-.1.1-.1.2.1v.1h.1c.1 0 .1.1.1.2h.1l.1.1c0 .1-.1.1-.1.1 0 .1-.1.1-.1 0H92c.1.1.2.1.3.1.1 0 .1 0 .1.1.1 0 .1.1.1.1-.1.1 0 .1.1.1 0-.1 0-.1.1-.1 0-.1-.1-.1-.1-.1-.1-.1-.1-.1.1-.2 0 0 .1 0 .1-.1h-.1c0 .1 0 .1-.1.1h-.1v.1c-.1.1-.1 0-.1 0-.1-.1-.1-.1-.2-.1.1-.1.2-.2.2-.3.1-.1.4-.1.4.1.1.1.1.3 0 .4-.1.1-.1.2-.2.2l-.1.1c0 .1-.1.1-.1.1l-.1.1c-.1 0-.1 0-.1-.1l-.2-.2c-.1-.1-.1-.1-.2-.1s-.2-.1-.2-.2c0 0 0-.1-.1-.1.1-.1.1 0 .1-.1l-.1-.1h-.1c.2-.3.2-.3.3-.4zm-.1 3.9c.1-.1 0-.1 0-.1s0-.1.1-.1c0 0 .1-.1.1 0 0 0 .1 0 0 0-.1-.1 0-.1.1-.1.1-.1.2.1.4.2v.1h.1s.1 0 .1-.1c.1-.1.2-.2.4-.1 0 0 .1 0 0 .1 0 .1 0 .1.1.1h.1c.1 0 0 .1.1.1h.1l-.1.1c.1.1.1.2 0 .2v.1c.1.1.1.1 0 .1 0 .1-.1.1-.1.1H93c-.1-.1-.1 0-.2.1.1.1 0 .1-.1.1l-.1.1c0-.1-.1-.1-.1-.1-.1-.1-.1-.1-.2-.1.1-.1.2-.1.2-.1h-.1c-.1 0-.1.1-.1.1-.1 0-.2 0-.2-.1-.1-.1-.1-.1-.1-.2s0-.1.1-.1c0-.1-.1 0-.1 0-.1 0 0 0 0-.1h.1c.1.1.1.1.2.1 0-.1-.1-.1-.1-.1-.5-.3-.5-.3-.6-.3.1 0 0 0 0 0zm1.3.1c0 .1 0 0 0 0zm-3-2.1c.2-.3.4-.2.5.1.1 0 .1-.1.1-.1.1-.1.2-.1.3-.1.1.1.2.1.2.2.1.2 0 .4-.2.5-.1.1-.2.2-.3.2v.1c-.1.1-.1.1-.1 0l-.1-.1c-.1-.1-.2-.2-.4-.2s-.1-.1-.2-.2v-.1c0-.1 0-.2.2-.3zm.6 4s-.1 0 0 0c-.1 0-.1-.1-.1-.2 0 0 .1 0 .1.2 0-.1 0 0 0 0zm.4 4.1c-.1.1-.1.1-.2.1-.1.1-.1 0-.1 0 0 .1.1.1.1.1-.1.1-.1.2-.2.2v.1h-.1c-.1-.1 0-.1-.1-.1v-.1c.1-.1.1-.1.2 0v-.2c-.1 0-.1.1-.2.1 0 .1-.1 0-.1.1s-.1.1-.1 0c0 0-.1-.1 0-.1 0 0 .1-.1.1 0l.1.1v-.1l-.1-.1c0 .1.1 0 .1.1-.1 0-.2 0-.1.1-.2-.1-.3-.2-.4-.3v-.1s-.1-.1 0-.1c0-.2.1-.3.2-.4h.1c.1-.1.2.1.2.1.1 0 .1.1.1.1.1-.1.1-.2.2-.2s.2.1.3.1v.1h.1c.1.1-.1.1 0 .1h-.1c-.1 0-.1.1-.2 0-.1 0-.1 0-.1.1h.1s-.1 0 0-.1c.1 0 0 .1 0 .1.1.1.2 0 .2.2.1-.1.1 0 .1 0 .1-.2 0 0-.1 0zm-.2-.3zm.4-3.8c0 .2-.1.2-.2.4-.1.1-.2.2-.4.2l-.1.1c-.1-.2-.3-.3-.5-.4-.1-.1-.2-.2-.2-.4 0-.1 0-.1.1-.1 0-.1.1-.1.1-.1.1.1.1.1.1.2.1 0 .1.1.1-.1 0-.1 0-.1-.1-.1s-.1-.1 0-.1c0-.1.1-.1.1 0h.1c.1-.1.1-.1.2 0 .1 0 .1.1.1.1h-.2l-.1.1s0 .1-.1.1c.1.1.1.1.2.1.2 0 .3-.1.5 0-.1 0-.1-.1-.1-.1s0-.1-.1 0v-.1c0-.1.1-.1.1-.1s-.1-.1 0-.1.1-.1.1-.1c.1-.1.3.1.4.2v.1s0 .1-.1.1v-.1c-.1 0-.1.1-.1.1l.1.1c-.1 0-.1 0 0 0zm.7 9.2c-.1.1-.1 0-.1 0h.1zm.1 0c-.1 0-.1 0 0 0 0-.1 0-.1 0 0 .1-.1.1 0 0 0zm.3.2c0 .1-.1.1-.1.1H92l-.1-.1s.2-.1.3 0c0-.2 0-.1 0 0zm-.2-.2l.1-.1v.1c-.1 0-.1.1-.1 0zm.7-3.2c-.1.1-.1.1-.2.1l-.3.3-.3-.3-.1-.1v-.1h-.1c-.1 0-.1-.1-.1-.1 0-.1-.1-.1 0-.1h.1s0-.1.1-.1.1-.1.1.1c0 0 0 .1.1.1s.1 0 .1-.1c-.1 0-.1 0-.1-.1s0-.1-.1-.1c0 0-.1 0-.1-.1-.1 0-.1.1-.1.1-.1-.1-.1-.1 0-.2s.2-.2.3-.2c.1 0 .1.1.2.1l.1.1c.1.1.1.1 0 .1s-.1-.1-.1-.1 0 .1-.1.1c.1.1.1.1-.1.1 0 .1.1.1.1.1h.1c.1 0 .1-.1.1-.1.1 0 0 0 0-.1.1-.1 0-.1.1-.1 0-.1.1 0 .1-.1v-.1h-.2s0-.1.1-.1.1-.1.1-.1c.1 0 .1-.1.2.1h.1c.1 0 .1.1.1.1 0 .6 0 .8-.2.9zm.1-3.8c0 .1-.1.1-.1.1-.2.1-.3.2-.4.4l-.1-.1c-.1-.1-.2-.2-.3-.2s-.2-.1-.2-.3c-.1-.1 0-.1 0-.1 0-.1.1-.2.1-.3.1-.1.3-.1.4.1 0 .1.1.1.1.1.1-.1.1-.1.1-.2.2-.1.3-.1.4.1.2 0 .1.2 0 .4zm1.8 9.5l-.2.2c-.1.1-.2.2-.2.3l-.4-.4c-.1-.1-.2-.1-.2-.3-.1-.1 0-.2 0-.2s.1-.1.1-.2c.1-.1.4-.1.4 0l.1.1c-.1.1.1.1.1.1s0-.1.1-.1c.1-.1.2-.2.3-.2s.2.1.3.3c-.3.2-.3.3-.4.4zm.7-6.3c.1-.1.2-.2.3-.1.1 0 .1 0 .2.1s.1.1.1.2c.1-.1.2-.2.3-.2.1 0 .2.1.2.1.1.1.1.1.1.2v.1c0 .1-.1.2-.2.3-.2.1-.3.2-.4.4-.1-.1-.1-.1-.1-.2-.1-.1-.2-.1-.3-.2-.1 0-.1-.1-.1-.1-.1 0-.1-.1-.1-.2-.1-.1 0-.2 0-.4zm0-3.8c.1-.2.3-.2.4-.1l.2.2.1-.1c.2-.2.5-.1.5.2.1.2 0 .4-.2.5-.1.1-.2.1-.2.2s-.1.1-.1.2c-.1-.2-.3-.3-.5-.4-.3-.2-.3-.5-.2-.7zm1.1 12c-.1.1-.1.1-.2.1-.1.1-.1.1-.2.1 0 .1-.1.1-.1.2-.1-.2-.3-.3-.4-.4-.2-.2-.2-.5-.1-.7.1-.1.3-.1.4 0l.1.1.2-.2c.1-.1.4-.1.4.1.1.4.1.6-.1.7zm0-3.8c-.1.1-.2.1-.2.2-.1.1-.2.1-.2.2-.1-.2-.3-.2-.5-.4s-.2-.4-.1-.6c.1-.2.4-.2.5 0 0 .1.1.1.1.1 0-.1.1-.1.1-.1.1-.2.4-.1.5.1 0 .2-.1.4-.2.5zm0-11.4c-.1.1-.2.1-.3.2l-.1.1c-.1-.2-.4-.3-.5-.4-.1-.1-.1-.1-.1-.2s0-.3.1-.4c.1-.1.3-.1.4 0l.1.1s0 .1.1 0l.2-.2c.2-.1.4 0 .4.2-.1.3-.1.5-.3.6zm.7-2.5c.1-.2.3-.2.5-.1l.1.1c.1 0 .1-.1.1-.1.1-.1.2-.2.3-.2s.2.1.2.2c.1.2.1.4-.2.5-.2.1-.3.2-.4.4-.1-.2-.3-.3-.5-.4-.2 0-.2-.2-.1-.4zm1.1 4.4c-.2.1-.4.2-.4.4h-.1l-.4-.4c-.1 0-.1-.1-.1-.1-.2-.2-.1-.6.1-.7s.2 0 .4.1c.1 0 0 .1 0 .1.1 0 .1-.1.1-.1.1-.1.1-.1.2-.1s.2-.1.2 0c.1.1.2.1.1.2l.1.1c0 .3 0 .5-.2.5zm-1.1 3.2c.1-.2.4-.2.5 0 0 .1.1.1.1.1l.2-.2c.2-.1.3-.1.4.1.1.2.1.3 0 .5 0 .1-.1.1-.1.1-.1.1-.2.1-.2.2-.1.1-.1.2-.2.2l-.1-.1-.2-.2c-.2-.1-.3-.2-.3-.4-.1 0-.1-.2-.1-.3zm1.1 4.3c0-.1-.1-.1-.1-.1v-.1c-.1 0-.1 0-.1.1-.1 0-.1 0-.2.1l.1.1c-.1.1-.1-.1-.1-.1l-.1.1v.1c.1 0 .1.1.1.1l-.1.1-.1.1c-.1-.2-.2-.2-.4-.4-.2-.1-.2-.4-.2-.5.1-.2.3-.2.5-.1l.1.1c.1 0 .1-.1.1-.1s0-.1.1-.1c.1-.1.1-.1.2-.1s.1 0 .2.1h-.1c0 .1.1 0 .1.1.1.1.1.1.1.2v.1s-.1 0 0 .1c.1 0 0 .1 0 .1h-.1zm.1.1s-.1 0 0 0l-.1.1v-.1s0-.1.1 0c-.1-.1-.1-.1 0 0zm-.2 0s0-.1 0 0c0-.1 0 0 0 0zm.1 3.9c-.1.1-.2.1-.2.2-.1.1-.1.2-.2.2s-.1-.1-.1-.1c-.1-.1-.2-.2-.4-.3l-.2-.2c-.1-.1-.1-.2-.1-.4.1-.1.1-.2.2-.2s.2.1.3.1c0 .1.1.1.1.1l.1-.1c.1-.1.2-.1.3-.1s.2.1.2.2c.2.2.2.4 0 .6zm.9-14.1c.1-.1.3 0 .4.2l.1.1.2-.2c.2-.1.4-.1.4.1.1.3 0 .5-.2.6l-.4.4c-.1-.1-.3-.3-.5-.4-.1-.1-.2-.2-.2-.3 0-.2.1-.5.2-.5zm.9 12.1c-.1.1-.1.1-.2.1s-.1.1-.2.2c0 .1-.1.1-.1.1h-.1c-.1-.2-.2-.2-.4-.4-.2-.1-.2-.3-.2-.5.1-.1.1-.2.2-.2s.2.1.3.1l.1.1c.1 0 .1-.1.1-.1 0-.1 0-.1.1-.1h.1c.1-.1.2-.1.3 0 .3.3.3.6 0 .7zm-1-4.4c.1-.2.4-.2.5-.1l.1.1.1-.1c.1-.1.2-.1.3-.1.1.1.2.1.2.2.1.2 0 .4-.2.5-.2.1-.3.2-.5.4-.1-.2-.2-.3-.4-.4-.1-.1-.2-.1-.2-.3 0 .1 0 0 .1-.2zm1-3.2c-.2.1-.3.2-.4.4-.1-.2-.3-.3-.5-.4-.2-.1-.2-.4-.1-.6.1-.2.4-.2.5-.1 0 .1.1.1.1.1.1 0 .1-.1.1-.1.1-.1.2-.2.3-.1.1.1.2.1.2.2.1.3 0 .5-.2.6zm.8-6.3c.1-.1.2-.2.3-.1.1.1.2.1.2.3l.1-.1s0-.1.1-.1c.2-.1.4-.1.5.1.1.2.1.4-.2.5-.1.1-.2.1-.2.2-.1.1-.1.2-.2.2-.1-.2-.3-.3-.4-.4-.3-.2-.3-.5-.2-.6zm1.1 12c-.1.1-.2.1-.2.2l-.1.1c-.1.1-.1.1-.1 0-.1-.1-.2-.2-.4-.3s-.2-.4-.1-.6c.1-.2.3-.2.5-.1l.1.1c.1 0 .1-.1.1-.1.1-.1.2-.2.4-.1.1.1.2.1.2.2-.2.4-.3.6-.4.6zm0-3.8c-.2.2-.4.2-.5.4-.1 0-.1-.1-.1-.1l-.2-.2-.3-.3c-.1-.2 0-.5.2-.5.1-.1.2 0 .3.1 0 .1.1.1.1.1.1-.1.1-.2.2-.2.1-.1.3 0 .4.1.1.3.1.4-.1.6zm0-3.8c-.2.1-.3.2-.5.4-.1-.2-.2-.3-.4-.4l-.2-.2c-.1-.2-.1-.3 0-.5s.3-.2.5-.1l.1.1c.1 0 .1-.1.1-.1.1-.1.2-.2.3-.1.1 0 .2.1.2.2.1.5 0 .7-.1.7zm12-6.3c.1 0 .1 0 0 0 0 .1.1.1 0 .1v-.1c-.1 0-.1 0 0 0zm-.1-.1c0 .1 0 .1 0 0 0 .1 0 .1 0 0zm-.2.1c.1-.1.1 0 .1.1v.1s.1 0 .1.1h.1s.1 0 .1.1-.1.1-.1.1h-.1c-.1-.1-.1 0-.1.1.1 0 .1 0 .1.1h.1c.1.1.1.1.1 0 0 0-.1 0-.1-.1-.1-.1-.1-.1 0-.1s.1 0 .1-.1h.1c0 .1.1.1.2.1 0 .1 0 .1-.1.1s.1 0 0 .1c0 .1-.1 0-.1 0-.1-.1-.1 0-.1-.1s-.1 0-.1 0c0 .1.1.1.1.1.1 0 .2.1.2 0 0 0 .1 0 0 .1v.2s-.1.1 0 .1h.1c-.1-.1.1-.1.1-.1s0-.1.1-.1c-.1-.1-.1 0-.1-.1s-.1 0-.1-.1l-.1-.1c-.1 0-.1 0-.1-.1v-.2c-.1 0-.1.1-.1.1s-.1 0-.1-.1c-.1 0-.1-.1 0-.1.1-.1.1-.1.2 0l.1.1.2-.2c.1-.1.2-.1.4 0l.1.1s.1 0 0 .1c0 .1.1.2 0 .4 0 .1-.1.1-.1.1 0 .1-.1.1-.1.1-.1.1-.2.2-.4.3-.1.1-.1.1-.1 0l-.1-.1c-.1 0-.1-.1-.1-.1-.1 0-.1-.1-.1-.1-.1 0-.1-.1 0-.1h-.1c-.3-.4-.3-.7-.2-.8zm.2 3.7s0 .1 0 0c0 .1 0 .1 0 0-.1 0 0 0 0 0zm-.3.1l.1-.1h.1s.1 0 .1-.1.1-.1.1-.1l.1.1c.1 0 .1.1.1.1.1-.1.1-.2.1-.2.1 0 .1-.1.1-.1.1 0 .1 0 .1.1v.1c.1-.1.1 0 .1.1.1.1.1.1 0 .2.1.1.1.1.1.2 0 0-.1.1-.1 0 0 0 0-.1-.1-.1v.2c0 .1-.1.1-.1.1-.1.1-.1.1-.1 0h-.1v.1h.1l-.1.1h-.1c0 .1-.1.1-.1.1.1-.1-.1-.1-.1-.1l-.1-.1c-.1-.1-.1-.1 0-.1.1-.1.1-.1.1 0h.1s-.1.1 0 .1.1 0 .1-.1-.1-.1-.1-.1v-.1V166.4c.1-.1 0-.2-.1-.2h.2v.1h-.2s-.1 0-.1-.1.1 0 .1-.1c-.1-.1-.1-.1-.2-.1s-.1.1-.1.1c0 .1 0-.1-.1 0v.1s.1 0 0 0h.1-.1c0 .1.1.1.1.2l.1-.1v-.1s.1 0 .1.1c-.1.1 0 .1.1.1s0 .2 0 .2h-.2l-.1-.1v-.1zm.5.6h-.1.1zm-.1-.3c.1 0 .1 0 0 0 .1 0 .1 0 0 0zm.1.1s.1 0 0 0l.1.1c.1 0 .1.1.1.1s0 .1-.1.1c0 0-.1 0-.1-.1s0-.1-.1-.1c.2 0 .1 0 .1-.1 0 .1 0 .1 0 0zm0-.1c.1 0 .1 0 0 0 .1 0 .1 0 0 0zm.1 0c.1 0 .1 0 0 0 .1 0 .1 0 0 0zm-.1.2c.1 0 .1.1 0 0 0 .1 0 .1 0 0 0 .1 0 .1 0 0 0 .1 0 0 0 0zm-2.2-2.4c.2-.1.4-.1.5.1 0 .1.1.1.1.1.1 0 .1-.1.1-.1.1-.1.2-.2.3-.1.1 0 .2.1.2.2.1.2 0 .4-.2.5l-.2.2-.2.2-.1-.1-.2-.2c-.1-.1-.2-.1-.2-.2-.2-.2-.2-.5-.1-.6zm-3.2-.4c-.1 0-.1-.1-.1-.1s.1 0 .1.1zm-2.3-1.5c.1-.2.4-.1.5.1 0 0 0 .1.1.1.1-.1.1-.2.2-.2.2-.1.3.1.4.2.1.2 0 .4-.2.5-.2.1-.3.2-.4.4-.1-.2-.3-.3-.5-.4-.2-.2-.2-.5-.1-.7zm0 3.8c.1-.2.4-.2.5-.1.1.1.1.1.1.2.1-.1.1-.2.2-.2.1-.1.2-.1.4 0 .2.2.2.4.1.5l-.1.1c-.2.1-.3.2-.4.4-.1-.2-.2-.3-.4-.4-.5 0-.5-.2-.4-.5zm-1.9-1.7c0-.1 0-.2.1-.2.2-.1.4-.1.5.1 0 .1 0 .1.1.1 0-.1.1-.2.2-.2s.2.1.3.1c.1.1.1.2.1.3s0 .2-.1.2-.1.1-.1.1c-.2.1-.3.2-.4.4-.1-.2-.3-.3-.5-.4-.2-.2-.2-.3-.2-.5zm1.1 4.2c-.1.1-.2.1-.2.2-.1.1-.1.2-.2.2-.1-.2-.2-.3-.4-.4-.2-.2-.3-.4-.2-.7.1-.2.4-.2.5 0v.1s.1 0 .1-.1c.1-.1.1-.2.2-.2s.2.1.3.2c.2.3.1.5-.1.7zm-1.8 5.7c-.2.1-.3.2-.4.4-.1-.2-.3-.3-.5-.4-.2-.1-.2-.4-.1-.6.1-.1.3-.1.4-.1.1.1.1.1.1.2l.1-.1c.1-.1.2-.1.3-.1.1.1.2.1.2.2.1.3 0 .4-.1.5zm0-3.8c-.2.1-.4.2-.5.4-.1-.2-.2-.3-.4-.4-.2-.1-.3-.3-.2-.5.1-.1.1-.2.2-.2s.2.1.3.2c0 0 0 .1.1.1 0-.1.1-.2.2-.2.1-.1.3-.1.4.1.1.1.1.4-.1.5zm-1.1-4.2c0-.1 0-.1.1-.2.2-.2.4-.2.5.1 0 0 0 .1.1.1.1-.1.2-.2.3-.2.1 0 .1 0 .2.1 0 0 .1 0 .1.1v.1c.1.2.1.5-.1.5-.2.1-.3.2-.4.4-.1-.2-.3-.3-.5-.4-.3-.3-.3-.5-.3-.6zm1.2-3.5c-.1.1-.1.1-.1.2-.1.1-.1 0-.1 0 0 .1 0 .1-.1.1-.1.1-.1.1-.2.1s-.1.1-.2.2c-.1-.2-.3-.3-.5-.4-.2-.2-.2-.5-.1-.6.1-.2.4-.2.5 0 0 .1.1.1.1.1.1-.1.1-.1.1-.2.2-.1.4-.1.4.1.3.1.3.2.2.4zm1.7 13.4c-.1.1-.2.1-.2.2l-.2.2c-.1-.2-.3-.3-.5-.4s-.2-.4-.1-.6c.1-.2.4-.2.5-.1l.1.1c.1-.1.1-.2.2-.2.2-.1.3 0 .4.2 0 .3.1.5-.2.6zm0-3.7c-.2.1-.3.2-.4.4-.1-.2-.3-.3-.5-.4-.2-.2-.2-.4-.1-.7.1-.1.3-.2.4 0l.1.1c0-.1.1-.1.1-.1.1-.1.2-.2.3-.1.1 0 .2.1.2.2.1.3.1.4-.1.6zm.8-2.6c.1-.2.4-.2.5-.1 0 0 0 .1.1.1l.1-.1c.1-.2.3-.2.5-.1.1.1.1.1.1.2.1.2.1.4-.1.5l-.1.1c-.2.1-.3.2-.4.4 0 0-.1 0-.1-.1-.1-.1-.2-.2-.4-.3-.3-.1-.3-.3-.2-.6zm1 4.4c-.2.1-.3.2-.4.4 0-.1-.1-.1-.1-.1l-.2-.2c-.1-.1-.1-.1-.2-.1-.2-.2-.2-.4-.1-.6.1-.2.4-.2.5 0 0 .1.1.1.1.1 0-.1.1-.1.1-.1.2-.2.4-.1.5.1.1.2 0 .4-.2.5zm2 1.7c0 .1-.1.2-.2.2-.1.1-.2.1-.3.2-.1.1-.1.2-.2.2l-.4-.4s0-.1-.1-.1-.1-.1-.2-.2-.1-.3 0-.4c.1-.2.4-.2.5-.1 0 0 0 .1.1.1l.2-.2c.2-.1.4 0 .4.2.2.4.2.4.2.5zm-.2-3.5c-.1.1-.2.1-.2.2l-.2.2-.3-.3c-.1-.1-.2-.1-.2-.2l-.1-.1v-.2c0-.1.1-.3.2-.3s.2 0 .4.1c0 0 0 .1.1.1.1-.1.1-.2.2-.2.2-.1.4 0 .4.2s-.1.3-.3.5zm0-3.9l-.2.2-.2.2c-.1-.2-.2-.3-.4-.4-.1-.1-.2-.2-.2-.3v-.1c.1-.1.1-.1.1-.2s.1-.2.2-.2.1 0 .2.1.1.1.1.2c.1 0 .1-.1.1-.1 0-.1.1-.2.2-.2s.2.1.3.2c.1.3.1.5-.2.6zm0-3.8c-.1.1-.2.1-.2.2-.1.1-.1.2-.2.2-.1-.2-.3-.3-.5-.4-.1-.1-.2-.4-.1-.5.1-.2.2-.2.4-.2.1 0 .2.1.2.2 0 0 0 .1.1.1.1-.2.3-.3.4-.2.1 0 .1.1.1.1.1.1 0 .4-.2.5zm.9 5c.1-.1.4-.1.5.1 0 0 0 .1.1.1l.1-.1c.2-.2.4-.1.5.1.1.2 0 .5-.2.6-.1.1-.2.1-.3.2 0 .1-.1.1-.1.1-.1-.2-.3-.3-.5-.4s-.3-.5-.1-.7zm0-3.7c.1-.1.3-.1.4 0 .1.1.1.1.1.2l.1-.1c.1-.1.2-.2.3-.1.1.1.2.2.2.3.1.2-.1.4-.3.5l-.3.3-.1.1c-.1-.2-.3-.3-.4-.4-.2-.3-.1-.7 0-.8zm1 8.2c-.2.1-.3.2-.4.4l-.1.1c-.1-.2-.2-.2-.4-.4-.3-.2-.3-.4-.2-.6.1-.2.4-.2.5-.1l.1.1c.1-.1.1-.2.2-.2s.3 0 .4.2c.1.2.1.4-.1.5zm0-11.3c-.2.1-.3.2-.4.4-.1-.2-.2-.2-.4-.4l-.2-.2c-.1-.1-.1-.1-.1-.2s0-.2.1-.3c.1-.2.4-.2.5 0 0 0 0 .1.1.1 0-.1.1-.1.1-.2.2-.1.4-.1.5.1.1.3-.1.5-.2.7zm1.9 13.2l-.1.1-.3.3c0 .1-.1.1-.1.1-.1-.2-.2-.2-.4-.4-.2-.1-.3-.4-.2-.6.1-.2.4-.2.5-.1l.1.1.2-.2c.1-.1.3-.1.4.1.1.3.1.4-.1.6zm-1-4.4c.1-.1.3-.1.4.1 0 .1.1.1.1.1l.1-.1c.2-.2.4-.1.5.1.1.2 0 .4-.2.5-.1.1-.2.1-.2.2l-.2.2c-.1 0-.1-.1-.1-.1-.1-.1-.2-.2-.3-.2-.1-.1-.1-.1-.2-.1-.1-.3-.1-.6.1-.7zm1-3.2c-.1 0-.1.1-.1.1-.2.1-.3.2-.4.4l-.1-.1c-.1-.1-.3-.2-.4-.3-.2-.1-.2-.5.1-.7.1-.1.3-.1.4.1l.1.1c.1-.1.1-.2.2-.2s.2 0 .3.1c.1 0 .1.3-.1.5zm1.4 5.1c.1-.1.1-.1.2-.1 0 .1.1.1.1.1.1 0 .1.1.1.1.1.1.1.3 0 .4l-.2.2c-.1.1-.3.2-.4.4l-.3-.3s0-.1-.1-.1c-.2-.1-.3-.3-.2-.5.1-.2.2-.2.4-.2.1 0 .1.1.2.1 0 0 0 .1.1.1s.1.1.1.1c-.1-.2 0-.2 0-.3zm.5 4.4c-.1 0-.1 0 0 0l-.1.1c-.1.1-.2.2-.3.2l-.1.1s-.1 0-.1-.1-.1-.1-.1-.1c-.1 0-.1 0-.1-.1-.1 0-.1 0-.1-.1-.1 0-.1-.1-.1-.1-.1 0-.1-.1-.1-.2-.1-.1 0-.2.1-.4 0-.1.1-.1.1-.1.1 0 .1 0 .1.1.1 0 0-.1.1-.1h.1s.1 0 0 .1h.1c.1 0 .1 0 .1.1.1 0 .1 0 .1.1h-.1c0 .1-.1.1 0 .2.1-.2.1-.3.2-.4 0-.1.1-.1.2-.1s.2.1.2.1.1 0 .1.1c-.2.3-.2.4-.3.6zm-.1-7.6l-.1.1-.4.4-.1-.1c-.1-.1-.2-.2-.3-.2-.3-.2-.3-.4-.2-.6.1-.2.4-.2.5-.1v.1l.1.1c.1-.1.1-.1.1-.2.2-.1.3-.1.4.1.2 0 .2.2 0 .4zm6.1-8.1c.1-.1.1-.2.2-.2s.2.1.3.2c0 0 .1.1 0 .1.1-.1.1-.2.2-.2.2-.1.4-.1.4.1.1.1.1.2.1.3 0 .1-.1.2-.2.3-.1.1-.1.1-.2.1s-.1.1-.1.1l-.2.2-.1-.1c-.1-.1-.2-.2-.4-.2v-.7zm1.3 4.2c-.1.1-.1.1-.1.2-.2.1-.3.2-.5.4-.1-.1-.1-.2-.2-.2s-.1-.1-.1-.1c-.1-.1-.1-.1-.2-.1-.2-.1-.2-.5-.1-.7.1-.1.2-.1.4 0 .1.1.1.1.1.2.1-.1.1-.2.2-.2.1-.1.4-.1.4.1.1.1.2.2.1.4zm-1.3 3.4c.1-.3.4-.2.5-.1 0 .1.1.1.1.1l.1-.1c.1-.1.2-.1.3-.1s.2.1.2.2c.1.2 0 .4-.2.5-.2.1-.3.2-.4.4-.1-.2-.3-.3-.4-.4-.2-.1-.2-.3-.2-.5zm-1.7-9.6c.1-.2.4-.2.5 0l.1.1c.1 0 .1-.1.1-.1.1-.1.2-.2.3-.2s.2.1.2.2.1.1 0 .1v.1c.1.2-.1.2-.2.3-.1.1-.1.1-.1-.1 0-.1-.1 0-.1 0l-.1.1s.1 0 .1.1l-.2.2c-.1-.2-.3-.3-.5-.4-.2.1-.2-.2-.1-.4zm-1.8 1.9c.1-.1.4-.1.5 0 0 .1.1.1.1.1.1 0 .1-.1.1-.1.1-.1.3-.2.4-.1.1 0 .1.1.1.1.1.2.1.4-.1.6-.2.1-.3.2-.4.4 0 .1-.1 0-.1 0-.1-.1-.2-.2-.4-.3-.1 0-.1-.1-.1-.1-.3-.2-.2-.5-.1-.6zm-.1 4.1c0-.1 0-.2.1-.4s.3-.1.4.1c0 0 0 .1.1.1l.2-.2c.2-.1.4 0 .4.2.1.2.1.4-.2.5-.1 0-.1.1-.1.1 0 .1-.1.1-.1.1l-.1.1c0 .1-.1.1-.1.1-.1-.2-.4-.3-.5-.5-.1 0-.1-.1-.1-.2zm-1.8-2.2c.1-.1.2-.1.3-.1s.2.1.2.2 0 .1.1.1c0-.2.1-.2.2-.2s.2.1.2.1c.1.1.1.3.1.5l-.2.2c-.2.1-.3.2-.4.4-.1-.1-.2-.3-.4-.4-.1-.1-.2-.2-.2-.4.1-.1.1-.3.1-.4zm0 4.1c.1-.1.1-.1.1-.2l.1-.1c0-.1.1 0 .1 0 .1-.1.2-.1.3-.1.1 0 .2.1.2.2.1-.1.1-.2.2-.2.1-.1.2-.1.2 0 .1.1.2.2.2.3.1 0 0 .1 0 .1 0 .2-.1.3-.2.4-.1.1-.2.1-.2.2l-.2.2c-.1-.2-.3-.3-.5-.4-.3-.1-.3-.3-.3-.4zm1.1 11.7c-.2.2-.4.2-.5.5-.1-.2-.3-.3-.5-.4-.2-.1-.2-.5-.1-.7.1-.1.1-.1.2-.1h.1c.1 0 .1.1.2.1s.1.1.1.1c0 .1.1.1.1.1l.1-.1c0-.1.1-.2.2-.2s.2 0 .2.1c.1.2.1.4-.1.6zm-.1-3.8c-.1.1-.2.1-.3.2-.1 0-.1.1-.1.1s-.1.1-.1 0l-.3-.3s-.1 0-.1-.1c-.2-.2-.2-.4-.1-.5s.3-.2.4-.1c.1 0 .1.1.2.2.1-.1.1-.2.2-.2s.3 0 .4.2c0 .1.1.1.1.1 0 .2-.1.4-.3.4zm0-3.7l-.2.2-.2.2c-.1 0-.1-.1-.1-.1-.1-.1-.2-.2-.4-.2s-.1-.2-.2-.3v-.1c.1-.1 0-.1 0-.1s0-.1.1-.1c0-.1.1-.1.1-.1.2-.1.3 0 .4.2.1 0 .1-.1.1-.1.1-.1.2-.2.3-.2s.2.1.2.2c.2.2.1.3-.1.5zm1.8 1.8c0 .1-.1.1-.1.1l-.3.3c-.1-.1-.1-.1-.1-.2-.1-.1-.2-.1-.2-.2l-.3-.3c-.1-.1.1-.4.1-.5.1-.1.2-.1.4 0 .1.1.1.1.1.2l.2-.2c.2-.1.4-.1.4.1v.1c.1.3 0 .5-.2.6zm-.9 3.2c.1-.1.4-.2.5 0 0 .1.1.1.1.1.1 0 .1-.1.1-.1.1-.1.2-.1.3-.1s.2.1.2.2c.1.2-.1.4-.2.5-.1.1-.2.2-.4.2-.1 0-.1.1-.1.1-.1-.2-.3-.3-.5-.4-.1 0-.1-.1-.1-.1-.1 0 0-.2.1-.4zm1 4.4c-.1.1-.2.1-.2.1-.1.1-.1.2-.2.2-.1-.2-.3-.3-.5-.5s-.2-.4-.1-.6.3-.2.5 0l.1.1.2-.2c.2-.1.4-.1.4.1 0 .5 0 .7-.2.8zm0-11.4c-.1.1-.2.1-.3.2v.1s-.1.1-.1.2l-.3-.3c-.1-.1-.1-.1-.2-.1-.2-.2-.2-.4-.1-.6.1-.1.3-.2.4-.1.1.1.1.1.1.2.1-.1.1-.2.2-.2.1-.1.3 0 .4.1.1.1.1.4-.1.5zm.8-6.3c.1-.2.3-.2.5 0l.1.1c.1 0 .1-.1.1-.1.1-.1.2-.2.3-.1.1 0 .2.1.2.2.1.2 0 .4-.2.5-.1.1-.2.1-.2.2l-.2.2c-.1 0-.1-.1-.1-.1-.1-.2-.3-.2-.4-.4-.3-.1-.2-.3-.1-.5zm-.1 3.9c.1-.1.1-.2.3-.2.1 0 .2.1.3.2 0 0 .1.1.1 0 .1-.1.1-.2.2-.2.2-.1.3 0 .4.2 0 .1.1.1.1.2.1.2-.1.3-.2.4-.2.1-.4.2-.5.4-.1-.2-.2-.3-.4-.4-.3-.1-.3-.4-.3-.6zm1.1 4.3c-.2.1-.4.2-.4.4-.1 0-.1-.1-.1-.1-.1-.1-.2-.2-.3-.2s-.2-.1-.2-.2c-.1-.2-.1-.4.1-.5.1-.1.4-.1.5 0l.1.1c.1 0 .1-.1.1-.1.2-.2.4-.2.5.1 0 .2-.1.4-.3.5zm-1 3.3c.1-.2.3-.2.5-.1l.1.1h.1c.1-.1.2-.2.3-.2s.2.1.2.2c.1.1.1.1.1.2s-.1.1 0 .2v.1l-.2.2h-.1c-.1 0 0 0 0 0v-.1h-.1c-.1 0-.1.1-.1.1 0 .1 0 .1.1.1l-.1.1c-.1.1-.2.1-.1.2l-.3-.3s-.2-.1-.3-.2c-.2-.4-.2-.5-.1-.6zM89.1 162.9z"/><path fill="none" d="M92.3 166.7v.1s0 .1.1.1h.1c.1 0 0 .1 0 .1h.2s.1 0 0-.1c-.1 0-.1-.1-.1-.1v-.1s-.1-.1 0-.1c0-.1 0-.1-.1-.1h-.1l-.1.1v.1c0-.1-.1 0-.1-.1s-.1 0-.1 0-.1 0 0 .1h.1.1zm.2 0c0-.1 0-.1 0 0 .1 0 .1 0 0 0 .1 0 .1 0 0 0s-.1 0 0 0c-.1 0-.1 0 0 0zM92.2 166.8c-.1 0-.2-.1-.2 0h.2zM115.5 168.5c-.1-.1-.1 0-.1.1l.1-.1c0 .1 0 .1 0 0zM91.9 166.6c0-.1 0-.1 0 0zM115.5 176.1c0-.1 0-.1 0 0zM115.6 168.3c-.1 0 0 0 0 0zM116.1 180.4zM115.5 164.9c-.1 0-.1 0 0 0 0 .1 0 0 0 0zM92.6 178.6c0-.1-.1-.1 0 0-.1-.1 0-.1 0 0zM115.6 168.3s.1 0 0 0l.1.1v-.1h-.1zM116.3 164.9c0 .1 0 .1 0 0 0 .1 0 .1 0 0zM115.7 168.4c0 .1 0 .1-.1.1v.2H115.9c-.1 0-.1-.1-.1-.1 0-.2 0-.2-.1-.2zM115.6 176.4c0 .1 0 .1 0 0 .1.1.1 0 0 0 .1 0 .1 0 0 0zM116 164.7c.1 0 0 0 0 0 0-.1 0-.1 0 0s0 .1 0 0zM118.2 174.2zM120 165.1zM117.9 178.4zM117.8 182.2zM93.6 183.7c-.1 0-.1 0 0 0-.1.1 0 .1 0 .2v-.2zM91.8 166.6c0-.1 0 0 0 0 0-.1 0-.1 0 0zM116 172.9zM118.1 174.6zM115.7 176.2 117.3 174.3zM117.7 174.6c.1 0 0 0 0 0zM117.8 174.6zM90.3 172.4c-.1.1-.1.1 0 .1h.1c0-.1 0-.1-.1-.1zM96.4 166.7c0 .1 0 .1 0 0 .1.1.1.1 0 0 .1 0 .1 0 0 0zM96.3 166.8c.1.1.1 0 .1 0s0-.1-.1 0c.1-.1.1-.1 0 0zM92.3 170.7s-.1 0 0 0c-.1 0 0 0 0 0zM96.3 182h.2c0-.1-.1-.1-.1-.1s0 .1-.1.1zM98.1 168.5c0 .1 0 .1 0 0 0 .1 0 .1 0 0zM99.6 178c0 .1 0 .1 0 0 0 .1 0 .1 0 0zM99.4 166.6zM96.2 181.9zM92.6 170.7zM96 174.8l-.1.1h-.1.1c0-.1 0-.1.1-.1zM92.6 170.7zM95.3 174.3zM96.1 182.1zM95.9 182.2zM107 167c0 .1-.1.1 0 .1v-.1zM107.1 166.6zM106.9 163.4zM114.4 166.7l.1-.1h-.1s.1 0 0 .1c-.1-.1-.1-.1 0 0-.1 0 0 0 0 0zM106.9 167.1c0-.1 0-.1 0 0zM101.5 176.7zM103.7 166.4s0-.1 0 0zM114.3 162.9zM114.5 167zM114.4 162.9c.1 0 .1 0 0 0 .1 0 .1 0 0 0zM101.4 172.4s0 .1 0 0c0 .1 0 0 0 0zM114.6 162.8c0-.1 0-.1 0 0h-.1s-.1-.1 0-.1c0-.1 0 0-.1 0-.1.1-.1.1 0 .1s.1.1.1.1c0-.1 0-.1.1-.1zM114.5 166.7c-.1.1-.1.1-.2 0v.1s0 .1.1.1.1-.1.1-.2zM101.6 164.6zM90 164.9zM90 165zM90.5 164.9zM90.9 164.9zM90 164.8l.1.1c.1 0 .1 0-.1-.1.1 0 .1 0 0 0 .1 0 .1 0 0 0 .1 0 .1 0 0 0 0 .1 0 0 0 0v-.1-.1c-.1.1.1.1-.1.2h.1zM93.8 184.2c-.1 0-.1-.1-.1-.1.1.2.1.4.2.7.1-.1.2-.2.3-.2-.2-.2-.4-.3-.4-.4zM90.3 172.1zM90.8 172.6c0 .1 0 .1 0 0 0 .1 0 .1 0 0 0 .1 0 .1 0 0 .1.1.1 0 .1 0h-.1zM90.5 169zM90.2 168.8c0 .1 0 .1 0 0 0 .1 0 0 0 0zM92.1 170.4zM92.4 174.5c-.1 0-.1.1-.1.1.1 0 .1 0 .1-.1.2.1.1 0 0 0 .1 0 .1 0 0 0zM90.7 172.1zM90.7 168.3c.1 0 .1 0 0 0 .1 0 .1 0 0 0zM90.5 172.6c0 .1 0 0 0 0 0 .1 0 .1 0 0zM90.1 172.2c.1-.1.1 0 .1 0h-.1c-.1 0-.1 0 0 0-.1.1-.1.1 0 0z"/><path fill="none" d="M90.2 172.2c.1.1.1.1.1 0l-.1-.1c-.1.1-.1 0-.2.1h.2zM102.9 166.4zM90.2 172.4h-.1c0 .1.1.1.1.2-.1 0-.1.1-.2.1h.1c.1-.1.1-.1.1-.3.1.1.1.1.1 0 0 0-.1-.1-.1 0zM90.1 172.7s.1 0 0 0c.1 0 .1 0 0 0zM90.1 172.5zM117.8 182.4c.1 0 .1 0 0 0 .1 0 .1 0 0 0 .1 0 .1 0 0 0 .1 0 .1 0 0 0zM93.7 168.4zM94.1 164.8s0-.1 0 0c0-.1 0-.2 0 0 0-.1 0-.1 0 0zM114.4 178c.1 0 .1 0 .1-.1-.1 0-.2 0-.1.1zM94 172.5s.1 0 0 0c.1 0 0 0 0 0zM94.2 164.8c0-.1-.1-.1-.1-.1 0 .2 0 .1.1.1zM114.3 178.6s0-.1 0 0c0-.1 0-.1 0 0zM114.3 178.1c-.1 0-.1 0 0 0h-.1c-.1.1 0 .1.1 0zM114.4 178.3l-.1-.1v.1h.1l-.1.1c.1.1.1.1 0 .1h.1s-.1-.1.1-.1c-.1 0 0 0-.1-.1zM114.5 178.1zM114.5 177.8zM92.2 163.4c-.1 0-.1 0 0 0s.1 0 0 0zM92.5 162.6c-.1 0-.1.1-.1.1v0h.1v-.1c0 .1.1 0 0 0zm0 .1zM115.7 161.2s-.1 0 0 0c-.1 0-.1 0 0 0-.1.1-.1.1 0 0-.1.1 0 0 0 0zM92.7 162.8s.1 0 0 0c0-.1 0-.1 0 0 0-.1 0 0 0 0zM93.8 176.3s.1 0 0 0c.1 0 0 0 0 0zM96.1 162.7zM110.7 166.7zM95.5 162.9c-.1 0-.1 0-.1-.1 0 .1 0 .1.1.1zM93.7 176.4s0 .1 0 0c0 .1 0 0 0 0 0 .1 0 0 0 0zM91.8 163c.1 0 .1.1.2.1 0-.1-.1-.2-.2-.1 0-.1 0-.1 0 0zM113.8 178.1s-.1.1 0 0c-.1.1-.1.1 0 0 0 .1.1.1.1.1-.1 0-.1 0-.1-.1zM113.8 177.9c.1 0 0-.1 0 0 0-.1 0-.1 0 0zM113.8 178l-.1-.1.1.1zM114 177.8zM114.5 174.6s0-.1 0 0c0-.1 0-.1 0 0-.1-.1-.1-.1 0 0-.1 0-.1 0 0 0-.1 0 0 0 0 0zM114 174.1c-.1 0-.1.1-.1.1-.1 0-.1.1-.1.1-.1 0-.1.1-.1.1.1-.1.1-.1.1.1.1 0 .1-.1.1-.1.1 0 .1-.1 0-.1 0 0-.1 0-.1-.1 0 0 0-.1.1-.1s.1-.1.1 0c.1.1.1 0 .1 0 0 .1-.1.1-.1 0zM113.8 178.4c0 .1 0 .1 0 0 0 .1 0 .1 0 0 0 .1 0 .1 0 0 .1.1 0 .1 0 0zM94.3 164.9zM92.2 167zM92.7 166.5c0 .1 0 .1 0 0-.1 0-.1 0 0 0-.1.1 0 .1 0 0 0 .1 0 .1 0 0zM120.1 161.1c.1 0 .1 0 0 0 0-.1 0-.1 0 0 0-.1 0 0 0 0zM92.2 166.9s0-.1 0 0c0-.1 0 0 0 0zM119.6 161c.1 0 .1 0 0 0 .1 0 .1 0 0 0zM92.2 167.2c.1 0 .1 0 0 0 .1 0 .1 0 0 0 .1 0 .1 0 0 0 .1 0 .1 0 0 0zM121.2 166.6s-.1 0 0 0c-.1 0 0 0 0 0zM91.8 166.9c.1 0 .1 0 0 0 .1 0 .1 0 0 0zM92 166.8s0 .1 0 0c0 .1 0 .1 0 0 .1.1.1.1 0 0 .1.1.1 0 0 0zM92 166.9c0 .1 0 .1 0 0 .1 0 .1 0 0 0 .1 0 .1 0 0 0zM92.6 167c-.1-.1-.1 0-.1 0h.1zM117.6 166.7zM92.6 178.4zM92.5 177.9s-.1-.1 0 0c-.1 0-.1.1-.1.1.1 0 .1.1.1.1v-.1c.1 0 .1-.1 0-.1z"/><path fill="#217780" d="M112.6 168.2c-.1.1-.2.1-.2.2 0-.1-.1-.1-.1-.1-.1-.2-.3-.2-.4-.1-.2.1-.2.5-.1.7.1.1.3.2.4.3l.1.1c.1-.2.2-.3.4-.4.1 0 .1-.1.1-.1.2-.2.2-.5.1-.6-.1 0-.2-.1-.3 0zM110.5 171.3l.1-.1c.1-.1.2-.2.3-.2.2-.1.3-.4.2-.6-.1-.2-.4-.3-.5-.1l-.1.1c-.1 0-.1-.1-.1-.1-.1-.2-.3-.2-.5-.1s-.2.5 0 .7c.3.1.5.1.6.4zM106.4 170.8c.1.1.3.2.4.3l.1.1c.1-.2.2-.3.4-.4 0 0 .1 0 .1-.1.2-.1.2-.3.1-.5 0-.1-.1-.1-.1-.2-.2-.1-.4-.1-.5.1l-.1.1c-.1 0-.1-.1-.1-.1-.2-.2-.4-.2-.5.1 0 .3 0 .5.2.6zM109.1 164.4c-.2-.1-.4 0-.4.2l-.1-.1c-.1-.1-.1-.2-.2-.2s-.3.1-.4.2c-.1.2 0 .4.1.5.2.1.4.2.5.4.1-.1.1-.2.2-.2.1-.1.2-.1.2-.2.2-.1.2-.4.1-.6.2.1.1.1 0 0zM112 165.2l.2.2.1.1.2-.2.2-.2c.2-.1.3-.3.2-.5-.1-.1-.1-.2-.2-.2s-.2 0-.3.1c0 .1-.1.1-.1.1 0-.1-.1-.1-.1-.1-.1-.1-.3-.2-.5-.1s-.2.4-.1.6c.3.1.3.2.4.2zM112.5 161.6c-.1 0-.2 0-.3.1l.1.1.2-.2zM112.5 175.9l-.2.2-.1-.1c-.2-.2-.4-.1-.5.1-.1.2-.1.5.2.6.2.1.3.2.4.4.1 0 .1-.1.1-.1l.3-.3c.1 0 .1-.1.1-.1.2-.2.2-.4.1-.5 0-.3-.2-.3-.4-.2zM100 170.1c-.1-.1-.2 0-.3.1 0 0 0 .1-.1.1 0-.1-.1-.1-.1-.1-.2-.2-.4-.1-.5.1-.1.2-.1.5.1.6s.4.2.5.4c.1-.2.2-.3.4-.4.2-.1.3-.3.2-.5 0-.2-.1-.3-.2-.3zM109 168.2c-.1 0-.2.1-.2.2 0 0 0 .1-.1.1-.1-.1-.1-.1-.1-.2-.1-.1-.1-.1-.2-.1s-.2.1-.2.2 0 .1-.1.2v.1c.1.1.1.2.2.3.2.1.3.2.4.4.1-.1.1-.2.2-.2l.2-.2c.2-.2.2-.4.1-.6 0-.2-.1-.2-.2-.2zM108.9 175.9l-.2.2c-.1 0-.1-.1-.1-.1-.2-.2-.4-.2-.5.1-.1.1-.1.3 0 .4l.2.2.1.1.4.4c.1-.1.1-.2.2-.2.1-.1.2-.1.3-.2l.2-.2v-.2c-.2-.5-.4-.7-.6-.5zM112 172.8c.1.1.2.1.3.2 0 0 0 .1.1.1l.2-.2c.1-.1.2-.1.2-.2.2-.1.2-.3.2-.5-.1-.2-.3-.3-.5-.1l-.1.1c0-.1-.1-.1-.1-.1-.1-.1-.3-.2-.4-.1-.2.1-.2.5-.1.6.1.1.1.2.2.2zM121 170.8c.2.1.3.2.4.4.1-.2.3-.3.4-.4.2-.1.2-.3.2-.5-.1-.1-.1-.2-.2-.2s-.2 0-.3.1c0 .1-.1.1-.1.1 0-.1-.1-.1-.1-.1-.1-.2-.4-.2-.5.1 0 .2 0 .4.2.5zM118 170.1l-.2.2c-.1-.1-.1-.1-.1-.2-.1-.1-.4-.1-.4.1-.1.2-.1.4.1.6.1.1.1.1.2.1l.3.3c.1-.1.1-.1.1-.2v-.1c.1-.1.2-.1.3-.2.2-.2.2-.4.1-.6h-.4zM110.8 173.9c-.1.1-.2.1-.2.2 0-.1-.1-.1-.1-.1-.2-.2-.5-.1-.5.1-.1.2-.1.5.2.6.2.1.3.2.4.4 0 0 .1 0 .1-.1.1-.2.2-.2.4-.4s.2-.4.2-.6c-.2-.1-.4-.1-.5-.1zM103.4 170.1l-.2.2c-.1 0 0-.1-.1-.1-.1-.1-.2-.2-.3-.2s-.2.1-.2.2c-.1.2 0 .4.2.5.2.1.3.2.4.4.1-.2.3-.3.5-.4.2-.1.2-.4.1-.6h-.4zM101.7 168.2c-.1 0-.2.1-.3.1 0 .1-.1.1-.1.1 0-.1-.1-.1-.1-.1-.2-.2-.4-.1-.5.1-.1.1-.1.3 0 .5l.2.2c.2.1.3.2.4.4.1-.2.3-.3.5-.4s.2-.3.2-.5c0-.3-.1-.4-.3-.4zM103.4 162.5c-.1.1-.1.1-.1.2 0-.1-.1-.1-.1-.1-.1-.2-.4-.2-.5 0-.1.2-.1.4.1.6.2.1.4.2.5.4l.2-.2c.1-.1.1-.1.2-.1s.1-.1.1-.1c.1 0 .1.1.1 0 .1-.1.1-.1.1-.2.1-.1.1-.3-.1-.4-.2-.1-.4-.2-.5-.1zM110.7 162.5c-.1.1-.1.1-.1.2-.1 0-.1-.1-.1-.1-.1-.2-.4-.2-.5 0-.1.1-.1.2-.1.3 0 .1 0 .1.1.2l.2.2c.1.1.3.2.4.4.1-.2.2-.3.4-.4.2-.2.3-.3.2-.5-.1-.3-.4-.4-.5-.3zM105.3 175.8c-.1.1-.2.1-.2.2l-.1-.1c-.1-.1-.4-.1-.5.1-.1.2-.1.4.1.6.2.1.4.2.5.4.1-.1.1-.2.2-.2s.2-.1.2-.2c.2-.2.2-.4.1-.5 0-.2-.2-.3-.3-.3zM99.1 174.6c.2.1.3.2.4.4.1-.2.3-.3.5-.4s.2-.3.2-.5c-.1-.1-.1-.2-.2-.2s-.2 0-.3.1l-.1.1c0-.1-.1-.1-.1-.1-.1-.2-.4-.1-.5.1-.1.1-.1.2-.1.4.1 0 .1.1.2.1zM105.4 172c-.1 0-.2.1-.3.1 0 .1-.1.1-.1.1 0-.1-.1-.1-.1-.1-.1-.1-.4-.1-.4 0-.2.2-.1.5.1.7.2.1.4.2.5.4.1-.2.3-.3.4-.4.2-.1.2-.2.2-.5-.1-.2-.2-.2-.3-.3zM95.9 171.3c.1-.1.1-.1.1-.2.1 0 .2-.1.2-.2.2-.1.2-.3.2-.5-.1-.2-.4-.3-.5-.2l-.1.1-.2-.2c-.2-.1-.4-.1-.4.1-.1.2-.1.5.1.6.3.2.5.2.6.5zM108.9 172.1c-.1.1-.2.1-.2.2-.1 0-.1-.1-.1-.1-.1-.1-.2-.2-.4-.1-.1 0-.2.2-.2.3v.2l.1.1c.1.1.2.1.2.2l.3.3.2-.2.2-.2s.1 0 .1-.1c.2-.2.2-.3.2-.5 0-.1-.2-.3-.4-.1zM121.6 174l-.1.1c0-.1-.1-.1-.1-.1-.1-.1-.4-.1-.5 0-.2.2-.1.5.1.7.2.1.3.2.4.4.2-.4.4-.7.5-1.1 0-.1-.2-.1-.3 0zM106.4 163.3c.2.1.4.2.5.4.1-.2.2-.3.4-.4.2-.1.3-.3.2-.5-.1-.2-.2-.3-.4-.2-.1.1-.2.1-.2.2 0 0 0-.1-.1-.1-.2-.2-.4-.2-.5-.1-.1.2-.1.5.1.7zm.5.1zM101.4 165.5c.1-.1.1-.2.2-.2.1-.1.2-.1.2-.2.2-.1.2-.4.2-.5-.1-.2-.3-.2-.5-.1l-.1.1c0 .1-.1.1-.1.1 0-.2-.1-.2-.2-.3s-.2 0-.3.1c-.1.1-.1.5.1.6.2.1.3.3.5.4zm.2-.9zM107 174l-.1.1c-.1 0-.1-.1-.1-.1-.1-.2-.4-.2-.5 0-.1.2-.1.4.1.6.1.1.1.1.2.1.1.1.2.1.2.2l.1.1c.1-.2.2-.3.4-.4.2-.1.2-.3.2-.5-.1-.2-.4-.3-.5-.1zM98.1 179.6c-.1 0-.2.1-.3.1l-.1.1c-.1 0-.1-.1-.1-.1-.1-.1-.2-.1-.3-.1s-.2.1-.2.2c-.1.1-.1.3.1.4l.2.2c.1.1.2.2.4.3 0 0 0 .1.1.1l.2-.2c.1-.1.2-.1.2-.2.2-.2.2-.4.2-.5-.2-.2-.3-.3-.4-.3zM119.6 179.8c-.1 0-.1-.1-.1-.1-.2-.2-.4-.1-.5.1-.1.2-.1.4.2.5.1.1.3.2.4.4.1-.4.2-.7.2-1.1-.1 0-.2.1-.2.2.1 0 .1 0 0 0zM97.8 165.5c.1-.2.2-.3.4-.4.2-.1.2-.3.2-.5-.1-.1-.1-.2-.2-.2s-.2.1-.3.2c0 0 0 .1-.1.1s-.1-.1-.1-.1c-.2-.2-.4-.1-.5.1-.1.1-.1.4.1.6.1-.1.3.1.5.2zM103.7 173.9c-.1-.1-.2 0-.3.1l-.1.1c0-.1-.1-.1-.1-.2-.1-.1-.3-.1-.4.1-.1.2-.1.5.1.6.2.1.4.2.5.4.1-.2.3-.3.4-.4.2-.1.2-.3.2-.5-.2-.1-.2-.1-.3-.2zM119.6 165.5c.1 0 .2-.1.2-.2.1-.1.2-.1.2-.2.2-.1.3-.3.2-.5-.1-.1-.1-.2-.2-.2s-.2 0-.3.1c0 0 0 .1-.1.1l-.1-.1c-.1-.2-.4-.1-.5 0-.1.2-.1.4.1.6.2.1.4.2.5.4zm.4-.4zM99.1 167c.2.1.3.2.5.4.1-.1.2-.3.4-.4.2-.1.4-.3.2-.6-.1-.2-.3-.2-.4-.1l-.2.2s0-.1-.1-.1c-.1-.1-.3-.2-.4-.2s-.2.3-.2.4c.1.3.1.4.2.4zm.8-.1zm-.5-.3zM119.2 169c.2.1.4.2.4.4.1-.2.3-.3.5-.4.1-.1.2-.2.2-.4 0-.1 0-.1-.1-.2-.1-.2-.2-.2-.4-.2-.1 0-.2.1-.2.2h-.1c-.1-.1-.1-.2-.3-.2-.1 0-.2.1-.3.2.1.2.1.5.3.6zm.4-.4zM119.7 172.2c-.1 0-.1 0-.1-.1-.1-.1-.4-.1-.5 0s-.1.3-.1.5c.1.1.1.2.2.2.1.1.2.2.3.2l.1.1c.1-.2.3-.3.4-.4.2-.1.2-.3.1-.5 0-.3-.2-.3-.4 0zM101.8 175.8c-.1-.1-.2 0-.4.1 0 .1-.1.1-.1.1l-.1-.1c-.1-.1-.4-.1-.5.1-.1.2-.1.4.1.6.1.1.3.2.4.3.1.1.1.1.1 0l.1-.1c.1-.1.2-.1.2-.2.2-.1.2-.3.2-.5.2-.2.1-.2 0-.3zm-.3.9zm0-.2zM114.3 170.2c-.1.1-.1.1-.1.2 0-.1-.1-.1-.1-.1v-.1c-.1-.2-.4-.1-.5.1-.1.2-.1.5.2.6.1.1.2.1.3.2 0 .1.1.1.1.1.1-.2.2-.2.4-.4.1 0 .1-.1.1-.1.2-.2.2-.4.1-.5-.2-.1-.3-.1-.5 0zM101.6 172c-.1.1-.2.1-.2.2l-.1-.1c-.1-.1-.2-.1-.3-.1-.2.1-.3.4-.2.5l.3.3s.2.1.2.2c0 0 0 .1.1.1.1-.2.2-.2.4-.4 0 0 .1 0 .1-.1.2-.2.2-.4.1-.5-.1-.1-.3-.1-.4-.1zm-.3.5c.1 0 .1-.1 0 0 .1-.1.1-.1 0 0 .1-.1.1-.1 0 0 .1-.1.1 0 0 0zM110.5 167.4c.1-.1.2-.3.4-.4.2-.1.4-.2.3-.5 0-.1-.1-.2-.2-.3-.1-.1-.2 0-.3.1l-.1.1c-.1-.1-.1-.1-.1-.2-.1-.1-.3-.1-.4 0-.1.2-.2.5.1.7 0 .2.2.4.3.5zm.2-.7zM98.3 168.4c0-.1-.1-.1-.1-.2-.1-.1-.2 0-.2 0-.1 0-.1.1-.2.1 0 0 0 .1-.1.1v-.1c-.1-.2-.2-.2-.4-.1s-.3.5-.1.7l.1.1c.2.1.3.2.4.4h.1c.1-.2.2-.3.4-.4.2-.1.2-.3.2-.5 0-.1-.1-.1-.1-.1zm-.2.2c0-.1 0-.1 0 0 0-.1 0-.1 0 0zM97.4 172.8l.2.2.1.1c.1-.1.1-.2.2-.2.1-.1.2-.1.2-.2.1 0 .1-.1.1-.1.1-.1.1-.3 0-.5s-.2-.2-.4-.1l-.2.2c0-.1-.1-.1-.1-.1-.1-.2-.4-.2-.5 0-.1.1-.1.2-.1.4.2.2.4.3.5.3zm.8-.6zM105.3 168.2c-.1 0-.2.1-.2.2 0 0-.1 0-.1.1v-.1c-.1-.2-.4-.2-.5 0-.1.2-.1.5.2.7.2.1.3.2.4.4.1-.1.1-.2.2-.2.1-.1.2-.1.2-.2.2-.1.2-.4.1-.5 0-.3-.1-.5-.3-.4zM121 163.3c.1.1.2.1.4.2 0 .1.1.1.1.1l.2-.2.1-.1c.1 0 .1-.1.2-.1.1-.1.2-.2.2-.3s0-.2-.1-.3c-.1-.2-.2-.2-.4-.1l-.2.2v-.1c-.1-.1-.2-.2-.3-.2s-.2.1-.2.2c-.2.3-.2.5 0 .7zM116.4 172c-.1 0-.2.1-.3.2 0 0 0 .1-.1.1-.1-.2-.2-.2-.4-.2-.1 0-.1.1-.1.1-.1 0-.1.1-.1.1v.1s-.1.1 0 .1c.1.1.1.2.2.3.1.1.2.1.4.2l.1.1.2-.2.2-.2c.2-.1.2-.2.2-.5-.1-.1-.2-.1-.3-.2zm-.7.5zm.3.4zM96.1 181.6l-.2.2-.1-.1c-.1-.1-.3-.1-.4 0-.1.2-.2.4.1.7.2.1.4.2.4.4.1-.1.1-.1.1-.2s.1-.1.2-.1.1-.1.2-.1c.2-.2.2-.4.1-.6-.1-.3-.3-.3-.4-.2zm-.2.6zm.2-.1zm.1-.2zm0 0zm.1.2c0-.1 0-.1 0 0l.1-.1c0 .1.1.1.1.1-.1-.1-.1-.1-.2 0zM99.6 163.6l.2-.2c.1-.1.1-.1.2-.1l.2-.2c.1-.1.1-.2 0-.4s-.3-.2-.5-.1v.2c-.1 0-.1.1-.1.1 0-.1-.1-.1-.1-.1-.1-.2-.4-.2-.5 0-.1.1-.2.5.1.6.2-.1.3 0 .5.2zm-.1-.4zM118 181.6l-.2.2-.1-.1c-.1-.1-.3-.1-.5 0-.1.1-.1.4.1.6.2.1.4.2.5.5.1-.1.1-.2.2-.2.1-.1.2-.1.2-.1.2-.2.2-.4.2-.5 0-.5-.2-.5-.4-.4zm-.2.6zm.1.2zM96.1 166.3l-.2.2c0 .1-.1 0-.1 0 0-.1-.1-.1-.1-.1-.1-.1-.3-.1-.4 0-.1.1-.1.2-.1.4 0 .1.1.1.1.2.2.1.4.2.5.4l.1-.1c.1-.1.2-.2.3-.2.2-.2.2-.4.2-.5.1-.3-.2-.3-.3-.3zm.2.5c.1 0 .1-.1.1-.1s0 .1.1.1c-.1-.1-.1 0-.2 0zm.2 0c-.1 0-.1 0 0 0 0-.1 0-.1 0 0zM99.7 177.8c-.1 0-.1.1-.1.1-.1 0-.1.1-.1.1 0-.1-.1-.1-.1-.1-.1-.1-.2-.2-.3-.1-.1 0-.2.1-.2.2-.1.2-.1.4.2.5.2.1.3.2.4.4h.1c.1 0 .1-.1.1-.1l.2-.2c.1-.1.1-.1.2-.1.2-.2.2-.5.1-.7-.2-.1-.3-.1-.5 0zm-.1.2c0 .1 0 .1 0 0 0 .1 0 .1 0 0zM92.4 170.2c-.1.1-.1.1-.1.2l-.1-.1c-.1-.1-.2-.2-.4-.1-.1.1-.1.2-.1.3v.1c0 .1.1.2.2.3.1.1.2.2.3.2l.1.1c.1-.2.2-.3.4-.4.1 0 .1-.1.1-.1.2-.2.2-.4.1-.5-.2-.1-.3-.1-.5 0zm-.3.3c0-.1 0-.1 0 0zm.2.2s-.1 0 0 0c-.1 0 0 0 0 0zm.3 0zm0 0zM121.6 166.3l-.2.2c0-.1-.1-.2-.1-.2-.1-.1-.2-.1-.4 0s-.2.5.1.7c.1.1.1.1.2.1l.1.1c.1.1.1.2.2.2.2-.2.3-.3.5-.4.1 0 .1-.1.1-.2.1-.2.1-.3 0-.4-.1-.1-.3-.1-.5-.1zm-.4.3s-.1 0 0 0c-.1 0 0 0 0 0zM94.1 176.8c.1-.1.3-.2.4-.3s.2-.2.2-.4c0-.1-.1-.1-.1-.1-.1-.2-.2-.2-.4-.1-.1.1-.2.1-.2.2 0-.1-.1-.1-.1-.1-.1-.1-.2-.2-.4-.1-.1.1-.1.1-.1.2-.1.1 0 .4.1.4s.1.1.1.1c.1 0 .1.1.1.1l.1.1c.1.1.1.1.1.2.2-.1.3-.1.2-.2zm-.4-.3s0-.1 0 0c0-.1 0-.1 0 0 0-.1 0-.1 0 0 .1-.1.1 0 .1-.1-.1 0-.1.1-.1.1zm.1-.2s.1 0 0 0c.1 0 0 0 0 0zM104.6 165.1c.2.1.4.2.5.4.1-.2.2-.3.4-.4.1 0 .1-.1.1-.1.1-.1.1-.1.1-.2.1-.1 0-.2-.1-.3-.1-.1-.2-.2-.3-.1-.1 0-.2.1-.2.2-.1 0-.1-.1-.1-.1-.1-.2-.3-.2-.5-.1-.1.1-.1.2-.1.2 0 .3 0 .4.2.5zM95.5 163.3c.2.1.3.2.4.4.1-.2.3-.3.5-.4.2-.1.2-.4.1-.6l-.1-.1c-.2-.1-.4 0-.5.1 0 0 0 .1-.1.1 0-.1-.1-.1-.1-.1-.1-.1-.4-.1-.5 0 0 .1 0 .4.3.6zm.6-.6zm-.6.2c-.1 0-.1 0-.1-.1 0 .1 0 .1.1.1zM115.8 161.5l.2.2c.1.1.1.1.1 0 .1-.1.1-.1.1-.2.1-.1.2-.1.3-.2.1-.1.1-.2.1-.3-.4.1-.8.1-1.2.2 0 .1.1.1.1.1.1 0 .2.1.3.2zm-.2-.3s.1 0 0 0c.1 0 0 .1 0 0 0 .1 0 .1 0 0zM102.8 167c.2.1.4.2.5.4.1-.2.2-.2.4-.4.2-.1.2-.4.1-.5v-.1s0-.1-.1-.1c-.1-.1-.1-.1-.2-.1-.2 0-.2.1-.3.2 0-.1 0-.1-.1-.1-.1-.2-.4-.2-.5-.1-.1.1-.1.1-.1.2.1.3.1.5.3.6zm.9-.6zm-.8 0zm-.1 0zM94.4 179.6c-.1 0-.2.1-.3.2-.1 0-.1.1-.1.1s-.1.1-.1-.1c0-.1 0-.1-.1-.1-.1-.1-.3-.1-.4 0-.1.1-.1.1-.1.2s-.1.2 0 .2c0 .2.1.2.2.3.2.1.3.2.4.4.1-.1.2-.2.2-.3.1-.1.2-.1.2-.2.2-.1.2-.2.1-.4.3-.1.2-.3 0-.3zM93.5 172.5l.2.2c.1.1.3.2.4.3l.1.1c.1-.2.3-.3.5-.4.1-.1.1-.1.1-.2v-.2c0-.1-.1-.2-.2-.3-.1-.1-.2 0-.4.1 0 .1 0 .1-.1.1 0-.1-.1-.1-.1-.2-.1-.1-.2-.1-.4 0-.1.1-.2.1-.1.2v.1c-.1.1-.1.1 0 .2-.1 0-.1 0 0 0zm.8.2zm0 0s-.1 0 0 0c-.1 0 0 0 0 0zm-.3-.2s.1 0 0 0c.1 0 0 0 0 0zM116.6 179.7c-.1-.1-.1-.1-.2-.1s-.2.1-.2.2c-.1 0-.1.1-.1.1s-.1 0-.1-.1 0-.1-.1-.1-.1-.1-.2-.1h-.1c-.1 0-.1.1-.2.1-.2.2-.1.5.1.7.2.1.3.2.5.4.1-.2.3-.3.5-.5s.2-.4.1-.6zm-.5.7zM116.6 176c-.1-.2-.2-.2-.4-.2-.1.1-.2.1-.2.2l-.2-.2c-.1-.1-.4-.1-.4.1-.1.2-.1.4.1.5 0 .1.1 0 .1.1.1.1.2.1.3.3 0 .1.1.1.1 0s.1-.1.1-.1c.1-.1.2-.1.3-.2.1-.1.2-.3.2-.4v-.1zm-1.1.1c0-.1 0-.1 0 0zm.1.3c.1 0 .1 0 0 0 .1 0 .1 0 0 0 0 .1 0 .1 0 0zm.1-.2zm.1.4zM96 177.8l-.1.1c-.1 0-.1-.1-.1-.1-.1-.2-.4-.1-.5 0-.1.2-.1.5.1.6.2.1.3.2.5.4l.2-.2c.1-.1.2-.1.2-.2.2-.1.2-.4.1-.5 0-.2-.3-.2-.4-.1zM115.5 165.2c.2.1.3.2.4.4.1-.1.2-.3.4-.4l.2-.2c.1-.2.1-.4-.1-.5-.1-.1-.1-.1-.2-.1s-.2.1-.2.2c-.1.1-.1.1-.1-.1s-.1-.1-.2-.2c-.1 0-.2.1-.3.1-.1.1-.1.2-.1.3.1.2.1.4.2.5zm.8-.3c0 .1 0 .1 0 0 0 .1 0 .1 0 0zm0 0s-.1 0 0 0c-.1 0 0 0 0 0zm-.3-.2s.1 0 0 0c0 .1 0 .1 0 0zm-.5.2s0 .1 0 0c-.1 0-.1 0 0 0zM93.5 164.9c0 .1.1.2.2.2.2.1.3.2.4.4 0-.1.1-.1.1-.1.1-.1.1-.1.2-.1l.2-.2c.1-.1.2-.2.1-.4-.1-.1-.1-.2-.3-.2-.1 0-.2.1-.3.2-.1.1-.1.1-.1-.1-.1-.2-.4-.2-.5 0 0 0-.1.2 0 .3-.1 0-.1 0 0 0zm.8 0zm-.1-.1c-.1 0-.1 0-.1-.1 0 .1.1.1.1.1zm-.1-.1c0 .1 0 .1 0 0 0 .1 0 .1 0 0zM106.4 167c.2.1.3.2.4.4.1-.2.2-.3.4-.4l.1-.1c.1-.2.1-.4-.1-.5-.1-.1-.2-.1-.4 0-.1 0-.1.1-.2.2 0-.1-.1-.1-.1-.2-.2-.2-.4-.1-.5.1.2.2.2.4.4.5zm.7-.4zm-.1.4c.1.1.1.1 0 .1s0-.1 0-.1zm-.1 0c0 .1 0 .1 0 0 0 .1 0 .1 0 0zM118.4 174.1c-.1-.2-.3-.2-.4-.1l-.2.2c-.1-.1-.1-.1-.1-.2-.1-.1-.2-.1-.4 0-.1.1-.2.3-.1.5l.3.3c.1.1.2.1.2.2s.1.1.1.2l.3-.3c.1 0 .1-.1.1-.1.2-.3.3-.5.2-.7zm-1.1.2zm.4.3s.1 0 0 0zm.1.1c0-.1 0-.1 0 0 0-.1 0-.1 0 0 0-.1 0-.1 0 0 0-.1 0-.1 0 0zm.3-.1zm.1-.4zM95.4 174.6c.1 0 .1.1.1.1.1.1.2.1.3.2 0 .1.1.1.1.2.1-.2.2-.3.4-.4.1-.1.2-.2.2-.3v-.1c0-.1-.1-.1-.1-.2-.1-.1-.1-.1-.2-.1s-.2.1-.3.2c-.1-.1-.1-.1-.1-.2-.1-.1-.1-.1-.2-.1s-.2.1-.3.1c0 .3 0 .4.1.6-.1-.1-.1 0 0 0zm.4.3c.1 0 .1 0 .1-.1l-.1.1zm-.4-.6s-.1 0 0 0c-.1 0 0 0 0 0zm-.1 0zM94.1 169.3c.2-.2.2-.3.4-.4.3-.2.3-.3.2-.5 0-.1-.1-.2-.2-.2s-.2-.1-.4.1l-.1.1c0-.1-.1-.1-.1-.1l-.1-.1c-.1-.1-.2-.1-.2-.1-.1 0-.1.1-.1.1.1.1 0 .1.1.2 0 .1.1.1.1.1.1-.1 0-.1 0-.1.1 0 .1.1.1 0s0-.1-.1-.1c0 0-.1.1-.1 0 .1-.1.1 0 .2 0 0 0-.1.1 0 .1s.1.1.1.1l.1.1h-.6c0 .2.1.3.2.4.2 0 .4.2.5.3zm-.4-.9zM90.3 172.8zM91 172.4H90.7c0-.1.1-.1.1-.1H91.1c0-.1.1-.1 0-.1H91v-.1c-.1-.1-.2-.1-.3-.1s-.2.1-.2.2l-.1-.1c-.1-.1-.1-.1-.2-.1H90c-.1.1-.2.2-.2.4v.2c.1.1.2.2.4.3 0-.1.1-.1.1-.1s-.1 0-.1-.1c.1 0 .1 0 .1.1v.1c.1.1.1 0 .2-.1v.2c-.1-.1-.1-.1-.2 0v.1c.1 0 .1.1.1.1h.1s.1 0 0-.1c.1-.1.1-.2.2-.2 0 0-.1 0-.1-.1.1 0 .1.1.1 0 .1-.1.1-.1.2-.1.1-.1.1-.1.1-.2.1 0 .1-.1 0-.1zm-.3-.3zm-.4 0c-.1.1-.1.1.1.1-.1.1-.1.1-.1 0v-.1c-.1.1-.1.1-.2.1.1-.1.1 0 .2-.1zm-.3.1h0c0 .1 0 .1 0 0zm.1.5c.1 0 .1 0 0 0 .1 0 0 0 0 0zm.1-.2c0 .2 0 .2-.1.2H90h-.1c.1-.1.1-.1.2-.1 0-.1-.1-.1-.1-.2.2 0 .2 0 .2.1.1-.1.1-.1.1 0 0-.1 0 0-.1 0zm-.1 0zm.2-.1c0-.1 0 0 0 0 .1-.1.1 0 .1.1l-.1-.1zm.3.3s-.1 0 0 0c-.1-.1-.1-.1 0 0 0-.1 0-.1 0 0zm.2 0c0-.1 0-.1 0 0 .1-.1.1 0 0 0zM91.1 176.1c0-.1 0-.1 0 0l-.1-.1v-.1c-.1-.1-.2-.1-.4 0 .1.2.2.4.3.7.2-.2.2-.3.2-.5zM90.4 161.7c.1 0 .1 0 0 0 .1 0 .1 0 0 0 .1 0 0 0 0 0zM114.1 174l-.2-.2c-.2 0-.3.1-.4.2-.1.2 0 .4.2.5 0 0 0 .1.1.1l.3.3c.1-.2.2-.2.4-.4.1-.1.2-.1.2-.2.1-.1.1-.3 0-.4 0-.1-.1-.1-.1-.1-.1 0-.1 0-.1-.1-.1-.1-.2 0-.2.1h-.1c.1.2-.1.2-.1.2 0 .2 0 .1 0 0zm-.1.3c0-.1-.1 0-.1 0s0 .1-.1.1c0 .1 0 0 .1.1.1 0 .1.1 0 .1 0 0 0 .1-.1.1 0-.1 0-.1-.1-.1 0-.1-.1-.1.1-.1.1 0 .1-.1.1-.1l.1-.1h.1c-.1-.1 0-.1-.1 0 .1-.1.1 0 0 0zm.4.2c.1 0 .1 0 0 0 .1 0 .1.1 0 0 .1.1 0 .1 0 0 0 .1 0 .1 0 0zM94.6 184.2c.2-.1.2-.4.2-.5-.1-.2-.4-.2-.5-.1 0 .1-.1.1-.1.1-.1-.1-.1-.2-.2-.2 0 0 0-.1-.1-.1-.1-.1-.2 0-.2.1l-.1.1c0 .1 0 .1.1.1h.1v.2c0 .1.1.1.1.2s.1.1.1.1c.1.1.2.2.3.4l.1-.1c-.1-.1 0-.3.2-.3zM113.7 167c.1.1.2.1.2 0 0 0 .1-.2 0-.2l-.1-.1s0-.1-.1-.1 0 0 0 .1 0 .1-.1.1h-.1v-.1s-.1-.1 0-.1c0-.1 0 .1.1 0 0 0 0-.1.1-.1s.1-.1.2.1c0 0-.1 0-.1.1s.1.1.1.1h.2v-.1h.1c.1.1.1.1.1.2v.4l.1.1c-.1 0-.1.1-.1.1-.1 0 0-.1 0-.1h-.1c-.1-.1-.1 0-.1 0-.1.1-.1.1 0 .1l.1.1s.1 0 .1.1c0-.1.1-.1.1-.1h.1c.1 0 .1-.1.1-.1h-.1v-.1h.1c.1.1.1.1.1 0 .1 0 .1 0 .1-.1.1 0 .1-.1 0-.1v-.2c.1 0 .1 0 .1.1h.1c0-.1 0-.2-.1-.2.1-.1.1-.1 0-.2l-.1-.1c0-.1.1-.1 0-.1l-.1-.1c-.1 0-.1 0-.1.1-.1.1-.1.1-.1.2-.1 0-.1-.1-.1-.1 0-.1-.1-.1-.1-.1s-.1-.1-.1.1c0 0 0 .1-.1.1h-.1c-.1 0-.1 0-.1.1-.1.2-.1.4.1.5-.4-.3-.3-.3-.3-.3zm.6-.2v-.1h.2c0 .1 0 .2-.1.2s-.1 0-.1-.1zm.2.2c0-.1 0-.1 0 0zm-.2-.4c.1 0 .1 0 0 0 .1-.1.1-.1.2-.1 0 .1-.1.1-.2.1 0 .1 0 .1 0 0zM92.2 178.7c.1.1.1.1.1 0 .1-.1.1-.1.1-.2 0 0 .1 0 .1-.1h.2c.1 0 .1-.1.1-.1.1 0 .1 0 0-.1.1 0 .1-.1.1-.1.1-.1.1-.4-.1-.4-.1-.1-.1-.1-.2-.1s-.1 0-.2.1c0 .1-.1.1-.1.1-.1 0-.1.1-.1.1-.1.1-.1.1.1.2.1.1.2.2.3.2 0 0-.1.1 0 .1h-.1v-.1V178.6s-.1 0-.1-.1 0-.1-.1-.1-.2-.1-.4-.1h-.1c-.1.1 0 .1 0 .1h-.1c0 .1.1.1.1.1.1 0 .1.1.1.1.1 0 .2 0 .3.1zm.4-.7c-.1 0-.1 0 0 0-.1-.1-.1-.1-.1-.2s.1 0 .1 0v.2zm0 .6c0-.1-.1-.1 0 0-.1-.1 0-.1 0 0zM91.7 162.9c.1 0 .1 0 .1.1-.1.1-.1 0-.1.1s.1.1.1.1c0 .1.1.2.2.2s.1.1.2.1.1.1.2.2c0 .1 0 .1.1.1s.1 0 .1-.1c.1 0 .1-.1.1-.1.1 0 .1-.1.1-.1.1 0 .2-.1.2-.2.1-.1.1-.3 0-.4-.1-.2-.3-.2-.4-.1-.1.1-.2.2-.2.3.1 0 .2 0 .2.1 0 0 .1.1.1 0v-.1h.1c.1 0 .1 0 .1-.1h.1c0 .1 0 .1-.1.1-.1.1-.1.1-.1.2s.1.1.1.1c-.1 0-.1 0-.1.1-.1 0-.1 0-.1-.1 0 0 0-.1-.1-.1 0-.1 0-.1-.1-.1s-.2 0-.3-.1H92h.1c0 .1.1.1.1 0 0 0 .1 0 .1-.1-.1 0-.1 0-.1-.1h-.1c0-.1 0-.2-.1-.2h-.1v-.1c-.1-.1-.1-.1-.2-.1-.1.3-.1.3 0 .4-.1 0-.1 0 0 0zm1.1-.1s-.1 0 0 0c-.1 0-.1 0 0 0-.1 0-.1-.1 0 0-.1-.1 0-.1 0 0zm-.2-.1c-.1.1-.1.1 0 0l-.1.1v0s-.1-.2.1-.1c0-.1-.1 0 0 0zm-.4.7c.1 0 0 0 0 0-.1 0 0 0 0 0zm-.4-.5l.1.1-.1-.1c0 .1 0 .1 0 0zM92.7 174c-.1-.1-.2 0-.2-.1 0 0 0 .1-.1.1 0 0-.1 0-.1.1h.2v.1c-.1 0-.1 0-.1.1-.1 0-.1.1-.1.1v.1c-.1 0-.1.1-.1.1s-.1-.1-.1 0c-.1 0-.1.1-.1-.1h.1c.1 0 .1 0 .1-.1.1.1.1 0 .1-.1.1 0 .1.1.1.1.1-.1.1-.1 0-.1l-.1-.1c-.1-.1-.1-.1-.2-.1s-.3.1-.3.2v.2c.1.1.1-.1.1-.1 0 .1.1.1.1.1s.1 0 .1.1c.1 0 .1 0 .1.1s-.1.1-.1.1c-.1 0-.1-.1-.1-.1 0-.1-.1-.1-.1-.1l-.1.1c-.1 0-.1-.1-.1 0-.1 0 0 .1 0 .1s0 .1.1.1c0 .1 0 .1.1 0v.1c.1 0 .1.1.1.1l.3.3.3-.3c.1-.1.1-.1.2-.1.2-.1.2-.4.1-.5 0-.5-.1-.5-.2-.5zm-.4.6zm.2 0c-.1 0-.1.1-.1.1 0-.1 0-.2.1-.1-.1-.1 0-.1 0 0 0-.1.1 0 0 0zm.2-.5s0-.1 0 0c0-.1 0 0 0 0z"/><path fill="#217780" d="M91.7 178.1c.1.1.1.1.2.1.1.1.2.1.4.1 0-.1 0-.1-.1-.1h-.1c-.1-.1-.1-.1-.2-.1s-.1-.1-.2 0c0-.1 0-.1 0 0-.1-.1-.1-.1-.2 0v.1c.1-.1.2-.1.2-.1s0-.1 0 0zM92.4 166.7zM98.4 176.3c-.1-.1-.1-.1 0 0v-.1c0-.1 0-.1-.1-.2 0-.1-.1 0-.1-.1s.1 0 .1 0c-.1-.1-.1-.1-.2-.1s-.1 0-.2.1c-.1 0-.1 0-.1.1-.1 0-.1.1-.1.1l-.1-.1c-.2-.1-.4-.1-.5.1-.1.2-.1.4.2.5.2.1.3.2.4.4 0-.1.1-.1.1-.1l.1-.1s0-.1-.1-.1-.1-.1 0-.1l.1-.1.1.1c.1-.1-.1-.1-.1-.1.1-.1.1 0 .2-.1-.1-.1-.1-.1.1-.1v.1c0 .1.1.1.1.1h.1v-.2zM113.7 163.1c0 .1 0 0 0 0 0 .1 0 .1 0 0 .1.1.1.2.2.2s.1.1.1.1c0 .1.1.1.1.1.1.1.1.1.1 0 .1-.1.2-.2.4-.3.1 0 .1-.1.1-.1.1 0 .1-.1.1-.1.1-.1 0-.2 0-.4v-.1l-.1-.1c-.1-.1-.2-.1-.4 0l-.2.2-.1-.1h-.2c-.1.1 0 .1 0 .1l.1.1c.1 0 0-.1.1-.1v.2c0 .1.1.1.1.1s0 .1.1.1c0 .1.1.1.1.1 0 .1.1.1.1.1s0 .1-.1.1-.1 0-.1.1h-.1c-.1 0 0 0 0-.1v-.1c-.1 0-.1 0 0-.1v-.1c-.1 0-.2-.1-.2 0 0 0-.1 0-.1-.1-.1 0-.1.1-.1 0h-.1c0-.1-.1-.1-.1-.1l.1-.1h.1s.1 0 .1-.1-.1-.1-.1-.1h-.1s-.1 0-.1-.1v-.1s0-.1-.1-.1-.1 0-.1.1c-.1.1-.1.4 0 .5.3.4.4.4.4.3zm.6-.2zm.1-.3zm0 .3c.1 0 .1 0 0 0 .1 0 .1 0 0 0zm0-.1c-.1-.1-.1-.1 0-.1 0 0 .1-.1.1 0s0 .1-.1.1c.1 0 .1-.1.1-.1s0 .1-.1.1c.1 0 .1 0 0 0zM115.7 168.4 116 169.3c.1-.1.1-.2.2-.2s.2-.1.2-.2c.1-.1.2-.2.2-.4v-.1c0-.1-.1-.2-.2-.3-.1-.1-.2 0-.2 0l-.2.2c-.1-.1-.1-.2-.2-.2-.1-.1-.2-.1-.3.1h-.1l-.1.1c.1.1 0 .1-.1.2v.1c0 .1.1.2.2.3.3.1.5.3.6.4zm-.4-1h.1v.1c.1 0 .1.1.1.1l.1.1c-.1 0-.1.1-.2 0h-.1v-.1s.1 0 0-.1c.1.1.1 0 0-.1.1.1.1.1 0 0 .1 0 .1 0 0 0 0 0-.1 0 0 0zm-.2.3c0-.1.1-.1.1-.1h.1v.1h-.1-.1zM119.8 176.5 89.1 162.9zM114 163.1h-.1.1M114 163c.1.1.1 0 .1.1h.1v-.1s-.1 0 0 0c0 0 .1 0 .1-.1-.1 0-.2 0-.2-.1h-.1v.2c-.1-.1-.1 0 0 0 0 .1 0 0 0 0zM92.1 162.8l.1-.1c.1-.1 0-.1 0-.1-.1 0-.1-.1-.1-.1l-.1.1c0 .1.1 0 .1.1v.1zM117.2 166.8c.1.1.1.1.1.2.2.1.4.2.5.5 0-.1.1-.1.1-.1.1 0 .1 0 .1-.1s.1-.1.1-.1c.1 0 .1-.1.1-.1.2-.1.3-.4.2-.5-.1-.2-.2-.2-.4-.2l-.2.2c-.1 0-.1-.1-.1-.1-.1-.1-.3-.2-.4-.1-.1.1-.1.2-.1.4 0-.1 0-.1 0 0zm.6.2zm-.2-.3zM92 177.9c0 .1.1.1.1.1h.1l.1-.1s0-.1-.1-.1c-.1.1-.2 0-.2.1zM114 166.9s.1 0 0 0l.1.1s0 .1.1.1c0 0 .1 0 .1-.1s0-.1-.1-.1-.1 0-.1-.1c0 0-.1 0-.1.1zM114.8 177.8c-.1-.1-.1-.1-.2-.1s-.1 0-.2.1-.2.2-.2.4c-.1-.1 0-.1 0-.2h.1c0-.1 0-.1-.1-.1 0-.1 0-.1-.1-.1h-.1v-.1h-.1s0 .1-.1.1c0-.1 0-.1-.1-.1s-.1 0-.1.1c-.1.1-.1.2-.1.4 0 .1 0 .1.1.2l.1.1h.1s.1.1 0 .1c0 .1.1.1.1.1 0 .1 0 .1.1.1 0 .1.1.1.1.1s0 .1.1.1.1-.1.1-.1c.1-.1.2-.1.3-.2.1 0 .1-.1.1-.1h.1c.1-.4.1-.5 0-.8zm-1 0s.1.1 0 0c0 .1 0 .1 0 0-.1 0 0 0 0 0zm0 .2c-.1.1-.1-.1-.1-.1.1 0 .1 0 .1.1zm0 .3s-.1-.1 0 0c0-.1 0-.1 0 0zm.2-.5zm.1.3s.1 0 0 0h.1c0 .1-.1.1-.1 0zm.2.5c0-.1 0-.1 0 0 0-.1 0 0 0 0zm.1-.2c-.1 0-.1.1 0 0l-.1.1v-.1-.1h-.1v-.1s.1-.1.1 0c0 0 .1 0 .1.1 0 0 0 .1.1.1h-.1zm0-.4c-.1-.1-.1-.1 0-.1.1.1.1.1 0 .1zm.1.1zm0-.3zM117.3 178.4c.2.1.4.2.5.4.1 0 .1-.1.1-.1.1-.1.2-.2.4-.2.2-.1.2-.2.2-.5 0-.1-.1-.2-.2-.2s-.2 0-.3.1c0 .1-.1.1-.1.1 0-.1-.1-.1-.1-.1-.1-.2-.4-.1-.5 0-.1.1-.1.4 0 .5zm.6 0zM117.3 163.2c0 .1 0 .1 0 0 .2.1.4.2.5.4 0 .1.1.1.1 0l.4-.4c.2-.1.2-.4.1-.6 0-.1-.1-.1-.1-.1-.2-.1-.3-.1-.4.1 0 0 0 .1-.1.1 0-.1-.1-.1-.1-.1-.1-.1-.4-.1-.5 0 0 .1-.1.4.1.6z"/><path fill="#217780" d="M113.8 162.7c.1 0 0-.1 0 0l.1-.1-.1.1c0-.1 0-.1 0 0zM119.3 176.6l.3.3c0-.1.1-.1.1-.2.1 0 .1-.1.1-.1-.1 0-.1 0-.1-.1-.1 0-.1.1-.1-.1.1 0 .1 0 .1.1l.1-.1h.1v.1s-.1 0 0 0h.1l.2-.2v-.1c-.1-.1 0-.1 0-.2s0-.1-.1-.2-.1-.2-.2-.2-.2.1-.3.2c0 0-.1.1-.1 0s-.1-.1-.1-.1c-.1-.1-.4-.1-.5.1-.1.1-.1.3 0 .4.2.3.3.4.4.4zm.8-.4s0 .1 0 0c-.1.1-.1.1 0 0zM90.2 172.8c0 .1 0 .1 0 0 .1.2.1.1 0 0 .1.1.1.1.1 0h-.1c.1 0 0 0 0 0zM90.3 172.8zM92.1 177.8c-.1-.1-.1 0-.1 0 0 .1 0 0 .1 0zM91.7 177.8c.1 0 .1.1.1 0v-.1c-.1 0-.1.1-.1.1zM119.2 161.3c.2.1.4.2.5.4l.2-.2c0-.1-.1 0-.1-.1l.1-.1h.1l.1.1c.1-.1.2-.2.2-.3v-.1-.1c-.1-.1-.1-.2-.2-.2s-.2.1-.3.2c0 0 0 .1-.1.1 0-.1-.1-.1-.1-.1-.1-.2-.4-.2-.5 0-.1 0-.1.3.1.4zm.9-.3zm-.5 0c.1 0 .1 0 0 0 .1 0 .1 0 0 0zM91.8 162.6c-.1-.1-.1 0-.1 0s.1.1.1 0zM108.5 164c.1 0 .1.1.1.1 0-.1-.1-.1-.1-.1zM91.9 162.5c-.1.1-.1.1 0 .1 0 0 .1-.1 0-.1zM91.7 166.6c.1 0 .2 0 .2.1-.1 0-.2 0-.2-.1 0 .1 0 .1 0 0 0 .1-.1.1 0 0 .1.1.1.1.2.1-.1 0-.1.1-.1.1s-.1.1.1.2c.1.1.1.1.2.1s.1-.1.1-.1h.1c0 .1-.1.1-.2.1.1 0 .1.1.2.1.1.1.1 0 .1.1 0-.1.1-.1.1-.1l.1-.1c.1-.1.1-.1.2-.1h.1l.1-.1c.1 0 .1-.1 0-.1v-.1c.1-.1.1-.1 0-.2.1 0 .1 0 .1-.1s0-.1-.1 0c-.1 0 .1-.1-.1-.1 0 0 0-.1-.1 0-.1 0-.1.1-.1-.1v-.1c-.1-.1-.3 0-.4.1 0 0-.1 0-.1.1h-.1v-.1c-.1-.1-.2-.2-.4-.2-.1 0-.1 0-.1.1-.1-.1-.1 0-.1 0l-.1.1s0 .1.1.1c.2.2.2.3.2.3-.1 0-.1 0 0 0-.1 0 0 0 0 0zm.1.3c.1 0 .1 0 0 0 .1 0 .1 0 0 0zm.2.1c0-.1 0-.1 0 0 .1-.1.1-.1 0 0 .1 0 0 0 0 0zm.1-.1c-.1 0-.1 0 0 0-.1 0-.1 0 0 0 0-.1 0 0 0 0zm.1.1zm0-.1s0-.1 0 0c0-.1 0 0 0 0zm.1.3zm.1-.2h0zm.3-.4s-.1 0 0 0c-.1 0 0 0 0 0zm-.6 0c.1.1.2-.1.2.1h.1v.1s0 .1.1 0c-.1-.1 0-.1.1-.1h.1c.1 0 .1 0 .1.1v.2c0 .1 0 .1.1.1s0 0 0 .1h-.2s.1-.1 0-.1h-.1c-.1 0-.1 0-.1-.1v-.1h-.2c-.3-.2-.3-.2-.2-.3-.1 0-.1 0 0 0zm.1.2H92c0-.1.1 0 .2 0zm-.3-.3c.1.1.1.1 0 0 0 .1 0 .1 0 0 0 .1 0 .1 0 0zm-.1 0c0 .1 0 .1 0 0 0 .1 0 .1 0 0 0 .1 0 .1 0 0zM91.8 177.7c0 .1 0 .1.1.1l-.1-.1c.2.1.2 0 0 0 .1 0 .1 0 0 0zM98.2 176.5s-.1 0 0 0 .1.1.1 0c-.1-.1-.1-.1-.1 0 0-.1 0-.1 0 0zM114 167s.1 0 0 0c.1 0 .1 0 0 0 0-.1 0 0 0 0zM114.1 166.7c-.1 0-.1 0 0 0-.1 0-.1 0 0 0zM113.8 162.6c0-.1 0-.1 0 0 0-.1 0-.1 0 0zM89.8 164.9c0 .1.1.1.2.2s.2.2.4.2c0 .1.1.1.1.1.1.1.1.1.1 0v-.1c.1-.1.2-.2.3-.2.2-.1.3-.3.2-.5-.1-.1-.1-.2-.2-.2-.1-.1-.2.1-.3.1l-.1.1c-.1-.3-.4-.3-.5-.1v.1c-.3.1-.3.2-.2.3zm1.1-.1s0 .1 0 0c0 .1 0 0 0 0zm0 .1zm-.4 0zm-.5 0zm0 .1zm-.1-.4s.1 0 0 0c.1 0 .1.1 0 0l.1.1s0 .1.1 0v.2h.1c-.1 0-.1 0-.1-.1-.1-.1-.1-.1-.2 0 .1 0 0-.2 0-.2zM113.7 166.3s.1.1 0 0c.1 0 .1 0 0 0 .1 0 .1 0 0 0 .1 0 0 0 0 0zM92.9 166.7s0 .1 0 0zM114.2 166.7c-.1 0-.1 0 0 0-.1 0-.1 0 0 0zM113.9 166.7c.1 0 .1 0 0 0 .1 0 .1 0 0 0zM113.8 167h0zM90.8 172.4s-.1 0 0 0c-.1 0-.1 0 0 0zM119 183.7l.1.1c0-.1 0-.2.1-.4-.1 0-.1.1-.1.1-.1.1-.1.2-.1.2zM91.7 178.3zM98.1 176.5 98.1 176.5s0-.1 0 0c0-.1 0 0 0 0zM113.7 166.6 113.8 166.6s-.1 0 0 0c-.1 0-.1.1 0 0zM90.7 172.4zM98.1 176.5zM113.8 178.5zM90 164.8c.1 0 .1 0 0 0 .1 0 .1 0 0 0 .1 0 0 0 0 0zM90.3 168.4c.1.1 0 .2.1.1v-.1h-.1z"/><path fill="#217780" d="M90.9 168.6c-.1-.1 0-.1-.1-.2 0 0 0-.1.1-.1s0 0 0 .1c0 0 .1 0 .1-.1v-.1c-.1-.1-.2-.2-.4-.2-.1 0-.1.1-.1.1v.1c-.1 0-.1 0-.1.1v.1c.1-.1.1 0 .1 0 0 .1.1.1.1.1h-.5c-.1 0-.1 0-.2-.1.1 0 .1 0 .1-.1s0-.1.1-.1h.2l-.1-.1c-.1-.1-.1-.1-.2 0h-.1c0-.1-.1 0-.1 0v.1c.1 0 .1.1.1.1s-.1 0-.1.1c0-.1 0-.1-.1-.2 0 .1-.1.1-.1.1l-.1.1c0 .1.1.2.2.4.2.1.4.2.5.4l.1-.1c.1-.1.2-.2.4-.2s.2-.2.2-.3l-.1-.1c.2.1.2.1.1.1zm-.7.3c0-.1 0-.1 0 0 0-.1 0-.1 0 0 0-.1 0 0 0 0zm.3.1zm.2-.7c.1 0 .1 0 0 0 .1 0 .1 0 0 0zM115.6 168.3 92.6 166.7c0-.1-.1-.1 0 0-.1 0-.1 0-.1.1-.1-.1-.1-.1.1-.1-.1 0 0 0 0 0zM92.4 166.6zM92.4 166.7zM92.4 166.7zM92.5 162.7z"/><g><path fill="none" d="M79.6 47.7c-2.7 7.8-11.5 12.5-11.5 12.5 1.7 1 6.1 8.7 6.6 11.7.5 3.1 3.3 5.8 4.2 7.5.9 1.7 3.5 1.7 3.5 1.7 1.7-.4 3-.1 3.7.1l-.5-13.4c-3.8-3.7-6-20.1-6-20.1zM132.3 63.9c2.7-1.1 4.9-2 5.9-2.7 0 0 1.3-5-1.5-12.8 0 0-1.8 9.5-4.4 15.5z"/><path fill="#AFCF36" d="M155.1 64c0-19.4-3.8-26.3-3.8-26.3-3.8-13.6-17.8-12.9-17.8-12.9s-8.6-2.1-11.2-1.6c-2.6.5-7.2-1.4-7.2-1.4l-.3-4.1c.2.1 1.2.2 1.4-1.7 0 0 1.3-1 .5-3.5 0 0 .6-4.4-.6-6.1 0 0-.7-3.4-3.4-3.4 0 0-2.2-3.3-7.5-1.2 0 0-1.6.4-2 1.3 0 0-4.5 1.1-3.8 7.5 0 0-.3 1.1-.1 1.7 0 0-1.1 2.2.1 3.7 0 0 .2 1.9 1.4 1.8l-.2 3.8c1.9-.5 3.3-.1 3.3-.1-1.2.1-2.4.3-3.3.5-.4.1-1 .3-1.7.5-.2.1-.2.1-.4.1-1.7.4-3.9.8-5.2.6-2.7-.5-11.3 1.6-11.3 1.6s-14-.7-17.8 13c0 0-9.2 8.6-10.1 16.3l-2.7 5.1 1.8 4.6s2.4 12.8 21.3 23.7c0 0 1.1 2.4 4 4.6 2.1-1.1 4.8-2 8-2.3-.1 1.6-.1 2.8-.1 3.4 0 0-.5 2.8-1.2 3.8-.4.5-1.4 2.8-2.4 5.4-.1.3-.2.5-.3.8-.8 2.2-1.4 4.6-1.4 5.8 0 0-1.2 4.8-2.2 11.2-1 6.3-1.6 14.2-.5 20.5-.4.3-.1 5.1-.1 6.1s-.7 6.5-.7 6.5-2.1 3.7-3.7 10.6c-1.4 5.7-2.4 13.6-1.6 23.3-.1.4.8 11.8.8 11.8s.1 1.6-.1 2.8c0 .2-.1.3-.1.5l-2.8 2.2-4.1.4s-2.8-.3-1.7.7c0 0-2.8.2-1.3 1.1 0 0-1.7-.7-1.1.4 0 0-2.9.7-.8 2 0 0 2 3 6 3.6 0 0 3.1 1.1 3.5 1.7s2.6 1.4 7 1.4c3 0 4.5-1.1 4.2-2.4.4-3.5-.8-7.6-.8-7.6s-1.1-1.8-.8-4.6c.5-1.7 1.3-4 2-6.1.9-2.8 1.7-5.1 1.7-5.1s1.1-3.7 2.5-5.4c.8-1.1 3.3-3.1 4.3-9.5.6-3.9.7-9.3-.5-17 0-.1-.1-.2-.1-.4 0 0 0-1.5.4-2 .2-.2.8-1.4 1.5-2.8.8-1.9 1.8-4.2 2.2-5.7 0 0 1.1-4.5 1.7-5.2.5-.5 8-6.4 11.6-25.9 2.4 20.2 9.7 25.3 10.2 25.9.5.6 1.4 5.2 1.4 5.2.2 1.2.7 2.9 1.3 4.4.8 2 1.6 3.9 1.9 4.2.1.1.2.3.2.5.2.7.1 1.6.1 1.6-1.7 8.3-1.9 14-1.4 18 .7 6 3 7.9 3.7 8.9.9 1.3 1.6 3.6 2 4.7.1.4.2.7.2.7s2.2 8 3.2 11.8c.2 2.5-.8 4.1-.8 4.1s-1.3 4.1-.8 7.6c-.3 1.1 1.1 2.4 4.2 2.4 4.4 0 6.6-.8 7-1.4.4-.7 3.5-1.7 3.5-1.7 4-.7 6-3.6 6-3.6 2-1.4-.8-2-.8-2 .6-1.1-1.1-.4-1.1-.4 1.4-.8-1.3-1.1-1.3-1.1 1.1-1.1-1.7-.7-1.7-.7l-4.1-.4-2.9-2.3c-.2-1.2-.1-3.2-.1-3.2v-.1c.1-.7 1.5-11.3 1.4-11.7 1.4-10.5.5-18.9-.7-24.8-1.3-6-3-9.2-3-9.2s-.4-5.4-.4-6.5.6-5.8.2-6.1c1.4-5.9 1.2-13.3.7-19.5 0-.3-.1-.6-.1-.9-1.7-.9-3.1-1.6-3.7-1.7-1.9-.5-4.1-.5-6-.7-1.6-.1-3.2-.4-4.8-.4-.8 0-1.7.2-2.5-.1-.7-.2-1.2-.7-1.9-.9-.8-.3-1.9-.5-2.7-.9-.2-.1-.4-.3-.5-.6-1.4.2-3.4.3-6.3.3h-.1c-7.6 0-9-1-9-1 8.6 1.4 8.7-1 8.7-1 .1-3.3.1-12.9.2-16.8 0-1 .1-1.6.1-1.6 0 .1.1.7.1 1.6.1 3.9.1 13.4.2 16.8 0 0 .1 1.9 6 1.4 0-.1.2-.3.4-.4-.7-1.1-3-1-3.6-2.2-.5-1 .9-1.1 1.6-1.1-.8-.6-3.1-1.1-2.8-2.5.3-1.4 2.5-.3 3.2.1 1 .6 2.4 1 3.5 1.4.7.2 3.3 1.3 3.8.7-1.5-.8-3.3-1.1-4.9-1.8-.8-.4-3.6-1.3-3.7-2.3-.2-2 7.2.6 8.1.8 1.8.5 3.6 1 5.5.5 1.7-.5 2.2-1.9 1.4-3.4-.7-1.3-2.4-2.5-2.4-4 0-.4.1-1.1.5-1.2.5-.1 1.3 1.2 1.8 1.5 1 .7 1.7.7 2.4 1.7s1.7 1.9 2.2 3c.8 1.8 1.3 3.6 2.8 4.9.2.2.5.4.8.5-.2-1.3-.4-1.9-.4-1.9.2-3-2.8-11-3.6-12.1-.7-1.1-1-3.8-1-3.8.1-.6.1-1.9.1-3.4.1-2.8.1-6.7.2-9.1l.1-2.7c19.6-2.8 24.5-8.8 24.5-8.8l1.8-1-.5-4.3zM82.4 81.2s-2.6 0-3.5-1.7c-.9-1.7-3.7-4.5-4.2-7.5s-4.9-10.7-6.6-11.7c0 0 8.8-4.7 11.5-12.5 0 0 2.2 16.4 6.1 20.2l.5 13.4c-.7-.3-2-.6-3.8-.2zm55.8-20c-1 .6-3.3 1.6-5.9 2.7 2.6-6 4.4-15.5 4.4-15.5 2.8 7.8 1.5 12.8 1.5 12.8z"/><path fill="#FFF" d="M113.5 115.2c2.2-.3 2.7-.7 2.7-.7-1 .2-1.9.3-2.7.4v.3z"/></g><path d="M100.2 4.3c-.2.5-.7.9-1.1 1.3-.4.5-.4 1-.5 1.6-.2 1.2 0 2.4-.5 3.5.3.1.6 0 .9-.1.2.5.4.9.6 1.4.2.5.1 1.1.3 1.7.1-.1.3-.1.4-.2.1.8.5 1.9.7 2.8.2.8.8 2.2 1.7 2.5.9.3 2.2.2 3.2.2 1.2.1 1.1.5 1.7 1.1.3-.4.6-.8 1-1.2.9.4 2.8-.1 3.8-.4 1-.3 1.4-.5 1.7-1.3.2-.5.2-1.1.5-1.6.2-.4.7-.6 1-.9 1-.9.5-1.9 1-3 .2-.4.5-.8.7-1.1.3-.7.1-1.4.2-2.1.2-1.4.6-2.6-.2-4-.7-1-1.6-2.4-2.7-3.2-1-.7-2-.4-3.2-.4-.6 0-1.1-.4-1.6-.6-.8-.3-2-.5-3-.4-1.6.2-2.8 1.1-4.3 1.5l.5.5c-1.1.5-2 1-3 1.6.2.1.2.2.4.3-.1.2-.5.3-.2.5z"/><g fill="#217780"><path d="M60 185.2c-3.2 10.8-.6 16.8 5.8 17.4 0 0 3.1.5 7.1-.7.2-1.2.1-2.8.1-2.8s-.9-11.4-.8-11.8c-.8-9.7.2-17.6 1.6-23.3-2.8 3-11.2 12.2-13.8 21.2zM137.8 162.6c1.2 5.8 2.1 14.2.7 24.8.1.4-1.3 11.1-1.4 11.7 2.7 1.7 5.7 3.1 8.8 3.1 8.4 0 9.1-5.4 9.1-5.4l.7-4.9s-.6-5.4-3-9.1c.1 0-5.7-13.2-14.9-20.2zM121.1 175.7c-1.4 3.2-1.8 6.2-1.9 8.1 2.7 2.2 6.1 4.8 7.7 5.6-.4-1.1-1.1-3.4-2-4.7-.8-1.1-3.1-3-3.8-9zM86.1 184.7c-1.3 1.7-2.5 5.4-2.5 5.4l-1.7 5.1c.1-.1.1-.1.1-.2 0 0 4.2-5.5 6.9-6.8 1-.5 3-1.9 4.9-3.5-.9-3.9-2.1-7-3.5-9.6-.9 6.5-3.5 8.5-4.2 9.6zM71.2 110c-6.1 2.6-14.9 7.2-9.1 18.5 0 0 8.6 3.6 15.8-7.1l1-1.2c1-6.3 2.2-11.2 2.2-11.2 0-1.3.7-3.6 1.4-5.8-4.2 3-8.7 5.7-11.3 6.8zM66.5 111.7c6-3 12.4-6.8 16.3-9.2 1-2.5 2-4.9 2.4-5.4.7-1.1 1.2-3.8 1.2-3.8 0-.6.1-1.9.1-3.4-3.3.4-5.9 1.2-8 2.3-8 4.2-8.6 12.4-8.6 12.4-6.8 2.7-7.4 10.8-7.4 10.8s1.3-2.4 4-3.7zM155 112.5c-2.1-2.7-5.6-6.4-9.6-8 0 0-1-12.7-16-14.6-.1 1.6-.1 2.8-.1 3.4 0 0 .4 2.8 1 3.8.7 1.1 3.7 9.1 3.6 12.1 0 0 .1.7.4 1.9-.3-.2-.6-.4-.8-.5-1.6-1.4-2-3.2-2.8-4.9-.5-1.1-1.6-1.9-2.2-3-.7-1-1.4-1.1-2.4-1.7-.5-.3-1.3-1.6-1.8-1.5-.4.1-.5.8-.5 1.2 0 1.5 1.7 2.7 2.4 4 .7 1.5.3 2.8-1.4 3.4-1.9.5-3.7 0-5.5-.5-.8-.2-8.3-2.8-8.1-.8.1 1 2.9 1.9 3.7 2.3 1.6.7 3.3 1 4.9 1.8-.5.7-3.1-.4-3.8-.7-1.1-.4-2.5-.8-3.5-1.4-.8-.4-2.9-1.6-3.2-.1-.3 1.4 1.9 1.8 2.8 2.5-.7 0-2.1.1-1.6 1.1.6 1.2 2.9 1 3.6 2.2-.8.2-.4 1 .1 1.3.8.4 1.8.6 2.7.9.7.2 1.2.8 1.9.9.8.2 1.7.1 2.5.1 1.6 0 3.2.2 4.8.4 1.9.2 4.2.2 6 .7.5.1 2 .8 3.7 1.7 0 .3.1.6.1.9l11.6 5.1c12.1 5.8 17.5-1.9 17.5-1.9-1.1-8.4-5.3-11.3-10-12.1z"/></g><g><path fill="#217780" d="M122.1 155.8c-.2-.3-1.1-2.1-1.9-4.2-.6-1.6-1.1-3.3-1.3-4.4 0 0-.9-4.5-1.4-5.2-.5-.6-7.8-5.7-10.2-25.9-3.6 19.4-11 25.3-11.6 25.9-.6.6-1.7 5.2-1.7 5.2-.3 1.6-1.3 3.9-2.2 5.7-.7 1.4-1.3 2.6-1.5 2.8-.4.5-.4 2-.4 2 0 .1.1.2.1.4 17.2 1.4 27.4-.4 32.4-1.9-.1-.1-.2-.3-.3-.4zm-15.4-6.6c0-.4.2-.7 0-1.1-.2-.4-.6-.4-.8-.7h-.1c1.2-.5 2.1 1.3.9 1.8z"/></g><path fill="none" d="M280.4-2.5c-11.2-11.1-17.7-58.7-17.7-58.7-8 22.8-33.5 36.4-33.5 36.4C234-22 246.8.3 248.4 9.1 250 18 258 25.9 260.6 31c2.7 5.1 10.1 5.1 10.1 5.1 5-1.1 8.7-.4 11 .3l-1.3-38.9z"/></svg>