<?xml version="1.0" encoding="utf-8"?>
<!-- Generator: Adobe Illustrator 18.1.1, SVG Export Plug-In . SVG Version: 6.00 Build 0)  -->
<svg version="1.1" id="OPEN-BOOK_TESTE" xmlns="http://www.w3.org/2000/svg" xmlns:xlink="http://www.w3.org/1999/xlink" x="0px"
	 y="0px" viewBox="0 0 418.8 557.3" enable-background="new 0 0 418.8 557.3" xml:space="preserve">
<g>
	<path fill="none" d="M325.9,289c0,0-6.9-2.2-13.8,1c-4.1,1.9-17.9,3.7-34.9,1.8c-2.1,1.9-4.3,3.6-6.7,5.1c-0.2,1-0.4,2.1-0.7,3.1
		l-1.3,1.1c0,0.2-0.1,0.3-0.1,0.4c-1.9,5.5-4.2,15.9,0.9,23.8c3.7,5.6,12.2,16.9,18.5,24.3l1.4-1.4c1.7,1.8,3.1,3.6,4.5,5.4
		c0.1-0.2,0.2-0.4,0.3-0.8c0,0,9.9-12.7,24.9-18.1C317.7,322,319.2,306.9,325.9,289z"/>
	<path fill="none" d="M191.9,32.5l-2-7.2l-0.2-5l-17.8-2c0,0-9.1,1.6-13.7,4.6c-4.6,2.9-29,13.8-29,13.8s18.9,1.5,23.2,16.2
		c0,0,16.3,1.3,25.1,16.3l15.7-6.5c0,0,0.5-0.1,1.4-0.3c1.3-6.4,3.8-19.6,3.9-28.4L191.9,32.5z"/>
	<path fill="none" d="M144.1,357c6.2-7.3,16.9-19.7,19-22.2c2.8-3.2,7.4-8.6-1.6-24.9c-2.3-4.2-5-11.4-7.7-19.9
		c-22,4.5-41.4,2.3-46.4,0c-6.9-3.2-13.8-1-13.8-1c5.6,20,7.1,35.4,6.3,47.8c14,2.3,28.5,10.3,38.6,23.5c0.6-1,1.2-2,1.9-3l1.4,3
		c0,0-0.3,0.4-0.9,1.2c0.7-0.8,1.8-2.2,3.2-3.8l-0.5-0.2L144.1,357z"/>
	<path fill="none" d="M244.4,37.5l-4.9-0.2l1,4.3l-2.7,0.4c0,0,3.2,2.4,1,4c0,0,0.5,1.2,0.8,1.7c0,0,0.3,3.2-2.4,4.1
		s-7.1-1.3-7.1-1.3s-2.3,2.8,0.7,13.9l17.5,4.1c0,0,7.2-13,24.5-12.1c0,0,13.6-14.8,29.9-16.1c0,0-20.1-10.9-30.2-17.8l-13-4.2
		l-13-0.3l-1.8,4.9C245.3,26.8,244.5,31.7,244.4,37.5z"/>
	<g>
		<path fill="#F0572F" d="M228.1,325.1l-13.6-3.7l-12.7,3.5c0,0.1,0,0.2,0,0.4l12.7,1.5L228.1,325.1z"/>
		<path fill="#F0572F" d="M202,312.1c0,0.2,0,0.3,0,0.5l2.5-0.3L202,312.1z"/>
		<path fill="#F0572F" d="M210.7,320.3l-8.6-2.4c0,1.6-0.1,3.2-0.1,4.8L210.7,320.3z"/>
		<path fill="#F0572F" d="M201.8,308.1l8.2-1.9l-8.5-2C201.7,305.5,201.8,306.8,201.8,308.1z"/>
		<polygon fill="#F0572F" points="202.1,310.1 214.5,311.3 226.9,310.1 214.5,307.2 		"/>
		<path fill="#F0572F" d="M208.1,297.2l-7.5-1.2c0,0-0.1,0-0.1,0c0.1,0.8,0.2,1.5,0.3,2.3L208.1,297.2z"/>
		<path fill="#F0572F" d="M199.5,343.1c-0.1,0.5-0.2,1-0.3,1.5l6.5-0.7L199.5,343.1z"/>
		<path fill="#F0572F" d="M209.7,292.5l-1.6,0.3c-1,0.7-2.1,1.3-3.3,1.8l6.4,1C210.7,294.7,210.2,293.6,209.7,292.5z"/>
		<path fill="#F0572F" d="M201.1,333.3c-0.2,1.8-0.5,3.6-0.8,5.4l10.4-2.8L201.1,333.3z"/>
		<path fill="#F0572F" d="M229.7,341.1l-15.2-4.1l-14.6,4c0,0.1,0,0.2,0,0.2l14.6,1.7L229.7,341.1z"/>
		<path fill="#F0572F" d="M201.6,328.2l4.3-0.5l-4.2-0.5C201.7,327.5,201.6,327.9,201.6,328.2z"/>
		<path fill="#F0572F" d="M231.9,344.8c-0.1-0.6-0.3-1.3-0.4-1.9l-8.2,0.9L231.9,344.8z"/>
		<path fill="#F0572F" d="M229.1,328.4c-0.1-0.5-0.1-0.9-0.1-1.4l-5.8,0.7L229.1,328.4z"/>
		<path fill="#F0572F" d="M228.2,314.7l-13.7-1.4l-12.4,1.3c0,0.4,0,0.8,0,1.3l12.4,3.4l13.7-3.8C228.2,315.3,228.2,315,228.2,314.7
			z"/>
		<path fill="#F0572F" d="M201.3,302.1l13.1,3.1l14-3.3c0-0.3,0-0.5,0.1-0.8c-5.4,2-11.1,1.5-15.2-2.8l-12.2,1.9
			C201.2,300.9,201.3,301.5,201.3,302.1z"/>
		<path fill="#F0572F" d="M218.3,320.3l10.3,2.8c-0.1-1.9-0.3-3.7-0.3-5.6L218.3,320.3z"/>
		<path fill="#F0572F" d="M218.9,306.2l9.3,2.2c0-1.5,0.1-2.9,0.2-4.4L218.9,306.2z"/>
		<path fill="#F0572F" d="M224.5,312.4l3.7,0.4c0-0.2,0-0.5,0-0.7L224.5,312.4z"/>
		<path fill="#F0572F" d="M201.4,330.2c0,0.4-0.1,0.7-0.1,1.1l13.2,3.6l14.9-4.1c0-0.1,0-0.3-0.1-0.4l-14.9-1.7L201.4,330.2z"/>
		<path fill="#F0572F" d="M230.7,339.3c-0.4-2.2-0.8-4.3-1.1-6.5l-11.4,3.1L230.7,339.3z"/>
		<path fill="#F0572F" d="M261.4,227.7c-0.7,3.7-4.2,9.2-8.1,5.6c-1.4,4.5-0.8,9.2,0.3,13.8c7-2.5,18.3-6.3,26.2-7.6l0.3,0
			c0.5-2.9,0.9-5.8,1.3-8.5c0,0,0.7,12.9-10.9,66c2.4-1.5,4.6-3.2,6.7-5.1c19-17.4,26.4-51.8,23.7-76.7c-1.4-13-5.5-23.4-12.2-27.5
			c-5.5-3.4-10.8-5.2-15.7-6c-12.1-2-21.5,2-23.8,3.1c-0.3,5.5-0.3,11,2.4,16.2C255.6,208.3,263.2,218.4,261.4,227.7z"/>
		<path fill="#F0572F" d="M92.2,216.2c7.7,1.4,15.3,2.2,21.3,2.7c22,2,24.5,9.5,24.5,9.5s0.8,3.5,2.1,9l0.1,0
			c8,1.5,24.4,5.8,33.3,8.6c-2.4-3.2-4.6-6.5-5.4-10.6c-2.3-11.3,4.7-22.7,10.1-31.4c-7.5-1.3-13-8.7-12.9-16.6
			c0-2.3,0.6-4.3,1.3-6.2c-4.9-0.5-18.6-1.4-27.2,1c0,0-26.5-8.3-47.2-4c0.8-0.3,23.2-7,47.2,2.4c0,0,15.3-3.8,28.1-1.3
			c0.9-1.6,1.9-3.2,3-4.7c-4.5-0.3-10.6-1-19.1-2.4c-5.8-0.9-12.8-2.2-21-3.9c-54-11-72,7-72,7l-9,5
			C49.5,203.7,71.7,212.4,92.2,216.2z"/>
		<path fill="#F0572F" d="M358.5,342.9c-14.7-12.1-28.5-12.1-39.6-8.1c-15,5.4-24.9,18.1-24.9,18.1c-0.1,0.3-0.2,0.5-0.3,0.8
			c19.4,26.4,7.2,55.6,7.2,55.6c6.2-27.7-2.9-45.8-8.9-54.1l-5,2.5c-3.8,1.3-6.3,2-8.6,2.6c-5.5,1.5-8.5,2.3-19.7,8.9
			c-5.7,3.3-10.2,5-13.5,5h0c-4,0-4.8-2.6-4.8-2.7c-3.5-8.4-6.1-16.7-8.1-24.7l-17.9-2.1l-15.7,1.8c-1.8,8-4.3,16.4-7.9,25
			c0,0-0.7,2.6-4.8,2.6c0,0,0,0,0,0c-3.3,0-7.8-1.7-13.5-5c-11.2-6.6-14.2-7.4-19.7-8.9c-2.3-0.6-4.8-1.3-8.5-2.6l-0.2-0.1
			c-1.4,1.6-2.5,2.9-3.2,3.8c-4.3,5.8-21.9,32.1-12.2,56.8c0,0-12.7-21.3,9.8-58c-10.1-13.2-24.6-21.2-38.6-23.5
			c-9.3-1.5-18.3-0.5-25.8,3.1c-15.7,7.7-31.1,36.8-4.2,81.4c1,1.6,2,3.2,3,4.8c6.1,9.3,14,19.3,24.2,29.8
			c61.5,64,120.5,15,120.5,15c41.5,26.5,78,8.5,109-11c6.7-4.2,13.7-10.8,20.1-18.8c0.8-1,1.5-1.9,2.3-3
			C370.7,409.2,384.6,364.5,358.5,342.9z"/>
		<path fill="#F0572F" d="M299.5,479.7c-5.1,1.4-10.1,2.9-15.1,4.5c-3.5,1.2-11.7,1.5-13.3,3.9c-1.7,2.3-2.2,6.3-3.6,8.9
			c-1.4,2.6-3,5.2-4.6,7.8c-2.6,4.1-8,8.9-8.3,13.8c-0.2,5.6,5.9,9,4.8,13.8c-1.4,6.3-9.7,11.9-6.5,18.5c2.9,5.9,10.9,6.4,16.9,6.4
			h24.6c-0.2-3.2,0.1-4.1-1.7-6.6c-1.2-1.7-2.7-3.1-3.8-4.8c-3.8-5.9-0.8-12.9-0.5-19.2c0.4-8,0.8-15.3,3.7-22.9
			c3.8-9.9,10.1-18.4,27.1-33.1C316.4,470.2,302.3,478.9,299.5,479.7z"/>
		<path fill="#F0572F" d="M163,520.6c-0.2-4.6-2.5-8.7-5-12.7c-1.5-2.4-3.7-4.8-5-7.3c-1.3-2.5-1.1-6.1-2.7-8.3
			c-1.6-2.2-9.6-2.6-13-3.7c-4.8-1.6-8.1-4.7-13-6c-2.7-0.7-15.8-12.3-18.7-12c16.3,13.9,17.6,26.5,21.3,35.9
			c2.8,7.2,3.2,14.1,3.6,21.7c0.3,6,3.2,12.6-0.5,18.2c-1.1,1.6-2.5,3-3.6,4.6c-1.7,2.3-1.4,3.2-1.6,6.3h23.7c5.7,0,13.4-0.4,16.2-6
			c3.1-6.3-4.9-11.6-6.2-17.5C157.4,529.1,163.2,525.9,163,520.6z"/>
	</g>
	<path d="M174.7,247.5c3.8,4.8,8,9.5,8.9,15.9c1.4,9.6-5.8,19.1,1.3,27.9c3.6,4.5,9.3,5.8,14.7,4.9c0.3-0.1,0.7-0.1,1-0.2
		c0,0,0.1,0,0.1,0c1.4-0.3,2.9-0.8,4.2-1.4c1.2-0.5,2.3-1.1,3.3-1.8c0.5-0.3,0.9-0.6,1.3-1c0.1,0.2,0.2,0.4,0.3,0.7
		c0.5,1.2,1,2.2,1.5,3.1c0.2,0.3,0.4,0.6,0.6,0.9c0.5,0.7,0.9,1.3,1.5,1.8c4.1,4.3,9.8,4.8,15.2,2.8c0.3-0.1,0.7-0.3,1-0.4
		c0.1,0,0.2-0.1,0.2-0.1c1-0.4,2-1,2.9-1.6c2-1.3,3.8-2.8,5.5-4.7c0.1-0.1,0.2-0.2,0.2-0.3c3.4-3.9,5.7-8.9,5.8-14.2
		c8.2,7,13.9-9.7,13.4-16c-0.4-5.1-2.4-10.4-3.8-15.8c-0.1-0.3-0.2-0.6-0.2-1c-1.1-4.7-1.7-9.3-0.3-13.8c3.9,3.6,7.4-1.9,8.1-5.6
		c1.8-9.3-5.8-19.3-9.7-26.7c-2.8-5.2-2.8-10.7-2.4-16.2c0.6-9.5,2.2-19-7.2-26.9c11-11.1-3.4-18-7.1-27.2
		c-7.1-17.3-31.8-12.6-37.6-9.1c-5.2,3.1-10.3,8.1-13.2,13.2c-3.7,6.3-20.2,23.8-7,28.9c-1.3,4.2-4,7.6-6.5,11.1
		c-1.1,1.5-2.1,3.1-3,4.7c-0.3,0.6-0.6,1.3-0.9,1.9c-0.8,1.9-1.3,3.9-1.3,6.2c-0.1,7.8,5.4,15.3,12.9,16.6
		c-5.4,8.7-12.5,20.2-10.1,31.4c0.8,4,3,7.4,5.4,10.6C173.9,246.5,174.3,247,174.7,247.5z"/>
	<g>
		<path fill="#2FC4F1" d="M416.9,519.9c0,0,4.9-2.7-1.3-5.8c0,0-9.8-5.1-16.4-12.7c0,0-14.4-20.2-17-22.3c0,0-6.2-7.2-6.2-14.8
			l-0.3-7.6l0.3,0c-2.8-14.7,10.4-61.7,10.4-61.7c13.1-51.7,2.8-113,2.8-113l-1.1-56c-16.5-7.4-55.4-10-87.2-10.9
			c2.7,24.9-4.7,59.3-23.7,76.7c17,1.9,30.8,0.1,34.9-1.8c6.9-3.2,13.8-1,13.8-1c-6.7,17.9-8.2,33-6.9,45.8c11.1-4,24.9-4,39.6,8.1
			c26.1,21.6,12.1,66.3-9.6,95.2c-0.8,1-1.5,2-2.3,3l-1.9,26.8c0,0-11.3,21.1-8.3,31.4c0,0-2.3,9.6,19,9.6c0,0,4.3-1,6.5,7.2
			c2.3,8.2,5.6,13.4,14.7,11c0,0,1.6,9.3,21.6,6.5c0,0,5.6,0.7,5.6-2.1c0,0,8.2,4.1,8.8-0.7c0,0,8.8,0.3,3.3-6.5
			C416,524.3,419.9,524,416.9,519.9z"/>
		<path fill="#2FC4F1" d="M139.5,237.3l0.7,0.1c-1.3-5.5-2.1-9-2.1-9s-2.5-7.5-24.5-9.5c-6-0.5-13.5-1.3-21.3-2.7
			c-24.6,1.5-48.7,4.3-60.8,9.8l-1.1,56c0,0-10.4,61.3,2.8,113c0,0,9.2,32.9,10.6,52.3l-0.2,7.3c0,7.7-6.3,15-6.3,15
			c-2.7,2.1-17.3,22.6-17.3,22.6c-6.6,7.7-16.6,12.9-16.6,12.9c-6.3,3.1-1.3,5.9-1.3,5.9c-3,4.2,1,4.5,1,4.5c-5.6,7,3.3,6.6,3.3,6.6
			c0.7,4.9,9,0.7,9,0.7c0,2.8,5.6,2.1,5.6,2.1c20.3,2.8,21.9-6.6,21.9-6.6c9.3,2.4,12.6-2.8,14.9-11.1c2.3-8.4,6.6-7.3,6.6-7.3
			c21.6,0,19.3-9.7,19.3-9.7c3-10.4-8.5-31.8-8.5-31.8l-2.3-32.1c-1.1-1.6-2.1-3.2-3-4.8c-26.9-44.6-11.5-73.7,4.2-81.4
			c7.5-3.7,16.6-4.6,25.8-3.1c0.8-12.4-0.7-27.8-6.3-47.8c0,0,6.9-2.2,13.8,1c5,2.3,24.3,4.5,46.4,0c-5.6-17.5-11.3-40.2-14.1-51.9
			L139.5,237.3z"/>
		<path fill="#2FC4F1" d="M296.2,89.6c16.6-11.4,38-43.7,38-43.7l7.2-17L341,18.5c-10.1-9.8-41.4-13.7-41.4-13.7
			c-28.9-1-54,2.8-64.1,4.6c-4.6-3.6-8.8-4.3-8.8-4.3s-17.5-2.6-24.6,3.2c-27.7-14.2-71.6-5.9-71.6-5.9C109.3,4,84.8,16.1,84.8,16.1
			l1.6,11.7l7.2,15l13.1,23c5.2,21.8,33,32.7,33,32.7s6.8,45.4,11.8,73.7c8.5,1.4,14.6,2.1,19.1,2.4c2.4-3.5,5.1-6.9,6.5-11.1
			c-13.3-5.1,3.3-22.6,7-28.9c3-5.1,8-10.2,13.2-13.2c5.8-3.4,30.6-8.1,37.6,9.1c3.8,9.2,18.2,16.1,7.1,27.2
			c9.5,7.9,7.8,17.4,7.2,26.9c2.3-1.1,11.7-5.1,23.8-3.1l0-0.3c0,0,8.9-30.3,14.6-81.1C293.4,95.5,296.2,89.6,296.2,89.6z M230,50.5
			c0,0,4.4,2.2,7.1,1.3s2.4-4.1,2.4-4.1c-0.3-0.5-0.8-1.7-0.8-1.7c2.2-1.7-1-4-1-4l2.7-0.4l-1-4.3l4.9,0.2
			c0.1-5.9,0.9-10.7,0.1-14.7l1.8-4.9l13,0.3l13,4.2c10.1,6.8,30.2,17.8,30.2,17.8c-16.3,1.3-29.9,16.1-29.9,16.1
			c-17.3-1-24.5,12.1-24.5,12.1l-17.5-4.1C227.7,53.3,230,50.5,230,50.5z M129.2,36.7c0,0,24.5-10.9,29-13.8
			c4.6-2.9,13.7-4.6,13.7-4.6l17.8,2l0.2,5l2,7.2l6.6,1.5c0,8.7-2.6,22-3.9,28.4c-0.9,0.2-1.4,0.3-1.4,0.3l-15.7,6.5
			c-8.8-15-25.1-16.3-25.1-16.3C148.1,38.2,129.2,36.7,129.2,36.7z"/>
	</g>
</g>
</svg>
