<svg xmlns="http://www.w3.org/2000/svg" viewBox="0 0 418.8 557.3"><path fill="none" d="M325.9 289s-6.9-2.2-13.8 1c-4.1 1.9-17.9 3.7-34.9 1.8-2.1 1.9-4.3 3.6-6.7 5.1-.2 1-.4 2.1-.7 3.1l-1.3 1.1c0 .2-.1.3-.1.4-1.9 5.5-4.2 15.9.9 23.8 3.7 5.6 12.2 16.9 18.5 24.3l1.4-1.4c1.7 1.8 3.1 3.6 4.5 5.4.1-.2.2-.4.3-.8 0 0 9.9-12.7 24.9-18.1-1.2-12.7.3-27.8 7-45.7zM191.9 32.5l-2-7.2-.2-5-17.8-2s-9.1 1.6-13.7 4.6c-4.6 2.9-29 13.8-29 13.8s18.9 1.5 23.2 16.2c0 0 16.3 1.3 25.1 16.3l15.7-6.5s.5-.1 1.4-.3c1.3-6.4 3.8-19.6 3.9-28.4l-6.6-1.5zM144.1 357c6.2-7.3 16.9-19.7 19-22.2 2.8-3.2 7.4-8.6-1.6-24.9-2.3-4.2-5-11.4-7.7-19.9-22 4.5-41.4 2.3-46.4 0-6.9-3.2-13.8-1-13.8-1 5.6 20 7.1 35.4 6.3 47.8 14 2.3 28.5 10.3 38.6 23.5.6-1 1.2-2 1.9-3l1.4 3-.9 1.2c.7-.8 1.8-2.2 3.2-3.8l-.5-.2.5-.5zM244.4 37.5l-4.9-.2 1 4.3-2.7.4s3.2 2.4 1 4c0 0 .5 1.2.8 1.7 0 0 .3 3.2-2.4 4.1s-7.1-1.3-7.1-1.3-2.3 2.8.7 13.9l17.5 4.1s7.2-13 24.5-12.1c0 0 13.6-14.8 29.9-16.1 0 0-20.1-10.9-30.2-17.8l-13-4.2-13-.3-1.8 4.9c.6 3.9-.2 8.8-.3 14.6z"/><g fill="#F0572F"><path d="M228.1 325.1l-13.6-3.7-12.7 3.5v.4l12.7 1.5 13.6-1.7zM202 312.1v.5l2.5-.3-2.5-.2zM210.7 320.3l-8.6-2.4c0 1.6-.1 3.2-.1 4.8l8.7-2.4zM201.8 308.1l8.2-1.9-8.5-2c.2 1.3.3 2.6.3 3.9zM202.1 310.1l12.4 1.2 12.4-1.2-12.4-2.9M208.1 297.2l-7.5-1.2h-.1c.1.8.2 1.5.3 2.3l7.3-1.1zM199.5 343.1l-.3 1.5 6.5-.7-6.2-.8zM209.7 292.5l-1.6.3c-1 .7-2.1 1.3-3.3 1.8l6.4 1c-.5-.9-1-2-1.5-3.1zM201.1 333.3c-.2 1.8-.5 3.6-.8 5.4l10.4-2.8-9.6-2.6zM229.7 341.1l-15.2-4.1-14.6 4v.2l14.6 1.7 15.2-1.8zM201.6 328.2l4.3-.5-4.2-.5c0 .3-.1.7-.1 1zM231.9 344.8c-.1-.6-.3-1.3-.4-1.9l-8.2.9 8.6 1zM229.1 328.4c-.1-.5-.1-.9-.1-1.4l-5.8.7 5.9.7zM228.2 314.7l-13.7-1.4-12.4 1.3v1.3l12.4 3.4 13.7-3.8v-.8zM201.3 302.1l13.1 3.1 14-3.3c0-.3 0-.5.1-.8-5.4 2-11.1 1.5-15.2-2.8l-12.2 1.9c.1.7.2 1.3.2 1.9zM218.3 320.3l10.3 2.8c-.1-1.9-.3-3.7-.3-5.6l-10 2.8zM218.9 306.2l9.3 2.2c0-1.5.1-2.9.2-4.4l-9.5 2.2zM224.5 312.4l3.7.4v-.7l-3.7.3zM201.4 330.2c0 .4-.1.7-.1 1.1l13.2 3.6 14.9-4.1c0-.1 0-.3-.1-.4l-14.9-1.7-13 1.5zM230.7 339.3c-.4-2.2-.8-4.3-1.1-6.5l-11.4 3.1 12.5 3.4zM261.4 227.7c-.7 3.7-4.2 9.2-8.1 5.6-1.4 4.5-.8 9.2.3 13.8 7-2.5 18.3-6.3 26.2-7.6h.3c.5-2.9.9-5.8 1.3-8.5 0 0 .7 12.9-10.9 66 2.4-1.5 4.6-3.2 6.7-5.1 19-17.4 26.4-51.8 23.7-76.7-1.4-13-5.5-23.4-12.2-27.5-5.5-3.4-10.8-5.2-15.7-6-12.1-2-21.5 2-23.8 3.1-.3 5.5-.3 11 2.4 16.2 4 7.3 11.6 17.4 9.8 26.7zM92.2 216.2c7.7 1.4 15.3 2.2 21.3 2.7 22 2 24.5 9.5 24.5 9.5s.8 3.5 2.1 9h.1c8 1.5 24.4 5.8 33.3 8.6-2.4-3.2-4.6-6.5-5.4-10.6-2.3-11.3 4.7-22.7 10.1-31.4-7.5-1.3-13-8.7-12.9-16.6 0-2.3.6-4.3 1.3-6.2-4.9-.5-18.6-1.4-27.2 1 0 0-26.5-8.3-47.2-4 .8-.3 23.2-7 47.2 2.4 0 0 15.3-3.8 28.1-1.3.9-1.6 1.9-3.2 3-4.7-4.5-.3-10.6-1-19.1-2.4-5.8-.9-12.8-2.2-21-3.9-54-11-72 7-72 7l-9 5c.1 23.4 22.3 32.1 42.8 35.9z"/><path d="M358.5 342.9c-14.7-12.1-28.5-12.1-39.6-8.1-15 5.4-24.9 18.1-24.9 18.1-.1.3-.2.5-.3.8 19.4 26.4 7.2 55.6 7.2 55.6 6.2-27.7-2.9-45.8-8.9-54.1l-5 2.5c-3.8 1.3-6.3 2-8.6 2.6-5.5 1.5-8.5 2.3-19.7 8.9-5.7 3.3-10.2 5-13.5 5-4 0-4.8-2.6-4.8-2.7-3.5-8.4-6.1-16.7-8.1-24.7l-17.9-2.1-15.7 1.8c-1.8 8-4.3 16.4-7.9 25 0 0-.7 2.6-4.8 2.6-3.3 0-7.8-1.7-13.5-5-11.2-6.6-14.2-7.4-19.7-8.9-2.3-.6-4.8-1.3-8.5-2.6l-.2-.1c-1.4 1.6-2.5 2.9-3.2 3.8-4.3 5.8-21.9 32.1-12.2 56.8 0 0-12.7-21.3 9.8-58-10.1-13.2-24.6-21.2-38.6-23.5-9.3-1.5-18.3-.5-25.8 3.1-15.7 7.7-31.1 36.8-4.2 81.4l3 4.8c6.1 9.3 14 19.3 24.2 29.8 61.5 64 120.5 15 120.5 15 41.5 26.5 78 8.5 109-11 6.7-4.2 13.7-10.8 20.1-18.8.8-1 1.5-1.9 2.3-3 21.7-28.7 35.6-73.4 9.5-95z"/><path d="M299.5 479.7c-5.1 1.4-10.1 2.9-15.1 4.5-3.5 1.2-11.7 1.5-13.3 3.9-1.7 2.3-2.2 6.3-3.6 8.9-1.4 2.6-3 5.2-4.6 7.8-2.6 4.1-8 8.9-8.3 13.8-.2 5.6 5.9 9 4.8 13.8-1.4 6.3-9.7 11.9-6.5 18.5 2.9 5.9 10.9 6.4 16.9 6.4h24.6c-.2-3.2.1-4.1-1.7-6.6-1.2-1.7-2.7-3.1-3.8-4.8-3.8-5.9-.8-12.9-.5-19.2.4-8 .8-15.3 3.7-22.9 3.8-9.9 10.1-18.4 27.1-33.1-2.8-.5-16.9 8.2-19.7 9zM163 520.6c-.2-4.6-2.5-8.7-5-12.7-1.5-2.4-3.7-4.8-5-7.3-1.3-2.5-1.1-6.1-2.7-8.3-1.6-2.2-9.6-2.6-13-3.7-4.8-1.6-8.1-4.7-13-6-2.7-.7-15.8-12.3-18.7-12 16.3 13.9 17.6 26.5 21.3 35.9 2.8 7.2 3.2 14.1 3.6 21.7.3 6 3.2 12.6-.5 18.2-1.1 1.6-2.5 3-3.6 4.6-1.7 2.3-1.4 3.2-1.6 6.3h23.7c5.7 0 13.4-.4 16.2-6 3.1-6.3-4.9-11.6-6.2-17.5-1.1-4.7 4.7-7.9 4.5-13.2z"/></g><path d="M174.7 247.5c3.8 4.8 8 9.5 8.9 15.9 1.4 9.6-5.8 19.1 1.3 27.9 3.6 4.5 9.3 5.8 14.7 4.9.3-.1.7-.1 1-.2h.1c1.4-.3 2.9-.8 4.2-1.4 1.2-.5 2.3-1.1 3.3-1.8.5-.3.9-.6 1.3-1 .1.2.2.4.3.7.5 1.2 1 2.2 1.5 3.1l.6.9c.5.7.9 1.3 1.5 1.8 4.1 4.3 9.8 4.8 15.2 2.8.3-.1.7-.3 1-.4.1 0 .2-.1.2-.1 1-.4 2-1 2.9-1.6 2-1.3 3.8-2.8 5.5-4.7.1-.1.2-.2.2-.3 3.4-3.9 5.7-8.9 5.8-14.2 8.2 7 13.9-9.7 13.4-16-.4-5.1-2.4-10.4-3.8-15.8-.1-.3-.2-.6-.2-1-1.1-4.7-1.7-9.3-.3-13.8 3.9 3.6 7.4-1.9 8.1-5.6 1.8-9.3-5.8-19.3-9.7-26.7-2.8-5.2-2.8-10.7-2.4-16.2.6-9.5 2.2-19-7.2-26.9 11-11.1-3.4-18-7.1-27.2-7.1-17.3-31.8-12.6-37.6-9.1-5.2 3.1-10.3 8.1-13.2 13.2-3.7 6.3-20.2 23.8-7 28.9-1.3 4.2-4 7.6-6.5 11.1-1.1 1.5-2.1 3.1-3 4.7-.3.6-.6 1.3-.9 1.9-.8 1.9-1.3 3.9-1.3 6.2-.1 7.8 5.4 15.3 12.9 16.6-5.4 8.7-12.5 20.2-10.1 31.4.8 4 3 7.4 5.4 10.6.2.4.6.9 1 1.4z"/><g fill="#2FC4F1"><path d="M416.9 519.9s4.9-2.7-1.3-5.8c0 0-9.8-5.1-16.4-12.7 0 0-14.4-20.2-17-22.3 0 0-6.2-7.2-6.2-14.8l-.3-7.6h.3c-2.8-14.7 10.4-61.7 10.4-61.7 13.1-51.7 2.8-113 2.8-113l-1.1-56c-16.5-7.4-55.4-10-87.2-10.9 2.7 24.9-4.7 59.3-23.7 76.7 17 1.9 30.8.1 34.9-1.8 6.9-3.2 13.8-1 13.8-1-6.7 17.9-8.2 33-6.9 45.8 11.1-4 24.9-4 39.6 8.1 26.1 21.6 12.1 66.3-9.6 95.2-.8 1-1.5 2-2.3 3l-1.9 26.8s-11.3 21.1-8.3 31.4c0 0-2.3 9.6 19 9.6 0 0 4.3-1 6.5 7.2 2.3 8.2 5.6 13.4 14.7 11 0 0 1.6 9.3 21.6 6.5 0 0 5.6.7 5.6-2.1 0 0 8.2 4.1 8.8-.7 0 0 8.8.3 3.3-6.5 0 0 3.9-.3.9-4.4zM139.5 237.3l.7.1c-1.3-5.5-2.1-9-2.1-9s-2.5-7.5-24.5-9.5c-6-.5-13.5-1.3-21.3-2.7-24.6 1.5-48.7 4.3-60.8 9.8l-1.1 56S20 343.3 33.2 395c0 0 9.2 32.9 10.6 52.3l-.2 7.3c0 7.7-6.3 15-6.3 15-2.7 2.1-17.3 22.6-17.3 22.6-6.6 7.7-16.6 12.9-16.6 12.9-6.3 3.1-1.3 5.9-1.3 5.9-3 4.2 1 4.5 1 4.5-5.6 7 3.3 6.6 3.3 6.6.7 4.9 9 .7 9 .7 0 2.8 5.6 2.1 5.6 2.1 20.3 2.8 21.9-6.6 21.9-6.6 9.3 2.4 12.6-2.8 14.9-11.1 2.3-8.4 6.6-7.3 6.6-7.3 21.6 0 19.3-9.7 19.3-9.7 3-10.4-8.5-31.8-8.5-31.8l-2.3-32.1c-1.1-1.6-2.1-3.2-3-4.8-26.9-44.6-11.5-73.7 4.2-81.4 7.5-3.7 16.6-4.6 25.8-3.1.8-12.4-.7-27.8-6.3-47.8 0 0 6.9-2.2 13.8 1 5 2.3 24.3 4.5 46.4 0-5.6-17.5-11.3-40.2-14.1-51.9l-.2-1zM296.2 89.6c16.6-11.4 38-43.7 38-43.7l7.2-17-.4-10.4c-10.1-9.8-41.4-13.7-41.4-13.7-28.9-1-54 2.8-64.1 4.6-4.6-3.6-8.8-4.3-8.8-4.3s-17.5-2.6-24.6 3.2c-27.7-14.2-71.6-5.9-71.6-5.9C109.3 4 84.8 16.1 84.8 16.1l1.6 11.7 7.2 15 13.1 23c5.2 21.8 33 32.7 33 32.7s6.8 45.4 11.8 73.7c8.5 1.4 14.6 2.1 19.1 2.4 2.4-3.5 5.1-6.9 6.5-11.1-13.3-5.1 3.3-22.6 7-28.9 3-5.1 8-10.2 13.2-13.2 5.8-3.4 30.6-8.1 37.6 9.1 3.8 9.2 18.2 16.1 7.1 27.2 9.5 7.9 7.8 17.4 7.2 26.9 2.3-1.1 11.7-5.1 23.8-3.1v-.3s8.9-30.3 14.6-81.1c5.8-4.6 8.6-10.5 8.6-10.5zM230 50.5s4.4 2.2 7.1 1.3 2.4-4.1 2.4-4.1c-.3-.5-.8-1.7-.8-1.7 2.2-1.7-1-4-1-4l2.7-.4-1-4.3 4.9.2c.1-5.9.9-10.7.1-14.7l1.8-4.9 13 .3 13 4.2c10.1 6.8 30.2 17.8 30.2 17.8-16.3 1.3-29.9 16.1-29.9 16.1-17.3-1-24.5 12.1-24.5 12.1l-17.5-4.1c-2.8-11-.5-13.8-.5-13.8zM129.2 36.7s24.5-10.9 29-13.8c4.6-2.9 13.7-4.6 13.7-4.6l17.8 2 .2 5 2 7.2 6.6 1.5c0 8.7-2.6 22-3.9 28.4-.9.2-1.4.3-1.4.3l-15.7 6.5c-8.8-15-25.1-16.3-25.1-16.3-4.3-14.7-23.2-16.2-23.2-16.2z"/></g></svg>