<svg xmlns="http://www.w3.org/2000/svg" viewBox="0 68 216 79.8"><g fill="#08090A"><path d="M94.9 106.2c0-.6 0-1.1.1-1.7 0 0 .1-.9-.1-1.7-.2-.7-1.8-2.2-2.1-5-1.4-.9-2.8-1-3.7-.9-.4 0-.7.1-.9.2-.3.1-.5.3-.8.5-.4.4-.7.8-.8 1.4-.1.8-.1 1.7-.2 2.5 0 .4-.1.8-.2 1.2-.1.5-.6.2-.9.1-.1 0-.3-.1-.4-.1-.4 0-1.1-.2-1.4.1-.1-.1-.3-.6-.4-.7 0 .3 0 .7-.2.8-.1-.3-.7-.4-1-.4 0 .5-.1.9-.2 1.4-.7-1.1-1.8-2.1-3.1-2.5-.3-.1-.7-.2-1-.3.7-.3 1.3-.7 1.8-1.3.5-.5 1-1.3.8-2-.1-.3-.3-.6-.3-1-.1-.8.7-1.5 1.5-1.3.7.2 1.1 1 1.7 1.3 1.1.7 2.6-.2 3.4-1.3.5-.8.8-1.7.8-2.6v-.5c1.3-2.3 5.2-7.4 12.5-4.6 3.4 1.3 6.9 1.3 9.8.8.6-.7 1.2-1.3 1.9-2s1.4-1.4 2.3-2.1c-.6-.5-1.4-.7-1.8-.8-.1 0-.3 0-.4-.1h-.1v-.1c.2-.7.6-1.9-.3-3.2-.6-.8-1.5-1.2-2.7-1.2-.5 0-1.1.1-1.5.1-.2 0-.4.1-.6.1 0-.1 0-.2.1-.4.2-.7.5-2.5-1.6-3.4-.6-.2-1.2-.4-1.9-.4-.6 0-1.1.1-1.7.2-.3 0-.6.1-.9.2-.5.1-1 .2-1.4.2h-.2v-.3c0-.5 0-1.3-.4-2-.5-.8-1.5-1.7-3.7-1.7-.9 0-1.9.1-3.1.4-1.7.4-2.9 1.2-4 2-.7.5-1.4 1-2.2 1.3-.2.1-.5.2-.7.2h-.3v-.3c0-.6-.1-1.6-1.2-2.3-.5-.3-1-.4-1.6-.4-2.6 0-5 3.2-5.2 3.6-.2.3-.4.7-.6 1.1-.3.5-1 1.9-1.5 2.2-.2-.1-.3-.3-.5-.6-.4-.6-1.1-1.7-2.7-1.7h-.5c-1.7.2-3 1.5-3.6 2.2-1.4 1.7-2.2 4.2-2.3 7.4 0 1.1 0 2.5.3 4.1 2.7 3.2 5.3 6.7 7.6 10.4 3.7 6 6.6 12.7 7.9 19.9 0 0-.4-4.4-1.6-9.8-.4-.2 4.2-4.7 16-5.2zM139 120c-1.2-1.9-2.2-3.9-3.2-6-.6-1.4-1.2-2.7-1.8-4.2-1.8-4.8-3.1-10.1-3.6-15.9 0 0-.5 4.4.6 9.8 0 0-4.7 4.7-18 4.5 0 .8.1 1.7 0 2.5.8.8 1.2 1.4 1.2 1.4 1.2 2.3 2.5 3.5 3.8 4.1.5.2.9.4 1.4.5.6 0 1.1-.8 1.4-1.7.4-1.1.6-2.5.6-3.3-.1-1.6 1.1-1.5 1.1-1.5 1 .4 1.4.1 1.4.1l.3 1c0-.7.7-1.1.7-1.1.6.9 1 .6 1 .6l.5-.8s.3-.7.9.2c.6.7 1.6 1 1.6 1 .1 0 .3 0 .4.1 1.2.2 2.2.8 2.9 1.5.6.6 1.1 1.3 1.4 2-.2 1.9-2.9 2.4-4.3 1.9-2-.8-6.1-.2-4 2.3.4.5 2 1.1 1.5 2.1-.6 1.1-2.1-.2-2.8-.5-.9-.4-2.2-.2-2.6.6-.1.1-.1.3-.1.5v2.1c-2 2.2-5.4 4.2-10.5 2.4-2.1-.7-4.2-1-6.2-.9-1.8 0-3.6.3-5.1.8-1.6 1.7-3.7 3.6-6.2 5.5-.1 1.1.1 2 .8 2.7.8.8 1.8.8 2.1.8h.9v.1c-.1.7-.2 2 .9 3.1.5.5 1.2.8 2 .8s1.6-.3 2.3-.6c.2-.1.4-.1.6-.2v.4c0 .8 0 2.5 2.2 3 .3.1.6.1.8.1 1 0 2-.4 2.7-.6.3-.1.5-.2.8-.3.5-.2 1.1-.5 1.5-.5 0 .1 0 .2.1.3.1.5.2 1.3.8 1.9.4.5 1.3 1 2.6 1 1.2 0 2.5-.4 4.2-1.2 1.5-.7 2.6-1.8 3.5-2.8.6-.6 1.2-1.2 1.9-1.7.3-.2.6-.3.8-.3h.1c0 .1.1.2.1.3.2.5.5 1.6 1.6 2 .3.1.7.2 1 .2 2.9 0 4.8-4.2 5-4.6.1-.3.3-.7.4-1.2.2-.6.6-2.1 1-2.5.2.1.3.2.6.5.5.5 1.1 1.2 2.4 1.2.4 0 .7-.1 1.1-.2 1.6-.5 2.6-2.1 3.1-2.9.7-1.3 1-2.8 1.1-4.5-.8-2-2.1-3.9-3.3-5.9z"/></g><g fill="#EED618"><path d="M25.5 110.6c-.2.1-.3.3-.5.4-1.2 6.1-1.7 10.1-1.7 10.1s-.1 2.2-1.8 6.2c-1.2 2.7-2.4 5.4-3.5 8.1-.3.7-.6 1.5-1.2 2-.5.6-1.3 1-2.1.8-.2.3-.2.8 0 1.1s.6.5 1 .4c-.2.3-.3.6-.5.9 0 .1-.1.2-.1.2 0 .2.2.4.4.4s.4 0 .6-.1c0 .1 0 .3-.1.4.3.3.9.2 1.1-.2-.1.4.1.8.5.9.4.1.8-.3.8-.7.2.3.8.1.9-.2.2-.4.1-.8 0-1.1.9-.2 1.6-.9 2.1-1.6s.9-1.5 1.5-2.2c1.3-1.5 3.3-2.3 5.1-3.2.6-.3 1.1-.6 1.6-1.1.4-.4.8-1 .8-1.7s-.3-1.3-.7-1.8c-.4-.5-.9-1-1.1-1.6-.2-.8-.3-12.1 5.5-18.1 5.1-5.2 8-10.7 9.6-15.1-.4-2.2-.8-4.5-1.2-7-.1.1-3.4 13.8-17 23.8z"/><path d="M78.5 111.2c1.2 5.4 1.6 9.8 1.6 9.8-1.2-7.1-4.1-13.8-7.9-19.9-2.3-3.7-4.8-7.2-7.6-10.4C53.8 78 41.1 69.5 39 68.2c-.2-.1-.3-.2-.3-.2-15.6 18.3-26.3 51.1-26.3 51.1s-.5 2.2-3 6c-1.7 2.5-3.4 5.1-5.2 7.7-.5.7-.9 1.4-1.6 1.9s-1.6.7-2.3.4c-.3.3-.3.8-.2 1.1.2.4.6.6 1 .6l-.6.9c-.1.1-.1.2-.1.2 0 .2.1.4.3.5s.4.1.6 0c0 .1-.1.3-.1.4.1.2.3.3.6.3s.4-.1.6-.3c-.2.4 0 .9.4 1s.9-.1.9-.6c.2.4.8.3 1-.1.2-.3.2-.8.2-1.2.9 0 1.8-.6 2.4-1.2.7-.6 1.2-1.4 2-2 1.6-1.3 3.8-1.7 5.8-2.3.6-.2 1.3-.4 1.8-.8s1-.9 1.1-1.6v-.7c-.1-.4-.2-.8-.4-1.2-.1-.1-.1-.3-.2-.4-.2-.5-.5-.9-.6-1.4-.1-.8 2-12.5 9.2-17.5 14.2-10 16.8-23.6 16.8-23.6 8.5 47.6 24.1 54.6 35.6 52.2 1.6-.3 3.2-.9 4.6-1.5l.4-.2c.2-.4-.2-.6-.2-.6-.5-.2-1.6.4-1.6.4-.7.3-1.7.6-1.8-.1s1.2-1 1.2-1 .9-.3 2.6-1.3c1.8-1.1 2.3-.6 2.3-.6l1.2-1.2c1.6-1.8 5.3-6.1 6.2-7.9 1.2-2.3 2.5-5.6 3.5-6.4 0 0-1.7-5.4-1.6-10.9-12.1.6-16.7 5.1-16.7 5.1zM132.3 112.7c-.7-.7-1.7-1.3-2.9-1.5-.1 0-.3 0-.4-.1 0 0-1-.3-1.6-1-.7-.9-.9-.2-.9-.2l-.5.8s-.4.3-1-.6c0 0-.7.4-.7 1.1l-.3-1s-.4.2-1.4-.1c0 0-1.2-.1-1.1 1.5 0 .8-.2 2.2-.6 3.3-.3.9-.8 1.7-1.4 1.7-.4-.1-.9-.2-1.4-.5-1.3-.6-2.7-1.8-3.8-4.1 0 0-.4-.6-1.2-1.4v-2.5c-.3-4.9-1.7-9.5-1.7-9.5.9-.8 2-4 3-6.3.7-1.6 3.5-5.3 5-7.4l.1.1 1.4-1.5s.4-.1.9 0 2.5.1 4.2-2.3c0 0 .1-.1.3-.1.2 0 1.1-.4.8-1.4 0 0 1 .5 1.1.5s.4 0 .6-.3c0 0-.2-.3-.6-.7-.1-.1-.2-.1-.3-.2 0 0 0-.4-1.6-.6 0 0-1.3-.4-1.7-.4 0 0-.4 0-.7.1 0 0-.3-.4-.9-.1 0 0-.4 0-.7.2l-.2-.1-1.1.1-1.1.7s-1.2 1.3-1.6 1.7c0 0-.8.6-1.4 1.3-1.3.8-2.4 1.7-3.5 2.6-.8.7-1.6 1.4-2.3 2.1-.7.7-1.3 1.4-1.9 2-3.5 4-5.1 7.4-5.1 7.4-.2 1-.4 2-.5 3.1-.5 5.3.4 11.8 1.2 16.3-.1 1.6-.4 3.2-.8 4.6 0 0-1.5 2.7-4.6 6 1.6-.4 3.3-.7 5.1-.8 2 0 4.1.2 6.2.9 5.1 1.8 8.6-.3 10.5-2.4v-2.1c0-.2 0-.3.1-.5.4-.8 1.7-1 2.6-.6.6.3 2.2 1.6 2.8.5.6-1-1-1.6-1.5-2.1-2.1-2.5 1.9-3.1 4-2.3 1.3.5 4.1 0 4.3-1.9 0-.7-.6-1.4-1.2-2z"/></g><g fill="#3D5BA9"><path d="M216 86.2c-.1-.4-.5-.6-.9-.7.2-.3.5-.5.7-.8l.2-.2c.1-.2-.1-.4-.2-.5-.2-.1-.4-.1-.6-.1.1-.1.1-.2.2-.4-.2-.4-.8-.5-1.1-.1.2-.3.1-.9-.2-1-.4-.2-.9 0-1 .4-.1-.4-.7-.4-1-.1s-.3.7-.3 1.1c-.9-.1-1.8.3-2.5.9-.7.5-1.4 1.2-2.1 1.7-1.7 1.1-3.9 1.2-5.9 1.5-.6.1-1.3.2-1.8.5s-1.1.8-1.3 1.4-.1 1.3.1 1.9c.2.6.6 1.2.5 1.9 0 .5-2.1 5.2-5.7 9.5-3.3 10.3-9.9 28.4-19.6 41 16.7-15.2 29.1-43 29.1-43s.7-2 3.6-5.4c1.9-2.2 3.2-4.6 5.2-6.9.5-.6 1.1-1.2 1.7-1.6.7-.4 1.6-.5 2.3-.2.5 0 .7-.4.6-.8zM104.4 96s1.6-3.4 5.1-7.4c-3 .5-6.4.5-9.8-.8-7.2-2.7-11.1 2.3-12.5 4.6v.5c-.1.9-.3 1.8-.8 2.6-.7 1.1-2.2 2-3.4 1.3-.6-.4-1-1.2-1.7-1.3-.7-.2-1.6.5-1.5 1.3 0 .3.2.6.3 1 .2.7-.3 1.5-.8 2s-1.1 1-1.8 1.3c.3.1.7.2 1 .3 1.3.5 2.4 1.4 3.1 2.5.1-.4.2-.9.2-1.4.2 0 .8.2 1 .4.2-.1.2-.5.2-.8.1.1.3.6.4.7.3-.3 1-.1 1.4-.1.1 0 .3 0 .4.1.4.1.8.4.9-.1.1-.4.1-.8.2-1.2.1-.8 0-1.7.2-2.5.1-.6.4-1.1.8-1.4.2-.2.5-.4.8-.5.1 0 .5-.1.9-.2.9-.1 2.3 0 3.7.9.3 2.7 1.9 4.3 2.1 5s.1 1.7.1 1.7c0 .6-.1 1.1-.1 1.7 0 5.4 1.6 10.9 1.6 10.9-1 .8-2.3 4.1-3.5 6.4-.9 1.8-4.6 6-6.2 7.9l-1.2 1.2s-.5-.5-2.3.6-2.6 1.3-2.6 1.3-1.3.4-1.2 1 1.1.4 1.8.1c0 0 1.1-.6 1.6-.4 0 0 .4.3.2.6l-.4.2-.3.1s.2 1.3.6 1.5c.3.2.9-.1 1.2-.4 0 0 .2-.1.2.2s.8.6 1.1-.1l.4-.1s.5.2.8-.1c0 0 .2-.3.5-.3s1.2.3 1.6-1.9l.6-.7c1.5-.8 2.9-1.7 4.1-2.7 2.5-1.8 4.6-3.7 6.2-5.5 3.2-3.4 4.6-6 4.6-6 .4-1.4.7-2.9.8-4.6-.8-4.5-1.7-11-1.2-16.3.2-1.1.4-2.1.6-3.1z"/><path d="M197.4 88.8c1.5-2.7 2.4-5.3 3.9-8 .4-.7.8-1.4 1.5-2s1.5-.8 2.3-.6c.3-.3.3-.8.1-1.1-.2-.4-.6-.6-1-.5l.6-.9c0-.1.1-.2.1-.2 0-.2-.1-.4-.3-.5s-.4 0-.6 0c0-.1 0-.2.1-.2v-.1l-.1-.1c-.3-.3-.9-.2-1 .2.1-.2.1-.5-.1-.7-.1-.1-.2-.3-.4-.3-.4-.1-.9.2-.9.6-.2-.3-.8-.2-1 .1-.2.4-.2.8-.1 1.2-.9.1-1.7.7-2.3 1.4-.6.7-1.1 1.5-1.8 2.1-1.5 1.4-3.7 2-5.7 2.7-.6.2-1.2.5-1.8.9-.5.4-.9 1-1 1.6-.1.7.2 1.3.5 1.9s.8 1.2.9 1.8c.1.8-2.9 12.6-9.8 18.1-13.5 10.9-12.6 24.4-12.6 24.4-6.5-55.2-26.4-56.5-38.7-51.5.4.3.6.7.6.7-.2.3-.5.3-.6.3s-1.1-.5-1.1-.5c.3 1-.6 1.3-.8 1.4-.2 0-.3.1-.3.1-1.7 2.4-3.8 2.3-4.2 2.3h-.9l-1.4 1.5-.1-.1c-1.5 2-4.3 5.7-5 7.4-1 2.3-2.1 5.5-3 6.3 0 0 1.4 4.6 1.7 9.5 13.3.2 18-4.5 18-4.5-1.1-5.4-.6-9.8-.6-9.8.5 5.8 1.8 11.1 3.6 15.9.5 1.4 1.1 2.8 1.8 4.2 1 2.1 2.1 4.1 3.2 6 1.2 2 2.5 3.8 3.8 5.6 11.8 15.5 27.6 22.4 27.6 22.4 0-.1.1-.1.1-.2 15.9-18 24.2-52.8 24.2-52.8s.3-2 2.6-6z"/></g><path fill="#FFF" d="M15.6 119.9c0-.1-.1-.1-.1-.2-.1 0-.1-.1-.2 0-.1 0-.1 0-.2.1 0-.1-.1-.1-.1-.1h-.2c-.1 0-.1.1-.2.1s0 .1 0 .2c0 .2.4.6.4.6s.5-.3.6-.4v-.3z"/><path d="M130.4 112.8c.2.3.3.6.4.9v.2c0 .3-.2.5-.4.7s-.5.3-.7.4c0 .1.1.1.1 0 .3-.1.5-.2.7-.3.2-.2.4-.4.5-.6.1-.3 0-.7-.1-1-.1-.1-.1-.3-.2-.4l-.1-.1c-.2.1-.3.1-.2.2zM81.1 99.2c0-.1 0-.1 0 0-.3 0-.6.4-.7.8 0 .2 0 .4.1.6.1.1.2.1.3.1.1 0 .2 0 .2-.1v-.2l-.1-.1c.3-.2.2-.4.1-.6.1-.2 0-.4.1-.5zM128.8 112.2c0 .1 0 .1 0 0 0 .2-.1.3-.2.4-.1.1-.2.2-.2.4 0 .1.1.2.1.2h-.1v.2s0 .1.1.1h.1c.2 0 .4-.2.5-.6.1 0 0-.6-.3-.7z"/><g><path fill="none" d="M94.9 106.2c-11.9.5-16.4 5-16.4 5 1.2 5.4 1.6 9.8 1.6 9.8-1.2-7.1-4.1-13.8-7.9-19.9-2.3-3.7-4.8-7.2-7.6-10.4C53.8 78 41.1 69.5 39 68.2c-.2-.1-.3-.2-.3-.2-15.6 18.3-26.3 51.1-26.3 51.1s0 .1-.1.2c.1 0 .1.1.1.1l-.1.1h-.1c-.3.8-1 2.7-2.9 5.5-1.7 2.5-3.4 5.1-5.2 7.7-.5.7-.9 1.4-1.6 1.9s-1.6.7-2.3.4c-.3.3-.3.8-.2 1.1.2.4.6.6 1 .6l-.6.9c-.1.1-.1.2-.1.2 0 .2.1.4.3.5s.4.1.6 0c0 .1-.1.3-.1.4.1.2.3.3.6.3s.4-.1.6-.3c-.2.4 0 .9.4 1s.9-.1.9-.6c.2.4.8.3 1-.1.2-.3.2-.8.2-1.2.9 0 1.8-.6 2.4-1.2.7-.6 1.2-1.4 2-2 1.6-1.3 3.8-1.7 5.8-2.3.6-.2 1.3-.4 1.8-.8s1-.9 1.1-1.6v-.7c-.1-.4-.2-.8-.4-1.2-.1-.1-.1-.3-.2-.4-.2-.5-.5-.9-.6-1.4 0-.4.3-2.7 1.3-5.6-.1 0-.1-.1-.1-.1l.1-.1c1.3-3.9 3.7-8.8 7.8-11.6 14.2-10 16.8-23.6 16.8-23.6 8.5 47.6 24.1 54.6 35.6 52.2 1.6-.3 3.2-.9 4.6-1.5l.4-.2c.2-.4-.2-.6-.2-.6-.5-.2-1.6.4-1.6.4-.7.3-1.7.6-1.8-.1s1.2-1 1.2-1 .9-.3 2.6-1.3c1.8-1.1 2.3-.6 2.3-.6l1.2-1.2c1.6-1.8 5.3-6.1 6.2-7.9 1.2-2.3 2.5-5.6 3.5-6.4 0 .1-1.7-5.3-1.7-10.8zm-82.2 13.5c-.1 0-.1-.1-.1-.1l.1-.1c.1 0 .1.1.1.1s0 .1-.1.1zm.3.1c-.1 0-.1-.1-.1-.1l.1-.1c.1 0 .1.1.1.1s0 .1-.1.1zm.4 0c-.1 0-.1-.1-.1-.1l.1-.1.1.1-.1.1zm.3.1c-.1 0-.1-.1-.1-.1l.1-.1.1.1s0 .1-.1.1zm.3.1c-.1 0-.1-.1-.1-.1l.1-.1c.1 0 .1.1.1.1s0 .1-.1.1zm.3 0c-.1 0-.1-.1-.1-.1l.1-.1.1.1s0 .1-.1.1zm1.4.3c-.1 0-.1-.1-.1-.1l.1-.1.1.1-.1.1zm.3 0c-.1 0-.1-.1-.1-.1l.1-.1c.1 0 .1.1.1.1s0 .1-.1.1zm.3.1c-.1 0-.1-.1-.1-.1l.1-.1c.1 0 .1.1.1.1s0 .1-.1.1zm.4.1c-.1 0-.1-.1-.1-.1l.1-.1c.1 0 .1.1.1.1l-.1.1zm.3 0c-.1 0-.1-.1-.1-.1l.1-.1.1.1s0 .1-.1.1zm.3.1c-.1 0-.1-.1-.1-.1l.1-.1c.1 0 .1.1.1.1.1 0 0 .1-.1.1zm.4 0c-.1 0-.1-.1-.1-.1l.1-.1c.1 0 .1.1.1.1s-.1.2-.1.1z"/><circle fill="#FFF" cx="13.7" cy="119.8" r=".1"/><circle fill="#FFF" cx="14" cy="119.8" r=".1"/><circle fill="#FFF" cx="14.4" cy="119.9" r=".1"/><path fill="#FFF" d="M12.5 119.5c0-.1 0-.1-.1-.1 0 .1 0 .1-.1.2h.1c0 .1.1 0 .1-.1z"/><circle fill="#FFF" cx="12.7" cy="119.6" r=".1"/><circle fill="#FFF" cx="13" cy="119.6" r=".1"/><circle fill="#FFF" cx="13.4" cy="119.7" r=".1"/><circle fill="#FFF" cx="15.7" cy="120.1" r=".1"/><circle fill="#FFF" cx="16" cy="120.2" r=".1"/><circle fill="#FFF" cx="16.4" cy="120.3" r=".1"/><circle fill="#FFF" cx="16.7" cy="120.3" r=".1"/><circle fill="#FFF" cx="17.4" cy="120.5" r=".1"/><circle fill="#FFF" cx="17" cy="120.4" r=".1"/><circle fill="#FFF" cx="17.7" cy="120.5" r=".1"/><path fill="#FFF" d="M17.9 120.6c0 .1 0 .1.1.1 0-.1.1-.2.1-.2-.1-.1-.2 0-.2.1z"/></g></svg>