<?xml version="1.0" encoding="utf-8"?>
<!-- Generator: Adobe Illustrator 18.1.1, SVG Export Plug-In . SVG Version: 6.00 Build 0)  -->
<svg version="1.1" id="ORAL-EXAM" xmlns="http://www.w3.org/2000/svg" xmlns:xlink="http://www.w3.org/1999/xlink" x="0px" y="0px"
	 viewBox="0 68 216 79.8" enable-background="new 0 68 216 79.8" xml:space="preserve">
<g>
	<path fill="#08090A" d="M94.9,106.2c0-0.6,0-1.1,0.1-1.7c0,0,0.1-0.9-0.1-1.7c-0.2-0.7-1.8-2.2-2.1-5c-1.4-0.9-2.8-1-3.7-0.9
		c-0.4,0-0.7,0.1-0.9,0.2c-0.3,0.1-0.5,0.3-0.8,0.5C87,98,86.7,98.4,86.6,99c-0.1,0.8-0.1,1.7-0.2,2.5c0,0.4-0.1,0.8-0.2,1.2
		c-0.1,0.5-0.6,0.2-0.9,0.1c-0.1,0-0.3-0.1-0.4-0.1c-0.4,0-1.1-0.2-1.4,0.1c-0.1-0.1-0.3-0.6-0.4-0.7c0,0.3,0,0.7-0.2,0.8
		c-0.1-0.3-0.7-0.4-1-0.4c0,0.5-0.1,0.9-0.2,1.4c-0.7-1.1-1.8-2.1-3.1-2.5c-0.3-0.1-0.7-0.2-1-0.3c0.7-0.3,1.3-0.7,1.8-1.3
		c0.5-0.5,1-1.3,0.8-2c-0.1-0.3-0.3-0.6-0.3-1c-0.1-0.8,0.7-1.5,1.5-1.3c0.7,0.2,1.1,1,1.7,1.3c1.1,0.7,2.6-0.2,3.4-1.3
		c0.5-0.8,0.8-1.7,0.8-2.6c0-0.2,0-0.3,0-0.5c1.3-2.3,5.2-7.4,12.5-4.6c3.4,1.3,6.9,1.3,9.8,0.8c0.6-0.7,1.2-1.3,1.9-2
		c0.7-0.7,1.4-1.4,2.3-2.1c-0.6-0.5-1.4-0.7-1.8-0.8c-0.1,0-0.3,0-0.4-0.1h-0.1v-0.1c0.2-0.7,0.6-1.9-0.3-3.2
		c-0.6-0.8-1.5-1.2-2.7-1.2c-0.5,0-1.1,0.1-1.5,0.1c-0.2,0-0.4,0.1-0.6,0.1c0-0.1,0-0.2,0.1-0.4c0.2-0.7,0.5-2.5-1.6-3.4
		c-0.6-0.2-1.2-0.4-1.9-0.4c-0.6,0-1.1,0.1-1.7,0.2c-0.3,0-0.6,0.1-0.9,0.2c-0.5,0.1-1,0.2-1.4,0.2c-0.1,0-0.1,0-0.2,0
		c0-0.1,0-0.2,0-0.3c0-0.5,0-1.3-0.4-2c-0.5-0.8-1.5-1.7-3.7-1.7c-0.9,0-1.9,0.1-3.1,0.4c-1.7,0.4-2.9,1.2-4,2
		c-0.7,0.5-1.4,1-2.2,1.3c-0.2,0.1-0.5,0.2-0.7,0.2c-0.1,0-0.2,0-0.3,0c0-0.1,0-0.2,0-0.3c0-0.6-0.1-1.6-1.2-2.3
		c-0.5-0.3-1-0.4-1.6-0.4c-2.6,0-5,3.2-5.2,3.6c-0.2,0.3-0.4,0.7-0.6,1.1c-0.3,0.5-1,1.9-1.5,2.2l0,0c-0.2-0.1-0.3-0.3-0.5-0.6
		c-0.4-0.6-1.1-1.7-2.7-1.7c-0.2,0-0.3,0-0.5,0c-1.7,0.2-3,1.5-3.6,2.2c-1.4,1.7-2.2,4.2-2.3,7.4c0,1.1,0,2.5,0.3,4.1
		c2.7,3.2,5.3,6.7,7.6,10.4c3.7,6,6.6,12.7,7.9,19.9c0,0-0.4-4.4-1.6-9.8C78.5,111.2,83.1,106.7,94.9,106.2z"/>
	<path fill="#08090A" d="M139,120c-1.2-1.9-2.2-3.9-3.2-6c-0.6-1.4-1.2-2.7-1.8-4.2c-1.8-4.8-3.1-10.1-3.6-15.9c0,0-0.5,4.4,0.6,9.8
		c0,0-4.7,4.7-18,4.5c0,0.8,0.1,1.7,0,2.5c0.8,0.8,1.2,1.4,1.2,1.4c1.2,2.3,2.5,3.5,3.8,4.1c0.5,0.2,0.9,0.4,1.4,0.5
		c0.6,0,1.1-0.8,1.4-1.7c0.4-1.1,0.6-2.5,0.6-3.3c-0.1-1.6,1.1-1.5,1.1-1.5c1,0.4,1.4,0.1,1.4,0.1l0.3,1c0-0.7,0.7-1.1,0.7-1.1
		c0.6,0.9,1,0.6,1,0.6l0.5-0.8c0,0,0.3-0.7,0.9,0.2c0.6,0.7,1.6,1,1.6,1c0.1,0,0.3,0,0.4,0.1c1.2,0.2,2.2,0.8,2.9,1.5
		c0.6,0.6,1.1,1.3,1.4,2c-0.2,1.9-2.9,2.4-4.3,1.9c-2-0.8-6.1-0.2-4,2.3c0.4,0.5,2,1.1,1.5,2.1c-0.6,1.1-2.1-0.2-2.8-0.5
		c-0.9-0.4-2.2-0.2-2.6,0.6c-0.1,0.1-0.1,0.3-0.1,0.5c0,0.8,0,1.5,0,2.1c-2,2.2-5.4,4.2-10.5,2.4c-2.1-0.7-4.2-1-6.2-0.9
		c-1.8,0-3.6,0.3-5.1,0.8c-1.6,1.7-3.7,3.6-6.2,5.5c-0.1,1.1,0.1,2,0.8,2.7c0.8,0.8,1.8,0.8,2.1,0.8c0.1,0,0.3,0,0.4,0s0.3,0,0.4,0
		h0.1v0.1c-0.1,0.7-0.2,2,0.9,3.1c0.5,0.5,1.2,0.8,2,0.8s1.6-0.3,2.3-0.6c0.2-0.1,0.4-0.1,0.6-0.2c0,0.1,0,0.2,0,0.4
		c0,0.8,0,2.5,2.2,3c0.3,0.1,0.6,0.1,0.8,0.1c1,0,2-0.4,2.7-0.6c0.3-0.1,0.5-0.2,0.8-0.3c0.5-0.2,1.1-0.5,1.5-0.5
		c0,0.1,0,0.2,0.1,0.3c0.1,0.5,0.2,1.3,0.8,1.9c0.4,0.5,1.3,1,2.6,1c1.2,0,2.5-0.4,4.2-1.2c1.5-0.7,2.6-1.8,3.5-2.8
		c0.6-0.6,1.2-1.2,1.9-1.7c0.3-0.2,0.6-0.3,0.8-0.3h0.1c0,0.1,0.1,0.2,0.1,0.3c0.2,0.5,0.5,1.6,1.6,2c0.3,0.1,0.7,0.2,1,0.2
		c2.9,0,4.8-4.2,5-4.6c0.1-0.3,0.3-0.7,0.4-1.2c0.2-0.6,0.6-2.1,1-2.5l0,0c0.2,0.1,0.3,0.2,0.6,0.5c0.5,0.5,1.1,1.2,2.4,1.2
		c0.4,0,0.7-0.1,1.1-0.2c1.6-0.5,2.6-2.1,3.1-2.9c0.7-1.3,1-2.8,1.1-4.5C141.5,123.9,140.2,122,139,120z"/>
</g>
<g>
	<path fill="#EED618" d="M25.5,110.6c-0.2,0.1-0.3,0.3-0.5,0.4c-1.2,6.1-1.7,10.1-1.7,10.1s-0.1,2.2-1.8,6.2
		c-1.2,2.7-2.4,5.4-3.5,8.1c-0.3,0.7-0.6,1.5-1.2,2c-0.5,0.6-1.3,1-2.1,0.8c-0.2,0.3-0.2,0.8,0,1.1s0.6,0.5,1,0.4
		c-0.2,0.3-0.3,0.6-0.5,0.9c0,0.1-0.1,0.2-0.1,0.2c0,0.2,0.2,0.4,0.4,0.4s0.4,0,0.6-0.1c0,0.1,0,0.3-0.1,0.4
		c0.3,0.3,0.9,0.2,1.1-0.2c-0.1,0.4,0.1,0.8,0.5,0.9c0.4,0.1,0.8-0.3,0.8-0.7c0.2,0.3,0.8,0.1,0.9-0.2c0.2-0.4,0.1-0.8,0-1.1
		c0.9-0.2,1.6-0.9,2.1-1.6s0.9-1.5,1.5-2.2c1.3-1.5,3.3-2.3,5.1-3.2c0.6-0.3,1.1-0.6,1.6-1.1c0.4-0.4,0.8-1,0.8-1.7
		s-0.3-1.3-0.7-1.8c-0.4-0.5-0.9-1-1.1-1.6c-0.2-0.8-0.3-12.1,5.5-18.1c5.1-5.2,8-10.7,9.6-15.1c-0.4-2.2-0.8-4.5-1.2-7
		C42.4,86.9,39.1,100.6,25.5,110.6z"/>
	<path fill="#EED618" d="M78.5,111.2c1.2,5.4,1.6,9.8,1.6,9.8c-1.2-7.1-4.1-13.8-7.9-19.9c-2.3-3.7-4.8-7.2-7.6-10.4
		C53.8,78,41.1,69.5,39,68.2l0,0l0,0c-0.2-0.1-0.3-0.2-0.3-0.2c-15.6,18.3-26.3,51.1-26.3,51.1s-0.5,2.2-3,6
		c-1.7,2.5-3.4,5.1-5.2,7.7c-0.5,0.7-0.9,1.4-1.6,1.9s-1.6,0.7-2.3,0.4c-0.3,0.3-0.3,0.8-0.2,1.1c0.2,0.4,0.6,0.6,1,0.6
		c-0.2,0.3-0.4,0.6-0.6,0.9c-0.1,0.1-0.1,0.2-0.1,0.2c0,0.2,0.1,0.4,0.3,0.5s0.4,0.1,0.6,0c0,0.1-0.1,0.3-0.1,0.4
		c0.1,0.2,0.3,0.3,0.6,0.3s0.4-0.1,0.6-0.3c-0.2,0.4,0,0.9,0.4,1s0.9-0.1,0.9-0.6c0.2,0.4,0.8,0.3,1-0.1c0.2-0.3,0.2-0.8,0.2-1.2
		c0.9,0,1.8-0.6,2.4-1.2c0.7-0.6,1.2-1.4,2-2c1.6-1.3,3.8-1.7,5.8-2.3c0.6-0.2,1.3-0.4,1.8-0.8c0.5-0.4,1-0.9,1.1-1.6
		c0-0.2,0-0.5,0-0.7c-0.1-0.4-0.2-0.8-0.4-1.2c-0.1-0.1-0.1-0.3-0.2-0.4c-0.2-0.5-0.5-0.9-0.6-1.4c-0.1-0.8,2-12.5,9.2-17.5
		c14.2-10,16.8-23.6,16.8-23.6c8.5,47.6,24.1,54.6,35.6,52.2c1.6-0.3,3.2-0.9,4.6-1.5l0.4-0.2c0.2-0.4-0.2-0.6-0.2-0.6
		c-0.5-0.2-1.6,0.4-1.6,0.4c-0.7,0.3-1.7,0.6-1.8-0.1s1.2-1,1.2-1s0.9-0.3,2.6-1.3c1.8-1.1,2.3-0.6,2.3-0.6l1.2-1.2
		c1.6-1.8,5.3-6.1,6.2-7.9c1.2-2.3,2.5-5.6,3.5-6.4c0,0-1.7-5.4-1.6-10.9C83.1,106.7,78.5,111.2,78.5,111.2z"/>
	<path fill="#EED618" d="M132.3,112.7c-0.7-0.7-1.7-1.3-2.9-1.5c-0.1,0-0.3,0-0.4-0.1c0,0-1-0.3-1.6-1c-0.7-0.9-0.9-0.2-0.9-0.2
		l-0.5,0.8c0,0-0.4,0.3-1-0.6c0,0-0.7,0.4-0.7,1.1l-0.3-1c0,0-0.4,0.2-1.4-0.1c0,0-1.2-0.1-1.1,1.5c0,0.8-0.2,2.2-0.6,3.3
		c-0.3,0.9-0.8,1.7-1.4,1.7c-0.4-0.1-0.9-0.2-1.4-0.5c-1.3-0.6-2.7-1.8-3.8-4.1c0,0-0.4-0.6-1.2-1.4c0-0.8,0-1.7,0-2.5
		c-0.3-4.9-1.7-9.5-1.7-9.5c0.9-0.8,2-4,3-6.3c0.7-1.6,3.5-5.3,5-7.4l0.1,0.1l1.4-1.5c0,0,0.4-0.1,0.9,0s2.5,0.1,4.2-2.3
		c0,0,0.1-0.1,0.3-0.1c0.2,0,1.1-0.4,0.8-1.4c0,0,1,0.5,1.1,0.5s0.4,0,0.6-0.3c0,0-0.2-0.3-0.6-0.7c-0.1-0.1-0.2-0.1-0.3-0.2
		c0,0,0-0.4-1.6-0.6c0,0-1.3-0.4-1.7-0.4c0,0-0.4,0-0.7,0.1c0,0-0.3-0.4-0.9-0.1c0,0-0.4,0-0.7,0.2l-0.2-0.1l-1.1,0.1l-1.1,0.7
		c0,0-1.2,1.3-1.6,1.7c0,0-0.8,0.6-1.4,1.3c-1.3,0.8-2.4,1.7-3.5,2.6c-0.8,0.7-1.6,1.4-2.3,2.1c-0.7,0.7-1.3,1.4-1.9,2
		c-3.5,4-5.1,7.4-5.1,7.4c-0.2,1-0.4,2-0.5,3.1c-0.5,5.3,0.4,11.8,1.2,16.3c-0.1,1.6-0.4,3.2-0.8,4.6c0,0-1.5,2.7-4.6,6
		c1.6-0.4,3.3-0.7,5.1-0.8c2,0,4.1,0.2,6.2,0.9c5.1,1.8,8.6-0.3,10.5-2.4c0-0.6,0-1.4,0-2.1c0-0.2,0-0.3,0.1-0.5
		c0.4-0.8,1.7-1,2.6-0.6c0.6,0.3,2.2,1.6,2.8,0.5c0.6-1-1-1.6-1.5-2.1c-2.1-2.5,1.9-3.1,4-2.3c1.3,0.5,4.1,0,4.3-1.9
		C133.5,114,132.9,113.3,132.3,112.7z"/>
</g>
<g>
	<path fill="#3D5BA9" d="M216,86.2c-0.1-0.4-0.5-0.6-0.9-0.7c0.2-0.3,0.5-0.5,0.7-0.8c0.1-0.1,0.1-0.1,0.2-0.2
		c0.1-0.2-0.1-0.4-0.2-0.5c-0.2-0.1-0.4-0.1-0.6-0.1c0.1-0.1,0.1-0.2,0.2-0.4c-0.2-0.4-0.8-0.5-1.1-0.1c0.2-0.3,0.1-0.9-0.2-1
		c-0.4-0.2-0.9,0-1,0.4c-0.1-0.4-0.7-0.4-1-0.1s-0.3,0.7-0.3,1.1c-0.9-0.1-1.8,0.3-2.5,0.9c-0.7,0.5-1.4,1.2-2.1,1.7
		c-1.7,1.1-3.9,1.2-5.9,1.5c-0.6,0.1-1.3,0.2-1.8,0.5s-1.1,0.8-1.3,1.4s-0.1,1.3,0.1,1.9c0.2,0.6,0.6,1.2,0.5,1.9
		c0,0.5-2.1,5.2-5.7,9.5c-3.3,10.3-9.9,28.4-19.6,41c16.7-15.2,29.1-43,29.1-43s0.7-2,3.6-5.4c1.9-2.2,3.2-4.6,5.2-6.9
		c0.5-0.6,1.1-1.2,1.7-1.6c0.7-0.4,1.6-0.5,2.3-0.2C215.9,87,216.1,86.6,216,86.2z"/>
	<path fill="#3D5BA9" d="M104.4,96c0,0,1.6-3.4,5.1-7.4c-3,0.5-6.4,0.5-9.8-0.8c-7.2-2.7-11.1,2.3-12.5,4.6c0,0.2,0,0.3,0,0.5
		c-0.1,0.9-0.3,1.8-0.8,2.6c-0.7,1.1-2.2,2-3.4,1.3c-0.6-0.4-1-1.2-1.7-1.3c-0.7-0.2-1.6,0.5-1.5,1.3c0,0.3,0.2,0.6,0.3,1
		c0.2,0.7-0.3,1.5-0.8,2s-1.1,1-1.8,1.3c0.3,0.1,0.7,0.2,1,0.3c1.3,0.5,2.4,1.4,3.1,2.5c0.1-0.4,0.2-0.9,0.2-1.4
		c0.2,0,0.8,0.2,1,0.4c0.2-0.1,0.2-0.5,0.2-0.8c0.1,0.1,0.3,0.6,0.4,0.7c0.3-0.3,1-0.1,1.4-0.1c0.1,0,0.3,0,0.4,0.1
		c0.4,0.1,0.8,0.4,0.9-0.1c0.1-0.4,0.1-0.8,0.2-1.2c0.1-0.8,0-1.7,0.2-2.5c0.1-0.6,0.4-1.1,0.8-1.4c0.2-0.2,0.5-0.4,0.8-0.5
		c0.1,0,0.5-0.1,0.9-0.2c0.9-0.1,2.3,0,3.7,0.9c0.3,2.7,1.9,4.3,2.1,5s0.1,1.7,0.1,1.7c0,0.6-0.1,1.1-0.1,1.7
		c0,5.4,1.6,10.9,1.6,10.9c-1,0.8-2.3,4.1-3.5,6.4c-0.9,1.8-4.6,6-6.2,7.9l-1.2,1.2c0,0-0.5-0.5-2.3,0.6s-2.6,1.3-2.6,1.3
		s-1.3,0.4-1.2,1s1.1,0.4,1.8,0.1c0,0,1.1-0.6,1.6-0.4c0,0,0.4,0.3,0.2,0.6l-0.4,0.2l-0.3,0.1c0,0,0.2,1.3,0.6,1.5
		c0.3,0.2,0.9-0.1,1.2-0.4c0,0,0.2-0.1,0.2,0.2s0.8,0.6,1.1-0.1l0.4-0.1c0,0,0.5,0.2,0.8-0.1c0,0,0.2-0.3,0.5-0.3s1.2,0.3,1.6-1.9
		l0.6-0.7c1.5-0.8,2.9-1.7,4.1-2.7c2.5-1.8,4.6-3.7,6.2-5.5c3.2-3.4,4.6-6,4.6-6c0.4-1.4,0.7-2.9,0.8-4.6c-0.8-4.5-1.7-11-1.2-16.3
		C104,98,104.2,97,104.4,96z"/>
	<path fill="#3D5BA9" d="M197.4,88.8c1.5-2.7,2.4-5.3,3.9-8c0.4-0.7,0.8-1.4,1.5-2s1.5-0.8,2.3-0.6c0.3-0.3,0.3-0.8,0.1-1.1
		c-0.2-0.4-0.6-0.6-1-0.5c0.2-0.3,0.4-0.6,0.6-0.9c0-0.1,0.1-0.2,0.1-0.2c0-0.2-0.1-0.4-0.3-0.5s-0.4,0-0.6,0c0-0.1,0-0.2,0.1-0.2
		v-0.1l-0.1-0.1c-0.3-0.3-0.9-0.2-1,0.2c0.1-0.2,0.1-0.5-0.1-0.7c-0.1-0.1-0.2-0.3-0.4-0.3c-0.4-0.1-0.9,0.2-0.9,0.6
		c-0.2-0.3-0.8-0.2-1,0.1c-0.2,0.4-0.2,0.8-0.1,1.2c-0.9,0.1-1.7,0.7-2.3,1.4c-0.6,0.7-1.1,1.5-1.8,2.1c-1.5,1.4-3.7,2-5.7,2.7
		c-0.6,0.2-1.2,0.5-1.8,0.9c-0.5,0.4-0.9,1-1,1.6c-0.1,0.7,0.2,1.3,0.5,1.9s0.8,1.2,0.9,1.8c0.1,0.8-2.9,12.6-9.8,18.1
		c-13.5,10.9-12.6,24.4-12.6,24.4c-6.5-55.2-26.4-56.5-38.7-51.5c0.4,0.3,0.6,0.7,0.6,0.7c-0.2,0.3-0.5,0.3-0.6,0.3
		s-1.1-0.5-1.1-0.5c0.3,1-0.6,1.3-0.8,1.4c-0.2,0-0.3,0.1-0.3,0.1c-1.7,2.4-3.8,2.3-4.2,2.3c-0.4,0-0.9,0-0.9,0l-1.4,1.5l-0.1-0.1
		c-1.5,2-4.3,5.7-5,7.4c-1,2.3-2.1,5.5-3,6.3c0,0,1.4,4.6,1.7,9.5c13.3,0.2,18-4.5,18-4.5c-1.1-5.4-0.6-9.8-0.6-9.8
		c0.5,5.8,1.8,11.1,3.6,15.9c0.5,1.4,1.1,2.8,1.8,4.2c1,2.1,2.1,4.1,3.2,6c1.2,2,2.5,3.8,3.8,5.6c11.8,15.5,27.6,22.4,27.6,22.4
		c0-0.1,0.1-0.1,0.1-0.2c15.9-18,24.2-52.8,24.2-52.8S195.1,92.8,197.4,88.8z"/>
</g>
<g>
	<path fill="#FFFFFF" d="M15.6,119.9c0-0.1-0.1-0.1-0.1-0.2c-0.1,0-0.1-0.1-0.2,0c-0.1,0-0.1,0-0.2,0.1c0-0.1-0.1-0.1-0.1-0.1
		s-0.1,0-0.2,0c-0.1,0-0.1,0.1-0.2,0.1s0,0.1,0,0.2c0,0.2,0.4,0.6,0.4,0.6s0.5-0.3,0.6-0.4C15.6,120,15.6,120,15.6,119.9z"/>
</g>
<path d="M130.4,112.8c0.2,0.3,0.3,0.6,0.4,0.9c0,0.1,0,0.2,0,0.2c0,0.3-0.2,0.5-0.4,0.7s-0.5,0.3-0.7,0.4c0,0.1,0.1,0.1,0.1,0
	c0.3-0.1,0.5-0.2,0.7-0.3c0.2-0.2,0.4-0.4,0.5-0.6c0.1-0.3,0-0.7-0.1-1c-0.1-0.1-0.1-0.3-0.2-0.4l-0.1-0.1
	C130.4,112.7,130.3,112.7,130.4,112.8z"/>
<g>
	<path d="M81.1,99.2L81.1,99.2C81.1,99.1,81.1,99.1,81.1,99.2c-0.3,0-0.6,0.4-0.7,0.8c0,0.2,0,0.4,0.1,0.6c0.1,0.1,0.2,0.1,0.3,0.1
		c0.1,0,0.2,0,0.2-0.1l0,0c0-0.1,0-0.2,0-0.2l-0.1-0.1c0.3-0.2,0.2-0.4,0.1-0.6C81.1,99.5,81,99.3,81.1,99.2z"/>
	<path d="M128.8,112.2L128.8,112.2C128.8,112.3,128.8,112.3,128.8,112.2c0,0.2-0.1,0.3-0.2,0.4c-0.1,0.1-0.2,0.2-0.2,0.4
		c0,0.1,0.1,0.2,0.1,0.2l0,0h-0.1l0,0c0,0.1,0,0.2,0,0.2l0,0c0,0,0,0.1,0.1,0.1l0,0l0,0l0,0h0.1c0.2,0,0.4-0.2,0.5-0.6
		C129.2,112.9,129.1,112.3,128.8,112.2z"/>
</g>
<g>
	<path fill="none" d="M94.9,106.2c-11.9,0.5-16.4,5-16.4,5c1.2,5.4,1.6,9.8,1.6,9.8c-1.2-7.1-4.1-13.8-7.9-19.9
		c-2.3-3.7-4.8-7.2-7.6-10.4C53.8,78,41.1,69.5,39,68.2l0,0l0,0c-0.2-0.1-0.3-0.2-0.3-0.2c-15.6,18.3-26.3,51.1-26.3,51.1
		s0,0.1-0.1,0.2l0,0c0.1,0,0.1,0.1,0.1,0.1l-0.1,0.1c0,0,0,0-0.1,0c-0.3,0.8-1,2.7-2.9,5.5c-1.7,2.5-3.4,5.1-5.2,7.7
		c-0.5,0.7-0.9,1.4-1.6,1.9s-1.6,0.7-2.3,0.4c-0.3,0.3-0.3,0.8-0.2,1.1c0.2,0.4,0.6,0.6,1,0.6c-0.2,0.3-0.4,0.6-0.6,0.9
		c-0.1,0.1-0.1,0.2-0.1,0.2c0,0.2,0.1,0.4,0.3,0.5s0.4,0.1,0.6,0c0,0.1-0.1,0.3-0.1,0.4c0.1,0.2,0.3,0.3,0.6,0.3s0.4-0.1,0.6-0.3
		c-0.2,0.4,0,0.9,0.4,1s0.9-0.1,0.9-0.6c0.2,0.4,0.8,0.3,1-0.1c0.2-0.3,0.2-0.8,0.2-1.2c0.9,0,1.8-0.6,2.4-1.2c0.7-0.6,1.2-1.4,2-2
		c1.6-1.3,3.8-1.7,5.8-2.3c0.6-0.2,1.3-0.4,1.8-0.8c0.5-0.4,1-0.9,1.1-1.6c0-0.2,0-0.5,0-0.7c-0.1-0.4-0.2-0.8-0.4-1.2
		c-0.1-0.1-0.1-0.3-0.2-0.4c-0.2-0.5-0.5-0.9-0.6-1.4c0-0.4,0.3-2.7,1.3-5.6l0,0c-0.1,0-0.1-0.1-0.1-0.1l0.1-0.1l0,0
		c1.3-3.9,3.7-8.8,7.8-11.6c14.2-10,16.8-23.6,16.8-23.6c8.5,47.6,24.1,54.6,35.6,52.2c1.6-0.3,3.2-0.9,4.6-1.5l0.4-0.2
		c0.2-0.4-0.2-0.6-0.2-0.6c-0.5-0.2-1.6,0.4-1.6,0.4c-0.7,0.3-1.7,0.6-1.8-0.1s1.2-1,1.2-1s0.9-0.3,2.6-1.3c1.8-1.1,2.3-0.6,2.3-0.6
		l1.2-1.2c1.6-1.8,5.3-6.1,6.2-7.9c1.2-2.3,2.5-5.6,3.5-6.4C96.6,117.1,94.9,111.7,94.9,106.2z M12.7,119.7c-0.1,0-0.1-0.1-0.1-0.1
		l0.1-0.1c0.1,0,0.1,0.1,0.1,0.1S12.8,119.7,12.7,119.7z M13,119.8c-0.1,0-0.1-0.1-0.1-0.1l0.1-0.1c0.1,0,0.1,0.1,0.1,0.1
		S13.1,119.8,13,119.8z M13.4,119.8c-0.1,0-0.1-0.1-0.1-0.1l0.1-0.1l0.1,0.1L13.4,119.8z M13.7,119.9c-0.1,0-0.1-0.1-0.1-0.1
		l0.1-0.1l0.1,0.1C13.8,119.8,13.8,119.9,13.7,119.9z M14,120c-0.1,0-0.1-0.1-0.1-0.1l0.1-0.1c0.1,0,0.1,0.1,0.1,0.1
		S14.1,120,14,120z M14.3,120c-0.1,0-0.1-0.1-0.1-0.1l0.1-0.1l0.1,0.1C14.4,119.9,14.4,120,14.3,120z M15.7,120.3
		c-0.1,0-0.1-0.1-0.1-0.1l0.1-0.1l0.1,0.1L15.7,120.3z M16,120.3c-0.1,0-0.1-0.1-0.1-0.1l0.1-0.1c0.1,0,0.1,0.1,0.1,0.1
		S16.1,120.3,16,120.3z M16.3,120.4c-0.1,0-0.1-0.1-0.1-0.1l0.1-0.1c0.1,0,0.1,0.1,0.1,0.1S16.4,120.4,16.3,120.4z M16.7,120.5
		c-0.1,0-0.1-0.1-0.1-0.1l0.1-0.1c0.1,0,0.1,0.1,0.1,0.1L16.7,120.5z M17,120.5c-0.1,0-0.1-0.1-0.1-0.1l0.1-0.1l0.1,0.1
		C17.1,120.4,17.1,120.5,17,120.5z M17.3,120.6c-0.1,0-0.1-0.1-0.1-0.1l0.1-0.1c0.1,0,0.1,0.1,0.1,0.1
		C17.5,120.5,17.4,120.6,17.3,120.6z M17.7,120.6c-0.1,0-0.1-0.1-0.1-0.1l0.1-0.1c0.1,0,0.1,0.1,0.1,0.1S17.7,120.7,17.7,120.6z"/>
	<circle fill="#FFFFFF" cx="13.7" cy="119.8" r="0.1"/>
	<circle fill="#FFFFFF" cx="14" cy="119.8" r="0.1"/>
	<circle fill="#FFFFFF" cx="14.4" cy="119.9" r="0.1"/>
	<path fill="#FFFFFF" d="M12.5,119.5c0-0.1,0-0.1-0.1-0.1l0,0c0,0.1,0,0.1-0.1,0.2c0,0,0,0,0.1,0C12.4,119.7,12.5,119.6,12.5,119.5z
		"/>
	<circle fill="#FFFFFF" cx="12.7" cy="119.6" r="0.1"/>
	<circle fill="#FFFFFF" cx="13" cy="119.6" r="0.1"/>
	<circle fill="#FFFFFF" cx="13.4" cy="119.7" r="0.1"/>
	<circle fill="#FFFFFF" cx="15.7" cy="120.1" r="0.1"/>
	<circle fill="#FFFFFF" cx="16" cy="120.2" r="0.1"/>
	<circle fill="#FFFFFF" cx="16.4" cy="120.3" r="0.1"/>
	<circle fill="#FFFFFF" cx="16.7" cy="120.3" r="0.1"/>
	<circle fill="#FFFFFF" cx="17.4" cy="120.5" r="0.1"/>
	<circle fill="#FFFFFF" cx="17" cy="120.4" r="0.1"/>
	<circle fill="#FFFFFF" cx="17.7" cy="120.5" r="0.1"/>
	<path fill="#FFFFFF" d="M17.9,120.6c0,0.1,0,0.1,0.1,0.1l0,0c0-0.1,0.1-0.2,0.1-0.2l0,0C18,120.4,17.9,120.5,17.9,120.6z"/>
</g>
</svg>
