<?xml version="1.0" encoding="utf-8"?>
<!-- Generator: Adobe Illustrator 18.1.1, SVG Export Plug-In . SVG Version: 6.00 Build 0)  -->
<svg version="1.1" xmlns="http://www.w3.org/2000/svg" xmlns:xlink="http://www.w3.org/1999/xlink" x="0px" y="0px"
	 viewBox="0 0 467.3 560.6" enable-background="new 0 0 467.3 560.6" xml:space="preserve">
<g id="PAIR-SCOPE">
	<g>
		<path fill="none" d="M124,427.3c-54.1,22.9-60.7,47.3-60.7,47.3C90,442,127.3,430,149.8,422c3-1.1,6.9-3,11.4-5.6
			c-13.9-11.6-27.2-18.3-34.6-21.4L124,427.3z"/>
		<g>
			<path fill="#F15731" d="M337.6,489.3l-2.5-0.9C335.8,488.8,336.7,489.1,337.6,489.3z"/>
			<path fill="#EED71B" d="M413.8,442.8c-25.2,29.5-47.5,56.8-47.5,56.8c-3.9,11.1,0.7,24.3-0.3,36.1c-0.1,0.6-0.1,1.2-0.1,1.8
				c9.9-2.9,20.1-6.6,30.7-11.4c-7.9-27.7-1.3-42.1-1.3-42.1C403.2,469.8,409.3,456,413.8,442.8z"/>
			<path fill="#F15731" d="M245,357.8c-0.1-0.4-0.3-0.7-0.5-1l0.4,1.2C244.9,357.9,244.9,357.8,245,357.8z"/>
			<path fill="#EED71B" d="M439,306.4c-1,1.2-2.3,2.1-3.8,2.3c-3.9,0.7-7.7-2.5-8.6-7.3c-0.8-4.6,1.5-8.9,5.1-9.8
				c-2.1-1.7-3.8-2.4-3.8-2.4c-74-35.3-63.3-86.2-63.3-86.2C388,36.9,320.6,0,320.6,0c-22.6,8.4-37.2,19.9-46.1,29.2
				c11.8,3.6,23.5,12.8,24.9,25.3c0.2,2.2-0.1,4.2-0.8,6.1c10.7,1,20.7,5.7,29.3,13.8c14.5,13.6,19.7,28.2,14.4,40.1
				c-1.6,3.6-3.3,6.2-4.6,8.3c-0.8,1.2-1.9,2.9-2,3.5c0.1,0.2,0.6,1.7,6.4,6.3c12.5,10,18.7,20.5,18.2,31.2
				c-0.4,10.6-7.1,20.8-20.4,31.2c-10.2,9.9-10.5,13.7-7.4,18.2c1.4,2,3.7,2.5,7.5,3.2c4.5,0.8,10.7,1.8,14.8,8
				c3.3,5.1,4.1,11.1,2.2,16.5c-2,5.5-6.5,9.8-12.4,11.6c-9.2,2.8-28.3,3.3-53.3-25.1c-1.7-2-3.5-5.2-5.6-9c-0.2-0.5-0.5-1-0.8-1.5
				c-0.1-0.5-0.1-1-0.1-1.5c2-2,4.7-3.9,7.7-5.6c6.6-3.8,14.5-6.6,19.3-7.4c10.9-1.7,8.6-9.6,8.6-9.6c-1.2-1.9-2-3.4-2.4-4.7
				c-1-2.9-0.5-4.2-0.5-4.2l-6.9-0.6c4.7-1,6.2-6,6.2-6c-7-2.8-5.5-5.6-5.5-5.6l4.8-4.5c0,0,4.1-2.7-2.6-5.9
				c-5.8-2.7-8.9-8.9-8.9-8.9c-1.2-3.7-2.8-6.9-4.8-9.7c-6.4-9.5-16.3-14.4-25.6-17c-12.3,4-11.9,23-6.7,31.1
				c8,12.5,9.7,40.1-10,29.9c-4.1-2.2-10.4-11.9-16.1-6.8c-6.3,5.6,4.5,13.8,7.5,17.6c4.7,6,14.2,30.3-2.8,39.2
				c-4.1,2.2-7.7,3.7-10.9,4.6c-2.7,0.8-5.2,1.3-7.3,1.3c-1.4,0.9-3.5,1.6-6.4,1.8c-9.4,0.6-31,5-49.1,14.9
				c-1.9,1.6-4.1,2.9-6.3,3.8c-0.4,0.3-0.9,0.6-1.4,0.8c0,0,0,0,0,0l0,0c-4.2,2.6-9,5.4-13.2,7.6c-3.6,1.9-6.8,3.3-8.8,3.7
				c-5.3,1.1-15.2,0.9-37.2,3.6c-10.9,1.3-24.9,3.4-42.8,6.7c0,0-6.7-1-13.7,0c0,0,8-9.4,2.6-19.2c-1.2-2.2-3.1-4.5-6-6.6
				c-0.4-0.3-0.8-0.6-1.3-0.9C32.9,251.1,34,244.3,34,244.3s-4.7,5.6-10.6,15c-3.1,4.9-6.5,10.9-9.7,17.6C7,291,1,308.6,0,327.7
				c0,0,12.9,8.7,41,12.9c0-0.1,0.1-0.3,0.1-0.4c21.7,2.9,51.9,3.3,91.9-3.9c1.1-0.2,2.1-0.4,3.2-0.6c0,0.1-0.1,0.2-0.1,0.3
				c71.8-13.8,93.6,22.2,93.6,22.2c1.8,2,3.4,4.1,5,6.1c6.1-4.7,9.8-7.7,9.8-7.7c2.3-4.2,5.4-8.1,7.7-12.5c2.1-4,3.7-8.7,6.7-12.1
				c3.5-3.9,8.6-6.3,12.4-9.9c2.7-2.6,5.5-11.3,9.8-7.6c4.4,3.9,0.1,11.2-2.6,14.5c-4.1,5.2-7.1,6.8-1.7,12.3
				c10.9,11.3,33.8,6.8,48.4,8.3c3.1,0.3,10.6-0.7,13.4,1c4.2,2.6,2.2,5.7-1.3,6.9c-10.4,3.6-22.5,1.3-33.1,4.2
				c1.3,4.4,16.3,5.6,20.9,6.4c4,0.7,11,2.2,12.5,6.8c2,6.1-8.8,2.6-12.9,2.3c-8.6-0.8-17-1.6-25.7-1.8c12.2,1.9,24.7,2.8,36.2,6.5
				c-0.9,5.6-24.3,2.4-28.5,2.2c-2.1-0.1-9.8-1.1-7.3,2.9c2.3,3.8,14.3,3.5,18.5,5.5c0.8,4.5-4.5,3.6-7.2,3.4
				c-7.6-0.7-15.1-1.4-22.7-1.7c-11.1-0.4-22.6-5.9-33.5-4.6c-0.8,0.1-1.7,0.4-2.6,0.7c31.9,60-8.8,92.8-8.8,92.8
				c-12.3,10.2-20.9,23-25.5,31c0,0.1-0.1,0.1-0.1,0.2c9.2,7.1,46.2,32.4,101.9,30.6c1-10.2,0.9-20.3-4.6-27.2
				c-4.8-6-6.8-3.2-12.4,0.2c-3.6,2.2-11.4,5.6-14.7,0.8c-3.2-4.7,5.8-6.4,8.7-8.8c4.1-3.3,7-8.1,11.4-11.1
				c3.7-2.6,8.6-3.5,12.8-5.1c4.6-1.8,8.8-4.3,13.3-6.1c0.2,0.2,0.4,0.3,0.7,0.4c17.3-21.7,38.6-58.2,38.6-58.2
				c15.3-36.7,53.3-86,53.3-86C437.2,326.8,439.8,314.7,439,306.4z M311.6,335.6c-4.8,0-8.7-3.9-8.7-8.7c0-4.8,3.9-8.7,8.7-8.7
				c4.8,0,8.7,3.9,8.7,8.7C320.3,331.7,316.4,335.6,311.6,335.6z"/>
		</g>
		<path fill="#8DC63F" d="M165.5,263.5c-0.3,0.3-0.5,0.5-0.5,0.5l0,0c0,0,0,0,0,0c0.4-0.2,0.7-0.5,1.1-0.7
			C165.9,263.3,165.7,263.4,165.5,263.5z"/>
		<g>
			<path fill="#5B5EAA" d="M228.2,242.6c4.5-2.9,2.9-8.3,2.9-8.3c-3.7-6.9-1.3-9.1-1.3-9.1l-5.2-1.4c4.6-2.5,6-5.6,6-5.6
				c-5.3-4.2-6.1-7.4-6.1-7.4l9.2-6.9c-8-3.9-14.4-14.1-14.4-14.1c-1.5-6.2-3.7-10.8-6.3-14.3c-7.5-10-18.4-10.6-26.4-9.3
				c-1.2,1-2.3,2.3-2.8,3.6c-1.6,3.9,0.8,6.2,1.8,9.5c2.1,7.5-5.9,11.8-6.5,19.4c-0.5,5.9,2.8,6.2,4.5,11c1.7,4.9-2.1,8.1-4.6,12.1
				c-6.1,9.5,3,15.2,1.6,24.6c-0.7,5-3.7,9.5-7.8,12.8c18.1-9.8,39.7-14.2,49.1-14.9C224.7,244.3,226.8,243.6,228.2,242.6z"/>
			<path fill="#5B5EAA" d="M254.7,389.8c10.8-1.3,22.4,4.2,33.5,4.6c7.6,0.3,15.1,1.1,22.7,1.7c2.7,0.2,8,1.1,7.2-3.4
				c-4.2-1.9-16.2-1.7-18.5-5.5c-2.4-4,5.2-3,7.3-2.9c4.2,0.2,27.6,3.4,28.5-2.2c-11.5-3.7-24-4.6-36.2-6.5
				c8.6,0.2,17.1,0.9,25.7,1.8c4,0.4,14.8,3.8,12.9-2.3c-1.5-4.6-8.5-6.1-12.5-6.8c-4.6-0.8-19.5-2-20.9-6.4
				c10.6-2.9,22.6-0.6,33.1-4.2c3.5-1.2,5.5-4.4,1.3-6.9c-2.9-1.7-10.3-0.7-13.4-1c-14.7-1.4-37.6,3-48.4-8.3
				c-5.3-5.5-2.4-7.1,1.7-12.3c2.6-3.3,7-10.6,2.6-14.5c-4.3-3.8-7,5-9.8,7.6c-3.8,3.6-8.9,6-12.4,9.9c-3,3.4-4.6,8.1-6.7,12.1
				c-2.3,4.3-5.4,8.3-7.7,12.5c0.2,0.3,0.3,0.7,0.5,1c0.2,0.6,0.4,1.4,0.5,2.2l-0.6-2.1l-0.4-1.2c0,0-3.8,3-9.8,7.7
				c-1.6-2-3.3-4-5-6.1c0,0-21.8-36-93.6-22.2c-0.6,2.3-1.4,4.6-2.5,6.7c-1,2-2.1,4-3.3,5.9c-3.8,5.9-8.7,11.2-15.4,13.5
				c-5.6,1.9-20.9,3.9-22.6-4.1c-5.5,5.5-12.4,12.7-21.1,11.8c-2.7-0.3-5-1.1-6.8-2.4c-3.7,8.7-7.5,21.4-7.1,36.5
				c0,0-15.3,47.3-11.3,95.3c0,0-9.3,35.3,25.3,50c0,0,42.2-7.7,94.3-61.9c14.7-15.3,30.3-34.4,45.8-58.1c0,0,17.3-24.4,33.1-34.9
				c-16.7,12.8-35.6,41.3-35.6,41.3c-4.7,9.1-9.3,16.8-13.6,23.3c2.3,4.5,4.4,9.3,6.3,14.4l16.1,41c4.7-8,13.3-20.9,25.5-31
				c0,0,40.7-32.8,8.8-92.8C253,390.2,253.8,390,254.7,389.8z M149.8,422c-22.5,8-59.8,20-86.5,52.7c0,0,6.5-24.4,60.7-47.3
				l2.6-32.4c7.4,3.2,20.7,9.8,34.6,21.4C156.7,419,152.8,420.9,149.8,422z"/>
			<path fill="#5B5EAA" d="M435.3,326.9c0,0-3.6,10.4-8.7,17.1c0,0-38,49.3-53.3,86c0,0-21.3,36.5-38.6,58.2
				c-0.2-0.1-0.5-0.3-0.7-0.4c-4.5,1.8-8.7,4.3-13.3,6.1c-4.2,1.6-9.1,2.5-12.8,5.1c-4.3,3-7.3,7.8-11.4,11.1
				c-2.9,2.4-11.9,4-8.7,8.8c3.3,4.8,11.1,1.5,14.7-0.8c5.7-3.5,7.6-6.2,12.4-0.2c5.6,6.9,5.7,17,4.6,27.2
				c14.2-0.5,29.7-2.7,46.3-7.5c0-0.6,0.1-1.2,0.1-1.8c1-11.9-3.6-25,0.3-36.1c0,0,22.3-27.3,47.5-56.8
				c16.9-19.8,35.2-40.6,48.8-54.8C462.7,388,484,353.8,435.3,326.9z"/>
		</g>
		<path d="M214.9,523.6c0-0.1-0.1-0.3-0.1-0.4c-0.2-0.2-0.5-0.2-0.7,0c-0.1,0.1-0.1,0.2-0.1,0.4c0,0.1,0.1,0.3,0.1,0.4
			c0.1,0.1,0.2,0.1,0.4,0.1c0.1,0,0.3-0.1,0.4-0.1C214.8,523.9,214.9,523.8,214.9,523.6z"/>
		<path d="M218.2,526.1c0.2-0.2,0.1-0.5-0.1-0.7c0,0,0,0,0,0c-0.2-0.2-0.5-0.1-0.7,0.1c-0.2,0.2-0.1,0.5,0.1,0.7
			c0.1,0.1,0.2,0.1,0.3,0.1C218,526.3,218.1,526.2,218.2,526.1z"/>
		<path d="M222.8,531.4c-0.2,0.1-0.3,0.5-0.2,0.7c0.1,0.1,0.3,0.2,0.4,0.2c0.1,0,0.2,0,0.3-0.1c0.2-0.1,0.3-0.5,0.2-0.7
			C223.3,531.4,223,531.3,222.8,531.4z"/>
		<path d="M216.4,524.2c-0.2-0.2-0.6-0.1-0.7,0.2c-0.1,0.2-0.1,0.5,0.2,0.7c0.1,0.1,0.2,0.1,0.3,0.1c0.2,0,0.3-0.1,0.4-0.2
			C216.7,524.6,216.7,524.3,216.4,524.2z"/>
		<path d="M224.1,534.1c0.1,0,0.2,0,0.2-0.1c0.2-0.1,0.3-0.4,0.2-0.7s-0.4-0.3-0.7-0.2s-0.3,0.4-0.2,0.7
			C223.7,534,223.9,534.1,224.1,534.1z"/>
		<path d="M221.9,530.7c0.1,0,0.2,0,0.3-0.1c0.2-0.2,0.3-0.5,0.1-0.7s-0.5-0.3-0.7-0.1c-0.2,0.2-0.3,0.5-0.1,0.7
			C221.6,530.6,221.8,530.7,221.9,530.7z"/>
		<path d="M219.7,527.5c0.2-0.2,0.2-0.5,0-0.7c-0.2-0.2-0.5-0.2-0.7,0s-0.2,0.5,0,0.7c0.1,0.1,0.2,0.1,0.4,0.1
			C219.5,527.6,219.6,527.6,219.7,527.5z"/>
		<path d="M221,529c0.2-0.2,0.2-0.5,0.1-0.7c-0.2-0.2-0.5-0.2-0.7,0c-0.2,0.2-0.2,0.5-0.1,0.7c0.1,0.1,0.2,0.2,0.4,0.2
			C220.8,529.1,220.9,529.1,221,529z"/>
		<path d="M225.3,535.1c-0.2-0.2-0.5-0.2-0.7,0c-0.1,0.1-0.1,0.2-0.1,0.4c0,0.1,0,0.3,0.1,0.4c0.1,0.1,0.2,0.2,0.4,0.2
			c0.1,0,0.3-0.1,0.4-0.2c0.1-0.1,0.1-0.2,0.1-0.4C225.5,535.3,225.4,535.2,225.3,535.1z"/>
		<path d="M247,543.3c-0.2,0.1-0.3,0.5-0.2,0.7c0.1,0.1,0.3,0.2,0.4,0.2c0.1,0,0.2,0,0.3-0.1c0.2-0.1,0.3-0.5,0.2-0.7
			C247.6,543.2,247.3,543.2,247,543.3z"/>
		<path d="M232.8,534.5c-0.3,0-0.5,0.2-0.6,0.5c0,0.3,0.2,0.5,0.5,0.5c0,0,0,0,0,0c0.3,0,0.5-0.2,0.5-0.5
			C233.3,534.8,233.1,534.6,232.8,534.5z"/>
		<path d="M243.9,538.9c-0.2-0.2-0.5-0.1-0.7,0.1c-0.2,0.2-0.1,0.5,0.1,0.7c0.1,0.1,0.2,0.1,0.3,0.1c0.1,0,0.3-0.1,0.4-0.2
			C244.1,539.4,244.1,539.1,243.9,538.9z"/>
		<path d="M236.7,535.3c-0.3-0.1-0.6,0.1-0.6,0.3c-0.1,0.3,0.1,0.6,0.4,0.6c0,0,0.1,0,0.1,0c0.2,0,0.4-0.1,0.5-0.4
			C237.2,535.6,237,535.3,236.7,535.3z"/>
		<path d="M245.9,541.7c-0.2,0.2-0.3,0.5-0.1,0.7c0.1,0.1,0.2,0.2,0.4,0.2c0.1,0,0.2,0,0.3-0.1c0.2-0.2,0.3-0.5,0.1-0.7
			C246.5,541.6,246.1,541.5,245.9,541.7z"/>
		<path d="M234.8,534.8c-0.3,0-0.5,0.1-0.6,0.4c0,0.3,0.1,0.5,0.4,0.6c0,0,0.1,0,0.1,0c0.2,0,0.5-0.2,0.5-0.4
			C235.2,535.1,235.1,534.9,234.8,534.8z"/>
		<path d="M242.2,537.7c-0.2-0.1-0.5-0.1-0.7,0.1c-0.1,0.2-0.1,0.6,0.1,0.7c0.1,0,0.2,0.1,0.3,0.1c0.2,0,0.3-0.1,0.4-0.2
			C242.5,538.2,242.5,537.8,242.2,537.7z"/>
		<path d="M230.8,534.4c-0.3,0-0.5,0.2-0.5,0.5c0,0.3,0.2,0.5,0.5,0.5c0,0,0,0,0,0c0.3,0,0.5-0.2,0.5-0.5
			C231.3,534.7,231.1,534.4,230.8,534.4z"/>
		<path d="M244.6,540.2c-0.2,0.2-0.2,0.5,0,0.7c0.1,0.1,0.2,0.2,0.4,0.2s0.2,0,0.4-0.1c0.2-0.2,0.2-0.5,0-0.7
			C245.1,540.1,244.8,540.1,244.6,540.2z"/>
		<path d="M240.5,536.7c-0.2-0.1-0.6,0-0.7,0.2c-0.1,0.2,0,0.5,0.2,0.7c0.1,0,0.1,0.1,0.2,0.1c0.2,0,0.4-0.1,0.4-0.3
			C240.8,537.1,240.7,536.8,240.5,536.7z"/>
		<path d="M228.8,534.5c-0.3,0-0.5,0.2-0.5,0.5c0,0.3,0.2,0.5,0.5,0.5c0,0,0,0,0,0c0.3,0,0.5-0.2,0.5-0.5
			C229.3,534.7,229.1,534.5,228.8,534.5z"/>
		<path d="M238.7,535.9c-0.3-0.1-0.6,0-0.7,0.3c-0.1,0.3,0,0.6,0.3,0.6c0.1,0,0.1,0,0.2,0c0.2,0,0.4-0.1,0.5-0.3
			C239,536.3,238.9,536,238.7,535.9z"/>
		<path d="M226.8,534.6c-0.3,0-0.5,0.3-0.4,0.6c0,0.3,0.2,0.4,0.5,0.4c0,0,0,0,0.1,0c0.3,0,0.5-0.3,0.4-0.6
			C227.4,534.8,227.1,534.6,226.8,534.6z"/>
		<path d="M247.9,545.1c-0.1,0.1-0.1,0.2-0.1,0.4c0,0.1,0.1,0.3,0.2,0.4c0.1,0.1,0.2,0.1,0.3,0.1c0.1,0,0.3,0,0.4-0.1
			c0.1-0.1,0.1-0.2,0.1-0.4c0-0.1-0.1-0.3-0.1-0.4C248.4,544.9,248.1,544.9,247.9,545.1z"/>
		<path d="M267.6,546.3c-0.2-0.1-0.5,0-0.7,0.2c-0.1,0.2,0,0.6,0.2,0.7c0.1,0,0.2,0.1,0.2,0.1c0.2,0,0.4-0.1,0.4-0.3
			C268,546.8,267.9,546.5,267.6,546.3z"/>
		<path d="M252,544.1c-0.3,0-0.5,0.3-0.4,0.6c0,0.2,0.2,0.4,0.5,0.4c0,0,0,0,0.1,0c0.3,0,0.5-0.3,0.4-0.6
			C252.5,544.3,252.3,544.1,252,544.1z"/>
		<path d="M250,544.5c-0.3,0.1-0.5,0.3-0.4,0.6c0,0.2,0.3,0.4,0.5,0.4c0,0,0.1,0,0.1,0c0.3-0.1,0.4-0.3,0.4-0.6
			C250.6,544.6,250.3,544.4,250,544.5z"/>
		<path d="M260,543.9c-0.3,0-0.5,0.2-0.6,0.5c0,0.3,0.2,0.5,0.5,0.6c0,0,0,0,0,0c0.3,0,0.5-0.2,0.5-0.4
			C260.5,544.2,260.3,544,260,543.9z"/>
		<path d="M265.8,545.4c-0.3-0.1-0.6,0-0.7,0.3c-0.1,0.3,0,0.6,0.3,0.7c0.1,0,0.1,0,0.2,0c0.2,0,0.4-0.1,0.5-0.3
			C266.2,545.8,266.1,545.5,265.8,545.4z"/>
		<path d="M269.3,547.4c-0.2-0.2-0.5-0.1-0.7,0.1c-0.2,0.2-0.1,0.5,0.1,0.7c0.1,0.1,0.2,0.1,0.3,0.1c0.2,0,0.3-0.1,0.4-0.2
			C269.6,547.9,269.6,547.6,269.3,547.4z"/>
		<path d="M263.9,544.7c-0.3-0.1-0.5,0.1-0.6,0.3c-0.1,0.3,0.1,0.6,0.3,0.6v0c0,0,0.1,0,0.1,0c0.2,0,0.4-0.1,0.5-0.4
			C264.3,545.1,264.2,544.8,263.9,544.7z"/>
		<path d="M271.5,550.2c-0.2,0.2-0.2,0.5-0.1,0.7c0.1,0.1,0.2,0.2,0.4,0.2c0.1,0,0.2,0,0.3-0.1c0.2-0.2,0.2-0.5,0.1-0.7
			C272.1,550,271.8,550,271.5,550.2z"/>
		<path d="M262,544.3c-0.3-0.1-0.5,0.1-0.6,0.4c-0.1,0.3,0.1,0.6,0.4,0.6c0,0,0.1,0,0.1,0c0.2,0,0.4-0.2,0.5-0.4
			C262.4,544.6,262.2,544.3,262,544.3z"/>
		<path d="M270.9,548.8c-0.2-0.2-0.5-0.2-0.7,0c-0.2,0.2-0.2,0.5,0,0.7c0.1,0.1,0.2,0.1,0.3,0.1c0.1,0,0.3-0.1,0.4-0.2
			C271.1,549.3,271.1,548.9,270.9,548.8z"/>
		<path d="M256,543.8c-0.3,0-0.5,0.2-0.5,0.5c0,0.3,0.2,0.5,0.5,0.5c0,0,0,0,0,0c0.3,0,0.5-0.2,0.5-0.5
			C256.5,544,256.3,543.8,256,543.8z"/>
		<path d="M258,543.8c-0.3,0-0.5,0.2-0.5,0.5c0,0.3,0.2,0.5,0.5,0.5c0,0,0,0,0,0c0.3,0,0.5-0.2,0.5-0.5
			C258.5,544,258.3,543.8,258,543.8z"/>
		<path d="M254.5,544.4c0-0.3-0.3-0.5-0.6-0.5c-0.3,0-0.5,0.3-0.5,0.6c0,0.3,0.2,0.5,0.5,0.5c0,0,0,0,0.1,0
			C254.4,544.9,254.6,544.6,254.5,544.4z"/>
		<path d="M272.7,551.8c-0.1,0.1-0.1,0.2-0.1,0.4c0,0.1,0,0.3,0.1,0.4c0.1,0.1,0.2,0.1,0.4,0.1c0.1,0,0.3-0.1,0.4-0.2
			c0.1-0.1,0.1-0.2,0.1-0.3c0-0.1,0-0.3-0.1-0.4C273.2,551.6,272.9,551.6,272.7,551.8z"/>
		<path d="M282.7,549.9c-0.3,0-0.5,0.2-0.5,0.5c0,0.3,0.2,0.5,0.5,0.5c0.3,0,0.5-0.2,0.5-0.5C283.2,550.1,283,549.9,282.7,549.9z"/>
		<path d="M290.7,550.9C290.7,550.9,290.7,550.9,290.7,550.9c-0.3-0.1-0.6,0-0.6,0.3c-0.1,0.3,0,0.6,0.3,0.6c0.1,0,0.1,0,0.2,0
			c0.2,0,0.4-0.1,0.5-0.3C291.1,551.3,291,551,290.7,550.9z"/>
		<path d="M284.7,549.9c-0.3,0-0.5,0.2-0.5,0.5c0,0.3,0.2,0.5,0.5,0.5h0c0.3,0,0.5-0.2,0.5-0.5C285.2,550.1,285,549.9,284.7,549.9z"
			/>
		<path d="M292.6,551.7c-0.2-0.1-0.6,0-0.7,0.2c-0.1,0.2,0,0.6,0.2,0.7c0.1,0,0.2,0.1,0.2,0.1c0.2,0,0.4-0.1,0.5-0.3
			C292.9,552.1,292.8,551.8,292.6,551.7z"/>
		<path d="M288.7,550.3c-0.3-0.1-0.5,0.1-0.6,0.4c-0.1,0.3,0.1,0.6,0.4,0.6c0,0,0.1,0,0.1,0c0.2,0,0.4-0.2,0.5-0.4
			C289.2,550.6,289,550.4,288.7,550.3z"/>
		<path d="M286.7,550c-0.3,0-0.5,0.2-0.6,0.5c0,0.3,0.2,0.5,0.5,0.6c0,0,0,0,0,0c0.3,0,0.5-0.2,0.5-0.5
			C287.2,550.3,287,550,286.7,550z"/>
		<path d="M274.8,551.1c-0.3,0.1-0.4,0.4-0.4,0.6c0.1,0.2,0.3,0.4,0.5,0.4c0,0,0.1,0,0.1,0c0.3-0.1,0.4-0.3,0.4-0.6
			C275.3,551.2,275.1,551.1,274.8,551.1z"/>
		<path d="M277.3,551.1c-0.1-0.3-0.3-0.5-0.6-0.4c-0.3,0.1-0.4,0.3-0.4,0.6c0,0.2,0.3,0.4,0.5,0.4c0,0,0.1,0,0.1,0
			C277.2,551.6,277.4,551.3,277.3,551.1z"/>
		<path d="M280.7,550c-0.3,0-0.5,0.3-0.4,0.6c0,0.3,0.2,0.5,0.5,0.5c0,0,0,0,0,0c0.3,0,0.5-0.3,0.5-0.5
			C281.2,550.2,281,550,280.7,550z"/>
		<path d="M278.7,550.3c-0.3,0-0.5,0.3-0.4,0.6c0,0.2,0.2,0.4,0.5,0.4c0,0,0,0,0.1,0c0.3,0,0.5-0.3,0.4-0.6
			C279.2,550.4,279,550.3,278.7,550.3z"/>
		<path d="M294.3,552.8c-0.2-0.2-0.5-0.1-0.7,0.1c-0.2,0.2-0.1,0.5,0.1,0.7c0.1,0.1,0.2,0.1,0.3,0.1c0.1,0,0.3-0.1,0.4-0.2
			C294.6,553.3,294.5,553,294.3,552.8z"/>
		<path d="M295.8,554.2c-0.2-0.2-0.5-0.2-0.7,0c-0.2,0.2-0.2,0.5,0,0.7c0.1,0.1,0.2,0.2,0.4,0.2c0.1,0,0.2,0,0.3-0.1
			C296,554.7,296,554.4,295.8,554.2z"/>
		<path d="M296.3,555.8c-0.1,0.1-0.1,0.2-0.1,0.4s0.1,0.3,0.1,0.4c0.1,0.1,0.2,0.1,0.4,0.1s0.3,0,0.4-0.1c0.1-0.1,0.2-0.2,0.2-0.4
			c0-0.1-0.1-0.3-0.2-0.4C296.8,555.6,296.5,555.6,296.3,555.8z"/>
		<path d="M308,551.9c-0.3,0-0.5,0.2-0.5,0.5c0,0.3,0.2,0.5,0.5,0.5c0,0,0,0,0,0c0.3,0,0.5-0.2,0.5-0.5
			C308.5,552.2,308.3,551.9,308,551.9z"/>
		<path d="M311.9,553.3c0,0,0.1,0,0.1,0c0.2,0,0.4-0.1,0.5-0.4c0.1-0.3-0.1-0.6-0.4-0.6c-0.3-0.1-0.5,0.1-0.6,0.4
			C311.4,553,311.6,553.2,311.9,553.3z"/>
		<path d="M300,553.9c-0.3,0.1-0.4,0.4-0.3,0.7c0.1,0.2,0.3,0.3,0.5,0.3c0.1,0,0.1,0,0.2,0c0.3-0.1,0.4-0.4,0.3-0.7
			C300.6,553.9,300.3,553.8,300,553.9z"/>
		<path d="M303.9,552.6c-0.3,0.1-0.4,0.3-0.4,0.6c0.1,0.2,0.3,0.4,0.5,0.4c0,0,0.1,0,0.1,0c0.3-0.1,0.4-0.3,0.4-0.6
			C304.5,552.7,304.2,552.5,303.9,552.6z"/>
		<path d="M305.9,552.2c-0.3,0-0.5,0.3-0.4,0.6c0,0.2,0.2,0.4,0.5,0.4c0,0,0,0,0.1,0c0.3,0,0.5-0.3,0.4-0.6
			C306.5,552.3,306.2,552.1,305.9,552.2z"/>
		<path d="M301.9,553.1c-0.3,0.1-0.4,0.4-0.3,0.6c0.1,0.2,0.3,0.4,0.5,0.4c0.1,0,0.1,0,0.2,0c0.3-0.1,0.4-0.4,0.3-0.6
			C302.5,553.2,302.2,553.1,301.9,553.1z"/>
		<path d="M298.2,554.7c-0.2,0.1-0.4,0.4-0.2,0.7c0.1,0.2,0.3,0.3,0.5,0.3c0.1,0,0.2,0,0.2-0.1c0.2-0.1,0.3-0.4,0.2-0.7
			C298.7,554.7,298.4,554.6,298.2,554.7z"/>
		<path d="M315.4,554.8c0.1,0.1,0.2,0.1,0.3,0.1c0.2,0,0.3-0.1,0.4-0.2c0.2-0.2,0.1-0.5-0.1-0.7c-0.2-0.2-0.5-0.1-0.7,0.1
			C315.1,554.4,315.1,554.7,315.4,554.8z"/>
		<path d="M313.7,553.9c0.1,0,0.1,0,0.2,0c0.2,0,0.4-0.1,0.5-0.3c0.1-0.3,0-0.6-0.3-0.7c-0.3-0.1-0.6,0-0.7,0.3
			C313.3,553.5,313.4,553.8,313.7,553.9z"/>
		<path d="M310.1,552c-0.3,0-0.5,0.2-0.6,0.5c0,0.3,0.2,0.5,0.5,0.6c0,0,0,0,0,0c0.3,0,0.5-0.2,0.5-0.5
			C310.5,552.3,310.3,552,310.1,552z"/>
		<path d="M317.2,556.2c0.1,0,0.3,0,0.4-0.1c0.2-0.2,0.2-0.5,0-0.7c-0.2-0.2-0.5-0.2-0.7,0c-0.2,0.2-0.2,0.5,0,0.7
			C317,556.1,317.1,556.2,317.2,556.2z"/>
		<path d="M318.6,557.7c0.1,0,0.3-0.1,0.4-0.2c0.1-0.1,0.1-0.2,0.1-0.4s0-0.3-0.1-0.4c-0.2-0.2-0.5-0.2-0.7,0
			c-0.1,0.1-0.1,0.2-0.1,0.4s0.1,0.3,0.1,0.4C318.3,557.6,318.4,557.7,318.6,557.7z"/>
		<path d="M331.6,553.6c0.3,0,0.5-0.2,0.5-0.5c0-0.3-0.2-0.5-0.5-0.5c-0.3,0-0.5,0.2-0.5,0.5C331.1,553.4,331.3,553.6,331.6,553.6
			C331.6,553.6,331.6,553.6,331.6,553.6z"/>
		<path d="M333.5,553.6C333.5,553.6,333.5,553.6,333.5,553.6c0.3,0,0.5-0.2,0.5-0.5c0-0.3-0.2-0.5-0.5-0.5c-0.3,0-0.5,0.2-0.5,0.5
			C333,553.4,333.2,553.6,333.5,553.6z"/>
		<path d="M321.9,555c-0.3,0.1-0.4,0.4-0.3,0.7c0.1,0.2,0.3,0.3,0.5,0.3c0.1,0,0.1,0,0.2,0c0.3-0.1,0.4-0.4,0.3-0.7
			C322.5,555,322.2,554.9,321.9,555z"/>
		<path d="M329.6,552.8c-0.3,0-0.5,0.3-0.4,0.6c0,0.2,0.2,0.4,0.5,0.4c0,0,0.1,0,0.1,0c0.3,0,0.5-0.3,0.4-0.6
			C330.1,553,329.8,552.8,329.6,552.8z"/>
		<path d="M338.9,555.1c0.1,0.1,0.2,0.1,0.2,0.1c0.2,0,0.3-0.1,0.4-0.3c0.1-0.2,0-0.6-0.2-0.7c-0.2-0.1-0.6-0.1-0.7,0.2
			C338.6,554.7,338.7,555,338.9,555.1z"/>
		<path d="M320.3,556.8c0.1,0,0.1,0,0.2,0c0.2-0.1,0.4-0.4,0.2-0.7c-0.1-0.2-0.4-0.4-0.7-0.2c-0.2,0.1-0.4,0.4-0.2,0.7
			C319.9,556.7,320.1,556.8,320.3,556.8z"/>
		<path d="M340.4,555.5c-0.2,0.2-0.1,0.5,0.1,0.7c0.1,0.1,0.2,0.1,0.3,0.1c0.1,0,0.3-0.1,0.4-0.2c0.2-0.2,0.1-0.5-0.1-0.7
			c0,0,0,0,0,0C340.9,555.2,340.6,555.3,340.4,555.5z"/>
		<path d="M327.6,553.2c-0.3,0.1-0.4,0.3-0.4,0.6c0,0.2,0.3,0.4,0.5,0.4c0,0,0.1,0,0.1,0c0.3-0.1,0.4-0.3,0.4-0.6
			C328.1,553.3,327.9,553.1,327.6,553.2z"/>
		<path d="M323.5,554.9c0.1,0.2,0.3,0.3,0.5,0.3c0,0,0.1,0,0.2,0c0.3-0.1,0.4-0.4,0.3-0.7c-0.1-0.3-0.4-0.4-0.7-0.3c0,0,0,0,0,0
			C323.5,554.4,323.4,554.7,323.5,554.9z"/>
		<path d="M325.9,554.6c0.3-0.1,0.4-0.4,0.3-0.6c-0.1-0.3-0.4-0.4-0.6-0.4s-0.4,0.4-0.3,0.6c0.1,0.2,0.3,0.4,0.5,0.4
			C325.8,554.7,325.9,554.7,325.9,554.6z"/>
		<path d="M337.2,554.4L337.2,554.4c0,0,0.1,0,0.2,0c0.2,0,0.4-0.1,0.5-0.3c0.1-0.3,0-0.6-0.3-0.6c-0.3-0.1-0.6,0-0.6,0.3
			C336.8,554,336.9,554.3,337.2,554.4z"/>
		<path d="M335.4,553.9C335.4,553.9,335.4,553.9,335.4,553.9c0.3,0,0.5-0.2,0.6-0.4c0.1-0.3-0.1-0.5-0.4-0.6c-0.3,0-0.5,0.1-0.6,0.4
			C334.9,553.6,335.1,553.8,335.4,553.9z"/>
		<path d="M341.8,556.8c-0.1,0.1-0.1,0.2-0.1,0.4c0,0.1,0,0.3,0.1,0.4c0.1,0.1,0.2,0.2,0.4,0.2s0.3-0.1,0.4-0.2
			c0.1-0.1,0.1-0.2,0.1-0.4c0-0.1-0.1-0.3-0.2-0.4C342.3,556.6,342,556.6,341.8,556.8z"/>
		<path d="M358.3,550.6c0-0.3-0.2-0.5-0.5-0.5c-0.3,0-0.5,0.2-0.5,0.5c0,0.3,0.2,0.5,0.5,0.5C358.1,551.1,358.3,550.9,358.3,550.6z"
			/>
		<path d="M356,551.2c0.3,0,0.5-0.3,0.4-0.6c0-0.3-0.3-0.5-0.6-0.4c-0.3,0-0.5,0.3-0.4,0.6C355.4,551,355.6,551.2,356,551.2
			C355.9,551.2,355.9,551.2,356,551.2z"/>
		<path d="M345.6,554.5c-0.2-0.2-0.5-0.3-0.7-0.1c-0.2,0.2-0.3,0.5-0.1,0.7c0.1,0.1,0.3,0.2,0.4,0.2c0.1,0,0.2,0,0.3-0.1
			C345.7,555.1,345.8,554.8,345.6,554.5z"/>
		<path d="M354,551.5c0,0,0.1,0,0.1,0c0.3-0.1,0.5-0.3,0.4-0.6c-0.1-0.3-0.3-0.5-0.6-0.4c-0.3,0.1-0.5,0.3-0.4,0.6
			C353.6,551.4,353.8,551.5,354,551.5z"/>
		<path d="M352.6,551.4c-0.1-0.3-0.4-0.4-0.6-0.3c0,0,0,0,0,0c-0.3,0.1-0.4,0.4-0.3,0.6c0.1,0.2,0.3,0.4,0.5,0.4c0,0,0.1,0,0.1,0v0
			C352.6,551.9,352.7,551.6,352.6,551.4z"/>
		<path d="M361.5,551.5c0,0,0.1,0,0.1,0c0.2,0,0.5-0.2,0.5-0.4c0.1-0.3-0.1-0.5-0.4-0.6c-0.3-0.1-0.5,0.1-0.6,0.4
			C361.1,551.2,361.3,551.4,361.5,551.5z"/>
		<path d="M350.3,552.6c0.1,0,0.1,0,0.2,0c0.3-0.1,0.4-0.4,0.3-0.7c-0.1-0.3-0.4-0.4-0.7-0.3c-0.3,0.1-0.4,0.4-0.3,0.7
			C349.9,552.5,350.1,552.6,350.3,552.6z"/>
		<path d="M359.7,551.2C359.7,551.2,359.7,551.2,359.7,551.2c0.3,0,0.5-0.2,0.6-0.5c0-0.3-0.2-0.5-0.5-0.6c-0.3,0-0.5,0.2-0.5,0.5
			C359.2,550.9,359.4,551.2,359.7,551.2z"/>
		<path d="M343.3,555.5c-0.2,0.2-0.3,0.5-0.1,0.7c0.1,0.1,0.2,0.2,0.4,0.2c0.1,0,0.2,0,0.3-0.1c0.2-0.2,0.3-0.5,0.1-0.7
			C343.9,555.4,343.6,555.4,343.3,555.5z"/>
		<path d="M346.6,553.4c-0.2,0.1-0.3,0.5-0.2,0.7c0.1,0.2,0.3,0.3,0.4,0.3c0.1,0,0.2,0,0.3-0.1c0.2-0.1,0.3-0.5,0.2-0.7
			C347.2,553.3,346.8,553.2,346.6,553.4z"/>
		<path d="M364,551.6c0.1-0.3,0-0.6-0.3-0.6s-0.5,0.1-0.6,0.3c-0.1,0.3,0.1,0.5,0.3,0.6c0.1,0,0.1,0,0.1,0
			C363.7,552,363.9,551.9,364,551.6z"/>
		<path d="M348.6,553.4c0.1,0,0.1,0,0.2-0.1c0.2-0.1,0.4-0.4,0.2-0.7c-0.1-0.2-0.4-0.4-0.7-0.2c0,0,0,0,0,0
			c-0.2,0.1-0.4,0.4-0.2,0.7C348.2,553.3,348.4,553.4,348.6,553.4z"/>
		<path d="M365.8,552.2c0-0.1-0.1-0.3-0.1-0.4c-0.2-0.2-0.5-0.2-0.7,0c-0.1,0.1-0.1,0.2-0.1,0.4c0,0.1,0.1,0.3,0.1,0.3
			c0.1,0.1,0.2,0.2,0.4,0.2c0.1,0,0.3-0.1,0.4-0.1C365.8,552.4,365.8,552.3,365.8,552.2z"/>
		<path d="M385.7,542.8C385.7,542.8,385.7,542.8,385.7,542.8c-0.3-0.1-0.6,0-0.7,0.2c-0.1,0.2,0,0.6,0.2,0.7c0.1,0,0.1,0,0.2,0
			c0.2,0,0.4-0.1,0.5-0.3C386.1,543.2,386,542.9,385.7,542.8z"/>
		<path d="M372.8,544.9c-0.1-0.2-0.5-0.3-0.7-0.1s-0.3,0.5-0.1,0.7c0.1,0.1,0.2,0.2,0.4,0.2c0.1,0,0.2,0,0.3-0.1
			C372.9,545.5,373,545.2,372.8,544.9z"/>
		<path d="M366.9,550.9c0.2-0.2,0.2-0.5-0.1-0.7c-0.2-0.2-0.5-0.2-0.7,0.1c0,0,0,0,0,0c-0.2,0.2-0.2,0.5,0.1,0.7
			c0.1,0.1,0.2,0.1,0.3,0.1C366.7,551.1,366.8,551.1,366.9,550.9L366.9,550.9z"/>
		<path d="M368.2,548.8c-0.2-0.2-0.5-0.2-0.7,0c-0.2,0.2-0.2,0.5,0,0.7c0.1,0.1,0.2,0.1,0.3,0.1c0.1,0,0.3,0,0.4-0.1
			C368.4,549.3,368.4,548.9,368.2,548.8z"/>
		<path d="M369.7,547.4c-0.2-0.2-0.5-0.2-0.7,0c-0.2,0.2-0.2,0.5,0,0.7c0.1,0.1,0.2,0.2,0.4,0.2c0.1,0,0.2,0,0.3-0.1
			C369.8,547.9,369.8,547.6,369.7,547.4z"/>
		<path d="M371.2,546.1c-0.2-0.2-0.5-0.2-0.7-0.1c-0.2,0.2-0.2,0.5-0.1,0.7c0.1,0.1,0.2,0.2,0.4,0.2c0.1,0,0.2,0,0.3-0.1
			C371.3,546.6,371.4,546.3,371.2,546.1z"/>
		<path d="M382.2,542.3c0-0.3-0.2-0.5-0.5-0.5c-0.3,0-0.5,0.2-0.5,0.5c0,0.3,0.2,0.5,0.5,0.5c0,0,0,0,0,0
			C381.9,542.8,382.2,542.6,382.2,542.3z"/>
		<path d="M374.5,543.9c-0.1-0.2-0.5-0.3-0.7-0.2c-0.2,0.1-0.3,0.5-0.2,0.7c0.1,0.2,0.3,0.3,0.5,0.3c0.1,0,0.2,0,0.2-0.1
			C374.6,544.5,374.7,544.2,374.5,543.9z"/>
		<path d="M384.1,542.7c0.1-0.3-0.1-0.6-0.4-0.6c-0.3-0.1-0.6,0.1-0.6,0.4c-0.1,0.3,0.1,0.5,0.4,0.6c0,0,0.1,0,0.1,0
			C383.9,543.1,384.1,543,384.1,542.7z"/>
		<path d="M378.2,542.5c-0.1-0.3-0.3-0.4-0.6-0.4c-0.3,0.1-0.4,0.3-0.4,0.6c0.1,0.2,0.3,0.4,0.5,0.4c0,0,0.1,0,0.1,0
			C378.1,543.1,378.3,542.8,378.2,542.5z"/>
		<path d="M380.2,542.3c0-0.3-0.3-0.5-0.5-0.5c-0.3,0-0.5,0.3-0.5,0.6c0,0.3,0.2,0.5,0.5,0.5c0,0,0,0,0.1,0
			C380,542.8,380.2,542.5,380.2,542.3z"/>
		<path d="M375.4,543.5c0.1,0.2,0.3,0.3,0.5,0.3c0.1,0,0.1,0,0.2,0c0.3-0.1,0.4-0.4,0.3-0.7c-0.1-0.3-0.4-0.4-0.7-0.3
			C375.4,542.9,375.3,543.2,375.4,543.5z"/>
		<path d="M387.8,544.2c0-0.1-0.1-0.3-0.1-0.4c-0.2-0.2-0.5-0.2-0.7,0c-0.1,0.1-0.2,0.2-0.2,0.4c0,0.1,0.1,0.3,0.2,0.4
			c0.1,0.1,0.2,0.1,0.4,0.1c0.1,0,0.3-0.1,0.4-0.2C387.7,544.5,387.8,544.4,387.8,544.2z"/>
		<path d="M387.7,542.2c-0.1,0.2-0.1,0.6,0.2,0.7c0.1,0.1,0.2,0.1,0.3,0.1c0.2,0,0.3-0.1,0.4-0.3c0.1-0.2,0-0.5-0.2-0.7
			C388.2,541.9,387.9,542,387.7,542.2z"/>
		<path d="M390.8,538.8c-0.2-0.2-0.5-0.2-0.7,0c-0.2,0.2-0.2,0.5,0.1,0.7c0.1,0.1,0.2,0.1,0.3,0.1c0.1,0,0.3-0.1,0.4-0.2h0
			C391.1,539.3,391,539,390.8,538.8z"/>
		<path d="M388.8,540.5c-0.2,0.2-0.1,0.5,0.1,0.7c0.1,0.1,0.2,0.1,0.3,0.1c0.2,0,0.3-0.1,0.4-0.2c0.2-0.2,0.1-0.5-0.1-0.7
			C389.3,540.2,389,540.2,388.8,540.5z"/>
		<path d="M393.9,536.3c-0.2-0.2-0.5-0.3-0.7-0.2c-0.2,0.1-0.3,0.5-0.2,0.7c0.1,0.1,0.3,0.2,0.4,0.2c0.1,0,0.2,0,0.3-0.1
			C394,536.9,394.1,536.6,393.9,536.3z"/>
		<path d="M395.7,535.5c-0.1-0.3-0.4-0.4-0.7-0.3c-0.3,0.1-0.4,0.4-0.3,0.7c0.1,0.2,0.3,0.3,0.5,0.3c0.1,0,0.1,0,0.2,0h0
			C395.7,536,395.8,535.8,395.7,535.5z"/>
		<path d="M397.1,534.6c-0.3,0-0.5,0.3-0.4,0.6c0,0.2,0.2,0.4,0.5,0.4c0,0,0.1,0,0.1,0c0.3,0,0.5-0.3,0.4-0.6
			C397.6,534.8,397.4,534.6,397.1,534.6z"/>
		<path d="M392.3,537.5c-0.2-0.2-0.5-0.2-0.7,0c-0.2,0.2-0.2,0.5,0,0.7c0.1,0.1,0.2,0.2,0.4,0.2c0.1,0,0.2,0,0.3-0.1
			C392.4,538,392.5,537.7,392.3,537.5z"/>
		<path d="M399.2,535.5c0.1,0,0.3-0.1,0.4-0.1c0.1-0.1,0.1-0.2,0.1-0.4s-0.1-0.3-0.1-0.4c-0.2-0.2-0.5-0.2-0.7,0
			c-0.1,0.1-0.1,0.2-0.1,0.4c0,0.1,0,0.3,0.1,0.4C398.9,535.5,399.1,535.5,399.2,535.5z"/>
		<path d="M212.9,526.2c-0.1,0.1-0.2,0.2-0.2,0.4c0,0.1,0.1,0.3,0.2,0.4c0.1,0.1,0.2,0.1,0.4,0.1c0.1,0,0.3,0,0.4-0.1
			c0.1-0.1,0.2-0.2,0.2-0.4c0-0.1-0.1-0.3-0.2-0.4C213.4,526,213.1,526,212.9,526.2z"/>
		<path d="M223.5,536.3c-0.1-0.2-0.4-0.3-0.7-0.2c-0.2,0.1-0.3,0.5-0.2,0.7c0.1,0.2,0.3,0.3,0.5,0.3c0.1,0,0.2,0,0.2-0.1
			C223.5,536.8,223.6,536.5,223.5,536.3z"/>
		<path d="M221.7,534.3c-0.2,0.1-0.3,0.5-0.2,0.7c0.1,0.2,0.3,0.2,0.4,0.2c0.1,0,0.2,0,0.3-0.1c0.2-0.2,0.3-0.5,0.2-0.7
			C222.3,534.2,222,534.2,221.7,534.3z"/>
		<path d="M219.3,531.1c-0.2,0.2-0.2,0.5-0.1,0.7c0.1,0.1,0.2,0.2,0.4,0.2c0.1,0,0.2,0,0.3-0.1c0.2-0.2,0.2-0.5,0.1-0.7
			C219.8,530.9,219.5,530.9,219.3,531.1z"/>
		<path d="M221.3,532.8c-0.2-0.2-0.5-0.3-0.7-0.1c-0.2,0.2-0.3,0.5-0.1,0.7c0.1,0.1,0.2,0.2,0.4,0.2c0.1,0,0.2,0,0.3-0.1
			C221.4,533.3,221.4,533,221.3,532.8C221.3,532.8,221.3,532.8,221.3,532.8z"/>
		<path d="M216.3,528.3c-0.2,0.2-0.1,0.5,0.1,0.7c0.1,0.1,0.2,0.1,0.3,0.1c0.1,0,0.3-0.1,0.4-0.2c0.2-0.2,0.1-0.5-0.1-0.7
			C216.8,528.1,216.4,528.1,216.3,528.3z"/>
		<path d="M215.3,527.1c-0.2-0.1-0.6-0.1-0.7,0.2c-0.1,0.2-0.1,0.6,0.2,0.7v0c0.1,0.1,0.2,0.1,0.3,0.1c0.2,0,0.3-0.1,0.4-0.2
			C215.6,527.5,215.5,527.2,215.3,527.1z"/>
		<path d="M217.8,529.6c-0.2,0.2-0.2,0.5,0,0.7c0.1,0.1,0.2,0.1,0.4,0.1c0.1,0,0.3-0.1,0.4-0.2c0.2-0.2,0.2-0.5,0-0.7
			C218.4,529.4,218,529.4,217.8,529.6z"/>
		<path d="M223.6,538c-0.1,0.1-0.1,0.2-0.1,0.4c0,0.1,0.1,0.3,0.1,0.4c0.1,0.1,0.2,0.1,0.4,0.1c0.1,0,0.3,0,0.4-0.1
			c0.1-0.1,0.1-0.2,0.1-0.4c0-0.1,0-0.3-0.1-0.4C224.1,537.8,223.8,537.8,223.6,538z"/>
		<path d="M242.3,541.8c-0.2,0.2-0.1,0.5,0.1,0.7c0.1,0.1,0.2,0.1,0.3,0.1c0.1,0,0.3-0.1,0.4-0.2c0.2-0.2,0.1-0.5-0.1-0.7
			C242.8,541.6,242.5,541.6,242.3,541.8z"/>
		<path d="M237.7,538.7c-0.3-0.1-0.6,0-0.7,0.3c-0.1,0.3,0,0.6,0.3,0.7c0.1,0,0.1,0,0.2,0c0.2,0,0.4-0.1,0.5-0.3
			C238.1,539.1,238,538.8,237.7,538.7z"/>
		<path d="M239.6,539.5c-0.2-0.1-0.6,0-0.7,0.2c-0.1,0.3,0,0.6,0.2,0.7c0.1,0,0.1,0,0.2,0c0.2,0,0.4-0.1,0.5-0.3
			C240,540,239.9,539.7,239.6,539.5z"/>
		<path d="M241.4,540.6c-0.2-0.1-0.6-0.1-0.7,0.1c-0.1,0.2-0.1,0.6,0.2,0.7h0c0.1,0.1,0.2,0.1,0.3,0.1c0.2,0,0.3-0.1,0.4-0.2
			C241.7,541,241.6,540.7,241.4,540.6z"/>
		<path d="M247,546.4c-0.1-0.2-0.5-0.3-0.7-0.2c-0.2,0.1-0.3,0.5-0.2,0.7c0.1,0.2,0.3,0.2,0.4,0.2c0.1,0,0.2,0,0.3-0.1
			C247,546.9,247.1,546.6,247,546.4z"/>
		<path d="M243.8,543.1c-0.2,0.2-0.2,0.5,0,0.7c0.1,0.1,0.2,0.1,0.4,0.1c0.1,0,0.3,0,0.4-0.1c0.2-0.2,0.2-0.5,0-0.7
			C244.3,542.9,244,542.9,243.8,543.1z"/>
		<path d="M245.1,544.6c-0.2,0.2-0.3,0.5-0.1,0.7c0.1,0.1,0.2,0.2,0.4,0.2c0.1,0,0.2,0,0.3-0.1c0.2-0.2,0.3-0.5,0.1-0.7
			C245.7,544.5,245.3,544.4,245.1,544.6z"/>
		<path d="M231.8,537.4c-0.3,0-0.5,0.2-0.6,0.5c0,0.3,0.2,0.5,0.5,0.6c0,0,0,0,0,0c0.3,0,0.5-0.2,0.5-0.5
			C232.3,537.7,232.1,537.5,231.8,537.4z"/>
		<path d="M233.8,537.7c-0.3,0-0.6,0.1-0.6,0.4c0,0.3,0.1,0.5,0.4,0.6c0,0,0.1,0,0.1,0c0.2,0,0.5-0.2,0.5-0.4
			C234.3,538,234.1,537.7,233.8,537.7z"/>
		<path d="M229.8,537.3c-0.3,0-0.5,0.2-0.5,0.5c0,0.3,0.2,0.5,0.5,0.5h0c0.3,0,0.5-0.2,0.5-0.5C230.3,537.6,230.1,537.3,229.8,537.3
			z"/>
		<path d="M229.8,537.3C229.8,537.3,229.8,537.3,229.8,537.3C229.8,537.3,229.8,537.3,229.8,537.3
			C229.8,537.3,229.8,537.3,229.8,537.3z"/>
		<path d="M225.8,537.5c-0.3,0-0.5,0.3-0.4,0.6c0,0.3,0.2,0.4,0.5,0.4c0,0,0,0,0.1,0c0.3,0,0.5-0.3,0.5-0.6
			C226.3,537.7,226.1,537.5,225.8,537.5z"/>
		<path d="M227.8,537.4c-0.3,0-0.5,0.2-0.5,0.5c0,0.3,0.2,0.5,0.5,0.5c0,0,0,0,0,0c0.3,0,0.5-0.2,0.5-0.5
			C228.3,537.6,228.1,537.3,227.8,537.4z"/>
		<path d="M235.8,538.1c-0.3-0.1-0.5,0.1-0.6,0.4c-0.1,0.3,0.1,0.5,0.4,0.6c0,0,0.1,0,0.1,0c0.2,0,0.4-0.1,0.5-0.4
			C236.2,538.5,236.1,538.2,235.8,538.1z"/>
		<path d="M247.1,548c-0.1,0.1-0.2,0.2-0.2,0.4c0,0.1,0.1,0.3,0.2,0.4c0.1,0.1,0.2,0.1,0.4,0.1s0.3-0.1,0.4-0.1
			c0.1-0.1,0.1-0.2,0.1-0.4c0-0.1,0-0.3-0.1-0.4C247.6,547.8,247.3,547.8,247.1,548z"/>
		<path d="M261.3,547.1c-0.3-0.1-0.5,0.1-0.6,0.4c-0.1,0.3,0.1,0.5,0.4,0.6c0,0,0.1,0,0.1,0c0.2,0,0.5-0.2,0.5-0.4
			C261.8,547.5,261.6,547.2,261.3,547.1z"/>
		<path d="M269.6,551.7c-0.2,0.2-0.2,0.5,0,0.7c0.1,0.1,0.2,0.1,0.3,0.1c0.1,0,0.3,0,0.4-0.2c0.2-0.2,0.2-0.5,0-0.7
			C270.2,551.4,269.8,551.4,269.6,551.7z"/>
		<path d="M271,553.1c-0.2,0.2-0.2,0.5-0.1,0.7c0.1,0.1,0.2,0.2,0.4,0.2c0.1,0,0.2,0,0.3-0.1c0.2-0.2,0.2-0.5,0.1-0.7
			C271.6,552.9,271.3,552.9,271,553.1z"/>
		<path d="M259.3,546.8c-0.3,0-0.5,0.2-0.6,0.4c0,0.3,0.2,0.5,0.4,0.6c0,0,0,0,0.1,0c0.3,0,0.5-0.2,0.5-0.5
			C259.8,547.1,259.6,546.9,259.3,546.8z"/>
		<path d="M265.2,548.3c-0.3-0.1-0.6,0-0.7,0.3c-0.1,0.3,0,0.6,0.3,0.7c0.1,0,0.1,0,0.2,0c0.2,0,0.4-0.1,0.5-0.3
			C265.6,548.7,265.5,548.4,265.2,548.3z"/>
		<path d="M268.1,550.4c-0.2,0.2-0.1,0.5,0.1,0.7c0.1,0.1,0.2,0.1,0.3,0.1c0.2,0,0.3-0.1,0.4-0.2c0.2-0.2,0.1-0.5-0.1-0.7
			C268.6,550.2,268.2,550.2,268.1,550.4z"/>
		<path d="M267.1,549.2c-0.2-0.1-0.6-0.1-0.7,0.2c-0.1,0.2-0.1,0.6,0.2,0.7c0.1,0,0.2,0.1,0.2,0.1c0.2,0,0.4-0.1,0.4-0.3
			C267.4,549.7,267.3,549.4,267.1,549.2z"/>
		<path d="M263.3,547.6c-0.3-0.1-0.6,0.1-0.6,0.4c-0.1,0.3,0.1,0.5,0.3,0.6c0,0,0.1,0,0.1,0c0.2,0,0.4-0.1,0.5-0.4
			C263.7,548,263.6,547.7,263.3,547.6z"/>
		<path d="M257.3,546.7c-0.3,0-0.5,0.2-0.5,0.5c0,0.3,0.2,0.5,0.5,0.5c0,0,0,0,0,0c0.3,0,0.5-0.2,0.5-0.5
			C257.8,546.9,257.6,546.7,257.3,546.7z"/>
		<path d="M251.3,547c-0.3,0-0.5,0.3-0.4,0.6c0,0.2,0.3,0.4,0.5,0.4c0,0,0.1,0,0.1,0c0.3,0,0.5-0.3,0.4-0.6
			C251.8,547.2,251.6,547,251.3,547z"/>
		<path d="M249.3,547.4c-0.3,0.1-0.4,0.3-0.4,0.6c0,0.2,0.3,0.4,0.5,0.4c0,0,0.1,0,0.1,0c0.3-0.1,0.5-0.3,0.4-0.6
			C249.8,547.5,249.6,547.3,249.3,547.4z"/>
		<path d="M255.3,546.7c-0.3,0-0.5,0.2-0.5,0.5c0,0.3,0.2,0.5,0.5,0.5c0,0,0,0,0,0c0.3,0,0.5-0.2,0.5-0.5
			C255.8,546.9,255.6,546.7,255.3,546.7z"/>
		<path d="M253.3,546.8c-0.3,0-0.5,0.3-0.5,0.6c0,0.3,0.2,0.5,0.5,0.5c0,0,0,0,0,0c0.3,0,0.5-0.3,0.5-0.5
			C253.8,547,253.6,546.8,253.3,546.8z"/>
		<path d="M272.2,554.7c-0.1,0.1-0.1,0.2-0.1,0.4c0,0.1,0.1,0.3,0.1,0.4c0.1,0.1,0.2,0.1,0.4,0.1c0.1,0,0.3-0.1,0.4-0.1
			c0.1-0.1,0.1-0.2,0.1-0.4c0-0.1-0.1-0.3-0.1-0.4C272.7,554.5,272.4,554.5,272.2,554.7z"/>
		<path d="M284.4,552.7c-0.3,0-0.5,0.2-0.5,0.5c0,0.3,0.2,0.5,0.5,0.5c0,0,0,0,0,0c0.3,0,0.5-0.2,0.5-0.5
			C284.9,553,284.6,552.8,284.4,552.7z"/>
		<path d="M294.9,557.1c-0.2,0.2-0.2,0.5,0,0.7c0.1,0.1,0.2,0.2,0.4,0.2c0.1,0,0.2,0,0.4-0.1c0.2-0.2,0.2-0.5,0-0.7
			S295.1,556.9,294.9,557.1z"/>
		<path d="M293.3,555.8c-0.2,0.2-0.1,0.5,0.1,0.7c0.1,0.1,0.2,0.1,0.3,0.1c0.2,0,0.3-0.1,0.4-0.2c0.2-0.2,0.1-0.5-0.1-0.7
			C293.8,555.5,293.5,555.5,293.3,555.8z"/>
		<path d="M288.4,553.2c-0.3-0.1-0.5,0.1-0.6,0.4c-0.1,0.3,0.1,0.5,0.4,0.6c0,0,0.1,0,0.1,0c0.2,0,0.4-0.2,0.5-0.4
			C288.9,553.5,288.7,553.3,288.4,553.2z"/>
		<path d="M290.4,553.8c-0.3-0.1-0.6,0-0.6,0.3s0,0.6,0.3,0.7c0.1,0,0.1,0,0.2,0c0.2,0,0.4-0.1,0.5-0.4
			C290.8,554.1,290.7,553.8,290.4,553.8z"/>
		<path d="M292.3,554.6c-0.3-0.1-0.6,0-0.7,0.2c-0.1,0.2,0,0.6,0.2,0.7v0c0.1,0,0.2,0.1,0.2,0.1c0.2,0,0.4-0.1,0.5-0.3
			C292.6,555,292.5,554.7,292.3,554.6z"/>
		<path d="M286.4,552.9c-0.3,0-0.5,0.2-0.6,0.4c0,0.3,0.2,0.5,0.4,0.6c0,0,0,0,0.1,0c0.3,0,0.5-0.2,0.5-0.5
			C286.9,553.2,286.7,552.9,286.4,552.9z"/>
		<path d="M276.3,553.6c-0.3,0-0.5,0.3-0.4,0.6c0,0.2,0.3,0.4,0.5,0.4c0,0,0.1,0,0.1,0c0.3-0.1,0.4-0.3,0.4-0.6
			C276.8,553.7,276.6,553.5,276.3,553.6z"/>
		<path d="M282.3,552.8c-0.3,0-0.5,0.2-0.5,0.5c0,0.3,0.2,0.5,0.5,0.5c0,0,0,0,0,0c0.3,0,0.5-0.2,0.5-0.5
			C282.8,553,282.6,552.8,282.3,552.8z"/>
		<path d="M278.3,553.2c-0.3,0-0.5,0.3-0.4,0.6c0,0.3,0.3,0.4,0.5,0.4c0,0,0.1,0,0.1,0c0.3-0.1,0.5-0.3,0.4-0.6
			C278.8,553.3,278.6,553.1,278.3,553.2z"/>
		<path d="M274.3,554c-0.3,0.1-0.4,0.4-0.4,0.6c0.1,0.2,0.3,0.4,0.5,0.4c0,0,0.1,0,0.1,0c0.3-0.1,0.4-0.4,0.4-0.6
			C274.9,554.1,274.6,553.9,274.3,554z"/>
		<path d="M280.3,552.9c-0.3,0-0.5,0.3-0.4,0.6c0,0.3,0.2,0.4,0.5,0.4c0,0,0,0,0.1,0c0.3,0,0.5-0.3,0.4-0.6
			C280.8,553.1,280.6,552.9,280.3,552.9z"/>
		<path d="M296.1,558.7c-0.1,0.1-0.1,0.2-0.1,0.4c0,0.1,0,0.3,0.1,0.4s0.2,0.1,0.4,0.1c0.1,0,0.3,0,0.4-0.1s0.1-0.2,0.1-0.4
			c0-0.1,0-0.3-0.1-0.4C296.6,558.5,296.3,558.5,296.1,558.7z"/>
		<path d="M315.9,556.9c-0.2-0.2-0.5-0.1-0.7,0.1c-0.2,0.2-0.1,0.5,0.2,0.7c0.1,0.1,0.2,0.1,0.3,0.1c0.2,0,0.3-0.1,0.4-0.2
			C316.2,557.4,316.2,557,315.9,556.9z"/>
		<path d="M305.8,555c-0.3,0-0.5,0.3-0.4,0.6c0,0.2,0.3,0.4,0.5,0.4c0,0,0,0,0.1,0c0.3,0,0.5-0.3,0.4-0.6
			C306.4,555.2,306.1,555,305.8,555z"/>
		<path d="M314.1,555.9c-0.2-0.1-0.6,0-0.7,0.3c-0.1,0.3,0,0.6,0.3,0.7c0.1,0,0.1,0.1,0.2,0.1c0.2,0,0.4-0.1,0.5-0.3
			C314.5,556.3,314.3,556,314.1,555.9z"/>
		<path d="M307.9,554.8c-0.3,0-0.5,0.2-0.5,0.5c0,0.3,0.2,0.5,0.5,0.5c0,0,0,0,0,0c0.3,0,0.5-0.2,0.5-0.5
			C308.4,555,308.2,554.8,307.9,554.8z"/>
		<path d="M310,554.9c-0.3,0-0.5,0.2-0.6,0.5c0,0.3,0.2,0.5,0.5,0.5c0,0,0,0,0,0c0.3,0,0.5-0.2,0.5-0.5
			C310.5,555.2,310.3,554.9,310,554.9z"/>
		<path d="M312.1,555.2c-0.3-0.1-0.6,0.1-0.6,0.4c-0.1,0.3,0.1,0.6,0.4,0.6c0,0,0.1,0,0.1,0c0.2,0,0.4-0.2,0.5-0.4
			C312.5,555.6,312.3,555.3,312.1,555.2z"/>
		<path d="M303.8,555.5c-0.3,0.1-0.4,0.3-0.4,0.6c0.1,0.2,0.3,0.4,0.5,0.4c0,0,0.1,0,0.1,0c0.3-0.1,0.4-0.4,0.4-0.6
			C304.3,555.6,304.1,555.4,303.8,555.5z"/>
		<path d="M298,557.6c-0.3,0.1-0.4,0.4-0.2,0.7c0.1,0.2,0.3,0.3,0.5,0.3c0.1,0,0.2,0,0.2-0.1c0.2-0.1,0.4-0.4,0.2-0.7
			C298.5,557.6,298.2,557.5,298,557.6z"/>
		<path d="M317.3,559.1c0.1,0,0.3-0.1,0.4-0.2c0.2-0.2,0.2-0.5,0-0.7c-0.2-0.2-0.5-0.2-0.7,0c-0.2,0.2-0.2,0.5,0,0.7
			C317,559,317.1,559.1,317.3,559.1z"/>
		<path d="M301.8,556c-0.3,0.1-0.4,0.4-0.3,0.6c0.1,0.2,0.3,0.3,0.5,0.3c0.1,0,0.1,0,0.2,0c0.3-0.1,0.4-0.4,0.3-0.7
			C302.4,556.1,302.1,555.9,301.8,556z"/>
		<path d="M299.9,556.8c-0.3,0.1-0.4,0.4-0.3,0.7c0.1,0.2,0.3,0.3,0.5,0.3c0.1,0,0.1,0,0.2,0c0.3-0.1,0.4-0.4,0.3-0.7
			C300.4,556.8,300.1,556.6,299.9,556.8z"/>
		<path d="M318.3,559.7c-0.1,0.1-0.1,0.2-0.1,0.4c0,0.1,0.1,0.3,0.1,0.4c0.1,0.1,0.2,0.1,0.4,0.1c0.1,0,0.3,0,0.4-0.1
			c0.1-0.1,0.1-0.2,0.1-0.4c0-0.1-0.1-0.3-0.1-0.4C318.8,559.5,318.5,559.5,318.3,559.7z"/>
		<path d="M331.8,555.5c-0.3,0-0.5,0.2-0.5,0.5c0,0.3,0.2,0.5,0.5,0.5c0,0,0,0,0,0c0.3,0,0.5-0.2,0.5-0.5
			C332.3,555.7,332,555.5,331.8,555.5z"/>
		<path d="M333.8,555.5c-0.3,0-0.5,0.2-0.5,0.5c0,0.3,0.2,0.5,0.5,0.5c0,0,0,0,0,0c0.3,0,0.5-0.2,0.5-0.5
			C334.3,555.8,334.1,555.5,333.8,555.5z"/>
		<path d="M329.7,555.7c-0.3,0-0.5,0.3-0.4,0.6c0,0.2,0.3,0.4,0.5,0.4c0,0,0,0,0.1,0v0c0.3,0,0.5-0.3,0.4-0.6
			C330.3,555.9,330,555.7,329.7,555.7z"/>
		<path d="M322.4,558.8c0.3-0.1,0.4-0.4,0.3-0.7c-0.1-0.3-0.4-0.4-0.7-0.3c0,0,0,0,0,0c-0.3,0.1-0.4,0.4-0.3,0.7
			c0.1,0.2,0.3,0.3,0.5,0.3C322.3,558.9,322.3,558.9,322.4,558.8z"/>
		<path d="M320.2,558.7c-0.2,0.1-0.4,0.4-0.2,0.7c0.1,0.2,0.3,0.3,0.5,0.3c0.1,0,0.1,0,0.2,0c0.2-0.1,0.4-0.4,0.2-0.7
			C320.7,558.7,320.4,558.6,320.2,558.7z"/>
		<path d="M339.9,557.8c0.1-0.2,0-0.5-0.2-0.7c-0.2-0.1-0.6,0-0.7,0.2c-0.1,0.2,0,0.5,0.2,0.7c0.1,0,0.2,0.1,0.2,0.1
			C339.6,558.1,339.8,558,339.9,557.8z"/>
		<path d="M327.7,556.1c-0.3,0.1-0.5,0.3-0.4,0.6c0.1,0.2,0.3,0.4,0.5,0.4c0,0,0.1,0,0.1,0c0.3-0.1,0.5-0.3,0.4-0.6
			C328.3,556.2,328,556,327.7,556.1z"/>
		<path d="M336.2,556.4c0-0.3-0.1-0.6-0.4-0.6c-0.3-0.1-0.5,0.1-0.6,0.4c0,0.3,0.1,0.6,0.4,0.6c0,0,0.1,0,0.1,0
			C336,556.8,336.2,556.6,336.2,556.4z"/>
		<path d="M337.1,556.6c-0.1,0.3,0,0.6,0.3,0.7c0.1,0,0.1,0,0.2,0c0.2,0,0.4-0.1,0.5-0.3c0.1-0.3-0.1-0.6-0.3-0.7
			C337.5,556.2,337.2,556.3,337.1,556.6z"/>
		<path d="M324.1,558.2c0,0,0.1,0,0.2,0c0.3-0.1,0.4-0.4,0.3-0.6c-0.1-0.3-0.4-0.4-0.7-0.3c-0.3,0.1-0.4,0.4-0.3,0.6
			C323.6,558,323.8,558.2,324.1,558.2z"/>
		<path d="M341.5,559c0.2-0.2,0.1-0.5-0.1-0.7c0,0,0,0,0,0c-0.2-0.2-0.5-0.1-0.7,0.1c-0.2,0.2-0.1,0.5,0.1,0.7
			c0.1,0.1,0.2,0.1,0.3,0.1C341.2,559.2,341.4,559.1,341.5,559z"/>
		<path d="M325.9,557.6c0,0,0.1,0,0.1,0c0.3-0.1,0.4-0.4,0.4-0.6c-0.1-0.3-0.4-0.4-0.6-0.4s-0.4,0.4-0.4,0.6
			C325.5,557.4,325.7,557.6,325.9,557.6z"/>
		<path d="M342.9,560.4c0.1-0.1,0.1-0.2,0.1-0.4c0-0.1-0.1-0.3-0.1-0.4c-0.2-0.2-0.5-0.2-0.7,0c-0.1,0.1-0.1,0.2-0.1,0.4
			c0,0.1,0.1,0.3,0.1,0.4c0.1,0.1,0.2,0.1,0.4,0.1C342.6,560.6,342.8,560.5,342.9,560.4z"/>
		<path d="M358.3,553c-0.3,0-0.5,0.2-0.5,0.5c0,0.3,0.2,0.5,0.5,0.5c0.3,0,0.5-0.2,0.5-0.5S358.6,553,358.3,553z"/>
		<path d="M356.3,553.1c-0.3,0-0.5,0.3-0.5,0.6c0,0.3,0.2,0.5,0.5,0.5c0,0,0,0,0,0c0.3,0,0.5-0.3,0.5-0.6
			C356.9,553.3,356.6,553.1,356.3,553.1z"/>
		<path d="M345.3,557.3C345.3,557.3,345.3,557.3,345.3,557.3c-0.2,0.2-0.3,0.5-0.1,0.7c0.1,0.1,0.3,0.2,0.4,0.2c0.1,0,0.2,0,0.3-0.1
			c0.2-0.2,0.3-0.5,0.1-0.7C345.9,557.2,345.5,557.1,345.3,557.3z"/>
		<path d="M354.4,553.4C354.4,553.4,354.4,553.4,354.4,553.4c-0.3,0.1-0.5,0.3-0.4,0.6c0.1,0.2,0.3,0.4,0.5,0.4c0,0,0.1,0,0.1,0
			c0.3-0.1,0.5-0.3,0.4-0.6C354.9,553.5,354.7,553.4,354.4,553.4z"/>
		<path d="M344.3,559.2c0.2-0.2,0.3-0.5,0.1-0.7c-0.2-0.2-0.5-0.3-0.7-0.1c-0.2,0.2-0.3,0.5-0.1,0.7c0.1,0.1,0.3,0.2,0.4,0.2
			C344.1,559.4,344.2,559.3,344.3,559.2z"/>
		<path d="M348.8,555.3c-0.2,0.1-0.4,0.4-0.2,0.7c0.1,0.2,0.3,0.3,0.5,0.3c0.1,0,0.1,0,0.2,0c0.2-0.1,0.4-0.4,0.2-0.7
			C349.3,555.3,349,555.2,348.8,555.3z"/>
		<path d="M350.6,554.6c-0.3,0.1-0.4,0.4-0.3,0.7c0.1,0.2,0.3,0.3,0.5,0.3c0.1,0,0.1,0,0.2,0c0.3-0.1,0.4-0.4,0.3-0.7
			C351.1,554.6,350.8,554.4,350.6,554.6z"/>
		<path d="M352.6,554.9c0,0,0.1,0,0.1,0c0.3-0.1,0.4-0.4,0.3-0.6s-0.4-0.4-0.6-0.3s-0.4,0.4-0.4,0.6
			C352.2,554.8,352.4,554.9,352.6,554.9z"/>
		<path d="M347,556.3c-0.2,0.1-0.3,0.4-0.2,0.7c0.1,0.2,0.3,0.3,0.4,0.3c0.1,0,0.2,0,0.2-0.1c0.2-0.1,0.3-0.4,0.2-0.7
			C347.6,556.2,347.2,556.1,347,556.3z"/>
		<path d="M362.2,554.4c0.2,0,0.5-0.2,0.5-0.4c0.1-0.3-0.1-0.5-0.4-0.6c-0.3-0.1-0.5,0.1-0.6,0.4c-0.1,0.3,0.1,0.5,0.4,0.6
			C362.1,554.4,362.2,554.4,362.2,554.4z"/>
		<path d="M360.2,554.1C360.3,554.1,360.3,554.1,360.2,554.1c0.3,0,0.5-0.2,0.6-0.5c0-0.3-0.2-0.5-0.5-0.6c-0.3,0-0.5,0.2-0.6,0.5
			C359.7,553.8,360,554.1,360.2,554.1z"/>
		<path d="M364.2,553.9c-0.3-0.1-0.5,0.1-0.6,0.3c-0.1,0.3,0.1,0.6,0.3,0.6c0,0,0.1,0,0.2,0c0.2,0,0.4-0.1,0.5-0.4
			C364.7,554.3,364.5,554,364.2,553.9z"/>
		<path d="M365.5,554.7c-0.1,0.1-0.1,0.2-0.1,0.4c0,0.1,0,0.3,0.1,0.4c0.1,0.1,0.2,0.1,0.4,0.1s0.3-0.1,0.4-0.1
			c0.1-0.1,0.2-0.2,0.2-0.4c0-0.1-0.1-0.3-0.2-0.4C366.1,554.5,365.7,554.5,365.5,554.7z"/>
		<path d="M386.6,545.7c-0.3-0.1-0.6,0-0.7,0.3c-0.1,0.3,0,0.6,0.3,0.7v0c0.1,0,0.1,0,0.2,0c0.2,0,0.4-0.1,0.5-0.3
			C386.9,546.1,386.8,545.8,386.6,545.7z"/>
		<path d="M378.4,545.1c-0.3,0.1-0.4,0.4-0.4,0.6c0.1,0.2,0.3,0.4,0.5,0.4c0,0,0.1,0,0.1,0c0.3-0.1,0.4-0.3,0.4-0.6
			C378.9,545.1,378.6,545,378.4,545.1z"/>
		<path d="M376.4,545.7c-0.3,0.1-0.4,0.4-0.3,0.7c0.1,0.2,0.3,0.3,0.5,0.3c0.1,0,0.1,0,0.2,0c0.3-0.1,0.4-0.4,0.3-0.7
			C377,545.7,376.7,545.6,376.4,545.7z"/>
		<path d="M368.1,551.7c-0.2,0.2-0.2,0.5,0,0.7c0.1,0.1,0.2,0.1,0.3,0.1c0.1,0,0.3,0,0.4-0.2c0.2-0.2,0.2-0.5,0-0.7
			C368.7,551.4,368.3,551.4,368.1,551.7z"/>
		<path d="M369.6,550.2c-0.2,0.2-0.2,0.5,0,0.7c0.1,0.1,0.2,0.2,0.4,0.2c0.1,0,0.2-0.1,0.3-0.1c0.2-0.2,0.2-0.5,0-0.7
			C370.1,550,369.8,550,369.6,550.2z"/>
		<path d="M374.5,546.6c-0.2,0.1-0.3,0.4-0.2,0.7c0.1,0.2,0.3,0.3,0.4,0.3c0.1,0,0.2,0,0.2-0.1c0.2-0.1,0.3-0.5,0.2-0.7
			C375.1,546.6,374.8,546.5,374.5,546.6z"/>
		<path d="M371.1,548.9c-0.2,0.2-0.3,0.5-0.1,0.7c0.1,0.1,0.2,0.2,0.4,0.2c0.1,0,0.2,0,0.3-0.1c0.2-0.2,0.2-0.5,0.1-0.7
			C371.7,548.8,371.4,548.7,371.1,548.9z"/>
		<path d="M372.8,547.7c-0.2,0.2-0.3,0.5-0.1,0.7c0.1,0.1,0.3,0.2,0.4,0.2c0.1,0,0.2,0,0.3-0.1c0.2-0.2,0.3-0.5,0.1-0.7
			C373.3,547.6,373,547.5,372.8,547.7z"/>
		<path d="M382.5,544.7c-0.3,0-0.5,0.2-0.6,0.5c0,0.3,0.2,0.5,0.5,0.5c0,0,0,0,0,0c0.3,0,0.5-0.2,0.5-0.5
			C383,544.9,382.8,544.7,382.5,544.7z"/>
		<path d="M384.6,545C384.6,545,384.6,545,384.6,545c-0.3-0.1-0.6,0.1-0.6,0.4c-0.1,0.3,0.1,0.6,0.4,0.6c0,0,0.1,0,0.1,0
			c0.2,0,0.4-0.2,0.5-0.4C385,545.4,384.9,545.1,384.6,545z"/>
		<path d="M366.8,553.2c-0.2,0.2-0.1,0.5,0.1,0.7c0.1,0.1,0.2,0.1,0.3,0.1c0.1,0,0.3-0.1,0.4-0.2c0.2-0.2,0.2-0.5-0.1-0.7
			C367.3,552.9,366.9,552.9,366.8,553.2z"/>
		<path d="M380.4,544.7c-0.3,0-0.5,0.3-0.5,0.6c0,0.3,0.2,0.5,0.5,0.5c0,0,0,0,0,0c0.3,0,0.5-0.3,0.5-0.6
			C381,544.9,380.7,544.7,380.4,544.7z"/>
		<path d="M387.8,546.8c-0.1,0.1-0.1,0.2-0.1,0.4c0,0.1,0.1,0.3,0.1,0.4c0.1,0.1,0.2,0.1,0.4,0.1c0.1,0,0.3-0.1,0.4-0.1
			c0.1-0.1,0.1-0.2,0.1-0.4c0-0.1,0-0.3-0.1-0.4C388.3,546.6,388,546.6,387.8,546.8z"/>
		<path d="M397.7,538.1c0,0.2,0.3,0.4,0.5,0.4c0,0,0.1,0,0.1,0c0.3,0,0.5-0.3,0.4-0.6c-0.1-0.3-0.3-0.5-0.6-0.4
			C397.8,537.6,397.6,537.8,397.7,538.1z"/>
		<path d="M396,538.1c-0.3,0.1-0.4,0.4-0.3,0.7c0.1,0.2,0.3,0.3,0.5,0.3c0.1,0,0.1,0,0.2,0c0.3-0.1,0.4-0.4,0.3-0.7
			C396.6,538.1,396.3,538,396,538.1z"/>
		<path d="M394.2,539c-0.2,0.1-0.3,0.5-0.2,0.7c0.1,0.1,0.3,0.2,0.4,0.2c0.1,0,0.2,0,0.3-0.1c0.2-0.1,0.3-0.5,0.2-0.7
			C394.7,539,394.4,538.9,394.2,539z"/>
		<path d="M392.5,540.3c-0.2,0.2-0.2,0.5-0.1,0.7c0.1,0.1,0.2,0.2,0.4,0.2c0.1,0,0.2,0,0.3-0.1c0.2-0.2,0.2-0.5,0-0.7
			C393,540.1,392.7,540.1,392.5,540.3z"/>
		<path d="M389.7,543.4c-0.2,0.2-0.1,0.6,0.1,0.7c0.1,0.1,0.2,0.1,0.3,0.1c0.2,0,0.3-0.1,0.4-0.2c0.2-0.2,0.1-0.5-0.1-0.7
			C390.2,543.1,389.9,543.1,389.7,543.4z"/>
		<path d="M389.3,544.9c-0.2-0.1-0.6-0.1-0.7,0.2c-0.1,0.2-0.1,0.6,0.2,0.7c0.1,0,0.2,0.1,0.2,0.1c0.2,0,0.4-0.1,0.4-0.3
			C389.6,545.4,389.5,545,389.3,544.9z"/>
		<path d="M391,541.7C391,541.7,391,541.7,391,541.7c-0.2,0.2-0.2,0.5,0,0.7c0.1,0.1,0.2,0.1,0.3,0.1c0.1,0,0.3-0.1,0.4-0.2
			c0.2-0.2,0.2-0.5,0-0.7C391.5,541.5,391.2,541.5,391,541.7z"/>
		<path d="M399.8,538.3c0.1,0.1,0.2,0.1,0.4,0.1c0.1,0,0.3,0,0.4-0.1c0.1-0.1,0.1-0.2,0.1-0.4c0-0.1-0.1-0.3-0.1-0.4
			c-0.2-0.2-0.5-0.2-0.7,0c-0.1,0.1-0.1,0.2-0.1,0.4C399.7,538.1,399.7,538.2,399.8,538.3z"/>
		<g>
			<path fill="#08090A" d="M339.9,195c13.3-10.4,20-20.7,20.4-31.2c0.4-10.7-5.7-21.2-18.2-31.2c-5.8-4.6-6.3-6.1-6.4-6.3
				c0.1-0.5,1.2-2.2,2-3.5c1.4-2.1,3-4.7,4.6-8.3c5.3-11.8,0.1-26.5-14.4-40.1c-8.6-8.1-18.6-12.8-29.3-13.8c0.7-1.9,1.1-4,0.8-6.1
				C298,42,286.3,32.8,274.5,29.2c-2.4-0.7-4.8-1.2-7-1.5c-14.9-1.6-34.8,3.7-37.4,21.2c-0.4,2.9-0.5,5.6-0.3,7.9l0,0
				c0.6,12.5-8.7,20.5-22,17.2c-7-2.3-11.2-5.2-11.3-5.2c-4.6-3.3-13.2-9.4-22.9-9.4c-4.3,0-8.3,1.2-11.8,3.5
				c-2.8,1.9-4.4,4.3-5.4,6.4c-0.2-0.1-0.5-0.1-0.7-0.2l-0.3-0.1c-4.5-1.2-10-2.6-15.5-2.6c-11.1,0-19,6.2-21.3,16.8
				c-0.7-0.1-1.4-0.2-2.2-0.3c-2.2-0.4-4.8-0.8-7.6-0.8c-3.5,0-6.7,0.6-9.8,1.9c-10.5,4.4-11.7,11.1-11.1,16.4
				c-0.4,0-0.8-0.1-1.2-0.1c-1.1-0.1-2.3-0.2-3.4-0.2c-0.4,0-0.9,0-1.4,0c-5.3,0-9.9,0.8-13.6,2.4c-6.8,2.9-11,8.4-11.8,15.4
				c-0.3,2.6-0.1,4.9,0.2,6.8c-0.7,0.2-1.4,0.4-2.1,0.6c-9.3,2.6-24.8,6.9-28.5,21.6c-1.5,5.9,0.3,10.3,1.4,13
				c0.3,0.7,0.6,1.4,0.6,1.8c0,0.1,0,0.1,0,0.2c-0.3,0.2-0.7,0.5-1,0.7c-0.5,0.3-1.1,0.7-1.7,1.1c-4.6,3.1-13.2,8.8-13.4,19.4
				c-0.1,5.2,2.1,8.7,3.7,10.9c-0.2,0.1-0.4,0.3-0.6,0.4c-8.3,5.8-13.2,12.9-14.5,21.1c-1.8,11.8,5.3,16.4,8.9,18.3
				c-0.3,0.4-0.6,0.8-0.9,1.2c-1.3,1.7-2.7,3.6-3.8,6c-3.7,8-6,23.1,2.5,31.8c1.8,1.9,4,3.3,6.3,4.3c3.2-6.8,6.6-12.7,9.7-17.6
				c5.9-9.5,10.6-15,10.6-15s-1.1,6.7,10.7,14.7c0.4,0.3,0.9,0.6,1.3,0.9c2.9,2.1,4.8,4.4,6,6.6c5.4,9.7-2.6,19.2-2.6,19.2
				c7-1,13.7,0,13.7,0c17.9-3.3,31.9-5.4,42.8-6.7c22-2.7,31.8-2.5,37.2-3.6c2-0.4,5.2-1.8,8.8-3.7c4.2-2.2,9-5,13.2-7.6
				c0,0,0.2-0.2,0.5-0.5c0.2-0.1,0.4-0.2,0.6-0.2c-0.4,0.2-0.7,0.5-1.1,0.7c0.5-0.3,0.9-0.6,1.4-0.8c2.3-1,4.4-2.3,6.3-3.8
				c4.1-3.3,7.1-7.8,7.8-12.8c1.3-9.4-7.7-15.2-1.6-24.6c2.6-4,6.4-7.2,4.6-12.1c-1.7-4.8-5-5.1-4.5-11c0.6-7.6,8.7-11.9,6.5-19.4
				c-0.9-3.3-3.4-5.6-1.8-9.5c0.5-1.3,1.6-2.6,2.8-3.6c8-1.3,19-0.7,26.4,9.3c2.6,3.5,4.8,8.2,6.3,14.3c0,0,6.4,10.2,14.4,14.1
				l-9.2,6.9c0,0,0.7,3.1,6.1,7.4c0,0-1.4,3.1-6,5.6l5.2,1.4c0,0-2.4,2.2,1.3,9.1c0,0,1.6,5.4-2.9,8.3c2.1-0.1,4.5-0.5,7.3-1.3
				c3.2-1,6.8-2.5,10.9-4.6c17-9,7.4-33.2,2.8-39.2c-3-3.8-13.7-12-7.5-17.6c5.7-5.1,11.9,4.7,16.1,6.8c19.7,10.2,18-17.4,10-29.9
				c-5.2-8.2-5.6-27.2,6.7-31.1c9.4,2.6,19.2,7.5,25.6,17c1.9,2.8,3.5,6,4.8,9.7c0,0,3.1,6.2,8.9,8.9c6.7,3.2,2.6,5.9,2.6,5.9
				l-4.8,4.5c0,0-1.5,2.8,5.5,5.6c0,0-1.5,5.1-6.2,6l6.9,0.6c0,0-0.5,1.3,0.5,4.2c0.5,1.3,1.2,2.8,2.4,4.7c0,0,2.3,7.9-8.6,9.6
				c-4.8,0.8-12.7,3.6-19.3,7.4c-3,1.7-5.6,3.6-7.7,5.6c0,0.5,0.1,1,0.1,1.5c0.3,0.5,0.6,1.1,0.8,1.5c2.1,3.8,3.8,7.1,5.6,9
				c25,28.4,44.1,27.9,53.3,25.1c5.9-1.8,10.4-6,12.4-11.6c1.9-5.4,1.1-11.4-2.2-16.5c-4.1-6.2-10.3-7.3-14.8-8
				c-3.9-0.7-6.1-1.1-7.5-3.2C329.4,208.7,329.8,205,339.9,195z"/>
			<path fill="#08090A" d="M41.1,340.2c0,0.1-0.1,0.3-0.1,0.4c-0.5,2.2-1,4.6-1.2,7.1c-1.1,13.1,10.7,15.1,19.9,8.4
				c-0.3,5,1.4,9,4.8,11.4c1.8,1.3,4,2.1,6.8,2.4c8.6,0.9,15.6-6.2,21.1-11.8c1.7,8.1,17,6,22.6,4.1c6.8-2.3,11.6-7.5,15.4-13.5
				c1.2-1.9,2.3-3.9,3.3-5.9c1.1-2.1,1.8-4.4,2.5-6.7c0-0.1,0.1-0.2,0.1-0.3c-1.1,0.2-2.1,0.4-3.2,0.6
				C93,343.5,62.7,343.1,41.1,340.2z"/>
		</g>
	</g>
	<path d="M294.2,155.5l-1.1-1.5l-0.5,1.8c-0.4,1.4-1.9,2.5-3.4,2.5c-0.3,0-0.6-0.1-0.9-0.2c-0.1,0-0.2-0.1-0.3-0.1
		c-0.3-0.1-0.7-0.3-1.1-0.3c-0.8-0.1-1.7,0.3-2,1c-0.4,0.7-0.2,1.6,0.5,2.4c1.1,1.4,2.9,2.2,4.7,2.2h0c0.9,0,1.8-0.2,2.5-0.6
		c1.2-0.7,2.1-1.9,2.4-3.4C295.2,157.9,294.9,156.5,294.2,155.5z"/>
	<path d="M277.9,154.3c0-1.9,0.6-3.8,1.5-5.5c1-1.7,2.5-3.1,4.3-3.8c0.5-0.2,1-0.3,1.6-0.4c2.3-0.3,4.7,0,6.8,1.1
		c0.3,0.2,0.7-0.3,0.6-0.7c-0.1-0.4-0.5-0.6-0.8-0.7c-0.9-0.4-2-0.5-3-0.7c-2.3-0.3-4.7-0.5-6.7,0.5c-1.6,0.8-2.8,2.3-3.5,4
		s-1,3.5-1.2,5.3C277.3,153.9,277.5,154.4,277.9,154.3z"/>
	<path d="M194.3,199.4c0.2-2,1-4,2.2-5.6c1.2-1.7,3-3.1,5.1-3.6c0.6-0.1,1.2-0.2,1.8-0.3c2.5-0.2,5.1,0.5,7.3,1.8
		c0.3,0.2,0.8-0.2,0.7-0.6s-0.5-0.6-0.8-0.8c-1-0.5-2.1-0.8-3.2-1c-2.4-0.5-5.1-1-7.4-0.1c-1.9,0.7-3.3,2.2-4.3,3.9
		c-1,1.7-1.5,3.6-1.8,5.4C193.8,198.8,193.9,199.4,194.3,199.4z"/>
	<path d="M205.2,198.1c-3.3,1.2-5.1,3.6-4.4,5.2c0.2,0.4,0.5,0.8,1.3,0.7c0.7,0,1.3-0.4,1.7-0.7c0.4-0.4,0.4-1.4,0.7-1.1
		c3.5,2.9,5.7-3.7,9.1-3.6C212.9,197.1,208.5,196.8,205.2,198.1z"/>
</g>
</svg>
