<svg xmlns="http://www.w3.org/2000/svg" viewBox="0 0 467.3 560.6"><path fill="none" d="M124 427.3c-54.1 22.9-60.7 47.3-60.7 47.3C90 442 127.3 430 149.8 422c3-1.1 6.9-3 11.4-5.6-13.9-11.6-27.2-18.3-34.6-21.4l-2.6 32.3z"/><path fill="#F15731" d="M337.6 489.3l-2.5-.9c.7.4 1.6.7 2.5.9z"/><path fill="#EED71B" d="M413.8 442.8c-25.2 29.5-47.5 56.8-47.5 56.8-3.9 11.1.7 24.3-.3 36.1-.1.6-.1 1.2-.1 1.8 9.9-2.9 20.1-6.6 30.7-11.4-7.9-27.7-1.3-42.1-1.3-42.1 7.9-14.2 14-28 18.5-41.2z"/><path fill="#F15731" d="M245 357.8c-.1-.4-.3-.7-.5-1l.4 1.2c0-.1 0-.2.1-.2z"/><path fill="#EED71B" d="M439 306.4c-1 1.2-2.3 2.1-3.8 2.3-3.9.7-7.7-2.5-8.6-7.3-.8-4.6 1.5-8.9 5.1-9.8-2.1-1.7-3.8-2.4-3.8-2.4-74-35.3-63.3-86.2-63.3-86.2 23.4-166.1-44-203-44-203-22.6 8.4-37.2 19.9-46.1 29.2 11.8 3.6 23.5 12.8 24.9 25.3.2 2.2-.1 4.2-.8 6.1 10.7 1 20.7 5.7 29.3 13.8 14.5 13.6 19.7 28.2 14.4 40.1-1.6 3.6-3.3 6.2-4.6 8.3-.8 1.2-1.9 2.9-2 3.5.1.2.6 1.7 6.4 6.3 12.5 10 18.7 20.5 18.2 31.2-.4 10.6-7.1 20.8-20.4 31.2-10.2 9.9-10.5 13.7-7.4 18.2 1.4 2 3.7 2.5 7.5 3.2 4.5.8 10.7 1.8 14.8 8 3.3 5.1 4.1 11.1 2.2 16.5-2 5.5-6.5 9.8-12.4 11.6-9.2 2.8-28.3 3.3-53.3-25.1-1.7-2-3.5-5.2-5.6-9-.2-.5-.5-1-.8-1.5-.1-.5-.1-1-.1-1.5 2-2 4.7-3.9 7.7-5.6 6.6-3.8 14.5-6.6 19.3-7.4 10.9-1.7 8.6-9.6 8.6-9.6-1.2-1.9-2-3.4-2.4-4.7-1-2.9-.5-4.2-.5-4.2l-6.9-.6c4.7-1 6.2-6 6.2-6-7-2.8-5.5-5.6-5.5-5.6l4.8-4.5s4.1-2.7-2.6-5.9c-5.8-2.7-8.9-8.9-8.9-8.9-1.2-3.7-2.8-6.9-4.8-9.7-6.4-9.5-16.3-14.4-25.6-17-12.3 4-11.9 23-6.7 31.1 8 12.5 9.7 40.1-10 29.9-4.1-2.2-10.4-11.9-16.1-6.8-6.3 5.6 4.5 13.8 7.5 17.6 4.7 6 14.2 30.3-2.8 39.2-4.1 2.2-7.7 3.7-10.9 4.6-2.7.8-5.2 1.3-7.3 1.3-1.4.9-3.5 1.6-6.4 1.8-9.4.6-31 5-49.1 14.9-1.9 1.6-4.1 2.9-6.3 3.8-.4.3-.9.6-1.4.8-4.2 2.6-9 5.4-13.2 7.6-3.6 1.9-6.8 3.3-8.8 3.7-5.3 1.1-15.2.9-37.2 3.6-10.9 1.3-24.9 3.4-42.8 6.7 0 0-6.7-1-13.7 0 0 0 8-9.4 2.6-19.2-1.2-2.2-3.1-4.5-6-6.6-.4-.3-.8-.6-1.3-.9-11.4-7.7-10.3-14.5-10.3-14.5s-4.7 5.6-10.6 15c-3.1 4.9-6.5 10.9-9.7 17.6C7 291 1 308.6 0 327.7c0 0 12.9 8.7 41 12.9 0-.1.1-.3.1-.4 21.7 2.9 51.9 3.3 91.9-3.9 1.1-.2 2.1-.4 3.2-.6 0 .1-.1.2-.1.3 71.8-13.8 93.6 22.2 93.6 22.2 1.8 2 3.4 4.1 5 6.1 6.1-4.7 9.8-7.7 9.8-7.7 2.3-4.2 5.4-8.1 7.7-12.5 2.1-4 3.7-8.7 6.7-12.1 3.5-3.9 8.6-6.3 12.4-9.9 2.7-2.6 5.5-11.3 9.8-7.6 4.4 3.9.1 11.2-2.6 14.5-4.1 5.2-7.1 6.8-1.7 12.3 10.9 11.3 33.8 6.8 48.4 8.3 3.1.3 10.6-.7 13.4 1 4.2 2.6 2.2 5.7-1.3 6.9-10.4 3.6-22.5 1.3-33.1 4.2 1.3 4.4 16.3 5.6 20.9 6.4 4 .7 11 2.2 12.5 6.8 2 6.1-8.8 2.6-12.9 2.3-8.6-.8-17-1.6-25.7-1.8 12.2 1.9 24.7 2.8 36.2 6.5-.9 5.6-24.3 2.4-28.5 2.2-2.1-.1-9.8-1.1-7.3 2.9 2.3 3.8 14.3 3.5 18.5 5.5.8 4.5-4.5 3.6-7.2 3.4-7.6-.7-15.1-1.4-22.7-1.7-11.1-.4-22.6-5.9-33.5-4.6-.8.1-1.7.4-2.6.7 31.9 60-8.8 92.8-8.8 92.8-12.3 10.2-20.9 23-25.5 31 0 .1-.1.1-.1.2 9.2 7.1 46.2 32.4 101.9 30.6 1-10.2.9-20.3-4.6-27.2-4.8-6-6.8-3.2-12.4.2-3.6 2.2-11.4 5.6-14.7.8-3.2-4.7 5.8-6.4 8.7-8.8 4.1-3.3 7-8.1 11.4-11.1 3.7-2.6 8.6-3.5 12.8-5.1 4.6-1.8 8.8-4.3 13.3-6.1.2.2.4.3.7.4 17.3-21.7 38.6-58.2 38.6-58.2 15.3-36.7 53.3-86 53.3-86 10.7-17 13.3-29.1 12.5-37.4zm-127.4 29.2c-4.8 0-8.7-3.9-8.7-8.7 0-4.8 3.9-8.7 8.7-8.7 4.8 0 8.7 3.9 8.7 8.7 0 4.8-3.9 8.7-8.7 8.7z"/><path fill="#8DC63F" d="M165.5 263.5l-.5.5c.4-.2.7-.5 1.1-.7-.2 0-.4.1-.6.2z"/><g fill="#5B5EAA"><path d="M228.2 242.6c4.5-2.9 2.9-8.3 2.9-8.3-3.7-6.9-1.3-9.1-1.3-9.1l-5.2-1.4c4.6-2.5 6-5.6 6-5.6-5.3-4.2-6.1-7.4-6.1-7.4l9.2-6.9c-8-3.9-14.4-14.1-14.4-14.1-1.5-6.2-3.7-10.8-6.3-14.3-7.5-10-18.4-10.6-26.4-9.3-1.2 1-2.3 2.3-2.8 3.6-1.6 3.9.8 6.2 1.8 9.5 2.1 7.5-5.9 11.8-6.5 19.4-.5 5.9 2.8 6.2 4.5 11 1.7 4.9-2.1 8.1-4.6 12.1-6.1 9.5 3 15.2 1.6 24.6-.7 5-3.7 9.5-7.8 12.8 18.1-9.8 39.7-14.2 49.1-14.9 2.8 0 4.9-.7 6.3-1.7zM254.7 389.8c10.8-1.3 22.4 4.2 33.5 4.6 7.6.3 15.1 1.1 22.7 1.7 2.7.2 8 1.1 7.2-3.4-4.2-1.9-16.2-1.7-18.5-5.5-2.4-4 5.2-3 7.3-2.9 4.2.2 27.6 3.4 28.5-2.2-11.5-3.7-24-4.6-36.2-6.5 8.6.2 17.1.9 25.7 1.8 4 .4 14.8 3.8 12.9-2.3-1.5-4.6-8.5-6.1-12.5-6.8-4.6-.8-19.5-2-20.9-6.4 10.6-2.9 22.6-.6 33.1-4.2 3.5-1.2 5.5-4.4 1.3-6.9-2.9-1.7-10.3-.7-13.4-1-14.7-1.4-37.6 3-48.4-8.3-5.3-5.5-2.4-7.1 1.7-12.3 2.6-3.3 7-10.6 2.6-14.5-4.3-3.8-7 5-9.8 7.6-3.8 3.6-8.9 6-12.4 9.9-3 3.4-4.6 8.1-6.7 12.1-2.3 4.3-5.4 8.3-7.7 12.5.2.3.3.7.5 1 .2.6.4 1.4.5 2.2l-.6-2.1-.4-1.2s-3.8 3-9.8 7.7c-1.6-2-3.3-4-5-6.1 0 0-21.8-36-93.6-22.2-.6 2.3-1.4 4.6-2.5 6.7-1 2-2.1 4-3.3 5.9-3.8 5.9-8.7 11.2-15.4 13.5-5.6 1.9-20.9 3.9-22.6-4.1-5.5 5.5-12.4 12.7-21.1 11.8-2.7-.3-5-1.1-6.8-2.4-3.7 8.7-7.5 21.4-7.1 36.5 0 0-15.3 47.3-11.3 95.3 0 0-9.3 35.3 25.3 50 0 0 42.2-7.7 94.3-61.9 14.7-15.3 30.3-34.4 45.8-58.1 0 0 17.3-24.4 33.1-34.9-16.7 12.8-35.6 41.3-35.6 41.3-4.7 9.1-9.3 16.8-13.6 23.3 2.3 4.5 4.4 9.3 6.3 14.4l16.1 41c4.7-8 13.3-20.9 25.5-31 0 0 40.7-32.8 8.8-92.8.8-.4 1.6-.6 2.5-.8zM149.8 422c-22.5 8-59.8 20-86.5 52.7 0 0 6.5-24.4 60.7-47.3l2.6-32.4c7.4 3.2 20.7 9.8 34.6 21.4-4.5 2.6-8.4 4.5-11.4 5.6zM435.3 326.9s-3.6 10.4-8.7 17.1c0 0-38 49.3-53.3 86 0 0-21.3 36.5-38.6 58.2-.2-.1-.5-.3-.7-.4-4.5 1.8-8.7 4.3-13.3 6.1-4.2 1.6-9.1 2.5-12.8 5.1-4.3 3-7.3 7.8-11.4 11.1-2.9 2.4-11.9 4-8.7 8.8 3.3 4.8 11.1 1.5 14.7-.8 5.7-3.5 7.6-6.2 12.4-.2 5.6 6.9 5.7 17 4.6 27.2 14.2-.5 29.7-2.7 46.3-7.5 0-.6.1-1.2.1-1.8 1-11.9-3.6-25 .3-36.1 0 0 22.3-27.3 47.5-56.8 16.9-19.8 35.2-40.6 48.8-54.8.2-.1 21.5-34.3-27.2-61.2z"/></g><path d="M214.9 523.6c0-.1-.1-.3-.1-.4-.2-.2-.5-.2-.7 0-.1.1-.1.2-.1.4 0 .1.1.3.1.4.1.1.2.1.4.1.1 0 .3-.1.4-.1-.1-.1 0-.2 0-.4zM218.2 526.1c.2-.2.1-.5-.1-.7-.2-.2-.5-.1-.7.1-.2.2-.1.5.1.7.1.1.2.1.3.1.2 0 .3-.1.4-.2zM222.8 531.4c-.2.1-.3.5-.2.7.1.1.3.2.4.2.1 0 .2 0 .3-.1.2-.1.3-.5.2-.7-.2-.1-.5-.2-.7-.1zM216.4 524.2c-.2-.2-.6-.1-.7.2-.1.2-.1.5.2.7.1.1.2.1.3.1.2 0 .3-.1.4-.2.1-.4.1-.7-.2-.8zM224.1 534.1c.1 0 .2 0 .2-.1.2-.1.3-.4.2-.7s-.4-.3-.7-.2-.3.4-.2.7c.1.2.3.3.5.3zM221.9 530.7c.1 0 .2 0 .3-.1.2-.2.3-.5.1-.7s-.5-.3-.7-.1c-.2.2-.3.5-.1.7.1.1.3.2.4.2zM219.7 527.5c.2-.2.2-.5 0-.7-.2-.2-.5-.2-.7 0s-.2.5 0 .7c.1.1.2.1.4.1.1 0 .2 0 .3-.1zM221 529c.2-.2.2-.5.1-.7-.2-.2-.5-.2-.7 0-.2.2-.2.5-.1.7.1.1.2.2.4.2.1-.1.2-.1.3-.2zM225.3 535.1c-.2-.2-.5-.2-.7 0-.1.1-.1.2-.1.4 0 .1 0 .3.1.4.1.1.2.2.4.2.1 0 .3-.1.4-.2.1-.1.1-.2.1-.4s-.1-.3-.2-.4zM247 543.3c-.2.1-.3.5-.2.7.1.1.3.2.4.2.1 0 .2 0 .3-.1.2-.1.3-.5.2-.7-.1-.2-.4-.2-.7-.1zM232.8 534.5c-.3 0-.5.2-.6.5 0 .3.2.5.5.5s.5-.2.5-.5c.1-.2-.1-.4-.4-.5zM243.9 538.9c-.2-.2-.5-.1-.7.1-.2.2-.1.5.1.7.1.1.2.1.3.1.1 0 .3-.1.4-.2.1-.2.1-.5-.1-.7zM236.7 535.3c-.3-.1-.6.1-.6.3-.1.3.1.6.4.6h.1c.2 0 .4-.1.5-.4.1-.2-.1-.5-.4-.5zM245.9 541.7c-.2.2-.3.5-.1.7.1.1.2.2.4.2.1 0 .2 0 .3-.1.2-.2.3-.5.1-.7-.1-.2-.5-.3-.7-.1zM234.8 534.8c-.3 0-.5.1-.6.4 0 .3.1.5.4.6h.1c.2 0 .5-.2.5-.4 0-.3-.1-.5-.4-.6zM242.2 537.7c-.2-.1-.5-.1-.7.1-.1.2-.1.6.1.7.1 0 .2.1.3.1.2 0 .3-.1.4-.2.2-.2.2-.6-.1-.7zM230.8 534.4c-.3 0-.5.2-.5.5s.2.5.5.5.5-.2.5-.5c0-.2-.2-.5-.5-.5zM244.6 540.2c-.2.2-.2.5 0 .7.1.1.2.2.4.2s.2 0 .4-.1c.2-.2.2-.5 0-.7-.3-.2-.6-.2-.8-.1zM240.5 536.7c-.2-.1-.6 0-.7.2-.1.2 0 .5.2.7.1 0 .1.1.2.1.2 0 .4-.1.4-.3.2-.3.1-.6-.1-.7zM228.8 534.5c-.3 0-.5.2-.5.5s.2.5.5.5.5-.2.5-.5-.2-.5-.5-.5zM238.7 535.9c-.3-.1-.6 0-.7.3-.1.3 0 .6.3.6h.2c.2 0 .4-.1.5-.3 0-.2-.1-.5-.3-.6zM226.8 534.6c-.3 0-.5.3-.4.6 0 .3.2.4.5.4h.1c.3 0 .5-.3.4-.6 0-.2-.3-.4-.6-.4zM247.9 545.1c-.1.1-.1.2-.1.4 0 .1.1.3.2.4.1.1.2.1.3.1.1 0 .3 0 .4-.1.1-.1.1-.2.1-.4 0-.1-.1-.3-.1-.4-.3-.2-.6-.2-.8 0zM267.6 546.3c-.2-.1-.5 0-.7.2-.1.2 0 .6.2.7.1 0 .2.1.2.1.2 0 .4-.1.4-.3.3-.2.2-.5-.1-.7zM252 544.1c-.3 0-.5.3-.4.6 0 .2.2.4.5.4h.1c.3 0 .5-.3.4-.6-.1-.2-.3-.4-.6-.4zM250 544.5c-.3.1-.5.3-.4.6 0 .2.3.4.5.4h.1c.3-.1.4-.3.4-.6s-.3-.5-.6-.4zM260 543.9c-.3 0-.5.2-.6.5 0 .3.2.5.5.6.3 0 .5-.2.5-.4.1-.4-.1-.6-.4-.7zM265.8 545.4c-.3-.1-.6 0-.7.3-.1.3 0 .6.3.7h.2c.2 0 .4-.1.5-.3.1-.3 0-.6-.3-.7zM269.3 547.4c-.2-.2-.5-.1-.7.1-.2.2-.1.5.1.7.1.1.2.1.3.1.2 0 .3-.1.4-.2.2-.2.2-.5-.1-.7zM263.9 544.7c-.3-.1-.5.1-.6.3-.1.3.1.6.3.6h.1c.2 0 .4-.1.5-.4.1-.1 0-.4-.3-.5zM271.5 550.2c-.2.2-.2.5-.1.7.1.1.2.2.4.2.1 0 .2 0 .3-.1.2-.2.2-.5.1-.7-.1-.3-.4-.3-.7-.1zM262 544.3c-.3-.1-.5.1-.6.4-.1.3.1.6.4.6h.1c.2 0 .4-.2.5-.4 0-.3-.2-.6-.4-.6zM270.9 548.8c-.2-.2-.5-.2-.7 0-.2.2-.2.5 0 .7.1.1.2.1.3.1.1 0 .3-.1.4-.2.2-.1.2-.5 0-.6zM256 543.8c-.3 0-.5.2-.5.5s.2.5.5.5.5-.2.5-.5-.2-.5-.5-.5zM258 543.8c-.3 0-.5.2-.5.5s.2.5.5.5.5-.2.5-.5-.2-.5-.5-.5zM254.5 544.4c0-.3-.3-.5-.6-.5s-.5.3-.5.6.2.5.5.5h.1c.4-.1.6-.4.5-.6zM272.7 551.8c-.1.1-.1.2-.1.4 0 .1 0 .3.1.4.1.1.2.1.4.1.1 0 .3-.1.4-.2.1-.1.1-.2.1-.3 0-.1 0-.3-.1-.4-.3-.2-.6-.2-.8 0zM282.7 549.9c-.3 0-.5.2-.5.5s.2.5.5.5.5-.2.5-.5-.2-.5-.5-.5zM290.7 550.9c-.3-.1-.6 0-.6.3-.1.3 0 .6.3.6h.2c.2 0 .4-.1.5-.3 0-.2-.1-.5-.4-.6zM284.7 549.9c-.3 0-.5.2-.5.5s.2.5.5.5.5-.2.5-.5-.2-.5-.5-.5zM292.6 551.7c-.2-.1-.6 0-.7.2-.1.2 0 .6.2.7.1 0 .2.1.2.1.2 0 .4-.1.5-.3.1-.3 0-.6-.2-.7zM288.7 550.3c-.3-.1-.5.1-.6.4-.1.3.1.6.4.6h.1c.2 0 .4-.2.5-.4.1-.3-.1-.5-.4-.6zM286.7 550c-.3 0-.5.2-.6.5 0 .3.2.5.5.6.3 0 .5-.2.5-.5.1-.3-.1-.6-.4-.6zM274.8 551.1c-.3.1-.4.4-.4.6.1.2.3.4.5.4h.1c.3-.1.4-.3.4-.6-.1-.3-.3-.4-.6-.4zM277.3 551.1c-.1-.3-.3-.5-.6-.4-.3.1-.4.3-.4.6 0 .2.3.4.5.4h.1c.3-.1.5-.4.4-.6zM280.7 550c-.3 0-.5.3-.4.6 0 .3.2.5.5.5s.5-.3.5-.5c-.1-.4-.3-.6-.6-.6zM278.7 550.3c-.3 0-.5.3-.4.6 0 .2.2.4.5.4h.1c.3 0 .5-.3.4-.6-.1-.3-.3-.4-.6-.4zM294.3 552.8c-.2-.2-.5-.1-.7.1-.2.2-.1.5.1.7.1.1.2.1.3.1.1 0 .3-.1.4-.2.2-.2.1-.5-.1-.7zM295.8 554.2c-.2-.2-.5-.2-.7 0-.2.2-.2.5 0 .7.1.1.2.2.4.2.1 0 .2 0 .3-.1.2-.3.2-.6 0-.8zM296.3 555.8c-.1.1-.1.2-.1.4s.1.3.1.4c.1.1.2.1.4.1s.3 0 .4-.1c.1-.1.2-.2.2-.4 0-.1-.1-.3-.2-.4-.3-.2-.6-.2-.8 0zM308 551.9c-.3 0-.5.2-.5.5s.2.5.5.5.5-.2.5-.5c0-.2-.2-.5-.5-.5zM311.9 553.3h.1c.2 0 .4-.1.5-.4.1-.3-.1-.6-.4-.6-.3-.1-.5.1-.6.4-.1.3.1.5.4.6zM300 553.9c-.3.1-.4.4-.3.7.1.2.3.3.5.3h.2c.3-.1.4-.4.3-.7-.1-.3-.4-.4-.7-.3zM303.9 552.6c-.3.1-.4.3-.4.6.1.2.3.4.5.4h.1c.3-.1.4-.3.4-.6s-.3-.5-.6-.4zM305.9 552.2c-.3 0-.5.3-.4.6 0 .2.2.4.5.4h.1c.3 0 .5-.3.4-.6 0-.3-.3-.5-.6-.4zM301.9 553.1c-.3.1-.4.4-.3.6.1.2.3.4.5.4h.2c.3-.1.4-.4.3-.6-.1-.3-.4-.4-.7-.4zM298.2 554.7c-.2.1-.4.4-.2.7.1.2.3.3.5.3.1 0 .2 0 .2-.1.2-.1.3-.4.2-.7-.2-.2-.5-.3-.7-.2zM315.4 554.8c.1.1.2.1.3.1.2 0 .3-.1.4-.2.2-.2.1-.5-.1-.7-.2-.2-.5-.1-.7.1-.2.3-.2.6.1.7zM313.7 553.9h.2c.2 0 .4-.1.5-.3.1-.3 0-.6-.3-.7-.3-.1-.6 0-.7.3-.1.3 0 .6.3.7zM310.1 552c-.3 0-.5.2-.6.5 0 .3.2.5.5.6.3 0 .5-.2.5-.5s-.2-.6-.4-.6zM317.2 556.2c.1 0 .3 0 .4-.1.2-.2.2-.5 0-.7-.2-.2-.5-.2-.7 0-.2.2-.2.5 0 .7.1 0 .2.1.3.1zM318.6 557.7c.1 0 .3-.1.4-.2.1-.1.1-.2.1-.4s0-.3-.1-.4c-.2-.2-.5-.2-.7 0-.1.1-.1.2-.1.4s.1.3.1.4c0 .1.1.2.3.2zM331.6 553.6c.3 0 .5-.2.5-.5s-.2-.5-.5-.5-.5.2-.5.5.2.5.5.5zM333.5 553.6c.3 0 .5-.2.5-.5s-.2-.5-.5-.5-.5.2-.5.5.2.5.5.5zM321.9 555c-.3.1-.4.4-.3.7.1.2.3.3.5.3h.2c.3-.1.4-.4.3-.7-.1-.3-.4-.4-.7-.3zM329.6 552.8c-.3 0-.5.3-.4.6 0 .2.2.4.5.4h.1c.3 0 .5-.3.4-.6-.1-.2-.4-.4-.6-.4zM338.9 555.1c.1.1.2.1.2.1.2 0 .3-.1.4-.3.1-.2 0-.6-.2-.7-.2-.1-.6-.1-.7.2 0 .3.1.6.3.7zM320.3 556.8h.2c.2-.1.4-.4.2-.7-.1-.2-.4-.4-.7-.2-.2.1-.4.4-.2.7.1.1.3.2.5.2zM340.4 555.5c-.2.2-.1.5.1.7.1.1.2.1.3.1.1 0 .3-.1.4-.2.2-.2.1-.5-.1-.7-.2-.2-.5-.1-.7.1zM327.6 553.2c-.3.1-.4.3-.4.6 0 .2.3.4.5.4h.1c.3-.1.4-.3.4-.6-.1-.3-.3-.5-.6-.4zM323.5 554.9c.1.2.3.3.5.3h.2c.3-.1.4-.4.3-.7-.1-.3-.4-.4-.7-.3-.3.2-.4.5-.3.7zM325.9 554.6c.3-.1.4-.4.3-.6-.1-.3-.4-.4-.6-.4s-.4.4-.3.6c.1.2.3.4.5.4 0 .1.1.1.1 0zM337.2 554.4h.2c.2 0 .4-.1.5-.3.1-.3 0-.6-.3-.6-.3-.1-.6 0-.6.3-.2.2-.1.5.2.6zM335.4 553.9c.3 0 .5-.2.6-.4.1-.3-.1-.5-.4-.6-.3 0-.5.1-.6.4-.1.3.1.5.4.6zM341.8 556.8c-.1.1-.1.2-.1.4 0 .1 0 .3.1.4.1.1.2.2.4.2s.3-.1.4-.2c.1-.1.1-.2.1-.4 0-.1-.1-.3-.2-.4-.2-.2-.5-.2-.7 0zM358.3 550.6c0-.3-.2-.5-.5-.5s-.5.2-.5.5.2.5.5.5.5-.2.5-.5zM356 551.2c.3 0 .5-.3.4-.6 0-.3-.3-.5-.6-.4-.3 0-.5.3-.4.6 0 .2.2.4.6.4-.1 0-.1 0 0 0zM345.6 554.5c-.2-.2-.5-.3-.7-.1-.2.2-.3.5-.1.7.1.1.3.2.4.2.1 0 .2 0 .3-.1.2-.1.3-.4.1-.7zM354 551.5h.1c.3-.1.5-.3.4-.6-.1-.3-.3-.5-.6-.4-.3.1-.5.3-.4.6.1.3.3.4.5.4zM352.6 551.4c-.1-.3-.4-.4-.6-.3-.3.1-.4.4-.3.6.1.2.3.4.5.4h.1c.3-.2.4-.5.3-.7zM361.5 551.5h.1c.2 0 .5-.2.5-.4.1-.3-.1-.5-.4-.6-.3-.1-.5.1-.6.4 0 .3.2.5.4.6zM350.3 552.6h.2c.3-.1.4-.4.3-.7-.1-.3-.4-.4-.7-.3-.3.1-.4.4-.3.7.1.2.3.3.5.3zM359.7 551.2c.3 0 .5-.2.6-.5 0-.3-.2-.5-.5-.6-.3 0-.5.2-.5.5-.1.3.1.6.4.6zM343.3 555.5c-.2.2-.3.5-.1.7.1.1.2.2.4.2.1 0 .2 0 .3-.1.2-.2.3-.5.1-.7-.1-.2-.4-.2-.7-.1zM346.6 553.4c-.2.1-.3.5-.2.7.1.2.3.3.4.3.1 0 .2 0 .3-.1.2-.1.3-.5.2-.7-.1-.3-.5-.4-.7-.2zM364 551.6c.1-.3 0-.6-.3-.6s-.5.1-.6.3c-.1.3.1.5.3.6h.1c.2.1.4 0 .5-.3zM348.6 553.4c.1 0 .1 0 .2-.1.2-.1.4-.4.2-.7-.1-.2-.4-.4-.7-.2-.2.1-.4.4-.2.7.1.2.3.3.5.3zM365.8 552.2c0-.1-.1-.3-.1-.4-.2-.2-.5-.2-.7 0-.1.1-.1.2-.1.4 0 .1.1.3.1.3.1.1.2.2.4.2.1 0 .3-.1.4-.1v-.4zM385.7 542.8c-.3-.1-.6 0-.7.2-.1.2 0 .6.2.7h.2c.2 0 .4-.1.5-.3.2-.2.1-.5-.2-.6zM372.8 544.9c-.1-.2-.5-.3-.7-.1s-.3.5-.1.7c.1.1.2.2.4.2.1 0 .2 0 .3-.1.2-.1.3-.4.1-.7zM366.9 550.9c.2-.2.2-.5-.1-.7-.2-.2-.5-.2-.7.1-.2.2-.2.5.1.7.1.1.2.1.3.1.2 0 .3 0 .4-.2zM368.2 548.8c-.2-.2-.5-.2-.7 0-.2.2-.2.5 0 .7.1.1.2.1.3.1.1 0 .3 0 .4-.1.2-.2.2-.6 0-.7zM369.7 547.4c-.2-.2-.5-.2-.7 0-.2.2-.2.5 0 .7.1.1.2.2.4.2.1 0 .2 0 .3-.1.1-.3.1-.6 0-.8zM371.2 546.1c-.2-.2-.5-.2-.7-.1-.2.2-.2.5-.1.7.1.1.2.2.4.2.1 0 .2 0 .3-.1.2-.2.3-.5.1-.7zM382.2 542.3c0-.3-.2-.5-.5-.5s-.5.2-.5.5.2.5.5.5c.2 0 .5-.2.5-.5zM374.5 543.9c-.1-.2-.5-.3-.7-.2-.2.1-.3.5-.2.7.1.2.3.3.5.3.1 0 .2 0 .2-.1.3-.1.4-.4.2-.7zM384.1 542.7c.1-.3-.1-.6-.4-.6-.3-.1-.6.1-.6.4-.1.3.1.5.4.6h.1c.3 0 .5-.1.5-.4zM378.2 542.5c-.1-.3-.3-.4-.6-.4-.3.1-.4.3-.4.6.1.2.3.4.5.4h.1c.3 0 .5-.3.4-.6zM380.2 542.3c0-.3-.3-.5-.5-.5-.3 0-.5.3-.5.6s.2.5.5.5h.1c.2-.1.4-.4.4-.6zM375.4 543.5c.1.2.3.3.5.3h.2c.3-.1.4-.4.3-.7-.1-.3-.4-.4-.7-.3-.3.1-.4.4-.3.7zM387.8 544.2c0-.1-.1-.3-.1-.4-.2-.2-.5-.2-.7 0-.1.1-.2.2-.2.4 0 .1.1.3.2.4.1.1.2.1.4.1.1 0 .3-.1.4-.2-.1 0 0-.1 0-.3zM387.7 542.2c-.1.2-.1.6.2.7.1.1.2.1.3.1.2 0 .3-.1.4-.3.1-.2 0-.5-.2-.7-.2-.1-.5 0-.7.2zM390.8 538.8c-.2-.2-.5-.2-.7 0-.2.2-.2.5.1.7.1.1.2.1.3.1.1 0 .3-.1.4-.2.2-.1.1-.4-.1-.6zM388.8 540.5c-.2.2-.1.5.1.7.1.1.2.1.3.1.2 0 .3-.1.4-.2.2-.2.1-.5-.1-.7-.2-.2-.5-.2-.7.1zM393.9 536.3c-.2-.2-.5-.3-.7-.2-.2.1-.3.5-.2.7.1.1.3.2.4.2.1 0 .2 0 .3-.1.3 0 .4-.3.2-.6zM395.7 535.5c-.1-.3-.4-.4-.7-.3-.3.1-.4.4-.3.7.1.2.3.3.5.3h.2c.3-.2.4-.4.3-.7zM397.1 534.6c-.3 0-.5.3-.4.6 0 .2.2.4.5.4h.1c.3 0 .5-.3.4-.6-.1-.2-.3-.4-.6-.4zM392.3 537.5c-.2-.2-.5-.2-.7 0-.2.2-.2.5 0 .7.1.1.2.2.4.2.1 0 .2 0 .3-.1.1-.3.2-.6 0-.8zM399.2 535.5c.1 0 .3-.1.4-.1.1-.1.1-.2.1-.4s-.1-.3-.1-.4c-.2-.2-.5-.2-.7 0-.1.1-.1.2-.1.4 0 .1 0 .3.1.4 0 .1.2.1.3.1zM212.9 526.2c-.1.1-.2.2-.2.4 0 .1.1.3.2.4.1.1.2.1.4.1.1 0 .3 0 .4-.1.1-.1.2-.2.2-.4 0-.1-.1-.3-.2-.4-.3-.2-.6-.2-.8 0zM223.5 536.3c-.1-.2-.4-.3-.7-.2-.2.1-.3.5-.2.7.1.2.3.3.5.3.1 0 .2 0 .2-.1.2-.2.3-.5.2-.7zM221.7 534.3c-.2.1-.3.5-.2.7.1.2.3.2.4.2.1 0 .2 0 .3-.1.2-.2.3-.5.2-.7-.1-.2-.4-.2-.7-.1zM219.3 531.1c-.2.2-.2.5-.1.7.1.1.2.2.4.2.1 0 .2 0 .3-.1.2-.2.2-.5.1-.7-.2-.3-.5-.3-.7-.1zM221.3 532.8c-.2-.2-.5-.3-.7-.1-.2.2-.3.5-.1.7.1.1.2.2.4.2.1 0 .2 0 .3-.1.2-.2.2-.5.1-.7zM216.3 528.3c-.2.2-.1.5.1.7.1.1.2.1.3.1.1 0 .3-.1.4-.2.2-.2.1-.5-.1-.7-.2-.1-.6-.1-.7.1zM215.3 527.1c-.2-.1-.6-.1-.7.2-.1.2-.1.6.2.7.1.1.2.1.3.1.2 0 .3-.1.4-.2.1-.4 0-.7-.2-.8zM217.8 529.6c-.2.2-.2.5 0 .7.1.1.2.1.4.1.1 0 .3-.1.4-.2.2-.2.2-.5 0-.7-.2-.1-.6-.1-.8.1zM223.6 538c-.1.1-.1.2-.1.4 0 .1.1.3.1.4.1.1.2.1.4.1.1 0 .3 0 .4-.1.1-.1.1-.2.1-.4 0-.1 0-.3-.1-.4-.3-.2-.6-.2-.8 0zM242.3 541.8c-.2.2-.1.5.1.7.1.1.2.1.3.1.1 0 .3-.1.4-.2.2-.2.1-.5-.1-.7-.2-.1-.5-.1-.7.1zM237.7 538.7c-.3-.1-.6 0-.7.3-.1.3 0 .6.3.7h.2c.2 0 .4-.1.5-.3.1-.3 0-.6-.3-.7zM239.6 539.5c-.2-.1-.6 0-.7.2-.1.3 0 .6.2.7h.2c.2 0 .4-.1.5-.3.2-.1.1-.4-.2-.6zM241.4 540.6c-.2-.1-.6-.1-.7.1-.1.2-.1.6.2.7.1.1.2.1.3.1.2 0 .3-.1.4-.2.1-.3 0-.6-.2-.7zM247 546.4c-.1-.2-.5-.3-.7-.2-.2.1-.3.5-.2.7.1.2.3.2.4.2.1 0 .2 0 .3-.1.2-.1.3-.4.2-.6zM243.8 543.1c-.2.2-.2.5 0 .7.1.1.2.1.4.1.1 0 .3 0 .4-.1.2-.2.2-.5 0-.7-.3-.2-.6-.2-.8 0zM245.1 544.6c-.2.2-.3.5-.1.7.1.1.2.2.4.2.1 0 .2 0 .3-.1.2-.2.3-.5.1-.7-.1-.2-.5-.3-.7-.1zM231.8 537.4c-.3 0-.5.2-.6.5 0 .3.2.5.5.6.3 0 .5-.2.5-.5.1-.3-.1-.5-.4-.6zM233.8 537.7c-.3 0-.6.1-.6.4 0 .3.1.5.4.6h.1c.2 0 .5-.2.5-.4.1-.3-.1-.6-.4-.6zM229.8 537.3c-.3 0-.5.2-.5.5s.2.5.5.5.5-.2.5-.5c0-.2-.2-.5-.5-.5zM229.8 537.3zM225.8 537.5c-.3 0-.5.3-.4.6 0 .3.2.4.5.4h.1c.3 0 .5-.3.5-.6-.2-.2-.4-.4-.7-.4zM227.8 537.4c-.3 0-.5.2-.5.5s.2.5.5.5.5-.2.5-.5-.2-.6-.5-.5zM235.8 538.1c-.3-.1-.5.1-.6.4-.1.3.1.5.4.6h.1c.2 0 .4-.1.5-.4 0-.2-.1-.5-.4-.6zM247.1 548c-.1.1-.2.2-.2.4 0 .1.1.3.2.4.1.1.2.1.4.1s.3-.1.4-.1c.1-.1.1-.2.1-.4 0-.1 0-.3-.1-.4-.3-.2-.6-.2-.8 0zM261.3 547.1c-.3-.1-.5.1-.6.4-.1.3.1.5.4.6h.1c.2 0 .5-.2.5-.4.1-.2-.1-.5-.4-.6zM269.6 551.7c-.2.2-.2.5 0 .7.1.1.2.1.3.1.1 0 .3 0 .4-.2.2-.2.2-.5 0-.7-.1-.2-.5-.2-.7.1zM271 553.1c-.2.2-.2.5-.1.7.1.1.2.2.4.2.1 0 .2 0 .3-.1.2-.2.2-.5.1-.7-.1-.3-.4-.3-.7-.1zM259.3 546.8c-.3 0-.5.2-.6.4 0 .3.2.5.4.6h.1c.3 0 .5-.2.5-.5.1-.2-.1-.4-.4-.5zM265.2 548.3c-.3-.1-.6 0-.7.3-.1.3 0 .6.3.7h.2c.2 0 .4-.1.5-.3.1-.3 0-.6-.3-.7zM268.1 550.4c-.2.2-.1.5.1.7.1.1.2.1.3.1.2 0 .3-.1.4-.2.2-.2.1-.5-.1-.7-.2-.1-.6-.1-.7.1zM267.1 549.2c-.2-.1-.6-.1-.7.2-.1.2-.1.6.2.7.1 0 .2.1.2.1.2 0 .4-.1.4-.3.2-.2.1-.5-.1-.7zM263.3 547.6c-.3-.1-.6.1-.6.4-.1.3.1.5.3.6h.1c.2 0 .4-.1.5-.4.1-.2 0-.5-.3-.6zM257.3 546.7c-.3 0-.5.2-.5.5s.2.5.5.5.5-.2.5-.5-.2-.5-.5-.5zM251.3 547c-.3 0-.5.3-.4.6 0 .2.3.4.5.4h.1c.3 0 .5-.3.4-.6-.1-.2-.3-.4-.6-.4zM249.3 547.4c-.3.1-.4.3-.4.6 0 .2.3.4.5.4h.1c.3-.1.5-.3.4-.6-.1-.3-.3-.5-.6-.4zM255.3 546.7c-.3 0-.5.2-.5.5s.2.5.5.5.5-.2.5-.5-.2-.5-.5-.5zM253.3 546.8c-.3 0-.5.3-.5.6s.2.5.5.5.5-.3.5-.5c0-.4-.2-.6-.5-.6zM272.2 554.7c-.1.1-.1.2-.1.4 0 .1.1.3.1.4.1.1.2.1.4.1.1 0 .3-.1.4-.1.1-.1.1-.2.1-.4 0-.1-.1-.3-.1-.4-.3-.2-.6-.2-.8 0zM284.4 552.7c-.3 0-.5.2-.5.5s.2.5.5.5.5-.2.5-.5c0-.2-.3-.4-.5-.5zM294.9 557.1c-.2.2-.2.5 0 .7.1.1.2.2.4.2.1 0 .2 0 .4-.1.2-.2.2-.5 0-.7s-.6-.3-.8-.1zM293.3 555.8c-.2.2-.1.5.1.7.1.1.2.1.3.1.2 0 .3-.1.4-.2.2-.2.1-.5-.1-.7-.2-.2-.5-.2-.7.1zM288.4 553.2c-.3-.1-.5.1-.6.4-.1.3.1.5.4.6h.1c.2 0 .4-.2.5-.4.1-.3-.1-.5-.4-.6zM290.4 553.8c-.3-.1-.6 0-.6.3s0 .6.3.7h.2c.2 0 .4-.1.5-.4 0-.3-.1-.6-.4-.6zM292.3 554.6c-.3-.1-.6 0-.7.2-.1.2 0 .6.2.7.1 0 .2.1.2.1.2 0 .4-.1.5-.3.1-.3 0-.6-.2-.7zM286.4 552.9c-.3 0-.5.2-.6.4 0 .3.2.5.4.6h.1c.3 0 .5-.2.5-.5.1-.2-.1-.5-.4-.5zM276.3 553.6c-.3 0-.5.3-.4.6 0 .2.3.4.5.4h.1c.3-.1.4-.3.4-.6-.1-.3-.3-.5-.6-.4zM282.3 552.8c-.3 0-.5.2-.5.5s.2.5.5.5.5-.2.5-.5-.2-.5-.5-.5zM278.3 553.2c-.3 0-.5.3-.4.6 0 .3.3.4.5.4h.1c.3-.1.5-.3.4-.6-.1-.3-.3-.5-.6-.4zM274.3 554c-.3.1-.4.4-.4.6.1.2.3.4.5.4h.1c.3-.1.4-.4.4-.6 0-.3-.3-.5-.6-.4zM280.3 552.9c-.3 0-.5.3-.4.6 0 .3.2.4.5.4h.1c.3 0 .5-.3.4-.6-.1-.2-.3-.4-.6-.4zM296.1 558.7c-.1.1-.1.2-.1.4 0 .1 0 .3.1.4s.2.1.4.1c.1 0 .3 0 .4-.1s.1-.2.1-.4c0-.1 0-.3-.1-.4-.3-.2-.6-.2-.8 0zM315.9 556.9c-.2-.2-.5-.1-.7.1-.2.2-.1.5.2.7.1.1.2.1.3.1.2 0 .3-.1.4-.2.1-.2.1-.6-.2-.7zM305.8 555c-.3 0-.5.3-.4.6 0 .2.3.4.5.4h.1c.3 0 .5-.3.4-.6 0-.2-.3-.4-.6-.4zM314.1 555.9c-.2-.1-.6 0-.7.3-.1.3 0 .6.3.7.1 0 .1.1.2.1.2 0 .4-.1.5-.3.1-.4-.1-.7-.3-.8zM307.9 554.8c-.3 0-.5.2-.5.5s.2.5.5.5.5-.2.5-.5-.2-.5-.5-.5zM310 554.9c-.3 0-.5.2-.6.5 0 .3.2.5.5.5s.5-.2.5-.5c.1-.2-.1-.5-.4-.5zM312.1 555.2c-.3-.1-.6.1-.6.4-.1.3.1.6.4.6h.1c.2 0 .4-.2.5-.4 0-.2-.2-.5-.4-.6zM303.8 555.5c-.3.1-.4.3-.4.6.1.2.3.4.5.4h.1c.3-.1.4-.4.4-.6-.1-.3-.3-.5-.6-.4zM298 557.6c-.3.1-.4.4-.2.7.1.2.3.3.5.3.1 0 .2 0 .2-.1.2-.1.4-.4.2-.7-.2-.2-.5-.3-.7-.2zM317.3 559.1c.1 0 .3-.1.4-.2.2-.2.2-.5 0-.7-.2-.2-.5-.2-.7 0-.2.2-.2.5 0 .7 0 .1.1.2.3.2zM301.8 556c-.3.1-.4.4-.3.6.1.2.3.3.5.3h.2c.3-.1.4-.4.3-.7-.1-.1-.4-.3-.7-.2zM299.9 556.8c-.3.1-.4.4-.3.7.1.2.3.3.5.3h.2c.3-.1.4-.4.3-.7-.2-.3-.5-.5-.7-.3zM318.3 559.7c-.1.1-.1.2-.1.4 0 .1.1.3.1.4.1.1.2.1.4.1.1 0 .3 0 .4-.1.1-.1.1-.2.1-.4 0-.1-.1-.3-.1-.4-.3-.2-.6-.2-.8 0zM331.8 555.5c-.3 0-.5.2-.5.5s.2.5.5.5.5-.2.5-.5-.3-.5-.5-.5zM333.8 555.5c-.3 0-.5.2-.5.5s.2.5.5.5.5-.2.5-.5c0-.2-.2-.5-.5-.5zM329.7 555.7c-.3 0-.5.3-.4.6 0 .2.3.4.5.4h.1c.3 0 .5-.3.4-.6 0-.2-.3-.4-.6-.4zM322.4 558.8c.3-.1.4-.4.3-.7-.1-.3-.4-.4-.7-.3-.3.1-.4.4-.3.7.1.2.3.3.5.3.1.1.1.1.2 0zM320.2 558.7c-.2.1-.4.4-.2.7.1.2.3.3.5.3h.2c.2-.1.4-.4.2-.7-.2-.3-.5-.4-.7-.3zM339.9 557.8c.1-.2 0-.5-.2-.7-.2-.1-.6 0-.7.2-.1.2 0 .5.2.7.1 0 .2.1.2.1.2 0 .4-.1.5-.3zM327.7 556.1c-.3.1-.5.3-.4.6.1.2.3.4.5.4h.1c.3-.1.5-.3.4-.6 0-.3-.3-.5-.6-.4zM336.2 556.4c0-.3-.1-.6-.4-.6-.3-.1-.5.1-.6.4 0 .3.1.6.4.6h.1c.3 0 .5-.2.5-.4zM337.1 556.6c-.1.3 0 .6.3.7h.2c.2 0 .4-.1.5-.3.1-.3-.1-.6-.3-.7-.3-.1-.6 0-.7.3zM324.1 558.2h.2c.3-.1.4-.4.3-.6-.1-.3-.4-.4-.7-.3-.3.1-.4.4-.3.6 0 .1.2.3.5.3zM341.5 559c.2-.2.1-.5-.1-.7-.2-.2-.5-.1-.7.1-.2.2-.1.5.1.7.1.1.2.1.3.1.1 0 .3-.1.4-.2zM325.9 557.6h.1c.3-.1.4-.4.4-.6-.1-.3-.4-.4-.6-.4s-.4.4-.4.6c.1.2.3.4.5.4zM342.9 560.4c.1-.1.1-.2.1-.4 0-.1-.1-.3-.1-.4-.2-.2-.5-.2-.7 0-.1.1-.1.2-.1.4 0 .1.1.3.1.4.1.1.2.1.4.1 0 .1.2 0 .3-.1zM358.3 553c-.3 0-.5.2-.5.5s.2.5.5.5.5-.2.5-.5-.2-.5-.5-.5zM356.3 553.1c-.3 0-.5.3-.5.6s.2.5.5.5.5-.3.5-.6c.1-.3-.2-.5-.5-.5zM345.3 557.3c-.2.2-.3.5-.1.7.1.1.3.2.4.2.1 0 .2 0 .3-.1.2-.2.3-.5.1-.7-.1-.2-.5-.3-.7-.1zM354.4 553.4c-.3.1-.5.3-.4.6.1.2.3.4.5.4h.1c.3-.1.5-.3.4-.6-.1-.3-.3-.4-.6-.4zM344.3 559.2c.2-.2.3-.5.1-.7-.2-.2-.5-.3-.7-.1-.2.2-.3.5-.1.7.1.1.3.2.4.2.1.1.2 0 .3-.1zM348.8 555.3c-.2.1-.4.4-.2.7.1.2.3.3.5.3h.2c.2-.1.4-.4.2-.7-.2-.3-.5-.4-.7-.3zM350.6 554.6c-.3.1-.4.4-.3.7.1.2.3.3.5.3h.2c.3-.1.4-.4.3-.7-.2-.3-.5-.5-.7-.3zM352.6 554.9h.1c.3-.1.4-.4.3-.6s-.4-.4-.6-.3-.4.4-.4.6c.2.2.4.3.6.3zM347 556.3c-.2.1-.3.4-.2.7.1.2.3.3.4.3.1 0 .2 0 .2-.1.2-.1.3-.4.2-.7 0-.3-.4-.4-.6-.2zM362.2 554.4c.2 0 .5-.2.5-.4.1-.3-.1-.5-.4-.6-.3-.1-.5.1-.6.4-.1.3.1.5.4.6h.1zM360.2 554.1c.1 0 .1 0 0 0 .3 0 .5-.2.6-.5 0-.3-.2-.5-.5-.6-.3 0-.5.2-.6.5 0 .3.3.6.5.6zM364.2 553.9c-.3-.1-.5.1-.6.3-.1.3.1.6.3.6h.2c.2 0 .4-.1.5-.4.1-.1-.1-.4-.4-.5zM365.5 554.7c-.1.1-.1.2-.1.4 0 .1 0 .3.1.4.1.1.2.1.4.1s.3-.1.4-.1c.1-.1.2-.2.2-.4 0-.1-.1-.3-.2-.4-.2-.2-.6-.2-.8 0zM386.6 545.7c-.3-.1-.6 0-.7.3-.1.3 0 .6.3.7h.2c.2 0 .4-.1.5-.3 0-.3-.1-.6-.3-.7zM378.4 545.1c-.3.1-.4.4-.4.6.1.2.3.4.5.4h.1c.3-.1.4-.3.4-.6-.1-.4-.4-.5-.6-.4zM376.4 545.7c-.3.1-.4.4-.3.7.1.2.3.3.5.3h.2c.3-.1.4-.4.3-.7-.1-.3-.4-.4-.7-.3zM368.1 551.7c-.2.2-.2.5 0 .7.1.1.2.1.3.1.1 0 .3 0 .4-.2.2-.2.2-.5 0-.7-.1-.2-.5-.2-.7.1zM369.6 550.2c-.2.2-.2.5 0 .7.1.1.2.2.4.2.1 0 .2-.1.3-.1.2-.2.2-.5 0-.7-.2-.3-.5-.3-.7-.1zM374.5 546.6c-.2.1-.3.4-.2.7.1.2.3.3.4.3.1 0 .2 0 .2-.1.2-.1.3-.5.2-.7 0-.2-.3-.3-.6-.2zM371.1 548.9c-.2.2-.3.5-.1.7.1.1.2.2.4.2.1 0 .2 0 .3-.1.2-.2.2-.5.1-.7-.1-.2-.4-.3-.7-.1zM372.8 547.7c-.2.2-.3.5-.1.7.1.1.3.2.4.2.1 0 .2 0 .3-.1.2-.2.3-.5.1-.7-.2-.2-.5-.3-.7-.1zM382.5 544.7c-.3 0-.5.2-.6.5 0 .3.2.5.5.5s.5-.2.5-.5c.1-.3-.1-.5-.4-.5zM384.6 545c-.3-.1-.6.1-.6.4-.1.3.1.6.4.6h.1c.2 0 .4-.2.5-.4 0-.2-.1-.5-.4-.6zM366.8 553.2c-.2.2-.1.5.1.7.1.1.2.1.3.1.1 0 .3-.1.4-.2.2-.2.2-.5-.1-.7-.2-.2-.6-.2-.7.1zM380.4 544.7c-.3 0-.5.3-.5.6s.2.5.5.5.5-.3.5-.6c.1-.3-.2-.5-.5-.5zM387.8 546.8c-.1.1-.1.2-.1.4 0 .1.1.3.1.4.1.1.2.1.4.1.1 0 .3-.1.4-.1.1-.1.1-.2.1-.4 0-.1 0-.3-.1-.4-.3-.2-.6-.2-.8 0zM397.7 538.1c0 .2.3.4.5.4h.1c.3 0 .5-.3.4-.6-.1-.3-.3-.5-.6-.4-.3.1-.5.3-.4.6zM396 538.1c-.3.1-.4.4-.3.7.1.2.3.3.5.3h.2c.3-.1.4-.4.3-.7-.1-.3-.4-.4-.7-.3zM394.2 539c-.2.1-.3.5-.2.7.1.1.3.2.4.2.1 0 .2 0 .3-.1.2-.1.3-.5.2-.7-.2-.1-.5-.2-.7-.1zM392.5 540.3c-.2.2-.2.5-.1.7.1.1.2.2.4.2.1 0 .2 0 .3-.1.2-.2.2-.5 0-.7-.1-.3-.4-.3-.6-.1zM389.7 543.4c-.2.2-.1.6.1.7.1.1.2.1.3.1.2 0 .3-.1.4-.2.2-.2.1-.5-.1-.7-.2-.2-.5-.2-.7.1zM389.3 544.9c-.2-.1-.6-.1-.7.2-.1.2-.1.6.2.7.1 0 .2.1.2.1.2 0 .4-.1.4-.3.2-.2.1-.6-.1-.7zM391 541.7c-.2.2-.2.5 0 .7.1.1.2.1.3.1.1 0 .3-.1.4-.2.2-.2.2-.5 0-.7-.2-.1-.5-.1-.7.1zM399.8 538.3c.1.1.2.1.4.1.1 0 .3 0 .4-.1.1-.1.1-.2.1-.4 0-.1-.1-.3-.1-.4-.2-.2-.5-.2-.7 0-.1.1-.1.2-.1.4-.1.2-.1.3 0 .4z"/><g fill="#08090A"><path d="M339.9 195c13.3-10.4 20-20.7 20.4-31.2.4-10.7-5.7-21.2-18.2-31.2-5.8-4.6-6.3-6.1-6.4-6.3.1-.5 1.2-2.2 2-3.5 1.4-2.1 3-4.7 4.6-8.3 5.3-11.8.1-26.5-14.4-40.1-8.6-8.1-18.6-12.8-29.3-13.8.7-1.9 1.1-4 .8-6.1-1.4-12.5-13.1-21.7-24.9-25.3-2.4-.7-4.8-1.2-7-1.5-14.9-1.6-34.8 3.7-37.4 21.2-.4 2.9-.5 5.6-.3 7.9.6 12.5-8.7 20.5-22 17.2-7-2.3-11.2-5.2-11.3-5.2-4.6-3.3-13.2-9.4-22.9-9.4-4.3 0-8.3 1.2-11.8 3.5-2.8 1.9-4.4 4.3-5.4 6.4-.2-.1-.5-.1-.7-.2l-.3-.1c-4.5-1.2-10-2.6-15.5-2.6-11.1 0-19 6.2-21.3 16.8-.7-.1-1.4-.2-2.2-.3-2.2-.4-4.8-.8-7.6-.8-3.5 0-6.7.6-9.8 1.9-10.5 4.4-11.7 11.1-11.1 16.4-.4 0-.8-.1-1.2-.1-1.1-.1-2.3-.2-3.4-.2h-1.4c-5.3 0-9.9.8-13.6 2.4-6.8 2.9-11 8.4-11.8 15.4-.3 2.6-.1 4.9.2 6.8l-2.1.6c-9.3 2.6-24.8 6.9-28.5 21.6-1.5 5.9.3 10.3 1.4 13 .3.7.6 1.4.6 1.8v.2c-.3.2-.7.5-1 .7-.5.3-1.1.7-1.7 1.1-4.6 3.1-13.2 8.8-13.4 19.4-.1 5.2 2.1 8.7 3.7 10.9-.2.1-.4.3-.6.4-8.3 5.8-13.2 12.9-14.5 21.1-1.8 11.8 5.3 16.4 8.9 18.3l-.9 1.2c-1.3 1.7-2.7 3.6-3.8 6-3.7 8-6 23.1 2.5 31.8 1.8 1.9 4 3.3 6.3 4.3 3.2-6.8 6.6-12.7 9.7-17.6 5.9-9.5 10.6-15 10.6-15s-1.1 6.7 10.7 14.7c.4.3.9.6 1.3.9 2.9 2.1 4.8 4.4 6 6.6 5.4 9.7-2.6 19.2-2.6 19.2 7-1 13.7 0 13.7 0 17.9-3.3 31.9-5.4 42.8-6.7 22-2.7 31.8-2.5 37.2-3.6 2-.4 5.2-1.8 8.8-3.7 4.2-2.2 9-5 13.2-7.6l.5-.5c.2-.1.4-.2.6-.2-.4.2-.7.5-1.1.7.5-.3.9-.6 1.4-.8 2.3-1 4.4-2.3 6.3-3.8 4.1-3.3 7.1-7.8 7.8-12.8 1.3-9.4-7.7-15.2-1.6-24.6 2.6-4 6.4-7.2 4.6-12.1-1.7-4.8-5-5.1-4.5-11 .6-7.6 8.7-11.9 6.5-19.4-.9-3.3-3.4-5.6-1.8-9.5.5-1.3 1.6-2.6 2.8-3.6 8-1.3 19-.7 26.4 9.3 2.6 3.5 4.8 8.2 6.3 14.3 0 0 6.4 10.2 14.4 14.1l-9.2 6.9s.7 3.1 6.1 7.4c0 0-1.4 3.1-6 5.6l5.2 1.4s-2.4 2.2 1.3 9.1c0 0 1.6 5.4-2.9 8.3 2.1-.1 4.5-.5 7.3-1.3 3.2-1 6.8-2.5 10.9-4.6 17-9 7.4-33.2 2.8-39.2-3-3.8-13.7-12-7.5-17.6 5.7-5.1 11.9 4.7 16.1 6.8 19.7 10.2 18-17.4 10-29.9-5.2-8.2-5.6-27.2 6.7-31.1 9.4 2.6 19.2 7.5 25.6 17 1.9 2.8 3.5 6 4.8 9.7 0 0 3.1 6.2 8.9 8.9 6.7 3.2 2.6 5.9 2.6 5.9l-4.8 4.5s-1.5 2.8 5.5 5.6c0 0-1.5 5.1-6.2 6l6.9.6s-.5 1.3.5 4.2c.5 1.3 1.2 2.8 2.4 4.7 0 0 2.3 7.9-8.6 9.6-4.8.8-12.7 3.6-19.3 7.4-3 1.7-5.6 3.6-7.7 5.6 0 .5.1 1 .1 1.5.3.5.6 1.1.8 1.5 2.1 3.8 3.8 7.1 5.6 9 25 28.4 44.1 27.9 53.3 25.1 5.9-1.8 10.4-6 12.4-11.6 1.9-5.4 1.1-11.4-2.2-16.5-4.1-6.2-10.3-7.3-14.8-8-3.9-.7-6.1-1.1-7.5-3.2-3.3-5-2.9-8.7 7.2-18.7zM41.1 340.2c0 .1-.1.3-.1.4-.5 2.2-1 4.6-1.2 7.1-1.1 13.1 10.7 15.1 19.9 8.4-.3 5 1.4 9 4.8 11.4 1.8 1.3 4 2.1 6.8 2.4 8.6.9 15.6-6.2 21.1-11.8 1.7 8.1 17 6 22.6 4.1 6.8-2.3 11.6-7.5 15.4-13.5 1.2-1.9 2.3-3.9 3.3-5.9 1.1-2.1 1.8-4.4 2.5-6.7 0-.1.1-.2.1-.3-1.1.2-2.1.4-3.2.6-40.1 7.1-70.4 6.7-92 3.8z"/></g><path d="M294.2 155.5l-1.1-1.5-.5 1.8c-.4 1.4-1.9 2.5-3.4 2.5-.3 0-.6-.1-.9-.2-.1 0-.2-.1-.3-.1-.3-.1-.7-.3-1.1-.3-.8-.1-1.7.3-2 1-.4.7-.2 1.6.5 2.4 1.1 1.4 2.9 2.2 4.7 2.2.9 0 1.8-.2 2.5-.6 1.2-.7 2.1-1.9 2.4-3.4.2-1.4-.1-2.8-.8-3.8zM277.9 154.3c0-1.9.6-3.8 1.5-5.5 1-1.7 2.5-3.1 4.3-3.8.5-.2 1-.3 1.6-.4 2.3-.3 4.7 0 6.8 1.1.3.2.7-.3.6-.7-.1-.4-.5-.6-.8-.7-.9-.4-2-.5-3-.7-2.3-.3-4.7-.5-6.7.5-1.6.8-2.8 2.3-3.5 4s-1 3.5-1.2 5.3c-.2.5 0 1 .4.9zM194.3 199.4c.2-2 1-4 2.2-5.6 1.2-1.7 3-3.1 5.1-3.6l1.8-.3c2.5-.2 5.1.5 7.3 1.8.3.2.8-.2.7-.6s-.5-.6-.8-.8c-1-.5-2.1-.8-3.2-1-2.4-.5-5.1-1-7.4-.1-1.9.7-3.3 2.2-4.3 3.9-1 1.7-1.5 3.6-1.8 5.4-.1.3 0 .9.4.9zM205.2 198.1c-3.3 1.2-5.1 3.6-4.4 5.2.2.4.5.8 1.3.7.7 0 1.3-.4 1.7-.7.4-.4.4-1.4.7-1.1 3.5 2.9 5.7-3.7 9.1-3.6-.7-1.5-5.1-1.8-8.4-.5z"/></svg>