<svg xmlns="http://www.w3.org/2000/svg" viewBox="43 0 130 216"><path d="M138 .4h-.1.1zM138.3.2c-.1.1-.2.1-.2.2 0-.1.1-.2.2-.2z"/><path fill="#FFF" d="M81.7 117.7v.3c.4 0 .8-.1 1.3-.1-.4-.1-.8-.2-1.3-.2zM82.4 120.1c-.2 0-.4 0-.5-.1v.4c.2-.1.4-.1.5-.3z"/><path fill="#8DC4D2" d="M59.8 186.7z"/><path fill="#F05523" d="M87.1 210.4c-11-8-16.8-18-19.7-27.7-5.5-18.5-.5-35.7-.5-35.7 12.1-33.7 7.3-55.5 3.4-65.5-1.5-.2-3.4-.3-5.7-.2-17.3 1.1-17.3 13.6-17 16.4.4 2.9-1.1 10.2-1.1 10.2-9.5 20.6 3.5 40.7 5.1 45 1.4 3.7 6.3 25.3 7.8 31.8h-.1c.2.6.3 1.2.5 1.8.3 1.3.5 2.3.5 2.3.2 1.6.8 3.7 2.2 5.4 1.3 1.7 3.5 7.3 3.5 7.3s2.8 8.5 4.2 11.7c1.5 3.5 4.1 1.7 4.1 1.7 1.7 1.8 3.6-.1 3.6-.1 2.4 1.4 3.4-.4 3.4-.4.5 1 2.3.5 2.3.5 1.2-.3.9-1.4.9-1.4.8.9 2.7.4 2.7.4 3.2-.8.5-3-.1-3.5z"/><path fill="#8DC4D2" d="M150.3 112.5c0 .3 0 .6-.1 1 .1-.4.1-.7.1-1z"/><path fill="#F05523" d="M98.2 109.4c-3.9-.7-7.8-.9-11.6-.4-.4.1-.9.2-.9.7 0 .2.2.4.4.6 1.9 1.8 4.7.5 7 1.6.3.2.6.4.7.7.2.7-.5 1.2-1 1.3-1.8.6-3.7.8-5.5 1-1.9.2-3.7.4-5.6.6h-.3c-.4 0-.9.1-1.2.4-.3.3-.4 1 0 1.3.2.1.4.2.6.2.3 0 .7.1 1 .1.4.1.8.1 1.3.2-.4 0-.8.1-1.3.1s-.9.1-1.3.1c-.3 0-.6.1-.9.3-.2.2-.4.6-.2.9s.5.4.8.4c.6.1 1.1.2 1.7.2.2 0 .4 0 .5.1-.1.2-.3.2-.5.3-.4.1-.7.2-.5 1.4.2 0 .4.1.6.1 2.4.3 6.5-.1 8.6-.2-.1.6-3 1.4-3.5 1.6s-1.1.8-.8 1.3c4.8-.4 9.5-1.7 13.7-3.8.9-.5 1.8-1 2.7-1.3 1.1-.4 3.8-.7 4-.7 5.8.5 10.9.9 15.4 1.1-.6-3.6-1.1-7.3-1.4-10.7-6.7.6-13.8 1.2-13.8 1.2-3 .5-5.8-.1-8.7-.7z"/><path d="M154.2 8.2c-3.1-3-7.3-5.1-11.8-6.6-1.4-.5-2.9-.9-4.4-1.2h-.1c-1.7-.3-3.4-.4-5.1-.3-1.3 0-2.6.2-4 .7-2.7 1-4.8 2.6-6.5 5-1.2 1.7-1.9 3.8-3.8 4.8-2.4 1.3-5.3-.3-7.7.8-2.2 1-2.5 3.2-2.9 5.2-.6 3-2.3 2.7-5 3.1-6.6 1-.8 8.3-5.8 9.6-2.2.6-5 .3-5.6 3.1-.2.9.4 1.9.2 2.9-.2 1.6-1.2 1.9-2.4 2.6-2.1 1.2-2.8 3.4-2.4 5.3 1.1-.2 2.3-.5 3.5-.7 4.3-.9 8.7-1.8 8.8-2 .2-.2 12-7.3 34.1-1.4.8-3.3.7-6.8-2.6-8.2-1.7-.7-1.9-.6-3.6-1.2l-.8-.3c-1-.5-1-1.8-.5-2.4.1-.1.1-.7.2-1.6-.3-.4-.4-.9.1-1.3l.1-.1c.5-.4 1.3.2 1.5-1 .1-.8-.9-.7-1.3-1.1-.6-.5-.1-.8.1-1.2v-.1c0-.3.1-.5.1-.6-1-.2-1.6-.3-2.4-.7 2.3-1.3 4.7-3 6.5-5.1 1.1-1.2 1.9-2.6 2.9-3.8.1-.2.3-.3.4-.5 1.8.3 3.4 1.2 4.4 2.5 1.2 1.5 1.5 3.5 1 5.3-.2.6-.5 1.3-.5 1.9 0 .7.4 1.4 1.1 1.5.9.1 1.6-.6 2.1-1.3.5-.7 1.2-1.4 2.1-1.3.4 0 .7.2 1 .4 1.2 1 1.2 2.9 0 4-.7.7-1.8 1-2.5 1.6-1.1.9-1.3 2.4-1.1 3.7.5 3 3.4 6 6.9 5.9h.6c6.4-4.6 9.4-7.4 10-14.5.3-4.4-1.7-8.4-4.9-11.4z"/><path fill="#CFD74E" d="M80.9 66.5c-.8-.7-1.6-1.4-2.3-2.1-7.3.6-13.7 3.1-11.3 10.8l9.2 3.5c.2-1.2.6-3.1 1.2-5.2.5-2.2 1.6-4.9 3.2-7z"/><path fill="#CFD74E" d="M105.4 88.6c-.1-.2-.2-.5-.4-.8-.4-.9-.8-1.8-1.2-2.8-.8-1.7-2.4-3-2.6-3.1C92.6 76 86 71 81.1 66.8c-1.6 2-2.6 4.7-3.2 6.8-.6 2.1-1 4-1.2 5.2l2.8 1 25.9 8.8z"/><path fill="#FFF" d="M76.4 78.6c-.1.8-.2 1.3-.2 1.4h.4s0-.5.2-1.3h-.1l-.3-.1z"/><path fill="#CFD74E" d="M115.9 73.5c-1.4-.4-2.8-1.1-3.5-2 1.4-1.7 3.3-3.1 5.6-3.2.7 0 1.6.1 2.4.4 1.9.6 3.6 1.7 5.4 2.4.9.4 1.8.7 2.7 1 1.2.3 1-.6 1.1-1.4 0-.2.8-2.8 1.6-2.9-.1-.3-.9-1.1-1.1-1.4.6.3 1.5.7 1.9.5-.4-.5-.2-1.6 0-2 .7.2 1.6.1 2.2.1 0 0 .6.1.2-1.2-1.1-3.8-1.4-3.8-1.3-6.1.1-1.5.1-2.1.2-3.6.2-2.1-.4-4.4-2.8-5.8-2-1.2-4.5-1.6-6.6-1-.8.2-1.6.7-2.3 1.1-2.4 1.4-4.6 2.6-6.7 4.1-.6.4-1.1.8-1.7 1.2-.7.5-1.3.6-1.9 1.1-.6.5-7.8 1.4-7.8 2.2-.2 4.9-3.9 6.8-7 7.6.5.7.9 1.3 1.3 1.9.9 1.3 1.5 2.3 1.5 2.3 1.6 2.6 6.6 7.1 12.1 10.6 1.2-2.5 2.6-4.6 4.5-5.9z"/><path fill="#CFD74E" d="M159.5 83.3c-.4-.2-2.3 3.3-3.3 3.4-1 .1.2-1.2.5-1.7.6-.9 4.4-5.6 2.9-6.4-.7-.2-3.8 4.7-5.6 7.1 1.1-1.8 2.3-3.6 3.5-5.3.6-.8 2.5-2.8 1.2-3-1-.1-2.2 1.2-2.8 2-.7.9-2.8 4-3.7 3.8.8-2.5 2.6-4.9 3.2-7.4.2-.8-.1-1.6-1.1-.9-.7.5-1.4 2.1-1.8 2.8-2 3-4 8.3-7.4 9.6-1.7.6-1.6-.2-2.1-1.6-.3-.9-1.1-2.5-2.4-1.9-1.2.6.1 2 .2 2.8.2 1.2 0 2.5.3 3.6.2 1 1 1.7 1.4 2.6.4.7.7 1.5 1.1 2.2.4 1 .6 1.9.2 3 0 0-4.3 16.7-6.2 22 .2-6.7.6-27-1.8-36.3 0 0 .7-7.3-13.4-9.4 0 0-1.4 0-3.2-.2-.8-.1-1.8-.2-2.7-.5-1.9 1.2-3.4 3.5-4.4 5.7.6.4 1.2.7 1.8 1.1 3.4 2 6.5 4.4 9.1 7.2.3.3.5.8.2 1.1-.2.1-.4.2-.6.2-2.6.2-3.9-2.7-6.4-3.2-.4-.1-.7-.1-1 .1-.6.4-.4 1.2-.1 1.7.9 1.6 2.3 3 3.6 4.3 1.4 1.4 2.7 2.8 4.1 4.2.3.3.6.6.6 1.1 0 .4-.3 1-.8 1-.2 0-.4-.1-.6-.2-.6-.4-1.3-.8-1.9-1.3.6.6 1.2 1.3 1.8 1.9.2.2.5.5.5.8 0 .3-.1.7-.5.8-.3.1-.7-.1-.9-.2-.3-.2-.6-.4-1-.6.2 2.7.5 6.1 1 9.9.4 3.4.9 7.1 1.4 10.7 1 5.8 2.2 11.4 3.7 15.8.4 1.2.9 2.2 1.3 3.2 1.3 2.6 3 2.8 3 2.8s17.5 9.5 19.9-28.2c0-.3 0-.6.1-1v-.7c.2-3.5.2-7.4.1-11.7 0-.2.4-3 .9-3.9 1.2-2.2 3.4-4.1 4.7-6.3 1-1.6 2-3.1 3.1-4.7.4-.6 1.2-1.6.3-1.9z"/><path fill="#FFF" d="M116.3 73.6l-.3-.2c-.1 0-.1.1-.2.1.2 0 .3 0 .5.1z"/><path fill="none" d="M145.1 71.8c-1.2.1-2 1.1-1.8 2.2s1.3 1.9 2.5 1.8 2-1.1 1.8-2.2c-.2-1.1-1.3-1.9-2.5-1.8z"/><path fill="#F05523" d="M156.5 49.9c-2.6-.4-4.4-1.1-5.8-1.9-.8-2.2-4.4-9-1.7-14.1h-.6c-3.5.1-6.4-2.8-6.9-5.9-.2-1.3.1-2.8 1.1-3.7.7-.6 1.8-1 2.5-1.6 1.2-1.1 1.2-3 0-4-.3-.2-.6-.4-1-.4-.9-.1-1.6.7-2.1 1.3-.5.7-1.2 1.4-2.1 1.3-.7-.1-1.1-.8-1.1-1.5s.3-1.3.5-1.9c.6-1.8.2-3.7-1-5.3-1-1.3-2.6-2.3-4.4-2.5-.1.1-.3.3-.4.5-1.1 1.2-1.8 2.6-2.9 3.8-1.8 2.1-4.2 3.8-6.5 5.1.8.5 1.4.5 2.4.7 0 .1 0 .3-.1.6v.1c-.2.4-.7.7-.1 1.2.4.4 1.4.2 1.3 1.1-.2 1.2-1 .7-1.5 1 0 0-.1 0-.1.1-.4.4-.4.9-.1 1.3-.1.9-.2 1.5-.2 1.6-.5.6-.5 1.9.5 2.4l.8.3c1.7.6 2 .5 3.6 1.2 3.4 1.4 3.5 4.9 2.6 8.2-22.2-5.9-33.9 1.2-34.1 1.4-.1.1-4.6 1.1-8.8 2-1.2.2-2.4.5-3.5.7-2.4.5-4.2.8-4.2.8v.1c-13.7 3.6-16.8 8.6-4.2 20.4 5 4.7 12.4 10.4 22.6 17.5.2.1 1.7 1.4 2.6 3.1.5.9.9 1.8 1.2 2.8.1.3.2.5.4.8 1.8 4.1 4.4 7.8 7.6 11 .6-.2.6-1 .3-1.5s-.8-1-.5-1.6c1.7 1.6 3.6 3 5.8 4.1 1.6-1.2.2-1.3.4-1.9l.9.6c.3.2.6.4 1 .6.3.2.6.4.9.2.4-.1.5-.5.5-.8 0-.3-.3-.6-.5-.8-.6-.6-1.2-1.3-1.8-1.9.6.4 1.3.8 1.9 1.3.2.1.4.2.6.2.5 0 .8-.5.8-1 0-.4-.4-.8-.6-1.1-1.4-1.4-2.7-2.8-4.1-4.2-1.3-1.3-2.6-2.7-3.6-4.3-.3-.5-.5-1.3.1-1.7.3-.2.7-.2 1-.1 2.5.6 3.8 3.4 6.4 3.2.2 0 .5-.1.6-.2.3-.3.1-.8-.2-1.1-2.6-2.8-5.7-5.2-9.1-7.2-6.3-3.7-12.4-9-14.2-11.9 0 0-.6-.9-1.5-2.3-.4-.6-.8-1.2-1.3-1.9 3-.8 6.7-2.7 7-7.6 0-.7 7.2-1.6 7.8-2.2.6-.6 1.2-.6 1.9-1.1.6-.4 1.1-.8 1.7-1.2 2.2-1.4 4.4-2.7 6.7-4.1.7-.4 1.4-.8 2.3-1.1 2-.6 4.6-.2 6.6 1 2.4 1.4 2.9 3.7 2.8 5.8-.1 1.5-.1 2.1-.2 3.6-.1 2.3.2 2.3 1.3 6.1.4 1.3-.2 1.2-.2 1.2-.6.1-1.5.1-2.2-.1-.2.4-.4 1.5 0 2-.4.2-1.3-.1-1.9-.5.1.3.9 1.1 1.1 1.4-.8.1-1.6 2.6-1.6 2.9-.1.7.1 1.7-1.1 1.4-.9-.2-1.8-.6-2.7-1-1.8-.7-3.5-1.8-5.4-2.4-.8-.3-1.7-.4-2.4-.4-2.3.1-4.1 1.4-5.6 3.2 1.3 1.7 4.3 2.4 6.7 2.6 1.8.2 3.2.2 3.2.2 14.2 2.1 13.4 9.4 13.4 9.4 2.4 9.3 2 29.6 1.8 36.3 1.9-5.3 6.2-22 6.2-22 .4-1.1.2-2.1-.2-3-.4-.7-.6-1.5-1.1-2.2-.5-.8-1.2-1.6-1.4-2.6-.3-1.1-.1-2.4-.3-3.6-.1-.8-1.4-2.3-.2-2.8 1.2-.6 2.1 1.1 2.4 1.9.5 1.4.4 2.2 2.1 1.6 3.4-1.2 5.4-6.6 7.4-9.6.4-.6 1.2-2.3 1.8-2.8 1-.6 1.3.1 1.1.9-.6 2.6-2.5 4.9-3.2 7.4 1 .1 3-2.9 3.7-3.8.6-.8 1.8-2.2 2.8-2 1.4.2-.6 2.2-1.2 3-1.2 1.8-2.4 3.5-3.5 5.3 1.8-2.4 4.9-7.3 5.6-7.1 1.5.8-2.4 5.6-2.9 6.4-.3.4-1.6 1.8-.5 1.7 1-.1 2.9-3.7 3.3-3.4.9.2.1 1.3-.2 1.9-1.1 1.6-2.1 3.1-3.1 4.7-1.3 2.2-3.6 4-4.7 6.3-.5 1-.9 3.7-.9 3.9.1 4.3 0 8.2-.1 11.7 9.6-9.8 21.2-24.3 22.5-37.9.9-10.5-5-21.9-16.5-23.6zm-10.7 26c-1.2.1-2.3-.7-2.5-1.8s.6-2.1 1.8-2.2c1.2-.1 2.3.7 2.5 1.8s-.6 2.1-1.8 2.2z"/><path d="M137.8 15.7c-.1-.6-.5-1.1-.9-1.4-.6-.4-1.5-.5-2.2-.6h-1.1c-.1 0-.3.1-.4.2v.2c0 .1.1.1.2.1.7-.2 1.6-.1 2.3.1.2.1.4.1.5.2.5.3.9.7 1.1 1.3.2.5.2 1.1.1 1.6v.1h.2c.1 0 .2-.2.2-.3.1-.4.1-1 0-1.5zM135.3 17.9c-.1-.2-.3-.4-.6-.4-.1 0-.2 0-.4.1h-.1c-.6.1-1.3-.3-1.4-.8l-.1-.5-.4.4c-.3.3-.5.7-.4 1.1 0 .5.3.8.7 1.1.3.2.6.3 1 .3.5 0 1-.2 1.4-.5.3-.3.4-.6.3-.8z"/><g><path d="M131.5 56.1c-.2-.7-.7-1.4-1.3-1.9-.1-.1-.3-.2-.5-.4-.6-.4-1.3-.5-1.9-.5-.6 0-1.2.2-1.7.5-.1-.1 0-.2.1-.2.5-.2 1-.5 1.6-.5.6-.1 1.2 0 1.8.3.7.4 1.2 1 1.7 1.7.2.3.4.6.5.9 0 .1.1.2 0 .3 0-.1-.2-.1-.3-.2z"/></g><path d="M129.8 57.5c-.1 0-.2.1-.4.1-.5 0-1.1-.3-1.4-.8v-.1c0-.1-.1-.2-.2-.3-.1-.2-.4-.3-.6-.3-.3 0-.5.3-.5.6-.1.8.6 1.7 1.4 2 .2.1.5.1.7.1.7 0 1.3-.4 1.4-1l.1-.5-.5.2z"/><g><path d="M125 48.1c-2.3.5-4.3 2-5.3 4-.8 1.7-1.3 4.1-3.3 4.4.4-.8.1-2-.8-2.5-.8-.6-2.1-.5-2.8.2-1 1.1-.5 2.8-.9 4.1-.5 1.6-2.3 2.6-4.1 2.9-1.8.2-3.6-.2-5.4-.7 1.8-3.1.4-7.1 1.2-10.5.7-2.9 3.1-5.3 6-6.5s6.2-1.5 9.5-1.2c2.5.2 5.1.8 7.4 1.9 0 0 4.1 1.9 5.5 5.3-3.3-2.3-7-1.4-7-1.4z"/></g><g><path fill="#CFD74E" d="M126 48zM131 47.6s0-.1-.1-.1c0 0 0 .1.1.1zM103.2 57.9h.1M104.8 61.1z"/><path fill="none" d="M132.1 49.3s0 .1-.1.1M131.3 48.6c0 .1 0 .2-.1.3-.1 0-.2 0-.2-.2 0-.1 0-.2.1-.2s.2 0 .2.1zm-.4-.6c.1 0 .2 0 .2.1s0 .2-.1.2-.2 0-.2-.1 0-.2.1-.2zm-.4.1c0 .1 0 .2-.1.2s-.2 0-.2-.1 0-.2.1-.2.2.1.2.1zm-.1-.4c0 .1 0 .1-.1.2-.1 0-.2 0-.2-.1s0-.2.1-.2c.1-.1.2-.1.2.1zm-.4-.7c.1 0 .1 0 .2.1 0 .1 0 .2-.1.2s-.1 0-.2-.1c0-.1.1-.2.1-.2zm-15 5.8s0-.1.1-.1.1 0 .1.1c0 0 0 .1-.1.1 0-.1 0-.1-.1-.1zm.3.6s-.1 0-.1-.1v-.1s.1 0 .1.1c.1 0 0 .1 0 .1zm.3-.6s0-.1.1-.1c0 0 .1 0 .1.1v.1c-.1 0-.2 0-.2-.1zm.1.6c0-.1 0-.1.1-.2 0 0 .1 0 .2.1 0 0 0 .1-.1.2-.1 0-.2-.1-.2-.1zm.3.6c-.1 0-.1 0-.2-.1 0 0 0-.1.1-.2.1 0 .1 0 .2.1s0 .2-.1.2zm.1-1.8s.1 0 .1.1c0 0 0 .1-.1.1h-.1c0-.1 0-.1.1-.2zm0 .7s0-.1.1-.2l.1.1v.1c-.1.2-.1.1-.2 0zm.2.6c0-.1 0-.1.1-.2 0 0 .1 0 .2.1 0 0 0 .1-.1.2-.1 0-.2-.1-.2-.1zm.1.5s0-.1.1-.2c0 0 .1 0 .2.1s0 .2-.1.2c-.1.1-.2 0-.2-.1zm3-3.9c-.1 0-.1 0-.2-.1 0 0 0-.1.1-.2l.1.1v.2zm0 .3s.1 0 .2.1c0 .1 0 .1-.1.2-.1 0-.1 0-.2-.1 0-.1 0-.2.1-.2zm-.2 1.2c-.1 0-.1 0-.2-.1 0-.1 0-.1.1-.2.1 0 .1 0 .2.1 0 .1 0 .1-.1.2zm0-2h-.1c0-.1 0-.1.1-.2 0 0 .1 0 .1.1l-.1.1zm-.1 1.3s0 .1-.1.2c-.1 0-.1 0-.2-.1 0-.1 0-.1.1-.2.1 0 .2 0 .2.1zm-.3 1.6c-.1 0-.1 0-.2-.1 0-.1 0-.2.1-.2s.2 0 .2.1c.1.1.1.2-.1.2zm.1-2s-.1 0-.2-.1l.1-.1h.1c.1.1 0 .2 0 .2zm-.1 1.3s0 .1-.1.2c-.1 0-.2 0-.2-.1s0-.2.1-.2c.1-.1.2 0 .2.1zm-1.7 2.1c.1 0 .2 0 .2.1s0 .2-.1.2-.2 0-.2-.1c-.1-.1 0-.2.1-.2zm-.3-.4c0-.1 0-.1.1-.2.1 0 .2 0 .2.1s0 .2-.1.2c-.1.1-.1.1-.2-.1zm.4.9c.1 0 .2 0 .2.2 0 .1 0 .2-.1.2s-.2 0-.2-.1c0-.2 0-.3.1-.3zm.1-.7c0-.1 0-.2.1-.2s.2 0 .2.1 0 .1-.1.2c-.1 0-.1 0-.2-.1zm.3.3c.1 0 .2 0 .2.1s0 .2-.1.2-.2 0-.2-.1c-.1-.1 0-.2.1-.2zm.3-1c.1 0 .2 0 .2.1s0 .1-.1.2c-.1 0-.2 0-.2-.1s0-.1.1-.2zm-.2 1.5c.1 0 .2 0 .3.1 0 .1-.1.2-.2.2s-.2 0-.2-.1c-.1-.1 0-.2.1-.2zm.2-.7c0-.1 0-.2.1-.2s.2 0 .2.1 0 .2-.1.2-.2-.1-.2-.1zm.3-1c0-.1 0-.2.1-.2s.2 0 .2.1 0 .2-.1.2-.2 0-.2-.1zm.4-1.4c-.1 0-.1 0-.2-.1 0-.1 0-.1.1-.2 0 0 .1 0 .2.1 0 .1-.1.2-.1.2zm-.2-.5h-.1c0-.1 0-.1.1-.2 0 0 .1 0 .1.1 0 0-.1 0-.1.1zm0 1.3c0 .1 0 .1-.1.2-.1 0-.1 0-.2-.1 0-.1 0-.2.1-.2 0 0 .1 0 .2.1zm-.3-.4s-.1 0-.2-.1c0 0 0-.1.1-.2.1 0 .1 0 .2.1 0 .1 0 .2-.1.2zm-.2-.5s-.1 0-.1-.1v-.1c.1 0 .1 0 .2.1 0 0 0 .1-.1.1zm0 1.3c0 .1 0 .2-.1.2s-.1 0-.2-.1c0-.1 0-.1.1-.2.1 0 .1 0 .2.1zm-.3-.3c-.1 0-.1 0-.2-.1 0-.1 0-.1.1-.2.1 0 .1 0 .2.1 0 0 0 .1-.1.2zm-.1-.6s-.1 0-.2-.1c0 0 0-.1.1-.2.1 0 .1 0 .2.1 0 .1 0 .2-.1.2zm0 1.4c0 .1 0 .1-.1.2-.1 0-.1 0-.2-.1 0-.1 0-.1.1-.2s.1 0 .2.1zm-.3-.4c-.1 0-.1 0-.2-.1 0 0 0-.1.1-.2.1 0 .1 0 .2.1 0 .1 0 .1-.1.2zm-.1-.6s-.1 0-.2-.1 0-.1.1-.2c.1 0 .1 0 .2.1 0 .1-.1.2-.1.2zm-.2.9s0 .1-.1.2c0 0-.1 0-.2-.1 0-.1 0-.1.1-.2.2-.1.2 0 .2.1zm-.2-.4l-.1-.1v-.1c.1 0 .1 0 .2.1 0 0 0 .1-.1.1zm-.2 1.9c0-.1 0-.2.1-.2s.1 0 .2.1c0 .1 0 .2-.1.2-.1.1-.1 0-.2-.1zm.1.6c0-.1 0-.2.2-.2.1 0 .2 0 .2.1s0 .2-.1.2c-.1.1-.2 0-.3-.1zm.5.7c-.1 0-.2 0-.3-.1 0-.1 0-.2.2-.2.1 0 .2 0 .2.1s0 .2-.1.2zm.1-.6c0-.1 0-.2.1-.2s.2 0 .2.1 0 .2-.1.3l-.2-.2zm.4.7c-.1 0-.2 0-.3-.1 0-.1.1-.2.1-.3.1 0 .2 0 .3.1.1.2 0 .3-.1.3zm.6-.7c0 .1 0 .2-.1.3-.1 0-.2 0-.3-.1 0-.1 0-.2.1-.3.1-.1.2 0 .3.1zm.1-.8c-.1 0-.2 0-.2-.1s0-.2.1-.3c.1 0 .2 0 .2.2 0 .1-.1.2-.1.2zm0-1c0-.1 0-.2.1-.2s.2 0 .2.2c0 .1 0 .2-.1.2l-.2-.2zm.4.6c-.1 0-.2-.1-.2-.2s0-.2.1-.2.2 0 .2.1c.1.2 0 .3-.1.3zm.3-.9c-.1 0-.2 0-.2-.1s0-.2.1-.2.2 0 .2.1c.1 0 0 .1-.1.2zm.3-1c-.1 0-.2 0-.2-.1s0-.1.1-.2c.1 0 .2 0 .2.1.1.1 0 .2-.1.2zm.1-1c0-.1 0-.2.1-.2 0 0 .1 0 .2.1 0 0 0 .1-.1.2 0 0-.1-.1-.2-.1zm.3-1.4s0-.1.1-.1h.1c0 .1 0 .1-.1.2l-.1-.1zm.1 2c-.1 0-.2 0-.2-.1s0-.2.1-.2.1 0 .2.1c0 .2 0 .2-.1.2zm0-1.5l.1-.1c.1 0 .1 0 .2.1 0 0 0 .1-.1.1s-.2 0-.2-.1zm.3.6c-.1 0-.1 0-.2-.1 0-.1 0-.2.1-.2s.2 0 .2.1 0 .2-.1.2zm.1-1.6c.1 0 .1 0 .2.1 0 0 0 .1-.1.1 0 0-.1 0-.1-.1v-.1zm.1.6c0-.1 0-.1.1-.2.1 0 .1 0 .2.1 0 .1 0 .1-.1.2-.1 0-.2 0-.2-.1zm.3.7c-.1 0-.1 0-.2-.1 0-.1 0-.1.1-.2.1 0 .1 0 .2.1 0 .1 0 .2-.1.2zm.1-1.5v-.1c.1 0 .1 0 .2.1 0 0 0 .1-.1.2-.1-.1-.1-.2-.1-.2zm.1.5c0-.1 0-.1.1-.2.1 0 .1 0 .2.1 0 .1 0 .1-.1.2-.1 0-.2 0-.2-.1zm.3-1.3s0-.1.1-.1c0 0 .1 0 .1.1 0 0 0 .1-.1.1s-.1-.1-.1-.1zm0 2c-.1 0-.1 0-.2-.1 0-.1 0-.1.1-.2.1 0 .1 0 .2.1 0 .1 0 .2-.1.2zm.3-.9h-.1c0-.1 0-.1.1-.2.1 0 .1 0 .2.1 0 0 0 .1-.2.1zm.6-.3s-.1 0-.2-.1c0 0 0-.1.1-.2.1 0 .1 0 .2.1 0 .1 0 .2-.1.2zm.5-.2l-.1-.1v-.1c.1 0 .1 0 .2.1 0-.1 0 0-.1.1zm.6-.3c-.1 0-.1 0-.2-.1 0 0 0-.1.1-.2 0 0 .1 0 .2.1 0 .1-.1.2-.1.2zm.2-.9l.1-.1h.1c0 .1 0 .1-.1.2 0 0-.1 0-.1-.1zm.3.6c-.1 0-.1 0-.2-.1 0 0 0-.1.1-.2.1 0 .1 0 .2.1 0 .1 0 .2-.1.2zm.1-1.3s0-.1.1-.1h.1s0 .1-.1.1c0 .1-.1 0-.1 0zm.2.5v-.1c.1 0 .1 0 .2.1 0 0 0 .1-.1.1l-.1-.1zm.2.6s-.1 0-.2-.1c0-.1 0-.1.1-.2.1 0 .1 0 .2.1s0 .2-.1.2zm.6-.2c-.1 0-.1 0-.2-.1s0-.1.1-.2c0 0 .1 0 .2.1 0 .1 0 .2-.1.2zm.3-.8s0-.1.1-.1h.1c0 .1 0 .1-.1.2 0 0-.1 0-.1-.1zm.3.6s-.1 0-.2-.1c0 0 0-.1.1-.2.1 0 .1 0 .2.1 0 .1 0 .2-.1.2zm.2-.8s0-.1.1-.2l.1.1v.1c-.1.1-.1.1-.2 0zm.4.6c-.1 0-.1 0-.2-.1 0-.1 0-.1.1-.2 0 0 .1 0 .2.1 0 .2-.1.2-.1.2zm.2-.7l.1-.1h.1c0 .1 0 .1-.1.2.1 0-.1 0-.1-.1zm.2.5s0-.1.1-.2c.1 0 .1 0 .2.1s0 .1-.1.2c-.1 0-.2 0-.2-.1zm.3.6c-.1 0-.1 0-.2-.1 0-.1 0-.1.1-.2.1 0 .1 0 .2.1 0 .1 0 .2-.1.2zm.3-.7V47c.1 0 .1 0 .2.1 0 0 0 .1-.1.2 0-.1-.1-.2-.1-.2zm.2.6s-.1 0-.2-.1c0-.1 0-.1.1-.2.1 0 .2 0 .2.1.1.1 0 .2-.1.2zm.6-.2c-.1 0-.1 0-.2-.1 0-.1 0-.1.1-.2.1 0 .1 0 .2.1s0 .2-.1.2zm.8.5c-.1 0-.1 0-.2-.1 0-.1 0-.2.1-.2s.2 0 .2.1-.1.2-.1.2zm.6-.1c-.1 0-.2 0-.2-.1s0-.1.1-.2c.1 0 .1 0 .2.1 0 .1 0 .2-.1.2zm.6-.2c0 .1 0 .1-.1.2-.1 0-.2 0-.2-.1s0-.2.1-.2c.2-.1.2 0 .2.1zm-.1-.5c0 .1 0 .1-.1.2-.1 0-.2 0-.2-.1s0-.2.1-.2c.1-.1.2 0 .2.1zm-.1-.5s0 .1-.1.2c-.1 0-.1 0-.2-.1 0-.1 0-.1.1-.2.1 0 .2 0 .2.1zm-.4-.6s.1 0 .1.1v.1h-.1c-.1-.2 0-.2 0-.2zm-.1 1.1c0 .1 0 .2-.1.2s-.2 0-.2-.1c0 0 0-.1.1-.2.1 0 .2.1.2.1zm-.2-.5c0 .1 0 .1-.1.2 0 0-.1 0-.1-.1v-.1c.2-.1.2 0 .2 0zm-.1-.5c0 .1 0 .1-.1.2 0 0-.1 0-.1-.1 0 0 0-.1.1-.1 0-.1.1-.1.1 0zm-.3-.6h.1s0 .1-.1.1c0 .1-.1 0 0-.1-.1.1 0 0 0 0zm0 1.7c0 .1 0 .2-.1.2s-.1 0-.2-.1c0 0 0-.1.1-.2.1 0 .2 0 .2.1zm-.1-.5c0 .1 0 .1-.1.2 0 0-.1 0-.2-.1 0 0 0-.1.1-.2.1 0 .2 0 .2.1zm-.2-.6c0 .1 0 .1-.1.2 0 0-.1 0-.1-.1 0 0 0-.1.1-.1h.1zm-.2-.5s0 .1-.1.1-.1 0-.1-.1c0 0 0-.1.1-.1l.1.1zm-.2-.5s.1 0 .1.1c0 0 0 .1-.1.1s-.1 0-.1-.1c0 0 0-.1.1-.1zm-.2 1.6s.1 0 .2.1c0 .1 0 .1-.1.2-.1 0-.1 0-.2-.1 0-.1.1-.2.1-.2zm0-.4s0 .1-.1.1h-.1c0-.1 0-.1.1-.2 0 0 .1 0 .1.1zm-.2-.5s0 .1-.1.1-.1 0-.1-.1c0 0 0-.1.1-.1s.1 0 .1.1zm-.2-.6s.1 0 .1.1c0 0 0 .1-.1.1s-.1 0-.1-.1l.1-.1zm-.1-.5c.1.1.1.1 0 .1h-.1s0-.1.1-.1zm-.1 1.7s0 .1-.1.1c0 0-.1 0-.1-.1v-.1c.2 0 .2 0 .2.1zm-.3-.6c.1-.1.1 0 .1 0s0 .1-.1.1v-.1c0 .1 0 .1 0 0zm-.1-.5s.1 0 .1.1c0 0 0 .1-.1.1 0 0-.1 0-.1-.1.1 0 .1-.1.1-.1zm-.1-.5s.1 0 .1.1c0 0 0 .1-.1.1h-.1c0-.1.1-.2.1-.2zm-.2-.5s.1 0 .1.1c0 0 0 .1-.1.1h-.1l.1-.2zm0 1.7s0 .1-.1.1c0 0-.1 0-.1-.1 0 0 0-.1.1-.1l.1.1zm-.2-.5s0 .1-.1.1c0 0-.1 0-.1-.1 0 0 0-.1.1-.1s.1.1.1.1zm-.2-.6s.1 0 .1.1c0 0 0 .1-.1.1s-.1 0-.1-.1.1-.1.1-.1zm-.2-.5c.1 0 .1 0 0 0 .1.1.1.1 0 .1v-.1c0 .1 0 .1 0 0zm0 1.8s0 .1-.1.1h-.1s0-.1.1-.1c.1-.1.1-.1.1 0zm-.1-2.2v.1-.1zm-.1 1.6c.1.1.1.1 0 .2 0 0-.1 0-.1-.1s0-.1.1-.1zm-.2-.5s.1 0 0 0c.1.1 0 .1 0 .1h-.1c.1 0 .1-.1.1-.1zm-.1-.5v.1s-.1 0 0-.1c-.1 0-.1 0 0 0zm-.1 1.8s0 .1-.1.1c0 0-.1 0-.1-.1 0 0 0-.1.1-.1s.1 0 .1.1zm-.1-2.3c0 .1 0 0 0 0zm0 1.7s0 .1-.1.1c0 0-.1 0-.1-.1 0 0 0-.1.1-.1 0 .1.1.1.1.1zm-.1-2.2zm-.2 1.7s.1 0 .1.1c0 0 0 .1-.1.1 0 0-.1 0-.1-.1l.1-.1zm0 1.8s0 .1-.1.1h-.1c0-.1 0-.1.1-.2s.1 0 .1.1zm-.1-2.3c.1.1.1.1 0 .1v-.1c-.1 0 0 0 0 0zm0 1.7s0 .1-.1.1-.1 0-.1-.1 0-.1.1-.1c0 .1.1.1.1.1zm-.2-2.2c.1 0 .1 0 0 0 .1 0 .1.1 0 .1v-.1zm0-.5zm-.1 2.2s.1 0 .1.1c0 0 0 .1-.1.1s-.1 0-.1-.1l.1-.1zm-.1-.5s.1 0 0 0c.1.1.1.1 0 .1h-.1c0-.1.1-.1.1-.1zm-.1-.6s0 .1 0 0v.1h-.1s0-.1.1-.1zm-.2-.4s0 .1 0 0c0 .1 0 .1 0 0zm-.1-.5s-.1 0 0 0zm-.1 2.2s.1 0 .1.1c0 0 0 .1-.1.1s-.1 0-.1-.1l.1-.1zm-.1-.5s.1 0 .1.1c0 0 0 .1-.1.1h-.1l.1-.2zm-.1-.5s.1 0 .1.1c0 0 0 .1-.1.1h-.1c0-.2.1-.2.1-.2zm0 1.8s0 .1-.1.1c0 0-.1 0-.1-.1 0 0 0-.1.1-.1s.1 0 .1.1zm-.1-2.3c-.1 0-.1 0 0 0-.1 0-.1 0 0 0zm-.1 1.7s0 .1-.1.1c0 0-.1 0-.1-.1 0 0 0-.1.1-.1 0 .1.1.1.1.1zm-.1-2.2zm0 1.7s0 .1-.1.1-.1 0-.1-.1v-.1c.1.1.2.1.2.1zm-.1-2.3c-.1 0-.1 0 0 0-.1 0-.1.1 0 0zm0 4.1v.1c-.1 0-.1 0-.2-.1 0 0 0-.1.1-.1l.1.1zm-.2-2.3c.1 0 .1 0 0 0 .1.1.1.1 0 .1.1 0 0 0 0-.1zm0 1.8s0 .1-.1.1c0 0-.1 0-.1-.1 0 0 0-.1.1-.1s.1.1.1.1zm-.1-2.3c.1 0 .1.1 0 .1V45c-.1 0 0 0 0 0zm-.1-.5zm0 2.2s.1 0 .1.1c0 0 0 .1-.1.1 0 0-.1 0-.1-.1 0 0 0-.1.1-.1zm-.2-.5c.1 0 .1 0 0 0 .1.1.1.1 0 .1h-.1c.1 0 .1-.1.1-.1zm.1 1.9s0 .1-.1.1-.1 0-.2-.1c0 0 0-.1.1-.1s.1 0 .2.1zm-.2-2.4c.1 0 .1.1 0 .1v-.1zm0 1.8v.1c-.1 0-.1 0-.2-.1 0 0 0-.1.1-.1 0 .1.1.1.1.1zm-.1-2.3v.1s-.1 0 0-.1c-.1.1-.1.1 0 0zm-.1 1.8v.1s-.1 0-.1-.1c0 0 0-.1.1 0 0-.1 0 0 0 0zm-.1-2.3zm-.1-.5zm0 2.3c.1.1 0 .1 0 .1s-.1 0 0-.1c-.1 0 0 0 0 0zm0 1.8c0 .1 0 .1-.1.2 0 0-.1 0-.1-.1 0 0 0-.1.1-.1h.1zm-.1-2.3c.1.1 0 .1 0 .1s-.1 0 0-.1c-.1 0-.1 0 0 0zm0 1.8s0 .1-.1.1c0 0-.1 0-.1-.1 0 0 0-.1.1-.1 0 .1.1.1.1.1zm-.2-2.3s.1 0 0 0v0zm0 1.8s0 .1-.1.1c0 0-.1 0-.1-.1v-.1c.1.1.2.1.2.1zm-.1-2.3c-.1 0-.1 0 0 0-.1 0-.1 0 0 0zm-.2 1.7s.1 0 .1.1c0 0 0 .1-.1.1h-.1c.1-.1.1-.2.1-.2zm.1 1.9c0 .1 0 .1-.1.2 0 0-.1 0-.1-.1 0 0 0-.1.1-.1 0-.1.1 0 .1 0zm-.2-2.4s.1 0 .1.1c0 0 0 .1-.1.1h-.1c.1-.1.1-.2.1-.2zm-.1-.5c0 .1 0 .1 0 0 0 .1 0 .1 0 0zm0 1.9s0 .1-.1.1-.1 0-.1-.1c0 0 0-.1.1-.1 0 0 .1 0 .1.1zm-.1-2.3c-.1 0-.1 0 0 0-.1 0-.1 0 0 0zm-.1 1.8s0 .1 0 0c-.1.1-.1.1-.1 0V47c.1 0 .1.1.1.1zm-.1-2.4zm-.1 1.8s.1 0 .1.1c0 0 0 .1-.1.1h-.1c0-.1.1-.2.1-.2zm0 1.9s0 .1-.1.1c0 0-.1 0-.1-.1v-.1c.1 0 .2.1.2.1zm-.1-2.3c0-.1 0-.1 0 0 0-.1 0-.1 0 0zm0 1.8c0 .1-.1.1 0 0-.1.1-.1.1-.2 0 0 0 0-.1.1-.1 0 .1 0 .1.1.1zm-.1-2.4c0 .1 0 .1 0 0-.1.1-.1.1 0 0zm-.1 1.9s0 .1-.1.1-.1 0-.1-.1v-.1c.2 0 .2 0 .2.1zm-.1-2.4c-.1 0-.1 0 0 0zm-.1 1.8h.1s0 .1-.1.1v-.1c-.1.1 0 0 0 0zm0 1.9s0 .1-.1.1c0 0-.1 0-.1-.1v-.1c.2 0 .2.1.2.1zm-.1-2.3c-.1 0-.1 0 0 0 0-.1 0-.1 0 0zm-.1 1.8s0 .1-.1.1c0 0-.1 0-.1-.1 0 0 0-.1.1-.1s.1.1.1.1zm-.1-2.3c0-.1 0-.1 0 0 0-.1 0-.1 0 0zm-.1 1.8h.1s0 .1-.1.1c.1 0 0 0 0-.1zm0-2.4c0 .1 0 .1 0 0zm-.1 1.9h.1s0 .1-.1.1v-.1c-.1 0 0 0 0 0zm.1 1.9s0 .1-.1.1c0 0-.1 0-.1-.1 0 0 0-.1.1-.1l.1.1zm-.2-2.4c-.1 0-.1 0 0 0zm-.2 1.8c.1 0 .1 0 .1.1 0 0 0 .1-.1.1 0 0-.1 0-.1-.1.1 0 .1-.1.1-.1zm0-2.4c0 .1 0 .1 0 0 0 .1 0 .1 0 0zm-.1 1.9c.1.1 0 .1 0 .1V48c0 .1 0 0 0 0zm0-2.4c-.1 0-.1 0 0 0-.1 0-.1 0 0 0zm-.1 1.9c.1.1 0 .1 0 .1v-.1c-.1 0 0 0 0 0zm-.2-.5c0 .1 0 0 0 0zm0 1.9s.1 0 .1.1c0 0 0 .1-.1.1s-.1 0-.1-.1 0-.1.1-.1zm-.1-2.4zm-.1 1.8c.1 0 .1.1 0 0 .1.1.1.1 0 .2 0 0-.1 0-.1-.1.1 0 .1 0 .1-.1zm-.1-.4v0zm.1 1.9s0 .1-.1.1-.1 0-.1-.1c0 0 0-.1.1-.1 0 .1 0 .1.1.1zm-.2-2.5c0 .1 0 .1 0 0-.1.1-.1.1 0 0-.1.1-.1.1 0 0zm0 2c0 .1 0 .1-.1.1s-.1 0-.1-.1c0 0 0-.1.1-.1s.1 0 .1.1zm-.2-2.5zm-.1 1.9h.1s0 .1-.1.1 0 .1 0-.1zm0 1.6c-.1 0-.1 0-.2-.1 0 0 0-.1.1-.1 0 0 .1 0 .1.1v.1zm-.1-2.1c.1 0 .1.1 0 .1v-.1c0 .1 0 0 0 0zm-.1-.5c0 .1 0 .1 0 0 0 .1-.1.1 0 0zm0 1.9s.1 0 .1.1c0 0 0 .1-.1.1 0 0-.1 0-.1-.1 0 0 0-.1.1-.1zm-.1-2.4zm-.1 1.9c.1 0 .1 0 0 0 .1.1.1.1 0 .1h-.1l.1-.1zm-.1-.5c.1.1 0 .1 0 .1v-.1c-.1 0-.1 0 0 0zm.1 2c0 .1 0 .1-.1.2 0 0-.1 0-.1-.1 0 0 0-.1.1-.1 0-.1 0-.1.1 0zm-.3-2.5s.1 0 0 0v0zm.1 2s0 .1-.1.1c0 0-.1 0-.1-.1 0 0 0-.1.1-.1l.1.1zm-.2-2.5s-.1 0 0 0zm-.1 1.9h.1s0 .1-.1.1v-.1zm-.1-.5h.1s0 .1-.1.1V49c-.1 0 0 0 0 0zm0 1.9s.1 0 .1.1c0 0 0 .1-.1.1 0 0-.1 0-.1-.1 0 0 0-.1.1-.1zm-.1-2.4c-.1 0-.1 0 0 0zm0 2s0 .1-.1.1c0 0-.1 0-.1-.1 0 0 0-.1.1-.1s.1 0 .1.1zM117 48c0-.1 0 0 0 0zm0 1.9s.1 0 .1.1c0 0 0 .1-.1.1h-.1c.1-.1 0-.2.1-.2zm0 1.5v.1s-.1 0-.1-.1h.1c-.1 0-.1 0 0 0zm-.1-4c0 .1 0 .1 0 0zm0 2c.1.1.1.1 0 .1v-.1c-.1 0 0 0 0 0zm-.1 1.5s0 .1-.1.1c0 0-.1 0-.1-.1 0 0 0-.1.1-.1l.1.1zm-.1-2c.1 0 .1 0 0 0zm-.1-.5zm0 2h.1s0 .1-.1.1c0 0-.1 0 0-.1-.1 0-.1 0 0 0zm0 1.5c0 .1 0 .1-.1.2 0 0-.1 0-.1-.1 0 0 0-.1.1-.1 0-.1.1-.1.1 0zm-.2-4zm0 1.9s.1 0 0 0c.1.1.1.1 0 .1h-.1l.1-.1zm0 1.6s0 .1-.1.1c0 0-.1 0-.1-.1 0 0 0-.1.1-.1s.1 0 .1.1zm-.1-2.1c.1 0 .1.1 0 .1v-.1zm0 1.5s0 .1-.1.1c0 0-.1 0-.1-.1v-.1c.1 0 .2.1.2.1zm-.1-2s-.1.1 0 0c-.1.1-.1.1 0 0zm-.2 1.4s.1.1 0 0c.1.1.1.1 0 .1v-.1zm0 1.6s0 .1-.1.1c0 0-.1 0-.1-.1 0 0 0-.1.1-.1s.1 0 .1.1zm-.1-2.1c.1 0 .1.1 0 .1v-.1c-.1 0 0 0 0 0zm-.1-.5zm0 2c.1.1 0 .1 0 .1 0 .1-.1 0 0-.1-.1.1 0 0 0 0zm-.1-.5c-.1.1-.1 0-.1 0h.1c-.1 0 0 0 0 0zm-.1-2s0-.1 0 0zm0 3.6s0 .1-.1.1-.1 0-.1-.1c0 0 0-.1.1-.1s.1 0 .1.1zm-.1-2.1c-.1 0-.1 0 0 0-.1 0-.1 0 0 0zm-.1 1.5v.1s-.1 0-.1-.1h.1zm-.1-2.1c0 .1 0 .1 0 0 0 .1 0 .1 0 0 0 .1 0 .1 0 0zm0 1.6s0 .1 0 0c-.1.1-.1 0-.1 0h.1c0-.1 0 0 0 0zm-.1-2.1zm-.1 1.6v.1s-.1-.1 0-.1c-.1 0-.1 0 0 0zm0 1.5s-.1.1 0 0c-.1.1-.2 0-.2 0s0-.1.1-.1l.1.1zm-.2-2.1c0 .1 0 .1 0 0 0 .1 0 .1 0 0zm-.1 1.5c.1.1.1.1 0 .1v-.1zm-.1-.5c-.1 0 0 0 0 0zm0 2s.1 0 .1.1c0 0 0 .1-.1.1 0 0-.1 0-.1-.1s0-.1.1-.1zm-.1-2.5zm-.1 2c.1 0 .1 0 0 0 .1.1.1.1 0 .1h-.1c.1 0 .1-.1.1-.1zm-.1-2.5zm0 2c.1.1.1.1 0 .1v-.1c-.1 0-.1 0 0 0zm-.2-.5s.1 0 0 0zm-.1-.5zm0 2c.1.1.1.1 0 .1 0 0-.1 0 0-.1-.1 0-.1 0 0 0zm-.1-.6v.1s-.1 0 0-.1c-.1 0-.1 0 0 0zm-.2-.5c.1.1 0 .1 0 .1V52zm-.2-.5zm0 1.9h.1s0 .1-.1.1 0 0 0-.1c0 .1 0 .1 0 0zm-.1-2.4s0-.1 0 0zm0 1.9c.1.1.1.1 0 .1v-.1c-.1 0 0 0 0 0zm-.2-.5c.1 0 .1 0 0 0 .1.1.1.1 0 0 0 .1.1.1 0 0zm-.1-.5zm0 1.9c.1.1.1.1 0 .2 0 0-.1 0-.1-.1s0-.1.1-.1zm-.1-2.4zm-.1 1.9s.1 0 0 0v.1h-.1l.1-.1zm-.1-.5c0 .1 0 .1 0 0-.1.1-.1.1 0 0-.1 0-.1 0 0 0zm-.2-.5zm0 1.9h.1s0 .1-.1.1c0 .1-.1 0 0-.1-.1.1-.1 0 0 0zm-.2-.5c.1 0 .1 0 0 0 .1.1.1.1 0 .1v-.1zm-.1-.5c.1 0 .1.1 0 .1v-.1c-.1 0 0 0 0 0zm-.1-.5s-.1 0 0 0c-.1 0-.1 0 0 0zm-.1 1.9h.1s0 .1-.1.1v-.1c-.1 0-.1 0 0 0zm-8.7 6c-.1 0-.2 0-.2-.1s0-.2.1-.2c0 0 .1 0 .2.1 0 .1 0 .2-.1.2zm.1-1.2s0-.1.1-.1c0 0 .1 0 .1.1v.1c-.1.1-.2 0-.2-.1zm.2.5s0-.1.1-.2c0 0 .1 0 .2.1 0 .1 0 .1-.1.2-.2 0-.2 0-.2-.1zm.3.7c-.1 0-.1 0-.2-.1 0 0 0-.1.1-.2.1 0 .1 0 .2.1 0 .1 0 .1-.1.2zm.1-1.2v-.1c.1 0 .1 0 .2.1 0 0 0 .1-.1.1 0-.1 0-.1-.1-.1zm.1.5c0-.1 0-.1.1-.2.1 0 .1 0 .2.1 0 0 0 .1-.1.2 0 0-.1-.1-.2-.1zm.3.6c-.1 0-.1 0-.2-.1 0-.1 0-.1.1-.2.1 0 .1 0 .2.1s0 .2-.1.2zm.3-1.1s-.1 0-.1-.1v-.1c.1 0 .1 0 .2.1l-.1.1zm.1.4v-.1c.1 0 .1 0 .2.1 0 0 0 .1-.1.2-.1-.1-.1-.1-.1-.2zm.1.5c0-.1 0-.1.1-.2 0 0 .1 0 .2.1 0 .1 0 .1-.1.2-.1 0-.2 0-.2-.1zm.3.7c-.1 0-.2 0-.2-.1s0-.2.1-.2.1 0 .2.1c0 .1 0 .2-.1.2zm.1-1.3s0-.1.1-.2c0 0 .1 0 .2.1s0 .1-.1.2c-.1 0-.1 0-.2-.1zm.2.5s0-.1.1-.2c.1 0 .1 0 .2.1s0 .2-.1.2c-.1.1-.2 0-.2-.1zm.3.7c-.1 0-.2 0-.2-.1s0-.1.1-.2c.1 0 .2 0 .2.1 0 0 0 .1-.1.2zm0-1.8s0-.1.1-.1h.1c0 .1 0 .1-.1.2 0 0-.1 0-.1-.1zm.1.5s0-.1.1-.2c.1 0 .1 0 .2.1s0 .1-.1.2c-.1 0-.2 0-.2-.1zm.1.5s0-.1.1-.2c.1 0 .2 0 .2.1s0 .2-.1.2c0 .1-.1 0-.2-.1zm.4.7c-.1 0-.1 0-.2-.1 0-.1 0-.2.1-.2s.2 0 .2.1c0 0 0 .1-.1.2zm.1-1.3c0-.1 0-.1.1-.2 0 0 .1 0 .2.1 0 .1 0 .1-.1.2-.1 0-.2 0-.2-.1zm.1.5c0-.1 0-.1.1-.2.1 0 .1 0 .2.1s0 .1-.1.2c-.1 0-.2 0-.2-.1zm.1.5c0-.1 0-.1.1-.2.1 0 .1 0 .2.1 0 .1 0 .2-.1.2 0 0-.1 0-.2-.1zm.4-1.6s-.1 0-.1-.1c0 0 0-.1.1-.1h.1c0 .1 0 .2-.1.2zm.2.3c0 .1 0 .1-.1.2 0 0-.1 0-.2-.1 0 0 0-.1.1-.2.1 0 .2.1.2.1zm-.2 1.9c-.1 0-.2 0-.2-.1s0-.2.1-.2.2 0 .2.1c.1.1 0 .2-.1.2zm.1-1.3s0-.1.1-.2c.1 0 .2 0 .2.1s0 .2-.1.2c-.1.1-.2 0-.2-.1zm.1.5c0-.1 0-.1.1-.2.1 0 .2 0 .2.1s0 .2-.1.2c-.1.1-.1 0-.2-.1zm.4-1.3s.1 0 .2.1c0 .1 0 .1-.1.2-.1 0-.1 0-.2-.1 0-.1.1-.2.1-.2zm0 2c-.1 0-.2 0-.2-.1s0-.2.1-.2.2 0 .2.1 0 .2-.1.2zm.1-1.3c0-.1 0-.1.1-.2 0 0 .1 0 .2.1 0 .1 0 .1-.1.2-.1 0-.2 0-.2-.1zm.1.5c0-.1 0-.1.1-.2.1 0 .1 0 .2.1 0 .1 0 .2-.1.2s-.2 0-.2-.1zm.3-1.7s-.1 0-.1-.1c0 0 0-.1.1-.1h.1c0 .2 0 .2-.1.2zm.2.4c0 .1 0 .1-.1.2 0 0-.1 0-.2-.1 0 0 0-.1.1-.2.2-.1.2 0 .2.1zm-.1 1.9c-.1 0-.2 0-.2-.1s0-.2.1-.2.2 0 .2.1 0 .2-.1.2zm0-1.4s0-.1.1-.2c.1 0 .1 0 .2.1s0 .2-.1.2c-.1.1-.1.1-.2-.1zm.2.6c0-.1 0-.2.1-.2s.2 0 .2.1 0 .1-.1.2c-.1 0-.2 0-.2-.1zm.8-1.9h-.1c0-.1 0-.1.1-.2 0 0 .1 0 .2.1 0 0-.1.1-.2.1zm.3.4s0 .1-.1.2c-.1 0-.1 0-.2-.1 0-.1 0-.1.1-.2.1 0 .2 0 .2.1zm-.4.7c0 .1 0 .2-.1.2s-.2 0-.2-.1c0 0 0-.1.1-.2.1 0 .2 0 .2.1zm-.3-.4c-.1 0-.1 0-.2-.1 0 0 0-.1.1-.2l.1.1c.1.1.1.2 0 .2zm-.1 1.8c-.1 0-.2 0-.2-.1s0-.2.1-.2.2 0 .2.1c.1.1 0 .2-.1.2zm.2-.8c0-.1 0-.1.1-.2.1 0 .1 0 .2.1 0 .1 0 .2-.1.2l-.2-.1zm.4.6c-.1 0-.1 0-.2-.1 0-.1 0-.1.1-.2.1 0 .1 0 .2.1 0 .1 0 .2-.1.2zm.1-1.4c0-.1 0-.1.1-.2.1 0 .1 0 .2.1 0 .1 0 .1-.1.2-.2.1-.2 0-.2-.1zm.3-1.2s-.1 0-.1-.1v-.1c.1 0 .1 0 .2.1s.1.1-.1.1zm.3.4s0 .1-.1.2c0 0-.1 0-.2-.1s0-.1.1-.2c.1 0 .2 0 .2.1zm-.4-.9s-.1 0-.1-.1v-.1c.1 0 .1 0 .2.1 0 0 0 .1-.1.1zm-.1 2.3c0-.1 0-.2.1-.2s.2 0 .2.1 0 .2-.1.2-.2 0-.2-.1zm.3.6c-.1 0-.2 0-.2-.1s0-.2.1-.2.2 0 .2.1c.1.1 0 .2-.1.2zm.1-1.4c0-.1 0-.1.1-.2.1 0 .2 0 .2.1s0 .1-.1.2c-.1 0-.2 0-.2-.1zm.6-.7c-.1 0-.1 0-.2-.1 0 0 0-.1.1-.2 0 0 .1 0 .2.1 0 .1-.1.2-.1.2zm.2.3c0 .1 0 .2-.1.2s-.2 0-.2-.1c0 0 0-.1.1-.2.1 0 .2.1.2.1zm-.4-.8c-.1 0-.1 0-.2-.1 0 0 0-.1.1-.1 0 0 .1 0 .1.1.1 0 .1 0 0 .1zm-.1-.6h-.1s0-.1.1-.1v.1c0-.1 0 0 0 0zm-.2 2.3c0-.1 0-.2.1-.2s.2 0 .2.1 0 .2-.1.2c-.1.1-.1 0-.2-.1zm.3.6c-.1 0-.2 0-.2-.1s0-.2.1-.2.2 0 .2.1c.1.1.1.2-.1.2zm.5-.7c-.1 0-.2 0-.2-.1s0-.1.1-.2c.1 0 .1 0 .2.1 0 .1 0 .1-.1.2zm0-1.5s0-.1.1-.2c0 0 .1 0 .2.1s0 .1-.1.2c-.1 0-.2 0-.2-.1zm.1.5s0-.1.1-.2.1 0 .2.1c0 0 0 .1-.1.2 0 .1-.2 0-.2-.1zm.4.6c-.1 0-.2 0-.2-.1s0-.2.1-.2.1 0 .2.1c0 .2 0 .2-.1.2zm0-1.4c0-.1 0-.1.1-.2.1 0 .1 0 .2.1 0 .1 0 .1-.1.2-.1 0-.1 0-.2-.1zm.5.5c0 .1 0 .2-.1.2s-.1 0-.2-.1c0-.1 0-.1.1-.2.1 0 .1 0 .2.1zm-.1-3.8c.1 0 .1 0 0 0 .1 0 .1.1 0 .1v-.1zm.1 1.9s0 .1-.1.1c0 0-.1 0-.1-.1 0 0 0-.1.1-.1 0 .1.1.1.1.1zm-.2-2.4c.1 0 .1 0 0 0zm0 1.9s0 .1-.1.1-.1 0-.1-.1c0 0 0-.1.1-.1l.1.1zm-.1-2.4c-.1 0-.1 0 0 0zm-.1 1.8h.1s0 .1-.1.1c0 .1-.1 0 0-.1-.1.1-.1 0 0 0zm.1 1.9l-.1.1h-.1c0-.1 0-.1.1-.2-.1 0 0 .1.1.1zm-.3-2.4c.1 0 .1 0 0 0 .1.1.1.1 0 .1.1 0 0 0 0-.1zm.1 1.9s0 .1-.1.1-.1 0-.1-.1v-.1c.1 0 .2 0 .2.1zm-.2-2.4s.1 0 0 0c.1 0 .1.1 0 .1v-.1zm0 1.9s0 .1 0 0c-.1.1-.1.1-.2 0 0 0 0-.1.1-.1s.1 0 .1.1zm-.1-2.4zm-.1 1.8h.1s0 .1-.1.1-.1.1 0-.1c-.1 0-.1 0 0 0zm0 1.9v.1c-.1 0-.1 0-.2-.1 0 0 0-.1.1-.1l.1.1zm-.2-2.3c.1 0 .1 0 0 0 .1.1.1.1 0 .1.1 0 0 0 0-.1zm.1 1.8s0 .1-.1.1-.1 0-.1-.1c0 0 0-.1.1-.1 0 .1 0 .1.1.1zm-.2-2.4s.1.1 0 0c.1 0 .1.1 0 .1v-.1zm0 1.9s0 .1-.1.1c0 0-.1 0-.1-.1 0 0 0-.1.1-.1s.1.1.1.1zm-.1-2.3c0-.1 0 0 0 0zm-.2 1.7c.1 0 .1.1 0 0 .1.1.1.1 0 .1h-.1c.1 0 .1 0 .1-.1zm-.1-.5s.1.1 0 0c.1.1.1.1 0 .1h-.1c.1 0 .1-.1.1-.1zm-.1-.5c-.1.1 0 0 0 0zm-.1-.5c0 .1-.1.1 0 0-.1.1-.1.1 0 0zm0 2.3s.1 0 .1.1c0 0 0 .1-.1.1 0 0-.1 0-.1-.1 0 0 0-.1.1-.1zm-.1-.5c.1.1.1.1 0 .1h-.1c-.1 0 0-.1.1-.1zm-.2-.5s0 .1 0 0v.1h-.1c.1 0 0-.1.1-.1zm-.1-.5c0 .1 0 .1 0 0-.1.1-.1.1 0 0zm-.1 1.9s0 .1-.1.1-.1 0-.1-.1v-.1c.2 0 .2 0 .2.1zm-.1-2.4c0 .1 0 .1 0 0 0 .1 0 .1 0 0zm-.1 1.8h.1s0 .1-.1.1v-.1c-.1 0 0 0 0 0zm-.2-.5h.1s0 .1-.1.1c.1 0 0 0 0-.1zm0 1.8s0 .1-.1.1c0 0-.1 0-.1-.1v-.1c.2 0 .2.1.2.1zm-.1-2.3c0 .1 0 .1 0 0 0 .1 0 .1 0 0zm0 1.8c0 .1 0 .1-.1.1 0 0-.1 0-.1-.1 0 0 0-.1.1-.1s.1 0 .1.1zm-.1-2.3zm-.1 1.8s0 .1-.1.1c0 0-.1 0-.1-.1v-.1c.2 0 .2.1.2.1zm0-2.3c-.1 0-.1 0 0 0-.1 0-.1 0 0 0zm0 4v.1c-.1 0-.1 0-.2-.1 0 0 0-.1.1-.1 0 .1 0 .1.1.1zm-.2-2.3c.1 0 .1.1 0 0 .1.1.1.1 0 .1v-.1c0 .1-.1 0 0 0zm0 1.8s0 .1-.1.1h-.1s0-.1.1-.1h.1zm-.2-2.2c.1 0 .1 0 0 0 .1.1.1.1 0 .1.1 0 0 0 0-.1zm0-.5zm-.1 2.2c.1 0 .1 0 0 0 .1.1.1.1 0 .2 0 0-.1 0-.1-.1.1 0 .1-.1.1-.1zm-.1-.5s.1 0 0 0c.1.1 0 .1 0 .1v-.1c-.1 0 0 0 0 0zm-.1-.5c.1.1 0 .1 0 .1v-.1c-.1 0-.1 0 0 0zm-.1 1.8v.1s-.1 0-.1-.1c0 0 0-.1.1 0-.1-.1 0-.1 0 0zm-.1-2.3s-.1 0 0 0zm0 1.7s0 .1-.1.1c0 0-.1 0-.1-.1 0 0 0-.1.1-.1 0 .1.1.1.1.1zm-.1-2.2c-.1 0-.1 0 0 0-.1 0-.1 0 0 0zm-.2 1.7h.1s0 .1-.1.1 0 0 0-.1zm0 1.8v.1c-.1 0-.1 0-.2-.1 0 0 0-.1.1-.2.1.1.1.1.1.2zm-.1-2.3c.1.1.1.1 0 .1v-.1zm0 1.8s0 .1-.1.1h-.1s0-.1.1-.1c0-.1.1-.1.1 0zm-.2-2.3c.1 0 .1 0 0 0 .1.1.1.1 0 .1.1 0 0 0 0-.1zm-.1-.5zm0 2.2s.1 0 .1.1c0 0 0 .1-.1.1 0 0-.1 0-.1-.1s.1-.1.1-.1zm-.1-.5c.1.1.1.1 0 .1h-.1c0-.1 0-.1.1-.1zm-.1-.5v.1s-.1 0 0-.1c-.1 0-.1 0 0 0zm-.2 1.8s-.1 0-.1-.1c0 0 0-.1.1-.1 0 0 .1 0 .1.1s0 .1-.1.1zm0-2.3v.1s-.1 0 0-.1c-.1 0-.1 0 0 0zm-.1 1.7s0 .1-.1.1-.1 0-.1-.1c0 0 0-.1.1-.1s.1.1.1.1zm-.1-2.2zm-.1 1.7h.1s0 .1-.1.1 0 0 0-.1zm0 1.7v.1c-.1 0-.1 0-.2-.1 0 0 0-.1.1-.2 0 .1.1.1.1.2zm-.1-2.2c.1.1.1.1 0 .1v-.1c-.1 0 0 0 0 0zm-.1 1.7s0 .1-.1.1-.1 0-.1-.1c0 0 0-.1.1-.1s.1.1.1.1zm-.1-2.2c.1 0 .1 0 0 0 .1 0 .1.1 0 .1v-.1zm-.1-.5zm0 2.1s.1 0 .1.1 0 .1-.1.1c0 0-.1 0-.1-.1 0 0 0-.1.1-.1zm-.2-.5c.1 0 .1 0 0 0 .1.1.1.1 0 .1h-.1c.1 0 .1-.1.1-.1zm-.1-.5v0zm-.1-.5v.1s-.1 0 0-.1c-.1 0-.1 0 0 0zm.1 2.2c0 .1 0 .1-.1.2 0 0-.1 0-.1-.1 0 0 0-.1.1-.1 0-.1.1 0 .1 0zm-.3-2.7zm.1 2.2s0 .1-.1.1c0 0-.1 0-.1-.1 0 0 0-.1.1-.1s0 .1.1.1zm-.3-.5h.1s0 .1-.1.1v-.1zm0 1.6v.1c-.1 0-.1 0-.2-.1 0 0 0-.1.1-.1 0 .1.1.1.1.1zm-.1-2.2c.1.1.1.1 0 .1v-.1c0 .1 0 0 0 0zm0 1.7s0 .1-.1.1c0 0-.1 0-.1-.1 0 0 0-.1.1-.1 0 .1 0 .1.1.1zm-.1-2.2s0 .1 0 0c.1.1.1.1 0 .1v-.1zm-.2-.4zm0 2s.1 0 .1.1c0 0 0 .1-.1.1 0 0-.1 0-.1-.1l.1-.1zm-.1-.4c.1.1.1.1 0 .1 0 0-.1 0 0-.1-.1 0-.1 0 0 0zm-.2-.5s.1 0 0 0c.1.1 0 .1 0 .1v-.1zm-.1-.5v0c-.1 0-.1 0 0 0zm.1 2.1s0 .1-.1.1c0 0-.1 0-.1-.1v-.1c.1 0 .2 0 .2.1zm-.3-2.6zm0 2.1h.1c0 .1 0 .1-.1.1v-.1c-.1 0-.1 0 0 0zm-.2-.5h.1s0 .1-.1.1c.1 0 0 0 0-.1zm-.1-.5h.1s0 .1-.1.1v-.1zm-.1-.5c0-.1 0 0 0 0zm0 2s.1 0 .1.1c0 0 0 .1-.1.1s-.1 0-.1-.1c0 0 0-.1.1-.1zm-.2-2.5zm.1 2.1s0 .1-.1.1-.1 0-.1-.1c0 0 0-.1.1-.1 0 0 .1 0 .1.1zm-.2-.5h.1s0 .1-.1.1-.1 0 0-.1c-.1 0-.1 0 0 0zm-.2-.6c.1 0 .1.1 0 0 .1.1.1.1 0 .1v-.1c0 .1 0 0 0 0zm0 1.6s0 .1-.1.1c0 0-.1 0-.1-.1 0 0 0-.1.1-.1 0 .1.1.1.1.1zm-.1-2.1c.1.1 0 .1 0 .1v-.1zm-.2 1.6s.1 0 .1.1c0 0 0 .1-.1.1 0 0-.1 0-.1-.1l.1-.1zm0 1.6c0 .1 0 .1-.1.2-.1 0-.1 0-.2-.1 0 0 0-.1.1-.2.1 0 .2 0 .2.1zm-.3-.6s.1 0 .1.1v.1c-.1 0-.1 0-.2-.1 0 0 0-.1.1-.1zm-.1 1.1c0 .1 0 .1-.1.2s-.2 0-.2-.1 0-.1.1-.2c0 0 .2 0 .2.1z"/><path fill="#CFD74E" d="M118.2 50.1c-.1 0-.1.1-.1.1 0 .1.1.1.2.1 0 0 .1-.1 0-.1l-.1-.1zM118.4 48.9l.1-.1h-.1s-.1-.1 0 .1c-.1 0-.1 0 0 0zM118.4 46.8v.1M118.2 48.3c.1 0 .1 0 0 0v-.1.1zM117 50.1c.1 0 .1-.1 0 0 .1-.1 0-.1 0-.1v.1c0-.1 0 0 0 0zM116.6 50.5l.1-.1h-.1s-.1-.1 0 .1c-.1-.1-.1 0 0 0zM116.9 47.4zM116.4 49.9c.1 0 .1 0 0 0v-.1.1zM116.9 49.5v-.1c-.1 0-.1 0 0 .1-.1 0-.1 0 0 0zM116.3 51.4l.1.1.1-.1-.1-.1c-.1 0-.1.1-.1.1zM116.6 51l.1.1.1-.1-.1-.1c-.1 0-.1 0-.1.1zM116.7 48.9c.1 0 .1 0 0 0 .1 0 .1 0 0 0 0 0-.1 0 0 0zM116.4 51.9c0 .1.1.1.1.1.1 0 .1-.1.1-.2 0 0-.1-.1-.1 0-.1 0-.1.1-.1.1zM115.9 49.8s0-.1 0 0v-.1s-.1 0 0 .1zM115.8 49.2zM118.1 47.8c0-.1 0-.1 0 0-.1 0 0 0 0 0zM116 50.4v-.1h-.1l.1.1c0-.1 0 0 0 0zM116.3 49.3h-.1.1c0 .1 0 0 0 0zM116.2 50.8c0 .1 0 .1 0 0 .1.1.1 0 .1 0l-.1-.1c-.1.1-.1.1 0 .1zM116.2 48.8c-.1 0-.1 0 0 0-.1 0 0 0 0 0zM131.4 49.1c0-.1-.1-.1 0 0 0-.1 0 0 0 0zM117.7 50.7c0 .1.1.1.1.1.1 0 .1-.1.1-.2 0 0-.1-.1-.1 0-.1-.1-.2 0-.1.1zM117.6 48.1V48v.1s0 .1 0 0zM117.5 50.1l.1.1.1-.1-.1-.1-.1.1zM118.1 49.8l.1-.1-.1-.1-.1.1c0 .1.1.1.1.1zM117.5 47.6zM118 49.2v-.1l-.1.1h.1zM117.8 48.7v-.1c-.1 0-.1 0 0 .1-.1 0-.1 0 0 0zM117.5 49.6l.1-.1h-.1c-.1 0-.1 0 0 .1-.1 0-.1.1 0 0zM117.1 50.5l.1.1.1-.1-.1-.1-.1.1zM117.2 48.5c-.1 0-.1 0 0 0zM116.8 51.5c0 .1.1.1.1.1s.1-.1 0-.1l-.1-.1v.1zM117 48s0-.1 0 0zM117.3 49.1c.1 0 .1 0 0 0 .1-.1 0-.1 0-.1s-.1 0 0 .1c-.1 0 0 0 0 0zM117.2 51.1l.1.1.1-.1c0-.1-.1-.1-.1-.1-.1-.1-.1 0-.1.1zM119 53.2c-.1 0-.1.1-.1.2s.1.1.2.1c0-.1.1-.2.1-.4 0 .1-.1.1-.2.1zM124.5 45c.1 0 .1 0 0 0v-.1s-.1 0 0 .1zM124.8 43.7zM125 44.3c0-.1 0-.1 0 0-.1-.1-.1-.1 0 0-.1 0-.1 0 0 0zM124.5 47.1c-.1 0-.1.1-.1.2 0 0 .1.1.1 0l.1-.1c0-.1 0-.2-.1-.1zM118.4 49.3c0 .1.1.1.1.1s.1 0 .1-.1 0-.1-.2 0zM124.9 46.5l.1.1.1-.1-.1-.1c-.1 0-.2.1-.1.1zM124.7 46l.1.1.1-.1-.1-.1c-.1 0-.1 0-.1.1zM125.4 46.3s.1.1.1 0l.1-.1-.1-.1c-.1.1-.1.2-.1.2zM125.1 44.8v-.1s-.1 0-.1.1h.1zM123 46.6l.1.1.1-.1-.1-.1-.1.1zM125.7 44.7v-.1c-.1-.1-.1-.1 0 .1-.1 0-.1 0 0 0zM125.8 45.2l.1-.1-.1-.1-.1.1c0 .1.1.1.1.1zM125.4 45.9v-.1s0-.1-.1-.1l-.1.1c.1.1.2.1.2.1zM125.3 45.3v-.1l-.1.1h.1zM123.5 45.9c.1 0 .1-.1 0 0 .1-.1 0-.1 0-.1v.1zM123.4 45.4s.1-.1 0 0c.1-.1 0-.1 0-.1s-.1 0 0 .1zM124.3 46.7l.1.1.1-.1-.1-.1c-.1 0-.1 0-.1.1zM123.7 46.5l.1-.1-.1-.1c-.1 0-.1 0 0 .2-.1-.1 0 0 0 0zM127.7 47.3c-.1 0-.1.1-.1.2s.1.1.2.1.1-.1.1-.2c-.1-.1-.1-.1-.2-.1zM123.2 47.1l.1.1.1-.1-.1-.1c-.1 0-.1.1-.1.1zM123.7 44.1c-.1 0 0 0 0 0zM124.3 43.9h-.1M124.3 46.2l.1-.1-.1-.1-.1.1c0 .1 0 .1.1.1zM124.4 44.5s0-.1 0 0v-.1c-.1 0-.1 0 0 .1zM124.1 45.7c.1 0 .1-.1 0 0v-.1l-.1.1h.1zM124 45.2v-.1c-.1-.1-.1 0 0 .1-.1-.1 0 0 0 0zM123.8 44.6c0-.1 0-.1 0 0zM125.5 44.1V44v.1zM128.5 46.2c0 .1.1.1.1.1.1 0 .1-.1.1-.2 0 0-.1-.1-.1 0-.1 0-.1.1-.1.1zM128.7 47.3c0 .1.1.1.2.1 0 0 .1-.1.1-.2 0 0-.1-.1-.2-.1 0 0-.1.1-.1.2zM127.9 46.3c0 .1.1.1.1.1.1 0 .1-.1.1-.2 0 0-.1-.1-.1 0-.1 0-.1.1-.1.1zM128.4 45.8c.1 0 .1-.1.1-.1s-.1-.1-.1 0l-.1.1h.1zM128.2 47.4c0 .1.1.1.2.1s.1-.1.1-.2c0 0-.1-.1-.2-.1s-.2.1-.1.2zM128 46.8c0 .1.1.1.2.1s.1-.1.1-.2c0 0-.1-.1-.2-.1 0 .1-.1.2-.1.2zM128.6 46.8c0 .1.1.1.1.1.1 0 .1-.1.1-.2 0 0-.1-.1-.2-.1v.2zM129.5 47.8c0 .1.1.1.2.1.1-.1.1-.1.1-.2s-.1-.1-.2-.1-.2.1-.1.2zM129.2 46.3s.1-.1 0-.1l-.1-.1c-.1 0-.1.1-.1.2h.2zM128.4 47.7c-.1 0-.1.1-.1.2s.1.1.2.1.1-.1.1-.2-.1-.1-.2-.1zM129 47.6c-.1 0-.1.1-.1.2s.1.1.2.1.1-.1.1-.2c-.1-.1-.1-.1-.2-.1zM129.2 46.7s.1.1.2.1c0 0 .1-.1.1-.2s-.1-.1-.2-.1c-.1.1-.1.1-.1.2zM129.3 47.3c0 .1.1.1.2.1s.1-.1.1-.2-.1-.1-.2-.1c0 0-.1.1-.1.2zM126.7 46.6l.1.1c.1 0 .1-.1.1-.1 0-.1-.1-.1-.2-.1v.1zM126.5 45.6l.1-.1-.1-.1v.2zM125.9 45.6l.1.1.1-.1-.1-.1-.1.1zM126.6 46l.1.1c.1 0 .1-.1.1-.1-.1-.1-.1-.1-.2 0zM126.4 45s.1 0 0 0c.1-.1 0-.1 0-.1s-.1.1 0 .1zM126.3 44.5c.1-.1 0-.1 0-.1-.1 0-.1.1 0 .1zM126 46.2l.1.1.1-.1-.1-.1c-.1 0-.1 0-.1.1zM127 44.9s0-.1 0 0v-.1l-.1.1h.1zM127.8 45.8l.1.1.1-.1-.1-.1c-.1 0-.2 0-.1.1zM127.3 46.5s.1.1.1 0l.1-.1c0-.1-.1-.1-.1-.1-.1 0-.1 0-.1.2zM127.7 45.4l.1-.1-.1-.1-.1.1.1.1zM127.5 46.9c0 .1.1.1.2.1 0 0 .1-.1.1-.2s-.1-.1-.2-.1c-.1.1-.2.2-.1.2zM127.2 45.5l.1-.1-.1-.1-.1.1c0 .1 0 .1.1.1zM127.2 45.9l.1.1.1-.1-.1-.1c-.1 0-.1.1-.1.1zM123.3 44.8c-.1 0-.1 0 0 0-.1 0-.1 0 0 0zM120.2 46.9s.1 0 0 0c.1-.1 0-.1 0-.1s-.1 0 0 .1c-.1 0 0 0 0 0zM120.2 45c.1 0 .1 0 0 0zM120.3 47.4s0 .1 0 0c.1.1.1 0 .1 0s0-.1-.1 0zM119.9 45.9c0-.1 0-.1 0 0 0-.1 0-.1 0 0zM119.9 48.3l.1.1.1-.1-.1-.1c-.1 0-.1 0-.1.1zM120 46.4c.1 0 .1-.1 0 0v-.1.1zM120 48.8l.1.1c.1 0 .1-.1.1-.1 0-.1-.1-.1-.2-.1v.1zM120.5 45.5c-.1.1-.1.1 0 0 0 .1 0 .1 0 0zM120.5 48.5l.1.1.1-.1c0-.1-.1-.1-.1-.1s-.1 0-.1.1zM120.8 47.1c0 .1 0 .1 0 0h.1l-.1-.1v.1zM120.7 46.7s.1-.1 0 0c.1-.1 0-.1 0-.1 0-.1-.1 0 0 .1zM120.6 46.1c0-.1 0-.1 0 0-.1-.1-.1-.1 0 0zM120.4 47.9c0 .1.1.1.1.1s.1 0 .1-.1h-.2zM119.5 49.1l.1.1c.1 0 .1-.1.1-.1.1 0 0-.1-.2 0zM119 49l.1-.1-.1-.1-.1.1c0 .1.1.1.1.1zM119.1 47.1c0-.1 0-.1 0 0-.1-.1-.1-.1 0 0-.1-.1-.1 0 0 0zM119.4 48.1V48h-.1l-.1.1h.2zM119.2 47.6s.1 0 0 0v-.1s-.1 0-.1.1h.1zM118.9 48.5v-.1s0-.1-.1-.1l-.1.1c.1.1.1.1.2.1zM118.9 46.5zM119.7 47.3s.1-.1 0 0c.1-.1 0-.1 0-.1-.1 0-.1 0 0 .1-.1 0 0 0 0 0zM119.8 47.8s.1 0 0 0c.1.1.1 0 .1 0s0-.1-.1 0c0-.1 0-.1 0 0zM119.8 45.3c0 .1 0 .1 0 0zM121 45.3c-.1 0-.1 0 0 0zM119.5 46.7c.1 0 .1 0 0 0v-.1.1zM119.4 48.6c0 .1.1.1 0 0h.1s0-.1-.1-.1 0 .1 0 .1zM119.4 46.1c0 .1 0 .1 0 0 0 .1 0 .1 0 0zM121.5 45c-.1 0-.1 0 0 0-.1 0-.1 0 0 0zM122.2 48.1c0 .1.1.1.2.1l.1-.1c0-.1-.1-.1-.1-.1-.1 0-.2.1-.2.1zM122.5 46.3v-.1l-.1.1h.1zM120.9 47.7l.1.1.1-.1-.1-.1c-.1-.1-.1 0-.1.1zM122.2 45.3v-.1c-.1 0-.1 0 0 .1-.1 0-.1 0 0 0zM122 47.1l.1.1v-.1s0-.1-.1-.1v.1zM122.1 47.6c0 .1.1.1.2.1 0 0 .1-.1 0-.1l-.1-.1c-.1 0-.1 0-.1.1zM122.6 46.9l.1-.1-.1-.1-.1.1c0 .1.1.1.1.1zM122.8 47.9c0 .1.1.1.2.1 0 0 .1-.1 0-.1l-.1-.1c-.1 0-.1 0-.1.1zM122.9 45.6v-.1c-.1 0-.1 0 0 .1-.1 0 0 0 0 0zM122.9 46.1s.1 0 0 0c.1.1.1 0 .1 0s0-.1-.1 0c0-.1 0-.1 0 0zM122.6 47.3l.1.1.1-.1-.1-.1-.1.1zM122.7 45.1c.1 0 .1-.1 0 0V45s-.1 0 0 .1zM122.6 44.5h-.1M122.3 45.8c.1 0 .1-.1 0 0v-.1.1s0 .1 0 0zM121.4 46.9s0-.1 0 0c.1-.1 0-.1 0-.1-.1-.1-.1 0 0 .1-.1 0 0 0 0 0zM123.1 44.3zM121.2 48.7c0 .1.1.1.1.1.1 0 .1-.1.1-.2 0 0-.1-.1-.1 0-.1 0-.1 0-.1.1zM121.2 46.3c.1 0 .1 0 0 0 .1-.1 0-.1 0-.1v.1zM122 44.8c0-.1 0-.1 0 0 0-.1 0-.1 0 0zM121.1 45.8c0-.1 0-.1 0 0 0-.1 0-.1 0 0zM121.5 47.4c.1.1.1 0 .1 0l-.1-.1c-.1 0-.1 0 0 .1zM121.9 46.6v-.1h-.1s-.1 0-.1.1h.2zM121.7 48.4c0 .1.1.1.1.1.1 0 .1-.1.1-.2 0 0-.1-.1-.1 0-.1 0-.1.1-.1.1zM121.6 47.9l.1.1c.1 0 .1-.1.1-.1s-.1-.1-.2 0c0-.1 0-.1 0 0zM121.8 46.1V46s-.1 0-.1.1h.1zM121.7 45.6v-.1c-.1 0-.1 0 0 .1-.1-.1-.1 0 0 0zM124.7 45.5l.1-.1-.1-.1s-.1.1 0 .2c-.1 0-.1 0 0 0zM130.3 48c-.1 0-.1.1-.1.2s.1.1.2.1.1-.1.1-.2c0 0-.1-.1-.2-.1zM130.1 47.7c0 .1.1.1.2.1s.1-.1.1-.2-.1-.1-.2-.1-.2.2-.1.2zM130.9 48.7c0 .1.1.2.2.2s.2-.1.1-.3c0-.1-.1-.1-.2-.1 0 0-.1.1-.1.2zM131 48.3c.1 0 .1-.1.1-.2s-.1-.1-.2-.1-.1.1-.1.2.1.2.2.1zM118.7 47.9v-.1.1s0 .1 0 0zM130.1 47.3c.1 0 .1-.1.1-.2 0 0-.1-.1-.2-.1s-.1.1-.1.2c.1.1.1.1.2.1zM129.8 46.7c0 .1.1.1.2.1s.1-.1.1-.1l-.1-.1c-.2-.1-.2 0-.2.1zM119.3 49.9c-.1 0-.1.1-.1.2 0 0 .1.1.2.1 0 0 .1-.1 0-.1 0-.2-.1-.3-.1-.2zM126.9 44.4s-.1 0 0 0c-.1-.1-.1-.1 0 0-.1 0-.1 0 0 0zM130.6 47.2c0 .1.1.1.1.1 0-.1-.1-.1-.1-.1-.1-.1-.1 0 0 0zM129 45.7s-.1 0-.1-.1c0 .1.1.1.1.1zM128.3 45.3s0-.1 0 0c-.1 0 0 0 0 0zM127.6 44.8c0-.1 0-.1-.1-.1l.1.1c-.1 0-.1.1 0 0zM119.1 49.3c-.1 0-.1.1-.1.2 0 0 .1.1.1 0l.1-.1s0-.1-.1-.1zM117.5 53.8c.1 0 .1-.1.1-.2s-.1-.1-.2-.1-.1.1-.1.2c.1.1.1.1.2.1zM117.1 54.3c.1 0 .1-.1.1-.2s-.1-.1-.2-.1-.1.1-.1.2c.1 0 .2.1.2.1zM117.1 53.5c0-.1-.1-.1-.2-.1s-.1.1-.1.2.1.1.2.1.1-.2.1-.2zM117.3 54.8c.1 0 .1-.1.1-.2s-.1-.2-.2-.2-.1.1-.1.2c0 .2.1.2.2.2zM119.3 50.5c0 .1.1.1.2.1 0 0 .1-.1.1-.2 0 0-.1-.1-.2-.1-.1.1-.1.2-.1.2zM117.7 54.3c.1 0 .1-.1.1-.2s-.1-.1-.2-.1-.1.1-.1.2.1.2.2.1zM118 53.3c.1 0 .1-.1.1-.2s-.1-.1-.2-.1-.1.1-.1.2.1.1.2.1zM118.9 50.8c-.1 0-.1.1-.1.2 0 0 .1.1.2.1s.1-.1.1-.2-.1-.1-.2-.1zM130.8 47.5c-.1 0-.1.1-.1.2s.1.1.2.1.1-.1.1-.2l-.1-.1h-.1zM118.5 51.9s.1.1.2.1c0 0 .1-.1.1-.2s-.1-.1-.2-.1c0 0-.1.1-.1.2zM119.1 51.3c-.1 0-.1.1-.1.2s.1.1.2.1.1-.1.1-.2c-.1-.1-.1-.1-.2-.1zM118.8 50.3l-.1.1c0 .1.1.1.2.1 0 0 .1-.1.1-.2h-.2zM118.7 52.2c-.1 0-.1.1-.1.2s.1.1.2.1.1-.1.1-.2 0-.2-.2-.1zM120.6 50.8zM121.5 49.6c-.1 0-.1.1-.1.2v.1l.2-.2c.1-.1 0-.2-.1-.1zM117.8 54.9c.1 0 .2-.1.2-.2s-.1-.2-.3-.1c-.1 0-.2.1-.1.3h.2zM120.2 51c-.1 0-.1.1-.1.2 0 0 0 .1.1.1.1-.1.1-.2.2-.2-.1-.1-.2-.1-.2-.1zM119.7 52.1s0 .1 0 0c.1-.1.1-.2.1-.2-.1.1-.1.2-.1.2zM122.6 49l-.1.1c.1 0 .1-.1.2-.1h-.1zM122 49.3c-.1 0-.1.1-.1.2l.2-.2c.1 0 0-.1-.1 0zM118.6 49.9l.1.1.1-.1-.1-.1c-.1 0-.1 0-.1.1zM117.9 55.7l.1-.1c-.1 0-.1.1-.1.1zM118.3 54.6c-.1 0-.2.1-.1.3 0 .1.1.2.2.1s.1-.2.2-.3c0-.1-.2-.2-.3-.1zM123.1 48.7s-.1 0-.1.1l.1-.1c.1 0 .1 0 0 0zM118.6 47.4c0-.1 0-.1 0 0-.1 0-.1 0 0 0zM118.7 54.2c-.1 0-.2.1-.2.2s0 .1.1.1c.1-.1.1-.2.2-.4 0 .1 0 .1-.1.1zM119.4 52.3c-.1 0-.1.1-.1.2s.1.1.2.1c0-.1.1-.2.1-.2-.1-.1-.2-.1-.2-.1zM123.7 48.5c-.1 0-.1 0 0 0-.1 0 0 0 0 0zM130.5 48.5c-.1 0-.1.1 0 0 0 .1.1.1.2.2v-.1c0-.1-.1-.1-.2-.1zM130 48.2c0-.1-.1-.1-.2-.1s-.1.1-.1.2v.1c.1 0 .1 0 .2.1 0-.1.1-.2.1-.3zM128 47.9c0-.1-.1-.1-.2-.1s-.1.1-.1.2h.3v-.1zM127.1 47.4s-.1.1-.1.2.1.1.2.1.1-.1.1-.2c-.1-.1-.2-.1-.2-.1zM131.8 49c-.1 0-.1.1-.1.2.1.1.2.1.3.2l.1-.1c0-.1-.1-.2-.1-.3h-.2zM131.5 48.7c0 .1.1.1.2.1h.1c-.1-.1-.1-.2-.2-.3 0 .1-.1.1-.1.2zM125.3 47.9c-.1 0-.1.1-.1.2h.2c.1-.2 0-.3-.1-.2zM127.2 47.9h0zM124.8 48.1c-.1 0-.1.1-.1.1.1 0 .2 0 .3-.1-.1 0-.1-.1-.2 0zM124.2 48.3h0zM126.1 47.8c0-.1-.1-.1-.2-.1s-.1.1-.1.2.1.1.1.1h.1c.1-.1.1-.1.1-.2zM131.4 48.2c0 .1.1.1.1.1 0-.1-.1-.1-.1-.2v.1zM129.1 48.1s-.1 0-.1.1c.1 0 .2 0 .3.1 0-.2 0-.2-.2-.2zM122.4 48.5s-.1.1 0 .1l.1.1c.1 0 .1-.1.1-.2h-.2zM121.9 48.7s-.1.1-.1.2.1.1.2.1.1-.1.1-.2c-.1 0-.1-.1-.2-.1zM123.5 48c-.1 0-.1.1-.1.2s.1.1.2.1.1-.1.1-.2-.1-.2-.2-.1zM121 49.9c-.1 0-.1.1-.1.2s.1.1.2.1.1-.1.1-.2-.1-.2-.2-.1zM123 48.2c-.1 0-.1.1-.1.2s.1.1.2.1c0 0 .1-.1.1-.2-.1 0-.2-.1-.2-.1zM123.6 47.5s-.1-.1-.1 0l-.1.1c0 .1.1.1.2.1-.1 0 0-.1 0-.2zM121.4 49.1s-.1.1-.1.2c0 0 .1.1.1 0 .1 0 .1-.1.1-.1.1-.1 0-.1-.1-.1zM120 50.5c-.1 0-.1.1-.1.2s.1.1.2.1.1-.1.1-.2c0 0-.1-.1-.2-.1zM120.3 49.4c.1 0 .1-.1.1-.1 0-.1-.1-.1-.2-.1 0 0-.1.1 0 .1 0 .1 0 .1.1.1zM120.5 50.2c-.1 0-.1.1-.1.2s.1.1.2.1.1-.1.1-.2c0 0-.1-.1-.2-.1zM120.5 49.8c0-.1-.1-.1-.2-.1 0 0-.1.1-.1.2s.1.1.2.1c.1-.1.2-.1.1-.2zM121.1 49.5c0-.1-.1-.1-.2-.1s-.1.1-.1.2.1.1.2.1c.1-.1.1-.2.1-.2zM120.9 49c0-.1-.1-.1-.2-.1 0 0-.1.1 0 .1l.1.1c.1 0 .1-.1.1-.1zM121.2 48.2l.1-.1-.1-.1-.1.1c0 .1 0 .2.1.1zM125.8 46.8l-.1-.1c-.1 0-.1.1-.1.2 0 0 .1.1.2.1v-.2zM126.5 47.1s-.1-.1-.2-.1-.1.1-.1.2.1.1.2.1.1-.1.1-.2zM125.8 47.2c-.1 0-.1.1-.1.2s.1.1.2.1c0 0 .1-.1.1-.2-.1-.1-.2-.1-.2-.1zM126.4 46.6s-.1-.1-.1 0l-.1.1c0 .1.1.1.2.1-.1 0 0-.1 0-.2zM127.1 47c0-.1-.1-.1-.2-.1 0 0-.1.1 0 .1l.1.1c.1.1.1 0 .1-.1zM126.5 47.5c-.1 0-.1.1-.1.2s.1.1.2.1.1-.1.1-.2c-.1-.1-.1-.1-.2-.1zM124.1 47.8s-.1.1-.1.2.1.1.2.1.1-.1.1-.2c-.1-.1-.1-.1-.2-.1zM124 46.8s-.1-.1-.1 0l-.1.1.1.1c0-.1.1-.1.1-.2zM124.1 47.3c0-.1-.1-.1-.2-.1 0 0-.1.1 0 .1l.1.1c.1 0 .1 0 .1-.1zM125.2 47.4s-.1.1-.1.2.1.1.2.1.1-.1.1-.2-.1-.2-.2-.1zM125.2 46.9s-.1-.1-.1 0l-.1.1c0 .1.1.1.1.1.1 0 .2-.1.1-.2zM124.7 47.5c-.1 0-.1.1-.1.2 0 0 .1.1.2.1 0 0 .1-.1.1-.2-.1 0-.2-.1-.2-.1zM118.6 53.7c-.1 0-.1.1-.1.2s.1.2.2.2.2-.1.1-.3c0-.1-.1-.2-.2-.1zM117.2 53.1c0 .1.1.1.2.1s.1-.1.1-.2-.1-.1-.2-.1c-.1.1-.1.2-.1.2zM117.4 51.5s-.1.1-.1.2.1.1.2.1.1-.1.1-.2-.1-.2-.2-.1zM117.6 52c-.1 0-.1.1-.1.2 0 0 .1.1.2.1s.1-.1.1-.2c-.1-.1-.1-.1-.2-.1zM117 51.9s-.1.1-.1.2c0 0 .1.1.2.1s.1-.1.1-.2c-.1-.1-.1-.1-.2-.1zM117.7 52.5c-.1 0-.1.1-.1.2s.1.1.2.1.1-.1.1-.2c-.1-.1-.1-.1-.2-.1zM117.1 52.4c-.1 0-.1.1-.1.2s.1.1.2.1.1-.1.1-.2c0 0-.1-.1-.2-.1zM118.2 52.1c-.1 0-.1.1-.1.2 0 0 .1.1.2.1s.1-.1.1-.2c-.1-.1-.2-.1-.2-.1zM118.5 51.1c-.1 0-.1.1-.1.2s.1.1.2.1c0 0 .1-.1.1-.2-.1 0-.2-.1-.2-.1zM118.4 52.9c.1 0 .1-.1.1-.2s-.1-.1-.2-.1-.1.1-.1.2.1.1.2.1zM120 50.2c0-.1-.1-.1-.2-.1l-.1.1c0 .1.1.1.2.1s.2-.1.1-.1zM118 51.6s-.1.1-.1.2.1.1.2.1.1-.1.1-.2-.1-.2-.2-.1zM117.8 51s-.1.1 0 .1l.1.1c.1 0 .1-.1.1-.1 0-.1 0-.1-.2-.1zM116.8 52.9s-.1.1-.1.2c0 0 .1.1.2.1s.1-.1.1-.2c-.1-.1-.1-.2-.2-.1zM118.3 50.7c-.1 0-.1.1-.1.2 0 0 .1.1.1 0l.1-.1c0-.1 0-.2-.1-.1zM119.2 51.8c-.1 0-.1.1-.1.2s.1.1.2.1.1-.1.1-.2-.1-.1-.2-.1zM119.6 51.2s.1-.1.1-.2-.1-.1-.2-.1-.1.1-.1.2c.1 0 .2.1.2.1zM118.9 52.7c-.1 0-.1.1-.1.2s.1.1.2.1.2-.1.2-.2c-.1-.1-.2-.1-.3-.1zM118.1 53.9c.1 0 .1-.1.1-.2s-.1-.1-.2-.1-.1.1-.1.2c0 0 .1.1.2.1zM119.7 51.4c-.1 0-.1.1-.1.2s.1.1.2.1.1-.1.1-.2-.1-.1-.2-.1zM119.8 49.8c.1 0 .1-.1.1-.2 0 0-.1-.1-.1 0l-.1.1.1.1zM116.6 52.3s-.1.1 0 .1l.1.1c.1 0 .1-.1.1-.2 0 .1-.1 0-.2 0zM117.9 55c-.1 0-.2.2-.1.3 0 .1.1.2.3.1.1 0 .2-.1.1-.3-.1 0-.2-.1-.3-.1zM117.5 55.4c.1 0 .2-.1.1-.3 0-.1-.1-.1-.2-.1s-.1.1-.1.2.1.2.2.2zM117.5 55.5c-.1 0-.2.1-.1.3 0 .1.2.2.3.1.1 0 .2-.1.1-.3-.1-.1-.2-.1-.3-.1zM118.2 54c-.1 0-.2.1-.1.3 0 .1.1.1.2.1s.1-.1.1-.2l-.2-.2zM118.6 53.5c.1 0 .1-.1.1-.2s-.1-.2-.2-.2-.1.1-.1.2c-.1.1 0 .2.2.2zM103.5 58.9l.1.1.1-.1-.1-.1c-.1 0-.1 0-.1.1zM104 56.2c.1 0 0 0 0 0zM103.9 57.9l.1-.1h-.1s-.1 0 0 .1c-.1-.1 0 0 0 0zM103.7 57.3c.1 0 .1 0 0 0v-.1.1zM104.1 58.9l.1.1.1-.1c0-.1-.1-.1-.1-.1-.1-.1-.1 0-.1.1zM104.3 57.2c.1 0 .1 0 0 0 .1-.1 0-.1 0-.1v.1c0 .1 0 0 0 0zM104.2 56.7v-.1.1zM103.9 58.3l.1.1.1-.1c0-.1-.1-.1-.2 0 .1-.1 0 0 0 0zM102.7 60.1s.1 0 .1-.1c0 0-.1 0-.1.1zM104.5 57.8l.1-.1h-.1v.1c-.1 0 0 0 0 0zM102.7 60.5c0 .1.1.1.2.1 0 0 .1-.1.1-.2s-.1-.1-.2-.1c-.1.1-.2.1-.1.2zM103.2 60c0 .1.1.1.2.1 0 0 .1-.1.1-.2 0 0-.1-.1-.2-.1s-.2.1-.1.2zM103.5 58.5l.1-.1-.1-.1-.1.1s0 .1.1.1zM103.2 59.6s.1-.1 0-.1l-.1-.1c-.1 0-.1.1-.1.1 0 .1.1.1.2.1zM103.6 56.8v-.1.1zM116.6 54.1s.1-.1.1-.2c0 0-.1-.1-.2-.1s-.1.1-.1.2.1.2.2.1zM112.3 52.7c-.1 0-.1 0 0 0-.1 0 0 0 0 0zM105 59.2c0-.1-.1-.1-.2-.1 0 0-.1.1 0 .1l.1.1c.1 0 .1 0 .1-.1zM112.4 53.3s0-.1 0 0v-.1s-.1 0 0 .1zM112.7 54.4l.1-.1h-.1s-.1 0-.1.1c0-.1.1 0 .1 0zM103.4 60.3c-.1 0-.1.1-.1.2 0 0 .1.1.2.1s.1-.1.1-.2l-.2-.1zM112.6 53.8v-.1c-.1 0-.1 0 0 .1-.1 0-.1 0 0 0zM104 60.3c-.1 0-.1.1-.1.2s.1.1.2.1.1-.1.1-.2-.1-.1-.2-.1zM104.6 59.8c0-.1-.1-.1-.2-.1 0 0-.1.1-.1.2 0 0 .1.1.2.1s.1-.1.1-.2zM104.6 60.3c-.1 0-.1.1-.1.2s.1.1.2.1.1-.1.1-.2c-.1-.1-.2-.2-.2-.1zM114.4 52.2v-.1c-.1 0-.1 0 0 .1zM103.8 59.4l-.1-.1c-.1 0-.1.1-.1.1 0 .1.1.1.2.1v-.1zM112.7 52.3h.1M104 59.9s-.1-.1-.2-.1-.1.1-.1.2.1.1.2.1c0-.1.1-.2.1-.2zM112.2 54.7l.1-.1h-.1v.1s0 .1 0 0zM113.6 53.6l.1-.1h-.1v.1c0-.1 0 0 0 0zM113.6 51.5 114 52.6v-.1c-.1 0-.1 0 0 .1-.1 0-.1 0 0 0zM113.8 52.1s.1 0 0 0V52v.1zM114.1 53.2v-.1h-.1s-.1 0-.1.1h.2zM114.2 51.6c.1 0 0 0 0 0zM113.5 53v-.1s-.1 0 0 .1c-.1.1 0 0 0 0zM113.2 54v-.1s0-.1-.1-.1l-.1.1c.1.1.2.1.2.1zM113.2 51.9c0 .1 0 0 0 0zM113 53.4v-.1.1zM113.3 52.5zM113.3 52.4c.1.1.1.1 0 0 .1 0 .1 0 0 0zM112.9 52.9c0-.1 0-.1 0 0-.1 0-.1 0 0 0zM104.4 59.3c0-.1-.1-.1-.2-.1 0 0-.1.1 0 .1l.1.1c.1 0 .2 0 .1-.1zM107.7 60.5c.1 0 .1-.1.1-.2s-.1-.1-.2-.1-.1.1-.1.2c.1 0 .1.1.2.1zM107.7 59.7s-.1-.1-.2-.1-.1.1-.1.2.1.1.2.1c0 0 .1-.1.1-.2zM108 59.2s.1-.1.1-.2-.1-.1-.2-.1-.1.1-.1.2c.1.1.1.2.2.1zM107.8 60.6c-.1 0-.1.1-.1.2s.1.1.2.1.1-.1.1-.2c0 0-.1-.1-.2-.1zM107.3 59.3c0 .1.1.1.2.1s.1-.1.1-.2c0 0-.1-.1-.2-.1-.1.1-.1.2-.1.2zM107.2 60.8c-.1 0-.1.1-.1.2s.1.1.2.1.1-.1.1-.2-.1-.1-.2-.1zM108.3 60.3c.1 0 .1-.1.1-.2s-.1-.1-.2-.1-.1.1-.1.2.1.1.2.1zM108.2 59.6c0-.1-.1-.1-.2-.1s-.1.1-.1.2.1.1.2.1c.1-.1.2-.1.1-.2zM108.4 60.5c-.1 0-.1.1-.1.2s.1.1.2.1.1-.1.1-.2-.1-.2-.2-.1zM108.7 59.6c.1 0 .1-.1.1-.2 0 0-.1-.1-.2-.1s-.1.1-.1.2c.1.1.1.1.2.1zM108.4 59c0 .1.1.1.2.1s.1-.1.1-.2c0 0-.1-.1-.2-.1 0 0-.1.1-.1.2zM107.2 58.7l-.1.1c0 .1.1.1.1.1.1 0 .1-.1.1-.2.1 0 0-.1-.1 0zM108.4 58.3l-.1.1c0 .1.1.1.1.1.1 0 .1-.1.1-.2h-.1zM106.9 59.6s.1-.1.1-.2-.1-.1-.2-.1-.1.1-.1.2.1.1.2.1zM106.1 59.2c.1 0 .1-.1.1-.2 0 0-.1-.1-.1 0l-.1.1c0 .1.1.1.1.1zM108.8 60.1c.1 0 .1-.1.1-.2s-.1-.1-.2-.1-.1.1-.1.2c.1.1.2.1.2.1zM105.9 60.6c-.1 0-.1.1-.1.2s.1.1.2.1.1-.1.1-.2-.1-.2-.2-.1zM105.8 60.4c.1 0 .1-.1.1-.2 0 0-.1-.1-.2-.1s-.1.1-.1.2c.1 0 .2.1.2.1zM105.3 60.6c-.1 0-.1.1-.1.2s.1.1.2.1.1-.1.1-.2c0 0-.1-.1-.2-.1zM105.3 60.4s.1-.1.1-.2-.1-.1-.2-.1-.1.1-.1.2.1.1.2.1zM107.1 59.9c0-.1-.1-.1-.2-.1s-.1.1-.1.2.1.1.2.1c.1-.1.1-.1.1-.2zM107.2 60.6c.1 0 .1-.1.1-.2s-.1-.1-.2-.1-.1.1-.1.2.1.1.2.1zM105.2 59.8c0-.1-.1-.1-.2-.1 0 0-.1.1 0 .1l.1.1c.1 0 .1-.1.1-.1zM106.3 59.5s-.1-.1-.2-.1c0 0-.1.1-.1.2s.1.1.2.1.2-.1.1-.2zM106.6 60s-.1-.1-.2-.1c0 0-.1.1-.1.2s.1.1.2.1c0 0 .1-.1.1-.2zM106.5 60.4c-.1 0-.1.1-.1.2s.1.1.2.1.1-.1.1-.2c0 0-.1-.1-.2-.1zM105.8 59.6s-.1-.1-.2-.1-.1.1-.1.2.1.1.2.1.1-.1.1-.2zM116.5 55c0-.1-.1-.1-.1-.1 0 .1.1.2.1.2V55zM114.8 53.6s0 .1 0 0c0 .1 0 .1.1.1l-.1-.1zM115.6 53.8s-.1-.1-.2-.1-.1.1-.1.1c.1 0 .1.1.2.1 0 0 .1 0 .1-.1zM116.3 54.4c0-.1-.1-.1-.2-.1h-.1l.2.2c.1 0 .1 0 .1-.1zM116.6 55.5s0-.1-.1-.1v.3c.1-.1.1-.2.1-.2zM116.6 56.2c.1 0 .1-.1.1-.2s-.1-.2-.2-.2v.4h.1zM112 56.6s.1.1.2.1v-.2h-.1c0-.1-.1.1-.1.1zM114.4 53.6l-.1-.1s-.1 0-.1.1.1.1.2 0c0 .1 0 .1 0 0zM111.3 59.5c0-.1-.1-.1-.2-.1s-.1.1-.1.2.1.1.2.1.1-.1.1-.2c0 .1 0 0 0 0zM112.2 57.1c0-.1 0-.1 0 0 0-.1 0-.1 0 0zM111.9 58.5s.1 0 0 0c.1-.1.1-.1.1-.2-.1 0-.1.1-.1.2zM116.5 56.5c.1 0 .2-.1.4-.1-.1 0-.1-.1-.2-.1l-.2.2zM112.3 55.1l-.1.1.1.1v-.2c.1 0 0 0 0 0zM111.5 59.3c0-.1.1-.1.1-.2-.1 0-.1.1-.1.2zM116.8 54.7c.1 0 .1-.1.1-.2s-.1-.1-.2-.1-.1.1-.1.2c0 0 0 .1.2.1zM116.5 53.6s.1-.1.1-.2-.1-.1-.2-.1-.1.1-.1.2c0 0 .1.1.2.1zM116.3 52.9l-.1-.1c-.1 0-.1.1-.1.2s.1.1.2.1c0-.1.1-.2 0-.2zM116.2 52.5l.1-.1c0-.1-.1-.1-.1-.1-.1 0-.1.1-.1.2h.1zM117 55.4c-.1 0-.2.1-.2.2s.1.2.3.1c.1 0 .1-.1.1-.2 0 0-.1-.1-.2-.1zM116.9 55.2c.1 0 .1-.1.1-.2s-.1-.1-.2-.1-.2.1-.2.2c.1.1.2.2.3.1zM103.3 57.9zM115.2 53.2s-.1.1 0 .1l.1.1.1-.1c-.1-.1-.1-.1-.2-.1zM115.2 52.7l-.1-.1-.1.1.1.1c.1 0 .1 0 .1-.1zM117.1 55.9c-.1 0-.2.1-.1.3 0 .1.1.1.1.1.1-.1.2-.1.3-.2V56s-.2-.1-.3-.1zM115.8 52.8l-.1-.1-.1.1c0 .1.1.1.1.1.1 0 .1 0 .1-.1zM116 53.3c0-.1-.1-.1-.2-.1s-.1.1-.1.2c0 0 .1.1.2.1 0 0 .1-.1.1-.2zM115.9 53.8c-.1 0-.1.1-.1.2s.1.1.2.1.1-.1.1-.2-.1-.2-.2-.1zM103.6 60.8zM115.2 51.3h.1s0-.1-.1-.1v.1zM115.3 49.7zM115.5 50.2s0 .1 0 0zM115.3 51.8l.1.1v-.1c0-.1 0-.1-.1 0 0-.1 0-.1 0 0zM115.6 50.8h.1v-.1l-.1-.1v.2zM115.4 52.3l.1.1.1-.1-.1-.1-.1.1zM110.6 60.3c.1 0 .1-.1.2-.1-.2 0-.2 0-.2.1zM114.7 51.2c0-.1 0-.1 0 0-.1-.1-.1-.1 0 0zM115.1 50.7v-.1c-.1 0-.1 0 0 .1zM115.8 51.4v-.1h-.1s-.1 0-.1.1c.1-.1.2 0 .2 0zM114.8 51.7v-.1c-.1 0-.1 0 0 .1zM114.9 52.3h.1l.1-.1-.1-.1c-.1.1-.1.1-.1.2zM115 50.2c-.1 0 0 0 0 0zM114.7 53.3l.1-.1-.1-.1-.1.1c0 .1.1.1.1.1zM106.8 61.1c0-.1-.1-.1-.2-.1s-.1.1-.1.2c0 0 0 .1.1.1h.2c0-.1.1-.1 0-.2zM107.9 61.1s-.1 0-.1.1H108.1c0-.1-.1-.1-.2-.1zM109.1 60.8c-.1 0-.1.1-.1.2.1 0 .2-.1.3-.1-.1-.1-.2-.1-.2-.1zM108.5 61c-.1 0-.2.1-.2.2.1 0 .2 0 .4-.1 0-.1-.1-.1-.2-.1zM110.2 60.4c-.1 0-.1.1-.2.2.1-.1.2-.1.3-.2h-.1zM109.6 60.6c-.1 0-.1.1-.1.2.1 0 .2-.1.4-.1-.1-.1-.2-.2-.3-.1zM104.9 60.9c0-.1-.1-.1-.2-.1s-.1.1-.1.2.1.1.1.1c.2-.1.3-.2.2-.2zM114.6 52.7c.1-.1 0-.1 0-.1l-.1.1h.1zM104.3 60.9c0-.1-.1-.1-.2-.1s-.1.1-.1.1c.1 0 .2 0 .3.1v-.1zM105.5 61.1c-.1 0-.1 0 0 0 0 0 .1.1.2.1-.1-.1-.2-.1-.2-.1zM106.3 61.1c0-.1-.1-.1-.2-.1s-.1.1-.1.1h.4c-.1.1-.1.1-.1 0zM115.9 51.9l.1.1.1-.1-.1-.1c-.1-.1-.1 0-.1.1zM108.9 55.9c.1 0 .1 0 0 0v-.1c-.1 0-.1.1 0 .1 0 .1 0 .1 0 0zM108.1 55.1s-.1 0 0 0zM108 56.9l.1-.1h-.1s-.1 0 0 .1c-.1 0-.1 0 0 0zM107.1 56.1V56c-.1 0-.1 0 0 .1zM108.2 55.7c0-.1 0-.1 0 0 0-.1 0-.1 0 0 0-.1 0 0 0 0zM108 57.4l.1.1.1-.1-.1-.1c-.1 0-.1.1-.1.1zM107.8 56.4c.1 0 .1 0 0 0v-.1.1zM107.1 58.2l-.1.1.1.1.1-.1c0-.1-.1-.2-.1-.1zM107.6 58.1s.1.1.1 0l.1-.1-.1-.1c-.1.1-.2.2-.1.2zM108.1 57.9c0 .1.1.1.1.1s.1-.1 0-.1l-.1-.1c.1 0 0 .1 0 .1zM107.4 57.1V57l-.1.1h.1zM107.3 56.6v-.1c-.1 0-.1 0 0 .1-.1 0-.1 0 0 0zM107.6 57.6l.1-.1-.1-.1-.1.1s0 .2.1.1zM107.7 55.9v-.1.1c-.1 0 0 0 0 0zM107.7 58.6s.1.1.2.1c0 0 .1-.1 0-.1l-.1-.1c-.1 0-.1.1-.1.1zM109.1 56.9c0 .1.1.1.1.1s.1 0 .1-.1h-.2c.1 0 0 0 0 0zM109.3 55.2v-.1.1zM109 56.4s.1.1 0 0c.1.1.1 0 .1 0 .1 0 0-.1-.1 0zM109.4 55.7c.1 0 .1 0 0 0 .1-.1 0-.1 0-.1v.1zM108.4 56.2v-.1s-.1 0-.1.1h.1zM108.8 58.2c0 .1.1.1.2.1 0 0 .1-.1 0-.1l-.1-.1c-.1 0-.1.1-.1.1zM109.3 57.5l.1.1.1-.1c0-.1-.1-.1-.1-.1-.1 0-.2 0-.1.1zM108.7 54.9h-.1M108.7 57.3v-.1s0-.1-.1-.1l-.1.1c.1 0 .2.1.2.1zM108.6 56.7v-.1h-.1s-.1 0-.1.1h.2zM108.7 57.7s.1.1.1 0l.1-.1-.1-.1c-.1.1-.1.1-.1.2zM104.6 58.3s.1 0 .1-.1h-.1s-.1 0 0 .1zM108.8 55.4v-.1.1c-.1 0 0 0 0 0zM105.2 58.2l.1-.1-.1-.1-.1.1c0 .1.1.1.1.1zM105.4 59.2c0 .1.1.1.2.1 0 0 .1-.1 0-.1l-.1-.1c-.1 0-.1.1-.1.1zM105.5 57v-.1s-.1 0 0 .1zM105.3 58.7l.1.1.1-.1-.1-.1c-.1 0-.1 0-.1.1zM105.7 57.6l.1-.1h-.1s-.1 0 0 .1c-.1 0-.1 0 0 0zM105.8 55.8zM105.4 56.5v-.1.1c-.1.1 0 0 0 0zM105.7 58l.1.1.1-.1-.1-.1-.1.1zM104.8 56.7v-.1c-.1 0-.1 0 0 .1 0-.1 0 0 0 0zM104.7 58.8l.1.1c.1 0 .1-.1.1-.1 0-.1-.1-.1-.2-.1 0 0-.1 0 0 .1zM104.6 56.1zM106.9 57.8l.1.1.1-.1-.1-.1c-.1 0-.2 0-.1.1zM104.9 57.2s.1 0 0 0v-.1.1zM109.6 56.2l.1-.1h-.1v.1zM105.1 57.7v-.1h-.1s-.1 0-.1.1h.2zM106.6 59s.1.1.2.1c0 0 .1-.1 0-.1l-.1-.1c-.1-.1-.1 0-.1.1zM106.7 56.8v-.1c-.1 0-.1 0 0 .1-.1 0 0 0 0 0zM106.4 58.4l.1.1.1-.1-.1-.1-.1.1zM106.8 57.3l.1-.1h-.1v.1zM106.6 56.2h-.1.1zM107 55.5c-.1 0-.1 0 0 0-.1 0-.1 0 0 0zM106.4 55.7l-.1-.1.1.1M106.1 56.9v-.1.1zM106 56.4v-.1c-.1 0-.1 0 0 .1-.1 0-.1 0 0 0zM105.8 58.6c0 .1.1.1.1.1.1 0 .1-.1.1-.2 0 0-.1-.1-.1 0-.1 0-.1 0-.1.1zM106.4 58l.1-.1-.1-.1-.1.1c0 .1.1.1.1.1zM106.3 57.4v-.1l-.1.1h.1zM111.6 54.5v-.1.1c-.1 0 0 0 0 0zM110.5 59.4c.1 0 .1-.1.1-.2s-.1-.1-.2-.1-.1.1-.1.2c.1.1.1.2.2.1zM110.4 56.8c-.1 0-.1.1-.1.1s.1.1.1 0l.1-.1c0 .1 0 0-.1 0zM110.6 59.6c-.1 0-.1.1-.1.2s.1.1.2.1.1-.1.1-.2l-.2-.1zM110.7 58.5c0 .1.1.1.2.1 0 0 .1-.1.1-.2 0 0-.1-.1-.2-.1 0 .1-.1.2-.1.2zM109.7 54.4zM111 58.8c-.1 0-.1.1-.1.2s.1.1.2.1.1-.1.1-.2c-.1-.1-.1-.1-.2-.1zM111.9 57.4c0-.1-.1-.1-.2-.1s-.1.1-.1.2.1.1.2.1c.1-.1.1-.2.1-.2zM111.9 57.8c-.1 0-.1.1-.1.2s.1.1.2.1.1-.1.1-.2c-.1-.1-.1-.1-.2-.1zM111.3 57.8s.1-.1.1-.2c0 0-.1-.1-.2-.1s-.1.1-.1.2.1.1.2.1zM112.1 54.2s0-.1 0 0v-.1c-.1 0-.1 0 0 .1zM110.7 57.8c-.1 0-.1.1-.1.2s.1.1.2.1c0 0 .1-.1.1-.2 0 0-.1-.1-.2-.1zM111.5 58.2c0-.1-.1-.1-.2-.1s-.1.1-.1.2.1.1.2.1c.1-.1.2-.2.1-.2zM111.5 58.6c-.1 0-.1.1-.1.2s.1.1.2.1.1-.1.1-.2-.1-.2-.2-.1zM109.8 59.1c.1 0 .1-.1.1-.2s-.1-.1-.2-.1-.1.1-.1.2c.1.1.1.2.2.1zM108.9 60.3c-.1 0-.1.1-.1.2s.1.1.2.1.1-.1.1-.2-.1-.1-.2-.1zM109.1 58.6c-.1 0-.1.1-.1.2s.1.1.2.1c0 0 .1-.1 0-.1 0-.2-.1-.2-.1-.2zM109.5 60.1c-.1 0-.1.1-.1.2s.1.1.2.1.1-.1.1-.2-.1-.1-.2-.1zM110.5 58.7c0-.1-.1-.1-.2-.1s-.1.1-.1.2.1.1.2.1c0 0 .1-.1.1-.2zM109.2 59.1c-.1 0-.1.1-.1.2s.1.1.2.1c0 0 .1-.1.1-.2s-.1-.1-.2-.1zM109.5 58.5s.1.1.2.1.1-.1.1-.2-.1-.1-.2-.1c-.1.1-.1.2-.1.2zM109.4 59.9c.1 0 .1-.1.1-.2s-.1-.1-.2-.1-.1.1-.1.2l.2.1zM109.9 57.1s-.1.1 0 .1l.1.1c.1 0 .1-.1.1-.1-.1-.1-.2-.1-.2-.1zM110 59.7c.1 0 .1-.1.1-.2s-.1-.1-.2-.1-.1.1-.1.2.1.1.2.1zM110 59.9c-.1 0-.1.1-.1.2s.1.1.2.1.1-.1.1-.2-.1-.2-.2-.1zM110 58.3s.1.1.2.1.1-.1.1-.2-.1-.1-.2-.1c0 0-.1.1-.1.2zM111.9 56.1l.1.1.1-.1-.1-.1c-.1 0-.1 0-.1.1zM110 57.6s-.1.1 0 .1l.1.1c.1 0 .1-.1.1-.1 0-.1-.1-.1-.2-.1zM110.6 57.4c-.1 0-.1.1-.1.1 0 .1.1.1.2.1 0 0 .1-.1 0-.1 0-.1-.1-.2-.1-.1zM110.9 56.7l.1.1.1-.1-.1-.1c-.1 0-.1 0-.1.1zM110.8 53.8s0-.1 0 0zM110.5 55.1c.1 0 .1 0 0 0V55v.1s0 .1 0 0zM110.7 55.7v-.1l-.1.1h.1zM110.8 56.2l.1.1.1-.1-.1-.1c-.1 0-.2 0-.1.1zM110.9 54.3s0-.1 0 0h-.1.1c.1 0 0 0 0 0zM110.4 54.6s-.1 0 0 0zM109.9 54.9s-.1 0 0 0c-.1 0-.1 0 0 0-.1 0-.1 0 0 0zM110 55.4v-.1c-.1 0-.1.1 0 .1 0 0 0 .1 0 0zM109.7 56.7s0 .1 0 0c.1.1.1 0 .1 0s0-.1-.1 0zM110.2 56v-.1l-.1.1h.1zM110.3 56.5l.1-.1-.1-.1-.1.1c0 .1.1.1.1.1zM110.3 54c-.1.1-.1.1 0 0-.1.1 0 .1 0 0zM111.7 55l.1-.1h-.1c-.1 0-.1.1 0 .1 0 0 0 .1 0 0zM111.5 56.9s.1.1.1 0l.1-.1c0-.1-.1-.1-.2-.1.1.1 0 .1 0 .2zM109.5 57.9s-.1.1-.1.2c0 0 .1.1.1 0l.1-.1c0-.1-.1-.1-.1-.1zM111.9 53.6c.1 0 .1 0 0 0 .1 0 .1 0 0 0 0 0-.1 0 0 0zM111.8 53.1c-.1 0-.1 0 0 0zM111.4 56.4l.1.1.1-.1c0-.1-.1-.1-.1-.1-.1-.1-.1 0-.1.1zM111.8 55.5l.1.1.1-.1-.1-.1s-.2.1-.1.1zM111.5 53.9h-.1.1c0 .1 0 0 0 0zM111.2 55.4l.1-.1h-.1s-.1-.1 0 .1c-.1 0 0 0 0 0zM111 57.2c0 .1.1.1.2.1 0 0 .1-.1 0-.1l-.1-.1c-.1 0-.1.1-.1.1zM111.3 53.4zM111.2 55.8c0 .1.1.1.1.1s.1 0 .1-.1h-.2c.1 0 0 0 0 0zM111 54.8c.1 0 .1 0 0 0v-.1.1z"/></g></svg>