<svg xmlns="http://www.w3.org/2000/svg" viewBox="0 4 216 208"><path fill="none" d="M98.5 49.5c-4.1 3.6-7.2 8.5-12.9 11.1 3.4 1.3 6.5 2.6 9.3 3.8.8-4.6 2.2-12.1 3.7-15.1 0 .1 0 .2-.1.2zM85.8 60.9c-.1-.1-.2-.2-.3-.2h-.1c.1.1.3.2.4.2zM145.3 78.4c-2 .2-3.1-.1-5.1-1.1-.3-.1-.6-.4-1-.7.1 1.5.2 3 .4 4.4 2.5-1.6 4.5-2.4 5.7-2.6z"/><path fill="#ED2126" d="M96.9 5.1c-.2 0-.4.1-.6.1.2 0 .4 0 .6-.1z"/><path fill="#ED2126" d="M87.3 13.8c0 .2.3.7.6.9.8.7 1.6 1.1 2.6 1.4.8.2 1.5 0 2.2.1.7.1.6.5.9 1.2.4 1 .4 1.1 1.4 1.1.7 0 1.3.2 1.9.4 1.7.6 2.3 1.3 3 3 .3-.1.7-.2 1-.1-.4-1.6-1.5-3.3-.1-4.8.9-1 2.6-1.8 3.8-1 1.3.8.9 2.3 1.4 3.4.5.9 2.2 2 3.3 2.1-.2-.2-.4-.5-.4-.9.9.6 2.1 0 3-.1-.1-.4-.3-.7-.5-1.1-1-1.1-1.8-2.2-2.2-3.3-1.2-2.6-4.2-9.1-7.4-10.8-1.4-.7-3-.7-4.7-.4-.2.1-.4.1-.6.1-4.4 1.1-8.7 4.6-8.7 4.6s-3.3 2.7-3.8 8.5c1.4-1.2 2.7-2.4 3.3-4.3z"/><path d="M111.8 20.6c-.1-.4-.3-.7-.5-1.1-.3-.6-.6-1.2-.7-2-.3-1.6-1.3-2.6-2-4.1-.8-1.7-1.1-3.7-2.5-5-.4-.4-.8-.5-1.1-.8-.1-.1-.4 0-.5-.1-.3-.3-.3-1.3-.6-1.8-.7-1.3-2.2-1.9-3.7-1.7-1 .1-1.9.5-2.8.9-.1 0-.3.1-.4.2-.2.1-.4.1-.6.1h-.3c-.5-.1-.8-.8-1.3-1-.4-.1-1-.2-1.4-.1-1.8.2-3.8 1.3-5.4 2.2-1.1.6-1.7 1.5-2.6 2.2-.9.7-1.6 1.4-2.5 2.1-.7.6-1.9 2-2.8 2.1.3.2.6.3.9.6-.2.7-1.7 1.5-2.1.8-.1.8.5 1.2.9 1.8-.9 1.1-1.1 2.1-1 3.4.8-.1 1.7-.7 2.4.1-.2.3-1.2 1.3-1 1.8.1.3.8.2 1.1.2 0 1.1 1.1 1.4 2.1 1.3-.1-.8-.7-1.4-.6-2.2 0-.9.6-1.6 1.2-2.2 1.4-1.3 2.7-2.5 3.3-4.4 0 .2.3.7.6.9.8.7 1.6 1.1 2.6 1.4.8.2 1.5 0 2.2.1.7.1.6.5.9 1.2.4 1 .4 1.1 1.4 1.1.7 0 1.3.2 1.9.4 1.7.6 2.3 1.3 3 3 .3-.1.7-.2 1-.1-.4-1.6-1.5-3.3-.1-4.8.9-1 2.6-1.8 3.8-1 1.3.8.9 2.3 1.4 3.4.5.9 2.2 2 3.3 2.1-.2-.2-.4-.5-.4-.9.7.6 1.9 0 2.9-.1z"/><path fill="#F29220" d="M121.1 28.1c-3.1-2.3-7.1-5.5-9.8-8.6.1.3.3.7.5 1.1-.9.1-2.1.7-3 .1 0 .3.2.6.4.9-1-.1-2.8-1.2-3.3-2.1-.6-1.1-.1-2.5-1.4-3.4-1.2-.8-2.9 0-3.8 1-1.4 1.5-.2 3.3.1 4.8-.3-.1-.7-.1-1 .1-.6-1.7-1.2-2.4-3-3-.6-.2-1.2-.4-1.9-.4-1 0-1-.1-1.4-1.1-.3-.7-.3-1.1-.9-1.2-.7-.1-1.4.1-2.2-.1-1-.3-1.9-.7-2.6-1.4-.2-.2-.6-.7-.6-.9-.6 1.8-1.9 3-3.3 4.4-.1 1.3 0 2.9.2 4.5.5 2.7 1.8 5.2 3 9.3l3.6-1.8 1.1 2.4 1.8-1s-.1.8-.1 1.2c-.1.6-1.6 1.1.5 1.6v.4c6.5-1.1 12.7-2.4 18-3.6 4-1 7.5-1.9 9.9-2.8-.2-.1-.5-.2-.8-.4zM214.4 201.7s-4-10.4-17.5-6.9c0 0-3.1-5.5-7.7-3.9 0 0-3.9 2-6.6 3.7 0 0-9.9 1.2-17.5-3.6-7.7-4.8-23.6-16.7-37-5.4 0 0 7.7-8.8 13.4-17.1 4.6-6.7 15.2-23.6 17.2-38.7 3.5-16.9-13.7-31.6-13.7-31.6-.2-.3-.4-.6-.6-1 11.3-1.2 22-3.3 25.2-6.8 1-.3 5-5.5 5.1-7.5.1-1.9-1.9-6.5-1.9-6.5s-5.4-9.7-10.5-12.4c0 0-9.3-18.6-22.1-20.3 0 0-.6-1.6-2-3.5-2.5-3.5-7.6-8.3-15.9-6.3-.7.1-1.3.3-2 .6-4.6 1.6-7.5 4.7-8.8 8.3-4.9 1.7-9.8 3.9-12.8 6.5-1.4 3-2.9 10.5-3.7 15.1 20.2 9 28.1 17.6 31.2 23 5.4-1.8 8.9-3 12.2-5.5.4-.3.9-.7 1.3-1-.1-1.5-.3-3-.4-4.4-2.8-2.4-8-9.5-8-9.5-7.2 1.1-12.5-4-12.5-4-4.8-1.4-7.7-6.1-8.1-11.2 1 4.9 4.1 9.2 8.7 10.6 0 0 4.6 4.7 11.9 3.5 0 0 8.4 9.9 10.7 11 1.9 1 3 1.3 5.1 1.1-1.5.4-4 1.3-6.9 3.6-3.5 2.8-7.5 4-13.8 6 1.9 3.4 1.9 5.5 1.9 5.5.2 1.8.2 3.5.1 5.2-.6 11.3-7 18.8-13.2 23.5 1 1.7 2 3.1 2.9 4.4.3 2 .8 4.1 1.4 6.3 0 0-22.8 34.2-21.2 71.2H216c0 .1.5-2-1.6-2z"/><path fill="#3D5BA9" d="M141.4 22.9c1-3.6.3-7.7-1.8-10.9-.4-.7-1.2-1.4-1.9-1.1 0-.4 0-.9-.3-1.3-.2-.4-.7-.7-1.2-.6 0-.5-.1-1.1-.4-1.5-.3-.4-1-.7-1.4-.5 0-.5 0-1-.3-1.4-.2-.4-.6-.8-1.1-.8-.9 0-1.2 1-1.1 1.8-.8-.6-1.9-1-2.8-.7-.9.3-1.4 1.4-.8 2.2.3.4.8.6 1.2.8 1.8 1 3 3 2.9 4.9 0 1.7-.3 2.6-1.1 4-1.4 2.2-3.1 5.7-5.1 8.7-.7.7-2.1 1.4-4 2.2-2.5 1-5.9 1.9-9.9 2.8-5.3 1.2-11.5 2.5-18 3.6-20.6 3.7-43.5 6.6-43.5 6.6l-8 2.9-1.5 5.1s6.4 15.4 10 21.9c.8-.5 1.6-.9 2-1.1 1.4-.6 2.8-1.4 4.3-1.7.8-.1 1.2.1 1.6.8.9 1.3-1 2.8-2 3.5-.1.1-.2.2-.4.3.7-.3 1.4-.5 2.2-.7.8-.1 1.2.1 1.6.8.6 1-.2 2.1-1.1 2.9.3-.1.6-.1 1-.2.7-.1 1.1.2 1.6.9.9 1.3-.7 2.7-1.6 3.3-.2.1-.4.3-.6.4h.1c.4 0 .7.1 1 .6.6.9-.4 1.7-1 2.1-.1.1-.2.1-.3.2 4.1 5 10.1 11.1 19.2 17.8-7.8 8.6-17.2 21.1-19.6 35.8 0 0-5.7 3.6-7.2 10 0 0-8 5.3-7.8 14.7 0 0 .1 5.7.6 11.7-.8-.1-1.2-.5-1.2-.5s-.3-2.7-1.6-3.6c-1.3-.9-2.8.3-2.8.3-.1.3-.6 1-.6 1-1.5-.4-1.7 1.8-1.7 1.8l-1.1-1.1-1.8 1.9-2.1-3.2c-3.4 2.3-5.7 4.7-7.4 6.9-3.1 4.3-3.4 8-3.1 10.5 6.3-1.1 16.3-1.6 24.9-1.9 0 .1 0 .2.1.3v.7c-9.6.3-20.7.9-26.5 2.3-1.3.3-6.4 2.9-6.4 2.9s-6 .2-7.4 1.5c0 0-3.7 3.2-4.9 3.9-.8.5-1.4 1.7-.9 2.9.3.8 1 1.5 2.3 2.2 0 0 1.7.5 3.3 2.4s9.6 9.9 23.1 6.3c13.5-3.7 29.6-1.8 29.6-1.8s1.1 0 3.2-.4c5 .1 34.7-.3 31.6-28.2-1.8-16.2-4-39.3 9.7-52.2 0 0 6-1.9 12.2-6.6 6.2-4.7 12.6-12.2 13.2-23.5.1-1.6 0-3.4-.1-5.2 0 0 0-2.1-1.9-5.5 0-.1-.1-.2-.1-.2-3.1-5.4-11-14-31.2-23-2.9-1.3-6-2.6-9.3-3.8 5.6-2.6 8.8-7.5 12.9-11.1l.1-.1c3-2.6 7.8-4.8 12.8-6.5 1.4-3.6 4.2-6.7 8.8-8.3.7-.2 1.4-.4 2-.6 8.4-2 13.4 2.7 15.9 6.3.6-.1 1.1-.4 1.8-.8.1-.1 2.2 0 .4-6.2-.5-1.7-.8-3.5-.6-5.2 0-2 .8-3.6 1.3-5.4zm-55.6 38c-.1 0-.2-.1-.4-.2h.1c.1 0 .2.1.3.2z"/><path fill="#F29220" d="M61.7 76.8c-.4-.7-.9-1-1.6-.9-.3 0-.6.1-1 .2.9-.8 1.8-1.9 1.1-2.9-.4-.6-.9-.9-1.6-.8-.7.1-1.4.4-2.2.7.1-.1.2-.2.4-.3 1-.7 2.8-2.2 2-3.5-.4-.6-.9-.9-1.6-.8-1.5.3-2.9 1-4.3 1.7-.3.1-1.1.6-2 1.1-1.2.8-2.3 1.8-1.8 2.6.2.8.9 1.9 1.8 2h.4c-.8.7-1.3 1.4-1 2 .2.8.9 2 1.8 2h.5c0 .2 0 .5.1.7.3.8 1 2 1.9 2.1h.3c-.1.2-.2.5 0 .7.2.5.7 1.3 1.2 1.4.4.1.9-.1 1.2-.3.6-.3 1.1-.7 1.7-1.1.1-.1.2-.1.3-.2.5-.4 1.5-1.2 1-2.1-.3-.4-.6-.6-1-.6h-.1c.2-.1.4-.3.6-.4 1.2-.6 2.8-1.9 1.9-3.3z"/><path d="M87.7 24.3c-.2.3-.5.6-.9.7.1-.9 1-1.9 1.9-2.6.7-.5 1.6-1.1 2.2-.9.3.1.6.4.5.7-1.3.3-2.7 1.1-3.7 2.1zM87.9 26.2c-.2-.3.1-.8.7-1.2.6-.4 1.4-.5 1.7-.2-.7.1-.9 1.5-1.6 1-.1 0 0 .1-.1.2 0 .1-.2.2-.3.2-.2.1-.3.1-.4 0zM30.7 180.8c0 .4-.4.5-.7.4-.7-.1-1.2-1-1.6-1.8-.5-1.1-.9-2.3-.6-3.2.3.2.4.6.5 1 .3 1.5 1.3 2.8 2.4 3.6zM29.6 175.7c.1.1.1.2.2.3 0 .1-.1.3 0 .2.9 0 .5 1.2 1.1 1.6-.3.1-1.1-.3-1.4-.9-.4-.6-.4-1.1-.1-1.3-.1 0 0 0 .2.1z"/><g><path d="M39.6 177c2.6-.6 3.5-2.6 3.7-3.9-.3-.1 0 0 0 0s-.3-2.7-1.6-3.6c-1.3-.9-2.8.3-2.8.3v.1c1.2 1.6 2.9 4.4.6 5.8 0 0-1.7 1.1-4.1-4l-1.2 1.3c.3.8 2 4.8 5.4 4z"/></g><path d="M39.1 169.7l1.8-1.2s1.2.9 1.5 1.6l-3.3-.4z"/></svg>