<?xml version="1.0" encoding="utf-8"?>
<!-- Generator: Adobe Illustrator 18.1.1, SVG Export Plug-In . SVG Version: 6.00 Build 0)  -->
<svg version="1.1" id="REARSEARCH_x0D_METHOD" xmlns="http://www.w3.org/2000/svg" xmlns:xlink="http://www.w3.org/1999/xlink"
	 x="0px" y="0px" viewBox="0 4 216 208" enable-background="new 0 4 216 208" xml:space="preserve">
<g>
	<path fill="none" d="M98.5,49.5c-4.1,3.6-7.2,8.5-12.9,11.1c3.4,1.3,6.5,2.6,9.3,3.8c0.8-4.6,2.2-12.1,3.7-15.1
		C98.6,49.4,98.6,49.5,98.5,49.5z"/>
	<path fill="none" d="M85.8,60.9c-0.1-0.1-0.2-0.2-0.3-0.2c0,0,0,0-0.1,0C85.5,60.8,85.7,60.9,85.8,60.9z"/>
	<path fill="none" d="M145.3,78.4c-2,0.2-3.1-0.1-5.1-1.1c-0.3-0.1-0.6-0.4-1-0.7c0.1,1.5,0.2,3,0.4,4.4
		C142.1,79.4,144.1,78.6,145.3,78.4z"/>
	<path fill="#ED2126" d="M96.9,5.1c-0.2,0-0.4,0.1-0.6,0.1C96.5,5.2,96.7,5.2,96.9,5.1z"/>
	<path fill="#ED2126" d="M87.3,13.8c0,0.2,0.3,0.7,0.6,0.9c0.8,0.7,1.6,1.1,2.6,1.4c0.8,0.2,1.5,0,2.2,0.1c0.7,0.1,0.6,0.5,0.9,1.2
		c0.4,1,0.4,1.1,1.4,1.1c0.7,0,1.3,0.2,1.9,0.4c1.7,0.6,2.3,1.3,3,3c0.3-0.1,0.7-0.2,1-0.1c-0.4-1.6-1.5-3.3-0.1-4.8
		c0.9-1,2.6-1.8,3.8-1c1.3,0.8,0.9,2.3,1.4,3.4c0.5,0.9,2.2,2,3.3,2.1c-0.2-0.2-0.4-0.5-0.4-0.9c0.9,0.6,2.1,0,3-0.1
		c-0.1-0.4-0.3-0.7-0.5-1.1c-1-1.1-1.8-2.2-2.2-3.3c-1.2-2.6-4.2-9.1-7.4-10.8c-1.4-0.7-3-0.7-4.7-0.4c-0.2,0.1-0.4,0.1-0.6,0.1
		c-4.4,1.1-8.7,4.6-8.7,4.6s-3.3,2.7-3.8,8.5l0,0C85.4,16.9,86.7,15.7,87.3,13.8z"/>
	<path d="M111.8,20.6c-0.1-0.4-0.3-0.7-0.5-1.1c-0.3-0.6-0.6-1.2-0.7-2c-0.3-1.6-1.3-2.6-2-4.1c-0.8-1.7-1.1-3.7-2.5-5
		c-0.4-0.4-0.8-0.5-1.1-0.8c-0.1-0.1-0.4,0-0.5-0.1c-0.3-0.3-0.3-1.3-0.6-1.8c-0.7-1.3-2.2-1.9-3.7-1.7c-1,0.1-1.9,0.5-2.8,0.9
		c-0.1,0-0.3,0.1-0.4,0.2c-0.2,0.1-0.4,0.1-0.6,0.1c-0.1,0-0.2,0-0.3,0c-0.5-0.1-0.8-0.8-1.3-1c-0.4-0.1-1-0.2-1.4-0.1
		c-1.8,0.2-3.8,1.3-5.4,2.2c-1.1,0.6-1.7,1.5-2.6,2.2c-0.9,0.7-1.6,1.4-2.5,2.1c-0.7,0.6-1.9,2-2.8,2.1c0.3,0.2,0.6,0.3,0.9,0.6
		c-0.2,0.7-1.7,1.5-2.1,0.8c-0.1,0.8,0.5,1.2,0.9,1.8c-0.9,1.1-1.1,2.1-1,3.4c0.8-0.1,1.7-0.7,2.4,0.1c-0.2,0.3-1.2,1.3-1,1.8
		c0.1,0.3,0.8,0.2,1.1,0.2c0,1.1,1.1,1.4,2.1,1.3c-0.1-0.8-0.7-1.4-0.6-2.2c0-0.9,0.6-1.6,1.2-2.2l0,0c1.4-1.3,2.7-2.5,3.3-4.4
		c0,0.2,0.3,0.7,0.6,0.9c0.8,0.7,1.6,1.1,2.6,1.4c0.8,0.2,1.5,0,2.2,0.1c0.7,0.1,0.6,0.5,0.9,1.2c0.4,1,0.4,1.1,1.4,1.1
		c0.7,0,1.3,0.2,1.9,0.4c1.7,0.6,2.3,1.3,3,3c0.3-0.1,0.7-0.2,1-0.1c-0.4-1.6-1.5-3.3-0.1-4.8c0.9-1,2.6-1.8,3.8-1
		c1.3,0.8,0.9,2.3,1.4,3.4c0.5,0.9,2.2,2,3.3,2.1c-0.2-0.2-0.4-0.5-0.4-0.9C109.6,21.3,110.8,20.7,111.8,20.6z"/>
	<path fill="#F29220" d="M121.1,28.1c-3.1-2.3-7.1-5.5-9.8-8.6c0.1,0.3,0.3,0.7,0.5,1.1c-0.9,0.1-2.1,0.7-3,0.1
		c0,0.3,0.2,0.6,0.4,0.9c-1-0.1-2.8-1.2-3.3-2.1c-0.6-1.1-0.1-2.5-1.4-3.4c-1.2-0.8-2.9,0-3.8,1c-1.4,1.5-0.2,3.3,0.1,4.8
		c-0.3-0.1-0.7-0.1-1,0.1c-0.6-1.7-1.2-2.4-3-3c-0.6-0.2-1.2-0.4-1.9-0.4c-1,0-1-0.1-1.4-1.1c-0.3-0.7-0.3-1.1-0.9-1.2
		c-0.7-0.1-1.4,0.1-2.2-0.1c-1-0.3-1.9-0.7-2.6-1.4c-0.2-0.2-0.6-0.7-0.6-0.9c-0.6,1.8-1.9,3-3.3,4.4l0,0c-0.1,1.3,0,2.9,0.2,4.5
		c0.5,2.7,1.8,5.2,3,9.3l3.6-1.8l1.1,2.4l1.8-1c0,0-0.1,0.8-0.1,1.2c-0.1,0.6-1.6,1.1,0.5,1.6c0,0,0,0.2,0,0.4
		c6.5-1.1,12.7-2.4,18-3.6c4-1,7.5-1.9,9.9-2.8C121.7,28.4,121.4,28.3,121.1,28.1z"/>
	<path fill="#F29220" d="M214.4,201.7c0,0-4-10.4-17.5-6.9c0,0-3.1-5.5-7.7-3.9c0,0-3.9,2-6.6,3.7c0,0-9.9,1.2-17.5-3.6
		c-7.7-4.8-23.6-16.7-37-5.4c0,0,7.7-8.8,13.4-17.1c4.6-6.7,15.2-23.6,17.2-38.7c3.5-16.9-13.7-31.6-13.7-31.6
		c-0.2-0.3-0.4-0.6-0.6-1c11.3-1.2,22-3.3,25.2-6.8c1-0.3,5-5.5,5.1-7.5c0.1-1.9-1.9-6.5-1.9-6.5s-5.4-9.7-10.5-12.4
		c0,0-9.3-18.6-22.1-20.3c0,0-0.6-1.6-2-3.5c-2.5-3.5-7.6-8.3-15.9-6.3c-0.7,0.1-1.3,0.3-2,0.6c-4.6,1.6-7.5,4.7-8.8,8.3
		c-4.9,1.7-9.8,3.9-12.8,6.5c-1.4,3-2.9,10.5-3.7,15.1c20.2,9,28.1,17.6,31.2,23c5.4-1.8,8.9-3,12.2-5.5c0.4-0.3,0.9-0.7,1.3-1
		c-0.1-1.5-0.3-3-0.4-4.4c-2.8-2.4-8-9.5-8-9.5c-7.2,1.1-12.5-4-12.5-4c-4.8-1.4-7.7-6.1-8.1-11.2c1,4.9,4.1,9.2,8.7,10.6
		c0,0,4.6,4.7,11.9,3.5c0,0,8.4,9.9,10.7,11c1.9,1,3,1.3,5.1,1.1c-1.5,0.4-4,1.3-6.9,3.6c-3.5,2.8-7.5,4-13.8,6
		c1.9,3.4,1.9,5.5,1.9,5.5c0.2,1.8,0.2,3.5,0.1,5.2c-0.6,11.3-7,18.8-13.2,23.5c1,1.7,2,3.1,2.9,4.4c0.3,2,0.8,4.1,1.4,6.3
		c0,0-22.8,34.2-21.2,71.2H216C216,203.8,216.5,201.7,214.4,201.7z"/>
	<path fill="#3D5BA9" d="M141.4,22.9c1-3.6,0.3-7.7-1.8-10.9c-0.4-0.7-1.2-1.4-1.9-1.1c0-0.4,0-0.9-0.3-1.3
		c-0.2-0.4-0.7-0.7-1.2-0.6c0-0.5-0.1-1.1-0.4-1.5c-0.3-0.4-1-0.7-1.4-0.5c0-0.5,0-1-0.3-1.4c-0.2-0.4-0.6-0.8-1.1-0.8
		c-0.9,0-1.2,1-1.1,1.8c-0.8-0.6-1.9-1-2.8-0.7c-0.9,0.3-1.4,1.4-0.8,2.2c0.3,0.4,0.8,0.6,1.2,0.8c1.8,1,3,3,2.9,4.9
		c0,1.7-0.3,2.6-1.1,4c-1.4,2.2-3.1,5.7-5.1,8.7l0,0c-0.7,0.7-2.1,1.4-4,2.2c-2.5,1-5.9,1.9-9.9,2.8c-5.3,1.2-11.5,2.5-18,3.6
		c-20.6,3.7-43.5,6.6-43.5,6.6l-8,2.9l-1.5,5.1c0,0,6.4,15.4,10,21.9c0.8-0.5,1.6-0.9,2-1.1c1.4-0.6,2.8-1.4,4.3-1.7
		c0.8-0.1,1.2,0.1,1.6,0.8c0.9,1.3-1,2.8-2,3.5c-0.1,0.1-0.2,0.2-0.4,0.3c0.7-0.3,1.4-0.5,2.2-0.7c0.8-0.1,1.2,0.1,1.6,0.8
		c0.6,1-0.2,2.1-1.1,2.9c0.3-0.1,0.6-0.1,1-0.2c0.7-0.1,1.1,0.2,1.6,0.9c0.9,1.3-0.7,2.7-1.6,3.3c-0.2,0.1-0.4,0.3-0.6,0.4
		c0,0,0.1,0,0.1,0c0.4,0,0.7,0.1,1,0.6c0.6,0.9-0.4,1.7-1,2.1c-0.1,0.1-0.2,0.1-0.3,0.2c4.1,5,10.1,11.1,19.2,17.8
		c-7.8,8.6-17.2,21.1-19.6,35.8c0,0-5.7,3.6-7.2,10c0,0-8,5.3-7.8,14.7c0,0,0.1,5.7,0.6,11.7c-0.8-0.1-1.2-0.5-1.2-0.5
		s-0.3-2.7-1.6-3.6c-1.3-0.9-2.8,0.3-2.8,0.3c-0.1,0.3-0.6,1-0.6,1c-1.5-0.4-1.7,1.8-1.7,1.8l-1.1-1.1l-1.8,1.9l-2.1-3.2
		c-3.4,2.3-5.7,4.7-7.4,6.9c-3.1,4.3-3.4,8-3.1,10.5c6.3-1.1,16.3-1.6,24.9-1.9c0,0.1,0,0.2,0.1,0.3c0,0,0,0.2,0,0.7
		c-9.6,0.3-20.7,0.9-26.5,2.3c-1.3,0.3-6.4,2.9-6.4,2.9s-6,0.2-7.4,1.5c0,0-3.7,3.2-4.9,3.9c-0.8,0.5-1.4,1.7-0.9,2.9
		c0.3,0.8,1,1.5,2.3,2.2c0,0,1.7,0.5,3.3,2.4s9.6,9.9,23.1,6.3c13.5-3.7,29.6-1.8,29.6-1.8s1.1,0,3.2-0.4c5,0.1,34.7-0.3,31.6-28.2
		c-1.8-16.2-4-39.3,9.7-52.2c0,0,6-1.9,12.2-6.6c6.2-4.7,12.6-12.2,13.2-23.5c0.1-1.6,0-3.4-0.1-5.2c0,0,0-2.1-1.9-5.5
		c0-0.1-0.1-0.2-0.1-0.2c-3.1-5.4-11-14-31.2-23c-2.9-1.3-6-2.6-9.3-3.8c5.6-2.6,8.8-7.5,12.9-11.1c0,0,0.1-0.1,0.1-0.1
		c3-2.6,7.8-4.8,12.8-6.5c1.4-3.6,4.2-6.7,8.8-8.3c0.7-0.2,1.4-0.4,2-0.6c8.4-2,13.4,2.7,15.9,6.3c0.6-0.1,1.1-0.4,1.8-0.8
		c0.1-0.1,2.2,0,0.4-6.2c-0.5-1.7-0.8-3.5-0.6-5.2C140.1,26.3,140.9,24.7,141.4,22.9z M85.8,60.9c-0.1,0-0.2-0.1-0.4-0.2
		c0,0,0,0,0.1,0C85.6,60.7,85.7,60.8,85.8,60.9z"/>
	<path fill="#F29220" d="M61.7,76.8c-0.4-0.7-0.9-1-1.6-0.9c-0.3,0-0.6,0.1-1,0.2c0.9-0.8,1.8-1.9,1.1-2.9c-0.4-0.6-0.9-0.9-1.6-0.8
		c-0.7,0.1-1.4,0.4-2.2,0.7c0.1-0.1,0.2-0.2,0.4-0.3c1-0.7,2.8-2.2,2-3.5c-0.4-0.6-0.9-0.9-1.6-0.8c-1.5,0.3-2.9,1-4.3,1.7
		c-0.3,0.1-1.1,0.6-2,1.1c-1.2,0.8-2.3,1.8-1.8,2.6c0.2,0.8,0.9,1.9,1.8,2c0.1,0,0.2,0,0.4,0c-0.8,0.7-1.3,1.4-1,2
		c0.2,0.8,0.9,2,1.8,2c0.1,0,0.3,0,0.5,0c0,0.2,0,0.5,0.1,0.7c0.3,0.8,1,2,1.9,2.1c0.1,0,0.2,0,0.3,0c-0.1,0.2-0.2,0.5,0,0.7
		c0.2,0.5,0.7,1.3,1.2,1.4c0.4,0.1,0.9-0.1,1.2-0.3c0.6-0.3,1.1-0.7,1.7-1.1c0.1-0.1,0.2-0.1,0.3-0.2c0.5-0.4,1.5-1.2,1-2.1
		c-0.3-0.4-0.6-0.6-1-0.6c0,0-0.1,0-0.1,0c0.2-0.1,0.4-0.3,0.6-0.4C61,79.5,62.6,78.2,61.7,76.8z"/>
</g>
<path d="M87.7,24.3c-0.2,0.3-0.5,0.6-0.9,0.7c0.1-0.9,1-1.9,1.9-2.6c0.7-0.5,1.6-1.1,2.2-0.9c0.3,0.1,0.6,0.4,0.5,0.7
	C90.1,22.5,88.7,23.3,87.7,24.3z"/>
<path d="M87.9,26.2c-0.2-0.3,0.1-0.8,0.7-1.2c0.6-0.4,1.4-0.5,1.7-0.2c-0.7,0.1-0.9,1.5-1.6,1c-0.1,0,0,0.1-0.1,0.2
	c0,0.1-0.2,0.2-0.3,0.2C88.1,26.3,88,26.3,87.9,26.2z"/>
<path d="M30.7,180.8c0,0.4-0.4,0.5-0.7,0.4c-0.7-0.1-1.2-1-1.6-1.8c-0.5-1.1-0.9-2.3-0.6-3.2c0.3,0.2,0.4,0.6,0.5,1
	C28.6,178.7,29.6,180,30.7,180.8z"/>
<path d="M29.6,175.7c0.1,0.1,0.1,0.2,0.2,0.3c0,0.1-0.1,0.3,0,0.2c0.9,0,0.5,1.2,1.1,1.6c-0.3,0.1-1.1-0.3-1.4-0.9
	c-0.4-0.6-0.4-1.1-0.1-1.3C29.3,175.6,29.4,175.6,29.6,175.7z"/>
<g>
	<path d="M39.6,177c2.6-0.6,3.5-2.6,3.7-3.9c-0.3-0.1,0,0,0,0s-0.3-2.7-1.6-3.6c-1.3-0.9-2.8,0.3-2.8,0.3s0,0,0,0.1
		c1.2,1.6,2.9,4.4,0.6,5.8c0,0-1.7,1.1-4.1-4l-1.2,1.3C34.5,173.8,36.2,177.8,39.6,177z"/>
</g>
<path d="M39.1,169.7l1.8-1.2c0,0,1.2,0.9,1.5,1.6L39.1,169.7z"/>
</svg>
