<?xml version="1.0" encoding="utf-8"?>
<!-- Generator: Adobe Illustrator 18.1.1, SVG Export Plug-In . SVG Version: 6.00 Build 0)  -->
<svg version="1.1" id="Layer_1" xmlns="http://www.w3.org/2000/svg" xmlns:xlink="http://www.w3.org/1999/xlink" x="0px" y="0px"
	 viewBox="0 0 360 360" enable-background="new 0 0 360 360" xml:space="preserve">
<g id="SACK__x26__SAVE">
	<path stroke="#000000" stroke-width="10" stroke-miterlimit="10" d="M145.5,90.5l13.4-9.5c8.6-4.2,3.8-15.7-2.3-19.6
		c-6-3.9-11.2-1.2-11.2-1.2s-14.3-4.1-21.9,5s-5.5,23-3.9,28.3c2.3,7.6,0,11.3,0,11.3s-5.5,9.2-7.7,23.3c-1.4,9.2-1.4,20.5,2.6,32.7
		"/>
	<path fill="#FFFFFF" stroke="#FFFFFF" stroke-miterlimit="10" d="M175.2,221.8c0,0-17.9,7.6-23.1,8.5
		C152.1,230.3,165.9,231,175.2,221.8z"/>
	<g>
		<g>
			<path fill="#51BFAC" d="M208.5,92.2c3.3-1.6,7.9-2,7.9-2c0.2,0,0.4-0.1,0.5-0.2c-1.9-4.2-3.9-9.3-5-13.9
				c-0.5,0.8-1.1,1.4-1.8,1.5c-0.1-1.5-1.2-1.7-1.9-2.7c-0.6-1-0.9-2.3-1.5-3.4c-0.4-0.7-0.9-1.2-1-2c-0.1-1.2,0.6-2.3,0.3-3.7
				c-0.5-2.7-2.8-3.6-5.3-2.5c-2.1,0.9-2,2.9-0.4,4c-0.8,1-2.5-0.1-3.5-0.4c0.2,0.9,0.5,1.9-0.1,2.7c-0.5-1.5-1.3-1.9-2.7-2.7
				c-1.9-1-4-2.3-5.6-3.8c-1.7-1.6-2.7-3.6-2.7-6c0-1.5,0.6-3,0.9-4.4c-0.6,0.3-1.5,0.7-2.1,1.4c-0.9,0.2-1.7,1-2.6,1.3
				c-1,0.4-2,0.6-3,0.9c-1.7,0.5-3.2,1.1-4.2,2.7c-0.2-0.2-0.5-0.4-0.7-0.4c-0.1,0.2-0.2,0.5-0.3,0.7c-1.3,3.9-2.1,8.7-2,14.9
				l5.7-0.3l-0.7,3.9l3.3-0.4c0,0-1.1,1.5-1.5,2c-0.5,0.7-1.9,0.7-0.4,2.3c0,0-0.5,1.1-0.6,1.5c0,0-0.2,2.9,2,3.7
				c2.2,0.8,5.8-1.2,5.8-1.2s2.3,0.4,3,3.9c-2.1,0-4.3-0.1-6.7-0.1c0.1,3.1,0.5,9.5,2.4,15.9l3.9-1.7c3.5-2.1,6.7-4.1,9.6-5.7
				C202.5,95.2,206.5,93.1,208.5,92.2z"/>
			<path fill="#51BFAC" d="M208.7,112.8c-6.5-0.8-14.2,2-18.8,4.1c3,3.4,7.2,5.7,12.8,5.7c12.2,0,18.5-7.2,21.9-13.6
				C219.4,111.5,213.5,113.4,208.7,112.8z"/>
			<g>
				<path fill="#51BFAC" d="M198,248.1c0.9,0,1.7-0.1,2.6-0.1c-0.8-1.7-1.6-3.3-2.7-4.7C197.2,243.9,197.5,246.1,198,248.1z"/>
				<path fill="#51BFAC" d="M194.1,248.2c0.1,0,0.3,0,0.4,0c-0.5-1.5-1.1-3-1.7-4.6C193.2,245.2,193.6,246.7,194.1,248.2z"/>
				<path fill="#51BFAC" d="M189.2,245.5c-0.4,0.6-0.3,1.6,0,2.7c0.7,0,1.5,0,2.2,0c-0.1-0.3-0.2-0.5-0.2-0.7
					C190.9,246.8,190.1,244.1,189.2,245.5z"/>
				<path fill="#51BFAC" d="M185.2,242.8c-1.6-4.1-1.5-9.3-3.9-12.8c0,0-2.3-1.6-5.9-4c-1.3,0.9-2.5,1.9-3.6,3
					c-5.2,5.2-15.9,6-23.8,5.8c-0.2,4.7-0.5,8.7-0.5,8.7s16.7,1,21.4,2.6c1.8,0.6,7.2,1.6,13.8,2.1l0,0c0,0,1.8,0,4.5,0.1
					C186.5,246.4,186,244.6,185.2,242.8z"/>
				<path fill="#51BFAC" d="M230.8,224.6c-5.5-1.5-25.5-6.6-42.1-3.6c0.5,0.4,1,0.7,1.5,1c1.7,0.1,4.1,0.7,5.8,0.8
					c1.6,0.1,3.3-0.1,4.8,0.4c1.8,0.6,3.3,2,5,2.6c1.2,0.5,4.4,0.1,3.8,2.1c-0.6,2.1-3.5,1.8-5,1.4c-2.3-0.6-3.2-1.3-4.2,1.3
					c-1.9,5.2,2.3,11.8,4.2,16.9c0.9-0.1,1.6-0.2,2.4-0.3c3.1-0.7,5.9-1.7,8-3.2c11.2-7.7,15.8-9.1,15.8-9.1S230.7,230,230.8,224.6z
					"/>
			</g>
			<path fill="#51BFAC" d="M280,293.5c0.3-4-6.4-17.8-6.4-17.8c0.6-2.5-0.3-8.6-0.3-8.6l-8-28.5c3.8-20.5-6.7-36.8-8-40.7
				c-1.3-4-1-7-1-7c1-4.6-1.6-26.3-1.6-26.3c12.9-22.8-0.6-39.4-6.8-45.4c-1.4-1.8-3.7-4-7.3-6.3c0,0-3.7-2.7-7.8-5.8
				c-1.1,6.2-1.4,11.8-1.1,16.9c1.2,20.8,11.7,32.4,11.7,32.4c-1.5,6-5,12.7-5,12.7c-2.6,3.5-3.5,6.5-3.5,6.5l-1.2,21.5
				c0,0.1,0,0.2,0,0.2c0.9,5.5,1.5,8.1,1.5,8.1s1.1,6,1.1,6.6c2.1,16.9,7,29.7,12.1,37.5s11.8,21,12,23.1c0.2,2.1,0.5,5,0.5,5
				c-2.2,5.5,0.3,12.5,0.6,13.6c0.3,1.1,0.2,5.4,0.2,5.4s-1.6,9.8,2.9,10c4.5,0.1,3.2-6.6,3.2-6.6s0.6-1.8,0.3-2.9
				c-0.1-0.5-0.1-1.5,0-2.3c0.1,0.6,0.3,1.2,0.6,1.9c0.2,0.5,0.5,0.9,0.5,1.4c0,0.6-0.2,1.3-0.2,1.9c-0.1,1.3,0,2.6,0.2,4
				c0,0.5,0.1,0.5,0,1c-0.2,0.5-0.3,0.8-0.8,1c-0.6,0.3-2.5,1.3-1.6,2.2c-0.5,0-1.2,0.5-1.6,0.8c-0.3,0.2-0.4,0.4-0.3,0.7
				c0,0.1,0.1,0.2,0.1,0.3c-0.3,0.2-0.5,0.3-0.5,0.3c-2.4,1.4-0.8,3-0.8,3l3-0.6c0.6,0.6,4.8,0.9,4.8,0.9c5.4-1.1,7.8-5.8,8.5-6.9
				C280.6,305.5,280,293.5,280,293.5z"/>
			<path fill="#51BFAC" d="M163.2,157.1l13.1-20.1c0,0,6.2-3.4,4-13.5l0.4-2.3l0.2-1.5c0,0,1.7-0.4,2-4.3c0,0,1.3-4.9-3.5-6
				l-2.9-0.6l-1.7-0.4c0,0,0.4-3.1-2.7-2.9c0,0-1.3-1-2.8-1c0.8-6.3,1.1-11.6,1.2-14.3c-2.5,0.4-5.3,0.9-8.1,1.6
				c-0.9,0.2-1.7,0.5-2.6,0.7c0,0-12.6-1.7-20.9,8.3c-1.5,1.9-3,4.2-4.1,7.1c-1.2,3-2,6.5-2.5,10.7c0,0-0.5,0.5-1.3,1.5
				c-2,2.4-6,7.6-9.1,15c-2.3,5.3-4.1,11.6-4.5,18.7l-1.6,4.3c-1.2,0.9-2.2,1.9-2.9,2.9c-1.9,3-4.4,6.1-5.9,9.6
				c-1,2.3-1.6,4.7-1.4,7.4c0.3,4.3,2.6,9.2,8.7,14.9c0,0,1.3,1.6,3.3,2.4c1.5,0.5,3.4,0.7,5.5-0.5c0,0,3.6,0.2,6.2-3.6
				c0,0,1.6-0.6,4-2c2.9-1.5,7-4,11.4-7.5C151.7,176.3,159.3,168.1,163.2,157.1z M144.6,148.2c0,0-18,3.3-27.3,8.9
				c9.2-7.6,26.1-9.8,26.1-9.8s6.5-6.4,9.8-8.3c3.4-1.9,4.8-5.5,4.8-5.5l0.5-2.1c0,0-2.8-9.6-4.3-11.6s-0.3-5.6-0.3-5.6l1.3-3.8
				c0.2-3.8,1.3-5.9,2.5-6.8c-0.7,1.2-1.3,3-1.4,5.6l-1.3,3.9c0,0-1.2,3.7,0.3,5.7c1.5,2.1,4.3,11.9,4.3,11.9l-0.5,2.1
				c0,0-1.4,4.5-4.8,6.5C151,141.3,144.6,148.2,144.6,148.2z"/>
		</g>
		<path fill="#060808" d="M179,56.5c1-0.3,2-0.5,3-0.9c0.8-0.4,1.7-1.1,2.6-1.3c0.6-0.7,1.5-1.1,2.1-1.4c-0.2,1.5-0.8,2.9-0.9,4.4
			c-0.1,2.5,1,4.4,2.7,6c1.6,1.5,3.7,2.8,5.6,3.8c1.4,0.8,2.3,1.1,2.7,2.7c0.6-0.8,0.3-1.8,0.1-2.7c1,0.2,2.7,1.4,3.5,0.4
			c-1.6-1.2-1.8-3.1,0.4-4c2.5-1,4.8-0.2,5.3,2.5c0.3,1.4-0.5,2.4-0.3,3.7c0,0.8,0.6,1.3,1,2c0.6,1,0.9,2.4,1.5,3.4
			c0.7,1.1,1.8,1.3,1.9,2.7c0.8-0.1,1.4-0.8,1.8-1.5c0.6-1.1,1.1-2.5,1.3-3.3c0.6-2.3,1.4-4.7,1.8-7c0.1-0.8-0.1-1.5,0-2.3
			c0-0.6,0.5-1.2,0.6-1.9c0.1-0.7,0.1-1.6,0-2.3c-0.3-1-1.1-1.6-1.5-2.6c-0.5-1.2,0-2.4-0.7-3.6c-0.3-0.5-0.7-0.8-0.9-1.3
			c-0.1-0.4,0-0.8-0.2-1.2c-0.4-1.4-2.8-4-4.5-4c-1.2-2.3-3.6-5.3-6.5-3.1c-0.4-0.5-0.7-1.6-1.3-1.6c0.2,0.5,0.5,1.2,0.4,1.7
			c-1-0.9-2.1-2-3.5-2.6c-2.1-1-4.7-0.7-6.8,0.2c-1.4,0.6-3,0.9-4.5,1.5c-2,0.9-5,2-6.5,3.9c-0.5,0.7-0.6,1-1.4,1.5
			c-0.9,0.6-1.8,1.2-2.6,2c-0.7,0.7-1.5,1.5-1.9,2.4c-0.3,0.7-0.1,1.7-0.4,2.2c-0.3,0.5-1.3,0.8-1.6,1.5c-0.4,0.8-0.4,1.6,0.2,2.4
			c0.7,0.9,1.6-0.1,2.5,0.1c0.2,0,0.5,0.1,0.7,0.4C175.8,57.6,177.2,57,179,56.5z"/>
		<g>
			<path fill="#D61F28" d="M138.8,101c8.2-10,20.9-8.3,20.9-8.3c0.9-0.3,1.8-0.5,2.6-0.7c0-0.7,0-1.3,0.3-1.5
				c-0.3-0.3-1.5-0.8-1.9-1.1c0.7,0,1.8-0.1,2-0.6c-0.7-0.4-1.4-2.5-1.4-3.1c1.2-0.3,2.3-0.7,2.3-0.7c-4.2-5.1-3.6-5-5.2-7.8
				c-1-1.7-1.1-2.5-1.9-4.4c-0.2-0.6-0.5-1.2-0.9-1.7c-0.5-0.9-1.2-1.7-2-2.3l0,0c1.5,2.8-10.2,9-10,12c0.2,2.5,0.1,8.8-5.2,12.3
				C137.3,94.9,138.2,99.5,138.8,101z"/>
			<path fill="#D61F28" d="M227.3,89c0,0-5.7-0.5-10.3,1c-0.2,0-0.4,0.1-0.5,0.2c0,0-4.5,0.4-7.9,2c-2,1-6,3-11,6
				c-2.9,1.6-6.1,3.6-9.6,5.7l-3.9,1.7l-7.6,3.3l2.9,0.6c4.9,1.1,3.5,6,3.5,6c-0.3,3.9-2,4.3-2,4.3l-0.2,1.5l5.1-2.1
				c0,0,1.6-1,4.2-2.1c4.6-2.1,12.2-4.9,18.8-4.1c4.8,0.5,10.7-1.3,15.9-3.8c3.5-1.7,6.7-3.7,9-5.5c1.5-1.2,2.6-2.3,3.2-3.2
				C239.5,96.1,232.7,90.2,227.3,89z"/>
			<path fill="#D61F28" d="M205.7,225.9c-1.7-0.7-3.2-2.1-5-2.6c-1.5-0.5-3.2-0.3-4.8-0.4c-1.7-0.1-4.1-0.7-5.8-0.8
				c-0.5-0.4-1-0.7-1.5-1c-7.8-5.9-17.1-14.8-17.1-14.8c-8.6-10.8-25.5-23.4-26.9-24.4c-4.4,3.5-8.5,5.9-11.4,7.5
				c-1,7.6,4,12.1,4,12.1c0.4,0.2,0.7,0.4,1.1,0.6c11,6.4,28.1,17.9,37,24c3.6,2.5,5.9,4,5.9,4c2.5,3.5,2.3,8.7,3.9,12.8
				c0.7,1.8,1.3,3.6,2,5.4c0.6,0,1.3,0,2,0c-0.2-1.1-0.4-2.1,0-2.7c0.9-1.5,1.7,1.3,2,2c0,0.1,0.1,0.4,0.2,0.7c0.9,0,1.8,0,2.7,0
				c-0.5-1.5-0.9-3-1.3-4.6c0.6,1.5,1.2,3,1.7,4.6c1.2,0,2.4,0,3.5-0.1c-0.5-2-0.9-4.2-0.1-4.9c1.1,1.4,1.9,3,2.7,4.7
				c1.4-0.1,2.7-0.2,4-0.3c-1.9-5.1-6.1-11.7-4.2-16.9c1-2.6,1.9-1.9,4.2-1.3c1.5,0.4,4.4,0.7,5-1.4
				C210.1,226,207,226.4,205.7,225.9z"/>
		</g>
	</g>
	<path d="M156.2,76.3c-0.6-0.7-1.5-1.2-2.4-1.5c-0.2,0-0.4-0.1-0.6-0.1c-0.8-0.1-1.5,0.1-2.2,0.5c-0.6,0.4-1.1,1-1.4,1.6
		c-0.1,0-0.1-0.2,0-0.4c0.3-0.6,0.7-1.1,1.2-1.6s1.2-0.8,1.9-0.8c0.9,0,1.8,0.5,2.6,1c0.4,0.2,0.7,0.5,1,0.7
		c0.1,0.1,0.2,0.2,0.2,0.4C156.5,76.3,156.3,76.5,156.2,76.3z"/>
	<path stroke="#000000" stroke-width="1.5542" stroke-miterlimit="10" d="M152.2,79.8c0.3,0.8,1.3,1.4,2.1,1.3
		c0.9-0.1,1.5-1,1.3-1.8c-0.5,0.7-1.7,0.8-2.5,0.2c-0.1-0.1-0.3-0.2-0.4-0.3c-0.1-0.1-0.4-0.1-0.5,0
		C152.1,79.4,152.2,79.6,152.2,79.8z"/>
	<path d="M177,64.6c-0.5,0.2-1.1,0.4-1.6,0.2c0.8-1.1,2.6-1.8,4.3-2c1.3-0.2,2.8-0.3,3.6,0.4c0.4,0.4,0.5,0.9,0.1,1.3
		C181.4,63.9,179,63.9,177,64.6z"/>
	<path d="M176.7,67.8c-0.1-0.5,0.6-1.1,1.6-1.2s2.3,0.2,2.4,0.7c-1-0.3-2,1.5-2.8,0.5c-0.1-0.1-0.1,0.2-0.3,0.3
		c-0.1,0.1-0.3,0.1-0.5,0.1C176.8,68,176.7,67.9,176.7,67.8z"/>
</g>
</svg>
