<?xml version="1.0" encoding="utf-8"?>
<!-- Generator: Adobe Illustrator 18.1.1, SVG Export Plug-In . SVG Version: 6.00 Build 0)  -->
<svg version="1.1" id="Layer_1" xmlns="http://www.w3.org/2000/svg" xmlns:xlink="http://www.w3.org/1999/xlink" x="0px" y="0px"
	 viewBox="143.8 40.6 138.9 216" enable-background="new 143.8 40.6 138.9 216" xml:space="preserve">
<g id="SACK__x26__SAVE">
	<path d="M187.6,52.9c-4.5-2.9-9-2.8-11.9-2c-4.1-0.8-14.4-1.8-20.8,5.9c-8.7,10.4-4.5,25.4-4,27c1,3.2,0.5,4.8,0.4,5.1
		c-0.7,1.3-4.9,8.9-6.6,20.1c-1.5,9.7-0.7,19.1,2.2,28.2l4.8-1.6c0,0,0,0,0,0l0,0l4.8-1.6c-0.6-1.9-1.1-3.8-1.5-5.8l21.3-48.3l0,0
		l2.9,4.1l10.3-7.3c3.6-1.9,5.8-5.3,6.1-9.4C195.7,61.4,191.7,55.5,187.6,52.9z"/>
	<g>
		<path fill="#FFFFFF" d="M199.6,184c0,0-14.2,6-18.3,6.7C181.3,190.7,192.2,191.2,199.6,184z"/>
		<path fill="#FFFFFF" d="M181.8,191.2L181.8,191.2c-0.4,0-0.6,0-0.6,0l-4.5-0.2l4.4-0.8c4-0.7,18-6.6,18.2-6.7l2.4-1l-1.9,1.8
			C193.5,190.7,184.4,191.2,181.8,191.2z M196.7,185.7c-2.9,1.2-7.4,3-10.9,4.2C188.9,189.4,193,188.3,196.7,185.7z"/>
	</g>
	<g>
		<g>
			<g>
				<path fill="#51BFAC" d="M225.9,81.4c2.6-1.3,6.3-1.6,6.3-1.6c0.2,0,0.3-0.1,0.4-0.2c-1.5-3.3-3.1-7.4-4-11
					c-0.4,0.6-0.9,1.1-1.4,1.2c-0.1-1.2-0.9-1.3-1.5-2.1c-0.5-0.8-0.7-1.8-1.2-2.7c-0.3-0.6-0.7-0.9-0.8-1.6
					c-0.1-0.9,0.5-1.8,0.2-2.9c-0.4-2.1-2.2-2.8-4.2-2c-1.7,0.7-1.6,2.3-0.3,3.2c-0.6,0.8-2-0.1-2.8-0.3c0.2,0.7,0.4,1.5-0.1,2.1
					c-0.4-1.2-1-1.5-2.1-2.1c-1.5-0.8-3.2-1.8-4.4-3c-1.3-1.3-2.1-2.8-2.1-4.7c0-1.2,0.5-2.4,0.7-3.5c-0.5,0.2-1.2,0.6-1.7,1.1
					c-0.7,0.2-1.3,0.8-2.1,1c-0.8,0.3-1.6,0.5-2.4,0.7c-1.3,0.4-2.5,0.9-3.3,2.1c-0.2-0.2-0.4-0.3-0.6-0.3c-0.1,0.2-0.2,0.4-0.2,0.6
					c-1,3.1-1.7,6.9-1.6,11.8l4.5-0.2l-0.6,3.1l2.6-0.3c0,0-0.9,1.2-1.2,1.6c-0.4,0.6-1.5,0.6-0.3,1.8c0,0-0.4,0.9-0.5,1.2
					c0,0-0.2,2.3,1.6,2.9c1.7,0.6,4.6-0.9,4.6-0.9s1.8,0.3,2.4,3.1c-1.7,0-3.4-0.1-5.3-0.1c0.1,2.5,0.4,7.5,1.9,12.6l3.1-1.3
					c2.8-1.7,5.3-3.2,7.6-4.5C221.2,83.8,224.3,82.1,225.9,81.4z"/>
			</g>
			<g>
				<path fill="#51BFAC" d="M226.1,97.7c-5.1-0.6-11.2,1.6-14.9,3.2c2.4,2.7,5.7,4.5,10.1,4.5c9.7,0,14.6-5.7,17.3-10.8
					C234.5,96.7,229.9,98.2,226.1,97.7z"/>
			</g>
			<g>
				<g>
					<path fill="#51BFAC" d="M217.6,204.8c0.7,0,1.3-0.1,2.1-0.1c-0.6-1.3-1.3-2.6-2.1-3.7C217,201.5,217.2,203.2,217.6,204.8z"/>
				</g>
				<g>
					<path fill="#51BFAC" d="M214.5,204.9c0.1,0,0.2,0,0.3,0c-0.4-1.2-0.9-2.4-1.3-3.6C213.8,202.5,214.1,203.7,214.5,204.9z"/>
				</g>
				<g>
					<path fill="#51BFAC" d="M210.6,202.7c-0.3,0.5-0.2,1.3,0,2.1c0.6,0,1.2,0,1.7,0c-0.1-0.2-0.2-0.4-0.2-0.6
						C212,203.7,211.3,201.6,210.6,202.7z"/>
				</g>
				<g>
					<path fill="#51BFAC" d="M207.5,200.6c-1.3-3.2-1.2-7.4-3.1-10.1c0,0-1.8-1.3-4.7-3.2c-1,0.7-2,1.5-2.8,2.4
						c-4.1,4.1-12.6,4.7-18.8,4.6c-0.2,3.7-0.4,6.9-0.4,6.9s13.2,0.8,16.9,2.1c1.4,0.5,5.7,1.3,10.9,1.7l0,0c0,0,1.4,0,3.6,0.1
						C208.5,203.4,208.1,202,207.5,200.6z"/>
				</g>
				<g>
					<path fill="#51BFAC" d="M243.5,186.2c-4.4-1.2-20.2-5.2-33.3-2.8c0.4,0.3,0.8,0.6,1.2,0.8c1.3,0.1,3.2,0.6,4.6,0.6
						c1.3,0.1,2.6-0.1,3.8,0.3c1.4,0.5,2.6,1.6,4,2.1c0.9,0.4,3.5,0.1,3,1.7c-0.5,1.7-2.8,1.4-4,1.1c-1.8-0.5-2.5-1-3.3,1
						c-1.5,4.1,1.8,9.3,3.3,13.4c0.7-0.1,1.3-0.2,1.9-0.2c2.5-0.6,4.7-1.3,6.3-2.5c8.9-6.1,12.5-7.2,12.5-7.2
						S243.5,190.5,243.5,186.2z"/>
				</g>
			</g>
			<g>
				<path fill="#51BFAC" d="M282.5,240.7c0.2-3.2-5.1-14.1-5.1-14.1c0.5-2-0.2-6.8-0.2-6.8l-6.3-22.5c3-16.2-5.3-29.1-6.3-32.2
					c-1-3.2-0.8-5.5-0.8-5.5c0.8-3.6-1.3-20.8-1.3-20.8c10.2-18-0.5-31.2-5.4-35.9c-1.1-1.4-2.9-3.2-5.8-5c0,0-2.9-2.1-6.2-4.6
					c-0.9,4.9-1.1,9.3-0.9,13.4c0.9,16.5,9.3,25.6,9.3,25.6c-1.2,4.7-4,10-4,10c-2.1,2.8-2.8,5.1-2.8,5.1l-0.9,17c0,0.1,0,0.2,0,0.2
					c0.7,4.4,1.2,6.4,1.2,6.4s0.9,4.7,0.9,5.2c1.7,13.4,5.5,23.5,9.6,29.7c4,6.2,9.3,16.6,9.5,18.3c0.2,1.7,0.4,4,0.4,4
					c-1.7,4.4,0.2,9.9,0.5,10.8s0.2,4.3,0.2,4.3s-1.3,7.8,2.3,7.9c3.6,0.1,2.5-5.2,2.5-5.2s0.5-1.4,0.2-2.3c-0.1-0.4-0.1-1.2,0-1.8
					c0.1,0.5,0.2,0.9,0.5,1.5c0.2,0.4,0.4,0.7,0.4,1.1c0,0.5-0.2,1-0.2,1.5c-0.1,1,0,2.1,0.2,3.2c0,0.4,0.1,0.4,0,0.8
					c-0.2,0.4-0.2,0.6-0.6,0.8c-0.5,0.2-2,1-1.3,1.7c-0.4,0-0.9,0.4-1.3,0.6c-0.2,0.2-0.3,0.3-0.2,0.6c0,0.1,0.1,0.2,0.1,0.2
					c-0.2,0.2-0.4,0.2-0.4,0.2c-1.9,1.1-0.6,2.4-0.6,2.4l2.4-0.5c0.5,0.5,3.8,0.7,3.8,0.7c4.3-0.9,6.2-4.6,6.7-5.5
					C282.9,250.2,282.5,240.7,282.5,240.7z"/>
			</g>
			<g>
				<path fill="#51BFAC" d="M190.1,132.8l10.4-15.9c0,0,4.9-2.7,3.2-10.7l0.3-1.8l0.2-1.2c0,0,1.3-0.3,1.6-3.4c0,0,1-3.9-2.8-4.7
					l-2.3-0.5l-1.3-0.3c0,0,0.3-2.5-2.1-2.3c0,0-1-0.8-2.2-0.8c0.6-5,0.9-9.2,0.9-11.3c-2,0.3-4.2,0.7-6.4,1.3
					c-0.7,0.2-1.3,0.4-2.1,0.6c0,0-10-1.3-16.5,6.6c-1.2,1.5-2.4,3.3-3.2,5.6c-0.9,2.4-1.6,5.1-2,8.5c0,0-0.4,0.4-1,1.2
					c-1.6,1.9-4.7,6-7.2,11.9c-1.8,4.2-3.2,9.2-3.6,14.8l-1.3,3.4c-0.9,0.7-1.7,1.5-2.3,2.3c-1.5,2.4-3.5,4.8-4.7,7.6
					c-0.8,1.8-1.3,3.7-1.1,5.9c0.2,3.4,2.1,7.3,6.9,11.8c0,0,1,1.3,2.6,1.9c1.2,0.4,2.7,0.6,4.4-0.4c0,0,2.8,0.2,4.9-2.8
					c0,0,1.3-0.5,3.2-1.6c2.3-1.2,5.5-3.2,9-5.9C181,148,187,141.5,190.1,132.8z M175.3,125.7c0,0-14.2,2.6-21.6,7
					c7.3-6,20.7-7.8,20.7-7.8s5.1-5.1,7.8-6.6c2.7-1.5,3.8-4.4,3.8-4.4l0.4-1.7c0,0-2.2-7.6-3.4-9.2c-1.2-1.6-0.2-4.4-0.2-4.4l1-3
					c0.2-3,1-4.7,2-5.4c-0.6,0.9-1,2.4-1.1,4.4l-1,3.1c0,0-0.9,2.9,0.2,4.5c1.2,1.7,3.4,9.4,3.4,9.4l-0.4,1.7c0,0-1.1,3.6-3.8,5.1
					C180.4,120.3,175.3,125.7,175.3,125.7z"/>
			</g>
		</g>
		<g>
			<path fill="#060808" d="M202.6,53.2c0.8-0.2,1.6-0.4,2.4-0.7c0.6-0.3,1.3-0.9,2.1-1c0.5-0.6,1.2-0.9,1.7-1.1
				c-0.2,1.2-0.6,2.3-0.7,3.5c-0.1,2,0.8,3.5,2.1,4.7c1.3,1.2,2.9,2.2,4.4,3c1.1,0.6,1.8,0.9,2.1,2.1c0.5-0.6,0.2-1.4,0.1-2.1
				c0.8,0.2,2.1,1.1,2.8,0.3c-1.3-0.9-1.4-2.5,0.3-3.2c2-0.8,3.8-0.2,4.2,2c0.2,1.1-0.4,1.9-0.2,2.9c0,0.6,0.5,1,0.8,1.6
				c0.5,0.8,0.7,1.9,1.2,2.7c0.6,0.9,1.4,1,1.5,2.1c0.6-0.1,1.1-0.6,1.4-1.2c0.5-0.9,0.9-2,1-2.6c0.5-1.8,1.1-3.7,1.4-5.5
				c0.1-0.6-0.1-1.2,0-1.8c0-0.5,0.4-0.9,0.5-1.5c0.1-0.6,0.1-1.3,0-1.8c-0.2-0.8-0.9-1.3-1.2-2.1c-0.4-0.9,0-1.9-0.6-2.8
				c-0.2-0.4-0.6-0.6-0.7-1c-0.1-0.3,0-0.6-0.2-0.9c-0.3-1.1-2.2-3.2-3.6-3.2c-0.9-1.8-2.8-4.2-5.1-2.5c-0.3-0.4-0.6-1.3-1-1.3
				c0.2,0.4,0.4,0.9,0.3,1.3c-0.8-0.7-1.7-1.6-2.8-2.1c-1.7-0.8-3.7-0.6-5.4,0.2c-1.1,0.5-2.4,0.7-3.6,1.2c-1.6,0.7-4,1.6-5.1,3.1
				c-0.4,0.6-0.5,0.8-1.1,1.2c-0.7,0.5-1.4,0.9-2.1,1.6c-0.6,0.6-1.2,1.2-1.5,1.9c-0.2,0.6-0.1,1.3-0.3,1.7c-0.2,0.4-1,0.6-1.3,1.2
				c-0.3,0.6-0.3,1.3,0.2,1.9c0.6,0.7,1.3-0.1,2,0.1c0.2,0,0.4,0.1,0.6,0.3C200,54.1,201.1,53.6,202.6,53.2z"/>
		</g>
		<g>
			<g>
				<path fill="#D61F28" d="M170.8,88.4c6.5-7.9,16.5-6.6,16.5-6.6c0.7-0.2,1.4-0.4,2.1-0.6c0-0.6,0-1,0.2-1.2
					c-0.2-0.2-1.2-0.6-1.5-0.9c0.6,0,1.4-0.1,1.6-0.5c-0.6-0.3-1.1-2-1.1-2.5c0.9-0.2,1.8-0.6,1.8-0.6c-3.3-4-2.8-4-4.1-6.2
					c-0.8-1.3-0.9-2-1.5-3.5c-0.2-0.5-0.4-0.9-0.7-1.3c-0.4-0.7-0.9-1.3-1.6-1.8l0,0c1.2,2.2-8.1,7.1-7.9,9.5c0.2,2,0.1,7-4.1,9.7
					C169.6,83.6,170.3,87.2,170.8,88.4z"/>
			</g>
			<g>
				<path fill="#D61F28" d="M240.8,78.9c0,0-4.5-0.4-8.1,0.8c-0.2,0-0.3,0.1-0.4,0.2c0,0-3.6,0.3-6.3,1.6c-1.6,0.8-4.7,2.4-8.7,4.7
					c-2.3,1.3-4.8,2.8-7.6,4.5l-3.1,1.3l-6,2.6l2.3,0.5c3.9,0.9,2.8,4.7,2.8,4.7c-0.2,3.1-1.6,3.4-1.6,3.4l-0.2,1.2l4-1.7
					c0,0,1.3-0.8,3.3-1.7c3.6-1.7,9.7-3.9,14.9-3.2c3.8,0.4,8.5-1,12.6-3c2.8-1.3,5.3-2.9,7.1-4.4c1.2-0.9,2.1-1.8,2.5-2.5
					C250.4,84.5,245.1,79.8,240.8,78.9z"/>
			</g>
			<g>
				<path fill="#D61F28" d="M223.7,187.2c-1.3-0.6-2.5-1.7-4-2.1c-1.2-0.4-2.5-0.2-3.8-0.3c-1.3-0.1-3.2-0.6-4.6-0.6
					c-0.4-0.3-0.8-0.6-1.2-0.8c-6.2-4.7-13.5-11.7-13.5-11.7c-6.8-8.5-20.2-18.5-21.3-19.3c-3.5,2.8-6.7,4.7-9,5.9
					c-0.8,6,3.2,9.6,3.2,9.6c0.3,0.2,0.6,0.3,0.9,0.5c8.7,5.1,22.2,14.2,29.3,19c2.8,2,4.7,3.2,4.7,3.2c2,2.8,1.8,6.9,3.1,10.1
					c0.6,1.4,1,2.8,1.6,4.3c0.5,0,1,0,1.6,0c-0.2-0.9-0.3-1.7,0-2.1c0.7-1.2,1.3,1,1.6,1.6c0,0.1,0.1,0.3,0.2,0.6c0.7,0,1.4,0,2.1,0
					c-0.4-1.2-0.7-2.4-1-3.6c0.5,1.2,0.9,2.4,1.3,3.6c0.9,0,1.9,0,2.8-0.1c-0.4-1.6-0.7-3.3-0.1-3.9c0.9,1.1,1.5,2.4,2.1,3.7
					c1.1-0.1,2.1-0.2,3.2-0.2c-1.5-4-4.8-9.3-3.3-13.4c0.8-2.1,1.5-1.5,3.3-1c1.2,0.3,3.5,0.6,4-1.1
					C227.2,187.3,224.7,187.6,223.7,187.2z"/>
			</g>
		</g>
	</g>
	<g>
		<path d="M184.5,68.8c-0.5-0.6-1.2-0.9-1.9-1.2c-0.2,0-0.3-0.1-0.5-0.1c-0.6-0.1-1.2,0.1-1.7,0.4c-0.5,0.3-0.9,0.8-1.1,1.3
			c-0.1,0-0.1-0.2,0-0.3c0.2-0.5,0.6-0.9,0.9-1.3c0.4-0.4,0.9-0.6,1.5-0.6c0.7,0,1.4,0.4,2.1,0.8c0.3,0.2,0.6,0.4,0.8,0.6
			c0.1,0.1,0.2,0.2,0.2,0.3C184.8,68.8,184.6,69,184.5,68.8z"/>
	</g>
	<path d="M184.2,71.2l-0.1-0.3l-0.2,0.2c-0.2,0.3-0.5,0.4-0.9,0.4c-0.3,0-0.6-0.1-0.9-0.3c0,0-0.1-0.1-0.2-0.1
		c-0.1,0-0.1-0.1-0.1-0.1c-0.1-0.1-0.2-0.1-0.3-0.1c-0.1,0-0.2,0-0.3,0.1l0,0c-0.1,0.1,0,0.3,0,0.4c0,0,0,0.1,0,0.1l0,0
		c0.2,0.6,1,1.1,1.6,1.1c0.1,0,0.1,0,0.2,0c0.4,0,0.7-0.2,0.9-0.6C184.2,71.9,184.3,71.5,184.2,71.2z"/>
	<g>
		<path d="M201,59.6c-0.4,0.2-0.9,0.3-1.3,0.2c0.6-0.9,2.1-1.4,3.4-1.6c1-0.2,2.2-0.2,2.8,0.3c0.3,0.3,0.4,0.7,0.1,1
			C204.5,59,202.6,59,201,59.6z"/>
	</g>
	<g>
		<path d="M200.7,62.1c-0.1-0.4,0.5-0.9,1.3-0.9c0.8-0.1,1.8,0.2,1.9,0.6c-0.8-0.2-1.6,1.2-2.2,0.4c-0.1-0.1-0.1,0.2-0.2,0.2
			c-0.1,0.1-0.2,0.1-0.4,0.1C200.8,62.3,200.7,62.2,200.7,62.1z"/>
	</g>
</g>
</svg>
