<svg xmlns="http://www.w3.org/2000/svg" viewBox="14.2 100.4 259.8 403.6"><path d="M105.2 161.9c-7.6-4.9-15.1-4.7-20-3.4-6.9-1.3-24.2-3-34.9 9.9-14.6 17.5-7.6 42.7-6.7 45.3 1.7 5.4.8 8.1.7 8.6-1.2 2.2-8.2 14.9-11.1 33.8-2.5 16.3-1.2 32.1 3.7 47.4l8.1-2.7 3.3-2.7c-1-3.2 2.9-6.4 2.3-9.7l35.8-81.1 4.9 6.9 17.3-12.3c6-3.2 9.7-8.9 10.2-15.8 0-10-6.8-19.9-13.6-24.2z"/><g fill="#FFF"><path d="M125.1 381.9s-23.8 10.1-30.7 11.3c0 0 18.3.8 30.7-11.3z"/><path d="M95.2 394h-1l-7.6-.3 7.4-1.3c6.7-1.2 30.2-11.1 30.6-11.3l4-1.7-3.2 3C114.8 393.2 99.6 394 95.2 394zm25-9.2c-4.9 2-12.4 5-18.3 7.1 5.2-.9 12.1-2.8 18.3-7.1z"/></g><path fill="#51BFAC" d="M169.3 209.6c4.4-2.2 10.6-2.7 10.6-2.7.3 0 .5-.2.7-.3-2.5-5.5-5.2-12.4-6.7-18.5-.7 1-1.5 1.8-2.4 2-.2-2-1.5-2.2-2.5-3.5-.8-1.3-1.2-3-2-4.5-.5-1-1.2-1.5-1.3-2.7-.2-1.5.8-3 .3-4.9-.7-3.5-3.7-4.7-7.1-3.4-2.9 1.2-2.7 3.9-.5 5.4-1 1.3-3.4-.2-4.7-.5.3 1.2.7 2.5-.2 3.5-.7-2-1.7-2.5-3.5-3.5-2.5-1.3-5.4-3-7.4-5-2.2-2.2-3.5-4.7-3.5-7.9 0-2 .8-4 1.2-5.9-.8.3-2 1-2.9 1.8-1.2.3-2.2 1.3-3.5 1.7-1.3.5-2.7.8-4 1.2-2.2.7-4.2 1.5-5.5 3.5-.3-.3-.7-.5-1-.5-.2.3-.3.7-.3 1-1.7 5.2-2.9 11.6-2.7 19.8l7.6-.3-1 5.2 4.4-.5s-1.5 2-2 2.7c-.7 1-2.5 1-.5 3 0 0-.7 1.5-.8 2 0 0-.3 3.9 2.7 4.9 2.9 1 7.7-1.5 7.7-1.5s3 .5 4 5.2c-2.9 0-5.7-.2-8.9-.2.2 4.2.7 12.6 3.2 21.2l5.2-2.2c4.7-2.9 8.9-5.4 12.8-7.6 6.6-4 11.8-6.8 14.5-8zM169.6 237c-8.6-1-18.8 2.7-25 5.4 4 4.5 9.6 7.6 17 7.6 16.3 0 24.5-9.6 29.1-18.1-7 3.4-14.7 5.9-21.1 5.1zM155.5 417.5c1.2 0 2.2-.3 3.5-.3-1-2.2-2.1-4.4-3.5-6.2-1 .8-.6 3.9 0 6.5zM150.5 417.7h.5c-.6-2-1.4-4-2.2-6 .5 2 1 4 1.7 6zM143.9 413.9c-.5.8-.3 2.3 0 3.6 1 0 2.3.2 3.1.2-.2-.3-.4-1.1-.4-1.4-.2-.9-1.5-4.2-2.7-2.4zM138.5 410c-2.2-5.4-2-12.4-5.2-17 0 0-3-2.2-7.9-5.4-1.7 1.2-3.4 2.5-4.7 4-6.9 6.9-21.2 7.9-31.6 7.7-.3 6.2-.7 11.6-.7 11.6s22.2 1.3 28.4 3.5c2.4.8 9.6 2.2 18.3 2.9 0 0 2.4 0 6 .2-.9-2.8-1.6-5.2-2.6-7.5zM199.1 386.3c-7.4-2-33.9-8.7-55.9-4.7.7.5 1.3 1 2 1.3 2.2.2 5.4 1 7.7 1 2.2.2 4.4-.2 6.4.5 2.4.8 4.4 2.7 6.7 3.5 1.5.7 5.9.2 5 2.9-.8 2.9-4.7 2.4-6.7 1.8-3-.8-4.2-1.7-5.5 1.7-2.5 6.9 3 15.6 5.5 22.5 1.2-.2 2.2-.3 3.2-.3 4.2-1 7.9-2.2 10.6-4.2 14.9-10.2 21-12.1 21-12.1v-13.9zM264.3 477.1c.3-5.4-8.6-23.7-8.6-23.7.8-3.4-.3-11.4-.3-11.4l-10.6-37.8c5-27.2-8.9-48.9-10.6-54.1-1.7-5.4-1.3-9.2-1.3-9.2 1.3-6-2.2-34.9-2.2-34.9 17.1-30.2-.8-52.4-9.1-60.3-1.8-2.4-4.9-5.4-9.7-8.4 0 0-4.9-3.5-10.4-7.7-1.5 8.2-1.8 15.6-1.5 22.5 1.5 27.7 15.6 43 15.6 43-2 7.9-6.7 16.8-6.7 16.8-3.5 4.7-4.7 8.6-4.7 8.6l-1.5 28.6v.3c1.2 7.4 2 10.7 2 10.7s1.5 7.9 1.5 8.7c2.9 22.5 9.2 39.5 16.1 49.9 6.7 10.4 15.6 27.9 16 30.7.3 2.9.7 6.7.7 6.7-2.9 7.4.3 16.6.8 18.1s.3 7.2.3 7.2-2.2 13.1 3.9 13.3c6 .2 4.2-8.7 4.2-8.7s.8-2.4.3-3.9c-.2-.7-.2-2 0-3 .2.8.3 1.5.8 2.5.3.7.7 1.2.7 1.8 0 .8-.3 1.7-.3 2.5-.2 1.7 0 3.5.3 5.4 0 .7.2.7 0 1.3-.3.7-.3 1-1 1.3-.8.3-3.4 1.7-2.2 2.9-.7 0-1.5.7-2.2 1-.3.3-.5.5-.3 1 0 .2.2.3.2.3-.3.3-.7.3-.7.3-3.2 1.8-1 4-1 4l4-.8c.8.8 6.4 1.2 6.4 1.2 7.2-1.5 10.4-7.7 11.3-9.2.5-1.5-.2-17.5-.2-17.5zM109.1 295.9l17.5-26.7s8.2-4.5 5.4-18l.5-3 .3-2s2.2-.5 2.7-5.7c0 0 1.7-6.5-4.7-7.9l-3.9-.8-2.2-.5s.5-4.2-3.5-3.9c0 0-1.7-1.3-3.7-1.3 1-8.4 1.5-15.5 1.5-19-3.4.5-7.1 1.2-10.7 2.2-1.2.3-2.2.7-3.5 1 0 0-16.8-2.2-27.7 11.1-2 2.5-4 5.5-5.4 9.4-1.5 4-2.7 8.6-3.4 14.3 0 0-.7.7-1.7 2-2.7 3.2-7.9 10.1-12.1 20-3 7.1-5.4 15.5-6 24.9l-2.2 5.7c-1.5 1.2-2.9 2.5-3.9 3.9-2.5 4-5.9 8.1-7.9 12.8-1.3 3-2.2 6.2-1.8 9.9.3 5.7 3.5 12.3 11.6 19.8 0 0 1.7 2.2 4.4 3.2 2 .7 4.5 1 7.4-.7 0 0 4.7.3 8.2-4.7 0 0 2.2-.8 5.4-2.7 3.9-2 9.2-5.4 15.1-9.9 9.1-7.9 19.1-18.8 24.3-33.4zM84.3 284s-23.8 4.4-36.3 11.8c12.3-10.1 34.8-13.1 34.8-13.1s8.6-8.6 13.1-11.1 6.4-7.4 6.4-7.4l.7-2.9s-3.7-12.8-5.7-15.5-.3-7.4-.3-7.4l1.7-5c.3-5 1.7-7.9 3.4-9.1-1 1.5-1.7 4-1.8 7.4l-1.7 5.2s-1.5 4.9.3 7.6c2 2.9 5.7 15.8 5.7 15.8l-.7 2.9s-1.8 6-6.4 8.6c-4.7 3.1-13.2 12.2-13.2 12.2z"/><path fill="#060808" d="M129.9 162.1c1.3-.3 2.7-.7 4-1.2 1-.5 2.2-1.5 3.5-1.7.8-1 1.7-1.5 2.6-1.8-.3 2-1 3.9-1.2 5.9-.2 3.4 1.6 5.9 3.8 7.9s4.9 3.7 7.4 5c1.8 1 2.9 1.5 3.4 3.5.8-1 .5-2.4.3-3.5 1.3.3 3.5 1.6 4.7.3-2.2-1.5-2.4-4 .5-5.1 3.4-1.3 6.2-.3 6.9 3.4.3 1.8-.7 3.2-.3 4.9 0 1 .8 1.7 1.3 2.7.8 1.3 1.2 3.2 2 4.5 1 1.5 2.4 1.7 2.6 3.5 1-.2 2-1 2.5-2 .8-1.5 1.5-3.4 1.7-4.4.8-3 1.8-6.2 2.4-9.2.2-1-.2-2 0-3 0-.8.7-1.5.8-2.5.2-1 .2-2.2 0-3-.3-1.3-1.5-2.2-2-3.5-.7-1.5 0-3.2-1-4.7-.3-.7-1-1-1.2-1.7-.2-.5 0-1-.3-1.5-.5-1.8-3.7-5.4-6-5.4-1.5-3-4.7-7.1-8.6-4.2-.5-.7-1-2.2-1.7-2.2.3.7.7 1.5.5 2.2-1.3-1.2-2.9-2.7-4.7-3.5-2.9-1.3-6.2-1-9.1.3-1.8.8-4 1.2-6 2-2.7 1.2-6.7 2.7-8.6 5.2-.7 1-.8 1.3-1.8 2-1.2.8-2.4 1.5-3.5 2.7-1 1-2 2-2.5 3.2-.3 1-.2 2.2-.5 2.9-.3.7-1.7 1-2.2 2-.5 1-.5 2.2.3 3.2 1 1.2 2.2-.2 3.4.2.3 0 .7.2 1 .5 1.3-2.4 3.1-3.2 5.6-3.9z"/><g><path fill="#D61F28" d="M76.9 221.5c10.9-13.3 27.7-11.1 27.7-11.1 1.2-.3 2.4-.7 3.5-1 0-1 0-1.7.3-2-.3-.3-2-1-2.5-1.5 1 0 2.4-.2 2.7-.8-1-.5-1.8-3.4-1.8-4.2 1.5-.3 3-1 3-1-5.5-6.7-4.7-6.7-6.9-10.4-1.3-2.2-1.5-3.4-2.5-5.9-.3-.8-.7-1.5-1.2-2.2-.7-1.2-1.5-2.2-2.7-3 2 3.7-13.6 11.9-13.3 16 .3 3.4.2 11.8-6.9 16.3-1.4 2.7-.2 8.8.6 10.8z"/></g><g><path fill="#D61F28" d="M194.3 205.4s-7.6-.7-13.6 1.3c-.3 0-.5.2-.7.3 0 0-6 .5-10.6 2.7-2.7 1.3-7.9 4-14.6 7.9-3.9 2.2-8.1 4.7-12.8 7.6l-5.2 2.2-10.1 4.4 3.9.8c6.5 1.5 4.7 7.9 4.7 7.9-.3 5.2-2.7 5.7-2.7 5.7l-.3 2 6.7-2.9s2.2-1.3 5.5-2.9c6-2.9 16.3-6.5 25-5.4 6.4.7 14.3-1.7 21.2-5 4.7-2.2 8.9-4.9 11.9-7.4 2-1.5 3.5-3 4.2-4.2 3.6-5.6-5.3-13.5-12.5-15z"/></g><g><path fill="#D61F28" d="M165.8 387.7c-2.2-1-4.2-2.9-6.7-3.5-2-.7-4.2-.3-6.4-.5s-5.4-1-7.7-1c-.7-.5-1.3-1-2-1.3-10.4-7.9-22.7-19.6-22.7-19.6-11.4-14.3-33.9-31.1-35.8-32.4-5.9 4.7-11.3 7.9-15.1 9.9-1.3 10.1 5.4 16.1 5.4 16.1.5.3 1 .5 1.5.8 14.6 8.6 37.3 23.8 49.2 31.9 4.7 3.4 7.9 5.4 7.9 5.4 3.4 4.7 3 11.6 5.2 17 1 2.4 1.7 4.7 2.7 7.2h2.7c-.3-1.5-.5-2.9 0-3.5 1.2-2 2.2 1.7 2.7 2.7 0 .2.2.5.3 1h3.5c-.7-2-1.2-4-1.7-6 .8 2 1.5 4 2.2 6 1.5 0 3.2 0 4.7-.2-.7-2.7-1.2-5.5-.2-6.5 1.5 1.8 2.5 4 3.5 6.2 1.8-.2 3.5-.3 5.4-.3-2.5-6.7-8.1-15.6-5.5-22.5 1.3-3.5 2.5-2.5 5.5-1.7 2 .5 5.9 1 6.7-1.8.5-3.3-3.7-2.8-5.3-3.4z"/></g><g><path d="M100 188.6c-.8-1-2-1.5-3.2-2-.3 0-.5-.2-.8-.2-1-.2-2 .2-2.9.7-.8.5-1.5 1.3-1.8 2.2-.2 0-.2-.3 0-.5.3-.8 1-1.5 1.5-2.2.7-.7 1.5-1 2.5-1 1.2 0 2.4.7 3.5 1.3.5.3 1 .7 1.3 1 .2.2.3.3.3.5.1.2-.3.5-.4.2z"/></g><path d="M99.4 192.6l-.2-.5-.3.3c-.3.5-.8.7-1.5.7-.5 0-1-.2-1.5-.5 0 0-.2-.2-.3-.2-.2 0-.2-.2-.2-.2-.2-.2-.3-.2-.5-.2s-.3 0-.5.2 0 .5 0 .7v.2c.3 1 1.7 1.8 2.7 1.8h.3c.7 0 1.2-.3 1.5-1 .5-.1.7-.8.5-1.3z"/><g><path d="M127.4 173c-.7.3-1.5.5-2.2.3 1-1.5 3.5-2.4 5.7-2.7 1.7-.3 3.7-.3 4.7.5.5.5.7 1.2.2 1.7-2.5-.8-5.7-.8-8.4.2z"/></g><g><path d="M126.9 177.2c-.2-.7.8-1.5 2.2-1.5 1.3-.2 3 .3 3.2 1-1.3-.3-2.7 2-3.7.7-.2-.2-.2.3-.3.3-.2.2-.3.2-.7.2-.5-.4-.7-.6-.7-.7z"/></g></svg>