<?xml version="1.0" encoding="utf-8"?>
<!-- Generator: Adobe Illustrator 18.1.1, SVG Export Plug-In . SVG Version: 6.00 Build 0)  -->
<!DOCTYPE svg PUBLIC "-//W3C//DTD SVG 1.1//EN" "http://www.w3.org/Graphics/SVG/1.1/DTD/svg11.dtd">
<svg version="1.1" id="Layer_1" xmlns="http://www.w3.org/2000/svg" xmlns:xlink="http://www.w3.org/1999/xlink" x="0px" y="0px"
	 viewBox="14.2 100.4 259.8 403.6" enable-background="new 14.2 100.4 259.8 403.6" xml:space="preserve">
<path d="M105.2,161.9c-7.6-4.9-15.1-4.7-20-3.4c-6.9-1.3-24.2-3-34.9,9.9c-14.6,17.5-7.6,42.7-6.7,45.3c1.7,5.4,0.8,8.1,0.7,8.6
	c-1.2,2.2-8.2,14.9-11.1,33.8c-2.5,16.3-1.2,32.1,3.7,47.4l8.1-2.7l0,0l0,0l3.3-2.7c-1-3.2,2.9-6.4,2.3-9.7l35.8-81.1l0,0l4.9,6.9
	l17.3-12.3c6-3.2,9.7-8.9,10.2-15.8C118.8,176.1,112,166.2,105.2,161.9z"/>
<g>
	<path fill="#FFFFFF" d="M125.1,381.9c0,0-23.8,10.1-30.7,11.3C94.4,393.2,112.7,394,125.1,381.9z"/>
	<path fill="#FFFFFF" d="M95.2,394L95.2,394c-0.7,0-1,0-1,0l-7.6-0.3l7.4-1.3c6.7-1.2,30.2-11.1,30.6-11.3l4-1.7l-3.2,3
		C114.8,393.2,99.6,394,95.2,394z M120.2,384.8c-4.9,2-12.4,5-18.3,7.1C107.1,391,114,389.1,120.2,384.8z"/>
</g>
<g>
	<g>
		<path fill="#51BFAC" d="M169.3,209.6c4.4-2.2,10.6-2.7,10.6-2.7c0.3,0,0.5-0.2,0.7-0.3c-2.5-5.5-5.2-12.4-6.7-18.5
			c-0.7,1-1.5,1.8-2.4,2c-0.2-2-1.5-2.2-2.5-3.5c-0.8-1.3-1.2-3-2-4.5c-0.5-1-1.2-1.5-1.3-2.7c-0.2-1.5,0.8-3,0.3-4.9
			c-0.7-3.5-3.7-4.7-7.1-3.4c-2.9,1.2-2.7,3.9-0.5,5.4c-1,1.3-3.4-0.2-4.7-0.5c0.3,1.2,0.7,2.5-0.2,3.5c-0.7-2-1.7-2.5-3.5-3.5
			c-2.5-1.3-5.4-3-7.4-5c-2.2-2.2-3.5-4.7-3.5-7.9c0-2,0.8-4,1.2-5.9c-0.8,0.3-2,1-2.9,1.8c-1.2,0.3-2.2,1.3-3.5,1.7
			c-1.3,0.5-2.7,0.8-4,1.2c-2.2,0.7-4.2,1.5-5.5,3.5c-0.3-0.3-0.7-0.5-1-0.5c-0.2,0.3-0.3,0.7-0.3,1c-1.7,5.2-2.9,11.6-2.7,19.8
			l7.6-0.3l-1,5.2l4.4-0.5c0,0-1.5,2-2,2.7c-0.7,1-2.5,1-0.5,3c0,0-0.7,1.5-0.8,2c0,0-0.3,3.9,2.7,4.9c2.9,1,7.7-1.5,7.7-1.5
			s3,0.5,4,5.2c-2.9,0-5.7-0.2-8.9-0.2c0.2,4.2,0.7,12.6,3.2,21.2l5.2-2.2c4.7-2.9,8.9-5.4,12.8-7.6
			C161.4,213.6,166.6,210.8,169.3,209.6z"/>
	</g>
	<g>
		<path fill="#51BFAC" d="M169.6,237c-8.6-1-18.8,2.7-25,5.4c4,4.5,9.6,7.6,17,7.6c16.3,0,24.5-9.6,29.1-18.1
			C183.7,235.3,176,237.8,169.6,237z"/>
	</g>
	<g>
		<g>
			<path fill="#51BFAC" d="M155.5,417.5c1.2,0,2.2-0.3,3.5-0.3c-1-2.2-2.1-4.4-3.5-6.2C154.5,411.8,154.9,414.9,155.5,417.5z"/>
		</g>
		<g>
			<path fill="#51BFAC" d="M150.5,417.7c0.2,0,0.4,0,0.5,0c-0.6-2-1.4-4-2.2-6C149.3,413.7,149.8,415.7,150.5,417.7z"/>
		</g>
		<g>
			<path fill="#51BFAC" d="M143.9,413.9c-0.5,0.8-0.3,2.3,0,3.6c1,0,2.3,0.2,3.1,0.2c-0.2-0.3-0.4-1.1-0.4-1.4
				C146.4,415.4,145.1,412.1,143.9,413.9z"/>
		</g>
		<g>
			<path fill="#51BFAC" d="M138.5,410c-2.2-5.4-2-12.4-5.2-17c0,0-3-2.2-7.9-5.4c-1.7,1.2-3.4,2.5-4.7,4c-6.9,6.9-21.2,7.9-31.6,7.7
				c-0.3,6.2-0.7,11.6-0.7,11.6s22.2,1.3,28.4,3.5c2.4,0.8,9.6,2.2,18.3,2.9l0,0c0,0,2.4,0,6,0.2C140.2,414.7,139.5,412.3,138.5,410
				z"/>
		</g>
		<g>
			<path fill="#51BFAC" d="M199.1,386.3c-7.4-2-33.9-8.7-55.9-4.7c0.7,0.5,1.3,1,2,1.3c2.2,0.2,5.4,1,7.7,1c2.2,0.2,4.4-0.2,6.4,0.5
				c2.4,0.8,4.4,2.7,6.7,3.5c1.5,0.7,5.9,0.2,5,2.9c-0.8,2.9-4.7,2.4-6.7,1.8c-3-0.8-4.2-1.7-5.5,1.7c-2.5,6.9,3,15.6,5.5,22.5
				c1.2-0.2,2.2-0.3,3.2-0.3c4.2-1,7.9-2.2,10.6-4.2c14.9-10.2,21-12.1,21-12.1S199.1,393.5,199.1,386.3z"/>
		</g>
	</g>
	<g>
		<path fill="#51BFAC" d="M264.3,477.1c0.3-5.4-8.6-23.7-8.6-23.7c0.8-3.4-0.3-11.4-0.3-11.4l-10.6-37.8c5-27.2-8.9-48.9-10.6-54.1
			c-1.7-5.4-1.3-9.2-1.3-9.2c1.3-6-2.2-34.9-2.2-34.9c17.1-30.2-0.8-52.4-9.1-60.3c-1.8-2.4-4.9-5.4-9.7-8.4c0,0-4.9-3.5-10.4-7.7
			c-1.5,8.2-1.8,15.6-1.5,22.5c1.5,27.7,15.6,43,15.6,43c-2,7.9-6.7,16.8-6.7,16.8c-3.5,4.7-4.7,8.6-4.7,8.6l-1.5,28.6
			c0,0.2,0,0.3,0,0.3c1.2,7.4,2,10.7,2,10.7s1.5,7.9,1.5,8.7c2.9,22.5,9.2,39.5,16.1,49.9c6.7,10.4,15.6,27.9,16,30.7
			c0.3,2.9,0.7,6.7,0.7,6.7c-2.9,7.4,0.3,16.6,0.8,18.1c0.5,1.5,0.3,7.2,0.3,7.2s-2.2,13.1,3.9,13.3c6,0.2,4.2-8.7,4.2-8.7
			s0.8-2.4,0.3-3.9c-0.2-0.7-0.2-2,0-3c0.2,0.8,0.3,1.5,0.8,2.5c0.3,0.7,0.7,1.2,0.7,1.8c0,0.8-0.3,1.7-0.3,2.5
			c-0.2,1.7,0,3.5,0.3,5.4c0,0.7,0.2,0.7,0,1.3c-0.3,0.7-0.3,1-1,1.3c-0.8,0.3-3.4,1.7-2.2,2.9c-0.7,0-1.5,0.7-2.2,1
			c-0.3,0.3-0.5,0.5-0.3,1c0,0.2,0.2,0.3,0.2,0.3c-0.3,0.3-0.7,0.3-0.7,0.3c-3.2,1.8-1,4-1,4l4-0.8c0.8,0.8,6.4,1.2,6.4,1.2
			c7.2-1.5,10.4-7.7,11.3-9.2C265,493.1,264.3,477.1,264.3,477.1z"/>
	</g>
	<g>
		<path fill="#51BFAC" d="M109.1,295.9l17.5-26.7c0,0,8.2-4.5,5.4-18l0.5-3l0.3-2c0,0,2.2-0.5,2.7-5.7c0,0,1.7-6.5-4.7-7.9l-3.9-0.8
			l-2.2-0.5c0,0,0.5-4.2-3.5-3.9c0,0-1.7-1.3-3.7-1.3c1-8.4,1.5-15.5,1.5-19c-3.4,0.5-7.1,1.2-10.7,2.2c-1.2,0.3-2.2,0.7-3.5,1
			c0,0-16.8-2.2-27.7,11.1c-2,2.5-4,5.5-5.4,9.4c-1.5,4-2.7,8.6-3.4,14.3c0,0-0.7,0.7-1.7,2c-2.7,3.2-7.9,10.1-12.1,20
			c-3,7.1-5.4,15.5-6,24.9l-2.2,5.7c-1.5,1.2-2.9,2.5-3.9,3.9c-2.5,4-5.9,8.1-7.9,12.8c-1.3,3-2.2,6.2-1.8,9.9
			c0.3,5.7,3.5,12.3,11.6,19.8c0,0,1.7,2.2,4.4,3.2c2,0.7,4.5,1,7.4-0.7c0,0,4.7,0.3,8.2-4.7c0,0,2.2-0.8,5.4-2.7
			c3.9-2,9.2-5.4,15.1-9.9C93.9,321.4,103.9,310.5,109.1,295.9z M84.3,284c0,0-23.8,4.4-36.3,11.8c12.3-10.1,34.8-13.1,34.8-13.1
			s8.6-8.6,13.1-11.1c4.5-2.5,6.4-7.4,6.4-7.4l0.7-2.9c0,0-3.7-12.8-5.7-15.5s-0.3-7.4-0.3-7.4l1.7-5c0.3-5,1.7-7.9,3.4-9.1
			c-1,1.5-1.7,4-1.8,7.4l-1.7,5.2c0,0-1.5,4.9,0.3,7.6c2,2.9,5.7,15.8,5.7,15.8l-0.7,2.9c0,0-1.8,6-6.4,8.6
			C92.8,274.9,84.3,284,84.3,284z"/>
	</g>
</g>
<path fill="#060808" d="M129.9,162.1c1.3-0.3,2.7-0.7,4-1.2c1-0.5,2.2-1.5,3.5-1.7c0.8-1,1.7-1.5,2.6-1.8c-0.3,2-1,3.9-1.2,5.9
	c-0.2,3.4,1.6,5.9,3.8,7.9s4.9,3.7,7.4,5c1.8,1,2.9,1.5,3.4,3.5c0.8-1,0.5-2.4,0.3-3.5c1.3,0.3,3.5,1.6,4.7,0.3
	c-2.2-1.5-2.4-4,0.5-5.1c3.4-1.3,6.2-0.3,6.9,3.4c0.3,1.8-0.7,3.2-0.3,4.9c0,1,0.8,1.7,1.3,2.7c0.8,1.3,1.2,3.2,2,4.5
	c1,1.5,2.4,1.7,2.6,3.5c1-0.2,2-1,2.5-2c0.8-1.5,1.5-3.4,1.7-4.4c0.8-3,1.8-6.2,2.4-9.2c0.2-1-0.2-2,0-3c0-0.8,0.7-1.5,0.8-2.5
	c0.2-1,0.2-2.2,0-3c-0.3-1.3-1.5-2.2-2-3.5c-0.7-1.5,0-3.2-1-4.7c-0.3-0.7-1-1-1.2-1.7c-0.2-0.5,0-1-0.3-1.5c-0.5-1.8-3.7-5.4-6-5.4
	c-1.5-3-4.7-7.1-8.6-4.2c-0.5-0.7-1-2.2-1.7-2.2c0.3,0.7,0.7,1.5,0.5,2.2c-1.3-1.2-2.9-2.7-4.7-3.5c-2.9-1.3-6.2-1-9.1,0.3
	c-1.8,0.8-4,1.2-6,2c-2.7,1.2-6.7,2.7-8.6,5.2c-0.7,1-0.8,1.3-1.8,2c-1.2,0.8-2.4,1.5-3.5,2.7c-1,1-2,2-2.5,3.2
	c-0.3,1-0.2,2.2-0.5,2.9c-0.3,0.7-1.7,1-2.2,2c-0.5,1-0.5,2.2,0.3,3.2c1,1.2,2.2-0.2,3.4,0.2c0.3,0,0.7,0.2,1,0.5
	C125.6,163.6,127.4,162.8,129.9,162.1z"/>
<g>
	<path fill="#D61F28" d="M76.9,221.5c10.9-13.3,27.7-11.1,27.7-11.1c1.2-0.3,2.4-0.7,3.5-1c0-1,0-1.7,0.3-2c-0.3-0.3-2-1-2.5-1.5
		c1,0,2.4-0.2,2.7-0.8c-1-0.5-1.8-3.4-1.8-4.2c1.5-0.3,3-1,3-1c-5.5-6.7-4.7-6.7-6.9-10.4c-1.3-2.2-1.5-3.4-2.5-5.9
		c-0.3-0.8-0.7-1.5-1.2-2.2c-0.7-1.2-1.5-2.2-2.7-3l0,0c2,3.7-13.6,11.9-13.3,16c0.3,3.4,0.2,11.8-6.9,16.3
		C74.9,213.4,76.1,219.5,76.9,221.5z"/>
</g>
<g>
	<path fill="#D61F28" d="M194.3,205.4c0,0-7.6-0.7-13.6,1.3c-0.3,0-0.5,0.2-0.7,0.3c0,0-6,0.5-10.6,2.7c-2.7,1.3-7.9,4-14.6,7.9
		c-3.9,2.2-8.1,4.7-12.8,7.6l-5.2,2.2l-10.1,4.4l3.9,0.8c6.5,1.5,4.7,7.9,4.7,7.9c-0.3,5.2-2.7,5.7-2.7,5.7l-0.3,2l6.7-2.9
		c0,0,2.2-1.3,5.5-2.9c6-2.9,16.3-6.5,25-5.4c6.4,0.7,14.3-1.7,21.2-5c4.7-2.2,8.9-4.9,11.9-7.4c2-1.5,3.5-3,4.2-4.2
		C210.4,214.8,201.5,206.9,194.3,205.4z"/>
</g>
<g>
	<path fill="#D61F28" d="M165.8,387.7c-2.2-1-4.2-2.9-6.7-3.5c-2-0.7-4.2-0.3-6.4-0.5c-2.2-0.2-5.4-1-7.7-1c-0.7-0.5-1.3-1-2-1.3
		c-10.4-7.9-22.7-19.6-22.7-19.6c-11.4-14.3-33.9-31.1-35.8-32.4c-5.9,4.7-11.3,7.9-15.1,9.9c-1.3,10.1,5.4,16.1,5.4,16.1
		c0.5,0.3,1,0.5,1.5,0.8c14.6,8.6,37.3,23.8,49.2,31.9c4.7,3.4,7.9,5.4,7.9,5.4c3.4,4.7,3,11.6,5.2,17c1,2.4,1.7,4.7,2.7,7.2
		c0.8,0,1.7,0,2.7,0c-0.3-1.5-0.5-2.9,0-3.5c1.2-2,2.2,1.7,2.7,2.7c0,0.2,0.2,0.5,0.3,1c1.2,0,2.4,0,3.5,0c-0.7-2-1.2-4-1.7-6
		c0.8,2,1.5,4,2.2,6c1.5,0,3.2,0,4.7-0.2c-0.7-2.7-1.2-5.5-0.2-6.5c1.5,1.8,2.5,4,3.5,6.2c1.8-0.2,3.5-0.3,5.4-0.3
		c-2.5-6.7-8.1-15.6-5.5-22.5c1.3-3.5,2.5-2.5,5.5-1.7c2,0.5,5.9,1,6.7-1.8C171.6,387.8,167.4,388.3,165.8,387.7z"/>
</g>
<g>
	<path d="M100,188.6c-0.8-1-2-1.5-3.2-2c-0.3,0-0.5-0.2-0.8-0.2c-1-0.2-2,0.2-2.9,0.7c-0.8,0.5-1.5,1.3-1.8,2.2
		c-0.2,0-0.2-0.3,0-0.5c0.3-0.8,1-1.5,1.5-2.2c0.7-0.7,1.5-1,2.5-1c1.2,0,2.4,0.7,3.5,1.3c0.5,0.3,1,0.7,1.3,1
		c0.2,0.2,0.3,0.3,0.3,0.5C100.5,188.6,100.1,188.9,100,188.6z"/>
</g>
<path d="M99.4,192.6l-0.2-0.5l-0.3,0.3c-0.3,0.5-0.8,0.7-1.5,0.7c-0.5,0-1-0.2-1.5-0.5c0,0-0.2-0.2-0.3-0.2c-0.2,0-0.2-0.2-0.2-0.2
	c-0.2-0.2-0.3-0.2-0.5-0.2c-0.2,0-0.3,0-0.5,0.2l0,0c-0.2,0.2,0,0.5,0,0.7v0.2l0,0c0.3,1,1.7,1.8,2.7,1.8c0.2,0,0.2,0,0.3,0
	c0.7,0,1.2-0.3,1.5-1C99.4,193.8,99.6,193.1,99.4,192.6z"/>
<g>
	<path d="M127.4,173c-0.7,0.3-1.5,0.5-2.2,0.3c1-1.5,3.5-2.4,5.7-2.7c1.7-0.3,3.7-0.3,4.7,0.5c0.5,0.5,0.7,1.2,0.2,1.7
		C133.3,172,130.1,172,127.4,173z"/>
</g>
<g>
	<path d="M126.9,177.2c-0.2-0.7,0.8-1.5,2.2-1.5c1.3-0.2,3,0.3,3.2,1c-1.3-0.3-2.7,2-3.7,0.7c-0.2-0.2-0.2,0.3-0.3,0.3
		c-0.2,0.2-0.3,0.2-0.7,0.2C127.1,177.5,126.9,177.3,126.9,177.2z"/>
</g>
</svg>
