<svg xmlns="http://www.w3.org/2000/svg" viewBox="44 0 128.1 216"><path d="M163.8 51.4c-1.5-2.5-3.6-3.9-5.7-5.2-2.1-1.4-2.3-4.5-2.5-7.1 0-.3 0-.6-.1-.8-.4-6.4-6.4-8.6-11.8-8.6-2 0-4 .3-5.8.8h-.1c1-.7 1.9-1.6 2.6-2.6 3-3.7 4.1-8.7 3-13.4-.8-3.5-2.5-7-4.8-9.7-2.6-3-5.5-4.7-8.3-4.7-2 0-4.8.8-7.4 4.7-.9 1.4-2.8 1.9-4.7 2.4-1.9.5-3.8 1-5.3 2.4-3.2 3.2-2 6.6-1.2 9 .9 2.7 1.3 4-1.1 5.4-.1 0-.4.1-.8.1-1 0-3.1-.5-6.4-3.5-.8-.7-1.9-1.1-3-1.1-5.4 0-12.6 8-15.2 16.8-1.7 5.7-2.7 16.3 9.1 23.9 2.9-2.4 5.7-4.3 7.5-5.6.6-.4 1.1-.7 1.4-.9.5-.3.7-.4.7-.4s.6-.4 1.6-.8c-.2-2.3-.2-4-.1-4.9v-.4c.3-2-.1-2.4-.1-2.4 11.2-3.9 26.8 21 29.3 24.9.1-.1 28.6-7.8 28.8-7.5.1-.2.3-.4.4-.6 1.8-3 1.8-7.1 0-10.2z"/><path fill="#F05A2B" d="M136.7 125.5l.2-.1c-.1 0-.2.1-.2.1zM122.1 130z"/><path fill="#F15A29" d="M70.4 76.7c.5.5 1.7 1.1 2.4 1.2.1 0 1.5-.6 2.3-.9.6-.4 1.3-.9 2.3-1.6-2.8-.4-5.8-.7-9-.9.3.2.5.4.7.6.5.6.9 1.1 1.3 1.6z"/><path fill="#F05523" d="M89 78.1c-.1 0-.2-.1-.3-.1-7.3 2.7-12.8 3.4-14.1 3.5-1.7.4-5.2 1.8-6.3 2.1-1.3.4-2.6.8-3.9.6-.2 0-.4-.1-.5 0s-.3.1-.4.2c-.3.1-.6.1-.9 0-3.6 9.1-9.4 28.1-9.9 57.4 0 0 .2 2.7-1.4 8-1.1 3.6-2.2 7.2-3.2 10.7-.3 1-.6 1.9-1.2 2.7-.6.8-1.5 1.4-2.6 1.4-.2.4-.1 1 .2 1.4s.9.5 1.3.3c-.1.4-.3.8-.4 1.3 0 .1-.1.2-.1.3 0 .2.3.4.5.4s.5-.1.7-.2v.5c.4.4 1.2.1 1.3-.4-.1.5.3 1 .8 1.1s1-.5.9-1c.3.4 1 0 1.2-.4s0-1-.2-1.4c1.1-.4 1.9-1.3 2.4-2.3s.9-2.1 1.6-3c1.4-2.2 3.8-3.3 6-4.8.7-.4 1.3-.9 1.8-1.6s.8-1.4.7-2.2c-.1-.8-.6-1.5-1.2-2.2-.6-.6-1.3-1.1-1.6-1.9-1-2.4-3.1-12.8 9.2-25.8 2.2-2.3 3.9-4.4 5.3-6.4 0 0 .5-.5 1.2-1.3 2.2-2.9 6.8-10.3 4.9-21.9.9 4.1 1 7.7.7 10.8.6 1.2 1.9 3.1 4.3 5.3.3.3.6.5 1 .8 6.6-8.8 14.6-16 22.9-21.4-.2-.1-.4-.3-.6-.4-3.9-2.7-10.5-7-20.1-10.1zM168.7 72.8c-1.1-4.3-3.1-7.8-5.1-10.4-.2-.3-.5-.6-.7-.9-1.9-2.3-3.7-3.8-5-4.8l-.4-.4c-1-1-2.1-1.8-3.3-2.4-2.4-1.2-4-1.3-5.2-.7-1.5-.2-2.7-1.6-3.6-3.5-1.6-3.4-2.3-8.4-2.6-10.6l-.1-.4c-.3-2-.8-2-1-2-.4 0-.9.2-1.7.6l-.2.1c-1.6.9-2.6 1.5-3.3 1.9-.1.7-.1 1.5-.3 2.2-.3 1.7-1.3 3.3-2.6 4.5.6.1 1.2 0 1.8-.1.1.3.1.6.1.9-.3.2-.6.5-.9.7.2.2.3.5.5.7-.1.2-.3.4-.4.6.4.3.9.6 1 1.1v.6c-.1.5-.3 1.1.4 1.2h1.6c1.1-.1 2.2-.4 3.3-.4 3 0 4.1 3.9 4.4 6.8-.9 1.6-1.9 3.4-3.5 5 0 0-3.3 3.8-6.8 6.5-.1.1-.3.2-.4.3 4 6.3 9.1 8.9 10.1 9.4 5.8 2 9.4 6.9 9 15.4-4.4 10.6-16.9 25.6-18.2 27.1-.1 0-.1.1-.2.1-1.2.9-2.9.1-4.4.5-.5.1-1.4 0-1.8.2-1.8.6-3-.6-4.8-.3-.3.6.2 1.3.8 1.6.6.3 1.3.3 2 .4.7.1 1.6.5 1.9 1 .6.9-6.8 3.8-7 4.9h-.1s0 .1.1.1c.2.3.7.1 1 .1.4 0 .8.3 1.3.3.4 0 .7-.2 1.1-.2.4 0 .8.2 1.3.3.8.1 1.6-.5 2.4-.7.4-.1.8-.2 1.2-.2 2-.3 3.7-1.4 5-2.8.5-.5.9-1 1.3-1.4l.1-.1-.1.2c39.2-14.8 36.2-40.6 32-53z"/><path fill="none" d="M134.4 69.5s-.1-.1 0 0"/><path fill="#0C0C0C" d="M134.3 69.4c0 .1.1.1 0 0"/><path fill="none" d="M134.9 69.3v-.2l-.5.4c.3.1.5.1.5-.2zM134.9 70.4c0-.1.1 0 0 0 .1 0 0 0 0 0zM134.3 70.4c0-.1.1-.2.1-.3 0 0-.1-.1 0-.1s.1 0 .1.1h.4"/><path fill="#0C0C0C" d="M134.9 70.3s0 .1 0 0c0 .1 0 .1 0 0 0 .1.1.1 0 0 .1.1 0 0 0 0z"/><g fill="#020303"><path d="M141 77.9l.6.1h.2l-.3-.4c-.2.2-.3.3-.5.3zM139.8 76.7c0 .1 0 .1 0 0 .1.1.1.1 0 0v-.2c.1.1 0 .2 0 .2zM140.3 76.7c-.1 0-.3 0-.4.1v1c.1-.1.1-.2.2-.2.1-.2.3-.5.2-.9 0 .1 0 .1 0 0zM139.4 75.9v-.2c-.1-.2-.3-.2-.5-.1v.1c0 .2.2.3.5.2-.1 0-.1 0 0 0zM138.8 75.7zM134.4 70.1s0-.1 0 0c-.1 0 0 0 0 0 0 .1-.1.2-.1.3l.5-.3h-.4zM137.6 73.4c-.2-.1-.3-.3-.5-.3.1.3.1.3.5.3zM137.6 73.4c.1.1.3.2.4.2l-.2-.2h-.2zM138.8 74.8c.1.1.2.1.3.1l-.3-.3c-.1 0 0 .1 0 .2zM136.8 72.4c0 .1.1.1.2.1l-.4-.4c0 .1.1.2.2.3zM136.1 71.7c.1.2.2.4.5.3l-.1-.2c-.2-.1-.3-.1-.4-.1zM140.8 77h-.1c-.1.2-.1.3-.2.5h.4c0-.2.1-.2.2-.3l-.3-.2c.1 0 0 0 0 0z"/><path d="M138.8 75c0 .1 0 .1 0 0 0 .1 0 .1-.1.2-.2.1-.3.3-.4.5.2 0 .3.1.5 0 0 0 0-.1.1-.1v-.2-.1h.1c.1.1.3.1.4 0l.1-.1v.1c0 .1.1.2.1.3h.5l-.6-.7c-.5 0-.6.1-.7.1zM139.8 75.8c.1.1.1.1 0 0 0 .2 0 .1 0 0-.2 0-.3 0-.5.1 0 0 0 .1-.1.1l.5.3s0-.1.1-.1v.1c0 .1.1.2.1.3h.4c0-.1.1-.1.1-.2l-.6-.6z"/><path d="M171.6 73c-.7-.9-1.9-1.3-3.2-1.3l.1.4c1.2-.1 2.2.3 2.8 1.1.4.5.5 1.1.4 1.7-.1.5-.4.9-.7 1.1-.4.2-.9.3-1.3.3-3 0-5.7-1.8-8.2-3.4l-.6-.4c-2.8-1.8-6-3.4-9.3-2.7-1.2.3-2.4.9-3.4 1.5-.5.3-1 .5-1.5.8-1.4.7-3.4 1.3-5 .4-.9-.5-1-2-1.1-3.5-.1-1.3-.1-2.4-.7-2.9-.2-.2-.5-.3-.9-.2V66.2s-.1 0-.1.1c-.1.1-.2.1-.3.1l-.2.1c.1-.1.3-.1.4 0v.2c0 .1-.1.3-.2.1-.1-.1-.2-.1-.3-.3l-.3.3c.1 0 .2.1.2.2.2.2.4.3.5.6-.1.1-.4-.1-.4.1l-.1.1c-.2-.2-.3-.4-.5-.5 0 0 0-.1-.1-.1v-.1l-.1.1h.1v.1c-.1.1-.2.1-.3 0l-1 .8c0 .1-.1.1-.2.2.3.1.2.4.3.5-.2 0-.3 0-.5-.1v-.2-.1l-.2.2c.1 0 .2 0 .3.1 0 .1 0 .1.1.2 0 0-.1.1 0 .1s.1-.1.1-.1c.1-.1.2 0 .4 0 .1.1.2.2.1.3 0 0-.1 0-.1.1-.1.1-.3.1-.4 0 0 0 0-.1-.1-.1s0 .1 0 .1v.1c-.1 0-.1.1-.1.1-.2.1-.4 0-.6 0 0-.3.1-.5 0-.8l-.5.4v.2c0 .3-.3.3-.5.2l2 2.4c.1 0 .1.1.2.2.1 0 .3 0 .4.1.1 0 .1.1.1.2s0 .1-.1.2l.8.9h.3c.2 0 .5.3.5.5 0 .1-.1.1-.2 0s-.2-.2-.4-.3l.8.9s0-.1.1-.1c.1-.1.2.1.2.1.1.1.2.1.2.2h-.2l.1.1h.1l.1.1v-.1-.1c.2 0 .4.1.5.3-.1 0-.1.1 0 .1 0 0 0 .1.1.1v.2c-.1 0-.1.1-.1.1.1 0 .1-.1.1-.1.2-.1.4 0 .5 0 .1.3.1.6 0 .9l.5.5c.2-.3.4-.3.6-.1 0-.2-.1-.3-.3-.2-.1 0-.2 0-.3-.1-.1-.2 0-.5 0-.8 0-.3.3-.3.5-.2 0 0 0 .1.1.1v.2s0 .1-.1.1c0 0-.1.1 0 .1l.1-.1v-.1c.2-.2.4-.1.5.1 0 .1 0 .2.2.2.1 0 .3 0 .4.1.1.1 0 .2-.1.3-.2 0-.3.1-.5-.1 0 0 0-.1-.1-.1s0 .1 0 .2v.2c.1-.1.3-.1.4-.1.2.1.1.3.1.4 0 .1-.2.1-.3.1-.3 0-.5.1-.8.1 0 0 0-.1-.1-.1 0 0 .1-.1 0-.1s-.1 0-.1.1h-.3l.4.5c.1-.1.3-.1.5-.1 0 .1 0 .1.1.1v.2c-.1 0-.1.1-.1.1h-.2l11.6 13.4h.1c.3-.2.4-.2.6.1 0 0-.1 0-.1.1-.2.1-.3.1-.5 0 0 0 0-.1-.1 0V91.8c-.1 0-.1.1-.1.1-.1 0-.3.1-.4 0 0 0 0-.1-.1-.1v.1c.1.3.3.1.5.1 0 .1 0 .1.1.1v.2c-.1 0-.1.1-.1.1h-.1c0-.1 0-.3-.2-.3s-.2.2-.2.4c.1.2.3.5.5.6.2-.1.3 0 .5 0v.1c-.2.1-.3.1-.5 0v-.1s0 .1.1.1c0 .4.2.1.4.2s.1-.1.1-.1c.1 0 .1 0 .1-.1.1-.1.3-.1.4-.1 0 0 0 .1.1.1v-.1c0-.1.1-.2.1-.3h.1v-.1h-.1c.1-.2 0-.4.3-.5-.3-.1-.2-.4-.3-.5.1 0 .3 0 .4.1v-.1-.1s.1-.1 0-.1-.1.1-.1.1c-.1.1-.2 0-.4 0-.1-.1-.2-.2-.1-.3 0 0 .1 0 .1-.1.1-.1.3-.1.4 0 0 0 0 .1.1.1v-.1-.1c.1 0 .1-.1.1-.1h.2v-.1c-.1 0-.2 0-.2-.1 0 0 0-.1-.1-.1v-.2.2s0 .1.1.1v.2c-.1 0-.1.1-.1.1h-.5c0-.1-.1-.2-.1-.3 0 0 .1-.1 0-.1l-.1.1c-.2.1-.3.1-.4 0 0 0 0-.1-.1 0V91.1s-.1 0-.1.1c-.1.1-.3 0-.4 0 .1-.2.3-.3.4-.5v-.1-.1c.1-.1.3-.1.4 0l.1.1v-.1-.1c.2 0 .4.2.5.3.1 0 .3.1.4.1 0-.1.1-.3.1-.4-.1.1-.2.1-.2 0-.2-.2-.4-.3-.6-.4-.1-.1-.1-.1-.1-.2 0 0 .1 0 .1-.1.1-.1.3-.1.4-.1.1.2.4.3.5.5l.1.1c.1-.3.1-.5.2-.8v.2l-.6-.6c-.1-.1 0-.2.1-.2.2 0 .5 0 .7-.1 0-.2.1-.3.1-.5h-.3l.3-.3c0-.1.1-.1.1-.1v-.1c-.1.1-.1 0-.2 0h-.2c-.2.2-.3.1-.4-.1-.1-.2.1-.2.2-.3.2-.1.4-.2.5 0l.1.1c0-.1 0-.3.1-.4-.1-.1-.2-.2-.3-.2-.3 0-.2-.2-.1-.3.2-.1.3 0 .5.1v-.1-.1s.1-.1 0-.1-.1 0-.1.1c-.1 0-.2.1-.3 0 .2-.2.3-.4.4-.7h.1v-.1h-.1c0-.2.1-.4.1-.6.1-1 .2-2 .3-2.9-.2-.2-.3-.4-.4-.6h.3s0 .1.1.1v-.1c0-.1 0-.1.1-.2v-.4l-.1-.1c.1 0 .1-.1.1-.1v-.2c-.1 0-.1.1-.1.2-.1 0-.1.1-.1.1h-.4c.2.1.3 0 .4.2 0 .1.1.1 0 .2-.1.2-.2.2-.4.2-.2-.1-.1-.3-.1-.5 0-.3.1-.5.3-.7.1-.1.2-.1.3-.2v-.7h-.2c-.3 0-.4-.3-.5-.6 0-.1.1-.2.2-.3.1 0 .2 0 .3.1.1.1.1.2.1.3 0 0 0 .1-.1.1-.2.1 0 .1.1.2.1.2.1 0 .1 0h.1v-.8l-.2-.2c0-.1 0-.2-.1-.2 0-.1.1-.1.1-.2.1 0 .1 0 .2.1v-.3c-.1 0-.1-.1-.2-.1h.2V77h-.2c-.1-.1 0-.3 0-.4h.2v-.1h-.1c-.2 0-.1.1-.1.2s-.1.1-.1.2c-.2 0-.2-.2-.2-.3s0-.3.2-.2c.1 0 .1-.1.1-.1.1-.2.2-.2.3-.2v-.3c-.3 0-.5 0-.6-.4 0-.1-.1-.1 0-.2.1 0 .1 0 .2.1.1.2.2.2.4.3v-.4c-.2-.1-.3-.3-.4-.7l.2-.2c.1.2.1.3.2.4V74l-.2.2-.2-.2c0-.2.1-.2.2-.3h.1v-.6c-.6.3-1.1.1-1.3-.5h.3s0 .1.1.1 0-.1 0-.1c0-.1 0-.1.1-.2s.2-.1.4-.1c.1 0 .1 0 .1-.1.1 0 .1-.1.1-.1.1 0 .2-.1.2.1 0 .1.1.2.1.2v-.8c-.4-.4-1-.4-1.5 0-.2.1-.3 0-.5 0v-.2c.3-.2.5-.4.8-.5 1.6.5 3.2 1.4 4.6 2.3l.6.4c2.6 1.7 5.3 3.4 8.4 3.4h.1c.4 0 1 0 1.4-.3.5-.3.8-.7.9-1.3.8-1 .6-1.8.2-2.4zm-17.4 19.6v.1c-.3.2-.5.2-.6-.2.1 0 .1-.1.1-.1.2-.1.3-.1.5 0-.1.1-.1.1 0 .2zm.3-.1h-.3l-.1-.1c0-.1.1-.2-.1-.2h-.4c0-.1 0-.1-.1-.1V92c.1 0 .1-.1.1-.1.1 0 .2-.1.4 0s.1-.1.1-.2c0 0 .1 0 .1-.1.3.1.4.5.3.9zm-.3-1.6c.2-.1.4-.1.5.1v.2s-.1 0-.1.1c-.2.1-.3-.1-.4-.4-.1.1-.1 0 0 0zm-.1-20.2c-.2.4-.7.7-1.1.6 0-.1 0-.1-.1-.1-.1-.3-.3-.1-.5-.1 0-.1 0-.1-.1-.1v-.1-.1c.1-.1.2-.2.4-.1.1 0 .2 0 .2-.1.1 0 .1-.1.1-.1.1 0 .1 0 .2-.1.2 0 .2.1.3.2.2.1.4-.1.6.1 0-.1 0 0 0 0zm1.2 1.3c.1 0 .2-.1.3 0 0 .1 0 .3.1.4-.1.1-.3 0-.4 0 0-.1 0-.1-.1-.1v-.1c.1-.1.1-.1.1-.2zm-.1.4v.2c-.1 0-.1.1-.1.1-.2 0-.4 0-.5-.2 0-.1 0-.1.1-.2s.3-.1.5-.1v.2zm0 1.1c0 .1 0 .1 0 0 .1.1.1.2.1.3-.6-.2-.6-.2-.6-.7.2-.3.4-.2.6 0v.2s-.1 0-.1.1c-.1 0-.1.1 0 .1zm.5 1v.2c.2 0 .3.2.4.3.1.2 0 .2-.1.2s-.2 0-.2-.1 0-.1-.1-.1v-.1h-.4c-.2-.1-.4-.3-.5-.5 0-.1-.1-.1 0-.2s.2-.1.2 0c.2.1.5.1.7.3zm-.4-.7c.2-.1.4 0 .5.1v.1c-.2.1-.4-.1-.5-.2zm.5 6v.2s-.1.1 0 .1.1 0 .1-.1c.1-.1.3-.1.4 0-.1.3-.3.6-.3 1-.1 0-.1 0-.2-.1 0-.1 0-.1-.1-.2 0 0 .1-.1 0-.1l-.1.1c-.2.1-.3 0-.4 0 0-.1-.1-.2 0-.3s.2-.1.3-.1c-.1-.1-.3 0-.3-.1-.1-.1 0-.2 0-.3.1-.1.3 0 .5-.1 0-.1 0 0 .1 0zm-.5 3.3v-.2c0-.1.1-.2.1-.3.2 0 .3 0 .5.1v.3c-.3.1-.5.1-.6.1zm.4.1c.1.1.1.2.1.3-.1 0-.1.1-.1.1-.2 0-.3.1-.5-.1-.1-.1-.1-.2 0-.3h.5zm-2.5 3h.9v.1c-.2.1-.3.1-.5 0h-.1v.1c.1.3.4 0 .5.2 0 .1.1.1.1.2s-.1 0-.2 0c-.3-.1-.5-.2-.7-.4-.1-.1-.2-.2 0-.2zm-.2-.5c0-.1 0-.1.1-.1s.1 0 .1.1.1.2.2.4c-.3 0-.4-.1-.4-.4zm.8.1c-.2 0-.3-.1-.3-.3 0-.1.1-.3.3-.3.2 0 .3.1.3.3 0 .2-.1.3-.3.3zm-.3-.7c-.1.1-.2.1-.3.3 0 .1-.1.1-.2.1s-.1-.1 0-.2c.1-.2.2-.3.5-.3.1 0 .2-.1.2.1 0 .1-.1 0-.2 0zm-.3-.8h-.2c-.3.3-.4.1-.6-.1.1 0 .1-.1.1-.1.2 0 .3-.1.5.1 0 0 0 .1.1 0v-.1-.2c.1 0 .1-.1.1-.1.1 0 .3-.1.4 0 0 0 0 .1.1.1v-.1c-.1-.3-.3-.1-.5-.1 0-.1 0-.1-.1-.1v-.2c.1 0 .1-.1.1-.1.1.1 0 .4.2.3.2-.1.2-.2.2-.4v-.1c-.2-.2-.3-.4-.5-.5 0 0 0-.1-.1-.1 0-.4-.2-.1-.4-.2s-.1.1-.1.1c-.1 0-.1 0-.1.1-.1.1-.1.1-.2.1-.2 0-.3.1-.3.3h-.1c-.1 0 0 .1 0 .1 0 .3-.1.4-.4.5.4 0 .3.4.4.5-.2 0-.3 0-.5-.2v-.2-.1h-.1c-.1.1-.3.1-.4.1h-.1c0-.3.2-.6.4-.9.2-.4.6-.5.8-.7.2-.1.5-.2.7-.2.3 0 .6.1.8.3.2.2.4.3.5.6-.1.1-.4-.1-.4.1l-.1.1v.1c.1 0 .1-.1.1-.1h.4c.4.6 0 1.3-.7 1.4zm-.4-1.4c.2 0 .3.2.3.3-.1 0-.1.1-.1.1-.2.1-.3.1-.5 0 0 0 0-.1-.1-.1V83c.1-.1.2-.1.4-.1zm-.3-.5c.2-.2.3-.2.5-.1v.1c-.2.2-.3.1-.5 0zm0 .9c0 .1-.1.2.1.2h.4c0 .1 0 .1.1.1v.1c-.1 0-.1.1-.1.1-.1 0-.2.1-.4 0-.1 0-.1 0-.1.1l-.1.1c-.4-.2-.5-.5-.3-1 .1.2.2.2.4.3-.1 0 0 0 0 0zm-.1 1.5c-.2.2-.4.1-.5-.1v-.2s.1 0 .1-.1c.2 0 .3.2.4.4zm-.5-2zm-1.3-.5h-.1c-.1 0-.2-.1-.3-.1 0-.2.1-.3.1-.4.2 0 .3-.1.4-.2.2 0 .4-.1.5 0 .1.2 0 .3-.2.4 0-.1-.2.1-.4.3zm-2-3.1c-.2 0-.4-.2-.6-.2.3-.1.2-.6.6-.7.1-.5.1-.5.5-.4v-.1c-.3.1-.4 0-.3-.3.1-.4.3-.7.4-1 .2-.1.4-.1.5 0 0 .1.1.3 0 .4-.1.1-.3.1-.4.1l-.1-.1v.1s-.1.1 0 .1l.1-.1c.1 0 .3-.1.4.1l.1.1-.1-.1v-.2c.2-.2.3-.2.5-.1 0 .1 0 .1.1.2l-.1.1.1-.1h.3s.1.1.1 0-.1-.1-.1-.1c-.2 0-.3 0-.4-.1v-.2c.2-.1.4-.2.6 0 0 .1 0 .2.1.2.2 0 .4.2.4.3 0 .2-.2.1-.3.2-.2 0-.3.2-.4.4-.1.1-.1.3-.1.5h-.2c0-.1 0-.1-.1-.1v-.2c-.2.2-.3.1-.5 0v-.3c.1-.1.3-.2.4-.1s.1-.1.1-.1c-.1.1-.3.1-.4.1 0 .1 0 .1-.1.2s-.3.1-.5.1c.2.1.4 0 .5.1 0 .1 0 .1.1.2-.1 0-.1.1-.1.1-.1.1-.3.1-.5.1 0-.1 0-.1-.1-.1 0-.1.1-.2-.1-.2v.1s0 .1.1.1c0 .1 0 .1.1.1 0 .1 0 .1-.1.2-.1 0-.2.1-.4.2.1 0 .2.1.4.1 0 .1 0 .1.1.2-.1 0-.1.1-.1.1-.1.1-.3.1-.4 0 0 0 0-.1-.1-.1 0 0 .1.1 0 .2 0-.1 0-.1 0 0zm-.9.7c0 .1-.1.1-.1.2 0-.1.1-.2.1-.2v-.2c.1-.1.5.2.4-.2 0 0 .1 0 .1-.1.1 0 .2.1.3.2 0 .1.1.1.1.2s-.1.1-.2.1c-.3-.1-.5.3-.7 0zm0-.6c0 .1 0 .1 0 0 .2.1.3-.1.4 0v.1c-.1.1-.2.1-.4.1v-.2c0 .1 0 .1 0 0zm.4-1.6c-.1.1-.1.1 0 0-.2.1-.4.1-.5-.1 0-.1.1-.2.2-.2.1-.1.3-.1.3.1.1 0 .2-.1.3.1 0 .1 0 .3-.1.4-.1.1-.1-.1-.2-.1v-.2zm-1.1-.9c0-.1 0-.3.2-.4.1-.1.3 0 .4.1v.3c-.1.1-.1.2 0 .3v.2c-.1.1-.2.2-.4.2l-.1-.1v-.3c0-.1 0-.2-.1-.3zm-1.6 1.1c.2-.1.1.2.3.3l.1.1c-.2.1-.3 0-.5 0 0-.1-.1-.3.1-.4zm-.7-1.9c-.1 0-.3.1-.3-.1s-.1-.4.1-.4c.2-.1.2-.3.5-.3.2 0 .3 0 .4.2v.2c-.1.1-.2.1-.4.1-.2-.1-.2.1-.2.2l-.1.1v.1s0 .1.1.1v.3c-.2.1-.3-.2-.3-.3 0-.2.2-.1.3-.1-.1 0-.1 0-.1-.1zm-1.5.2c.2-.1.3-.1.5.1v.2c-.1.2-.3.2-.5 0-.1-.1-.1-.2 0-.3zm.2-.7c.1 0 .2.1.3.1v.3c-.1.1-.3.2-.5.1-.1-.2 0-.3.2-.5zm.3.4c.1 0 .2-.1.3-.1 0 .2 0 .3.1.5-.1 0-.3 0-.4-.1v-.3zm.4-.2c-.1.1-.2 0-.3-.1 0-.3-.2-.2-.4-.2.1-.4.4-.7.7-.9.2-.1.4-.3.6-.2 0 .1 0 .1.1.1v.3c-.1 0-.1.1-.3.1-.4-.2-.3.2-.4.4v.5zm-2.6-2.6c0-.1.1-.1.2-.2.5.2.9.3 1.4.3 0 .1-.1.1-.3.1h-.1c-.2.4-.6.4-1 .1.1-.1.2 0 .4 0-.3 0-.6 0-.6-.3zm-1.7.2s-.1 0 0 0c-.1.1-.1.1-.2.1-.1-.1-.3-.1-.4-.3.3-.2.4.1.6.2zm-.5-.2c-.1 0-.3 0-.4-.1-.1 0-.1-.1-.1-.2s0-.2.1-.2.1 0 .2.1.3.2.2.4zm-.1-1.1c0-.1 0-.1.1-.2s.2-.2.4-.1c.1 0 0 .1 0 .2 0 .2.1.4.2.6.2.2.4.1.5.2 0 .1.1.2 0 .3-.1.1-.3.1-.4 0-.5-.3-.7-.5-.8-1zm.9-1.9h-.2c-.1-.2.1-.2.2-.3v.3zm0 .1c0 .2 0 .3.1.5-.1 0-.2.1-.3 0v.1c-.1 0-.1.1-.1.1-.2 0-.3 0-.5-.1-.1-.3.2-.8.6-.8 0 .2.1.2.2.2zm.6 2h-.1c-.1 0-.1 0-.2.1-.2.1-.3 0-.4-.1-.1-.2 0-.2.2-.3.1 0 .2-.1.3-.1 0 .1.1.3.2.4zm-.9-1.1c.1-.1.1-.2.1-.2.1-.1.2-.1.4 0-.2.1-.3.2-.5.2zm-.4.1c.1-.1.3-.2.4 0-.1 0-.2.1-.3.1-.2.1-.2 0-.1-.1zm1 1.5l.3-.3c0-.1.1-.1.1-.1l.1.1c-.1.3-.3.4-.5.3zm2.9.6h.6c0 .1-.1.1-.2.2v.1c-.1.2-.4.1-.5.1.1-.2.1-.3.1-.4zm2-.3c0 .1 0 .1.1.3-.1.1-.1.2 0 .4 0 .1 0 .3.2.2.1-.1.3 0 .4.1v.2c-.5-.3-1.1-.3-1.6-.1.1-.3.1-.4.5-.2v-.2c.1-.1.1-.2 0-.3v-.1c0-.2.2-.3.4-.3zm.6-.2c0 .2-.1.3-.3.3-.1 0-.2 0-.2-.1.1-.1.3-.2.5-.2zm2.5-1.2h-.1.1c0-.1 0 0 0 0zm2.9-1.3c.2.1.4.3.4.5 0 .1.1.1 0 .2s-.2.1-.3 0c-.1-.2-.4-.2-.6-.4-.1 0-.1-.1-.1-.2.3 0 .4-.1.6-.1zm1.7-.2c0 .1 0 .1.1.2-.1 0-.1.1-.1.1-.2.1-.4.1-.5-.1v-.2h.5zm-.4 1h.4v.2h-.5c-.1 0-.2-.1-.2-.2s-.1-.2 0-.3c.1-.1.2 0 .3 0-.1.2-.1.2 0 .3-.1 0-.1 0 0 0zm.4 1.1l.1-.1c.1-.1.3-.1.4 0l.1.1V72.5s0-.1.1-.1c.1-.1.3-.1.4-.1l.1.1c0 .1-.1.2-.1.3-.1 0-.3 0-.4-.1v-.1-.2c-.1.1-.1.2 0 .2V72.8l-.1.1c-.1.1-.3.1-.4 0v.1s-.1.1 0 .1l.1-.1c.2-.1.3-.1.4 0h.1v-.1-.2l.1-.1c.1-.1.2-.1.4-.1 0 .1.2.2.1.4s-.2.1-.4.2c-.3.1-.6.1-1 0-.1 0-.3 0-.3.2 0 .1-.1.1-.2.1h-.2c-.1-.1 0-.1 0-.2.1-.1.1-.2.2-.3.1 0 .1 0 .2.1 0 0 0 .1.1 0v-.1c0-.3.1-.4.5-.3v-.2-.1.1c-.2.1-.3.1-.5 0l-.1-.1c-.1.1-.2.2-.2.4 0-.1.1-.3.2-.4V72c.2-.1.3-.1.5 0h.1c-.3.3-.3.2-.3.2zm1.1.2c.1 0 .1 0 0 0 .1 0 .1 0 0 0zm-.9 2.8c.3 0 .4.3.4.5.1.3-.2.3-.4.3 0 0-.1 0-.1-.1 0 0 0-.1-.1-.1v-.2s.1-.1 0-.1-.1 0-.1.1c-.1.1-.3 0-.4 0 0-.1 0-.1-.1-.1 0-.1 0-.1.1-.2.2-.2.5-.1.7-.1zm-.7-.5c.2-.1.3-.1.5 0 0 .2-.2.1-.3.1-.1 0-.2.1-.2-.1zm1.6.4c.2-.2.4-.1.5-.1 0 .1 0 .1.1.1v.2c-.1 0-.1.1-.1.1-.2 0-.3.1-.5-.1 0 0 0-.1-.1 0V75.6l-.1.1c-.2-.1-.2-.3-.3-.4h.4c-.2-.1-.4 0-.5-.2 0-.1 0-.1-.1-.2.1 0 .1-.1.1-.1.2-.1.4-.1.5.1.1 0 .1 0 .1.2 0-.1 0 0 0 0zm1.5.6c.1.1.2.1.2.3-.2-.1-.4-.3-.6-.3-.3 0-.6 0-.8.2-.2.1-.2.1-.2-.1.1 0 .1-.1.1-.1.1 0 .2-.1.4 0 .1 0 .1 0 .1-.1.1 0 .1-.1.1-.1l.1-.1c.2 0 .4 0 .5.2-.2 0 0 0 .1.1zm-.3-.7h.4c0 .1 0 .1.1.1v.2c-.3 0-.4-.2-.5-.3zm-.1 3.6s-.1 0 0 0c-.2.2-.5 0-.5.2 0 .1.3 0 .5.1-.2.3-.5.4-.8.3-.1-.1-.1-.6.1-.6.3 0 .2-.2.3-.3.1-.3.3-.4.5-.4 0 .1 0 .1.1.1h.4c.1.2.1.3-.1.4 0 0 0 .1-.1.1-.1.2-.2.3-.4.3v-.2c.1-.1.2-.1.4-.1 0 0 0-.1.1-.1-.2.1-.5-.2-.5.2zm-.5 1.8c0 .1 0 .2.1.1.2-.1.3 0 .4.1v.2s-.1.1 0 .1.1 0 .1-.1c.2-.2.3 0 .5 0v.3c-.1 0-.1 0-.1.1-.1.1-.2.1-.3 0-.3-.2-.6-.1-.9.1-.1.1-.4-.2-.3.1 0 0-.1 0-.1.1-.2.1-.3.1-.5 0 0 0 0-.1-.1-.1v-.2c-.1.1-.3.1-.4 0v.2c-.1 0-.1 0-.1.1-.3 0-.6 0-.9.1h-.2v-.2c.2-.3.1-.6.1-.9 0-.2 0-.3.1-.4.1 0 .2 0 .4-.1h-.4c-.1-.1-.2-.2-.1-.3s.2 0 .3 0c.5.2.9 0 1.4 0v.1c.1-.1.3-.1.4 0l.1.1v.1l-.1.1.1-.1c.1-.1.3-.1.4 0v-.1l.1-.1c.2-.1.3-.1.5.1v.2c-.1.2-.3.2-.5.1l-.1-.1c0 .2.1.3.1.3zm1.1.8c.1 0 .1-.1.2-.1 0 .1.1.3.1.5-.2 0-.4 0-.3-.4-.1.1 0 .1 0 0zm-2.2.4v.2c-.2 0-.4-.1-.6-.2v-.1c.2-.1.4-.1.6.1-.1 0 0 0 0 0zm-2.3-3.2h-.4c-.2-.4-.1-.4.4-.6h-.4c.2-.3.7-.4.9-.2.1.1.1.2.1.3-.2.3 0 .4.1.6.1 0 .3 0 .4.1l.1.1-.1-.1v-.1l.1-.1c.1-.1.3-.1.4 0v-.2s.1 0 .1-.1c.2-.1.3-.1.5 0 0 0 0 .1.1.1 0 .1-.1.2.1.2h.4v-.2c.1 0 .1 0 .1-.1l.1-.1h.3c-.1.2-.2.3-.3.4 0 .1 0 .3-.1.4-.1.1-.4-.2-.4.1 0 0-.1 0-.1.1-.2.1-.3.1-.5 0 0 0 0-.1-.1-.1v-.2c-.1.1-.3.1-.4 0 .1.3.4 0 .5.2 0 0 0 .1.1.1v.2c.1-.1.3-.1.5 0 0 .1 0 .1.1.1v.2c-.2.2-.4.2-.6.2-.8.1-1.4-.2-1.9-.8-.1-.1-.1-.2-.1-.3-.1-.2 0-.2 0-.2zm-1.2-3.7c-.4.1-1.3-.4-1.4-.9-.1-.2-.2-.4-.1-.6.2 0 .3 0 .5.1.1.9 1.2 1.1 1.7.5.2-.1.3 0 .5 0v.2c-.3.4-.7.6-1.2.7zm.2 1.6c0 .1 0 .1-.1.2-.2.1-.4.1-.5-.1 0-.1 0-.2-.2-.1-.1 0-.3 0-.4-.1 0-.1 0-.2.1-.3.1 0 .3 0 .4.1v.1h.1s0-.1-.1-.1v-.2c.2-.1.4-.1.5-.1v.3c.2-.1.3-.1.5 0 .1.1.1.2 0 .3 0 .1-.2.1-.3 0-.1 0-.1-.1-.1-.1 0 .1.1.1.1.1zm-1-1.2c0-.1-.1-.2-.1-.3.4.1.8.2 1.1.3 0 .1.1.2.2.2.3 0 .4.1.3.4-.2.2-.4.1-.5-.1 0-.1 0-.2-.1-.2h-.3s0-.1-.1-.1v.1c0 .1 0 .1-.1.2s-.3.1-.5.1c-.1-.1-.1-.3-.1-.5.2 0 .2 0 .2-.1zm1.5 0c-.2.1-.3.1-.5 0 .1-.2.3-.1.5-.2.1 0 .1 0 .1.1l-.1.1zm-2.2 1.2c-.2 0-.3 0-.5-.1.1.1.1.2 0 .3-.2.1-.3.2-.5 0v-.2c.1-.2.3-.2.5 0v-.2c.1-.1.2-.2.3-.1.2.1.2 0 .2-.2 0 0 .1 0 .1-.1h.2c0 .2-.1.4-.3.6zm0 .5l-.1.1h-.3l-.1-.1v-.2c.2-.2.3-.2.5 0 .1 0 .1.1 0 .2zm-1.8-1.3h.1s0 .1.1.1v.3s0 .1-.1.1-.2.1-.2 0c0-.2-.1-.3.1-.5zm.1-1.1c.1.2.1.3.1.4.2-.1.4-.1.5 0v.2c-.1 0-.2.1-.3.1-.2 0-.4-.1-.5-.4 0-.2-.1-.4.2-.3zm.1 1c0-.2.2-.1.3-.1.3 0 .3-.1.4-.3.2 0 .3 0 .5.1 0 .1 0 .1.1.2-.1 0-.1.1-.1.1-.1 0-.2.1-.3.1-.2 0-.2.1-.3.2-.2.2-.4.1-.5 0-.1-.1-.1-.2-.1-.3zm1.1-.2c.2 0 .5-.1.5.3v.1c-.2.1-.3.2-.5 0v-.2s.1-.1 0-.2zm-.1.8c-.2.2-.3.1-.5 0v-.2c.2-.2.3-.2.5 0 .1 0 .1.1 0 .2zm-1 0c.2-.2.3-.2.5 0v.3c-.2.2-.4.1-.5 0V76zm2.9-3.9c.3.1.6.3.8.7h-.3s0-.1-.1-.1 0 .1 0 .1c0 .1 0 .1-.1.2s-.2.1-.4.1c-.1 0-.1 0-.1.1-.1 0-.1.1-.1.1-.1 0-.2.1-.2-.1s-.1-.2-.3-.1c0 0 0 .1-.1.1V73v-.1s-.1.1 0 .1c-.2 0-.3.1-.5 0 .3-.4 1-1 1.4-.9zm-.5-.7c.1-.1.1-.2.2-.3l.2.2c0 .2-.1.2-.2.3-.1.1-.2.1-.2 0-.2-.2-.1-.2 0-.2zm1.4-.3c0 .1.1.2.1.3 0 0-.1.1 0 .1s.1 0 .1-.1c.1-.1.4.1.5-.2.4.1.6.2.6.7 0 .1-.1.1-.1.2-.1 0-.2.1-.3 0-.3-.2-.1.1-.1.1-.1 0-.1.1-.1.1-.2.1-.4.1-.6-.1-.2-.3-.5-.5-1-.5.2-.3.3-.5.5-.7 0 .1.2.1.4.1zm0-.1c.2 0 .4.1.5.3-.2.1-.4 0-.5-.1V71zm.7 2.4c-.1 0-.1 0-.1.1l-.1.1c-.1.1-.3.1-.4.1 0-.2.1-.3.1-.5.1 0 .2 0 .3.1 0 0 0 .1.1 0v-.1-.2c.1 0 .1-.1.1-.1.1 0 .3-.1.4 0 0 .3 0 .5-.4.5zm.1.2c-.1.1-.1.2-.2.2l-.1-.1v-.2c.1 0 .1-.1.1-.1.2.1.4 0 .2.2zm-.3-.6c-.1 0-.2.1-.3 0 0-.1 0-.3-.1-.4.1-.1.3 0 .4 0 0 .1 0 .1.1.1v.1c-.1.1-.1.2-.1.2zm.6-.3c-.1 0-.1 0 0 0-.2.1-.3.1-.5.1 0-.1 0-.1-.1-.1v-.2c.1 0 .1-.1.1-.1h.4c0 .1.1.1.1.2v.1zm-1.7.5v-.3c.1-.1.3-.1.4-.1.1.2.1.3 0 .5 0 .1-.2.1-.4-.1.1.1.1 0 0 0zm-.2.5c-.2 0-.3-.1-.3-.4.1 0 .1-.1.1-.1.2 0 .3 0 .5.1v.1c0 .1-.1.3-.3.3zm1.8 1.6c0 .1 0 .3-.1.4-.1.1-.3-.1-.3.2-.1 0-.1.1-.1.1-.1 0-.2.1-.2-.1 0-.4.2-.7.7-.6zm.1 1.1v-.1c0 .1.1.1 0 .1.2 0 .4.1.5.3.1-.2.4-.1.4-.3.1 0 .1 0 .2.1 0 .1 0 .1.1.1v.1c-.1 0-.1.1-.1.1-.2.1-.5 0-.6.3h-.1c-.2 0-.8-.4-.9-.7h.5c0 .1 0 .1 0 0 0 .1.1.1 0 0zm.6-.5c.2 0 .3-.1.5.1 0 0 0 .1.1.1v.1c.1.2.3 0 .4.1 0 .1.1.1.1.2s-.1.2-.1.3h-.4c0-.1 0-.1-.1-.1v-.2-.1h-.1c-.1 0-.1.1-.2.1-.2-.1-.4-.1-.3-.4.1-.1.1-.2.1-.2zm2.2.3c0-.2.1-.4.3-.3.3.1.5.2.7.4.1.1.1.2 0 .3h-.3c-.2-.3-.5-.3-.7-.4zm1.1 1.3c-.1.3-.2.3-.5.2.1-.1.3-.1.5-.2zm-1.1-.9c.1-.1.2-.1.3 0 .1.1.1.1.1.2s-.2.1-.3.1c-.1 0-.1 0-.1.1s-.1.2-.2.1-.2-.2-.2-.3c0-.2.2-.1.3-.1 0 .1 0 0 .1-.1zm-.2-.2c-.1 0-.1.3-.3.2-.1-.1 0-.2.1-.3.1-.2.2-.2.3 0 0 0 0 .1-.1.1zm0 1.1c.1 0 .3 0 .2.2 0 .1-.1.2-.3.2h-.2s0-.1-.1 0c0-.1 0-.1-.1-.1v-.1c.1 0 .1-.1.1-.1.2-.2.3-.2.4-.1zm-.4 0c-.1 0-.3 0-.4.1h.4c0 .1 0 .1.1.1v.2s-.1 0-.1.1c-.2.1-.3.1-.5 0 0 0 0-.1-.1-.1 0-.1.1-.2-.1-.2-.1 0-.2 0-.3-.1v.2s-.1 0-.1.1c-.2.1-.3.1-.5 0 0 0 0-.1-.1-.1 0-.1.1-.2-.1-.2s-.2-.2-.2-.3c0-.1.2-.1.2 0 .2.1.4 0 .6.1 0-.1 0-.1.1-.2.2-.2.5-.2.7-.4.1-.2.3.1.4.3v.4zm-1.6.5v.2l-.1.1c-.1.1-.2.1-.3 0 .2-.1 0-.4.3-.5 0 .2 0 .2.1.2-.1 0-.1 0 0 0zm.6-1.3c.1 0 .3-.1.4.1-.1.1-.2.2-.3.2-.2.1-.1 0-.1-.1v-.2zm-.6-.8c-.1 0-.1.1-.1.1-.1.1-.2.1-.3 0-.1-.1-.1-.3 0-.5.1 0 .2 0 .3.1 0 .1 0 .1.1.1v.2zm-.7.4c-.1 0-.3 0-.4-.1 0-.1-.1-.2-.1-.3.1 0 .1-.1.1-.1h.3c0 .2.2.4.1.5zm2.6 3.4c.1 0 .2.1.3.1v.2l-.1.1c-.1.1-.3.1-.4 0l-.1-.1v-.2c.1-.1.2-.2.3-.1zm-.5-.4c-.1 0-.2 0-.3-.1 0-.1 0-.1-.1-.1v-.2s.1 0 .1-.1c.1-.1.3-.1.4-.1 0 .3.1.5-.1.6zm.8.5c0-.1-.1-.2 0-.3.2-.1.3-.2.5-.1 0 .1 0 .1.1.1v.2c-.2.2-.4.2-.6.1zm1-2.7c-.1.1-.2.1-.2.1-.1 0 0-.1 0-.2v-.3h.2c0 .1 0 .1.1.1 0 .2-.1.2-.1.3zm-.9-2s-.1 0 0 0c-.1-.1-.1-.2-.1-.2v-.1s.1 0 .1-.1c.1.1.1.2.2.2 0 .3-.1.3-.2.2zm-3.1.1c0 .1-.2 0-.3-.1-.1-.1 0-.2.1-.3.3-.2.5-.6.9-.5l.1.1c0 .1 0 .1.1.1v.1c-.3.3-.7.3-.9.6zm.2-4.9c.2-.1.3-.1.5-.1 0 .1.1.3 0 .4l-.1.1c-.3.1-.4-.1-.4-.4zm.2-.2h0zm-.1.1c0 .1-.1.1-.1.2l-.1-.1c0-.1.1-.1.2-.1zm-1.3.8c-.2 0-.4 0-.5-.1v-.2c.1 0 .1-.1.2-.1.1.1.3.2.3.4zm-1-.1s-.1 0-.1.1l.1-.1zm-.8.5c-.1 0-.1 0-.2-.1.1-.1.3-.1.4-.2 0 .2-.1.3-.2.3zm-.2.7c.1-.1.2-.2.3-.1-.1.1-.2.2-.4.3 0-.1 0-.1.1-.2zm-.1 3c-.2.2-.3.1-.5-.1v-.2c-.2.2-.4.1-.5 0v-.3s.1-.1 0-.1-.1.1-.1.1c-.2.2-.4.1-.5 0v-.1c0-.3.3-.3.6-.4.3 0 .5.1.6.4v.1c0 .1 0 .1.1.2h.3c0 .1.1.2 0 .4zm-.5-2.1c.1 0 .2-.1.3-.1 0 .2.1.4-.1.6-.1.1.1 0 .1.1s.1.3.1.5c-.3-.3-.6-.4-.9-.4 0-.1-.1-.2-.1-.3.1-.1.2-.2.3-.1.3 0 .3-.2.3-.3zm.3-.2c-.2-.1-.3 0-.3.2-.2.1-.4.2-.5 0v-.2c.1-.1.1-.2 0-.4v-.3c.2-.1.4-.1.5 0 0 .1.1.2.2.2s.2 0 .3.1c0 .1-.1.3-.2.4zm-.9-.1c-.2.2-.3.1-.5 0v-.3c.2 0 .4-.2.5 0 .1.1.1.2 0 .3zm0-.6c-.1.1-.2.1-.3.1.1-.1.2-.1.3-.1 0-.1 0 0 0 0zm-.5.9c.2-.2.3-.2.5 0v.3c-.2.3-.3.3-.5 0V73zm0 .6c-.1 0-.1 0 0 0-.2.1-.4.1-.5 0-.1-.1-.1-.2 0-.3.2-.2.3-.2.5 0v.3zm-1.1 2.1v-.3c.1 0 .1-.1.1-.1.5-.1.6 0 .4.5-.2 0-.4-.1-.5-.1zm.2.7c-.1 0-.1-.1-.2-.1V76c.1-.1.3-.1.5-.1 0 .2-.1.3-.3.5zm-.2-.1v.3c-.2.2-.4.2-.5 0v-.3c.1-.1.1-.2 0-.4v-.3c.1 0 .1-.1.2-.1 0 .1 0 .2.1.3.2.1.2-.1.3-.2v.3c-.3.1-.2.3-.1.4zm-.6-2v.2c-.2.1-.4.1-.5 0 0-.1 0-.1-.1-.1.2-.3.4-.2.6-.1.1 0 .1 0 0 0 .3.1.6.1.5.5-.1.1-.3.1-.4.1-.1 0-.1-.1-.1-.2v-.2l.1-.1c0-.1 0-.1-.1-.1zm0 .4c-.1.3-.3.1-.5.1.1-.2.3-.2.5-.1zm1 .4c-.1.1-.2 0-.3 0 0-.1-.1-.2-.1-.4.1-.1.2 0 .3.1 0 .1.2.2.1.3zm-.9-1.5c-.1-.1-.1-.2 0-.3.2-.2.3-.1.5 0v.3c-.2 0-.4.1-.5 0zm.5 0c.1-.1.1-.2 0-.3 0-.4.2-.5.5-.3v.3c-.1.1-.1.2 0 .4v.3c-.2.2-.3.2-.5 0v-.4zm.1-.9c.1-.1.3-.1.4-.2v.1c-.1.1-.3.2-.4.1zm-1.2.5v.3c-.1.1-.3.1-.5.1-.2-.1-.2-.3 0-.4h.5zm0 2.7c.2-.1.3-.2.5 0 .1.1.1.2 0 .3-.2.2-.3.2-.5 0v-.3zm.5.6c0 .1.1.3-.1.3s-.4 0-.4-.3c.2-.1.3-.1.5 0zm.4.8c.1 0 .1 0 .2.1l-.3.3h-.2c-.1 0-.1-.1 0-.1 0-.2.1-.3.3-.3zm.2 1.3v.3c-.3 0-.4-.1-.5-.4.2 0 .3 0 .5.1zm0-.8c0-.2.1-.3.3-.2.2 0 .3.1.3.3 0 .2-.1.3-.3.2-.2 0-.3-.1-.3-.3zm.5-.9c-.1 0-.2.1-.3 0 .1-.1.2-.2.4-.3-.1.1-.1.1-.1.3 0-.1 0-.1 0 0zm0-2.4c-.1.1-.2-.1-.2-.1s-.2-.1-.2-.2c.1-.1.3-.1.5 0 0 .1 0 .2-.1.3zm0-.4v-.2c.1-.1.2-.2.3-.1-.1.1-.1.3-.3.3zm.5 2.1c.1.2.1.3 0 .4s-.3.1-.4 0c.1-.2.1-.6.4-.4zm.7 1.7c-.1 0-.1.1-.1.1-.1 0-.2.1-.3.1.1-.4.2-.4.4-.2zm-.1-.8v-.3c.2-.1.4-.1.5 0 0 .1 0 .1.1.1-.1.2-.3.3-.5.3 0-.1 0-.1-.1-.1zm2.2 2.1c-.1.1-.2.1-.3.1 0 0-.1-.1-.1 0 0 0 0-.1-.1-.1v-.3c.1 0 .1-.1.1-.1h.4c.1 0 .1 0 .1-.1s0-.1-.1-.1c-.2.1-.3 0-.5-.1v-.3c.1-.1.3-.2.4-.1.2.1.1-.1.1-.2.1 0 .1-.1.1-.1.2 0 .3 0 .5.1 0 .1 0 .1.1.1 0 .1-.1.1-.1.2-.1.1-.2.1-.4.2.2 0 .3 0 .4.1 0 0 0 .1.1 0v-.1-.2c.1-.1.1-.2.2-.2 0 .1 0 .2.1.3.1.2-.1.2-.2.2h.3c.1.1.2.2.1.3 0 .1-.2 0-.2 0-.1 0-.2 0-.3-.1-.3.3-.5.2-.7.5zm.5.3c-.2 0-.3.1-.5 0 .1-.2.3-.1.5-.1v.1zm-1-.3s0 .1 0 0c.1.1.1.1 0 .2s-.2.3-.4.2c-.2-.1-.2-.2-.2-.4.2-.1.4-.2.6 0zm.5.3s0 .1.1.1c0 0-.1.1 0 .1l.1-.1h.3c.2.1.1-.1.1-.2.1 0 .1-.1.1-.1.4 0 .7.3.9.5.1.1 0 .1 0 .2v.1c.1.1.2.2.2.3.2.2.1.4 0 .7-.2-.1-.3.2-.5.1 0-.3-.1-.6.4-.6-.4 0-.5-.2-.4-.5V80v.1h.3V80h-.3c0-.1-.1-.1-.2-.1-.2 0-.3-.1-.5 0-.1 0-.2.1-.2.2s.1.1.2.2l.1.1s0 .1.1.1c-.1 0-.1.1-.1.1-.2.1-.3.1-.5.1 0-.1 0-.1-.1-.1 0-.1.1-.2-.1-.2s-.3 0-.4-.2c0-.2.1-.5.4-.7zm-.5 1.2c.2-.2.3-.2.5-.1 0 .1 0 .1.1.1 0 .1 0 .1-.1.2s-.3.1-.5 0c0 0-.1-.1 0-.2zm1 .2c0 .1.1.1 0 0 .2 0 .1 0 0 0 .1-.1.1-.2 0-.3.1 0 .1-.1.1-.1h.3c.1.3 0 .5-.1.7-.2 0-.5.1-.7.1 0-.1-.1-.1-.1-.2v-.2c.2 0 .4-.1.5 0zm3.7 1.2c-.1-.1-.3-.1-.3-.3.2-.1.3-.1.5 0v.2c0 .1-.1.2-.2.1zm.2-.3v-.2s.1 0 .1-.1c.1-.1.2-.1.3-.1-.2.2-.2.3-.4.4zm.4.2c.1 0 .1 0 .2.1 0 .1 0 .1.1.1v.2c-.1 0-.1.1-.1.1-.4-.1-.3-.3-.2-.5zm.2.4c.1-.1.3 0 .5-.1 0 .1 0 .1.1.1v.1c-.1 0-.2.1-.3.1s-.3 0-.3-.1v-.1zm1 .1s.1-.1 0-.1v.1c-.2 0-.3 0-.5-.1 0-.1 0-.1-.1-.1 0-.1 0-.1-.1-.1h-.4c0-.1 0-.1-.1-.1 0-.1 0-.2.1-.3h-.1.1c.4-.3.6-.2 1 .1.3.2.5.5.6.8-.2.2-.3.2-.5.1v-.3zm-.4-3c0-.1 0-.1-.1-.1.1-.2.2-.4.5-.3 0 0 0 .1.1.1v.3c-.2.1-.4.1-.5 0zm.4-.4c0-.1.1-.3.2-.4.1.2.1.3.2.5-.1.1-.2 0-.4-.1.1 0 0 0 0 0zm.2-2.2c0-.1 0 0 0 0zm0-.7c-.1-.1-.1-.2-.2-.3.1-.2.3-.1.4 0 .1 0 .1.1.1.2s0 .2-.1.2c-.1.1-.1 0-.2-.1zm.2-.6c-.1-.1-.4-.1-.3-.3.2-.1.4-.1.5.1v.2h-.2zm-.3-1.5c.2 0 .4 0 .5.1 0 .2.2.4.2.6-.2-.2-.6-.4-.7-.7zm-1.2.7c-.2.1-.3.1-.5.1 0-.1-.1-.3 0-.4l.1-.1h-.1v.1c-.2.1-.3.2-.5.1v-.1s0-.1-.1-.1 0 .1 0 .1V74.8c-.1 0-.1.1-.1.1-.1 0-.1 0-.2.1-.2 0-.2-.1-.3-.2-.1-.3-.3-.1-.5-.1 0-.1 0-.1-.1-.1v-.1c.2-.4.7-.6 1.1-.5l.1-.1c.2 0 .4 0 .6.1.2 0 .2.3.2.4s-.2 0-.3 0c0-.1 0-.1-.1-.1 0-.1 0-.1-.1-.1h-.4V74l-.1.1c0 .1 0 .1.1.1V74.5h.1c.1-.1.3-.1.5-.1 0 .1 0 .1.1.1v.1h.1c.4-.3.4-.1.4.2zm-.1-3.1c0 .1-.1.1-.1.2-.1 0-.1 0-.2-.1 0 0 0-.1-.1 0v.1c.1.1 0 .2 0 .3h-.4l-.1-.1V72c.1 0 .1-.1.1-.1s.1 0 .1-.1h-.1v.1c-.1 0-.1.1-.1.1-.1 0-.3.1-.4 0l-.1-.1v.2l-.1.1c-.2.1-.4.1-.5-.1 0-.2.1-.3.3-.3.2 0 .4-.1.6-.1.1 0 .2 0 .2.1h.1c.2 0 .4 0 .5-.2 0-.1.1-.2.3-.1.1-.1 0 .1 0 .2zm-.9-1.3c0-.2.2-.1.3-.1.1 0 .2-.1.2.1-.2.1-.3.1-.5 0zm-5.4 1.3c0-.1 0-.1 0 0 .3 0 .5.1.4.4-.2.2-.4.1-.5 0 0-.2 0-.3-.2-.2h-.1c.1-.1.3-.2.4-.2zm-1.5.7c.1 0 .2-.1.3-.1v.1c-.1.1-.1.2 0 .3v.3c-.2.2-.3.2-.5 0v-.3c.1-.1.1-.1.1-.2l.1-.1zm-7.4-5.7c0 .1 0 .1.1.1v.2c-.1 0-.1.1-.1.1-.2-.1-.2-.3-.1-.5 0 .1 0 .1.1.1zm.1.3c.1-.1.3 0 .5-.1v.2c-.1 0-.2.1-.3.1s-.3 0-.3-.1c0 0 .1 0 .1-.1zm.5.4c0 .1 0 .2.1.4h-.1v-.2-.2zm0 .5s.1 0 0 0c.1.1.1.2.1.4 0 0-.1 0-.1-.1-.1 0-.1-.2 0-.3zm-.1-1s-.1 0 0 0h-.4c0-.1 0-.1-.1-.1 0-.1 0-.2.1-.2h-.1.1l.1-.1c.1 0 .2.1.3.4zm-1.1-.5v-.2s.1 0 .1-.1h.2c0 .2-.1.3-.3.3zm.2 2.2c0-.1.1-.2.1-.4.1-.5.2-.6.8-.6 0 .1 0 .1.1.1v.2c-.1.2-.2.2-.4.2-.1 0-.1-.1-.1.1 0 .1.1 0 .1 0 .2 0 .3 0 .4.2 0 .1.1.2.2.2v1c-.2.1-.3.1-.5.3-.1.1-.3.1-.4.3-.1.1-.1 0-.2-.1-.1-.3-.2-.7-.7-.7.3-.4.5-.5.6-.8zm-1.7.2c.2-.1.3-.1.5 0 0 0 0 .1.1 0v-.1-.2l.1-.1c.1-.1.3 0 .4 0 0 .1 0 .1.1.1 0 .1 0 .2-.1.3-.2.2-.4 0-.6.2-.2.2-.5.1-.5-.2-.1.1 0 .1 0 0zm-.1.1c-.2-.1-.3-.2-.3-.5.1 0 .2 0 .3.1l.1.1c0 .1 0 .2-.1.3 0-.1 0-.1 0 0zm1.3.8c0 .1-.1 0-.1 0-.1.1-.3.1-.3.3 0 .1-.1.1-.2 0v-.2c.1-.3.3-.3.5-.3 0 .1 0 .1.1.2zm-.7.6c.1-.1.1.1.2.2s.1.1.2.3c-.2 0-.3.1-.4-.1-.1-.2-.1-.3 0-.4zm.2.5h.9v.1c-.1.1-.3.1-.4 0 0 0 0-.1-.1-.1v.1c.1.2.3 0 .4.1 0 .1.1.1.1.2s-.1 0-.2 0c-.3-.1-.5-.2-.7-.4-.1.2-.2 0 0 0zm.6-.3c-.2 0-.3-.1-.3-.3 0-.1.1-.3.3-.3.2 0 .3.1.3.3 0 .1-.1.3-.3.3zm-.7-2.6c.1.1 0 .4.2.3.2-.1.2-.2.2-.4.1 0 .1-.1.1-.1h.4c.2.3.1.8-.2 1.1-.1 0-.1 0-.2-.1 0-.1 0-.1-.1-.1 0-.1 0-.1-.1-.1h-.3l-.1-.1v-.2c0-.2 0-.3.1-.3zm-.4-.4c.2 0 .3.2.3.3-.1 0-.1.1-.1.1-.2.1-.3.1-.5 0 0 0 0-.1-.1-.1v-.2c.1-.1.3-.1.4-.1zm-.6.4c.1 0 .2 0 .3.1 0 0 0 .1.1.1v.2c.1-.1.3-.1.4 0l.1.1v.1l-.1.1c-.1.1-.3.1-.4 0l-.1-.1v-.2-.1s0 .1-.1.1c-.1.1-.2.1-.3.1-.1-.2 0-.4.1-.5zm-1.2 2.6c0-.1-.1-.1 0-.2s.2-.1.2 0c.2.2.4.3.6.4.1.1.1.1.1.2 0 0-.1 0-.1.1-.1.1-.3.1-.4.1 0-.3-.3-.4-.4-.6zm1.5 1.2c-.1.1-.2 0-.3 0-.3-.1-.6-.4-.7-.6.1-.1.4.2.4-.2 0 0 .1 0 .1-.1.3 0 .3.2.4.4v.1c.1.2.2.3.1.4zm-.5-1.4h.4c0 .1.1.1.1.2s0 .2-.1.2c-.1.1-.1 0-.2-.1 0-.1-.1-.2-.2-.3zm.5-.3c0 .1-.1.1-.1.2h-.4l-.1-.1v.2c-.4-.1-.7-.3-1.1-.5.2-.1.3-.1.5 0v.1h.1v-.1s0-.1-.1-.1v-.2c.1 0 .1-.1.1-.1h.5c0 .1.1.2.1.3 0 0-.1.1 0 .1l.1-.1c.2-.1.3-.1.4 0 0 0 0 .1.1 0v-.1-.2s.1 0 .1-.1h-.1v.1c-.2.1-.4.1-.5-.1v-.2s.1 0 .1-.1c.2 0 .4.1.5.3h.1c.1-.1.3 0 .4 0-.3.4-.5.5-.7.7.1-.1 0-.1 0 0zm.4 1.1c.2.3.5.3.8.5h-.5c-.2 0-.5-.3-.5-.5.1-.1.2 0 .2 0zm.6 2c-.1.1-.3 0-.4-.2 0-.1-.1-.1-.1-.1-.2-.1-.3-.4-.1-.5.1-.1.3-.2.4-.3h.1c.2 0 .6.4.6.6 0 .3-.4.3-.5.5zm.3-1.4c.3-.1.3-.1.4.3-.2-.1-.3-.2-.4-.3zm.9 2.5c-.3 0-.4-.2-.4-.4s-.3-.3-.1-.5c.2-.1.4.1.5.2.2.1.4.2.4.4h-.3c0 .1 0 .2-.1.3 0-.1 0 0 0 0zm.1.3c-.1-.1-.1-.1-.1-.2 0 0 .1 0 .1-.1.1-.1.3-.1.4-.1.1.2.4.3.5.5 0 .1.1.1 0 .2s-.2.1-.2 0c-.2-.2-.5-.2-.7-.3zm.5.9c0-.1-.1-.1 0 0-.1-.1-.1-.2-.1-.2.2 0 .4.1.5.1-.1.2-.3.1-.4.1zm.5-1.3l-.6-.6c-.1-.2 0-.2.1-.2.3 0 .6 0 .8-.2.1-.1.1-.1.2 0l.3.6c-.1 0-.2 0-.3-.1v.2c-.1.1-.3.1-.4.1-.1 0-.1.1-.1.2zm1.7 1.5c-.2.1-.4.2-.5 0v-.1c.2-.2.4-.1.6-.1-.1.1-.1.2-.1.2zm0-.6c-.3.2-.9.2-1.1 0-.1 0-.2.2-.2 0-.1-.3-.3-.6-.3-.9.2-.1.3-.1.5 0v-.3c.1-.1.2-.1.3-.1.4.6 1 .3 1.6.3.3.1.3-.1.4-.3h.4c0 .1.1.1 0 .2-.1.3-.8.6-1.1.5.1.1 0 .3-.1.3s-.2.1-.3 0c-.2.1-.1.2-.1.3zm.5.6s0 .1 0 0c0 .4-.1.5-.6.3v-.3c.1-.1.3-.1.4-.1.1 0 .1-.1.1-.1.1-.2.3-.2.4-.1.1.1 0 .2 0 .3 0 .1-.1.1-.1.2 0-.1-.1-.1-.2-.2zm-.5 2c.2-.1.3 0 .5 0-.1.3-.3.2-.5.1v-.1zm.5 1c0-.2-.1-.2-.2-.2s-.2 0-.3-.1l-.1-.2c.1 0 .1-.1.1-.1.1-.1.3-.1.4 0 0 0 0 .1.1.1V78c0-.1.1-.1.1-.2h.2l.3.9c-.2.1-.4 0-.6-.1zm.6-1.8c.2-.2.3-.1.5 0 0 .1.1.1 0 .2-.1.2-.3.2-.5.1-.1-.1-.1-.2 0-.3zm.5.6v-.3c0-.1.1-.2 0-.3v-.3c.1-.1.2-.1.4-.1.3.4.7.7 1.2.8-.2.1-.2.5-.5.3 0-.1-.1-.2-.2-.2s-.2 0-.3-.1l-.1-.1v.4c-.1 0-.2.1-.2.1s.1.1.2.1v.2c-.4-.2-.7-.3-1.1-.5.3-.2.4-.1.6 0zm.6.3v-.3c.2-.2.4-.1.5 0 .1.2-.1.5 0 .7.1.2.2.3.3.6-.3-.3-.5-.6-.7-.8 0-.1 0-.2-.1-.2zm-.1 1.4s-.1 0-.2-.1c-.1-.2-.4-.3-.4-.6 0-.1-.2-.1-.3-.2 0-.1-.1-.2-.1-.3.4-.1 1.2.5 1.4 1 0 .2-.3 0-.4.2zm.8-.2c0-.1-.1-.1 0-.2h.2c.2.2.4.3.7.5-.4.1-.8.2-.9-.3zm.9-.1c.1-.1.1-.2 0-.3v-.1c.1 0 .2 0 .2.1.1 0 .3-.1.3 0s0 .3-.1.5c.1.1-.2 0-.4-.2zm.5.9l-.3-.3v-.1c.1 0 .2 0 .3.1 0 .1.1.2 0 .3zm.1.2c0-.1-.1-.1 0 0 0-.1 0-.1 0 0 0-.1 0-.1 0 0 0-.1 0 0 0 0zm-.1-2.9v-.2c.2-.1.4-.1.5 0v.3c-.1 0-.2.1-.3.1-.1 0-.1-.1-.2-.2zm.4.7c0-.1-.1-.3-.1-.4.1 0 .2.1.3.1v.3c-.1 0-.2.2-.2 0zm.4.4c.1 0 .4.2.3-.1.1 0 .1-.1.1-.1h.5c.1.3-.1.5-.3.8-.1.1-.2.1-.3.1-.2.1-.4.3-.6.2-.1-.1.1-.7.3-.9zm.3 2.4s-.1 0 0 0c-.5-.2-.6-.3-.5-.7-.1-.2 0-.3.1-.4.1 0 .1 0 .2-.1l.1-.1-.1.1c0 .3-.2.6.2.8.3.3.6.3.8-.1 0-.1.1-.2.2-.1.1 0 .1.1 0 .2-.1.5-.7.6-1 .4zm2.7 1.9L148 81c.1 0 .2-.1.2-.1.2-.2.4-.2.5.1.1.1.2.3.3.4.1.2.2.4.5.4.2 0 .2.2.3.2.1.2.3.1.4.2.1 0 .1.1 0 .2zm.1 1.1V83h.4c-.1.2-.1.4-.4.5zm.6.3h.4c0 .1.1.2.1.3 0 0-.1.1 0 .1s.1-.1.1-.1c.1-.1.2 0 .4 0 .1.1.2.2.1.3 0 0-.1 0-.1.1-.1.1-.3.1-.4 0l-.7-.5c-.1-.1 0-.2.1-.2zm.9 2.2c.1.1.1.1.1.2 0 0-.1 0-.1.1V86zm.1.3s.1 0 0 0c.3-.1.4.2.5.3v.1l-.5-.4zm.5-.3c-.1.1-.1 0-.2-.1l-.3-.3h.4c0 .1.1.1.1.2.1.1.1.1 0 .2zm.1-.7c0 .1-.1.1-.1.2h-.4l-.1-.1v.2l-.5-.9h.5c0 .1.1.2.1.3 0 0-.1.1 0 .1l.1-.1c.2-.1.3-.1.4 0 0 0 0 .1.1 0v-.1-.2s.1 0 .1-.1c.1-.1.3 0 .4 0-.3.5-.4.6-.6.7zm.2 1.2c0-.1.1-.1.2 0 .2.3.5.3.8.5h-.5c-.3 0-.6-.3-.5-.5zm.2 1.6c-.2-.1-.3-.4-.1-.5.1-.1.2-.1.3-.2 0-.1.1-.1.2-.1.2 0 .6.4.6.6 0 .4-.3.4-.5.6-.1.1-.3 0-.4-.2 0-.2-.1-.2-.1-.2zm1 1.2c0 .1-.1.1-.2 0-.2-.3-.5-.3-.8-.5h.5c.3-.1.6.3.5.5zm-.2-2.3c.3-.1.4 0 .4.4-.1-.1-.3-.2-.4-.4zm.4 3.1c-.1-.1-.1-.3 0-.3.1-.1.2.1.2.1s.2.1.2.2-.2.1-.4 0zm.7-.8c-.2 0-.2.1-.1.2 0 0-.1 0-.1.1-.3 0-.4-.2-.4-.4s-.3-.3-.1-.5c.2-.1.4.1.5.2.2.1.4.2.4.4h-.2zm-.1-2.7s0-.1 0 0c.2-.1.3-.2.4 0-.1 0-.1.1-.2.1-.1.1-.3.1-.4 0-.1-.1 0-.3.1-.4 0 0 0 .1.1.1v.2c0-.1-.1 0 0 0zm-.1 1.8c-.1 0-.3 0-.4-.1-.1 0-.1-.1-.1-.2s0-.2.1-.2.1 0 .2.1.3.2.2.4zm.5.3h-.1c-.1-.1-.3-.1-.4-.3.3-.1.3.2.5.3 0-.1 0 0 0 0zm.6-.7c0 .1.1.2 0 .3-.1.1-.3.1-.4 0-.4-.2-.6-.6-.8-1 0-.1 0-.1.1-.2s.2-.2.4-.1c.1 0 0 .1 0 .2 0 .2.1.4.2.6.2.2.4.1.5.2zm-.5-1.5c0-.1 0-.1 0 0 .1-.1.1-.2.1-.2.1-.1.2-.1.4 0-.2 0-.3.2-.5.2zm.7-.7c-.2.2-.3.4-.6.3v.1c-.1 0-.1.1-.1.1-.2 0-.3 0-.5-.1 0 0 0-.1-.1-.1 0-.3.2-.5.4-.8.1-.1.1-.1.2 0 .1.2.3.2.5 0 .1 0 .1-.1.1-.1s.1 0 .1-.1c.1 0 .2-.1.2.1 0 .3-.1.5-.2.6zm-.4-.6c.1-.1.2-.1.3.1v.1c-.1 0-.1.1-.1.1h-.4c-.1-.3.1-.3.2-.3zm.4-.5c-.3.1-.7.2-1 .4-.1.1-.3.1-.4.3-.1.1-.1 0-.2-.1-.1-.3-.2-.7-.7-.7.2-.3.5-.4.6-.7 0-.1.1-.2.1-.4.1-.5.2-.6.8-.6 0 .1 0 .1.1.1v.2c-.1.2-.3.2-.4.1-.1 0-.1 0-.1.1s0 .1.1 0c.2 0 .3 0 .4.1.1.3.4.1.5.2v-.1c.1 0 .1-.1.1-.1.2-.1.4-.1.5.1 0 .4-.1.4-.5.3l-.1-.1.1.1c0 .1 0 .2.1.1.2 0 .3 0 .4.1 0 .4-.2.5-.4.6zm.6-1c-.1 0-.1 0-.2-.1 0-.1 0-.1-.1-.2 0 0 .1-.1 0-.1l-.1.1c-.2.1-.4 0-.5-.2 0-.1 0-.1.1-.2.2-.1.4-.1.5 0 .2.2.4.4.3.7zm.2-4c-.1.1-.2.2-.4.3 0 0 0-.1-.1-.1 0 0 .1-.1 0-.1l-.1.1c-.2.1-.3 0-.4 0 0-.1 0-.1-.1-.1 0-.1 0-.1.1-.2s.3-.1.4-.1c.2.1.4 0 .6.2zm.1-1.6h-.4c-.1 0-.1-.1-.1-.1.2-.1.3-.1.5-.1v.2zm-.5-.4c.1-.2.2-.2.5 0-.2.2-.3.1-.5 0zm.4-.5c-.3.1-.4 0-.4-.2v-.1c.2 0 .2.2.4.3zm-.5-5.5c0-.2.1-.4.3-.4.2 0 .3.1.3.4-.1 0-.1.1-.1.1-.1.1-.3.1-.5-.1.1.1.1.1 0 0 .1 0 .1 0 0 0 0 .1 0 .1 0 0 .1.2.1.2.1.3-.1.1-.3.1-.4.1-.1-.4 0-.5.3-.4zm-.4 1.1c.1.2.6.4 1 .5-.1.3-.4.4-.4.6h-.5c0-.1-.1-.2-.1-.3 0 0 .1-.1 0-.1s-.1 0-.1.1c-.2.1-.3 0-.4 0 0 0 0-.1-.1-.1v-.2s.1 0 .1-.1c.1-.1.3-.1.4 0 0 0 0 .1.1.1s0-.1 0-.1c-.1-.2-.3 0-.5-.1 0-.1-.1-.2-.1-.3.1 0 .1-.1.1-.1.1-.2.3-.2.5.1zm-.5-1.3c.1-.1.3-.1.4-.1 0 .2-.1.3-.1.5-.1 0-.2 0-.3-.1 0 0 0-.1-.1 0V72.1c-.1 0-.1.1-.1.1-.2 0-.3.1-.5-.1-.1-.4.3-.4.5-.5.1 0 .2-.1.2-.1zm-.1-.2v.2c-.1 0-.1.1-.1.1-.1 0-.3 0-.1-.2 0-.1.1-.2.2-.1 0-.1 0-.1 0 0zm-1-.6c-.1-.1-.1-.2-.1-.2v-.1c.1-.1.2-.2.4-.2s.4.1.6.1c-.3.2-.5.5-.9.4z"/></g><path d="M140.6 42.7c-.2-.3-.5-.4-.9-.5-.5-.1-1.1.3-1.2.8-.1.2 0 .4.1.5.1.1.1.1.2.1s.1 0 .2-.1c.1 0 .1-.1.2-.1h.1c.1-.1.3 0 .5 0 .3.1.6.1.9 0h.1v-.1c0-.2-.1-.4-.2-.6zM138.1 41.7c.2-.4.5-.8.9-1.1.1-.1.2-.1.3-.1.4-.1.8-.1 1.2 0s.7.4 1 .6c.1 0 0-.1 0-.2-.3-.3-.5-.5-.9-.7s-.7-.2-1.1-.2c-.4.1-.8.5-1.1.8-.1.2-.3.3-.4.5 0 .1-.1.1 0 .2-.1.3 0 .3.1.2z"/><path fill="#CFD74E" d="M144.9 79.2c-1.1-.5-6.1-3.1-10.1-9.4-2.5-3.9-4.5-9.1-5.1-16.1-.2-2.9-.2-6.2.2-9.7 0 0 .9-4.2.5-8.9-.1-.6-.1-1.3-.2-2-.1-.9-.3-1.7-.6-2.6l-.3-.9c-.4-1-.9-2-1.6-2.9 0-.2-.1-.4-.1-.6.1-1.8 1.2-3.2 2.6-4.1.9-.6 3.7-1.6 2.8-3.2-.8-1.5-2.8.1-3.8.3-4.8.7-1.4-5.8.1-7.1 1.6-1.5 3.1-5.4.8-7.2-2.3.1-4.7.9-6.5 3.3 0 0-1.8 1.3-3.5 1.5l1 1.9s.1.6-1.4.8c0 0 .1.9.2 1.9h-1.3s.3.6-.9 1.5c0 0-.9 1.4 1.1 2.4 1.8.9 3.8 1.1 2.9 4.2 0 0-.1.8-.4 1.6-3.7.8-6.4 6.1-8.4 7 0 0-6.6 4.2-11.1 5.3-.1-.1-.2-.1-.2 0l-.2.2c-.1.1-.1.2 0 .3l.3.3c-.1 1.8.1 6.4 3.5 8.1 0 0 .4.4.1 2.4v.4c-.1.9-.1 2.6.1 4.9-.9.4-1.6.8-1.6.8s-.3.2-.7.4c-.4.2-.9.5-1.4.9-1.8 1.2-4.6 3.1-7.5 5.6-1.5 1.2-2.9 2.6-4.3 3.9-5.6 5.7-10 9.2-12.8 11.2-.9.7-1.7 1.2-2.3 1.6-.8.3-2.2.9-2.3.9-.7-.1-1.9-.7-2.4-1.2s-.9-1-1.4-1.5c-.2-.2-.5-.4-.7-.6-.7-.5-1.4-.8-2.2-1.1-.7-.2-1 .1-1.3.6-.3.4.1 1 .5 1.4.4.4.8-.1.3.9-.3.5-.8.8-1.5.8s-1.4-.1-2 0c-.6.2-1.1.8-.7 1.3.1.1.3.2.4.4.3.6-.9.9-.8 1.5.1.3.6.5.7.9.1.5-.8.9-.4 1.3.1.1.3.2.4.4 0 .1 0 .2-.1.3-.1.3 0 .8.4 1 .1.1.2.1.3.2.3.1.6.1.9 0 .1-.1.3-.2.4-.2h.5c1.4.2 2.7-.2 3.9-.6 1.1-.3 4.6-1.7 6.3-2.1 1.4-.1 6.9-.8 14.1-3.5 9-3.4 20.7-10 30.7-22.8-3.1 4.5-6.5 8.2-10.2 11.3.9 1.9 1.9 3.7 3.1 5.4 0 0-.8 8 2.6 12.7 5.2-2.6 10.3-4.5 15-5.4-6.5 1.6-13.6 4.7-20.6 9.3-8.2 5.4-16.2 12.6-22.9 21.4-6.4 8.5-11.5 18.5-14 29.6l1.5 1.7s14.6 34.2 41.3 54.3v-.1l1.7 1.8c1.3 3.7 2 7.1 5.2 12.3.4.6 1.3 2.1 1.2 2.7-.1.4-.4.6-.7.9-.7.6-1.3 1.1-2 1.7-.3.3-.7.6-.7 1v.1h8.3c.3-1.1-.1-4.3-.6-5.2-.5-.9-.7-2-.9-2.9-.2-1.1-.4-2.3 0-3.4.3-.9.9-1.6 1.3-2.5.5-.9.7-1.9.6-2.9s-.7-2-1.5-2.5-1.9-.5-2.8-.8c-1.4-.5-6.3-4.5-8.4-11.8 0 0-3-12.1-4.9-19.8-1.9-7.6.5-20.7-21.4-25.2-.1 0-.2-.1-.4-.1 0 0 3.3-.4 8.5-1.5 6.3-1.3 15.3-3.7 24.3-7.5 0 0 0-.1-.1-.1h.1c.1-1.1 7.6-3.9 7-4.9-.4-.5-1.3-.9-1.9-1-.7-.1-1.4-.1-2-.4-.6-.3-1.1-1-.8-1.6 1.8-.3 3.1.9 4.8.3.5-.2 1.3 0 1.8-.2 1.4-.4 3.2.4 4.4-.5 0 0 .1-.1.2-.1 1.3-1.5 13.8-16.5 18.2-27.1 1.2-8.4-2.4-13.3-8.2-15.3z"/><path d="M125.9 10.7H125.6c-.2 0-.4-.1-.5-.2-.1-.1-.2-.3-.2-.5v-.4l-.3.2c-.2.1-.3.4-.4.7 0 .3.1.6.3.8.2.2.5.3.8.3.2 0 .5-.1.7-.2.2-.1.3-.3.2-.4 0-.2-.1-.3-.3-.3zM125.6 8.1c.5-.1.9 0 1.4.2.1 0 .2.1.3.2.3.2.5.6.6 1 .1.4.1.8 0 1.1.1 0 .1-.1.1-.1.1-.4.1-.7.1-1.1 0-.4-.2-.7-.4-1-.3-.3-.8-.4-1.3-.5-.2 0-.4-.1-.6 0-.1 0-.2 0-.2.1-.1 0-.1.1 0 .1z"/></svg>