<?xml version="1.0" encoding="utf-8"?>
<!-- Generator: Adobe Illustrator 18.1.1, SVG Export Plug-In . SVG Version: 6.00 Build 0)  -->
<svg version="1.1" id="Layer_1" xmlns="http://www.w3.org/2000/svg" xmlns:xlink="http://www.w3.org/1999/xlink" x="0px" y="0px"
	 viewBox="44 0 128.1 216" enable-background="new 44 0 128.1 216" xml:space="preserve">
<g id="ENTER_THE_PROCTOLOGIST">
</g>
<g id="REARSEARCH_METHOD_1_">
</g>
<g id="DR._BEN_DOVER">
</g>
<g id="AMOROUS_ANAL-YSIST">
</g>
<g id="NUTTY_PROFESSOR">
</g>
<g id="SACK__x26__SAVE">
</g>
<g id="CHECK_PLEASE_PLEASE_PLEASE">
</g>
<g id="OPEN-BOOK_TESTE">
</g>
<g id="TESTE_x2C__TESTE_x2C__1_x2C__2_x2C__3">
</g>
<g id="GUY-ROPRACTOR">
</g>
<g id="ORAL-EXAM">
</g>
<g id="DOCTOR_x2019_S_ORDERS">
</g>
<g id="LEGS_UP_CHECK-UP">
</g>
<g id="INSIDER_INFORMATION">
</g>
<g id="TRIPLE_X-RAY">
</g>
<g id="DERM-OH-OH-_x0D_OH-TOLOGY">
</g>
<g id="CAT__x28_OR_MATT_x29__SCAN">
</g>
<g id="DEEP-ASSESSMENT">
</g>
<g id="SPLIT_SCREENING">
	<path d="M163.8,51.4c-1.5-2.5-3.6-3.9-5.7-5.2c-2.1-1.4-2.3-4.5-2.5-7.1c0-0.3,0-0.6-0.1-0.8c-0.4-6.4-6.4-8.6-11.8-8.6
		c-2,0-4,0.3-5.8,0.8c0,0-0.1,0-0.1,0c1-0.7,1.9-1.6,2.6-2.6c3-3.7,4.1-8.7,3-13.4c-0.8-3.5-2.5-7-4.8-9.7c-2.6-3-5.5-4.7-8.3-4.7
		c-2,0-4.8,0.8-7.4,4.7c-0.9,1.4-2.8,1.9-4.7,2.4c-1.9,0.5-3.8,1-5.3,2.4c-3.2,3.2-2,6.6-1.2,9c0.9,2.7,1.3,4-1.1,5.4c0,0,0,0,0,0
		c-0.1,0-0.4,0.1-0.8,0.1c-1,0-3.1-0.5-6.4-3.5c-0.8-0.7-1.9-1.1-3-1.1c-5.4,0-12.6,8-15.2,16.8c-1.7,5.7-2.7,16.3,9.1,23.9
		c2.9-2.4,5.7-4.3,7.5-5.6c0.6-0.4,1.1-0.7,1.4-0.9c0.5-0.3,0.7-0.4,0.7-0.4s0.6-0.4,1.6-0.8c-0.2-2.3-0.2-4-0.1-4.9
		c0-0.2,0-0.3,0-0.4c0.3-2-0.1-2.4-0.1-2.4c11.2-3.9,26.8,21,29.3,24.9c0.1-0.1,28.6-7.8,28.8-7.5c0.1-0.2,0.3-0.4,0.4-0.6
		C165.6,58.6,165.6,54.5,163.8,51.4z"/>
	<path fill="#F05A2B" d="M136.7,125.5L136.7,125.5l0.2-0.1C136.8,125.4,136.7,125.5,136.7,125.5z"/>
	<path fill="#F05A2B" d="M122.1,130L122.1,130C122.1,130,122.1,130,122.1,130z"/>
	<g>
		<path fill="#F15A29" d="M70.4,76.7c0.5,0.5,1.7,1.1,2.4,1.2c0.1,0,1.5-0.6,2.3-0.9c0.6-0.4,1.3-0.9,2.3-1.6
			c-2.8-0.4-5.8-0.7-9-0.9c0.3,0.2,0.5,0.4,0.7,0.6C69.6,75.7,70,76.2,70.4,76.7z"/>
		<path fill="#F05523" d="M89,78.1c-0.1,0-0.2-0.1-0.3-0.1c-7.3,2.7-12.8,3.4-14.1,3.5c-1.7,0.4-5.2,1.8-6.3,2.1
			c-1.3,0.4-2.6,0.8-3.9,0.6c-0.2,0-0.4-0.1-0.5,0s-0.3,0.1-0.4,0.2c-0.3,0.1-0.6,0.1-0.9,0c-3.6,9.1-9.4,28.1-9.9,57.4
			c0,0,0.2,2.7-1.4,8c-1.1,3.6-2.2,7.2-3.2,10.7c-0.3,1-0.6,1.9-1.2,2.7c-0.6,0.8-1.5,1.4-2.6,1.4c-0.2,0.4-0.1,1,0.2,1.4
			s0.9,0.5,1.3,0.3c-0.1,0.4-0.3,0.8-0.4,1.3c0,0.1-0.1,0.2-0.1,0.3c0,0.2,0.3,0.4,0.5,0.4c0.2,0,0.5-0.1,0.7-0.2c0,0.2,0,0.3,0,0.5
			c0.4,0.4,1.2,0.1,1.3-0.4c-0.1,0.5,0.3,1,0.8,1.1s1-0.5,0.9-1c0.3,0.4,1,0,1.2-0.4s0-1-0.2-1.4c1.1-0.4,1.9-1.3,2.4-2.3
			s0.9-2.1,1.6-3c1.4-2.2,3.8-3.3,6-4.8c0.7-0.4,1.3-0.9,1.8-1.6s0.8-1.4,0.7-2.2c-0.1-0.8-0.6-1.5-1.2-2.2
			c-0.6-0.6-1.3-1.1-1.6-1.9c-1-2.4-3.1-12.8,9.2-25.8c2.2-2.3,3.9-4.4,5.3-6.4l0,0c0,0,0.5-0.5,1.2-1.3c2.2-2.9,6.8-10.3,4.9-21.9
			c0.9,4.1,1,7.7,0.7,10.8c0.6,1.2,1.9,3.1,4.3,5.3c0.3,0.3,0.6,0.5,1,0.8c6.6-8.8,14.6-16,22.9-21.4c-0.2-0.1-0.4-0.3-0.6-0.4
			C105.2,85.5,98.6,81.2,89,78.1z"/>
		<path fill="#F05523" d="M168.7,72.8c-1.1-4.3-3.1-7.8-5.1-10.4c-0.2-0.3-0.5-0.6-0.7-0.9c-1.9-2.3-3.7-3.8-5-4.8
			c-0.1-0.1-0.3-0.3-0.4-0.4c-1-1-2.1-1.8-3.3-2.4c-2.4-1.2-4-1.3-5.2-0.7c-1.5-0.2-2.7-1.6-3.6-3.5c-1.6-3.4-2.3-8.4-2.6-10.6
			l-0.1-0.4c-0.3-2-0.8-2-1-2c-0.4,0-0.9,0.2-1.7,0.6l-0.2,0.1c-1.6,0.9-2.6,1.5-3.3,1.9c-0.1,0.7-0.1,1.5-0.3,2.2
			c-0.3,1.7-1.3,3.3-2.6,4.5c0.6,0.1,1.2,0,1.8-0.1c0.1,0.3,0.1,0.6,0.1,0.9c-0.3,0.2-0.6,0.5-0.9,0.7c0.2,0.2,0.3,0.5,0.5,0.7
			c-0.1,0.2-0.3,0.4-0.4,0.6c0.4,0.3,0.9,0.6,1,1.1c0,0.2,0,0.4,0,0.6c-0.1,0.5-0.3,1.1,0.4,1.2c0.5,0,1.1,0,1.6,0
			c1.1-0.1,2.2-0.4,3.3-0.4c3,0,4.1,3.9,4.4,6.8c-0.9,1.6-1.9,3.4-3.5,5c0,0-3.3,3.8-6.8,6.5c-0.1,0.1-0.3,0.2-0.4,0.3
			c4,6.3,9.1,8.9,10.1,9.4c5.8,2,9.4,6.9,9,15.4c-4.4,10.6-16.9,25.6-18.2,27.1c-0.1,0-0.1,0.1-0.2,0.1c-1.2,0.9-2.9,0.1-4.4,0.5
			c-0.5,0.1-1.4,0-1.8,0.2c-1.8,0.6-3-0.6-4.8-0.3c-0.3,0.6,0.2,1.3,0.8,1.6c0.6,0.3,1.3,0.3,2,0.4c0.7,0.1,1.6,0.5,1.9,1
			c0.6,0.9-6.8,3.8-7,4.9c0,0-0.1,0-0.1,0c0,0,0,0.1,0.1,0.1l0,0c0.2,0.3,0.7,0.1,1,0.1c0.4,0,0.8,0.3,1.3,0.3
			c0.4,0,0.7-0.2,1.1-0.2c0.4,0,0.8,0.2,1.3,0.3c0.8,0.1,1.6-0.5,2.4-0.7c0.4-0.1,0.8-0.2,1.2-0.2c2-0.3,3.7-1.4,5-2.8
			c0.5-0.5,0.9-1,1.3-1.4c0,0,0.1-0.1,0.1-0.1l-0.1,0.2C175.9,111,172.9,85.2,168.7,72.8z"/>
	</g>
	<g>
		<path fill="none" d="M134.4,69.5C134.4,69.5,134.3,69.4,134.4,69.5"/>
		<path fill="#0C0C0C" d="M134.3,69.4C134.3,69.5,134.4,69.5,134.3,69.4"/>
		<path fill="none" d="M134.9,69.3c0-0.1,0-0.1,0-0.2l-0.5,0.4C134.7,69.6,134.9,69.6,134.9,69.3z"/>
		<path fill="none" d="M134.9,70.4C134.9,70.4,134.9,70.4,134.9,70.4C134.9,70.4,134.9,70.4,134.9,70.4
			C134.9,70.3,135,70.4,134.9,70.4C135,70.4,134.9,70.4,134.9,70.4z"/>
		<path fill="none" d="M134.3,70.4c0-0.1,0.1-0.2,0.1-0.3c0,0-0.1-0.1,0-0.1c0.1,0,0.1,0,0.1,0.1c0.2,0,0.3,0,0.4,0"/>
		<path fill="#0C0C0C" d="M134.9,70.3C134.9,70.3,134.9,70.4,134.9,70.3C134.9,70.4,134.9,70.4,134.9,70.3
			C134.9,70.4,135,70.4,134.9,70.3C135,70.4,134.9,70.3,134.9,70.3z"/>
	</g>
	<g>
		<path fill="#020303" d="M141,77.9l0.6,0.1c0.1,0,0.2,0,0.2,0l-0.3-0.4C141.3,77.8,141.2,77.9,141,77.9z"/>
		<path fill="#020303" d="M139.8,76.7L139.8,76.7C139.8,76.8,139.8,76.8,139.8,76.7C139.9,76.8,139.9,76.8,139.8,76.7l0-0.2
			C139.9,76.6,139.8,76.7,139.8,76.7z"/>
		<path fill="#020303" d="M140.3,76.7c-0.1,0-0.3,0-0.4,0.1c0,0,0,0,0,0l0,1c0.1-0.1,0.1-0.2,0.2-0.2
			C140.2,77.4,140.4,77.1,140.3,76.7C140.3,76.8,140.3,76.8,140.3,76.7C140.3,76.7,140.3,76.7,140.3,76.7z"/>
		<path fill="#020303" d="M139.4,75.9c0-0.1,0-0.1,0-0.2c-0.1-0.2-0.3-0.2-0.5-0.1c0,0,0,0,0,0.1l0,0
			C138.9,75.9,139.1,76,139.4,75.9C139.3,75.9,139.3,75.9,139.4,75.9z"/>
		<path fill="#020303" d="M138.8,75.7C138.8,75.7,138.8,75.7,138.8,75.7L138.8,75.7z"/>
		<path fill="#020303" d="M134.4,70.1C134.4,70.1,134.4,70,134.4,70.1C134.3,70.1,134.4,70.1,134.4,70.1c0,0.1-0.1,0.2-0.1,0.3
			l0.5-0.3C134.7,70.1,134.6,70.1,134.4,70.1z"/>
		<path fill="#020303" d="M137.6,73.4c-0.2-0.1-0.3-0.3-0.5-0.3C137.2,73.4,137.2,73.4,137.6,73.4z"/>
		<path fill="#020303" d="M137.6,73.4c0.1,0.1,0.3,0.2,0.4,0.2l-0.2-0.2C137.8,73.4,137.7,73.4,137.6,73.4z"/>
		<path fill="#020303" d="M138.8,74.8c0.1,0.1,0.2,0.1,0.3,0.1l-0.3-0.3C138.7,74.6,138.8,74.7,138.8,74.8z"/>
		<path fill="#020303" d="M136.8,72.4c0,0.1,0.1,0.1,0.2,0.1c0,0,0,0,0,0l-0.4-0.4C136.6,72.2,136.7,72.3,136.8,72.4z"/>
		<path fill="#020303" d="M136.1,71.7c0.1,0.2,0.2,0.4,0.5,0.3l-0.1-0.2C136.3,71.7,136.2,71.7,136.1,71.7z"/>
		<path fill="#020303" d="M140.8,77c0,0-0.1,0-0.1,0c-0.1,0.2-0.1,0.3-0.2,0.5c0.1,0,0.2,0,0.3,0c0,0,0,0,0.1,0
			c0-0.2,0.1-0.2,0.2-0.3L140.8,77C140.9,77,140.8,77,140.8,77z"/>
		<path fill="#020303" d="M138.8,75C138.8,75.1,138.8,75.1,138.8,75c0,0.1,0,0.1-0.1,0.2c-0.2,0.1-0.3,0.3-0.4,0.5
			c0.2,0,0.3,0.1,0.5,0c0,0,0-0.1,0.1-0.1c0-0.1,0-0.1,0-0.2c0,0,0-0.1,0-0.1c0,0,0,0,0.1,0c0.1,0.1,0.3,0.1,0.4,0
			c0,0,0.1-0.1,0.1-0.1c0,0.1,0,0.1,0,0.1c0,0.1,0.1,0.2,0.1,0.3c0.2,0,0.3,0,0.5,0l-0.6-0.7C139,74.9,138.9,75,138.8,75z"/>
		<path fill="#020303" d="M139.8,75.8C139.9,75.9,139.9,75.9,139.8,75.8C139.8,76,139.8,75.9,139.8,75.8L139.8,75.8
			c-0.2,0-0.3,0-0.5,0.1c0,0,0,0.1-0.1,0.1l0.5,0.3c0,0,0-0.1,0.1-0.1c0,0,0,0.1,0,0.1c0,0.1,0.1,0.2,0.1,0.3c0.1,0,0.3,0,0.4,0
			c0-0.1,0.1-0.1,0.1-0.2L139.8,75.8C139.8,75.8,139.8,75.8,139.8,75.8z"/>
		<path fill="#020303" d="M171.6,73c-0.7-0.9-1.9-1.3-3.2-1.3l0.1,0.4c1.2-0.1,2.2,0.3,2.8,1.1c0.4,0.5,0.5,1.1,0.4,1.7
			c-0.1,0.5-0.4,0.9-0.7,1.1c-0.4,0.2-0.9,0.3-1.3,0.3c-3,0-5.7-1.8-8.2-3.4l-0.6-0.4c-2.8-1.8-6-3.4-9.3-2.7
			c-1.2,0.3-2.4,0.9-3.4,1.5c-0.5,0.3-1,0.5-1.5,0.8c-1.4,0.7-3.4,1.3-5,0.4c-0.9-0.5-1-2-1.1-3.5c-0.1-1.3-0.1-2.4-0.7-2.9
			c-0.2-0.2-0.5-0.3-0.9-0.2l0,0.2c0,0,0,0.1,0,0.1c0,0-0.1,0-0.1,0.1c-0.1,0.1-0.2,0.1-0.3,0.1l-0.2,0.1c0.1-0.1,0.3-0.1,0.4,0
			c0,0.1,0,0.1,0,0.2c0,0.1-0.1,0.3-0.2,0.1c-0.1-0.1-0.2-0.1-0.3-0.3l-0.3,0.3c0.1,0,0.2,0.1,0.2,0.2c0.2,0.2,0.4,0.3,0.5,0.6
			c-0.1,0.1-0.4-0.1-0.4,0.1c0,0,0,0-0.1,0.1c-0.2-0.2-0.3-0.4-0.5-0.5c0,0,0-0.1-0.1-0.1c0,0,0-0.1,0-0.1l-0.1,0.1c0,0,0.1,0,0.1,0
			c0,0,0,0,0,0.1c-0.1,0.1-0.2,0.1-0.3,0l-1,0.8c0,0.1-0.1,0.1-0.2,0.2l0,0c0.3,0.1,0.2,0.4,0.3,0.5c-0.2,0-0.3,0-0.5-0.1
			c0-0.1,0-0.2,0-0.2l0,0c0,0,0-0.1,0-0.1l0,0l0,0l0,0c0,0,0,0,0,0l-0.2,0.2c0.1,0,0.2,0,0.3,0.1c0,0.1,0,0.1,0.1,0.2
			c0,0-0.1,0.1,0,0.1c0.1,0,0.1-0.1,0.1-0.1c0.1-0.1,0.2,0,0.4,0c0.1,0.1,0.2,0.2,0.1,0.3c0,0-0.1,0-0.1,0.1c-0.1,0.1-0.3,0.1-0.4,0
			l0,0c0,0,0-0.1-0.1-0.1s0,0.1,0,0.1c0,0,0,0.1,0,0.1c-0.1,0-0.1,0.1-0.1,0.1c-0.2,0.1-0.4,0-0.6,0c0-0.3,0.1-0.5,0-0.8l-0.5,0.4
			c0,0.1,0,0.2,0,0.2c0,0.3-0.3,0.3-0.5,0.2l2,2.4c0.1,0,0.1,0.1,0.2,0.2h0l0,0v0c0.1,0,0.3,0,0.4,0.1c0.1,0,0.1,0.1,0.1,0.2
			c0,0.1,0,0.1-0.1,0.2l0.8,0.9c0.1,0,0.2,0,0.3,0c0.2,0,0.5,0.3,0.5,0.5c0,0.1-0.1,0.1-0.2,0c-0.1-0.1-0.2-0.2-0.4-0.3l0.8,0.9
			c0,0,0-0.1,0.1-0.1c0.1-0.1,0.2,0.1,0.2,0.1c0.1,0.1,0.2,0.1,0.2,0.2c-0.1,0-0.1,0-0.2,0l0.1,0.1c0,0,0.1,0,0.1,0l0,0
			c0,0,0.1,0.1,0.1,0.1c0-0.1,0-0.1,0-0.1c0,0,0-0.1,0-0.1c0.2,0,0.4,0.1,0.5,0.3c-0.1,0-0.1,0.1,0,0.1c0,0,0,0.1,0.1,0.1
			c0,0.1,0,0.1,0,0.2c-0.1,0-0.1,0.1-0.1,0.1c0,0,0,0,0,0l0,0v0c0.1,0,0.1-0.1,0.1-0.1c0.2-0.1,0.4,0,0.5,0c0.1,0.3,0.1,0.6,0,0.9
			l0.5,0.5l0,0c0.2-0.3,0.4-0.3,0.6-0.1c0-0.2-0.1-0.3-0.3-0.2c-0.1,0-0.2,0-0.3-0.1c-0.1-0.2,0-0.5,0-0.8c0-0.3,0.3-0.3,0.5-0.2
			c0,0,0,0.1,0.1,0.1c0,0.1,0,0.2,0,0.2l0,0c0,0,0,0.1-0.1,0.1c0,0-0.1,0.1,0,0.1c0,0,0,0,0.1-0.1l0,0c0,0,0-0.1,0-0.1
			c0.2-0.2,0.4-0.1,0.5,0.1c0,0.1,0,0.2,0.2,0.2c0.1,0,0.3,0,0.4,0.1c0.1,0.1,0,0.2-0.1,0.3c-0.2,0-0.3,0.1-0.5-0.1
			c0,0,0-0.1-0.1-0.1c-0.1,0,0,0.1,0,0.2s0,0.1,0,0.2l0,0c0.1-0.1,0.3-0.1,0.4-0.1c0.2,0.1,0.1,0.3,0.1,0.4c0,0.1-0.2,0.1-0.3,0.1
			c-0.3,0-0.5,0.1-0.8,0.1c0,0,0-0.1-0.1-0.1c0,0,0.1-0.1,0-0.1c-0.1,0-0.1,0-0.1,0.1c-0.1,0-0.2,0-0.3,0l0.4,0.5
			c0.1-0.1,0.3-0.1,0.5-0.1c0,0.1,0,0.1,0.1,0.1c0,0.1,0,0.1,0,0.2c-0.1,0-0.1,0.1-0.1,0.1c-0.1,0-0.1,0-0.2,0l11.6,13.4
			c0,0,0.1,0,0.1,0c0.3-0.2,0.4-0.2,0.6,0.1c0,0-0.1,0-0.1,0.1c-0.2,0.1-0.3,0.1-0.5,0c0,0,0-0.1-0.1,0v0.1c0,0.1,0,0.1,0,0.2
			c-0.1,0-0.1,0.1-0.1,0.1c-0.1,0-0.3,0.1-0.4,0l0,0c0,0,0-0.1-0.1-0.1c0,0,0,0.1,0,0.1c0.1,0.3,0.3,0.1,0.5,0.1
			c0,0.1,0,0.1,0.1,0.1c0,0.1,0,0.1,0,0.2c-0.1,0-0.1,0.1-0.1,0.1c0,0,0,0-0.1,0c0-0.1,0-0.3-0.2-0.3s-0.2,0.2-0.2,0.4
			c0.1,0.2,0.3,0.5,0.5,0.6h0c0.2-0.1,0.3,0,0.5,0c0,0,0,0,0,0.1c-0.2,0.1-0.3,0.1-0.5,0c0,0,0,0,0-0.1h0c0,0,0,0.1,0.1,0.1
			c0,0.4,0.2,0.1,0.4,0.2c0.2,0.1,0.1-0.1,0.1-0.1c0.1,0,0.1,0,0.1-0.1c0.1-0.1,0.3-0.1,0.4-0.1c0,0,0,0.1,0.1,0.1c0,0,0-0.1,0-0.1
			l0,0c0-0.1,0.1-0.2,0.1-0.3c0,0,0,0,0.1,0h0c0,0,0-0.1,0-0.1c0,0-0.1,0-0.1,0c0.1-0.2,0-0.4,0.3-0.5v0c-0.3-0.1-0.2-0.4-0.3-0.5
			c0.1,0,0.3,0,0.4,0.1c0,0,0-0.1,0-0.1c0,0,0-0.1,0-0.1c0,0,0.1-0.1,0-0.1c-0.1,0-0.1,0.1-0.1,0.1c-0.1,0.1-0.2,0-0.4,0
			c-0.1-0.1-0.2-0.2-0.1-0.3c0,0,0.1,0,0.1-0.1c0.1-0.1,0.3-0.1,0.4,0l0,0c0,0,0,0.1,0.1,0.1c0,0,0-0.1,0-0.1c0,0,0-0.1,0-0.1
			c0.1,0,0.1-0.1,0.1-0.1c0.1,0,0.1,0,0.2,0c0,0,0-0.1,0-0.1c-0.1,0-0.2,0-0.2-0.1c0,0,0-0.1-0.1-0.1c0-0.1,0-0.1,0-0.2
			c0,0.1,0,0.1,0,0.2c0,0,0,0.1,0.1,0.1c0,0.1,0,0.1,0,0.2c-0.1,0-0.1,0.1-0.1,0.1c-0.2,0-0.3,0-0.5,0c0-0.1-0.1-0.2-0.1-0.3
			c0,0,0.1-0.1,0-0.1c0,0-0.1,0.1-0.1,0.1c-0.2,0.1-0.3,0.1-0.4,0c0,0,0-0.1-0.1,0v0.1c0,0.1,0,0.1,0,0.2c0,0-0.1,0-0.1,0.1
			c-0.1,0.1-0.3,0-0.4,0c0.1-0.2,0.3-0.3,0.4-0.5c0,0,0,0,0-0.1s0-0.1,0-0.1c0.1-0.1,0.3-0.1,0.4,0l0,0c0,0,0.1,0.1,0.1,0.1
			c0-0.1,0-0.1,0-0.1c0,0,0-0.1,0-0.1c0.2,0,0.4,0.2,0.5,0.3l0,0l0,0l0,0c0.1,0,0.3,0.1,0.4,0.1c0-0.1,0.1-0.3,0.1-0.4l0,0
			c-0.1,0.1-0.2,0.1-0.2,0c-0.2-0.2-0.4-0.3-0.6-0.4c-0.1-0.1-0.1-0.1-0.1-0.2c0,0,0.1,0,0.1-0.1c0.1-0.1,0.3-0.1,0.4-0.1
			c0.1,0.2,0.4,0.3,0.5,0.5c0,0,0.1,0.1,0.1,0.1c0.1-0.3,0.1-0.5,0.2-0.8c0,0,0,0.1,0,0.2c-0.2-0.2-0.4-0.4-0.6-0.6
			c-0.1-0.1,0-0.2,0.1-0.2c0.2,0,0.5,0,0.7-0.1c0-0.2,0.1-0.3,0.1-0.5c-0.1,0-0.2,0-0.3,0c0.1-0.1,0.2-0.2,0.3-0.3
			c0-0.1,0.1-0.1,0.1-0.1c0,0,0-0.1,0-0.1c-0.1,0.1-0.1,0-0.2,0c-0.1,0-0.1,0-0.2,0c-0.2,0.2-0.3,0.1-0.4-0.1
			c-0.1-0.2,0.1-0.2,0.2-0.3c0.2-0.1,0.4-0.2,0.5,0c0,0,0.1,0.1,0.1,0.1c0-0.1,0-0.3,0.1-0.4c-0.1-0.1-0.2-0.2-0.3-0.2
			c-0.3,0-0.2-0.2-0.1-0.3c0.2-0.1,0.3,0,0.5,0.1c0,0,0-0.1,0-0.1c0,0,0-0.1,0-0.1c0,0,0.1-0.1,0-0.1c-0.1,0-0.1,0-0.1,0.1
			c-0.1,0-0.2,0.1-0.3,0c0.2-0.2,0.3-0.4,0.4-0.7c0,0,0,0,0.1,0c0,0,0-0.1,0-0.1c0,0,0,0-0.1,0c0-0.2,0.1-0.4,0.1-0.6
			c0.1-1,0.2-2,0.3-2.9c-0.2-0.2-0.3-0.4-0.4-0.6c0.1,0,0.2,0,0.3,0l0,0c0,0,0,0.1,0.1,0.1c0,0,0,0,0-0.1l0,0c0-0.1,0-0.1,0.1-0.2
			c0-0.1,0-0.3,0-0.4c0,0-0.1-0.1-0.1-0.1c0.1,0,0.1-0.1,0.1-0.1c0,0,0,0,0,0c0-0.1,0-0.1,0-0.2c-0.1,0-0.1,0.1-0.1,0.2
			c-0.1,0-0.1,0.1-0.1,0.1c-0.1,0-0.2,0-0.4,0c0.2,0.1,0.3,0,0.4,0.2c0,0.1,0.1,0.1,0,0.2c-0.1,0.2-0.2,0.2-0.4,0.2
			c-0.2-0.1-0.1-0.3-0.1-0.5c0-0.3,0.1-0.5,0.3-0.7c0.1-0.1,0.2-0.1,0.3-0.2c0-0.2,0-0.5,0-0.7c-0.1,0-0.2,0-0.2,0
			c-0.3,0-0.4-0.3-0.5-0.6c0-0.1,0.1-0.2,0.2-0.3c0.1,0,0.2,0,0.3,0.1c0.1,0.1,0.1,0.2,0.1,0.3c0,0,0,0.1-0.1,0.1
			c-0.2,0.1,0,0.1,0.1,0.2c0.1,0.2,0.1,0,0.1,0c0,0,0.1,0,0.1,0c0-0.3,0-0.5,0-0.8c-0.1-0.1-0.1-0.1-0.2-0.2c0-0.1,0-0.2-0.1-0.2
			c0-0.1,0.1-0.1,0.1-0.2c0.1,0,0.1,0,0.2,0.1c0-0.1,0-0.2,0-0.3c-0.1,0-0.1-0.1-0.2-0.1c0.1,0,0.1,0,0.2,0c0-0.1,0-0.3,0-0.4
			c-0.1,0-0.1,0-0.2,0c-0.1-0.1,0-0.3,0-0.4c0.1,0,0.2,0,0.2,0c0,0,0-0.1,0-0.1c0,0-0.1,0-0.1,0c-0.2,0-0.1,0.1-0.1,0.2
			c0,0.1-0.1,0.1-0.1,0.2c-0.2,0-0.2-0.2-0.2-0.3s0-0.3,0.2-0.2c0.1,0,0.1-0.1,0.1-0.1c0.1-0.2,0.2-0.2,0.3-0.2c0-0.1,0-0.2,0-0.3
			c-0.3,0-0.5,0-0.6-0.4c0-0.1-0.1-0.1,0-0.2c0.1,0,0.1,0,0.2,0.1c0.1,0.2,0.2,0.2,0.4,0.3c0-0.1,0-0.2,0-0.4
			c-0.2-0.1-0.3-0.3-0.4-0.7c0.1-0.1,0.1-0.1,0.2-0.2c0.1,0.2,0.1,0.3,0.2,0.4c0-0.3,0-0.5,0-0.7c-0.1,0.1-0.1,0.1-0.2,0.2
			c-0.1-0.1-0.1-0.1-0.2-0.2c0-0.2,0.1-0.2,0.2-0.3c0,0,0.1,0,0.1,0c0-0.2,0-0.4,0-0.6c-0.6,0.3-1.1,0.1-1.3-0.5c0.1,0,0.2,0,0.3,0
			l0,0c0,0,0,0.1,0.1,0.1s0-0.1,0-0.1c0-0.1,0-0.1,0.1-0.2c0.1-0.1,0.2-0.1,0.4-0.1c0.1,0,0.1,0,0.1-0.1c0.1,0,0.1-0.1,0.1-0.1
			c0.1,0,0.2-0.1,0.2,0.1c0,0.1,0.1,0.2,0.1,0.2c0-0.3,0-0.6,0-0.8c-0.4-0.4-1-0.4-1.5,0c-0.2,0.1-0.3,0-0.5,0c0-0.1,0-0.1,0-0.2
			l0,0c0.3-0.2,0.5-0.4,0.8-0.5c1.6,0.5,3.2,1.4,4.6,2.3l0.6,0.4c2.6,1.7,5.3,3.4,8.4,3.4c0,0,0.1,0,0.1,0c0.4,0,1,0,1.4-0.3
			c0.5-0.3,0.8-0.7,0.9-1.3C172.2,74.4,172,73.6,171.6,73z M154.2,92.6L154.2,92.6c0,0.1,0,0.1,0,0.1c-0.3,0.2-0.5,0.2-0.6-0.2
			c0.1,0,0.1-0.1,0.1-0.1c0.2-0.1,0.3-0.1,0.5,0C154.1,92.5,154.1,92.5,154.2,92.6L154.2,92.6C154.2,92.6,154.2,92.6,154.2,92.6z
			 M154.5,92.5c-0.1,0-0.2,0-0.3,0c0,0-0.1-0.1-0.1-0.1c0-0.1,0.1-0.2-0.1-0.2c-0.1,0-0.3,0-0.4,0c0-0.1,0-0.1-0.1-0.1
			c0,0,0-0.1,0-0.1c0.1,0,0.1-0.1,0.1-0.1c0.1,0,0.2-0.1,0.4,0c0.2,0.1,0.1-0.1,0.1-0.2c0,0,0.1,0,0.1-0.1
			C154.5,91.7,154.6,92.1,154.5,92.5z M154.2,90.9c0.2-0.1,0.4-0.1,0.5,0.1c0,0.1,0,0.1,0,0.2c0,0-0.1,0-0.1,0.1
			C154.4,91.4,154.3,91.2,154.2,90.9C154.1,91,154.1,90.9,154.2,90.9z M154.1,70.7C154.1,70.7,154.1,70.7,154.1,70.7
			c-0.2,0.4-0.7,0.7-1.1,0.6c0-0.1,0-0.1-0.1-0.1c-0.1-0.3-0.3-0.1-0.5-0.1c0-0.1,0-0.1-0.1-0.1c0,0,0-0.1,0-0.1c0,0,0,0,0-0.1
			c0.1-0.1,0.2-0.2,0.4-0.1c0.1,0,0.2,0,0.2-0.1c0.1,0,0.1-0.1,0.1-0.1c0.1,0,0.1,0,0.2-0.1c0.2,0,0.2,0.1,0.3,0.2
			C153.7,70.7,153.9,70.5,154.1,70.7C154.1,70.6,154.1,70.7,154.1,70.7z M155.3,72c0.1,0,0.2-0.1,0.3,0c0,0.1,0,0.3,0.1,0.4
			c-0.1,0.1-0.3,0-0.4,0c0-0.1,0-0.1-0.1-0.1c0,0,0-0.1,0-0.1C155.3,72.1,155.3,72.1,155.3,72z M155.2,72.4c0,0.1,0,0.1,0,0.2
			c-0.1,0-0.1,0.1-0.1,0.1c-0.2,0-0.4,0-0.5-0.2c0-0.1,0-0.1,0.1-0.2c0.1-0.1,0.3-0.1,0.5-0.1C155.2,72.3,155.2,72.4,155.2,72.4z
			 M155.2,73.5C155.2,73.6,155.2,73.6,155.2,73.5c0.1,0.1,0.1,0.2,0.1,0.3c-0.6-0.2-0.6-0.2-0.6-0.7c0.2-0.3,0.4-0.2,0.6,0
			c0,0.1,0,0.1,0,0.2c0,0-0.1,0-0.1,0.1C155.1,73.4,155.1,73.5,155.2,73.5z M155.7,74.5c0,0,0,0.1,0,0.2l0,0l0,0l0,0
			c0.2,0,0.3,0.2,0.4,0.3c0.1,0.2,0,0.2-0.1,0.2c-0.1,0-0.2,0-0.2-0.1c0-0.1,0-0.1-0.1-0.1c0,0,0,0,0-0.1v0v0c-0.1,0-0.3,0-0.4,0
			c-0.2-0.1-0.4-0.3-0.5-0.5c0-0.1-0.1-0.1,0-0.2c0.1-0.1,0.2-0.1,0.2,0C155.2,74.3,155.5,74.3,155.7,74.5z M155.3,73.8
			c0.2-0.1,0.4,0,0.5,0.1c0,0,0,0.1,0,0.1C155.6,74.1,155.4,73.9,155.3,73.8z M155.8,79.8c0,0.1,0,0.1,0,0.2c0,0-0.1,0.1,0,0.1
			c0.1,0,0.1,0,0.1-0.1c0.1-0.1,0.3-0.1,0.4,0c-0.1,0.3-0.3,0.6-0.3,1c-0.1,0-0.1,0-0.2-0.1c0-0.1,0-0.1-0.1-0.2c0,0,0.1-0.1,0-0.1
			c0,0-0.1,0.1-0.1,0.1c-0.2,0.1-0.3,0-0.4,0c0-0.1-0.1-0.2,0-0.3s0.2-0.1,0.3-0.1c-0.1-0.1-0.3,0-0.3-0.1c-0.1-0.1,0-0.2,0-0.3
			c0.1-0.1,0.3,0,0.5-0.1C155.7,79.7,155.7,79.8,155.8,79.8z M155.3,83.1c0-0.1,0-0.1,0-0.2c0-0.1,0.1-0.2,0.1-0.3
			c0.2,0,0.3,0,0.5,0.1c0,0.1,0,0.2,0,0.3C155.6,83.1,155.4,83.1,155.3,83.1z M155.7,83.2c0.1,0.1,0.1,0.2,0.1,0.3
			c-0.1,0-0.1,0.1-0.1,0.1c-0.2,0-0.3,0.1-0.5-0.1c-0.1-0.1-0.1-0.2,0-0.3C155.4,83.2,155.5,83.2,155.7,83.2z M153.2,86.2
			c0.3,0,0.6,0,0.9,0c0,0,0,0.1,0,0.1c-0.2,0.1-0.3,0.1-0.5,0c0,0,0,0-0.1,0c0,0,0,0.1,0,0.1c0.1,0.3,0.4,0,0.5,0.2
			c0,0.1,0.1,0.1,0.1,0.2c0,0.1-0.1,0-0.2,0c-0.3-0.1-0.5-0.2-0.7-0.4C153.1,86.3,153,86.2,153.2,86.2z M153,85.7
			c0-0.1,0-0.1,0.1-0.1s0.1,0,0.1,0.1c0,0.1,0.1,0.2,0.2,0.4C153.1,86.1,153,86,153,85.7z M153.8,85.8c-0.2,0-0.3-0.1-0.3-0.3
			c0-0.1,0.1-0.3,0.3-0.3c0.2,0,0.3,0.1,0.3,0.3C154.1,85.7,154,85.8,153.8,85.8z M153.5,85.1c-0.1,0.1-0.2,0.1-0.3,0.3
			c0,0.1-0.1,0.1-0.2,0.1c-0.1,0-0.1-0.1,0-0.2c0.1-0.2,0.2-0.3,0.5-0.3c0.1,0,0.2-0.1,0.2,0.1C153.7,85.2,153.6,85.1,153.5,85.1z
			 M153.2,84.3c-0.1,0-0.1,0-0.2,0c-0.3,0.3-0.4,0.1-0.6-0.1c0.1,0,0.1-0.1,0.1-0.1c0.2,0,0.3-0.1,0.5,0.1c0,0,0,0.1,0.1,0v-0.1
			c0-0.1,0-0.1,0-0.2c0.1,0,0.1-0.1,0.1-0.1c0.1,0,0.3-0.1,0.4,0l0,0c0,0,0,0.1,0.1,0.1c0,0,0-0.1,0-0.1c-0.1-0.3-0.3-0.1-0.5-0.1
			c0-0.1,0-0.1-0.1-0.1c0-0.1,0-0.1,0-0.2c0.1,0,0.1-0.1,0.1-0.1h0c0.1,0.1,0,0.4,0.2,0.3c0.2-0.1,0.2-0.2,0.2-0.4c0,0,0-0.1,0-0.1
			c-0.2-0.2-0.3-0.4-0.5-0.5c0,0,0-0.1-0.1-0.1c0-0.4-0.2-0.1-0.4-0.2c-0.2-0.1-0.1,0.1-0.1,0.1c-0.1,0-0.1,0-0.1,0.1
			c-0.1,0.1-0.1,0.1-0.2,0.1c-0.2,0-0.3,0.1-0.3,0.3c0,0-0.1,0-0.1,0c-0.1,0,0,0.1,0,0.1c0,0.3-0.1,0.4-0.4,0.5
			c0.4,0,0.3,0.4,0.4,0.5c-0.2,0-0.3,0-0.5-0.2c0-0.1,0-0.1,0-0.2l0,0c0,0,0-0.1,0-0.1c0,0,0,0-0.1,0c-0.1,0.1-0.3,0.1-0.4,0.1
			c0,0,0,0-0.1,0c0,0,0,0,0,0c0-0.3,0.2-0.6,0.4-0.9c0.2-0.4,0.6-0.5,0.8-0.7c0.2-0.1,0.5-0.2,0.7-0.2c0.3,0,0.6,0.1,0.8,0.3
			c0.2,0.2,0.4,0.3,0.5,0.6c-0.1,0.1-0.4-0.1-0.4,0.1c0,0,0,0-0.1,0.1c0,0,0,0.1,0,0.1c0.1,0,0.1-0.1,0.1-0.1c0.1,0,0.3,0,0.4,0
			C154.3,83.5,153.9,84.2,153.2,84.3z M152.8,82.9c0.2,0,0.3,0.2,0.3,0.3c-0.1,0-0.1,0.1-0.1,0.1c-0.2,0.1-0.3,0.1-0.5,0
			c0,0,0-0.1-0.1-0.1c0-0.1,0-0.1,0-0.2C152.5,82.9,152.6,82.9,152.8,82.9z M152.5,82.4C152.5,82.4,152.5,82.4,152.5,82.4
			c0.2-0.2,0.3-0.2,0.5-0.1c0,0,0,0,0,0.1C152.8,82.6,152.7,82.5,152.5,82.4z M152.5,83.3c0,0.1-0.1,0.2,0.1,0.2c0.1,0,0.3,0,0.4,0
			c0,0.1,0,0.1,0.1,0.1c0,0,0,0.1,0,0.1c-0.1,0-0.1,0.1-0.1,0.1c-0.1,0-0.2,0.1-0.4,0c-0.1,0-0.1,0-0.1,0.1c0,0-0.1,0.1-0.1,0.1
			c-0.4-0.2-0.5-0.5-0.3-1C152.2,83.2,152.3,83.2,152.5,83.3C152.4,83.3,152.5,83.3,152.5,83.3z M152.4,84.8
			C152.4,84.8,152.4,84.8,152.4,84.8c-0.2,0.2-0.4,0.1-0.5-0.1c0-0.1,0-0.1,0-0.2c0,0,0.1,0,0.1-0.1
			C152.2,84.4,152.3,84.6,152.4,84.8z M151.9,82.8L151.9,82.8C151.9,82.8,151.9,82.8,151.9,82.8L151.9,82.8z M150.6,82.3
			c0,0-0.1,0-0.1,0c-0.1,0-0.2-0.1-0.3-0.1c0-0.2,0.1-0.3,0.1-0.4c0.2,0,0.3-0.1,0.4-0.2c0.2,0,0.4-0.1,0.5,0c0.1,0.2,0,0.3-0.2,0.4
			C151,81.9,150.8,82.1,150.6,82.3L150.6,82.3L150.6,82.3L150.6,82.3z M148.6,79.2c-0.2,0-0.4-0.2-0.6-0.2c0.3-0.1,0.2-0.6,0.6-0.7
			l0,0l0,0c0.1-0.5,0.1-0.5,0.5-0.4c0,0,0-0.1,0-0.1c-0.3,0.1-0.4,0-0.3-0.3c0.1-0.4,0.3-0.7,0.4-1c0.2-0.1,0.4-0.1,0.5,0
			c0,0.1,0.1,0.3,0,0.4c-0.1,0.1-0.3,0.1-0.4,0.1l0,0c0,0-0.1-0.1-0.1-0.1c0,0.1,0,0.1,0,0.1v0c0,0-0.1,0.1,0,0.1
			c0,0,0.1-0.1,0.1-0.1c0.1,0,0.3-0.1,0.4,0.1l0,0c0,0,0.1,0.1,0.1,0.1l0,0c0,0-0.1-0.1-0.1-0.1s0-0.1,0-0.2
			c0.2-0.2,0.3-0.2,0.5-0.1c0,0.1,0,0.1,0.1,0.2c0,0-0.1,0.1-0.1,0.1l0,0c0,0,0.1-0.1,0.1-0.1c0.1,0,0.2,0,0.3,0c0,0,0.1,0.1,0.1,0
			c0-0.1-0.1-0.1-0.1-0.1c-0.2,0-0.3,0-0.4-0.1c0-0.1,0-0.2,0-0.2c0.2-0.1,0.4-0.2,0.6,0c0,0.1,0,0.2,0.1,0.2c0.2,0,0.4,0.2,0.4,0.3
			c0,0.2-0.2,0.1-0.3,0.2c-0.2,0-0.3,0.2-0.4,0.4c-0.1,0.1-0.1,0.3-0.1,0.5c-0.1,0-0.1,0-0.2,0c0-0.1,0-0.1-0.1-0.1
			c0-0.1,0-0.1,0-0.2l0,0c-0.2,0.2-0.3,0.1-0.5,0c0-0.1,0-0.2,0-0.3c0.1-0.1,0.3-0.2,0.4-0.1s0.1-0.1,0.1-0.1l0,0
			c-0.1,0.1-0.3,0.1-0.4,0.1l0,0c0,0.1,0,0.1-0.1,0.2c-0.1,0.1-0.3,0.1-0.5,0.1c0.2,0.1,0.4,0,0.5,0.1c0,0.1,0,0.1,0.1,0.2
			c-0.1,0-0.1,0.1-0.1,0.1c-0.1,0.1-0.3,0.1-0.5,0.1c0-0.1,0-0.1-0.1-0.1c0-0.1,0.1-0.2-0.1-0.2c0,0,0,0.1,0,0.1c0,0,0,0.1,0.1,0.1
			c0,0.1,0,0.1,0.1,0.1c0,0.1,0,0.1-0.1,0.2c-0.1,0-0.2,0.1-0.4,0.2c0.1,0,0.2,0.1,0.4,0.1c0,0.1,0,0.1,0.1,0.2
			c-0.1,0-0.1,0.1-0.1,0.1c-0.1,0.1-0.3,0.1-0.4,0c0,0,0-0.1-0.1-0.1C148.6,79,148.7,79.1,148.6,79.2
			C148.6,79.1,148.6,79.1,148.6,79.2z M147.7,79.9c0,0.1-0.1,0.1-0.1,0.2C147.6,80,147.7,79.9,147.7,79.9c0-0.1,0-0.1,0-0.2
			c0.1-0.1,0.5,0.2,0.4-0.2c0,0,0.1,0,0.1-0.1c0.1,0,0.2,0.1,0.3,0.2c0,0.1,0.1,0.1,0.1,0.2c0,0.1-0.1,0.1-0.2,0.1
			C148.1,79.8,147.9,80.2,147.7,79.9L147.7,79.9z M147.7,79.3C147.7,79.4,147.7,79.4,147.7,79.3c0.2,0.1,0.3-0.1,0.4,0
			c0,0,0,0,0,0.1c-0.1,0.1-0.2,0.1-0.4,0.1C147.7,79.5,147.7,79.5,147.7,79.3L147.7,79.3C147.7,79.4,147.7,79.4,147.7,79.3z
			 M148.1,77.7L148.1,77.7L148.1,77.7C148,77.8,148,77.8,148.1,77.7c-0.2,0.1-0.4,0.1-0.5-0.1c0-0.1,0.1-0.2,0.2-0.2
			c0.1-0.1,0.3-0.1,0.3,0.1l0,0l0,0c0.1,0,0.2-0.1,0.3,0.1c0,0.1,0,0.3-0.1,0.4c-0.1,0.1-0.1-0.1-0.2-0.1
			C148.1,77.9,148.1,77.8,148.1,77.7L148.1,77.7z M147,76.8c0-0.1,0-0.3,0.2-0.4c0.1-0.1,0.3,0,0.4,0.1c0,0.1,0,0.2,0,0.3
			c-0.1,0.1-0.1,0.2,0,0.3c0,0.1,0,0.1,0,0.2c-0.1,0.1-0.2,0.2-0.4,0.2c0,0-0.1-0.1-0.1-0.1c0-0.1,0-0.2,0-0.3
			C147.1,77,147.1,76.9,147,76.8z M145.4,77.9c0.2-0.1,0.1,0.2,0.3,0.3c0,0,0.1,0.1,0.1,0.1c-0.2,0.1-0.3,0-0.5,0
			C145.3,78.2,145.2,78,145.4,77.9z M144.7,76c-0.1,0-0.3,0.1-0.3-0.1c0-0.2-0.1-0.4,0.1-0.4c0.2-0.1,0.2-0.3,0.5-0.3
			c0.2,0,0.3,0,0.4,0.2c0,0.1,0,0.1,0,0.2c-0.1,0.1-0.2,0.1-0.4,0.1c-0.2-0.1-0.2,0.1-0.2,0.2C144.8,75.9,144.7,76,144.7,76
			c0,0,0,0.1,0,0.1c0,0,0,0.1,0.1,0.1c0,0.1,0,0.2,0,0.3c-0.2,0.1-0.3-0.2-0.3-0.3c0-0.2,0.2-0.1,0.3-0.1
			C144.7,76.1,144.7,76.1,144.7,76z M143.2,76.2c0.2-0.1,0.3-0.1,0.5,0.1c0,0.1,0,0.2,0,0.2c-0.1,0.2-0.3,0.2-0.5,0
			C143.1,76.4,143.1,76.3,143.2,76.2z M143.4,75.5c0.1,0,0.2,0.1,0.3,0.1c0,0.1,0,0.2,0,0.3c-0.1,0.1-0.3,0.2-0.5,0.1
			C143.1,75.8,143.2,75.7,143.4,75.5z M143.7,75.9c0.1,0,0.2-0.1,0.3-0.1c0,0.2,0,0.3,0.1,0.5c-0.1,0-0.3,0-0.4-0.1
			C143.7,76.1,143.7,76,143.7,75.9z M144.1,75.7c-0.1,0.1-0.2,0-0.3-0.1c0-0.3-0.2-0.2-0.4-0.2c0.1-0.4,0.4-0.7,0.7-0.9
			c0.2-0.1,0.4-0.3,0.6-0.2c0,0.1,0,0.1,0.1,0.1c0,0.1,0,0.2,0,0.3c-0.1,0-0.1,0.1-0.3,0.1c-0.4-0.2-0.3,0.2-0.4,0.4
			C144.1,75.4,144.1,75.6,144.1,75.7z M141.5,73.1c0-0.1,0.1-0.1,0.2-0.2c0.5,0.2,0.9,0.3,1.4,0.3c0,0.1-0.1,0.1-0.3,0.1
			c0,0-0.1,0-0.1,0c-0.2,0.4-0.6,0.4-1,0.1c0.1-0.1,0.2,0,0.4,0C141.8,73.4,141.5,73.4,141.5,73.1z M139.8,73.3
			C139.8,73.3,139.7,73.3,139.8,73.3c-0.1,0.1-0.1,0.1-0.2,0.1c-0.1-0.1-0.3-0.1-0.4-0.3C139.5,72.9,139.6,73.2,139.8,73.3z
			 M139.3,73.1c-0.1,0-0.3,0-0.4-0.1c-0.1,0-0.1-0.1-0.1-0.2c0-0.1,0-0.2,0.1-0.2c0.1,0,0.1,0,0.2,0.1
			C139.2,72.8,139.4,72.9,139.3,73.1z M139.2,72c0-0.1,0-0.1,0.1-0.2c0.1-0.1,0.2-0.2,0.4-0.1c0.1,0,0,0.1,0,0.2
			c0,0.2,0.1,0.4,0.2,0.6c0.2,0.2,0.4,0.1,0.5,0.2c0,0.1,0.1,0.2,0,0.3c-0.1,0.1-0.3,0.1-0.4,0C139.5,72.7,139.3,72.5,139.2,72z
			 M140.1,70.1c-0.1,0-0.1,0-0.2,0c-0.1-0.2,0.1-0.2,0.2-0.3C140.1,69.9,140.1,70,140.1,70.1z M140.1,70.2c0,0.2,0,0.3,0.1,0.5
			c-0.1,0-0.2,0.1-0.3,0c0,0,0,0.1,0,0.1c-0.1,0-0.1,0.1-0.1,0.1c-0.2,0-0.3,0-0.5-0.1c-0.1-0.3,0.2-0.8,0.6-0.8
			C139.9,70.2,140,70.2,140.1,70.2z M140.7,72.2c0,0-0.1,0-0.1,0c-0.1,0-0.1,0-0.2,0.1c-0.2,0.1-0.3,0-0.4-0.1
			c-0.1-0.2,0-0.2,0.2-0.3c0.1,0,0.2-0.1,0.3-0.1C140.5,71.9,140.6,72.1,140.7,72.2z M139.8,71.1C139.8,71.1,139.8,71.1,139.8,71.1
			c0.1-0.1,0.1-0.2,0.1-0.2c0.1-0.1,0.2-0.1,0.4,0v0C140.1,71,140,71.1,139.8,71.1z M139.4,71.2c0.1-0.1,0.3-0.2,0.4,0
			c-0.1,0-0.2,0.1-0.3,0.1C139.3,71.4,139.3,71.3,139.4,71.2z M140.4,72.7c0.1-0.1,0.2-0.2,0.3-0.3c0-0.1,0.1-0.1,0.1-0.1
			c0,0,0.1,0.1,0.1,0.1v0C140.8,72.7,140.6,72.8,140.4,72.7z M143.3,73.3c0.2,0,0.4,0,0.6,0c0,0.1-0.1,0.1-0.2,0.2c0,0,0,0.1,0,0.1
			c-0.1,0.2-0.4,0.1-0.5,0.1C143.3,73.5,143.3,73.4,143.3,73.3z M145.3,73c0,0.1,0,0.1,0.1,0.3c-0.1,0.1-0.1,0.2,0,0.4
			c0,0.1,0,0.3,0.2,0.2c0.1-0.1,0.3,0,0.4,0.1c0,0.1,0,0.2,0,0.2c-0.5-0.3-1.1-0.3-1.6-0.1c0.1-0.3,0.1-0.4,0.5-0.2
			c0-0.1,0-0.2,0-0.2c0.1-0.1,0.1-0.2,0-0.3c0,0,0-0.1,0-0.1C144.9,73.1,145.1,73,145.3,73z M145.9,72.8c0,0.2-0.1,0.3-0.3,0.3
			c-0.1,0-0.2,0-0.2-0.1C145.5,72.9,145.7,72.8,145.9,72.8z M148.4,71.6c0,0-0.1,0-0.1,0c0,0,0,0,0,0
			C148.3,71.6,148.4,71.6,148.4,71.6C148.4,71.5,148.4,71.6,148.4,71.6z M151.3,70.3c0.2,0.1,0.4,0.3,0.4,0.5c0,0.1,0.1,0.1,0,0.2
			c-0.1,0.1-0.2,0.1-0.3,0c-0.1-0.2-0.4-0.2-0.6-0.4c-0.1,0-0.1-0.1-0.1-0.2C151,70.4,151.1,70.3,151.3,70.3z M153,70.1
			c0,0.1,0,0.1,0.1,0.2c-0.1,0-0.1,0.1-0.1,0.1c-0.2,0.1-0.4,0.1-0.5-0.1c0-0.1,0-0.1,0-0.2C152.7,70.1,152.8,70.1,153,70.1z
			 M152.6,71.1c0.1,0,0.3,0,0.4,0c0,0.1,0,0.1,0,0.2c-0.2,0-0.4,0-0.5,0c-0.1,0-0.2-0.1-0.2-0.2c0-0.1-0.1-0.2,0-0.3
			c0.1-0.1,0.2,0,0.3,0C152.5,71,152.5,71,152.6,71.1C152.5,71.1,152.5,71.1,152.6,71.1z M153,72.2c0,0,0.1-0.1,0.1-0.1
			c0.1-0.1,0.3-0.1,0.4,0c0,0,0.1,0.1,0.1,0.1s0,0.1,0,0.2c0,0,0,0.1,0,0.1l0,0c0,0,0-0.1,0.1-0.1c0.1-0.1,0.3-0.1,0.4-0.1
			c0,0,0.1,0.1,0.1,0.1l0,0l0,0c0,0.1-0.1,0.2-0.1,0.3c-0.1,0-0.3,0-0.4-0.1c0,0,0-0.1,0-0.1c0-0.1,0-0.1,0-0.2l0,0l0,0l0,0
			c-0.1,0.1-0.1,0.2,0,0.2c0,0,0,0.1,0,0.1c0,0.1,0,0.1,0,0.2c0,0-0.1,0.1-0.1,0.1c-0.1,0.1-0.3,0.1-0.4,0l0,0c0,0,0,0.1,0,0.1
			c0,0-0.1,0.1,0,0.1c0,0,0.1-0.1,0.1-0.1c0.2-0.1,0.3-0.1,0.4,0c0,0,0,0,0.1,0c0,0,0-0.1,0-0.1c0-0.1,0-0.1,0-0.2l0,0
			c0,0,0.1-0.1,0.1-0.1c0.1-0.1,0.2-0.1,0.4-0.1c0,0.1,0.2,0.2,0.1,0.4c-0.1,0.2-0.2,0.1-0.4,0.2c-0.3,0.1-0.6,0.1-1,0
			c-0.1,0-0.3,0-0.3,0.2c0,0.1-0.1,0.1-0.2,0.1c-0.1,0-0.2,0-0.2,0c-0.1-0.1,0-0.1,0-0.2c0.1-0.1,0.1-0.2,0.2-0.3
			c0.1,0,0.1,0,0.2,0.1c0,0,0,0.1,0.1,0v-0.1c0-0.3,0.1-0.4,0.5-0.3l0,0c0-0.1,0-0.1,0-0.2c0,0,0-0.1,0-0.1l0,0c0,0,0,0.1,0,0.1
			c-0.2,0.1-0.3,0.1-0.5,0c0,0,0,0-0.1-0.1l0,0c-0.1,0.1-0.2,0.2-0.2,0.4c0-0.1,0.1-0.3,0.2-0.4l0,0l0,0l0,0l0,0l0,0
			c0-0.1,0-0.2,0-0.3c0.2-0.1,0.3-0.1,0.5,0c0,0,0,0,0.1,0C153,72.3,153,72.2,153,72.2z M154.1,72.4L154.1,72.4L154.1,72.4
			C154.2,72.4,154.2,72.4,154.1,72.4C154.2,72.4,154.2,72.4,154.1,72.4L154.1,72.4z M153.2,75.2c0.3,0,0.4,0.3,0.4,0.5
			c0.1,0.3-0.2,0.3-0.4,0.3l0,0c0,0-0.1,0-0.1-0.1c0,0,0-0.1-0.1-0.1c0-0.1,0-0.1,0-0.2c0,0,0.1-0.1,0-0.1c-0.1,0-0.1,0-0.1,0.1
			c-0.1,0.1-0.3,0-0.4,0c0-0.1,0-0.1-0.1-0.1c0-0.1,0-0.1,0.1-0.2C152.7,75.1,153,75.2,153.2,75.2z M152.5,74.7
			c0.2-0.1,0.3-0.1,0.5,0c0,0.2-0.2,0.1-0.3,0.1C152.6,74.8,152.5,74.9,152.5,74.7z M154.1,75.1C154.1,75.1,154.1,75.1,154.1,75.1
			c0.2-0.2,0.4-0.1,0.5-0.1c0,0.1,0,0.1,0.1,0.1c0,0.1,0,0.1,0,0.2c-0.1,0-0.1,0.1-0.1,0.1c-0.2,0-0.3,0.1-0.5-0.1c0,0,0-0.1-0.1,0
			v0.1c0,0.1,0,0.1,0,0.2c0,0-0.1,0.1-0.1,0.1c-0.2-0.1-0.2-0.3-0.3-0.4c0.1,0,0.2,0,0.4,0c-0.2-0.1-0.4,0-0.5-0.2
			c0-0.1,0-0.1-0.1-0.2c0.1,0,0.1-0.1,0.1-0.1c0.2-0.1,0.4-0.1,0.5,0.1C154.1,74.9,154.1,74.9,154.1,75.1L154.1,75.1
			C154.1,75,154.1,75.1,154.1,75.1z M155.6,75.7c0.1,0.1,0.2,0.1,0.2,0.3c-0.2-0.1-0.4-0.3-0.6-0.3c-0.3,0-0.6,0-0.8,0.2
			c-0.2,0.1-0.2,0.1-0.2-0.1c0.1,0,0.1-0.1,0.1-0.1c0.1,0,0.2-0.1,0.4,0c0.1,0,0.1,0,0.1-0.1c0.1,0,0.1-0.1,0.1-0.1c0,0,0,0,0.1-0.1
			c0.2,0,0.4,0,0.5,0.2C155.3,75.6,155.5,75.6,155.6,75.7z M155.3,75c0.1,0,0.3,0,0.4,0c0,0.1,0,0.1,0.1,0.1c0,0.1,0,0.1,0,0.2
			C155.5,75.3,155.4,75.1,155.3,75z M155.2,78.6C155.2,78.6,155.1,78.6,155.2,78.6c-0.2,0.2-0.5,0-0.5,0.2c0,0.1,0.3,0,0.5,0.1
			c-0.2,0.3-0.5,0.4-0.8,0.3c-0.1-0.1-0.1-0.6,0.1-0.6c0.3,0,0.2-0.2,0.3-0.3c0.1-0.3,0.3-0.4,0.5-0.4c0,0.1,0,0.1,0.1,0.1
			c0.1,0,0.3,0,0.4,0c0.1,0.2,0.1,0.3-0.1,0.4c0,0,0,0.1-0.1,0.1c-0.1,0.2-0.2,0.3-0.4,0.3C155.2,78.7,155.2,78.7,155.2,78.6
			c0.1-0.1,0.2-0.1,0.4-0.1c0,0,0-0.1,0.1-0.1C155.5,78.5,155.2,78.2,155.2,78.6z M154.7,80.4c0,0.1,0,0.2,0.1,0.1
			c0.2-0.1,0.3,0,0.4,0.1c0,0.1,0,0.1,0,0.2c0,0-0.1,0.1,0,0.1c0.1,0,0.1,0,0.1-0.1c0.2-0.2,0.3,0,0.5,0c0,0.1,0,0.2,0,0.3
			c-0.1,0-0.1,0-0.1,0.1h0h0c-0.1,0.1-0.2,0.1-0.3,0c-0.3-0.2-0.6-0.1-0.9,0.1c-0.1,0.1-0.4-0.2-0.3,0.1c0,0-0.1,0-0.1,0.1
			c-0.2,0.1-0.3,0.1-0.5,0c0,0,0-0.1-0.1-0.1c0-0.1,0-0.1,0-0.2l0,0l0,0l0,0c-0.1,0.1-0.3,0.1-0.4,0l0,0c0,0.1,0,0.1,0,0.2
			c-0.1,0-0.1,0-0.1,0.1c-0.3,0-0.6,0-0.9,0.1c-0.1,0-0.1,0-0.2,0c0,0,0-0.1,0-0.2c0.2-0.3,0.1-0.6,0.1-0.9c0-0.2,0-0.3,0.1-0.4
			c0.1,0,0.2,0,0.4-0.1c-0.2,0-0.3,0-0.4,0c-0.1-0.1-0.2-0.2-0.1-0.3s0.2,0,0.3,0c0.5,0.2,0.9,0,1.4,0c0,0,0,0.1,0,0.1l0,0
			c0.1-0.1,0.3-0.1,0.4,0c0,0,0.1,0.1,0.1,0.1c0,0,0,0.1,0,0.1c0,0-0.1,0.1-0.1,0.1l0,0c0,0,0.1-0.1,0.1-0.1c0.1-0.1,0.3-0.1,0.4,0
			l0,0c0,0,0-0.1,0-0.1c0,0,0.1-0.1,0.1-0.1c0.2-0.1,0.3-0.1,0.5,0.1c0,0.1,0,0.1,0,0.2c-0.1,0.2-0.3,0.2-0.5,0.1
			c0,0-0.1-0.1-0.1-0.1l0,0C154.6,80.3,154.7,80.4,154.7,80.4z M155.8,81.2c0.1,0,0.1-0.1,0.2-0.1c0,0.1,0.1,0.3,0.1,0.5
			C155.9,81.6,155.7,81.6,155.8,81.2C155.7,81.3,155.8,81.3,155.8,81.2z M153.6,81.6c0,0.1,0,0.1,0,0.2c-0.2,0-0.4-0.1-0.6-0.2
			c0,0,0,0,0-0.1C153.2,81.4,153.4,81.4,153.6,81.6C153.5,81.6,153.6,81.6,153.6,81.6z M151.3,78.4c-0.1,0-0.3,0-0.4,0
			c-0.2-0.4-0.1-0.4,0.4-0.6c-0.1,0-0.2,0-0.4,0c0.2-0.3,0.7-0.4,0.9-0.2c0.1,0.1,0.1,0.2,0.1,0.3c-0.2,0.3,0,0.4,0.1,0.6
			c0.1,0,0.3,0,0.4,0.1l0,0c0,0,0.1,0.1,0.1,0.1l0,0c0,0-0.1-0.1-0.1-0.1c0,0,0-0.1,0-0.1c0,0,0.1-0.1,0.1-0.1c0,0,0,0,0,0
			c0,0,0,0,0,0c0.1-0.1,0.3-0.1,0.4,0l0,0c0-0.1,0-0.1,0-0.2c0,0,0.1,0,0.1-0.1c0.2-0.1,0.3-0.1,0.5,0c0,0,0,0.1,0.1,0.1
			c0,0.1-0.1,0.2,0.1,0.2c0.1,0,0.2,0,0.4,0l0,0l0,0c0-0.1,0-0.1,0-0.2c0.1,0,0.1,0,0.1-0.1c0,0,0,0,0.1-0.1c0.1,0,0.2,0,0.3,0
			c-0.1,0.2-0.2,0.3-0.3,0.4l0,0l0,0c0,0.1,0,0.3-0.1,0.4c-0.1,0.1-0.4-0.2-0.4,0.1c0,0-0.1,0-0.1,0.1c-0.2,0.1-0.3,0.1-0.5,0
			c0,0,0-0.1-0.1-0.1c0-0.1,0-0.1,0-0.2l0,0c-0.1,0.1-0.3,0.1-0.4,0l0,0c0.1,0.3,0.4,0,0.5,0.2c0,0,0,0.1,0.1,0.1c0,0.1,0,0.1,0,0.2
			l0,0c0.1-0.1,0.3-0.1,0.5,0c0,0.1,0,0.1,0.1,0.1c0,0.1,0,0.1,0,0.2c-0.2,0.2-0.4,0.2-0.6,0.2c-0.8,0.1-1.4-0.2-1.9-0.8
			c-0.1-0.1-0.1-0.2-0.1-0.3C151.2,78.4,151.3,78.4,151.3,78.4C151.3,78.4,151.3,78.4,151.3,78.4z M150.1,74.7
			c-0.4,0.1-1.3-0.4-1.4-0.9c-0.1-0.2-0.2-0.4-0.1-0.6c0.2,0,0.3,0,0.5,0.1c0.1,0.9,1.2,1.1,1.7,0.5c0.2-0.1,0.3,0,0.5,0
			c0,0.1,0,0.1,0,0.2l0,0C151,74.4,150.6,74.6,150.1,74.7z M150.3,76.3c0,0.1,0,0.1-0.1,0.2c-0.2,0.1-0.4,0.1-0.5-0.1
			c0-0.1,0-0.2-0.2-0.1c-0.1,0-0.3,0-0.4-0.1c0-0.1,0-0.2,0.1-0.3c0.1,0,0.3,0,0.4,0.1c0,0,0,0.1,0,0.1c0,0,0.1,0,0.1,0l0,0
			c0,0,0-0.1-0.1-0.1c0-0.1,0-0.2,0-0.2c0.2-0.1,0.4-0.1,0.5-0.1c0,0.1,0,0.2,0,0.3c0.2-0.1,0.3-0.1,0.5,0c0.1,0.1,0.1,0.2,0,0.3
			C150.6,76.4,150.4,76.4,150.3,76.3L150.3,76.3c-0.1,0-0.1-0.1-0.1-0.1C150.2,76.3,150.3,76.3,150.3,76.3z M149.3,75.1
			c0-0.1-0.1-0.2-0.1-0.3c0.4,0.1,0.8,0.2,1.1,0.3c0,0.1,0.1,0.2,0.2,0.2c0.3,0,0.4,0.1,0.3,0.4c-0.2,0.2-0.4,0.1-0.5-0.1
			c0-0.1,0-0.2-0.1-0.2c-0.1,0-0.2,0-0.3,0l0,0c0,0,0-0.1-0.1-0.1c0,0,0,0.1,0,0.1c0,0.1,0,0.1-0.1,0.2c-0.1,0.1-0.3,0.1-0.5,0.1
			c-0.1-0.1-0.1-0.3-0.1-0.5C149.3,75.2,149.3,75.2,149.3,75.1z M150.8,75.1c-0.2,0.1-0.3,0.1-0.5,0c0.1-0.2,0.3-0.1,0.5-0.2
			c0.1,0,0.1,0,0.1,0.1C150.9,75,150.9,75,150.8,75.1z M148.6,76.3c-0.2,0-0.3,0-0.5-0.1l0,0c0.1,0.1,0.1,0.2,0,0.3
			c-0.2,0.1-0.3,0.2-0.5,0c0-0.1,0-0.2,0-0.2c0.1-0.2,0.3-0.2,0.5,0l0,0c0-0.1,0-0.1,0-0.2c0.1-0.1,0.2-0.2,0.3-0.1
			c0.2,0.1,0.2,0,0.2-0.2c0,0,0.1,0,0.1-0.1c0,0,0,0,0.1,0s0,0,0.1,0c0,0,0,0-0.1,0c0,0,0,0,0.1,0C148.9,75.9,148.8,76.1,148.6,76.3
			z M148.6,76.8L148.6,76.8c0,0-0.1,0.1-0.1,0.1c-0.1,0-0.2,0-0.3,0c0,0-0.1-0.1-0.1-0.1c0-0.1,0-0.2,0-0.2c0.2-0.2,0.3-0.2,0.5,0
			C148.7,76.6,148.7,76.7,148.6,76.8z M146.8,75.5C146.8,75.5,146.8,75.5,146.8,75.5c0.1,0,0.1,0,0.1,0c0,0,0,0.1,0.1,0.1
			c0,0.1,0,0.2,0,0.3c0,0,0,0.1-0.1,0.1c-0.1,0-0.2,0.1-0.2,0C146.7,75.8,146.6,75.7,146.8,75.5z M146.9,74.4
			C146.9,74.4,146.9,74.4,146.9,74.4c0.1,0.2,0.1,0.3,0.1,0.4c0.2-0.1,0.4-0.1,0.5,0c0,0.1,0,0.1,0,0.2c-0.1,0-0.2,0.1-0.3,0.1
			c-0.2,0-0.4-0.1-0.5-0.4C146.7,74.5,146.6,74.3,146.9,74.4z M147,75.4c0-0.2,0.2-0.1,0.3-0.1c0.3,0,0.3-0.1,0.4-0.3
			c0.2,0,0.3,0,0.5,0.1c0,0.1,0,0.1,0.1,0.2c-0.1,0-0.1,0.1-0.1,0.1c-0.1,0-0.2,0.1-0.3,0.1c-0.2,0-0.2,0.1-0.3,0.2
			c-0.2,0.2-0.4,0.1-0.5,0C147,75.6,147,75.5,147,75.4z M148.1,75.2c0.2,0,0.5-0.1,0.5,0.3c0,0,0,0,0,0.1c-0.2,0.1-0.3,0.2-0.5,0
			c0-0.1,0-0.2,0-0.2C148.1,75.4,148.2,75.3,148.1,75.2z M148,76c-0.2,0.2-0.3,0.1-0.5,0c0-0.1,0-0.2,0-0.2c0.2-0.2,0.3-0.2,0.5,0
			C148.1,75.8,148.1,75.9,148,76z M147,76c0.2-0.2,0.3-0.2,0.5,0c0,0.1,0,0.2,0,0.3c-0.2,0.2-0.4,0.1-0.5,0C147,76.1,147,76,147,76z
			 M149.9,72.1c0.3,0.1,0.6,0.3,0.8,0.7c-0.1,0-0.2,0-0.3,0l0,0c0,0,0-0.1-0.1-0.1s0,0.1,0,0.1c0,0.1,0,0.1-0.1,0.2
			c-0.1,0.1-0.2,0.1-0.4,0.1c-0.1,0-0.1,0-0.1,0.1c-0.1,0-0.1,0.1-0.1,0.1c-0.1,0-0.2,0.1-0.2-0.1s-0.1-0.2-0.3-0.1
			c0,0,0,0.1-0.1,0.1c0-0.1,0-0.1,0-0.2c0,0,0,0,0,0s0-0.1,0-0.1c0,0-0.1,0.1,0,0.1c-0.2,0-0.3,0.1-0.5,0
			C148.8,72.6,149.5,72,149.9,72.1z M149.4,71.4c0.1-0.1,0.1-0.2,0.2-0.3c0.1,0.1,0.1,0.1,0.2,0.2c0,0.2-0.1,0.2-0.2,0.3
			c-0.1,0.1-0.2,0.1-0.2,0C149.2,71.4,149.3,71.4,149.4,71.4z M150.8,71.1c0,0.1,0.1,0.2,0.1,0.3c0,0-0.1,0.1,0,0.1
			c0.1,0,0.1,0,0.1-0.1c0.1-0.1,0.4,0.1,0.5-0.2c0.4,0.1,0.6,0.2,0.6,0.7c0,0.1-0.1,0.1-0.1,0.2l0,0c-0.1,0-0.2,0.1-0.3,0
			c-0.3-0.2-0.1,0.1-0.1,0.1c-0.1,0-0.1,0.1-0.1,0.1c-0.2,0.1-0.4,0.1-0.6-0.1c-0.2-0.3-0.5-0.5-1-0.5c0.2-0.3,0.3-0.5,0.5-0.7
			C150.4,71.1,150.6,71.1,150.8,71.1z M150.8,71c0.2,0,0.4,0.1,0.5,0.3c-0.2,0.1-0.4,0-0.5-0.1C150.8,71.1,150.8,71.1,150.8,71z
			 M151.5,73.4c-0.1,0-0.1,0-0.1,0.1c0,0-0.1,0.1-0.1,0.1c-0.1,0.1-0.3,0.1-0.4,0.1c0-0.2,0.1-0.3,0.1-0.5c0.1,0,0.2,0,0.3,0.1
			c0,0,0,0.1,0.1,0v-0.1c0-0.1,0-0.1,0-0.2c0.1,0,0.1-0.1,0.1-0.1c0.1,0,0.3-0.1,0.4,0C151.9,73.2,151.9,73.4,151.5,73.4z
			 M151.6,73.6c-0.1,0.1-0.1,0.2-0.2,0.2c0,0,0,0-0.1-0.1c0-0.1,0-0.1,0-0.2c0.1,0,0.1-0.1,0.1-0.1
			C151.6,73.5,151.8,73.4,151.6,73.6z M151.3,73c-0.1,0-0.2,0.1-0.3,0c0-0.1,0-0.3-0.1-0.4c0.1-0.1,0.3,0,0.4,0c0,0.1,0,0.1,0.1,0.1
			c0,0,0,0.1,0,0.1C151.3,72.9,151.3,73,151.3,73z M151.9,72.7C151.8,72.7,151.8,72.7,151.9,72.7c-0.2,0.1-0.3,0.1-0.5,0.1
			c0-0.1,0-0.1-0.1-0.1c0-0.1,0-0.1,0-0.2c0.1,0,0.1-0.1,0.1-0.1c0.1,0,0.3,0,0.4,0l0,0c0,0.1,0.1,0.1,0.1,0.2
			C151.9,72.6,151.9,72.6,151.9,72.7L151.9,72.7z M150.2,73.2c0-0.1,0-0.2,0-0.3c0.1-0.1,0.3-0.1,0.4-0.1c0.1,0.2,0.1,0.3,0,0.5
			C150.6,73.4,150.4,73.4,150.2,73.2C150.3,73.3,150.3,73.2,150.2,73.2z M150,73.7c-0.2,0-0.3-0.1-0.3-0.4c0.1,0,0.1-0.1,0.1-0.1
			c0.2,0,0.3,0,0.5,0.1c0,0,0,0,0,0.1C150.3,73.5,150.2,73.7,150,73.7z M151.8,75.3c0,0.1,0,0.3-0.1,0.4c-0.1,0.1-0.3-0.1-0.3,0.2
			c-0.1,0-0.1,0.1-0.1,0.1c-0.1,0-0.2,0.1-0.2-0.1C151.1,75.5,151.3,75.2,151.8,75.3z M151.9,76.4c0,0,0-0.1,0-0.1
			C151.9,76.4,152,76.4,151.9,76.4c0.2,0,0.4,0.1,0.5,0.3c0.1-0.2,0.4-0.1,0.4-0.3c0.1,0,0.1,0,0.2,0.1c0,0.1,0,0.1,0.1,0.1
			c0,0,0,0.1,0,0.1c-0.1,0-0.1,0.1-0.1,0.1c-0.2,0.1-0.5,0-0.6,0.3c0,0,0,0-0.1,0c-0.2,0-0.8-0.4-0.9-0.7
			C151.6,76.4,151.7,76.4,151.9,76.4C151.9,76.5,151.9,76.5,151.9,76.4C151.9,76.5,152,76.5,151.9,76.4
			C151.9,76.4,151.9,76.4,151.9,76.4z M152.5,75.9c0.2,0,0.3-0.1,0.5,0.1c0,0,0,0.1,0.1,0.1c0,0,0,0,0,0.1c0.1,0.2,0.3,0,0.4,0.1
			c0,0.1,0.1,0.1,0.1,0.2c0,0.1-0.1,0.2-0.1,0.3c-0.1,0-0.3,0-0.4,0c0-0.1,0-0.1-0.1-0.1c0-0.1,0-0.1,0-0.2l0,0c0,0,0-0.1,0-0.1
			c0,0,0,0-0.1,0c-0.1,0-0.1,0.1-0.2,0.1c-0.2-0.1-0.4-0.1-0.3-0.4C152.5,76,152.5,75.9,152.5,75.9z M154.7,76.2
			c0-0.2,0.1-0.4,0.3-0.3c0.3,0.1,0.5,0.2,0.7,0.4c0.1,0.1,0.1,0.2,0,0.3c-0.1,0-0.2,0-0.3,0C155.2,76.3,154.9,76.3,154.7,76.2z
			 M155.8,77.5c-0.1,0.3-0.2,0.3-0.5,0.2C155.4,77.6,155.6,77.6,155.8,77.5z M154.7,76.6c0.1-0.1,0.2-0.1,0.3,0
			c0.1,0.1,0.1,0.1,0.1,0.2c0,0.1-0.2,0.1-0.3,0.1c-0.1,0-0.1,0-0.1,0.1s-0.1,0.2-0.2,0.1c-0.1-0.1-0.2-0.2-0.2-0.3
			c0-0.2,0.2-0.1,0.3-0.1C154.6,76.8,154.6,76.7,154.7,76.6z M154.5,76.4c-0.1,0-0.1,0.3-0.3,0.2c-0.1-0.1,0-0.2,0.1-0.3
			c0.1-0.2,0.2-0.2,0.3,0C154.6,76.3,154.6,76.4,154.5,76.4z M154.5,77.5c0.1,0,0.3,0,0.2,0.2c0,0.1-0.1,0.2-0.3,0.2
			c-0.1,0-0.1,0-0.2,0l0,0c0,0,0-0.1-0.1,0c0-0.1,0-0.1-0.1-0.1c0,0,0-0.1,0-0.1c0.1,0,0.1-0.1,0.1-0.1
			C154.3,77.4,154.4,77.4,154.5,77.5z M154.1,77.5c-0.1,0-0.3,0-0.4,0.1c0.2,0,0.3,0,0.4,0c0,0.1,0,0.1,0.1,0.1c0,0.1,0,0.1,0,0.2
			c0,0-0.1,0-0.1,0.1c-0.2,0.1-0.3,0.1-0.5,0c0,0,0-0.1-0.1-0.1c0-0.1,0.1-0.2-0.1-0.2c-0.1,0-0.2,0-0.3-0.1l0,0l0,0
			c0,0.1,0,0.1,0,0.2c0,0-0.1,0-0.1,0.1c-0.2,0.1-0.3,0.1-0.5,0c0,0,0-0.1-0.1-0.1c0-0.1,0.1-0.2-0.1-0.2c-0.2,0-0.2-0.2-0.2-0.3
			c0-0.1,0.2-0.1,0.2,0c0.2,0.1,0.4,0,0.6,0.1l0,0l0,0l0,0c0-0.1,0-0.1,0.1-0.2c0.2-0.2,0.5-0.2,0.7-0.4c0.1-0.2,0.3,0.1,0.4,0.3
			C154.1,77.4,154.1,77.4,154.1,77.5z M152.5,78c0,0.1,0,0.1,0,0.2l0,0c0,0-0.1,0.1-0.1,0.1c-0.1,0.1-0.2,0.1-0.3,0
			c0.2-0.1,0-0.4,0.3-0.5C152.4,78,152.4,78,152.5,78C152.4,78,152.4,78,152.5,78z M153.1,76.7c0.1,0,0.3-0.1,0.4,0.1
			c-0.1,0.1-0.2,0.2-0.3,0.2c-0.2,0.1-0.1,0-0.1-0.1C153.1,76.8,153.1,76.8,153.1,76.7z M152.5,75.9c-0.1,0-0.1,0.1-0.1,0.1
			c-0.1,0.1-0.2,0.1-0.3,0c-0.1-0.1-0.1-0.3,0-0.5c0.1,0,0.2,0,0.3,0.1c0,0.1,0,0.1,0.1,0.1C152.5,75.8,152.5,75.8,152.5,75.9z
			 M151.8,76.3c-0.1,0-0.3,0-0.4-0.1c0-0.1-0.1-0.2-0.1-0.3c0.1,0,0.1-0.1,0.1-0.1c0.1,0,0.2,0,0.3,0
			C151.7,76,151.9,76.2,151.8,76.3z M154.4,79.7c0.1,0,0.2,0.1,0.3,0.1c0,0.1,0,0.1,0,0.2c0,0-0.1,0.1-0.1,0.1
			c-0.1,0.1-0.3,0.1-0.4,0l0,0c0,0-0.1-0.1-0.1-0.1c0-0.1,0-0.1,0-0.2C154.2,79.7,154.3,79.6,154.4,79.7z M153.9,79.3
			c-0.1,0-0.2,0-0.3-0.1c0-0.1,0-0.1-0.1-0.1c0-0.1,0-0.1,0-0.2c0,0,0.1,0,0.1-0.1c0.1-0.1,0.3-0.1,0.4-0.1
			C154,79,154.1,79.2,153.9,79.3z M154.7,79.8c0-0.1-0.1-0.2,0-0.3c0.2-0.1,0.3-0.2,0.5-0.1c0,0.1,0,0.1,0.1,0.1c0,0.1,0,0.1,0,0.2
			C155.1,79.9,154.9,79.9,154.7,79.8z M155.7,77.1c-0.1,0.1-0.2,0.1-0.2,0.1c-0.1,0,0-0.1,0-0.2c0-0.1,0-0.2,0-0.3
			c0.1,0,0.2,0,0.2,0l0,0c0,0.1,0,0.1,0.1,0.1C155.8,77,155.7,77,155.7,77.1z M154.8,75.1L154.8,75.1
			C154.8,75.1,154.7,75.1,154.8,75.1c-0.1-0.1-0.1-0.2-0.1-0.2c0,0,0-0.1,0-0.1c0,0,0.1,0,0.1-0.1c0.1,0.1,0.1,0.2,0.2,0.2
			C155,75.2,154.9,75.2,154.8,75.1z M151.7,75.2c0,0.1-0.2,0-0.3-0.1c-0.1-0.1,0-0.2,0.1-0.3c0.3-0.2,0.5-0.6,0.9-0.5
			c0,0,0,0,0.1,0.1c0,0.1,0,0.1,0.1,0.1c0,0,0,0.1,0,0.1C152.3,74.9,151.9,74.9,151.7,75.2z M151.9,70.3
			C151.9,70.3,151.9,70.3,151.9,70.3c0.2-0.1,0.3-0.1,0.5-0.1c0,0.1,0.1,0.3,0,0.4c0,0,0,0-0.1,0.1C152,70.8,151.9,70.6,151.9,70.3z
			 M152.1,70.1c0.1,0,0.1,0,0.2,0C152.3,70.1,152.2,70.1,152.1,70.1z M152,70.2C152,70.2,152,70.2,152,70.2c0,0.1-0.1,0.1-0.1,0.2
			c0,0-0.1-0.1-0.1-0.1C151.8,70.2,151.9,70.2,152,70.2z M150.7,71c-0.2,0-0.4,0-0.5-0.1c0-0.1,0-0.1,0-0.2c0.1,0,0.1-0.1,0.2-0.1
			C150.5,70.7,150.7,70.8,150.7,71z M149.7,70.9c0,0-0.1,0-0.1,0.1v0C149.7,70.9,149.7,70.9,149.7,70.9
			C149.7,70.9,149.7,70.9,149.7,70.9z M148.9,71.4c-0.1,0-0.1,0-0.2-0.1c0.1-0.1,0.3-0.1,0.4-0.2C149.1,71.3,149,71.4,148.9,71.4z
			 M148.7,72.1c0.1-0.1,0.2-0.2,0.3-0.1c-0.1,0.1-0.2,0.2-0.4,0.3C148.6,72.2,148.6,72.2,148.7,72.1z M148.6,75.1
			c-0.2,0.2-0.3,0.1-0.5-0.1c0-0.1,0-0.2,0-0.2l0,0c-0.2,0.2-0.4,0.1-0.5,0c0-0.1,0-0.2,0-0.3c0,0,0.1-0.1,0-0.1
			c-0.1,0-0.1,0.1-0.1,0.1c-0.2,0.2-0.4,0.1-0.5,0c0,0,0-0.1,0-0.1c0-0.3,0.3-0.3,0.6-0.4c0.3,0,0.5,0.1,0.6,0.4c0,0,0,0.1,0,0.1
			c0,0.1,0,0.1,0.1,0.2c0.1,0,0.2,0,0.3,0C148.6,74.8,148.7,74.9,148.6,75.1z M148.1,73c0.1,0,0.2-0.1,0.3-0.1
			c0,0.2,0.1,0.4-0.1,0.6c-0.1,0.1,0.1,0,0.1,0.1c0,0.1,0.1,0.3,0.1,0.5c-0.3-0.3-0.6-0.4-0.9-0.4c0-0.1-0.1-0.2-0.1-0.3
			c0.1-0.1,0.2-0.2,0.3-0.1C148.1,73.3,148.1,73.1,148.1,73z M148.4,72.8c-0.2-0.1-0.3,0-0.3,0.2c-0.2,0.1-0.4,0.2-0.5,0l0,0
			c0-0.1,0-0.2,0-0.2c0.1-0.1,0.1-0.2,0-0.4c0-0.1,0-0.2,0-0.3c0.2-0.1,0.4-0.1,0.5,0c0,0.1,0.1,0.2,0.2,0.2c0.1,0,0.2,0,0.3,0.1
			C148.6,72.5,148.5,72.7,148.4,72.8z M147.5,72.7c-0.2,0.2-0.3,0.1-0.5,0c0-0.1,0-0.2,0-0.3c0.2,0,0.4-0.2,0.5,0
			C147.6,72.5,147.6,72.6,147.5,72.7z M147.5,72.1c-0.1,0.1-0.2,0.1-0.3,0.1C147.3,72.1,147.4,72.1,147.5,72.1
			C147.5,72,147.5,72.1,147.5,72.1z M147,73c0.2-0.2,0.3-0.2,0.5,0c0,0.1,0,0.2,0,0.3c-0.2,0.3-0.3,0.3-0.5,0
			C147,73.2,147,73.1,147,73z M147,73.6C146.9,73.6,146.9,73.6,147,73.6c-0.2,0.1-0.4,0.1-0.5,0l0,0c-0.1-0.1-0.1-0.2,0-0.3
			c0.2-0.2,0.3-0.2,0.5,0C147,73.4,147,73.5,147,73.6z M145.9,75.7c0-0.1,0-0.2,0-0.3c0.1,0,0.1-0.1,0.1-0.1c0.5-0.1,0.6,0,0.4,0.5
			C146.2,75.8,146,75.7,145.9,75.7z M146.1,76.4c-0.1,0-0.1-0.1-0.2-0.1c0-0.1,0-0.2,0-0.3c0.1-0.1,0.3-0.1,0.5-0.1
			C146.4,76.1,146.3,76.2,146.1,76.4z M145.9,76.3c0,0.1,0,0.2,0,0.3c-0.2,0.2-0.4,0.2-0.5,0c0-0.1,0-0.2,0-0.3
			c0.1-0.1,0.1-0.2,0-0.4c0-0.1,0-0.2,0-0.3c0.1,0,0.1-0.1,0.2-0.1c0,0.1,0,0.2,0.1,0.3c0.2,0.1,0.2-0.1,0.3-0.2c0,0.1,0,0.2,0,0.3
			C145.7,76,145.8,76.2,145.9,76.3z M145.3,74.3c0,0.1,0,0.1,0,0.2c-0.2,0.1-0.4,0.1-0.5,0c0-0.1,0-0.1-0.1-0.1
			C144.9,74.1,145.1,74.2,145.3,74.3C145.4,74.3,145.4,74.3,145.3,74.3c0.3,0.1,0.6,0.1,0.5,0.5l0,0c-0.1,0.1-0.3,0.1-0.4,0.1
			c-0.1,0-0.1-0.1-0.1-0.2s0-0.1,0-0.2c0,0,0.1-0.1,0.1-0.1C145.4,74.3,145.4,74.3,145.3,74.3z M145.3,74.7
			c-0.1,0.3-0.3,0.1-0.5,0.1C144.9,74.6,145.1,74.6,145.3,74.7z M146.3,75.1c-0.1,0.1-0.2,0-0.3,0c0-0.1-0.1-0.2-0.1-0.4l0,0
			c0.1-0.1,0.2,0,0.3,0.1C146.2,74.9,146.4,75,146.3,75.1z M145.4,73.6c-0.1-0.1-0.1-0.2,0-0.3c0.2-0.2,0.3-0.1,0.5,0
			c0,0.1,0,0.2,0,0.3C145.7,73.6,145.5,73.7,145.4,73.6z M145.9,73.6L145.9,73.6c0.1-0.1,0.1-0.2,0-0.3l0,0c0-0.4,0.2-0.5,0.5-0.3
			c0,0.1,0,0.2,0,0.3c-0.1,0.1-0.1,0.2,0,0.4c0,0.1,0,0.2,0,0.3c-0.2,0.2-0.3,0.2-0.5,0C145.9,73.8,145.9,73.7,145.9,73.6z
			 M146,72.7c0.1-0.1,0.3-0.1,0.4-0.2c0,0,0,0.1,0,0.1C146.3,72.7,146.1,72.8,146,72.7z M144.8,73.2c0,0.1,0,0.2,0,0.3
			c-0.1,0.1-0.3,0.1-0.5,0.1c-0.2-0.1-0.2-0.3,0-0.4c0.1,0,0.1,0,0.2,0C144.6,73.2,144.7,73.2,144.8,73.2z M144.8,75.9
			c0.2-0.1,0.3-0.2,0.5,0c0.1,0.1,0.1,0.2,0,0.3c-0.2,0.2-0.3,0.2-0.5,0C144.8,76.1,144.8,76,144.8,75.9z M145.3,76.5
			c0,0.1,0.1,0.3-0.1,0.3c-0.2,0-0.4,0-0.4-0.3C145,76.4,145.1,76.4,145.3,76.5z M145.7,77.3c0.1,0,0.1,0,0.2,0.1
			c-0.1,0.1-0.2,0.2-0.3,0.3c0,0-0.1,0-0.2,0c-0.1,0-0.1-0.1,0-0.1C145.4,77.4,145.5,77.3,145.7,77.3z M145.9,78.6
			c0,0.1,0,0.2,0,0.3c-0.3,0-0.4-0.1-0.5-0.4C145.6,78.5,145.7,78.5,145.9,78.6z M145.9,77.8c0-0.2,0.1-0.3,0.3-0.2
			c0.2,0,0.3,0.1,0.3,0.3c0,0.2-0.1,0.3-0.3,0.2C146,78.1,145.9,78,145.9,77.8z M146.4,76.9c-0.1,0-0.2,0.1-0.3,0
			c0.1-0.1,0.2-0.2,0.4-0.3C146.4,76.7,146.4,76.7,146.4,76.9C146.4,76.8,146.4,76.8,146.4,76.9z M146.4,74.5
			c-0.1,0.1-0.2-0.1-0.2-0.1s-0.2-0.1-0.2-0.2c0.1-0.1,0.3-0.1,0.5,0C146.5,74.3,146.5,74.4,146.4,74.5z M146.4,74.1
			c0-0.1,0-0.2,0-0.2c0.1-0.1,0.2-0.2,0.3-0.1C146.6,73.9,146.6,74.1,146.4,74.1z M146.9,76.2C146.9,76.2,146.9,76.2,146.9,76.2
			c0.1,0.2,0.1,0.3,0,0.4s-0.3,0.1-0.4,0C146.6,76.4,146.6,76,146.9,76.2z M147.6,77.9c-0.1,0-0.1,0.1-0.1,0.1
			c-0.1,0-0.2,0.1-0.3,0.1C147.3,77.7,147.4,77.7,147.6,77.9z M147.5,77.1c0-0.1,0-0.2,0-0.3c0.2-0.1,0.4-0.1,0.5,0
			c0,0.1,0,0.1,0.1,0.1c-0.1,0.2-0.3,0.3-0.5,0.3l0,0C147.6,77.1,147.6,77.1,147.5,77.1z M149.7,79.2c-0.1,0.1-0.2,0.1-0.3,0.1
			c0,0-0.1-0.1-0.1,0c0,0,0-0.1-0.1-0.1c0-0.1,0-0.2,0-0.3c0.1,0,0.1-0.1,0.1-0.1c0.1,0,0.3,0,0.4,0c0.1,0,0.1,0,0.1-0.1
			c0-0.1,0-0.1-0.1-0.1c-0.2,0.1-0.3,0-0.5-0.1c0-0.1,0-0.2,0-0.3c0.1-0.1,0.3-0.2,0.4-0.1c0.2,0.1,0.1-0.1,0.1-0.2
			c0.1,0,0.1-0.1,0.1-0.1c0.2,0,0.3,0,0.5,0.1c0,0.1,0,0.1,0.1,0.1c0,0.1-0.1,0.1-0.1,0.2c-0.1,0.1-0.2,0.1-0.4,0.2
			c0.2,0,0.3,0,0.4,0.1c0,0,0,0.1,0.1,0v-0.1c0-0.1,0-0.1,0-0.2c0.1-0.1,0.1-0.2,0.2-0.2c0,0.1,0,0.2,0.1,0.3
			c0.1,0.2-0.1,0.2-0.2,0.2c0.1,0,0.2,0,0.3,0c0.1,0.1,0.2,0.2,0.1,0.3c0,0.1-0.2,0-0.2,0c-0.1,0-0.2,0-0.3-0.1
			C150.1,79,149.9,78.9,149.7,79.2z M150.2,79.5c-0.2,0-0.3,0.1-0.5,0c0.1-0.2,0.3-0.1,0.5-0.1C150.2,79.4,150.2,79.5,150.2,79.5z
			 M149.2,79.2C149.2,79.2,149.2,79.3,149.2,79.2c0.1,0.1,0.1,0.1,0,0.2c-0.1,0.1-0.2,0.3-0.4,0.2c-0.2-0.1-0.2-0.2-0.2-0.4
			C148.8,79.1,149,79,149.2,79.2z M149.7,79.5c0,0,0,0.1,0.1,0.1c0,0-0.1,0.1,0,0.1c0,0,0.1-0.1,0.1-0.1c0.1,0,0.2,0,0.3,0
			c0.2,0.1,0.1-0.1,0.1-0.2c0.1,0,0.1-0.1,0.1-0.1c0.4,0,0.7,0.3,0.9,0.5c0.1,0.1,0,0.1,0,0.2c0,0,0,0.1,0,0.1
			c0.1,0.1,0.2,0.2,0.2,0.3c0.2,0.2,0.1,0.4,0,0.7c-0.2-0.1-0.3,0.2-0.5,0.1c0-0.3-0.1-0.6,0.4-0.6c-0.4,0-0.5-0.2-0.4-0.5
			c0,0,0,0,0-0.1c0,0,0,0,0,0.1c0.1,0,0.2,0,0.3,0c0,0,0-0.1,0-0.1c-0.1,0-0.2,0-0.3,0l0,0c0-0.1-0.1-0.1-0.2-0.1
			c-0.2,0-0.3-0.1-0.5,0c-0.1,0-0.2,0.1-0.2,0.2c0,0.1,0.1,0.1,0.2,0.2c0,0,0.1,0.1,0.1,0.1c0,0,0,0.1,0.1,0.1
			c-0.1,0-0.1,0.1-0.1,0.1c-0.2,0.1-0.3,0.1-0.5,0.1c0-0.1,0-0.1-0.1-0.1c0-0.1,0.1-0.2-0.1-0.2s-0.3,0-0.4-0.2
			C149.3,80,149.4,79.7,149.7,79.5z M149.2,80.7c0.2-0.2,0.3-0.2,0.5-0.1c0,0.1,0,0.1,0.1,0.1c0,0.1,0,0.1-0.1,0.2
			c-0.1,0.1-0.3,0.1-0.5,0C149.2,80.9,149.1,80.8,149.2,80.7z M150.2,80.9L150.2,80.9C150.2,81,150.3,81,150.2,80.9
			C150.4,80.9,150.3,80.9,150.2,80.9c0.1-0.1,0.1-0.2,0-0.3c0.1,0,0.1-0.1,0.1-0.1c0.1,0,0.2,0,0.3,0c0.1,0.3,0,0.5-0.1,0.7
			c-0.2,0-0.5,0.1-0.7,0.1c0-0.1-0.1-0.1-0.1-0.2c0-0.1,0-0.2,0-0.2C149.9,80.9,150.1,80.8,150.2,80.9z M153.9,82.1
			c-0.1-0.1-0.3-0.1-0.3-0.3c0.2-0.1,0.3-0.1,0.5,0c0,0.1,0,0.1,0,0.2C154.1,82.1,154,82.2,153.9,82.1z M154.1,81.8
			c0-0.1,0-0.1,0-0.2c0,0,0.1,0,0.1-0.1c0.1-0.1,0.2-0.1,0.3-0.1C154.3,81.6,154.3,81.7,154.1,81.8z M154.5,82c0.1,0,0.1,0,0.2,0.1
			c0,0.1,0,0.1,0.1,0.1c0,0.1,0,0.1,0,0.2c-0.1,0-0.1,0.1-0.1,0.1C154.3,82.4,154.4,82.2,154.5,82z M154.7,82.4
			c0.1-0.1,0.3,0,0.5-0.1c0,0.1,0,0.1,0.1,0.1c0,0,0,0.1,0,0.1c-0.1,0-0.2,0.1-0.3,0.1s-0.3,0-0.3-0.1
			C154.7,82.5,154.7,82.4,154.7,82.4z M155.7,82.5c0,0,0.1-0.1,0-0.1C155.7,82.4,155.7,82.5,155.7,82.5c-0.2,0-0.3,0-0.5-0.1
			c0-0.1,0-0.1-0.1-0.1c0-0.1,0-0.1-0.1-0.1c-0.1,0-0.3,0-0.4,0c0-0.1,0-0.1-0.1-0.1c0-0.1,0-0.2,0.1-0.3c-0.1,0-0.1,0-0.1,0
			c0,0,0.1,0,0.1,0c0.4-0.3,0.6-0.2,1,0.1c0.3,0.2,0.5,0.5,0.6,0.8c-0.2,0.2-0.3,0.2-0.5,0.1C155.7,82.7,155.7,82.6,155.7,82.5z
			 M155.3,79.5c0-0.1,0-0.1-0.1-0.1c0.1-0.2,0.2-0.4,0.5-0.3c0,0,0,0.1,0.1,0.1c0,0.1,0,0.2,0,0.3C155.6,79.6,155.4,79.6,155.3,79.5
			z M155.7,79.1c0-0.1,0.1-0.3,0.2-0.4c0.1,0.2,0.1,0.3,0.2,0.5C156,79.3,155.9,79.2,155.7,79.1C155.8,79.1,155.7,79.1,155.7,79.1z
			 M155.9,76.9L155.9,76.9C155.9,76.8,155.9,76.9,155.9,76.9L155.9,76.9z M155.9,76.2c-0.1-0.1-0.1-0.2-0.2-0.3
			c0.1-0.2,0.3-0.1,0.4,0c0.1,0,0.1,0.1,0.1,0.2c0,0.1,0,0.2-0.1,0.2C156,76.4,156,76.3,155.9,76.2z M156.1,75.6
			c-0.1-0.1-0.4-0.1-0.3-0.3c0.2-0.1,0.4-0.1,0.5,0.1c0,0.1,0,0.1,0,0.2C156.2,75.6,156.1,75.6,156.1,75.6z M155.8,74.1
			c0.2,0,0.4,0,0.5,0.1c0,0.2,0.2,0.4,0.2,0.6C156.3,74.6,155.9,74.4,155.8,74.1z M154.6,74.8C154.6,74.8,154.6,74.8,154.6,74.8
			c-0.2,0.1-0.3,0.1-0.5,0.1c0-0.1-0.1-0.3,0-0.4c0,0,0,0,0.1-0.1c0,0,0,0-0.1,0c0,0,0,0,0,0.1c-0.2,0.1-0.3,0.2-0.5,0.1
			c0,0,0-0.1,0-0.1c0,0,0-0.1-0.1-0.1s0,0.1,0,0.1c0,0,0,0.1,0,0.1c0,0.1,0,0.1,0,0.2c-0.1,0-0.1,0.1-0.1,0.1c-0.1,0-0.1,0-0.2,0.1
			c-0.2,0-0.2-0.1-0.3-0.2c-0.1-0.3-0.3-0.1-0.5-0.1c0-0.1,0-0.1-0.1-0.1c0,0,0,0,0-0.1c0.2-0.4,0.7-0.6,1.1-0.5l0,0
			c0,0,0.1-0.1,0.1-0.1c0.2,0,0.4,0,0.6,0.1c0.2,0,0.2,0.3,0.2,0.4s-0.2,0-0.3,0c0-0.1,0-0.1-0.1-0.1c0-0.1,0-0.1-0.1-0.1
			c-0.1,0-0.3,0-0.4,0c0-0.1,0-0.1,0-0.2c0,0-0.1,0.1-0.1,0.1c0,0.1,0,0.1,0.1,0.1c0,0.1,0,0.1,0,0.2l0,0c0,0,0,0.1,0,0.1
			c0,0,0,0,0.1,0c0.1-0.1,0.3-0.1,0.5-0.1c0,0.1,0,0.1,0.1,0.1c0,0,0,0.1,0,0.1c0,0,0,0,0.1,0C154.6,74.3,154.6,74.5,154.6,74.8z
			 M154.5,71.7c0,0.1-0.1,0.1-0.1,0.2c-0.1,0-0.1,0-0.2-0.1c0,0,0-0.1-0.1,0v0.1c0.1,0.1,0,0.2,0,0.3c0,0,0,0,0,0
			c-0.1,0-0.3,0-0.4,0l0,0c0,0-0.1-0.1-0.1-0.1c0,0,0-0.1,0-0.1c0.1,0,0.1-0.1,0.1-0.1c0,0,0.1,0,0.1-0.1c0,0,0,0-0.1,0
			c0,0,0,0,0,0.1c-0.1,0-0.1,0.1-0.1,0.1c-0.1,0-0.3,0.1-0.4,0c0,0-0.1-0.1-0.1-0.1c0,0.1,0,0.1,0,0.1c0,0,0,0.1,0,0.1l0,0
			c0,0-0.1,0.1-0.1,0.1c-0.2,0.1-0.4,0.1-0.5-0.1c0-0.2,0.1-0.3,0.3-0.3c0.2,0,0.4-0.1,0.6-0.1c0.1,0,0.2,0,0.2,0.1c0,0,0,0,0.1,0
			c0.2,0,0.4,0,0.5-0.2c0-0.1,0.1-0.2,0.3-0.1C154.6,71.4,154.5,71.6,154.5,71.7z M153.6,70.4c0-0.2,0.2-0.1,0.3-0.1
			c0.1,0,0.2-0.1,0.2,0.1C153.9,70.5,153.8,70.5,153.6,70.4z M148.2,71.7C148.2,71.6,148.2,71.6,148.2,71.7L148.2,71.7
			c0.3,0,0.5,0.1,0.4,0.4c-0.2,0.2-0.4,0.1-0.5,0c0-0.2,0-0.3-0.2-0.2c0,0-0.1,0-0.1,0C147.9,71.8,148.1,71.7,148.2,71.7z
			 M146.7,72.4c0.1,0,0.2-0.1,0.3-0.1c0,0,0,0,0,0.1l0,0c-0.1,0.1-0.1,0.2,0,0.3l0,0c0,0.1,0,0.2,0,0.3c-0.2,0.2-0.3,0.2-0.5,0
			c0-0.1,0-0.2,0-0.3l0,0c0.1-0.1,0.1-0.1,0.1-0.2C146.6,72.5,146.6,72.5,146.7,72.4z M139.3,66.7c0,0.1,0,0.1,0.1,0.1
			c0,0.1,0,0.1,0,0.2c-0.1,0-0.1,0.1-0.1,0.1c-0.2-0.1-0.2-0.3-0.1-0.5C139.2,66.7,139.2,66.7,139.3,66.7z M139.4,67
			c0.1-0.1,0.3,0,0.5-0.1c0,0.1,0,0.1,0,0.1c0,0,0,0.1,0,0.1l0,0c-0.1,0-0.2,0.1-0.3,0.1s-0.3,0-0.3-0.1
			C139.3,67.1,139.4,67.1,139.4,67z M139.9,67.4c0,0.1,0,0.2,0.1,0.4c0,0-0.1,0-0.1,0c0-0.1,0-0.1,0-0.2
			C139.9,67.5,139.9,67.4,139.9,67.4z M139.9,67.9C139.9,67.9,140,67.9,139.9,67.9c0.1,0.1,0.1,0.2,0.1,0.4c0,0-0.1,0-0.1-0.1
			C139.8,68.2,139.8,68,139.9,67.9z M139.8,66.9C139.8,66.9,139.7,66.9,139.8,66.9c-0.2,0-0.3,0-0.4,0c0-0.1,0-0.1-0.1-0.1
			c0-0.1,0-0.2,0.1-0.2c0,0-0.1,0-0.1,0c0,0,0,0,0.1,0c0,0,0.1-0.1,0.1-0.1C139.6,66.5,139.7,66.6,139.8,66.9z M138.7,66.4
			c0-0.1,0-0.1,0-0.2c0,0,0.1,0,0.1-0.1h0v0c0.1,0,0.2,0,0.2,0C139,66.3,138.9,66.4,138.7,66.4z M138.9,68.6c0-0.1,0.1-0.2,0.1-0.4
			c0.1-0.5,0.2-0.6,0.8-0.6l0,0c0,0.1,0,0.1,0.1,0.1c0,0.1,0,0.1,0,0.2c-0.1,0.2-0.2,0.2-0.4,0.2c-0.1,0-0.1-0.1-0.1,0.1
			c0,0.1,0.1,0,0.1,0c0.2,0,0.3,0,0.4,0.2c0,0.1,0.1,0.2,0.2,0.2c0,0.2,0,0.4,0,0.5s0,0.3,0,0.5c-0.2,0.1-0.3,0.1-0.5,0.3
			c-0.1,0.1-0.3,0.1-0.4,0.3c-0.1,0.1-0.1,0-0.2-0.1c-0.1-0.3-0.2-0.7-0.7-0.7C138.6,69,138.8,68.9,138.9,68.6z M137.2,68.8
			c0.2-0.1,0.3-0.1,0.5,0c0,0,0,0.1,0.1,0v-0.1c0-0.1,0-0.1,0-0.2c0,0,0.1-0.1,0.1-0.1c0.1-0.1,0.3,0,0.4,0c0,0.1,0,0.1,0.1,0.1
			c0,0.1,0,0.2-0.1,0.3c-0.2,0.2-0.4,0-0.6,0.2C137.5,69.2,137.2,69.1,137.2,68.8C137.1,68.9,137.2,68.9,137.2,68.8z M137.1,68.9
			c-0.2-0.1-0.3-0.2-0.3-0.5c0.1,0,0.2,0,0.3,0.1l0,0c0,0,0.1,0.1,0.1,0.1C137.2,68.7,137.2,68.8,137.1,68.9
			C137.1,68.8,137.1,68.8,137.1,68.9z M138.4,69.7c0,0.1-0.1,0-0.1,0c-0.1,0.1-0.3,0.1-0.3,0.3c0,0.1-0.1,0.1-0.2,0c0,0,0-0.1,0-0.2
			c0.1-0.3,0.3-0.3,0.5-0.3C138.3,69.6,138.3,69.6,138.4,69.7z M137.7,70.3c0.1-0.1,0.1,0.1,0.2,0.2c0.1,0.1,0.1,0.1,0.2,0.3
			c-0.2,0-0.3,0.1-0.4-0.1C137.6,70.5,137.6,70.4,137.7,70.3z M137.9,70.8c0.3,0,0.6,0,0.9,0c0,0,0,0.1,0,0.1
			c-0.1,0.1-0.3,0.1-0.4,0c0,0,0-0.1-0.1-0.1c0,0,0,0.1,0,0.1c0.1,0.2,0.3,0,0.4,0.1c0,0.1,0.1,0.1,0.1,0.2c0,0.1-0.1,0-0.2,0
			c-0.3-0.1-0.5-0.2-0.7-0.4C137.8,71,137.7,70.8,137.9,70.8z M138.5,70.5c-0.2,0-0.3-0.1-0.3-0.3c0-0.1,0.1-0.3,0.3-0.3
			c0.2,0,0.3,0.1,0.3,0.3C138.8,70.3,138.7,70.5,138.5,70.5z M137.8,67.9c0.1,0.1,0,0.4,0.2,0.3c0.2-0.1,0.2-0.2,0.2-0.4l0,0
			c0.1,0,0.1-0.1,0.1-0.1c0.1,0,0.3,0,0.4,0c0.2,0.3,0.1,0.8-0.2,1.1c-0.1,0-0.1,0-0.2-0.1c0-0.1,0-0.1-0.1-0.1c0-0.1,0-0.1-0.1-0.1
			c-0.1,0-0.2,0-0.3,0l0,0c0,0-0.1-0.1-0.1-0.1c0-0.1,0-0.1,0-0.2C137.7,68,137.7,67.9,137.8,67.9L137.8,67.9z M137.4,67.5
			c0.2,0,0.3,0.2,0.3,0.3c-0.1,0-0.1,0.1-0.1,0.1c-0.2,0.1-0.3,0.1-0.5,0c0,0,0-0.1-0.1-0.1c0-0.1,0-0.1,0-0.2
			C137.1,67.5,137.3,67.5,137.4,67.5z M136.8,67.9c0.1,0,0.2,0,0.3,0.1c0,0,0,0.1,0.1,0.1c0,0.1,0,0.1,0,0.2l0,0l0,0l0,0
			c0.1-0.1,0.3-0.1,0.4,0c0,0,0.1,0.1,0.1,0.1c0,0,0,0.1,0,0.1c0,0-0.1,0.1-0.1,0.1l0,0c-0.1,0.1-0.3,0.1-0.4,0c0,0-0.1-0.1-0.1-0.1
			c0-0.1,0-0.1,0-0.2l0,0c0,0,0-0.1,0-0.1l0,0c0,0,0,0.1-0.1,0.1c-0.1,0.1-0.2,0.1-0.3,0.1C136.6,68.2,136.7,68,136.8,67.9z
			 M135.6,70.5c0-0.1-0.1-0.1,0-0.2c0.1-0.1,0.2-0.1,0.2,0c0.2,0.2,0.4,0.3,0.6,0.4c0.1,0.1,0.1,0.1,0.1,0.2c0,0-0.1,0-0.1,0.1
			c-0.1,0.1-0.3,0.1-0.4,0.1C136,70.8,135.7,70.7,135.6,70.5z M137.1,71.7c-0.1,0.1-0.2,0-0.3,0c-0.3-0.1-0.6-0.4-0.7-0.6
			c0.1-0.1,0.4,0.2,0.4-0.2c0,0,0.1,0,0.1-0.1c0.3,0,0.3,0.2,0.4,0.4c0,0,0,0.1,0,0.1C137.1,71.5,137.2,71.6,137.1,71.7z
			 M136.6,70.3c0.1,0,0.3,0,0.4,0c0,0.1,0.1,0.1,0.1,0.2c0,0.1,0,0.2-0.1,0.2c-0.1,0.1-0.1,0-0.2-0.1
			C136.8,70.5,136.7,70.4,136.6,70.3z M137.1,70c0,0.1-0.1,0.1-0.1,0.2c-0.1,0-0.3,0-0.4,0l0,0c0,0-0.1-0.1-0.1-0.1
			c0,0.1,0,0.1,0,0.1c0,0,0,0.1,0,0.1c-0.4-0.1-0.7-0.3-1.1-0.5c0.2-0.1,0.3-0.1,0.5,0c0,0,0,0.1,0,0.1l0,0c0,0,0,0,0.1,0
			c0,0,0,0,0-0.1c0,0,0-0.1-0.1-0.1c0-0.1,0-0.1,0-0.2c0.1,0,0.1-0.1,0.1-0.1c0.2,0,0.3,0,0.5,0c0,0.1,0.1,0.2,0.1,0.3
			c0,0-0.1,0.1,0,0.1c0,0,0.1-0.1,0.1-0.1c0.2-0.1,0.3-0.1,0.4,0c0,0,0,0.1,0.1,0v-0.1c0-0.1,0-0.1,0-0.2c0,0,0.1,0,0.1-0.1
			c0,0,0,0-0.1,0c0,0,0,0,0,0.1c-0.2,0.1-0.4,0.1-0.5-0.1c0-0.1,0-0.1,0-0.2c0,0,0.1,0,0.1-0.1c0.2,0,0.4,0.1,0.5,0.3c0,0,0,0,0.1,0
			c0.1-0.1,0.3,0,0.4,0C137.5,69.7,137.3,69.8,137.1,70C137.2,69.9,137.1,69.9,137.1,70z M137.5,71.1c0.2,0.3,0.5,0.3,0.8,0.5
			c-0.2,0-0.4,0-0.5,0c-0.2,0-0.5-0.3-0.5-0.5C137.4,71,137.5,71.1,137.5,71.1z M138.1,73.1c-0.1,0.1-0.3,0-0.4-0.2
			c0-0.1-0.1-0.1-0.1-0.1c-0.2-0.1-0.3-0.4-0.1-0.5c0.1-0.1,0.3-0.2,0.4-0.3c0,0,0.1,0,0.1,0c0.2,0,0.6,0.4,0.6,0.6
			C138.6,72.9,138.2,72.9,138.1,73.1z M138.4,71.7c0.3-0.1,0.3-0.1,0.4,0.3C138.6,71.9,138.5,71.8,138.4,71.7z M139.3,74.2
			c-0.3,0-0.4-0.2-0.4-0.4c0-0.2-0.3-0.3-0.1-0.5c0.2-0.1,0.4,0.1,0.5,0.2c0.2,0.1,0.4,0.2,0.4,0.4c-0.1,0-0.2,0-0.3,0
			C139.4,74,139.4,74.1,139.3,74.2C139.3,74.1,139.3,74.2,139.3,74.2z M139.4,74.5c-0.1-0.1-0.1-0.1-0.1-0.2c0,0,0.1,0,0.1-0.1
			c0.1-0.1,0.3-0.1,0.4-0.1c0.1,0.2,0.4,0.3,0.5,0.5c0,0.1,0.1,0.1,0,0.2c-0.1,0.1-0.2,0.1-0.2,0C139.9,74.6,139.6,74.6,139.4,74.5z
			 M139.9,75.4C139.9,75.3,139.8,75.3,139.9,75.4c-0.1-0.1-0.1-0.2-0.1-0.2c0.2,0,0.4,0.1,0.5,0.1C140.2,75.5,140,75.4,139.9,75.4z
			 M140.4,74.1c-0.2-0.2-0.4-0.4-0.6-0.6c-0.1-0.2,0-0.2,0.1-0.2c0.3,0,0.6,0,0.8-0.2c0.1-0.1,0.1-0.1,0.2,0
			c0.1,0.2,0.2,0.4,0.3,0.6c-0.1,0-0.2,0-0.3-0.1l0,0c0,0.1,0,0.2,0,0.2c-0.1,0.1-0.3,0.1-0.4,0.1C140.4,73.9,140.4,74,140.4,74.1z
			 M142.1,75.6c-0.2,0.1-0.4,0.2-0.5,0c0,0,0-0.1,0-0.1c0.2-0.2,0.4-0.1,0.6-0.1C142.1,75.5,142.1,75.6,142.1,75.6z M142.1,75
			c-0.3,0.2-0.9,0.2-1.1,0l0,0c-0.1,0-0.2,0.2-0.2,0c-0.1-0.3-0.3-0.6-0.3-0.9c0.2-0.1,0.3-0.1,0.5,0c0-0.1,0-0.2,0-0.3
			c0.1-0.1,0.2-0.1,0.3-0.1c0.4,0.6,1,0.3,1.6,0.3c0.3,0.1,0.3-0.1,0.4-0.3l0,0c0.1,0,0.3,0,0.4,0c0,0.1,0.1,0.1,0,0.2
			c-0.1,0.3-0.8,0.6-1.1,0.5c0.1,0.1,0,0.3-0.1,0.3c-0.1,0-0.2,0.1-0.3,0C142,74.8,142.1,74.9,142.1,75z M142.6,75.6
			C142.6,75.6,142.6,75.6,142.6,75.6C142.6,75.6,142.6,75.7,142.6,75.6c0,0.4-0.1,0.5-0.6,0.3c0-0.1,0-0.2,0-0.3
			c0.1-0.1,0.3-0.1,0.4-0.1c0.1,0,0.1-0.1,0.1-0.1c0.1-0.2,0.3-0.2,0.4-0.1c0.1,0.1,0,0.2,0,0.3c0,0.1-0.1,0.1-0.1,0.2
			C142.8,75.7,142.7,75.7,142.6,75.6z M142.1,77.6c0.2-0.1,0.3,0,0.5,0c-0.1,0.3-0.3,0.2-0.5,0.1C142.1,77.7,142.1,77.6,142.1,77.6z
			 M142.6,78.6c0-0.2-0.1-0.2-0.2-0.2c-0.1,0-0.2,0-0.3-0.1l-0.1-0.2c0.1,0,0.1-0.1,0.1-0.1c0.1-0.1,0.3-0.1,0.4,0l0,0
			c0,0,0,0.1,0.1,0.1c0,0,0-0.1,0-0.1c0-0.1,0.1-0.1,0.1-0.2c0.1,0,0.1,0,0.2,0c0.1,0.3,0.2,0.6,0.3,0.9
			C143,78.8,142.8,78.7,142.6,78.6z M143.2,76.8c0.2-0.2,0.3-0.1,0.5,0c0,0.1,0.1,0.1,0,0.2c-0.1,0.2-0.3,0.2-0.5,0.1
			C143.1,77,143.1,76.9,143.2,76.8z M143.7,77.4c0-0.1,0-0.2,0-0.3l0,0c0-0.1,0.1-0.2,0-0.3c0-0.1,0-0.2,0-0.3
			c0.1-0.1,0.2-0.1,0.4-0.1c0.3,0.4,0.7,0.7,1.2,0.8c-0.2,0.1-0.2,0.5-0.5,0.3c0-0.1-0.1-0.2-0.2-0.2c-0.1,0-0.2,0-0.3-0.1l0,0
			c0,0-0.1-0.1-0.1-0.1c0,0.1,0,0.1,0,0.1c0,0.1,0,0.2,0,0.3c-0.1,0-0.2,0.1-0.2,0.1s0.1,0.1,0.2,0.1c0,0.1,0,0.2,0,0.2
			c-0.4-0.2-0.7-0.3-1.1-0.5C143.4,77.2,143.5,77.3,143.7,77.4z M144.3,77.7c0-0.1,0-0.2,0-0.3c0.2-0.2,0.4-0.1,0.5,0
			c0.1,0.2-0.1,0.5,0,0.7c0.1,0.2,0.2,0.3,0.3,0.6c-0.3-0.3-0.5-0.6-0.7-0.8C144.4,77.8,144.4,77.7,144.3,77.7z M144.2,79.1
			c0,0-0.1,0-0.2-0.1c-0.1-0.2-0.4-0.3-0.4-0.6c0-0.1-0.2-0.1-0.3-0.2c0-0.1-0.1-0.2-0.1-0.3c0.4-0.1,1.2,0.5,1.4,1
			C144.6,79.1,144.3,78.9,144.2,79.1z M145,78.9c0-0.1-0.1-0.1,0-0.2c0.1,0,0.1,0,0.2,0c0.2,0.2,0.4,0.3,0.7,0.5
			C145.5,79.3,145.1,79.4,145,78.9z M145.9,78.8c0.1-0.1,0.1-0.2,0-0.3c0,0,0-0.1,0-0.1c0.1,0,0.2,0,0.2,0.1c0.1,0,0.3-0.1,0.3,0
			c0,0.1,0,0.3-0.1,0.5C146.4,79.1,146.1,79,145.9,78.8z M146.4,79.7c-0.1-0.1-0.2-0.2-0.3-0.3c0,0,0-0.1,0-0.1c0.1,0,0.2,0,0.3,0.1
			l0,0l0,0C146.4,79.5,146.5,79.6,146.4,79.7z M146.5,79.9C146.5,79.8,146.4,79.8,146.5,79.9C146.5,79.8,146.5,79.8,146.5,79.9
			C146.5,79.8,146.5,79.8,146.5,79.9C146.5,79.8,146.5,79.9,146.5,79.9z M146.4,77c0-0.1,0-0.1,0-0.2c0.2-0.1,0.4-0.1,0.5,0
			c0,0.1,0,0.2,0,0.3c-0.1,0-0.2,0.1-0.3,0.1C146.5,77.2,146.5,77.1,146.4,77z M146.8,77.7c0-0.1-0.1-0.3-0.1-0.4
			c0.1,0,0.2,0.1,0.3,0.1c0,0.1,0,0.2,0,0.3C146.9,77.7,146.8,77.9,146.8,77.7z M147.2,78.1c0.1,0,0.4,0.2,0.3-0.1
			c0.1,0,0.1-0.1,0.1-0.1c0.2,0,0.3,0,0.5,0c0.1,0.3-0.1,0.5-0.3,0.8c-0.1,0.1-0.2,0.1-0.3,0.1c-0.2,0.1-0.4,0.3-0.6,0.2
			C146.8,78.9,147,78.3,147.2,78.1z M147.5,80.5C147.5,80.5,147.4,80.5,147.5,80.5c-0.5-0.2-0.6-0.3-0.5-0.7c-0.1-0.2,0-0.3,0.1-0.4
			c0.1,0,0.1,0,0.2-0.1c0,0,0,0,0.1-0.1c0,0,0,0-0.1,0.1c0,0,0,0,0,0c0,0.3-0.2,0.6,0.2,0.8l0,0l0,0l0,0c0.3,0.3,0.6,0.3,0.8-0.1
			c0-0.1,0.1-0.2,0.2-0.1c0.1,0,0.1,0.1,0,0.2C148.4,80.6,147.8,80.7,147.5,80.5z M150.2,82.4L148,81c0.1,0,0.2-0.1,0.2-0.1
			c0.2-0.2,0.4-0.2,0.5,0.1c0.1,0.1,0.2,0.3,0.3,0.4c0.1,0.2,0.2,0.4,0.5,0.4c0.2,0,0.2,0.2,0.3,0.2c0.1,0.2,0.3,0.1,0.4,0.2
			C150.3,82.2,150.3,82.3,150.2,82.4z M150.3,83.5v-0.5c0,0,0,0,0.1,0c0.1,0,0.2,0,0.3,0C150.6,83.2,150.6,83.4,150.3,83.5z
			 M150.9,83.8c0.1,0,0.3,0,0.4,0c0,0.1,0.1,0.2,0.1,0.3c0,0-0.1,0.1,0,0.1c0.1,0,0.1-0.1,0.1-0.1c0.1-0.1,0.2,0,0.4,0
			c0.1,0.1,0.2,0.2,0.1,0.3c0,0-0.1,0-0.1,0.1c-0.1,0.1-0.3,0.1-0.4,0l0,0l-0.7-0.5C150.7,83.9,150.8,83.8,150.9,83.8z M151.8,86
			c0.1,0.1,0.1,0.1,0.1,0.2c0,0-0.1,0-0.1,0.1L151.8,86z M151.9,86.3C151.9,86.3,152,86.3,151.9,86.3c0.3-0.1,0.4,0.2,0.5,0.3
			c0,0,0,0.1,0,0.1L151.9,86.3z M152.4,86c-0.1,0.1-0.1,0-0.2-0.1c-0.1-0.1-0.2-0.2-0.3-0.3c0.1,0,0.3,0,0.4,0
			c0,0.1,0.1,0.1,0.1,0.2C152.5,85.9,152.5,85.9,152.4,86z M152.5,85.3c0,0.1-0.1,0.1-0.1,0.2c-0.1,0-0.3,0-0.4,0l0,0
			c0,0-0.1-0.1-0.1-0.1c0,0.1,0,0.1,0,0.1c0,0,0,0.1,0,0.1l-0.5-0.9c0.2,0,0.3,0,0.5,0c0,0.1,0.1,0.2,0.1,0.3c0,0-0.1,0.1,0,0.1
			c0,0,0.1-0.1,0.1-0.1c0.2-0.1,0.3-0.1,0.4,0c0,0,0,0.1,0.1,0v-0.1c0-0.1,0-0.1,0-0.2c0,0,0.1,0,0.1-0.1c0.1-0.1,0.3,0,0.4,0
			C152.8,85.1,152.7,85.2,152.5,85.3C152.5,85.3,152.5,85.3,152.5,85.3z M152.7,86.5c0-0.1,0.1-0.1,0.2,0c0.2,0.3,0.5,0.3,0.8,0.5
			c-0.2,0-0.4,0-0.5,0C152.9,87,152.6,86.7,152.7,86.5z M152.9,88.1c-0.2-0.1-0.3-0.4-0.1-0.5c0.1-0.1,0.2-0.1,0.3-0.2
			c0-0.1,0.1-0.1,0.2-0.1c0.2,0,0.6,0.4,0.6,0.6c0,0.4-0.3,0.4-0.5,0.6c-0.1,0.1-0.3,0-0.4-0.2C153,88.1,152.9,88.1,152.9,88.1z
			 M153.9,89.3c0,0.1-0.1,0.1-0.2,0c-0.2-0.3-0.5-0.3-0.8-0.5c0.2,0,0.4,0,0.5,0C153.7,88.7,154,89.1,153.9,89.3z M153.7,87
			c0.3-0.1,0.4,0,0.4,0.4C154,87.3,153.8,87.2,153.7,87z M154.1,90.1c-0.1-0.1-0.1-0.3,0-0.3c0.1-0.1,0.2,0.1,0.2,0.1
			s0.2,0.1,0.2,0.2C154.5,90.2,154.3,90.2,154.1,90.1z M154.8,89.3c-0.2,0-0.2,0.1-0.1,0.2c0,0-0.1,0-0.1,0.1
			c-0.3,0-0.4-0.2-0.4-0.4c0-0.2-0.3-0.3-0.1-0.5c0.2-0.1,0.4,0.1,0.5,0.2c0.2,0.1,0.4,0.2,0.4,0.4C155,89.3,154.9,89.3,154.8,89.3z
			 M154.7,86.6C154.7,86.6,154.7,86.5,154.7,86.6c0.2-0.1,0.3-0.2,0.4,0c-0.1,0-0.1,0.1-0.2,0.1c-0.1,0.1-0.3,0.1-0.4,0
			c-0.1-0.1,0-0.3,0.1-0.4c0,0,0,0.1,0.1,0.1C154.7,86.4,154.7,86.4,154.7,86.6C154.7,86.5,154.6,86.6,154.7,86.6z M154.6,88.4
			c-0.1,0-0.3,0-0.4-0.1c-0.1,0-0.1-0.1-0.1-0.2c0-0.1,0-0.2,0.1-0.2c0.1,0,0.1,0,0.2,0.1C154.5,88.1,154.7,88.2,154.6,88.4z
			 M155.1,88.7c0,0-0.1,0-0.1,0c-0.1-0.1-0.3-0.1-0.4-0.3C154.9,88.3,154.9,88.6,155.1,88.7C155.1,88.6,155.1,88.7,155.1,88.7z
			 M155.7,88c0,0.1,0.1,0.2,0,0.3c-0.1,0.1-0.3,0.1-0.4,0c-0.4-0.2-0.6-0.6-0.8-1c0-0.1,0-0.1,0.1-0.2c0.1-0.1,0.2-0.2,0.4-0.1
			c0.1,0,0,0.1,0,0.2c0,0.2,0.1,0.4,0.2,0.6C155.4,88,155.6,87.9,155.7,88z M155.2,86.5C155.2,86.4,155.2,86.4,155.2,86.5
			c0.1-0.1,0.1-0.2,0.1-0.2c0.1-0.1,0.2-0.1,0.4,0C155.5,86.3,155.4,86.5,155.2,86.5z M155.9,85.8c-0.2,0.2-0.3,0.4-0.6,0.3
			c0,0,0,0.1,0,0.1c-0.1,0-0.1,0.1-0.1,0.1c-0.2,0-0.3,0-0.5-0.1c0,0,0-0.1-0.1-0.1c0-0.3,0.2-0.5,0.4-0.8c0.1-0.1,0.1-0.1,0.2,0
			c0.1,0.2,0.3,0.2,0.5,0l0,0c0.1,0,0.1-0.1,0.1-0.1c0,0,0.1,0,0.1-0.1c0.1,0,0.2-0.1,0.2,0.1C156.1,85.5,156,85.7,155.9,85.8z
			 M155.5,85.2c0.1-0.1,0.2-0.1,0.3,0.1c0,0,0,0,0,0.1c-0.1,0-0.1,0.1-0.1,0.1c-0.1,0-0.3,0-0.4,0C155.2,85.2,155.4,85.2,155.5,85.2
			z M155.9,84.7c-0.3,0.1-0.7,0.2-1,0.4c-0.1,0.1-0.3,0.1-0.4,0.3c-0.1,0.1-0.1,0-0.2-0.1c-0.1-0.3-0.2-0.7-0.7-0.7
			c0.2-0.3,0.5-0.4,0.6-0.7c0-0.1,0.1-0.2,0.1-0.4c0.1-0.5,0.2-0.6,0.8-0.6l0,0c0,0.1,0,0.1,0.1,0.1c0,0.1,0,0.1,0,0.2
			c-0.1,0.2-0.3,0.2-0.4,0.1c-0.1,0-0.1,0-0.1,0.1c0,0.1,0,0.1,0.1,0c0.2,0,0.3,0,0.4,0.1l0,0c0.1,0.3,0.4,0.1,0.5,0.2l0,0
			c0,0,0-0.1,0-0.1c0.1,0,0.1-0.1,0.1-0.1c0.2-0.1,0.4-0.1,0.5,0.1c0,0.4-0.1,0.4-0.5,0.3c0,0-0.1-0.1-0.1-0.1l0,0
			c0,0,0.1,0.1,0.1,0.1c0,0.1,0,0.2,0.1,0.1c0.2,0,0.3,0,0.4,0.1C156.3,84.5,156.1,84.6,155.9,84.7z M156.5,83.7
			c-0.1,0-0.1,0-0.2-0.1c0-0.1,0-0.1-0.1-0.2c0,0,0.1-0.1,0-0.1c0,0-0.1,0.1-0.1,0.1c-0.2,0.1-0.4,0-0.5-0.2c0-0.1,0-0.1,0.1-0.2
			c0.2-0.1,0.4-0.1,0.5,0C156.4,83.2,156.6,83.4,156.5,83.7z M156.7,79.7c-0.1,0.1-0.2,0.2-0.4,0.3c0,0,0-0.1-0.1-0.1
			c0,0,0.1-0.1,0-0.1c0,0-0.1,0.1-0.1,0.1c-0.2,0.1-0.3,0-0.4,0c0-0.1,0-0.1-0.1-0.1c0-0.1,0-0.1,0.1-0.2c0.1-0.1,0.3-0.1,0.4-0.1
			C156.3,79.6,156.5,79.5,156.7,79.7z M156.8,78.1c-0.1,0-0.3,0-0.4,0c-0.1,0-0.1-0.1-0.1-0.1c0.2-0.1,0.3-0.1,0.5-0.1
			C156.8,77.9,156.8,78,156.8,78.1z M156.3,77.7c0.1-0.2,0.2-0.2,0.5,0C156.6,77.9,156.5,77.8,156.3,77.7z M156.7,77.2
			c-0.3,0.1-0.4,0-0.4-0.2c0,0,0-0.1,0-0.1C156.5,76.9,156.5,77.1,156.7,77.2z M156.2,71.7L156.2,71.7c0-0.2,0.1-0.4,0.3-0.4
			c0.2,0,0.3,0.1,0.3,0.4c-0.1,0-0.1,0.1-0.1,0.1C156.6,71.9,156.4,71.9,156.2,71.7C156.3,71.8,156.3,71.8,156.2,71.7
			C156.3,71.7,156.3,71.7,156.2,71.7C156.2,71.8,156.2,71.8,156.2,71.7c0.1,0.2,0.1,0.2,0.1,0.3c-0.1,0.1-0.3,0.1-0.4,0.1
			C155.8,71.7,155.9,71.6,156.2,71.7z M155.8,72.8c0.1,0.2,0.6,0.4,1,0.5c-0.1,0.3-0.4,0.4-0.4,0.6c-0.2,0-0.4,0-0.5,0
			c0-0.1-0.1-0.2-0.1-0.3c0,0,0.1-0.1,0-0.1c-0.1,0-0.1,0-0.1,0.1c-0.2,0.1-0.3,0-0.4,0c0,0,0-0.1-0.1-0.1c0-0.1,0-0.1,0-0.2
			c0,0,0.1,0,0.1-0.1c0.1-0.1,0.3-0.1,0.4,0l0,0c0,0,0,0.1,0.1,0.1s0-0.1,0-0.1c-0.1-0.2-0.3,0-0.5-0.1c0-0.1-0.1-0.2-0.1-0.3
			c0.1,0,0.1-0.1,0.1-0.1C155.4,72.5,155.6,72.5,155.8,72.8z M155.3,71.5c0.1-0.1,0.3-0.1,0.4-0.1c0,0.2-0.1,0.3-0.1,0.5
			c-0.1,0-0.2,0-0.3-0.1c0,0,0-0.1-0.1,0v0.1c0,0.1,0,0.1,0,0.2c-0.1,0-0.1,0.1-0.1,0.1c-0.2,0-0.3,0.1-0.5-0.1
			c-0.1-0.4,0.3-0.4,0.5-0.5C155.2,71.6,155.3,71.5,155.3,71.5z M155.2,71.3c0,0.1,0,0.1,0,0.2c-0.1,0-0.1,0.1-0.1,0.1
			c-0.1,0-0.3,0-0.1-0.2C155,71.3,155.1,71.2,155.2,71.3C155.2,71.2,155.2,71.2,155.2,71.3z M154.2,70.7
			C154.2,70.7,154.2,70.7,154.2,70.7c-0.1-0.1-0.1-0.2-0.1-0.2c0,0,0-0.1,0-0.1c0.1-0.1,0.2-0.2,0.4-0.2c0.2,0,0.4,0.1,0.6,0.1
			C154.8,70.5,154.6,70.8,154.2,70.7z"/>
	</g>
	<path d="M140.6,42.7c-0.2-0.3-0.5-0.4-0.9-0.5c-0.5-0.1-1.1,0.3-1.2,0.8c-0.1,0.2,0,0.4,0.1,0.5c0.1,0.1,0.1,0.1,0.2,0.1
		c0.1,0,0.1,0,0.2-0.1c0.1,0,0.1-0.1,0.2-0.1l0.1,0c0.1-0.1,0.3,0,0.5,0c0.3,0.1,0.6,0.1,0.9,0l0.1,0l0-0.1
		C140.8,43.1,140.7,42.9,140.6,42.7z"/>
	<path d="M138.1,41.7c0.2-0.4,0.5-0.8,0.9-1.1c0.1-0.1,0.2-0.1,0.3-0.1c0.4-0.1,0.8-0.1,1.2,0s0.7,0.4,1,0.6c0.1,0,0-0.1,0-0.2
		c-0.3-0.3-0.5-0.5-0.9-0.7s-0.7-0.2-1.1-0.2c-0.4,0.1-0.8,0.5-1.1,0.8c-0.1,0.2-0.3,0.3-0.4,0.5c0,0.1-0.1,0.1,0,0.2
		C137.9,41.8,138,41.8,138.1,41.7z"/>
	<path fill="#CFD74E" d="M144.9,79.2c-1.1-0.5-6.1-3.1-10.1-9.4c-2.5-3.9-4.5-9.1-5.1-16.1c-0.2-2.9-0.2-6.2,0.2-9.7
		c0,0,0.9-4.2,0.5-8.9c-0.1-0.6-0.1-1.3-0.2-2c-0.1-0.9-0.3-1.7-0.6-2.6c-0.1-0.3-0.2-0.6-0.3-0.9c-0.4-1-0.9-2-1.6-2.9
		c0-0.2-0.1-0.4-0.1-0.6c0.1-1.8,1.2-3.2,2.6-4.1c0.9-0.6,3.7-1.6,2.8-3.2c-0.8-1.5-2.8,0.1-3.8,0.3c-4.8,0.7-1.4-5.8,0.1-7.1
		c1.6-1.5,3.1-5.4,0.8-7.2c-2.3,0.1-4.7,0.9-6.5,3.3c0,0-1.8,1.3-3.5,1.5l1,1.9c0,0,0.1,0.6-1.4,0.8c0,0,0.1,0.9,0.2,1.9l-1.3,0
		c0,0,0.3,0.6-0.9,1.5c0,0-0.9,1.4,1.1,2.4c1.8,0.9,3.8,1.1,2.9,4.2c0,0-0.1,0.8-0.4,1.6c-3.7,0.8-6.4,6.1-8.4,7
		c0,0-6.6,4.2-11.1,5.3c-0.1-0.1-0.2-0.1-0.2,0l-0.2,0.2c-0.1,0.1-0.1,0.2,0,0.3l0.3,0.3c-0.1,1.8,0.1,6.4,3.5,8.1
		c0,0,0.4,0.4,0.1,2.4c0,0.1,0,0.2,0,0.4c-0.1,0.9-0.1,2.6,0.1,4.9c-0.9,0.4-1.6,0.8-1.6,0.8s-0.3,0.2-0.7,0.4
		c-0.4,0.2-0.9,0.5-1.4,0.9c-1.8,1.2-4.6,3.1-7.5,5.6c-1.5,1.2-2.9,2.6-4.3,3.9c-5.6,5.7-10,9.2-12.8,11.2c-0.9,0.7-1.7,1.2-2.3,1.6
		c-0.8,0.3-2.2,0.9-2.3,0.9c-0.7-0.1-1.9-0.7-2.4-1.2s-0.9-1-1.4-1.5c-0.2-0.2-0.5-0.4-0.7-0.6c-0.7-0.5-1.4-0.8-2.2-1.1
		c-0.7-0.2-1,0.1-1.3,0.6c-0.3,0.4,0.1,1,0.5,1.4c0.4,0.4,0.8-0.1,0.3,0.9c-0.3,0.5-0.8,0.8-1.5,0.8s-1.4-0.1-2,0
		c-0.6,0.2-1.1,0.8-0.7,1.3c0.1,0.1,0.3,0.2,0.4,0.4c0.3,0.6-0.9,0.9-0.8,1.5c0.1,0.3,0.6,0.5,0.7,0.9c0.1,0.5-0.8,0.9-0.4,1.3
		c0.1,0.1,0.3,0.2,0.4,0.4c0,0.1,0,0.2-0.1,0.3c-0.1,0.3,0,0.8,0.4,1c0.1,0.1,0.2,0.1,0.3,0.2c0.3,0.1,0.6,0.1,0.9,0
		c0.1-0.1,0.3-0.2,0.4-0.2c0.2,0,0.4,0,0.5,0c1.4,0.2,2.7-0.2,3.9-0.6c1.1-0.3,4.6-1.7,6.3-2.1c1.4-0.1,6.9-0.8,14.1-3.5
		c9-3.4,20.7-10,30.7-22.8c-3.1,4.5-6.5,8.2-10.2,11.3c0.9,1.9,1.9,3.7,3.1,5.4c0,0-0.8,8,2.6,12.7c5.2-2.6,10.3-4.5,15-5.4
		c-6.5,1.6-13.6,4.7-20.6,9.3c-8.2,5.4-16.2,12.6-22.9,21.4c-6.4,8.5-11.5,18.5-14,29.6l1.5,1.7c0,0,14.6,34.2,41.3,54.3v-0.1
		l1.7,1.8c1.3,3.7,2,7.1,5.2,12.3c0.4,0.6,1.3,2.1,1.2,2.7c-0.1,0.4-0.4,0.6-0.7,0.9c-0.7,0.6-1.3,1.1-2,1.7c-0.3,0.3-0.7,0.6-0.7,1
		c0,0,0,0,0,0.1h8.3c0.3-1.1-0.1-4.3-0.6-5.2c-0.5-0.9-0.7-2-0.9-2.9c-0.2-1.1-0.4-2.3,0-3.4c0.3-0.9,0.9-1.6,1.3-2.5
		c0.5-0.9,0.7-1.9,0.6-2.9s-0.7-2-1.5-2.5c-0.8-0.5-1.9-0.5-2.8-0.8c-1.4-0.5-6.3-4.5-8.4-11.8c0,0-3-12.1-4.9-19.8
		c-1.9-7.6,0.5-20.7-21.4-25.2c-0.1,0-0.2-0.1-0.4-0.1c0,0,3.3-0.4,8.5-1.5c6.3-1.3,15.3-3.7,24.3-7.5l0,0c0,0,0-0.1-0.1-0.1
		c0,0,0,0,0,0h0c0,0,0.1,0,0.1,0c0.1-1.1,7.6-3.9,7-4.9c-0.4-0.5-1.3-0.9-1.9-1c-0.7-0.1-1.4-0.1-2-0.4c-0.6-0.3-1.1-1-0.8-1.6
		c1.8-0.3,3.1,0.9,4.8,0.3c0.5-0.2,1.3,0,1.8-0.2c1.4-0.4,3.2,0.4,4.4-0.5c0,0,0.1-0.1,0.2-0.1c1.3-1.5,13.8-16.5,18.2-27.1
		C154.3,86.1,150.7,81.2,144.9,79.2z"/>
	<path d="M125.9,10.7c-0.1,0-0.2,0-0.2,0h-0.1c-0.2,0-0.4-0.1-0.5-0.2c-0.1-0.1-0.2-0.3-0.2-0.5V9.6l-0.3,0.2
		c-0.2,0.1-0.3,0.4-0.4,0.7c0,0.3,0.1,0.6,0.3,0.8c0.2,0.2,0.5,0.3,0.8,0.3c0.2,0,0.5-0.1,0.7-0.2c0.2-0.1,0.3-0.3,0.2-0.4
		C126.2,10.8,126.1,10.7,125.9,10.7z"/>
	<path d="M125.6,8.1c0.5-0.1,0.9,0,1.4,0.2c0.1,0,0.2,0.1,0.3,0.2c0.3,0.2,0.5,0.6,0.6,1c0.1,0.4,0.1,0.8,0,1.1
		c0.1,0,0.1-0.1,0.1-0.1c0.1-0.4,0.1-0.7,0.1-1.1c0-0.4-0.2-0.7-0.4-1c-0.3-0.3-0.8-0.4-1.3-0.5c-0.2,0-0.4-0.1-0.6,0
		c-0.1,0-0.2,0-0.2,0.1C125.5,8,125.5,8.1,125.6,8.1z"/>
</g>
<g id="AREOLA_51">
</g>
<g id="INSPECTOR_GRAB-IT">
</g>
<g id="WHAT_x2019_S_CUPPED_x2C__DOC_x3F_">
</g>
<g id="ULTRABOUND_TEST">
</g>
<g id="HANDY_SCAN">
</g>
<g id="CHEST_XXXAM">
</g>
<g id="PAIR-SCOPE">
</g>
<g id="CLOSER_EXAMINATION">
</g>
<g id="PRIVATE_SCREENING">
</g>
<g id="WHAM_BAM_MAMMOGRAM">
</g>
<g id="Layer_34">
</g>
<g id="MAN-O-GRAM">
</g>
<g id="INSPECT-A-PEC">
</g>
<g id="STUDY_BUDDY">
</g>
<g id="Layer_33">
</g>
</svg>
