<?xml version="1.0" encoding="utf-8"?>
<!-- Generator: Adobe Illustrator 18.1.1, SVG Export Plug-In . SVG Version: 6.00 Build 0)  -->
<svg version="1.1" id="Layer_1" xmlns="http://www.w3.org/2000/svg" xmlns:xlink="http://www.w3.org/1999/xlink" x="0px" y="0px"
	 viewBox="38 0 140.3 216" enable-background="new 38 0 140.3 216" xml:space="preserve">

<g id="STUDY_BUDDY">
	<path fill="none" d="M100.7,53.4c-5.1-1.8-5.3-8.7-5.3-8.7c5.5-2.2,13-8.3,13-8.3c0.7-0.4,1.5-1.3,2.3-2.4
		c-0.5-3.8-1.6-8.8-6.9-8.5c-1.3,0.1-2.5,0.4-3.8,0.6c-0.6,0.1-2.2,0.1-2.4-1c0-0.1,0-0.3,0-0.5l0,0l0,0c0-0.1,0-0.3-0.1-0.5
		c0-0.1-0.1-0.2-0.1-0.3c0-0.1,0-0.1,0-0.2l0,0c0-0.1,0-0.1-0.1-0.2c-0.2-0.3-0.4-0.3-0.7-0.4c-0.5-0.1-0.1-0.9,0.2-1
		c0,0-0.1,0-0.1-0.1c-0.2-0.1-0.3-0.3-0.4-0.4c-0.1-0.1-0.2-0.3-0.1-0.4c0.1-0.1,0.3-0.1,0.4-0.2c0.3-0.2,0.4-0.4,0.4-0.7
		c0,0,0,0,0-0.1c-0.7,0-1.4-0.1-1.4-0.1c0,0,0-0.1,0-0.1c0,0-0.7,0.4-1.4,0.5c0,0.2,0.1,0.3,0.3,0.5c0.1,0.1,0.3,0.1,0.4,0.2
		c0.1,0.1,0,0.3-0.1,0.4c-0.1,0.2-0.3,0.4-0.5,0.5c0.3,0.1,0.7,0.9,0.2,1C94,23,93.8,23,93.6,23.3c0,0.1-0.1,0.1-0.1,0.2
		c0,0.3,0,0.5-0.1,0.7c0,0.1,0,0.2,0.1,0.3c0.1,0.2,0.1,0.5,0.1,0.7c0,0.2-0.1,0.5-0.4,0.6c-0.1,0-0.3,0.1-0.3,0
		c-0.6,0-1.2-0.1-1.7-0.1c-0.6-0.1-1.1-0.1-1.7-0.1c-0.2,0.5-0.4,1-0.6,1.3c-0.4,0.7-0.5,1-0.2,1.8c0.1,0.4,0.3,0.9,0.5,1.3
		c0.5,1.2,1.1,2.6,0.4,4.5c-0.3,0.8-0.7,1.4-1.1,1.8c-0.5,0.6-0.5,0.6-0.1,1.4c0.2,0.4,0.7,0.8,1.1,1.3c0.9,0.8,2.1,1.9,2.3,3.7
		c0.3,2.2-0.8,3.2-1.8,3.7c1.2,1,2.4,1.8,3.6,2.4c0,0-1.3,4.9-4.6,7.1c0,0.1,0,0.2,0,0.3c1.1,1.1,4.2,3.1,7.4,4.5
		c1.9-1.4,3.3-2.8,4-3.6C100.8,55.7,100.8,54.5,100.7,53.4z"/>
	<path fill="none" d="M97.1,14.9c0.1-0.3,0.1-0.6,0.2-0.8L96,12.8c-0.1-0.1-0.3-0.3-0.4-0.4c-0.1-0.1-0.3-0.3-0.4-0.4
		c-0.3,1.6-0.8,3.2-1.5,4.4c0.3,0.6,0.7,1.3,1.8,3.3C96.9,16.5,96.6,16.6,97.1,14.9z"/>
	<path fill="none" d="M90.1,62.9c-1.2-1-2.3-1.8-3-2.3c-0.2,0.9-0.6,2-1,3.3C87.3,63.5,88.7,63.2,90.1,62.9z"/>
	<path fill="none" d="M111.7,82.1c0-0.1,0-0.1,0-0.1L111.7,82.1C111.6,82.1,111.6,82.1,111.7,82.1z"/>
	<path fill="#2FC4F1" d="M93.4,23.9C93.4,23.8,93.5,23.8,93.4,23.9c0.1,0,0,0.1,0,0.2v0c0-0.2,0-0.4,0.1-0.7c0,0.1,0,0.1,0,0.3
		C93.5,23.7,93.4,23.8,93.4,23.9z"/>
	<path fill="#060808" d="M138.8,36.2c-0.1-0.4-0.4-1.1-0.9-1.8c0,0,0-0.1,0-0.1c0.1-1.3-0.4-2.8-1.3-3.8c-0.4-0.5-0.9-0.7-1.2-1
		c0,0-0.1,0-0.1,0c0-0.3,0-0.7,0-1.1c0-1.1,0-3.5-1.6-4.8c0-1.7-0.7-3.5-2.1-4.7c-0.7-0.6-1.4-0.8-1.8-1c-0.3-3.4-2.2-5.5-5.5-6
		c0-0.1,0-0.1,0-0.2c0.1-1,0.1-2.4-0.6-3.8c-1.1-2.1-3-3.8-5.5-4.8c-1.8-0.7-3.4-1.1-4.7-1.2c-0.1-0.1-0.3-0.3-0.5-0.4
		c-1.3-1-2.8-1.5-4.5-1.5c-2.7,0-5.3,1.4-7.3,2.5c-0.7,0.4-1.3,0.7-1.8,1c-0.2,0.1-0.8,0.2-1.2,0.3c-1.4,0.3-2.9,0.6-3.9,1.7
		c0.1,0.3,0.3,0.6,0.4,0.9c0.6,1.7,0.7,3.7,0.4,5.6c0.1,0.1,0.3,0.3,0.4,0.4c0.1,0.1,0.3,0.3,0.4,0.4l1.2,1.2c0.1-0.6,0.1-1,0.1-1.7
		c0.1-0.9,0.4-1.8,1-2.5l0,0c1.4-0.6,2.9,0.8,4.3,1.7c1.4,0.8,1.3,1.5,1.7,3.1c0.3,1.4,1.8,4.4,4.3,4.3c-0.3-2.1,1.7-2.1,1.7-2
		c0,0.1,0.4-0.3,0.9,2.8c0.4,2.2,0.8,3.8,1.4,5c0.3,1.4,1.1,3,2.2,3.7c0.8,0.6,2.1,0.8,2.9,0.6c0.6-0.1,1.1-0.6,1.7-0.7
		c0.8-0.1,1.7,0.3,2.3,0.8c0,0,0.1,0.1,0.1,0.1c0.7,0.8,0.6,1.5,0.8,2.5c0,0,0,0,0,0.1c0.4,1.6,1.5,2.8,3,3.1c1.1,0.3,1.8,0,2.8-0.5
		c0.4-0.2,0.6-0.4,0.8-0.7c0.1-0.1,0.1-0.1,0.2-0.3c1.9,3.9,2.4,8.4,2.4,11.2c2.6-0.3,4.9-1.4,6.1-3.1
		C138.8,40.5,139.5,38.7,138.8,36.2z"/>
	<g>
		<path fill="#F0572F" d="M108.4,36.3c0,0-7.5,6.1-13,8.3c0,0,0.1,6.9,5.3,8.7c0-0.4-0.1-0.7-0.1-1.1c-0.1-0.8-0.4-1.7-0.2-2.5
			c0.1-0.5,0.4-0.8,0.7-1.2c0.6-1,1.1-1.9,1.7-2.9c0.4-0.6,1-1.4,1.2-2.1l0,0c0,0,0.3-0.5,0.6-0.2c1,1.1-1.3,3.6-1.5,4.7
			c0.7-0.5,1.2-1.2,1.8-1.8c0.6-0.6,1.5-0.7,2.2-1.2c0.3-0.3,1.4-1.5,1.7-0.7c0.1,0.5-0.8,1.3-1.1,1.6c0.4-0.1,0.8-0.5,1.2-0.4
			c0.6,0.6-1.1,1.7-1.9,2.3c-0.4,0.3-0.7,0.6-0.9,1c-0.3,0.5-0.9,1.1-1.1,1.6c0.8-0.4,1.1-1.1,1.8-1.6c0.3-0.3,0.8-0.4,1.1-0.7
			c0.2-0.1,0.5-0.5,0.7-0.5c0.8,0-0.7,1.9-0.9,2.1c-0.5,0.6-1.2,0.9-1.6,1.6c-0.4,0.7-0.3,1.5-0.3,2.2c0,1.6,0,3-0.9,4.3
			c-0.3,0.4-0.6,0.8-0.9,1.1c-0.1,0.1-0.1,0.2-0.2,0.3c-0.1,0.1-0.1,0.2-0.2,0.3l0,0c-0.2,0.3-0.4,0.6-0.7,1
			c3.2-0.4,6.5-0.7,9.8-0.8c0,0,0.1,0.2,0.4,0.5c-0.5,2.2-1.1,3.7-1.8,3.5c0,0-4.7-1.7-8.6-1.7c-0.3,0-0.6,0-0.9,0
			c-1.7,2.5-3.6,5.4-4.4,6.7c0.4,0.4,0.7,0.7,1,0.9c1.9,2,10.1,6,13.4,6.6c0,0,3.6,0.8,4,1.1c0.4,0.3,1.8,1.1,2.4,0.2
			c0.5-0.7,3.7-3.9,5.3-8c1.7,1.7,3.7,3.7,6,6.1c4.1,4.4,9,9.9,14.6,16.8c-0.3-2.4-1.8-11.1-8.2-14.9c-1.9-3.3-5.5-12.2-4.2-30.4
			c0,0,0.1-1,0-2.5c-0.1-2.7-0.5-7.3-2.4-11.2c0,0.1-0.1,0.1-0.2,0.3c-0.2,0.3-0.5,0.5-0.8,0.7c-1,0.6-1.6,0.7-2.8,0.5
			c-1.5-0.3-2.6-1.6-3-3.1c0,0,0,0,0-0.1c-0.2-1-0.1-1.7-0.8-2.5c0,0-0.1-0.1-0.1-0.1c-0.6-0.6-1.5-1-2.3-0.8
			c-0.6,0.1-1.1,0.6-1.7,0.7c-0.9,0.2-2.1,0-2.9-0.6c-1.1-0.8-2-2.4-2.2-3.7c-0.6-1.1-1-2.7-1.4-5c-0.5-3-0.9-2.6-0.9-2.8
			c0-0.1-1.9-0.1-1.7,2c-2.5,0.1-4-2.9-4.3-4.3c-0.4-1.6-0.3-2.3-1.7-3.1c-1.4-0.8-2.9-2.2-4.3-1.7l0,0c-0.6,0.7-0.9,1.6-1,2.5
			c-0.1,0.7-0.1,1.2-0.1,1.7c0,0.3-0.1,0.5-0.2,0.8c-0.4,1.7-0.1,1.6-1.6,4.7l0,0c0,0,0,0.1,0,0.1c0,0,0.7,0.1,1.4,0.1
			c0,0,0,0,0,0.1c0,0.3-0.1,0.6-0.4,0.7c-0.1,0.1-0.3,0.1-0.4,0.2c-0.1,0.1,0,0.3,0.1,0.4c0.1,0.2,0.2,0.3,0.4,0.4
			c0,0,0.1,0,0.1,0.1c-0.3,0.1-0.7,0.9-0.2,1c0.3,0.1,0.6,0.1,0.7,0.4c0,0.1,0.1,0.1,0.1,0.2l0,0c0,0.1,0,0.1,0,0.2
			c0,0,0,0.1,0.1,0.3c0,0.2,0,0.4,0.1,0.5l0,0l0,0c0,0.3,0,0.5,0,0.5c0.2,1.1,1.8,1.1,2.4,1c1.2-0.1,2.5-0.5,3.8-0.6
			c5.3-0.3,6.4,4.7,6.9,8.5C109.9,35,109.1,35.9,108.4,36.3z"/>
		<path fill="#F0572F" d="M140.1,204.1c0.5-0.1,0.6-0.9,0.2-1.3c-0.3-0.4-0.9-0.5-1.4-0.6c0.2-1.2-0.2-2.4-0.8-3.4
			c-0.6-1-1.4-2-1.9-3c-1.2-2.4-1-5.3-1.2-8c0-0.8-0.1-1.7-0.4-2.5s-0.9-1.5-1.7-1.9c-0.8-0.4-1.7-0.3-2.6-0.1
			c-0.8,0.2-1.7,0.6-2.6,0.4c-2.7-0.4-12.8-4.6-16.6-23.3c-0.8-4.2-2.1-7.7-3.6-10.6c-5.1-10.2-12.6-13.6-12.6-13.6
			s9.8-4.2,20.7-10.7c0,0,0,0,0,0.1c5.8-3,11.1-6.5,14.9-10.3c3.5-2.9,6.6-5.8,9-8.9c-1.4-0.6-3-1.2-4.7-1.7
			c-16.9-5.3-22.8-21.2-23.3-22.7c0,0,0,0-0.1,0l0-0.1c-7.6,4.7-16.9,13.7-21.3,18.1c-0.1,0.1-0.3,0.2-0.4,0.3
			c-0.7,0.7-1.4,1.5-2.1,2.3l0,0l0,0c-4.8,5.4-9.8,11.8-14,19.2c-3.2-1.3-6.1-2.7-8.6-4c-3,3.5-6,7.2-8.7,11.3c0,0,0,2.1,0.8,3.9
			c0,0,2.5,6.9,9.4,18.9c3.5-1.3,7.1-3.2,9.7-5.8c0.4-0.4,0.9-0.8,1.3-1.2c2.4,3.2,5.5,7.2,9.4,11.6c-5.9,1.5-11.2,2.6-15.5,3.3
			c5.7,8.9,13.5,19.8,23.9,32c0,0,2.4,2,5.7,6.9c2.2,3.3,4.4,6.6,6.6,9.9c0.6,0.9,1.2,1.8,1.5,2.8c0.3,1,0.1,2.2-0.6,3
			c0.2,0.5,0.7,0.8,1.2,0.8s1-0.4,1.2-0.8c0.3,0.4,0.5,0.8,0.7,1.2c0.1,0.1,0.1,0.2,0.2,0.3c0.2,0.1,0.6,0.1,0.7-0.1
			c0.2-0.2,0.3-0.4,0.4-0.7c0.1,0.1,0.3,0.2,0.4,0.3c0.6-0.1,0.9-0.9,0.5-1.4c0.3,0.4,1.1,0.4,1.4,0.1c0.4-0.4,0.3-1.1-0.2-1.4
			c0.5,0,0.7-0.8,0.4-1.2c-0.3-0.4-0.8-0.6-1.3-0.8c0.4-1.1,0.2-2.4-0.3-3.5c-0.4-1.1-1.1-2.2-1.4-3.3c-0.8-2.6-0.2-5.4,0.1-8.1
			c0.1-0.8,0.1-1.7,0-2.5c-0.2-0.8-0.6-1.6-1.3-2.1c-0.7-0.5-1.7-0.6-2.5-0.5c-0.9,0-1.8,0.3-2.6,0c-2.6-0.8-11.9-6.6-12.7-25.6
			c0-0.6-0.1-1.2-0.1-1.7c6.4,6.9,14.4,14.7,24.2,23.2c0,0,2.7,1.7,6.7,6c2.7,2.9,5.4,5.8,8,8.7c0.7,0.8,1.5,1.6,1.9,2.6
			c0.4,1,0.5,2.2-0.1,3c0.3,0.4,0.8,0.7,1.4,0.6s0.9-0.5,1-1c0.3,0.4,0.6,0.7,0.9,1.1c0.1,0.1,0.1,0.2,0.3,0.2
			c0.2,0.1,0.6,0,0.7-0.2c0.1-0.2,0.2-0.5,0.2-0.7c0.1,0.1,0.3,0.2,0.4,0.3c0.6-0.2,0.7-1,0.3-1.4c0.4,0.4,1.1,0.3,1.4-0.1
			C140.8,205,140.6,204.3,140.1,204.1z"/>
		<path fill="#F0572F" d="M79.4,49.2c-0.3,0.4-0.8,0.6-0.5,1.1c0.2,0.4,0.7,0.5,1,0.8c-1.2,0.7,0.7,1.4,1.1,1.8
			c0.9,0.7,2.4,1.9,2.3,3c-0.1,0.7,0,1.3,0,1.3c0.5,1.2,1.4,1.8,2.5,2.5c0.4,0.2,0.5,0.3,0.5,0.3c0.1,0.1,0.4,0.3,0.7,0.5
			c0.7,0.6,1.8,1.4,3,2.3c0.3,0.2,0.6,0.5,1,0.7c2.1-0.8,4-2,5.6-3.2c-3.2-1.5-6.4-3.5-7.4-4.5c0-0.1,0-0.2,0-0.3c0-0.5,0-0.9,0-1.4
			c0-1.1,0.3-2.2,0.3-3.3c0-0.7-0.1-1.4,0-2.1c0.1-0.4,0.3-1-0.2-1.1c-1-0.3-1,1.7-1,2.3c-0.4-1-1.2-2.1-2-2.8
			c-1-0.8-2.3-1.2-3.6-1.5c-0.4-0.1-1.9-0.9-1.5,0.2c0.1,0.4,0.8,0.7,1.1,0.9c0.5,0.3,0.9,0.6,1.4,0.8c1,0.4,2.6,1.3,2.8,2.5
			c-1.6-1.5-3.7-1.7-5.7-2.1c-0.5-0.1-1.2-0.4-1.7-0.1C78.4,48.4,78.8,49,79.4,49.2z"/>
	</g>
	<g>
		<path fill="#2FC4F1" d="M76.4,146.2c-2.6,2.6-6.2,4.4-9.7,5.8c-5.5,2.1-10.7,2.7-11.3,2.6c-0.7-0.2-1.2-0.8-1.9-1.2
			c-0.6-0.4-1.3-0.8-2.1-0.8s-1.4,0.4-1.9,0.9c-0.5,0.5-0.9,1.1-1.2,1.8c-1.1,2.1-1.9,4.4-3.7,5.9c-0.8,0.7-1.7,1.1-2.5,1.7
			c-0.8,0.6-1.6,1.4-1.8,2.4c-0.4-0.1-0.9-0.2-1.3,0c-0.4,0.2-0.6,0.8-0.3,1.1c-0.4,0-0.9,0.4-0.8,0.9c0.1,0.4,0.6,0.8,1,0.6
			c-0.5,0.1-0.6,0.9-0.3,1.2c0.1,0,0.3,0,0.4-0.1c-0.1,0.2-0.1,0.4-0.1,0.7c0,0.2,0.2,0.4,0.4,0.4c0.1,0,0.2,0,0.3-0.1
			c0.4-0.2,0.7-0.4,1.1-0.5c-0.1,0.4,0.1,0.9,0.4,1.2c0.4,0.3,0.9,0.3,1.2,0c-0.2-0.9,0.3-1.8,1-2.4c0.7-0.6,1.5-1,2.4-1.4
			c3.1-1.4,6.1-1.9,9.2-3.3c4.6-2,7.1-2.1,7.1-2.1s3.6-0.4,9.3-1.4c4.3-0.8,9.6-1.8,15.5-3.3c-3.9-4.4-6.9-8.4-9.4-11.6
			C77.2,145.4,76.8,145.8,76.4,146.2z"/>
		<path fill="#2FC4F1" d="M115.7,125.6C104.8,132,95,136.3,95,136.3s7.5,3.4,12.6,13.6c5.6-2.3,11-5.1,15.6-8.3
			C123.2,141.6,121.1,134.5,115.7,125.6C115.7,125.6,115.7,125.6,115.7,125.6z"/>
		<path fill="#2FC4F1" d="M178.3,134.8c0-0.1-0.1-0.2-0.2-0.3c-0.3-0.3-0.6-0.7-1-1c0.5,0,1-0.4,1.1-0.9c0.1-0.5,0-1-0.4-1.4
			c-0.9,0.5-2.1,0.3-3-0.2s-1.6-1.3-2.3-2.1c-2.6-2.9-5.1-5.8-7.7-8.7c-3.8-4.3-5.1-7.1-5.1-7.1c-5.6-8-10.8-14.8-15.6-20.8
			c-5.5-6.9-10.5-12.4-14.6-16.8c-2.2-2.4-4.2-4.4-6-6.1c-1.6,4.2-4.8,7.3-5.3,8c-0.7,0.9-2,0.1-2.4-0.2c-0.4-0.3-4-1.1-4-1.1
			c-3.3-0.6-11.5-4.6-13.4-6.6c-0.2-0.2-0.6-0.5-1-0.9c0.8-1.2,2.6-4.2,4.4-6.7c0.3,0,0.6,0.1,0.9,0c3.9-0.1,8.6,1.7,8.6,1.7
			c0.7,0.2,1.3-1.3,1.8-3.5c-0.3-0.3-0.4-0.5-0.4-0.5c-3.4,0.1-6.6,0.4-9.8,0.8c0.3-0.3,0.5-0.7,0.7-1l0,0c0.1-0.1,0.1-0.2,0.2-0.3
			c0.1-0.1,0.1-0.2,0.2-0.3c0.3-0.4,0.6-0.7,0.9-1.1c0.9-1.3,1-2.8,0.9-4.3c0-0.7-0.1-1.6,0.3-2.2c0.4-0.7,1.1-1.1,1.6-1.6
			c0.2-0.3,1.8-2.1,0.9-2.1c-0.2,0-0.5,0.4-0.7,0.5c-0.4,0.3-0.8,0.4-1.1,0.7c-0.6,0.6-1,1.2-1.8,1.6c0.1-0.6,0.7-1.1,1.1-1.6
			c0.3-0.4,0.5-0.7,0.9-1c0.8-0.6,2.5-1.7,1.9-2.3c-0.4-0.1-0.9,0.3-1.2,0.4c0.3-0.3,1.2-1.1,1.1-1.6c-0.3-0.8-1.4,0.5-1.7,0.7
			c-0.7,0.6-1.6,0.7-2.2,1.2c-0.6,0.6-1.1,1.2-1.8,1.8c0.3-1.1,2.5-3.6,1.5-4.7c-0.3-0.2-0.6,0.2-0.6,0.2l0,0
			c-0.2,0.7-0.8,1.5-1.2,2.1c-0.6,1-1.1,1.9-1.7,2.9c-0.3,0.4-0.6,0.7-0.7,1.2c-0.2,0.8,0.1,1.7,0.2,2.5c0,0.4,0.1,0.7,0.1,1.1
			c0.1,1.2,0.1,2.4-0.1,3.5c-0.7,0.8-2.1,2.2-4,3.6c-1.6,1.2-3.5,2.4-5.6,3.2c-0.3-0.3-0.6-0.5-1-0.7c-1.4,0.3-2.7,0.6-4,1
			c0.4-1.2,0.8-2.4,1-3.3c-0.3-0.2-0.5-0.4-0.7-0.5c0,0-0.1-0.1-0.5-0.3c-1.1-0.7-2-1.3-2.5-2.5c0,0-0.1-0.7,0-1.3
			c0.1-1.1-1.4-2.3-2.3-3c-0.5-0.4-2.3-1.1-1.1-1.8c-0.3-0.3-0.8-0.4-1-0.8c-0.3-0.6,0.2-0.7,0.5-1.1c-0.6-0.2-1-0.8-0.4-1.2
			c0.4-0.3,1.2,0,1.7,0.1c2.1,0.4,4.1,0.5,5.7,2.1c-0.2-1.2-1.8-2.1-2.8-2.5c-0.5-0.2-0.9-0.4-1.4-0.8c-0.3-0.2-1-0.5-1.1-0.9
			c-0.4-1.1,1.2-0.3,1.5-0.2c1.2,0.3,2.5,0.7,3.6,1.5c0.8,0.6,1.6,1.8,2,2.8c0-0.5,0-2.5,1-2.3c0.6,0.1,0.3,0.7,0.2,1.1
			c-0.1,0.7,0,1.4,0,2.1c0,1.1-0.2,2.2-0.3,3.3c0,0.4,0,0.9,0,1.4c3.3-2.2,4.6-7.1,4.6-7.1c-1.2-0.6-2.4-1.4-3.6-2.4
			c-4.1-3.3-7.7-7.9-7.7-7.9c-0.4-0.3-0.7-0.6-1.1-1.1c0-4.4-0.4-12.1,6-11.8c0.7,0,1.4,0,2.2,0.1c0.6,0,1.1,0.1,1.7,0.1
			c0.6,0.1,1.2,0.1,1.7,0.1c0.1,0,0.3,0,0.3,0c0.2-0.1,0.3-0.3,0.4-0.6c0-0.2,0-0.5-0.1-0.7c0-0.1-0.1-0.2-0.1-0.3v0
			c0-0.1,0-0.1,0-0.2c0,0,0,0,0,0c0-0.1,0-0.2,0-0.3c0-0.1,0-0.1,0-0.3c0-0.1,0-0.1,0.1-0.2c0.2-0.3,0.4-0.3,0.7-0.4
			c0.5-0.1,0.1-0.9-0.2-1c0.3-0.1,0.4-0.3,0.5-0.5c0.1-0.1,0.2-0.3,0.1-0.4c-0.1-0.1-0.3-0.1-0.4-0.2c-0.2-0.1-0.3-0.3-0.3-0.5
			c0.7-0.1,1.4-0.5,1.4-0.5l0,0c-1-1.9-1.5-2.6-1.8-3.3c-0.2-0.4-0.3-0.8-0.4-1.5c-0.2-1.1-0.3-1.5-0.5-2.6c-0.3-1.5-1.1-3-2.8-3.5
			c-0.3-0.1-0.7-0.1-1.1-0.2c0.3,0.4,0.7,0.8,1,1.2c-1.5-0.6-2.7-0.7-4,0.1c-1.4,0.8-2.3,2.3-2.6,3.9c-0.2,1.4-0.1,3.2-1.2,3.8
			c0.1-0.8-0.1-1.9-0.9-2.4c-1-0.6-2,0.3-2.3,0.9c-0.4,1,0.8,2.6,0.8,3.7c0,1.2-0.9,2.4-2,2.9c-0.8,0.4-1.7,0.5-2.6,0.6
			c0,1.8-0.3,3.5-1.1,4.8c-0.7,1.2-1.6,2.3-2.9,3c-0.8-0.5-1.7-0.9-2.8-1.1c-2.1-0.4-3.9,0.2-5.3,1.6c-1,1-1.8,2.4-2.2,4.2
			c-2.4,5.4-2.4,11.5-2.4,11.5c0,9-1.2,16.1-2.7,21.3c-1.3,4.7-2.9,8-4,10.1c-24,19.5-0.4,35.2-0.4,35.2c2.4,1.4,5.2,1.9,8.3,1.6
			c5-0.4,10.8-2.8,16.7-6.1c-4.6,3.8-11,6-13.9,6.8c0.9,0.6,1.9,1.1,2.9,1.7c2.5,1.4,5.4,2.7,8.6,4c4.3-7.4,9.2-13.8,14-19.2l0,0
			c0,0,0,0,0,0c0.7-0.8,1.4-1.5,2.1-2.3c0.1-0.1,0.3-0.2,0.4-0.3c4.4-4.4,13.7-13.4,21.3-18.1c0,0,0,0,0,0.1
			c0.5,1.5,6.4,17.4,23.3,22.7c1.7,0.5,3.3,1.1,4.7,1.7c13.6,5.7,16.2,14.3,16.3,16.7c0,0.8-0.4,1.7-0.7,2.5s-0.4,1.7-0.1,2.5
			c0.3,0.8,0.9,1.4,1.7,1.8c0.7,0.4,1.6,0.6,2.4,0.7c2.6,0.4,5.4,0.5,7.7,1.9c1,0.6,1.8,1.5,2.8,2.1c1,0.7,2.1,1.2,3.2,1.1
			c0,0.5,0.1,1.1,0.4,1.4c0.3,0.4,1.1,0.4,1.2-0.1c0.1,0.5,0.8,0.8,1.3,0.6c0.5-0.3,0.6-0.9,0.3-1.4c0.3,0.5,1.2,0.4,1.4-0.1
			c-0.1-0.1-0.1-0.3-0.2-0.4c0.3,0,0.5,0,0.7-0.1C178.3,135.3,178.4,135.1,178.3,134.8z"/>
	</g>
	<g>
		<path fill="#08090A" d="M89.7,38.7c-0.5-0.4-0.9-0.8-1.1-1.3c-0.4-0.7-0.4-0.7,0.1-1.4c0.3-0.4,0.7-1,1.1-1.8
			c0.7-1.9,0.1-3.3-0.4-4.5c-0.2-0.4-0.4-0.9-0.5-1.3c-0.2-0.9-0.1-1.1,0.2-1.8c0.1-0.3,0.4-0.7,0.6-1.3c-0.7,0-1.4,0-2.2-0.1
			c-6.4-0.3-6,7.4-6,11.8c0.4,0.5,0.7,0.8,1.1,1.1c0,0,3.6,4.6,7.7,7.9c1-0.5,2-1.5,1.8-3.7C91.7,40.7,90.6,39.6,89.7,38.7z"/>
		<path fill="#08090A" d="M94.8,6.4c-0.1-0.3-0.3-0.6-0.4-0.9c-0.9-1.8-2.5-2.9-4.5-3.2c-0.4-0.1-0.8-0.1-1.2-0.1
			c-0.8,0-1.6,0.1-2.2,0.5c-1.7-0.8-3.8-1.2-6-1.2c-3,0-6,0.7-8.3,2.1c-2.8,1.6-4.7,3.9-5.2,6.8c-0.2,0.8-0.2,1.7-0.2,2.5
			c-0.1,1-0.1,1.9-0.4,2.6c-0.1,0.4-1.8,0.9-2.6,1.1c-1.1,0.3-2.2,0.6-3,1.2c-2.8,2.1-2.8,4.9-2.8,7.2s-0.1,3.6-1.6,4.8
			c-0.3,0.2-0.6,0.5-0.9,0.7c-1.9,1.3-4.7,3.4-3.2,7.1c0.2,0.6,0.5,1,0.7,1.5c0.7,1.2,0.7,1.4,0.3,2.1c-0.3,0.5-0.8,0.8-1.4,1.3
			c-0.9,0.7-2,1.6-2.5,3.1c-0.9,2.5,0.2,4.2,1,5.4c0.6,1,1,1.5,0.9,2.4c-0.1,1.1-0.7,2.1-1.4,3.2c-1.1,1.8-2.4,4-1.4,7.1
			c1,2.7,3.9,4.3,7.2,5.1c1.5-5.3,2.6-12.3,2.7-21.3c0,0,0-6,2.4-11.5c0.4-1.8,1.2-3.2,2.2-4.2c1.4-1.4,3.2-1.9,5.3-1.6
			c1.1,0.2,2,0.6,2.8,1.1c1.3-0.7,2.2-1.7,2.9-3c0.7-1.4,1.1-3,1.1-4.8c0.9-0.1,1.8-0.2,2.6-0.6c1.1-0.5,2-1.6,2-2.9
			c0-1.1-1.2-2.7-0.8-3.7c0.3-0.6,1-1,1.6-1c1.4,0,1.7,1.8,1.6,2.5c1.2-0.7,1.1-2.4,1.2-3.8c0.3-1.6,1.2-3.1,2.6-3.9
			c1.4-0.8,2.6-0.7,4-0.1c-0.3-0.4-0.6-0.8-1-1.2c0.4,0,0.7,0.1,1.1,0.2c1.7,0.5,2.5,2,2.8,3.5c0.2,1.1,0.3,1.5,0.5,2.6
			c0.1,0.7,0.3,1.1,0.4,1.5c0.7-1.2,1.2-2.8,1.5-4.4C95.5,10.1,95.5,8.1,94.8,6.4z"/>
	</g>
	<g>
		<path fill="#F0572F" d="M81.5,15.6l1.6-0.9c0-0.3,0.1-0.6,0.1-1c0,0,0,0,0-0.1l-2.6,1.4c0.1,0,0.2,0.1,0.3,0.1
			C81.2,15.3,81.4,15.5,81.5,15.6z"/>
		<path fill="#F0572F" d="M78.2,16.5l-5.1,2.8L73,19.4l0,0.3l0.2,0L73,19.9l0.3,0.2l0,0l4.9-2.7C78.2,17.1,78.1,16.7,78.2,16.5z"/>
		<path fill="#F0572F" d="M83.2,14.7l3-1.7l-0.4-0.7l0,0l-2.5,1.4c0,0,0,0,0,0.1C83.2,14.1,83.2,14.4,83.2,14.7z"/>
		<path fill="#F0572F" d="M87.9,12.1c0,0,0.2,0,0-0.5c-0.2-0.4-0.5-0.2-0.5-0.2l-0.2,0.1l0.4,0.7L87.9,12.1z"/>
		<polygon fill="#FFFFFF" points="73.2,19.7 73,19.6 73,19.4 71.7,20.5 73.3,20.1 73.1,19.9 		"/>
		<polygon fill="#FFFFFF" points="87.6,12.3 87.1,11.6 85.8,12.3 86.2,13 		"/>
	</g>
	<path d="M88.2,13.4c-0.1,0.1-0.1,0.2,0,0.2c0.3-0.3,0.6-0.6,1-0.7c0.4-0.1,0.9-0.2,1.3,0c0.1,0,0.2,0.1,0.3,0.1
		c0.5,0.3,0.9,0.6,1.1,1.1c0,0.1,0.2,0,0.2,0s0-0.1-0.1-0.2c-0.1-0.2-0.3-0.4-0.5-0.5c-0.4-0.4-0.8-0.7-1.4-0.8
		c-0.4-0.1-0.8,0-1.2,0.2C88.8,12.9,88.5,13.1,88.2,13.4z"/>
	<path d="M90.4,16.5c0.5,0,1-0.3,1-0.8c-0.4,0.3-1.1,0.2-1.4-0.2c-0.1-0.1-0.1-0.1-0.2-0.2c-0.1-0.1-0.2-0.1-0.3,0
		c-0.1,0-0.1,0.2-0.1,0.3C89.4,16,89.9,16.4,90.4,16.5z"/>
	<path d="M97.9,14.2c0.2-0.4,0.6-0.8,1.1-1.1c0.1-0.1,0.2-0.1,0.3-0.1c0.4-0.1,0.9-0.1,1.3,0c0.4,0.1,0.8,0.4,1.1,0.7
		c0.1,0,0-0.1,0-0.2c-0.3-0.3-0.6-0.6-1-0.7c-0.4-0.1-0.8-0.3-1.2-0.2c-0.5,0.1-0.9,0.5-1.3,0.8c-0.1,0.1-0.3,0.3-0.4,0.5
		c0,0.1-0.1,0.1,0,0.2C97.7,14.2,97.8,14.3,97.9,14.2z"/>
	<path d="M100.6,15.4c-0.1,0-0.2,0-0.3,0c-0.1,0.1-0.1,0.1-0.2,0.2c-0.4,0.4-1.1,0.4-1.4,0.1c-0.1,0.5,0.4,0.9,1,0.9
		c0.5,0,1-0.4,1.1-0.9C100.7,15.5,100.7,15.4,100.6,15.4z"/>
</g>
</svg>
