<svg xmlns="http://www.w3.org/2000/svg" viewBox="100.5 0 234.5 360"><path fill="none" d="M208.4 116.1c-7.7-2.7-8-13.1-8-13.1 8.2-3.3 19.5-12.4 19.5-12.4 1.1-.6 2.2-1.9 3.5-3.6-.8-5.7-2.4-13.2-10.4-12.8-2 .2-3.8.6-5.7.9-.9.2-3.3.2-3.6-1.5v-.8c0-.2 0-.5-.2-.8 0-.2-.1-.3-.1-.5v-.3c0-.2 0-.2-.1-.3-.3-.4-.6-.4-1.1-.6-.8-.2-.1-1.3.3-1.5 0 0-.1 0-.1-.2-.3-.2-.5-.4-.6-.6s-.3-.4-.1-.6c.1-.2.4-.2.6-.3.5-.3.6-.6.6-1.1v-.2c-1 0-2.1-.2-2.1-.2v-.1s-1 .6-2.1.8c0 .3.1.4.4.8.1.1.5.1.6.3s0 .5-.1.6c-.2.3-.5.6-.8.8.4.2 1 1.4.3 1.5-.8 0-1 0-1.3.5 0 .2-.2.2-.2.3 0 .4 0 .8-.1 1.1 0 .1 0 .3.1.4.2.3.2.8.2 1.1 0 .3-.2.8-.6.9-.1 0-.5.2-.5 0-.9 0-1.8-.1-2.5-.1-.9-.2-1.6-.2-2.6-.2-.3.8-.6 1.5-.9 1.9-.6 1.1-.8 1.5-.3 2.7.1.6.4 1.3.8 1.9.8 1.8 1.6 3.9.6 6.8-.4 1.2-1 2.1-1.6 2.7-.8.9-.8.9-.1 2.1.3.6 1 1.2 1.6 2 1.4 1.2 3.1 2.8 3.5 5.5.4 3.3-1.2 4.8-2.7 5.6 1.8 1.5 3.6 2.7 5.4 3.6 0 0-1.9 7.3-6.9 10.6v.4c1.6 1.7 6.3 4.7 11.1 6.8 2.8-2.1 4.9-4.2 6-5.4.5-2 .5-3.8.3-5.4zM203 58.3c.2-.5.2-.9.3-1.2l-1.9-1.9c-.1-.2-.4-.5-.6-.6-.1-.1-.4-.5-.6-.6-.5 2.4-1.2 4.8-2.2 6.6.4.9 1 1.9 2.7 5 2-4.9 1.6-4.7 2.3-7.3zM192.5 130.3c-1.8-1.5-3.5-2.7-4.5-3.4-.3 1.4-.9 3-1.5 4.9 1.8-.6 3.9-1 6-1.5zM224.9 159.1v-.2.2c-.1 0-.1 0 0 0z"/><path fill="#2FC4F1" d="M197.5 71.8c0-.1.1-.1 0 0 .1 0 0 .2 0 .3 0-.3 0-.6.1-1.1v.4c0 .1-.1.3-.1.4z"/><path fill="#060808" d="M265.6 90.3c-.1-.6-.6-1.6-1.3-2.7v-.2c.1-1.9-.6-4.2-2-5.7-.6-.8-1.4-1.1-1.8-1.5h-.2v-1.7c0-1.7 0-5.2-2.4-7.2 0-2.6-1.1-5.2-3.2-7.1-1-.9-2.1-1.2-2.7-1.5-.5-5.1-3.3-8.2-8.2-9v-.3c.1-1.5.1-3.6-.9-5.7-1.7-3.2-4.5-5.7-8.2-7.2-2.7-1-5.1-1.6-7.1-1.8-.1-.2-.4-.5-.8-.6-1.9-1.5-4.2-2.2-6.8-2.2-4 0-7.9 2.1-10.9 3.8-1.1.6-2 1-2.7 1.5-.3.1-1.2.3-1.8.4-2.1.5-4.4.9-5.9 2.6.1.4.4.9.6 1.3.9 2.5.9 5.5.4 8.4.1.2.6.5.8.6.1.2.5.5.6.6L203 57c.2-.9.2-1.5.2-2.5.1-1.3.6-2.7 1.5-3.8 1.9-.8 4.2 1.2 6.3 2.5 2.1 1.2 2.1 2.3 2.7 4.7.4 2.1 2.7 6.6 6.4 6.5-.4-3.2 2.6-3.2 2.6-3s.6-.5 1.3 4.2c.6 3.3 1.2 5.7 2.1 7.5.5 2.1 1.6 4.5 3.3 5.6 1.2.9 3.1 1.2 4.3.9.9-.2 1.7-.9 2.6-1.1 1.2-.2 2.5.4 3.4 1.2l.2.2c1 1.2.9 2.2 1.2 3.8v.2c.6 2.4 2.2 4.2 4.5 4.7 1.6.4 2.7 0 4.2-.8.6-.3.9-.6 1.2-1.1.2-.1.2-.1.3-.4 2.6 5.9 3.4 12.6 3.6 16.8 3.9-.5 7.3-2.1 9.1-4.7 1.6-1.6 2.6-4.3 1.6-8.1z"/><g fill="#F0572F"><path d="M220 90.4s-11.2 9.1-19.5 12.4c0 0 .1 10.4 7.9 13.1 0-.6-.1-1.1-.1-1.7-.1-1.2-.6-2.5-.3-3.8.1-.8.6-1.2 1-1.8.9-1.5 1.6-2.9 2.6-4.4.6-.9 1.5-2.1 1.8-3.1 0 0 .5-.8.9-.3 1.5 1.6-2 5.3-2.3 7 1.1-.8 1.9-1.7 2.8-2.6.9-.9 2.2-1 3.3-1.8.5-.5 2-2.3 2.4-1.1.1.8-1.2 1.9-1.6 2.4.6-.1 1.3-.8 1.9-.6.9.9-1.6 2.6-2.9 3.5-.6.4-1 .9-1.3 1.5-.6.7-1.4 1.5-1.7 2.4 1.2-.6 1.7-1.5 2.7-2.3.4-.4 1.2-.6 1.6-1.1.3-.1.8-.8 1.1-.8 1.2 0-1.2 2.8-1.5 3.1-.8.9-1.7 1.3-2.3 2.3s-.4 2.3-.4 3.4c0 2.4 0 4.5-1.4 6.4-.4.6-.9 1.2-1.3 1.7-.2.1-.2.3-.3.4-.1.2-.1.3-.3.4-.3.5-.6.9-1.1 1.5 4.8-.6 9.8-1 14.7-1.2 0 0 .1.3.6.8-.8 3.3-1.6 5.6-2.7 5.2 0 0-7.1-2.6-12.9-2.6H210c-2.6 3.8-5.4 8.1-6.6 10.1.6.6 1.1 1.1 1.5 1.4 2.9 3 15.1 9 20.1 9.9 0 0 5.4 1.2 6 1.6.6.5 2.7 1.7 3.6.3.8-1.1 5.5-5.9 7.9-12 2.6 2.5 5.6 5.5 9 9.1 6.2 6.6 13.5 14.9 21.9 25.2-.5-3.6-2.7-16.6-12.3-22.4-2.8-4.9-8.2-18.3-6.3-45.6 0 0 .2-1.5 0-3.8-.2-4.1-.8-11-3.6-16.8 0 .1-.2.1-.3.4-.3.4-.8.8-1.2 1.1-1.5.9-2.4 1.1-4.2.8-2.2-.4-3.9-2.4-4.5-4.7v-.2c-.3-1.5-.2-2.6-1.2-3.8l-.1-.2c-.9-.9-2.2-1.5-3.5-1.2-.9.2-1.6.9-2.5 1.1-1.4.3-3.1 0-4.4-.9-1.6-1.2-3-3.6-3.3-5.6-.9-1.7-1.5-4-2.1-7.5-.8-4.5-1.4-3.9-1.4-4.2 0-.2-2.9-.2-2.5 3-3.8.2-6-4.3-6.5-6.5-.6-2.4-.4-3.5-2.5-4.6-2.1-1.2-4.4-3.3-6.5-2.5-.9 1-1.4 2.4-1.5 3.8-.1 1-.1 1.8-.1 2.5 0 .5-.1.8-.3 1.2-.6 2.5-.1 2.4-2.4 7v.2s1.1.2 2.1.2v.2c0 .4-.1.9-.6 1-.1.2-.4.2-.6.3-.1.2 0 .4.2.6.1.3.3.4.6.6 0 0 .2 0 .2.2-.5.2-1.1 1.3-.3 1.5.5.2.9.2 1.1.6 0 .2.1.2.1.3v.3s0 .2.1.4c0 .3 0 .6.1.8v.8c.3 1.7 2.7 1.7 3.6 1.5 1.8-.2 3.8-.8 5.7-.9 7.9-.4 9.6 7 10.3 12.8-.6 2.4-1.8 3.7-2.8 4.3zM267.5 342.1c.8-.2.9-1.4.3-2-.5-.6-1.4-.8-2.1-.9.3-1.8-.3-3.6-1.2-5.1-.9-1.5-2.1-3-2.9-4.5-1.8-3.6-1.5-8-1.8-12 0-1.2-.2-2.5-.6-3.8-.4-1.2-1.3-2.2-2.5-2.8-1.2-.6-2.5-.5-3.9-.2-1.2.3-2.5.9-3.9.6-4.1-.6-19.2-6.9-24.9-35-1.2-6.3-3.2-11.5-5.4-15.9-7.6-15.3-18.9-20.4-18.9-20.4s14.7-6.3 31.1-16v.1c8.7-4.5 16.6-9.8 22.3-15.5 5.2-4.3 9.9-8.7 13.5-13.3-2.1-.9-4.5-1.8-7-2.6-25.4-7.9-34.2-31.8-35-34h-.2v-.1c-11.4 7-25.3 20.5-31.9 27.1-.1.1-.5.3-.6.4-1 1.1-2.1 2.2-3.1 3.5-7.2 8.1-14.7 17.7-21 28.8-4.8-1.9-9.1-4-12.9-6-4.5 5.2-9 10.8-13.1 17 0 0 0 3.2 1.2 5.8 0 0 3.8 10.3 14.1 28.3 5.2-1.9 10.6-4.8 14.5-8.7.6-.6 1.4-1.2 2-1.8 3.6 4.8 8.2 10.8 14.1 17.4-8.8 2.2-16.8 3.9-23.2 5 8.6 13.3 20.2 29.7 35.9 48 0 0 3.6 3 8.5 10.4 3.3 5 6.6 9.9 9.9 14.8.9 1.4 1.8 2.7 2.2 4.2.4 1.5.1 3.3-.9 4.5.3.8 1.1 1.2 1.8 1.2s1.5-.6 1.8-1.2c.5.6.8 1.2 1.1 1.8.1.2.1.3.3.5.3.2.9.2 1.1-.1.3-.3.4-.6.6-1.1.1.2.4.3.6.5.9-.1 1.4-1.3.8-2.1.5.6 1.7.6 2.1.1.6-.6.5-1.6-.3-2.1.8 0 1-1.2.6-1.8-.4-.6-1.2-.9-1.9-1.2.6-1.7.3-3.6-.5-5.2-.6-1.7-1.6-3.3-2.1-5-1.2-3.9-.3-8.1.1-12.2.1-1.2.1-2.5 0-3.8-.3-1.2-.9-2.4-2-3.1-1-.8-2.5-.9-3.8-.8-1.3 0-2.7.5-3.9 0-3.9-1.2-17.8-9.9-19-38.4 0-.9-.1-1.8-.1-2.6 9.6 10.4 21.6 22.1 36.3 34.8 0 0 4 2.5 10 9 4.1 4.4 8.1 8.7 12 13.1 1 1.2 2.2 2.4 2.9 3.9.6 1.5.8 3.3-.2 4.5.5.6 1.2 1 2.1.9.9-.1 1.3-.8 1.5-1.5.4.6.9 1 1.3 1.6.2.2.2.3.5.3.3.2.9 0 1-.3.2-.3.3-.8.3-1 .2.1.5.3.6.5.9-.3 1-1.5.5-2.1.6.6 1.6.5 2.1-.1.3-.9 0-2-.8-2.3zM176.4 110c-.4.6-1.2.9-.8 1.6.3.6 1.1.8 1.5 1.2-1.8 1.1 1.1 2.1 1.6 2.7 1.4 1 3.6 2.8 3.5 4.5-.1 1 0 1.9 0 1.9.8 1.8 2.1 2.7 3.8 3.8l.8.4c.1.2.6.4 1 .8 1.1.9 2.7 2.1 4.5 3.5.5.3.9.8 1.5 1.1 3.2-1.2 6-3 8.4-4.8-4.8-2.2-9.6-5.2-11.1-6.8v-.4-2.1c0-1.7.4-3.3.4-5 0-1-.1-2.1 0-3.1.2-.6.5-1.5-.3-1.7-1.5-.4-1.5 2.6-1.5 3.5-.6-1.5-1.8-3.2-3-4.2-1.5-1.2-3.5-1.8-5.4-2.2-.6-.2-2.9-1.4-2.2.3.1.6 1.2 1.1 1.6 1.4.8.4 1.4.9 2.1 1.2 1.5.6 3.9 1.9 4.2 3.8-2.4-2.2-5.5-2.6-8.5-3.2-.8-.1-1.8-.6-2.6-.1-1 .7-.4 1.6.5 1.9z"/></g><g fill="#2FC4F1"><path d="M172.2 254.8c-3.9 3.9-9.3 6.6-14.5 8.7-8.2 3.1-16.1 4-17 3.9-1-.3-1.8-1.2-2.8-1.8-.9-.6-1.9-1.2-3.2-1.2-1.2 0-2.1.6-2.8 1.4s-1.4 1.6-1.8 2.7c-1.6 3.2-2.9 6.6-5.6 8.9-1.2 1-2.6 1.6-3.8 2.5-1.2.9-2.4 2.1-2.7 3.6-.6-.2-1.4-.3-1.9 0-.6.3-.9 1.2-.5 1.6-.6 0-1.3.6-1.2 1.4.2.6.9 1.2 1.5.9-.8.2-.9 1.4-.4 1.8.1 0 .4 0 .6-.1-.1.3-.1.6-.1 1 0 .3.3.6.6.6.2 0 .3 0 .5-.2.6-.3 1-.6 1.6-.8-.1.6.2 1.4.6 1.8.6.5 1.4.5 1.8 0-.3-1.3.4-2.7 1.5-3.6 1.1-.9 2.2-1.5 3.6-2.1 4.7-2.1 9.2-2.8 13.8-4.9 6.9-3 10.6-3.2 10.6-3.2s5.4-.6 14-2.1c6.4-1.2 14.4-2.7 23.2-5-5.9-6.6-10.4-12.6-14.1-17.4-.3.4-.9 1-1.5 1.6zM230.8 224.2c-16.3 9.6-31 16.1-31 16.1s11.2 5.1 18.9 20.4c8.4-3.5 16.5-7.7 23.4-12.4-.1-.1-3.2-10.7-11.3-24.1zM324.8 238.2c0-.2-.2-.3-.3-.5-.5-.4-.9-1-1.5-1.5.8 0 1.5-.6 1.6-1.3.2-.8 0-1.5-.6-2.1-1.4.8-3.2.5-4.5-.3-1.4-.8-2.4-2-3.5-3.2-3.9-4.4-7.7-8.7-11.5-13.1-5.7-6.4-7.7-10.6-7.7-10.6-8.4-12-16.2-22.2-23.4-31.2-8.2-10.4-15.8-18.6-21.9-25.2-3.3-3.6-6.3-6.6-9-9.1-2.4 6.3-7.2 10.9-7.9 12-1.1 1.3-3 .1-3.6-.3s-6-1.6-6-1.6c-5-.9-17.2-6.9-20.1-9.9-.3-.3-.9-.8-1.5-1.4 1.2-1.8 3.9-6.3 6.6-10.1.4 0 .9.1 1.4 0 5.8-.1 12.9 2.6 12.9 2.6 1 .3 1.9-1.9 2.7-5.2-.4-.5-.6-.8-.6-.8-5.1.1-9.9.6-14.7 1.2.5-.4.8-1.1 1.1-1.5.1-.2.1-.3.3-.4.1-.2.1-.3.3-.5.4-.6.9-1 1.3-1.6 1.4-1.9 1.5-4.2 1.4-6.4 0-1.1-.1-2.4.5-3.3.6-1.1 1.6-1.7 2.4-2.4.3-.4 2.7-3.1 1.4-3.1-.3 0-.8.6-1.1.8-.6.4-1.2.6-1.6 1.1-.9.9-1.5 1.8-2.7 2.4.2-.9 1.1-1.6 1.7-2.4.4-.6.8-1.1 1.3-1.5 1.2-.9 3.8-2.6 2.9-3.5-.6-.1-1.4.5-1.8.6.4-.4 1.8-1.7 1.6-2.4-.5-1.2-2.1.8-2.6 1.1-1 .9-2.4 1.1-3.3 1.8-.9.9-1.6 1.8-2.7 2.7.5-1.6 3.8-5.4 2.2-7.1-.4-.3-.9.3-.9.3-.3 1.1-1.2 2.2-1.8 3.2-.9 1.5-1.7 2.8-2.6 4.3-.4.6-.9 1.1-1 1.8-.3 1.2.1 2.6.3 3.8 0 .6.1 1.1.1 1.6.2 1.8.2 3.6-.1 5.2-1 1.2-3.1 3.3-6 5.4-2.4 1.8-5.2 3.6-8.4 4.8-.4-.4-.9-.8-1.5-1.1-2.1.5-4 .9-6 1.5.6-1.8 1.2-3.6 1.5-4.9-.4-.3-.8-.6-1-.8 0 0-.2-.2-.8-.5-1.7-1-3-1.9-3.8-3.8 0 0-.2-1 0-1.9.1-1.6-2.1-3.4-3.5-4.5-.8-.6-3.4-1.6-1.6-2.7-.5-.4-1.2-.6-1.5-1.2-.5-.9.3-1.1.8-1.7-.9-.3-1.5-1.2-.6-1.8.6-.4 1.8 0 2.6.2 3.1.6 6.1.8 8.5 3.1-.3-1.8-2.7-3.1-4.2-3.8-.8-.3-1.4-.6-2.1-1.2-.5-.3-1.5-.8-1.6-1.3-.6-1.7 1.8-.5 2.2-.3 1.8.4 3.8 1.1 5.4 2.2 1.2.9 2.4 2.7 3 4.2 0-.8 0-3.8 1.5-3.4.9.1.4 1.1.3 1.6-.1 1.1 0 2.1 0 3.2 0 1.6-.3 3.3-.4 4.9v2.1c4.9-3.3 6.9-10.7 6.9-10.7-1.8-.9-3.6-2.1-5.4-3.6-6.1-5-11.6-11.9-11.6-11.9-.6-.4-1-.9-1.6-1.6 0-6.6-.6-18.2 9-17.7 1.1 0 2.1 0 3.3.1.9 0 1.6.2 2.5.2.9.2 1.8.2 2.6.2h.4c.3-.2.5-.4.6-.9 0-.3 0-.8-.1-1 0-.2-.2-.3-.2-.5v-.3-.5-.4c0-.2 0-.2.2-.3.3-.4.6-.4 1-.6.8-.2.1-1.3-.3-1.5.4-.2.6-.4.7-.8.2-.2.3-.4.2-.6-.2-.2-.5-.2-.6-.3-.3-.2-.4-.4-.4-.8 1-.2 2.1-.8 2.1-.8-1.5-2.8-2.2-3.9-2.7-4.9-.3-.6-.5-1.2-.6-2.2-.3-1.7-.4-2.2-.8-3.9-.4-2.2-1.6-4.5-4.2-5.2-.5-.1-1.1-.1-1.7-.3.5.6 1.1 1.2 1.5 1.8-2.2-.9-4-1-6 .2-2.1 1.2-3.4 3.5-3.9 5.8-.3 2.1-.1 4.8-1.8 5.7.1-1.2-.2-2.8-1.4-3.6-1.5-.9-3 .5-3.5 1.3-.6 1.5 1.2 3.9 1.2 5.5 0 1.8-1.4 3.6-3 4.3-1.2.6-2.6.8-3.9.9 0 2.7-.5 5.2-1.7 7.2-1 1.8-2.4 3.4-4.3 4.5-1.2-.8-2.6-1.3-4.2-1.7-3.1-.6-5.9.3-7.9 2.4-1.5 1.5-2.7 3.6-3.3 6.3-3.6 8.1-3.6 17.2-3.6 17.2 0 13.5-1.8 24.2-4.1 31.9-1.9 7.1-4.3 12-6 15.2-36 29.2-.6 52.8-.6 52.8 3.6 2.1 7.8 2.8 12.4 2.4 7.5-.6 16.2-4.2 25-9.1-6.9 5.7-16.5 9-20.8 10.2 1.3.9 2.8 1.6 4.3 2.6 3.8 2.1 8.1 4 12.9 6 6.4-11.1 13.8-20.7 21-28.8 1-1.2 2.1-2.2 3.1-3.4.1-.2.4-.3.6-.5 6.6-6.6 20.5-20.1 31.9-27.1v.1c.8 2.2 9.6 26.1 34.9 34.1 2.6.8 5 1.6 7.1 2.5 20.4 8.6 24.3 21.5 24.4 25.1 0 1.2-.6 2.5-1 3.8-.5 1.2-.6 2.5-.1 3.8.4 1.2 1.3 2.1 2.5 2.7 1 .6 2.4.9 3.6 1.1 3.9.6 8.1.8 11.6 2.8 1.5.9 2.7 2.2 4.2 3.2s3.2 1.8 4.8 1.7c0 .8.1 1.7.6 2.1.5.6 1.7.6 1.8-.2.2.8 1.2 1.2 2 .9.8-.5.9-1.3.5-2.1.5.8 1.8.6 2.1-.2-.1-.2-.1-.5-.3-.6.5 0 .8 0 1-.2.8-.4 1-.7.8-1.1z"/></g><g fill="#08090A"><path d="M191.6 94.3c-.8-.6-1.3-1.2-1.6-1.9-.6-1.1-.6-1.1.1-2.1.5-.6 1.1-1.5 1.7-2.7 1-2.9.1-4.9-.6-6.8-.3-.6-.6-1.3-.8-1.9-.3-1.4-.1-1.7.3-2.7.2-.4.6-1 .9-1.9-1.1-.1-2.1-.2-3.3-.2-9.6-.4-9 11.1-9 17.7.6.8 1.1 1.2 1.6 1.6 0 0 5.4 6.9 11.6 11.9 1.5-.8 3-2.2 2.7-5.6-.6-2.4-2.3-4-3.6-5.4z"/><path d="M199.3 45.2c-.1-.4-.4-.9-.6-1.3-1.3-2.7-3.8-4.3-6.8-4.8-.6-.2-1.2-.2-1.8-.2-1.2 0-2.4.2-3.3.8-2.5-1.2-5.7-1.8-9-1.8-4.5 0-9 1-12.4 3.2-4.2 2.4-7.1 5.8-7.8 10.2-.3 1.2-.3 2.5-.3 3.8-.1 1.5-.1 2.8-.6 3.9-.1.6-2.7 1.3-3.9 1.7-1.6.4-3.3.9-4.5 1.8-4.2 3.2-4.2 7.3-4.2 10.8 0 3.5-.1 5.4-2.4 7.2-.5.3-.9.8-1.4 1-2.9 2-7.1 5.1-4.8 10.7.3.9.8 1.5 1.1 2.2 1.1 1.8 1.1 2.1.4 3.1-.4.8-1.2 1.2-2.1 2-1.4 1-3 2.4-3.8 4.6-1.4 3.8.3 6.3 1.5 8.1.9 1.5 1.5 2.2 1.4 3.6-.1 1.7-1.1 3.2-2.1 4.8-1.6 2.7-3.6 6-2.1 10.6 1.5 4.1 5.9 6.5 10.8 7.6 2.2-7.9 3.9-18.4 4.1-31.9 0 0 0-9 3.6-17.2.6-2.7 1.8-4.8 3.3-6.3 2.1-2.1 4.8-2.8 7.9-2.4 1.6.3 3 .9 4.2 1.7 2-1.1 3.3-2.6 4.4-4.5 1.1-2.1 1.6-4.5 1.6-7.2 1.4-.2 2.7-.3 3.9-.9 1.6-.8 3-2.4 3-4.3 0-1.7-1.8-4.1-1.2-5.6.5-.9 1.5-1.5 2.4-1.5 2.1 0 2.6 2.7 2.4 3.8 1.8-1.1 1.6-3.6 1.8-5.7.5-2.4 1.8-4.6 3.9-5.8 2.1-1.2 3.9-1.1 6-.2-.4-.6-.9-1.2-1.5-1.8.6 0 1.1.1 1.7.3 2.5.8 3.8 3 4.2 5.2.3 1.6.5 2.2.8 3.9.1 1.1.5 1.7.6 2.2 1-1.8 1.8-4.2 2.2-6.6.4-3.3.4-6.3-.6-8.8z"/></g><path fill="#F0572F" d="M179.6 59.5l2.3-1.3c.1-.6.1-1.5.1-1.7l-3.8 2.1c.1 0 .3.1.4.1.6.3.9.6 1 .8zM174.7 60.7l-7.6 4.2-.2.2v.4h.3l-.3.3.5.3 7.4-4.1c-.1-.4-.3-1-.1-1.3z"/><path fill="#F0572F" d="M181.9 58.2l4.5-2.5-.6-1.2-3.8 2.1v.2c-.1.3-.1 1-.1 1.4zM189 54.3s.2 0-.2-.7c-.4-.6-.8-.3-.8-.3l-.3.2.8 1.1.5-.3z"/><path fill="#FFF" d="M167.2 65.5l-.3-.1v-.3l-2 1.6 2.4-.6-.3-.3M188.4 54.6l-.8-1.2-1.9 1.1.7 1.2"/><path d="M189.7 56.1c-.1.2-.1.3 0 .3.4-.5.9-.9 1.5-1 .6-.2 1.4-.3 1.9 0 .2 0 .3.2.5.2.8.5 1.4.9 1.6 1.6 0 .2.3 0 .3 0s0-.1-.2-.3c-.1-.3-.4-.6-.8-.8-.6-.6-1.2-1-2.1-1.2-.6-.1-1.2 0-1.8.3 0 .1-.5.4-.9.9zM193 60.7c.8 0 1.5-.5 1.5-1.2-.6.5-1.6.3-2.1-.3-.1-.2-.1-.2-.3-.3-.1-.2-.3-.2-.5 0-.1 0-.1.3-.1.4 0 .7.7 1.3 1.5 1.4zM204.2 57.3c.3-.6.9-1.2 1.6-1.7.1-.2.3-.2.5-.2.6-.1 1.3-.1 1.9 0 .6.2 1.2.6 1.6 1 .2 0 0-.1 0-.3-.4-.5-.9-.9-1.5-1-.6-.2-1.2-.5-1.8-.3-.8.2-1.4.8-2 1.2-.1.2-.4.5-.6.8 0 .2-.2.2 0 .3 0 .2.2.3.3.2zM208.3 59.1h-.4c-.1.2-.1.2-.3.3-.6.6-1.6.6-2.1.2-.2.8.6 1.3 1.5 1.3.8 0 1.5-.6 1.6-1.3-.2-.4-.2-.5-.3-.5z"/></svg>