<?xml version="1.0" encoding="utf-8"?>
<!-- Generator: Adobe Illustrator 18.1.1, SVG Export Plug-In . SVG Version: 6.00 Build 0)  -->
<!DOCTYPE svg PUBLIC "-//W3C//DTD SVG 1.1//EN" "http://www.w3.org/Graphics/SVG/1.1/DTD/svg11.dtd">
<svg version="1.1" id="Layer_1" xmlns="http://www.w3.org/2000/svg" xmlns:xlink="http://www.w3.org/1999/xlink" x="0px" y="0px"
	 viewBox="100.5 0 234.5 360" enable-background="new 100.5 0 234.5 360" xml:space="preserve">
<g id="STUDY_BUDDY">
	<path fill="none" d="M208.4,116.1c-7.7-2.7-8-13.1-8-13.1c8.2-3.3,19.5-12.4,19.5-12.4c1.1-0.6,2.2-1.9,3.5-3.6
		c-0.8-5.7-2.4-13.2-10.4-12.8c-2,0.2-3.8,0.6-5.7,0.9c-0.9,0.2-3.3,0.2-3.6-1.5c0-0.2,0-0.5,0-0.8l0,0l0,0c0-0.2,0-0.5-0.2-0.8
		c0-0.2-0.1-0.3-0.1-0.5c0-0.1,0-0.1,0-0.3l0,0c0-0.2,0-0.2-0.1-0.3c-0.3-0.4-0.6-0.4-1.1-0.6c-0.8-0.2-0.1-1.3,0.3-1.5
		c0,0-0.1,0-0.1-0.2c-0.3-0.2-0.5-0.4-0.6-0.6s-0.3-0.4-0.1-0.6c0.1-0.2,0.4-0.2,0.6-0.3c0.5-0.3,0.6-0.6,0.6-1.1c0,0,0,0,0-0.2
		c-1,0-2.1-0.2-2.1-0.2v-0.1c0,0-1,0.6-2.1,0.8c0,0.3,0.1,0.4,0.4,0.8c0.1,0.1,0.5,0.1,0.6,0.3s0,0.5-0.1,0.6
		c-0.2,0.3-0.5,0.6-0.8,0.8c0.4,0.2,1,1.4,0.3,1.5c-0.8,0-1,0-1.3,0.5c0,0.2-0.2,0.2-0.2,0.3c0,0.4,0,0.8-0.1,1.1
		c0,0.1,0,0.3,0.1,0.4c0.2,0.3,0.2,0.8,0.2,1.1c0,0.3-0.2,0.8-0.6,0.9c-0.1,0-0.5,0.2-0.5,0c-0.9,0-1.8-0.1-2.5-0.1
		c-0.9-0.2-1.6-0.2-2.6-0.2c-0.3,0.8-0.6,1.5-0.9,1.9c-0.6,1.1-0.8,1.5-0.3,2.7c0.1,0.6,0.4,1.3,0.8,1.9c0.8,1.8,1.6,3.9,0.6,6.8
		c-0.4,1.2-1,2.1-1.6,2.7c-0.8,0.9-0.8,0.9-0.1,2.1c0.3,0.6,1,1.2,1.6,2c1.4,1.2,3.1,2.8,3.5,5.5c0.4,3.3-1.2,4.8-2.7,5.6
		c1.8,1.5,3.6,2.7,5.4,3.6c0,0-1.9,7.3-6.9,10.6c0,0.2,0,0.3,0,0.4c1.6,1.7,6.3,4.7,11.1,6.8c2.8-2.1,4.9-4.2,6-5.4
		C208.6,119.5,208.6,117.7,208.4,116.1z"/>
	<path fill="none" d="M203,58.3c0.2-0.5,0.2-0.9,0.3-1.2l-1.9-1.9c-0.1-0.2-0.4-0.5-0.6-0.6c-0.1-0.1-0.4-0.5-0.6-0.6
		c-0.5,2.4-1.2,4.8-2.2,6.6c0.4,0.9,1,1.9,2.7,5C202.7,60.7,202.3,60.9,203,58.3z"/>
	<path fill="none" d="M192.5,130.3c-1.8-1.5-3.5-2.7-4.5-3.4c-0.3,1.4-0.9,3-1.5,4.9C188.3,131.2,190.4,130.8,192.5,130.3z"/>
	<path fill="none" d="M224.9,159.1c0-0.2,0-0.2,0-0.2V159.1C224.8,159.1,224.8,159.1,224.9,159.1z"/>
	<path fill="#2FC4F1" d="M197.5,71.8C197.5,71.7,197.6,71.7,197.5,71.8c0.1,0,0,0.2,0,0.3l0,0c0-0.3,0-0.6,0.1-1.1
		c0,0.2,0,0.2,0,0.4C197.6,71.5,197.5,71.7,197.5,71.8z"/>
	<path fill="#060808" d="M265.6,90.3c-0.1-0.6-0.6-1.6-1.3-2.7v-0.2c0.1-1.9-0.6-4.2-2-5.7c-0.6-0.8-1.4-1.1-1.8-1.5h-0.2
		c0-0.4,0-1.1,0-1.7c0-1.7,0-5.2-2.4-7.2c0-2.6-1.1-5.2-3.2-7.1c-1-0.9-2.1-1.2-2.7-1.5c-0.5-5.1-3.3-8.2-8.2-9c0-0.2,0-0.2,0-0.3
		c0.1-1.5,0.1-3.6-0.9-5.7c-1.7-3.2-4.5-5.7-8.2-7.2c-2.7-1-5.1-1.6-7.1-1.8c-0.1-0.2-0.4-0.5-0.8-0.6c-1.9-1.5-4.2-2.2-6.8-2.2
		c-4,0-7.9,2.1-10.9,3.8c-1.1,0.6-2,1-2.7,1.5c-0.3,0.1-1.2,0.3-1.8,0.4c-2.1,0.5-4.4,0.9-5.9,2.6c0.1,0.4,0.4,0.9,0.6,1.3
		c0.9,2.5,0.9,5.5,0.4,8.4c0.1,0.2,0.6,0.5,0.8,0.6c0.1,0.2,0.5,0.5,0.6,0.6L203,57c0.2-0.9,0.2-1.5,0.2-2.5
		c0.1-1.3,0.6-2.7,1.5-3.8l0,0c1.9-0.8,4.2,1.2,6.3,2.5c2.1,1.2,2.1,2.3,2.7,4.7c0.4,2.1,2.7,6.6,6.4,6.5c-0.4-3.2,2.6-3.2,2.6-3
		s0.6-0.5,1.3,4.2c0.6,3.3,1.2,5.7,2.1,7.5c0.5,2.1,1.6,4.5,3.3,5.6c1.2,0.9,3.1,1.2,4.3,0.9c0.9-0.2,1.7-0.9,2.6-1.1
		c1.2-0.2,2.5,0.4,3.4,1.2l0.2,0.2c1,1.2,0.9,2.2,1.2,3.8c0,0,0,0,0,0.2c0.6,2.4,2.2,4.2,4.5,4.7c1.6,0.4,2.7,0,4.2-0.8
		c0.6-0.3,0.9-0.6,1.2-1.1c0.2-0.1,0.2-0.1,0.3-0.4c2.6,5.9,3.4,12.6,3.6,16.8c3.9-0.5,7.3-2.1,9.1-4.7
		C265.6,96.8,266.6,94.1,265.6,90.3z"/>
	<g>
		<path fill="#F0572F" d="M220,90.4c0,0-11.2,9.1-19.5,12.4c0,0,0.1,10.4,7.9,13.1c0-0.6-0.1-1.1-0.1-1.7c-0.1-1.2-0.6-2.5-0.3-3.8
			c0.1-0.8,0.6-1.2,1-1.8c0.9-1.5,1.6-2.9,2.6-4.4c0.6-0.9,1.5-2.1,1.8-3.1l0,0c0,0,0.5-0.8,0.9-0.3c1.5,1.6-2,5.3-2.3,7
			c1.1-0.8,1.9-1.7,2.8-2.6c0.9-0.9,2.2-1,3.3-1.8c0.5-0.5,2-2.3,2.4-1.1c0.1,0.8-1.2,1.9-1.6,2.4c0.6-0.1,1.3-0.8,1.9-0.6
			c0.9,0.9-1.6,2.6-2.9,3.5c-0.6,0.4-1,0.9-1.3,1.5c-0.6,0.7-1.4,1.5-1.7,2.4c1.2-0.6,1.7-1.5,2.7-2.3c0.4-0.4,1.2-0.6,1.6-1.1
			c0.3-0.1,0.8-0.8,1.1-0.8c1.2,0-1.2,2.8-1.5,3.1c-0.8,0.9-1.7,1.3-2.3,2.3s-0.4,2.3-0.4,3.4c0,2.4,0,4.5-1.4,6.4
			c-0.4,0.6-0.9,1.2-1.3,1.7c-0.2,0.1-0.2,0.3-0.3,0.4c-0.1,0.2-0.1,0.3-0.3,0.4l0,0c-0.3,0.5-0.6,0.9-1.1,1.5
			c4.8-0.6,9.8-1,14.7-1.2c0,0,0.1,0.3,0.6,0.8c-0.8,3.3-1.6,5.6-2.7,5.2c0,0-7.1-2.6-12.9-2.6c-0.5,0-0.9,0-1.4,0
			c-2.6,3.8-5.4,8.1-6.6,10.1c0.6,0.6,1.1,1.1,1.5,1.4c2.9,3,15.1,9,20.1,9.9c0,0,5.4,1.2,6,1.6c0.6,0.5,2.7,1.7,3.6,0.3
			c0.8-1.1,5.5-5.9,7.9-12c2.6,2.5,5.6,5.5,9,9.1c6.2,6.6,13.5,14.9,21.9,25.2c-0.5-3.6-2.7-16.6-12.3-22.4
			c-2.8-4.9-8.2-18.3-6.3-45.6c0,0,0.2-1.5,0-3.8c-0.2-4.1-0.8-11-3.6-16.8c0,0.1-0.2,0.1-0.3,0.4c-0.3,0.4-0.8,0.8-1.2,1.1
			c-1.5,0.9-2.4,1.1-4.2,0.8c-2.2-0.4-3.9-2.4-4.5-4.7c0,0,0,0,0-0.2c-0.3-1.5-0.2-2.6-1.2-3.8l-0.1-0.2c-0.9-0.9-2.2-1.5-3.5-1.2
			c-0.9,0.2-1.6,0.9-2.5,1.1c-1.4,0.3-3.1,0-4.4-0.9c-1.6-1.2-3-3.6-3.3-5.6c-0.9-1.7-1.5-4-2.1-7.5c-0.8-4.5-1.4-3.9-1.4-4.2
			c0-0.2-2.9-0.2-2.5,3c-3.8,0.2-6-4.3-6.5-6.5c-0.6-2.4-0.4-3.5-2.5-4.6c-2.1-1.2-4.4-3.3-6.5-2.5l0,0c-0.9,1-1.4,2.4-1.5,3.8
			c-0.1,1-0.1,1.8-0.1,2.5c0,0.5-0.1,0.8-0.3,1.2c-0.6,2.5-0.1,2.4-2.4,7l0,0v0.2c0,0,1.1,0.2,2.1,0.2c0,0,0,0,0,0.2
			c0,0.4-0.1,0.9-0.6,1c-0.1,0.2-0.4,0.2-0.6,0.3c-0.1,0.2,0,0.4,0.2,0.6c0.1,0.3,0.3,0.4,0.6,0.6c0,0,0.2,0,0.2,0.2
			c-0.5,0.2-1.1,1.3-0.3,1.5c0.5,0.2,0.9,0.2,1.1,0.6c0,0.2,0.1,0.2,0.1,0.3l0,0c0,0.2,0,0.2,0,0.3c0,0,0,0.2,0.1,0.4
			c0,0.3,0,0.6,0.1,0.8l0,0l0,0c0,0.4,0,0.8,0,0.8c0.3,1.7,2.7,1.7,3.6,1.5c1.8-0.2,3.8-0.8,5.7-0.9c7.9-0.4,9.6,7,10.3,12.8
			C222.2,88.5,221,89.8,220,90.4z"/>
		<path fill="#F0572F" d="M267.5,342.1c0.8-0.2,0.9-1.4,0.3-2c-0.5-0.6-1.4-0.8-2.1-0.9c0.3-1.8-0.3-3.6-1.2-5.1
			c-0.9-1.5-2.1-3-2.9-4.5c-1.8-3.6-1.5-8-1.8-12c0-1.2-0.2-2.5-0.6-3.8c-0.4-1.2-1.3-2.2-2.5-2.8c-1.2-0.6-2.5-0.5-3.9-0.2
			c-1.2,0.3-2.5,0.9-3.9,0.6c-4.1-0.6-19.2-6.9-24.9-35c-1.2-6.3-3.2-11.5-5.4-15.9c-7.6-15.3-18.9-20.4-18.9-20.4s14.7-6.3,31.1-16
			c0,0,0,0,0,0.1c8.7-4.5,16.6-9.8,22.3-15.5c5.2-4.3,9.9-8.7,13.5-13.3c-2.1-0.9-4.5-1.8-7-2.6c-25.4-7.9-34.2-31.8-35-34
			c0,0,0,0-0.2,0v-0.1c-11.4,7-25.3,20.5-31.9,27.1c-0.1,0.1-0.5,0.3-0.6,0.4c-1,1.1-2.1,2.2-3.1,3.5l0,0l0,0
			c-7.2,8.1-14.7,17.7-21,28.8c-4.8-1.9-9.1-4-12.9-6c-4.5,5.2-9,10.8-13.1,17c0,0,0,3.2,1.2,5.8c0,0,3.8,10.3,14.1,28.3
			c5.2-1.9,10.6-4.8,14.5-8.7c0.6-0.6,1.4-1.2,2-1.8c3.6,4.8,8.2,10.8,14.1,17.4c-8.8,2.2-16.8,3.9-23.2,5
			c8.6,13.3,20.2,29.7,35.9,48c0,0,3.6,3,8.5,10.4c3.3,5,6.6,9.9,9.9,14.8c0.9,1.4,1.8,2.7,2.2,4.2c0.4,1.5,0.1,3.3-0.9,4.5
			c0.3,0.8,1.1,1.2,1.8,1.2s1.5-0.6,1.8-1.2c0.5,0.6,0.8,1.2,1.1,1.8c0.1,0.2,0.1,0.3,0.3,0.5c0.3,0.2,0.9,0.2,1.1-0.1
			c0.3-0.3,0.4-0.6,0.6-1.1c0.1,0.2,0.4,0.3,0.6,0.5c0.9-0.1,1.4-1.3,0.8-2.1c0.5,0.6,1.7,0.6,2.1,0.1c0.6-0.6,0.5-1.6-0.3-2.1
			c0.8,0,1-1.2,0.6-1.8c-0.4-0.6-1.2-0.9-1.9-1.2c0.6-1.7,0.3-3.6-0.5-5.2c-0.6-1.7-1.6-3.3-2.1-5c-1.2-3.9-0.3-8.1,0.1-12.2
			c0.1-1.2,0.1-2.5,0-3.8c-0.3-1.2-0.9-2.4-2-3.1c-1-0.8-2.5-0.9-3.8-0.8c-1.3,0-2.7,0.5-3.9,0c-3.9-1.2-17.8-9.9-19-38.4
			c0-0.9-0.1-1.8-0.1-2.6c9.6,10.4,21.6,22.1,36.3,34.8c0,0,4,2.5,10,9c4.1,4.4,8.1,8.7,12,13.1c1,1.2,2.2,2.4,2.9,3.9
			c0.6,1.5,0.8,3.3-0.2,4.5c0.5,0.6,1.2,1,2.1,0.9c0.9-0.1,1.3-0.8,1.5-1.5c0.4,0.6,0.9,1,1.3,1.6c0.2,0.2,0.2,0.3,0.5,0.3
			c0.3,0.2,0.9,0,1-0.3c0.2-0.3,0.3-0.8,0.3-1c0.2,0.1,0.5,0.3,0.6,0.5c0.9-0.3,1-1.5,0.5-2.1c0.6,0.6,1.6,0.5,2.1-0.1
			C268.6,343.5,268.3,342.4,267.5,342.1z"/>
		<path fill="#F0572F" d="M176.4,110c-0.4,0.6-1.2,0.9-0.8,1.6c0.3,0.6,1.1,0.8,1.5,1.2c-1.8,1.1,1.1,2.1,1.6,2.7
			c1.4,1,3.6,2.8,3.5,4.5c-0.1,1,0,1.9,0,1.9c0.8,1.8,2.1,2.7,3.8,3.8c0.6,0.3,0.8,0.4,0.8,0.4c0.1,0.2,0.6,0.4,1,0.8
			c1.1,0.9,2.7,2.1,4.5,3.5c0.5,0.3,0.9,0.8,1.5,1.1c3.2-1.2,6-3,8.4-4.8c-4.8-2.2-9.6-5.2-11.1-6.8c0-0.1,0-0.3,0-0.4
			c0-0.8,0-1.3,0-2.1c0-1.7,0.4-3.3,0.4-5c0-1-0.1-2.1,0-3.1c0.2-0.6,0.5-1.5-0.3-1.7c-1.5-0.4-1.5,2.6-1.5,3.5
			c-0.6-1.5-1.8-3.2-3-4.2c-1.5-1.2-3.5-1.8-5.4-2.2c-0.6-0.2-2.9-1.4-2.2,0.3c0.1,0.6,1.2,1.1,1.6,1.4c0.8,0.4,1.4,0.9,2.1,1.2
			c1.5,0.6,3.9,1.9,4.2,3.8c-2.4-2.2-5.5-2.6-8.5-3.2c-0.8-0.1-1.8-0.6-2.6-0.1C174.9,108.8,175.5,109.7,176.4,110z"/>
	</g>
	<g>
		<path fill="#2FC4F1" d="M172.2,254.8c-3.9,3.9-9.3,6.6-14.5,8.7c-8.2,3.1-16.1,4-17,3.9c-1-0.3-1.8-1.2-2.8-1.8
			c-0.9-0.6-1.9-1.2-3.2-1.2c-1.2,0-2.1,0.6-2.8,1.4s-1.4,1.6-1.8,2.7c-1.6,3.2-2.9,6.6-5.6,8.9c-1.2,1-2.6,1.6-3.8,2.5
			c-1.2,0.9-2.4,2.1-2.7,3.6c-0.6-0.2-1.4-0.3-1.9,0c-0.6,0.3-0.9,1.2-0.5,1.6c-0.6,0-1.3,0.6-1.2,1.4c0.2,0.6,0.9,1.2,1.5,0.9
			c-0.8,0.2-0.9,1.4-0.4,1.8c0.1,0,0.4,0,0.6-0.1c-0.1,0.3-0.1,0.6-0.1,1c0,0.3,0.3,0.6,0.6,0.6c0.2,0,0.3,0,0.5-0.2
			c0.6-0.3,1-0.6,1.6-0.8c-0.1,0.6,0.2,1.4,0.6,1.8c0.6,0.5,1.4,0.5,1.8,0c-0.3-1.3,0.4-2.7,1.5-3.6c1.1-0.9,2.2-1.5,3.6-2.1
			c4.7-2.1,9.2-2.8,13.8-4.9c6.9-3,10.6-3.2,10.6-3.2s5.4-0.6,14-2.1c6.4-1.2,14.4-2.7,23.2-5c-5.9-6.6-10.4-12.6-14.1-17.4
			C173.4,253.6,172.8,254.2,172.2,254.8z"/>
		<path fill="#2FC4F1" d="M230.8,224.2c-16.3,9.6-31,16.1-31,16.1s11.2,5.1,18.9,20.4c8.4-3.5,16.5-7.7,23.4-12.4
			C242,248.2,238.9,237.6,230.8,224.2L230.8,224.2z"/>
		<path fill="#2FC4F1" d="M324.8,238.2c0-0.2-0.2-0.3-0.3-0.5c-0.5-0.4-0.9-1-1.5-1.5c0.8,0,1.5-0.6,1.6-1.3c0.2-0.8,0-1.5-0.6-2.1
			c-1.4,0.8-3.2,0.5-4.5-0.3c-1.4-0.8-2.4-2-3.5-3.2c-3.9-4.4-7.7-8.7-11.5-13.1c-5.7-6.4-7.7-10.6-7.7-10.6
			c-8.4-12-16.2-22.2-23.4-31.2c-8.2-10.4-15.8-18.6-21.9-25.2c-3.3-3.6-6.3-6.6-9-9.1c-2.4,6.3-7.2,10.9-7.9,12
			c-1.1,1.3-3,0.1-3.6-0.3s-6-1.6-6-1.6c-5-0.9-17.2-6.9-20.1-9.9c-0.3-0.3-0.9-0.8-1.5-1.4c1.2-1.8,3.9-6.3,6.6-10.1
			c0.4,0,0.9,0.1,1.4,0c5.8-0.1,12.9,2.6,12.9,2.6c1,0.3,1.9-1.9,2.7-5.2c-0.4-0.5-0.6-0.8-0.6-0.8c-5.1,0.1-9.9,0.6-14.7,1.2
			c0.5-0.4,0.8-1.1,1.1-1.5l0,0c0.1-0.2,0.1-0.3,0.3-0.4c0.1-0.2,0.1-0.3,0.3-0.5c0.4-0.6,0.9-1,1.3-1.6c1.4-1.9,1.5-4.2,1.4-6.4
			c0-1.1-0.1-2.4,0.5-3.3c0.6-1.1,1.6-1.7,2.4-2.4c0.3-0.4,2.7-3.1,1.4-3.1c-0.3,0-0.8,0.6-1.1,0.8c-0.6,0.4-1.2,0.6-1.6,1.1
			c-0.9,0.9-1.5,1.8-2.7,2.4c0.2-0.9,1.1-1.6,1.7-2.4c0.4-0.6,0.8-1.1,1.3-1.5c1.2-0.9,3.8-2.6,2.9-3.5c-0.6-0.1-1.4,0.5-1.8,0.6
			c0.4-0.4,1.8-1.7,1.6-2.4c-0.5-1.2-2.1,0.8-2.6,1.1c-1,0.9-2.4,1.1-3.3,1.8c-0.9,0.9-1.6,1.8-2.7,2.7c0.5-1.6,3.8-5.4,2.2-7.1
			c-0.4-0.3-0.9,0.3-0.9,0.3l0,0c-0.3,1.1-1.2,2.2-1.8,3.2c-0.9,1.5-1.7,2.8-2.6,4.3c-0.4,0.6-0.9,1.1-1,1.8
			c-0.3,1.2,0.1,2.6,0.3,3.8c0,0.6,0.1,1.1,0.1,1.6c0.2,1.8,0.2,3.6-0.1,5.2c-1,1.2-3.1,3.3-6,5.4c-2.4,1.8-5.2,3.6-8.4,4.8
			c-0.4-0.4-0.9-0.8-1.5-1.1c-2.1,0.5-4,0.9-6,1.5c0.6-1.8,1.2-3.6,1.5-4.9c-0.4-0.3-0.8-0.6-1-0.8c0,0-0.2-0.2-0.8-0.5
			c-1.7-1-3-1.9-3.8-3.8c0,0-0.2-1,0-1.9c0.1-1.6-2.1-3.4-3.5-4.5c-0.8-0.6-3.4-1.6-1.6-2.7c-0.5-0.4-1.2-0.6-1.5-1.2
			c-0.5-0.9,0.3-1.1,0.8-1.7c-0.9-0.3-1.5-1.2-0.6-1.8c0.6-0.4,1.8,0,2.6,0.2c3.1,0.6,6.1,0.8,8.5,3.1c-0.3-1.8-2.7-3.1-4.2-3.8
			c-0.8-0.3-1.4-0.6-2.1-1.2c-0.5-0.3-1.5-0.8-1.6-1.3c-0.6-1.7,1.8-0.5,2.2-0.3c1.8,0.4,3.8,1.1,5.4,2.2c1.2,0.9,2.4,2.7,3,4.2
			c0-0.8,0-3.8,1.5-3.4c0.9,0.1,0.4,1.1,0.3,1.6c-0.1,1.1,0,2.1,0,3.2c0,1.6-0.3,3.3-0.4,4.9c0,0.6,0,1.4,0,2.1
			c4.9-3.3,6.9-10.7,6.9-10.7c-1.8-0.9-3.6-2.1-5.4-3.6c-6.1-5-11.6-11.9-11.6-11.9c-0.6-0.4-1-0.9-1.6-1.6c0-6.6-0.6-18.2,9-17.7
			c1.1,0,2.1,0,3.3,0.1c0.9,0,1.6,0.2,2.5,0.2c0.9,0.2,1.8,0.2,2.6,0.2c0.1,0,0.4,0,0.4,0c0.3-0.2,0.5-0.4,0.6-0.9
			c0-0.3,0-0.8-0.1-1c0-0.2-0.2-0.3-0.2-0.5l0,0c0-0.2,0-0.2,0-0.3l0,0c0-0.2,0-0.3,0-0.5s0-0.2,0-0.4c0-0.2,0-0.2,0.2-0.3
			c0.3-0.4,0.6-0.4,1-0.6c0.8-0.2,0.1-1.3-0.3-1.5c0.4-0.2,0.6-0.4,0.7-0.8c0.2-0.2,0.3-0.4,0.2-0.6c-0.2-0.2-0.5-0.2-0.6-0.3
			c-0.3-0.2-0.4-0.4-0.4-0.8c1-0.2,2.1-0.8,2.1-0.8l0,0c-1.5-2.8-2.2-3.9-2.7-4.9c-0.3-0.6-0.5-1.2-0.6-2.2
			c-0.3-1.7-0.4-2.2-0.8-3.9c-0.4-2.2-1.6-4.5-4.2-5.2c-0.5-0.1-1.1-0.1-1.7-0.3c0.5,0.6,1.1,1.2,1.5,1.8c-2.2-0.9-4-1-6,0.2
			c-2.1,1.2-3.4,3.5-3.9,5.8c-0.3,2.1-0.1,4.8-1.8,5.7c0.1-1.2-0.2-2.8-1.4-3.6c-1.5-0.9-3,0.5-3.5,1.3c-0.6,1.5,1.2,3.9,1.2,5.5
			c0,1.8-1.4,3.6-3,4.3c-1.2,0.6-2.6,0.8-3.9,0.9c0,2.7-0.5,5.2-1.7,7.2c-1,1.8-2.4,3.4-4.3,4.5c-1.2-0.8-2.6-1.3-4.2-1.7
			c-3.1-0.6-5.9,0.3-7.9,2.4c-1.5,1.5-2.7,3.6-3.3,6.3c-3.6,8.1-3.6,17.2-3.6,17.2c0,13.5-1.8,24.2-4.1,31.9c-1.9,7.1-4.3,12-6,15.2
			c-36,29.2-0.6,52.8-0.6,52.8c3.6,2.1,7.8,2.8,12.4,2.4c7.5-0.6,16.2-4.2,25-9.1c-6.9,5.7-16.5,9-20.8,10.2
			c1.3,0.9,2.8,1.6,4.3,2.6c3.8,2.1,8.1,4,12.9,6c6.4-11.1,13.8-20.7,21-28.8l0,0l0,0c1-1.2,2.1-2.2,3.1-3.4
			c0.1-0.2,0.4-0.3,0.6-0.5c6.6-6.6,20.5-20.1,31.9-27.1c0,0,0,0,0,0.1c0.8,2.2,9.6,26.1,34.9,34.1c2.6,0.8,5,1.6,7.1,2.5
			c20.4,8.6,24.3,21.5,24.4,25.1c0,1.2-0.6,2.5-1,3.8c-0.5,1.2-0.6,2.5-0.1,3.8c0.4,1.2,1.3,2.1,2.5,2.7c1,0.6,2.4,0.9,3.6,1.1
			c3.9,0.6,8.1,0.8,11.6,2.8c1.5,0.9,2.7,2.2,4.2,3.2c1.5,1,3.2,1.8,4.8,1.7c0,0.8,0.1,1.7,0.6,2.1c0.5,0.6,1.7,0.6,1.8-0.2
			c0.2,0.8,1.2,1.2,2,0.9c0.8-0.5,0.9-1.3,0.5-2.1c0.5,0.8,1.8,0.6,2.1-0.2c-0.1-0.2-0.1-0.5-0.3-0.6c0.5,0,0.8,0,1-0.2
			C324.8,238.9,325,238.6,324.8,238.2z"/>
	</g>
	<g>
		<path fill="#08090A" d="M191.6,94.3c-0.8-0.6-1.3-1.2-1.6-1.9c-0.6-1.1-0.6-1.1,0.1-2.1c0.5-0.6,1.1-1.5,1.7-2.7
			c1-2.9,0.1-4.9-0.6-6.8c-0.3-0.6-0.6-1.3-0.8-1.9c-0.3-1.4-0.1-1.7,0.3-2.7c0.2-0.4,0.6-1,0.9-1.9c-1.1-0.1-2.1-0.2-3.3-0.2
			c-9.6-0.4-9,11.1-9,17.7c0.6,0.8,1.1,1.2,1.6,1.6c0,0,5.4,6.9,11.6,11.9c1.5-0.8,3-2.2,2.7-5.6C194.6,97.3,192.9,95.7,191.6,94.3z
			"/>
		<path fill="#08090A" d="M199.3,45.2c-0.1-0.4-0.4-0.9-0.6-1.3c-1.3-2.7-3.8-4.3-6.8-4.8c-0.6-0.2-1.2-0.2-1.8-0.2
			c-1.2,0-2.4,0.2-3.3,0.8c-2.5-1.2-5.7-1.8-9-1.8c-4.5,0-9,1-12.4,3.2c-4.2,2.4-7.1,5.8-7.8,10.2c-0.3,1.2-0.3,2.5-0.3,3.8
			c-0.1,1.5-0.1,2.8-0.6,3.9c-0.1,0.6-2.7,1.3-3.9,1.7c-1.6,0.4-3.3,0.9-4.5,1.8c-4.2,3.2-4.2,7.3-4.2,10.8c0,3.5-0.1,5.4-2.4,7.2
			c-0.5,0.3-0.9,0.8-1.4,1c-2.9,2-7.1,5.1-4.8,10.7c0.3,0.9,0.8,1.5,1.1,2.2c1.1,1.8,1.1,2.1,0.4,3.1c-0.4,0.8-1.2,1.2-2.1,2
			c-1.4,1-3,2.4-3.8,4.6c-1.4,3.8,0.3,6.3,1.5,8.1c0.9,1.5,1.5,2.2,1.4,3.6c-0.1,1.7-1.1,3.2-2.1,4.8c-1.6,2.7-3.6,6-2.1,10.6
			c1.5,4.1,5.9,6.5,10.8,7.6c2.2-7.9,3.9-18.4,4.1-31.9c0,0,0-9,3.6-17.2c0.6-2.7,1.8-4.8,3.3-6.3c2.1-2.1,4.8-2.8,7.9-2.4
			c1.6,0.3,3,0.9,4.2,1.7c2-1.1,3.3-2.6,4.4-4.5c1.1-2.1,1.6-4.5,1.6-7.2c1.4-0.2,2.7-0.3,3.9-0.9c1.6-0.8,3-2.4,3-4.3
			c0-1.7-1.8-4.1-1.2-5.6c0.5-0.9,1.5-1.5,2.4-1.5c2.1,0,2.6,2.7,2.4,3.8c1.8-1.1,1.6-3.6,1.8-5.7c0.5-2.4,1.8-4.6,3.9-5.8
			c2.1-1.2,3.9-1.1,6-0.2c-0.4-0.6-0.9-1.2-1.5-1.8c0.6,0,1.1,0.1,1.7,0.3c2.5,0.8,3.8,3,4.2,5.2c0.3,1.6,0.5,2.2,0.8,3.9
			c0.1,1.1,0.5,1.7,0.6,2.2c1-1.8,1.8-4.2,2.2-6.6C200.3,50.7,200.3,47.7,199.3,45.2z"/>
	</g>
	<g>
		<path fill="#F0572F" d="M179.6,59.5l2.3-1.3c0.1-0.6,0.1-1.5,0.1-1.7l-3.8,2.1c0.1,0,0.3,0.1,0.4,0.1
			C179.2,59,179.5,59.3,179.6,59.5z"/>
		<path fill="#F0572F" d="M174.7,60.7l-7.6,4.2l-0.2,0.2v0.4h0.3l-0.3,0.3l0.5,0.3l0,0l7.4-4.1C174.7,61.6,174.5,61,174.7,60.7z"/>
		<path fill="#F0572F" d="M181.9,58.2l4.5-2.5l-0.6-1.2l0,0l-3.8,2.1c0,0,0,0,0,0.2C181.9,57.1,181.9,57.8,181.9,58.2z"/>
		<path fill="#F0572F" d="M189,54.3c0,0,0.2,0-0.2-0.7c-0.4-0.6-0.8-0.3-0.8-0.3l-0.3,0.2l0.8,1.1L189,54.3z"/>
		<polygon fill="#FFFFFF" points="167.2,65.5 166.9,65.4 166.9,65.1 164.9,66.7 167.3,66.1 167,65.8 		"/>
		<polygon fill="#FFFFFF" points="188.4,54.6 187.6,53.4 185.7,54.5 186.4,55.7 		"/>
	</g>
	<path d="M189.7,56.1c-0.1,0.2-0.1,0.3,0,0.3c0.4-0.5,0.9-0.9,1.5-1c0.6-0.2,1.4-0.3,1.9,0c0.2,0,0.3,0.2,0.5,0.2
		c0.8,0.5,1.4,0.9,1.6,1.6c0,0.2,0.3,0,0.3,0s0-0.1-0.2-0.3c-0.1-0.3-0.4-0.6-0.8-0.8c-0.6-0.6-1.2-1-2.1-1.2
		c-0.6-0.1-1.2,0-1.8,0.3C190.6,55.3,190.1,55.6,189.7,56.1z"/>
	<path d="M193,60.7c0.8,0,1.5-0.5,1.5-1.2c-0.6,0.5-1.6,0.3-2.1-0.3c-0.1-0.2-0.1-0.2-0.3-0.3c-0.1-0.2-0.3-0.2-0.5,0
		c-0.1,0-0.1,0.3-0.1,0.4C191.5,60,192.2,60.6,193,60.7z"/>
	<path d="M204.2,57.3c0.3-0.6,0.9-1.2,1.6-1.7c0.1-0.2,0.3-0.2,0.5-0.2c0.6-0.1,1.3-0.1,1.9,0c0.6,0.2,1.2,0.6,1.6,1
		c0.2,0,0-0.1,0-0.3c-0.4-0.5-0.9-0.9-1.5-1c-0.6-0.2-1.2-0.5-1.8-0.3c-0.8,0.2-1.4,0.8-2,1.2c-0.1,0.2-0.4,0.5-0.6,0.8
		c0,0.2-0.2,0.2,0,0.3C203.9,57.3,204.1,57.4,204.2,57.3z"/>
	<path d="M208.3,59.1c-0.1,0-0.3,0-0.4,0c-0.1,0.2-0.1,0.2-0.3,0.3c-0.6,0.6-1.6,0.6-2.1,0.2c-0.2,0.8,0.6,1.3,1.5,1.3
		c0.8,0,1.5-0.6,1.6-1.3C208.4,59.2,208.4,59.1,208.3,59.1z"/>
</g>
</svg>
