<?xml version="1.0" encoding="utf-8"?>
<!-- Generator: Adobe Illustrator 18.1.1, SVG Export Plug-In . SVG Version: 6.00 Build 0)  -->
<svg version="1.1" id="Layer_1" xmlns="http://www.w3.org/2000/svg" xmlns:xlink="http://www.w3.org/1999/xlink" x="0px" y="0px"
	 viewBox="0 0 360 360" enable-background="new 0 0 360 360" xml:space="preserve">
<g id="TESTE_x2C__TESTE_x2C__1_x2C__2_x2C__3">
	<g>
		<g>
			<path fill="#0CA6B5" d="M179.4,240c-0.2-2.8-1-13.5-3.8-20.1c0,0-0.5-5-4.2-8.3c-3.7-3.3-17-16.3-18.2-29.5l-2.5-6
				c0,0-1.9-2-4.3-5.5c-1.3-1.9-2.9-4.1-4.3-6.7c-0.1,10.9-0.9,35-5.4,48c-0.3,0.8-0.6,1.6-0.9,2.5c0.5,4.4,0.3,9.6-1.6,14.5
				c0,0,1.1,7.1,1,17.1c0.6,0.7,1.3,1.5,2,2.1c0.7,0.7,1.5,1.4,2.5,2c0,0-2.5,28,1.2,42.3c0,0,17.8,4.3,24.4,2.8
				c2.4-0.5,5.4-1.5,8.3-2.6C175.1,283.3,179.8,254.3,179.4,240z"/>
			<path fill="#0CA6B5" d="M186.2,227.6c-0.2,5,0.1,2.5,0,4c-0.1,1.2-2,7.4-3.8,9.4c0,0-0.5,1.4-2.6,0c0.3,4.5-0.2,17-5,51.2
				c4.9-1.8,9.2-3.7,9.2-3.7l3.5,12.3l2-13.8l12.6-6.5c0,0-1.1-34-15.7-53.8C186.2,227,186.2,227.3,186.2,227.6z"/>
			<path fill="#0CA6B5" d="M265.8,43l-5.2-1c-1.7-2-5.4-1-5.4-1c0-4.5-4.7-3-4.7-3c0-2.3-4.2-3-4.2-3c-4.5,0.5-4.2,13.8-4.2,13.8
				c-3,1.5-1.2,9-1.2,9s0,0,2,3c2,3,7.4,4.5,7.4,4.5c1,3-1.7,11.5-1.7,11.5c-4.9,9-9.1,25.5-9.1,25.5c-4.9-5.6-15.2-7-21.3-7.2
				c-0.2-0.3-0.5-0.6-0.7-1c-0.3-0.8,0-1.8,0-1.8l2.8,1.5l0.8-3.3l4.3,2.2c2.3-4.8,3.4-8.9,3.7-12.4c0.1-1.4,0.2-2.6,0.1-3.8
				c-0.5-8.7-5.8-12.5-5.8-12.5s-9.8-6.8-16.2-5c-0.6,0.2-1.2,0.4-1.8,0.8c-3.6,2.3-6.6,10.2-8.1,14c-0.1,0.2-0.1,0.4-0.2,0.5
				c-0.6,1.6-1.7,3.4-3.1,5.1c-1.7,2.2-3.8,4.5-5.9,6.5c-4-0.9-8.2-1.2-12.5-0.5c-0.9,0.1-1.7,0.3-2.6,0.5c0,0.3,0,0.6,0.1,1
				c0,0.5,0,1,0,1.5c0,3.5-0.6,7.7-2.4,12.7l-4.5-1.8l-0.3,2.1c-0.5-0.7-1.3-1.1-2.3-1.1c-1.6,0-2.9,1.3-2.9,2.9
				c0,1.5,1.2,2.8,2.8,2.9c0,0.3,0,0.6,0.1,0.9c0,0-0.6,2.4-2.6,2.5c-2,0-4.3-2.6-4.3-2.6s-4.1-1.2-5.9,3.8c0.3,0.4,0.6,0.9,0.9,1.3
				c0,0,10.1,10.8,4.5,25c0,0,1.2,4.8,2.2,5.8c1,1,11.1,11,9.6,29l1.2,2.8c0,0,4.9,2,9.2,14.1c2.6-5.6,6.5-15.8,4.8-22.8
				c0,0,8.1-8,10.4-17c0,0,10.8-1.7,14.4-21.3c10.2,2.2,23.3,1.3,23.3,1.3s23.4,6.5,25.1,4.5s2-7.3,2-7.3c4.9-9.3,3.7-23.8,3.7-28.3
				c0-4.5,3.7-28.3,3.7-28.3L265.8,43L265.8,43z"/>
		</g>
		<path fill="none" d="M195.5,306.3c0,0,0.8-3.3,0-7.7l-1.3,0.4C194.2,299,194.3,304,195.5,306.3z"/>
		<path fill="none" d="M193.3,299h-0.7c0,0,0.6,5.9,0,7.6h2C194.6,306.5,193.1,302.6,193.3,299z"/>
		<path fill="#FDFDFE" d="M173,295.6l1.4-0.6c0.1-1,0.3-1.9,0.4-2.8c-0.4,0.1-0.8,0.3-1.2,0.5C173.2,294.5,173,295.6,173,295.6z"/>
		<path fill="#FDFDFE" d="M179.8,241c-0.1-0.1-0.2-0.1-0.4-0.2c0,0,0-0.3,0-0.7c0.4,14.3-4.3,43.3-5.9,52.6c0.4-0.1,0.8-0.3,1.2-0.5
			C179.6,258,180,245.5,179.8,241z"/>
		<path fill="#8DC4D2" d="M179.8,241c-0.1-2.4-0.5-2.5-0.5-2.5c0,0.5,0,1,0.1,1.6c0,0.5,0,0.7,0,0.7
			C179.5,240.8,179.7,240.9,179.8,241z"/>
		<path fill="#8DC4D2" d="M133.2,264.5c-1.5,5.9-2.5,9.4-2.5,9.4C131.7,270.8,132.5,267.7,133.2,264.5z"/>
		<path d="M196.8,68c0.1,0.3,0.3,0.4,0.5,0.5c0.1-0.3,0.3-0.7,0.5-1C197.5,67.8,197.2,67.9,196.8,68z"/>
		<path d="M206.1,58.5L206.1,58.5C206.1,58.5,206.1,58.5,206.1,58.5z"/>
		<path d="M206.1,58.5L206.1,58.5C206.1,58.5,206.1,58.5,206.1,58.5z"/>
		<path d="M205.5,57.7l0.1,0.1C205.5,57.8,205.5,57.8,205.5,57.7z"/>
		<path d="M205.5,57.7l0.1,0.1C205.5,57.8,205.5,57.8,205.5,57.7z"/>
		<path d="M197.4,73.1c0,0.2,0,0.5-0.1,0.7c1.5-3.8,4.5-11.7,8.1-14c0.5-0.4,1.1-0.6,1.8-0.8l-1.6-1.2c0.2,0.2,0.5,0.6,0.5,0.7l0,0
			c0,0,0,0,0,0c-1.2-0.2-2.4,1.4-3.1,2c-0.9,0.8-1.5,1.8-2.2,2.7c-0.8,1.7-1.6,3.4-3,4.3c-0.2,0.3-0.4,0.7-0.5,1
			c0.5,0.3,1.2,0.3,1.7,0.3C198,69.8,197.6,71.6,197.4,73.1z"/>
		<path d="M224.2,72.5c0.5,0.2,0.9,0.2,1.2,0.3L207.2,59c-0.6,0.2-1.2,0.4-1.8,0.8c-3.6,2.3-6.6,10.2-8.1,14c-0.1,1-0.3,2.2-0.9,2.7
			c1.4,0,2.2,0.3,3.5-0.8c0.9-0.7,2.1-2.8,2.5-3.9c1-0.3,2-1.1,3-1.5c0.7-0.7,1.9-1.3,2.8-1.8c0.6-0.3,2.9-1.6,3.9-1.8
			c0.4-0.1,0.8-0.1,1.2,0c1.8,0.3,3.7,1.4,5.4,2.5c0.9,0.6,1.6,1.2,2.4,2c0.1-0.2,0.3-0.4,0.4-0.5C222.4,71.2,223.1,72.1,224.2,72.5
			z"/>
		<path d="M235.6,75.7c-0.6-0.5-1.2-1-1.7-1.8c-0.8-1.2-1.2-2.8-2.1-3.9c0.5,0.3,1.3,0.2,1.9,0.2c-0.5-1.3-1.1-2.8-2.2-3.3
			c0.7-0.1,1.8-0.1,2.3-1c-2.6,0-4-2.1-6-4c-1.5-1.4-2.9-2.2-4.5-3.2c-0.8-0.5-1.5-1.5-2.4-1.5c0.4-0.4,0.7-0.8,1.1-1.1
			c-0.9-0.8-2.5-1.2-3.5-1.4c-1.2-0.3-2.5-0.3-3.7-0.3c0-0.2,0-0.2,0-0.3c0-2-2.6-0.6-3.5-0.2c-0.7,0.3-1.3,0.7-1.9,1.2
			c-0.4,0.3-0.7,1-1,1.3c-0.5,0.3-1.1,0.3-1.6,0.5c-1.7,0.5-3.6,1.9-4.5,3.8c-0.4,0.8-0.8,1.7-1.2,2.6c-0.1,0.1-0.1,0.2-0.2,0.3
			c-1,1.3-2,2.5-2.7,4c-0.2,0.3-0.4,0.7-0.5,1c-0.2,0.4-0.4,0.8-0.5,1.2c-0.9,2.7-2.1,2.8-2.3,5.6c-0.1,1.5-0.4,2.8-0.6,4.2l0,0
			c1.1-1,4.1,1.5,5.4,0.6c0.6-0.5,4.4,0.1,4.3-2.5c0-0.6,0.7-4.7,1.2-5.3c0.9-1.1,2.7-0.8,3.3,0.6c0.4,1,0.7,2.3,1,3.4
			c0.6,2-0.1,3.2-0.9,5c0.6,0.3,1.2,0.5,1.8,1c1.3-1.5,2.1-3.3,3.9-4.4c1.1-0.7,2.3-0.6,3.6-0.9c1.5-0.2,2-1,2.1-2.4
			c0.1-1,0.1-1.6,0.8-2.5c0.2-0.3,0.5-0.6,0.7-0.9c0.5,0.5,1,1,1.5,1.5c1.9,1.8,4.2,3.3,6.6,4c0.9,0.2,1.8,0.4,2.7,0.4
			c-0.4-0.8-1-1.4-1.4-2.2C231.8,75.7,234.2,76.8,235.6,75.7z M206.1,58.5L206.1,58.5C206.1,58.5,206.1,58.5,206.1,58.5z
			 M225.4,72.8c0.2,0,0.5,0.1,0.7,0.3c0.8,0.5,1.4,1.3,2.2,1.9L225.4,72.8z"/>
		<path d="M226.1,73.1c-0.2-0.2-0.5-0.3-0.7-0.3l2.9,2.2C227.5,74.5,226.9,73.7,226.1,73.1z"/>
		<path d="M226.1,73.1c-0.2-0.2-0.5-0.3-0.7-0.3l2.9,2.2C227.5,74.5,226.9,73.7,226.1,73.1z"/>
		<path fill="#8DC4D2" d="M172.5,86.2L172.5,86.2C172.5,86.2,172.6,86.2,172.5,86.2C172.6,86.2,172.5,86.2,172.5,86.2z"/>
		<path fill="#8DC4D2" d="M164.5,104.3L164.5,104.3L164.5,104.3L164.5,104.3z"/>
		<path fill="#FBD106" d="M164.5,104.5c0.2,0.2,0.4,0.5,0.4,0.7c0,0.4-0.2,0.6-0.5,0.7c-0.4,0-0.2,0.1-0.5,0c0,0.3-0.3,1.1-0.3,1.1
			s-0.6,2.4-2.6,2.5c-2,0-4.3-2.6-4.3-2.6s-4.1-1.2-5.9,3.8c0.3,0.4,0.6,0.9,0.9,1.3c0,0,10.1,10.8,4.5,25c0,0,1.2,4.8,2.2,5.8
			c1,1,11.1,11,9.6,29l1.2,2.8c0,0,4.9,2,9.2,14.1c1.8,5.1,3.6,12,4.8,21.2c0,0,0,5,1.5,6.3c1.4,1.2,1.7,5.8,1.5,10.5
			c0,0.4,0,0.7,0,1c-0.2,5,0.1,2.5,0,4c-0.1,1.2-2,7.4-3.8,9.4c0,0-0.5,1.4-2.6,0c-0.1-2.4-0.5-2.5-0.5-2.5c0,0.5,0,1,0.1,1.6
			c-0.2-2.8-1-13.5-3.8-20.1c0,0-0.5-5-4.2-8.3c-3.7-3.3-17-16.3-18.2-29.5l-2.5-6c0,0-1.9-2-4.3-5.5c-1.3-1.9-2.9-4.1-4.3-6.7
			c-0.1,10.9-0.9,35-5.4,48c-0.3,0.8-0.6,1.6-0.9,2.5c0.5,4.4,0.3,9.6-1.6,14.5c0,0,1.1,7.1,1,17.1c0.6,0.7,1.3,1.5,2,2.1
			c-1.5,6.5-2.8,12-3.9,16.4c-1.5,5.9-2.5,9.4-2.5,9.4c-12.3-0.5-22.2-12-26.9-14c-4.7-2-9.1-2-9.1-2l1.2-7.3
			c-22.2-22.8,5.2-41.5,5.2-41.5s2.5-8.5,4.7-15.8c2.2-7.3,0.5-10.5,0.2-12.8c-0.2-2.3-4.7-10.8-3-45c1.1-21.8,14.4-28.5,23.9-30.5
			c3-3.1,7.5-8.1,10.5-12.8c0,0.1,0,0.2,0,0.2c1-0.2,5-2.5,5.4-3.7c0.6-2,0.3-4.9,2-6c1.6-1.1,3.9-0.1,4.3,2.1
			c0.3,1.7-1,3.3-1.4,4.8c0.9-0.3,1.8-0.5,2.2-1.2c0.5-0.8,0.1-1.9,0.8-2.7c1.3-1.6,4.1-1.4,5.3-2.6c0.9-1,1.2-2.7,2.7-3
			c1.7-0.2,2,1.6,1.5,3.1c1.2-1.1,1.5-3.9,3-4.6c1.1,3.7,0.8,7,4.5,9c0-1.3-0.6-2.6-0.4-3.9c0.4,1,1,2.2,2,2.2c-1-1.7-1.2-3-1.5-4.9
			c1.3,2,3.1,3.3,3.7,5.4c0.2,0.7,0.2,1.5,0.1,2.4c0.6-0.6,1-1.6,0.9-2.7l0,0c0.2,0.3,0.3,0.5,0.5,0.9c0,0.5,0,1,0,1.5
			c0,3.5-0.6,7.7-2.4,12.7l-4.5-0.6l-0.4,2.1c0.1,0.5,0.3,0.6-0.1,1c-0.3,0.3-3.5-2-3.7-2.2c0,0,0.2,1.3,0.9,1.9
			C163.5,104.1,164.4,104.4,164.5,104.5z"/>
		<path fill="#8DC4D2" d="M142.8,88.8c0.6-2,0.3-4.9,2-6c1.6-1.1,3.9-0.1,4.3,2.1c0.3,1.7-1,3.3-1.4,4.8c0.9-0.3,1.8-0.5,2.2-1.2
			c0.5-0.8,0.1-1.9,0.8-2.7c1.3-1.6,4.1-1.4,5.3-2.6c0.9-1,1.2-2.7,2.7-3c1.7-0.2,2,1.6,1.5,3.1c1.2-1.1,1.5-3.9,3-4.6
			c1.1,3.7,0.8,7,4.5,9c0-1.3-0.6-2.6-0.4-3.9c0.4,1,1,2.2,2,2.2c-1-1.7-1.2-3-1.5-4.9c1.3,2,3.1,3.3,3.7,5.4c0.3-0.1,0.7-0.2,1-0.3
			l0,0l0,0c0.1,0,0.3-0.1,0.4-0.1c-1-9.7-7.2-13.2-7.2-13.2S153,66,147.4,70.5c-3.5,2.8-5.7,11.6-6.7,15.3c-0.5,2-1.7,4.2-3.2,6.5
			c0,0.1,0,0.2,0,0.2C138.5,92.3,142.5,90,142.8,88.8z"/>
		<path fill="#8DC4D2" d="M172.6,86.2c0.2,0.3,0.3,0.5,0.5,0.9c0-0.3,0-0.6-0.1-1C172.9,86.1,172.7,86.2,172.6,86.2z"/>
		<path fill="#8DC4D2" d="M171.6,88.9c0.6-0.6,1-1.6,0.9-2.7c-0.3,0.1-0.7,0.2-1,0.3C171.8,87.2,171.8,88,171.6,88.9z"/>
		<path d="M173.7,82.6c1.6,0.9,1.5,0.7,3.1,1.6c-1.4-3.4-0.4-4.9-2.6-7.9c-2.9-3.8-7-6-11-7.5c0.5-0.2,1.1-0.7,1.3-1.3
			c-2.7,0.8-6-1.5-8.8-1.6c-3-0.2-4.3,1.7-6.6,3c-0.4-0.7-0.5-1.5-0.3-2.2c-2,1-3.2,2.4-4.4,4.4c-1.3,2.1-3.4,3-4.5,5.5
			c-2.4,5.4-1.9,9.9-2.2,15.6c0,0.1,0,0.2,0,0.2c1-0.2,5-2.5,5.4-3.7c0.6-2,0.3-4.9,2-6c1.6-1.1,3.9-0.1,4.3,2.1
			c0.3,1.7-1,3.3-1.4,4.8c0.9-0.3,1.8-0.5,2.2-1.2c0.5-0.8,0.1-1.9,0.8-2.7c1.3-1.6,4.1-1.4,5.3-2.6c0.9-1,1.2-2.7,2.7-3
			c1.7-0.2,2,1.6,1.5,3.1c1.2-1.1,1.5-3.9,3-4.6c1.1,3.7,0.8,7,4.5,9c0-1.3-0.6-2.6-0.4-3.9c0.4,1,1,2.2,2,2.2c-1-1.7-1.2-3-1.5-4.9
			c1.3,2,3.1,3.3,3.7,5.4c0.2,0.7,0.2,1.5,0.1,2.4c0.6-0.6,1-1.6,0.9-2.7l0,0l0,0c0.2,0.3,0.3,0.5,0.5,0.9c0.9,1.7,1.5,4,1.8,5.6
			c1-2.1,1.8-4.4,0.7-7.1C175.2,84.6,174.6,83.7,173.7,82.6z"/>
		<path d="M168,299.3c-4.7-1.5-10.5-2.5-13.1-2.3c-3.9,0.4-14.3-1.3-14.3-1.3l1.5,8l0.6,0.1c3.6,0.9,14.1,0.8,18,0.5
			c1.7-0.1,4.4,0.4,7.3,1.2C167.6,303.2,167.8,300.9,168,299.3z"/>
		<path d="M181.9,304.4c-1.7-0.5-8.7-2.7-8.7-2.7c-0.8-0.5-1.9-1.1-3.1-1.6c-0.4,2.2-0.4,4.5-0.3,6.1c3.1,1,6.2,2.2,8.2,3.1
			c4.2,1.9,5.8,1.8,5.8,1.8c4.3-0.5,3.5-1.6,3.5-1.6S183.5,304.8,181.9,304.4z"/>
		<path d="M195.7,287.9c0,0-1.6-0.1-2.5,0.5c0,0-2.6,2.5-2.1,9.1l0.4-0.1l4.5-1c0.2-0.6,0.3-1.3,0.3-2l0.8,0.1c0,0,0.5-1.3,0.4-3.3
			l-0.7-0.1c0,0-0.4-2,0.4-2.7c0,0,0,0,0.1,0c0-0.6-0.2-1.5-0.6-2.3C196.4,286.5,196.1,287.1,195.7,287.9z"/>
		<path d="M200.8,283.3c-1.1,0.7-1.9,1.1-2.6,1.5c0.4,0.6,0.9,1.7,1,3c1.5-0.5,3.4-1,4.5-1c0,0,0.8-1.7-0.3-5.6
			C203.4,281.1,203.2,281.7,200.8,283.3z"/>
		<path d="M193.3,298.6c-2.1,0-2.1-0.8-2.1-0.8c0-0.1,0-0.1,0-0.2l-0.7,0.1c0,0-0.2,0.1,0.2,1.4c0,0,1.2,4.8,0,7.7v1.7l6.1-0.3
			c0,0,2.4-5.5-0.7-11.8l0,0c-0.3,1-0.7,1.7-0.7,1.7S195.4,298.6,193.3,298.6z M192.6,306.5c0.6-1.7,0-7.6,0-7.6h0.7
			c-0.2,3.7,1.4,7.6,1.4,7.6H192.6z M195.5,306.3c-1.3-2.3-1.3-7.3-1.3-7.3l1.3-0.4C196.4,303,195.5,306.3,195.5,306.3z"/>
		<path d="M191.1,297.5c0,0.1,0,0.1,0,0.2c0,0,0,0.8,2.1,0.8s2.1-0.4,2.1-0.4s0.4-0.7,0.7-1.7l-4.5,1L191.1,297.5z"/>
		<path fill="#FFFFFF" d="M197.4,289.4h1.5c0.2-0.5,0.3-1.1,0.3-1.6c-0.8,0.3-1.5,0.5-1.8,0.6C197.5,289,197.4,289.4,197.4,289.4z"
			/>
		<path fill="#FFFFFF" d="M198.2,284.8c-0.2-0.3-0.3-0.5-0.3-0.5l-1.5,1.1c0.2,0.2,0.3,0.5,0.5,0.6
			C197.2,285.5,197.7,285.2,198.2,284.8z"/>
		<path fill="#FFFFFF" d="M196.8,286.1c0.5,0.8,0.6,1.7,0.6,2.3c0.3-0.1,0.9-0.4,1.8-0.6c0-1.2-0.6-2.3-1-3
			C197.7,285.2,197.2,285.5,196.8,286.1z"/>
		<path fill="#FFFFFF" d="M168.5,308.5l1.5-0.1c0,0-0.2-0.9-0.3-2.3c-0.6-0.2-1.2-0.4-1.8-0.5C168,306.5,168.2,307.5,168.5,308.5z"
			/>
		<path fill="#FFFFFF" d="M170.2,299.3l-1.8-2.4c0,0-0.2,0.9-0.4,2.3c0.7,0.2,1.4,0.5,2,0.7C170,299.8,170.1,299.5,170.2,299.3z"/>
		<path fill="#FFFFFF" d="M170,300c-0.6-0.3-1.3-0.5-2-0.7c-0.2,1.6-0.4,3.9-0.1,6.3c0.6,0.2,1.2,0.4,1.8,0.5
			C169.6,304.5,169.6,302.2,170,300z"/>
		<path d="M140.5,295.7c0,0-1.3-0.2-2.2-1.4v7.7c0,0,0.6,1.3,3.7,1.7l0,0l-1.5-0.4C140.6,303.3,140.7,298.1,140.5,295.7z"/>
		<path d="M140.6,303.3l1.5,0.4l-1.5-8C140.7,298.1,140.6,303.3,140.6,303.3z"/>
		<path d="M140.6,303.3l1.5,0.4l-1.5-8C140.7,298.1,140.6,303.3,140.6,303.3z"/>
	</g>
	<path d="M219.8,80.3c-0.2-0.5,0.1-0.8,0.5-1c0.9-0.3,2,0.3,2.9,1c1.2,0.9,2.4,2,2.6,3.1c-0.5,0-0.8-0.5-1.2-0.8
		C223.4,81.4,221.5,80.5,219.8,80.3z"/>
	<path d="M163.5,89.1c-0.5-0.1-1-0.1-1.3-0.5c1.1-0.5,2.7-0.3,4.1,0.2c1,0.3,2.2,0.9,2.5,1.8c0.1,0.4,0,0.9-0.5,1
		C167.1,90.3,165.3,89.4,163.5,89.1z"/>
	<path d="M223.2,84.8c-0.6,0.3-1.6,0.3-2.3-0.1c-0.7-0.4-0.9-1.1-0.3-1.5c0.1,0.6,1,1.1,1.9,1c0.1,0,0.3,0,0.5,0
		c0.1,0,0.3,0.1,0.4,0.2C223.5,84.6,223.3,84.7,223.2,84.8z"/>
	<path d="M166.3,93.2c-0.6,0.3-1.6,0.3-2.3-0.1c-0.7-0.4-0.9-1.1-0.3-1.5c0.1,0.6,1,1.1,1.9,1c0.1,0,0.3,0,0.5,0
		c0.1,0,0.3,0.1,0.4,0.2C166.5,93,166.4,93.1,166.3,93.2z"/>
</g>
</svg>
