<svg xmlns="http://www.w3.org/2000/svg" viewBox="125.5 35 139.6 216"><path fill="#0CA6B5" d="M265.1 41.3l-4.1-.8c-1.3-1.6-4.2-.8-4.2-.8 0-3.5-3.7-2.3-3.7-2.3 0-1.8-3.3-2.3-3.3-2.3-3.5.4-3.3 10.8-3.3 10.8-2.3 1.2-.9 7-.9 7l1.6 2.3c1.6 2.3 5.8 3.5 5.8 3.5.8 2.3-1.3 9-1.3 9-3.8 7-7.1 19.9-7.1 19.9-3.8-4.4-11.9-5.5-16.7-5.6-.2-.2-.4-.5-.5-.8-.2-.6 0-1.4 0-1.4l2.2 1.2.6-2.6 3.4 1.7c1.8-3.8 2.7-7 2.9-9.7.1-1.1.2-2 .1-3-.4-6.8-4.5-9.8-4.5-9.8s-7.7-5.3-12.7-3.9c-.5.2-.9.3-1.4.6-2.8 1.8-5.2 8-6.3 11-.1.2-.1.3-.2.4-.5 1.3-1.3 2.7-2.4 4-1.3 1.7-3 3.5-4.6 5.1-3.1-.7-6.4-.9-9.8-.4-.7.1-1.3.2-2 .4 0 .2 0 .5.1.8v1.2c0 2.7-.5 6-1.9 9.9l-3.5-1.4-.2 1.6c-.4-.5-1-.9-1.8-.9-1.3 0-2.3 1-2.3 2.3 0 1.2.9 2.2 2.2 2.3 0 .2 0 .5.1.7 0 0-.5 1.9-2 2-1.6 0-3.4-2-3.4-2s-3.2-.9-4.6 3c.2.3.5.7.7 1 0 0 7.9 8.4 3.5 19.6 0 0 .9 3.8 1.7 4.5.8.8 8.7 8.6 7.5 22.7l.9 2.2s3.8 1.6 7.2 11c2-4.4 5.1-12.4 3.8-17.8 0 0 6.3-6.3 8.1-13.3 0 0 8.4-1.3 11.3-16.7 8 1.7 18.2 1 18.2 1s18.3 5.1 19.6 3.5c1.3-1.6 1.6-5.7 1.6-5.7 3.8-7.3 2.9-18.6 2.9-22.1s2.9-22.1 2.9-22.1l-.2-20.8z"/><path fill="none" d="M210.1 247.2s.6-2.6 0-6l-1 .3s.1 3.9 1 5.7zM208.4 241.5h-.5s.5 4.6 0 5.9h1.6c-.1 0-1.3-3-1.1-5.9zM197.8 196.2c.2 3.5-.2 13.3-4 40.1-.1 0-.1.1-.2.1.1 0 .2-.1.3-.1 3.8-26.8 4.2-36.6 3.9-40.1z"/><path fill="none" d="M197.5 196.5c0 5.7-.8 13.7-1.8 21.3 1.1-7.5 1.9-15.6 1.8-21.3z"/><path fill="#0CA6B5" d="M197.5 196.5v-.5-.5 0c-.2-2.2-.8-10.6-3-15.7 0 0-.4-3.9-3.3-6.5s-13.3-12.8-14.2-23.1l-2-4.7s-1.5-1.6-3.4-4.3c-1-1.5-2.3-3.2-3.4-5.2-.1 8.5-.7 27.4-4.2 37.6-.2.6-.5 1.3-.7 2 .4 3.4.2 7.5-1.3 11.3 0 0 .9 5.6.8 13.4.5.5 1 1.2 1.6 1.6.5.5 1.2 1.1 2 1.6 0 0-2 21.9.9 33.1 0 0 13.9 3.4 19.1 2.2 1.9-.4 4.2-1.2 6.4-2 .6-3.6 1.8-10.9 2.8-18.7 1.1-7.8 2-15.9 1.9-21.6zM203 185c-.2.2-.2.5-.2.7-.2 3.9.1 2 0 3.1-.1.9-1.6 5.8-3 7.4 0 0-.4 1.1-2 0 .2 3.5-.2 13.3-3.9 40.1 3.8-1.4 7.2-2.9 7.2-2.9l2.7 9.6 1.6-10.8 9.9-5.1s-.9-26.6-12.3-42.1z"/><path fill="#FDFDFE" d="M197.5 196v-.5.5zM197.5 196.5v-.5.5zM197.8 196.2 193.2 236.5c.1-.1.3-.1.4-.2-.1.1-.2.1-.4.2z"/><path fill="#8DC4D2" d="M197.8 196.2c-.1-1.9-.4-2-.4-2 0 .4 0 .8.1 1.3v.5c.1 0 .3.1.3.2zM161.4 214.5c-1.2 4.6-2 7.4-2 7.4.8-2.4 1.4-4.9 2-7.4z"/><path d="M211.1 60.8c.1.2.2.3.4.4.1-.2.2-.5.4-.8-.2.3-.4.3-.8.4zM218.4 53.4zM218.4 53.4zM217.9 52.8zM217.9 52.8z"/><path d="M211.6 64.8c0 .2 0 .4-.1.5 1.2-3 3.5-9.2 6.3-11 .4-.3.9-.5 1.4-.6l-1.3-.9c.2.2.4.5.4.5-.9-.2-1.9 1.1-2.4 1.6-.7.6-1.2 1.4-1.7 2.1-.6 1.3-1.3 2.7-2.3 3.4-.2.2-.3.5-.4.8.4.2.9.2 1.3.2-.7.8-1 2.2-1.2 3.4zM232.6 64.3c.4.2.7.2.9.2l-14.2-10.8c-.5.2-.9.3-1.4.6-2.8 1.8-5.2 8-6.3 11-.1.8-.2 1.7-.7 2.1 1.1 0 1.7.2 2.7-.6.7-.5 1.6-2.2 2-3.1.8-.2 1.6-.9 2.3-1.2.5-.5 1.5-1 2.2-1.4.5-.2 2.3-1.3 3.1-1.4.3-.1.6-.1.9 0 1.4.2 2.9 1.1 4.2 2 .7.5 1.3.9 1.9 1.6.1-.2.2-.3.3-.4.7.4 1.2 1.1 2.1 1.4z"/><path d="M241.5 66.8c-.5-.4-.9-.8-1.3-1.4-.6-.9-.9-2.2-1.6-3.1.4.2 1 .2 1.5.2-.4-1-.9-2.2-1.7-2.6.5-.1 1.4-.1 1.8-.8-2 0-3.1-1.6-4.7-3.1-1.2-1.1-2.3-1.7-3.5-2.5-.6-.4-1.2-1.2-1.9-1.2.3-.3.5-.6.9-.9-.7-.6-2-.9-2.7-1.1-.9-.2-2-.2-2.9-.2v-.2c0-1.6-2-.5-2.7-.2-.5.2-1 .5-1.5.9-.3.2-.5.8-.8 1-.4.2-.9.2-1.3.4-1.3.4-2.8 1.5-3.5 3-.3.6-.6 1.3-.9 2-.1.1-.1.2-.2.2-.8 1-1.6 2-2.1 3.1-.2.2-.3.5-.4.8-.2.3-.3.6-.4.9-.7 2.1-1.6 2.2-1.8 4.4-.1 1.2-.3 2.2-.5 3.3.9-.8 3.2 1.2 4.2.5.5-.4 3.4.1 3.4-2 0-.5.5-3.7.9-4.1.7-.9 2.1-.6 2.6.5.3.8.5 1.8.8 2.7.5 1.6-.1 2.5-.7 3.9.5.2.9.4 1.4.8 1-1.2 1.6-2.6 3.1-3.4.9-.5 1.8-.5 2.8-.7 1.2-.2 1.6-.8 1.6-1.9.1-.8.1-1.3.6-2 .2-.2.4-.5.5-.7l1.2 1.2c1.5 1.4 3.3 2.6 5.2 3.1.7.2 1.4.3 2.1.3-.3-.6-.8-1.1-1.1-1.7.6.6 2.5 1.5 3.6.6zm-23.1-13.4zm15.1 11.2c.2 0 .4.1.5.2.6.4 1.1 1 1.7 1.5l-2.2-1.7z"/><path d="M234.1 64.8c-.2-.2-.4-.2-.5-.2l2.3 1.7c-.7-.4-1.2-1-1.8-1.5z"/><path d="M234.1 64.8c-.2-.2-.4-.2-.5-.2l2.3 1.7c-.7-.4-1.2-1-1.8-1.5z"/><path fill="#8DC4D2" d="M192.1 75.1s.1 0 0 0c.1 0 0 0 0 0zM185.9 89.2z"/><path fill="#FBD106" d="M185.9 89.4c.2.2.3.4.3.5 0 .3-.2.5-.4.5-.3 0-.2.1-.4 0 0 .2-.2.9-.2.9s-.5 1.9-2 2c-1.6 0-3.4-2-3.4-2s-3.2-.9-4.6 3c.2.3.5.7.7 1 0 0 7.9 8.4 3.5 19.6 0 0 .9 3.8 1.7 4.5.8.8 8.7 8.6 7.5 22.7l.9 2.2s3.8 1.6 7.2 11c1.4 4 2.8 9.4 3.8 16.6 0 0 0 3.9 1.2 4.9 1.1.9 1.3 4.5 1.2 8.2v.8c-.2 3.9.1 2 0 3.1-.1.9-1.6 5.8-3 7.4 0 0-.4 1.1-2 0-.1-1.9-.4-2-.4-2 0 .4 0 .8.1 1.3-.2-2.2-.8-10.6-3-15.7 0 0-.4-3.9-3.3-6.5s-13.3-12.8-14.2-23.1l-2-4.7s-1.5-1.6-3.4-4.3c-1-1.5-2.3-3.2-3.4-5.2-.1 8.5-.7 27.4-4.2 37.6-.2.6-.5 1.3-.7 2 .4 3.4.2 7.5-1.3 11.3 0 0 .9 5.6.8 13.4.5.5 1 1.2 1.6 1.6-1.2 5.1-2.2 9.4-3.1 12.8-1.2 4.6-2 7.4-2 7.4-9.6-.4-17.4-9.4-21-11-3.7-1.6-7.1-1.6-7.1-1.6l.9-5.7c-17.4-17.8 4.1-32.5 4.1-32.5s2-6.6 3.7-12.4c1.7-5.7.4-8.2.2-10-.2-1.8-3.7-8.4-2.3-35.2.9-17.1 11.3-22.3 18.7-23.9 2.3-2.4 5.9-6.3 8.2-10v.2c.8-.2 3.9-2 4.2-2.9.5-1.6.2-3.8 1.6-4.7 1.3-.9 3.1-.1 3.4 1.6.2 1.3-.8 2.6-1.1 3.8.7-.2 1.4-.4 1.7-.9.4-.6.1-1.5.6-2.1 1-1.3 3.2-1.1 4.1-2 .7-.8.9-2.1 2.1-2.3 1.3-.2 1.6 1.3 1.2 2.4.9-.9 1.2-3.1 2.3-3.6.9 2.9.6 5.5 3.5 7 0-1-.5-2-.3-3.1.3.8.8 1.7 1.6 1.7-.8-1.3-.9-2.3-1.2-3.8 1 1.6 2.4 2.6 2.9 4.2.2.5.2 1.2.1 1.9.5-.5.8-1.3.7-2.1.2.2.2.4.4.7v1.2c0 2.7-.5 6-1.9 9.9l-3.5-.5-.3 1.6c.1.4.2.5-.1.8-.2.2-2.7-1.6-2.9-1.7 0 0 .2 1 .7 1.5.5.4 1.2.6 1.3.7z"/><path fill="#8DC4D2" d="M168.9 77.1c.5-1.6.2-3.8 1.6-4.7 1.3-.9 3.1-.1 3.4 1.6.2 1.3-.8 2.6-1.1 3.8.7-.2 1.4-.4 1.7-.9.4-.6.1-1.5.6-2.1 1-1.3 3.2-1.1 4.1-2 .7-.8.9-2.1 2.1-2.3 1.3-.2 1.6 1.3 1.2 2.4.9-.9 1.2-3.1 2.3-3.6.9 2.9.6 5.5 3.5 7 0-1-.5-2-.3-3.1.3.8.8 1.7 1.6 1.7-.8-1.3-.9-2.3-1.2-3.8 1 1.6 2.4 2.6 2.9 4.2.2-.1.5-.2.8-.2.1 0 .2-.1.3-.1-.8-7.6-5.6-10.3-5.6-10.3s-9.9-5.4-14.3-1.9c-2.7 2.2-4.5 9.1-5.2 12-.4 1.6-1.3 3.3-2.5 5.1v.2c.7-.3 3.9-2.1 4.1-3zM192.2 75.1c.2.2.2.4.4.7 0-.2 0-.5-.1-.8-.1 0-.2.1-.3.1z"/><path fill="#8DC4D2" d="M191.4 77.2c.5-.5.8-1.3.7-2.1-.2.1-.5.2-.8.2.3.5.3 1.2.1 1.9z"/><path d="M193.1 72.2c1.3.7 1.2.5 2.4 1.3-1.1-2.7-.3-3.8-2-6.2-2.3-3-5.5-4.7-8.6-5.9.4-.2.9-.5 1-1-2.1.6-4.7-1.2-6.9-1.3-2.3-.2-3.4 1.3-5.2 2.3-.3-.5-.4-1.2-.2-1.7-1.6.8-2.5 1.9-3.4 3.4-1 1.6-2.7 2.3-3.5 4.3-1.9 4.2-1.5 7.7-1.7 12.2v.2c.8-.2 3.9-2 4.2-2.9.5-1.6.2-3.8 1.6-4.7 1.3-.9 3.1-.1 3.4 1.6.2 1.3-.8 2.6-1.1 3.8.7-.2 1.4-.4 1.7-.9.4-.6.1-1.5.6-2.1 1-1.3 3.2-1.1 4.1-2 .7-.8.9-2.1 2.1-2.3 1.3-.2 1.6 1.3 1.2 2.4.9-.9 1.2-3.1 2.3-3.6.9 2.9.6 5.5 3.5 7 0-1-.5-2-.3-3.1.3.8.8 1.7 1.6 1.7-.8-1.3-.9-2.3-1.2-3.8 1 1.6 2.4 2.6 2.9 4.2.2.5.2 1.2.1 1.9.5-.5.8-1.3.7-2.1.2.2.2.4.4.7.7 1.3 1.2 3.1 1.4 4.4.8-1.6 1.4-3.4.5-5.6-.5-.6-.9-1.3-1.6-2.2zM210.3 232.9s-1.3-.1-2 .4c0 0-2 2-1.6 7.1l.3-.1 3.5-.8c.2-.5.2-1 .2-1.6l.6.1s.4-1 .3-2.6l-.5-.1s-.3-1.6.3-2.1h.1c0-.5-.2-1.2-.5-1.8-.2.4-.4.8-.7 1.5zM208.4 241.2c-1.6 0-1.6-.6-1.6-.6v-.2l-.5.1s-.2.1.2 1.1c0 0 .9 3.8 0 6v1.3l4.8-.2s1.9-4.3-.5-9.2c-.2.8-.5 1.3-.5 1.3s-.3.4-1.9.4zm-.5 6.2c.5-1.3 0-5.9 0-5.9h.5c-.2 2.9 1.1 5.9 1.1 5.9h-1.6zm2.2-.2c-1-1.8-1-5.7-1-5.7l1-.3c.7 3.5 0 6 0 6z"/><path d="M206.7 240.4v.2s0 .6 1.6.6 1.6-.3 1.6-.3.3-.5.5-1.3l-3.5.8h-.2z"/><g><path fill="none" d="M213 232.8c-.7.2-1.2.4-1.4.5.2-.1.8-.3 1.4-.5zM212.2 230.4c.1.2.3.5.4.8-.1-.3-.2-.6-.4-.8z"/><path d="M216.3 227.6c0-.1-.2.4-2 1.6-.9.5-1.5.9-2 1.2.1.2.3.5.4.8.2.4.4 1 .4 1.5 1.2-.4 2.7-.8 3.5-.8-.1.1.6-1.2-.3-4.3z"/><path fill="#FFF" d="M211.6 233.2"/></g><path d="M203.7 249.7s-3-3.7-4.2-4c-1.3-.4-6.8-2.1-6.8-2.1-.6-.4-1.5-.9-2.4-1.3-.3 1.7-.3 3.5-.2 4.8 2.4.8 4.9 1.7 6.4 2.4 3.3 1.5 4.5 1.4 4.5 1.4 3.3-.3 2.7-1.2 2.7-1.2zM167.2 244.9l1.2.3-1.2-6.3c.1 1.9 0 6 0 6z"/><g><path d="M188.6 241.8c-3.7-1.2-8.2-2-10.2-1.8-3.1.3-11.2-1-11.2-1 .1 1.9 0 5.9 0 5.9l1.2.3.5.1c2.8.7 11 .6 14.1.4 1.3-.1 3.4.3 5.6.9-.3-1.8-.1-3.6 0-4.8zM167.1 239s-1-.2-1.7-1.1v6s.5 1 2.9 1.3l-1.2-.3c.1 0 .2-4.1 0-5.9z"/></g><path d="M229.1 70.4c-.2-.4.1-.6.4-.8.7-.2 1.6.2 2.3.8.9.7 1.9 1.6 2 2.4-.4 0-.6-.4-.9-.6-.9-.9-2.4-1.6-3.8-1.8zM185.1 77.3c-.4-.1-.8-.1-1-.4.9-.4 2.1-.2 3.2.2.8.2 1.7.7 2 1.4.1.3 0 .7-.4.8-1-1-2.4-1.7-3.8-2zM231.8 74c-.5.2-1.3.2-1.8-.1-.5-.3-.7-.9-.2-1.2.1.5.8.9 1.5.8h.4c.1 0 .2.1.3.2 0 .1-.1.2-.2.3zM187.3 80.5c-.5.2-1.3.2-1.8-.1-.5-.3-.7-.9-.2-1.2.1.5.8.9 1.5.8h.4c.1 0 .2.1.3.2-.1.2-.1.3-.2.3z"/></svg>