<?xml version="1.0" encoding="utf-8"?>
<!-- Generator: Adobe Illustrator 18.1.1, SVG Export Plug-In . SVG Version: 6.00 Build 0)  -->
<svg version="1.1" id="Layer_1" xmlns="http://www.w3.org/2000/svg" xmlns:xlink="http://www.w3.org/1999/xlink" x="0px" y="0px"
	 viewBox="125.5 35 139.6 216" enable-background="new 125.5 35 139.6 216" xml:space="preserve">
<g id="TESTE_x2C__TESTE_x2C__1_x2C__2_x2C__3">
	<g>
		<path fill="#0CA6B5" d="M265.1,41.3l-4.1-0.8c-1.3-1.6-4.2-0.8-4.2-0.8c0-3.5-3.7-2.3-3.7-2.3c0-1.8-3.3-2.3-3.3-2.3
			c-3.5,0.4-3.3,10.8-3.3,10.8c-2.3,1.2-0.9,7-0.9,7s0,0,1.6,2.3c1.6,2.3,5.8,3.5,5.8,3.5c0.8,2.3-1.3,9-1.3,9
			c-3.8,7-7.1,19.9-7.1,19.9c-3.8-4.4-11.9-5.5-16.7-5.6c-0.2-0.2-0.4-0.5-0.5-0.8c-0.2-0.6,0-1.4,0-1.4l2.2,1.2l0.6-2.6l3.4,1.7
			c1.8-3.8,2.7-7,2.9-9.7c0.1-1.1,0.2-2,0.1-3c-0.4-6.8-4.5-9.8-4.5-9.8s-7.7-5.3-12.7-3.9c-0.5,0.2-0.9,0.3-1.4,0.6
			c-2.8,1.8-5.2,8-6.3,11c-0.1,0.2-0.1,0.3-0.2,0.4c-0.5,1.3-1.3,2.7-2.4,4c-1.3,1.7-3,3.5-4.6,5.1c-3.1-0.7-6.4-0.9-9.8-0.4
			c-0.7,0.1-1.3,0.2-2,0.4c0,0.2,0,0.5,0.1,0.8c0,0.4,0,0.8,0,1.2c0,2.7-0.5,6-1.9,9.9l-3.5-1.4l-0.2,1.6c-0.4-0.5-1-0.9-1.8-0.9
			c-1.3,0-2.3,1-2.3,2.3c0,1.2,0.9,2.2,2.2,2.3c0,0.2,0,0.5,0.1,0.7c0,0-0.5,1.9-2,2c-1.6,0-3.4-2-3.4-2s-3.2-0.9-4.6,3
			c0.2,0.3,0.5,0.7,0.7,1c0,0,7.9,8.4,3.5,19.6c0,0,0.9,3.8,1.7,4.5c0.8,0.8,8.7,8.6,7.5,22.7l0.9,2.2c0,0,3.8,1.6,7.2,11
			c2-4.4,5.1-12.4,3.8-17.8c0,0,6.3-6.3,8.1-13.3c0,0,8.4-1.3,11.3-16.7c8,1.7,18.2,1,18.2,1s18.3,5.1,19.6,3.5
			c1.3-1.6,1.6-5.7,1.6-5.7c3.8-7.3,2.9-18.6,2.9-22.1s2.9-22.1,2.9-22.1L265.1,41.3L265.1,41.3z"/>
		<path fill="none" d="M210.1,247.2c0,0,0.6-2.6,0-6l-1,0.3C209.1,241.5,209.2,245.4,210.1,247.2z"/>
		<path fill="none" d="M208.4,241.5h-0.5c0,0,0.5,4.6,0,5.9h1.6C209.4,247.4,208.2,244.4,208.4,241.5z"/>
		<g>
			<path fill="none" d="M197.8,196.2c0.2,3.5-0.2,13.3-4,40.1c-0.1,0-0.1,0.1-0.2,0.1c0.1,0,0.2-0.1,0.3-0.1
				C197.7,209.5,198.1,199.7,197.8,196.2z"/>
			<path fill="none" d="M197.5,196.5c0,5.7-0.8,13.7-1.8,21.3C196.8,210.3,197.6,202.2,197.5,196.5z"/>
			<path fill="#0CA6B5" d="M197.5,196.5c0-0.2,0-0.3,0-0.5c0,0,0,0,0,0c0,0,0-0.2,0-0.5c0,0.2,0,0.4,0,0.6c0,0,0,0,0,0
				c0-0.2,0-0.4,0-0.6c-0.2-2.2-0.8-10.6-3-15.7c0,0-0.4-3.9-3.3-6.5c-2.9-2.6-13.3-12.8-14.2-23.1l-2-4.7c0,0-1.5-1.6-3.4-4.3
				c-1-1.5-2.3-3.2-3.4-5.2c-0.1,8.5-0.7,27.4-4.2,37.6c-0.2,0.6-0.5,1.3-0.7,2c0.4,3.4,0.2,7.5-1.3,11.3c0,0,0.9,5.6,0.8,13.4
				c0.5,0.5,1,1.2,1.6,1.6c0.5,0.5,1.2,1.1,2,1.6c0,0-2,21.9,0.9,33.1c0,0,13.9,3.4,19.1,2.2c1.9-0.4,4.2-1.2,6.4-2
				c0.6-3.6,1.8-10.9,2.8-18.7C196.7,210.3,197.6,202.2,197.5,196.5z"/>
			<path fill="#0CA6B5" d="M203,185c-0.2,0.2-0.2,0.5-0.2,0.7c-0.2,3.9,0.1,2,0,3.1c-0.1,0.9-1.6,5.8-3,7.4c0,0-0.4,1.1-2,0
				c0,0,0,0,0,0c0.2,3.5-0.2,13.3-3.9,40.1c3.8-1.4,7.2-2.9,7.2-2.9l2.7,9.6l1.6-10.8l9.9-5.1C215.3,227.1,214.4,200.5,203,185z"/>
			<path fill="#FDFDFE" d="M197.5,196C197.5,196,197.5,196,197.5,196c0-0.2,0-0.4,0-0.5C197.5,195.8,197.5,196,197.5,196z"/>
			<path fill="#FDFDFE" d="M197.5,196.5c0-0.2,0-0.3,0-0.5c0,0,0,0,0,0C197.5,196.2,197.5,196.3,197.5,196.5z"/>
			<polygon fill="#FDFDFE" points="197.8,196.2 197.8,196.2 197.8,196.2 			"/>
			<path fill="#FDFDFE" d="M193.2,236.5c0.1-0.1,0.3-0.1,0.4-0.2C193.5,236.4,193.4,236.4,193.2,236.5z"/>
		</g>
		<path fill="#8DC4D2" d="M197.8,196.2c-0.1-1.9-0.4-2-0.4-2c0,0.4,0,0.8,0.1,1.3c0,0.4,0,0.5,0,0.5
			C197.6,196,197.8,196.1,197.8,196.2z"/>
		<path fill="#8DC4D2" d="M161.4,214.5c-1.2,4.6-2,7.4-2,7.4C160.2,219.5,160.8,217,161.4,214.5z"/>
		<path d="M211.1,60.8c0.1,0.2,0.2,0.3,0.4,0.4c0.1-0.2,0.2-0.5,0.4-0.8C211.7,60.7,211.5,60.7,211.1,60.8z"/>
		<path d="M218.4,53.4L218.4,53.4L218.4,53.4z"/>
		<path d="M218.4,53.4L218.4,53.4L218.4,53.4z"/>
		<path d="M217.9,52.8L217.9,52.8C217.9,52.8,217.9,52.8,217.9,52.8z"/>
		<path d="M217.9,52.8L217.9,52.8C217.9,52.8,217.9,52.8,217.9,52.8z"/>
		<path d="M211.6,64.8c0,0.2,0,0.4-0.1,0.5c1.2-3,3.5-9.2,6.3-11c0.4-0.3,0.9-0.5,1.4-0.6l-1.3-0.9c0.2,0.2,0.4,0.5,0.4,0.5l0,0l0,0
			c-0.9-0.2-1.9,1.1-2.4,1.6c-0.7,0.6-1.2,1.4-1.7,2.1c-0.6,1.3-1.3,2.7-2.3,3.4c-0.2,0.2-0.3,0.5-0.4,0.8c0.4,0.2,0.9,0.2,1.3,0.2
			C212.1,62.2,211.8,63.6,211.6,64.8z"/>
		<path d="M232.6,64.3c0.4,0.2,0.7,0.2,0.9,0.2l-14.2-10.8c-0.5,0.2-0.9,0.3-1.4,0.6c-2.8,1.8-5.2,8-6.3,11
			c-0.1,0.8-0.2,1.7-0.7,2.1c1.1,0,1.7,0.2,2.7-0.6c0.7-0.5,1.6-2.2,2-3.1c0.8-0.2,1.6-0.9,2.3-1.2c0.5-0.5,1.5-1,2.2-1.4
			c0.5-0.2,2.3-1.3,3.1-1.4c0.3-0.1,0.6-0.1,0.9,0c1.4,0.2,2.9,1.1,4.2,2c0.7,0.5,1.3,0.9,1.9,1.6c0.1-0.2,0.2-0.3,0.3-0.4
			C231.2,63.3,231.7,64,232.6,64.3z"/>
		<path d="M241.5,66.8c-0.5-0.4-0.9-0.8-1.3-1.4c-0.6-0.9-0.9-2.2-1.6-3.1c0.4,0.2,1,0.2,1.5,0.2c-0.4-1-0.9-2.2-1.7-2.6
			c0.5-0.1,1.4-0.1,1.8-0.8c-2,0-3.1-1.6-4.7-3.1c-1.2-1.1-2.3-1.7-3.5-2.5c-0.6-0.4-1.2-1.2-1.9-1.2c0.3-0.3,0.5-0.6,0.9-0.9
			c-0.7-0.6-2-0.9-2.7-1.1c-0.9-0.2-2-0.2-2.9-0.2c0-0.2,0-0.2,0-0.2c0-1.6-2-0.5-2.7-0.2c-0.5,0.2-1,0.5-1.5,0.9
			c-0.3,0.2-0.5,0.8-0.8,1c-0.4,0.2-0.9,0.2-1.3,0.4c-1.3,0.4-2.8,1.5-3.5,3c-0.3,0.6-0.6,1.3-0.9,2c-0.1,0.1-0.1,0.2-0.2,0.2
			c-0.8,1-1.6,2-2.1,3.1c-0.2,0.2-0.3,0.5-0.4,0.8c-0.2,0.3-0.3,0.6-0.4,0.9c-0.7,2.1-1.6,2.2-1.8,4.4c-0.1,1.2-0.3,2.2-0.5,3.3l0,0
			c0.9-0.8,3.2,1.2,4.2,0.5c0.5-0.4,3.4,0.1,3.4-2c0-0.5,0.5-3.7,0.9-4.1c0.7-0.9,2.1-0.6,2.6,0.5c0.3,0.8,0.5,1.8,0.8,2.7
			c0.5,1.6-0.1,2.5-0.7,3.9c0.5,0.2,0.9,0.4,1.4,0.8c1-1.2,1.6-2.6,3.1-3.4c0.9-0.5,1.8-0.5,2.8-0.7c1.2-0.2,1.6-0.8,1.6-1.9
			c0.1-0.8,0.1-1.3,0.6-2c0.2-0.2,0.4-0.5,0.5-0.7c0.4,0.4,0.8,0.8,1.2,1.2c1.5,1.4,3.3,2.6,5.2,3.1c0.7,0.2,1.4,0.3,2.1,0.3
			c-0.3-0.6-0.8-1.1-1.1-1.7C238.5,66.8,240.4,67.7,241.5,66.8z M218.4,53.4L218.4,53.4L218.4,53.4z M233.5,64.6
			c0.2,0,0.4,0.1,0.5,0.2c0.6,0.4,1.1,1,1.7,1.5L233.5,64.6z"/>
		<path d="M234.1,64.8c-0.2-0.2-0.4-0.2-0.5-0.2l2.3,1.7C235.2,65.9,234.7,65.3,234.1,64.8z"/>
		<path d="M234.1,64.8c-0.2-0.2-0.4-0.2-0.5-0.2l2.3,1.7C235.2,65.9,234.7,65.3,234.1,64.8z"/>
		<path fill="#8DC4D2" d="M192.1,75.1L192.1,75.1C192.1,75.1,192.2,75.1,192.1,75.1C192.2,75.1,192.1,75.1,192.1,75.1z"/>
		<path fill="#8DC4D2" d="M185.9,89.2L185.9,89.2L185.9,89.2L185.9,89.2z"/>
		<path fill="#FBD106" d="M185.9,89.4c0.2,0.2,0.3,0.4,0.3,0.5c0,0.3-0.2,0.5-0.4,0.5c-0.3,0-0.2,0.1-0.4,0c0,0.2-0.2,0.9-0.2,0.9
			s-0.5,1.9-2,2c-1.6,0-3.4-2-3.4-2s-3.2-0.9-4.6,3c0.2,0.3,0.5,0.7,0.7,1c0,0,7.9,8.4,3.5,19.6c0,0,0.9,3.8,1.7,4.5
			c0.8,0.8,8.7,8.6,7.5,22.7l0.9,2.2c0,0,3.8,1.6,7.2,11c1.4,4,2.8,9.4,3.8,16.6c0,0,0,3.9,1.2,4.9c1.1,0.9,1.3,4.5,1.2,8.2
			c0,0.3,0,0.5,0,0.8c-0.2,3.9,0.1,2,0,3.1c-0.1,0.9-1.6,5.8-3,7.4c0,0-0.4,1.1-2,0c-0.1-1.9-0.4-2-0.4-2c0,0.4,0,0.8,0.1,1.3
			c-0.2-2.2-0.8-10.6-3-15.7c0,0-0.4-3.9-3.3-6.5c-2.9-2.6-13.3-12.8-14.2-23.1l-2-4.7c0,0-1.5-1.6-3.4-4.3c-1-1.5-2.3-3.2-3.4-5.2
			c-0.1,8.5-0.7,27.4-4.2,37.6c-0.2,0.6-0.5,1.3-0.7,2c0.4,3.4,0.2,7.5-1.3,11.3c0,0,0.9,5.6,0.8,13.4c0.5,0.5,1,1.2,1.6,1.6
			c-1.2,5.1-2.2,9.4-3.1,12.8c-1.2,4.6-2,7.4-2,7.4c-9.6-0.4-17.4-9.4-21-11c-3.7-1.6-7.1-1.6-7.1-1.6l0.9-5.7
			c-17.4-17.8,4.1-32.5,4.1-32.5s2-6.6,3.7-12.4c1.7-5.7,0.4-8.2,0.2-10c-0.2-1.8-3.7-8.4-2.3-35.2c0.9-17.1,11.3-22.3,18.7-23.9
			c2.3-2.4,5.9-6.3,8.2-10c0,0.1,0,0.2,0,0.2c0.8-0.2,3.9-2,4.2-2.9c0.5-1.6,0.2-3.8,1.6-4.7c1.3-0.9,3.1-0.1,3.4,1.6
			c0.2,1.3-0.8,2.6-1.1,3.8c0.7-0.2,1.4-0.4,1.7-0.9c0.4-0.6,0.1-1.5,0.6-2.1c1-1.3,3.2-1.1,4.1-2c0.7-0.8,0.9-2.1,2.1-2.3
			c1.3-0.2,1.6,1.3,1.2,2.4c0.9-0.9,1.2-3.1,2.3-3.6c0.9,2.9,0.6,5.5,3.5,7c0-1-0.5-2-0.3-3.1c0.3,0.8,0.8,1.7,1.6,1.7
			c-0.8-1.3-0.9-2.3-1.2-3.8c1,1.6,2.4,2.6,2.9,4.2c0.2,0.5,0.2,1.2,0.1,1.9c0.5-0.5,0.8-1.3,0.7-2.1l0,0c0.2,0.2,0.2,0.4,0.4,0.7
			c0,0.4,0,0.8,0,1.2c0,2.7-0.5,6-1.9,9.9l-3.5-0.5l-0.3,1.6c0.1,0.4,0.2,0.5-0.1,0.8c-0.2,0.2-2.7-1.6-2.9-1.7c0,0,0.2,1,0.7,1.5
			C185.1,89.1,185.8,89.3,185.9,89.4z"/>
		<path fill="#8DC4D2" d="M168.9,77.1c0.5-1.6,0.2-3.8,1.6-4.7c1.3-0.9,3.1-0.1,3.4,1.6c0.2,1.3-0.8,2.6-1.1,3.8
			c0.7-0.2,1.4-0.4,1.7-0.9c0.4-0.6,0.1-1.5,0.6-2.1c1-1.3,3.2-1.1,4.1-2c0.7-0.8,0.9-2.1,2.1-2.3c1.3-0.2,1.6,1.3,1.2,2.4
			c0.9-0.9,1.2-3.1,2.3-3.6c0.9,2.9,0.6,5.5,3.5,7c0-1-0.5-2-0.3-3.1c0.3,0.8,0.8,1.7,1.6,1.7c-0.8-1.3-0.9-2.3-1.2-3.8
			c1,1.6,2.4,2.6,2.9,4.2c0.2-0.1,0.5-0.2,0.8-0.2l0,0l0,0c0.1,0,0.2-0.1,0.3-0.1c-0.8-7.6-5.6-10.3-5.6-10.3s-9.9-5.4-14.3-1.9
			c-2.7,2.2-4.5,9.1-5.2,12c-0.4,1.6-1.3,3.3-2.5,5.1c0,0.1,0,0.2,0,0.2C165.5,79.8,168.7,78,168.9,77.1z"/>
		<path fill="#8DC4D2" d="M192.2,75.1c0.2,0.2,0.2,0.4,0.4,0.7c0-0.2,0-0.5-0.1-0.8C192.4,75,192.3,75.1,192.2,75.1z"/>
		<path fill="#8DC4D2" d="M191.4,77.2c0.5-0.5,0.8-1.3,0.7-2.1c-0.2,0.1-0.5,0.2-0.8,0.2C191.6,75.8,191.6,76.5,191.4,77.2z"/>
		<path d="M193.1,72.2c1.3,0.7,1.2,0.5,2.4,1.3c-1.1-2.7-0.3-3.8-2-6.2c-2.3-3-5.5-4.7-8.6-5.9c0.4-0.2,0.9-0.5,1-1
			c-2.1,0.6-4.7-1.2-6.9-1.3c-2.3-0.2-3.4,1.3-5.2,2.3c-0.3-0.5-0.4-1.2-0.2-1.7c-1.6,0.8-2.5,1.9-3.4,3.4c-1,1.6-2.7,2.3-3.5,4.3
			c-1.9,4.2-1.5,7.7-1.7,12.2c0,0.1,0,0.2,0,0.2c0.8-0.2,3.9-2,4.2-2.9c0.5-1.6,0.2-3.8,1.6-4.7c1.3-0.9,3.1-0.1,3.4,1.6
			c0.2,1.3-0.8,2.6-1.1,3.8c0.7-0.2,1.4-0.4,1.7-0.9c0.4-0.6,0.1-1.5,0.6-2.1c1-1.3,3.2-1.1,4.1-2c0.7-0.8,0.9-2.1,2.1-2.3
			c1.3-0.2,1.6,1.3,1.2,2.4c0.9-0.9,1.2-3.1,2.3-3.6c0.9,2.9,0.6,5.5,3.5,7c0-1-0.5-2-0.3-3.1c0.3,0.8,0.8,1.7,1.6,1.7
			c-0.8-1.3-0.9-2.3-1.2-3.8c1,1.6,2.4,2.6,2.9,4.2c0.2,0.5,0.2,1.2,0.1,1.9c0.5-0.5,0.8-1.3,0.7-2.1l0,0l0,0
			c0.2,0.2,0.2,0.4,0.4,0.7c0.7,1.3,1.2,3.1,1.4,4.4c0.8-1.6,1.4-3.4,0.5-5.6C194.2,73.8,193.8,73.1,193.1,72.2z"/>
		<path d="M210.3,232.9c0,0-1.3-0.1-2,0.4c0,0-2,2-1.6,7.1l0.3-0.1l3.5-0.8c0.2-0.5,0.2-1,0.2-1.6l0.6,0.1c0,0,0.4-1,0.3-2.6
			l-0.5-0.1c0,0-0.3-1.6,0.3-2.1c0,0,0,0,0.1,0c0-0.5-0.2-1.2-0.5-1.8C210.8,231.8,210.6,232.2,210.3,232.9z"/>
		<path d="M208.4,241.2c-1.6,0-1.6-0.6-1.6-0.6c0-0.1,0-0.1,0-0.2l-0.5,0.1c0,0-0.2,0.1,0.2,1.1c0,0,0.9,3.8,0,6v1.3l4.8-0.2
			c0,0,1.9-4.3-0.5-9.2l0,0c-0.2,0.8-0.5,1.3-0.5,1.3S210,241.2,208.4,241.2z M207.9,247.4c0.5-1.3,0-5.9,0-5.9h0.5
			c-0.2,2.9,1.1,5.9,1.1,5.9H207.9z M210.1,247.2c-1-1.8-1-5.7-1-5.7l1-0.3C210.8,244.7,210.1,247.2,210.1,247.2z"/>
		<path d="M206.7,240.4c0,0.1,0,0.1,0,0.2c0,0,0,0.6,1.6,0.6s1.6-0.3,1.6-0.3s0.3-0.5,0.5-1.3l-3.5,0.8L206.7,240.4z"/>
		<g>
			<path fill="none" d="M213,232.8c-0.7,0.2-1.2,0.4-1.4,0.5C211.8,233.2,212.4,233,213,232.8z"/>
			<path fill="none" d="M212.2,230.4c0.1,0.2,0.3,0.5,0.4,0.8C212.5,230.9,212.4,230.6,212.2,230.4z"/>
			<path d="M216.3,227.6c0-0.1-0.2,0.4-2,1.6c-0.9,0.5-1.5,0.9-2,1.2c0.1,0.2,0.3,0.5,0.4,0.8c0.2,0.4,0.4,1,0.4,1.5
				c1.2-0.4,2.7-0.8,3.5-0.8C216.5,232,217.2,230.7,216.3,227.6z"/>
			<polygon fill="#FFFFFF" points="211.6,233.2 211.6,233.2 211.6,233.2 			"/>
		</g>
		<path d="M203.7,249.7c0,0-3-3.7-4.2-4c-1.3-0.4-6.8-2.1-6.8-2.1c-0.6-0.4-1.5-0.9-2.4-1.3c-0.3,1.7-0.3,3.5-0.2,4.8
			c2.4,0.8,4.9,1.7,6.4,2.4c3.3,1.5,4.5,1.4,4.5,1.4C204.3,250.6,203.7,249.7,203.7,249.7z"/>
		<path d="M167.2,244.9l1.2,0.3l-1.2-6.3C167.3,240.8,167.2,244.9,167.2,244.9z"/>
		<g>
			<path d="M188.6,241.8c-3.7-1.2-8.2-2-10.2-1.8c-3.1,0.3-11.2-1-11.2-1c0.1,1.9,0,5.9,0,5.9l1.2,0.3l0.5,0.1
				c2.8,0.7,11,0.6,14.1,0.4c1.3-0.1,3.4,0.3,5.6,0.9C188.3,244.8,188.5,243,188.6,241.8z"/>
			<path d="M167.1,239c0,0-1-0.2-1.7-1.1v6c0,0,0.5,1,2.9,1.3l-1.2-0.3C167.2,244.9,167.3,240.8,167.1,239z"/>
		</g>
	</g>
	<path d="M229.1,70.4c-0.2-0.4,0.1-0.6,0.4-0.8c0.7-0.2,1.6,0.2,2.3,0.8c0.9,0.7,1.9,1.6,2,2.4c-0.4,0-0.6-0.4-0.9-0.6
		C232,71.3,230.5,70.6,229.1,70.4z"/>
	<path d="M185.1,77.3c-0.4-0.1-0.8-0.1-1-0.4c0.9-0.4,2.1-0.2,3.2,0.2c0.8,0.2,1.7,0.7,2,1.4c0.1,0.3,0,0.7-0.4,0.8
		C187.9,78.3,186.5,77.6,185.1,77.3z"/>
	<path d="M231.8,74c-0.5,0.2-1.3,0.2-1.8-0.1c-0.5-0.3-0.7-0.9-0.2-1.2c0.1,0.5,0.8,0.9,1.5,0.8c0.1,0,0.2,0,0.4,0
		c0.1,0,0.2,0.1,0.3,0.2C232,73.8,231.9,73.9,231.8,74z"/>
	<path d="M187.3,80.5c-0.5,0.2-1.3,0.2-1.8-0.1c-0.5-0.3-0.7-0.9-0.2-1.2c0.1,0.5,0.8,0.9,1.5,0.8c0.1,0,0.2,0,0.4,0
		c0.1,0,0.2,0.1,0.3,0.2C187.4,80.4,187.4,80.5,187.3,80.5z"/>
</g>
</svg>
