<?xml version="1.0" encoding="utf-8"?>
<!-- Generator: Adobe Illustrator 18.1.1, SVG Export Plug-In . SVG Version: 6.00 Build 0)  -->
<svg version="1.1" id="ULTRABOUND_TEST" xmlns="http://www.w3.org/2000/svg" xmlns:xlink="http://www.w3.org/1999/xlink" x="0px"
	 y="0px" viewBox="56.3 0 103.2 216" enable-background="new 56.3 0 103.2 216" xml:space="preserve">
<g>
	<path fill="none" d="M72.7,62.7C72.7,62.7,72.7,62.7,72.7,62.7C72.7,62.7,72.7,62.8,72.7,62.7C72.7,62.8,72.7,62.8,72.7,62.7z"/>
	<path fill="none" d="M107.1,119.1c0,0,0-0.1,0-0.1C107.1,119,107.1,119,107.1,119.1C107,119.1,107.1,119.1,107.1,119.1z"/>
	<path fill="none" d="M87.6,51l2,12.4c-0.1,0.1-0.1,0.1-0.2,0.1l1,0.3C88.9,56.4,87.6,51,87.6,51z"/>
	<path fill="none" d="M137.8,58.6l-1.2,0.8l-0.2-0.3c-0.2,0-0.4-0.1-0.6-0.3l-2.1,1c-0.5,3.9-2.3,6.9-7.2,3.7l-1,0.5
		c1.1,1,4.6,4.3,6,9.2c2-3.1,4.7-7,8.4-11.1c0-0.9,0.6-2,0.7-2.3c0.3-0.4,0.3-1.3,0.3-1.3c0.1-1.3,1.5-2.4,2.6-3
		c0.1-0.2,0.1-0.5,0.2-0.7l-5.9,3c0,0.2,0,0.4-0.1,0.5L137.8,58.6z"/>
	<path fill="none" d="M71.8,69.6L71.8,69.6L71.8,69.6z"/>
	<path fill="none" d="M128.3,51c0,0-1.1,4.8-2.5,11.7l0.7-0.4L128.3,51z"/>
	<path fill="none" d="M123.4,36.6c0,0,0.8-0.3,1.8-0.5c0.1-1.3,1.5-2.4,2.5-2.9c-1-1-0.7-1.7-0.4-2.3c0.1-0.3,0.3-0.7,0.3-1.2
		c0-0.4-0.2-0.7-0.4-1.1c-0.3-0.6-0.8-1.3-0.3-2.2c-1-0.3-1.3-0.9-1.5-1.5c-0.2-0.4-0.3-0.7-0.7-1c-0.3-0.2-0.6-0.3-1-0.3
		c-0.2,0-0.3-0.1-0.5-0.1c-0.2,1.4-0.5,2.9-0.8,4.3c-0.4,3-3.8,5.8-7.8,7C116.1,35.9,118.8,37.2,123.4,36.6z"/>
	<path fill="none" d="M79.7,59.8l1.4,0.4L81,60.5c0.1,0.1,0.1,0.2,0.2,0.3l1.3,0.4c-0.2-0.7-0.3-1.4-0.3-2.2l-4.7,0.5l1.9,0.6
		c0.1-0.1,0.2-0.1,0.3-0.2L79.7,59.8z"/>
	<path fill="none" d="M135.4,57.5l-0.2-0.3l1.2-0.8l0.2,0.3c0.1,0,0.2,0,0.3,0.1l5.1-2.8l-8.2,0.7c0.1,1.1,0.1,2.4,0,3.7L135.4,57.5
		C135.4,57.5,135.4,57.5,135.4,57.5z"/>
	<path fill="none" d="M137.5,58L137.5,58L137.5,58L137.5,58z"/>
	<path fill="none" d="M136.1,58.7C136.2,58.7,136.2,58.7,136.1,58.7L136.1,58.7L136.1,58.7z"/>
	<path fill="none" d="M79,67.7c2.5,3.3,4.3,6.3,5.5,9c0.6-1.1,1.1-2.6,1.2-5.5c0.2-3.4,2.6-5.4,4.3-6.4l-1.9-0.5
		c-2.8,1.4-4.4,0.4-5.2-1.5l-2.2-0.6c-0.1,0.1-0.2,0.2-0.3,0.2l-0.1,0.3L79,62.2l0.1-0.3c-0.1-0.1-0.2-0.2-0.2-0.3l-3.2-1
		c-0.1,0.2-0.1,0.4-0.2,0.7c0,0,0,0,0,0.1c-0.1,0.4,0.1,0.9,0.4,1.1c0,0,0.1,0,0.1,0.1c0.3,0.2,1.7,1.4,1.7,2.9c0,0,0.1,0.6,0.2,0.7
		c0.1,0.1,0.8,0.9,1,1.6C78.9,67.6,78.9,67.6,79,67.7z"/>
	<g>
		<path fill="#EFD01B" d="M88.2,64.3l-5.2-1.5C83.8,64.7,85.4,65.7,88.2,64.3z"/>
		<path fill="#FBD206" d="M82.1,59c0.1,0.8,0.2,1.5,0.3,2.2l7,2.3c0.1,0,0.1-0.1,0.2-0.1l-2-12.4c0,0,1.2,5.4,2.8,12.8l3.1,1
			c0.9,0.2,2,0.4,3.4,0.9c1.8,0.7,6.3,1,10.9,1.1c4.9,0.1,10-0.3,12.2-1.1l5.7-3.1c1.4-6.9,2.5-11.7,2.5-11.7l-1.8,11.3l7.4-4
			c0.1-1.3,0-2.6,0-3.7c0-0.5-0.1-1-0.1-1.4s-0.1-0.9-0.1-1.2c-0.2-1.6-0.3-3.1-0.3-3.1c0.3-8.2-1.9-11.4-4.3-12.5
			c-0.1-0.1-0.3-0.1-0.4-0.2c-1-0.4-2-0.4-2.9-0.3c-0.1,0-0.3,0-0.4,0.1c-1.1,0.2-1.8,0.5-1.8,0.5c-4.7,0.6-7.4-0.7-8.8-1.9
			c-2.2,0.6-4.5,0.7-6.7,0.1c-1-0.3-1.9-0.7-2.8-1.3c-0.1-0.1-0.3-0.2-0.5-0.4c-0.8,0.9-4.8,4.5-11.9,3.5c0,0-10.5-4.8-9.8,12.5
			c0,0-0.2,1.5-0.3,3.1c-0.2,1.3-0.3,3.4-0.3,5.5C82.1,58.1,82.1,58.6,82.1,59z"/>
		<path fill="#EFD01B" d="M133.7,59.9l-7.2,3.7C131.5,66.8,133.2,63.8,133.7,59.9z"/>
		<path fill="#8DC63F" d="M125.4,65c0.1-0.3,0.1-0.6,0.2-0.9l-1.4,0.7C124.9,64.8,125.3,64.9,125.4,65z"/>
		<path fill="#FBD206" d="M152.6,170.3c0,0,0.8-2.4,1.1-5c7.1-27.8,5.6-60.3,5.6-60.3c0.2-3.9-2.2-4.8-2.2-4.8
			c-9.4-4.2-27.2-6.2-27.2-6.2c1.4,4.1-4.7-6.2-6.5-9.5c-1.7-3.3-0.9-5.2-0.9-5.2c0-0.1,0-0.1,0-0.2c0.6-3.4,1.2-6.8,1.8-10
			c0,0-4.1,1.4-16.7,1c-4.4-0.1-9.8-0.5-16.5-1.2c0.6,3.3,1.3,6.8,1.9,10.3c0,0,0.9,2-0.9,5.2c-1.7,3.3-7.9,13.6-6.5,9.5
			c0,0-0.2,0-0.7,0.1c-0.6,0.1-1.5,0.2-2.6,0.3c-5.6,0.8-17,2.7-23.9,5.8c0,0-2.4,0.9-2.2,4.8c0,0-1.5,32.1,5.5,59.8
			c0.3,2.8,1.2,5.5,1.2,5.5c0.2,1.8,0.4,3.5,0.9,4.9c0.5,1.4-0.1,5-0.1,5c-0.2,1-0.5,2.3-0.5,2.3c-1.2,0.9,0.2,1.6,0.2,1.6
			c6.1-0.4,7.6-2.5,7.6-2.5c1.5-3-0.5-5.5-1.1-6.9c-0.7-1.4,0.5-3.3,0.5-3.3c1.5-2.2,0.4-3.7,0.2-4.1s-1.6-2.2-2.1-2.7
			c-0.2-0.2-0.4-0.6-0.7-1v0c0,0-0.1-0.2-0.3-0.5c-0.3-0.5-0.4-0.9-0.4-0.9h0c-0.9-1.8-2.1-5.2-1-8.7c1.5-5.2,13.9-21.9,6.3-35
			c0,0-3.6-2.7-5.8-4.4c-2.1-1.8-4.9-1.9-4.9-1.9s2.9-0.1,5.2,1.6c1.4,1,9.4,7.6,21.1,8.7c0.9-3,4.1-10.1,13.8-7.6
			c3,0.8,4.5,2.4,5.2,4.2c0,0,0,0,0.1,0c0.2-0.5,0.4-1,0.7-1.5l0-1.1l0.4-10.3l0.3,10.5c0.9-0.9,2.1-1.6,3.9-2
			c10.7-2.6,13.6,5.7,14,7.7v0c12.5-0.6,21.1-7.7,22.6-8.7c2.2-1.7,5.2-1.6,5.2-1.6s-2.8,0.1-5,1.8s-5.8,4.4-5.8,4.4
			c-7.6,13.1,4.7,29.8,6.3,35c1,3.5-0.1,6.9-1,8.7l-0.1,0c0,0-0.9,1.8-1.4,2.3c-0.5,0.5-1.8,2.3-2.1,2.7c-0.3,0.4-1.3,1.8,0.2,4.1
			c0,0,1.2,1.9,0.5,3.3c-0.7,1.4-2.6,3.9-1.1,6.9c0,0,1.5,2.2,7.6,2.5c0,0,1.5-0.6,0.2-1.6c0,0-0.3-1.3-0.5-2.3c0,0-0.5-3.6-0.1-5
			C152.3,173.9,152.5,172.2,152.6,170.3z"/>
	</g>
	<path fill="#1D7F65" d="M139,182.6C139,182.6,139,182.6,139,182.6c0.1,0.8,0.1,1.3,0.1,1.3C139.1,183.5,139,183.1,139,182.6z"/>
	<path fill="#1D7F65" d="M75.3,188.8c0,0.5-0.1,1-0.1,1.4C75.2,190.3,75.2,189.7,75.3,188.8L75.3,188.8z"/>
	<path d="M130.2,31.2c0.6-0.5,1-1.2,1-2c0-0.9-0.5-1.7-1.4-2.3c0.6-0.9,0.5-2-0.2-2.8c-0.5-0.6-1-0.7-1.6-0.9
		c-0.4-0.1-0.7-0.2-1-0.4c-0.3-0.3-0.5-0.7-0.7-1.1c-0.3-0.8-0.7-1.6-2.3-1.8c-0.2,0-0.4,0-0.6,0c0-0.6,0-1.1-0.1-1.7
		c-0.4-3.2-2.8-6.6-6.1-6.9c-0.8-0.1-1.6,0-2.3-0.2c-0.7-0.2-1.2-0.5-1.9-0.8c-2.1-0.9-4.6-0.4-6.5,0.7c-1.9,1.1-4,2.5-4.7,4.5
		c-0.3,0.8-0.5,1.6-0.8,2.3v0v-0.2h-0.3c-1,0-1.5,0.6-1.8,1.2c-0.2,0.3-0.4,0.6-0.7,0.8c-0.4,0.2-0.8,0.3-1.2,0.3
		c-0.6,0.1-1.3,0.1-1.9,0.9c-0.4-0.4-0.9-0.6-1.4-0.6c-0.3,0-0.6,0-0.8,0.1c-0.4,0.1-0.8,0.1-1.1,0c-0.4-0.2-0.7-0.4-1-0.7
		C90.4,19.3,90,19,89.4,19c-0.3,0-0.6,0.1-1,0.3c-0.1-1.3-0.9-3.4-2.4-3.5c0-1.2-0.1-2.2-1.2-2.9c0.5-1.4,0.3-2.4-0.3-3.8
		c0.3-0.7,0.4-1.6,0.2-2.3c1.5-1.3,2.3-2.6,2.4-3.9c0.1-1.6-1-2.6-1.1-2.7L85.9,0l-0.1,0.1c-3.1,2.5-2.3,5.5-2,6.5
		c-1,0.9-1,1.9-0.9,3.1V10c0.1,1.1,0.1,1.1-0.1,2.3c-0.2,1.5-0.1,2.4,0.9,3.3c-0.4,0.6-0.5,1.3-0.2,2c0.4,1,1.5,1.9,2.5,2.1
		c-0.1,0.7,0.2,1.5,0.7,2.1c0.8,1,1.8,1.1,2.7,0.4c0.3,1.1,1.2,1.7,2.3,1.7c0.6,0,1.2-0.2,1.8-0.6c0.5,0.6,1.1,1,1.9,1
		c0.3,0,0.5-0.1,0.8-0.1c0.7-0.2,1-0.7,1.3-1.1c0.2-0.3,0.4-0.6,0.8-0.8c0.4-0.2,0.9-0.2,1.3-0.3c0.2,0,0.3,0,0.5,0
		c-0.6,6.9,2.8,9.9,4.3,11c0.3,0.2,0.4,0.3,0.5,0.4c0.9,0.6,1.8,1,2.8,1.3c2.2,0.6,4.6,0.5,6.7-0.1c4-1.1,7.4-4,7.8-7
		c0.2-1.4,0.5-2.9,0.8-4.3c0.2,0.1,0.3,0.1,0.5,0.1c0.4,0.1,0.7,0.2,1,0.3c0.3,0.3,0.5,0.6,0.7,1c0.3,0.6,0.6,1.2,1.5,1.5
		c-0.4,1,0,1.6,0.3,2.2c0.2,0.3,0.4,0.7,0.4,1.1c0,0.4-0.1,0.8-0.3,1.2c-0.3,0.7-0.5,1.4,0.4,2.3c-1,0.5-2.4,1.7-2.5,2.9
		c0.1,0,0.3,0,0.4-0.1c0.9-0.1,1.9-0.1,2.9,0.3c0.1,0,0.3,0.1,0.4,0.2c0.1-0.4,0.1-0.9,0.1-1.2c1-0.3,2-1.4,2.1-2.5
		C131.2,32.1,130.9,31.5,130.2,31.2z"/>
	<path fill="#10A7B5" d="M139.3,185.6c0,0-0.1-0.8-0.2-1.6l0,0c0,0-0.1-0.5-0.2-1.3c-0.6-4.6-2.5-20-2.5-22.7c0-3.2,3.3-19-7.1-30.9
		c0,0-2.5-4.5-3-6.5v0c-0.4-2-3.3-10.3-14-7.7c-1.8,0.4-3,1.1-3.9,2l-0.3-10.5l-0.4,10.3l0,1.1c-0.3,0.5-0.6,1-0.7,1.5
		c0,0,0,0.1,0,0.1c0,0,0-0.1,0-0.1c-0.7-1.9-2.2-3.5-5.2-4.2c-9.7-2.6-12.9,4.6-13.8,7.6c-0.1,0.3-0.2,0.6-0.2,0.8
		c-0.4,2.2-3,7.2-3,7.2c-10.4,13-7.1,30.2-7.1,33.8c0,2.9-1.9,19.7-2.5,24.7c-0.1,0.9-0.2,1.4-0.2,1.4l0,0c-0.1,1-0.2,1.8-0.2,1.8
		c-0.3,1.2-0.3,2.9,0.1,4.4c0.4,1.5,0.5,6.1,0.5,6.1s-0.2,6.8-0.1,9.4c0.1,2.8,2.1,2.1,2.1,2.1c0.6,1.6,2.2,0.7,2.2,0.7
		c1.1,1.6,2.1,0.4,2.1,0.4c0.1,0.8,1.3,0.9,1.3,0.9c0.8,0,0.9-0.8,0.9-0.8c0.3,0.8,1.5,0.8,1.5,0.8c2.2-0.2,1.1-2.4,0.9-2.8
		c-0.2-0.4-0.3-1.7-0.3-1.7c0-1.2-1-2.9-1.6-3.7c-0.7-0.8-1.9-4.5-2-5.7c-0.2-1.2-0.5-3.6-0.8-4.5c-0.3-0.9-0.2-1.8-0.2-1.8
		c0.4-1.5,0.2-3-0.2-4.1c-0.1-0.2-0.1-0.4-0.1-0.6c0.6-8,7.5-19.2,7.5-19.2c10.7-13.7,13.2-34.1,13.2-34.1c0.3-3.2,2.7-7,2.7-7
		s1.9-3.1,2.6-6.7c0.8,2.9,2.3,5.3,2.3,5.3s2.4,3.5,2.7,6.4c0,0,2.5,18.8,13.2,31.3c0,0,6.9,10.3,7.5,17.6c0,0.2-0.1,0.3-0.1,0.5
		c-0.3,1-0.6,2.4-0.2,3.8c0,0,0.2,0.8-0.2,1.7c-0.3,0.8-0.7,3-0.8,4.1c-0.2,1.1-1.4,4.5-2,5.3c-0.7,0.7-1.6,2.2-1.6,3.4
		c0,0-0.1,1.1-0.3,1.6c-0.2,0.4-1.4,2.4,0.9,2.6c0,0,1.2,0,1.5-0.8c0,0,0.1,0.8,0.9,0.8c0,0,1.2,0,1.3-0.8c0,0,1,1,2.1-0.4
		c0,0,1.6,0.9,2.2-0.6c0,0,2,0.7,2.1-1.9c0.1-2.4-0.1-8.6-0.1-8.6s0-4.2,0.5-5.5C139.6,188.2,139.6,186.7,139.3,185.6z"/>
	<path d="M145.2,52.3l-0.1,0.1l-1.6,0.9c0-0.3-0.1-0.5-0.1-0.8l-9.6,0.9c0,0.4,0.1,0.9,0.1,1.4l8.2-0.7l-5.1,2.8
		c-0.1,0-0.2-0.1-0.3-0.1c0,0,0,0-0.1,0c-0.3,0-0.7,0.2-0.9,0.4c-0.1,0.1-0.2,0.3-0.2,0.4c0,0,0,0.1,0,0.1l-1.5,0.8l-7.4,4l-0.7,0.3
		l-5.7,3.1c-2.2,0.8-7.3,1.1-12.2,1.1c-4.6-0.1-9.1-0.4-10.9-1.1c-1.4-0.5-2.5-0.8-3.4-0.9l-3.1-1l-1-0.3l-7-2.3l-1.3-0.4
		c0-0.1-0.1-0.2-0.2-0.3c-0.2-0.3-0.6-0.5-1-0.5c-0.1,0-0.3,0-0.3,0.1c-0.1,0-0.2,0.1-0.3,0.2l-1.9-0.6l4.7-0.5
		c0-0.5-0.1-0.9-0.1-1.4l-6.3,0.6c0.1,0.2,0.1,0.4,0.1,0.7l-1.6-0.5l-0.2-0.1L74,58.8c0.2,0.2,0.3,0.3,0.4,0.6
		c0.1,0.3,0.1,0.6,0,0.9l1.3,0.4l3.2,1c0,0.1,0.1,0.3,0.2,0.3c0.2,0.3,0.6,0.5,1,0.5c0.2,0,0.3,0,0.4-0.1c0.1,0,0.2-0.1,0.3-0.2
		l2.2,0.6l5.2,1.5l1.9,0.5l0.5,0.2l0.8,3.9l0,0c6.7,0.7,12.1,1,16.5,1.2c12.6,0.4,16.7-1,16.7-1l0,0l0.8-4.1c0,0,0,0,0,0
		c-0.1,0-0.4-0.2-1.2-0.2l1.4-0.7l0,0l1-0.5l7.1-3.6l2.1-1c0.2,0.2,0.4,0.2,0.6,0.3c0,0,0.1,0,0.1,0c0.3,0,0.7-0.2,0.9-0.4
		c0.1-0.1,0.2-0.2,0.2-0.3c0.1-0.2,0.1-0.4,0.1-0.5l5.9-3l0.1,0c-0.1-0.2-0.1-0.4-0.1-0.6c0.1-0.3,0.3-0.7,1-0.7
		c0.3,0,0.6,0.1,0.9,0.2L145.2,52.3z M80,62.1c-0.4,0-0.7-0.2-0.9-0.6l0.3-1.1c0.1-0.1,0.3-0.2,0.5-0.2c0.4,0,0.8,0.3,0.9,0.7
		l-0.3,1C80.4,62,80.3,62.1,80,62.1z M137.5,58c0,0.2-0.1,0.3-0.2,0.5c-0.3,0.3-0.7,0.4-1.1,0.2c0,0,0,0-0.1,0l0,0l-0.5-0.8
		c0-0.2,0.1-0.4,0.2-0.6c0.2-0.2,0.4-0.3,0.7-0.3c0.1,0,0.2,0,0.3,0.1L137.5,58L137.5,58L137.5,58z"/>
	<g>
		<path fill="#10A7B5" d="M91.4,68.9L91.4,68.9L90.6,65L90,64.8c-1.7,1-4.1,3-4.3,6.4c-0.1,2.9-0.7,4.4-1.2,5.5
			c2,4.2,2.7,7.5,2.8,9.9c-0.5-3.8-2.4-10.2-8.4-18.4c0-0.1,0-0.3-0.1-0.4c-0.3-0.7-0.9-1.5-1-1.6c-0.2-0.1-0.2-0.7-0.2-0.7
			c0-1.5-1.4-2.7-1.7-2.9c0,0-0.1,0-0.1-0.1c-0.4-0.3-0.5-0.7-0.4-1.1c0-0.1,0-0.1,0-0.1c0.1-0.3,0.2-0.5,0.2-0.7l-1.3-0.4
			c-0.1,0.3-0.3,0.7-0.5,1c0,0-0.6,0.8-1.1,1.5c0,0,0,0,0,0c0,0-0.1,0.1-0.1,0.1c-0.1,0.1-0.1,0.1-0.1,0.2c0.2-0.1,0.4-0.2,0.6-0.2
			c0.3,0,0.4,0.1,0.6,0.2c0.3,0.2,0.3,0.5,0.3,0.6c0,0.4-0.4,0.8-0.8,1.1l-0.4,0.3c-0.1,0.1-0.1,0.1-0.2,0.2c0,0.1-0.1,0.1-0.1,0.2
			c0.1-0.1,0.3-0.2,0.7-0.2c0.3,0,0.5,0.1,0.8,0.2c0,0,0.3,0.2,0.4,0.6c0.1,0.3,0,0.8-0.3,1.2l-0.7,1.1c0,0.1-0.1,0.1-0.1,0.2
			c-0.1,0.2-0.3,0.9-1,1.1c0.3,0.1,0.6,0.2,0.6,0.2c0.8,0.3,1.7,0.2,2,0.1c0.1,0,0.1,0,0.2,0c0.1,0,0.2,0,0.2,0
			c0.1,1,0.3,2.7,0.5,4.1c0.2,2.2-2.6,13.2,6.9,20.3c1.1-0.2,2-0.3,2.6-0.3C85.7,94,86,94,86,94c-1.4,4.1,4.7-6.2,6.5-9.5
			c1.7-3.3,0.9-5.2,0.9-5.2C92.7,75.7,92,72.2,91.4,68.9z"/>
		<path fill="#10A7B5" d="M75.7,58.3c-0.2-0.4-0.4-0.4-0.4-0.4c-0.4-0.1-0.8,0.2-1.1,0.6l1.6,0.5C75.9,58.7,75.8,58.4,75.7,58.3z"/>
		<path fill="#10A7B5" d="M73.1,68.6c0-0.1,0.1-0.2,0.1-0.2l0.7-1.2c0.7-1,0-1.3,0-1.3c-0.7-0.4-1.1,0-1.1,0
			c-0.2,0.1-0.7,0.8-0.7,0.8c-0.2,0.5-0.8,1-0.8,1c0.2-0.2,0.3-0.7,0.4-1.1c0-0.2,0.1-0.3,0.2-0.4c0.2-0.3,0.4-0.7,0.6-0.9
			c0.1-0.1,0.1-0.2,0.2-0.3l0.4-0.3c0.5-0.4,0.9-0.9,0.4-1.3c-0.5-0.4-1.3,0.2-1.3,0.2l-0.2,0.1c-0.1,0-0.2,0.1-0.3,0.2
			c-0.5,0.3-1.7,1.3-1.7,1.3c0.3-0.6,1.4-1.4,1.7-1.6c0.1-0.1,0.1-0.1,0.2-0.2c0.5-0.6,1.6-2.2,1.6-2.2c0.6-0.8,0.6-1.8,0.1-2.1
			c-0.6-0.3-1,0.4-1.3,0.8c-0.3,0.4-2.2,2.4-2.6,2.9s-0.5,0.8-0.6,1.4c-0.1,0.6-0.3,1.3-0.3,1.3c-0.4,0.9,0.2,1.6,0.2,1.6
			c0.3,0.3,0.2,0.4,0.2,0.4c0.1,1.1,0.9,1.3,1.1,1.3c0.2,0.1,0.3,0.2,0.3,0.2c0.3,0.6,0.9,0.7,1,0.7c0,0,0,0,0,0
			C72.7,69.5,73,68.9,73.1,68.6z"/>
		<path fill="#10A7B5" d="M147.5,62.6c-0.3-0.2-1.1-1.1-0.7-1.8c0.1-0.1,0.3-0.3,0.6-0.3c0.2,0,0.4,0.1,0.7,0.2
			c-0.2-0.2-0.5-0.5-0.7-0.6c-0.4-0.1-2.1-0.5-1.9-1.6c0-0.2,0.1-0.6,1.1-0.6c0.2,0,0.4,0,0.7,0.1c0.3,0.1,0.6,0.1,0.9,0.2
			c-0.4-0.2-0.8-0.4-0.9-0.5l-1.2-0.3c-1.4-0.2-2.2-0.5-2.2-1.2c0-0.2,0.1-0.3,0.1-0.4c0.1-0.2,0.3-0.3,0.5-0.4
			c-0.3-0.2-0.5-0.3-0.6-0.6c0,0,0,0,0-0.1l-0.1,0c0,0.3-0.1,0.5-0.2,0.7c-1,0.6-2.5,1.7-2.6,3c0,0,0,0.9-0.3,1.3
			c-0.2,0.3-0.7,1.3-0.7,2.3c-3.7,4.2-6.5,8-8.4,11.1c-1.4-4.8-4.8-8.1-6-9.2l0,0c-0.1,0.3-0.1,0.6-0.2,0.9h0l-0.8,4.1l0,0
			c-0.6,3.2-1.2,6.6-1.8,10c1.6,2,3.5,3.9,4.3,4.7c1.3,1.4,3.7,2.5,3.7,2.5c11.5-3.8,11.8-18,12.6-20.1c0.3-0.7,0.6-1.4,0.9-2.1
			c0.4,0,0.8,0,1,0c0,0,1.4-0.1,1.8,0c0.2,0.1,0.6,0.2,1,0.2c0,0-0.1-0.1-0.1-0.1C148.3,64.2,147.8,63.1,147.5,62.6z"/>
		<path fill="#10A7B5" d="M145,52.4c-0.3-0.5-0.7-0.9-1.1-0.8c-0.4,0.1-0.5,0.4-0.5,0.9c0,0.3,0,0.5,0.1,0.8L145,52.4z"/>
		<path fill="#10A7B5" d="M150.8,60.3c-0.1-0.1-0.4-0.3-0.6-0.5c-0.1-0.1-0.2-0.2-0.3-0.2c0-0.3,0.2-1.3,0.2-1.5
			c0.1-0.3,0.5-1.3-0.8-1.6c0,0-0.2,0-0.4-0.1c-0.1,0-0.2-0.1-0.3-0.1c-0.1-0.5-0.9-1.1-0.9-1.1l-1.4-0.9c0,0-2-1-2.2,0
			s2.1,1.5,2.1,1.5s-0.7,0-1.1,0c-0.1,0-0.2,0-0.3,0c-0.2,0-0.6,0.2-0.6,0.6s0.3,0.7,1.9,0.9l1.2,0.3c0,0,1,0.6,1.4,0.7
			c0.3,0.1,0.3,0.5,0.4,0.8l0,0c0,0-0.1-0.1-0.3-0.1c-0.3-0.1-0.8-0.3-1.6-0.4c-1.4-0.2-1.4,0.3-1.4,0.3c-0.1,0.9,1.8,1.2,1.8,1.2
			c0.2,0.2,1,0.9,1,0.9l0,0.6c-0.1-0.1-0.2-0.1-0.3-0.2c-0.5-0.3-1-0.4-1.3-0.2c-0.3,0.5,0.7,1.4,0.7,1.4c0.3,0.4,0.9,1.6,0.9,1.6
			c0.2,0.4,0.7,0.4,0.7,0.4c1.4,0.1,0.6-1.6,0.6-1.6c0-0.1-0.2-0.3-0.3-0.5c-0.1-0.1-0.1-0.2-0.2-0.3
			C151.3,61.7,151.3,60.6,150.8,60.3z"/>
	</g>
</g>
</svg>
