<svg xmlns="http://www.w3.org/2000/svg" viewBox="0 26.6 216 163.1"><path d="M45.2 30.4c-.7-2.4-2.7-4.3-7.5-3.7-2.5.3-4.8 2.8-5.5 5.1-.4 1.2-.4 2.2-.9 3.3-.8 1.6-2.1 2.9-2.9 4.6-1 2-1.6 4.2-2 6.5-3.2.1-6.4 1.7-7.7 2.4-4.8 2.6-6.5 8.1-7.1 11.1-.3 1.2-.4 2.4-.6 3.5-.3 2.3-.6 4.5-1.4 6.5-.9 2.1-2.4 4-3.9 6l-.5.7c-1.8 2.4-3.8 5.2-4.7 8.4-.9 3.1-.5 6.1.9 8.3-2.1 4.3-2 9.5.4 13 .5.7 1.1 1.3 1.6 1.9.9 1 1.5 1.7 1.6 2.4.1.5-.1 1.4-.3 2.2 0 .2-.1.4-.1.5-.3 1.6-.5 3.5.3 5.3.6 1.3 1.6 2.2 2.9 2.7.8 3.9 3.8 7 7.8 7.6.5.1 1.1.1 1.6.1 1.2 0 2.4-.2 3.6-.6-1.1-6.7 33-75 33-75 0-.1-11.3-23.4-8.6-22.8z"/><path fill="#F05A2B" d="M27.3 155.6s0 .1 0 0z"/><path fill="#D61F2A" d="M69.1 109.2c2.1-1.8 4.3-3.5 6.4-5.1 1.6-1.2 3.2-2.4 4.7-3.4-2.4-3.3-4.8-5.6-6.6-7.2.5 1.4.8 2.9 1.1 4.4.3 2 .5 3.9.4 5.8-.7.5-3.4 2.7-6 5.5zM215.9 173.4c-.1-.1-.2-.1-.3-.2-.4-.2-.8-.4-1.3-.5.4-.3.7-.8.7-1.3-.1-.5-.4-.9-.9-1.1-.6.8-1.8 1.1-2.8 1-1-.1-2-.5-2.9-1-3.5-1.7-7-3.3-10.5-5-3.6-1.7-5.6-3.2-6.5-4 0 0-26.2-24.6-62.4-44.6-.7 10.6-1.7 20-2.7 27.3 5.1 6.2 15.5 12.7 37.1 11.9 0 0 8.9.1 23.8 10.9 2.2 1.8 3.3 3.5 3.7 4.4.4.8.3 1.7.4 2.5.1.8.3 1.7.8 2.4.5.6 1.4.9 2.2 1 .8.1 1.6-.1 2.5-.3 2.6-.7 5.2-1.6 7.8-1.2 1.2.2 2.2.6 3.4.9 1.1.3 2.4.3 3.4-.3.2.5.5.9.9 1.2.5.2 1.2-.1 1.1-.6.3.4 1.1.4 1.4 0 .3-.4.2-1.1-.3-1.3.5.3 1.2-.1 1.2-.7-.1-.1-.3-.2-.4-.3.2-.1.5-.2.6-.4.1-.1.2-.5 0-.7zM37.9 63.6c-.1-.3-.1-.6 0-.8-.3-.1-.9.1-1.3-.3.4-.1 1.1-.4 1.1-.8-.5-.1-1-.9-1.1-1.3.5-.3.7-.3 1.4-1.2-1.9-1-3.3-1.6-3.8-3.7-.3-1.1-1.3-2-2.6-2.4-1.3.9-3.9 1.1-5.5 3.3-1.2 1.6-1.1 4.1.1 5.7-.9 0-1.5-1.3-2.6-.8-.8.3-.9 1.6-.5 2.2.6 1 2.2 1.2 3.3 1.3v1.1c-.1 1.6-.5 3.1-1.2 4.5-.3.6-.6 1.2-1 1.8-.6 1.1-1.6 1.9-2.1 2.2-1 .4-13.7 6.4-2 27.1.3-2.6.8-5.2 1.4-7.9.7-3.1 1.7-6.2 2.9-9.3.8-2.1 1.8-4.2 2.8-6.3 2.6-4.9 6.1-9.8 10.7-14.4z"/><path fill="#D61F2A" d="M115.9 134.9c-.3-.5-.7-1.1-1-1.6-5.9-9.8-8.3-17.8-8.8-24.3-.1.1-.7-4.1.6-9.6-2.1 8.4-1 18 3 26.8-23.2 34.3-55.8 37.2-67.9 25.8-2.5-2.4-4.3-4.9-5.7-7.5-2.3-4.5-3.1-9.2-3-13.5 0-4.7 1-9 2-12.1.2-.6.4-1.1.5-1.6l1.7-5.1c8.5 5.2 16 4.7 16 4.7 3.8-1.7 6.9-3.9 9.4-6.5 6.3-6.5 8.9-14.8 10.1-19.3.3-.9.5-1.7.6-2.2 1.3-4.1 3.6-11 3.6-11s1.7-2.6 2.1-2.9c.4-.3.6-.8.8-1.2.8-1.6.9-3.4 1.3-5.3.1-.3.1-1.2-.4-1.4-.5-.2-.5.6-.5.6-.5.1.2-1.6.1-1.8 0-.9-.1-.9-.8-.8.3-.6.2-1.9-.6-1.8-.5.1-.4.7-.8.8 0-.3.2-.5.1-.8-.1-.3-.6-.5-.9-.5-.1 0-.1.1-.2.1-.3.3-.4.9-.7 1.2-.4.5-.9.9-1.3 1.4-.7.8-1.2 1.8-1.8 2.6-.6.7-1.2.7-2 0-.5-.5-2.9-4.4-3.7-2.5-.2.5.9 1.7 1.2 2.1.6.7.7 1.7 1.3 2.5 2.1 3.1 3.8 8.6-4.2 14.4-14.6 10.5-15.5 15.8-15.7 16.2-1.7-1.7-3.4-3.3-5-4.7.5-1.6.7-3.8 0-6.5-.4-1.9-1.2-5.1-1.8-8.9-1.4 3.1-3.2 6.3-5.5 9.5-.7 1-1.4 1.9-2.2 2.9-.3.4-.6.7-.8 1.1.3 3.8.3 9.5-1.7 15-.1.2-.1.4-.2.6-3.4 8.7-5 16.1-5.7 20.7-.5 3.2-.6 5.1-.6 5.1l-.1.1c0 .3.1.5.1.6-.1 1.8 1.9 3.1 2.4 4.9.2.6.9 1.4 1.1 2 .1.5.3.9.6 1.2.9 1.2 2.3 1.9 3 3.5-.4.7-1.4.7-2.1.2s-1.2-1.2-1.7-1.8c-.6-.6-1.6-1.3-2.4-1.3-1.3 0 .6 9.6-.4 10.5v.1h-.2c.9 3.5 2.8 7.4 6.1 11.4 11.7 14.1 61.3 10.9 84-23.1-.4-6.2-1.3-9-1.3-9z"/><path fill="#52C1AE" d="M30.9 144.4c-.3-.4-.4-.8-.6-1.2-.1-.6-.9-1.4-1.1-2-.5-1.7-2.5-3.1-2.4-4.9 0-.1 0-.4-.1-.6h.1s.1-1.8.6-5.1c.7-4.6 2.3-12 5.7-20.7.1-.2.1-.4.2-.6 2-5.5 2.1-11.2 1.7-15 .3-.4.5-.7.8-1.1.8-.9 1.5-1.9 2.2-2.9 2.3-3.2 4.1-6.4 5.5-9.5.6 3.8 1.3 7 1.8 8.9.6 2.7.4 4.9 0 6.5 1.6 1.4 3.2 3 5 4.7.2-.4 1.1-5.7 15.7-16.2 8-5.8 6.3-11.3 4.2-14.4-.5-.8-.7-1.7-1.3-2.5-.4-.4-1.4-1.6-1.2-2.1.8-1.9 3.1 2 3.7 2.5.7.6 1.4.7 2 0 .7-.8 1.2-1.8 1.8-2.6.4-.5 1-.9 1.3-1.4.2-.3.3-.9.7-1.2-.5-3.6-4.1-4.1-4.1-4.1l-4.9-1.5c-1.4-.6-2.7-1.1-4-1.5-2.4-1.1-3.7-2.4-4.9-4.2-2.1-2.9-3.6-3.7-3.6-3.7-1.9-1.3.4-7 1.8-8.9 1.6-2.2-.1-3.2-.1-3.2-1.8-.4-2.1-1.1-2.1-1.1L54 35.9c.7-1 .1-2.1.1-2.1-1.7.7-2-.1-2-.1l.1-1.6s.3-1.2-1.5-.6c-1.5.5-3.1-.1-3.1-.1-.9-.4-1.7-.7-2.5-.9-2.8-.6-5.4.2-7.5 1.4-1.5 2.8 1.8 6.1 4.2 6.7 3.6.9 8.6 5.5 3.4 7-1.1.3-3.9-.3-4 1.6-.1 2.1 3.2 1.7 4.4 1.8.6.1 1.3.4 1.8.8l.4.4c2.2 2.5-4.9 8.9-5.6 9.4-1.6 1.3-3 2.6-4.4 4-4.4 4.6-7.9 9.5-10.5 14.6-1.1 2.1-2 4.2-2.8 6.3-1.2 3.1-2.2 6.3-2.9 9.3-.6 2.6-1.1 5.3-1.4 7.9-1.3 10.3-.4 19.8.7 26.5.1.5.1.9.3 1.4.5 4.1 1.1 6.9 1.2 7.6-.1.8-.3 1.7-.6 2.7-.7 2.2-.5 4.8.4 7.1.2.5.4.9.6 1.4.3 1 .1 2.1.8 2.9.4.4.9.7 1.2 1.1.2.4.2.9.5 1.3s.9.6 1.2 1.1c.2.4.4.9.7 1h.2s-.1-.1 0-.1c1-.8-.9-10.5.4-10.5.8 0 1.8.7 2.4 1.3.6.6 1.1 1.3 1.7 1.8s1.8.5 2.1-.2c-.8-1.8-2.2-2.5-3.1-3.7z"/><path fill="#52C1AE" d="M126.3 144.1c1-7.4 2-16.7 2.7-27.3.6-9.8.9-20.6.6-32.2.4-3.6-1.1-5.4-2.8-6.3-2-.3-3.9.4-3.9.4-8.8 2.4-25.6 9.7-42.6 21.7-1.6 1.1-3.2 2.2-4.7 3.4-2.2 1.6-4.3 3.4-6.4 5.1 2.6-2.8 5.3-5 6.1-5.6 0-1.8-.1-3.8-.4-5.8-.3-1.6-.6-3-1.1-4.4l-.9-2.4c-1.2 4.4-3.7 12.7-10.1 19.3-2.5 2.6-5.6 4.8-9.4 6.5 0 0-7.5.5-16-4.7l-1.7 5.1c-.2.5-.4 1.1-.5 1.6-1 3.1-2 7.4-2 12.1 0 4.3.7 9 3 13.5 1.3 2.6 3.2 5.1 5.7 7.5 12.1 11.5 44.8 8.5 67.9-25.8-4-8.8-5.2-18.4-3-26.8-1.3 5.5-.7 9.8-.6 9.6.5 6.4 2.9 14.5 8.8 24.3.3.5.7 1.1 1 1.6 0 0 .9 2.8 1.2 9.1.2 4.1.1 9.7-.7 17-.5 2.8-1.4 4.6-2 5.4-.5.7-1.3 1.1-2 1.6s-1.4 1.1-1.6 1.9c-.3.8-.1 1.7.3 2.4.4.8.9 1.4 1.5 2 1.8 1.9 4 3.7 5 6.1.4 1.1.6 2.2.9 3.4.3 1.1.9 2.2 1.9 2.8-.3.4-.6.9-.5 1.4 0 .5.7.9 1.1.7-.2.5.2 1.1.7 1.2.5.1 1.1-.4 1.1-.9 0 .6.7 1 1.2.7 0-.2.1-.3.1-.5.2.1.4.3.7.3.3 0 .5-.1.6-.3v-.3c-.1-.5-.1-.9-.2-1.4.4.3 1 .3 1.4-.1.4-.3.6-.8.5-1.3-1-.1-1.8-1-2.2-1.9-.4-.9-.5-2-.6-3-.3-3.8-.6-7.7-.9-11.5-.3-4 0-6.5.2-7.6-.3.2 1.1-6.5 2.6-17.6z"/><path d="M47.2 34.2c-.2-.3-.5-.5-.8-.5l-.4-.1.2.4c.1.2.1.4 0 .7-.1.2-.2.4-.4.5h-.1c-.1 0-.2.1-.3.1-.2.1-.3.3-.2.5s.3.3.5.3h.1c.7 0 1.2-.4 1.4-1 .2-.2.2-.6 0-.9z"/><g><path d="M44.4 32.3c-.5.2-1.1.5-1.4 1-.1.1-.1.2-.2.3-.2.4-.2.9-.1 1.4.1.5.4.9.7 1.2 0 .1-.2 0-.2-.1-.3-.4-.5-.7-.7-1.2-.1-.4-.2-.9-.1-1.3.2-.5.7-.9 1.1-1.2.2-.1.4-.3.7-.4.1 0 .2-.1.3 0-.1.1 0 .3-.1.3z"/></g><path d="M32.2 57.5l-.2-.1v.3c-.1.5-.6.9-1.1.8h-.4c-.1 0-.3.1-.4.3 0 .1 0 .3.2.5.3.2.6.4.9.4.3 0 .5-.1.8-.3.3-.2.4-.5.4-.8.1-.5 0-.9-.2-1.1z"/><g><path d="M31.8 56.4c-.4-.2-.9-.3-1.3-.2-.1 0-.2 0-.3.1-.4.1-.8.3-1 .6-.3.3-.4.6-.5.9-.1 0-.1-.1-.1-.1.1-.3.2-.6.4-.9.2-.3.5-.5.9-.7.4-.1.9-.1 1.4 0 .2 0 .4.1.6.1.1 0 .1.1.1.1 0 .1-.1.1-.2.1z"/></g><g><path fill="#FFF" d="M42.3 59.5s-.1 0 0 0zM25.3 120.7h-.1v.1c.1 0 .1 0 .1-.1zM25.2 120.5v.1h.1v-.1c0-.1 0 0-.1 0zM28.2 118.4s.1 0 0 0c.1 0 .1-.1.1-.1l-.1-.1-.1.1.1.1zM28.5 118.3c.1 0 .1-.1.1-.1l-.1-.1-.1.1c0 .1.1.1.1.1zM25.5 120v.1h.1v-.1h-.1zM25.7 119.8v.1h.1v-.1c0-.1-.1-.1-.1 0zM25.4 120.2v.1h.1v-.1h-.1zM28 118.5c.1 0 .1-.1.1-.1l-.1-.1-.1.1.1.1zM27.6 118.5s-.1-.1-.1 0c0 0-.1.1 0 .1h.1v-.1zM26.3 119.3s.1 0 0 0c.1-.1.1-.1.1-.2h-.1c-.1.1-.1.1 0 .2zM24.8 124.8s.1 0 0 0c.1-.1.1-.1 0-.1h-.1c0 .1 0 .1.1.1zM25.2 120.9s-.1 0-.1.1 0 .1.1.1.1 0 .1-.1c-.1 0-.1 0-.1-.1zM27.7 118.4s-.1.1 0 .1c0 0 0 .1.1.1 0 0 .1-.1 0-.1 0-.1-.1-.1-.1-.1zM25.9 119.6v.1h.2v-.1h-.2zM27.1 118.8s-.1-.1-.1 0c0 0-.1.1 0 .1h.1v-.1zM27.3 118.6s-.1-.1-.1 0c0 0-.1.1 0 .1h.1v-.1zM26.6 119.2v-.1h-.1c-.1 0 0 .1 0 .1h.1zM26.8 118.9s-.1-.1-.1 0v.1h.1c.1 0 .1-.1 0-.1zM29.8 117.9l-.1.1s0 .1.1.1.1-.1 0-.2c.1.1.1 0 0 0zM30.1 117.9l-.1.1s0 .1.1.1c0 0 .1-.1 0-.2.1 0 0 0 0 0zM30.3 117.9c0 .1 0 .1 0 0 .1 0 .1 0 .1-.1h-.1v.1zM28.8 118.1l-.1.1s0 .1.1.1v-.2c.1 0 0 0 0 0zM29.1 118.1s0-.1-.1-.1c0 0-.1 0-.1.1 0 0 0 .1.1.1s.2 0 .1-.1zM29.6 118s-.1 0-.1.1c0 0 0 .1.1.1v-.2c.1 0 0 0 0 0zM29.4 118.1s0-.1-.1-.1c0 0-.1 0-.1.1 0 0 0 .1.1.1s.1-.1.1-.1zM26.2 119.4h-.1v.1h.2c-.1 0-.1-.1-.1-.1zM25.1 124.3s0-.1-.1-.1-.1 0-.1.1c0 0 0 .1.1.1 0-.1 0-.1.1-.1-.1 0 0 0 0 0zM24.9 124.6c.1 0 .1 0 .1-.1s0-.1-.1-.1c0 0-.1 0-.1.1s0 .1.1.1zM25.2 121.3s0-.1-.1-.1-.1 0-.1.1c0 0 0 .1.1.1l.1-.1c-.1.1-.1.1 0 0zM25 123.4s-.1 0-.1.1c0 0 0 .1.1.1.1-.1.1-.1 0-.2.1 0 .1 0 0 0zM25 123.6c-.1.1 0 .1 0 .2 0 0 .1 0 .1-.1 0 0 0-.1-.1-.1zM25 121.5s-.1 0-.1.1 0 .1.1.1c0 0 .1 0 .1-.1s0-.1-.1-.1zM25.1 124s0-.1-.1-.1c0 0-.1 0-.1.1 0 0 0 .1.1.1s.1-.1.1-.1zM25 121.9s.1 0 .1-.1 0-.1-.1-.1-.1 0-.1.1 0 .1.1.1zM25 122.5s.1 0 .1-.1c0 0 0-.1-.1-.1s-.1 0-.1.1c0 0 0 .1.1.1zM25 123.2s.1 0 .1-.1c0 0 0-.1-.1-.1 0 0-.1 0-.1.1s.1.1.1.1zM25 122.2c.1-.1 0-.2 0-.2s-.1 0-.1.1c0 0 0 .1.1.1zM25 122.7c.1 0 .1 0 .1-.1 0 0 0-.1-.1-.1 0 .1-.1.1 0 .2-.1 0-.1 0 0 0zM25 123c.1 0 .1 0 .1-.1 0 0 0-.1-.1-.1 0 0-.1 0-.1.1s.1.1.1.1zM24.7 125.1c.1 0 .1-.1.1-.1v-.1h-.1-.1v.1l.1.1c-.1 0 0 0 0 0zM23.7 127.7l.1-.1-.1-.1-.1.1c0 .1 0 .1.1.1zM23.9 128.1s-.1-.1-.1 0c0 0-.1.1 0 .1 0 0 0 .1.1.1v-.2zM23.8 127.8l-.1-.1-.1.1s0 .1.1.1.1 0 .1-.1zM23.6 127.4s.1 0 .1-.1c0 0 0-.1-.1-.1 0 0-.1 0-.1.1s.1.1.1.1z"/><path fill="#FFF" d="M24 128.3s-.1-.1-.1 0c0 0-.1.1 0 .1h.1v-.1zM23.6 127.2s.1-.1 0 0c.1-.1 0-.1 0-.1s-.1 0-.1.1c0-.1.1 0 .1 0zM24 125.9v-.1h-.1v.1h.1zM24.5 125.3l.1-.1h-.1c-.1 0-.1 0 0 .1-.1 0-.1 0 0 0zM24.3 125.5l.1-.1h-.1c-.1-.1-.1 0 0 .1-.1 0 0 0 0 0zM24.1 125.7c.1 0 .1 0 0 0 .1-.1.1-.1.1-.2h-.1c-.1 0-.1.1 0 .2zM23.6 126.9c.1 0 .1 0 .1-.1 0 0 0-.1-.1-.1s-.1 0-.1.1l.1.1zM23.8 126.3s0-.1-.1-.1c0 0-.1 0-.1.1v.1c.2 0 .2 0 .2-.1zM23.9 126.1v-.1h-.1v.1h.1zM23.8 126.5s0-.1-.1-.1c0 0-.1 0-.1.1 0 0 0 .1.1.1 0 0 .1 0 .1-.1zM24 128.5s-.1.1 0 0v.1h.2v-.1-.1c-.1.1-.2.1-.2.1zM24.2 128.1v.1h.1v-.1c-.1-.1-.1-.1-.1 0zM24.2 128.3h-.1v.1c.1 0 .1 0 .1-.1 0 .1 0 0 0 0zM24.4 127.6v.1h.1v-.1h-.1zM25.1 125.8c.1 0 .1-.1.1-.1l-.1-.1-.1.1.1.1zM24.9 125.3c.1 0 .1-.1.1-.1h-.1c-.1 0-.1 0 0 .1-.1 0-.1 0 0 0zM24.6 127.4v.1h.1v-.1c0-.1-.1-.1-.1 0zM25 125.5c.1 0 .1-.1.1-.1s-.1-.1-.1 0c0 0-.1.1 0 .1zM24.3 127.8v.1h.1v-.1h-.1zM25.1 126.4s-.1 0-.1.1c0 0 0 .1.1.1s.1 0 .1-.1 0-.1-.1-.1zM24.7 127.2v.1h.1v-.1s-.1-.1-.1 0zM25.2 126.1s-.1 0-.1.1c0 0 0 .1.1.1 0 0 .1 0 .1-.1-.1 0-.1-.1-.1-.1zM25.1 126.7H25v.1c.1 0 .1 0 .1-.1zM25.1 125.9s-.1 0-.1.1c0 0 0 .1.1.1.1-.1.1-.1 0-.2.1 0 .1 0 0 0zM24.8 126.9v.1h.1v-.1h-.1zM25 112.3v-.1h-.1v.2c-.1-.1-.1-.1.1-.1-.1 0 0 0 0 0zM25.6 115.7h-.1v.1h.2l-.1-.1zM26 116.2c.1-.1.1-.1.1-.2s-.1 0-.1 0-.1.1 0 .2zM24.7 113.9c.1 0 .1 0 .1-.1 0 0 0-.1-.1-.1 0 0-.1 0-.1.1s0 .1.1.1zM24.6 113.6c.1 0 .1 0 0 0 .1-.1 0-.1 0-.1v.1zM25.5 115.6v-.1h-.1v.1h.1c-.1 0 0 0 0 0zM24.7 114.2c.1 0 .1-.1.1-.1l-.1-.1s-.1 0-.1.1.1.1.1.1zM25.9 115.9h-.1v.1h.2c-.1 0-.1-.1-.1-.1zM24.8 114.5c.1 0 .1-.1.1-.1l-.1-.1-.1.1s0 .1.1.1zM24.7 113s-.1 0-.1.1c0 0 0 .1.1.1 0 0 .1 0 .1-.1s-.1-.1-.1-.1zM24.8 114.3c0 .1 0 .1 0 0 0 .1 0 .1 0 0 0 .1 0 .1 0 0zM26.2 116.4c.1 0 .1 0 0 0 .1-.1.1-.1 0-.2s-.1 0-.1 0c0 .1 0 .1.1.2zM25.2 115.4c.1 0 .1 0 0 0 .1 0 .1-.1.1-.1h-.1c-.1 0 0 .1 0 .1zM25 115c.1 0 .1-.1.1-.1s-.1-.1-.1 0c-.1 0-.2 0 0 .1-.1 0-.1 0 0 0zM25.2 115.1s-.1-.1-.1 0v.1h.1v-.1zM24.7 113.2s-.1 0-.1.1 0 .1.1.1c0 0 .1 0 .1-.1-.1 0-.1-.1-.1-.1zM26.4 116.5c.1 0 .1 0 0 0 .1-.1.1-.1 0-.1h-.1c0 .1.1.1.1.1zM24.8 114.7s.1 0 0 0c.1 0 .1-.1.1-.1s-.1-.1-.1 0c0 0-.1.1 0 .1zM24.9 112.5s0-.1-.1-.1-.1 0-.1.1c0 0 0 .1.1.1l.1-.1c-.1.1 0 .1 0 0zM24.8 112.8s0-.1-.1-.1-.1 0-.1.1c0 0 0 .1.1.1l.1-.1c0 .1 0 0 0 0zM26.7 116.7s.1-.1 0 0v-.1h-.1v.2c0-.1 0-.1.1-.1zM26.5 115.4s.1 0 .1-.1c0 0 0-.1-.1-.1s-.1 0-.1.1l.1.1zM26.5 116.1s.1 0 0 0c.1 0 .1 0 .1-.1 0 0 0-.1-.1-.1 0 0-.1 0-.1.1l.1.1zM26.2 113.3c.1 0 .1-.1.1-.1s-.1-.1-.1 0c-.1-.1-.1 0 0 .1-.1-.1-.1 0 0 0zM26.5 115.6s.1 0 0 0c.1-.1 0-.1 0-.1s-.1 0 0 .1c-.1 0 0 0 0 0zM26.4 113.9c0 .1 0 .1 0 0l.1.1.1-.1-.1-.1c-.1 0-.1.1-.1.1zM25.9 112.7h-.1v.1h.2c0-.1 0-.1-.1-.1zM26.6 116.4c.1 0 .1-.1.1-.1l-.1-.1-.1.1c0 .1 0 .1.1.1zM26.5 115.1s.1 0 .1-.1c0 0 0-.1-.1-.1s-.1 0-.1.1l.1.1zM26.5 114.3s-.1 0-.1.1c0 0 0 .1.1.1 0 0 .1 0 0-.2.1.1.1 0 0 0zM25.4 112.5c.1 0 .1 0 0 0 .1-.1.1-.1 0-.1h-.1l.1.1zM26.5 115.9c.1 0 .1 0 .1-.1 0 0 0-.1-.1-.1 0 0-.1 0-.1.1s.1.1.1.1zM26.4 113.7c.1 0 .1-.1.1-.1l-.1-.1-.1.1c0 .1 0 .1.1.1zM26 113h.1v-.1H26c-.1 0-.1 0 0 .1zM25.7 112.5h-.1v.1h.1c.1 0 .1-.1 0-.1zM26.5 114.6s-.1 0-.1.1c0 0 0 .1.1.1s.1 0 .1-.1c0 0 0-.1-.1-.1zM25.1 112.4s.1 0 0 0c.1 0 .1 0 .1-.1s0-.1-.1-.1c0 0-.1 0-.1.1.1 0 .1.1.1.1zM26.5 114.1l-.1.1s0 .1.1.1v-.2c.1 0 0 0 0 0z"/><path fill="#FFF" d="M26.2 113.4c0 .1.1.1 0 0h.1s.1-.1 0-.1c0 0-.1-.1-.1 0v.1zM29.4 118.2s0 .1 0 0v.1h.2v-.1-.1c-.1.1-.2.1-.2.1zM27.7 122s-.1 0-.1.1c0 0 0 .1.1.1 0 0 .1 0 .1-.1-.1 0-.1-.1-.1-.1zM28 119.6s-.1 0-.1.1c0 0 0 .1.1.1 0 0 .1 0 .1-.1 0 0 0-.1-.1-.1zM28.1 119.2v.1h.1v-.1c0-.1-.1-.1-.1 0zM28.5 118.7v.1h.2v-.1h-.2zM28.3 118.9v.1h.2v-.1h-.2zM27.9 119.9s-.1 0-.1.1c0 0 0 .1.1.1s.1 0 .1-.1 0-.1-.1-.1zM27.8 120.4s-.1 0-.1.1c0 0 0 .1.1.1 0 0 .1 0 .1-.1 0 0 0-.1-.1-.1zM27.9 120.1s-.1 0-.1.1c0 0 0 .1.1.1 0 0 .1 0 .1-.1-.1 0-.1-.1-.1-.1zM27.7 121.7s-.1 0-.1.1 0 .1.1.1c0 0 .1 0 .1-.1l-.1-.1zM27.7 120.9s-.1 0-.1.1c0 0 0 .1.1.1 0 0 .1 0 .1-.1.1 0 0-.1-.1-.1zM27.6 122.3s-.1 0-.1.1v.1s.1 0 .1-.1c.1-.1.1-.1 0-.1zM27.7 121.2s-.1 0-.1.1c0 0 0 .1.1.1 0 0 .1 0 .1-.1s0-.1-.1-.1zM27.7 121.5s-.1 0-.1.1 0 .1.1.1c0 0 .1 0 .1-.1s0-.1-.1-.1zM28.7 118.5v.1h.1v-.1h-.1zM29.2 118.3l-.1.1s0 .1.1.1.1-.1 0-.2c.1 0 0 0 0 0zM28.9 118.4s-.1.1 0 .1h.1s.1-.1 0-.1h-.1zM28 119.4v.1h.1v-.1c0-.1-.1 0-.1 0zM27.8 120.6s-.1 0-.1.1c0 0 0 .1.1.1 0 0 .1 0 .1-.1 0 0-.1 0-.1-.1zM27.5 122.5c-.1 0-.1 0 0 0-.1 0-.1.1-.1.1v.1h.1v-.1-.1zM26.7 123.2v-.1h-.1v.1h.1zM26.8 122.8h-.1v.1h.2l-.1-.1zM26.9 122.8c.1 0 .1 0 0 0 .1 0 .1-.1.1-.1 0-.1-.1 0-.1 0v.1zM27.2 122.7c.1 0 .1-.1.1-.1l-.1-.1-.1.1c0 .1.1.1.1.1zM26.6 123.4v-.1h-.1v.1h.1c-.1.1 0 0 0 0zM26.3 124s.1 0 0 0c.1 0 .1 0 .1-.1 0 0 0-.1-.1-.1s-.1 0-.1.1c.1 0 .1.1.1.1zM26.5 123.6s0-.1-.1-.1c0 0-.1 0-.1.1 0 0 0 .1.1.1l.1-.1c-.1.1 0 .1 0 0zM26.4 124.2zM26.3 124s-.1 0-.1.1c0 0 0 .1.1.1 0 0 .1 0 .1-.1 0 0 0-.1-.1-.1zM26.3 124.3s-.1 0-.1.1 0 .1.1.1c0 0 .1 0 .1-.1l-.1-.1zM26.2 124.6c0 .1 0 .1 0 0v.1h.2v-.1-.1c-.1.1-.1.1-.2.1zM27.5 122.8c0 .1 0 .1 0 0 .1.1.1 0 .1 0s0-.1-.1-.1c0 0-.1.1 0 .1zM27.3 123.6v.1h.1v-.1c0-.1-.1-.1-.1 0zM26.9 124.2v.1h.2v-.1c-.2-.1-.2-.1-.2 0zM27.2 123.8v.1h.2v-.1c-.1-.1-.2 0-.2 0zM27.5 123.3s-.1 0-.1.1c0 0 0 .1.1.1 0 0 .1 0 .1-.1s0-.1-.1-.1zM26.7 124.3v.1h.1v-.1h-.1z"/><path fill="#FFF" d="M26.4 124.5v.1h.1v-.1c0-.1 0-.1-.1 0zM27.6 123s-.1 0-.1.1c0 0 0 .1.1.1 0 0 .1 0 .1-.1-.1 0-.1-.1-.1-.1zM27.1 124v.1h.2v-.1c-.2-.1-.2-.1-.2 0zM20.7 110.1c0-.1 0-.1 0 0-.1-.1-.1-.1-.2-.1v.2h.1l.1-.1zM20.9 112.6s-.1-.1-.1 0-.1.1 0 .1h.1s.1-.1 0-.1zM20.6 112l.1-.1-.1-.1-.1.1s0 .1.1.1zM20.5 111.7l.1-.1-.1-.1-.1.1.1.1zM20.5 111.2s.1 0 .1-.1c0 0 0-.1-.1-.1 0 0-.1 0-.1.1s0 .1.1.1zM20.8 112.1l-.1-.1-.1.1s0 .1.1.1.1 0 .1-.1zM20.8 112.3s-.1-.1-.1 0c0 0-.1.1 0 .1 0 0 0 .1.1.1 0 0 .1-.1 0-.2zM21.2 113.4h.1v-.1s-.1-.1-.1 0v.1zM21.5 113.9s.1-.1 0-.1c0 0-.1-.1-.1 0 0 0-.1.1 0 .1h.1zM21.3 113.5s-.1.1 0 .1h.1s.1-.1 0-.1h-.1zM20.6 110.3s0-.1-.1-.1c0 0-.1 0-.1.1 0 0 0 .1.1.1l.1-.1c0 .1 0 .1 0 0zM21.6 114.2c.1 0 .1-.1.1-.1l-.1-.1-.1.1c0 .1 0 .1.1.1zM21 112.9s-.1-.1-.1 0-.1.1 0 .1h.1c.1-.1.1-.1 0-.1zM21.2 113.1s-.1-.1-.1 0-.1.1 0 .1h.1v-.1zM20.5 111.4s.1 0 .1-.1c0 0 0-.1-.1-.1 0 0-.1 0-.1.1s0 .1.1.1zM20.5 110.5s-.1 0-.1.1 0 .1.1.1c0 0 .1 0 .1-.1l-.1-.1zM20.5 110.9s.1 0 .1-.1 0-.1-.1-.1c0 0-.1 0-.1.1s0 .1.1.1zM21.6 114.4s.1 0 0 0c.1 0 .1-.1.1-.1v-.1h-.1v.1s-.1.1 0 .1c-.1 0 0 0 0 0zM21.5 114.6v-.1h-.1v.1h.1zM21.2 115.1c.1 0 .1 0 .1-.1 0 0 0-.1-.1-.1s-.1 0-.1.1.1.1.1.1zM21.4 114.8v-.1h-.1v.1h.1c-.1 0-.1 0 0 0zM21.5 116s-.1-.1-.1 0c0 0-.1.1 0 .1 0 0 0 .1.1.1v-.2zM21.3 115.6l.1-.1-.1-.1-.1.1s0 .1.1.1zM21.6 116.3s-.1-.1-.1 0c0 0-.1.1 0 .1h.1v-.1zM21.2 115.4s.1 0 .1-.1c0 0 0-.1-.1-.1 0 0-.1 0-.1.1l.1.1zM21.4 115.8l-.1-.1-.1.1s0 .1.1.1.1-.1.1-.1zM21.7 116.5s-.1-.1-.1 0c0 0-.1.1 0 .1h.1v-.1zM21.7 116.7v.1h.2v-.1-.1c-.1.1-.2.1-.2.1zM22.1 115.9s-.1 0-.1.1c0 0 0 .1.1.1 0 0 .1 0 .1-.1s-.1-.1-.1-.1zM22.1 115.4s-.1 0-.1.1c0 0 0 .1.1.1 0 0 .1 0 .1-.1 0 0 0-.1-.1-.1zM22 116.2s-.1 0-.1.1v.1s.1 0 .1-.1c.1 0 .1-.1 0-.1zM21.8 116.5v.1s.1 0 .1-.1v-.1s-.1 0-.1.1zM22.1 115.7s-.1 0-.1.1c0 0 0 .1.1.1 0 0 .1 0 .1-.1s0-.1-.1-.1zM22.1 114.9s-.1.1 0 .1c0 0 0 .1.1.1 0 0 .1-.1 0-.1l-.1-.1zM22.1 115.2c0 .1 0 .1 0 0 .1.1.1 0 .1 0s0-.1-.1-.1c0 0-.1.1 0 .1zM21.9 114.8c.1 0 .1-.1.1-.1s-.1-.1-.1 0-.1 0 0 .1zM21.8 114.6c.1-.1.1-.1.1-.2h-.1c-.1.1-.1.2 0 .2zM34.4 96.6l.1-.1h-.1c-.1 0-.1 0 0 .1-.1 0-.1 0 0 0zM34.2 96.8c.1 0 .1-.1.1-.1h-.1c-.1-.1-.1 0 0 .1-.1 0-.1 0 0 0zM34.6 96.4c.1-.1.1-.1.1-.2h-.1c-.1.1-.1.1 0 .2-.1 0 0 0 0 0zM34.8 96.3c.1-.1.1-.1.1-.2h-.1c-.1 0-.1.1 0 .2-.1 0 0 0 0 0zM35.2 95.7h-.1v.1h.1v-.1zM32.7 97.5c.1 0 .1 0 0 0 .1 0 .1-.1.1-.1s-.1-.1-.1 0v.1zM35.3 95.6v-.2h-.1c0 .1 0 .2.1.2zM33 97.4c.1 0 .1-.1.1-.1s-.1-.1-.1 0c-.1 0-.2.1 0 .1-.1 0 0 0 0 0zM34.9 96.1c.1 0 .1 0 0 0 .1-.1.1-.1.1-.2s-.1 0-.1 0c-.1 0-.1.1 0 .2zM32.6 97.7v-.1h-.1v.1h.1zM33.3 97.2s-.1-.1-.1 0c0 0-.1.1 0 .1h.1v-.1zM33.5 97.2s.1-.1 0-.1c0 0-.1-.1-.1 0 0 0-.1.1 0 .1h.1zM33.6 96.9s-.1.1 0 .1h.1s.1-.1 0-.1h-.1zM34 96.9v-.1s-.1-.1-.1 0c0 0-.1.1 0 .1h.1zM32.3 97.9h.1v-.1-.1h-.1c0 .1-.1.1 0 .2 0-.1 0 0 0 0zM32 98.9h-.1v.1h.2l-.1-.1zM32.4 98s-.1 0-.1.1c0 0 0 .1.1.1.1-.1.1-.1 0-.2.1 0 .1 0 0 0zM31.5 99.4c.1 0 .1 0 0 0 .1 0 .1-.1.1-.1h-.1v.1zM32.4 98.4s.1 0 0 0c.1-.1 0-.2 0-.2s-.1 0-.1.1 0 .1.1.1zM31.3 99.6c.1 0 .1 0 0 0 .1 0 .1-.1.1-.1s-.1-.1-.1 0c0 0-.1 0 0 .1 0-.1 0 0 0 0zM32.2 98.9c.1-.1.1-.1.1-.2s-.1 0-.1 0c-.1.1-.1.1 0 .2-.1 0-.1 0 0 0zM32.3 98.7s.1 0 0 0c.1-.1.1-.1 0-.1h-.1s0 .1.1.1zM31.8 99.1h-.1c-.1 0 0 .1 0 .1h.1c.1 0 .1 0 0-.1zM31.1 99.7c.1 0 .1-.1.1-.1s-.1-.1-.1 0c-.1 0-.1 0 0 .1-.1-.1-.1 0 0 0zM30.9 99.7v-.1h-.1v.2c0-.1 0 0 .1-.1 0 .1 0 .1 0 0zM31 99.5s0-.1-.1-.1-.1 0-.1.1 0 .1.1.1c0-.1.1-.1.1-.1zM31.1 98.6H31v.1h.1c.1 0 .1-.1 0-.1zM31 99h.1v-.1H31c-.1 0-.1.1 0 .1zM32.1 97.8l-.1.1s0 .1.1.1v-.2c.1 0 0 0 0 0zM31.3 98.5v-.1h-.1v.1h.1zM31.8 97.9s-.1.1 0 .1h.1s.1-.1 0-.1c0 0-.1-.1-.1 0zM31 99.2s0-.1-.1-.1c0 0-.1 0-.1.1 0 0 0 .1.1.1l.1-.1c0 .1 0 0 0 0zM31.7 98h-.1v.1h.1V98zM31.5 98.3v-.1h-.1v.1h.1c-.1 0 0 0 0 0zM35.5 67.8s.1 0 0 0c.1-.1 0-.1 0-.1s-.1 0 0 .1c-.1 0-.1 0 0 0zM35.7 67.8s.1 0 .1-.1 0-.1-.1-.1c0 0-.1 0-.1.1s.1.1.1.1zM36.5 67.9s.1 0 .1-.1c0 0 0-.1-.1-.1 0 0-.1 0-.1.1l.1.1zM35.2 67.8c.1 0 .1 0 .1-.1 0 0 0-.1-.1-.1 0 0-.1 0-.1.1s.1.1.1.1zM36 67.8s.1 0 .1-.1 0-.1-.1-.1-.1 0-.1.1.1.1.1.1zM34.7 67.9c.1 0 .1 0 .1-.1s-.1-.1-.1-.1-.1 0-.1.1 0 .1.1.1z"/><path fill="#FFF" d="M34.9 67.9c.1 0 .1 0 .1-.1 0 0 0-.1-.1-.1 0 0-.1 0-.1.1l.1.1zM34.4 67.9c.1 0 .1-.1.1-.1l-.1-.1-.1.1c0 .1.1.1.1.1zM34.2 68c.1 0 .1-.1.1-.1l-.1-.1-.2.1c.1.1.1.1.2.1zM37.1 67.9c.1 0 .1-.1.1-.1s0-.1-.1-.1l-.1.1.1.1zM36.3 67.9s.1 0 .1-.1 0-.1-.1-.1-.1 0-.1.1c0 0 0 .1.1.1zM33.8 68.2s-.1 0 0 0c-.1 0 0 0 0 0zM33.9 68.1c.1 0 .1-.1.1-.1h-.1l-.1.1h.1zM36.8 67.9s.1 0 0 0c.1-.1 0-.1 0-.1s-.1 0-.1.1h.1zM37.3 67.8h.1v-.1-.1h-.1c-.1 0-.1.1 0 .2-.1-.1 0-.1 0 0zM39 66.9s.1 0 .1-.1c0 0 0-.1-.1-.1s-.1 0-.1.1l.1.1zM38.5 66.9c.1 0 .1 0 .1-.1 0 0 0-.1-.1-.1 0 0-.1 0-.1.1s.1.1.1.1zM38.2 67c.1 0 .1 0 0 0 .1 0 .1-.1.1-.1l-.1-.1-.1.1c.1 0 .1.1.1.1zM38.8 66.9s.1 0 0 0c.1-.1 0-.1 0-.1s-.1 0-.1.1h.1zM37.8 67.1c.1 0 .1-.1.1-.1h-.1v.1c-.1 0-.1 0 0 0zM39.3 66.9s.1 0 .1-.1c0 0 0-.1-.1-.1s-.1 0-.1.1.1.1.1.1zM37.6 67.3c.1-.1.1-.1.1-.2h-.1s-.2.2 0 .2c-.1 0 0 0 0 0zM37.4 67.5s.1 0 0 0c.1-.1.1-.1 0-.1h-.1s0 .1.1.1zM38 67c.1 0 .1-.1.1-.1s-.1-.1-.1 0c-.1 0-.1.1 0 .1-.1 0 0 0 0 0zM39.6 66.9l.1-.1v-.1h-.1v.1s-.1.1 0 .1c-.1 0-.1 0 0 0zM39.2 67.3c.1 0 .1 0 0 0l.1-.1h-.1s-.1.1 0 .1zM38 67.9c.1.1.1 0 .1 0s0-.1-.1-.1v.1zM39 67.5s.1 0 0 0l.1-.1H39c-.1 0-.1 0 0 .1zM39.4 67.1h.1V67h-.1c-.1 0-.1.1 0 .1zM38.3 67.8c0 .1 0 .1 0 0l.1.1.1-.1-.1-.1c-.1 0-.2.1-.1.1zM38.5 67.7c0 .1.1.1 0 0h.1s.1-.1 0-.1-.1-.1-.1 0v.1zM37.7 67.8s0-.1-.1-.1h-.1v.1c.1.1.1.1.2 0zM38.8 67.5v.1h.1v-.1h-.1zM37.7 67.8s0 .1.1.1c0 0 .1 0 .1-.1s-.1 0-.2 0c.1 0 0 0 0 0z"/><circle fill="#FFF" cx="25.1" cy="89.6" r=".1"/><path fill="#FFF" d="M24 89.7s.1 0 .1-.1c0 0 0-.1-.1-.1s-.1 0-.1.1c0 0 0 .1.1.1zM24.8 89.5s-.1 0-.1.1 0 .1.1.1c0 0 .1 0 .1-.1l-.1-.1zM23.2 89.8c.1 0 .1-.1.1-.1s0-.1-.1-.1c0 0-.1 0-.1.1 0 0 0 .1.1.1zM22.6 89.9c.1 0 .1-.1.1-.1l-.1-.1-.1.1.1.1zM22.9 89.8c.1 0 .1-.1.1-.1l-.1-.1-.1.1c0 .1.1.1.1.1zM23.7 89.7s.1 0 .1-.1c0 0 0-.1-.1-.1 0 0-.1 0-.1.1s0 .1.1.1z"/><circle fill="#FFF" cx="24.2" cy="89.6" r=".1"/><path fill="#FFF" d="M24.5 89.5s-.1 0 0 0c-.1.1 0 .2 0 .2s.1 0 .1-.1c0 0 0-.1-.1-.1zM23.4 89.7c.1 0 .1 0 .1-.1 0 0 0-.1-.1-.1 0 0-.1 0-.1.1l.1.1zM25.3 89.6s-.1 0 0 0v.1h.2v-.1-.1c-.1.1-.2.1-.2.1zM24.8 90.2v.1h.2v-.1h-.2zM23.3 91.5h.1s.1-.1 0-.1c0 0-.1-.1-.1 0 0 0-.1 0 0 .1zM22.8 91.7c.1 0 .1 0 0 0 .1 0 .1-.1.1-.1l-.1-.1-.1.1c0 .1.1.1.1.1zM24.9 90v.1h.2V90h-.2zM23.1 91.6c.1 0 .1-.1.1-.1s-.1-.1-.1 0c-.1 0-.1.1 0 .1-.1 0-.1 0 0 0zM22.3 91.8s.1 0 .1-.1c0 0 0-.1-.1-.1 0 0-.1 0-.1.1s0 .1.1.1zM25.1 89.8v.1h.2v-.1c-.1-.1-.2 0-.2 0zM24.4 90.7c0 .1 0 .1 0 0h.1v-.1h-.1c-.1 0-.1.1 0 .1zM24.6 90.4v.1h.2v-.1h-.2zM23.7 91.2s.1 0 0 0h.1v-.1h-.1v.1zM22.6 91.8c.1 0 .1 0 .1-.1 0 0 0-.1-.1-.1 0 0-.1 0-.1.1 0 0 0 .1.1.1zM24 90.9v.1h.2v-.1H24zM23.5 91.3c0 .1 0 .1 0 0h.1s.1-.1 0-.1c0 0-.1-.1-.1 0v.1zM24.2 90.9c.1 0 .1 0 0 0 .1-.1.1-.1.1-.2h-.1c-.1.1-.1.1 0 .2zM22 91.8c.1 0 .1 0 0 0 .1-.1 0-.1 0-.2 0 .1-.1.1 0 .2zM27 83.2c.1 0 .1-.1.1-.1L27 83c-.1 0-.1.1 0 .2-.1-.1 0 0 0 0zM27.3 83c.1 0 .1-.1.1-.1s-.1-.1-.1 0c-.1 0-.1 0 0 .1-.1 0-.1 0 0 0zM27.4 82.8c.1.1.1.1 0 0h.1v-.1h-.1v.1zM26.3 83.5c.1 0 .1-.1.1-.1s-.1-.1-.1 0c-.1 0-.2 0 0 .1-.1 0-.1 0 0 0zM25.5 83.9c.1 0 .1-.1.1-.1h-.1c0-.1-.1 0 0 .1 0-.1 0 0 0 0zM26 83.6c.1 0 .1-.1.1-.1s-.1-.1-.1 0c0 0-.1 0 0 .1zM26.8 83.3c.1 0 .1-.1.1-.1s-.1-.1-.1 0c-.1 0-.1 0 0 .1-.1-.1-.1 0 0 0zM26.5 83.4c.1 0 .1-.1.1-.1s-.1-.1-.1 0c-.1-.1-.1 0 0 .1-.1-.1 0 0 0 0zM25.8 83.7c.1 0 .1-.1.1-.1s-.1-.1-.1 0c-.1 0-.1.1 0 .1-.1 0 0 0 0 0zM27.6 82.7s.1 0 0 0h.1v-.1h-.1v.1zM25.3 84c.1 0 .1-.1.1-.1h-.1v.1c-.1 0 0 0 0 0zM24.9 84.3c.1 0 .1-.1.1-.1h-.1c-.1 0-.1 0 0 .1-.1 0-.1 0 0 0zM24.7 84.5c.1-.1.1-.1.1-.2h-.1c-.1.1-.1.1 0 .2-.1 0-.1 0 0 0zM25.1 84.2c.1 0 .1-.1.1-.1h-.1v.1c-.1 0 0 0 0 0zM24.3 84.9l.1-.1h-.1c-.1-.1-.1 0 0 .1-.1 0-.1 0 0 0zM24.4 84.7c.1 0 .1 0 0 0l.1-.1h-.1c-.1 0-.1 0 0 .1zM27.8 82.3s0 .1 0 0v.1h.2v-.1-.1c-.1.1-.1.1-.2.1zM28.5 80.6c.1.1.1.1 0 0h.1v-.1h-.1v.1zM28.4 80.8c.1 0 .1 0 0 0 .1-.1.1-.1.1-.2h-.1c-.1.1-.1.1 0 .2zM28.8 80.5h.1v-.1h-.1c-.1-.1-.1 0 0 .1zM27.9 81.3v.1h.1v-.1h-.1zM29.5 79.9s-.1.1 0 .1h.1s.1-.1 0-.1h-.1zM29.2 80.1s-.1.1 0 .1h.1s.1-.1 0-.1c0 0 0-.1-.1 0zM28.2 80.9v.1h.2v-.1c-.2-.1-.2-.1-.2 0zM29 80.3c0 .1 0 .1 0 0h.1s.1-.1 0-.1H29s-.1.1 0 .1zM29.7 79.8s-.1.1 0 .1c0 0 0 .1.1.1 0 0 .1-.1 0-.1 0-.1 0-.1-.1-.1zM28 81.2h.1v-.1H28v.1zM27.8 82s-.1 0-.1.1c0 0 0 .1.1.1 0 0 .1 0 0-.2.1.1 0 0 0 0zM27.8 81.8s-.1 0-.1.1c0 0 0 .1.1.1 0 0 .1 0 .1-.1s0-.1-.1-.1zM27.8 81.7c.1 0 .1 0 .1-.1 0 0 0-.1-.1-.1 0 0-.1 0-.1.1l.1.1zM30 79.8s-.1 0 0 0v.1h.2v-.1-.1c-.2 0-.2 0-.2.1zM29.2 81.7v.1h.2v-.1c-.1-.1-.2-.1-.2 0zM29 81.9v.1h.2v-.1c-.1 0-.2-.1-.2 0zM29.5 81.3v.1h.1v-.1c0-.1-.1-.1-.1 0zM29.6 81.2s.1 0 0 0h.1v-.1h-.1v.1zM28.8 82v.1h.1V82h-.1zM29.8 80.3s0 .1.1.1.1 0 .1-.1 0-.1-.1-.1l-.1.1zM29.4 81.6h.1v-.1h-.1c-.1 0-.1.1 0 .1zM28.6 82.1s-.1.1 0 .1h.1s.1-.1 0-.1h-.1zM28.4 82.2l-.1.1s0 .1.1.1l.1-.1-.1-.1zM29.7 80.8v.1s.1 0 .1-.1v-.1l-.1.1zM29.8 80.5s0 .1.1.1.1 0 .1-.1c0 0 0-.1-.1-.1l-.1.1zM30 80s-.1 0-.1.1 0 .1.1.1c0 0 .1 0 .1-.1S30 80 30 80zM28.1 82.3s-.1 0-.1.1c0 0 0 .1.1.1 0 0 .1-.1 0-.2.1 0 .1 0 0 0zM37.5 89.9s-.1 0-.1.1c0 0 0 .1.1.1s.1 0 .1-.1l-.1-.1zM37.6 90v.1h.1V90h-.1zM38.1 90.3v.1l.1-.1h-.1zM37.8 90.2v.1h.1v-.1c0-.1 0-.1-.1 0zM36.9 90c.1 0 .1-.1 0 0 .1-.1 0-.2 0-.2s-.1 0-.1.1l.1.1zM35.6 90s.1 0 .1-.1c0 0 0-.1-.1-.1 0 0-.1 0-.1.1l.1.1zM36.1 89.9s.1 0 .1-.1c0 0 0-.1-.1-.1 0 0-.1 0-.1.1l.1.1zM36.7 90s.1-.1 0 0c.1-.1 0-.1 0-.2 0 0-.1 0-.1.1l.1.1zM36.5 89.9s0-.1-.1-.1c0 0-.1 0-.1.1 0 0 0 .1.1.1l.1-.1zM35.9 89.8s-.1 0-.1.1c0 0 0 .1.1.1 0 0 .1-.1 0-.2.1 0 0-.1 0 0zM37.2 90s.1 0 0 0c.1-.1.1-.2 0-.2 0 0-.1 0-.1.1s0 .1.1.1zM35.4 89.9h-.1v.2h.2c-.1-.1 0-.1-.1-.2.1 0 0 0 0 0zM35.6 90.1h-.1v.1h.2l-.1-.1zM37.4 91.3c.1 0 .1 0 .1-.1-.1 0-.1.1-.1.1zM35.8 90.4v.1h.2v-.1h-.2zM35.6 90.3v.1h.2v-.1c-.1-.1-.1-.1-.2 0zM37.3 91.2s-.1 0-.1.1c0 0 0 .1.1.1s.1 0 .1-.1l-.1-.1zM37 91.1h-.1v.1c.1.1.2 0 .1-.1.1.1.1 0 0 0zM36 90.6v.1h.2v-.1H36zM36.7 91.1v.1h.1v-.1c-.1-.1-.1-.1-.1 0zM36.4 90.9v.1h.1v-.1h-.1zM36.2 90.8v.1h.1v-.1c0-.1 0-.1-.1 0zM29.5 113.2c.1-.1.1-.1.1-.2h-.1c-.1.1-.1.1 0 .2-.1 0-.1 0 0 0zM29.8 112.8c.1 0 .1 0 0 0 .1-.1.1-.1.1-.2s-.1 0-.1 0c-.1.1-.1.1 0 .2zM29.7 113c.1-.1.1-.1.1-.2h-.1c-.1.1-.1.1 0 .2-.1 0-.1 0 0 0zM29.3 113.3h-.1v.1h.2c0-.1 0-.1-.1-.1zM32.5 111.6v.1s0-.1.1-.1c-.1-.1-.1-.1-.1 0zM30.1 112.6c.1-.1.1-.1.1-.2h-.1c-.1.1-.1.1 0 .2-.1 0-.1 0 0 0zM29.1 113.6c.1 0 .1 0 0 0 .1-.1.1-.1.1-.2h-.1c-.1.1-.1.1 0 .2zM32.3 111.5s-.1 0-.1.1c0 0 0 .1.1.1 0 0 .1 0 .1-.1l-.1-.1zM31.7 111.5l-.1.1s0 .1.1.1c0 0 .1-.1 0-.2.1 0 0 0 0 0zM31.1 111.7s-.1.1 0 .1h.1s.1-.1 0-.1h-.1zM31 111.8s-.1-.1-.1 0c0 0-.1.1 0 .1h.1v-.1zM30.8 112s-.1-.1-.1 0v.1h.1v-.1zM32 111.5s-.1 0-.1.1c0 0 0 .1.1.1 0 0 .1-.1 0-.2.1 0 0 0 0 0zM30.6 112.1h-.1v.1h.1v-.1zM31.4 111.6l-.1.1s0 .1.1.1.1-.1.1-.1c0-.1 0-.1-.1-.1z"/><path fill="#FFF" d="M30.3 112.5c.1-.1.1-.1.1-.2h-.1c-.1 0-.1 0 0 .2-.1-.1-.1 0 0 0zM28.9 113.8c.1 0 .1 0 0 0 .1 0 .1-.1.1-.1v-.1h-.1v.1s-.1.1 0 .1zM31.8 113.3s-.1.1 0 .1h.1s0-.1.1-.1h-.2zM30.3 113.9s.1 0 .1-.1c0 0 0-.1-.1-.1 0 0-.1 0-.1.1s0 .1.1.1zM29.2 113.9s.1 0 .1-.1c0 0 0-.1-.1-.1 0 0-.1 0-.1.1l.1.1zM30 113.9s.1 0 .1-.1c0 0 0-.1-.1-.1s-.1 0-.1.1l.1.1zM29.8 113.8c-.1-.1-.1 0-.1 0 0 .1 0 .1.1 0 0 .1 0 .1 0 0zM31.4 113.5l-.1.1s0 .1.1.1.1-.1.1-.1l-.1-.1zM31.6 113.4s-.1.1 0 .1h.1s.1-.1 0-.1h-.1zM30.8 113.6s-.1 0-.1.1c0 0 0 .1.1.1s.1 0 0-.2c.1 0 .1 0 0 0zM31.1 113.6l-.1.1s0 .1.1.1.1-.1.1-.1c0-.1-.1-.2-.1-.1zM30.6 113.7s-.1 0-.1.1c0 0 0 .1.1.1v-.2zM29.5 113.9s.1 0 .1-.1 0-.1-.1-.1-.1 0-.1.1 0 .1.1.1zM25.2 118.1c-.1-.1-.1-.1-.2-.1v.2h.1l.1-.1zM24.6 117.1c.1-.1.1-.1 0-.1h-.1c-.1 0-.1.1.1.1-.1 0-.1 0 0 0z"/><path fill="#FFF" d="M24.7 117.2c.1 0 .1 0 0 0 .1-.1.1-.1.1-.2s-.1 0-.1 0c-.1.1-.1.2 0 .2zM25 117.3h-.1v.1h.1v-.1zM25.1 117.7c.1 0 .1-.1.1-.1s-.1-.1-.1 0c-.1 0-.1 0 0 .1-.1-.1-.1 0 0 0zM23.5 116.7s.1 0 0 0c.1 0 .1 0 .1-.1s0-.1-.1-.1c0 0-.1 0-.1.1.1 0 .1 0 .1.1zM25.2 117.8s0-.1-.1-.1c0 0-.1 0-.1.1 0 0 0 .1.1.1s.1 0 .1-.1zM23.8 116.7c.1 0 .1 0 0 0 .1-.1.1-.2 0-.2 0 0-.1 0-.1.1s.1.1.1.1zM24.2 116.8v.1h.1v-.1h-.1zM24.1 116.8s.1 0 0 0c.1-.1.1-.1 0-.1H24c0 .1 0 .1.1.1-.1 0-.1 0 0 0zM23.4 116.5v-.1h-.1v.2l.1-.1c-.1.1 0 .1 0 0zM24.8 118.2s.1 0 .1-.1c0 0 0-.1-.1-.1 0 0-.1 0-.1.1l.1.1z"/><path fill="#FFF" d="M24.6 118.1c.1 0 .1 0 .1-.1s0-.1-.1-.1c0 0-.1 0-.1.1s0 .1.1.1zM23.5 117.1c.1 0 .1-.1.1-.1s-.1-.1-.1 0-.1 0 0 .1c-.1 0 0 0 0 0zM24.1 117.9c.1 0 .1 0 0 0l.1-.1h-.1s-.1.1 0 .1zM23.7 117.5h.1v-.1h-.1c-.1 0-.1.1 0 .1zM23.4 116.8c.1 0 .1-.1.1-.1s-.1-.1-.1 0c-.1 0-.1.1 0 .1-.1 0 0 0 0 0zM23.6 117.1s-.1.1 0 .1h.1s.1-.1 0-.1h-.1zM23.9 117.7c.1-.1.1-.1.1-.2h-.1c-.1.1-.1.1 0 .2zM24.4 117.9h-.1v.1h.1v-.1zM25.1 120.5H25v.2h.2s0-.1-.1-.2c0 .1 0 .1 0 0zM23.9 121c.1-.1.1-.1.1-.2h-.1c-.1.1-.1.1 0 .2zM24.6 120.6l.1-.1-.1-.1-.1.1c0 .1 0 .1.1.1zM24.8 120.6c.1 0 .1 0 .1-.1s0-.1-.1-.1-.1 0-.1.1l.1.1zM23.6 121.4c.1-.1.1-.1 0-.2h-.1c-.1 0-.1.1.1.2-.1 0-.1 0 0 0zM24.1 120.8c.1 0 .1-.1.1-.1h-.1v.1c-.1 0 0 0 0 0zM24.3 120.7c.1 0 .1-.1.1-.1s-.1-.1-.1 0c0 0-.1 0 0 .1zM23.8 121h-.1v.1h.2c-.1 0-.1-.1-.1-.1z"/><path fill="#FFF" d="M23.4 121.4s-.1.1 0 0v.1h.2v-.1-.1c-.1.1-.2.1-.2.1zM24.4 121.4c.1 0 .1-.1.1-.1s-.1-.1-.1 0c0 0-.1.1 0 .1zM25 120.8h-.1v.1h.1c.1 0 .1-.1 0-.1zM23.6 121.5s0 .1 0 0c.1.1.1 0 .1 0s0-.1-.1-.1v.1zM23.9 121.6c.1 0 .1 0 .1-.1 0 0 0-.1-.1-.1 0 0-.1 0-.1.1.1 0 .1.1.1.1zM24.7 121.3c.1 0 .1-.1.1-.1h-.1c-.1 0-.1 0 0 .1-.1 0-.1 0 0 0zM24.8 121.1c.1 0 .1 0 0 0 .1-.1.1-.1.1-.2h-.1c-.1.1-.1.2 0 .2zM24.2 121.5c.1 0 .1-.1.1-.1l-.1-.1-.1.1c0 .1.1.1.1.1zM24.4 110.5c0 .1.1.1.1.1h.1v-.1-.1l-.2.1zM23.3 111.3c.1 0 .1 0 0 0 .1-.1.1-.1 0-.1h-.1c0 .1.1.1.1.1zM24 110.4s-.1.1 0 .1h.1s.1-.1 0-.1H24zM23.5 111.1v-.1h-.1v.1h.1zM24.4 110.5s0-.1-.1-.1c0 0-.1 0-.1.1 0 0 0 .1.1.1 0-.1.1-.1.1-.1zM23.6 110.9c.1-.1.1-.1.1-.2h-.1s-.1.2 0 .2z"/><path fill="#FFF" d="M23.8 110.8c.1 0 .1-.1 0-.1h-.1v.1c.1-.1.1 0 .1 0zM23.3 111.5v-.1h-.1v.1h.1zM23 111.7v.1h.2v-.1-.1c-.1 0-.1 0-.2.1zM24.5 110.9c.1 0 .1 0 .1-.1s0-.1-.1-.1c0 0-.1 0-.1.1l.1.1zM23.5 111.6c0 .1 0 .1 0 0l.1.1.1-.1-.1-.1c-.1 0-.1.1-.1.1zM24.5 111v-.1h-.1v.1h.1c-.1.1 0 .1 0 0zM23.9 111.5s-.1-.1-.1 0c0 0-.1.1 0 .1h.1v-.1zM23.3 111.7s0 .1 0 0l.1.1.1-.1-.1-.1c-.1 0-.1.1-.1.1zM24 111.3v.1h.1v-.1H24zM24.2 111.2v.1h.2v-.1c-.1-.1-.2-.1-.2 0zM25.6 108.3l-.1-.1v.2h.1v-.1zM25.5 108.7s.1 0 .1-.1 0-.1-.1-.1-.1 0-.1.1c0 0 0 .1.1.1zM26.2 109.7c.1-.1.1-.1 0-.2s-.1 0-.1 0c-.1.1 0 .2.1.2-.1 0-.1 0 0 0zM26.4 109.9s.1 0 0 0c.1-.1.1-.1 0-.1h-.1s0 .1.1.1zM26.7 109.8h-.1v.1h.1v-.1zM25.5 108.9l.1-.1-.1-.1-.1.1c0 .1.1.1.1.1zM25.8 109.4c.1-.1.1-.1.1-.2h-.1c-.1 0-.1.1 0 .2-.1 0 0 0 0 0zM25.6 109.2c.1 0 .1-.1.1-.1h-.1c-.1-.1-.1 0 0 .1-.1-.1 0 0 0 0z"/><path fill="#FFF" d="M26 109.6c.1-.1.1-.1.1-.2H26c-.1 0-.1.1 0 .2-.1 0-.1 0 0 0zM26.9 110.1c.1 0 .1-.1.1-.1v-.1h-.1v.1c-.1.1-.1.1 0 .1zM26.7 109.3c.1 0 .1-.1.1-.1s-.1-.1-.1 0c0 0-.1.1 0 .1zM25.8 108.3s-.1 0-.1.1c0 0 0 .1.1.1s.1 0 .1-.1 0-.1-.1-.1zM26.8 109.6c.1 0 .1-.1.1-.1l-.1-.1-.1.1c0 .1.1.1.1.1zM26.4 108.7v.1h.1v-.1h-.1zM26.9 109.8c.1 0 .1-.1.1-.1s0-.1-.1-.1l-.1.1s0 .1.1.1zM26.3 108.7c.1-.1.1-.1.1-.2h-.1c-.2 0-.2.1 0 .2-.1 0 0 0 0 0zM26.7 109.1s.1-.1 0-.1c0 0-.1-.1-.1 0 0 0-.1.1 0 .1h.1c-.1 0-.1 0 0 0zM26 108.5c.1 0 .1 0 0 0 .1-.1.1-.1 0-.1h-.1l.1.1zM28.7 102.1c0-.1 0-.1 0 0v-.1h-.1v.2c0-.1 0-.1.1-.1-.1 0 0 0 0 0zM28.6 100.2s-.1.1 0 .1h.1s.1-.1 0-.1h-.1zM28.6 100s-.1-.1-.1 0c0 0-.1.1 0 .1h.1v-.1zM28.8 100.7l-.1.1s0 .1.1.1l.1-.1c0-.1 0-.1-.1-.1zM28.9 101.2s0 .1 0 0c-.1.1 0 .1 0 .1.1.1.1 0 0-.1.1.1.1 0 0 0zM28.8 100.6s.1-.1 0-.1-.1-.1-.1 0c0 0-.1.1 0 .1h.1zM28.8 101.9s.1 0 0 0c.1-.1.1-.1 0-.1h-.1s0 .1.1.1zM28.9 101s-.1 0-.1.1c0 0 0 .1.1.1 0 0 .1-.1 0-.2.1 0 0-.1 0 0zM28.4 100v-.1h-.1c-.1 0 0 .1 0 .1h.1zM28.2 99.7c.1-.1.1-.1.1-.2h-.1c-.1.1-.1.1 0 .2-.1 0 0 0 0 0zM28.9 101.7c.1 0 .1 0 .1-.1 0 0 0-.1-.1-.1 0 0-.1 0-.1.1l.1.1zM28.1 99.5c0-.1 0-.1 0 0-.1-.1-.1-.1-.2-.1v.2h.1l.1-.1zM27.9 100.1s-.1 0-.1.1 0 .1.1.1c0 0 .1 0 .1-.1-.1 0-.1-.1-.1-.1zM28.1 101.8s.1 0 0 0h.1v-.1h-.1v.1zM27.8 100.6c.1 0 .1-.1 0 0 .1-.1 0-.1 0-.1s-.1 0-.1.1c0-.1.1 0 .1 0zM27.9 101.1l.1-.1-.1-.1-.1.1c0 .1 0 .1.1.1zM28 99.7s0-.1-.1-.1c0 0-.1 0-.1.1 0 0 0 .1.1.1l.1-.1c0 .1 0 .1 0 0zM27.9 101.3s.1 0 0 0c.1 0 .1-.1.1-.1s-.1-.1-.1 0c0 0-.1.1 0 .1zM28.1 101.4s-.1-.1-.1 0c0 0-.1.1 0 .1h.1v-.1zM28 100s0-.1-.1-.1-.1 0-.1.1 0 .1.1.1l.1-.1zM28.4 102c.1-.1.1-.1.1-.2s-.1 0-.1 0-.1.1 0 .2zM27.8 100.8s.1 0 .1-.1c0 0 0-.1-.1-.1 0 0-.1 0-.1.1s.1.1.1.1zM27.5 93.4v-.1h-.1v.2c0-.1 0-.1.1-.1zM26.9 93.3s-.1.1 0 .1h.1s.1-.1 0-.1h-.1zM26.3 93.8v.1h.1v-.1h-.1zM26.6 93.4v.1h.2v-.1h-.2zM26 94.3v.1h.1v-.1H26zM26 94.7h.1v-.1s-.2 0-.1.1c-.1-.1-.1 0 0 0zM26.4 93.6v.1h.2v-.1h-.2zM26.1 94.2h.1v-.1h-.1v.1zM25.9 94.8s-.1 0-.1.1c0 0 0 .1.1.1s.1 0 .1-.1c0 0 0-.1-.1-.1zM25.8 95.1s0 .1.1.1.1 0 .1-.1 0-.1-.1-.1-.1 0-.1.1zM25.8 95.5c.1 0 .1-.1.1-.1v-.1h-.1v.1c-.1 0-.1 0 0 .1zM27.5 93.5s-.1 0-.1.1c0 0 0 .1.1.1s0 0 0-.2zM27.4 93.9c.1 0 .1 0 .1-.1 0 0 0-.1-.1-.1s-.1 0-.1.1.1.1.1.1zM27.3 94.3h-.1v.1h.1v-.1zM27.5 94.1s0-.1-.1-.1h-.1v.1c.1.1.2.1.2 0zM27 94.8v-.1h-.1v.1c0 .1 0 .1.1 0-.1.1-.1 0 0 0zM26.2 95.2c0 .1 0 .1 0 0h.1s.1-.1 0-.1c0 0-.1-.1-.1 0 0 0-.1.1 0 .1zM27.2 94.6v-.1h-.1v.1h.1c-.1 0 0 0 0 0zM26.4 95v.1h.1s.1-.1 0-.1h-.1z"/><path fill="#FFF" d="M25.9 95.3c0 .1.1.1 0 0h.1s.1-.1 0-.1c0 0-.1-.1-.1 0v.1zM26.7 94.8v.1h.1v-.1h-.1zM41.5 73.7c.1 0 .1 0 0 0 .1 0 .1-.1.1-.1v-.1h-.1v.2zM40.2 74.4v.1h.1v-.1c0-.1 0 0-.1 0zM40.1 75.4s0-.1-.1-.1c0 0-.1 0-.1.1 0 0 0 .1.1.1-.1 0-.1 0 .1-.1-.1.1 0 .1 0 0zM41.3 73.7c.1 0 .1 0 .1-.1l-.1-.1s-.1 0-.1.1.1.1.1.1zM39.9 75.2s0 .1.1.1c0 0 .1 0 .1-.1s0-.1-.1-.1-.1 0-.1.1zM40.8 73.9c.1 0 .1 0 0 0l.1-.1h-.1c-.1 0-.1 0 0 .1-.1 0 0 0 0 0zM41 73.8s.1 0 0 0c.1 0 .1-.1.1-.1s-.1-.1-.1 0c0-.1-.1 0 0 .1zM40.1 74.6v.1s.1 0 .1-.1v-.1l-.1.1zM40.4 74.3h.1v-.1h-.1c-.1 0-.1 0 0 .1zM40.6 74.1c.1-.1.1-.1.1-.2h-.1c-.1.1-.1.1 0 .2zM40 74.9s0 .1.1.1c0 0 .1 0 .1-.1 0 0 0-.1-.1-.1l-.1.1zM39.8 75.7s.1.1 0 0h.1v-.1-.1h-.1v.2zM40.6 75.3s-.1.1 0 .1h.1v-.1h-.1zM40.2 75.5s-.1-.1-.1 0c0 0-.1.1 0 .1h.1v-.1zM41.6 74.2s0-.1-.1-.1-.1 0-.1.1 0 .1.1.1l.1-.1zM40.8 75.1v.1h.1v-.1h-.1zM41.4 74.6h-.1v.1h.1c.1-.1.1-.1 0-.1zM41.5 73.9s0 .1 0 0c.1.1.1 0 .1 0s0-.1-.1-.1v.1zM41 75v.1h.2V75c-.1-.1-.2-.1-.2 0zM41.2 74.9c.1 0 .1 0 0 0 .1-.1.1-.1.1-.2s-.1 0-.1 0c-.1.1-.1.2 0 .2zM40.3 75.4s-.1.1 0 .1h.1s.1-.1 0-.1h-.1zM41.5 74.5h.1v-.1h-.1c-.1 0-.1.1 0 .1zM31.2 74.5s-.1 0 0 0v.1h.2v-.1-.1c-.1 0-.2 0-.2.1zM31.5 74.4s-.1 0-.1.1c0 0 0 .1.1.1v-.2c.1.1 0 0 0 0zM31.8 74.5c.1 0 .1-.1.1-.1s-.1-.1-.1 0c-.1 0-.1 0 0 .1-.1 0-.1 0 0 0zM32.8 72.8c.1 0 .1 0 .1-.1s0-.1-.1-.1-.1 0-.1.1.1.1.1.1zM32.8 72.9s-.1 0-.1.1 0 .1.1.1.1 0 .1-.1l-.1-.1zM32.2 74.2c.1-.1.1-.1.1-.2s-.1 0-.1 0c-.1.1-.1.2 0 .2-.1 0 0 0 0 0zM32.6 73.6s.1 0 0 0c.1-.1.1-.2 0-.2h-.1c0 .1 0 .2.1.2zM31.9 74.2v.1h.1v-.1h-.1zM32.6 73.2s0 .1.1.1c0 0 .1 0 .1-.1 0 0 0-.1-.1-.1 0 .1-.1.1-.1.1zM32.4 73.7v.1h.1v-.1c0-.1-.1-.1-.1 0zM32.3 74h.1v-.1h-.1c-.1.1-.1.1 0 .1zM32.9 72.6c.1 0 .1 0 0 0l.1-.1v-.1h-.1v.1s-.1 0 0 .1c-.1 0 0 0 0 0zM31.2 74.4c.1 0 .1-.1 0 0 .1-.1 0-.1 0-.1s-.1 0-.1.1c0-.1 0 0 .1 0zM32.2 72.9c.1 0 .1-.1.1-.1s-.1-.1-.1 0c-.1 0-.1 0 0 .1-.1 0 0 0 0 0zM32.4 72.8c.1 0 .1-.1.1-.1s-.1-.1-.1 0c-.1 0-.1 0 0 .1-.1 0 0 0 0 0zM31.2 74.1c.1 0 .1 0 .1-.1s0-.1-.1-.1-.1 0-.1.1c0 0 0 .1.1.1z"/><path fill="#FFF" d="M32.7 72.7c.1 0 .1-.1.1-.1s-.1-.1-.1 0c-.1-.1-.1 0 0 .1-.1 0-.1 0 0 0zM31.3 73.8h.1v-.1h-.1c-.1 0-.1.1 0 .1zM31.6 73.4c.1-.1.1-.1.1-.2s-.1 0-.1 0c-.1 0-.1.1 0 .2-.1 0-.1 0 0 0zM32 73.1c.1 0 .1-.1.1-.1H32v.1c-.1-.1-.1 0 0 0z"/><path fill="#FFF" d="M31.8 73.2c.1-.1.1-.1.1-.2h-.1c-.1.1-.1.1 0 .2-.1 0-.1 0 0 0zM31.4 73.6c.1 0 .1 0 0 0 .1-.1.1-.1 0-.2h-.1c0 .1.1.2.1.2zM26.9 118.6c-.1-.1-.1-.1-.2-.1v.2h.1l.1-.1zM26.3 118.7s.1 0 .1-.1 0-.1-.1-.1-.1 0-.1.1 0 .1.1.1zM26.5 118.5s0 .1 0 0c-.1.1 0 .1 0 .1.1.1.1 0 0-.1.2.1.1 0 0 0zM26 118.7c.1 0 .1 0 .1-.1 0 0 0-.1-.1-.1 0 0-.1 0-.1.1 0 0 .1 0 .1.1zM25.5 118.5c.1 0 .1 0 0 0 .1-.1.1-.1 0-.1h-.1l.1.1zM25.7 118.5v.1s.1 0 .1-.1 0-.1-.1 0c.1-.1 0-.1 0 0zM25.3 118.4l.1-.1v-.1h-.1v.1c-.1 0-.1 0 0 .1-.1 0 0 0 0 0zM26.6 105.4s.1 0 0 0l.1.1.1-.1-.1-.1c-.1-.1-.1 0-.1.1zM24.1 106.3c0 .1 0 .1 0 0h.1s.1-.1 0-.1-.1-.1-.1 0c0 0-.1.1 0 .1zM34.1 100.9H34v.1H34.3v-.1c-.1-.1-.2-.1-.2 0zM23.4 106.8c.1 0 .1 0 0 0 .1 0 .1-.1.1-.1h-.1v.1c0-.1 0 0 0 0zM20.5 110.1v-.1h-.1v.1h.1c-.1 0 0 0 0 0zM35.2 98.1s0 .1.1.1v-.1h-.1zM33.6 101.6v.1h.2v-.1s-.2-.1-.2 0zM33.1 102.2v.1h.2v-.1c-.1-.1-.2-.1-.2 0zM27.1 105.2l-.1-.1-.1.1s0 .1.1.1c0 0 .1 0 .1-.1zM35.2 98.4s-.1 0-.1.1c0 0 0 .1.1.1 0 0 .1 0 .1-.1s0-.1-.1-.1zM35.1 98.9s-.1 0-.1.1v.1s.1 0 .1-.1c.1-.1 0-.1 0-.1zM33.8 101.3v.1h.1v-.1h-.1zM35.2 98.6h-.1s0 .1.1.1v-.1c0 .1 0 0 0 0zM33.3 102v.1h.2v-.1s-.2-.1-.2 0zM27.5 105l-.1.1s0 .1.1.1l.1-.1-.1-.1zM33.5 101.8v.1h.2v-.1c-.2-.1-.2-.1-.2 0zM27.2 105.3c.1 0 .1-.1.1-.1l-.1-.1-.1.1.1.1zM26.4 105.3l-.1.1s0 .1.1.1l.1-.1-.1-.1zM34.7 99.7v.1h.1v-.1c-.1-.1-.1-.1-.1 0zM26.1 105.4l-.1.1s0 .1.1.1l.1-.1c.1-.1 0-.1-.1-.1zM34.3 100.4v.1h.1v-.1h-.1zM34.4 100.2v.1h.1v-.1c0-.1 0-.1-.1 0zM34.2 100.6v.2h.2v-.1-.1h-.2zM29 104.7l.1-.1-.1-.1-.1.1c0 .1.1.1.1.1zM35.3 97.9v0zM34.6 99.9v.1h.1v-.1h-.1zM35 99.1h-.1v.1c.1.1.1 0 .1-.1.1.1 0 .1 0 0zM34.9 99.4h-.1v.1c.1 0 .1 0 .1-.1 0 .1 0 0 0 0zM33.9 101.1v.1h.1v-.1c0-.1-.1-.1-.1 0zM25.8 105.6s.1.1 0 0l.1.1.1-.1-.1-.1s-.1 0-.1.1zM19.8 111.4h-.1s0 .1.1.1 0 0 0-.1c0 .1 0 .1 0 0zM30.5 104.1c0 .1 0 .1 0 0h.1s.1-.1 0-.1-.1-.1-.1 0v.1zM19.6 112s-.1 0-.1.1c0 0 0 .1.1.1s.1 0 .1-.1 0-.1-.1-.1zM20.8 109.4c.1 0 .1 0 0 0 .1-.1.1-.1 0-.1h-.1c0 .1.1.1.1.1zM23.9 106.3s-.1.1 0 .1h.1s.1-.1 0-.1h-.1zM24.3 106.2h.1s.1-.1 0-.1c0 0-.1-.1-.1 0v.1zM21 109.1h-.1v.1h.1v-.1zM27.7 105.1c.1 0 .1-.1.1-.1l-.1-.1-.1.1.1.1zM19.4 112.9c.1 0 .1 0 0 0 0 0 0-.1 0 0 0-.1 0 0 0 0zM19.6 112.2c-.1 0-.1 0 0 0l-.1.1s.1 0 .1-.1c0 .1 0 0 0 0zM19.5 112.5s-.1 0 0 0v.2s.1 0 .1-.1-.1-.1-.1-.1zM20.5 109.9h.1v-.1h-.1c-.1 0-.1 0 0 .1zM32.7 102.5v.1h.2v-.1h-.2zM32.5 102.9h-.1v.1h.2c-.1 0-.1 0-.1-.1zM21.5 108.4h-.1v.1h.1v-.1zM32.2 103.2v-.1h-.1v.1c0 .1 0 .1.1 0zM21.1 109c.1 0 .1 0 0 0 .1-.1.1-.1 0-.1H21s0 .1.1.1zM21.7 108.2h-.1v.1h.2c-.1 0-.1-.1-.1-.1zM21.8 108.1c.1-.1.1-.1.1-.2h-.1c-.1.1-.1.1 0 .2zM23.2 106.9c.1 0 .1-.1.1-.1h-.1v.1zM32.6 102.7v.1h.2v-.1h-.2zM31.7 103.5c.1 0 .1 0 0 0 .1 0 .1-.1.1-.1h-.1v.1zM32.9 102.4v.1h.2v-.1c-.1-.1-.1-.1-.2 0zM31.3 103.8c.1 0 .1-.1.1-.1s-.1-.1-.1 0c-.1 0-.2 0 0 .1-.1 0 0 0 0 0zM21.9 107.8v.1h.2v-.1c-.1-.1-.2-.1-.2 0zM31 103.9c.1 0 .1-.1.1-.1s-.1-.1-.1 0c0 0-.1.1 0 .1zM21.2 108.6v.1h.2v-.1h-.2zM20.6 109.5v.1h.1v-.1h-.1zM32 103.4l.1-.1H32v.1c-.1 0-.1 0 0 0zM25.4 105.6s-.1.1 0 .1c0 0 0 .1.1.1 0 0 .1-.1 0-.1l-.1-.1zM31.5 103.7c.1 0 .1-.1.1-.1s-.1-.1-.1 0c-.1 0-.1 0 0 .1-.1 0 0 0 0 0zM22.1 107.6v.1h.2v-.1h-.2zM22.3 107.4v.1h.2v-.1h-.2zM25 105.9s-.1-.1-.1 0c0 0-.1.1 0 .1 0 0 0 .1.1.1v-.2zM22.5 107.2v.1h.2v-.1h-.2zM20.2 110.2v.1h.1v-.1h-.1zM20.1 110.5v.1h.1v-.1c0-.1-.1 0-.1 0zM24.6 106s-.1.1 0 .1h.1s.1-.1 0-.1c0 0 0-.1-.1 0zM29.5 104.4s-.1.1 0 .1c0 0 0 .1.1.1l.1-.1c-.1-.1-.1-.1-.2-.1zM28.6 104.8l-.1-.1-.1.1s0 .1.1.1.1-.1.1-.1zM29.3 104.5l-.1.1s0 .1.1.1l.1-.1-.1-.1zM28.8 104.8c.1 0 .1-.1.1-.1l-.1-.1-.1.1c0 .1 0 .1.1.1zM22.7 107.1v.1h.2v-.1c-.1 0-.1-.1-.2 0zM29.7 104.4c0 .1 0 .1 0 0l.1.1s.1-.1 0-.1c0-.1 0-.1-.1 0 0-.1 0 0 0 0zM23.7 106.6c.1 0 .1-.1.1-.1s-.1-.1-.1 0c-.1 0-.1.1 0 .1-.1 0-.1 0 0 0zM30.1 104.4c.1 0 .1-.1.1-.1s-.1-.1-.1 0c-.1-.1-.1 0 0 .1-.1-.1-.1 0 0 0zM23.1 106.9H23v.1h.1v-.1zM19.7 111.7s-.1 0-.1.1c0 0 0 .1.1.1 0 0 .1 0 .1-.1l-.1-.1zM20 110.9h-.1v.1h.1c.1 0 0 0 0-.1zM20.1 110.7H20v.1h.1c.1 0 0-.1 0-.1zM30.4 104.2s-.1-.1-.1 0c0 0-.1.1 0 .1 0 0 0 .1.1.1v-.2zM28 104.8l-.1.1s0 .1.1.1.1-.1.1-.1l-.1-.1zM30.9 103.9s-.1-.1-.1 0c0 0-.1.1 0 .1h.1v-.1zM19.9 111.2h-.1v.1c.1 0 .1 0 .1-.1.1.1 0 0 0 0zM25.6 105.6l-.1.1s0 .1.1.1.2-.1 0-.2c.1 0 .1 0 0 0zM25.2 105.8s-.1-.1-.1 0c0 0-.1.1 0 .1 0 0 0 .1.1.1v-.2z"/><path fill="#FFF" d="M28.2 104.8l-.1.1s0 .1.1.1.1-.1.1-.1 0-.1-.1-.1zM28.4 105.2c.1 0 .1 0 0 0l.1-.1v-.1h-.1v.1c-.1 0-.1 0 0 .1 0-.1 0 0 0 0zM27.2 105.9h-.1v.1h.2c-.1 0-.1-.1-.1-.1zM24.8 111.8c.1 0 .1 0 .1-.1 0 0 0-.1-.1-.1 0 0-.1 0-.1.1s.1.1.1.1zM27.6 105.6h-.1v.1h.1v-.1zM28 105.4c.1 0 .1-.1.1-.1H28v.1c-.1 0-.1 0 0 0zM25 109.3s0-.1-.1-.1c0 0-.1 0-.1.1 0 0 0 .1.1.1s.1 0 .1-.1zM27.8 105.4s-.1-.1-.1 0v.1h.1s.1 0 0-.1zM24.8 110.8s.1 0 .1-.1c0 0 0-.1-.1-.1 0 0-.1 0-.1.1 0 0 0 .1.1.1zM25.4 107.8v.1h.1v-.1c0-.1 0-.1-.1 0zM27.4 105.8h-.1v.1h.2c-.1 0-.1-.1-.1-.1zM24.7 110.1s0 .1.1.1c0 0 .1 0 .1-.1-.1 0-.1-.1-.2 0 .1-.1 0 0 0 0zM26.9 106.2c.1-.1.1-.1.1-.2h-.1c-.1.1-.1.1 0 .2-.1 0-.1 0 0 0zM28.2 105.3c.1 0 .1-.1.1-.1s-.1-.1-.1 0c-.1 0-.1 0 0 .1-.1 0 0 0 0 0zM26.6 106.4h.1v-.1h-.1s-.1 0 0 .1zM24.9 109.7s.1-.1 0 0c.1-.1 0-.2 0-.2s-.1 0-.1.1c0 0 0 .1.1.1zM25.2 108.5h-.1v.1c.1 0 .1 0 .1-.1.1 0 .1 0 0 0zM25.5 108.1v-.1h-.1v.1h.1c-.1 0 0 0 0 0zM24.8 111.5c.1 0 .1 0 .1-.1 0 0 0-.1-.1-.1 0 0-.1 0-.1.1s0 .1.1.1zM25.1 108.9s.1 0 0 0c.1-.1.1-.2 0-.2 0 0-.1 0-.1.1 0 0 0 .1.1.1zM25.6 107.6h.1v-.1h-.1c-.1.1 0 .1 0 .1zM26.2 106.6v.1h.2v-.1h-.2zM26.5 106.4h-.1v.1h.2c0 .1 0 0-.1-.1zM26.1 106.8H26v.1h.2l-.1-.1zM26 107.1h-.1v.1h.1v-.1zM24.7 109.8s0 .1.1.1c0 0 .1 0 .1-.1s-.1 0-.2 0c.1 0 .1 0 0 0zM25.1 109.1s0-.1-.1-.1c0 0-.1 0-.1.1 0 0 0 .1.1.1l.1-.1c0 .1 0 0 0 0zM25.7 107.3v.1h.1v-.1c0-.1 0-.1-.1 0zM25.4 108.3v-.1h-.1v.1h.1c-.1.1 0 .1 0 0zM24.8 111.3c.1 0 .1 0 .1-.1 0 0 0-.1-.1-.1s-.1.1 0 .2c-.1 0-.1 0 0 0zM24.8 110.5s.1 0 .1-.1c0 0 0-.1-.1-.1 0 0-.1 0-.1.1 0 0 0 .1.1.1zM24.7 111c.1 0 .1 0 0 0 .1-.1 0-.1 0-.1v.1zM24.8 112.1c.1 0 .1 0 0 0 .1 0 .1-.1.1-.1v-.1h-.1v.1s-.1 0 0 .1zM23.2 106.5s-.1.1 0 0v.1h.2v-.1-.1c-.1.1-.2.1-.2.1zM22.4 106.8c.1 0 .1-.1.1-.1l-.1-.1-.1.1c0 .1.1.1.1.1zM20.6 107.5c.1 0 .1-.1.1-.1s-.1-.1-.1 0c-.1 0-.1 0 0 .1-.1 0 0 0 0 0zM23 106.7l.1-.1-.1-.1-.1.1c0 .1 0 .1.1.1zM22.8 106.7l-.1-.1-.1.1s0 .1.1.1.1-.1.1-.1zM20.9 107.4c.1 0 .1-.1.1-.1s-.1-.1-.1 0-.1 0 0 .1c-.1-.1-.1 0 0 0zM21.9 107c.1 0 .1-.1.1-.1l-.1-.1-.1.1c0 .1 0 .1.1.1zM21 107.2s0 .1 0 0l.1.1s.1-.1 0-.1c0-.1 0-.1-.1 0 0-.1 0 0 0 0zM20.1 107.8c.1 0 .1-.1.1-.1h-.1v.1c0-.1 0 0 0 0zM19.9 107.9c.1 0 .1-.1.1-.1h-.1c-.1 0-.1 0 0 .1-.1 0 0 0 0 0zM21.6 107.1s.1 0 0 0c.1 0 .1-.1.1-.1s-.1-.1-.1 0c-.1-.1-.1 0 0 .1-.1 0 0 0 0 0zM21.3 107s-.1.1 0 .1c0 0 0 .1.1.1 0 0 .1-.1 0-.1 0-.1 0-.1-.1-.1zM19.7 108.1c.1-.1.1-.1.1-.2h-.1c-.1.1-.1.1 0 .2-.1 0 0 0 0 0zM20.4 107.6c.1 0 .1-.1.1-.1s-.1-.1-.1 0c-.1 0-.2.1 0 .1-.1 0-.1 0 0 0zM22.2 106.9c.1 0 .1-.1.1-.1l-.1-.1-.1.1c0 .1 0 .1.1.1zM30.7 104.3c.1 0 .1 0 0 0 .1 0 .1-.1.1-.1v-.1h-.1v.1s-.1 0 0 .1zM30.8 104.6c.1 0 .1 0 .1-.1 0 0 0-.1-.1-.1 0 0-.1 0-.1.1 0 0 0 .1.1.1zM30.8 105.3s0-.1-.1-.1-.1 0-.1.1c0 0 0 .1.1.1l.1-.1c-.1.1 0 .1 0 0zM30.9 105s0-.1-.1-.1-.1 0-.1.1c0 0 0 .1.1.1 0 0 .1 0 .1-.1zM30.6 105.9v-.1h-.1v.1h.1zM30.7 105.6s0-.1-.1-.1c0 0-.1 0-.1.1v.1l.2-.1zM28.7 110.4c.1 0 .1-.1.1-.1l-.1-.1-.1.1.1.1zM28.9 108.5h.1v-.1h-.1c-.1 0 0 .1 0 .1zM28.7 110.1s.1 0 .1-.1c0 0 0-.1-.1-.1 0 0-.1 0-.1.1s0 .1.1.1c-.1 0-.1 0 0 0zM28.7 110.6s.1 0 0 0h.1s.1-.1 0-.1c0 0-.1-.1-.1 0v.1zM28.8 108.9s0-.1-.1-.1c0 0-.1 0-.1.1 0 0 0 .1.1.1l.1-.1c0 .1 0 .1 0 0zM28.7 109.1s-.1 0-.1.1 0 .1.1.1c0 0 .1 0 .1-.1 0 0 0-.1-.1-.1zM30.2 106.3v.1h.1v-.1c0-.1-.1-.1-.1 0zM30.5 106h-.1v.1h.1v-.1zM30.8 104.7s-.1 0-.1.1 0 .1.1.1c0 0 .1 0 .1-.1s0-.1-.1-.1zM29.3 107.8h-.1v.1h.1v-.1zM28.6 109.6s-.1.1 0 0c-.1.1 0 .1 0 .1s.1 0 0-.1c.1.1.1 0 0 0zM28.6 109.4s-.1 0-.1.1 0 .1.1.1c0 0 .1 0 .1-.1s0-.1-.1-.1zM28.8 108.7c.1 0 .1 0 .1-.1v-.1h-.1c-.1.2 0 .2 0 .2zM29.2 108.2v-.1h-.1v.1h.1c-.1.1-.1 0 0 0zM30 106.9s.1 0 0 0c.1-.1.1-.1 0-.1h-.1s0 .1.1.1c0-.1 0 0 0 0zM29.8 107.1s.1 0 0 0c.1-.1.1-.1 0-.1h-.1s0 .1.1.1zM29.7 107.2h-.1v.1h.1c.1-.1.1-.1 0-.1zM29.6 107.5v-.1h-.1v.1h.1zM29.3 107.8c.1 0 .1 0 0 0 .1-.1.1-.1 0-.2h-.1c0 .1 0 .1.1.2 0-.1 0 0 0 0zM30.1 106.6c.1 0 .1 0 0 0 .1-.1.1-.1 0-.1H30c0 .1.1.1.1.1zM28.9 110.8c0 .1.1.1.1.1h.1v-.1-.1s-.2-.1-.2.1c0-.1 0 0 0 0zM30.4 108.2s-.1 0-.1.1c0 0 0 .1.1.1 0 0 .1 0 .1-.1l-.1-.1zM30.4 108.9s0-.1-.1-.1-.1 0-.1.1 0 .1.1.1l.1-.1zM29.6 110.4c.1-.1.1-.1.1-.2h-.1c-.1 0-.1.1 0 .2zM30.2 109.2c.1 0 .1 0 .1-.1s0-.1-.1-.1c0 0-.1 0-.1.1l.1.1zM30.2 107.3c.1 0 .1-.1.1-.1s-.1-.1-.1 0c-.1 0-.1.1 0 .1-.1 0 0 0 0 0zM30.2 109.4v-.1h-.1v.1h.1zM30.4 107.9s-.1 0-.1.1c0 0 0 .1.1.1v-.2c.1.1 0 0 0 0zM30.4 108.6s0-.1-.1-.1-.1 0-.1.1 0 .1.1.1.1-.1.1-.1zM30 109.8h-.1v.1h.1v-.1zM30.2 107.8s.1.1 0 0c.1.1.1 0 .1 0s0-.1-.1-.1c.1 0 0 0 0 .1zM30.1 109.5H30v.1h.1c.1 0 0 0 0-.1zM29.8 110.1v-.1h-.1v.1h.1c0 .1 0 0 0 0zM29.2 110.7c.1 0 .1-.1.1-.1h-.1v.1c-.1 0 0 0 0 0zM29.4 110.5c.1-.1.1-.1.1-.2h-.1c-.1.1-.1.1 0 .2-.1 0 0 0 0 0zM30.3 107.4l-.1.1s0 .1.1.1.1-.1.1-.1c0-.1-.1-.1-.1-.1zM30.1 107.1c.1 0 .1-.1.1-.1v-.1h-.1v.1c-.1 0-.1 0 0 .1-.1 0 0 0 0 0zM26.4 105.1v.1h.2v-.1-.1c-.1.1-.1.1-.2.1zM22.3 103.6c.1 0 .1-.1 0-.1h-.1v.1h.1zM22.2 103.2h-.1v.1h.1c.1 0 .1 0 0-.1zM22.6 103.8v-.1h-.1v.1h.1c-.1 0 0 0 0 0zM22.1 103.1s.1-.1 0-.1c0 0-.1-.1-.1 0s-.1.1 0 .1h.1zM21.6 102.1c.1 0 .1-.1.1-.1l-.1-.1-.1.1s0 .1.1.1zM22.7 104c.1-.1.1-.1.1-.2s-.1 0-.1 0c-.1.1-.1.1 0 .2-.1 0 0 0 0 0zM26.1 105.2s0 .1 0 0c.1.1.1 0 .1 0s0-.1-.1-.1v.1zM21.7 102.2l-.1.1s0 .1.1.1.1-.1 0-.2c.1 0 0 0 0 0zM25.9 105.2s0 .1.1.1.1 0 .1-.1c0 0 0-.1-.1-.1s-.1.1-.1.1zM25.4 105.1s-.1 0-.1.1 0 .1.1.1c0 0 .1 0 .1-.1 0 0 0-.1-.1-.1zM22.9 104.2c.1-.1.1-.1.1-.2h-.1c-.1.1-.1.1 0 .2zM21.9 102.7s-.1.1 0 .1h.1s.1-.1 0-.1h-.1zM21.8 102.6c.1 0 .1-.1.1-.1s-.1-.1-.1 0c-.1 0-.1 0 0 .1-.1 0 0 0 0 0zM23.4 104.5v-.1h-.1v.1h.1zM24.3 104.8h-.1v.1c.1.1.2.1.1-.1.1.1.1.1 0 0zM23.5 104.7h.1v-.1h-.1v.1zM23.7 104.7v.1h.1v-.1s0-.1-.1 0zM24.9 105s-.1 0-.1.1c0 0 0 .1.1.1s.1 0 .1-.1l-.1-.1zM23.1 104.4l.1-.1h-.1c-.1 0-.1 0 0 .1zM25.6 105.2s0 .1.1.1c0 0 .1 0 .1-.1s-.1-.1-.2 0c0-.1 0 0 0 0zM24.5 105s0 .1.1.1.1 0 .1-.1c0 0 0-.1-.1-.1l-.1.1zM25 105.1s0 .1.1.1c0 0 .1 0 .1-.1H25c.1 0 0 0 0 0zM21.4 101.4v.1h.2v-.1-.1c-.1.1-.1.1-.2.1zM22.6 102.3v-.1h-.1v.1h.1c0 .1 0 .1 0 0zM22.9 102.5v-.1h-.1v.1h.1c-.1 0 0 0 0 0zM22.3 102.2s.1 0 0 0c.1-.1.1-.1 0-.1h-.1s0 .1.1.1zM23.1 102.7v.1h.2v-.1h-.2zM23.1 102.6v-.1H23v.1c-.1 0 0 .1.1 0-.1.1 0 .1 0 0zM23.9 104.2l-.1.1s0 .1.1.1.1-.1.1-.1c0-.1-.1-.1-.1-.1zM21.5 101.6c0 .1 0 .1 0 0 0 .1 0 0 0 0-.1 0-.1 0-.1.1 0 0 0 .1.1.1.1-.1.1-.1 0-.2.2 0 .1 0 0 0zM22.1 102H22v.1h.1c.1-.1.1-.1 0-.1zM21.8 101.8v.1h.1v-.1h-.1zM23.6 103.8s.1.1 0 0l.1.1s.1-.1 0-.1c.1-.1 0-.1-.1 0 0 0 0-.1 0 0zM23.3 102.9v.1h.1v-.1h-.1zM23.9 104.1s.1-.1 0-.1l-.1-.1-.1.1c.1.1.1.1.2.1-.1 0-.1 0 0 0zM23.5 103.2s-.1.1 0 .1h.1s.1-.1 0-.1c-.1-.1-.1-.1-.1 0zM23.6 103.4s-.1.1 0 .1h.1s.1-.1 0-.1h-.1zM24 104.6l.1-.1-.1-.1-.1.1c0 .1 0 .1.1.1z"/><path fill="#FFF" d="M24.1 104.7H24v.2h.1c.1-.1.1-.1 0-.2 0 .1 0 0 0 0zM32.5 90s0-.1-.1-.1c0 0-.1 0-.1.1 0 0 0 .1.1.1 0-.1 0-.1.1-.1zM32.3 90.3c.1 0 .1 0 0 0 .1-.1.1-.2 0-.2 0 0-.1 0-.1.1.1 0 .1.1.1.1zM24.2 93.7s-.1.1 0 .1h.1s.1-.1 0-.1h-.1zM32.6 89.4s0-.1-.1-.1-.1 0-.1.1 0 .1.1.1.1 0 .1-.1zM32.2 90.4s0 .1.1.1.1 0 .1-.1v-.1c-.1.1-.2.1-.2.1zM32.6 89.1s-.1 0-.1.1 0 .1.1.1c0 0 .1 0 .1-.1l-.1-.1zM32.8 81.3v.1h.1v-.1h-.1zM32.6 89.7s0-.1-.1-.1-.1 0-.1.1c0 0 0 .1.1.1 0-.1 0-.1.1-.1-.1 0 0 0 0 0zM23.1 94.6c.1-.1.1-.1 0-.2H23v.1c0 .1.1.1.1.1zM23.3 94.2v.1h.1v-.1h-.1zM31.9 91.3c.1 0 .1 0 0 0 .1-.1.1-.1 0-.2h-.1c0 .1.1.2.1.2zM39 79.5s0-.1 0 0c.1-.1.1-.1 0-.1h-.1l.1.1c-.1 0 0 0 0 0zM33.1 81c.1 0 .1 0 0 0 .1-.1.1-.1 0-.2H33c0 .1 0 .1.1.2zM38.5 79.2s0-.1-.1-.1c0 0-.1 0-.1.1 0 0 0 .1.1.1l.1-.1c0 .1 0 0 0 0zM38.7 79.4h.1v-.1h-.1c-.1 0-.1.1 0 .1zM27.7 93.2s.1 0 .1-.1c0 0 0-.1-.1-.1 0 0-.1 0-.1.1s0 .1.1.1zM22.9 94.7v-.1h-.1v.1h.1zM33.5 80.6c.1-.1.1-.1.1-.2s-.1 0-.1 0c-.1 0-.1.1 0 .2-.1 0 0 0 0 0zM33.7 80.4c.1-.1.1-.1.1-.2h-.1c-.1.1-.1.1 0 .2-.1 0-.1 0 0 0zM22.3 95.3c.1-.1.1-.1.1-.2h-.1c-.1 0-.1.1 0 .2-.1 0-.1 0 0 0zM32.7 81.7h.1v-.1h-.1c-.1 0-.1.1 0 .1zM32.5 81.8v.1h.1v-.1c0-.1-.1 0-.1 0zM25.2 93.3l-.1.1s0 .1.1.1l.1-.1c.1-.1 0-.1-.1-.1zM25 93.4l-.1.1s0 .1.1.1.1-.1.1-.1c0-.1-.1-.1-.1-.1zM33.3 80.8c.1 0 .1 0 0 0 .1-.1.1-.1.1-.2s-.1 0-.1 0c-.1.1-.1.1 0 .2-.1 0 0 0 0 0zM32.5 82.2h.1v-.1s-.2 0-.1.1c-.1-.1-.1 0 0 0zM32.2 83.8c.1 0 .1 0 .1-.1s0-.1-.1-.1c0 0-.1 0-.1.1s0 .1.1.1zM32.2 83.5s.1 0 .1-.1 0-.1-.1-.1-.1 0-.1.1.1.1.1.1zM32.2 90.8h.1v-.1h-.1c-.1 0-.1.1 0 .1zM32.2 84.1s0-.1 0 0c.1-.1 0-.2 0-.2s-.1 0-.1.1 0 .1.1.1zM32.3 82.4s0 .1.1.1.1 0 .1-.1 0-.1-.1-.1c0 0-.1 0-.1.1zM32.2 82.6s0 .1.1.1.1 0 .1-.1c0 0 0-.1-.1-.1s0 .1-.1.1zM32.2 83.2s0 .1.1.1c0 0 .1 0 .1-.1-.1 0-.1-.1-.2 0 0-.1 0-.1 0 0zM32.2 82.9s0 .1.1.1c0 0 .1 0 .1-.1s-.1-.1-.2 0c0-.1 0-.1 0 0zM32.9 81.1v.1h.1v-.1h-.1zM38.3 79.1s0-.1-.1-.1-.1 0-.1.1v.1H38v.1h.1v-.1c.1 0 .2 0 .2-.1zM32.4 86.6s-.1 0-.1.1c0 0 0 .1.1.1s.1-.1 0-.2c.1 0 .1 0 0 0zM32.2 84.4s-.1 0-.1.1c0 0 0 .1.1.1 0 0 .1 0 .1-.1l-.1-.1zM32.2 85s-.1 0-.1.1c0 0 0 .1.1.1 0-.1.1-.1 0-.2.1 0 .1 0 0 0zM32.2 85.3s-.1 0-.1.1c0 0 0 .1.1.1.1-.1.1-.1 0-.2.1 0 .1 0 0 0zM32.2 84.7s-.1 0-.1.1c0 0 0 .1.1.1 0 0 .1 0 0-.2.1 0 0 0 0 0zM32.3 86.1s-.1 0-.1.1c0 0 0 .1.1.1.1-.1.1-.1 0-.2.1 0 .1 0 0 0zM32.4 86.3s-.1 0-.1.1c0 0 0 .1.1.1 0 0 .1 0 0-.2.1 0 0 0 0 0zM32.3 85.8s-.1 0-.1.1 0 .1.1.1c0 0 .1-.1 0-.2.1 0 0 0 0 0zM32.3 85.5s-.1 0-.1.1c0 0 0 .1.1.1v-.2c.1 0 0 0 0 0zM41.7 83.6s.1 0 .1-.1c0 0 0-.1-.1-.1l-.1.1c0 .1 0 .1.1.1zM40.9 80.9h-.1v.1h.1v-.1zM41.3 81.6s-.1-.1-.1 0c0 0-.1.1 0 .1 0 0 0 .1.1.1v-.2zM40.6 80.8c.1 0 .1-.1.1-.1h-.1v.1zM34.2 79.9s.1 0 0 0h.1v-.1h-.1v.1zM34.1 80c.1 0 .1-.1.1-.1h-.1c-.1 0-.1 0 0 .1-.1 0-.1 0 0 0zM39.4 79.7c.1 0 .1 0 0 0 .1-.1.1-.1 0-.1h-.1l.1.1zM41.1 81.4s-.1-.1-.1 0-.1.1 0 .1h.1v-.1zM33.9 80.2c.1-.1.1-.1.1-.2h-.1c-.2.1-.1.1 0 .2-.1 0 0 0 0 0zM40.5 80.6c.1 0 .1-.1.1-.1h-.1c-.1 0-.1 0 0 .1-.1 0 0 0 0 0zM37.7 79.1l.1-.1c-.2 0-.2 0-.1.1-.1 0-.1 0 0 0-.1 0-.1 0 0 0-.1 0-.1 0 0 0zM40.1 80v.1h.2V80h-.2zM39.9 80c.1-.1.1-.1 0-.2h-.1c0 .1 0 .1.1.2z"/><path fill="#FFF" d="M39.7 79.9s.1 0 0 0c.1-.1.1-.1 0-.2h-.1c-.1.1 0 .1.1.2zM40.3 80.4c.1-.1.1-.1.1-.2h-.1c-.1 0-.1.1 0 .2zM36.6 78.9s-.1 0-.1.1c0 0 0 .1.1.1 0 0 .1-.1 0-.2.1 0 0 0 0 0zM41.4 82.2l.1-.1-.1-.1-.1.1c0 .1 0 .2.1.1 0 .1 0 .1 0 0zM41.5 82.8l.1-.1-.1-.1-.1.1c0 .1.1.1.1.1zM41.8 84.5s-.1 0-.1.1c0 0 0 .1.1.1v-.2zM41.8 84.2s-.1 0-.1.1c0 0 0 .1.1.1v-.2c.1 0 0 0 0 0zM41.3 81.9s-.1-.1-.1 0c0 0-.1.1 0 .1 0 0 0 .1.1.1 0-.1.1-.2 0-.2zM32.2 84.4s0-.1 0 0c.1-.1.1-.2 0-.2s-.1 0 0 .2c-.1-.1-.1 0 0 0zM41.7 83.8s.1 0 .1-.1c0 0 0-.1-.1-.1 0 0-.1 0-.1.1s0 .1.1.1zM41.4 82.5l.1-.1-.1-.1-.1.1.1.1zM41.6 83.3l.1-.1-.1-.1-.1.1c0 .1.1.1.1.1zM21 96.7s.1 0 0 0c.1-.1.1-.1.1-.2s-.1 0-.1 0c-.1.1-.1.2 0 .2zM41.7 84.1c.1 0 .1 0 0 0 .1 0 .1 0 .1-.1 0 0 0-.1-.1-.1 0 0-.1 0-.1.1s.1.1.1.1zM41.6 83l.1-.1-.1-.1-.1.1c0 .1 0 .1.1.1zM20.9 96.9v-.1.1c0 .1 0 0 0 0zM26.3 93.2c0 .1 0 .1 0 0 .1.1.1 0 .1 0s0-.1-.1-.1v.1zM25.8 93.2s-.1 0-.1.1c0 0 0 .1.1.1 0 0 .1-.1 0-.2.1 0 0 0 0 0zM25.5 93.4c.1 0 .1-.1.1-.1l-.1-.1-.1.1.1.1zM22.4 95.1c.1 0 .1 0 0 0h.1V95h-.1v.1zM26.5 93.2s0 .1 0 0c.1.1.1 0 .1 0s0-.1-.1-.1v.1zM22.6 94.7v.1h.2v-.1h-.2zM26 93.3c.1.1.1 0 .1 0s0-.1-.1-.1v.1zM21.9 95.7c.1-.1.1-.1.1-.2s-.1 0-.1 0c-.1 0-.1.1 0 .2-.1-.1 0 0 0 0zM21.2 96.5c.1-.1.1-.1.1-.2s-.1 0-.1 0-.1.1 0 .2zM21.4 96.3c.1-.1.1-.1.1-.2s-.1 0-.1 0c-.1.1-.1.1 0 .2-.1 0-.1 0 0 0zM21.7 95.9c.1-.1.1-.1.1-.2s-.1 0-.1 0c-.1 0-.1.1 0 .2zM21.5 96.1c.1-.1.1-.1.1-.2s-.1 0-.1 0c-.1 0-.1.1 0 .2zM38 79s-.1 0-.1.1v.1h.1V79zM39.2 79.6c.1 0 .1-.1 0 0 .1-.1.1-.1 0-.1h-.1l.1.1zM41 81.1s-.1-.1-.1 0c0 0-.1.1 0 .1h.1v-.1zM37.4 79.1s.1-.1 0 0c.1-.1 0-.2 0-.2s-.1 0-.1.1c0 0 0 .1.1.1zM22 95.3v.1h.2v-.1H22zM31.4 91.8v.1h.2v-.1h-.2zM36.3 79.1c.1 0 .1 0 .1-.1l-.1-.1s-.1 0-.1.1.1.1.1.1zM29.2 93s0-.1-.1-.1-.1 0-.1.1c0 0 0 .1.1.1l.1-.1zM28.8 92.9s-.1 0-.1.1c0 0 0 .1.1.1v-.2c.1.1 0 0 0 0zM27.2 93.2s0-.1-.1-.1c0 0-.1 0-.1.1 0 0 0 .1.1.1 0 0-.1 0-.1.1 0 0 0 .1.1.1 0 0 .1 0 .1-.1 0 0 0-.1-.1-.1l.1-.1zM36 79l-.1.1s0 .1.1.1.1-.1.1-.1c0-.1 0-.1-.1-.1zM35.2 79.2s-.1.1 0 .1c0 0 0 .1.1.1 0 0 .1-.1 0-.1 0-.1 0-.1-.1-.1zM35.5 79.3c.1 0 .1-.1.1-.1l-.1-.1-.1.1c.1 0 .1.1.1.1zM28.5 93s-.1 0-.1.1c0 0 0 .1.1.1 0 0 .1 0 .1-.1s-.1-.1-.1-.1zM34.8 79.6c.1 0 .1-.1.1-.1s-.1-.1-.1 0c-.1 0-.1 0 0 .1-.1 0-.1 0 0 0zM35 79.3s-.1.1 0 .1h.1s.1-.1 0-.1H35zM27.9 93.1c0 .1 0 .1 0 0 .1.1.1 0 .1 0s0-.1-.1-.1v.1zM34.5 79.6s-.1.1 0 .1h.1v-.1s-.1-.1-.1 0zM36.8 79c.1.1.1 0 .1 0s0-.1-.1-.1v.1zM29.8 92.9l.1.1.1-.1-.1-.1c-.1 0-.2 0-.1.1zM29.8 92.7zM30.1 92.6s-.1.1 0 .1c0 0 0 .1.1.1 0 0 .1-.1 0-.1 0-.1-.1-.1-.1-.1zM29.3 92.9l-.1.1s0 .1.1.1c0-.1.1-.1 0-.2.1 0 0 0 0 0zM35.8 79.2c.1 0 .1-.1.1-.1l-.1-.1-.1.1c0 .1 0 .1.1.1zM31.2 92v.1h.2V92h-.2zM29.6 92.8l-.1.1s0 .1.1.1.1-.1.1-.1c0-.1-.1-.1-.1-.1zM28.2 93s-.1 0-.1.1c0 0 0 .1.1.1s.1 0 0-.2c.1 0 .1 0 0 0zM31 92.3h.1v-.1H31c-.1 0 0 0 0 .1zM27.4 93s-.1 0-.1.1c0 0 0 .1.1.1s.1 0 0-.2c.1.1.1 0 0 0zM37.1 79c.1.1.1 0 .1 0s0-.1-.1-.1v.1zM30.7 92.4c.1.1.1.1 0 0h.1v-.1s-.1-.1-.1 0v.1zM24 93.8s-.1.1 0 .1h.1s.1-.1 0-.1H24zM24.4 93.6s-.1.1 0 .1h.1s.1-.1 0-.1c.1 0 0-.1-.1 0zM23.7 93.9s-.1.1 0 .1h.1v-.1h-.1zM26.9 93.1s-.1 0-.1.1c0 0 0 .1.1.1v-.2c.1 0 0 0 0 0zM30.6 92.6c.1 0 .1-.1.1-.1s-.1-.1-.1 0c-.1 0-.1 0 0 .1-.1 0 0 0 0 0zM30.3 92.5s-.1.1 0 .1h.1s.1-.1 0-.1h-.1zM24.7 93.6s0 .1 0 0l.1.1s.1-.1 0-.1c0-.1-.1-.1-.1 0 0-.1 0-.1 0 0zM32 90.9v.1h.1v-.1H32zM31.6 91.6v.1h.1v-.1h-.1zM31.7 91.4v.1h.1v-.1c0-.1 0-.1-.1 0zM23.5 94.1v.1h.1s.1-.1 0-.1h-.1zM28.7 102.4c.1 0 .1 0 .1-.1 0 0 0-.1-.1-.1 0 0-.1 0-.1.1l.1.1zM31.1 102.4l.1-.1-.1-.1-.1.1.1.1z"/><path fill="#FFF" d="M28.5 102.3c.1 0 .1 0 .1-.1 0 0 0-.1-.1-.1s-.1 0-.1.1c0 0 0 .1.1.1zM28.2 102.2c.1 0 .1 0 .1-.1 0 0 0-.1-.1-.1s-.1 0-.1.1c0 0 0 .1.1.1zM27.7 102s.1 0 0 0c.1-.1.1-.2 0-.2h-.1c0 .1 0 .2.1.2zM27.9 102v.1s.1 0 .1-.1v-.1l-.1.1zM30.7 102.4s0-.1-.1-.1c0 0-.1 0-.1.1 0 0 0 .1.1.1s.1 0 .1-.1zM33.1 101.6c.1 0 .1-.1.1-.1s-.1-.1-.1 0c0 0-.1.1 0 .1zM31.9 102.2c.1 0 .1-.1.1-.1l-.1-.1-.1.1c0 .1.1.1.1.1zM33.6 101.3c.1 0 .1-.1.1-.1h-.1v.1c-.1 0 0 0 0 0zM33.4 101.5c.1 0 .1-.1.1-.1h-.1c-.1 0-.2 0 0 .1-.1-.1-.1 0 0 0zM29.8 102.3s-.1 0-.1.1c0 0 0 .1.1.1s.1 0 .1-.1l-.1-.1zM32.2 102.1c.1 0 .1-.1.1-.1s-.1-.1-.1 0c-.1 0-.1 0 0 .1-.1 0-.1 0 0 0zM31.4 102.4l.1-.1-.1-.1-.1.1.1.1zM28 102zM31.7 102.3c.1 0 .1-.1.1-.1l-.1-.1-.1.1s0 .1.1.1zM27.3 101.6h-.1v.1h.1v-.1zM33 101.6s-.1-.1-.1 0c0 0-.1.1 0 .1h.1v-.1zM31 102.4l-.1-.1s-.1 0-.1.1c0 0 0 .1.1.1l.1-.1zM30.4 102.4s0-.1-.1-.1c0 0-.1 0-.1.1s0 .1.1.1.1 0 .1-.1zM32.7 101.7s-.1-.1-.1 0c0 0-.1.1 0 .1h.1s.1 0 0-.1zM27.4 101.8v.1h.1v-.1c0-.1-.1-.1-.1 0zM27 101.5h-.1v.1h.1c.1 0 .1-.1 0-.1zM30 102.4c0 .1 0 .1 0 0 .1.1.1 0 .1 0H30zM32.4 102s.1 0 0 0c.1 0 .1-.1.1-.1s-.1-.1-.1 0c-.1-.1-.1 0 0 .1-.1 0 0 0 0 0zM33.8 101v.1h.1v-.1h-.1zM29.3 102.3s-.1 0-.1.1 0 .1.1.1c0 0 .1 0 .1-.1s-.1-.1-.1-.1z"/><path fill="#FFF" d="M29.6 102.3s-.1 0-.1.1c0 0 0 .1.1.1 0 0 .1 0 .1-.1-.1 0-.1-.1-.1-.1zM26.5 101.2v.1h.1v-.1h-.1zM28.9 102.3s0 .1.1.1c0 0 .1 0 .1-.1-.1 0-.1-.1-.2 0 .1-.1 0-.1 0 0zM26.8 101.4h-.1v.1h.1c.1-.1 0-.1 0-.1zM26.4 101h-.1v.2h.2c-.1 0-.1 0-.1-.2 0 .1 0 .1 0 0zM25 101.3s-.1 0-.1.1c0 0 0 .1.1.1s.1 0 .1-.1 0-.1-.1-.1zM24.4 101.1v.1h.1v-.1c0-.1-.1 0-.1 0zM25.3 101.3s-.1 0-.1.1 0 .1.1.1c0 0 .1 0 .1-.1s-.1-.1-.1-.1zM24.2 100.9v.1h.2v-.1h-.2zM24 100.8v.1h.2v-.1c-.1-.1-.2-.1-.2 0zM23.4 100.2c0 .1.1.1 0 0h.1v-.1h-.1v.1zM26 101.2s-.1.1 0 .1h.1s.1-.1 0-.1H26zM23.8 100.6v.1h.2v-.1c-.1-.1-.2-.1-.2 0zM23.3 99.9v.1h.1s.1-.1 0-.1h-.1zM23.6 100.4v.1h.2v-.1c-.1-.1-.2-.1-.2 0zM24.8 101.2h-.1v.1c.1 0 .1 0 .1-.1 0 .1 0 0 0 0zM25.7 101.4s.1 0 0 0l.1.1.1-.1-.1-.1s-.1 0-.1.1z"/><path fill="#FFF" d="M25.5 101.3s-.1 0-.1.1c0 0 0 .1.1.1s.1-.1 0-.2c.1 0 .1 0 0 0zM23.1 99.8s.1 0 0 0h.1s.1-.1 0-.1-.1-.1-.1 0v.1zM23 99.6h.1v-.1-.1H23v.2c0-.1 0 0 0 0zM23.6 99.4s-.1.1 0 0c-.1.1 0 .1 0 .1 0 .1.1 0 0-.1.1.1 0 0 0 0zM23.8 99.5s0 .1.1.1c0 0 .1 0 .1-.1h-.2c0-.1 0 0 0 0zM25.4 99.8v.1s.1 0 .1-.1v-.1l-.1.1zM25.1 99.7v.1s.1 0 .1-.1 0 0-.1 0c.1 0 0 0 0 0zM26.1 100.2H26v.1h.2s0-.1-.1-.1zM26.4 100.6s-.1.1 0 .1h.1s.1-.1 0-.1h-.1zM23.3 99.4s0 .1 0 0c-.1.1 0 .1 0 .1s.1 0 0-.1c.1.1.1 0 0 0zM25 99.6s-.1 0-.1.1c0 0 0 .1.1.1s.1 0 .1-.1c-.1 0-.1-.1-.1-.1zM24.6 99.6s0 .1.1.1c0 0 .1 0 .1-.1s-.1-.1-.2 0c0-.1 0 0 0 0zM26.2 100.4v.1h.1v-.1h-.1zM25.8 100.2c.1 0 .1 0 0 0h.1v-.1c0-.1 0-.1-.1.1 0-.1 0 0 0 0zM25.6 100.1h.1v-.1h-.1v.1zM24.3 99.6s0 .1.1.1c0 0 .1 0 .1-.1-.1 0-.1-.1-.2 0 .1-.1 0-.1 0 0z"/><path fill="#FFF" d="M24 99.5s0 .1.1.1c0 0 .1 0 .1-.1s0 0-.2 0c.1 0 0 0 0 0zM26.5 101s.1 0 0 0v-.1h-.1v.2c0-.1 0 0 .1-.1 0 .1 0 0 0 0zM32.5 86.9h-.1v.1s0 .1.1.1v-.2zM32.5 87.6s0 .1 0 0l-.1.1s0 .1.1.1h.1l-.1-.2c.1.1.1 0 0 0zM31.3 96s0 .1 0 0l.1.1s.1-.1 0-.1c0-.1 0-.1-.1 0 0-.1 0 0 0 0zM32.7 89.1s0 .1 0 0c.1.1.1 0 .1 0l-.1-.1v.1zM32.3 95.5c.1 0 .1-.1.1-.1h-.1c-.1 0-.1 0 0 .1-.1 0 0 0 0 0zM32.6 95.3v-.1h-.1v.1h.1c-.1 0-.1 0 0 0zM33.1 90.3l-.1.1s0 .1.1.1.1-.1.1-.1l-.1-.1zM32.5 87.4c-.1 0-.1.1-.1.1s0 .1.1.1h.1c-.1-.1-.1-.1-.1-.2.1 0 .1 0 0 0z"/><path fill="#FFF" d="M32.5 87.1s-.1 0-.1.1c0 0 0 .1.1.1v-.2c.1 0 0 0 0 0zM31.9 95.6h-.1v.1h.1v-.1zM32.7 95.1V95h-.1v.1h.1zM30.8 96l-.1.1s0 .1.1.1.1-.1.1-.1 0-.1-.1-.1zM31.1 96s-.1.1 0 .1c0 0 0 .1.1.1 0 0 .1-.1 0-.1 0-.1-.1-.1-.1-.1zM33 90.1l-.1.1s0 .1.1.1.1-.1.1-.1c0-.1-.1-.2-.1-.1zM33.5 93s-.1 0-.1.1 0 .1.1.1c0 0 .1 0 .1-.1s0-.1-.1-.1zM33.5 92.7s0 .1 0 0c-.1.1 0 .1 0 .1s.1 0 0-.1c.1.1.1 0 0 0zM33.6 93.4s0-.1-.1-.1-.1 0-.1.1 0 .1.1.1l.1-.1zM33.5 92.4s-.1 0-.1.1c0 0 0 .1.1.1s.1 0 0-.2c.1.1.1 0 0 0zM33.4 91.4l-.1.1s0 .1.1.1.1-.1.1-.1l-.1-.1z"/><path fill="#FFF" d="M33.4 91.6l-.1.1s0 .1.1.1c0 0 .1-.1 0-.2.1.1.1 0 0 0zM33.6 93.6s0-.1-.1-.1-.1 0-.1.1 0 .1.1.1c0 0 .1 0 .1-.1zM32.8 89.5c.1 0 .1-.1.1-.1l-.1-.1-.1.1.1.1zM33.5 92.2s-.1 0-.1.1c0 0 0 .1.1.1 0 0 .1-.1 0-.2.1 0 .1 0 0 0zM33.2 90.8l-.1.1s0 .1.1.1l.1-.1-.1-.1zM33 94.7c.1 0 .1 0 0 0 .1-.1.1-.1 0-.1h-.1s0 .1.1.1zM33.1 90.6l-.1.1s0 .1.1.1.1-.1.1-.1c0-.1 0-.1-.1-.1zM33.3 91.1l-.1.1s0 .1.1.1.1-.1.1-.1c0-.1-.1-.1-.1-.1zM33.3 94.2c.1 0 .1 0 0 0 .1-.1.1-.1 0-.1h-.1c0 .1 0 .1.1.1zM33.5 93.9s0-.1-.1-.1c0 0-.1 0-.1.1 0 0 0 .1.1.1l.1-.1c0 .1 0 0 0 0zM33.2 94.3h-.1v.1h.1c.1 0 .1-.1 0-.1zM33.5 91.9l-.1.1s0 .1.1.1.1-.1.1-.1c0-.1-.1-.1-.1-.1zM32.7 88.5c-.1 0-.1 0 0 0h-.1s-.1 0-.1.1 0 .1.1.1h.1v-.2s0-.1 0 0zM30.3 96.2s-.1 0-.1.1c0 0 0 .1.1.1.1-.1.1-.1 0-.2.1 0 .1 0 0 0zM32 95.6h.1v-.1H32v.1zM32.7 88.7s-.1 0-.1.1c0 0 0-.1-.1-.1s-.1 0-.1.1c0 0 0 .1.1.1 0 0 .1 0 .1-.1h.1v-.1c.1.1 0 0 0 0zM30.5 96.2c0 .1 0 .1 0 0 .1.1.1 0 .1 0s0-.1-.1-.1v.1zM32.6 87.9c-.1 0-.1.1 0 0-.1 0-.1.1-.1.1s0 .1.1.1v-.2c.1.1 0 0 0 0zM32.6 88.2c-.1 0-.1.1-.1.1s0 .1.1.1h.1s.1 0 .1-.1c-.1-.1-.1-.1-.2-.1zM32.9 89.8l-.1.1s0 .1.1.1.1-.1.1-.1c0-.1 0-.1-.1-.1zM32.8 89.5l-.1.1s0 .1.1.1.1-.1.1-.1c.1 0 0-.1-.1-.1zM31.7 95.8s-.1-.1-.1 0c0 0-.1.1 0 .1h.1v-.1zM32.9 94.9v-.1h-.1v.1h.1zM30.1 96.2s-.1 0-.1.1 0 .1.1.1v-.2zM29.7 96.2c0 .1 0 .1 0 0 0 .1.1.1.1.1h.1v-.1-.1c-.1 0-.1 0-.2.1zM30.9 94.5c0 .1.1.1 0 0h.1s.1-.1 0-.1c0 0-.1-.1-.1 0v.1zM31.8 94.2s-.1 0-.1.1c0 0 0 .1.1.1 0 0 .1-.1 0-.2.1 0 .1 0 0 0zM30.4 94.9h-.1v.1h.2c-.1 0-.1-.1-.1-.1zM32.4 94.4s.1 0 .1-.1c0 0 0-.1-.1-.1s-.1 0-.1.1c0 0 0 .1.1.1zM30 95.6h-.1s0 .1.1.1 0 0 0-.1c0 .1 0 0 0 0zM29.8 96c.1 0 .1 0 .1-.1s0-.1-.1-.1c0 0-.1 0-.1.1s.1.1.1.1zM32.6 94.4c.1 0 .1 0 .1-.1s0-.1-.1-.1-.1 0-.1.1c.1 0 .1.1.1.1zM30 95.4v.1h.1v-.1c-.1-.1-.1 0-.1 0zM32 94.3s.1 0 0 0c.1.1.1 0 .1 0s0-.1-.1 0c.1-.1 0-.1 0 0zM31.4 94.3c0 .1.1.1 0 0l.1.1.1-.1-.1-.1-.1.1zM31.3 94.5c.1 0 .1-.1.1-.1l-.1-.1-.1.1c0 .1 0 .1.1.1zM30.5 94.9h.1v-.1h-.1c-.1-.1-.1 0 0 .1zM30.1 95.1v.1h.2v-.1h-.2zM30.7 94.7h.1v-.1h-.1v.1zM33 94.3c-.1-.1-.1-.1-.2-.1v.2h.1s.1.1.1-.1c0 .1 0 .1 0 0zM31.5 91.3v.1h.2v-.1-.1c-.1.1-.2.1-.2.1zM26.9 87.3c.1 0 .1 0 .1-.1s0-.1-.1-.1-.1 0-.1.1 0 .1.1.1zM26.9 89.3l-.1.1s0 .1.1.1l.1-.1c0-.1-.1-.1-.1-.1zM30.2 91.8s0 .1 0 0c.1.1.1 0 .1 0s0-.1-.1-.1v.1zM26.7 87.8s0 .1.1.1c0 0 .1 0 .1-.1s-.1-.1-.2 0c.1-.2 0-.1 0 0zM29.4 91.7s0 .1.1.1c0 0 .1 0 .1-.1s0-.1-.1-.1-.1 0-.1.1zM29.2 91.7c.1 0 .1 0 .1-.1 0 0 0-.1-.1-.1 0 0-.1 0-.1.1 0 0 0 .1.1.1zM26.8 88.5s-.1 0-.1.1c0 0 0 .1.1.1v-.2c.1 0 0 0 0 0zM30.6 91.9s.1 0 .1-.1c0 0 0-.1-.1-.1 0 0-.1 0-.1.1 0 0 0 .1.1.1zM26.9 87.4s-.1 0-.1.1 0 .1.1.1c0 0 .1 0 .1-.1-.1 0-.1-.1-.1-.1zM28.1 91v-.1H28v.1c0 .1 0 .1.1 0-.1.1 0 .1 0 0zM26.8 88.1s.1 0 .1-.1c0 0 0-.1-.1-.1s-.1 0-.1.1 0 .1.1.1zM28.1 91.1v.1h.1v-.1c0-.1 0 0-.1 0zM26.8 88.4s.1 0 .1-.1c0 0 0-.1-.1-.1s-.1 0-.1.1 0 .1.1.1zM30 91.7s-.1 0-.1.1c0 0 0 .1.1.1 0 0 .1 0 .1-.1s0-.1-.1-.1zM28.5 91.4c.1-.1.1-.1 0-.1h-.1s0 .1.1.1c-.1 0-.1 0 0 0zM28.9 91.6h.1v-.1h-.1v.1zM30.9 91.8l.1-.1-.1-.1-.1.1c-.1.1 0 .1.1.1zM31.3 91.4v.1h.1s.1-.1 0-.1h-.1zM27.7 90.7v-.1h-.1v.1h.1c-.1 0 0 0 0 0zM28.6 91.4v.1h.1v-.1c0-.1-.1-.1-.1 0zM27.5 90.3h-.1v.1h.2c-.1 0 0 0-.1-.1zM29.7 91.7s0 .1.1.1c0 0 .1 0 .1-.1s-.1 0-.2 0zM27.2 86.6c.1 0 .1 0 0 0 .1-.1.1-.1 0-.1h-.1l.1.1zM27 86.7v.1h.1v-.1c0-.1 0-.1-.1 0zM27.3 86.2v.1h.1v-.1c0-.1-.1-.1-.1 0zM27.8 90.9c.1 0 .1 0 0 0 .1-.1.1-.1.1-.2s-.1 0-.1 0-.1.1 0 .2zM26.9 87c.1.1.1.1 0 0h.1s0-.1-.1-.1h-.1l.1.1zM26.9 89.7s.1 0 0 0h.1s.1-.1 0-.1c0 0-.1-.1-.1 0v.1zM31.1 91.6s-.1.1 0 .1h.1s.1-.1 0-.1h-.1zM26.8 88.9s.1 0 .1-.1l-.1-.1s-.1 0-.1.1.1.1.1.1zM26.8 89l-.1.1s0 .1.1.1.1-.1.1-.1 0-.1-.1-.1zM27.1 89.8s-.1.1 0 .1h.1s.1-.1 0-.1h-.1zM27.2 90.1v.1h.1v-.1c0-.1 0-.1-.1 0zM27.5 85.9s0 .1 0 0v.1h.2v-.1-.1c-.1.1-.2.1-.2.1zM28.4 90.5c.1-.1 0-.1 0-.1s-.1 0 0 .1c-.1 0-.1 0 0 0zM28.4 89.3s0 .1.1.1c0 0 .1 0 .1-.1h-.2c.1-.1 0 0 0 0zM28.4 90.3s.1 0 .1-.1 0-.1-.1-.1-.1 0-.1.1c0 0 0 .1.1.1zM28.3 89.9s0 .1.1.1c0 0 .1 0 .1-.1s-.1-.1-.2 0c.1-.1 0 0 0 0zM28.4 89.6s0 .1.1.1c0 0 .1 0 .1-.1s-.1-.1-.2 0c0-.1 0 0 0 0zM28.5 87.9l-.1.1s0 .1.1.1.1-.1.1-.1c0-.1-.1-.1-.1-.1zM27.6 86.6c.1 0 .1-.1.1-.1s-.1-.1-.1 0c0 0-.1.1 0 .1zM28 87.3s.1 0 0 0h.1v-.1H28v.1zM28.4 87.6s-.1.1 0 .1h.1s.1-.1 0-.1h-.1zM28.2 87.4v.1h.1s.1-.1 0-.1h-.1zM27.9 87v.1h.1V87c0-.1-.1-.1-.1 0zM28.6 88.4c-.1 0-.1.1 0 0-.1.1 0 .1 0 .1v-.1c0 .1 0 0 0 0zM27.6 86.4l.1-.1-.1-.1-.1.1s0 .1.1.1zM27.8 86.9c.1 0 .1-.1.1-.1h-.1c-.1-.1-.1 0 0 .1-.1-.1-.1 0 0 0zM28.5 88.2s-.1 0-.1.1c0 0 0 .1.1.1.1-.1.1-.1 0-.2.1 0 .1 0 0 0zM28.6 88.7s-.1 0-.1.1 0 .1.1.1c0 0 .1 0 .1-.1-.1 0-.1-.1-.1-.1zM28.4 90.8s.1 0 .1-.1c0 0 0-.1-.1-.1 0 0-.1 0-.1.1s0 .1.1.1zM28.3 90.8zM28.5 89.2s.1 0 .1-.1 0-.1-.1-.1-.1 0-.1.1l.1.1zM28.4 91.1c.1 0 .1 0 0 0l.1-.1v-.1h-.1v.1c-.1.1-.1.1 0 .1zM40.7 84s-.1 0-.1.1c0 0 0 .1.1.1s.1 0 0-.2c.1.1.1 0 0 0zM40.7 84c.1 0 .1 0 .1-.1 0 0 0-.1-.1-.1 0 0-.1 0-.1.1l.1.1zM40.7 84.3s-.1 0-.1.1c0 0 0 .1.1.1s.1 0 0-.2c.2 0 .1 0 0 0zM40.7 83.7c.1 0 .1-.1.1-.1l-.1-.1-.1.1s0 .1.1.1zM40.5 86.8c.1 0 .1-.1 0 0 .1-.1 0-.1 0 0zM40.8 84.6s-.1 0-.1.1c0 0 0 .1.1.1 0-.1.1-.1 0-.2.1 0 0 0 0 0zM38.3 79.4v.1h.1v-.1c0-.1-.1-.1-.1 0zM40.8 85.4s-.1 0-.1.1c0 0 0 .1.1.1 0 0 .1 0 .1-.1s0-.1-.1-.1zM40.7 84.9c0 .1 0 .1 0 0 .1.1.1 0 .1 0s0-.1-.1-.1 0 .1 0 .1zM40.6 83.2l.1-.1s-.1-.1-.2-.1-.1.1-.1.1c.1 0 .1.1.2.1zM40.5 83.3c0 .1.1.1 0 0 .1.1.1 0 .1 0l-.1-.1v.1zM40.7 86.2s-.1 0-.1.1c0 0 0 .1.1.1 0 0 .1 0 .1-.1s0-.1-.1-.1zM40.6 86.5s0 .1.1.1l.1-.1h-.2zM40.7 85.9s-.1 0-.1.1c0 0 0 .1.1.1 0 0 .1 0 .1-.1.1 0 0-.1-.1-.1zM40.8 85.7s-.1 0-.1.1 0 .1.1.1c0 0 .1 0 .1-.1s-.1-.1-.1-.1zM39.8 81s-.1-.1-.1 0-.1.1 0 .1h.1s.1 0 0-.1zM40.8 85.1c-.1 0-.1 0 0 0-.1.1 0 .1 0 .1s.1 0 0-.1c.1 0 .1 0 0 0zM40.3 82.4l.1-.1s-.1-.1-.1 0l-.1.1h.1zM40.1 81.5s-.1-.1-.1 0c0 0-.1.1 0 .1h.1v-.1zM40.2 81.7s-.1-.1-.1 0c0 0-.1.1 0 .1h.1v-.1zM40 81.2s-.1-.1-.1 0c0 0-.1.1 0 .1h.1v-.1zM39.7 80.8h-.1s-.1.1 0 .1h.1v-.1zM40.3 82s-.1-.1-.1 0-.1.1 0 .1c0 0 0 .1.1.1V82zM40.4 82.6l.1-.1-.1-.1-.1.1c0 .1.1.1.1.1zM40.5 82.9l.1-.1-.1-.1-.1.1c0 .1.1.1.1.1zM39 79.9h-.1v.1h.2c-.1 0 0-.1-.1-.1zM38.7 79.7v.1h.2v-.1h-.2zM39.2 80.1h-.1v.1h.2c-.1 0 0-.1-.1-.1zM38.5 79.5v.1h.2v-.1h-.2zM39.5 80.5h-.1v.1h.1c0 .1.1 0 0-.1zM39.4 80.3h-.1v.1h.1v-.1zM35.1 79.5c0 .1.1.1.1.1h.1v-.1-.1s-.1 0-.2.1zM35.5 84.4h-.1v.1h.2c-.1 0-.1-.1-.1-.1zM34.9 79.8h-.1v.1h.1v-.1zM34.6 80.1v.1h.1v-.1c0-.1 0-.1-.1 0zM36.1 85.1v.1h.2v-.1h-.2zM34.6 80.4c.1-.1.1-.1 0-.1h-.1c-.1.1 0 .1.1.1-.1 0 0 0 0 0zM34.6 83.7c0 .1 0 .1 0 0h.1v-.1h-.1c-.1 0-.1.1 0 .1zM34.7 83.9s.1.1 0 0h.1v-.1h-.1v.1zM34.2 81.1s0 .1.1.1c0 0 .1 0 .1-.1 0 0 0-.1-.1-.1s-.1 0-.1.1zM36.6 86l.1-.1s-.1-.1-.1 0c-.1-.1-.1 0 0 .1-.1-.1-.1 0 0 0zM36.6 86.2c.1 0 .1-.1.1-.1l-.1-.1-.1.1c0 .1.1.1.1.1zM34.2 80.8v.1s.1 0 .1-.1v-.1s0 .1-.1.1zM34.2 82.9s-.1.1 0 .1c0 0 0 .1.1.1 0 0 .1-.1 0-.1 0-.1-.1-.1-.1-.1zM36.4 85.5s-.1.1 0 .1h.1s.1-.1 0-.1h-.1zM35.9 84.7h-.1v.1h.2c-.1 0-.1-.1-.1-.1zM36.5 87c.1 0 .1 0 0 0 .1-.1.1-.1 0-.1h-.1l.1.1zM35.6 84.7c.1-.1.1-.1.1-.2s-.1 0-.1 0-.1.1 0 .2zM34.2 82.8c.1 0 .1-.1.1-.1l-.1-.1-.2.1c.1.1.1.1.2.1zM36 84.9h-.1v.1h.2l-.1-.1zM34.4 80.7h.1v-.1h-.1c-.1 0-.1.1 0 .1zM34.5 83.5v-.1h-.1v.1h.1zM34.1 82.5c.1 0 .1 0 .1-.1 0 0 0-.1-.1-.1 0 0-.1 0-.1.1s0 .1.1.1zM34.3 83.3c.1 0 .1-.1.1-.1s-.1-.1-.1 0c0 0-.1 0 0 .1zM34.2 82.7zM34.1 82.2s.1 0 .1-.1c0 0 0-.1-.1-.1 0 0-.1 0-.1.1s0 .1.1.1zM34 81.3s0 .1.1.1.1 0 .1-.1 0-.1-.1-.1c0 .1 0 .1-.1.1zM36.7 86.7s0-.1-.1-.1-.1 0-.1.1 0 .1.1.1.1-.1.1-.1zM34 81.6s0 .1.1.1c0 0 .1 0 .1-.1 0 0-.1-.1-.2 0 .1-.1 0 0 0 0zM34.1 82s.1 0 .1-.1c0 0 0-.1-.1-.1 0 0-.1 0-.1.1 0 0 0 .1.1.1zM36.7 86.3c-.1 0-.1.1 0 0-.1.1 0 .1 0 .1v-.1c0 .1 0 0 0 0zM36.4 85.5s.1-.1 0-.1h-.1s-.1.1 0 .1h.1c-.1 0 0 0 0 0zM35.2 84.2h-.1v.1h.2s0-.1-.1-.1zM34.9 79.6v.1h.2v-.1h-.2zM35 84.1c.1-.1.1-.1.1-.2s-.1 0-.1 0-.1.2 0 .2c-.1 0 0 0 0 0zM36.4 87.3c.1 0 .1-.1.1-.1v-.1h-.1v.1s-.1 0 0 .1zM34.7 85c.1 0 .1 0 .1-.1 0 0 0-.1-.1-.1 0 0-.1 0-.1.1s.1.1.1.1zM34.9 86s.1 0 0 0h.1s.1-.1 0-.1c0 0-.1-.1-.1 0v.1zM35.5 86.7c.1-.1.1-.1.1-.2s-.1 0-.1 0c-.1.1-.1.1 0 .2zM34.7 85.3c.1 0 .1 0 0 0 .1 0 .1-.1.1-.1l-.1-.1-.1.1.1.1zM34.9 85.8s.1-.1 0-.1c0 0-.1-.1-.1 0 0 0-.1.1 0 .1h.1zM35.2 86.3l.1-.1h-.1v.1c-.1 0-.1 0 0 0zM34.7 85.5s.1 0 0 0l.1.1.1-.1-.1-.1c-.1 0-.1 0-.1.1zM34.8 84.6s0-.1-.1-.1c0 0-.1 0-.1.1.1 0 .1.1.2 0 0 .1 0 .1 0 0zM34.7 84.3s-.1 0-.1.1 0 .1.1.1c0 0 .1 0 .1-.1 0 0 0-.1-.1-.1zM35.9 87c.1 0 .1 0 0 0 .1-.1.1-.1 0-.2h-.1c0 .1.1.2.1.2zM35.8 86.8v-.1h-.1v.1h.1c-.1.1 0 0 0 0zM35.4 86.5v-.1h-.1v.1c0 .1 0 .1.1 0-.1 0-.1 0 0 0zM36.2 87h-.1v.1h.1c.1 0 .1-.1 0-.1zM34.8 84.1c0-.1-.1-.1-.1-.1v.2h.1v-.1zM36.6 78.8l.1.1h.1v-.1-.1s-.1 0-.2.1c0-.1 0-.1 0 0zM35 77.8v.1h.1v-.1c0-.1 0-.1-.1 0zM34.5 75.2s-.1 0-.1.1c0 0 0 .1.1.1s.1 0 .1-.1 0-.1-.1-.1zM34.5 76.5l-.1.1s0 .1.1.1.1-.1.1-.1c0-.1-.1-.1-.1-.1zM34.3 75.5s0 .1.1.1c0 0 .1 0 .1-.1 0 0-.1-.1-.2 0 .1-.1.1 0 0 0zM35.5 78.3l.1-.1h-.1c-.1 0-.1.1 0 .1-.1 0 0 0 0 0zM34.4 76.5c.1 0 .1 0 .1-.1 0 0 0-.1-.1-.1 0 0-.1 0-.1.1.1 0 .1.1.1.1zM36.4 78.8c.1 0 .1 0 .1-.1 0 0 0-.1-.1-.1 0 0-.1 0-.1.1s.1.1.1.1zM34.6 77s-.1.1 0 .1c0 0 0 .1.1.1 0 0 .1-.1 0-.1 0-.1 0-.1-.1-.1zM34.6 76.8l-.1.1s0 .1.1.1l.1-.1-.1-.1zM35.7 78.3h-.1v.1h.1c.1 0 .1-.1 0-.1zM34.7 74.5v.1h.1v-.1s-.1-.1-.1 0zM35.2 77.9v.1h.2v-.1h-.2zM35.1 73.8v.1h.1s0 .1.1.1c0 0 .1 0 .1-.1s0-.1-.1-.1v-.1c-.1 0-.1 0-.2.1zM34.4 76.2s.1 0 .1-.1c0 0 0-.1-.1-.1 0 0-.1 0-.1.1l.1.1zM34.6 74.8h.1v-.1h-.1v.1zM34.9 74.4c.1-.1.1-.1 0-.1h-.1s0 .1.1.1zM36.1 78.7h.1v-.1h-.1v.1zM34.9 74v.1h.1c.1 0 .1-.1-.1-.1.2 0 .1 0 0 0zM34.7 77.3s-.1.1 0 .1h.1s.1-.1 0-.1h-.1zM35.9 78.4v.1h.1v-.1h-.1zM34.9 77.5s-.1.1 0 .1h.1v-.1h-.1zM34.5 75.1c.1 0 .1 0 0 0 .1 0 .1 0 .1-.1 0 0 0-.1-.1-.1 0 0-.1 0-.1.1s.1.1.1.1zM34.4 75.9s.1 0 .1-.1c0 0 0-.1-.1-.1 0 0-.1 0-.1.1l.1.1zM35.4 73.7c.1 0 .1 0 0 0 .1 0 .1-.1.1-.1v-.1h-.1v.1s-.1.1 0 .1c-.1 0 0 0 0 0zM35.7 75.1l-.1.1s0 .1.1.1.1-.1 0-.2c.2 0 .1 0 0 0zM35.8 75.6s-.1 0-.1.1 0 .1.1.1c0 0 .1 0 .1-.1l-.1-.1zM35.7 75c.1 0 .1-.1.1-.1s-.1-.1-.1 0c-.1 0-.1 0 0 .1-.1 0-.1 0 0 0zM35.6 76.3s.1 0 0 0c.1 0 .1 0 .1-.1s0-.1-.1-.1c0 0-.1 0-.1.1l.1.1zM35.5 76.5s0 .1.1.1c0 0 .1 0 .1-.1s0-.1-.1-.1-.1.1-.1.1zM35.4 76.7s0 .1.1.1c0 0 .1 0 .1-.1 0 0 0-.1-.1-.1 0 .1-.1.1-.1.1zM35.6 76s0 .1.1.1c0 0 .1 0 .1-.1s0-.1-.2 0c.1-.1.1-.1 0 0zM35.3 77.3c0 .1 0 .1 0 0 .1.1.1 0 .1 0h-.1c0-.1 0 0 0 0zM35.5 77.8s-.1.1 0 .1c0 0 0 .1.1.1 0 0 .1-.1 0-.1 0-.1-.1-.1-.1-.1zM35.4 77.7s.1 0 0 0c.1 0 .1-.1.1-.1l-.1-.1-.1.1.1.1zM35.5 74.4s-.1-.1-.1 0c0 0-.1.1 0 .1h.1s.1-.1 0-.1zM35.7 75.5c.1.1.1 0 .1 0s0-.1-.1-.1v.1zM35.5 77s-.1 0-.1.1c0 0 0 .1.1.1 0 0 .1 0 .1-.1l-.1-.1zM35.3 74.1l-.1.1s0 .1.1.1.1-.1.1-.1c.1-.1 0-.1-.1-.1zM35.5 74.7c0 .1 0 .1 0 0h.1s.1-.1 0-.1-.1-.1-.1 0v.1zM35.6 78.2h.1v-.1-.1h-.1v.2c0-.1 0-.1 0 0zM31.1 75.9c.1 0 .1 0 .1-.1s0-.1-.1-.1c0 0-.1 0-.1.1l.1.1zM31 74.7c0 .1 0 .1 0 0l.1.1.1-.1-.1-.1c-.1 0-.1.1-.1.1zM30.9 76v.1s.1 0 .1-.1v-.1s-.1 0-.1.1zM31.1 75.2s0 .1.1.1c0 0 .1 0 .1-.1s-.1 0-.2 0zM31.1 75.6c.1 0 .1 0 .1-.1s0-.1-.1-.1-.1 0-.1.1l.1.1zM31.1 74.9s-.1 0-.1.1c0 0 0 .1.1.1s.1-.1 0-.2c.2 0 .1 0 0 0zM30.8 74.2c0 .1.1.1 0 0h.1s.1-.1 0-.1c0 0-.1-.1-.1 0v.1zM29 77.8c.1 0 .1-.1.1-.1s-.1-.1-.1 0l-.1.1h.1zM30.9 74.5s.1.1 0 0l.1.1s.1-.1 0-.1c0-.1 0-.1-.1 0 0-.1 0-.1 0 0zM30.7 74c0 .1 0 .1 0 0h.1v-.1h-.1v.1zM29.7 77.5c.1 0 .1-.1.1-.1s-.1-.1-.1 0c0 0-.1.1 0 .1zM30 77.4c.1 0 .1-.1.1-.1H30c-.1 0 0 .1 0 .1-.1-.1-.1 0 0 0zM30.1 77v.1h.2V77h-.2zM29.5 77.6c.1 0 .1-.1.1-.1s-.1-.1-.1 0c-.1 0-.1 0 0 .1-.1 0-.1 0 0 0zM29.2 77.7s.1 0 0 0c.1 0 .1-.1.1-.1s-.1-.1-.1 0c0-.1-.1 0 0 .1zM30.4 73.6c.1 0 .1 0 0 0l.1-.1h-.1s-.1.1 0 .1zM30.2 73.4c.1 0 .1 0 0 0 .1-.1.1-.1.1-.2s-.1 0-.1 0-.1.2 0 .2zM30.1 73.2zM30.5 73.8s.1 0 0 0h.1v-.1h-.1v.1zM30.8 76.2v.1h.1v-.1h-.1zM30.3 76.9v.1h.2v-.1s-.1-.1-.2 0zM30.6 76.5v.1h.1c.1-.1.1-.2-.1-.1.1-.1.1-.1 0 0zM30.5 76.7v.1h.2v-.1c-.1-.1-.2-.1-.2 0zM27.4 78.2c.1 0 .1 0 .1-.1 0 0 0-.1-.1-.1s-.1 0-.1.1 0 .1.1.1zM28.7 77.9c.1 0 .1 0 0 0 .1 0 .1-.1.1-.1l-.1-.1-.1.1c0 .1.1.1.1.1zM28.2 78c.1 0 .1-.1.1-.1l-.1-.1-.1.1c0 .1 0 .1.1.1zM28.5 78c.1 0 .1-.1.1-.1l-.1-.1-.1.1s0 .1.1.1zM27.7 78.1c.1 0 .1 0 .1-.1 0 0 0-.1-.1-.1l-.1.1c0 .1 0 .1.1.1zM27.9 78.1c.1 0 .1-.1.1-.1s0-.1-.1-.1l-.1.1c.1 0 .1.1.1.1zM39.1 70.4v-.1H39v.1c0 .1 0 .1.1 0 0 .1 0 0 0 0zM43.1 81.5c.1 0 .1 0 .1-.1 0 0 0-.1-.1-.1 0 0-.1 0-.1.1s.1.1.1.1zM39.1 75.3s.1 0 0 0h.1v-.1h-.1v.1zM39.6 75.5h-.1v.1h.2c-.1 0-.1 0-.1-.1zM43.1 81.2c.1 0 .1 0 .1-.1 0 0 0-.1-.1-.1 0 0-.1 0-.1.1s0 .1.1.1zM43.1 81.8c.1 0 .1 0 .1-.1 0 0 0-.1-.1-.1 0 0-.1 0-.1.1l.1.1zM43.1 81.9s-.1 0-.1.1c0 0 0 .1.1.1.1-.1.1-.1 0-.2.1 0 .1 0 0 0zM40.7 76.8c.1 0 .1 0 0 0 .1-.1.1-.1.1-.2s-.1 0-.1 0-.1.1 0 .2zM43 80.4l.1-.1-.1-.1-.1.1c0 .1 0 .1.1.1zM41.3 77.2v.1h.2v-.1h-.2zM41.6 77.7s.1.1 0 0h.1v-.1h-.1v.1zM42.4 78.5s-.1-.1-.1 0c0 0-.1.1 0 .1h.1c.1 0 .1-.1 0-.1zM42.3 78.2h-.1v.1h.2c-.1 0-.1 0-.1-.1zM41.5 77.5c.1-.1.1-.1.1-.2h-.1c-.1.1-.1.2 0 .2zM42.6 78.7s-.1-.1-.1 0c0 0-.1.1 0 .1 0 0 0 .1.1.1v-.2zM43.1 82.2zM42.1 78H42v.1h.1c.1 0 .1-.1 0-.1zM43 80.7s.1 0 .1-.1l-.1-.1s-.1 0-.1.1.1.1.1.1zM41.1 77.1c0 .1 0 .1 0 0h.1V77h-.1c-.1.1-.1.1 0 .1zM40.9 77h.1v-.1h-.1c-.1 0-.1 0 0 .1zM42.8 79.6l.1-.1-.1-.1-.1.1c0 .1 0 .1.1.1zM42 77.8h-.1v.1h.2c-.1 0-.1-.1-.1-.1zM42.7 79s-.1-.1-.1 0l-.1.1s0 .1.1.1c.1-.1.1-.2.1-.2zM42.9 79.9l.1-.1-.1-.1-.1.1c0 .1 0 .1.1.1-.1 0 0 0 0 0zM43.1 80.9s.1 0 .1-.1c0 0 0-.1-.1-.1l-.1.1s0 .1.1.1zM42.9 80.1l.1-.1-.1-.1-.1.1c0 .1.1.1.1.1zM42.7 79.4l.1-.1-.1-.1-.1.1c0 .1.1.1.1.1zM38.1 72c.1-.1 0-.2 0-.2s-.1 0-.1.1 0 .1.1.1c-.1 0-.1 0 0 0zM38.7 70.8v-.1h-.1v.1h.1zM38.4 70.9v.1h.1v-.1c0-.1-.1 0-.1 0zM38.2 71.7s0-.1-.1-.1c0 0-.1 0-.1.1s0 .1.1.1l.1-.1c0 .1 0 0 0 0zM38.1 71.4v.1h.1v-.1s-.1-.1-.1 0zM38.2 71.1v.1h.1v-.1h-.1zM38.1 73.6s0 .1 0 0l.1.1s.1-.1 0-.1l-.1-.1v.1zM38.9 75c0 .1.1.1 0 0h.1v-.1h-.1v.1zM39.7 70s0 .1 0 0l.1.1s.1-.1 0-.1c0-.1-.1-.1-.1 0 0-.1 0 0 0 0zM38.3 73.9c.1 0 .1-.1.1-.1s-.1-.1-.1 0c-.1 0-.1 0 0 .1-.1 0-.1 0 0 0zM38.1 73.4c.1 0 .1-.1.1-.1l-.1-.1-.1.1c0 .1.1.1.1.1zM38.9 74.8v-.1h-.1v.1h.1c0 .1 0 .1 0 0zM38.7 74.6c.1 0 .1-.1.1-.1h-.1v.1c-.1 0-.1 0 0 0zM38.5 74.4c.1 0 .1 0 0 0 .1 0 .1-.1.1-.1s-.1-.1-.1 0c0 0-.1 0 0 .1zM38.8 70.5v.1h.2v-.1c-.1-.1-.2-.1-.2 0zM38 72.6s.1 0 .1-.1c0 0 0-.1-.1-.1s-.1 0-.1.1l.1.1zM38 72.9c.1 0 .1 0 .1-.1 0 0 0-.1-.1-.1 0 0-.1 0-.1.1l.1.1zM37.9 72.2s0 .1.1.1c0 0 .1 0 .1-.1s-.1-.1-.2 0c.1-.1 0 0 0 0zM40 70c.1 0 .1-.1.1-.1l-.1-.1-.1.1.1.1zM38.1 73.1c.1 0 .1-.1.1-.1l-.1-.1-.1.1c0 .1 0 .1.1.1zM38.4 74.1c.1 0 .1-.1.1-.1s-.1-.1-.1 0-.1.1 0 .1zM40.2 76.1h-.1v.1h.2c-.1 0-.1-.1-.1-.1zM40.3 76.3v.1h.2v-.1c-.2-.1-.2-.1-.2 0zM40.5 76.6h.1v-.1h-.1c-.1 0-.1.1 0 .1zM39.4 75.5v-.1h-.1v.1h.1zM40 75.9h-.1v.1h.2c-.1 0-.1-.1-.1-.1zM39.5 70s-.1.1 0 .1h.1s.1-.1 0-.1h-.1zM39.8 75.7h-.1v.1h.2c-.1 0-.1 0-.1-.1zM39.2 70.2v.1h.1v-.1c0-.1 0-.1-.1 0zM40.3 69.9c.1 0 .1-.1.1-.1v-.1h-.1v.1s-.1.1 0 .1c-.1 0 0 0 0 0zM38.8 73.9c.1 0 .1 0 .1-.1s0-.1-.1-.1c0 0-.1 0-.1.1l.1.1zM40 70.9c.1 0 .1 0 .1-.1s0-.1-.1-.1-.1 0-.1.1 0 .1.1.1zM39.1 73.8c.1 0 .1-.1.1-.1s-.1-.1-.1 0c-.1 0-.1.1 0 .1-.1 0-.1 0 0 0zM40.1 70.2s-.1 0-.1.1c0 0 0 .1.1.1s.1 0 .1-.1l-.1-.1zM39.8 72.7s0 .1.1.1.1 0 .1-.1c0 0 0-.1-.1-.1s-.1.1-.1.1zM39.9 70.6s0 .1.1.1c0 0 .1 0 .1-.1s0-.1-.2 0c.1-.1 0-.1 0 0zM39.9 72.1s-.1 0-.1.1 0 .1.1.1c0 0 .1 0 .1-.1s0-.1-.1-.1zM39.9 72.5s.1 0 .1-.1 0-.1-.1-.1-.1 0-.1.1 0 .1.1.1zM39.9 71.5s.1 0 .1-.1c0 0 0-.1-.1-.1s-.1 0-.1.1c.1 0 .1.1.1.1zM39.7 72.9v.1s.1 0 .1-.1v-.1l-.1.1zM39.9 71.7s.1 0 .1-.1 0-.1-.1-.1 0 .1 0 .2zM39.9 71.4zM39.9 71.2c.1 0 .1 0 .1-.1V71s-.1 0-.1.1v.1zM39.9 72s.1 0 .1-.1c0 0 0-.1-.1-.1 0 0-.1 0-.1.1s.1.1.1.1zM40.1 70.2c.1 0 .1 0 .1-.1V70h-.1v.2zM39.6 73.2v.1h.1v-.1c0-.1-.1-.1-.1 0zM39.4 73.4v.1h.1v-.1c0-.1 0-.1-.1 0zM39.3 73.7h.1v-.1h-.1c-.1 0-.1 0 0 .1zM38.5 73.8v.1h.2v-.1-.1c-.1 0-.2 0-.2.1z"/></g></svg>