<?xml version="1.0" encoding="utf-8"?>
<!-- Generator: Adobe Illustrator 18.1.1, SVG Export Plug-In . SVG Version: 6.00 Build 0)  -->
<svg version="1.1" id="Layer_1" xmlns="http://www.w3.org/2000/svg" xmlns:xlink="http://www.w3.org/1999/xlink" x="0px" y="0px"
	 viewBox="0 50.1 216 115.9" enable-background="new 0 50.1 216 115.9" xml:space="preserve">
<g id="ENTER_THE_PROCTOLOGIST">
</g>
<g id="REARSEARCH_METHOD_1_">
</g>
<g id="DR._BEN_DOVER">
</g>
<g id="AMOROUS_ANAL-YSIST">
</g>
<g id="NUTTY_PROFESSOR">
</g>
<g id="SACK__x26__SAVE">
</g>
<g id="CHECK_PLEASE_PLEASE_PLEASE">
</g>
<g id="OPEN-BOOK_TESTE">
</g>
<g id="TESTE_x2C__TESTE_x2C__1_x2C__2_x2C__3">
</g>
<g id="GUY-ROPRACTOR">
</g>
<g id="ORAL-EXAM">
</g>
<g id="DOCTOR_x2019_S_ORDERS">
</g>
<g id="LEGS_UP_CHECK-UP">
</g>
<g id="INSIDER_INFORMATION">
</g>
<g id="TRIPLE_X-RAY">
</g>
<g id="DERM-OH-OH-_x0D_OH-TOLOGY">
</g>
<g id="CAT__x28_OR_MATT_x29__SCAN">
</g>
<g id="DEEP-ASSESSMENT">
</g>
<g id="SPLIT_SCREENING">
</g>
<g id="AREOLA_51">
</g>
<g id="INSPECTOR_GRAB-IT">
</g>
<g>
	<path fill="none" d="M100.8,143.7c5.2,0.4,11.3,1.8,17,5.2c-0.7-4-1.1-9.5-0.4-16.9c-2.3,1.9-4.8,3.9-7.5,5.9L100.8,143.7z"/>
	<path fill="none" d="M166.2,159.5c-0.2,0-0.4,0-0.7,0c0,0.1,0.1,0.1,0.1,0.2C165.8,159.7,166,159.6,166.2,159.5z"/>
	<path d="M55.3,60.1c-0.1-0.4-0.1-0.7,0-1c0.1-1-0.2-1.9-0.9-2.6c-1-1.9-2.7-3.3-3-3.5c-1.2-0.9-2.8-1.4-4.5-1.4c-0.2,0-0.4,0-0.6,0
		c-0.4,0-0.8,0.1-1,0.1c-0.2,0-0.4,0.1-0.5,0.1c-0.3-0.1-0.5-0.2-0.7-0.3c-1.3-0.6-2.9-1.4-5.1-1.3c-11,0.4-15,6.9-15.1,12.9
		c0,0.2,0,0.4,0,0.6c0,0.5,0,0.9-0.1,1.2c-0.1,0.1-0.3,0.3-0.4,0.5c-0.1,0.1-0.2,0.2-0.3,0.3c-0.4,0.4-0.6,0.8-0.8,1.2
		C17,67.2,12,70,9.2,72.8c-6.8,6.7-9,16-9.1,24.7c0,1.8-0.6,5.5,1.7,6.9c1.7,1,2.5,0.1,2.8,1.8c0.3,1.5-1.3,3.6-1.7,5
		c-1,3.5-1.2,7.3-0.7,11c0.3,2.2,0.6,6.6,4.6,5.1c0.6,3.5,0.8,9,7.2,9.6c4.4,0.5,7.2-2.8,8.2-5.4c0.3-0.9,0.2-2.5,1-3.2
		c1.7-1.3,1.2,0.4,3.2,0.9c6.6,1.9,7.2-9.9,7.9-12.4c0.8,1.5,2.2,2.4,3.8,2.8c0.6-1.5,1.2-3,1.9-4.6c1.2-3.1,0.8-12,0.4-17.4
		c-1.4-3.7-2.8-6.7-2.8-6.7c-0.6-1.6-1-3.2-1.2-4.6c-1.5,1.5-1.9,4-1.8,5.7c0.1,2.6-1.8,2.4-1.8,2.4c-1.5-0.7-2,0-2,0l-1.2-2
		c-1,0.6-1.3,1.8-1.3,1.8c-0.9-1.5-1.5-1-1.5-1l-1.3,2.1c-1-1.7-3.3-2.8-3.3-2.8c-8.1-1.2-5.3-8.8-5.3-8.8s2.9,6.2,18.8-4.4l1.6-1.4
		c0.2-0.6,0.4-1.2,0.7-1.7c0.2-0.4,0.4-0.9,0.7-1.3c0.4-1,0.8-1.8,1.2-2.6c0.9-1.4,2-2.4,3-3c-0.1-0.3-0.3-0.7-0.4-1
		c-0.3-0.5-0.6-1-0.9-1.4c-0.3-0.4-0.6-0.9-0.9-1.4c-0.4-0.7-0.8-1.4-1-2.1c-0.3-1-0.4-2-0.2-3c0,0,0,0,0-0.1
		c0.6-1.5,1.7-2.3,3.3-2.6c0.3,0,0.5-0.1,0.7-0.1c0.9-0.1,1.9,0,2.8,0c0.5,0,1.1,0.1,1.6,0.2c0.3,0,0.6,0.1,0.9,0.1
		c0.3,0,1.5,0.4,1.7,0c0.3-0.4-0.2-0.8-0.4-0.9c-0.5-0.3-2-0.4-1.4-1.3c0.5-0.8,1.8-0.1,2.4,0c0.8,0.2,2.1,0.5,2.6,1.3
		c0.5,0.8,0.2,1.6-0.3,2.2C53.9,59.4,54.6,59.7,55.3,60.1z"/>
	<g>
		<path fill="#D61F2A" d="M79.3,116.8c1.7,0.9,3.7,1.9,5.9,2.8c0.8-1.2,1.6-2.3,2.4-3.6c-1.2-0.1-1.9-0.2-1.9-0.2
			C83.9,116.8,81.7,117,79.3,116.8z"/>
		<path fill="#D61F2A" d="M216,157c0-0.5-0.6-0.9-1.1-0.7c0.4-0.4,0-1-0.5-1c-0.5-0.1-1,0.2-1.5,0.4c-0.4-1-1.5-1.6-2.5-2
			c-1.1-0.4-2.2-0.6-3.2-1c-2.3-1-3.7-3.2-5.3-5c-0.5-0.6-1-1.2-1.7-1.5c-0.7-0.4-1.5-0.6-2.4-0.4c-0.9,0.2-1.6,0.8-2.2,1.4
			c-0.6,0.6-1.1,1.4-1.9,1.8c-0.4,0.2-1.1,0.5-1.9,0.8c0,0-3.5,0.9-8.5,0.9c-4.6-0.4-10.5-2-17.1-6.6c-8.5-5.8-19.3-7-26.8-7.1
			l10.8-14.1c10.7-16.2,15-29.3,14.1-38.9l0,0c-1.6-25.2-24.5-17-35.1-15.4c0,0-16.7,3.8-28-3.8c0,0-11.6-8.3-30.9-5
			c-3.7,0.6-6.4,1.1-8,2.2c-0.5,0.1-0.9,0.3-1.5,0.3c-0.8,0-1.5-0.3-2.3-0.6c-0.5-0.1-0.9-0.4-1.3-0.6c1.9,1.8,2.9,3.3,3.3,4.5
			c0.3,0.9,0.4,1.7,0.3,2.2c-0.1,0.6-0.3,0.9-0.3,0.9c1-4.9-5-8.6-5.1-8.7c0,0,0,0,0,0c-0.7-0.4-1.4-0.7-2.2-0.9
			c0.5-0.6,0.8-1.5,0.3-2.2c-0.5-0.8-1.7-1-2.6-1.3c-0.6-0.1-1.9-0.7-2.4,0c-0.6,0.9,1,1,1.4,1.3c0.3,0.2,0.7,0.6,0.4,0.9
			s-1.4,0-1.7,0c-0.3,0-0.6-0.1-0.9-0.1c-0.5-0.1-1.1-0.1-1.6-0.2c-0.9-0.1-1.9-0.1-2.8,0c-0.3,0-0.5,0-0.7,0.1
			c-1.7,0.2-2.7,1.1-3.3,2.6c0,0,0,0,0,0.1c-0.2,1-0.1,2,0.2,3c0.3,0.8,0.6,1.4,1,2.1c0.3,0.4,0.5,0.9,0.9,1.4
			c0.3,0.5,0.7,0.9,0.9,1.4c0.1,0.3,0.3,0.7,0.4,1c0.8-0.5,1.5-0.8,2.1-1c0.9-0.5,1.8-1,2.7-1.2c4.5-1.5,10.6,1.5,14.5,4.7
			c1.7,1.4,3,2.8,3.5,3.8c1.7,3.5,13.8,11.3,13.8,11.3c1.7,0.8,3.4,1.2,5.1,1.5c1.5,2.3,3.7,4.5,6.7,5.4c-3.7,2.1-6.9,5-8.6,6.4
			c-4.1,3.4-9.7,6.7-9.7,6.7l0,0.2c-0.6-0.2-1-0.5-1.5-0.9c-0.8-0.5-1.5-1.1-2.3-1.5c-1-0.6-2.4-1.2-3.6-1.3
			c-1.3-0.1-2.6-0.1-3.8-0.5c-0.6-0.2-1.8-0.7-2.2-1.2c-0.6,0.7-0.3,1.3,0.3,2c0.7,1,2.2,1.1,3.2,1.7c0.3,0.2,1.3,0.7,1.3,1.1
			c0,0.4-1.2,1.1-1.7,1.3c-1,0.4-2.1,0.8-3.2,1.1c-0.8,0.3-1.5,0.4-2.3,0.7c-0.4,0.1-0.6,0.2-0.9,0.2c-1,0.1-2.2-0.1-3.2,0.4l0,0
			c0,1,0.1,2.1,0.3,3.1c0.6,0,1.1,0,1.7,0.1c0.4,0.1,0.9,0.2,1.3,0.3c0.4,0.1,0.6,0.4,1,0.4c0.4,0.1,0.8,0,1.2,0
			c0.5,0,1,0.1,1.5,0.3c0.5,0.1,0.9,0.2,1.3,0.5c-0.5,0.2-1,0.5-1.5,0.6c-0.5,0.1-1,0-1.4-0.1c-0.8,0-2-0.1-2,0.9
			c1-0.1,2,0.2,3.1,0.3c1.5,0.1,2.8-0.4,4.3-0.8c2-0.5,4-1.2,5.9-1.7c1.2-0.3,2.3-0.5,3.6-0.6c1.3-0.1,2.2-0.9,3.3-1.6
			c7.8-1.6,13.7-3.4,18.1-5.3c12.6-5.3,12.9-10.8,12.9-10.8c-0.3-0.5-0.7-0.9-1-1.3c0-0.1,0-0.1,0-0.2c-0.6-2.1-1.7-5.4-3.6-9.2
			c0.6-0.3,0.9-0.4,0.9-0.4c5.6-3.3,18.7-6.1,27.4-1.3c4.6,2.6,8,7.2,8.5,15c0.3,4.9-0.8,8.4-2.7,10.8c-3.3,6.7-9.8,14.2-19.5,22.3
			c-0.7,7.5-0.4,13,0.4,16.9c0.2,0.1,0.5,0.3,0.7,0.4c6.8,4.4,12.7,5.9,17.3,6.1c5,0,8.5-1.1,8.5-1.1c0.9-0.3,1.5-0.6,1.9-0.8
			c0.8-0.4,1.3-1.2,1.9-1.9s1.3-1.3,2.2-1.5c0.8-0.2,1.7-0.1,2.4,0.3c0.7,0.4,1.3,0.9,1.8,1.5c1.7,1.8,3.1,3.9,5.5,4.9
			c1,0.4,2.2,0.6,3.3,1c1,0.3,1.9,0.8,2.4,1.7c0.2,0,0.4,0,0.7,0c0.3-0.1,0.6-0.2,0.9-0.2c0.1,0,0.2,0,0.3,0.1
			c5.8-0.5,12.3-1.2,19.6-2.1c0,0,2.8-0.6,8.5,0.1c3.8,0.5,7.6,1,11.4,1.5c1,0.1,2,0.3,2.9,0.7c0.9,0.4,1.6,1.3,1.5,2.2
			c0.5,0.1,1,0,1.4-0.4c0.4-0.4,0.5-0.9,0.3-1.3c0.4,0.1,0.9,0.1,1.3,0.2c0.1,0,0.2,0,0.4,0c0.3-0.1,0.4-0.3,0.4-0.6
			s-0.1-0.5-0.2-0.7c0.2,0,0.4,0,0.5-0.1c0.4-0.5,0-1.2-0.5-1.2C215.5,157.9,216,157.5,216,157z"/>
	</g>
	<g>
		<path fill="#52C1AE" d="M72.8,107.2l0-0.2c0,0,5.6-3.3,9.7-6.7c1.7-1.4,4.9-4.3,8.6-6.4c-3-0.9-5.2-3.1-6.7-5.4
			c-1.7-0.3-3.5-0.8-5.1-1.5c0,0-12.1-7.8-13.8-11.3c-0.5-1.1-1.8-2.5-3.5-3.8c-3.9-3.2-10.1-6.2-14.5-4.7c-0.9,0.3-1.8,0.7-2.7,1.2
			c-0.5,0.2-1.3,0.5-2.1,1c-1,0.6-2.1,1.6-3,3c-0.5,0.7-0.9,1.6-1.2,2.6c-0.3,0.4-0.5,0.8-0.7,1.3c-0.3,0.5-0.5,1.1-0.7,1.7
			l-1.6,1.4c-15.9,10.5-18.8,4.4-18.8,4.4s-2.8,7.7,5.3,8.8c0,0,2.3,1.2,3.3,2.8l1.3-2.1c0,0,0.6-0.5,1.5,1c0,0,0.3-1.2,1.3-1.8
			l1.2,2c0,0,0.4-0.6,2,0c0,0,1.9,0.2,1.8-2.4c0-1.7,0.3-4.2,1.8-5.7c0.2,1.5,0.6,3.1,1.2,4.6c0,0,1.4,3,2.8,6.7
			c0.4,5.4,0.8,14.3-0.4,17.4c-0.6,1.6-1.3,3.1-1.9,4.6c-1.1,2.9-1.9,6.2-1.7,11.1c0.4,7.4-0.2,25.3-4.2,27.9c0,0-8.6,1.4-9.5,2.4
			c0,0-12.1,1.1-13.1,2.4c0,0-0.2,0.8,0.1,1.6h2.4c0,0-0.1,0.5,0.6,0.9h23.6c0,0,2-1.1,2.5-2.8c0,0,10.1-24.5,10.8-26.4
			c0.7-1.9,5.1-16.9,4.1-19.7c0,0-0.3-1.7-0.5-3.7c-0.1-1-0.2-2.1-0.3-3.1l0,0c0.9-0.6,2.1-0.4,3.2-0.4c0.4,0,0.6-0.1,0.9-0.2
			c0.7-0.3,1.5-0.4,2.3-0.7c1-0.3,2.1-0.7,3.2-1.1c0.4-0.2,1.7-0.8,1.7-1.3c0-0.4-1-0.9-1.3-1.1c-1-0.6-2.5-0.6-3.2-1.7
			c-0.5-0.7-0.8-1.3-0.3-2c0.4,0.5,1.6,1,2.2,1.2c1.2,0.4,2.5,0.4,3.8,0.5c1.2,0.1,2.6,0.7,3.6,1.3c0.8,0.4,1.6,1,2.3,1.5
			C71.8,106.7,72.2,107.1,72.8,107.2z"/>
		<path fill="#52C1AE" d="M168.7,161c0-0.5-0.6-0.9-1.1-0.7c0.3-0.3,0.1-0.8-0.3-0.9c-0.1,0-0.2-0.1-0.3-0.1c-0.3,0-0.6,0-0.9,0.2
			c-0.2,0.1-0.4,0.2-0.5,0.3c0-0.1-0.1-0.1-0.1-0.2c-0.5-0.8-1.5-1.3-2.4-1.7c-1.1-0.4-2.2-0.5-3.3-1c-2.3-1-3.8-3.1-5.5-4.9
			c-0.5-0.6-1.1-1.1-1.8-1.5c-0.7-0.4-1.5-0.5-2.4-0.3c-0.9,0.3-1.5,0.9-2.2,1.5c-0.6,0.6-1.1,1.4-1.9,1.9c-0.4,0.2-1.1,0.5-1.9,0.8
			c0,0-3.5,1-8.5,1.1c-4.6-0.3-10.5-1.8-17.3-6.1c-0.2-0.1-0.5-0.3-0.7-0.4c-5.7-3.5-11.7-4.9-17-5.2l9.1-5.8c2.7-2,5.2-4,7.5-5.9
			c9.7-8.1,16.2-15.6,19.5-22.3c1.9-2.5,3-6,2.7-10.8c-0.5-7.8-3.9-12.5-8.5-15c-8.7-4.9-21.8-2.1-27.4,1.3c0,0-0.3,0.2-0.9,0.4
			c1.9,3.8,3,7,3.6,9.2c0,0.1,0,0.1,0,0.2c0.4,0.4,0.7,0.8,1,1.3c0,0-0.3,5.4-12.9,10.8c-4.4,1.9-10.2,3.7-18.1,5.3
			c-1.1,0.6-1.9,1.5-3.3,1.6c-1.2,0.1-2.4,0.3-3.6,0.6c2.8,1.1,6.4,2.1,9.7,2.4c2.4,0.2,4.6,0,6.5-1c0,0,0.7,0.1,1.9,0.2
			c-0.9,1.2-1.7,2.4-2.4,3.6c-19.6,29.4-14.4,41.3-14.4,41.3s1.5,1.7,2.9,2.1c0,0,21.1,5.9,65.9-1c0,0,2.8-0.7,8.5-0.1
			c3.8,0.4,7.7,0.8,11.5,1.2c1,0.1,2.1,0.2,2.9,0.6c0.9,0.4,1.6,1.2,1.6,2.2c0.5,0.1,1,0,1.4-0.4c0.4-0.4,0.5-0.9,0.3-1.3
			c0.4,0.1,0.9,0.1,1.3,0.2c0.1,0,0.2,0,0.4,0c0.3-0.1,0.4-0.3,0.4-0.6c0-0.3-0.1-0.5-0.2-0.7c0.2,0,0.4,0,0.5-0.1
			c0.4-0.5,0-1.2-0.5-1.2C168.2,162,168.7,161.5,168.7,161z"/>
	</g>
</g>
<g>
	<path d="M24.3,88.6C24.3,88.6,24.3,88.6,24.3,88.6c-0.6-0.1-1.2,0.3-1.4,0.8c-0.1,0.3-0.1,0.6,0.1,0.9c0.2,0.3,0.4,0.4,0.6,0.5
		l0.2,0l-0.1-0.2c-0.1-0.2-0.1-0.5,0-0.7c0.1-0.2,0.2-0.4,0.4-0.5l0.1,0c0.1,0,0.2-0.1,0.2-0.1c0.1-0.1,0.2-0.2,0.1-0.4
		C24.7,88.7,24.5,88.6,24.3,88.6z"/>
	<path d="M48.7,62l-0.2-0.1c-0.1,0-0.2-0.1-0.2-0.1c-0.3,0-0.7,0.3-0.8,0.8c-0.2,0.5,0,1.2,0.3,1.4c0,0,0.1,0.1,0.2,0.1
		c0.1,0,0.1,0,0.2-0.1c0.1-0.1,0.1-0.3,0.1-0.4c0-0.1,0-0.2-0.1-0.3c-0.1-0.4,0-1,0.3-1.3L48.7,62z"/>
</g>
<path d="M20.8,90.6c-0.3-0.4-0.5-1-0.5-1.5c0-0.1,0-0.3,0-0.4c0.1-0.5,0.3-0.9,0.7-1.2c0.3-0.3,0.8-0.5,1.2-0.6
	c0-0.1-0.1-0.1-0.2-0.1c-0.4,0.1-0.8,0.3-1.2,0.5c-0.4,0.3-0.6,0.6-0.8,1c-0.1,0.5,0,1.1,0.2,1.6c0.1,0.2,0.1,0.5,0.3,0.7
	c0,0.1,0.1,0.1,0.2,0.2C20.7,90.8,20.9,90.7,20.8,90.6z"/>
<path d="M46.2,64.6c0,0-0.1-0.1-0.1-0.1c-0.1-0.2-0.1-0.4-0.1-0.6c-0.1-0.5-0.2-1-0.1-1.5c0.1-0.4,0.3-0.8,0.5-1.1
	c0.2-0.3,0.4-0.5,0.7-0.6c0,0,0.1,0,0.1,0c-0.3,0.1-0.5,0.4-0.7,0.7c-0.2,0.3-0.4,0.8-0.4,1.2c0,0.1,0,0.3,0,0.4
	c0,0.5,0.1,1,0.3,1.4C46.3,64.5,46.2,64.6,46.2,64.6z"/>
<polygon fill="#FFFFFF" points="22.7,162.7 22,162.8 21.8,160.8 22.6,160.8 "/>
<path fill="#FFFFFF" d="M60.5,114.8c0,0-0.8-0.4-0.5-1.3l-0.4-0.1c0,0-0.5,0.9,0.5,1.4C60,114.8,60.5,114.8,60.5,114.8z"/>
<g id="ULTRABOUND_TEST">
</g>
<g id="HANDY_SCAN">
</g>
<g id="CHEST_XXXAM">
</g>
<g id="PAIR-SCOPE">
</g>
<g id="CLOSER_EXAMINATION">
</g>
<g id="PRIVATE_SCREENING">
</g>
<g id="WHAM_BAM_MAMMOGRAM">
</g>
<g id="Layer_34">
</g>
<g id="MAN-O-GRAM">
</g>
<g id="INSPECT-A-PEC">
</g>
<g id="STUDY_BUDDY">
</g>
<g id="Layer_33">
</g>
</svg>
