<svg xmlns="http://www.w3.org/2000/svg" viewBox="0 50.1 216 115.9"><path fill="none" d="M100.8 143.7c5.2.4 11.3 1.8 17 5.2-.7-4-1.1-9.5-.4-16.9-2.3 1.9-4.8 3.9-7.5 5.9l-9.1 5.8zM166.2 159.5h-.7c0 .1.1.1.1.2.2 0 .4-.1.6-.2z"/><path d="M55.3 60.1c-.1-.4-.1-.7 0-1 .1-1-.2-1.9-.9-2.6-1-1.9-2.7-3.3-3-3.5-1.2-.9-2.8-1.4-4.5-1.4h-.6c-.4 0-.8.1-1 .1-.2 0-.4.1-.5.1-.3-.1-.5-.2-.7-.3-1.3-.6-2.9-1.4-5.1-1.3-11 .4-15 6.9-15.1 12.9v.6c0 .5 0 .9-.1 1.2-.1.1-.3.3-.4.5l-.3.3c-.4.4-.6.8-.8 1.2C17 67.2 12 70 9.2 72.8c-6.8 6.7-9 16-9.1 24.7 0 1.8-.6 5.5 1.7 6.9 1.7 1 2.5.1 2.8 1.8.3 1.5-1.3 3.6-1.7 5-1 3.5-1.2 7.3-.7 11 .3 2.2.6 6.6 4.6 5.1.6 3.5.8 9 7.2 9.6 4.4.5 7.2-2.8 8.2-5.4.3-.9.2-2.5 1-3.2 1.7-1.3 1.2.4 3.2.9 6.6 1.9 7.2-9.9 7.9-12.4.8 1.5 2.2 2.4 3.8 2.8.6-1.5 1.2-3 1.9-4.6 1.2-3.1.8-12 .4-17.4-1.4-3.7-2.8-6.7-2.8-6.7-.6-1.6-1-3.2-1.2-4.6-1.5 1.5-1.9 4-1.8 5.7.1 2.6-1.8 2.4-1.8 2.4-1.5-.7-2 0-2 0l-1.2-2c-1 .6-1.3 1.8-1.3 1.8-.9-1.5-1.5-1-1.5-1l-1.3 2.1c-1-1.7-3.3-2.8-3.3-2.8-8.1-1.2-5.3-8.8-5.3-8.8s2.9 6.2 18.8-4.4l1.6-1.4c.2-.6.4-1.2.7-1.7.2-.4.4-.9.7-1.3.4-1 .8-1.8 1.2-2.6.9-1.4 2-2.4 3-3-.1-.3-.3-.7-.4-1-.3-.5-.6-1-.9-1.4-.3-.4-.6-.9-.9-1.4-.4-.7-.8-1.4-1-2.1-.3-1-.4-2-.2-3v-.1c.6-1.5 1.7-2.3 3.3-2.6.3 0 .5-.1.7-.1.9-.1 1.9 0 2.8 0 .5 0 1.1.1 1.6.2.3 0 .6.1.9.1.3 0 1.5.4 1.7 0 .3-.4-.2-.8-.4-.9-.5-.3-2-.4-1.4-1.3.5-.8 1.8-.1 2.4 0 .8.2 2.1.5 2.6 1.3s.2 1.6-.3 2.2c.5.2 1.2.5 1.9.9z"/><g fill="#D61F2A"><path d="M79.3 116.8c1.7.9 3.7 1.9 5.9 2.8.8-1.2 1.6-2.3 2.4-3.6-1.2-.1-1.9-.2-1.9-.2-1.8 1-4 1.2-6.4 1zM216 157c0-.5-.6-.9-1.1-.7.4-.4 0-1-.5-1-.5-.1-1 .2-1.5.4-.4-1-1.5-1.6-2.5-2-1.1-.4-2.2-.6-3.2-1-2.3-1-3.7-3.2-5.3-5-.5-.6-1-1.2-1.7-1.5-.7-.4-1.5-.6-2.4-.4-.9.2-1.6.8-2.2 1.4-.6.6-1.1 1.4-1.9 1.8-.4.2-1.1.5-1.9.8 0 0-3.5.9-8.5.9-4.6-.4-10.5-2-17.1-6.6-8.5-5.8-19.3-7-26.8-7.1l10.8-14.1c10.7-16.2 15-29.3 14.1-38.9-1.6-25.2-24.5-17-35.1-15.4 0 0-16.7 3.8-28-3.8 0 0-11.6-8.3-30.9-5-3.7.6-6.4 1.1-8 2.2-.5.1-.9.3-1.5.3-.8 0-1.5-.3-2.3-.6-.5-.1-.9-.4-1.3-.6 1.9 1.8 2.9 3.3 3.3 4.5.3.9.4 1.7.3 2.2-.1.6-.3.9-.3.9 1-4.9-5-8.6-5.1-8.7-.7-.4-1.4-.7-2.2-.9.5-.6.8-1.5.3-2.2-.5-.8-1.7-1-2.6-1.3-.6-.1-1.9-.7-2.4 0-.6.9 1 1 1.4 1.3.3.2.7.6.4.9s-1.4 0-1.7 0c-.3 0-.6-.1-.9-.1-.5-.1-1.1-.1-1.6-.2-.9-.1-1.9-.1-2.8 0-.3 0-.5 0-.7.1-1.7.2-2.7 1.1-3.3 2.6v.1c-.2 1-.1 2 .2 3 .3.8.6 1.4 1 2.1.3.4.5.9.9 1.4.3.5.7.9.9 1.4.1.3.3.7.4 1 .8-.5 1.5-.8 2.1-1 .9-.5 1.8-1 2.7-1.2 4.5-1.5 10.6 1.5 14.5 4.7 1.7 1.4 3 2.8 3.5 3.8 1.7 3.5 13.8 11.3 13.8 11.3 1.7.8 3.4 1.2 5.1 1.5 1.5 2.3 3.7 4.5 6.7 5.4-3.7 2.1-6.9 5-8.6 6.4-4.1 3.4-9.7 6.7-9.7 6.7v.2c-.6-.2-1-.5-1.5-.9-.8-.5-1.5-1.1-2.3-1.5-1-.6-2.4-1.2-3.6-1.3-1.3-.1-2.6-.1-3.8-.5-.6-.2-1.8-.7-2.2-1.2-.6.7-.3 1.3.3 2 .7 1 2.2 1.1 3.2 1.7.3.2 1.3.7 1.3 1.1 0 .4-1.2 1.1-1.7 1.3-1 .4-2.1.8-3.2 1.1-.8.3-1.5.4-2.3.7-.4.1-.6.2-.9.2-1 .1-2.2-.1-3.2.4 0 1 .1 2.1.3 3.1.6 0 1.1 0 1.7.1.4.1.9.2 1.3.3.4.1.6.4 1 .4.4.1.8 0 1.2 0 .5 0 1 .1 1.5.3.5.1.9.2 1.3.5-.5.2-1 .5-1.5.6-.5.1-1 0-1.4-.1-.8 0-2-.1-2 .9 1-.1 2 .2 3.1.3 1.5.1 2.8-.4 4.3-.8 2-.5 4-1.2 5.9-1.7 1.2-.3 2.3-.5 3.6-.6 1.3-.1 2.2-.9 3.3-1.6 7.8-1.6 13.7-3.4 18.1-5.3 12.6-5.3 12.9-10.8 12.9-10.8-.3-.5-.7-.9-1-1.3v-.2c-.6-2.1-1.7-5.4-3.6-9.2.6-.3.9-.4.9-.4 5.6-3.3 18.7-6.1 27.4-1.3 4.6 2.6 8 7.2 8.5 15 .3 4.9-.8 8.4-2.7 10.8-3.3 6.7-9.8 14.2-19.5 22.3-.7 7.5-.4 13 .4 16.9.2.1.5.3.7.4 6.8 4.4 12.7 5.9 17.3 6.1 5 0 8.5-1.1 8.5-1.1.9-.3 1.5-.6 1.9-.8.8-.4 1.3-1.2 1.9-1.9s1.3-1.3 2.2-1.5c.8-.2 1.7-.1 2.4.3s1.3.9 1.8 1.5c1.7 1.8 3.1 3.9 5.5 4.9 1 .4 2.2.6 3.3 1 1 .3 1.9.8 2.4 1.7h.7c.3-.1.6-.2.9-.2.1 0 .2 0 .3.1 5.8-.5 12.3-1.2 19.6-2.1 0 0 2.8-.6 8.5.1l11.4 1.5c1 .1 2 .3 2.9.7.9.4 1.6 1.3 1.5 2.2.5.1 1 0 1.4-.4.4-.4.5-.9.3-1.3.4.1.9.1 1.3.2h.4c.3-.1.4-.3.4-.6s-.1-.5-.2-.7c.2 0 .4 0 .5-.1.4-.5 0-1.2-.5-1.2.3.8.8.4.8-.1z"/></g><g fill="#52C1AE"><path d="M72.8 107.2v-.2s5.6-3.3 9.7-6.7c1.7-1.4 4.9-4.3 8.6-6.4-3-.9-5.2-3.1-6.7-5.4-1.7-.3-3.5-.8-5.1-1.5 0 0-12.1-7.8-13.8-11.3-.5-1.1-1.8-2.5-3.5-3.8-3.9-3.2-10.1-6.2-14.5-4.7-.9.3-1.8.7-2.7 1.2-.5.2-1.3.5-2.1 1-1 .6-2.1 1.6-3 3-.5.7-.9 1.6-1.2 2.6-.3.4-.5.8-.7 1.3-.3.5-.5 1.1-.7 1.7l-1.6 1.4c-15.9 10.5-18.8 4.4-18.8 4.4s-2.8 7.7 5.3 8.8c0 0 2.3 1.2 3.3 2.8l1.3-2.1s.6-.5 1.5 1c0 0 .3-1.2 1.3-1.8l1.2 2s.4-.6 2 0c0 0 1.9.2 1.8-2.4 0-1.7.3-4.2 1.8-5.7.2 1.5.6 3.1 1.2 4.6 0 0 1.4 3 2.8 6.7.4 5.4.8 14.3-.4 17.4-.6 1.6-1.3 3.1-1.9 4.6-1.1 2.9-1.9 6.2-1.7 11.1.4 7.4-.2 25.3-4.2 27.9 0 0-8.6 1.4-9.5 2.4 0 0-12.1 1.1-13.1 2.4 0 0-.2.8.1 1.6h2.4s-.1.5.6.9h23.6s2-1.1 2.5-2.8c0 0 10.1-24.5 10.8-26.4.7-1.9 5.1-16.9 4.1-19.7 0 0-.3-1.7-.5-3.7-.1-1-.2-2.1-.3-3.1.9-.6 2.1-.4 3.2-.4.4 0 .6-.1.9-.2.7-.3 1.5-.4 2.3-.7 1-.3 2.1-.7 3.2-1.1.4-.2 1.7-.8 1.7-1.3 0-.4-1-.9-1.3-1.1-1-.6-2.5-.6-3.2-1.7-.5-.7-.8-1.3-.3-2 .4.5 1.6 1 2.2 1.2 1.2.4 2.5.4 3.8.5 1.2.1 2.6.7 3.6 1.3.8.4 1.6 1 2.3 1.5.7.4 1.1.8 1.7.9z"/><path d="M168.7 161c0-.5-.6-.9-1.1-.7.3-.3.1-.8-.3-.9-.1 0-.2-.1-.3-.1-.3 0-.6 0-.9.2-.2.1-.4.2-.5.3 0-.1-.1-.1-.1-.2-.5-.8-1.5-1.3-2.4-1.7-1.1-.4-2.2-.5-3.3-1-2.3-1-3.8-3.1-5.5-4.9-.5-.6-1.1-1.1-1.8-1.5-.7-.4-1.5-.5-2.4-.3-.9.3-1.5.9-2.2 1.5-.6.6-1.1 1.4-1.9 1.9-.4.2-1.1.5-1.9.8 0 0-3.5 1-8.5 1.1-4.6-.3-10.5-1.8-17.3-6.1-.2-.1-.5-.3-.7-.4-5.7-3.5-11.7-4.9-17-5.2l9.1-5.8c2.7-2 5.2-4 7.5-5.9 9.7-8.1 16.2-15.6 19.5-22.3 1.9-2.5 3-6 2.7-10.8-.5-7.8-3.9-12.5-8.5-15-8.7-4.9-21.8-2.1-27.4 1.3 0 0-.3.2-.9.4 1.9 3.8 3 7 3.6 9.2v.2c.4.4.7.8 1 1.3 0 0-.3 5.4-12.9 10.8-4.4 1.9-10.2 3.7-18.1 5.3-1.1.6-1.9 1.5-3.3 1.6-1.2.1-2.4.3-3.6.6 2.8 1.1 6.4 2.1 9.7 2.4 2.4.2 4.6 0 6.5-1 0 0 .7.1 1.9.2-.9 1.2-1.7 2.4-2.4 3.6-19.6 29.4-14.4 41.3-14.4 41.3s1.5 1.7 2.9 2.1c0 0 21.1 5.9 65.9-1 0 0 2.8-.7 8.5-.1 3.8.4 7.7.8 11.5 1.2 1 .1 2.1.2 2.9.6.9.4 1.6 1.2 1.6 2.2.5.1 1 0 1.4-.4.4-.4.5-.9.3-1.3.4.1.9.1 1.3.2h.4c.3-.1.4-.3.4-.6s-.1-.5-.2-.7c.2 0 .4 0 .5-.1.4-.5 0-1.2-.5-1.2.7-.1 1.2-.6 1.2-1.1z"/></g><path d="M24.3 88.6c-.6-.1-1.2.3-1.4.8-.1.3-.1.6.1.9.2.3.4.4.6.5h.2l-.1-.2c-.1-.2-.1-.5 0-.7.1-.2.2-.4.4-.5h.1c.1 0 .2-.1.2-.1.1-.1.2-.2.1-.4.2-.2 0-.3-.2-.3zM48.7 62l-.2-.1c-.1 0-.2-.1-.2-.1-.3 0-.7.3-.8.8-.2.5 0 1.2.3 1.4 0 0 .1.1.2.1s.1 0 .2-.1.1-.3.1-.4c0-.1 0-.2-.1-.3-.1-.4 0-1 .3-1.3h.2zM20.8 90.6c-.3-.4-.5-1-.5-1.5v-.4c.1-.5.3-.9.7-1.2.3-.3.8-.5 1.2-.6 0-.1-.1-.1-.2-.1-.4.1-.8.3-1.2.5-.4.3-.6.6-.8 1-.1.5 0 1.1.2 1.6.1.2.1.5.3.7 0 .1.1.1.2.2 0 0 .2-.1.1-.2zM46.2 64.6l-.1-.1c-.1-.2-.1-.4-.1-.6-.1-.5-.2-1-.1-1.5.1-.4.3-.8.5-1.1.2-.3.4-.5.7-.6h.1c-.3.1-.5.4-.7.7-.2.3-.4.8-.4 1.2v.4c0 .5.1 1 .3 1.4l-.2.2z"/><path fill="#FFF" d="M22.7 162.7l-.7.1-.2-2h.8M60.5 114.8s-.8-.4-.5-1.3l-.4-.1s-.5.9.5 1.4h.4z"/></svg>