<?xml version="1.0" encoding="utf-8"?>
<!-- Generator: Adobe Illustrator 18.1.1, SVG Export Plug-In . SVG Version: 6.00 Build 0)  -->
<svg version="1.1" id="_x33_" xmlns="http://www.w3.org/2000/svg" xmlns:xlink="http://www.w3.org/1999/xlink" x="0px" y="0px"
	 viewBox="0 0 320 500" enable-background="new 0 0 320 500" xml:space="preserve">
<path id="back_x5F_leg_2_" fill="#8DC541" d="M248.2,377.7c-1.3-0.7-2.5-1.3-3.8-2c1.4-0.6,2.4-2.1,2.4-3.8c0-1.5-1.1-3.1-2.6-3.7
	c-2.1,2.4-5.8,3-8.9,2.4s-6.1-2.3-8.9-3.9c-10.5-6.2-21.1-12.3-31.5-18.4c-15.6-9-21.2-16.1-21.2-16.1s-14-14.3-32.8-31.7
	c-0.8,0-1.7,0-2.6,0c-69.3,0.2-111.3-35.2-111.3-35.2c4.6,9,9,17.7,13,26.1c16.3,10.9,39.2,22.1,68.6,27
	c33.9,5.6,50.6,30.3,50.6,30.3c7.4,6.9,10.8,13.3,12,16.3c1,2.5,0.5,5.4,0.5,8.1s0.5,5.5,2,7.7c1.5,2.1,4.2,3.3,6.7,3.7
	c2.5,0.4,5.2,0.1,7.7-0.4c8.2-1.3,16.5-3.8,24.6-1.8c3.6,0.8,6.9,2.6,10.4,3.7c3.5,1.1,7.4,1.7,10.7,0.1c0.6,1.4,1.3,3.1,2.6,3.8
	c1.4,0.8,3.6,0.1,3.7-1.5c1,1.3,3.2,1.5,4.3,0.4c1.2-1.2,1-3.5-0.5-4.3c1.4,1.1,3.8,0,4-1.8c-0.4-0.4-0.7-0.7-1.1-1.2
	c0.7-0.2,1.5-0.6,2-1.2c0.5-0.6,0.7-1.5,0.2-2.3C248.8,378.1,248.4,378,248.2,377.7z"/>
<path id="front_x5F_leg_2_" fill="#8DC541" d="M292.8,327c-0.2-0.2-0.7-0.4-1.1-0.5c-1.4-0.5-2.9-0.8-4.3-1.3c1.3-1,2-2.7,1.7-4.3
	c-0.4-1.7-1.8-3-3.5-3.2c-1.8,2.9-5.2,4.3-8.7,4.3c-3.3,0-6.7-1.1-9.9-2.1c-12-4-24-8.1-36.1-12.1c-17.7-6-24.9-11.9-24.9-11.9
	S95,219.4,0,195.5V500h67.4c39.6-58.7-10-165.6-32-211.5c-4-8.9-8.4-18.2-13.3-27.8c0,0,43.6,37.6,114.8,34.9
	c35.7-1.4,58,20.4,58,20.4c8.9,5.5,13.8,11.3,15.7,14.2c1.5,2.4,1.5,5.4,2.1,8.1c0.6,2.7,1.7,5.6,3.7,7.4c2,1.8,4.9,2.5,7.6,2.4
	c2.7-0.1,5.4-1,7.9-1.9c8.1-3.1,16.1-7.4,24.8-7c3.8,0.1,7.5,1.2,11.3,1.5s7.9,0.1,10.9-2.1c1,1.4,1.9,2.9,3.6,3.3
	c1.5,0.5,3.7-0.7,3.3-2.4c1.3,1.2,3.6,1,4.5-0.5c1-1.4,0.2-3.7-1.4-4.3c1.7,0.8,3.9-0.8,3.7-2.7c-0.5-0.4-1-0.6-1.4-1
	c0.7-0.5,1.4-1,1.9-1.7C293.5,328.7,293.5,327.6,292.8,327z M35.4,288.6c-0.1,0-0.1-0.1-0.1-0.1C35.4,288.5,35.4,288.5,35.4,288.6z"
	/>
</svg>
