<?xml version="1.0" encoding="utf-8"?>
<!-- Generator: Adobe Illustrator 18.1.1, SVG Export Plug-In . SVG Version: 6.00 Build 0)  -->
<svg version="1.1" id="Layer_1" xmlns="http://www.w3.org/2000/svg" xmlns:xlink="http://www.w3.org/1999/xlink" x="0px" y="0px"
	 viewBox="1238.4 1191.5 1842.6 1688.5" enable-background="new 1238.4 1191.5 1842.6 1688.5" xml:space="preserve">
<g id="_x34_" display="none">
	<g display="inline">
		<path d="M2824.1,2880H3081v-710.2c-13.2-20.2-30.5-50.1-39.7-70.8c-18.4-41.5-24.2-88.1-30.5-135.9c-2.9-24.2-6.9-49.5-12.1-74.9
			c-13.2-63.9-48.4-179.1-149.2-233.3c-27.6-14.4-95-47.8-161.9-50.7c0,0,0,0-1.2,0c-6.3-47.8-19-95-40.3-137.1
			c-17.3-34.6-43.8-61.6-61.1-96.2c-10.9-23-10.9-45.5-19-69.7c-15-48.4-62.8-100.2-116.4-107.1c-100.2-13.2-142.8,27.6-157.2,77.2
			C1795.4,1804.6,2824.1,2880,2824.1,2880z"/>
		<path id="red_eye_2_" d="M2294.8,1373.2c-2.3-1.2-4-2.3-5.2-2.9l-2.3-1.2c-4-2.3-6.9-6.3-9.2-10.9c-2.3-5.2-1.2-10.4,1.2-14.4
			l5.2-8.1l-9.2,2.3c-1.2,0-2.3,0-2.9,1.2l0,0c-5.2,2.3-10.4,5.2-13.2,10.9c-4,6.3-5.2,14.4-2.9,21.3c2.3,6.9,6.9,12.1,13.2,16.1
			l0,0c5.2,2.3,10.4,4,16.1,4c1.2,0,2.3,0,2.9,0c5.2-1.2,9.2-2.9,10.4-6.9C2300,1380.1,2298.2,1376.1,2294.8,1373.2z"/>
		<path id="red_eyebrow_1_" d="M2318.4,1309.8c10.9,2.9,22.5,10.9,29.4,20.2c2.3,2.3,2.9,5.2,4,6.9c4,9.2,5.2,20.2,2.3,29.4
			c-2.3,10.4-6.9,19-14.4,26.5c1.2,2.3,4,0,5.2-1.2c6.3-6.9,10.9-15,15-24.2c2.9-9.2,4-19,1.2-27.6c-4-10.9-14.4-19-23-26.5
			c-4-2.9-9.2-6.3-13.2-8.1c-2.3-1.2-4-1.2-6.3,0C2316.1,1305.8,2316.1,1309.2,2318.4,1309.8z"/>
		<path id="blue_eye_2_" d="M2619.1,1862.2c-1.2-4-5.2-6.3-10.4-6.3c-2.3,0-4,0-6.3,1.2c-1.2,0-1.2,0-2.3,0
			c-5.2,1.2-9.2-1.2-13.2-2.9l0,0c-4-2.9-6.3-6.9-6.9-10.9l-1.2-9.2l-6.9,6.9c-5.2,5.2-6.9,10.9-6.3,18.4c1.2,8.1,4,15,10.4,19
			c2.9,2.9,8.1,4,12.1,5.2l0,0c2.3,0,2.9,0,5.2,0c8.1,0,15-2.9,21.3-8.1C2619.1,1871.4,2621.4,1866.2,2619.1,1862.2z"/>
		<path id="blue_hand_3_" fill="#16C2EA" d="M1745.3,2880c-37.4-35.1-69.1-61.1-81.2-71.4c0,5.2,0,10.4,1.2,16.1
			c-1.2-5.2-1.2-10.9-1.2-16.1c-1.2,0-1.2-1.2-1.2-1.2s0,1.2,1.2,1.2c-1.2-38.6,2.3-78.9,9.2-120.4c5.2-32.3,13.2-63.9,22.5-93.3
			c-37.4,31.7-88.1,82.4-137.7,150.9c33.4,23,65.7,47.8,99.1,73.2l2.3-14.4l0,0l0,0l-2.3,14.4c2.9,2.3,5.2,4,8.1,6.3
			c23,17.9,46.7,36.3,69.7,54.7"/>
		<path id="blue_face_1_" fill="#16C2EA" d="M2782.1,2198.6c-10.9-8.1-32.3-24.2-44.4-47.8c-8.1-12.1-14.4-24.2-20.2-37.4
			c-13.2-30.5-22.5-63.9-24.2-96.2c0-4-1.2-10.9,0-22.5c22.5-2.3,55.9-6.3,69.1-27.6c8.1-13.2,5.2-39.7-10.4-46.7
			c-22.5-10.4-33.4,17.3-53.6,17.3c25.3-34.6,25.3-84.1,2.9-119.8c-4-6.9-10.9-12.1-19-18.4c-10.4-6.9-23-12.1-36.3-18.4
			c-19-8.1-39.7-17.3-54.7-27.6c-1.2-1.2-2.9-2.3-4-2.9c-13.2,18.4-23,37.4-37.4,54.7c-6.9,9.2-15,17.3-23,24.2
			c-25.3,23-57,40.3-89.3,48.4c13.2,8.1,27.6,15,42.6,20.2c-2.3,8.1-13.2,24.2-23,27.6c1.2,6.9,14.4,13.2,23,16.1
			c-5.2,2.9-22.5,4-27.6,6.9c2.9,4,2.3,10.9-1.2,17.3c17.3,17.3,33.4,35.7,49.5,53.6c6.9,8.1,14.4,16.1,20.2,23
			c14.4,16.1,27.6,33.4,39.7,49.5c22.5,29.4,42.6,59.9,61.6,89.3c6.3,9.2,10.9,18.4,17.3,28.2c4,6.9,8.1,13.2,10.9,20.2
			c8.1,14.4,16.1,29.4,24.2,44.4c19,36.3,36.3,73.7,51.8,110.6c2.9,6.9,6.3,14.4,8.1,21.3c25.3,65.7,45.5,131.9,61.1,196.4
			c13.2,55.9,22.5,111.7,29.4,165.3C3069.5,2333.4,2802.2,2206.7,2782.1,2198.6z M2609.9,1874.3c-6.3,5.2-13.2,8.1-21.3,8.1l0,0
			c-2.3,0-2.9,0-5.2,0c-4-1.2-9.2-2.3-12.1-5.2c-6.3-4-9.2-10.9-10.4-19c-1.2-6.9,2.3-14.4,6.3-18.4l6.9-6.9l1.2,9.2
			c1.2,4,2.9,8.1,6.9,10.9s9.2,5.2,14.4,4c1.2,0,1.2,0,2.3,0c2.3,0,2.9-1.2,6.3-1.2l0,0c4,0,8.1,2.9,10.4,6.3
			C2615.6,1866.2,2613.9,1871.4,2609.9,1874.3z"/>
		<path id="red_body_6_" fill="#F05436" d="M2823.6,2769.4c-6.9-53.6-16.1-109.4-29.4-165.3c-15-65.1-34.6-131.9-61.1-196.4
			c-2.9-6.9-5.2-14.4-8.1-21.3c-15-37.4-32.3-73.7-51.8-110.6c-8.1-15-16.1-29.4-24.2-44.4c-4-6.9-8.1-13.2-10.9-20.2
			c-6.3-9.2-10.9-18.4-17.3-28.2c-19-30.5-39.7-59.9-61.6-89.3c-13.2-17.3-26.5-33.4-39.7-49.5c-6.9-8.1-13.2-16.1-20.2-23
			c-16.1-18.4-32.3-35.7-49.5-53.6c-28.2-29.4-59.9-57.6-92.2-85.2l0,0l-1.2-1.2l0,0l0,0c-10.9-9.2-100.2-88.1-121.5-149.2
			c-4-10.4-5.2-20.2-4-29.4c1.2-6.9,2.9-14.4,8.1-19c2.3-2.9,5.2-5.2,9.2-8.1l1.2-1.2c10.9-9.2,24.2-15,37.4-17.3
			c25.3-4,95,5.2,92.2-38.6c-2.9-39.7-61.6-25.3-85.2-32.3c-110.6-33.4-4-129.6,70.8-148c49.5-12.1,119.8-81.2,88.1-141.1
			c-44.4-24.2-99.1-41.5-157.2-29.4c-17.3,4-35.7,10.4-52.4,19c0,0-34.6,12.1-65.7,1.2c-36.3-12.1-31.7,13.2-31.7,13.2l2.3,34.6
			c0,0-16.8,6.3-53.3,0.2c0,0-0.2,25.2,14.2,45.4l-21.2-35.5c0,0-13.3,27.4-50.8,35.5c0,0-37.4,21.3-2.9,66.8
			c30.5,40.3,78.9,161.3,38.6,188.4c0,0-31.7,15-76,77.8c-25.3,38.6-53.6,65.1-103.1,88.1c-27.6,9.2-54.7,19-84.1,31.7l-104.3,31.7
			c0,0-74.9,10.9-85.2,86.4c6.9,6.3,44.4,451,173.4,562.2c10.4,9.2,389.4,233.3,392.3,237.9c6.9-6.9,13.2-13.2,20.2-19
			c29.4-28.2,57.6-54.7,85.2-78.9c-10.4-34.6-13.2-80.1-1.2-137.1c9.2-40.3,25.3-107.1,37.4-187.2c29.4,65.1,66.8,131.9,115.8,198.7
			c14.4,20.2,30.5,40.3,46.7,61.1c6.3,6.9,12.1,15,17.3,22.5c-6.3,70.3-6.3,167.6,21.3,269h305.9
			C2831.6,2843.7,2828.2,2806.8,2823.6,2769.4z M2313.2,1305.2c2.3-1.2,4,0,6.3,0c5.2,2.3,9.2,5.2,13.2,8.1c9.2,6.9,19,15,23,26.5
			c2.9,9.2,2.3,19-1.2,27.6c-2.9,9.2-9.2,16.1-15,24.2c-1.2,2.3-4,2.9-5.2,1.2c6.9-6.9,12.1-16.1,14.4-26.5
			c2.3-10.4,2.3-20.2-2.3-29.4c-1.2-2.3-2.9-5.2-4-6.9c-6.9-9.2-17.3-17.3-29.4-20.2C2310.9,1309.2,2310.9,1305.8,2313.2,1305.2z
			 M2253.3,1349.6c2.9-5.2,8.1-9.2,13.2-10.9c1.2,0,2.3,0,2.9-1.2l9.2-2.3l-5.2,8.1c-2.3,4-2.3,9.2-1.2,14.4
			c2.3,5.2,5.2,9.2,9.2,10.9l2.3,1.2c2.3,1.2,2.9,1.2,5.2,2.9c4,2.9,5.2,6.9,4,10.9c-1.2,4-5.2,6.9-10.4,6.9c-1.2,0-2.3,0-2.9,0l0,0
			c-6.3,0-10.9-2.3-15-4c-6.3-4-10.9-9.2-14.4-16.1C2248.1,1364,2249.3,1355.9,2253.3,1349.6z M2533.8,2365.1
			C2532.7,2366.8,2532.7,2366.8,2533.8,2365.1L2533.8,2365.1z"/>
		<path id="red_body_5_" fill="#F15731" d="M1238.4,2880h629c-33.4-44.9-60.5-92.2-81.8-137.1c-30.5-63.9-49.5-123.8-62.8-170.5
			c-2.9-10.4-6.3-20.2-8.1-29.4c-6.9,16.1-13.2,33.4-19,51.8c-9.2,29.4-17.3,61.1-22.5,93.3c-6.9,41.5-10.4,82.4-9.2,120.4
			c12.1,9.8,43.8,35.7,81.2,71.4h-10.4c-23-19-46.7-37.4-69.7-54.7c-2.9-2.3-5.2-4-8.1-6.3c-33.4-25.3-65.7-49.5-99.1-73.2
			c-108.3-76.6-216-144-319.1-202.2"/>
		<path id="hand_3_" fill="#16C2EA" d="M2527.5,2880c-27.6-100.8-27.6-198.7-21.3-269c-6.3-6.9-10.9-15-17.3-22.5
			c-16.1-20.2-32.3-40.3-46.7-61.1c-47.8-66.8-86.4-134.8-115.8-198.7c-12.1,80.1-28.2,146.9-37.4,187.2
			c-13.2,57-9.2,102.5,1.2,137.1c-27.6,24.2-54.7,50.7-85.2,78.9c-6.9,6.3-13.2,13.2-20.2,19c-2.9-6.3-13.2-61.6-121.5-169.3
			c-47.8-47.8-114.6-104.3-207.9-171.1c-12.1-9.2-24.2-18.4-34.6-27.6c-128.4-111.7-80.1-203.9-59.9-273.6c5.2-19,2.3-38.6,9.2-57.6
			c4-10.9,18.4-40.3,10.4-50.7c-28.2-33.4-49.5,61.1-57.6,73.2c-10.4,17.3-10.9,2.9-23-12.1c-14.4-17.3-24.2-38.6-38.6-55.9
			c-9.2-10.4-20.2-19-28.2-30.5c-4-6.3-6.9-16.1-14.4-21.3c-1.2-1.2-2.9-2.3-5.2-2.3c-6.3-1.2-16.1,4-18.4,10.4
			c-2.3,5.2,2.3,6.3,2.9,12.1c-9.2-2.3-9.2-5.2-19-6.9c-16.1-2.3-16.1,21.3-10.4,33.4c-15-4-17.3-4-18.4,15
			c0,5.2,22.5,35.7,10.9,33.4c0,0-1.2-17.3-10.9-13.2c-10.4,4-10.4,21.3-8.1,28.2c8.1,38.6,10.4,77.2,27.6,111.7
			c5.2,10.4,8.1,19,17.3,26.5c8.1,6.3,35.7,61.6,36.3,61.1c0,0,49.5,145.7,76,231c2.9,10.9,8.1,27.6,13.2,46.7
			c2.3,9.2,5.2,18.4,8.1,29.4c13.2,46.7,33.4,106.6,62.8,170.5c21.3,45.5,48.4,92.7,82.4,138.2h661.8V2880z"/>
	</g>
</g>
<g id="_x33_">
	<g>
		<path d="M2824.1,2880H3081v-710.2c-13.2-20.2-30.5-50.1-39.7-70.8c-18.4-41.5-24.2-88.1-30.5-135.9c-2.9-24.2-6.9-49.5-12.1-74.9
			c-13.2-63.9-48.4-179.1-149.2-233.3c-27.6-14.4-95-47.8-161.9-50.7c0,0,0,0-1.2,0c-6.3-47.8-19-95-40.3-137.1
			c-17.3-34.6-43.8-61.6-61.1-96.2c-10.9-23-10.9-45.5-19-69.7c-15-48.4-62.8-100.2-116.4-107.1c-100.2-13.2-142.8,27.6-157.2,77.2
			C1795.4,1804.6,2824.1,2880,2824.1,2880z"/>
		<path id="red_eye_5_" d="M2294.8,1373.2c-2.3-1.2-4-2.3-5.2-2.9l-2.3-1.2c-4-2.3-6.9-6.3-9.2-10.9c-2.3-5.2-1.2-10.4,1.2-14.4
			l5.2-8.1l-9.2,2.3c-1.2,0-2.3,0-2.9,1.2l0,0c-5.2,2.3-10.4,5.2-13.2,10.9c-4,6.3-5.2,14.4-2.9,21.3c2.3,6.9,6.9,12.1,13.2,16.1
			l0,0c5.2,2.3,10.4,4,16.1,4c1.2,0,2.3,0,2.9,0c5.2-1.2,9.2-2.9,10.4-6.9C2300,1380.1,2298.2,1376.1,2294.8,1373.2z"/>
		<path id="red_eyebrow_7_" d="M2318.4,1309.8c10.9,2.9,22.5,10.9,29.4,20.2c2.3,2.3,2.9,5.2,4,6.9c4,9.2,5.2,20.2,2.3,29.4
			c-2.3,10.4-6.9,19-14.4,26.5c1.2,2.3,4,0,5.2-1.2c6.3-6.9,10.9-15,15-24.2c2.9-9.2,4-19,1.2-27.6c-4-10.9-14.4-19-23-26.5
			c-4-2.9-9.2-6.3-13.2-8.1c-2.3-1.2-4-1.2-6.3,0C2316.1,1305.8,2316.1,1309.2,2318.4,1309.8z"/>
		<path id="blue_eye_5_" d="M2619.1,1862.2c-1.2-4-5.2-6.3-10.4-6.3c-2.3,0-4,0-6.3,1.2c-1.2,0-1.2,0-2.3,0
			c-5.2,1.2-9.2-1.2-13.2-2.9l0,0c-4-2.9-6.3-6.9-6.9-10.9l-1.2-9.2l-6.9,6.9c-5.2,5.2-6.9,10.9-6.3,18.4c1.2,8.1,4,15,10.4,19
			c2.9,2.9,8.1,4,12.1,5.2l0,0c2.3,0,2.9,0,5.2,0c8.1,0,15-2.9,21.3-8.1C2619.1,1871.4,2621.4,1866.2,2619.1,1862.2z"/>
		<path id="blue_hand_4_" fill="#16C2EA" d="M1745.3,2880c-37.4-35.1-69.1-61.1-81.2-71.4c0,5.2,0,10.4,1.2,16.1
			c-1.2-5.2-1.2-10.9-1.2-16.1c-1.2,0-1.2-1.2-1.2-1.2s0,1.2,1.2,1.2c-1.2-38.6,2.3-78.9,9.2-120.4c5.2-32.3,13.2-63.9,22.5-93.3
			c-37.4,31.7-88.1,82.4-137.7,150.9c33.4,23,65.7,47.8,99.1,73.2l2.3-14.4l0,0l0,0l-2.3,14.4c2.9,2.3,5.2,4,8.1,6.3
			c23,17.9,46.7,36.3,69.7,54.7"/>
		<path id="blue_face_8_" fill="#16C2EA" d="M2782.1,2198.6c-10.9-8.1-32.3-24.2-44.4-47.8c-8.1-12.1-14.4-24.2-20.2-37.4
			c-13.2-30.5-22.5-63.9-24.2-96.2c0-4-1.2-10.9,0-22.5c22.5-2.3,55.9-6.3,69.1-27.6c8.1-13.2,5.2-39.7-10.4-46.7
			c-22.5-10.4-33.4,17.3-53.6,17.3c25.3-34.6,25.3-84.1,2.9-119.8c-4-6.9-10.9-12.1-19-18.4c-10.4-6.9-23-12.1-36.3-18.4
			c-19-8.1-39.7-17.3-54.7-27.6c-1.2-1.2-2.9-2.3-4-2.9c-13.2,18.4-23,37.4-37.4,54.7c-6.9,9.2-15,17.3-23,24.2
			c-25.3,23-57,40.3-89.3,48.4c13.2,8.1,27.6,15,42.6,20.2c-2.3,8.1-13.2,24.2-23,27.6c1.2,6.9,14.4,13.2,23,16.1
			c-5.2,2.9-22.5,4-27.6,6.9c2.9,4,2.3,10.9-1.2,17.3c17.3,17.3,33.4,35.7,49.5,53.6c6.9,8.1,14.4,16.1,20.2,23
			c14.4,16.1,27.6,33.4,39.7,49.5c22.5,29.4,42.6,59.9,61.6,89.3c6.3,9.2,10.9,18.4,17.3,28.2c4,6.9,8.1,13.2,10.9,20.2
			c8.1,14.4,16.1,29.4,24.2,44.4c19,36.3,36.3,73.7,51.8,110.6c2.9,6.9,6.3,14.4,8.1,21.3c25.3,65.7,45.5,131.9,61.1,196.4
			c13.2,55.9,22.5,111.7,29.4,165.3C3069.5,2333.4,2802.2,2206.7,2782.1,2198.6z M2609.9,1874.3c-6.3,5.2-13.2,8.1-21.3,8.1l0,0
			c-2.3,0-2.9,0-5.2,0c-4-1.2-9.2-2.3-12.1-5.2c-6.3-4-9.2-10.9-10.4-19c-1.2-6.9,2.3-14.4,6.3-18.4l6.9-6.9l1.2,9.2
			c1.2,4,2.9,8.1,6.9,10.9s9.2,5.2,14.4,4c1.2,0,1.2,0,2.3,0c2.3,0,2.9-1.2,6.3-1.2l0,0c4,0,8.1,2.9,10.4,6.3
			C2615.6,1866.2,2613.9,1871.4,2609.9,1874.3z"/>
		<path id="red_body_10_" fill="#F05436" d="M2823,2769.4c-6.9-53.6-16.1-109.4-29.4-165.3c-15-65.1-34.6-131.9-61.1-196.4
			c-2.9-6.9-5.2-14.4-8.1-21.3c-15-37.4-32.3-73.7-51.8-110.6c-8.1-15-16.1-29.4-24.2-44.4c-4-6.9-8.1-13.2-10.9-20.2
			c-6.3-9.2-10.9-18.4-17.3-28.2c-19-30.5-39.7-59.9-61.6-89.3c-13.2-17.3-26.5-33.4-39.7-49.5c-6.9-8.1-13.2-16.1-20.2-23
			c-16.1-18.4-32.3-35.7-49.5-53.6c-28.2-29.4-59.9-57.6-92.2-85.2l0,0l-1.2-1.2l0,0l0,0c-10.9-9.2-100.2-88.1-121.5-149.2
			c-4-10.4-5.2-20.2-4-29.4c1.2-6.9,2.9-14.4,8.1-19c2.3-2.9,5.2-5.2,9.2-8.1l1.2-1.2c10.9-9.2,24.2-15,37.4-17.3
			c25.3-4,95,5.2,92.2-38.6c-2.9-39.7-61.6-25.3-85.2-32.3c-110.6-33.4-4-129.6,70.8-148c49.5-12.1,119.8-81.2,88.1-141.1
			c-44.4-24.2-99.1-41.5-157.2-29.4c-17.3,4-35.7,10.4-52.4,19c0,0-34.6,12.1-65.7,1.2c-36.3-12.1-31.7,13.2-31.7,13.2l2.3,34.6
			c0,0-15,6.3-51.8,0c0,0-4,8.1,6.3,34.6l-15-24.2c0,0-12.1,27.6-49.5,36.3c0,0-37.4,21.3-2.9,66.8c30.5,40.3,78.9,161.3,38.6,188.4
			c0,0-31.7,15-76,77.8c-25.3,38.6-53.6,65.1-103.1,88.1c-27.6,9.2-54.7,19-84.1,31.7l-104.8,31.1c0,0-74.9,10.9-85.2,86.4
			c6.9,6.3,44.4,451,173.4,562.2c10.4,9.2,389.4,233.3,392.3,237.9c6.9-6.9,13.2-13.2,20.2-19c29.4-28.2,57.6-54.7,85.2-78.9
			c-10.4-34.6-13.2-80.1-1.2-137.1c9.2-40.3,25.3-107.1,37.4-187.2c29.4,65.1,66.8,131.9,115.8,198.7c14.4,20.2,30.5,40.3,46.7,61.1
			c6.3,6.9,12.1,15,17.3,22.5c-6.3,69.7-6.3,167,21.3,267.8h305.3C2830.5,2843.7,2827.6,2806.8,2823,2769.4z M2312.1,1305.2
			c2.3-1.2,4,0,6.3,0c5.2,2.3,9.2,5.2,13.2,8.1c9.2,6.9,19,15,23,26.5c2.9,9.2,2.3,19-1.2,27.6c-2.9,9.2-9.2,16.1-15,24.2
			c-1.2,2.3-4,2.9-5.2,1.2c6.9-6.9,12.1-16.1,14.4-26.5c2.3-10.4,2.3-20.2-2.3-29.4c-1.2-2.3-2.9-5.2-4-6.9
			c-6.9-9.2-17.3-17.3-29.4-20.2C2310.3,1309.2,2310.3,1305.8,2312.1,1305.2z M2252.2,1349.6c2.9-5.2,8.1-9.2,13.2-10.9
			c1.2,0,2.3,0,2.9-1.2l9.2-2.3l-5.2,8.1c-2.3,4-2.3,9.2-1.2,14.4c2.3,5.2,5.2,9.2,9.2,10.9l2.3,1.2c2.3,1.2,2.9,1.2,5.2,2.9
			c4,2.9,5.2,6.9,4,10.9c-1.2,4-5.2,6.9-10.4,6.9c-1.2,0-2.3,0-2.9,0l0,0c-6.3,0-10.9-2.3-15-4c-6.3-4-10.9-9.2-14.4-16.1
			C2247.6,1364,2248.1,1355.9,2252.2,1349.6z M2533.2,2365.1C2532.1,2366.8,2532.1,2366.8,2533.2,2365.1L2533.2,2365.1z"/>
		<path id="red_body_4_" fill="#F15731" d="M1238.4,2880h629c-33.4-44.9-60.5-92.2-81.8-137.1c-30.5-63.9-49.5-123.8-62.8-170.5
			c-2.9-10.4-6.3-20.2-8.1-29.4c-6.9,16.1-13.2,33.4-19,51.8c-9.2,29.4-17.3,61.1-22.5,93.3c-6.9,41.5-10.4,82.4-9.2,120.4
			c12.1,9.8,43.8,35.7,81.2,71.4h-10.4c-23-19-46.7-37.4-69.7-54.7c-2.9-2.3-5.2-4-8.1-6.3c-33.4-25.3-65.7-49.5-99.1-73.2
			c-108.3-76.6-216-144-319.1-202.2"/>
		<path id="hand_4_" fill="#16C2EA" d="M2527.5,2880c-27.1-100.2-27.1-198.1-21.3-267.8c-6.3-6.9-10.9-15-17.3-22.5
			c-16.1-20.2-32.3-40.3-46.7-61.1c-47.8-66.8-86.4-134.8-115.8-198.7c-12.1,80.1-28.2,146.9-37.4,187.2
			c-13.2,57-9.2,102.5,1.2,137.1c-27.6,24.2-54.7,50.7-85.2,78.9c-6.9,6.3-13.2,13.2-20.2,19c-2.9-6.3-13.2-61.6-121.5-169.3
			c-47.8-47.8-114.6-104.3-207.9-171.1c-12.1-9.2-24.2-18.4-34.6-27.6c-128.4-111.7-95-214.8-54.7-275.9
			c10.9-16.1,13.2-36.3,26.5-51.8c6.9-9.2,30.5-33.4,25.3-45.5c-17.3-40.3-65.7,42.6-77.2,51.8c-15,13.2-29.4,14.4-41.5-1.2
			c-14.4-17.3-24.2-38.6-38.6-55.9c-9.2-10.4-20.2-19-28.2-30.5c-4-6.3-6.9-20.2-14.4-25.3c-1.2-1.2-2.9-2.3-5.2-2.3
			c-6.3-1.2-16.1,4-18.4,10.4c-2.3,5.2,2.3,10.4,2.9,16.1c-9.2-2.3-6.9-15-17.3-17.3c-16.1-2.3-18.4,25.3-12.1,37.4
			c-15-4-17.3-4-18.4,15c0,5.2,14.4,41.5,2.9,39.7c0,0-1.2-17.3-10.9-13.2c-10.4,4-10.4,21.3-8.1,28.2
			c8.1,38.6,10.4,77.2,27.6,111.7c5.2,10.4,8.1,19,17.3,26.5c8.1,6.3,43.8,61.6,44.4,61.1c0,0,49.5,145.7,76,231
			c2.9,10.9,8.1,27.6,13.2,46.7c2.3,9.2,5.2,18.4,8.1,29.4c13.2,46.7,33.4,106.6,62.8,170.5c21.3,45.5,48.4,92.7,82.4,138.2"/>
	</g>
</g>
<g id="_x32_" display="none">
	<g display="inline">
		<path d="M2824.1,2880H3081v-710.2c-13.2-20.2-30.5-50.1-39.7-70.8c-18.4-41.5-24.2-88.1-30.5-135.9c-2.9-24.2-6.9-49.5-12.1-74.9
			c-13.2-63.9-48.4-179.1-149.2-233.3c-27.6-14.4-95-47.8-161.9-50.7c0,0,0,0-1.2,0c-6.3-47.8-19-95-40.3-137.1
			c-17.3-34.6-43.8-61.6-61.1-96.2c-10.9-23-10.9-45.5-19-69.7c-15-48.4-62.8-100.2-116.4-107.1c-100.2-13.2-142.8,27.6-157.2,77.2
			C1795.4,1804.6,2824.1,2880,2824.1,2880z"/>
		<path id="red_eye_6_" d="M2294.8,1373.2c-2.3-1.2-4-2.3-5.2-2.9l-2.3-1.2c-4-2.3-6.9-6.3-9.2-10.9c-2.3-5.2-1.2-10.4,1.2-14.4
			l5.2-8.1l-9.2,2.3c-1.2,0-2.3,0-2.9,1.2l0,0c-5.2,2.3-10.4,5.2-13.2,10.9c-4,6.3-5.2,14.4-2.9,21.3c2.3,6.9,6.9,12.1,13.2,16.1
			l0,0c5.2,2.3,10.4,4,16.1,4c1.2,0,2.3,0,2.9,0c5.2-1.2,9.2-2.9,10.4-6.9C2300,1380.1,2298.2,1376.1,2294.8,1373.2z"/>
		<path id="red_eyebrow_6_" d="M2318.4,1309.8c10.9,2.9,22.5,10.9,29.4,20.2c2.3,2.3,2.9,5.2,4,6.9c4,9.2,5.2,20.2,2.3,29.4
			c-2.3,10.4-6.9,19-14.4,26.5c1.2,2.3,4,0,5.2-1.2c6.3-6.9,10.9-15,15-24.2c2.9-9.2,4-19,1.2-27.6c-4-10.9-14.4-19-23-26.5
			c-4-2.9-9.2-6.3-13.2-8.1c-2.3-1.2-4-1.2-6.3,0C2316.1,1305.8,2316.1,1309.2,2318.4,1309.8z"/>
		<path id="blue_eye_6_" d="M2619.1,1862.2c-1.2-4-5.2-6.3-10.4-6.3c-2.3,0-4,0-6.3,1.2c-1.2,0-1.2,0-2.3,0
			c-5.2,1.2-9.2-1.2-13.2-2.9l0,0c-4-2.9-6.3-6.9-6.9-10.9l-1.2-9.2l-6.9,6.9c-5.2,5.2-6.9,10.9-6.3,18.4c1.2,8.1,4,15,10.4,19
			c2.9,2.9,8.1,4,12.1,5.2l0,0c2.3,0,2.9,0,5.2,0c8.1,0,15-2.9,21.3-8.1C2619.1,1871.4,2621.4,1866.2,2619.1,1862.2z"/>
		<path id="blue_hand_1_" fill="#16C2EA" d="M1745.3,2880c-37.4-35.1-69.1-61.1-81.2-71.4c0,5.2,0,10.4,1.2,16.1
			c-1.2-5.2-1.2-10.9-1.2-16.1c-1.2,0-1.2-1.2-1.2-1.2s0,1.2,1.2,1.2c-1.2-38.6,2.3-78.9,9.2-120.4c5.2-32.3,13.2-63.9,22.5-93.3
			c-37.4,31.7-88.1,82.4-137.7,150.9c33.4,23,65.7,47.8,99.1,73.2l2.3-14.4l0,0l0,0l-2.3,14.4c2.9,2.3,5.2,4,8.1,6.3
			c23,17.9,46.7,36.3,69.7,54.7"/>
		<path id="blue_face_6_" fill="#16C2EA" d="M2782.1,2198.6c-10.9-8.1-32.3-24.2-44.4-47.8c-8.1-12.1-14.4-24.2-20.2-37.4
			c-13.2-30.5-22.5-63.9-24.2-96.2c0-4-1.2-10.9,0-22.5c22.5-2.3,55.9-6.3,69.1-27.6c8.1-13.2,5.2-39.7-10.4-46.7
			c-22.5-10.4-33.4,17.3-53.6,17.3c25.3-34.6,25.3-84.1,2.9-119.8c-4-6.9-10.9-12.1-19-18.4c-10.4-6.9-23-12.1-36.3-18.4
			c-19-8.1-39.7-17.3-54.7-27.6c-1.2-1.2-2.9-2.3-4-2.9c-13.2,18.4-23,37.4-37.4,54.7c-6.9,9.2-15,17.3-23,24.2
			c-25.3,23-57,40.3-89.3,48.4c13.2,8.1,27.6,15,42.6,20.2c-2.3,8.1-13.2,24.2-23,27.6c1.2,6.9,14.4,13.2,23,16.1
			c-5.2,2.9-22.5,4-27.6,6.9c2.9,4,2.3,10.9-1.2,17.3c17.3,17.3,33.4,35.7,49.5,53.6c6.9,8.1,14.4,16.1,20.2,23
			c14.4,16.1,27.6,33.4,39.7,49.5c22.5,29.4,42.6,59.9,61.6,89.3c6.3,9.2,10.9,18.4,17.3,28.2c4,6.9,8.1,13.2,10.9,20.2
			c8.1,14.4,16.1,29.4,24.2,44.4c19,36.3,36.3,73.7,51.8,110.6c2.9,6.9,6.3,14.4,8.1,21.3c25.3,65.7,45.5,131.9,61.1,196.4
			c13.2,55.9,22.5,111.7,29.4,165.3C3069.5,2333.4,2802.2,2206.7,2782.1,2198.6z M2609.9,1874.3c-6.3,5.2-13.2,8.1-21.3,8.1l0,0
			c-2.3,0-2.9,0-5.2,0c-4-1.2-9.2-2.3-12.1-5.2c-6.3-4-9.2-10.9-10.4-19c-1.2-6.9,2.3-14.4,6.3-18.4l6.9-6.9l1.2,9.2
			c1.2,4,2.9,8.1,6.9,10.9s9.2,5.2,14.4,4c1.2,0,1.2,0,2.3,0c2.3,0,2.9-1.2,6.3-1.2l0,0c4,0,8.1,2.9,10.4,6.3
			C2615.6,1866.2,2613.9,1871.4,2609.9,1874.3z"/>
		<path id="red_body_13_" fill="#F05436" d="M2823.6,2769.4c-6.9-53.6-16.1-109.4-29.4-165.3c-15-65.1-34.6-131.9-61.1-196.4
			c-2.9-6.9-5.2-14.4-8.1-21.3c-15-37.4-32.3-73.7-51.8-110.6c-8.1-15-16.1-29.4-24.2-44.4c-4-6.9-8.1-13.2-10.9-20.2
			c-6.3-9.2-10.9-18.4-17.3-28.2c-19-30.5-39.7-59.9-61.6-89.3c-13.2-17.3-26.5-33.4-39.7-49.5c-6.9-8.1-13.2-16.1-20.2-23
			c-16.1-18.4-32.3-35.7-49.5-53.6c-28.2-29.4-59.9-57.6-92.2-85.2l0,0l-1.2-1.2l0,0l0,0c-10.9-9.2-100.2-88.1-121.5-149.2
			c-4-10.4-5.2-20.2-4-29.4c1.2-6.9,2.9-14.4,8.1-19c2.3-2.9,5.2-5.2,9.2-8.1l1.2-1.2c10.9-9.2,24.2-15,37.4-17.3
			c25.3-4,95,5.2,92.2-38.6c-2.9-39.7-61.6-25.3-85.2-32.3c-110.6-33.4-4-129.6,70.8-148c49.5-12.1,119.8-81.2,88.1-141.1
			c-44.4-24.2-99.1-41.5-157.2-29.4c-17.3,4-35.7,10.4-52.4,19c0,0-34.6,12.1-65.7,1.2c-36.3-12.1-31.7,13.2-31.7,13.2l2.3,34.6
			c0,0-4,16.1-40.3,1.2c0,0-13.2,24.2,1.2,44.4l-28.2-22.5c0,0-6.3,14.4-43.8,22.5c0,0-37.4,21.3-2.9,66.8
			c30.5,40.3,78.9,161.3,38.6,188.4c0,0-31.7,15-76,77.8c-25.3,38.6-53.6,65.1-103.1,88.1c-27.6,9.2-54.7,19-84.1,31.7l-104.3,31.7
			c0,0-74.9,10.9-85.2,86.4c6.9,6.3,44.4,451,173.4,562.2c10.4,9.2,389.4,233.3,392.3,237.9c6.9-6.9,13.2-13.2,20.2-19
			c29.4-28.2,57.6-54.7,85.2-78.9c-10.4-34.6-13.2-80.1-1.2-137.1c9.2-40.3,25.3-107.1,37.4-187.2c29.4,65.1,66.8,131.9,115.8,198.7
			c14.4,20.2,30.5,40.3,46.7,61.1c6.3,6.9,12.1,15,17.3,22.5c-6.3,70.3-6.3,167.6,21.3,269h305.9
			C2831.6,2843.7,2828.2,2806.8,2823.6,2769.4z M2313.2,1305.2c2.3-1.2,4,0,6.3,0c5.2,2.3,9.2,5.2,13.2,8.1c9.2,6.9,19,15,23,26.5
			c2.9,9.2,2.3,19-1.2,27.6c-2.9,9.2-9.2,16.1-15,24.2c-1.2,2.3-4,2.9-5.2,1.2c6.9-6.9,12.1-16.1,14.4-26.5
			c2.3-10.4,2.3-20.2-2.3-29.4c-1.2-2.3-2.9-5.2-4-6.9c-6.9-9.2-17.3-17.3-29.4-20.2C2310.9,1309.2,2310.9,1305.8,2313.2,1305.2z
			 M2253.3,1349.6c2.9-5.2,8.1-9.2,13.2-10.9c1.2,0,2.3,0,2.9-1.2l9.2-2.3l-5.2,8.1c-2.3,4-2.3,9.2-1.2,14.4
			c2.3,5.2,5.2,9.2,9.2,10.9l2.3,1.2c2.3,1.2,2.9,1.2,5.2,2.9c4,2.9,5.2,6.9,4,10.9c-1.2,4-5.2,6.9-10.4,6.9c-1.2,0-2.3,0-2.9,0l0,0
			c-6.3,0-10.9-2.3-15-4c-6.3-4-10.9-9.2-14.4-16.1C2248.1,1364,2249.3,1355.9,2253.3,1349.6z M2533.8,2365.1
			C2532.7,2366.8,2532.7,2366.8,2533.8,2365.1L2533.8,2365.1z"/>
		<path id="red_body_1_" fill="#F15731" d="M1238.4,2880h629c-33.4-44.9-60.5-92.2-81.8-137.1c-30.5-63.9-49.5-123.8-62.8-170.5
			c-2.9-10.4-6.3-20.2-8.1-29.4c-6.9,16.1-13.2,33.4-19,51.8c-9.2,29.4-17.3,61.1-22.5,93.3c-6.9,41.5-10.4,82.4-9.2,120.4
			c12.1,9.8,43.8,35.7,81.2,71.4h-10.4c-23-19-46.7-37.4-69.7-54.7c-2.9-2.3-5.2-4-8.1-6.3c-33.4-25.3-65.7-49.5-99.1-73.2
			c-108.3-76.6-216-144-319.1-202.2"/>
		<path id="hand_2_" fill="#16C2EA" d="M2527.5,2880c-27.6-100.8-27.6-198.7-21.3-269c-6.3-6.9-10.9-15-17.3-22.5
			c-16.1-20.2-32.3-40.3-46.7-61.1c-47.8-66.8-86.4-134.8-115.8-198.7c-12.1,80.1-28.2,146.9-37.4,187.2
			c-13.2,57-9.2,102.5,1.2,137.1c-27.6,24.2-54.7,50.7-85.2,78.9c-6.9,6.3-13.2,13.2-20.2,19c-2.9-6.3-13.2-61.6-121.5-169.3
			c-47.8-47.8-114.6-104.3-207.9-171.1c-12.1-9.2-24.2-18.4-34.6-27.6c-128.4-111.7-80.1-203.9-59.9-273.6c5.2-19,2.3-38.6,9.2-57.6
			c4-10.9,18.4-40.3,10.4-50.7c-28.2-33.4-49.5,61.1-57.6,73.2c-10.4,17.3-10.9,2.9-23-12.1c-14.4-17.3-24.2-38.6-38.6-55.9
			c-9.2-10.4-20.2-19-28.2-30.5c-4-6.3-6.9-16.1-14.4-21.3c-1.2-1.2-2.9-2.3-5.2-2.3c-6.3-1.2-16.1,4-18.4,10.4
			c-2.3,5.2,2.3,6.3,2.9,12.1c-9.2-2.3-9.2-5.2-19-6.9c-16.1-2.3-16.1,21.3-10.4,33.4c-15-4-17.3-4-18.4,15
			c0,5.2,22.5,35.7,10.9,33.4c0,0-1.2-17.3-10.9-13.2c-10.4,4-10.4,21.3-8.1,28.2c8.1,38.6,10.4,77.2,27.6,111.7
			c5.2,10.4,8.1,19,17.3,26.5c8.1,6.3,35.7,61.6,36.3,61.1c0,0,49.5,145.7,76,231c2.9,10.9,8.1,27.6,13.2,46.7
			c2.3,9.2,5.2,18.4,8.1,29.4c13.2,46.7,33.4,106.6,62.8,170.5c21.3,45.5,48.4,92.7,82.4,138.2h661.8V2880z"/>
	</g>
</g>
<g id="_x31_" display="none">
	<g display="inline">
		<path d="M2824.1,2880H3081v-710.2c-13.2-20.2-30.5-50.1-39.7-70.8c-18.4-41.5-24.2-88.1-30.5-135.9c-2.9-24.2-6.9-49.5-12.1-74.9
			c-13.2-63.9-48.4-179.1-149.2-233.3c-27.6-14.4-95-47.8-161.9-50.7c0,0,0,0-1.2,0c-6.3-47.8-19-95-40.3-137.1
			c-17.3-34.6-43.8-61.6-61.1-96.2c-10.9-23-10.9-45.5-19-69.7c-15-48.4-62.8-100.2-116.4-107.1c-100.2-13.2-142.8,27.6-157.2,77.2
			C1795.4,1804.6,2824.1,2880,2824.1,2880z"/>
		<path id="red_eye_1_" d="M2289.6,1373.2c-2.3-1.2-4-2.3-5.2-2.9l-2.3-1.2c-4-2.3-6.9-6.3-9.2-10.9c-2.3-5.2-1.2-10.4,1.2-14.4
			l5.2-8.1l-9.2,2.3c-1.2,0-2.3,0-2.9,1.2l0,0c-5.2,2.3-10.4,5.2-13.2,10.9c-4,6.3-5.2,14.4-2.9,21.3c2.3,6.9,6.9,12.1,13.2,16.1
			l0,0c5.2,2.3,10.4,4,16.1,4c1.2,0,2.3,0,2.9,0c5.2-1.2,9.2-2.9,10.4-6.9C2294.2,1380.1,2292.5,1376.1,2289.6,1373.2z"/>
		<path id="red_eyebrow_2_" d="M2312.6,1309.8c10.9,2.9,22.5,10.9,29.4,20.2c2.3,2.3,2.9,5.2,4,6.9c4,9.2,5.2,20.2,2.3,29.4
			c-2.3,10.4-6.9,19-14.4,26.5c1.2,2.3,4,0,5.2-1.2c6.3-6.9,10.9-15,15-24.2c2.9-9.2,4-19,1.2-27.6c-4-10.9-14.4-19-23-26.5
			c-4-2.9-9.2-6.3-13.2-8.1c-2.3-1.2-4-1.2-6.3,0C2310.9,1305.8,2310.9,1309.2,2312.6,1309.8z"/>
		<path id="blue_eye_1_" d="M2613.9,1862.2c-1.2-4-5.2-6.3-10.4-6.3c-2.3,0-4,0-6.3,1.2c-1.2,0-1.2,0-2.3,0
			c-5.2,1.2-9.2-1.2-13.2-2.9l0,0c-4-2.9-6.3-6.9-6.9-10.9l-1.2-9.2l-6.9,6.9c-5.2,5.2-6.9,10.9-6.3,18.4c1.2,8.1,4,15,10.4,19
			c2.9,2.9,8.1,4,12.1,5.2l0,0c2.3,0,2.9,0,5.2,0c8.1,0,15-2.9,21.3-8.1C2613.9,1871.4,2615.6,1866.2,2613.9,1862.2z"/>
		<path id="blue_hand_2_" fill="#16C2EA" d="M1664.1,2808.6c0,5.2,0,10.4,1.2,16.1C1664.1,2820.1,1664.1,2813.8,1664.1,2808.6
			c-1.2,0-1.2-1.2-1.2-1.2S1662.9,2808.6,1664.1,2808.6c-1.2-38.6,2.3-78.9,9.2-120.4c5.2-32.3,13.2-63.9,22.5-93.3
			c-37.4,31.7-88.1,82.4-137.7,150.9c33.4,23,65.7,47.8,99.1,73.2l2.3-14.4l0,0l0,0l-2.3,14.4c2.9,2.3,5.2,4,8.1,6.3
			c23,17.9,46.7,36.3,69.7,54.7h10.4C1707.8,2844.9,1676.2,2818.9,1664.1,2808.6z"/>
		<path id="blue_face_2_" fill="#16C2EA" d="M2782.1,2198.6c-10.9-8.1-32.3-24.2-44.4-47.8c-8.1-12.1-14.4-24.2-20.2-37.4
			c-13.2-30.5-22.5-63.9-24.2-96.2c0-4-1.2-10.9,0-22.5c22.5-2.3,55.9-6.3,69.1-27.6c8.1-13.2,5.2-39.7-10.4-46.7
			c-22.5-10.4-33.4,17.3-53.6,17.3c25.3-34.6,25.3-84.1,2.9-119.8c-4-6.9-10.9-12.1-19-18.4c-10.4-6.9-23-12.1-36.3-18.4
			c-19-8.1-39.7-17.3-54.7-27.6c-1.2-1.2-2.9-2.3-4-2.9c-13.2,18.4-23,37.4-37.4,54.7c-6.9,9.2-15,17.3-23,24.2
			c-25.3,23-57,40.3-89.3,48.4c13.2,8.1,27.6,15,42.6,20.2c-2.3,8.1-13.2,24.2-23,27.6c1.2,6.9,14.4,13.2,23,16.1
			c-5.2,2.9-22.5,4-27.6,6.9c2.9,4,2.3,10.9-1.2,17.3c17.3,17.3,33.4,35.7,49.5,53.6c6.9,8.1,14.4,16.1,20.2,23
			c14.4,16.1,27.6,33.4,39.7,49.5c22.5,29.4,42.6,59.9,61.6,89.3c6.3,9.2,10.9,18.4,17.3,28.2c4,6.9,8.1,13.2,10.9,20.2
			c8.1,14.4,16.1,29.4,24.2,44.4c19,36.3,36.3,73.7,51.8,110.6c2.9,6.9,6.3,14.4,8.1,21.3c25.3,65.7,45.5,131.9,61.1,196.4
			c13.2,55.9,22.5,111.7,29.4,165.3C3069.5,2333.4,2802.2,2206.7,2782.1,2198.6z M2609.9,1874.3c-6.3,5.2-13.2,8.1-21.3,8.1l0,0
			c-2.3,0-2.9,0-5.2,0c-4-1.2-9.2-2.3-12.1-5.2c-6.3-4-9.2-10.9-10.4-19c-1.2-6.9,2.3-14.4,6.3-18.4l6.9-6.9l1.2,9.2
			c1.2,4,2.9,8.1,6.9,10.9s9.2,5.2,14.4,4c1.2,0,1.2,0,2.3,0c2.3,0,2.9-1.2,6.3-1.2l0,0c4,0,8.1,2.9,10.4,6.3
			C2615.6,1866.2,2613.9,1871.4,2609.9,1874.3z"/>
		<path id="red_body_2_" fill="#F05436" d="M2823.6,2769.4c-6.9-53.6-16.1-109.4-29.4-165.3c-15-65.1-34.6-131.9-61.1-196.4
			c-2.9-6.9-5.2-14.4-8.1-21.3c-15-37.4-32.3-73.7-51.8-110.6c-8.1-15-16.1-29.4-24.2-44.4c-4-6.9-8.1-13.2-10.9-20.2
			c-6.3-9.2-10.9-18.4-17.3-28.2c-19-30.5-39.7-59.9-61.6-89.3c-13.2-17.3-26.5-33.4-39.7-49.5c-6.9-8.1-13.2-16.1-20.2-23
			c-16.1-18.4-32.3-35.7-49.5-53.6c-28.2-29.4-59.9-57.6-92.2-85.2l0,0l-1.2-1.2l0,0l0,0c-10.9-9.2-100.2-88.1-121.5-149.2
			c-4-10.4-5.2-20.2-4-29.4c1.2-6.9,2.9-14.4,8.1-19c2.3-2.9,5.2-5.2,9.2-8.1l1.2-1.2c10.9-9.2,24.2-15,37.4-17.3
			c25.3-4,95,5.2,92.2-38.6c-2.9-39.7-61.6-25.3-85.2-32.3c-110.6-33.4-4-129.6,70.8-148c49.5-12.1,119.8-81.2,88.1-141.1
			c-44.4-24.2-99.1-41.5-157.2-29.4c-17.3,4-35.7,10.4-52.4,19c0,0-34.6,12.1-65.7,1.2c-36.3-12.1-31.7,13.2-31.7,13.2l2.3,34.6
			c0,0-4,16.1-40.3,1.2c0,0-13.2,24.2,1.2,44.4l-28.2-22.5c0,0-6.3,14.4-43.8,22.5c0,0-37.4,21.3-2.9,66.8
			c30.5,40.3,78.9,161.3,38.6,188.4c0,0-31.7,15-76,77.8c-25.3,38.6-53.6,65.1-103.1,88.1c-27.6,9.2-54.7,19-84.1,31.7l-103.1,31.7
			c0,0-74.9,10.9-85.2,86.4c6.9,6.3,44.4,451,173.4,562.2c10.4,9.2,389.4,233.3,392.3,237.9c6.9-6.9,13.2-13.2,20.2-19
			c29.4-28.2,57.6-54.7,85.2-78.9c-10.4-34.6-13.2-80.1-1.2-137.1c9.2-40.3,25.3-107.1,37.4-187.2c29.4,65.1,66.8,131.9,115.8,198.7
			c14.4,20.2,30.5,40.3,46.7,61.1c6.3,6.9,12.1,15,17.3,22.5c-6.3,70.3-6.3,167.6,21.3,269h305.9
			C2831,2843.7,2828.2,2806.8,2823.6,2769.4z M2312.6,1305.2c2.3-1.2,4,0,6.3,0c5.2,2.3,9.2,5.2,13.2,8.1c9.2,6.9,19,15,23,26.5
			c2.9,9.2,2.3,19-1.2,27.6c-2.9,9.2-9.2,16.1-15,24.2c-1.2,2.3-4,2.9-5.2,1.2c6.9-6.9,12.1-16.1,14.4-26.5
			c2.3-10.4,2.3-20.2-2.3-29.4c-1.2-2.3-2.9-5.2-4-6.9c-6.9-9.2-17.3-17.3-29.4-20.2C2310.9,1309.2,2310.9,1305.8,2312.6,1305.2z
			 M2252.7,1349.6c2.9-5.2,8.1-9.2,13.2-10.9c1.2,0,2.3,0,2.9-1.2l9.2-2.3l-5.2,8.1c-2.3,4-2.3,9.2-1.2,14.4
			c2.3,5.2,5.2,9.2,9.2,10.9l2.3,1.2c2.3,1.2,2.9,1.2,5.2,2.9c4,2.9,5.2,6.9,4,10.9c-1.2,4-5.2,6.9-10.4,6.9c-1.2,0-2.3,0-2.9,0l0,0
			c-6.3,0-10.9-2.3-15-4c-6.3-4-10.9-9.2-14.4-16.1C2247.6,1364,2248.7,1355.9,2252.7,1349.6z M2533.8,2365.1
			C2532.7,2366.8,2532.7,2366.8,2533.8,2365.1L2533.8,2365.1z"/>
		<path id="red_body_3_" fill="#F15731" d="M1238.4,2880h629c-33.4-44.9-60.5-92.2-81.8-137.1c-30.5-63.9-49.5-123.8-62.8-170.5
			c-2.9-10.4-6.3-20.2-8.1-29.4c-6.9,16.1-13.2,33.4-19,51.8c-9.2,29.4-17.3,61.1-22.5,93.3c-6.9,41.5-10.4,82.4-9.2,120.4
			c12.1,9.8,43.8,35.7,81.2,71.4h-10.4c-23-19-46.7-37.4-69.7-54.7c-2.9-2.3-5.2-4-8.1-6.3c-33.4-25.3-65.7-49.5-99.1-73.2
			c-108.3-76.6-216-144-319.1-202.2"/>
		<path id="hand_1_" fill="#16C2EA" d="M2527.5,2880c-27.6-100.8-27.6-198.7-21.3-269c-6.3-6.9-10.9-15-17.3-22.5
			c-16.1-20.2-32.3-40.3-46.7-61.1c-47.8-66.8-86.4-134.8-115.8-198.7c-12.1,80.1-28.2,146.9-37.4,187.2
			c-13.2,57-9.2,102.5,1.2,137.1c-27.6,24.2-54.7,50.7-85.2,78.9c-6.9,6.3-13.2,13.2-20.2,19c-2.9-6.3-13.2-61.6-121.5-169.3
			c-47.8-47.8-114.6-104.3-207.9-171.1c-12.1-9.2-24.2-18.4-34.6-27.6c-128.4-111.7-95-214.8-54.7-275.9
			c10.9-16.1,13.2-36.3,26.5-51.8c6.9-9.2,30.5-33.4,25.3-45.5c-17.3-40.3-65.7,42.6-77.2,51.8c-15,13.2-29.4,14.4-41.5-1.2
			c-14.4-17.3-24.2-38.6-38.6-55.9c-9.2-10.4-20.2-19-28.2-30.5c-4-6.3-6.9-20.2-14.4-25.3c-1.2-1.2-2.9-2.3-5.2-2.3
			c-6.3-1.2-16.1,4-18.4,10.4c-2.3,5.2,2.3,10.4,2.9,16.1c-9.2-2.3-6.9-15-17.3-17.3c-16.1-2.3-18.4,25.3-12.1,37.4
			c-15-4-17.3-4-18.4,15c0,5.2,14.4,41.5,2.9,39.7c0,0-1.2-17.3-10.9-13.2c-10.4,4-10.4,21.3-8.1,28.2
			c8.1,38.6,10.4,77.2,27.6,111.7c5.2,10.4,8.1,19,17.3,26.5c8.1,6.3,43.8,61.6,44.4,61.1c0,0,49.5,145.7,76,231
			c2.9,10.9,8.1,27.6,13.2,46.7c2.3,9.2,5.2,18.4,8.1,29.4c13.2,46.7,33.4,106.6,62.8,170.5c21.3,45.5,49,93.3,82.9,138.8h661.8
			V2880z"/>
	</g>
</g>
</svg>
