<?xml version="1.0" encoding="utf-8"?>
<!-- Generator: Adobe Illustrator 18.1.1, SVG Export Plug-In . SVG Version: 6.00 Build 0)  -->
<svg version="1.1" id="_x32_" xmlns="http://www.w3.org/2000/svg" xmlns:xlink="http://www.w3.org/1999/xlink" x="0px" y="0px"
	 viewBox="0 0 320 500" enable-background="new 0 0 320 500" xml:space="preserve">
<path id="back_x5F_leg_1_" fill="#8DC541" d="M248.2,377.4c-1.3-0.7-2.5-1.3-3.8-2c1.4-0.6,2.4-2.1,2.4-3.8c0-1.5-1.1-3.1-2.6-3.7
	c-2.1,2.4-5.8,3-8.9,2.4c-3.2-0.6-6.1-2.3-8.9-3.9c-10.5-6.2-21.1-12.3-31.5-18.4c-15.6-9-21.2-16.1-21.2-16.1s-17.1-17.7-36.1-35.1
	c-0.8,0-1.7,0-2.6,0c-69.3,0.2-108.2-31.8-108.2-31.8c4.6,9,9,17.7,13,26.1c16.3,10.9,39.2,22.1,68.6,27
	c33.9,5.6,50.6,30.3,50.6,30.3c7.4,6.9,10.8,13.3,12,16.3c1,2.5,0.5,5.4,0.5,8.1c0.1,2.7,0.5,5.5,2,7.7c1.5,2.1,4.2,3.3,6.7,3.7
	c2.6,0.4,5.2,0.1,7.7-0.4c8.2-1.3,16.5-3.8,24.6-1.8c3.6,0.8,6.9,2.6,10.4,3.7c3.5,1.1,7.4,1.7,10.7,0.1c0.6,1.4,1.3,3.1,2.6,3.8
	c1.4,0.8,3.6,0.1,3.7-1.5c1,1.3,3.2,1.5,4.3,0.4c1.2-1.2,1-3.5-0.5-4.3c1.4,1.1,3.8,0,4-1.8c-0.4-0.4-0.7-0.7-1.1-1.2
	c0.7-0.2,1.5-0.6,2-1.2c0.5-0.6,0.7-1.5,0.2-2.3C248.8,377.7,248.4,377.6,248.2,377.4z"/>
<path id="front_x5F_leg_1_" fill="#8DC541" d="M294.2,318.7c-0.2-0.2-0.7-0.4-1.1-0.5c-1.4-0.4-1.4,1.4-2.9,1
	c0.5-0.5,1.3-3.1,0.4-5.1c-0.4-1.5-3.3-4-5.7-3.5c-1.7,3,0.5,6.2-5.8,6.3c-3.3,0-6.7-1-9.9-2c-12-3.8-24.2-7.7-36.2-11.5
	c-17.9-5.7-25.1-11.5-25.1-11.5S95.4,216.9,0,194.7L0,500h67.4c40.1-57.2-9.7-165.3-32-211.8c-4-8.9-8.4-18.2-13.3-27.8
	c0,0,45.3,36.4,116.5,32.5c35.7-2,58.2,19.4,58.2,19.4c9,5.4,14,11.1,15.9,13.9c1.5,2.4,1.7,5.4,2.4,8.1c0.7,2.7,1.7,5.5,3.8,7.4
	c2,1.8,4.9,2.4,7.6,2.3s5.4-1.1,7.7-2c8-3.2,15.9-7.6,24.6-7.4c3.8,0.1,7.6,1.1,11.3,1.4c3.8,0.4,7.9,0,10.9-2.3
	c1.4-1,5.1,2.4,6.7,1.8c1.8-0.6,0.8-1.3,0.6-2.9c1.3,1.2,4.2,0.7,5-0.7c0.4-1.2-0.4-1.9-2.1-2.6c1.7,0.7,3.9-2.5,3.7-4.4
	c-0.8-1-1.4,0.1-1.9-0.1c0.7-0.5,1.1-1.1,1.4-1.8C295.1,321.8,295,319.2,294.2,318.7z M35.4,288.2c-0.1,0-0.1-0.1-0.1-0.1
	C35.4,288.1,35.4,288.1,35.4,288.2z"/>
</svg>
