<?xml version="1.0" encoding="utf-8"?>
<!-- Generator: Adobe Illustrator 18.1.1, SVG Export Plug-In . SVG Version: 6.00 Build 0)  -->
<svg version="1.1" id="_x32_" xmlns="http://www.w3.org/2000/svg" xmlns:xlink="http://www.w3.org/1999/xlink" x="0px" y="0px"
	 viewBox="0 0 320 500" enable-background="new 0 0 320 500" xml:space="preserve">
<g>
	<path id="blue_face" fill="#14C2F3" d="M115.4,249.2c1,5.3,1.6,10.3,1.8,14.9C124.1,337.2,49,325,49,325
		c-14.7,11.9-31.8,17.5-49,20v41.3c32.8,3.5,42.6-4.7,42.6-4.7c25.7,3.5,45,0.4,59.5-6.2c5.9-5.7,12.5-10,19.5-13.1
		c23.2-22.1,26-52.5,26-52.5c3.5-16.2,14.9-20.8,14.9-20.8c10-4.9,13.8,6.9,13.8,6.9c2.5,12.1,12.5,8.6,12.5,8.6l23.6-12l7,7.5
		l4.5-12c5.7-10.4,7.8-19.8,7.6-28.2c-6.6-4.3-13.1-13.9-16.2-20.3c-4.6,5.5-11.5,8.5-18.2,8.1c1.6-2.1,3.3-4.7,2.7-7.3
		c-0.8-3.3-5.2-4.1-7.9-2.2s-4.2,5.3-5.5,8.5c-7-1.6-13.4-6-17.5-12.3c0.6-0.8,1.1-1.5,1.7-2.3c-15.5,9.2-29.6,8.9-29.6,8.9
		c-12.9,2.3-34.4-12.5-34.4-12.5c-1.9-1.3-3.9-2.5-5.9-3.6C115.3,235.4,115.4,249.2,115.4,249.2z"/>
	<circle id="anchor_dot_1_" fill="#14C2F3" cx="57.1" cy="258.2" r="1.8"/>
	<path id="blue_shoulder" fill="#14C2F3" d="M117.2,264.1c-0.2-4.6-0.8-9.5-1.8-14.9c0,0-0.1-13.8-14.8-24.4
		c-8.8-6.4-22.9-11.6-45.4-11.9c0,0-26,2.2-33.1,12.1c0,0-7.6-1.2-22.1-0.4v4.5v9.5V341c15.7-2.4,30.7-7.8,44.5-18.9
		C44.5,322.1,120.5,332.6,117.2,264.1z M57.9,261.2c-1.5,0.4-3-0.3-3.6-1.6l-4.1,1.4l1.2,5.6c0.1,0,0.2,0,0.3,0
		c0.5,0.2,0.9,0.5,1.3,0.9c0.4,0.4,0.5,0.9,0.2,1.5c-0.2,0.5-0.2,0.8-0.7,1c-0.2,0.4-0.9,0.5-1.3,0.5c-0.5,0-1.3-0.4-1.6-0.8
		c-0.3-0.3-0.4-1.3-0.4-1.6c0-0.5,0.2-1,0.7-1.2l-1.3-5.4l-24.5,8.6l0,0c2.6,12.4,10.9,10.4,10.9,10.4l-0.1-2.3
		c1.3,0.6,2.2,3.3,2.2,3.3c-10.9,3.1-13-6.2-13.9-8.4c-0.7-1.5-2.1-1.8-2.9-1.8l-3.9,0.4l4.3-3c0.5-0.6,0.8-1.4,0.7-2.6
		c-0.3-2.6-3.5-13.2,7.5-15.8c0,0,0.6,3.2-0.2,4.5l-1.2-2.4c0,0-7.9,2.3-4.1,15.4l24.7-8.1l-1.4-5.6c-0.5,0-1.1-0.4-1.4-0.7
		c-0.3-0.3-0.4-1.3-0.4-1.6c0-0.6,0.2-1.1,0.7-1.3s1.2-0.4,1.7-0.3c0.5,0.2,0.9,0.5,1.3,0.9c0.4,0.4,0.5,0.9,0.2,1.5
		c-0.2,0.4-0.2,0.7-0.4,0.8l1.2,5.7l4.2-1.4c0.2-1.2,1.1-2.2,2.3-2.5c1.7-0.4,3.4,0.6,3.9,2.2C60.5,259,59.5,260.8,57.9,261.2z"/>
	<path id="blue_eyebrow_1_" d="M219,266.2c0.3,0.7,0.6,1.6,1.3,1.8c0.7-2.3-0.2-4.9-1.6-6.9c-1-1.5-2.5-3-4.2-2.7
		c-0.9,0.1-1.7,0.8-1.8,1.7C215.5,261.1,217.9,263.4,219,266.2z"/>
	<path id="hair_1_" d="M230.1,241.8c-17.4-35.5-32.9-32.4-40.2-29.5c-3.4,1.4-6.2,4.2-8.8,7.1c-3.7,4-7.2,8.3-10.5,12.6
		c-0.6,0.7-1.1,1.5-1.7,2.3c4.2,6.3,10.5,10.7,17.5,12.3c1.3-3.2,2.8-6.6,5.5-8.5s7.1-1.1,7.9,2.2c0.6,2.6-1.1,5.2-2.7,7.3
		c6.7,0.4,13.5-2.6,18.2-8.1c3.1,6.4,9.6,15.9,16.2,20.3c3.6,2.3,7.2,3.1,10.4,1.1C237.4,261.1,232.2,246.1,230.1,241.8z"/>
	<path id="blue_eye" d="M213.5,273.9c0.2,0,0.5-0.1,0.7-0.2c2.3-1.3,2.8-4.6,1-6.8c-1.8-2.1-5.5-2.5-7.4-0.8
		c1.5,2.2,2.9,4.5,4.4,6.7C212.4,273.3,212.9,273.9,213.5,273.9z"/>
	<path id="purple_body_1_" fill="#86236A" d="M314.1,456.2c0,0,22.9-46.9-48.5-75.2c0,0,18.3-35.2,28.3-48.8c0,0,19.2-18.6-23.8-43
		c0,0-17.4-7.8-51.2,10.7l10.1,14.6c-11.8,9.9-17.4,21.5-17.4,21.5l19.2,15.6l-5.5,16.6c0,0-59.8-25.8-103.8-6.1
		c-7,3.1-13.6,7.4-19.5,13.1c-6.1,5.9-11.5,13.4-15.7,22.8c0,0-57.8,42.5-86,62c-0.2,0.2-0.5,0.3-0.7,0.5c-0.6,0.4,0.8,0.8,0.3,1.2
		v24.9V500h4.8h8h40.7H227c2-11.1,4.3-13.2,4.3-13.2c-0.2,0.7-0.5,1.5-0.7,2.2c-1,3.6-1.8,7.3-2.2,11h88
		C320.9,462.5,314.1,456.2,314.1,456.2z M247.6,310.9c-0.2,0.1-0.3,0.2-0.6,0.3c-0.6,0.1-1.1-0.3-1.5-0.7c-1.8-1.6-3.6-3.2-5.4-4.7
		c1.4-1.8,4.9-2.1,7-0.6C249.2,306.6,249.4,309.5,247.6,310.9z M254.5,309.2c-0.7-0.2-1.1-1.1-1.4-1.8c-1.2-2.8-3.7-5-6.6-5.7
		c0.1-0.9,0.9-1.7,1.7-1.8c1.7-0.3,3.3,1.1,4.3,2.5C253.9,304.4,255,306.9,254.5,309.2z"/>
	<path id="purple_eye_1_" d="M247.1,305.1c-2.1-1.4-5.6-1.1-7,0.6c1.8,1.6,3.6,3.2,5.4,4.7c0.4,0.4,0.9,0.8,1.5,0.7
		c0.2,0,0.4-0.2,0.6-0.3C249.4,309.5,249.2,306.6,247.1,305.1z"/>
	<path id="purple_eyebrow_1_" d="M248.2,299.9c-0.9,0.2-1.7,0.9-1.7,1.8c2.9,0.7,5.4,2.9,6.6,5.7c0.3,0.7,0.7,1.6,1.4,1.8
		c0.6-2.4-0.5-4.9-1.9-6.8C251.5,301,249.9,299.6,248.2,299.9z"/>
	<path id="beard_1_" d="M239.3,328.2c0,0,1.9-5.6-10.3-13.6c0,0-4.2,3.7-5.4,5.2l12.4,8.8c0,0-3.5,12.4-15,6.8c0,0-4.9-1.8-5.3-5.8
		c0,0-2.9,4.5-4.1,6.7l9.4,7.4C221.1,343.5,230.5,349.1,239.3,328.2z"/>
</g>
</svg>
