<?xml version="1.0" encoding="utf-8"?>
<!-- Generator: Adobe Illustrator 18.1.1, SVG Export Plug-In . SVG Version: 6.00 Build 0)  -->
<svg version="1.1" id="_x33_" xmlns="http://www.w3.org/2000/svg" xmlns:xlink="http://www.w3.org/1999/xlink" x="0px" y="0px"
	 viewBox="0 0 320 500" enable-background="new 0 0 320 500" xml:space="preserve">
<g>
	<path id="hair_2_" d="M181,230.9c1.3-3.2,2.8-6.4,4.3-9.2c-2.4-2.2-5.4-3.6-8.8-3c-3.5,0.4-6.6,2.5-9.9,3.3
		c-13.1,3.1-20.6-11.5-28.2-21.5c-15.3-19.8-44.7-24.1-70.6-16.4c-8.4,2.6-16.6,6.1-24.5,10.6C22.2,211.2,8.4,229,0,246.9L0.4,361
		c6.8,18,14,29.8,13.9,31.1c33.2,21.7,72.5,55,72.5,55c21.3,1.7,40.6,4.9,58.5,8.8c7.2-7.5,15.4-15.3,24.6-23.2
		c2.9-2.5,5.9-5,8.8-7.5C178.8,425.2,241,339.4,181,230.9z"/>
	<path id="arm_3_" fill="#FFD921" d="M169.7,417.5c-1.1-7-3.7-29,4.5-56.1c-11,8.9-18.6,9-18.6,9s-84-26.5-153.6-43
		c-1.3,6.4-1.6,14.5-2,18.3C61.1,370.7,127.9,413.9,169.7,417.5z"/>
	<path id="man_leg_3_" fill="#F9BD1C" d="M0,500l109.2,0c7.7-11.1,19.6-26.4,36.4-44c-17.9-3.9-37.3-7.1-58.5-8.8
		c0,0-39.3-33.3-72.5-55C18.3,339.3-0.4,276.9,0,272V500z"/>
	<path id="eye_3_" d="M95.1,287.9c-1.8-0.9-3.6-0.8-5.2,0c-0.6,0.3-1.4,0.9-1.9,1.5c-1,1-1.1,2.6-1.1,4.2c0.1,1.3,0.8,2.2,1.8,3
		l2.2,1.3l0.2-2.2c-0.1-1.3,0.6-2.4,1.9-3c0.2-0.1,0.5,0,0.7-0.1l0.2-0.1c0.2-0.1,0.5,0,1.2-0.3l0.2-0.1c0.6-0.3,1.3-1.1,1.2-1.9
		C96.6,289.3,95.8,288.3,95.1,287.9z M95.1,290c-0.1-0.2,0-0.5-0.3-0.6C95.1,289.5,95,289.8,95.1,290z M94.7,289.2
		C94.7,289.2,94.8,289.4,94.7,289.2C94.8,289.4,94.7,289.2,94.7,289.2z"/>
	<path id="woman_body_2_" fill="#FFD921" d="M288.5,228.7c-38.3-59.2-82.3-45.7-103.1-7.1c-1.7,2.9-3.1,6-4.3,9.2
		c-18.7,45.6-60,31.9-60,31.9c-1.7-16.7-25.8-10.4-15.9,7.9c0.5,1,1.3,2,2,2.9C72.2,273.4,71,256.8,71,256.8s-22.9,27.1,8.2,44.3
		c0,0,7.6,8,9.4,16.3l8.5-6.6c0,0,2.9-0.9,4.6,6.6c0,0,6-3.7,7-6.7l2.9,10.9c0,0,3-1.8,8.2,3.3c0,0,7.3,3.7,11-7.3
		c3.2-9.4,10.5-43.1,26-40.9c0,0,2,0.3,5,0.6c3,0.8,6.2,2.4,9.5,4.9c0.4,0.3,0.8,0.6,1.3,0.9c17,14.8,13.6,56.3,13.6,56.3
		c-3.1,6-5.3,12-7.1,17.9c-7.6,25.7-4.3,49.2-1.8,60.5c1,4.7,1.9,7.4,1.9,7.4c-2.9,2.5-5.9,5-8.8,7.5c-9.1,7.9-17.2,15.9-24.6,23.2
		c-16.9,17.5-28.9,32.9-36.5,44l103.5,0l12.1-10c0.6-0.8,0.8-0.9,0.8-0.9l0.5,0l2.9-2.5l56.7-47c0,0,13.4-10.7,34.3-23.9l0-146.3
		C297.8,247.8,288.5,228.7,288.5,228.7z M96.5,290.1c0,0.5-0.5,1.6-1.2,1.9l-0.2,0.1c-0.4,0.2-0.7,0.1-1.2,0.3l-0.2,0.1
		c-0.2,0.1-0.5,0-0.7,0.1c-1.3,0.6-1.8,1.7-1.9,3l-0.2,2.2l-2.2-1.3c-0.9-0.8-1.7-1.8-1.8-3c-0.2-1.5,0-3.1,1.1-4.2
		c0.5-0.5,1.3-1.1,1.9-1.5c1.7-0.8,3.5-0.9,5.2,0C95.8,288.3,96.6,289.3,96.5,290.1z"/>
	<path id="man_arm_4_" fill="#F9BD1C" d="M212.7,500l107.3,0l0-84.4C292.8,428.5,212.7,500,212.7,500z"/>
	<path id="bird_body_3_" fill="#F37979" d="M216.8,383.3c-1.8,2.7-2,4.4-2,4.4s-0.8-1.2-1.6,0.5c-0.1-0.7-0.8-0.1-0.8-0.1
		s-1.4-4.3-3.9-4.6c-0.4-0.8-0.9-1.4-1.5-1.9l0,0c-2-2.4-3-1.9-3-1.9s1.1,1.8,2.6,4.2l0,0c2.3,4.1,5.2,10,4.9,13.5
		c-2.5,4.9-2.2,6.6-2.2,6.6s-1.3-2.5-3-1.9c-1-2.1-2.7-1.8-2.7-1.8s-0.1-0.2-0.6-0.7l0,0c-0.4-0.3-0.8-0.6-1.8-0.9
		c-2.7-3.9-5-3.3-5-3.3s-2.8-4.1-6-3.1c5,3.3,6.3,6.3,6.3,6.3s1.8,3.6,4.7,6.8l0,0c1.8,2,3.7,3.7,5.9,4.4c-0.8,2.5,0.5,4.7,0.5,4.7
		s0,2.6-0.3,3.6c1.6-0.5,3.6-1.2,3.6-1.2s0.5,0,1,0l0,0c2.2,0.2,7.1-0.4,9.2-6.7c11.6-4.5,14.7-12.5,14.7-12.5s4.7-8.9,11.1-10.8
		c-3.9-0.4-10.1,5-10.1,5s-1.1-1.8-4.6,2.3c-0.8-1.7-4.6,2.3-4.6,2.3s-1.4-1.2-4.1,3.3c-1.4-1.2-3.6,3.3-3.6,3.3l-0.3-0.1
		c0,0-0.1-4.4-3.4-8.5l5.4-16l-1.9,2.5C219.6,381.1,218.6,380.1,216.8,383.3C217,382.7,216.8,382.8,216.8,383.3"/>
	<path id="bird_eye_3_" d="M211.9,412.4c-0.5,0-1.2,0.3-1.2,0.8c-0.1,0.3,0.5,1,0.8,1.2c0.3,0.1,0.7-0.1,0.9-0.2l0,0
		c0.2-0.1,0.1-0.3,0.2-0.6l-0.1-0.2l0,0C212.8,412.7,212.4,412.4,211.9,412.4z"/>
	<path id="eyebrow_3_" d="M78.8,276.7c1.8-0.6,3.7-1,5.7-0.7c0.1-0.3-0.3-0.6-0.5-0.5c-1.8,0.1-3.7,0-5.3,0.3
		c-1.8,0.6-3.5,1.5-4.6,2.8c-1.4,2-1.5,4.4-1.9,6.7c-0.1,0.8-0.2,2.2,0.1,3.4c0.1,0.2,0.1,0.7,0.5,1c0.1,0.2,0.5,0,0.6-0.3
		c-0.6-2.3-0.6-4.9,0.1-7.1c0.1-0.3,0.3-0.9,0.7-1.7C75.1,278.8,76.7,277.2,78.8,276.7z"/>
</g>
</svg>
