<?xml version="1.0" encoding="UTF-8"?>
<svg version="1.1" id="Layer_1" xmlns="http://www.w3.org/2000/svg" xmlns:xlink="http://www.w3.org/1999/xlink" x="0px" y="0px" viewBox="0 0 1600 1060" enable-background="new 0 0 1600 1060" xml:space="preserve">
	<g>
		<path fill="#8DC541" d="M1188.4,958.7c-5.4-2.8-10.7-5.7-16.1-8.5c6-2.7,10.1-9.2,9.9-15.8s-4.7-13-10.9-15.4c-9.2,10-24.3,12.6-37.7,10c-13.4-2.6-25.5-9.6-37.4-16.5c-44.2-25.8-88.4-51.5-132.6-77.3c-65.4-38.1-88.8-67.4-88.8-67.4s-72.2-74.7-151.3-147.5c-3.6-0.1-7.2-0.2-10.9-0.2C421.7,621,258,486.7,258,486.7c19.6,37.8,37.8,74.4,54.7,109.7c68.7,46.2,164.5,93,288.2,113.5c142.4,23.6,212.6,127.6,212.6,127.6c30.9,28.9,45.7,55.8,50.6,68.5c4.1,10.6,1.8,22.5,2.1,33.8s1.9,23.2,8.7,32.3c6.6,8.8,17.3,13.8,28.1,15.5s21.8,0.4,32.6-1.3c34.4-5.6,69.6-15.8,103.7-7.5c15,3.7,28.9,10.8,43.5,15.5c14.7,4.7,31.1,6.9,45.1,0.7c2.5,6.2,5.3,13,11.2,16.2c5.8,3.3,15.2,0.3,15.3-6.4c4,5.7,13.3,6.5,18.1,1.6c4.8-4.9,3.8-14.3-2-18.1c6.1,4.4,16.2-0.2,16.8-7.7c-1.6-1.6-3.1-3.2-4.7-4.8c3.2-1.2,6.4-2.5,8.7-5.1c2.2-2.5,3.1-6.6,1-9.3C1191.1,960.2,1189.7,959.5,1188.4,958.7z"/>
		<path fill="#8DC541" d="M1382.2,712c-1.2-1-2.9-1.4-4.4-1.8c-6.1-1.7-6,5.8-12.2,4.1c2.1-2.2,5.5-13.2,1.5-21.3c-1.7-6.7-14-16.9-24.2-14.4c-7.1,12.3,2,26.2-24.7,26.7c-14.2,0.2-28.1-4-41.6-8.3c-50.7-16.1-101.4-32.4-152.1-48.5c-75-24-105.5-48.4-105.5-48.4S521.6,269.2,114.7,185.3c0,0-0.6,1.8-1.9,5.5c-0.1-0.1-0.2-0.1-0.4-0.2l0.2,0.7c-12,36.3-84,231.9-112.6,476.3v118.7v262.4c0.5,3.8,1.1,7.6,1.6,11.4h125.1h342.5c-28.6-134.2-81-281.3-174.5-476.2c-17.2-37.6-35.7-76.6-55.8-117.1c0,0,190.4,153,489.3,136.4c149.9-8.3,244.7,81.6,244.7,81.6c37.9,22.5,59,46.5,66.9,58.3c6.5,9.9,7,22.5,9.8,34c2.8,11.5,7.2,23.2,16.1,31c8.7,7.5,20.7,10.2,31.9,9.4c11.4-0.7,22.3-4.6,32.7-8.7c33.6-13.5,67.1-32,103.5-31.2c16,0.3,31.8,4.4,47.7,5.9c16,1.4,33.1-0.1,45.9-9.5c6.1-3.8,21.5,10,28,7.6c7.6-2.7,3.7-5.4,2.3-12.2c5.4,4.9,17.3,3,21.1-3c1.4-5.2-1.6-8.1-8.8-11.2c7.2,3.1,16.7-10.7,15.6-18.5c-3.4-3.8-6.2,0.7-8.2-0.5c2.9-2,4.4-4.3,6.1-7.5C1385.3,725.2,1385,714.2,1382.2,712zM294.7,583.8c-0.3-0.2-0.5-0.3-0.7-0.5C294.3,583.5,294.6,583.7,294.7,583.8z"/>
	</g>
</svg>