<?xml version="1.0" encoding="utf-8"?>
<!-- Generator: Adobe Illustrator 18.1.1, SVG Export Plug-In . SVG Version: 6.00 Build 0)  -->
<svg version="1.1" id="Layer_1" xmlns="http://www.w3.org/2000/svg" xmlns:xlink="http://www.w3.org/1999/xlink" x="0px" y="0px"
	 viewBox="0 0 1600 1060" enable-background="new 0 0 1600 1060" xml:space="preserve">
<g>
	<path fill="none" d="M300.3,579.2c-0.3-0.2-0.5-0.3-0.7-0.5C299.7,578.9,299.9,579,300.3,579.2z"/>
	<path fill="none" d="M302.2,580.4c0,0-0.3-0.2-0.8-0.5C301.6,580.1,301.9,580.2,302.2,580.4z"/>
	<path fill="none" d="M1191.1,970.7c-2.3,2.5-5.5,3.8-8.7,5.1c1.6,1.6,3.1,3.2,4.7,4.8c-0.6,7.5-10.7,12.1-16.8,7.7
		c5.8,3.8,6.8,13.2,2,18.1c-4.8,4.9-14.1,4.1-18.1-1.6c-0.1,6.7-9.4,9.7-15.3,6.4c-5.8-3.3-8.7-10-11.2-16.2
		c-14,6.2-30.4,4-45.1-0.7s-28.6-11.9-43.5-15.5c-34-8.3-69.2,1.9-103.7,7.5c-10.8,1.7-21.8,3-32.6,1.3s-21.5-6.7-28.1-15.5
		c-6.8-9.1-8.4-21-8.7-32.3s2-23.2-2.1-33.8c-4.9-12.7-19.7-39.6-50.6-68.5c0,0-70.3-103.9-212.6-127.6
		c-123.8-20.5-219.6-67.3-288.2-113.5c-16.9-35.3-35.1-71.8-54.7-109.7c0,0,187.1,158.3,478.1,157.3c3.7,0,7.3,0.1,10.9,0.2
		c79.1,72.9,127.9,123.7,127.9,123.7s23.4,29.3,88.8,67.4c44.2,25.8,88.4,51.5,132.6,77.3c11.8,6.9,24,13.9,37.4,16.5
		s28.6,0,37.7-10c6.2,2.4,10.7,8.8,10.9,15.4c0.2,6.6-3.9,13.2-9.9,15.8c5.4,2.8,10.7,5.7,16.1,8.5c1.3,0.7,2.7,1.5,3.7,2.7
		C1194.2,964.1,1193.3,968.2,1191.1,970.7z"/>
	<path fill="none" d="M301.1,579.8l-0.1-0.1C301,579.7,301,579.8,301.1,579.8z"/>
	<path fill="#080B0C" d="M16.2,1062l1.6,0c-0.7-3.8-1.2-7.6-1.8-11.4L16.2,1062z"/>
	<path fill="#8DC541" d="M1188.4,958.7c-5.4-2.8-10.7-5.7-16.1-8.5c6-2.7,10.1-9.2,9.9-15.8s-4.7-13-10.9-15.4
		c-9.2,10-24.3,12.6-37.7,10c-13.4-2.6-25.5-9.6-37.4-16.5c-44.2-25.8-88.4-51.5-132.6-77.3c-65.4-38.1-88.8-67.4-88.8-67.4
		S815.7,707.9,736.6,635c-3.6-0.1-7.2-0.2-10.9-0.2C434.8,635.8,258,486.7,258,486.7c19.6,37.8,37.8,74.4,54.7,109.7
		c68.7,46.2,164.5,93,288.2,113.5c142.4,23.6,212.6,127.6,212.6,127.6c30.9,28.9,45.7,55.8,50.6,68.5c4.1,10.6,1.8,22.5,2.1,33.8
		s1.9,23.2,8.7,32.3c6.6,8.8,17.3,13.8,28.1,15.5s21.8,0.4,32.6-1.3c34.4-5.6,69.6-15.8,103.7-7.5c15,3.7,28.9,10.8,43.5,15.5
		c14.7,4.7,31.1,6.9,45.1,0.7c2.5,6.2,5.3,13,11.2,16.2c5.8,3.3,15.2,0.3,15.3-6.4c4,5.7,13.3,6.5,18.1,1.6c4.8-4.9,3.8-14.3-2-18.1
		c6.1,4.4,16.2-0.2,16.8-7.7c-1.6-1.6-3.1-3.2-4.7-4.8c3.2-1.2,6.4-2.5,8.7-5.1c2.2-2.5,3.1-6.6,1-9.3
		C1191.1,960.2,1189.7,959.5,1188.4,958.7z"/>
	<path fill="#8DC541" d="M299.6,578.8C299.2,578.5,299.3,578.6,299.6,578.8L299.6,578.8z"/>
	<path fill="#8DC541" d="M301.3,579.9c-0.1,0-0.1-0.1-0.2-0.1C301.2,579.8,301.2,579.9,301.3,579.9z"/>
	<path fill="#8DC541" d="M300.9,579.7c-0.3-0.2-0.5-0.3-0.7-0.5C300.5,579.4,300.7,579.5,300.9,579.7z"/>
	<path fill="#8DC541" d="M1376.1,745.7c-1.2-1-2.8-1.4-4.3-1.9c-6-1.8-12.1-3.6-18.2-5.4c5.6-4,8.4-11.6,6.8-18.2
		c-1.6-6.8-7.5-12.3-14.4-13.4c-7.3,12.1-22.2,18-36.4,18.2c-14.2,0.2-28-4.5-41.5-9c-50.4-17-100.8-34-151.3-51
		c-74.6-25.2-104.6-50.2-104.6-50.2S520.1,275.9,114.7,185.3c0,0-0.7,1.8-2,5.4c-0.1-0.1-0.2-0.1-0.4-0.2l0.2,0.7
		C99.9,227.4,28.6,423.2,0,667.6v118.7v262.4c0.5,3.8,1.1,7.6,1.6,11.4h125.1h342.5c-27-126.5-81.8-283-174.5-476.2
		c-17.2-37.6-35.7-76.6-55.8-117.1c0,0,183.2,158.1,482.3,146.4c150-5.9,243.3,85.6,243.3,85.6c37.5,23.1,58.2,47.4,65.9,59.4
		c6.4,10,6.6,22.6,9.2,34.1c2.6,11.6,6.8,23.3,15.6,31.2c8.5,7.6,20.5,10.5,31.8,9.9c11.4-0.5,22.3-4.2,32.9-8.2
		c33.9-12.9,67.6-30.9,104-29.5c16,0.6,31.7,4.9,47.6,6.7c15.9,1.7,33.1,0.5,46-8.8c3.8,5.8,8.1,12.2,14.8,14.2
		c6.6,2.1,15.5-3,14.2-9.8c5.3,5,14.9,3.8,18.8-2.1c3.9-6.1,0.8-15.4-5.8-18.1c7.2,3.3,16.4-3.6,15.5-11.4c-1.9-1.3-3.8-2.6-5.8-3.9
		c3-2,6-3.9,7.8-7C1378.8,752.4,1378.8,748,1376.1,745.7z M294.7,583.8c-0.3-0.2-0.5-0.3-0.7-0.5
		C294.3,583.5,294.6,583.7,294.7,583.8z"/>
</g>
</svg>
