<?xml version="1.0" encoding="utf-8"?>
<!-- Generator: Adobe Illustrator 18.1.1, SVG Export Plug-In . SVG Version: 6.00 Build 0)  -->
<svg version="1.1" id="Layer_1" xmlns="http://www.w3.org/2000/svg" xmlns:xlink="http://www.w3.org/1999/xlink" x="0px" y="0px"
	 viewBox="0 0 137.1 155.7" enable-background="new 0 0 137.1 155.7" xml:space="preserve">
<g>
	<path fill="#87236A" d="M0,0v16.3c0,9,7.3,16.3,16.3,16.3c9,0,16.3-7.3,16.3-16.3c0-4.2-1.6-8-4.2-10.9c0.7-0.2,1.4-0.5,2.1-0.6
		c4.2-1.1,9-1.6,14.4-1.6h7.9v149.5H32.6v3.1h71.9v-3.1H84.4V3.1h7.9c5.4,0,10.2,0.5,14.4,1.6c0.7,0.2,1.4,0.4,2.1,0.6
		c-2.6,2.9-4.2,6.7-4.2,10.9c0,9,7.3,16.3,16.3,16.3c9,0,16.3-7.3,16.3-16.3V0H0z"/>
</g>
</svg>
