<?xml version="1.0" encoding="utf-8"?>
<!-- Generator: Adobe Illustrator 18.1.1, SVG Export Plug-In . SVG Version: 6.00 Build 0)  -->
<svg version="1.1" id="WHITEBAK_1_" xmlns="http://www.w3.org/2000/svg" xmlns:xlink="http://www.w3.org/1999/xlink" x="0px"
	 y="0px" viewBox="0 0 1200 217.7" enable-background="new 0 0 1200 217.7" xml:space="preserve">
<g id="stupidcancer">
	<g>
		<path fill="#860000" d="M34.4,65.9c6.9,0,10.3,1.1,11.5,1.1c2.1,0,3-2.3,5.7-2.3s3.4,3.2,3.7,4.4c1.4,8,4.4,23.2,4.4,24.1
			c0,3-3.4,3.7-5.3,3.7c-4.8,0-4.1-6.7-7.4-11.3c-3-4.1-11.3-9-18.8-9c-7.8,0-14.5,4.8-14.5,12.2c0,3.2,1.1,11.7,18.2,16.6
			c11.7,3.2,22.5,3.9,31,13.8c6,6.9,6.9,14.5,6.9,18.2c0,14.7-12.2,31-34.9,31c-10.6,0-25-3.7-31.7-11.5c-2.3-2.5-2.8-4.4-2.8-7.8
			c0-6.2-0.2-10.6-0.2-13.8c0-6,0.7-7.1,4.1-7.1c5.7,0,2.1,7.8,5.3,14.3c2.3,4.8,12.9,13.6,26.2,13.6c10.3,0,18.6-6.2,18.6-15.4
			c0-15.2-20.2-17.5-27.6-19.5C8.2,115.8,1.3,104.3,1.3,93C1.3,79.2,13.7,65.9,34.4,65.9z"/>
		<path fill="#860000" d="M76.4,77.2c0-3.9,11.5-8,23.9-29.2c0.7-1.1,2.1-4.1,4.6-4.1c1.4,0,3,0.7,3,3.7c0,3.2-0.2,12.9-0.2,16.1
			c0,3.9,1.8,4.6,4.6,4.6H133c0.7,0,1.1,0.2,1.8,0.2c2.1,0,6,0,6,4.4c0,1.4-0.9,5.3-2.1,6.7c-0.9,0.9-2.1,1.2-4.1,1.2h-26.9
			c-1.6,0-2.3,0.5-2.3,2.1c-0.2,43-0.2,48.3-0.2,53.8c0,8,2.1,17,11.7,17c11,0,20-13.8,25-13.8c2.5,0,4.1,2.1,4.1,4.1
			c0,1.8-1.1,3.2-1.6,3.9c-8,9.2-19.3,20.7-31.9,20.7c-9.2,0-21.6-6.4-23.2-28.1c-0.2-2.5-0.2-4.8-0.2-7.4c0-10.1,0.9-45.8,0.9-50.8
			c0-1.1-0.2-2.1-1.6-2.1H81C79,80.2,76.4,79.9,76.4,77.2z"/>
		<path fill="#860000" d="M198.9,168.2c-18.6,0-32.4-12.2-35.2-33.3c-0.5-4.6-0.7-9.2-0.7-14c0-7.4,0.2-33.3,0.2-37
			c0-2.1,0-4.1-6.2-6.4c-4.1-1.8-7.1-0.9-7.1-4.8v-0.7c0-1.6,0.2-3,2.5-3.2c19.1-1.1,21.6-1.4,23.9-1.4c1.8,0,2.3,1.1,2.3,2.8v47.1
			c0,6.9,0,15.4,4.1,23.7c3.7,7.1,12.2,15.4,24.4,15.4c8.7,0,15.4-4.1,19.5-8.3c3.4-3.9,3.9-4.1,3.9-6.9V84.5
			c0-6.4-3.4-6.2-15.2-8.3c-2.3-0.5-3.4-1.4-3.4-3.7c0-3,1.4-3.7,3.2-3.9c22.5-0.7,25.3-0.9,28.3-0.9c3.2,0,3.4,2.3,3.4,4.6v72
			c0,2.8,1.4,2.1,11.5,6.9c1.6,0.7,1.8,1.4,1.8,2.8c0,6.9-3.2,1.6-23,12.4c-0.7,0.5-1.6,0.9-2.5,0.9c-2.8,0-3.2-2.3-3.2-4.6v-5.3
			c0-0.9-0.5-0.9-0.7-0.9C229.7,156.5,218,168.2,198.9,168.2z"/>
		<path fill="#860000" d="M369,115.8c0,30.6-22.8,51.1-54.7,51.1c-7.8,0-14.2-1.4-14.7-1.4c-1.4,0-1.6,0.9-1.6,2.5v31.5v0.7
			c0,2.3,0.2,5.5,5.1,6c13.8,1.4,18.4,0,18.4,7.1c0,1.8-0.7,3.5-2.8,3.5c-2.1,0-8.7-0.9-21.6-0.9c-16.8,0-29.4,1.8-30.6,1.8
			c-1.4,0-3.7-0.7-3.7-4.6c0-4.1,2.8-3.7,13.3-6c3.7-0.7,5.1-2.5,5.1-6.4V94.4v-0.5c0-1.1-0.2-3.4-3-4.6c-14.9-6.7-15.4-6.4-15.4-8
			V81c0-1.4,0.5-1.2,24.6-15.4c2.3-1.1,2.8-1.8,3.9-1.8c1.4,0,1.8,1.1,1.8,2.5v13.6c0,0.7,0.2,1.4,0.7,1.4c1.1,0,8.5-12.4,26.4-14.9
			c1.8-0.2,3.4-0.2,5.3-0.2C351,66.1,369,89.1,369,115.8z M353.6,120.3c0-22.3-17.2-40.7-35.6-40.7c-3,0-9.2,0.2-15.2,4.8
			c-5.1,3.7-6.7,7.6-6.7,14.3v49.4c0,2.1,0,4.4,6,7.1c4.6,2.3,9.9,3.7,15.2,3.7C335.9,159,353.6,143.3,353.6,120.3z"/>
		<path fill="#860000" d="M395.2,94.1c0-3.7-0.9-3.4-15.6-9.4c-1.1-0.5-2.8-1.1-2.8-3c0-2.8,3.7-3.7,6.2-4.8
			c23.9-11.5,24.1-12,25.3-12h0.2c1.4,0,3.2,0.9,3.2,3.7c0,1.8-1.4,24.1-1.4,52.2v7.6c0,28.1,0.2,28.7,5.3,29.4
			c7.6,1.2,10.3,0.9,10.3,4.8c0,1.8-0.2,5.1-2.8,5.1c-0.7,0-9.9-1.4-21.1-1.4c-11.5,0-20.5,1.4-21.1,1.4c-2.3,0-3.4-1.6-3.4-3.9
			c0-5.3,0.9-4.8,11.3-6.2c5.7-0.9,6.2-4.1,6.2-8.3v-10.8C394.9,111.8,395.2,98.4,395.2,94.1z M408.3,13.3c6,0,11,4.8,11,10.6
			c0,6.2-5.3,11-11.3,11s-10.8-4.6-10.8-10.8C397.2,18.2,402.3,13.3,408.3,13.3z"/>
		<path fill="#860000" d="M509.1,70.3c1.1,0,1.6-0.9,1.6-2.1V29.6c0-4.6-1.6-4.6-13.8-9.4c-1.6-0.5-4.4-1.4-4.4-3.7
			c0-1.4,1.4-2.1,2.1-2.5c24.4-12,28.7-14,29.6-14c1.8,0,2.8,1.4,2.8,3.2c0,7.6-0.7,29.9-0.7,74.5c0,22.8,0.5,65.5,0.7,67.6
			c0.2,3.4,2.5,2.8,10.8,3.2c0.2,0,4.4,0,4.4,3.2c0,3.5-4.4,3.5-13.6,8.7c-10.6,5.8-13.6,10.1-15.9,10.1c-0.7,0-1.8-0.2-1.8-2.3
			v-7.6c0-0.5-0.2-0.7-0.5-0.7c-0.7,0-9.4,9-27.3,9c-30.1,0-50.1-23.5-50.1-52.4c0-23.9,14.7-49.7,51-49.7h0.2
			C499.3,66.8,508,70.3,509.1,70.3z M448.5,114.4c0,28.5,24.1,42.5,40,42.5c8.7,0,19.8-3.9,21.6-9.9c0.5-1.8,0.7-3.5,0.7-5.3V90.3
			c0-1.6,0-3.2-2.3-5.5c-6.9-6.4-16.1-8.7-24.6-8.7C460.4,76,448.5,91.2,448.5,114.4z"/>
		<path fill="#860000" d="M546.6,118.8c0-31.3,19.8-53.1,49.2-53.1c16.5,0,29.2,8.3,29.2,17c0,5.3-4.4,8.7-9.2,8.7
			c-10.6,0-14.5-13.8-27.8-13.8c-14,0-26.2,16.1-26.2,35.4c0,21.4,15.2,40.5,36.3,40.5c17.9,0,22.8-12.4,28-12.4
			c2.1,0,3.9,1.6,3.9,3.9c0,1.4-0.7,2.8-1.4,3.7c-7.4,10.1-20.7,19.5-37.9,19.5C564.3,168.2,546.6,147.1,546.6,118.8z"/>
		<path fill="#860000" d="M672.3,64.3c8.7,0,31,2.8,33.3,25.3c0.2,2.8,0.5,5.5,0.5,8.3v45.3c0,9,5.5,10.1,7.8,10.1
			c7.1,0,6.7-7.6,10.1-7.6c0.9,0,2.1,0.9,2.1,3c0,5.3-5.7,18.2-17.7,18.2c-10.3,0-15.9-9.2-16.3-9.4c-0.2,0-0.2-0.2-0.5-0.2
			c-1.1,0-0.5,1.1-6.2,5.1c-5.3,3.5-12.9,6.4-21.4,6.4c-15.9,0-26.2-11.7-26.2-25.8v-0.2c0-8.7,4.1-16.1,9.7-20.5
			c12.4-9.9,40-10.8,40.4-11c1.6-0.5,1.8-1.6,1.8-3.2v-8.3c0-7.4-0.9-13.1-5.5-18.4c-2.8-3-7.4-6.2-13.3-6.2
			c-13.1,0-19.3,14.5-19.8,15.4c-0.7,0.9-2.1,2.5-5.1,2.5c-4.4,0-9.2-3-9.2-8.3C636.9,76.5,653.2,64.3,672.3,64.3z M688.6,146.6
			c1.2-1.6,1.4-3.2,1.4-5.3v-5.5v-9.4c0-5.5-0.2-6.7-2.3-6.7c-4.1,0-19.8,1.2-27.3,8.3c-3,2.5-5.5,6.7-5.5,12.4
			c0,3.7,1.1,9.4,4.8,12.6c2.8,2.5,6.9,3,9.9,3C680.8,156.1,687.5,148.2,688.6,146.6z"/>
		<path fill="#860000" d="M760.6,80.5h0.2c0.9,0,11.7-13.6,31.5-13.8h0.5c10.3,0,30.3,4.6,32.6,33.1c0.5,3.9,0.5,7.8,0.5,11.7
			c0,3.9-0.2,8-0.2,39.8v0.5c0,6.4,3,6,11,7.1c3,0.5,3.2,2.5,3.2,4.1c0,3.9-2.1,4.6-3.4,4.6c-2.1,0-7.8-1.4-19.3-1.4
			c-10.1,0-18.4,1.4-18.8,1.4c-2.8,0-3.2-2.3-3.2-4.6c0-4.1,2.8-3.7,12-5.3c3-0.5,3.7-1.6,3.7-5.5v-35.6c0-4.1-0.2-17.9-3-24.8
			C802.6,80,790,78,784.7,78c-13.3,0-22.8,10.8-23.7,14.9c-0.2,0.9-0.2,2.1-0.2,3v54.5v0.7c0,2.5,0.2,5.8,5.1,6.4
			c9.7,1.6,12.4,1.2,12.4,6.2c0,2.3-0.9,4.1-3,4.1c-0.7,0-10.1-1.6-21.4-1.6c-11,0-19.5,1.4-20.2,1.4c-1.4,0-3.7-0.9-3.7-4.1
			c0-4.6,1.8-4.4,9-5.5c5.7-0.9,6-3.9,6-7.8v-55c0-5.5,0-5.1-10.3-12.9c-0.7-0.7-1.4-1.4-1.4-2.3v-0.2c0-1.8,0.5-1.6,21.8-13.1
			c0.7-0.5,1.4-0.9,2.3-0.9c2.1,0,2.8,1.6,2.8,3.5v9c0,0.5-0.2,1.1-0.2,1.4C759.9,80.3,760.3,80.5,760.6,80.5z"/>
		<path fill="#860000" d="M841.4,119.9c0-31.3,19.8-53.1,49.2-53.1c16.5,0,29.2,8.3,29.2,17c0,5.3-4.4,8.7-9.2,8.7
			c-10.6,0-14.5-13.8-27.8-13.8c-14,0-26.2,16.1-26.2,35.4c0,21.4,15.2,40.5,36.3,40.5c17.9,0,22.8-12.4,28-12.4
			c2.1,0,3.9,1.6,3.9,3.9c0,1.4-0.7,2.8-1.4,3.7c-7.4,10.1-20.7,19.5-37.9,19.5C859.1,169.3,841.4,148.2,841.4,119.9z"/>
		<path fill="#860000" d="M972.7,66.1c15.9,0,31,10.3,39.5,22.1c0.9,1.1,1.8,3,1.8,5.1v0.2c0,6.9-12,9.2-18.6,11.5
			c-47.6,16.3-48.9,16.1-48.9,18.2c0,2.8,5.1,33.3,34,33.3c10.1,0,20.2-4.4,27.3-11.3c1.1-1.1,3-3.2,5.3-3.2c2.1,0,3.7,1.4,3.7,3.5
			c0,0.9-0.5,2.3-1.6,3.7c-9.4,12.2-24.4,20.5-40.7,20.5c-18.8,0-44.4-12.4-44.4-51.7C930.2,85.6,949.7,66.1,972.7,66.1z
			 M967.6,78.7c-13.3,0-22.1,12.4-22.1,32.9c0,1.4,0.7,1.6,1.1,1.6c0.7,0,42.5-16.3,43-16.6c1.4-0.7,2.1-1.8,2.1-2.8
			C991.7,91.1,980.5,78.7,967.6,78.7z"/>
		<path fill="#860000" d="M1076.3,65.7c2.1-0.7,4.1-0.9,6.7-0.9c7.4,0,17.9,3.7,17.9,10.1v0.2c-0.2,3.9-4.4,6.4-6.2,8.1
			c-2.5,1.6-5.5,4.6-9.4,4.6c-5.7,0-6-5.8-13.6-5.8c-7.4,0-16.5,7.4-17.9,9.4c-0.9,1.4-0.9,2.5-0.9,4.1v55.2v0.9
			c0,2.5,0.2,6.4,5.7,6.9c13.8,1.2,16.8,0.2,16.8,5.5c0,1.8-0.2,4.6-3.2,4.6c-0.7,0-10.8-1.4-23.2-1.4c-12.9,0-22.8,1.4-23.4,1.4
			c-2.3,0-3.7-1.6-3.7-3.9c0-5.5,4.1-4.1,10.3-5.8c3.2-0.7,4.1-2.1,4.1-5.5V92.6c0-4.6-1.8-4.4-12.6-12.2c-0.2-0.2-0.7-0.7-0.9-1.6
			c0-1.1,0.2-0.7,24.1-12.4c0.7-0.2,1.4-0.7,2.1-0.7c2.5,0,2.8,2.5,2.8,4.6v9.2c0,0.7,0.2,1.1,0.7,1.1
			C1053.3,80.7,1070.1,68,1076.3,65.7z"/>
	</g>
</g>
<g id="_x2E_org">
	<g>
		<path d="M1104.9,164.3c0,1.6-1.3,3.1-3.1,3.1c-1.6,0-3.1-1.3-3.1-3.1c0-1.8,1.5-3,3.1-3C1103.4,161.2,1104.9,162.6,1104.9,164.3z"
			/>
		<path d="M1125.5,136.4c8.3,0,14.6,6.6,14.6,15.9c0,10-7,15.6-14.8,15.6c-8.9,0-14.8-7-14.8-15.6
			C1110.5,142.6,1117.7,136.4,1125.5,136.4z M1135.3,152.6c0-7.5-5-12.9-10.3-12.9c-3.6,0-9.1,2.9-9.1,12.3c0,7.3,3.8,12.5,9.5,12.5
			C1131.4,164.4,1135.3,158.8,1135.3,152.6z"/>
		<path d="M1160.6,135.7c0.6-0.2,1.3-0.3,2-0.3c2.2,0,5.4,1.1,5.4,3.1v0.1c-0.1,1.2-1.3,2-1.9,2.4c-0.8,0.5-1.7,1.4-2.9,1.4
			c-1.7,0-1.8-1.7-4.1-1.7c-2.2,0-5,2.2-5.4,2.9c-0.3,0.4-0.3,0.8-0.3,1.3v16.7v0.3c0,0.8,0.1,2,1.7,2.1c4.2,0.3,5.1,0.1,5.1,1.7
			c0,0.6-0.1,1.4-1,1.4c-0.2,0-3.3-0.4-7-0.4c-3.9,0-6.9,0.4-7.1,0.4c-0.7,0-1.1-0.5-1.1-1.2c0-1.7,1.3-1.3,3.1-1.7
			c1-0.2,1.3-0.6,1.3-1.7v-18.5c0-1.4-0.6-1.3-3.8-3.7c-0.1-0.1-0.2-0.2-0.3-0.5c0-0.3,0.1-0.2,7.3-3.8c0.2-0.1,0.4-0.2,0.6-0.2
			c0.8,0,0.8,0.8,0.8,1.4v2.8c0,0.2,0.1,0.3,0.2,0.3C1153.7,140.2,1158.8,136.4,1160.6,135.7z"/>
		<path d="M1182.8,136.3c5,0,7.2,2.5,8.8,2.5c1.3,0,2.7-0.9,3.6-2.2c0.3-0.6,0.9-1.6,2-1.6c1.3,0,2.6,1.5,2.6,2.9
			c0,2.7-4.4,3.7-5,4.2c-0.1,0.1-0.3,0.3-0.3,0.6c0,0.4,0.8,1.7,0.8,4.4c0,6.4-5,11.7-11.6,11.7c-2.3,0-3.1-0.6-4-0.6
			c-1.3,0-3.1,2-3.1,3.6c0,4.2,11.6,2.3,17.1,3.9c4.4,1.3,6.3,4.7,6.3,7.7c0,3.8-3,9.6-14.5,9.6c-11.4,0-13.7-5.6-13.7-8.8
			c0-4.3,3.6-6,3.6-6.1c0.1-0.1,0.1-0.1,0.1-0.3c0-0.4-2.6-1-2.6-4.2c0-3.6,3.9-6.5,4-6.6c0.1-0.1,0.1-0.1,0.1-0.2
			c0-0.7-2.3-0.9-4.3-4.5c-0.9-1.5-1.3-3.3-1.3-5.1C1171.5,141.3,1176.3,136.3,1182.8,136.3z M1187.1,179.6c7.2,0,8.9-3.1,8.9-5.1
			c0-2.5-2-3.8-2.8-4.1c-3.1-1.6-7.5-1-14.7-1.7h-0.2c-0.5,0-0.7,0.3-1.2,0.8c-0.8,0.8-1.3,2.1-1.3,3.3
			C1175.8,176.8,1180.7,179.6,1187.1,179.6z M1177,146.4c0,5.2,2.9,9.9,7.2,9.9c3.8,0,6.2-3.4,6.2-7.7c0-4.9-2.9-9.8-7.3-9.8
			C1179.5,138.7,1177,141.8,1177,146.4z"/>
	</g>
</g>
<g id="_xAE_">
	<g>
		<path d="M1102.5,47.5c0-1.1,0.1-2.2,0.4-3.2c0.3-1,0.7-2,1.2-2.9c0.5-0.9,1.1-1.7,1.9-2.4c0.7-0.7,1.5-1.4,2.4-1.9
			c0.9-0.5,1.8-0.9,2.9-1.2c1-0.3,2.1-0.4,3.2-0.4c1.1,0,2.2,0.1,3.2,0.4c1,0.3,2,0.7,2.9,1.2c0.9,0.5,1.7,1.1,2.4,1.9
			c0.7,0.7,1.4,1.5,1.9,2.4c0.5,0.9,0.9,1.8,1.2,2.9c0.3,1,0.4,2.1,0.4,3.2c0,1.1-0.1,2.2-0.4,3.2c-0.3,1-0.7,2-1.2,2.9
			c-0.5,0.9-1.1,1.7-1.9,2.4c-0.7,0.7-1.5,1.4-2.4,1.9c-0.9,0.5-1.8,0.9-2.9,1.2c-1,0.3-2.1,0.4-3.2,0.4c-1.1,0-2.2-0.1-3.2-0.4
			c-1-0.3-2-0.7-2.9-1.2c-0.9-0.5-1.7-1.1-2.4-1.9c-0.7-0.7-1.4-1.5-1.9-2.4c-0.5-0.9-0.9-1.8-1.2-2.9
			C1102.7,49.7,1102.5,48.6,1102.5,47.5z M1104.3,47.5c0,1.4,0.3,2.7,0.8,4c0.5,1.2,1.3,2.3,2.2,3.3c0.9,0.9,2,1.7,3.3,2.2
			c1.2,0.5,2.6,0.8,4,0.8c1.4,0,2.7-0.3,4-0.8c1.2-0.5,2.3-1.3,3.3-2.2c0.9-0.9,1.7-2,2.2-3.3c0.5-1.2,0.8-2.6,0.8-4
			c0-1.4-0.3-2.7-0.8-4c-0.5-1.2-1.3-2.3-2.2-3.3c-0.9-0.9-2-1.7-3.3-2.2c-1.2-0.5-2.6-0.8-4-0.8c-1.4,0-2.7,0.3-4,0.8
			c-1.2,0.5-2.3,1.3-3.3,2.2c-0.9,0.9-1.7,2-2.2,3.3C1104.5,44.8,1104.3,46.1,1104.3,47.5z M1119.2,44.6c0,0.5-0.1,1-0.2,1.4
			c-0.1,0.4-0.3,0.8-0.6,1.1c-0.2,0.3-0.5,0.6-0.8,0.8c-0.3,0.2-0.6,0.4-0.9,0.5c0.7,1.2,1.4,2.2,1.9,3.1c0.2,0.4,0.5,0.8,0.7,1.2
			c0.2,0.4,0.4,0.7,0.6,1c0.2,0.3,0.3,0.5,0.4,0.7l0.2,0.3h-2.9l-3.3-5.6h-1.5v5.6h-2.5V40.4h3.7c1.8,0,3.1,0.3,3.9,1
			C1118.8,42.1,1119.2,43.2,1119.2,44.6z M1112.8,46.9h1.1c1,0,1.7-0.2,2.1-0.6c0.4-0.4,0.6-0.9,0.6-1.7c0-0.8-0.2-1.3-0.7-1.7
			c-0.4-0.3-1.1-0.5-2.1-0.5h-1.1V46.9z"/>
	</g>
</g>
</svg>
