<?xml version="1.0" encoding="utf-8"?>
<!DOCTYPE svg PUBLIC "-//W3C//DTD SVG 1.1//EN" "http://www.w3.org/Graphics/SVG/1.1/DTD/svg11.dtd">
<svg version="1.1" id="about1" width="100%" height="100%" xmlns="http://www.w3.org/2000/svg" xmlns:xlink="http://www.w3.org/1999/xlink" x="0px" y="0px"
	 viewBox="0 144 320 211.9" enable-background="new 0 144 320 211.9" preserveAspectRatio="xMinYMid slice" xml:space="preserve">
<g>
	<path id="hair" d="M163.3,226.3c1.1-1,2.3-1.9,3.4-2.7c-0.5-1.3-1.4-2.4-2.8-2.8c-1.4-0.5-3-0.3-4.4-0.6c-5.6-1.3-5.7-8.3-6.7-13.6
		c-2.1-10.5-12.5-17.7-23.9-19.7c-3.7-0.6-7.5-0.8-11.4-0.6c-50,31.3-47.7,68.4-48.6,70c8.6,14.6,17.3,34.8,17.3,34.8
		c7.8,4.7,14.6,9.6,20.7,14.5c4.2-1.5,8.8-2.9,13.8-4.2c1.6-0.4,3.2-0.8,4.8-1.2C125.5,300.2,165.6,279.2,163.3,226.3z"/>
	<path id="arm" fill="#FFD921" d="M123.5,295.5c0.9-2.9,4.1-11.8,12.4-20.6c-5.9,1.3-8.8-0.1-8.8-0.1s-22.8-15.7-49.9-31.3
		c-1.7,2.2-2.6,3.3-2.6,3.3c-1,1.5-1.9,2.9-2.8,4.3C90.4,272.2,108.2,286.2,123.5,295.5z"/>
	<path id="woman_bum" fill="#FFD921" d="M271.7,324.8c-6.7-2.4-12.7-5-18.1-7.9c-0.2-0.1-0.3-0.1-0.3,0c-4.8,2.2-6.7,3.6-8.7,8.2
		c-0.3,0.7-0.6,1.5-0.5,2.3c0.2,0.8,0.9,1.4,1.6,2c4.4,3.4,10,6.3,10.7,11.8c0.3,2-0.5,4.5-2.4,5.7c-3.2,1.7-6.4-1-8.9-3.1
		c-6.9-5.6-16.9-6-26.7-4.6c-4.6,1.4-15.3,4.9-23.9,9.5c-4.8,2.6-9.4,5.1-13.8,7.3h125.6C301.6,341.9,290.1,331.2,271.7,324.8z"/>
	<path id="man_leg" fill="#F9BD1C" d="M74.7,246.8c0,0,0.9-1.2,2.6-3.3c6.1-7.9,22.2-29.2,40.2-57.1c8.4-12.9,17.2-27.3,25.6-42.4
		H73.5c-13.4,7.3-47.4,27.3-73.5,54.4v98.1v4.6c0.8,1,1.5,2.2,2,3.4c1.3,2.9,2.2,6,4.8,7.2c0.3,0.1,0.6,0.4,0.9,0.6l69.2,8.1
		c0,0,2.1-1.6,6.2-3.9c5-2.9,13-6.9,23.9-10.8c-6.1-4.9-12.9-9.8-20.7-14.5c0,0-8.7-20.2-17.3-34.8c0.9-1.6,1.9-3.4,3-5.2
		C72.8,249.8,73.7,248.3,74.7,246.8z"/>
	<path id="eye" d="M119.6,231.8c-0.5-0.7-1.2-1-2-1c-0.3,0-0.7,0.1-1,0.2c-0.6,0.2-0.9,0.8-1.2,1.4c-0.2,0.5-0.1,1,0.1,1.5l0.6,0.9
		l0.5-0.8c0.2-0.5,0.7-0.8,1.3-0.8c0.1,0,0.2,0.1,0.3,0.1h0.1c0.1,0,0.2,0.1,0.5,0.1h0.1c0.3,0,0.7-0.2,0.8-0.5
		C119.9,232.6,119.8,232.1,119.6,231.8z M119.2,232.6c0-0.1,0.1-0.2,0-0.3C119.3,232.4,119.2,232.5,119.2,232.6z M119.2,232.2
		C119.2,232.2,119.2,232.3,119.2,232.2C119.2,232.3,119.2,232.2,119.2,232.2z"/>
	<path id="woman_body" fill="#FFD921" d="M204.8,245.9c-3.4-29.9-22.8-33.1-38.1-22.3c-1.2,0.8-2.3,1.7-3.4,2.7
		c-15.8,13.9-29,0.8-29,0.8c2.5-6.7-7.9-8.9-7.6,0c0,0.5,0.1,1,0.2,1.5c-13.3-6.7-10.6-13.3-10.6-13.3s-13.9,6-5.3,18.5
		c0,0,1.4,4.5,0.5,8l4.5-0.9c0,0,1.3,0.2,0.5,3.4c0,0,2-1,4.2-0.6l-1.2,4.1c0,0,1.5-0.1,2.5,2.8c0,0,2.1,2.8,5.6-0.7
		c3-3,12.2-14.5,17.7-10.7c0,0,0.7,0.5,1.8,1.2c1,0.9,1.9,2.1,2.7,3.7c0.1,0.2,0.2,0.4,0.3,0.6c3.7,8.9-5.5,24.1-5.5,24.1
		c-2.3,1.7-4.3,3.6-6.1,5.5c-7.8,8.4-11,18-12.2,22.8c-0.5,2-0.7,3.2-0.7,3.2c-1.6,0.4-3.2,0.8-4.8,1.2c-5,1.3-9.6,2.8-13.8,4.2
		c-10.9,3.9-19,7.9-23.9,10.8c-4.1,2.4-6.2,3.9-6.2,3.9l-69.2-8.1c-0.3-0.3-0.7-0.5-0.9-0.6c-2.5-1.2-3.5-4.3-4.8-7.2
		c-0.6-1.3-1.2-2.5-2-3.4v4.2v14.1v0.9v0.6c1.3,0.5,2.5,1.1,3.8,2L3.7,323c34.2,19.2,66.3,21.7,89.8,19.5l37.3-8.8
		c0.4-0.2,0.5-0.2,0.5-0.2l0.2,0.1l1.6-0.4l30.6-7.2c0,0,8.9-1.9,21.4-3c5.8-0.5,12.6-1.5,18.5-2.7c0.1-0.7,0.2-1.4,0.4-2
		c0.5-1.3,1.4-2.5,2.2-3.7c4.1-5.7,8.1-11.4,12.2-17c1.4-1.9,2.8-3.8,4.7-5.2C204.6,269.2,204.8,245.9,204.8,245.9z M119.7,232.9
		c-0.1,0.2-0.5,0.5-0.8,0.5h-0.1c-0.2,0-0.3-0.1-0.5-0.1h-0.1c-0.1,0-0.2-0.1-0.3-0.1c-0.6,0-1,0.3-1.3,0.8l-0.5,0.8l-0.6-0.9
		c-0.2-0.5-0.3-1-0.1-1.5c0.2-0.6,0.6-1.2,1.2-1.4c0.3-0.1,0.7-0.2,1-0.2c0.8,0,1.5,0.3,2,1C119.8,232.1,119.9,232.6,119.7,232.9z"
		/>
	<path id="man_arm" fill="#F9BD1C" d="M130.8,333.7l-37.3,8.8c1.9-0.2,3.8-0.4,5.6-0.6c-1.8,0.2-3.7,0.5-5.6,0.6
		C70,344.7,37.9,342.2,3.7,323l0.1-0.3c-1.2-0.8-2.4-1.4-3.8-2v18.5c2.8,3,5.2,8.3,8.4,16.7h27.9h15.9h93.3h25.9h1.6h7.6
		c4.4-2.3,9-4.7,13.8-7.3c8.6-4.7,19.4-8.2,23.9-9.5c9.7-1.5,19.8-1,26.7,4.6c2.5,2.1,5.7,4.9,8.9,3.1c2-1.2,2.8-3.7,2.4-5.7
		c-0.7-5.6-6.3-8.5-10.7-11.8c-0.7-0.6-1.4-1.2-1.6-2c-0.1-0.8,0.1-1.6,0.5-2.3c2-4.6,3.9-6,8.7-8.2c0,0,0.2,0,0.3,0
		c1.1,0.4,4.6,2.2,5.2,2.5c2,0.7,3.4-3.5,3.5-5.6c0.2-4.2-1.2-9.4-5.6-9.2c-1.4,0.1-3,0.7-4.1,0c-1.3-0.9-0.6-3-1.2-4.4
		c-0.7-1.5-2.5-2.1-4.3-2c-3.6,0.2-4.8-3.8-6.1-4.6c-1.4-0.7-3.2,1.4-5.6,0c-1-0.6-1.6-3.2-2.8-3.8c-2-1-7.3,0.8-9.3,2.2
		c-0.1,0.1-0.2,0.1-0.3,0.2c-1.9,1.4-3.2,3.4-4.7,5.2c-4.1,5.7-8.1,11.4-12.2,17c-0.8,1.2-1.7,2.4-2.2,3.7c-0.2,0.7-0.4,1.4-0.4,2
		c-5.9,1.3-12.7,2.2-18.5,2.7c-12.5,1.2-21.4,3-21.4,3l-30.6,7.2l0,0l-1.6,0.4l0,0L130.8,333.7"/>
	<path id="bird_body" fill="#F37979" d="M148,291.4c-1.2,0.7-1.6,1.3-1.6,1.3s-0.1-0.6-0.7-0.1c0.1-0.3-0.3-0.2-0.3-0.2
		s0.3-1.9-0.6-2.5c0-0.4-0.1-0.7-0.2-1l0,0c-0.3-1.3-0.8-1.3-0.8-1.3s0.1,0.9,0.2,2.1l0,0c0.1,2,0.1,4.8-0.7,6.1
		c-1.9,1.4-2.1,2.1-2.1,2.1s0-1.2-0.8-1.3c0-1-0.7-1.2-0.7-1.2s0-0.1-0.1-0.4l0,0c-0.1-0.2-0.2-0.4-0.5-0.7c-0.3-2-1.3-2.2-1.3-2.2
		s-0.3-2.1-1.7-2.3c1.3,2.2,1.2,3.6,1.2,3.6s0,1.7,0.5,3.5l0,0c0.3,1.1,0.7,2.1,1.4,2.8c-0.8,0.8-0.7,1.9-0.7,1.9s-0.5,1-0.8,1.3
		c0.7,0.1,1.6,0.2,1.6,0.2s0.2,0.1,0.4,0.2l0,0c0.8,0.5,2.8,1.2,4.8-0.8c5.3,0.5,8-2,8-2s3.5-2.5,6.3-2c-1.4-0.9-4.8,0-4.8,0
		s-0.1-0.9-2.2,0c0-0.8-2.2,0-2.2,0s-0.3-0.7-2.2,0.5c-0.3-0.7-2,0.6-2,0.6l-0.1-0.1c0,0,0.8-1.7,0.3-3.9l5.1-5.1l-1.2,0.6
		C149.5,291.1,149.3,290.5,148,291.4C148.2,291.2,148.1,291.2,148,291.4"/>
	<path id="bird_eye" d="M140.6,301.6c-0.2-0.1-0.5-0.1-0.6,0.1c-0.1,0.1,0,0.5,0.1,0.6c0.1,0.1,0.3,0.1,0.4,0.1l0,0
		c0.1,0,0.1-0.1,0.2-0.2v-0.1l0,0C140.9,301.9,140.8,301.7,140.6,301.6z"/>
	<path id="eyebrow" d="M116.7,226c0.8,0.1,1.6,0.3,2.3,0.8c0.1-0.1,0-0.3-0.1-0.3c-0.7-0.3-1.4-0.7-2.1-0.9
		c-0.8-0.1-1.6-0.1-2.3,0.2c-0.9,0.5-1.4,1.4-2,2.2c-0.2,0.3-0.5,0.8-0.6,1.3c0,0.1-0.1,0.3,0,0.5c0,0.1,0.2,0.1,0.3,0
		c0.2-1,0.7-2,1.4-2.7c0.1-0.1,0.3-0.3,0.6-0.5C114.9,226.1,115.8,225.8,116.7,226z"/>
</g>
</svg>