<?xml version="1.0" encoding="utf-8"?>
<!-- Generator: Adobe Illustrator 18.1.1, SVG Export Plug-In . SVG Version: 6.00 Build 0)  -->
<!DOCTYPE svg PUBLIC "-//W3C//DTD SVG 1.1//EN" "http://www.w3.org/Graphics/SVG/1.1/DTD/svg11.dtd">
<svg version="1.1" id="about1" xmlns="http://www.w3.org/2000/svg" xmlns:xlink="http://www.w3.org/1999/xlink" x="0px" y="0px" viewBox="0 0 140 188" enable-background="new 0 0 140 188" xml:space="preserve" preserveAspectRatio="xMinYMax slice" width="100%" height="100%">
<switch>
	<g>
		<g>
			<defs>
				<rect id="SVGID_1_" width="140" height="188"/>
			</defs>
			<clipPath id="SVGID_2_">
				<use xlink:href="#SVGID_1_"  overflow="visible"/>
			</clipPath>
			<g clip-path="url(#SVGID_2_)">
				<g>
					<path fill="#13112D" d="M-35.1,180c8.2,8.5,17.3,16,27.2,22.4c7,4.6,15,8.7,23.8,7.5c12.1-1.7,31.8-7.6,37.8-19.2
						c13.8-26.8,4.7-64.2-5.8-89.8c-1.3-3.1-3.5-6.5-6.8-5.9c-1.3,0.3-2.5,1.1-3.8,1.5c-5.1,1.6-8.3-4.1-11.6-7.9
						c-6.5-7.5-18.2-8.6-28.3-4.9c-10,3.7-18.6,11.3-26.1,19.5c-13.5,14.8-25.1,34.7-21,53C-47.6,165.8-41.6,173.4-35.1,180"/>
					<path id="arm" fill="#FFD922" d="M61.8,111.1c-9.5,42.9-25.5,44.2-25.5,44.2s-26.8-2.2-56.6-2.3l-0.2,8.1c72.4,25.6,111.6,4.2,111.6,4.2
						"/>
					<path fill="#FBBD1B" d="M-51.3,249.1c-3.7-6.3-9.7-4.3-9.7-4.3l29.9-83.2c13.1,4.1,42.1,25.9,42.1,25.9
						c90.4,2.5,104.5,64.5,104.5,64.5l10.5-5.1l-1.2-17.9c9-2.7,18.3-1.1,18.3-1.1l2.5-12.5c24.3,9.1,28.4,22.2,28.4,22.2
						c7.7,34.9-10,33.6-10,33.6c-11.2,1.3-36.5,8.5-36.5,8.5c-9.3,3.8-17,27.7-18.2,31.6c-19.8,61.8-58.5,31.2-58.5,31.2
						c-18-13.7-29.4-34.6-44.5-51.9c-11.8-13.6-25.6-25.2-40.7-34.4c-5.3-3.3-11.1-6.3-17.5-5.9c5.3,0,10.5,0,15.8,0"/>
					<path fill="#13112D" d="M53.1,174.4c3.2-8.4,4.3-18.4,4.4-27.6c0.1-7.5-0.4-28.8-12.8-27.2c-1.6,0.2-3.2,0.7-4.7,1.3
						c6.7,5.7,6.4,21.6,6.4,21.6c-7.6,17.4-3.4,32-3.4,32C36.6,180.5,49.9,182.9,53.1,174.4"/>
					<path fill="#FFFFFF" d="M85.1,280.9c0,0-6.1-14.7-20.3-22.1c0,0,16.9-9,49.9-56.4c3.9-5.5-18.6,1.4-10.9-2.7
						c10.2-5.4,26.3-53.6,26.3-53.6c-0.1,4.3-13,14.6-22.7,21.1S91.3,179,91.3,179L5.1,263l1.7,6.5c0,0,4.1,46.3,54.9,69.8
						c0,0,6.6,1.6,9.2,3.9C70.8,343.1,111.1,321.5,85.1,280.9"/>
					<path fill="#FFD922" d="M66.6,200.7l40-4.8c12.1,15.4,34.7,6.4,34.7,6.4c-2.7,33.1-0.9,60.9,3.2,84
						c1.3,22.5,8.4,65.6,41.6,107.9c0,0,5.5-4,9.3-4.5c0,0,62.6-17.2,151.9-101.3c0,0,5.2-5.9,18.7-13.2c9.1-4.9,18.3-9.9,27.4-14.8
						c2.4-1.3,4.9-2.7,7.6-3.1c2.6-0.4,5.5,0.3,7,2.4c1.2-0.4,2.3-1.7,2.5-3.1c0.2-1.4-0.4-2.8-1.5-3.4c1.1-0.5,2.2-1.1,3.3-1.6
						c0.3-0.1,0.6-0.3,0.8-0.5c0.5-0.5,0.4-1.4,0.1-2c-0.4-0.5-1-0.9-1.5-1.1c0.3-0.3,0.7-0.6,1-1c0.1-1.6-1.7-2.6-3-1.8
						c1.2-0.7,1.6-2.7,0.9-3.8c-0.8-1.1-2.6-1-3.5,0.2c0.2-1.4-1.6-2.1-2.8-1.5c-1.2,0.6-1.9,2-2.6,3.3c-2.5-1.4-5.7-1.1-8.6-0.3
						c-2.9,0.8-5.8,2.2-8.7,2.8c-6.7,1.4-13.2-1-19.6-2.5c-2-0.5-4.1-0.8-6.2-0.6c-2.1,0.3-4.3,1.2-5.8,3c-1.5,1.8-2.2,4.3-2.5,6.6
						c-0.3,2.4-0.2,4.9-1.3,7c-0.6,1.1-1.5,2.8-3,4.8c0,0-6.2,7.6-17.2,15.4c-10.7,6.6-26.2,12.2-47.9,12.8
						c-47.1,1.3-73.7,38.2-73.7,38.2l18.6-58.4c24.7-101.6,5-153-50.2-143.1c-65.2,11.7-90-32.8-90-32.8
						c-17.5-24.1-35.8-15-42.1,3.4c-6.3,18.4-23,13.9-23,13.9c-1-6.6-10.5-3.6-6.1,3.5c4.4,7.1,12.8,4.2,12.8,4.2s6-6.1,13.5-1.1
						c7.5,5,7.2,22.2,7.2,22.2c-7.6,17.4-0.9,34-0.9,34C24.3,197.4,16.8,215,16.8,215l-60.7,25.8l3,9.9
						C31.2,250.4,66.6,200.7,66.6,200.7"/>
					<path fill="#FBBD1B" d="M84.7,279.6c0,0-8.6-13.5-21.1-18.9c0,0,21-12.7,60.6-76.8c6.2-10,16.4-20.3,16.4-20.3l-13.3-17.9
						c0,4.3-12.7,14.9-22.2,21.6c-9.6,6.7-15.9,12.2-15.9,12.2l-89.3,83.3l6.7,9.2c0,0,5.1,46.1,56.5,68.3c0,0,6.7,1.5,9.3,3.7
						C72.4,344.1,111.6,319.5,84.7,279.6"/>
					<path fill="#FBBD1B" d="M-11.4,190c0,0-9.4-5.1-7.2-33.2c0,0,14-90.1,4.8-166.7l-12-6.5c0,0-0.4,2.9-37.7,85.9
						c0,0-95.6,142.7,1.4,180.7"/>
					<path fill="#FFD922" d="M33.2,114.8c2.5,2.1,10.7-4.7,10.7-4.7l0.7,10.2c-1.2-1.4-10.1-1.9-10.1-1.9
						c-6.2-0.5-8.3,12.9-9.4,16.7c-1.2,4.3-4.2,3.1-4.2,3.1c-2.2-1.9-3.3-1.1-3.3-1.1l-0.9-3.9c-2,0.6-3.1,2.3-3.1,2.3
						c-0.8-2.9-1.9-2.4-1.9-2.4l-3.2,2.8c-0.8-3.2-4-6.3-4-6.3c-12.6-5.9-4.3-17.1-4.3-17.1S1.8,124.1,33.2,114.8"/>
					<path fill="#13112D" d="M10.2,124.6c-0.7-0.3-1.7-0.1-2.2,0.6c-0.5,0.7-0.3,1.8,0.4,2.2c-0.1-0.9,0.5-1.8,1.4-1.9
						c0.2,0,0.3,0,0.5-0.1c0.1-0.1,0.3-0.2,0.3-0.3C10.5,124.8,10.3,124.7,10.2,124.6"/>
					<g>
						<path fill="#231F20" d="M9,128.3l-0.8-0.5c-0.4-0.2-0.7-0.6-0.8-1.2c-0.1-0.6,0-1.2,0.3-1.7c0.2-0.3,0.4-0.5,0.7-0.6
							c0.6-0.4,1.4-0.4,2.1-0.1c0.4,0.2,0.6,0.5,0.6,0.9c0,0.3-0.2,0.6-0.5,0.7l0,0c0,0-0.1,0-0.1,0.1c-0.2,0.1-0.3,0.1-0.4,0.1
							c0,0-0.1,0-0.1,0c-0.1,0-0.2,0.1-0.3,0.1c-0.4,0.2-0.7,0.8-0.6,1.3L9,128.3z M8.8,125.1c-0.2,0.1-0.3,0.2-0.4,0.3
							c-0.1,0.1-0.2,0.3-0.2,0.5c0.3-0.5,0.9-0.9,1.5-1C9.4,124.9,9,125,8.8,125.1z"/>
					</g>
					<path fill="#13112D" d="M3.6,125.9c-0.3-0.9-0.3-1.9-0.1-2.8c0.1-0.2,0.1-0.4,0.2-0.6c0.3-0.7,1-1.3,1.7-1.6
						c0.7-0.3,1.5-0.5,2.2-0.4c0.1-0.1-0.2-0.2-0.3-0.2c-0.7,0-1.4,0-2.1,0.3c-0.7,0.2-1.3,0.6-1.7,1.3c-0.5,0.8-0.5,1.8-0.5,2.7
						c0,0.4,0,0.8,0.1,1.2c0,0.1,0.1,0.3,0.2,0.4C3.4,126.2,3.6,126,3.6,125.9"/>
					<path fill="#FDEE04" d="M-84.8,239.9c1.7-2.4,22.5,1.9,22.4-1.2c-0.1-1.8-1.6-4-3-5.3c-1.3-1.3-2.9-2.4-3.9-4
						c-1-1.6-1.1-4,0.3-4.9c4.6,2,5.7,6.7,10.5,8c1.3,0.3,3,2,4.4,2.4c3.8,1.2,6.7,5.7,10.5,5.4c0.7-0.1,2.2,0.2,2.8,0.6
						c0.6,0.4,0,0.6,0.2,1.3c0.7,2.8,1.5,5.8,1.4,8.7c-4.1-0.7-7-0.1-11.7,1.5c-4.7,1.5-10.3,1.4-15.1-0.8c-1-0.5-2-1-3-1.3
						c-2.1-0.6-4.6-0.2-6.3-1.7c-0.9-0.8-1.4-2.1-2.5-2.7c-0.9-0.5-1.9-0.5-2.7-1c-1-0.7-1.4-2-2.4-2.7c-0.9-0.6-2.2-0.9-2.2-1.9
						c0-0.1,0-0.3-0.1-0.4C-85.3,239.6-84.9,240-84.8,239.9"/>
					<path fill="#FBBD1B" d="M162.7,130.8c1.9-0.4,1.1-4.3,0.2-6.1c-1.7-3.4-5.3-7-8.6-4.8c-1.1,0.7-2.1,2-3.3,1.8
						c-1.4-0.1-1.8-2.2-3-3c-1.2-0.9-3-0.5-4.3,0.4c-2.8,1.8-5.5-0.9-7-0.9c-1.5,0.1-1.9,2.6-4.4,2.5c-1.1,0-2.8-1.9-4-1.8
						c-2.1,0.1-5.5,3.9-6.5,6c-1,2.1-1.2,4.4-1.5,6.7c-0.7,6.5-1.3,12.9-2,19.4c-0.1,1.3-0.3,2.7,0,4c0.2,1.2,0.8,2.3,1.4,3.3
						c2.6,4.5,6,8.4,10,11.6c0.5,0.4,0.9,0.7,1.5,0.8c1.4,0.3,2.9-0.9,4.1-2c8-7.2,18-13.7,27.7-12.1c3,0.5,6.8,1.3,8.6-1.6
						c1.1-1.8,0.5-4.2-0.7-5.7c-3.1-4.1-9-4-14-4.7c-0.8-0.1-1.6-0.3-2.2-0.9c-0.5-0.5-0.6-1.3-0.7-2.1c-0.6-4.6,0.4-6.7,3.2-10.6
						C157.2,131.1,161.9,130.9,162.7,130.8"/>
					<path fill="#FFFFFF" d="M208.2,326.6c0,0-5.2,16.9-8.8,24.7c0,0,6.4-11.3,10.1-25.2L208.2,326.6z"/>
					<path fill="#F37979" d="M62.6,157l-0.6,1c0,0-0.4-0.4-1.1,0.9c-0.7,1.2-0.8,2.1-0.8,2.1s-0.3-0.4-0.6,0.3c-0.1-0.3-0.4,0-0.4,0
						s-0.6-1.6-1.6-1.8c-1.3-1.7-1.8-1.4-1.8-1.4s3.4,4.6,3.4,6.8c-0.9,1.9-0.7,2.7-0.7,2.7s-0.5-1-1.2-0.7c-0.5-0.9-1-0.6-1-0.6
						s-0.2-0.4-1-0.6c-1.2-1.4-2-1.2-2-1.2s-1.3-1.5-2.4-1.1c2.1,1.2,2.6,2.3,2.6,2.3s2.2,3.5,4.5,4.2c-0.2,1,0.3,1.8,0.3,1.8
						s0.1,1-0.1,1.4c0.6-0.2,1.4-0.6,1.4-0.6s3,0.5,3.9-2.9c4.4-2.1,5.6-5.2,5.6-5.2s1.6-3.6,4.1-4.5c-1.5-0.1-3.8,2.1-3.8,2.1
						s-0.5-0.7-1.8,1c-0.4-0.7-1.8,1-1.8,1s-0.5-0.4-1.5,1.3c-0.6-0.5-1.3,1.4-1.3,1.4l-0.1,0c0,0-0.1-1.8-1.5-3.3"/>
					<path fill="#13112D" d="M59.4,171.5c0.2,0,0.4-0.1,0.4-0.4c0-0.2-0.1-0.4-0.4-0.4c-0.2,0-0.4,0.1-0.4,0.4
						C59,171.3,59.2,171.5,59.4,171.5"/>
				</g>
			</g>
		</g>
	</g>
</switch>
</svg>
