<?xml version="1.0" encoding="utf-8"?>
<!-- Generator: Adobe Illustrator 18.1.1, SVG Export Plug-In . SVG Version: 6.00 Build 0)  -->
<!DOCTYPE svg PUBLIC "-//W3C//DTD SVG 1.1//EN" "http://www.w3.org/Graphics/SVG/1.1/DTD/svg11.dtd">
<svg version="1.1" id="about2" xmlns="http://www.w3.org/2000/svg" xmlns:xlink="http://www.w3.org/1999/xlink" x="0px" y="0px"
	 viewBox="0 0 288 504" enable-background="new 0 0 288 504" xml:space="preserve">
<path fill="none" d="M195.8,498.9c-2.5-3.3-5-6.4-7.3-9.5c-7.7-10.4-13.5-20.9-18.1-31.1c0,0.1,0,0.2-0.1,0.3
	c4.6,9.8,10.5,20.3,17.8,30.5c2.3,3.3,4.8,6.4,7.3,9.5c1,1.2,1.7,2.4,2.7,3.5c-0.1,0.6-0.1,1.2-0.1,1.8h0.3c0-0.6,0.1-1.1,0.1-1.6
	C197.7,501.2,196.8,499.9,195.8,498.9z"/>
<path d="M168.3,298.9c-0.1,0-0.3-0.1-0.4-0.1c-0.3-0.1-0.3-0.6,0-0.7c0,0,0.1,0,0.1,0c0,0-0.1,0-0.1,0c-0.3,0.1-0.3,0.6,0,0.7
	C168,298.8,168.1,298.9,168.3,298.9z"/>
<path d="M208.7,380.7l0.2,1.4c0.1,0.6,0.5,1.3,1.1,1.7c0.5,0.2,1.1,0.5,1.7,0.5c-0.6,0-1.2-0.3-1.6-0.7c-0.6-0.4-0.9-1.1-1.1-1.7
	l-0.2-1.4l-1.1,1.1c-0.2,0.2-0.4,0.5-0.6,0.8c0.1-0.2,0.3-0.4,0.5-0.6L208.7,380.7z"/>
<path d="M174.1,302.6c-0.7-1.2-1.8-2.2-2.9-3.1C172.3,300.4,173.4,301.4,174.1,302.6z"/>
<path d="M189.8,296.8c5,9.4-6,20.2-13.8,22.1c-11.7,2.9-28.4,17.9-11.1,23.1c3.7,1.1,12.9-1.2,13.3,5c0.4,6.8-10.5,5.4-14.4,6
	c-2.1,0.4-4.1,1.3-5.8,2.7l-0.2,0.2c-0.6,0.5-1.1,0.8-1.4,1.3c-0.8,0.7-1.1,1.9-1.3,3c-0.2,1.4,0,3,0.6,4.6
	c3.3,9.5,17.3,21.9,19,23.3l0.2,0.2c5,4.3,10,8.7,14.4,13.3c2.7,2.8,5.2,5.5,7.7,8.4c1.1,1.1,2.1,2.3,3.2,3.6c2.1,2.5,4.1,5,6.2,7.7
	c3.4,4.6,6.7,9.2,9.6,14c1,1.5,1.7,3,2.7,4.4c0.4,1.1,1.1,2.1,1.7,3.2c1.3,2.3,2.5,4.6,3.8,6.9c3,5.8,5.8,11.4,8.1,17.3
	c0.5,1.1,0.8,2.3,1.3,3.3c4.1,10.1,7.2,20.5,9.5,30.7c0.2,1,0.5,1.9,0.7,2.9h0.3c-0.2-1.1-0.5-2.1-0.7-3.2
	c-2.4-10.1-5.6-20.4-9.6-30.7c-0.3-1.1-0.8-2.3-1.3-3.3c-2.4-5.8-5.1-11.6-8.1-17.3c-1.3-2.3-2.5-4.7-3.8-6.9
	c-0.4-1.1-1.1-2.1-1.7-3.2c-1-1.5-1.7-3-2.7-4.4c-3-4.6-6.1-9.4-9.6-14c-1.9-2.5-4-5.2-6.2-7.7c-0.9-1.1-2.1-2.3-3.2-3.6
	c-2.5-2.8-5-5.7-7.7-8.4c0.5-1,0.6-2.1,0.2-2.7c0.8-0.5,3.5-0.6,4.3-1.1c-1.3-0.5-3.4-1.4-3.6-2.5c1.5-0.5,3.2-3,3.6-4.3
	c-2.3-0.8-4.6-1.9-6.7-3.2c5-1.3,10-4,14-7.6c1.3-1.1,2.5-2.3,3.6-3.8c2.3-2.7,3.8-5.7,5.8-8.5c0.2,0.1,0.4,0.3,0.6,0.5
	c2.3,1.6,5.6,3,8.5,4.3c2.1,1,4,1.8,5.7,2.9c1.3,1,2.3,1.8,3,2.9c3.5,5.6,3.5,13.3-0.5,18.7c3.2,0,4.9-4.3,8.4-2.7
	c2.4,1.1,2.9,5.2,1.6,7.3c-2.1,3.3-7.3,4-10.8,4.3c-0.2,1.8,0,2.9,0,3.5c0.3,5,1.7,10.3,3.8,15c0.9,2.1,1.9,4,3.2,5.8
	c1.9,3.7,5.2,6.2,6.9,7.5c2.8,1.1,35.3,16.5,17.3,66.3H288v-70.8c-2.1-3.2-4.8-7.8-6.2-11.1c-2.9-6.5-3.8-13.8-4.8-21.2
	c-0.5-3.8-1.1-7.7-1.9-11.7c-2.1-10-7.6-28-23.3-36.5c-4.3-2.3-14.8-7.5-25.3-7.9c0,0,0,0-0.2,0c-1-7.5-3-14.8-6.3-21.4
	c-2.7-5.4-6.8-9.6-9.6-15c-1.7-3.6-1.7-7.1-3-10.9c-2.3-7.6-9.8-15.7-18.2-16.7c-15.3-2-22,4-24.4,11.6c0.1,0,0.2-0.1,0.3-0.1
	C174.3,290.3,182.9,293,189.8,296.8z"/>
<path d="M207,382.7c0-0.1,0.1-0.2,0.1-0.3C207.1,382.5,207,382.6,207,382.7z"/>
<path d="M212.4,384.3c0,0-0.1,0-0.1,0c-0.1,0-0.1,0-0.2,0C212.2,384.3,212.2,384.3,212.4,384.3C212.4,384.3,212.4,384.3,212.4,384.3
	z"/>
<path d="M158.7,305.1c0.4-0.9,1.3-1.3,2.1-1.7c0.1-0.2,0.3-0.2,0.5-0.2l1.1-0.3l0.1-0.2l-1.4,0.4c-0.1,0.2-0.3,0.2-0.5,0.2
	c-0.8,0.3-1.6,0.9-2.1,1.7c-0.6,1-0.8,2.3-0.5,3.3c0.2,0.4,0.4,0.7,0.6,1c-0.1-0.3-0.3-0.5-0.4-0.8
	C157.9,307.3,158.1,306.1,158.7,305.1z"/>
<path d="M174.8,306.2c0,0.3-0.1,0.6-0.2,0.9C174.7,306.7,174.7,306.5,174.8,306.2z"/>
<path d="M174.8,305.5c0,0.2,0,0.4-0.1,0.7C174.8,305.9,174.8,305.7,174.8,305.5z"/>
<path d="M213.6,384.1c-0.1,0-0.2,0-0.2,0c0.8,0,1.4,0.4,1.6,1c0.2,0.4,0.1,1-0.2,1.5c0.3-0.4,0.5-1,0.5-1.5
	C214.9,384.6,214.3,384.1,213.6,384.1z"/>
<path d="M174.1,308.4c-0.1,0.3-0.3,0.6-0.4,0.8C173.8,308.9,174,308.7,174.1,308.4z"/>
<path d="M172.5,301.9c-0.3-0.5-0.8-0.9-1.2-1.3C171.7,301.1,172.1,301.5,172.5,301.9c0.1,0.3,0.4,0.7,0.6,1.1
	c0.1,0.3,0.3,0.6,0.4,0.9c-0.1-0.3-0.2-0.6-0.3-0.9C172.9,302.8,172.9,302.3,172.5,301.9z"/>
<path d="M171.9,311.7c-0.1,0.1-0.2,0.2-0.4,0.2C171.7,311.9,171.8,311.8,171.9,311.7z"/>
<path d="M173.5,307.6c0.3-1.1,0.3-2.3,0-3.4C173.8,305.3,173.7,306.4,173.5,307.6c-0.4,1.6-1.2,3.1-2.3,4.1c0,0,0.1,0,0.1,0.1
	c0,0,0,0,0-0.1C172.4,310.6,173.1,309.2,173.5,307.6z"/>
<path d="M160.3,310.8c0.6,0.3,1.4,0.6,2.3,0.6c0.1,0,0.3,0,0.5,0c0.8,0,1.4-0.5,1.6-1.1c0.2-0.6,0-1.3-0.6-1.7
	c-0.4-0.3-0.5-0.3-0.8-0.5l-0.4-0.2c-0.6-0.3-1.1-0.9-1.4-1.7c-0.2-0.8-0.2-1.6,0.2-2.3l0.7-1.1l-1.1,0.3c-0.2,0-0.4,0-0.5,0.2
	c-0.8,0.4-1.6,0.8-2.1,1.7c-0.6,1-0.8,2.3-0.5,3.3c0.1,0.3,0.2,0.6,0.4,0.8C159.1,309.8,159.6,310.4,160.3,310.8z"/>
<path d="M167.9,298.8c0.1,0,0.3,0.1,0.4,0.1c1.1,0.3,2.1,1,3,1.7c0.5,0.4,0.9,0.8,1.2,1.3c0.4,0.4,0.5,0.8,0.6,1.1
	c0.1,0.3,0.2,0.6,0.3,0.9c0,0.1,0.1,0.2,0.1,0.3c0.3,1.1,0.3,2.4,0,3.4c-0.4,1.6-1.1,3-2.3,4.1c0,0,0,0,0,0.1
	c0.1,0.1,0.2,0.1,0.3,0.1c0.1,0,0.3-0.1,0.4-0.2c0,0,0.1-0.1,0.1-0.1c0.6-0.8,1.2-1.6,1.7-2.4c0.1-0.3,0.3-0.6,0.4-0.8
	c0.1-0.2,0.2-0.4,0.2-0.6c0.1-0.2,0.2-0.5,0.2-0.8c0.1-0.3,0.1-0.6,0.2-0.9c0,0,0,0,0,0c0-0.2,0-0.4,0.1-0.7c0-0.7-0.1-1.3-0.3-2
	c-0.1-0.3-0.2-0.6-0.4-0.9c-0.7-1.2-1.9-2.2-2.9-3.1c-0.1-0.1-0.2-0.1-0.3-0.2c-0.6-0.5-1.3-0.9-2.1-1.3c-0.3,0-0.6-0.1-0.9,0
	c0,0-0.1,0-0.1,0C167.6,298.2,167.6,298.7,167.9,298.8z"/>
<path d="M215,385.1c-0.2-0.6-0.8-1-1.6-1c-0.3,0-0.5,0.2-0.8,0.2c-0.1,0-0.2,0-0.2,0c0,0,0,0,0,0c-0.2,0-0.2,0-0.3,0
	c-0.1,0-0.3,0-0.4,0c-0.6,0-1.2-0.3-1.7-0.5c-0.6-0.5-1-1.1-1.1-1.7l-0.2-1.4l-1.1,1.1c-0.2,0.2-0.4,0.4-0.5,0.6c0,0,0,0,0,0
	c-0.1,0.1-0.1,0.2-0.1,0.3c-0.2,0.6-0.4,1.2-0.3,1.8c0.2,1.3,0.6,2.3,1.6,3c0.5,0.5,1.3,0.6,1.9,0.8c0.4,0,0.5,0,0.8,0
	c1.3,0,2.3-0.5,3.3-1.3c0.2-0.1,0.3-0.3,0.4-0.4C215.1,386.1,215.2,385.6,215,385.1z"/>
<path fill="#16C2EA" d="M71.5,499.7c-1.5,1.3-3.1,2.7-4.8,4.3h3.5C70.6,502.5,71,501.1,71.5,499.7z"/>
<path fill="#16C2EA" d="M241.3,437.7c-1.7-1.3-5-3.8-6.9-7.5c-1.3-1.9-2.3-3.8-3.2-5.8c-2.1-4.8-3.5-10-3.8-15c0-0.6-0.2-1.7,0-3.5
	c3.5-0.4,8.7-1,10.8-4.3c1.3-2.1,0.8-6.2-1.6-7.3c-3.5-1.6-5.2,2.7-8.4,2.7c4-5.4,4-13.1,0.5-18.7c-0.6-1.1-1.7-1.9-3-2.9
	c-1.6-1.1-3.6-1.9-5.7-2.9c-3-1.3-6.2-2.7-8.5-4.3c-0.2-0.2-0.5-0.4-0.6-0.5c-2.1,2.9-3.6,5.8-5.8,8.5c-1.1,1.4-2.3,2.7-3.6,3.8
	c-4,3.6-8.9,6.3-14,7.6c2.1,1.3,4.3,2.3,6.7,3.2c-0.4,1.3-2.1,3.8-3.6,4.3c0.2,1.1,2.3,2.1,3.6,2.5c-0.8,0.5-3.5,0.6-4.3,1.1
	c0.5,0.6,0.4,1.7-0.2,2.7c2.7,2.7,5.2,5.6,7.7,8.4c1.1,1.3,2.3,2.5,3.2,3.6c2.3,2.5,4.3,5.2,6.2,7.7c3.5,4.6,6.7,9.4,9.6,14
	c1,1.4,1.7,2.9,2.7,4.4c0.6,1.1,1.3,2.1,1.7,3.2c1.3,2.3,2.5,4.6,3.8,6.9c3,5.7,5.7,11.5,8.1,17.3c0.5,1.1,1,2.3,1.3,3.3
	c4,10.3,7.1,20.6,9.6,30.7c0.2,1.1,0.5,2.1,0.7,3.2h14.5C276.6,454.2,244,438.8,241.3,437.7z M214.3,387.2c-1,0.8-2.1,1.3-3.3,1.3
	c-0.4,0-0.5,0-0.8,0c-0.6-0.2-1.4-0.4-1.9-0.8c-1-0.6-1.4-1.7-1.6-3c-0.1-0.8,0.1-1.4,0.3-2c0-0.1,0.1-0.2,0.1-0.3c0,0,0,0,0,0
	c0.2-0.3,0.4-0.6,0.6-0.8l1.1-1.1l0.2,1.4c0.2,0.6,0.5,1.3,1.1,1.7c0.5,0.3,1,0.6,1.6,0.7c0.1,0,0.2,0,0.3,0c0,0,0,0,0,0
	c0.1,0,0.1,0,0.2,0c0.1,0,0.1,0,0.1,0c0.3-0.2,0.6-0.2,0.9-0.2c0,0,0,0,0,0c0.1,0,0.1,0,0.2,0c0.6,0,1.3,0.5,1.6,1
	c0,0.5-0.1,1-0.5,1.5C214.7,386.8,214.5,387,214.3,387.2z"/>
<path fill="#16C2EA" d="M213.4,384.1C213.4,384.1,213.4,384.1,213.4,384.1c-0.4,0-0.6,0-1,0.2c0.1,0,0.1,0,0.2,0
	C212.9,384.3,213.1,384.2,213.4,384.1z"/>
<path fill="#16C2EA" d="M214.4,387c-1,0.8-2.1,1.3-3.3,1.3c-0.4,0-0.5,0-0.8,0c-0.6-0.2-1.4-0.4-1.9-0.8c-1-0.6-1.4-1.7-1.6-3
	c-0.1-0.6,0-1.2,0.3-1.8c-0.3,0.6-0.4,1.2-0.3,2c0.2,1.3,0.6,2.3,1.6,3c0.5,0.5,1.3,0.6,1.9,0.8c0.4,0,0.5,0,0.8,0
	c1.3,0,2.3-0.5,3.3-1.3c0.2-0.2,0.4-0.4,0.5-0.6C214.7,386.7,214.5,386.9,214.4,387z"/>
<path fill="#16C2EA" d="M212.1,384.3C212.1,384.3,212,384.3,212.1,384.3c-0.2,0-0.3,0-0.4,0C211.8,384.4,211.9,384.3,212.1,384.3z"
	/>
<path fill="#16C2EA" d="M207.1,382.4C207.1,382.4,207.1,382.4,207.1,382.4C207.1,382.4,207.1,382.4,207.1,382.4z"/>
<path fill="#F05436" d="M243.2,501.1c-2.3-10.2-5.4-20.6-9.5-30.7c-0.5-1.1-0.8-2.3-1.3-3.3c-2.3-5.8-5-11.5-8.1-17.3
	c-1.3-2.3-2.5-4.6-3.8-6.9c-0.6-1.1-1.3-2.1-1.7-3.2c-1-1.4-1.7-2.9-2.7-4.4c-3-4.8-6.2-9.4-9.6-14c-2.1-2.7-4.1-5.2-6.2-7.7
	c-1.1-1.3-2.1-2.5-3.2-3.6c-2.5-2.9-5-5.6-7.7-8.4c-4.4-4.6-9.4-9-14.4-13.3l-0.2-0.2c-1.7-1.4-15.7-13.8-19-23.3
	c-0.6-1.6-0.8-3.2-0.6-4.6c0.2-1.1,0.5-2.3,1.3-3c0.4-0.5,0.8-0.8,1.4-1.3l0.2-0.2c1.7-1.4,3.8-2.3,5.8-2.7c4-0.6,14.8,0.8,14.4-6
	c-0.5-6.2-9.6-4-13.3-5c-17.3-5.2-0.6-20.3,11.1-23.1c7.7-1.9,18.7-12.7,13.8-22.1c-6.9-3.8-15.5-6.5-24.6-4.6
	c-0.1,0-0.2,0.1-0.3,0.1c-2.6,0.6-5.4,1.6-7.9,2.9c0,0-5.4,1.9-10.3,0.2c-5.7-1.9-5,2.1-5,2.1l0.4,5.4c0,0-0.6,2.5-6.3,0.2
	c0,0-2.1,3.8,0.2,6.9l-4.4-3.5c0,0-1,2.3-6.8,3.5c0,0-5.8,3.3-0.5,10.4c4.8,6.3,12.3,25.2,6,29.4c0,0-5,2.3-11.9,12.2
	c-4,6-8.4,10.2-16.1,13.8c-4.3,1.4-8.5,3-13.1,5l-16.1,5c0,0-11.7,1.7-13.3,13.4c0.8,1,1.2,2.6,1.8,3.5c1.3,1.8,3,3.1,4.4,4.8
	c2.3,2.7,3.8,6,6,8.7c1.9,2.4,4.1,2.3,6.5,0.2c1.8-1.4,9.4-14.4,12.1-8.1c0.8,1.9-2.9,5.7-4,7.1c-2.1,2.4-2.4,5.6-4.1,8.1
	c-6.3,9.5-11.5,25.7,8.5,43.1c1.6,1.4,3.5,2.9,5.4,4.3c14.6,10.4,25,19.3,32.5,26.7c2.3,2.3,4.3,4.4,6.1,6.4h28.3
	c-0.7-4.6-0.6-10.2,0.9-16.7c1.4-6.3,4-16.7,5.8-29.3c0.1,0.2,0.2,0.4,0.3,0.5c0-0.1,0-0.2,0.1-0.3c4.6,10.2,10.4,20.6,18.1,31.1
	c2.3,3.2,4.8,6.3,7.3,9.5c1,1.1,1.9,2.3,2.7,3.5c0,0.5-0.1,1.1-0.1,1.6h15.6h29.9C243.6,503,243.4,502.1,243.2,501.1z M167.9,298.1
	c0,0,0.1,0,0.1,0c0.3-0.1,0.6-0.1,0.9,0c0.6,0.3,1.4,0.8,2.1,1.3c0.1,0.1,0.2,0.1,0.2,0.2c1.1,0.8,2.2,1.8,2.9,3.1
	c0.2,0.3,0.3,0.6,0.4,0.9c0.2,0.6,0.3,1.3,0.2,2c0,0.2,0,0.4-0.1,0.7c0,0,0,0,0,0c0,0.3-0.1,0.6-0.2,0.9c-0.1,0.3-0.1,0.5-0.2,0.8
	c-0.1,0.2-0.2,0.4-0.3,0.6c-0.1,0.3-0.3,0.6-0.4,0.8c-0.5,0.9-1,1.7-1.6,2.4c0,0-0.1,0.1-0.1,0.1c-0.1,0.1-0.2,0.2-0.4,0.2
	c-0.1,0-0.2,0-0.3-0.1c0,0-0.1,0-0.1-0.1c1.1-1.1,1.9-2.5,2.3-4.1c0.3-1.2,0.3-2.3,0.1-3.4c0-0.1,0-0.2-0.1-0.3
	c-0.1-0.3-0.2-0.6-0.4-0.9c-0.2-0.4-0.5-0.8-0.6-1.1c-0.3-0.5-0.7-0.9-1.2-1.3c-0.9-0.8-1.9-1.4-3-1.7c-0.1,0-0.3-0.1-0.4-0.1
	C167.6,298.7,167.6,298.2,167.9,298.1z M164.9,310.5c-0.2,0.6-0.8,0.9-1.6,1.1c-0.1,0-0.3,0-0.5,0c-0.9,0-1.7-0.3-2.5-0.6
	c-0.7-0.5-1.3-1-1.7-1.7c-0.2-0.3-0.4-0.6-0.6-1c-0.3-1-0.1-2.3,0.5-3.3c0.5-0.8,1.3-1.4,2.1-1.7c0.2,0,0.4,0,0.5-0.2l1.4-0.4
	l-0.1,0.2l0.3-0.1l-0.8,1.3c-0.4,0.6-0.5,1.4-0.2,2.3c0.4,0.7,0.8,1.3,1.4,1.7l0.4,0.2c0.2,0.1,0.5,0.3,0.8,0.5
	C164.8,309.2,165,309.8,164.9,310.5z"/>
<path fill="#F05436" d="M163.5,308.2l-0.4-0.2c-0.6-0.4-1.1-1-1.4-1.7c-0.4-0.8-0.2-1.6,0.2-2.3l0.8-1.3l-0.3,0.1l-0.7,1.1
	c-0.4,0.6-0.4,1.4-0.2,2.3c0.4,0.8,0.8,1.4,1.4,1.7l0.4,0.2c0.4,0.2,0.5,0.2,0.8,0.5c0.6,0.5,0.8,1.1,0.6,1.7
	c-0.2,0.6-0.8,1.1-1.6,1.1c-0.2,0-0.4,0-0.5,0c-1,0-1.7-0.4-2.3-0.6c-0.7-0.4-1.2-0.9-1.6-1.5c0.4,0.7,1,1.2,1.7,1.7
	c0.8,0.4,1.6,0.6,2.5,0.6c0.2,0,0.4,0,0.5,0c0.8-0.2,1.4-0.5,1.6-1.1c0.1-0.7-0.2-1.3-0.6-1.8C163.9,308.5,163.7,308.3,163.5,308.2z
	"/>
<path fill="#F05436" d="M171.3,300.7c-0.8-0.8-1.9-1.4-3-1.7C169.3,299.3,170.4,299.9,171.3,300.7z"/>
<path fill="#F05436" d="M174.8,306.1C174.8,306.1,174.8,306.2,174.8,306.1C174.8,306.2,174.8,306.1,174.8,306.1z"/>
<path fill="#F05436" d="M173.5,304.2c0-0.1,0-0.2-0.1-0.3C173.5,304,173.5,304.1,173.5,304.2z"/>
<path fill="#F05436" d="M171.5,311.9c-0.1,0-0.2,0-0.3-0.1C171.3,311.9,171.4,311.9,171.5,311.9z"/>
<path fill="#F05436" d="M174.1,308.4c0.1-0.2,0.2-0.4,0.3-0.6c0.1-0.3,0.1-0.5,0.2-0.8c-0.1,0.3-0.1,0.5-0.2,0.8
	C174.3,308,174.2,308.2,174.1,308.4z"/>
<path fill="#F05436" d="M168.9,298.1c0.8,0.4,1.4,0.8,2.1,1.3c0.1,0.1,0.2,0.1,0.3,0.2c-0.1-0.1-0.2-0.1-0.2-0.2
	C170.4,298.9,169.5,298.4,168.9,298.1c-0.3-0.2-0.5-0.2-0.9,0C168.3,297.9,168.6,298.1,168.9,298.1z"/>
<path fill="#F05436" d="M174.8,305.5c0-0.7,0-1.4-0.2-2c-0.1-0.3-0.3-0.6-0.4-0.9c0.2,0.3,0.3,0.6,0.4,0.9
	C174.7,304.1,174.8,304.8,174.8,305.5z"/>
<path fill="#F05436" d="M171.9,311.7c0,0,0.1-0.1,0.1-0.1c0.6-0.7,1.2-1.5,1.6-2.4c-0.5,0.8-1.1,1.5-1.7,2.4
	C172,311.6,171.9,311.6,171.9,311.7z"/>
<path fill="#F15731" d="M0.1,491.6L0,504h20.9C13.9,499.6,6.9,495.5,0.1,491.6z"/>
<path fill="#F15731" d="M70.2,504h7.7c-1-3-1.9-5.8-2.6-8.4c-0.4-1.3-0.7-2.5-1-3.6c-1,2.4-1.9,4.9-2.8,7.7c0,0,0,0,0,0c0,0,0,0,0,0
	C71,501.1,70.6,502.5,70.2,504z"/>
<path fill="#F15731" d="M70.2,504c0.4-1.5,0.8-2.9,1.3-4.3c0,0,0,0,0,0C71,501.1,70.6,502.5,70.2,504L70.2,504z"/>
<path fill="#16C2EA" d="M195.5,498.6c-2.5-3.2-5-6.3-7.3-9.5c-7.3-10.3-13.3-20.7-17.8-30.5c-1.9,12.4-4.4,22.7-5.8,28.9
	c-1.4,6.4-1.5,11.9-0.9,16.5H198c0-0.6,0.1-1.2,0.1-1.8C197.2,501.1,196.5,499.8,195.5,498.6z"/>
<path fill="#16C2EA" d="M128.9,497.6c-7.5-7.5-17.9-16.3-32.5-26.7c-1.9-1.4-3.8-2.9-5.4-4.3c-20.1-17.5-14.8-33.6-8.5-43.1
	c1.7-2.5,2.1-5.7,4.1-8.1c1.1-1.4,4.8-5.2,4-7.1c-2.7-6.3-10.3,6.7-12.1,8.1c-2.3,2.1-4.6,2.3-6.5-0.2c-2.3-2.7-3.8-6-6-8.7
	c-1.4-1.6-3.2-3-4.4-4.8c-0.5-0.8-0.9-2.5-1.8-3.5c-0.2-0.2-0.3-0.3-0.5-0.5c-0.2-0.2-0.5-0.4-0.8-0.4c-1-0.2-2.5,0.6-2.9,1.6
	c-0.4,0.8,0.4,1.6,0.5,2.5c-1.4-0.4-1.1-2.3-2.7-2.7c-2.5-0.4-2.9,4-1.9,5.8c-2.3-0.6-2.7-0.6-2.9,2.3c0,0.8,2.3,6.5,0.5,6.2
	c0,0-0.2-2.7-1.7-2.1c-1.6,0.6-1.6,3.3-1.3,4.4c1.3,6,1.6,12.1,4.3,17.5c0.8,1.6,1.3,3,2.7,4.1c1.3,1,6.8,9.6,6.9,9.5
	c0,0,7.7,22.8,11.9,36.1c0.5,1.7,1.3,4.3,2.1,7.3c0.1,0.3,0.2,0.6,0.3,1c0.1-0.1,0.1-0.3,0.2-0.4c0.3,1.4,0.8,3,1.3,4.6
	c0.7,2.4,1.5,5.1,2.4,7.9h36.7H135C133.3,502,131.2,499.9,128.9,497.6z"/>
<path fill="#16C2EA" d="M164.5,487.5c1.4-6.2,3.9-16.6,5.8-28.9c-0.1-0.2-0.2-0.4-0.3-0.5c-1.9,12.5-4.4,23-5.8,29.3
	c-1.5,6.5-1.6,12.1-0.9,16.7h0.3C163,499.4,163.2,493.9,164.5,487.5z"/>
<path fill="#16C2EA" d="M77.9,504h0.2c-0.9-2.8-1.7-5.5-2.4-7.9c-0.5-1.6-1-3.2-1.3-4.6c-0.1,0.1-0.1,0.3-0.2,0.4
	c0.3,1.1,0.7,2.3,1,3.6C76,498.2,76.9,501,77.9,504z"/>
</svg>
