<?xml version="1.0" encoding="utf-8"?>
<!-- Generator: Adobe Illustrator 18.1.1, SVG Export Plug-In . SVG Version: 6.00 Build 0)  -->
<svg version="1.1" id="_x31_" xmlns="http://www.w3.org/2000/svg" xmlns:xlink="http://www.w3.org/1999/xlink" x="0px" y="0px"
	 viewBox="0 0 320 500" enable-background="new 0 0 320 500" xml:space="preserve">
<g>
	<path d="M275.3,500h44.6V376.7c-2.3-3.5-5.3-8.7-6.9-12.3c-3.2-7.2-4.2-15.3-5.3-23.6c-0.5-4.2-1.2-8.6-2.1-13
		c-2.3-11.1-8.4-31.1-25.9-40.5c-4.8-2.5-16.5-8.3-28.1-8.8c0,0,0,0-0.2,0c-1.1-8.3-3.3-16.5-7-23.8c-3-6-7.6-10.7-10.6-16.7
		c-1.9-4-1.9-7.9-3.3-12.1c-2.6-8.4-10.9-17.4-20.2-18.6c-17.4-2.3-24.8,4.8-27.3,13.4C96.7,313.3,275.3,500,275.3,500z"/>
	<path id="red_eye" d="M182.5,238.4c-0.4-0.2-0.7-0.4-0.9-0.5l-0.4-0.2c-0.7-0.4-1.2-1.1-1.6-1.9c-0.4-0.9-0.2-1.8,0.2-2.5
		l0.9-1.4l-1.6,0.4c-0.2,0-0.4,0-0.5,0.2l0,0c-0.9,0.4-1.8,0.9-2.3,1.9c-0.7,1.1-0.9,2.5-0.5,3.7c0.4,1.2,1.2,2.1,2.3,2.8l0,0
		c0.9,0.4,1.8,0.7,2.8,0.7c0.2,0,0.4,0,0.5,0c0.9-0.2,1.6-0.5,1.8-1.2C183.3,239.6,183,238.9,182.5,238.4z"/>
	<path id="red_eyebrow" d="M186.5,227.4c1.9,0.5,3.9,1.9,5.1,3.5c0.4,0.4,0.5,0.9,0.7,1.2c0.7,1.6,0.9,3.5,0.4,5.1
		c-0.4,1.8-1.2,3.3-2.5,4.6c0.2,0.4,0.7,0,0.9-0.2c1.1-1.2,1.9-2.6,2.6-4.2c0.5-1.6,0.7-3.3,0.2-4.8c-0.7-1.9-2.5-3.3-4-4.6
		c-0.7-0.5-1.6-1.1-2.3-1.4c-0.4-0.2-0.7-0.2-1.1,0C186.2,226.7,186.2,227.3,186.5,227.4z"/>
	<path id="blue_eye" d="M238.8,323.3c-0.2-0.7-0.9-1.1-1.8-1.1c-0.4,0-0.7,0-1.1,0.2c-0.2,0-0.2,0-0.4,0
		c-0.9,0.2-1.6-0.2-2.3-0.5l0,0c-0.7-0.5-1.1-1.2-1.2-1.9l-0.2-1.6l-1.2,1.2c-0.9,0.9-1.2,1.9-1.1,3.2c0.2,1.4,0.7,2.6,1.8,3.3
		c0.5,0.5,1.4,0.7,2.1,0.9l0,0c0.4,0,0.5,0,0.9,0c1.4,0,2.6-0.5,3.7-1.4C238.8,324.9,239.1,324,238.8,323.3z"/>
	<path id="blue_hand" fill="#16C2EA" d="M73.9,487.6c0,0.9,0,1.8,0.2,2.8C73.9,489.6,73.9,488.5,73.9,487.6
		c-0.2,0-0.2-0.2-0.2-0.2S73.7,487.6,73.9,487.6c-0.2-6.7,0.4-13.7,1.6-20.9c0.9-5.6,2.3-11.1,3.9-16.2
		c-6.5,5.5-15.3,14.3-23.9,26.2c5.8,4,11.4,8.3,17.2,12.7l0.4-2.5l0,0l0,0l-0.4,2.5c0.5,0.4,0.9,0.7,1.4,1.1c4,3.1,8.1,6.3,12.1,9.5
		H88C81.5,493.9,76,489.4,73.9,487.6z"/>
	<path id="blue_face" fill="#16C2EA" d="M268,381.7c-1.9-1.4-5.6-4.2-7.7-8.3c-1.4-2.1-2.5-4.2-3.5-6.5
		c-2.3-5.3-3.9-11.1-4.2-16.7c0-0.7-0.2-1.9,0-3.9c3.9-0.4,9.7-1.1,12-4.8c1.4-2.3,0.9-6.9-1.8-8.1c-3.9-1.8-5.8,3-9.3,3
		c4.4-6,4.4-14.6,0.5-20.8c-0.7-1.2-1.9-2.1-3.3-3.2c-1.8-1.2-4-2.1-6.3-3.2c-3.3-1.4-6.9-3-9.5-4.8c-0.2-0.2-0.5-0.4-0.7-0.5
		c-2.3,3.2-4,6.5-6.5,9.5c-1.2,1.6-2.6,3-4,4.2c-4.4,4-9.9,7-15.5,8.4c2.3,1.4,4.8,2.6,7.4,3.5c-0.4,1.4-2.3,4.2-4,4.8
		c0.2,1.2,2.5,2.3,4,2.8c-0.9,0.5-3.9,0.7-4.8,1.2c0.5,0.7,0.4,1.9-0.2,3c3,3,5.8,6.2,8.6,9.3c1.2,1.4,2.5,2.8,3.5,4
		c2.5,2.8,4.8,5.8,6.9,8.6c3.9,5.1,7.4,10.4,10.7,15.5c1.1,1.6,1.9,3.2,3,4.9c0.7,1.2,1.4,2.3,1.9,3.5c1.4,2.5,2.8,5.1,4.2,7.7
		c3.3,6.3,6.3,12.8,9,19.2c0.5,1.2,1.1,2.5,1.4,3.7c4.4,11.4,7.9,22.9,10.6,34.1c2.3,9.7,3.9,19.4,5.1,28.7
		C317.9,405.1,271.5,383.1,268,381.7z M238.1,325.4c-1.1,0.9-2.3,1.4-3.7,1.4l0,0c-0.4,0-0.5,0-0.9,0c-0.7-0.2-1.6-0.4-2.1-0.9
		c-1.1-0.7-1.6-1.9-1.8-3.3c-0.2-1.2,0.4-2.5,1.1-3.2l1.2-1.2l0.2,1.6c0.2,0.7,0.5,1.4,1.2,1.9c0.7,0.5,1.6,0.9,2.5,0.7
		c0.2,0,0.2,0,0.4,0c0.4,0,0.5-0.2,1.1-0.2l0,0c0.7,0,1.4,0.5,1.8,1.1C239.1,324,238.8,324.9,238.1,325.4z"/>
	<path id="red_body" fill="#F05436" d="M275.2,480.8c-1.2-9.3-2.8-19-5.1-28.7c-2.6-11.3-6-22.9-10.6-34.1
		c-0.5-1.2-0.9-2.5-1.4-3.7c-2.6-6.5-5.6-12.8-9-19.2c-1.4-2.6-2.8-5.1-4.2-7.7c-0.7-1.2-1.4-2.3-1.9-3.5c-1.1-1.6-1.9-3.2-3-4.9
		c-3.3-5.3-6.9-10.4-10.7-15.5c-2.3-3-4.6-5.8-6.9-8.6c-1.2-1.4-2.3-2.8-3.5-4c-2.8-3.2-5.6-6.2-8.6-9.3c-4.9-5.1-10.4-10-16-14.8
		l0,0l-0.2-0.2l0,0l0,0c-1.9-1.6-17.4-15.3-21.1-25.9c-0.7-1.8-0.9-3.5-0.7-5.1c0.2-1.2,0.5-2.5,1.4-3.3c0.4-0.5,0.9-0.9,1.6-1.4
		l0.2-0.2c1.9-1.6,4.2-2.6,6.5-3c4.4-0.7,16.5,0.9,16-6.7c-0.5-6.9-10.7-4.4-14.8-5.6c-19.2-5.8-0.7-22.5,12.3-25.7
		c8.6-2.1,20.8-14.1,15.3-24.5c-7.7-4.2-17.2-7.2-27.3-5.1c-3,0.7-6.2,1.8-9.1,3.3c0,0-6,2.1-11.4,0.2c-6.3-2.1-5.5,2.3-5.5,2.3
		l0.4,6c0,0-0.7,2.8-7,0.2c0,0-2.3,4.2,0.2,7.7l-4.9-3.9c0,0-1.1,2.5-7.6,3.9c0,0-6.5,3.7-0.5,11.6c5.3,7,13.7,28,6.7,32.7
		c0,0-5.5,2.6-13.2,13.5c-4.4,6.7-9.3,11.3-17.9,15.3c-4.8,1.6-9.5,3.3-14.6,5.5l-17.9,5.5c0,0-13,1.9-14.8,15
		c1.2,1.1,7.7,78.3,30.1,97.6c1.8,1.6,67.6,40.5,68.1,41.3c1.2-1.2,2.3-2.3,3.5-3.3c5.1-4.9,10-9.5,14.8-13.7
		c-1.8-6-2.3-13.9-0.2-23.8c1.6-7,4.4-18.6,6.5-32.5c5.1,11.3,11.6,22.9,20.1,34.5c2.5,3.5,5.3,7,8.1,10.6c1.1,1.2,2.1,2.6,3,3.9
		c-1.1,12.2-1.1,29.1,3.7,46.7h53.1C276.5,493.7,276,487.3,275.2,480.8z M186.5,226.6c0.4-0.2,0.7,0,1.1,0c0.9,0.4,1.6,0.9,2.3,1.4
		c1.6,1.2,3.3,2.6,4,4.6c0.5,1.6,0.4,3.3-0.2,4.8c-0.5,1.6-1.6,2.8-2.6,4.2c-0.2,0.4-0.7,0.5-0.9,0.2c1.2-1.2,2.1-2.8,2.5-4.6
		s0.4-3.5-0.4-5.1c-0.2-0.4-0.5-0.9-0.7-1.2c-1.2-1.6-3-3-5.1-3.5C186.2,227.3,186.2,226.7,186.5,226.6z M176.1,234.3
		c0.5-0.9,1.4-1.6,2.3-1.9c0.2,0,0.4,0,0.5-0.2l1.6-0.4l-0.9,1.4c-0.4,0.7-0.4,1.6-0.2,2.5c0.4,0.9,0.9,1.6,1.6,1.9l0.4,0.2
		c0.4,0.2,0.5,0.2,0.9,0.5c0.7,0.5,0.9,1.2,0.7,1.9c-0.2,0.7-0.9,1.2-1.8,1.2c-0.2,0-0.4,0-0.5,0l0,0c-1.1,0-1.9-0.4-2.6-0.7
		c-1.1-0.7-1.9-1.6-2.5-2.8C175.2,236.8,175.4,235.4,176.1,234.3z M224.9,410.6C224.7,410.9,224.7,410.9,224.9,410.6L224.9,410.6z"
		/>
	<path id="red_body" fill="#F15731" d="M0,500h109.2c-5.8-7.8-10.5-16-14.2-23.8c-5.3-11.1-8.6-21.5-10.9-29.6
		c-0.5-1.8-1.1-3.5-1.4-5.1c-1.2,2.8-2.3,5.8-3.3,9c-1.6,5.1-3,10.6-3.9,16.2c-1.2,7.2-1.8,14.3-1.6,20.9c2.1,1.7,7.6,6.2,14.1,12.4
		h-1.8c-4-3.3-8.1-6.5-12.1-9.5c-0.5-0.4-0.9-0.7-1.4-1.1c-5.8-4.4-11.4-8.6-17.2-12.7c-18.8-13.3-37.5-25-55.4-35.1"/>
	<path id="hand" fill="#16C2EA" d="M223.8,500c-4.8-17.5-4.8-34.5-3.7-46.7c-1.1-1.2-1.9-2.6-3-3.9c-2.8-3.5-5.6-7-8.1-10.6
		c-8.3-11.6-15-23.4-20.1-34.5c-2.1,13.9-4.9,25.5-6.5,32.5c-2.3,9.9-1.6,17.8,0.2,23.8c-4.8,4.2-9.5,8.8-14.8,13.7
		c-1.2,1.1-2.3,2.3-3.5,3.3c-0.5-1.1-2.3-10.7-21.1-29.4c-8.3-8.3-19.9-18.1-36.1-29.7c-2.1-1.6-4.2-3.2-6-4.8
		c-22.3-19.4-16.5-37.3-9.5-47.9c1.9-2.8,2.3-6.3,4.6-9c1.2-1.6,5.3-5.8,4.4-7.9c-3-7-11.4,7.4-13.4,9c-2.6,2.3-5.1,2.5-7.2-0.2
		c-2.5-3-4.2-6.7-6.7-9.7c-1.6-1.8-3.5-3.3-4.9-5.3c-0.7-1.1-1.2-3.5-2.5-4.4c-0.2-0.2-0.5-0.4-0.9-0.4c-1.1-0.2-2.8,0.7-3.2,1.8
		c-0.4,0.9,0.4,1.8,0.5,2.8c-1.6-0.4-1.2-2.6-3-3c-2.8-0.4-3.2,4.4-2.1,6.5c-2.6-0.7-3-0.7-3.2,2.6c0,0.9,2.5,7.2,0.5,6.9
		c0,0-0.2-3-1.9-2.3c-1.8,0.7-1.8,3.7-1.4,4.9c1.4,6.7,1.8,13.4,4.8,19.4c0.9,1.8,1.4,3.3,3,4.6c1.4,1.1,7.6,10.7,7.7,10.6
		c0,0,8.6,25.3,13.2,40.1c0.5,1.9,1.4,4.8,2.3,8.1c0.4,1.6,0.9,3.2,1.4,5.1c2.3,8.1,5.8,18.5,10.9,29.6c3.7,7.9,8.5,16.2,14.4,24.1
		H223.8z"/>
</g>
</svg>
