<?xml version="1.0" encoding="utf-8"?>
<!-- Generator: Adobe Illustrator 18.1.1, SVG Export Plug-In . SVG Version: 6.00 Build 0)  -->
<svg version="1.1" id="_x31__1_" xmlns="http://www.w3.org/2000/svg" xmlns:xlink="http://www.w3.org/1999/xlink" x="0px" y="0px"
	 viewBox="0 0 320 500" enable-background="new 0 0 320 500" xml:space="preserve">
<path id="back_leg" fill="#8DC541" d="M248.3,378.1c-1.3-0.7-2.5-1.3-3.8-2c1.4-0.6,2.4-2.1,2.4-3.8c0-1.5-1.1-3.1-2.6-3.7
	c-2.1,2.4-5.8,3-8.9,2.4c-3.1-0.6-6.1-2.3-8.9-3.9c-10.5-6.2-21.1-12.3-31.5-18.4c-15.6-9-21.2-16.1-21.2-16.1s-11.7-12-30.5-29.4
	c-0.8,0-1.7,0-2.6,0c-69.3,0.2-113.8-37.5-113.8-37.5c4.6,9,9,17.7,13,26.1c16.3,10.9,39.2,22.1,68.6,27
	c33.9,5.6,50.6,30.3,50.6,30.3c7.4,6.9,10.8,13.3,12,16.3c1,2.5,0.5,5.4,0.5,8.1c0,2.7,0.5,5.5,2,7.7c1.5,2.1,4.2,3.3,6.7,3.7
	s5.2,0.1,7.7-0.4c8.2-1.3,16.5-3.8,24.6-1.8c3.6,0.8,6.9,2.6,10.4,3.7c3.5,1.1,7.4,1.7,10.7,0.1c0.6,1.4,1.3,3.1,2.6,3.8
	c1.4,0.8,3.6,0.1,3.7-1.5c1,1.3,3.2,1.5,4.3,0.4c1.2-1.2,1-3.5-0.5-4.3c1.4,1.1,3.8,0,4-1.8c-0.4-0.4-0.7-0.7-1.1-1.2
	c0.7-0.2,1.5-0.6,2-1.2c0.5-0.6,0.7-1.5,0.2-2.3C248.9,378.5,248.5,378.3,248.3,378.1z"/>
<path id="front_leg" fill="#8DC541" d="M290.4,333c-0.2-0.2-0.7-0.4-1.1-0.5c-1.4-0.5-2.9-1-4.3-1.3c1.3-1,2-2.7,1.7-4.3
	c-0.4-1.7-1.8-3-3.3-3.2c-1.8,2.9-5.4,4.2-8.7,4.2c-3.3,0-6.7-1.2-9.9-2.4c-11.9-4.3-23.8-8.6-35.8-12.9
	c-17.6-6.3-24.6-12.4-24.6-12.4S94.6,221.6,0,196v304h67.4c40.1-57.5-10-165-32-210.9c-4-8.9-8.4-18.2-13.3-27.8
	c0,0,41.7,38.9,112.9,37.5c35.7-0.7,57.5,21.4,57.5,21.4c8.8,5.7,13.7,11.5,15.5,14.4c1.4,2.4,1.4,5.4,2,8.2
	c0.6,2.7,1.5,5.6,3.6,7.5c2,1.9,4.9,2.6,7.5,2.5c2.7-0.1,5.4-1,7.9-1.8c8.1-3,16.2-7,24.9-6.5c3.8,0.2,7.5,1.3,11.3,1.8
	s7.9,0.2,10.9-1.9c0.8,1.4,1.9,3,3.5,3.5c1.5,0.5,3.7-0.6,3.5-2.3c1.2,1.2,3.6,1,4.5-0.5c1-1.4,0.2-3.7-1.3-4.3
	c1.7,0.8,3.9-0.8,3.7-2.6c-0.5-0.4-1-0.6-1.3-1c0.7-0.5,1.4-1,1.9-1.7C291,334.5,291,333.5,290.4,333z M35.5,288.8
	c-0.1,0-0.1-0.1-0.1-0.1C35.5,288.8,35.5,288.8,35.5,288.8z"/>
</svg>
