<?xml version="1.0" encoding="utf-8"?>
<!-- Generator: Adobe Illustrator 18.1.1, SVG Export Plug-In . SVG Version: 6.00 Build 0)  -->
<svg version="1.1" id="about5" xmlns="http://www.w3.org/2000/svg" xmlns:xlink="http://www.w3.org/1999/xlink" x="0px" y="0px"
	 viewBox="0 0 320 500" enable-background="new 0 0 320 500" preserveAspectRatio="xMinYMid slice" xml:space="preserve">
<path id="right_leg" fill="#FFFFFF" d="M235.5,409.3c-0.9-4,3.9-8.4,3.9-8.4c22.3-17.7,34.2-58.7,32.3-77.1
	c-1.9-18.4,5.9-48.9,5.9-48.9c0.4-0.7,0.6-1.1,0.6-1.1c1.4-2.1,2.8-5.2,3-8.4c0.3-3.2,3.5-11.9,3.5-11.9s5.4-12.8,7.2-17.8
	c1.9-5.5-2.6-5.6-2.6-5.6c0-3.6-3.9-3-3.9-3c-1.1-3.9-3.9-2.4-3.9-2.4c0.5-1.7-1.9-2.7-1.9-2.7c-1.6-0.7-2.4,0.9-2.4,0.9
	c0-1.8-2.4-2.8-2.4-2.8c-4.6-1.5-3.9,3.7-3.8,4.7s-0.7,3.4-0.7,3.4c-0.9,2.3-0.3,6.3,0.5,8.2c0.7,2,0.4,10-0.2,12.5
	c-0.6,2.4-1.6,7.2-1.7,9.2s-1.1,3.6-1.1,3.6c-2,2.6-2.7,5.6-2.8,8c0,1-0.7,2.8-1.4,4.6c-15.7,27.5-24.5,52.7-27,58.6
	c-2.6,6.1-19.4,43.5-19.4,43.5c-4.9,5.5-11.4,22.2-11.4,22.2c-27.4,45.6-28.7,86.6-31.1,101.4h54.7
	C246.5,460.5,236.2,412.5,235.5,409.3z"/>
<path id="left_leg" fill="#FFFFFF" d="M114.2,398.6c0,0-6.6-16.8-11.4-22.2c0,0-16.8-37.4-19.4-43.5
	c-2.5-5.8-11.1-30.5-26.6-57.7l0,0c0,0-1.8-3.1-1.9-5.4c-0.1-2.3-0.8-5.4-2.8-8c0,0-1-1.6-1.1-3.6s-1.1-6.8-1.7-9.2
	c-0.6-2.4-0.9-10.5-0.2-12.5s1.4-5.9,0.5-8.2c0,0-0.8-2.4-0.7-3.4s0.8-6.2-3.8-4.7c0,0-2.5,1-2.4,2.8c0,0-0.8-1.6-2.4-0.9
	c0,0-2.4,1-1.9,2.7c0,0-2.8-1.4-3.9,2.4c0,0-3.9-0.6-3.9,3c0,0-4.5,0.1-2.6,5.6c1.7,5,7.2,17.8,7.2,17.8s3.3,8.7,3.5,11.9
	c0.3,3.2,1.6,6.4,3,8.4c0,0,2.9,19.3,1,37.7c-1.9,18.4-5.8,42,37.8,89.4c0,0,4.8,4.3,3.9,8.4c-0.7,3.2-11,51.1,6.1,90.6h54.7
	C142.9,485.1,141.7,444.2,114.2,398.6z"/>
</svg>
