<?xml version="1.0" encoding="utf-8"?>
<!-- Generator: Adobe Illustrator 18.1.1, SVG Export Plug-In . SVG Version: 6.00 Build 0)  -->
<!DOCTYPE svg PUBLIC "-//W3C//DTD SVG 1.1//EN" "http://www.w3.org/Graphics/SVG/1.1/DTD/svg11.dtd">
<svg version="1.1" id="Layer_1" xmlns="http://www.w3.org/2000/svg" xmlns:xlink="http://www.w3.org/1999/xlink" x="0px" y="0px" viewBox="0 0 140 188"
	 enable-background="new 0 0 140 188" xml:space="preserve">
		<g>
			<defs>
				<rect id="SVGID_1_" width="140" height="188"/>
			</defs>
			<clipPath id="SVGID_2_">
				<use xlink:href="#SVGID_1_"  overflow="visible"/>
			</clipPath>
			<g clip-path="url(#SVGID_2_)">
				<path fill="#FFFFFF" d="M78.9,204.4c0,0,1.9-21,17-49.5c0,0,2.7-8,4.8-10.6c0,0,6.9-17.8,8-20.7c1.1-2.9,4.8-15.7,12-29.5
					l5.8,1.6c0,0-3.1,14.4-1.7,22.9c1.3,8.5-3.2,27.9-13.2,36.7c0,0-2.1,2.1-1.6,4c0.5,1.9,4.3,37-14.1,55.6L78.9,204.4z"/>
				<path fill="#FFFFFF" d="M119,98c0,0,1.5-3.5,1.5-4.6c0-1.1,0.2-2.5,1.1-3.8c0,0,0.4-0.8,0.4-1.7c0-0.9,0.4-3.2,0.6-4.3
					c0.2-1.2,0.2-4.9-0.2-5.8s-0.8-2.7-0.4-3.8c0,0,0.3-1.1,0.2-1.6s-0.5-2.9,1.7-2.3c0,0,1.2,0.4,1.2,1.2c0,0,0.3-0.8,1.1-0.5
					c0,0,1.1,0.4,0.9,1.2c0,0,1.3-0.7,1.9,1c0,0,1.8-0.4,1.9,1.3c0,0,2.1,0,1.3,2.5c-0.7,2.4-2.9,8.5-2.9,8.5s-1.3,4.1-1.4,5.6
					s-0.6,3-1.2,4c0,0-0.7,1.6-1.3,2.8C125.3,97.9,118.9,98,119,98z"/>
			</g>
			<g clip-path="url(#SVGID_2_)">
				<path fill="#FFFFFF" d="M61.1,204.4c0,0-1.9-21-17-49.5c0,0-2.7-8-4.8-10.6c0,0-6.9-17.8-8-20.7c-1.1-2.9-4.8-15.7-12-29.5
					l-5.8,1.6c0,0,0.8,8.5-0.5,17s-3.7,19.4,15.4,42.5c0,0,2.1,2.1,1.6,4c-0.5,1.9-4.3,37,14.1,55.6L61.1,204.4z"/>
				<path fill="#FFFFFF" d="M20.5,95.8c0,0-1-1.3-0.9-2.4c0-1.1-0.2-2.5-1.1-3.8c0,0-0.4-0.8-0.4-1.7c0-0.9-0.4-3.2-0.6-4.3
					c-0.2-1.2-0.2-4.9,0.2-5.8s0.8-2.7,0.4-3.8c0,0-0.3-1.1-0.2-1.6c0.1-0.5,0.5-2.9-1.7-2.3c0,0-1.2,0.4-1.2,1.2
					c0,0-0.3-0.8-1.1-0.5c0,0-1.1,0.4-0.9,1.2c0,0-1.3-0.7-1.9,1c0,0-1.8-0.4-1.9,1.3c0,0-2.1,0-1.3,2.5c0.7,2.4,2.9,8.5,2.9,8.5
					s1.3,4.1,1.4,5.6c0,1.5,0.6,3,1.2,4c0,0,0.7,1.6,1.3,2.8C14.7,97.9,20.6,95.8,20.5,95.8z"/>
			</g>
		</g>
</switch>
</svg>
