<?xml version="1.0" encoding="utf-8"?>
<!-- Generator: Adobe Illustrator 18.1.1, SVG Export Plug-In . SVG Version: 6.00 Build 0)  -->
<svg version="1.1" id="Layer_1" xmlns="http://www.w3.org/2000/svg" xmlns:xlink="http://www.w3.org/1999/xlink" x="0px" y="0px"
	 viewBox="0 0 129.3 155.9" enable-background="new 0 0 129.3 155.9" xml:space="preserve">
<g>
	<path fill="#F05429" d="M91.9,132.5c-1.4,5.4-3.4,9.7-6,12.7c-2.6,3-5.8,5.1-9.4,6.2c-3.7,1.1-7.9,1.6-12.5,1.6
		c-4.5,0-8.7-0.2-12.6-0.7V74.1H64c7.2,0,12.8,1.5,16.8,4.4c4,3,6.9,6.5,8.9,10.5c2,4.1,3.1,8.1,3.6,12.3c0.4,4.1,0.7,7.4,0.7,9.9
		C94,120,93.3,127.1,91.9,132.5 M51.4,4c1.6-0.1,3.2-0.3,4.8-0.4c1.6-0.1,3.2-0.2,4.8-0.2c5.5,0,10,0.7,13.6,2.2
		c3.5,1.4,6.3,3.7,8.4,6.6c2,3,3.5,6.7,4.3,11.3c0.9,4.6,1.3,10,1.3,16.4c0,3.9-0.3,7.7-0.8,11.5c-0.5,3.8-1.7,7.1-3.6,10.1
		c-1.9,3-4.7,5.3-8.5,7.1C72,70.2,66.8,71,60.3,71h-8.9V4z M124.3,94.5c-3.3-5.1-7.5-9.1-12.6-12.3c-5.1-3.1-10.6-5.4-16.7-6.8
		C89,73.9,83.1,73,77.5,72.5v-0.9c33.1,0,44.9-32.7,45.5-39.7l1.2-0.9c0.3-0.2,0.4-0.7,0.2-1l-0.5-0.8c-0.2-0.3-0.9-0.2-0.9-0.2
		C118.8,30.7,93,1,72.7,0.3C45.4-0.6,0,0.9,0,0.9v3h20v148.4H0v3h32.8c6.1,0,12.1,0.1,18.1,0.2c6,0.1,12,0.2,18.1,0.2
		c5.5,0,11.7-0.6,18.7-1.8c6.9-1.2,13.5-3.4,19.6-6.6c6.1-3.2,11.4-7.5,15.6-13c4.3-5.5,6.4-12.4,6.4-20.8
		C129.3,105.9,127.7,99.5,124.3,94.5"/>
</g>
</svg>
