<?xml version="1.0" encoding="utf-8"?>
<!-- Generator: Adobe Illustrator 18.1.1, SVG Export Plug-In . SVG Version: 6.00 Build 0)  -->
<svg version="1.1" id="Layer_1" xmlns="http://www.w3.org/2000/svg" xmlns:xlink="http://www.w3.org/1999/xlink" x="0px" y="0px"
	 viewBox="0 0 129.3 156.5" enable-background="new 0 0 129.3 156.5" xml:space="preserve">
<g>
	<path fill="#E6B422" d="M58.5,79.2c12.4,0,21.3-2.8,26.9-8.4c5.5-5.6,8.3-15.1,8.3-28.6c0-12.7-2.4-22.4-7.2-29.1
		C81.7,6.4,73,3.1,60.3,3.1c-1.6,0-3.1,0.1-4.6,0.2c-1.5,0.1-2.8,0.3-3.9,0.4v75.5H58.5z M118.6,47.2c1.7,16.3-17,28.9-27.5,31.9
		c-8.6,2.1-18.7,3.3-30.4,3.3h-9v71.1h20.1v3.1H0v-3.1h20.1V3.7H0V0.7h20.1c7.4,0,14.9-0.1,22.3-0.3S57.2,0,64.7,0
		c6.6,0,13.6,0.5,21.2,1.6c7.6,1.1,14.6,3.1,21,6.1c6.4,3,11.8,7.2,16.1,12.5c4.3,5.3,6.4,12.2,6.4,20.7c0,5.7-2.6,34.2-28.5,35.5
		C100.8,76.4,121.3,66.3,118.6,47.2"/>
</g>
</svg>
