<?xml version="1.0" encoding="utf-8"?>
<!-- Generator: Adobe Illustrator 18.1.1, SVG Export Plug-In . SVG Version: 6.00 Build 0)  -->
<svg version="1.1" id="_x32_" xmlns="http://www.w3.org/2000/svg" xmlns:xlink="http://www.w3.org/1999/xlink" x="0px" y="0px"
	 viewBox="0 144 320 211.9" enable-background="new 0 144 320 211.9" xml:space="preserve">
<g>
	<path id="blue_face_4_" fill="#21C4F1" d="M319.8,355.6v-51.1c-16.3-6-31.4-20.3-28.3-53.4c0.2-4.4,0.8-9.2,1.7-14.4
		c0,0,0.2-12.9,13.8-22.7c-1.8,1-3.6,2.1-5.4,3.3c0.1,0-20.1,13.7-32.2,11.5c0,0-13.2,0.3-27.6-8.4c0.5,0.7,1,1.4,1.5,2.1
		c-3.9,5.8-9.9,9.9-16.4,11.4c-1.2-3-2.5-6.2-5.1-8s-6.7-1.1-7.4,2.1c-0.6,2.4,1,4.8,2.5,6.8c-6.3,0.4-12.6-2.5-17-7.6
		c-3,6-9.1,14.9-15.3,18.9c-0.2,7.8,1.7,16.6,7,26.4l4.1,11.3l6.6-7l22,11.3c0,0,9.4,3.2,11.7-8.1c0,0,3.7-11,13-6.5
		c0,0,10.8,4.3,13.9,19.5c0,0,2.5,28.4,24.1,49.2c6.4,2.9,12.5,6.9,17.9,12.2c0.8,0.4,1.6,0.7,2.4,1.1L319.8,355.6L319.8,355.6z
		 M196.2,252.1c-0.3,0.7-0.5,1.5-1.3,1.8c-0.6-2.2,0.3-4.6,1.5-6.4c0.9-1.4,2.3-2.8,3.9-2.5c0.8,0.1,1.7,0.8,1.7,1.6
		C199.4,247.3,197.3,249.4,196.2,252.1z M202.7,258.2c-0.4,0.5-0.8,1.1-1.4,1c-0.2,0-0.5-0.1-0.6-0.1c-2.1-1.3-2.6-4.4-0.8-6.4
		s5.3-2.3,7-0.7C205.5,254,204.1,256.1,202.7,258.2z"/>
	<path id="blue_shoulder_4_" fill="#21C4F1" d="M315.5,210.2c1.4-0.5,2.8-0.9,4.3-1.3v-1.4c-5.2,1.8-9.4,4.1-12.7,6.5
		c-13.6,9.8-13.8,22.7-13.8,22.7c-1,5.2-1.5,10-1.7,14.4c-1.3,29,12.6,42.8,28.3,49.3v-87.2v-4.3
		C318.4,209.2,316.9,209.7,315.5,210.2z"/>
	<path id="blue_eyebrow_4_" d="M200.3,244.9c-1.7-0.3-3,1.1-3.9,2.5c-1.1,1.9-2.1,4.2-1.5,6.4c0.7-0.2,1-1,1.3-1.8
		c1.1-2.7,3.2-4.8,5.9-5.5C202,245.7,201.2,245.1,200.3,244.9z"/>
	<path id="hair_4_" d="M241.8,220.3c-3.1-4.1-6.3-8.1-9.8-11.9c-2.4-2.7-5.1-5.4-8.3-6.7c-6.9-2.8-21.4-5.8-37.8,27.5
		c-2,4-7,18.1-11.1,17.8c3,2,6.4,1.2,9.9-1c6.2-4,12.3-12.9,15.3-18.9c4.4,5.1,10.7,8,17,7.6c-1.5-2-3.1-4.4-2.5-6.8
		c0.7-3.2,4.8-3.9,7.4-2.1c2.6,1.8,3.9,5,5.1,8c6.6-1.4,12.5-5.5,16.4-11.4C242.9,221.7,242.4,221,241.8,220.3z"/>
	<path id="blue_eye_4_" d="M199.9,252.7c-1.8,2-1.3,5.1,0.8,6.4c0.1,0,0.4,0.1,0.6,0.1c0.6,0,1-0.6,1.4-1c1.4-2.1,2.8-4.2,4.2-6.2
		C205.2,250.4,201.7,250.8,199.9,252.7z"/>
	<path id="purple_body_4_" fill="#88236A" d="M202.8,317.5c-6.4-12.1-16.2-20.2-16.2-20.2l9.4-13.6c-31.6-17.6-48-10.3-48-10.3
		c-40.3,22.8-22.4,40.1-22.4,40.1c7.4,10.3,19.7,33.2,24.4,42.2h156.1c-0.4-0.4-0.7-0.7-1.1-1.1c-5.4-5.3-11.5-9.3-17.9-12.2
		c-41.1-18.9-97.6,5.1-97.6,5.1l-4.8-15.4L202.8,317.5c0,0-12.3-16.6-16.1-20.1 M171.3,293.5c-0.4,0.4-1,0.7-1.4,0.6
		c-0.2,0-0.5-0.1-0.4-0.2c-1.8-1.3-1.5-4.1,0.4-5.4s5.2-1.1,6.5,0.6C174.7,290.5,173,292,171.3,293.5z"/>
	<path id="purple_eye_4_" d="M169.9,288.4c-1.9,1.3-2.2,4.1-0.4,5.4c-0.1,0.1,0.1,0.2,0.4,0.2c0.5,0.1,1.1-0.2,1.4-0.6
		c1.7-1.4,3.4-3,5.1-4.4C175,287.3,171.8,287.1,169.9,288.4z"/>
	<path id="purple_eyebrow_4_" d="M168.7,283.5c-1.7-0.2-3.1,1.1-4.1,2.4c-1.3,1.8-2.4,4.1-1.8,6.4c0.7-0.2,1.1-1,1.3-1.7
		c1.2-2.6,3.5-4.7,6.1-5.4C170.2,284.3,169.5,283.6,168.7,283.5z"/>
	<path id="beard_4_" d="M194,316.7c-10.8,5.2-14-6.4-14-6.4l11.7-8.1c-1.2-1.3-5-4.8-5-4.8c-11.4,7.4-9.7,12.7-9.7,12.6
		c8.1,19.7,17,14.5,17,14.5l8.8-6.9c-1.1-2-3.8-6.3-3.8-6.3C198.6,315.1,194,316.7,194,316.7z"/>
</g>
</svg>
