<?xml version="1.0" encoding="utf-8"?>
<!-- Generator: Adobe Illustrator 18.1.1, SVG Export Plug-In . SVG Version: 6.00 Build 0)  -->
<svg version="1.1" id="Layer_3" xmlns="http://www.w3.org/2000/svg" xmlns:xlink="http://www.w3.org/1999/xlink" x="0px" y="0px"
	 viewBox="0 144 320 211.9" enable-background="new 0 144 320 211.9" xml:space="preserve">
<g>
	<path fill="none" d="M60.1,259.3c-0.1,0-0.1-0.1-0.1-0.1C59.9,259.3,60,259.3,60.1,259.3z"/>
	<path fill="none" d="M60.4,259.6c0,0-0.1,0-0.2-0.1C60.3,259.5,60.4,259.5,60.4,259.6z"/>
	<path fill="none" d="M238.2,337.6c-0.5,0.5-1.1,0.8-1.7,1c0.3,0.3,0.6,0.6,0.9,1c-0.1,1.5-2.1,2.4-3.4,1.5c1.2,0.8,1.4,2.6,0.4,3.6
		c-1,1-2.8,0.8-3.6-0.3c0,1.3-1.9,1.9-3.1,1.3c-1.2-0.7-1.7-2-2.2-3.2c-2.8,1.2-6.1,0.8-9-0.1c-2.9-0.9-5.7-2.4-8.7-3.1
		c-6.8-1.7-13.8,0.4-20.7,1.5c-2.2,0.3-4.4,0.6-6.5,0.3c-2.2-0.3-4.3-1.3-5.6-3.1c-1.4-1.8-1.7-4.2-1.7-6.5s0.4-4.6-0.4-6.8
		c-1-2.5-3.9-7.9-10.1-13.7c0,0-14.1-20.8-42.5-25.5c-24.8-4.1-43.9-13.5-57.6-22.7c-3.4-7.1-7-14.4-10.9-21.9
		c0,0,37.4,31.7,95.6,31.5c0.7,0,1.5,0,2.2,0c15.8,14.6,25.6,24.7,25.6,24.7s4.7,5.9,17.8,13.5c8.8,5.2,17.7,10.3,26.5,15.5
		c2.4,1.4,4.8,2.8,7.5,3.3s5.7,0,7.5-2c1.2,0.5,2.1,1.8,2.2,3.1c0,1.3-0.8,2.6-2,3.2c1.1,0.6,2.1,1.1,3.2,1.7
		c0.3,0.1,0.5,0.3,0.7,0.5C238.8,336.3,238.7,337.1,238.2,337.6z"/>
	<path fill="none" d="M60.2,259.5L60.2,259.5C60.2,259.4,60.2,259.5,60.2,259.5z"/>
	<path fill="#080B0C" d="M3.2,355.9h0.3c-0.1-0.8-0.2-1.5-0.4-2.3L3.2,355.9z"/>
	<path fill="#8DC541" d="M237.7,335.2c-1.1-0.6-2.1-1.1-3.2-1.7c1.2-0.5,2-1.8,2-3.2c0-1.3-0.9-2.6-2.2-3.1c-1.8,2-4.9,2.5-7.5,2
		s-5.1-1.9-7.5-3.3c-8.8-5.2-17.7-10.3-26.5-15.5c-13.1-7.6-17.8-13.5-17.8-13.5s-11.8-12-27.6-26.6c-0.7,0-1.4,0-2.2,0
		c-58.2,0.2-93.5-29.6-93.5-29.6c3.9,7.6,7.6,14.9,10.9,21.9c13.7,9.2,32.9,18.6,57.6,22.7c28.5,4.7,42.5,25.5,42.5,25.5
		c6.2,5.8,9.1,11.2,10.1,13.7c0.8,2.1,0.4,4.5,0.4,6.8s0.4,4.6,1.7,6.5c1.3,1.8,3.5,2.8,5.6,3.1s4.4,0.1,6.5-0.3
		c6.9-1.1,13.9-3.2,20.7-1.5c3,0.7,5.8,2.2,8.7,3.1c2.9,0.9,6.2,1.4,9,0.1c0.5,1.2,1.1,2.6,2.2,3.2c1.2,0.7,3,0.1,3.1-1.3
		c0.8,1.1,2.7,1.3,3.6,0.3c1-1,0.8-2.9-0.4-3.6c1.2,0.9,3.2,0,3.4-1.5c-0.3-0.3-0.6-0.6-0.9-1c0.6-0.2,1.3-0.5,1.7-1
		c0.4-0.5,0.6-1.3,0.2-1.9C238.2,335.5,237.9,335.4,237.7,335.2z"/>
	<path fill="#8DC541" d="M59.9,259.3C59.8,259.2,59.9,259.2,59.9,259.3L59.9,259.3z"/>
	<path fill="#8DC541" d="M60.3,259.5C60.2,259.5,60.2,259.5,60.3,259.5C60.2,259.5,60.2,259.5,60.3,259.5z"/>
	<path fill="#8DC541" d="M60.2,259.4c-0.1,0-0.1-0.1-0.1-0.1C60.1,259.4,60.1,259.4,60.2,259.4z"/>
	<path fill="#8DC541" d="M275.2,292.6c-0.2-0.2-0.6-0.3-0.9-0.4c-1.2-0.4-2.4-0.7-3.6-1.1c1.1-0.8,1.7-2.3,1.4-3.6
		c-0.3-1.4-1.5-2.5-2.9-2.7c-1.5,2.4-4.4,3.6-7.3,3.6c-2.8,0-5.6-0.9-8.3-1.8c-10.1-3.4-20.2-6.8-30.3-10.2c-14.9-5-20.9-10-20.9-10
		S104,198.7,22.9,180.6c0,0-0.1,0.4-0.4,1.1c0,0,0,0-0.1,0l0,0.1C20,189,5.7,228.1,0,277v23.7v55.1h93.8
		c-5.4-25.3-16.4-57-34.9-95.6c-3.4-7.5-7.1-15.3-11.2-23.4c0,0,36.6,31.6,96.5,29.3c30-1.2,48.7,17.1,48.7,17.1
		c7.5,4.6,11.6,9.5,13.2,11.9c1.3,2,1.3,4.5,1.8,6.8c0.5,2.3,1.4,4.7,3.1,6.2c1.7,1.5,4.1,2.1,6.4,2c2.3-0.1,4.5-0.8,6.6-1.6
		c6.8-2.6,13.5-6.2,20.8-5.9c3.2,0.1,6.3,1,9.5,1.3c3.2,0.3,6.6,0.1,9.2-1.8c0.8,1.2,1.6,2.4,3,2.8c1.3,0.4,3.1-0.6,2.8-2
		c1.1,1,3,0.8,3.8-0.4c0.8-1.2,0.2-3.1-1.2-3.6c1.4,0.7,3.3-0.7,3.1-2.3c-0.4-0.3-0.8-0.5-1.2-0.8c0.6-0.4,1.2-0.8,1.6-1.4
		C275.8,294,275.8,293.1,275.2,292.6z M58.9,260.3c-0.1,0-0.1-0.1-0.1-0.1C58.9,260.2,58.9,260.2,58.9,260.3z"/>
</g>
</svg>
