<?xml version="1.0" encoding="utf-8"?>
<!-- Generator: Adobe Illustrator 18.1.1, SVG Export Plug-In . SVG Version: 6.00 Build 0)  -->
<svg version="1.1" id="_x33_" xmlns="http://www.w3.org/2000/svg" xmlns:xlink="http://www.w3.org/1999/xlink" x="0px" y="0px"
	 viewBox="0 144 320 211.9" enable-background="new 0 144 320 211.9" xml:space="preserve">
<g>
	<path id="blue_face_2_" fill="#21C4F1" d="M319.8,355.6v-51.1c-16.3-6-31.4-20.3-28.3-53.4c0.2-4.4,0.8-9.2,1.7-14.4
		c0,0,0.2-12.9,13.8-22.7c-1.8,1-3.6,2.1-5.4,3.3c0.1,0-20.7,11.7-32.8,9.8c0,0-13.2,0.7-27.9-7.5c0.5,0.7,1.1,1.4,1.6,2.1
		c-3.7,6-9.5,10.3-16,11.9c-1.3-3-2.7-6.1-5.4-7.8c-2.6-1.7-6.7-0.9-7.3,2.4c-0.5,2.4,1.2,4.8,2.7,6.7c-6.2,0.6-12.7-2.1-17.3-7
		c-2.8,6.1-8.6,15.2-14.7,19.4c0.1,7.8,2.3,16.5,8,26.1l4.5,11.2l6.4-7.2l22.4,10.5c0,0,9.5,2.9,11.4-8.5c0,0,3.3-11.1,12.8-6.9
		c0,0,10.9,3.9,14.6,19c0,0,0.9,29.8,22.5,50.7c6.4,2.9,12.5,6.9,17.9,12.2c0.8,0.4,1.6,0.7,2.4,1.1L319.8,355.6L319.8,355.6z
		 M196.4,253c-0.2,0.7-0.5,1.6-1.2,1.8c-0.7-2.2,0.1-4.6,1.2-6.5c0.8-1.4,2.2-2.9,3.9-2.6c0.8,0.1,1.7,0.7,1.8,1.6
		C199.4,248.1,197.4,250.3,196.4,253z M203.1,258.9c-0.4,0.5-0.7,1.1-1.3,1.1c-0.2,0-0.5-0.1-0.6-0.1c-2.2-1.2-2.7-4.3-1.1-6.4
		c1.7-2,5.2-2.5,7-0.9C205.8,254.6,204.4,256.8,203.1,258.9z"/>
	<path id="blue_shoulder_2_" fill="#21C4F1" d="M315.5,210.2c1.4-0.5,2.8-0.9,4.3-1.3v-1.4c-5.2,1.8-9.4,4.1-12.7,6.5
		c-13.6,9.8-13.8,22.7-13.8,22.7c-1,5.2-1.5,10-1.7,14.4c-1.3,29,12.6,42.8,28.3,49.3v-87.2v-4.3
		C318.4,209.2,316.9,209.7,315.5,210.2z"/>
	<path id="blue_eyebrow_2_" d="M200.3,245.7c-1.7-0.2-3,1.2-3.9,2.6c-1.1,1.9-1.9,4.3-1.2,6.5c0.7-0.2,1-1.1,1.2-1.8
		c1-2.8,3-4.9,5.7-5.7C202,246.4,201.1,245.8,200.3,245.7z"/>
	<path id="hair_2_" d="M240.9,219.6c-3.2-4-6.6-7.8-10.2-11.6c-2.5-2.7-5.3-5.2-8.5-6.4c-7-2.6-21.6-5-36.9,28.8
		c-1.8,4.1-6.3,18.3-10.5,18.2c3.1,1.9,6.5,1,9.8-1.3c6.1-4.3,11.8-13.3,14.7-19.4c4.5,4.9,11,7.6,17.3,7c-1.6-1.9-3.2-4.3-2.7-6.7
		c0.6-3.2,4.7-4.1,7.3-2.4c2.6,1.7,4.1,4.8,5.4,7.8c6.5-1.7,12.3-5.9,16-11.9C242,221,241.5,220.3,240.9,219.6z"/>
	<path id="blue_eye_2_" d="M200.1,253.5c-1.7,2-1.1,5.2,1.1,6.4c0.1,0,0.4,0.1,0.6,0.1c0.6,0,1-0.6,1.3-1.1c1.3-2.2,2.7-4.3,4-6.3
		C205.3,251,201.8,251.5,200.1,253.5z"/>
	<path id="purple_body_2_" fill="#88236A" d="M202.8,317.5c-6.4-12.1-16.2-20.2-16.2-20.2l9.4-13.6c-31.6-17.6-48-10.3-48-10.3
		c-40.3,22.8-22.4,40.1-22.4,40.1c7.4,10.3,19.7,33.2,24.4,42.2h156.1c-0.4-0.4-0.7-0.7-1.1-1.1c-5.4-5.3-11.5-9.3-17.9-12.2
		c-41.1-18.9-97.6,5.1-97.6,5.1l-4.8-15.4L202.8,317.5c0,0-12.3-16.6-16.1-20.1 M171.3,293.5c-0.4,0.4-1,0.7-1.4,0.6
		c-0.2,0-0.5-0.1-0.4-0.2c-1.8-1.3-1.5-4.1,0.4-5.4s5.2-1.1,6.5,0.6C174.7,290.5,173,292,171.3,293.5z"/>
	<path id="purple_eye_2_" d="M169.9,288.4c-1.9,1.3-2.2,4.1-0.4,5.4c-0.1,0.1,0.1,0.2,0.4,0.2c0.5,0.1,1.1-0.2,1.4-0.6
		c1.7-1.4,3.4-3,5.1-4.4C175,287.3,171.8,287.1,169.9,288.4z"/>
	<path id="purple_eyebrow_2_" d="M168.7,283.5c-1.7-0.2-3.1,1.1-4.1,2.4c-1.3,1.8-2.4,4.1-1.8,6.4c0.7-0.2,1.1-1,1.3-1.7
		c1.2-2.6,3.5-4.7,6.1-5.4C170.2,284.3,169.5,283.6,168.7,283.5z"/>
	<path id="beard_2_" d="M194,316.7c-10.8,5.2-16.2-7.3-16.2-7.3l13.8-7.3c-1.2-1.3-5-4.8-5-4.8c-11.4,7.4-11.8,11.8-11.8,11.7
		c8.1,19.7,19.1,15.3,19.1,15.3l8.8-6.9c-1.1-2-3.8-6.3-3.8-6.3C198.6,315.1,194,316.7,194,316.7z"/>
</g>
</svg>
