
<svg version="1.1" id="about3" xmlns="http://www.w3.org/2000/svg" xmlns:xlink="http://www.w3.org/1999/xlink" x="0px" y="0px"
	 viewBox="0 144 320 211.9" enable-background="new 0 144 320 211.9" xml:space="preserve">
<g>
	
	
	
	<path id="back_leg" fill="#8DC541" d="M237.7,334.9c-1.1-0.6-2.1-1.1-3.2-1.7c1.2-0.5,2-1.8,2-3.2c0-1.3-0.9-2.6-2.2-3.1c-1.8,2-4.9,2.5-7.5,2
		c-2.7-0.5-5.1-1.9-7.5-3.3c-8.8-5.2-17.7-10.3-26.5-15.5c-13.1-7.6-17.8-13.5-17.8-13.5s-14.4-14.9-30.3-29.5c-0.7,0-1.4,0-2.2,0
		c-58.2,0.2-90.9-26.7-90.9-26.7c3.9,7.6,7.6,14.9,10.9,21.9c13.7,9.2,32.9,18.6,57.6,22.7c28.5,4.7,42.5,25.5,42.5,25.5
		c6.2,5.8,9.1,11.2,10.1,13.7c0.8,2.1,0.4,4.5,0.4,6.8c0.1,2.3,0.4,4.6,1.7,6.5c1.3,1.8,3.5,2.8,5.6,3.1c2.2,0.3,4.4,0.1,6.5-0.3
		c6.9-1.1,13.9-3.2,20.7-1.5c3,0.7,5.8,2.2,8.7,3.1c2.9,0.9,6.2,1.4,9,0.1c0.5,1.2,1.1,2.6,2.2,3.2c1.2,0.7,3,0.1,3.1-1.3
		c0.8,1.1,2.7,1.3,3.6,0.3c1-1,0.8-2.9-0.4-3.6c1.2,0.9,3.2,0,3.4-1.5c-0.3-0.3-0.6-0.6-0.9-1c0.6-0.2,1.3-0.5,1.7-1
		c0.4-0.5,0.6-1.3,0.2-1.9C238.2,335.2,237.9,335.1,237.7,334.9z"/>
	<path id="front_leg" fill="#8DC541" d="M276.4,285.6c-0.2-0.2-0.6-0.3-0.9-0.4c-1.2-0.3-1.2,1.2-2.4,0.8c0.4-0.4,1.1-2.6,0.3-4.3
		c-0.3-1.3-2.8-3.4-4.8-2.9c-1.4,2.5,0.4,5.2-4.9,5.3c-2.8,0-5.6-0.8-8.3-1.7c-10.1-3.2-20.3-6.5-30.4-9.7
		c-15-4.8-21.1-9.7-21.1-9.7s-99.5-66.2-180.9-83c0,0-0.1,0.4-0.4,1.1c0,0,0,0-0.1,0l0,0.1c-2.4,7.3-16.8,46.4-22.5,95.3v23.7v55.4
		h93.8C88.1,329.1,77.6,299,58.9,260c-3.4-7.5-7.1-15.3-11.2-23.4c0,0,38.1,30.6,97.9,27.3c30-1.7,48.9,16.3,48.9,16.3
		c7.6,4.5,11.8,9.3,13.4,11.7c1.3,2,1.4,4.5,2,6.8c0.6,2.3,1.4,4.6,3.2,6.2c1.7,1.5,4.1,2,6.4,1.9c2.3-0.1,4.5-0.9,6.5-1.7
		c6.7-2.7,13.4-6.4,20.7-6.2c3.2,0.1,6.4,0.9,9.5,1.2c3.2,0.3,6.6,0,9.2-1.9c1.2-0.8,4.3,2,5.6,1.5c1.5-0.5,0.7-1.1,0.5-2.4
		c1.1,1,3.5,0.6,4.2-0.6c0.3-1-0.3-1.6-1.8-2.2c1.4,0.6,3.3-2.1,3.1-3.7c-0.7-0.8-1.2,0.1-1.6-0.1c0.6-0.4,0.9-0.9,1.2-1.5
		C277.1,288.2,277,286,276.4,285.6z M58.9,260c-0.1,0-0.1-0.1-0.1-0.1C58.9,259.9,58.9,259.9,58.9,260z"/>
</g>
</svg>
