<?xml version="1.0" encoding="utf-8"?>
<!-- Generator: Adobe Illustrator 18.1.1, SVG Export Plug-In . SVG Version: 6.00 Build 0)  -->
<svg version="1.1" id="Layer_2" xmlns="http://www.w3.org/2000/svg" xmlns:xlink="http://www.w3.org/1999/xlink" x="0px" y="0px"
	 viewBox="0 144 320 211.9" enable-background="new 0 144 320 211.9" xml:space="preserve">
<g>
	<path fill="#FFFFFF" d="M270.5,184.8c0-2.8-3-2.3-3-2.3c-0.8-3-3-1.9-3-1.9c0.4-1.3-1.5-2.1-1.5-2.1c-1.2-0.5-1.8,0.7-1.8,0.7
		c0-1.4-1.9-2.2-1.9-2.2c-3.6-1.1-3.1,2.8-3,3.6c0.1,0.8-0.5,2.7-0.5,2.7c-0.7,1.8-0.2,4.9,0.4,6.4c0.6,1.5,0.3,7.8-0.1,9.7
		c-0.5,1.9-1.3,5.6-1.4,7.1c-0.1,1.5-0.8,2.8-0.8,2.8c-1.6,2-2.1,4.4-2.2,6.2c0,0.5-0.3,1.4-0.7,2.4c-12.6,21.8-19.7,41.8-21.7,46.5
		c-2,4.8-15.1,33.7-15.1,33.7c-3.8,4.2-8.9,17.2-8.9,17.2c-8.8,14.5-15.9,28.7-20.1,40.5h41.6c1.7-17.7,1.8-30.7,1.5-32.2
		c-0.7-3.1,3-6.5,3-6.5c17.4-13.7,26.6-45.5,25.2-59.7c-1.3-13.5,4.2-35.2,4.9-37.6c0.3-0.7,0.5-1.1,0.5-1.1c1.1-1.6,2.2-4,2.4-6.5
		c0.2-2.5,2.8-9.2,2.8-9.2s4.2-9.9,5.6-13.8C273.9,184.9,270.5,184.8,270.5,184.8z"/>
	<path fill="#FFFFFF" d="M114.5,315.2c0,0-5.1-13-8.9-17.2c0,0-13.1-29-15.1-33.7s-9.2-25.3-22.1-47.4c-0.2-0.5-0.3-1-0.3-1.6
		c-0.1-1.8-0.6-4.2-2.2-6.2c0,0-0.7-1.3-0.8-2.8s-0.9-5.2-1.3-7.1c-0.5-1.9-0.7-8.2-0.1-9.7s1.1-4.6,0.4-6.4c0,0-0.6-1.9-0.5-2.7
		c0.1-0.8,0.6-4.8-3-3.6c0,0-1.9,0.7-1.9,2.2c0,0-0.6-1.2-1.8-0.7c0,0-1.8,0.8-1.5,2.1c0,0-2.2-1.1-3,1.9c0,0-3-0.4-3,2.3
		c0,0-3.5,0.1-2,4.4c1.3,3.9,5.6,13.8,5.6,13.8s2.6,6.7,2.8,9.2s1.3,5,2.4,6.5c0,0,0.3,0.5,0.6,1.2c0.3,2,1.9,14.9,0.6,28
		c-1.5,14.2-4.5,32.6,29.4,69.3c0,0,3.7,3.3,3,6.5c-0.3,1.5-0.3,14.5,1.4,32.2h41.6C130.4,344,123.2,329.7,114.5,315.2z"/>
</g>
</svg>
