<?xml version="1.0" encoding="utf-8"?>
<!-- Generator: Adobe Illustrator 18.1.1, SVG Export Plug-In . SVG Version: 6.00 Build 0)  -->
<svg version="1.1" id="_x31_" xmlns="http://www.w3.org/2000/svg" xmlns:xlink="http://www.w3.org/1999/xlink" x="0px" y="0px"
	 viewBox="0 144 320 211.9" enable-background="new 0 144 320 211.9" xml:space="preserve">
<g>
	<path id="back_leg" fill="#8DC541" d="M237.7,335.6c-1.1-0.6-2.1-1.1-3.2-1.7c1.2-0.5,2-1.8,2-3.2c0-1.3-0.9-2.6-2.2-3.1c-1.8,2-4.9,2.5-7.5,2
		s-5.1-1.9-7.5-3.3c-8.8-5.2-17.7-10.3-26.5-15.5c-13.1-7.6-17.8-13.5-17.8-13.5s-9.8-10.1-25.6-24.7c-0.7,0-1.4,0-2.2,0
		c-58.2,0.2-95.6-31.5-95.6-31.5c3.9,7.6,7.6,14.9,10.9,21.9c13.7,9.2,32.9,18.6,57.6,22.7c28.5,4.7,42.5,25.5,42.5,25.5
		c6.2,5.8,9.1,11.2,10.1,13.7c0.8,2.1,0.4,4.5,0.4,6.8s0.4,4.6,1.7,6.5c1.3,1.8,3.5,2.8,5.6,3.1s4.4,0.1,6.5-0.3
		c6.9-1.1,13.9-3.2,20.7-1.5c3,0.7,5.8,2.2,8.7,3.1c2.9,0.9,6.2,1.4,9,0.1c0.5,1.2,1.1,2.6,2.2,3.2c1.2,0.7,3,0.1,3.1-1.3
		c0.8,1.1,2.7,1.3,3.6,0.3c1-1,0.8-2.9-0.4-3.6c1.2,0.9,3.2,0,3.4-1.5c-0.3-0.3-0.6-0.6-0.9-1c0.6-0.2,1.3-0.5,1.7-1
		c0.4-0.5,0.6-1.3,0.2-1.9C238.2,335.9,237.9,335.8,237.7,335.6z"/>
	<path id="front_leg" fill="#8DC541" d="M273.1,297.7c-0.2-0.2-0.6-0.3-0.9-0.4c-1.2-0.4-2.4-0.8-3.6-1.1c1.1-0.8,1.7-2.3,1.4-3.6
		c-0.3-1.4-1.5-2.5-2.8-2.7c-1.5,2.4-4.5,3.5-7.3,3.5s-5.6-1-8.3-2c-10-3.6-20-7.2-30.1-10.8c-14.8-5.3-20.7-10.4-20.7-10.4
		s-97.1-69.6-177.9-89.2c0,0-0.1,0.4-0.4,1.1c0,0,0,0-0.1,0l0,0.1c-2.7,7.2-16.8,46.4-22.5,95.3v23.7v54.8h93.8
		c-5.4-25.3-16.4-56.6-34.9-95.2c-3.4-7.5-7.1-15.3-11.2-23.4c0,0,35,32.7,94.9,31.5c30-0.6,48.3,18,48.3,18
		c7.4,4.8,11.5,9.7,13,12.1c1.2,2,1.2,4.5,1.7,6.9c0.5,2.3,1.3,4.7,3,6.3c1.7,1.6,4.1,2.2,6.3,2.1c2.3-0.1,4.5-0.8,6.6-1.5
		c6.8-2.5,13.6-5.9,20.9-5.5c3.2,0.2,6.3,1.1,9.5,1.5c3.2,0.4,6.6,0.2,9.2-1.6c0.7,1.2,1.6,2.5,2.9,2.9c1.3,0.4,3.1-0.5,2.9-1.9
		c1,1,3,0.8,3.8-0.4c0.8-1.2,0.2-3.1-1.1-3.6c1.4,0.7,3.3-0.7,3.1-2.2c-0.4-0.3-0.8-0.5-1.1-0.8c0.6-0.4,1.2-0.8,1.6-1.4
		C273.6,299,273.6,298.1,273.1,297.7z M58.9,260.6c-0.1,0-0.1-0.1-0.1-0.1C58.9,260.6,58.9,260.6,58.9,260.6z"/>
</g>
</svg>
