<?xml version="1.0" encoding="utf-8"?>
<!-- Generator: Adobe Illustrator 18.1.1, SVG Export Plug-In . SVG Version: 6.00 Build 0)  -->
<svg version="1.1" id="Layer_4" xmlns="http://www.w3.org/2000/svg" xmlns:xlink="http://www.w3.org/1999/xlink" x="0px" y="0px"
	 viewBox="0 144 320 211.9" enable-background="new 0 144 320 211.9" xml:space="preserve">
<g>
	<path id="blue_leg_3_" fill="#1AC2EC" d="M68.9,345.1c-6.4,3.5-12.6,7.1-18.7,10.8h19.4C69.4,352.4,69.1,348.8,68.9,345.1z"/>
	<path id="red_eye_3_" d="M242.3,175.8c-0.2-0.1-0.4-0.2-0.5-0.3l-0.2-0.1c-0.4-0.2-0.7-0.6-0.9-1.1c-0.2-0.5-0.1-1,0.1-1.4l0.5-0.8
		l-0.9,0.2c-0.1,0-0.2,0-0.3,0.1v0c-0.5,0.2-1,0.5-1.3,1.1c-0.4,0.6-0.5,1.4-0.3,2.1c0.2,0.7,0.7,1.2,1.3,1.6v0
		c0.5,0.2,1,0.4,1.6,0.4c0.1,0,0.2,0,0.3,0c0.5-0.1,0.9-0.3,1-0.7C242.8,176.5,242.6,176.1,242.3,175.8z"/>
	<path id="red_eyebrow_3_" d="M244.6,169.6c1.1,0.3,2.2,1.1,2.9,2c0.2,0.2,0.3,0.5,0.4,0.7c0.4,0.9,0.5,2,0.2,2.9
		c-0.2,1-0.7,1.9-1.4,2.6c0.1,0.2,0.4,0,0.5-0.1c0.6-0.7,1.1-1.5,1.5-2.4c0.3-0.9,0.4-1.9,0.1-2.7c-0.4-1.1-1.4-1.9-2.3-2.6
		c-0.4-0.3-0.9-0.6-1.3-0.8c-0.2-0.1-0.4-0.1-0.6,0C244.4,169.2,244.4,169.5,244.6,169.6z"/>
	<path id="blue_eye_3_" d="M274.3,224.1c-0.1-0.4-0.5-0.6-1-0.6c-0.2,0-0.4,0-0.6,0.1c-0.1,0-0.1,0-0.2,0c-0.5,0.1-0.9-0.1-1.3-0.3
		v0c-0.4-0.3-0.6-0.7-0.7-1.1l-0.1-0.9l-0.7,0.7c-0.5,0.5-0.7,1.1-0.6,1.8c0.1,0.8,0.4,1.5,1,1.9c0.3,0.3,0.8,0.4,1.2,0.5
		c0,0,0,0,0,0c0.2,0,0.3,0,0.5,0c0.8,0,1.5-0.3,2.1-0.8C274.3,225,274.5,224.5,274.3,224.1z"/>
	<path id="blue_hand_3_" fill="#16C2EA" d="M180.6,317.5c0,0.5,0,1,0.1,1.6C180.6,318.6,180.6,318,180.6,317.5
		c-0.1,0-0.1-0.1-0.1-0.1C180.5,317.4,180.5,317.5,180.6,317.5c-0.1-3.8,0.2-7.8,0.9-11.9c0.5-3.2,1.3-6.3,2.2-9.2
		c-3.7,3.1-8.7,8.1-13.6,14.9c3.3,2.3,6.5,4.7,9.8,7.2l0.2-1.4c0,0,0,0,0,0c0,0,0,0,0,0l-0.2,1.4c0.3,0.2,0.5,0.4,0.8,0.6
		c4.2,3.2,8.4,6.6,12.6,10.1C187.8,323.4,182.3,318.9,180.6,317.5z"/>
	<path id="blue_face_3_" fill="#16C2EA" d="M290.9,257.3c-1.1-0.8-3.2-2.4-4.4-4.7c-0.8-1.2-1.4-2.4-2-3.7c-1.3-3-2.2-6.3-2.4-9.5
		c0-0.4-0.1-1.1,0-2.2c2.2-0.2,5.5-0.6,6.8-2.7c0.8-1.3,0.5-3.9-1-4.6c-2.2-1-3.3,1.7-5.3,1.7c2.5-3.4,2.5-8.3,0.3-11.8
		c-0.4-0.7-1.1-1.2-1.9-1.8c-1-0.7-2.3-1.2-3.6-1.8c-1.9-0.8-3.9-1.7-5.4-2.7c-0.1-0.1-0.3-0.2-0.4-0.3c-1.3,1.8-2.3,3.7-3.7,5.4
		c-0.7,0.9-1.5,1.7-2.3,2.4c-2.5,2.3-5.6,4-8.8,4.8c1.3,0.8,2.7,1.5,4.2,2c-0.2,0.8-1.3,2.4-2.3,2.7c0.1,0.7,1.4,1.3,2.3,1.6
		c-0.5,0.3-2.2,0.4-2.7,0.7c0.3,0.4,0.2,1.1-0.1,1.7c1.7,1.7,3.3,3.5,4.9,5.3c0.7,0.8,1.4,1.6,2,2.3c1.4,1.6,2.7,3.3,3.9,4.9
		c2.2,2.9,4.2,5.9,6.1,8.8c0.6,0.9,1.1,1.8,1.7,2.8c0.4,0.7,0.8,1.3,1.1,2c0.8,1.4,1.6,2.9,2.4,4.4c1.9,3.6,3.6,7.3,5.1,10.9
		c0.3,0.7,0.6,1.4,0.8,2.1c2.5,6.5,4.5,13,6,19.4c1.3,5.5,2.2,11,2.9,16.3C319.3,270.6,292.9,258.1,290.9,257.3z M273.9,225.3
		c-0.6,0.5-1.3,0.8-2.1,0.8l0,0c-0.2,0-0.3,0-0.5,0c-0.4-0.1-0.9-0.2-1.2-0.5c-0.6-0.4-0.9-1.1-1-1.9c-0.1-0.7,0.2-1.4,0.6-1.8
		l0.7-0.7l0.1,0.9c0.1,0.4,0.3,0.8,0.7,1.1c0.4,0.3,0.9,0.5,1.4,0.4c0.1,0,0.1,0,0.2,0c0.2,0,0.3-0.1,0.6-0.1l0,0
		c0.4,0,0.8,0.3,1,0.6C274.5,224.5,274.3,225,273.9,225.3z"/>
	<path id="red_body_7_" fill="#F05436" d="M295,313.6c-0.7-5.3-1.6-10.8-2.9-16.3c-1.5-6.4-3.4-13-6-19.4c-0.3-0.7-0.5-1.4-0.8-2.1
		c-1.5-3.7-3.2-7.3-5.1-10.9c-0.8-1.5-1.6-2.9-2.4-4.4c-0.4-0.7-0.8-1.3-1.1-2c-0.6-0.9-1.1-1.8-1.7-2.8c-1.9-3-3.9-5.9-6.1-8.8
		c-1.3-1.7-2.6-3.3-3.9-4.9c-0.7-0.8-1.3-1.6-2-2.3c-1.6-1.8-3.2-3.5-4.9-5.3c-2.8-2.9-5.9-5.7-9.1-8.4l0,0c0,0-0.1-0.1-0.1-0.1l0,0
		l0,0c-1.1-0.9-9.9-8.7-12-14.7c-0.4-1-0.5-2-0.4-2.9c0.1-0.7,0.3-1.4,0.8-1.9c0.2-0.3,0.5-0.5,0.9-0.8c0,0,0.1-0.1,0.1-0.1
		c1.1-0.9,2.4-1.5,3.7-1.7c2.5-0.4,9.4,0.5,9.1-3.8c-0.3-3.9-6.1-2.5-8.4-3.2c-10.9-3.3-0.4-12.8,7-14.6c4.9-1.2,11.8-8,8.7-13.9
		c-4.4-2.4-9.8-4.1-15.5-2.9c-1.7,0.4-3.5,1-5.2,1.9c0,0-3.4,1.2-6.5,0.1c-3.6-1.2-3.1,1.3-3.1,1.3l0.2,3.4c0,0-1.5,0.6-5.1,0
		c0,0-0.4,0.8,0.6,3.4l-1.5-2.4c0,0-1.2,2.7-4.9,3.6c0,0-3.7,2.1-0.3,6.6c3,4,7.8,15.9,3.8,18.6c0,0-3.1,1.5-7.5,7.7
		c-2.5,3.8-5.3,6.4-10.2,8.7c-2.7,0.9-5.4,1.9-8.3,3.1l-10.2,3.1c0,0-7.4,1.1-8.4,8.5c0.7,0.6,4.4,44.5,17.1,55.5
		c1,0.9,38.4,23,38.7,23.5c0.7-0.7,1.3-1.3,2-1.9c2.9-2.8,5.7-5.4,8.4-7.8c-1-3.4-1.3-7.9-0.1-13.5c0.9-4,2.5-10.6,3.7-18.5
		c2.9,6.4,6.6,13,11.4,19.6c1.4,2,3,4,4.6,6c0.6,0.7,1.2,1.5,1.7,2.2c-0.7,8-0.6,19.6,3.6,31.2c0.2,0.4,0.3,0.8,0.5,1.3
		c3.6,9.3,6.3,17.9,8.2,25.4h2.1h2h4.9l0,0l0,0h8.4h0.9h1C296.5,343.7,296.9,329.1,295,313.6z M244.6,169.1c0.2-0.1,0.4,0,0.6,0
		c0.5,0.2,0.9,0.5,1.3,0.8c0.9,0.7,1.9,1.5,2.3,2.6c0.3,0.9,0.2,1.9-0.1,2.7c-0.3,0.9-0.9,1.6-1.5,2.4c-0.1,0.2-0.4,0.3-0.5,0.1
		c0.7-0.7,1.2-1.6,1.4-2.6c0.2-1,0.2-2-0.2-2.9c-0.1-0.2-0.3-0.5-0.4-0.7c-0.7-0.9-1.7-1.7-2.9-2
		C244.4,169.5,244.4,169.2,244.6,169.1z M238.7,173.5c0.3-0.5,0.8-0.9,1.3-1.1c0.1,0,0.2,0,0.3-0.1l0.9-0.2l-0.5,0.8
		c-0.2,0.4-0.2,0.9-0.1,1.4c0.2,0.5,0.5,0.9,0.9,1.1l0.2,0.1c0.2,0.1,0.3,0.1,0.5,0.3c0.4,0.3,0.5,0.7,0.4,1.1
		c-0.1,0.4-0.5,0.7-1,0.7c-0.1,0-0.2,0-0.3,0l0,0c-0.6,0-1.1-0.2-1.5-0.4c-0.6-0.4-1.1-0.9-1.4-1.6
		C238.2,174.9,238.3,174.1,238.7,173.5z M266.4,273.7C266.3,273.9,266.3,273.9,266.4,273.7L266.4,273.7z"/>
	<path d="M265.5,221c0.8-0.8,1.6-1.6,2.3-2.4c1.4-1.7,2.5-3.6,3.7-5.4c0.1,0.1,0.2,0.2,0.4,0.3c1.5,1,3.5,1.9,5.4,2.7
		c1.3,0.6,2.6,1.2,3.6,1.8c0.8,0.5,1.5,1.1,1.9,1.8c2.2,3.5,2.2,8.4-0.3,11.8c2-0.1,3.1-2.8,5.3-1.7c1.5,0.7,1.8,3.3,1,4.6
		c-1.3,2.1-4.5,2.5-6.8,2.7c0,0.7,0,1.5,0,2.2c0.2,3.3,1.1,6.6,2.4,9.5c0.6,1.3,1.2,2.5,2,3.7c1.2,2.3,3.3,3.9,4.4,4.7
		c2,0.9,28.4,13.3,4.1,56.4c1.9,15.5,1.5,30.1,0.2,42.3h11.6h6.9h6.2h0.1v-0.4v-8.1v-27.5v-24.1v-3.3v-19.7v-9.7v-9.7
		c-1.3-2-2.5-4-3.4-6.1c-1.8-4.1-2.4-8.7-3-13.4c-0.3-2.4-0.7-4.9-1.2-7.4c-1.3-6.3-4.8-17.7-14.7-23c-2.7-1.4-9.4-4.7-16-5
		c0,0,0,0-0.1,0c-0.6-4.7-1.9-9.4-4-13.5c-1.7-3.4-4.3-6.1-6-9.5c-1.1-2.3-1.1-4.5-1.9-6.9c-1.5-4.8-6.2-9.9-11.5-10.6
		c-9.9-1.3-14.1,2.7-15.5,7.6c5.8-1.2,11.2,0.5,15.5,2.9c3.1,5.9-3.8,12.7-8.7,13.9c-7.4,1.8-17.9,11.3-7,14.6
		c2.3,0.7,8.1-0.7,8.4,3.2c0.3,4.3-6.6,3.5-9.1,3.8c-1.3,0.2-2.6,0.8-3.7,1.7c0,0-0.1,0.1-0.1,0.1c-0.3,0.2-0.6,0.5-0.9,0.8
		c-0.5,0.6-0.7,1.2-0.8,1.9c-0.1,0.9,0.1,1.8,0.4,2.9c2.1,6,10.9,13.8,12,14.7l0.1,0.1c3.2,2.7,6.3,5.5,9.1,8.4
		c0.2-0.7,0.3-1.3,0.1-1.7c0.5-0.3,2.2-0.4,2.7-0.7c-0.9-0.3-2.2-0.8-2.3-1.6c1-0.2,2.1-1.9,2.3-2.7c-1.5-0.5-2.9-1.2-4.2-2
		C259.9,225,263,223.3,265.5,221"/>
	<path id="blue_leg_line_3_" fill="#1AC2EC" d="M115.1,307.7c3.1,12,1.8,21.5,1.5,21.2c-0.2,2.7-0.6,5.5-1.1,8.5
		c-1.1,5.7-2.8,11.8-5.4,18.5h2.5c2.1-6.1,3.6-12.3,4.4-18.4C118.2,327.2,117.6,317,115.1,307.7z"/>
	<path id="red_body_6_" fill="#F15731" d="M265.9,355.9c-0.6-2.5-1.2-4.8-1.9-6.9l0,0l-0.3-0.9l0.2,0.7c-0.3-0.8-0.5-1.6-0.8-2.4
		l-0.3-0.9l-3.6-10.6c-17.8,10.8-33.3,9.9-33.3,9.9c-0.7-0.3-1.4-0.6-2-0.9c-1.1-0.5-2.2-1.1-3.3-1.7c-5.5-3.1-10.2-6.8-14.1-10.8
		c-6.2-6.4-10.7-13.6-13.9-20.4c-3-6.3-4.9-12.2-6.2-16.8c-0.3-1-0.6-2-0.8-2.9c-0.7,1.6-1.3,3.3-1.9,5.1c-0.9,2.9-1.7,6-2.2,9.2
		c-0.7,4.1-1,8.1-0.9,11.9c1.7,1.4,7.2,5.9,12.7,11.7c-4.2-3.5-8.4-6.9-12.6-10.1c-0.3-0.2-0.5-0.4-0.8-0.6
		c-3.3-2.5-6.5-4.9-9.8-7.2c-35.3-24.9-70.3-40.2-88.6-45.1c0,0-3.9-1.6-8.1-0.9c-3.4,1.8-6.5,5.5-5.8,13
		c-0.7,23.9-0.1,46.5,1.2,66.8c0.2,3.7,0.5,7.2,0.7,10.8h4.5h13.4h4.5h11.4h6.4c2.6-6.7,4.4-12.8,5.4-18.5c0.6-3,0.9-5.8,1.1-8.5
		c0.3,0.3,1.6-9.2-1.5-21.2c2.6,9.4,3.1,19.5,1.8,29.8c-0.8,6.2-2.3,12.4-4.4,18.4h77.1h24.1h6.8h27.8l0,0L265.9,355.9L265.9,355.9z
		"/>
	<path id="hand_3_" fill="#16C2EA" d="M267.8,330.5c-0.2-0.4-0.3-0.8-0.5-1.3c-4.2-11.5-4.3-23.2-3.6-31.2c-0.6-0.7-1.1-1.5-1.7-2.2
		c-1.6-2-3.2-4-4.6-6c-4.7-6.6-8.5-13.3-11.4-19.6c-1.2,7.9-2.8,14.5-3.7,18.5c-1.3,5.6-0.9,10.1,0.1,13.5c-2.7,2.4-5.4,5-8.4,7.8
		c-0.7,0.6-1.3,1.3-2,1.9c-0.3-0.6-1.3-6.1-12-16.7c-4.7-4.7-11.3-10.3-20.5-16.9c-1.2-0.9-2.4-1.8-3.4-2.7
		c-12.7-11-7.9-20.1-5.9-27c0.5-1.9,0.2-3.8,0.9-5.7c0.4-1.1,1.8-4,1-5c-2.8-3.3-4.9,6-5.7,7.2c-1,1.7-1.1,0.3-2.3-1.2
		c-1.4-1.7-2.4-3.8-3.8-5.5c-0.9-1-2-1.9-2.8-3c-0.4-0.6-0.7-1.6-1.4-2.1c-0.1-0.1-0.3-0.2-0.5-0.2c-0.6-0.1-1.6,0.4-1.8,1
		c-0.2,0.5,0.2,0.6,0.3,1.2c-0.9-0.2-0.9-0.5-1.9-0.7c-1.6-0.2-1.6,2.1-1,3.3c-1.5-0.4-1.7-0.4-1.8,1.5c0,0.5,2.2,3.5,1.1,3.3
		c0,0-0.1-1.7-1.1-1.3c-1,0.4-1,2.1-0.8,2.8c0.8,3.8,1,7.6,2.7,11c0.5,1,0.8,1.9,1.7,2.6c0.8,0.6,3.5,6.1,3.6,6
		c0,0,4.9,14.4,7.5,22.8c0.3,1.1,0.8,2.7,1.3,4.6c0.2,0.9,0.5,1.8,0.8,2.9c1.3,4.6,3.3,10.5,6.2,16.8c3.2,6.8,7.7,14,13.9,20.4
		c3.9,4.1,8.6,7.8,14.1,10.8c1.1,0.6,2.2,1.2,3.3,1.7c0.7,0.3,1.3,0.6,2,0.9c0,0,15.5,1,33.3-9.9l3.6,10.6c1,2.8,2.1,6.3,3.1,10.3
		H276C274.1,348.4,271.4,339.9,267.8,330.5z"/>
</g>
</svg>
