<?xml version="1.0" encoding="UTF-8" standalone="no"?>
<!-- Created with Inkscape (http://www.inkscape.org/) -->

<svg
   xmlns:dc="http://purl.org/dc/elements/1.1/"
   xmlns:cc="http://creativecommons.org/ns#"
   xmlns:rdf="http://www.w3.org/1999/02/22-rdf-syntax-ns#"
   xmlns:svg="http://www.w3.org/2000/svg"
   xmlns="http://www.w3.org/2000/svg"
   xmlns:inkscape="http://www.inkscape.org/namespaces/inkscape"
   version="1.1"
   width="406.81876"
   height="815.95374"
   id="svg2"
   xml:space="preserve"><metadata
     id="metadata8"><rdf:RDF><cc:Work
         rdf:about=""><dc:format>image/svg+xml</dc:format><dc:type
           rdf:resource="http://purl.org/dc/dcmitype/StillImage" /></cc:Work></rdf:RDF></metadata><defs
     id="defs6"><clipPath
       id="clipPath16"><path
         d="m 0,652.763 325.455,0 L 325.455,0 0,0 0,652.763 z"
         inkscape:connector-curvature="0"
         id="path18" /></clipPath></defs><g
     transform="matrix(1.25,0,0,-1.25,0,815.95375)"
     id="g10"><g
       id="g12"><g
         clip-path="url(#clipPath16)"
         id="g14"><g
           transform="translate(224.8789,477.4074)"
           id="g20"><path
             d="m 0,0 c 0,0 18.018,-6.138 18.754,-22.387 0.735,-16.248 -0.368,-18.414 2.206,-23.83 2.574,-5.416 14.341,-23.109 11.767,-39.718 l -1.839,-12.999 0,-19.498 -91.562,0 4.8,133.114 C -55.874,14.682 0,0.361 0,0"
             inkscape:connector-curvature="0"
             id="path22"
             style="fill:#68a1b4;fill-opacity:1;fill-rule:nonzero;stroke:none" /></g><g
           transform="translate(105.3894,479.5871)"
           id="g24"><path
             d="m 0,0 c 0,0 -18.018,-6.251 -18.754,-22.799 -0.735,-16.547 0.368,-18.753 -2.206,-24.269 -2.574,-5.516 -14.341,-23.534 -11.767,-40.449 l 1.839,-13.238 0,-19.857 91.562,0 0,122.083 C 60.674,1.471 0,0.368 0,0"
             inkscape:connector-curvature="0"
             id="path26"
             style="fill:#68a1b4;fill-opacity:1;fill-rule:nonzero;stroke:none" /></g><g
           transform="translate(34.6895,169.6443)"
           id="g28"><path
             d="m 0,0 c 0,0 2.681,-5.629 4.379,-7.327 1.698,-1.698 5.822,-7.278 6.55,-8.491 0.728,-1.213 4.124,-5.822 -0.485,-12.857 0,0 -3.882,-6.065 -1.698,-10.432 2.183,-4.366 8.248,-12.372 3.639,-21.833 0,0 -4.61,-6.793 -24.017,-8.006 0,0 -4.609,1.941 -0.728,4.852 0,0 0.971,4.124 1.698,7.278 0,0 1.699,11.402 0.243,15.768 -1.456,4.367 -2.183,9.704 -2.668,15.526 0,0 -3.154,9.219 -3.882,18.195 0,0.485 -0.485,12.372 -0.485,12.372"
             inkscape:connector-curvature="0"
             id="path30"
             style="fill:#90c84b;fill-opacity:1;fill-rule:nonzero;stroke:none" /></g><g
           transform="translate(146.5739,577.814)"
           id="g32"><path
             d="m 0,0 c 0,0 -7.1,-15.168 -32.61,-11.721 0,0 -33.095,15.168 -31.027,-39.3 0,0 -0.503,-4.693 -1.093,-9.653 -1.661,-13.965 -4.328,-54.299 23.006,-35.632 l -6.334,39 c 0,0 10.137,-44.047 17.721,-88.862 0,0 2.758,-6.206 -2.758,-16.548 -5.515,-10.342 -24.908,-42.967 -20.452,-30.052 0,0 -56.079,-6.49 -85.727,-19.59 0,0 -7.584,-2.758 -6.894,-15.168 0,0 -5.516,-120.658 24.131,-212.358 l 12.411,27.579 c 0,0 -10.342,15.169 -5.516,31.716 4.826,16.547 43.889,69.114 19.757,110.483 0,0 -11.538,8.509 -18.433,14.025 -6.895,5.516 -15.803,5.802 -15.803,5.802 0,0 9.163,0.438 16.261,-4.886 6.642,-4.982 60.271,-48.893 129.907,-15.108 l 0,271.652 C 16.547,1.379 -1.379,0 0,0"
             inkscape:connector-curvature="0"
             id="path34"
             style="fill:#90c84b;fill-opacity:1;fill-rule:nonzero;stroke:none" /></g><g
           transform="translate(178.8807,577.814)"
           id="g36"><path
             d="m 0,0 c 0,0 7.1,-15.168 32.61,-11.721 0,0 33.095,15.168 31.027,-39.3 0,0 0.503,-4.693 1.093,-9.653 1.661,-13.965 4.328,-54.299 -23.006,-35.632 l 6.334,39 c 0,0 -10.137,-44.047 -17.721,-88.862 0,0 -2.758,-6.206 2.758,-16.548 5.515,-10.342 24.908,-42.967 20.452,-30.052 0,0 56.079,-6.49 85.727,-19.59 0,0 7.584,-2.758 6.894,-15.168 0,0 5.516,-120.658 -24.131,-212.358 l -12.411,27.579 c 0,0 10.342,15.169 5.516,31.716 -4.826,16.547 -43.889,69.114 -19.757,110.483 0,0 11.538,8.509 18.433,14.025 6.895,5.516 15.803,5.802 15.803,5.802 0,0 -9.163,0.438 -16.261,-4.886 -6.642,-4.982 -60.271,-48.893 -129.907,-15.108 l 0,271.652 C -16.547,1.379 1.379,0 0,0"
             inkscape:connector-curvature="0"
             id="path38"
             style="fill:#90c84b;fill-opacity:1;fill-rule:nonzero;stroke:none" /></g><g
           transform="translate(290.553,169.6443)"
           id="g40"><path
             d="m 0,0 c 0,0 -2.681,-5.629 -4.379,-7.327 -1.698,-1.698 -5.822,-7.278 -6.55,-8.491 -0.728,-1.213 -4.124,-5.822 0.485,-12.857 0,0 3.882,-6.065 1.698,-10.432 -2.183,-4.366 -8.248,-12.372 -3.639,-21.833 0,0 4.61,-6.793 24.017,-8.006 0,0 4.609,1.941 0.728,4.852 0,0 -0.971,4.124 -1.698,7.278 0,0 -1.699,11.402 -0.243,15.768 1.456,4.367 2.183,9.704 2.668,15.526 0,0 3.154,9.219 3.882,18.195 0,0.485 0.485,12.372 0.485,12.372"
             inkscape:connector-curvature="0"
             id="path42"
             style="fill:#90c84b;fill-opacity:1;fill-rule:nonzero;stroke:none" /></g><g
           transform="translate(240.9376,104.7901)"
           id="g44"><path
             d="M 0,0 C 0,0 1.604,-4.634 0.458,-7.724 -0.688,-10.813 -1.375,-15.227 0,-19.64 c 0,0 0.458,-2.648 -0.458,-5.297 -0.917,-2.648 -2.063,-9.489 -2.521,-13.02 -0.459,-3.53 -4.355,-14.344 -6.417,-16.55 -2.063,-2.207 -5.042,-7.062 -5.042,-10.593 0,0 -0.229,-3.531 -0.917,-4.855 -0.687,-1.324 -4.354,-7.724 2.75,-8.165 0,0 3.896,0 4.813,2.428 0,0 0.229,-2.538 2.75,-2.428 0,0 3.782,0.11 4.011,2.538 0,0 3.094,-3.31 6.646,1.214 0,0 5.042,-2.759 6.99,1.986 0,0 6.187,-2.097 6.531,6.068 0.317,7.537 -0.344,27.144 -0.344,27.144 0,0 0.115,13.13 1.49,17.544 1.375,4.413 1.146,9.268 0.344,12.689 0,0 -0.688,5.185 -1.032,9.378 C 19.594,0.441 -0.115,0 0,0"
             inkscape:connector-curvature="0"
             id="path46"
             style="fill:#6ca7b9;fill-opacity:1;fill-rule:nonzero;stroke:none" /></g><g
           transform="translate(79.1147,85.2009)"
           id="g48"><path
             d="m 0,0 c 0,0 -1.604,-5.054 -0.458,-8.423 1.146,-3.37 1.833,-8.183 0.458,-12.997 0,0 -0.458,-2.888 0.458,-5.776 0.917,-2.888 2.063,-10.348 2.521,-14.199 0.459,-3.851 4.355,-15.644 6.417,-18.05 2.063,-2.407 5.042,-7.702 5.042,-11.553 0,0 0.229,-3.85 0.917,-5.294 0.687,-1.444 4.354,-8.424 -2.75,-8.905 0,0 -3.896,0 -4.813,2.647 0,0 -0.229,-2.767 -2.75,-2.647 0,0 -3.782,0.12 -4.011,2.768 0,0 -3.094,-3.61 -6.646,1.323 0,0 -5.042,-3.008 -6.99,2.166 0,0 -6.187,-2.286 -6.531,6.619 -0.317,8.219 0.344,29.602 0.344,29.602 0,0 -0.115,14.32 -1.49,19.133 -1.375,4.814 -1.146,10.108 -0.344,13.839 0,0 0.688,5.656 1.032,10.228 C -19.594,0.481 0.115,0 0,0"
             inkscape:connector-curvature="0"
             id="path50"
             style="fill:#6ca7b9;fill-opacity:1;fill-rule:nonzero;stroke:none" /></g><g
           transform="translate(161.667,650.1581)"
           id="g52"><path
             d="m 0,0 c -2.109,-0.234 -4.231,0.189 -6.353,0.255 -7.2,0.223 -14.005,-3.768 -18.534,-9.121 -4.529,-5.353 -9.313,-11.63 -9.273,-18.513 0.253,-43.718 25.144,-48.476 29.138,-49.501 24.071,-6.177 48.67,19.137 45.241,35.781 -2.049,9.943 -2.737,20.373 -7.523,29.417 C 27.91,-2.638 17.316,4.738 7.092,2.042 4.707,1.413 2.457,0.272 0,0"
             inkscape:connector-curvature="0"
             id="path54"
             style="fill:#373535;fill-opacity:1;fill-rule:nonzero;stroke:none" /></g><g
           transform="translate(124.3515,435.1587)"
           id="g56"><path
             d="m 0,0 c 0,0 -14.388,-13.466 -20.469,-17.694 -6.082,-4.228 -46.791,-13.83 -31.515,-39.165 0,0 6.007,-8.834 12.132,-10.07 0,0 3.71,0.416 6.581,3.059 0,0 17.111,1.527 41.5,55.489 L 0,0 z"
             inkscape:connector-curvature="0"
             id="path58"
             style="fill:#69a2b3;fill-opacity:1;fill-rule:nonzero;stroke:none" /></g><g
           transform="translate(199.7245,460.9291)"
           id="g60"><path
             d="m 0,0 -11.736,1.202 0.89,8.688 C -11.014,9.753 0.706,8.399 0.706,8.399 c 0,0 14.725,-2.025 15.913,-0.025 l -1.836,-8.397 c 0,0 -0.145,-1.099 -14.783,0.023"
             inkscape:connector-curvature="0"
             id="path62"
             style="fill:#292929;fill-opacity:1;fill-rule:nonzero;stroke:none" /></g><g
           transform="translate(108.0979,475.2172)"
           id="g64"><path
             d="m 0,0 c 0,0 0.157,-2.057 18.253,-3.395 0,0 12.574,-1.604 17.81,-11.124 3.223,-5.86 9.253,-3.966 9.253,-3.966 l -2.054,-9.391 c 0,0 -6.927,-0.189 -14.765,8.674 -7.498,8.48 -14.563,7.717 -14.563,7.717 0,0 -9.59,-0.199 -12.329,2.447 L 0,0 z"
             inkscape:connector-curvature="0"
             id="path66"
             style="fill:#292929;fill-opacity:1;fill-rule:nonzero;stroke:none" /></g><g
           transform="translate(142.7063,457.5745)"
           id="g68"><path
             d="M 0,0 C 0.847,0.013 1.898,-0.186 2.132,-1 2.28,-1.516 1.995,-2.077 1.58,-2.417 1.164,-2.757 0.639,-2.926 0.131,-3.098 c -4.059,-1.38 -7.87,-3.487 -11.198,-6.19 1.663,0.635 3.431,1.281 5.18,0.954 0.678,-0.127 1.32,-0.397 1.939,-0.699 0.607,-0.297 1.242,-0.676 1.488,-1.306 0.394,-1.01 -0.43,-2.117 -1.387,-2.628 0.782,-0.422 0.942,-1.54 0.58,-2.351 -0.362,-0.811 -1.095,-1.384 -1.8,-1.924 -0.861,-0.658 -1.722,-1.317 -2.583,-1.975 -0.412,-0.315 -0.871,-0.747 -0.768,-1.255 0.058,-0.284 0.282,-0.498 0.474,-0.715 1.245,-1.406 0.37,-2.604 -0.253,-4.375 -0.623,-1.772 -2.532,-7.055 -4.004,-8.221 -0.177,-0.141 1.278,2.615 1.053,2.599 -0.287,-0.02 -0.543,0.169 -0.767,0.349 -2.942,2.367 -4.966,2.291 -7.456,5.129 -0.183,0.209 0.52,-1.79 -0.326,0.799 -0.098,0.301 0.389,0.667 0.402,0.983 0.046,1.218 -1.566,4.994 -2.183,6.044 -0.562,0.956 -1.367,1.759 -1.86,2.752 -0.409,0.823 -0.585,1.739 -0.756,2.642 -0.254,1.334 -0.497,2.768 0.056,4.008 0.301,0.677 0.816,1.232 1.333,1.762 5.027,5.145 11.567,9.229 18.748,9.661 C -3.206,2.99 -2.218,2.809 -2.114,2.064 -2.046,1.581 -2.424,1.159 -2.786,0.832 -3.423,0.258 -4.104,-0.269 -4.821,-0.74 -3.258,-0.274 -1.631,-0.024 0,0"
             inkscape:connector-curvature="0"
             id="path70"
             style="fill:#69a2b3;fill-opacity:1;fill-rule:nonzero;stroke:none" /></g><g
           transform="translate(112.5487,565.8172)"
           id="g72"><path
             d="M 0,0 C 0,0 -4.585,-31.992 6.998,-94.596"
             inkscape:connector-curvature="0"
             id="path74"
             style="fill:none;stroke:#292929;stroke-width:3.30900002;stroke-linecap:butt;stroke-linejoin:miter;stroke-miterlimit:10;stroke-opacity:1;stroke-dasharray:none" /></g><g
           transform="translate(210.5844,562.8448)"
           id="g76"><path
             d="M 0,0 C 0,0 3.585,-31.992 -7.998,-94.596"
             inkscape:connector-curvature="0"
             id="path78"
             style="fill:none;stroke:#292929;stroke-width:3.30900002;stroke-linecap:butt;stroke-linejoin:miter;stroke-miterlimit:10;stroke-opacity:1;stroke-dasharray:none" /></g><g
           transform="translate(162.0181,305.2884)"
           id="g80"><path
             d="M 0,0 1.471,41.185 2.574,-1.103 0,0 z"
             inkscape:connector-curvature="0"
             id="path82"
             style="fill:#6ca7b9;fill-opacity:1;fill-rule:nonzero;stroke:none" /></g><g
           transform="translate(176.2331,253.0032)"
           id="g84"><path
             d="m 0,0 c 0,0 7.979,-59.227 41.773,-98.712 0,0 21.871,-32.481 23.748,-55.594 l 19.184,2.366 c 0,0 -8.341,65.631 -8.341,75.743 0,10.112 10.525,60.065 -22.331,97.624 0,0 -7.979,14.446 -9.387,20.705 C 43.238,48.392 34.263,74.636 0.469,66.45 -33.325,58.264 -8.449,20.224 -8.449,20.224 -8.449,20.224 -0.939,9.149 0,0"
             inkscape:connector-curvature="0"
             id="path86"
             style="fill:#6ca7b9;fill-opacity:1;fill-rule:nonzero;stroke:none" /></g><g
           transform="translate(143.8192,246.8413)"
           id="g88"><path
             d="m 0,0 c 0,0 -7.979,-64.593 -41.773,-107.655 0,0 -21.871,-35.424 -23.748,-60.631 l -19.184,2.582 c 0,0 8.341,71.576 8.341,82.604 0,11.028 -10.525,65.507 22.331,106.468 0,0 7.979,15.754 9.387,22.581 1.408,6.827 10.383,35.448 44.177,26.521 C 33.325,63.542 8.449,22.056 8.449,22.056 8.449,22.056 0.939,9.978 0,0"
             inkscape:connector-curvature="0"
             id="path90"
             style="fill:#6ca7b9;fill-opacity:1;fill-rule:nonzero;stroke:none" /></g><g
           transform="translate(251.0055,374.816)"
           id="g92"><path
             d="m 0,0 c -38.94,9.155 -53.48,47.635 -58.081,56.469 -4.601,8.833 -12.925,23.92 -12.925,23.92 -0.111,-0.087 -5.14,5.348 -6.106,5.869 -1.126,0.607 -1.645,1.525 -2.431,2.535 -2.633,3.386 -3.641,7.599 -5.245,11.671 -0.3,0.761 -0.638,2.69 0.358,3.317 1.027,0.647 1.439,-1.201 1.439,-1.201 1.195,-0.082 -1.057,3.692 -1.144,4.247 -0.345,2.194 -0.141,2.169 1.648,2.075 -0.893,1.232 -1.252,4.325 0.579,4.392 1.2,0.044 1.214,-1.441 2.266,-1.524 -0.19,0.557 -0.744,1.029 -0.61,1.681 0.154,0.751 1.21,1.533 1.853,1.536 1.176,0.006 1.866,-1.995 2.605,-2.733 1.095,-1.094 2.511,-1.809 3.696,-2.789 1.924,-1.59 3.467,-3.692 5.329,-5.369 1.61,-1.45 3.126,-1.016 4.537,0.718 1.04,1.278 4.83,11.319 7.465,7.203 0.77,-1.203 -1.273,-4.306 -1.923,-5.467 -1.102,-1.967 -0.973,-4.217 -1.874,-6.242 -3.574,-8.03 -5.207,-21.51 15.737,-31.54 C -4.749,50.534 -0.448,38.652 0.143,37.798 0.143,37.798 19.503,7.857 0,0"
             inkscape:connector-curvature="0"
             id="path94"
             style="fill:#68a1b4;fill-opacity:1;fill-rule:nonzero;stroke:none" /></g><g
           transform="translate(157.6488,589.6389)"
           id="g96"><path
             d="m 0,0 c -7.339,-4.796 -7.121,-15.309 0.414,-19.902 -6.605,-5.464 -7.433,-14.886 -1.852,-21.056 -2.658,-8.363 -5.964,-20.507 5.739,-25.984 0,0 -10.032,-3.996 -3.933,-19.111 -8.023,-6.79 -7.192,-19.094 1.697,-25.132 -7.386,-4.917 -6.731,-15.7 1.216,-20.003 -6.167,-5.079 -4.953,-14.679 2.357,-18.636 -7.364,-6.157 -7.441,-17.079 -0.165,-23.304 -5.386,-6.87 -3.676,-16.825 3.821,-22.237 8.608,7.773 7.779,21.182 -1.745,28.217 8.74,6.289 10.284,18.135 3.359,25.769 6.085,6.127 4.514,16.27 -3.251,20.984 8.024,5.191 8.649,16.282 1.241,22.046 8.271,4.332 8.62,15.694 0.625,20.356 7.253,6.75 5.847,18.397 -2.882,23.877 9.092,5.594 10.43,17.763 2.703,24.575 10.96,3.697 13.626,16.952 6.077,24.385 -7.549,7.433 -22.003,8.617 -32.5,4.12"
             inkscape:connector-curvature="0"
             id="path98"
             style="fill:#373535;fill-opacity:1;fill-rule:nonzero;stroke:none" /></g><g
           transform="translate(166.9429,394.2735)"
           id="g100"><path
             d="m 0,0 c 0,0 -18.4,0 -3.216,-36.389 0,0 19.929,30.362 3.216,36.389"
             inkscape:connector-curvature="0"
             id="path102"
             style="fill:#373535;fill-opacity:1;fill-rule:nonzero;stroke:none" /></g></g></g></g></svg>