<?xml version="1.0" encoding="UTF-8" standalone="no"?>
<!-- Created with Inkscape (http://www.inkscape.org/) -->

<svg
   xmlns:dc="http://purl.org/dc/elements/1.1/"
   xmlns:cc="http://creativecommons.org/ns#"
   xmlns:rdf="http://www.w3.org/1999/02/22-rdf-syntax-ns#"
   xmlns:svg="http://www.w3.org/2000/svg"
   xmlns="http://www.w3.org/2000/svg"
   xmlns:inkscape="http://www.inkscape.org/namespaces/inkscape"
   version="1.1"
   width="686.64752"
   height="569.95123"
   id="svg2"
   xml:space="preserve"><metadata
     id="metadata8"><rdf:RDF><cc:Work
         rdf:about=""><dc:format>image/svg+xml</dc:format><dc:type
           rdf:resource="http://purl.org/dc/dcmitype/StillImage" /></cc:Work></rdf:RDF></metadata><defs
     id="defs6"><clipPath
       id="clipPath16"><path
         d="m 0,455.961 549.318,0 L 549.318,0 0,0 0,455.961 z"
         inkscape:connector-curvature="0"
         id="path18" /></clipPath><clipPath
       id="clipPath104"><path
         d="m 189.092,384.043 171.003,0 0,-162.267 -171.003,0 0,162.267 z"
         inkscape:connector-curvature="0"
         id="path106" /></clipPath><clipPath
       id="clipPath108"><path
         d="m 243.449,343.084 c 22.162,-18.289 30.096,-51.443 30.096,-51.443 8.919,3.476 24.807,-22.87 38.679,-33.433 13.872,-10.563 47.871,-21.598 47.871,-21.598 l -14.863,-14.834 c -63.987,3.891 -86.95,26.033 -86.95,26.033 l -3.316,5.548 c -41.976,23.666 -54.767,70.671 -54.767,70.671 -6.492,3.366 -7.247,14.772 -7.247,14.772 -12.729,33.71 10.097,42.745 10.097,42.745 38.655,14.442 40.4,-38.461 40.4,-38.461"
         inkscape:connector-curvature="0"
         id="path110" /></clipPath></defs><g
     transform="matrix(1.25,0,0,-1.25,0,569.95125)"
     id="g10"><g
       id="g12"><g
         clip-path="url(#clipPath16)"
         id="g14"><g
           transform="translate(83.4202,18)"
           id="g20"><path
             d="m 0,0 -83.405,0 c 0,0 -0.776,8.421 8.758,7.707 0,0 4.926,16.709 26.73,17.423 3.917,0 40.721,-6.029 40.721,-6.029 L 0,0 z"
             inkscape:connector-curvature="0"
             id="path22"
             style="fill:#ed2790;fill-opacity:1;fill-rule:nonzero;stroke:none" /></g><g
           transform="translate(256.8957,197.7216)"
           id="g24"><path
             d="m 0,0 c 0,0 -9.94,-3.333 -7.822,-26.561 0,0 14.473,-75.068 4.431,-137.05 l -4.6,-13.482 -14.201,1.108 c 0,0 -166.513,-3.892 -170.406,-3.958 l -4.698,20.292 c 0,0 42.927,2.458 58.629,13.667 15.702,11.209 33.491,38.829 77.394,9.152 0,0 -13.503,83.922 -21.503,102.589 -2.924,7.053 -50,98.445 77,84 0,0 -10.672,-27.973 -4,-37 C 10.058,-14.076 0,0 0,0"
             inkscape:connector-curvature="0"
             id="path26"
             style="fill:#ed2790;fill-opacity:1;fill-rule:nonzero;stroke:none" /></g><g
           transform="translate(66.5327,48.5204)"
           id="g28"><path
             d="m 0,0 c 4.406,3.627 10.565,2.439 13.685,-2.641 l 2.704,-4.403 c 3.121,-5.08 1.24,-8.942 -4.181,-8.581 l -19.001,1.264 c -5.421,0.36 -6.25,3.623 -1.844,7.25 L 0,0 z"
             inkscape:connector-curvature="0"
             id="path30"
             style="fill:#ed2790;fill-opacity:1;fill-rule:nonzero;stroke:none" /></g><g
           transform="translate(344.1208,218.4518)"
           id="g32"><path
             d="m 0,0 c -5.001,9.027 -16.384,13.348 -16.384,13.348 -152.156,16.858 -88.618,-133.93 -88.618,-133.93 6.01,-17.272 10.884,-54.98 10.884,-54.98 -38.408,29.677 -61.312,2.057 -79.089,-9.152 -8.76,-5.524 -23.738,-8.921 -36.679,-10.948 -0.183,0.331 -0.385,0.666 -0.627,1.01 l -2.742,3.904 c -3.163,4.504 -9.407,5.558 -13.874,2.342 l -8.756,-6.305 c -1.006,-0.724 -1.728,-1.429 -2.203,-2.095 -10.131,1.247 -20.67,2.484 -22.613,2.484 -21.936,-0.714 -29.771,-16.423 -29.771,-16.423 -9.401,0.714 -10.184,-7.707 -10.184,-7.707 l 249.632,0 6.357,4.479 3.472,11.632 c 21.519,61.982 20.945,137.05 20.945,137.05 2.183,23.228 12.741,26.561 12.741,26.561 0,0 22.374,11.897 7.509,38.73"
             inkscape:connector-curvature="0"
             id="path34"
             style="fill:#88c0cd;fill-opacity:1;fill-rule:nonzero;stroke:none" /></g><g
           transform="translate(285.5282,90.2062)"
           id="g36"><path
             d="m 0,0 39.592,140.273 39,2 c 0,0 81,48 101.265,21.428 0,0 9.401,0.905 24.882,-6.609 0,0 24.47,-14.368 44.773,-16.557 0,0 11.412,-0.499 11.367,-9.366 0,0 4.107,-36.385 -32.572,-41.941 l -8.758,-2.668 1.215,7.209 -16.974,8.187 c 0,0 -6.274,4.147 -0.495,10.822 0,0 20.252,14.916 15.784,8.532 0,0 -8.291,-2.959 -11.156,-14.452 0,0 -14.831,-52.339 -73.677,-52.339 0,0 -22.912,-15.969 -98.591,15.969"
             inkscape:connector-curvature="0"
             id="path38"
             style="fill:#88c0cd;fill-opacity:1;fill-rule:nonzero;stroke:none" /></g><g
           transform="translate(478.8367,182.4574)"
           id="g40"><path
             d="m 0,0 c 6.048,-31.548 -11.008,-65.648 -11.008,-65.648 10.263,-3.408 5.038,-37.369 9.463,-56.358 4.425,-18.989 16.001,-52.797 16.001,-52.797 l -23.634,-2.07 c -52.798,49.162 -46.76,84.586 -46.76,84.586 l 1.126,7.13 c -19.383,50.348 3.458,99.799 3.458,99.799 -3.211,7.534 1.34,24.769 1.34,24.769 13.291,38.01 30.356,27.626 30.356,27.626 C 24.37,51.732 0,0 0,0"
             inkscape:connector-curvature="0"
             id="path42"
             style="fill:#ffffff;fill-opacity:1;fill-rule:nonzero;stroke:none" /></g><g
           transform="translate(477.2113,182.9887)"
           id="g44"><path
             d="m 0,0 c 5.284,-32.041 -12.591,-66.097 -12.591,-66.097 10.178,-3.697 4.134,-37.902 8.098,-57.206 3.965,-19.305 14.718,-54.01 14.718,-54.01 l -23.676,-1.515 c -33.64,46.461 -44.7,86.898 -44.7,86.898 l 1.298,7.181 c -18.161,51.372 5.868,100.805 5.868,100.805 -3.028,7.696 1.938,25.008 1.938,25.008 14.205,38.101 31.015,27.187 31.015,27.187 C 25.613,51.702 0,0 0,0"
             inkscape:connector-curvature="0"
             id="path46"
             style="fill:#88c0cd;fill-opacity:1;fill-rule:nonzero;stroke:none" /></g><g
           transform="translate(235.8708,217.3422)"
           id="g48"><path
             d="m 0,0 c 48.826,66.055 28.916,100.137 28.916,100.137 12,34 -28.39,71.704 -28.39,71.704 -10.498,5.485 -2.241,1.042 -2.241,1.042 5.129,-7.185 10.635,-2.062 10.635,-2.062 l 9.662,12.482 c 5.147,-3.648 6.343,-0.181 6.343,-0.181 l 1.324,12.348 c 4.163,35.799 -28,38.667 -28,38.667 -26.667,-1.334 -23.88,-29.037 -23.88,-29.037 2.547,-19.63 -12.787,-32.963 -12.787,-32.963 -43.333,-15.334 -23.355,-91.939 -23.355,-91.939 0,0 16.162,-44.675 4.867,-59.974 L 0,0 z"
             inkscape:connector-curvature="0"
             id="path50"
             style="fill:#ed2790;fill-opacity:1;fill-rule:nonzero;stroke:none" /></g><g
           transform="translate(245.1209,342.8838)"
           id="g52"><path
             d="m 0,0 c 22.516,-17.849 31.098,-50.841 31.098,-50.841 8.849,3.652 25.25,-22.376 39.326,-32.664 14.076,-10.288 33.715,-35.774 33.715,-35.774 -64.051,2.629 -87.443,24.314 -87.443,24.314 l -3.424,5.481 c -42.432,22.836 -56.14,69.58 -56.14,69.58 -6.557,3.237 -7.535,14.626 -7.535,14.626 -13.387,33.453 9.258,42.936 9.258,42.936 C -2.78,52.858 0,0 0,0"
             inkscape:connector-curvature="0"
             id="path54"
             style="fill:#ffffff;fill-opacity:1;fill-rule:nonzero;stroke:none" /></g><g
           transform="translate(243.4488,343.0843)"
           id="g56"><path
             d="m 0,0 c 22.162,-18.289 30.096,-51.443 30.096,-51.443 8.92,3.476 24.807,-22.871 38.679,-33.433 13.872,-10.563 44.137,-23.098 44.137,-23.098 l -11.128,-13.334 c -63.987,3.891 -86.95,26.032 -86.95,26.032 l -3.317,5.548 c -41.976,23.667 -54.767,70.672 -54.767,70.672 -6.492,3.366 -7.247,14.772 -7.247,14.772 C -63.226,29.426 -40.4,38.461 -40.4,38.461 -1.745,52.903 0,0 0,0"
             inkscape:connector-curvature="0"
             id="path58"
             style="fill:#ed2790;fill-opacity:1;fill-rule:nonzero;stroke:none" /></g><g
           transform="translate(524.0729,191.5698)"
           id="g60"><path
             d="M 0,0 C -0.3,-0.477 -0.672,-1.023 -0.489,-1.535 1.149,-0.922 2.183,0.722 2.764,2.347 3.195,3.55 3.392,5.037 2.501,5.905 2.05,6.344 1.295,6.523 0.733,6.184 1.442,4.194 1.164,1.852 0,0"
             inkscape:connector-curvature="0"
             id="path62"
             style="fill:#373535;fill-opacity:1;fill-rule:nonzero;stroke:none" /></g><g
           transform="translate(537.0057,180.9031)"
           id="g64"><path
             d="m 0,0 c -2.069,2.417 4.2,11.919 5.705,14.931 12.609,25.247 4.154,32.704 -0.654,35.57 -2.271,1.354 -5.091,1.708 -7.836,1.949 -4.542,0.398 -9.125,0.565 -13.723,0.499 -1.757,-5.074 -1.536,-10.602 0.609,-15.247 2.392,0.654 4.966,1.306 7.209,0.556 2.243,-0.749 3.7,-3.555 2.152,-5.455 -1.201,-1.474 -3.405,-1.632 -5.295,-1.646 2.629,-3.968 7.339,-6.549 12.428,-6.812 C -2.925,17.346 -7.239,2.579 0,0"
             inkscape:connector-curvature="0"
             id="path66"
             style="fill:#373535;fill-opacity:1;fill-rule:nonzero;stroke:none" /></g><g
           transform="translate(249.0576,420.9161)"
           id="g68"><path
             d="M 0,0 C -0.562,-0.028 -1.221,-0.085 -1.578,0.325 -0.241,1.453 1.697,1.55 3.4,1.262 4.66,1.049 6.052,0.493 6.373,-0.708 6.535,-1.316 6.322,-2.062 5.752,-2.387 4.363,-0.795 2.184,0.109 0,0"
             inkscape:connector-curvature="0"
             id="path70"
             style="fill:#373535;fill-opacity:1;fill-rule:nonzero;stroke:none" /></g><g
           transform="translate(252.1373,412.3042)"
           id="g72"><path
             d="M 0,0 C -0.409,-0.142 -0.854,0.139 -1.199,0.401 -2.714,1.553 -4.229,2.706 -5.745,3.859 -4.889,5.48 -2.306,6.092 -0.57,5.084 1.167,4.076 1.648,1.685 0.395,0.294 0.287,0.173 0.162,0.056 0,0"
             inkscape:connector-curvature="0"
             id="path74"
             style="fill:#373535;fill-opacity:1;fill-rule:nonzero;stroke:none" /></g><g
           transform="translate(261.4467,427.9561)"
           id="g76"><path
             d="m 0,0 c -1.815,1.754 -4.774,4.421 -7.393,5.114 -2.619,0.693 -5.654,0.476 -7.851,-0.924 1.405,-1.18 0.534,-3.325 -1.003,-4.378 -1.538,-1.052 -3.542,-1.486 -5.153,-2.455 -2.238,-1.345 -3.525,-3.652 -3.77,-5.979 -1.619,0.218 -2.797,1.481 -3.33,2.805 -0.532,1.323 -0.58,2.748 -0.899,4.121 -0.319,1.372 -0.999,2.791 -2.387,3.535 -2.181,1.17 -5.215,0.126 -6.771,-1.626 -1.556,-1.752 -2.056,-4 -2.69,-6.13 -0.602,-2.019 -1.384,-4.04 -2.818,-5.725 -1.435,-1.685 -3.615,-3.007 -6.048,-3.16 -0.579,-0.037 -1.202,0.004 -1.665,0.302 -0.679,0.437 -0.789,1.255 -0.842,1.979 0,0 -8.858,40.065 24.833,36.524 C 6.163,20.435 0,0 0,0"
             inkscape:connector-curvature="0"
             id="path78"
             style="fill:#373535;fill-opacity:1;fill-rule:nonzero;stroke:none" /></g><g
           transform="translate(218.6282,452.26)"
           id="g80"><path
             d="m 0,0 c -0.2,-0.352 -0.669,-0.417 -1.072,-0.461 -2.275,-0.247 -4.777,-1.427 -5.284,-3.66 -0.139,-0.614 -0.118,-1.279 -0.415,-1.835 -0.361,-0.675 -1.102,-1.035 -1.684,-1.531 -1.361,-1.161 -1.826,-3.056 -1.993,-4.838 -0.166,-1.781 -0.122,-3.623 -0.771,-5.29 -0.225,-0.58 -0.539,-1.165 -0.475,-1.785 0.128,-1.245 1.441,-11.251 1.076,-12.449 4.536,3.627 10.34,14.962 16.012,16.21 5.673,1.247 11.519,1.51 17.327,1.434 3.15,-0.042 6.414,-0.211 9.215,-1.651 2.025,-1.04 3.439,0.261 5.645,-0.3 1.783,-0.452 4.403,-3.331 5.235,-4.971 1.078,5.227 0.097,10.85 -2.687,15.404 -0.362,0.591 -1.016,1.246 -1.636,0.936 -0.378,-0.189 -0.512,-0.648 -0.729,-1.01 -0.217,-0.362 -0.732,-0.66 -1.036,-0.367 -0.461,2.057 -1.694,3.931 -3.4,5.17 -0.328,0.238 -0.787,0.453 -1.112,0.211 -0.274,-0.205 -0.276,-0.613 -0.455,-0.903 -0.317,-0.512 -1.107,-0.502 -1.608,-0.168 -0.5,0.334 -0.804,0.884 -1.164,1.366 C 28.223,0.54 27.132,1.321 25.912,1.715 25.592,1.819 25.216,1.889 24.938,1.7 24.711,1.547 24.616,1.266 24.457,1.044 23.939,0.32 22.822,0.328 22.027,0.73 21.233,1.131 20.622,1.818 19.879,2.308 19.136,2.798 18.11,3.066 17.378,2.559 17.094,2.363 16.888,2.071 16.611,1.865 15.934,1.362 14.968,1.468 14.2,1.817 13.432,2.166 12.775,2.721 12.023,3.105 10.934,3.661 9.654,3.837 8.455,3.594 8.201,3.543 7.916,3.444 7.82,3.203 7.724,2.958 7.869,2.683 7.84,2.421 7.783,1.914 7.147,1.715 6.637,1.721 5.416,1.735 4.247,2.236 3.029,2.314 1.811,2.392 0.369,1.819 0.145,0.619 0.106,0.41 0.105,0.186 0,0"
             inkscape:connector-curvature="0"
             id="path82"
             style="fill:#373535;fill-opacity:1;fill-rule:nonzero;stroke:none" /></g><g
           transform="translate(355.1058,237.0362)"
           id="g84"><path
             d="m 0,0 c 0,0 10.195,1.735 18.88,-3.626 0,0 7.218,-5.612 9.575,-9.408 0,0 7.763,-8.757 9.095,-11.38 0,0 1.293,-1.731 -0.098,-3.256 -1.391,-1.525 -5.551,-0.899 -11.866,8.086 0,0 -4.592,3.046 -5.364,3.987 0,0 12.4,-16.435 14.073,-19.449 0,0 2.262,-3.475 -0.026,-4.878 -2.287,-1.403 -5.816,3.235 -8.971,6.752 0,0 6.619,-6.695 4.195,-8.673 -2.425,-1.978 -5.455,0.569 -11.867,8.086 0,0 -4.749,4.746 -6.187,7.933 0,0 -0.724,-0.114 -0.379,-0.586 0,0 4.386,-7.526 7.618,-10.958 0,0 1.719,-2.199 0.067,-3.33 -1.651,-1.131 -5.936,0.466 -13.704,12.962 0,0 -9.159,5.525 -12.085,9.377 0,0 -4.533,3.536 -7.684,3.314 L -8.821,1.556 C -8.821,1.556 -2.82,-0.37 0,0"
             inkscape:connector-curvature="0"
             id="path86"
             style="fill:#ed2790;fill-opacity:1;fill-rule:nonzero;stroke:none" /></g><g
           transform="translate(520.8618,196.5361)"
           id="g88"><path
             d="m 0,0 c -1.349,0.096 -2.761,-0.767 -3.123,-2.071 -0.362,-1.303 0.545,-2.866 1.886,-3.043 -0.708,1.222 -0.192,2.99 1.064,3.639 0.23,0.119 0.481,0.205 0.682,0.369 0.201,0.164 0.345,0.437 0.261,0.682 C 0.669,-0.13 0.31,-0.022 0,0"
             inkscape:connector-curvature="0"
             id="path90"
             style="fill:#373535;fill-opacity:1;fill-rule:nonzero;stroke:none" /></g><g
           transform="translate(520.8618,196.5361)"
           id="g92"><path
             d="m 0,0 c -1.349,0.096 -2.761,-0.767 -3.123,-2.071 -0.362,-1.303 0.545,-2.866 1.886,-3.043 -0.708,1.222 -0.192,2.99 1.064,3.639 0.23,0.119 0.481,0.205 0.682,0.369 0.201,0.164 0.345,0.437 0.261,0.682 C 0.669,-0.13 0.31,-0.022 0,0 z"
             inkscape:connector-curvature="0"
             id="path94"
             style="fill:none;stroke:#373535;stroke-width:1.10000002;stroke-linecap:butt;stroke-linejoin:miter;stroke-miterlimit:10;stroke-opacity:1;stroke-dasharray:none" /></g><g
           transform="translate(520.5804,1.4039)"
           id="g96"><path
             d="m 0,0 c 0,0 0.281,-0.749 -0.562,-1.404 l -54.754,0 c 0,0 -2.62,6.271 -2.995,9.921 l 14.508,8.986 c 0,0 21.527,-1.217 28.828,-4.961 0,0 5.709,-0.842 8.142,-0.749 2.434,0.094 5.616,-0.655 7.395,-1.872 0,0 7.675,-3.369 9.64,-3.744 0,0 5.241,-1.31 6.365,-1.497 1.123,-0.187 4.118,-1.03 1.404,-4.025 l -4.119,0 c 0,0 0.094,-0.936 -0.655,-0.936 L 0,0 z"
             inkscape:connector-curvature="0"
             id="path98"
             style="fill:#88c0cd;fill-opacity:1;fill-rule:nonzero;stroke:none" /></g><g
           id="g100"><g
             id="g102" /><g
             id="g112"><g
               clip-path="url(#clipPath104)"
               id="g114"><g
                 id="g116"><g
                   clip-path="url(#clipPath108)"
                   id="g118"><g
                     transform="translate(195.6646,300.627)"
                     id="g120"><path
                       d="M 0,0 C -0.246,1.47 0.936,3.699 1.977,4.668 0.952,5.124 -0.364,4.4 -1.263,5.311 -0.287,5.814 1.519,5.033 2.219,6.113 2.923,7.2 2.231,8.925 3.368,10.008 3.785,9.193 2.578,6.823 3.746,6.188 3.771,6.175 4.656,6.518 4.729,6.57 5.396,7.041 4.984,6.806 5.304,7.534 5.812,8.688 5.955,9.691 7.176,10.388 7.452,9.85 6.453,8.279 6.774,7.382 7.92,7.973 9.161,10.603 7.528,11.183 6.206,11.652 4.748,9.798 4.201,8.855 c -0.884,1.727 1.349,3.945 2.754,4.55 0.619,0.266 1.698,0.099 2.206,0.451 0.807,0.558 0.491,1.885 0.942,2.663 0.366,-0.716 0.409,-2.793 1.048,-3.232 0.535,-0.369 2.311,0.113 2.951,0.107 0.738,-0.006 1.465,-0.118 2.204,-0.019 1.389,0.186 3.652,1.149 2.608,2.936 -1.03,1.765 -2.657,-0.239 -3.441,-1.042 -0.017,0.113 -0.066,0.129 -0.145,0.047 -0.558,1.836 0.452,3.317 2.227,3.824 0.324,0.093 3.473,0.025 3.478,-0.277 0.11,0.613 -1.265,1.448 -1.661,1.821 1.28,0.659 3.077,-1.113 3.892,-1.949 1.363,-1.399 2.827,-1.445 4.773,-1.173 1.32,0.185 3.365,0.85 3.662,2.386 0.254,1.31 -1.339,3.384 -2.749,3.114 0.707,-1.38 -0.002,-2.846 -0.97,-4.028 -0.018,0.113 -0.066,0.128 -0.145,0.047 0.289,0.966 0.042,3.27 -1.38,2.696 -1.142,-0.461 -0.681,-2.643 -1.267,-3.451 -1.064,2.081 -0.939,4.278 1.05,5.68 0.903,0.637 2.107,1.192 3.231,1.15 1.054,-0.04 2.129,-1.135 2.994,-1.136 -0.416,1.78 1.456,4.229 2.951,4.896 2.351,1.05 4.32,0.184 5.465,-2.144 -0.624,-0.321 -2.192,1.879 -3.454,0.978 -1.437,-1.027 0.639,-2.268 1.399,-2.888 -0.849,-0.437 -2.024,-0.121 -2.761,0.428 -0.961,0.715 -1.08,1.588 -1.334,-0.014 -0.333,-2.103 1.318,-3.346 3.202,-2.699 1.672,0.575 3.681,2.879 4.178,4.614 0.507,1.77 -1.219,4.089 0.49,5.699 0.171,-0.335 -0.076,-0.723 -0.003,-1.124 0.108,-0.592 0.429,-1.155 0.709,-1.676 0.379,0.195 0.202,0.797 0.285,1.167 0.212,0.938 0.524,1.958 1.254,2.613 1.873,1.68 3.26,0.453 4.798,-0.759 -0.961,-0.495 -2.248,0.698 -2.872,-1.034 -0.745,-2.068 1.396,-2.557 2.664,-1.399 1.145,1.046 1.783,2.456 2.696,3.686 0.488,0.657 1.103,0.937 0.842,1.664 -0.179,0.499 -1.362,1.379 -1.692,1.941 0.467,0.241 1.468,-0.723 2.081,-0.606 0.812,0.155 0.867,0.894 1.413,1.472 1.396,1.479 4.415,1.559 5.858,0.057 -0.711,-0.366 -5.638,-0.347 -3.973,-2.896 0.296,-0.453 3.518,-1.16 3.774,-0.456 0.3,0.825 -2.409,1.338 -2.824,1.674 0.699,0.36 1.306,0.422 2.058,0.341 0.626,-0.067 1.512,-0.782 1.986,-0.797 0.347,-0.011 0.789,0.19 1.037,0.555 0.383,0.564 0.303,0.091 0.101,0.739 -0.279,0.896 -1.722,1.662 -2.367,2.193 0.749,0.386 2.474,-0.683 3.002,-0.887 0.932,-0.361 0.527,-0.839 1.489,-0.047 0.748,0.615 0.872,1.541 1.528,2.209 0.521,-1.018 -1.441,-2.844 -1.261,-3.934 1.003,0.497 3.887,0.426 4.781,-0.337 -0.67,-0.344 -1.982,-0.006 -2.864,-0.402 -1.148,-0.515 -2.129,-1.352 -3.2,-1.999 -2.02,-1.222 -4.626,-2.127 -6.977,-1.348 -0.355,0.118 -0.695,0.453 -1.055,0.524 -0.946,0.186 -0.548,0.11 -1.16,-0.408 -1.094,-0.927 -1.479,-2.621 -2.473,-3.673 -0.416,-0.44 -1.897,-1.054 -1.75,-1.756 0.186,-0.888 2.089,-0.328 2.357,-0.851 -1.113,-0.573 -2.223,-0.76 -3.468,-0.592 -0.633,0.085 -1.31,0.293 -1.914,0.495 -0.375,0.126 -1.418,0.874 -1.751,0.885 -0.535,0.016 -1.805,-1.328 -1.771,-2.185 0.065,-1.626 2.628,-0.799 2.999,-1.522 -0.73,-0.376 -1.941,-0.682 -2.791,-0.708 -0.469,-0.014 -1.127,0.442 -1.596,0.273 -0.15,-0.054 -1.218,-1.489 -1.353,-1.618 -1.095,-1.041 -2.392,-1.817 -3.913,-1.998 -1.377,-0.164 -2.207,0.714 -3.438,0.715 0.073,-2.27 -1.981,-4.411 -3.999,-5.147 -0.654,-0.239 -1.406,-0.216 -2.091,-0.315 -0.957,-0.137 -0.802,-0.26 -1.329,-0.819 -0.95,-1.007 -1.507,-1.961 -2.813,-2.639 -0.191,0.374 0.86,1.835 0.897,2.462 0.065,1.106 -0.217,0.959 -1.085,1.213 -0.317,0.066 -0.637,0.106 -0.961,0.118 -0.608,0.131 -0.81,-0.08 -0.603,-0.633 -1.315,-2.425 -1.26,-5.465 -4.046,-6.998 -0.297,0.582 0.943,1.721 0.451,2.568 C 17.922,11.484 14.692,10.85 13.88,10.799 12.738,10.726 11.416,11.12 10.818,10.197 10.23,9.289 10.32,7.881 9.661,6.913 8.44,5.12 6.688,4.446 4.7,3.865 3.86,3.619 3.157,3.463 2.478,2.979 1.307,2.146 0.925,1.055 0,0 -0.198,1.183 0.403,0.46 0,0"
                       inkscape:connector-curvature="0"
                       id="path122"
                       style="fill:#373535;fill-opacity:1;fill-rule:evenodd;stroke:none" /></g></g></g></g></g></g></g></g></g></svg>