<?xml version="1.0" encoding="UTF-8" standalone="no"?>
<!-- Created with Inkscape (http://www.inkscape.org/) -->

<svg
   xmlns:dc="http://purl.org/dc/elements/1.1/"
   xmlns:cc="http://creativecommons.org/ns#"
   xmlns:rdf="http://www.w3.org/1999/02/22-rdf-syntax-ns#"
   xmlns:svg="http://www.w3.org/2000/svg"
   xmlns="http://www.w3.org/2000/svg"
   xmlns:inkscape="http://www.inkscape.org/namespaces/inkscape"
   version="1.1"
   width="778.45123"
   height="394.21249"
   id="svg2"
   xml:space="preserve"><metadata
     id="metadata8"><rdf:RDF><cc:Work
         rdf:about=""><dc:format>image/svg+xml</dc:format><dc:type
           rdf:resource="http://purl.org/dc/dcmitype/StillImage" /></cc:Work></rdf:RDF></metadata><defs
     id="defs6"><clipPath
       id="clipPath16"><path
         d="m 0,315.37 622.761,0 L 622.761,0 0,0 0,315.37 z"
         inkscape:connector-curvature="0"
         id="path18" /></clipPath></defs><g
     transform="matrix(1.25,0,0,-1.25,0,394.2125)"
     id="g10"><g
       id="g12"><g
         clip-path="url(#clipPath16)"
         id="g14"><g
           transform="translate(356.3035,212.8521)"
           id="g20"><path
             d="m 0,0 c 0,0 -9.526,-3.058 -0.533,-24.368 0,0 37.12,-68.871 44.547,-125.736 l -0.935,-12.369 -15.317,1.016 c 0,0 -174.687,-3.57 -178.779,-3.631 l -10.863,18.617 c 0,0 44.611,2.255 57.93,12.539 13.318,10.283 24.067,35.623 79.058,8.396 0,0 -21.205,36.259 -38.237,50.442 0,0 -140.433,138.339 28.426,122.873 0,0 -4.028,12.932 23.793,-12.246 C 16.911,10.355 0,0 0,0"
             inkscape:connector-curvature="0"
             id="path22"
             style="fill:#88c0cd;fill-opacity:1;fill-rule:nonzero;stroke:none" /></g><g
           transform="translate(111.1061,73.4805)"
           id="g24"><path
             d="M 0,0 9.173,-25.478 -20.384,-22.155 0,0 z"
             inkscape:connector-curvature="0"
             id="path26"
             style="fill:#88c0cd;fill-opacity:1;fill-rule:nonzero;stroke:none" /></g><g
           transform="translate(109.1844,34.0689)"
           id="g28"><path
             d="m 0,0 -109.184,0 c 0,0 0.827,8.891 10.754,8.137 0,0 8.272,16.587 31.435,17.341 4.136,0 63.131,-5.309 63.131,-5.309 L 0,0 z"
             inkscape:connector-curvature="0"
             id="path30"
             style="fill:#88c0cd;fill-opacity:1;fill-rule:nonzero;stroke:none" /></g><g
           transform="translate(327.4927,223.8352)"
           id="g32"><path
             d="m 0,0 c 0,0 -11.148,-3.519 -13.453,-28.046 0,0 0.606,-79.263 -22.115,-144.709 l -7.493,-14.236 -14.778,1.17 c 0,0 -176.58,-4.109 -180.704,-4.179 l -0.993,21.427 c 0,0 45.807,2.595 64.578,14.43 18.77,11.835 42.954,40.999 83.509,9.664 0,0 -1.98,41.73 -11.493,58.053 0,0 -67.089,159.215 93.571,141.415 0,0 2.828,14.883 17.3,-14.094 C 22.401,11.917 0,0 0,0"
             inkscape:connector-curvature="0"
             id="path34"
             style="fill:#88c0cd;fill-opacity:1;fill-rule:nonzero;stroke:none" /></g><g
           transform="translate(364.1708,14.0491)"
           id="g36"><path
             d="m 0,0 c -0.714,-1.68 0.063,-3.854 1.381,-4.892 1.318,-1.038 3.004,-1.158 4.574,-0.947 1.042,-2.9 4.151,-4.02 6.752,-3.445 2.602,0.575 4.859,2.411 7.152,3.985 5.286,3.627 11.16,6.032 17.2,7.041 -3.786,-2.941 -7.572,-5.882 -11.358,-8.823 -0.362,-0.281 -0.73,-0.569 -1.008,-0.964 -0.905,-1.287 -0.523,-3.387 0.518,-4.519 1.041,-1.133 2.531,-1.474 3.94,-1.485 7.526,-0.058 13.427,7.582 20.575,10.391 5.907,2.32 12.352,1.211 18.424,-0.391 8.337,-2.2 17.526,-5.164 25.01,-0.265 2.325,1.523 4.29,3.714 6.516,5.435 2.225,1.722 4.905,2.992 7.5,2.334 -0.025,7.715 0.893,15.433 2.714,22.836 -4.514,1.084 -50.735,-2.261 -54.682,-2.024 -2.647,0.159 -5.355,0.386 -7.899,-0.499 C 45.363,23.091 43.618,21.798 41.817,20.69 34,15.88 24.987,14.482 17.027,10.016 12.713,7.596 8.711,4.277 4.121,2.742 2.557,2.219 0.734,1.727 0,0"
             inkscape:connector-curvature="0"
             id="path38"
             style="fill:#ee3539;fill-opacity:1;fill-rule:nonzero;stroke:none" /></g><g
           transform="translate(459.916,40.2875)"
           id="g40"><path
             d="m 0,0 c 0,0 19.227,1.425 29.965,5.083 l 24.63,-35.63 c 0,0 -14.128,0.365 -25.348,2.471 -11.219,2.106 -27.137,3.309 -29.631,-0.802 L 0,0 z"
             inkscape:connector-curvature="0"
             id="path42"
             style="fill:#ee3338;fill-opacity:1;fill-rule:nonzero;stroke:none" /></g><g
           transform="translate(489.9162,294.0818)"
           id="g44"><path
             d="m 0,0 c 0,0 18.041,-1.05 33.412,14.073 0,0 8.041,8.989 15.254,3.021 0,0 32.473,-20.984 12.476,-54.666 l -3.678,-8.939 -5.076,5.814 -18.044,-8.391 c 0,0 -7.585,-2.351 -9.172,6.835 0,0 -2.569,8.979 -10.211,5.578 0,0 -8.754,-3.125 -11.779,-15.26 0,0 -2.286,-65.527 -77.795,-55.264 0,0 -24.193,-16.861 -104.101,16.861 0,0 0.579,-59.417 10.431,-99.647 l -48.079,25.22 13.001,122.181 18.421,-17.008 c 0,0 101.77,107.024 158.487,67.677 0,0 16.689,-9.442 26.453,-8.085"
             inkscape:connector-curvature="0"
             id="path46"
             style="fill:#88c0cd;fill-opacity:1;fill-rule:nonzero;stroke:none" /></g><g
           transform="translate(470.3789,283.2763)"
           id="g48"><path
             d="m 0,0 c 0,0 -9.107,26.763 -44.787,27.322 0,0 -19.331,-1.638 -24.67,-9.108 0,0 -61.319,8.004 -98.237,-39.22 l -15.069,-3.986 c 0,0 -12.114,-59.983 29.087,-141.38 l 32.372,-3.864 c 0,0 -10.692,39.172 -6.601,59.928 4.091,20.757 8.08,26.139 5.223,40.96 0,0 45.672,-6.172 72.453,15.5 0,0 61.827,-10.032 50.229,53.848"
             inkscape:connector-curvature="0"
             id="path50"
             style="fill:#ffffff;fill-opacity:1;fill-rule:nonzero;stroke:none" /></g><g
           transform="translate(470.1432,286.5097)"
           id="g52"><path
             d="m 0,0 c 0,0 -0.224,26.711 -45.311,27.348 0,0 -19.549,-1.627 -24.944,-9.094 0,0 -62.02,8.039 -99.33,-39.165 l -7.629,-1.657 c 0,0 -18.917,-59.241 22.797,-140.663 l 31.013,-13.889 c 0,0 -10.015,46.127 -5.89,66.882 4.126,20.755 8.158,26.135 5.259,40.958 0,0 43.559,-7.239 70.632,14.418 0,0 65.169,-9.027 53.403,54.862"
             inkscape:connector-curvature="0"
             id="path54"
             style="fill:#88c0cd;fill-opacity:1;fill-rule:nonzero;stroke:none" /></g><g
           transform="translate(547.9928,272.9915)"
           id="g56"><path
             d="M 0,0 C 0.189,-0.564 0.386,-1.233 0.927,-1.427 1.522,0.323 0.871,2.266 -0.068,3.829 -0.763,4.985 -1.846,6.14 -3.151,5.993 -3.811,5.918 -4.463,5.421 -4.562,4.735 -2.462,3.983 -0.734,2.19 0,0"
             inkscape:connector-curvature="0"
             id="path58"
             style="fill:#373535;fill-opacity:1;fill-rule:nonzero;stroke:none" /></g><g
           transform="translate(565.3583,276.4219)"
           id="g60"><path
             d="m 0,0 c -3.358,-0.073 -6.928,11.405 -8.382,14.649 -12.191,27.19 -23.939,25.269 -29.497,23.259 -2.625,-0.949 -4.801,-3.017 -6.834,-5.098 -3.363,-3.444 -6.565,-7.077 -9.588,-10.878 2.971,-4.829 7.635,-8.346 12.864,-9.701 1.066,2.391 2.256,4.931 4.368,6.262 2.113,1.33 5.379,0.645 5.897,-1.892 0.401,-1.966 -0.945,-3.872 -2.198,-5.426 5,-0.507 10.26,1.614 13.878,5.596 C -16.128,9.213 -6.949,-4.189 0,0"
             inkscape:connector-curvature="0"
             id="path62"
             style="fill:#373535;fill-opacity:1;fill-rule:nonzero;stroke:none" /></g><g
           transform="translate(543.666,267.3763)"
           id="g64"><path
             d="M 0,0 C -0.457,0.018 -0.786,0.465 -1.024,0.856 -2.07,2.573 -3.116,4.289 -4.161,6.006 -2.695,7.271 0.08,6.877 1.398,5.218 2.717,3.558 2.269,1.022 0.502,0.136 0.348,0.06 0.181,-0.007 0,0"
             inkscape:connector-curvature="0"
             id="path66"
             style="fill:#373535;fill-opacity:1;fill-rule:nonzero;stroke:none" /></g><g
           transform="translate(556.4786,66.3862)"
           id="g68"><path
             d="M 0,0 C 0,0 33.77,-11.738 54.876,-35.095"
             inkscape:connector-curvature="0"
             id="path70"
             style="fill:none;stroke:#ffffff;stroke-width:1.24199998;stroke-linecap:round;stroke-linejoin:round;stroke-miterlimit:10;stroke-opacity:1;stroke-dasharray:none" /></g><g
           transform="translate(552.6091,79.8445)"
           id="g72"><path
             d="M 0,0 C 0,0 0.879,18.575 5.628,29.059 L -3.166,34.76"
             inkscape:connector-curvature="0"
             id="path74"
             style="fill:none;stroke:#ffffff;stroke-width:1.24199998;stroke-linecap:round;stroke-linejoin:round;stroke-miterlimit:10;stroke-opacity:1;stroke-dasharray:none" /></g><g
           transform="translate(557.1305,209.3209)"
           id="g76"><path
             d="m 0,0 -14.464,11.771 c 4.821,9.563 13.086,16.184 13.086,16.184 L -8.954,38.99 C 16.53,52.968 29.617,47.082 29.617,47.082 61.989,28.691 47.525,14.713 47.525,14.713 39.949,4.414 26.173,-22.07 26.173,-22.07 c 53.724,-21.334 36.505,-56.646 36.505,-56.646 0,0 13.555,-12.362 -17.418,-117.827 l -8.629,-3.038 -81.164,0 c -5.51,1.472 -23.655,35.312 -23.655,35.312 37.193,13.978 68.838,20.856 68.838,20.856 l -2.716,16.144 c -54.413,-41.933 -123.342,-24.98 -131.555,-23.542 -7.613,1.334 -15.686,-2.442 -15.686,-2.442 l -33.217,65.709 c 13.087,8.093 73.686,52.643 73.686,52.643 25.659,56.449 104.705,22.395 104.705,22.395"
             inkscape:connector-curvature="0"
             id="path78"
             style="fill:#ee3338;fill-opacity:1;fill-rule:nonzero;stroke:none" /></g><g
           transform="translate(87.3039,69.1735)"
           id="g80"><path
             d="m 0,0 c -11.052,-6.111 -34.4,-2.967 -47.013,-3.204 -4.702,-0.089 -7.207,0.703 -11.46,2.963 -4.815,2.559 -8.144,8.076 -8.269,13.706 -0.029,1.321 0.092,2.701 -0.438,3.913 -1.088,2.486 -4.631,2.906 -6.582,1.209 -1.951,-1.696 -2.45,-4.729 -1.974,-7.405 -1.946,1.215 -4.867,1.87 -6.029,-0.107 -0.676,-1.148 -0.353,-2.736 0.429,-3.853 0.781,-1.117 1.933,-1.868 3.055,-2.59 -1.208,-0.756 -1.337,-2.665 -0.659,-4.006 0.679,-1.341 1.926,-2.244 3.123,-3.091 -0.899,-0.883 -0.796,-2.511 -0.112,-3.631 0.685,-1.121 1.802,-1.854 2.879,-2.548 -1.591,-1.408 -0.8,-4.176 0.257,-6.132 5.242,-9.701 14.352,-17.055 24.537,-19.809 4.958,-1.34 10.161,-1.648 14.919,-3.687 4.522,-1.938 8.502,-5.171 12.034,-8.763 12.93,-13.154 15.618,-8.055 15.978,-7.862 6.796,3.634 7.881,7.859 10.362,15.491 2.481,7.633 4.644,15.828 10.14,21.37"
             inkscape:connector-curvature="0"
             id="path82"
             style="fill:#ee3338;fill-opacity:1;fill-rule:nonzero;stroke:none" /></g><g
           transform="translate(381.6144,127.1079)"
           id="g84"><path
             d="m 0,0 c 0,0 -9.487,-6.628 -31.357,8.218 0,0 -65.951,54.499 -134.034,80.695 l -16.306,3.634 -7.695,-12.763 c 0,0 -107.072,-140.169 -109.551,-143.461 l 17.341,-15.403 c 0,0 29.055,35.319 49.973,42.453 20.917,7.133 59.506,6.843 57.095,61.03 0,0 33.747,-30.038 41.819,-48.862 0,0 66.658,-126.719 153.127,-51.406 0,0 34.198,22.958 18.451,54.42 C 23.117,10.017 0,0 0,0"
             inkscape:connector-curvature="0"
             id="path86"
             style="fill:#ee3338;fill-opacity:1;fill-rule:nonzero;stroke:none" /></g><g
           transform="translate(569.2736,239.8475)"
           id="g88"><path
             d="M 0,0 C -0.421,-0.079 -0.824,0.22 -1.13,0.491 -2.476,1.681 -3.822,2.87 -5.168,4.06 -4.117,5.392 -1.493,5.636 0.089,4.548 1.671,3.46 1.84,1.297 0.427,0.214 0.305,0.12 0.167,0.031 0,0"
             inkscape:connector-curvature="0"
             id="path90"
             style="fill:#373535;fill-opacity:1;fill-rule:nonzero;stroke:none" /></g><g
           transform="translate(573.8464,242.6541)"
           id="g92"><path
             d="M 0,0 C 0.238,-0.545 0.494,-1.194 1.05,-1.339 1.487,0.456 0.667,2.334 -0.407,3.808 -1.201,4.898 -2.382,5.953 -3.669,5.691 -4.32,5.558 -4.925,5.005 -4.963,4.313 -2.804,3.75 -0.925,2.116 0,0"
             inkscape:connector-curvature="0"
             id="path94"
             style="fill:#373535;fill-opacity:1;fill-rule:nonzero;stroke:none" /></g><g
           transform="translate(555.7529,237.276)"
           id="g96"><path
             d="m 0,0 c 0,0 -3.131,-2.787 -4.093,-3.887 l 9.347,-6.598 c 0,0 -2.612,-9.347 -11.271,-5.086 0,0 -3.712,1.375 -3.987,4.399 0,0 -2.179,-3.427 -3.083,-5.013 l 7.07,-5.571 c 0,0 7.147,-4.261 13.745,11.546 0,0 1.451,4.2 -7.728,10.21"
             inkscape:connector-curvature="0"
             id="path98"
             style="fill:#373535;fill-opacity:1;fill-rule:nonzero;stroke:none" /></g><g
           transform="translate(557.78,65.9084)"
           id="g100"><path
             d="m 0,0 c 0,0 -6.398,23.224 -0.214,41.643 0,0 -4.129,-3.611 -5.066,-29.288 L 0,0 z"
             inkscape:connector-curvature="0"
             id="path102"
             style="fill:#ffffff;fill-opacity:1;fill-rule:nonzero;stroke:none" /></g><g
           transform="translate(427.4739,280.123)"
           id="g104"><path
             d="m 0,0 c 0.187,-0.703 -0.232,-1.428 -0.935,-1.615 -0.567,-0.151 -1.132,0.102 -1.435,0.57 l 0.049,0.017 -0.242,0.543 c -0.07,0.637 0.31,1.25 0.948,1.42 C -0.912,1.123 -0.187,0.703 0,0 m -17.891,-15.388 0.062,-1.769 c 0,0 -6.279,-1.554 -8.227,7.807 l -0.005,-0.002 18.466,6.475 0.989,-4.089 c -0.377,-0.185 -0.492,-0.537 -0.508,-0.94 -0.012,-0.273 0.078,-0.977 0.267,-1.216 0.223,-0.283 0.8,-0.591 1.168,-0.577 0.265,0.011 0.799,0.112 0.953,0.385 0.397,0.11 0.409,0.361 0.563,0.719 0.201,0.469 0.158,0.817 -0.171,1.15 -0.302,0.304 -0.568,0.578 -0.973,0.703 -0.079,0.025 -0.169,0.032 -0.262,0.033 l -0.901,4.226 3.072,1.077 C -2.904,-2.39 -1.769,-2.93 -0.664,-2.635 0.602,-2.298 1.357,-0.993 1.02,0.272 0.683,1.537 -0.621,2.293 -1.887,1.956 -2.807,1.711 -3.451,0.952 -3.608,0.071 L -6.79,-0.978 -7.704,3.314 c 0.189,0.134 0.219,0.347 0.338,0.624 0.201,0.469 0.158,0.817 -0.171,1.149 C -7.839,5.392 -8.105,5.666 -8.51,5.791 -8.866,5.9 -9.401,5.747 -9.756,5.6 -10.183,5.424 -10.3,5.051 -10.318,4.626 -10.329,4.354 -10.239,3.65 -10.05,3.41 -9.845,3.15 -9.346,2.88 -8.98,2.848 l 1.019,-4.212 -18.608,-6.137 c -2.888,9.894 3.07,11.62 3.07,11.62 l 0.893,-1.811 c 0.561,0.969 0.133,3.363 0.133,3.363 -8.267,-2.018 -5.89,-9.951 -5.636,-11.932 0.114,-0.884 -0.169,-1.508 -0.513,-1.94 l -3.223,-2.253 2.968,0.265 c 0.573,-0.015 1.671,-0.2 2.177,-1.357 0.699,-1.599 2.312,-8.635 10.493,-6.293 0,0 -0.741,1.988 -1.684,2.451"
             inkscape:connector-curvature="0"
             id="path106"
             style="fill:#ffffff;fill-opacity:1;fill-rule:nonzero;stroke:none" /></g><g
           transform="translate(611.7259,239.5682)"
           id="g108"><path
             d="m 0,0 -12.982,19.49 c 0.617,0.09 1.243,0.152 1.886,0.152 7.158,0 12.961,-5.805 12.961,-12.967 C 1.865,4.23 1.176,1.952 0,0"
             inkscape:connector-curvature="0"
             id="path110"
             style="fill:#88c0cd;fill-opacity:1;fill-rule:nonzero;stroke:none" /></g><g
           transform="translate(595.5726,262.0414)"
           id="g112"><path
             d="m 0,0 -4.48,6.725 -9.705,-11.022 c 0.128,-0.079 0.915,-1.184 2.11,-2.932 C -9.229,-3.398 -4.938,-0.722 0,0"
             inkscape:connector-curvature="0"
             id="path114"
             style="fill:#88c0cd;fill-opacity:1;fill-rule:nonzero;stroke:none" /></g><g
           transform="translate(618.1631,228.1267)"
           id="g116"><path
             d="m 0,0 -4.173,6.265 c -2.498,-4.147 -6.575,-7.22 -11.407,-8.39 1.172,-1.789 1.891,-2.889 1.891,-2.889 L 0,0 z"
             inkscape:connector-curvature="0"
             id="path118"
             style="fill:#88c0cd;fill-opacity:1;fill-rule:nonzero;stroke:none" /></g><g
           transform="translate(613.9903,234.3914)"
           id="g120"><path
             d="m 0,0 -18.418,27.65 c -4.937,-0.722 -9.228,-3.398 -12.075,-7.229 4.479,-6.548 14.824,-22.306 19.086,-28.811 C -6.575,-7.219 -2.498,-4.146 0,0"
             inkscape:connector-curvature="0"
             id="path122"
             style="fill:#88c0cd;fill-opacity:1;fill-rule:nonzero;stroke:none" /></g></g></g></g></svg>