<?xml version="1.0" encoding="utf-8"?>
<!-- Generator: Adobe Illustrator 18.1.1, SVG Export Plug-In . SVG Version: 6.00 Build 0)  -->
<svg version="1.1" id="Layer_1" xmlns="http://www.w3.org/2000/svg" xmlns:xlink="http://www.w3.org/1999/xlink" x="0px" y="0px"
	 viewBox="0 0 360 360" enable-background="new 0 0 360 360" xml:space="preserve">
<g>
	<path fill="#A6D55F" d="M206.1,202.9c-0.9-9.9-8.1-19.6-20.7-28.3c-5.7-3.8-8.5-8-8.7-12.3c-0.1-5.3,3.8-11.1,11.6-17.3
		c0.3-0.1,0.3-0.5,0.1-0.8c-0.1-0.3-0.5-0.4-0.8-0.1c-10.4,5.7-16.4,12.3-17.2,19.5c-0.7,6.4,2.7,12.7,9.9,19.1
		c19.9,17.1,24.2,28.8,15.6,42c-0.1,0.3-0.1,0.5,0.1,0.8c0.3,0.1,0.5,0.1,0.8,0C203.7,218.4,206.9,210.7,206.1,202.9"/>
	<path fill="#75BA20" d="M201.1,108.8c-0.3-0.3-0.8-0.4-1.2-0.1c-0.4,0.3-0.4,0.8-0.3,1.2c8.9,16.1,6.5,31.9-7.7,49.7
		c-16.6,20.7-24.6,35.3-19.2,53.1c0.1,0.4,0.5,0.7,1.1,0.7c0.4-0.1,0.8-0.5,0.7-0.9c-1.4-13.7,5.5-20.6,15.2-30
		c3.9-3.8,8.3-8.1,12.7-13.5C218.7,149,214.6,122.8,201.1,108.8"/>
	<polygon fill="#545559" points="265.7,202.1 268.9,202.1 268.9,202.9 265.7,202.9 265.7,205.8 264.9,205.8 264.9,199.4 
		269.3,199.4 269.3,200.2 265.7,200.2 	"/>
	<path fill="#545559" d="M278.3,202.6c0,1.9-1.5,3.4-3.2,3.4c-1.8,0-3.2-1.5-3.2-3.4c0-1.9,1.5-3.4,3.2-3.4
		C276.8,199.2,278.3,200.7,278.3,202.6 M277.4,202.6c0-1.5-1.1-2.6-2.4-2.6s-2.4,1.1-2.4,2.6s1.1,2.6,2.4,2.6
		C276.4,205.3,277.4,204.1,277.4,202.6"/>
	<path fill="#545559" d="M283.7,205.3c1.1,0,1.8-0.7,1.8-1.6v-4.2h0.8v4.2c0,1.5-0.9,2.4-2.4,2.4c-1.5,0-2.4-0.9-2.4-2.4v-4.2h0.8
		v4.2C281.9,204.5,282.6,205.3,283.7,205.3"/>
	<polygon fill="#545559" points="294.6,205.8 293.7,205.8 290.2,200.6 290.2,205.8 289.4,205.8 289.4,199.4 290.3,199.4 
		293.8,204.6 293.8,199.4 294.6,199.4 	"/>
	<path fill="#545559" d="M298,199.4h2.4c1.8,0,3,1.2,3,3.2s-1.2,3.2-3,3.2H298V199.4z M298.8,200.2v5h1.6c1.2,0,2.2-0.7,2.2-2.4
		s-0.9-2.4-2.2-2.4h-1.6V200.2z"/>
	<path fill="#545559" d="M306.9,204l-0.7,1.9h-0.8l2.4-6.5h0.9l2.4,6.5h-0.9l-0.7-1.9H306.9z M308.3,200.4l-1.1,2.8h2.2L308.3,200.4
		z"/>
	<polygon fill="#545559" points="315.6,200.2 315.6,205.8 314.8,205.8 314.8,200.2 312.8,200.2 312.8,199.4 317.6,199.4 
		317.6,200.2 	"/>
	<rect x="320.5" y="199.4" fill="#545559" width="0.8" height="6.5"/>
	<path fill="#545559" d="M330.8,202.6c0,1.9-1.5,3.4-3.2,3.4c-1.8,0-3.2-1.5-3.2-3.4c0-1.9,1.5-3.4,3.2-3.4S330.8,200.7,330.8,202.6
		 M330,202.6c0-1.5-1.1-2.6-2.4-2.6c-1.4,0-2.4,1.1-2.4,2.6s1.1,2.6,2.4,2.6C328.9,205.3,330,204.1,330,202.6"/>
	<polygon fill="#545559" points="338.9,205.8 338.1,205.8 334.6,200.6 334.6,205.8 333.7,205.8 333.7,199.4 334.6,199.4 
		338.1,204.6 338.1,199.4 338.9,199.4 	"/>
	<path fill="#545559" d="M28.7,169.3c-3.4,0-6.5,1.5-8.7,4.2v-3.7h-3.2v33.6H20V190c2.2,2.6,5.3,4.1,8.7,4.1
		c6.6,0,11.9-5.5,11.9-12.3C40.6,174.9,35.2,169.3,28.7,169.3 M28.7,191c-4.7,0-8.7-4.1-8.7-9.1c0-5.1,3.9-9.2,8.7-9.2
		s8.7,4.2,8.7,9.2S33.4,191,28.7,191"/>
	<path fill="#545559" d="M56.3,169.4l-0.7-0.1c-3.1-0.4-6,0.4-8.1,2.4l-0.1,0.1v-2h-3.2v23.8h3.2v-14.2c0-2.2,0.8-4.1,2.2-5.3
		c1.4-1.4,3.5-1.9,6-1.6l0.9,0.1v-3.2H56.3z"/>
	<path fill="#545559" d="M67.7,169.3c-6.5,0-11.9,5.5-11.9,12.5c0,6.9,5.3,12.3,12.2,12.3c5.5,0,9.5-2.8,11.1-8l0.4-1.1h-3.4
		l-0.3,0.7c-1.4,3.5-3.9,5.3-7.8,5.3c-4.7,0-8.4-3.5-8.8-8.4h20.4v-0.9c0-3.1-1.4-6.5-3.7-8.8C73.6,170.5,70.8,169.3,67.7,169.3
		 M59.4,179.3c0.9-3.9,4.3-6.8,8.3-6.8s7.3,2.8,8.3,6.8H59.4z"/>
	<path fill="#545559" d="M97,169.8c0,0-5.8,15.3-7,18.5c-1.4-3.2-7.2-18.5-7.2-18.5h-3.5l9.2,23.8h2.8l9.2-23.8H97z"/>
	<path fill="#545559" d="M112.3,169.3c-6.5,0-11.9,5.5-11.9,12.5c0,6.9,5.3,12.3,12.2,12.3c5.5,0,9.5-2.8,11.1-8l0.4-1.1h-3.4
		l-0.3,0.7c-1.4,3.5-3.9,5.3-7.8,5.3c-4.7,0-8.4-3.5-8.8-8.4h20.4v-0.9c0-3.1-1.4-6.5-3.7-8.8C118.3,170.5,115.3,169.3,112.3,169.3
		 M103.9,179.3c0.9-3.9,4.3-6.8,8.3-6.8s7.3,2.8,8.3,6.8H103.9z"/>
	<path fill="#545559" d="M138,169.3c-2.8,0-5.4,1.1-7.2,2.8v-2.3h-3.2v23.8h3.2v-14.2c0-3.9,3.1-7,7.2-7c4.3,0,6.6,2.4,6.6,7v14.2
		h3.2v-14.2C147.9,173.2,144.1,169.3,138,169.3"/>
	<path fill="#545559" d="M162.7,173.1v-3.2h-6v-4.7h-3.2v4.7h-3v3.2h3v12c0,2.8,0.8,5.1,2.6,6.8c1.5,1.4,3.5,2,6,1.8h0.7v-3.1h-0.8
		c-1.6,0-2.8-0.3-3.8-1.1c-0.9-0.9-1.4-2.3-1.4-4.2v-12h6V173.1z"/>
	<path fill="#545559" d="M220.2,172.6c3.5,0,6.5,2,7.7,5.3l0.3,0.5h3.4l-0.4-1.1c-1.6-4.9-5.8-8-11-8c-6.5,0-11.9,5.5-11.9,12.5
		c0,6.8,5.3,12.3,11.9,12.3c5.1,0,9.3-3.1,11-8l0.4-1.1h-3.4l-0.1,0.5c-1.2,3.2-4.2,5.3-7.8,5.3c-4.7,0-8.7-4.1-8.7-9.1
		C211.5,176.8,215.5,172.6,220.2,172.6"/>
	<path fill="#545559" d="M254.3,189.2v-12.5c0-4.6-3.5-7.4-9.6-7.4c-5.3,0-8.9,2.4-10,6.9l-0.3,0.9h3.2l0.1-0.5
		c1.1-3.4,4.3-4.1,6.9-4.1c2.8,0,6.4,0.7,6.4,4.2c0,1.9-2.3,2.4-7.4,2.8c-3,0.3-10.2,0.9-10.2,7.4c0,4.9,4.6,7,8.8,7
		c3.7,0,6.8-1.1,8.9-3c0.1,0.8,0.3,1.5,0.5,2.2l0.3,0.4h3.4l-0.4-1.1C254.6,191.8,254.3,190.2,254.3,189.2 M242.4,190.8
		c0,0-5.5,0-5.5-3.8c0-2.2,1.2-3.8,7.2-4.3c2.4-0.3,5.1-0.5,7.2-1.5v3.5C251.2,188.9,246.7,190.8,242.4,190.8"/>
	<path fill="#545559" d="M270.1,169.3c-2.8,0-5.4,1.1-7.2,2.8v-2.3h-3.2v23.8h3.2v-14.2c0-3.9,3.1-7,7.2-7c4.3,0,6.6,2.4,6.6,7v14.2
		h3.2v-14.2C280,173.2,276.2,169.3,270.1,169.3"/>
	<path fill="#545559" d="M295.2,172.6c3.5,0,6.5,2,7.7,5.3l0.3,0.5h3.4l-0.4-1.1c-1.6-4.9-5.8-8-11-8c-6.5,0-11.9,5.5-11.9,12.5
		c0,6.8,5.3,12.3,11.9,12.3c5.1,0,9.3-3.1,11-8l0.4-1.1h-3.4l-0.1,0.5c-1.2,3.2-4.2,5.3-7.8,5.3c-4.7,0-8.7-4.1-8.7-9.1
		S290.4,172.6,295.2,172.6"/>
	<path fill="#545559" d="M320.2,169.3c-6.5,0-11.9,5.5-11.9,12.5c0,6.9,5.3,12.3,12.2,12.3c5.5,0,9.5-2.8,11.1-8l0.4-1.1h-3.4
		l-0.1,0.5c-1.2,3.5-3.9,5.3-7.8,5.3c-4.7,0-8.4-3.5-8.8-8.4h20.4v-0.9c0-3.1-1.4-6.5-3.7-8.8C326.2,170.5,323.3,169.3,320.2,169.3
		 M312,179.3c0.9-3.9,4.3-6.8,8.3-6.8c3.9,0,7.3,2.8,8.3,6.8H312z"/>
	<path fill="#545559" d="M347.1,169.4c-3.1-0.4-6,0.4-8.1,2.4l-0.1,0.1v-2.2h-3.2v23.8h3.2v-14.2c0-2.2,0.8-4.1,2.2-5.3
		c1.4-1.4,3.5-1.9,6-1.6l0.8,0v-3.1H347.1z"/>
</g>
</svg>
