<?xml version="1.0" encoding="utf-8"?>
<!-- Generator: Adobe Illustrator 18.1.1, SVG Export Plug-In . SVG Version: 6.00 Build 0)  -->
<svg version="1.1" id="Layer_1" xmlns="http://www.w3.org/2000/svg" xmlns:xlink="http://www.w3.org/1999/xlink" x="0px" y="0px"
	 viewBox="0 0 111.8 159.8" enable-background="new 0 0 111.8 159.8" xml:space="preserve">
<g>
	<defs>
		<rect id="SVGID_1_" width="111.8" height="159.8"/>
	</defs>
	<clipPath id="SVGID_2_">
		<use xlink:href="#SVGID_1_"  overflow="visible"/>
	</clipPath>
	<path clip-path="url(#SVGID_2_)" fill="#F0582D" d="M74,78.3c-0.8,1.2-2.2,1.9-3.6,2.1c-1.1,0.2-2.6,0-2.9-0.3
		c-0.3-0.2-0.5-0.6-0.6-1.1l0-0.3c0-0.5,0.2-0.9,0.5-1.1c0.2-0.3,0.5-0.5,0.9-0.6c0.2-0.1,0.4-0.1,0.6-0.1c0.3-0.1,0.6-0.1,0.8-0.1
		l0,0c0.8-0.1,1.6-0.6,2.1-1.4c0.5-0.7,0.8-1.6,0.6-2.4l0-0.1l-0.3-1.7l0.4,0.2c1.3,0.7,2.1,2,2.3,3.3C75,76,74.8,77.3,74,78.3
		 M66.5,64.2c-2.2,0-4.4,0.7-6.2,1.9c-0.4,0.3-0.8,0.6-1.2,1c-1.3,1.3-1.9,3.2-2,5.1c-0.1,1.8,0.2,3.7,1,5.3
		c-0.3,0.2-0.6-0.2-0.8-0.5c-0.6-1.6-1.1-3.3-1.2-5c-0.1-1.7,0.3-3.5,1.3-4.9c1.3-1.7,3.5-2.6,5.5-3.3c0.9-0.3,1.9-0.6,2.8-0.7
		c0.4,0,0.8,0,1,0.3C67,63.6,66.9,64.2,66.5,64.2 M108.7,94.6c0-0.1-0.1-0.1-0.1-0.2c-0.1-0.2-0.3-0.4-0.5-0.5
		c-5.7-3.5-4.8-6.4-4.8-6.4L93.8,89c2-4.8,1.9-11.3,1.9-11.3c-7.1,0.6-6.4-0.6-6.4-0.6l3.5-9.4c-9.4,0.3-18.2-4.8-18.2-4.8
		c-5.2-2.1-10-3.6-14.6-4.7c-6.9-2.1-21.4-4.7-28.2-8.4l0,0c-3.4-2.1-6.2-4.6-8.5-7.4c-2.7-3.3-4-7.5-4-12.5c0-3.3,0.8-6.5,2.4-9.7
		c1.6-3.2,3.9-6,6.9-8.6c3-2.6,6.7-4.7,11.1-6.2C44.1,3.8,49.2,3,54.9,3c7,0,12.9,1.2,17.4,3.7c4.6,2.4,8.4,5.6,11.4,9.6
		c3,4,5.5,8.4,7.4,13.2c1.9,4.9,3.8,9.8,5.5,14.9h2.8V3.4h-3.4c-0.7,1.7-1.4,2.9-2,3.6c-0.6,0.6-2,1-4,1c-1.7,0-3.6-0.4-5.7-1.3
		c-2.1-0.9-4.5-1.8-7.2-2.7c-2.7-0.9-5.9-1.8-9.5-2.7C64.1,0.4,59.9,0,55.1,0c-7.5,0-14.4,1.3-20.8,3.8C28,6.3,22.5,9.6,17.9,13.7
		c-4.6,4.1-8.2,8.8-10.8,14.1c-2.6,5.3-3.9,10.8-3.9,16.6c0,7.8,1.3,14.2,3.8,19.4c2.5,5.2,5.8,9.5,10,13c4.2,3.5,8.9,6.4,14.2,8.6
		c5.3,2.2,10.8,4.2,16.4,5.8c5.6,1.7,11.1,3.3,16.4,4.8c5.3,1.6,10.1,3.5,14.2,5.8c4.2,2.3,7.5,5.2,10,8.6c2.5,3.4,3.8,7.8,3.8,13.1
		c0,2.9-0.6,6.2-1.7,10c-1.2,3.8-3.1,7.4-5.9,10.9c-2.8,3.4-6.6,6.4-11.5,8.7c-4.9,2.4-11.1,3.6-18.7,3.6c-2.2,0-4.5,0-7-0.1
		c-2.5-0.1-5.2-0.5-8-1.3c-2.8-0.8-5.7-2-8.8-3.8c-3.1-1.7-6.3-4.2-9.6-7.5c-3-2.9-5.6-6-7.6-9.4c-2.1-3.4-3.8-6.7-5.2-9.9
		c-1.4-3.2-2.4-6.2-3.1-9C4,113,3.5,110.7,3.2,109H0v47.8h3.4c0.7-2,1.5-3.3,2.4-4c0.9-0.6,2.3-1,4.3-1c1.4,0,3.6,0.4,6.6,1.3
		c2.9,0.9,6.3,1.8,10.1,2.7c3.8,0.9,7.9,1.8,12.3,2.7c4.4,0.9,8.8,1.3,13.2,1.3c8.9,0,17-1.4,24.2-4.2c7.2-2.8,13.5-6.6,18.7-11.3
		c5.2-4.7,9.3-10.3,12.2-16.6c2.7-6,4.2-12.4,4.3-19C112,104.7,111.5,100,108.7,94.6"/>
</g>
</svg>
