<?xml version="1.0" encoding="utf-8"?>
<!-- Generator: Adobe Illustrator 18.1.1, SVG Export Plug-In . SVG Version: 6.00 Build 0)  -->
<svg version="1.1" id="Layer_1" xmlns="http://www.w3.org/2000/svg" xmlns:xlink="http://www.w3.org/1999/xlink" x="0px" y="0px"
	 viewBox="0 0 320 500" enable-background="new 0 0 320 500" xml:space="preserve">
<path fill="#FFFFFF" d="M259.7,181.7c-0.2-2.8-3.2-2.2-3.2-2.2c-1-2.9-3.1-1.7-3.1-1.7c0.3-1.3-1.6-2-1.6-2
	c-1.2-0.5-1.8,0.8-1.8,0.8c0-1.4-2-2.1-2-2.1c-3.6-0.9-2.9,3-2.8,3.8s-0.4,2.7-0.4,2.7c-0.6,1.8,0.1,4.9,0.7,6.3
	c0.7,1.5,0.8,7.8,0.4,9.7s-1,5.7-1,7.2c0,1.5-0.7,2.8-0.7,2.8c-1.4,2.1-1.9,4.5-1.8,6.3c0,0.5-0.2,1.5-0.5,2.5
	c-11.4,22.4-17.4,42.8-19.1,47.6c-1.8,4.9-13.3,34.5-13.3,34.5c-3.5,4.4-8,17.7-8,17.7c-8,14.9-13.7,28.7-17.9,40.4h41.6
	c1.7-17.7,0.1-31.9-0.3-33.3c-0.9-3.1,2.7-6.6,2.7-6.6c16.6-14.6,24.1-46.9,21.9-61c-2.1-13.4,2.3-35.4,2.8-37.8
	c0.2-0.7,0.4-1.2,0.4-1.2c1-1.6,1.9-4.1,2-6.7c0.1-2.5,2.3-9.4,2.3-9.4s3.7-10.1,4.8-14.1C263.2,181.6,259.7,181.7,259.7,181.7z"/>
<path fill="#FFFFFF" d="M115.3,315.6c0,0-4.4-13.3-8-17.7c0,0-11.5-29.6-13.3-34.5c-1.8-4.8-7.9-25.7-19.6-48.5
	c-0.2-0.5-0.3-1.1-0.3-1.6c0-1.8-0.4-4.2-1.8-6.3c0,0-0.7-1.3-0.7-2.8c0-1.5-0.6-5.3-1-7.2c-0.4-1.9-0.3-8.2,0.4-9.7
	c0.7-1.5,1.3-4.5,0.7-6.3c0,0-0.5-1.9-0.4-2.7c0.1-0.8,0.9-4.7-2.8-3.8c0,0-2,0.6-2,2.1c0,0-0.6-1.3-1.8-0.8c0,0-1.9,0.7-1.6,2
	c0,0-2.1-1.2-3.1,1.7c0,0-3-0.6-3.2,2.2c0,0-3.5-0.1-2.2,4.2c1.1,4,4.8,14.1,4.8,14.1s2.2,6.9,2.3,9.4s1,5,2,6.7
	c0,0,0.2,0.5,0.6,1.2c0.2,2,1.1,15-0.9,28c-2.2,14.1-6.2,32.3,25.6,70.7c0,0,3.5,3.5,2.7,6.6c-0.4,1.5-2.1,15.6-0.3,33.3h41.6
	C129.1,344.2,123.3,330.5,115.3,315.6z"/>
</svg>
