<?xml version="1.0" encoding="utf-8"?>
<!-- Generator: Adobe Illustrator 18.1.1, SVG Export Plug-In . SVG Version: 6.00 Build 0)  -->
<svg version="1.1" id="Layer_1" xmlns="http://www.w3.org/2000/svg" xmlns:xlink="http://www.w3.org/1999/xlink" x="0px" y="0px"
	 viewBox="0 0 1600 1060" enable-background="new 0 0 1600 1060" xml:space="preserve">
<g>
	<path id="blue_leg" fill="#1AC2EC" d="M346.5,1006.2c-31.9,17.7-63,35.6-93.3,53.8h97C348.9,1042.5,347.6,1024.5,346.5,1006.2z"/>
	<path id="red_eye" d="M1213.3,159.8c-0.9-0.7-1.8-1-2.6-1.4l-0.8-0.4c-2-1-3.6-2.9-4.4-5.3s-0.6-4.9,0.4-6.8l2.3-4.2l-4.7,0.8
		c-0.5,0.1-0.9,0.2-1.3,0.3c0,0,0,0.1,0,0.1c-2.7,0.8-4.9,2.7-6.5,5.3c-2,3.2-2.6,7.2-1.5,10.6c1.1,3.3,3.5,6.2,6.6,7.9
		c0,0,0,0.1,0,0.1c2.3,1.2,5,2,7.8,2c0.5,0,1,0,1.5-0.1c2.7-0.3,4.6-1.6,5.2-3.5C1215.9,163.3,1215.1,161.2,1213.3,159.8z"/>
	<path id="red_eyebrow" d="M1224.9,128.4c5.7,1.7,10.8,5.3,14.4,10.1c0.8,1.1,1.6,2.3,2.2,3.5c2.2,4.5,2.3,9.8,1.2,14.7
		c-1.2,4.8-3.6,9.3-7,12.9c0.5,0.9,1.8,0.1,2.4-0.7c2.9-3.6,5.6-7.5,7.3-11.9c1.7-4.4,2.2-9.3,0.6-13.7c-1.9-5.5-6.8-9.5-11.5-12.9
		c-2.1-1.6-4.3-3.1-6.7-4.1c-0.9-0.4-1.9-0.6-2.8-0.2C1224.1,126.6,1224,128.1,1224.9,128.4z"/>
	<path id="blue_eye" d="M1373.7,401.3c-0.6-1.9-2.6-3.1-4.8-3.2c-1.2,0-2.1,0.2-2.9,0.4c-0.3,0.1-0.6,0.1-0.9,0.2
		c-2.3,0.4-4.7-0.3-6.7-1.7c0,0,0-0.1,0-0.1c-1.8-1.4-3.2-3.4-3.5-5.6l-0.6-4.7l-3.3,3.4c-2.3,2.3-3.4,5.6-3.2,9.2
		c0.3,3.8,2.2,7.3,5,9.5c1.7,1.3,3.8,2.1,6,2.5c0-0.1,0-0.1,0-0.2c0.8,0.2,1.6,0.2,2.3,0.2c3.9,0,7.7-1.4,10.5-4
		C1373.6,405.4,1374.4,403.2,1373.7,401.3z"/>
	<path id="blue_hand" fill="#16C2EA" d="M905,868.1c0.1,2.6,0.2,5.2,0.3,7.8C905.1,873.4,905,870.8,905,868.1
		c-0.3-0.2-0.5-0.4-0.7-0.6C904.5,867.7,904.7,867.9,905,868.1c-0.5-19.1,0.9-39.2,4.3-59.6c2.7-16,6.4-31.3,11.1-45.9
		c-18.3,15.7-43.3,40.3-68,74.5c16.3,11.5,32.6,23.5,48.9,35.8l1.1-6.9c0,0,0.1,0,0.2,0.1c-0.1-0.1-0.2-0.1-0.2-0.1l-1.1,6.9
		c1.3,1,2.7,2,4,3c21.1,16.1,42.2,33,63,50.5C940.9,897.5,913.4,874.9,905,868.1z"/>
	<path id="blue_face" fill="#16C2EA" d="M1456.5,566.9c-5.6-3.9-16.1-12.1-21.9-23.7c-3.8-5.9-7.1-12.1-10-18.5
		c-6.6-14.9-11.1-31.3-12-47.7c-0.2-2.2-0.3-5.7-0.1-11c11.2-1,27.3-3.2,33.9-13.6c4.2-6.7,2.7-19.4-5-23c-10.9-5-16.7,8.4-26.6,8.7
		c12.5-16.8,12.6-41.4,1.6-59c-2.1-3.3-5.5-6.2-9.6-8.8c-5.1-3.3-11.5-6.2-18-9.1c-9.6-4.2-19.6-8.4-27-13.7
		c-0.6-0.5-1.3-0.9-1.9-1.4c-6.3,9-11.7,18.6-18.6,27.2c-3.5,4.4-7.3,8.5-11.5,12.2c-12.5,11.4-27.8,19.8-44.2,24.1
		c6.5,4.2,13.6,7.6,20.9,10c-0.9,3.8-6.6,12.2-11.4,13.3c0.4,3.7,7.1,6.6,11.5,7.9c-2.6,1.3-11,2.1-13.6,3.4
		c1.3,2.2,0.8,5.3-0.3,8.7c8.6,8.7,16.7,17.4,24.6,26.3c3.4,3.9,6.8,7.8,10.1,11.7c6.8,8.1,13.3,16.3,19.6,24.5
		c11,14.5,21.2,29.3,30.6,44.2c2.9,4.6,5.7,9.2,8.5,13.8c1.9,3.3,3.8,6.5,5.7,9.8c4.1,7.2,8.1,14.5,11.9,21.8
		c9.4,18.1,17.8,36.3,25.3,54.6c1.4,3.5,2.8,6.9,4.1,10.4c12.6,32.4,22.4,64.9,29.8,97.1c6.4,27.5,11,54.8,14.3,81.5
		C1598.3,633.6,1466.5,571.3,1456.5,566.9z M1371.6,407.3c-2.8,2.5-6.6,4-10.5,4l0,0c-0.8,0-1.5-0.1-2.3-0.2c-2.2-0.3-4.3-1.2-6-2.5
		c-2.9-2.1-4.7-5.7-5-9.5c-0.3-3.5,0.9-6.9,3.2-9.2l3.3-3.4l0.6,4.7c0.3,2.2,1.6,4.2,3.5,5.6c1.9,1.5,4.4,2.3,6.9,1.8
		c0.3-0.1,0.6-0.1,0.9-0.2c0.8-0.2,1.7-0.4,2.9-0.4l0,0c2.2,0.1,4.2,1.3,4.8,3.2C1374.4,403.3,1373.6,405.5,1371.6,407.3z"/>
	<path id="red_body" fill="#F05436" d="M1477.1,848.7c-3.3-26.7-8-54-14.3-81.5c-7.5-32.2-17.2-64.8-29.8-97.1
		c-1.3-3.5-2.7-6.9-4.1-10.4c-7.5-18.3-15.9-36.5-25.3-54.6c-3.8-7.3-7.8-14.5-11.9-21.8c-1.9-3.3-3.8-6.5-5.7-9.8
		c-2.8-4.6-5.6-9.2-8.5-13.8c-9.4-14.9-19.6-29.7-30.6-44.2c-6.3-8.3-12.8-16.4-19.6-24.5c-3.3-3.9-6.7-7.8-10.1-11.7
		c-7.9-8.9-16-17.7-24.6-26.3c-14.2-14.3-29.3-28.3-45.5-41.8l0,0c-0.2-0.2-0.4-0.3-0.6-0.5l0,0l0,0c-5.4-4.7-49.3-43.5-60-73.5
		c-1.8-5.1-2.7-9.9-2.2-14.3c0.4-3.6,1.6-6.9,4-9.7c1.2-1.4,2.6-2.7,4.3-3.9c0.2-0.2,0.4-0.3,0.6-0.4c5.6-4.3,12.2-7.3,18.7-8.3
		c12.3-1.8,47,2.3,45.4-19.2c-1.4-19.6-30.4-12.6-41.9-16.1c-54.6-16.3-2.2-64.2,35-73c24.3-5.8,58.9-40.2,43.3-69.5
		c-21.9-12-48.9-20.4-77.7-14.4c-8.6,1.8-17.4,4.8-26.2,9.5c0,0-16.9,5.9-32.4,0.6c-17.9-6.1-15.3,6.3-15.3,6.3l0.8,17
		c0,0-2.2,7.9-20.1,0.6c0,0-6.3,12.1,0.6,22.1l-13.8-11.2c0,0-2.8,6.9-21.3,11.2c0,0-18.3,10.4-1.3,33.1
		c15.1,20.1,38.9,79.3,19,92.8c0,0-15.4,7.6-37.5,38.3c-12.6,18.9-26.7,31.9-51,43.3c-13.3,4.4-27.2,9.5-41.5,15.6L925,403
		c0,0-36.9,5.4-42.2,42.4c3.3,2.8,21.8,222.6,85.5,277.6c5.1,4.4,192.2,114.8,193.5,117.7c3.3-3.3,6.6-6.5,9.9-9.6
		c14.6-14.2,28.5-27.2,41.8-39.2c-4.8-17-6.7-39.4-0.3-67.3c4.5-19.8,12.3-52.9,18.5-92.3c14.6,31.8,33.2,65.2,56.9,98.1
		c7.2,10,14.9,20,23.1,29.9c3,3.6,5.9,7.3,8.7,10.9c-3.5,40-2.9,98.1,18.1,155.8c0.8,2.1,1.5,4.2,2.4,6.3
		c18.2,46.7,31.4,89.6,41,126.8h10.6h9.9h24.4l0,0l0,0h42h4.4h5C1484.5,999.3,1486.6,926.3,1477.1,848.7z M1225,126.1
		c0.8-0.5,1.9-0.2,2.8,0.2c2.4,1,4.6,2.5,6.7,4.1c4.7,3.5,9.6,7.4,11.5,12.9c1.5,4.4,1,9.3-0.6,13.7c-1.7,4.4-4.4,8.2-7.3,11.9
		c-0.6,0.8-1.9,1.5-2.4,0.7c3.4-3.6,5.8-8.1,7-12.9c1.2-4.9,1.1-10.2-1.2-14.7c-0.6-1.2-1.4-2.4-2.2-3.5c-3.6-4.7-8.7-8.3-14.4-10.1
		C1224,128.1,1224.1,126.6,1225,126.1z M1195.6,148.1c1.6-2.6,4-4.4,6.6-5.3c0.4-0.1,0.9-0.2,1.3-0.3l4.7-0.8l-2.3,4.2
		c-1.1,2-1.2,4.5-0.4,6.8c0.8,2.4,2.4,4.3,4.4,5.3l0.8,0.4c0.8,0.3,1.7,0.7,2.6,1.4c1.8,1.4,2.6,3.5,2,5.4c-0.6,2-2.5,3.3-5.2,3.5
		c-0.5,0-1,0.1-1.5,0.1l0,0c-2.8,0-5.4-0.8-7.7-2c-3.2-1.8-5.7-4.6-6.8-8C1193,155.3,1193.6,151.3,1195.6,148.1z M1333.9,649.1
		C1333.5,650,1333.4,650,1333.9,649.1L1333.9,649.1z"/>
	<path d="M1329.7,385.6c4.1-3.8,8-7.8,11.5-12.2c6.8-8.6,12.3-18.2,18.6-27.2c0.6,0.5,1.2,0.9,1.9,1.4c7.4,5.2,17.5,9.4,27,13.7
		c6.5,2.9,12.9,5.8,18,9.1c4.2,2.6,7.5,5.5,9.6,8.8c11.1,17.6,11,42.2-1.6,59c9.9-0.4,15.7-13.8,26.6-8.7c7.7,3.6,9.2,16.3,5,23
		c-6.5,10.4-22.7,12.6-33.9,13.6c-0.2,3.7-0.1,7.3,0.1,11c0.9,16.4,5.4,32.8,12,47.7c2.9,6.4,6.2,12.6,10,18.5
		c5.8,11.5,16.3,19.7,21.9,23.7c10,4.3,141.8,66.7,20.6,281.8c9.5,77.5,7.5,150.5,1.2,211.3h57.8h34.4h30.9h0.7v-2.2v-40.4V880.2
		V759.6v-16.5v-98.4v-48.4v-48.5c-6.7-10-12.5-20-16.9-30.3c-8.8-20.7-11.9-43.3-15.2-67.2c-1.7-12-3.4-24.4-5.9-36.9
		c-6.3-31.6-24.2-88.5-73.7-115.2c-13.3-7.2-47-23.5-80.1-24.8c-0.1,0-0.2,0-0.3,0c-2.9-23.7-9.5-46.9-19.9-67.7
		c-8.5-17.1-21.5-30.7-29.9-47.5c-5.6-11.3-5.7-22.5-9.5-34.5c-7.5-23.9-31.1-49.7-57.3-53.2c-49.4-6.5-70.6,13.4-77.5,38
		c28.8-6,55.8,2.4,77.7,14.4c15.6,29.3-19.1,63.7-43.3,69.5c-37.1,8.8-89.6,56.7-35,73c11.5,3.4,40.5-3.5,41.9,16.1
		c1.6,21.5-33.1,17.4-45.4,19.2c-6.5,0.9-13.1,4-18.7,8.3c-0.2,0.1-0.4,0.3-0.6,0.4c-1.5,1.2-3,2.5-4.3,3.9c-2.3,2.8-3.6,6.1-4,9.7
		c-0.5,4.4,0.4,9.2,2.2,14.3c10.7,30,54.6,68.8,60,73.5l0.5,0.5c16.2,13.6,31.4,27.5,45.5,41.8c1.1-3.3,1.6-6.5,0.3-8.7
		c2.6-1.3,11-2.1,13.6-3.4c-4.4-1.3-11-4.2-11.5-7.9c4.8-1,10.5-9.4,11.4-13.3c-7.4-2.5-14.4-5.8-20.9-10
		c16.4-4.3,31.7-12.7,44.2-24.1"/>
	<path id="blue_leg_line" fill="#1AC2EC" d="M577.3,818.9c15.4,60,8.8,107.4,7.4,106c-1,13.5-2.9,27.7-5.7,42.6
		c-5.3,28.3-14.1,59.1-27.2,92.5h12.5c10.6-30.4,18-61.4,21.9-92.2C592.9,916.6,590.1,865.8,577.3,818.9z"/>
	<path id="red_body_1_" fill="#F15731" d="M1331.6,1060c-2.9-12.5-6.2-24-9.5-34.3l0,0l-1.5-4.3l1.2,3.4c-1.3-4.2-2.7-8.2-4-11.9
		l-1.5-4.4l-18-53.1c-88.8,54.2-166.4,49.4-166.4,49.4c-3.5-1.5-6.9-3.1-10.2-4.7c-5.7-2.7-11.2-5.5-16.5-8.5
		c-27.6-15.3-50.9-33.8-70.6-54.1c-31.1-31.9-53.3-68-69.4-102.1c-14.8-31.3-24.5-60.8-31.2-83.8c-1.5-5.1-2.8-9.9-4-14.3
		c-3.5,8.1-6.6,16.5-9.4,25.3c-4.7,14.6-8.4,29.9-11.1,45.9c-3.4,20.4-4.8,40.4-4.3,59.6c8.4,6.8,35.9,29.4,63.3,58.4
		c-20.8-17.5-41.9-34.4-63-50.5c-1.3-1-2.7-2-4-3c-16.3-12.3-32.6-24.3-48.9-35.8C675.9,712.5,500.9,636.3,409.7,611.9
		c0,0-19.3-8-40.3-4.5c-17.1,9-32.5,27.4-28.8,65c-3.5,119.4-0.4,232.4,5.9,333.9c1.1,18.3,2.4,36.2,3.7,53.8h22.4h67.2h22.6h57.1
		h32.2c13.1-33.4,21.9-64.1,27.2-92.5c2.8-14.9,4.6-29.1,5.7-42.6c1.5,1.4,8-46-7.4-106c12.9,46.9,15.6,97.6,9,148.9
		c-4,30.8-11.4,61.8-21.9,92.2h385.3H1070h34.2h138.9l0.2-0.1H1331.6z"/>
	<path id="hand" fill="#16C2EA" d="M1340.9,933.2c-0.8-2.1-1.6-4.2-2.4-6.3c-21-57.7-21.6-115.9-18.1-155.8
		c-2.8-3.7-5.7-7.4-8.7-10.9c-8.2-9.9-15.9-19.9-23.1-29.9c-23.7-32.9-42.3-66.3-56.9-98.1c-6.2,39.4-14,72.6-18.5,92.3
		c-6.4,27.9-4.4,50.3,0.3,67.3c-13.3,11.9-27.2,25-41.8,39.2c-3.3,3.2-6.5,6.4-9.9,9.6c-1.3-2.9-6.3-30.3-60-83.3
		c-23.6-23.3-56.5-51.4-102.7-84.6c-6.2-4.5-11.8-8.9-16.9-13.3c-63.6-54.9-47.1-106.2-27-136c5.5-8.1,6.7-18,13-25.7
		c3.7-4.5,15-16.4,12.6-22.3c-8.3-19.9-32.5,20.8-38,25.5c-7.5,6.4-14.4,7.1-20.3-0.4c-6.8-8.7-11.9-19.1-19-27.5
		c-4.4-5.2-10-9.4-13.9-15c-2.2-3.1-3.5-9.9-6.8-12.7c-0.7-0.6-1.5-1-2.4-1.2c-2.8-0.5-8,2.1-9.2,5.2c-1.1,2.7,1,5.2,1.3,7.8
		c-4.5-1.2-3.4-7.6-8.7-8.4c-8-1.1-8.8,12.6-5.9,18.6c-7.7-1.8-8.6-2.1-8.8,7.7c-0.1,2.5,6.8,20.6,1.7,19.3c0,0-0.4-8.3-5.3-6.3
		c-4.8,2-4.8,10.6-4.1,14.1c3.8,18.9,4.9,38,13.7,54.8c2.6,5,4.2,9.4,8.6,12.9c3.8,3,21.4,30.5,22,30.2c0,0,24.5,72,37.6,114
		c1.7,5.5,3.8,13.4,6.5,23.1c1.2,4.4,2.6,9.2,4,14.3c6.7,23,16.4,52.5,31.2,83.8c16.1,34.1,38.4,70.2,69.4,102.1
		c19.7,20.3,43,38.8,70.6,54.1c5.3,3,10.8,5.8,16.5,8.5c3.4,1.6,6.7,3.2,10.2,4.7c0,0,77.5,4.8,166.4-49.4l18,53.1
		c5.1,14,10.6,31.5,15.4,51.5h50.3C1372.3,1022.8,1359.1,979.9,1340.9,933.2z"/>
</g>
</svg>
