<?xml version="1.0" encoding="utf-8"?>
<!-- Generator: Adobe Illustrator 18.1.1, SVG Export Plug-In . SVG Version: 6.00 Build 0)  -->
<svg version="1.1" id="_x32_" xmlns="http://www.w3.org/2000/svg" xmlns:xlink="http://www.w3.org/1999/xlink" x="0px" y="0px"
	 viewBox="0 0 320 500" enable-background="new 0 0 320 500" xml:space="preserve">
<path id="right_leg" fill="#FFFFFF" d="M240.4,409.9c-1.1-4,3.4-8.6,3.4-8.6c21.4-18.8,31.1-60.4,28.2-78.7
	c-2.9-18.2,3.4-49.1,3.4-49.1c0.3-0.7,0.5-1.1,0.5-1.1c1.3-2.1,2.5-5.3,2.6-8.6c0.1-3.3,2.9-12.1,2.9-12.1s4.8-13,6.2-18.2
	c1.6-5.6-2.9-5.5-2.9-5.5c-0.2-3.6-4.1-2.8-4.1-2.8c-1.3-3.8-4-2.2-4-2.2c0.4-1.7-2-2.6-2-2.6c-1.6-0.6-2.3,1-2.3,1
	c-0.1-1.8-2.6-2.7-2.6-2.7c-4.7-1.2-3.7,3.9-3.6,4.9c0.2,1-0.5,3.5-0.5,3.5c-0.8,2.4,0.1,6.3,0.9,8.2c0.8,1.9,1,10,0.5,12.5
	c-0.5,2.5-1.3,7.3-1.3,9.3c0,2-0.9,3.7-0.9,3.7c-1.9,2.7-2.4,5.8-2.3,8.1c0,1-0.5,2.8-1.1,4.6c-14.3,28.3-21.7,53.9-23.9,59.9
	c-2.3,6.3-17.1,44.5-17.1,44.5c-4.6,5.7-10.3,22.8-10.3,22.8c-25,46.9-33.1,84.4-35.5,99.2h54.7
	C246.5,460.5,241.3,413.1,240.4,409.9z"/>
<path id="left_leg" fill="#FFFFFF" d="M109.8,400.8c0,0-5.7-17.1-10.3-22.8c0,0-14.8-38.2-17.1-44.5c-2.2-6-9.5-31.1-23.5-59
	c0,0,0,0,0,0c0,0-1.6-3.2-1.6-5.5c0.1-2.3-0.5-5.4-2.3-8.1c0,0-0.9-1.7-0.9-3.7s-0.8-6.8-1.3-9.3c-0.5-2.5-0.4-10.6,0.5-12.5
	c0.8-1.9,1.7-5.8,0.9-8.2c0,0-0.6-2.4-0.5-3.5c0.2-1,1.1-6.1-3.6-4.9c0,0-2.5,0.8-2.6,2.7c0,0-0.7-1.7-2.3-1c0,0-2.4,0.9-2,2.6
	c0,0-2.7-1.6-4,2.2c0,0-3.9-0.8-4.1,2.8c0,0-4.5-0.1-2.9,5.5c1.5,5.1,6.2,18.2,6.2,18.2s2.8,8.8,2.9,12.1c0.1,3.3,1.3,6.5,2.6,8.6
	c0,0,1.9,19.5-1,37.7c-2.9,18.2-8,41.6,33.1,91.2c0,0,4.6,4.6,3.4,8.6c-0.9,3.1-6,50.6,11.1,90.1h54.7
	C142.9,485.2,134.8,447.7,109.8,400.8z"/>
</svg>
