<?xml version="1.0" encoding="utf-8"?>
<!-- Generator: Adobe Illustrator 18.1.1, SVG Export Plug-In . SVG Version: 6.00 Build 0)  -->
<svg version="1.1" id="_x33_" xmlns="http://www.w3.org/2000/svg" xmlns:xlink="http://www.w3.org/1999/xlink" x="0px" y="0px"
	 viewBox="0 0 320 500" enable-background="new 0 0 320 500" xml:space="preserve">
<g>
	<path id="blue_body_2_" fill="#14C2F3" d="M115.4,249.2c1,5.3,1.6,10.3,1.8,14.9C124.1,337.2,49,325,49,325
		C34.3,336.9,17.2,342.5,0,345v41.3c32.8,3.5,42.6-4.7,42.6-4.7c25.7,3.5,45,0.4,59.5-6.2c5.9-5.7,12.5-10,19.5-13.1
		c23.2-22.1,24.3-54.1,24.3-54.1c4-16.1,15.6-20.3,15.6-20.3c10.1-4.5,13.6,7.4,13.6,7.4c2.1,12.2,12.2,9.1,12.2,9.1l24-11.1
		l6.7,7.7l4.9-11.9c6.1-10.2,8.5-19.6,8.6-27.9c-6.5-4.5-12.6-14.3-15.5-20.8c-4.8,5.3-11.8,8.1-18.4,7.4c1.7-2.1,3.4-4.6,2.9-7.2
		c-0.7-3.4-5-4.3-7.8-2.5s-4.4,5.1-5.8,8.3c-6.9-1.8-13.1-6.5-17.1-12.9c0.6-0.7,1.2-1.5,1.8-2.2c-15.8,8.7-29.9,7.9-29.9,7.9
		c-13,1.8-35.1-10.7-35.1-10.7c-1.9-1.3-3.9-2.5-5.9-3.6C115.3,235.4,115.4,249.2,115.4,249.2z"/>
	<circle id="anchor_dot_2_" fill="#14C2F3" cx="57.1" cy="258.2" r="1.8"/>
	<path id="blue_arm_2_" fill="#14C2F3" d="M117.2,264.1c-0.2-4.6-0.8-9.5-1.8-14.9c0,0-0.1-13.8-14.8-24.4
		c-8.8-6.4-22.9-11.6-45.4-11.9c0,0-26,2.2-33.1,12.1c0,0-7.6-1.2-22.1-0.4v4.5v9.5v102.4c15.7-2.4,30.7-7.8,44.5-18.9
		C44.5,322.1,120.5,332.6,117.2,264.1z M57.9,261.2c-1.5,0.4-3-0.3-3.6-1.6l-4.1,1.4l1.2,5.6c0.1,0,0.2,0,0.3,0
		c0.5,0.2,0.9,0.5,1.3,0.9c0.4,0.4,0.5,0.9,0.2,1.5c-0.2,0.5-0.2,0.8-0.7,1c-0.2,0.4-0.9,0.5-1.3,0.5c-0.5,0-1.3-0.4-1.6-0.8
		c-0.3-0.3-0.4-1.3-0.4-1.6c0-0.5,0.2-1,0.7-1.2l-1.3-5.4l-24.5,8.6l0,0c2.6,12.4,10.9,10.4,10.9,10.4l-0.1-2.3
		c1.3,0.6,2.2,3.3,2.2,3.3c-10.9,3.1-13-6.2-13.9-8.4c-0.7-1.5-2.1-1.8-2.9-1.8l-3.9,0.4l4.3-3c0.5-0.6,0.8-1.4,0.7-2.6
		c-0.3-2.6-3.5-13.2,7.5-15.8c0,0,0.6,3.2-0.2,4.5l-1.2-2.4c0,0-7.9,2.3-4.1,15.4l24.7-8.1l-1.4-5.6c-0.5,0-1.1-0.4-1.4-0.7
		c-0.3-0.3-0.4-1.3-0.4-1.6c0-0.6,0.2-1.1,0.7-1.3c0.5-0.2,1.2-0.4,1.7-0.3c0.5,0.2,0.9,0.5,1.3,0.9c0.4,0.4,0.5,0.9,0.2,1.5
		c-0.2,0.4-0.2,0.7-0.4,0.8l1.2,5.7l4.2-1.4c0.2-1.2,1.1-2.2,2.3-2.5c1.7-0.4,3.4,0.6,3.9,2.2C60.5,259,59.5,260.8,57.9,261.2z"/>
	<path id="blue_eyebrow_2_" d="M218.7,267.2c0.3,0.7,0.5,1.6,1.2,1.9c0.8-2.3-0.1-4.9-1.3-7c-0.9-1.5-2.4-3.1-4.1-2.9
		c-0.9,0.1-1.7,0.8-1.9,1.7C215.5,261.9,217.8,264.3,218.7,267.2z"/>
	<path id="hair_2_" d="M230.7,243.2c-16.2-36.1-31.8-33.5-39.2-30.9c-3.5,1.3-6.4,4-9.1,6.8c-3.8,3.9-7.5,8-10.9,12.3
		c-0.6,0.7-1.2,1.5-1.8,2.2c3.9,6.4,10.1,11.1,17.1,12.9c1.4-3.2,3-6.5,5.8-8.3s7.1-0.9,7.8,2.5c0.5,2.6-1.3,5.1-2.9,7.2
		c6.6,0.7,13.6-2.1,18.4-7.4c2.9,6.5,9,16.3,15.5,20.8c3.5,2.5,7.1,3.4,10.4,1.4C237.3,262.7,232.6,247.5,230.7,243.2z"/>
	<path id="blye_eye_2_" d="M213,274.6c0.2,0,0.5-0.1,0.7-0.2c2.3-1.2,2.9-4.5,1.2-6.7s-5.4-2.7-7.4-1c1.4,2.3,2.8,4.6,4.2,6.8
		C212,274,212.4,274.6,213,274.6z"/>
	<path id="purple_body_2_" fill="#86236A" d="M314.1,456.2c0,0,22.9-46.9-48.5-75.2c0,0,18.3-35.2,28.3-48.8c0,0,19.2-18.6-23.8-43
		c0,0-17.4-7.8-51.2,10.7l10.1,14.6c-11.8,9.9-17.4,21.5-17.4,21.5l19.2,15.6l-5.5,16.6c0,0-59.8-25.8-103.8-6.1
		c-7,3.1-13.6,7.4-19.5,13.1c-6.1,5.9-11.5,13.4-15.7,22.8c0,0-57.8,42.5-86,62c-0.2,0.2-0.5,0.3-0.7,0.5c-0.6,0.4,0.8,0.8,0.3,1.2
		v24.9V500h4.8h8h40.7h173.6c2-11.1,4.3-13.2,4.3-13.2c-0.2,0.7-0.5,1.5-0.7,2.2c-1,3.6-1.8,7.3-2.2,11h88
		C320.9,462.5,314.1,456.2,314.1,456.2z M247.6,310.9c-0.2,0.1-0.3,0.2-0.6,0.3c-0.6,0.1-1.1-0.3-1.5-0.7c-1.8-1.6-3.6-3.2-5.4-4.7
		c1.4-1.8,4.9-2.1,7-0.6C249.2,306.6,249.4,309.5,247.6,310.9z M254.5,309.2c-0.7-0.2-1.1-1.1-1.4-1.8c-1.2-2.8-3.7-5-6.6-5.7
		c0.1-0.9,0.9-1.7,1.7-1.8c1.7-0.3,3.3,1.1,4.3,2.5C253.9,304.4,255,306.9,254.5,309.2z"/>
	<path id="purple_eye_2_" d="M247.1,305.1c-2.1-1.4-5.6-1.1-7,0.6c1.8,1.6,3.6,3.2,5.4,4.7c0.4,0.4,0.9,0.8,1.5,0.7
		c0.2,0,0.4-0.2,0.6-0.3C249.4,309.5,249.2,306.6,247.1,305.1z"/>
	<path id="purple_eyebrow_2_" d="M248.2,299.9c-0.9,0.2-1.7,0.9-1.7,1.8c2.9,0.7,5.4,2.9,6.6,5.7c0.3,0.7,0.7,1.6,1.4,1.8
		c0.6-2.4-0.5-4.9-1.9-6.8C251.5,301,249.9,299.6,248.2,299.9z"/>
	<path id="beard_2_" d="M241.8,327.4c0,0-0.5-4.8-12.7-12.8c0,0-4.2,3.7-5.4,5.2l14.9,8c0,0-5.9,13.2-17.4,7.5c0,0-4.9-1.8-5.3-5.8
		c0,0-2.9,4.5-4.1,6.7l9.4,7.4C221.1,343.5,233,348.4,241.8,327.4z"/>
</g>
</svg>
