<?xml version="1.0" encoding="utf-8"?>
<!-- Generator: Adobe Illustrator 18.1.1, SVG Export Plug-In . SVG Version: 6.00 Build 0)  -->
<svg version="1.1" id="_x33_" xmlns="http://www.w3.org/2000/svg" xmlns:xlink="http://www.w3.org/1999/xlink" x="0px" y="0px"
	 viewBox="0 0 320 500" enable-background="new 0 0 320 500" xml:space="preserve">
<path id="bottom_leg_2_" fill="#8DC541" d="M236,378.5c-1.3-0.7-2.5-1.3-3.8-2c1.4-0.6,2.4-2.2,2.3-3.7c0-1.6-1.1-3.1-2.6-3.6
	c-2.2,2.4-5.7,3-8.9,2.4c-3.2-0.6-6-2.3-8.8-3.9c-10.4-6.1-20.9-12.2-31.3-18.3c-15.4-9-21-15.9-21-15.9s-14-14.1-32.6-31.4
	c-0.9,0-1.7,0-2.6,0C58,302.3,17.9,268.3,17.9,268.3c4.6,8.9,8.4,17,12.3,25.3c16.2,10.9,37.8,21.3,67,26.1
	c33.6,5.6,50.2,30.1,50.2,30.1c7.3,6.8,10.8,13.2,11.9,16.2c1,2.5,0.4,5.3,0.5,8c0.1,2.7,0.4,5.5,2.1,7.6c1.6,2.1,4.1,3.3,6.6,3.7
	c2.6,0.4,5.1,0.1,7.7-0.3c8.1-1.3,16.4-3.7,24.5-1.8c3.5,0.9,6.8,2.6,10.3,3.7c3.5,1.1,7.3,1.6,10.6,0.2c0.6,1.5,1.3,3.1,2.6,3.8
	c1.4,0.8,3.6,0.1,3.6-1.5c0.9,1.3,3.1,1.5,4.3,0.4c1.1-1.2,0.9-3.4-0.5-4.3c1.4,1,3.8,0,4-1.8c-0.4-0.4-0.7-0.8-1.1-1.1
	c0.8-0.3,1.5-0.6,2.1-1.2c0.5-0.6,0.7-1.6,0.2-2.2C236.6,378.9,236.3,378.7,236,378.5z"/>
<path id="top_leg_2_" fill="#8DC541" d="M11.8,262.4c0,0,43.3,37.3,113.9,34.6c35.4-1.4,57.5,20.2,57.5,20.2
	c8.9,5.5,13.7,11.2,15.6,14c1.5,2.4,1.6,5.3,2.2,8.1c0.6,2.7,1.6,5.5,3.7,7.4c2,1.8,4.8,2.5,7.5,2.3c2.7-0.1,5.3-1,7.8-1.9
	c8-3,16-7.3,24.6-7c3.8,0.1,7.5,1.2,11.2,1.6c3.8,0.4,7.8,0.1,10.9-2.1c0.9,1.4,1.9,2.9,3.5,3.4c1.6,0.5,3.7-0.7,3.4-2.3
	c1.3,1.2,3.5,0.9,4.4-0.5c0.9-1.4,0.2-3.6-1.4-4.3c1.7,0.8,3.9-0.9,3.7-2.7c-0.4-0.3-0.9-0.6-1.4-0.9c0.7-0.5,1.4-0.9,1.8-1.7
	c0.4-0.7,0.4-1.8-0.2-2.3c-0.3-0.2-0.7-0.3-1-0.4c-1.4-0.4-2.9-0.9-4.3-1.3c1.3-0.9,2-2.7,1.6-4.3c-0.4-1.6-1.8-2.9-3.4-3.2
	c-1.7,2.9-5.2,4.3-8.6,4.3c-3.4,0-6.6-1.1-9.8-2.1c-11.9-4-23.8-8-35.7-12c-17.6-6-24.7-11.9-24.7-11.9S91.8,226.7,0,200.4l0,60.1
	V500h56c51-62.5-40.6-232.7-40.6-232.7L11.8,262.4z M25,290c-0.1,0-0.1-0.1-0.2-0.1C24.9,289.9,24.9,290,25,290z"/>
<polygon id="white_bar_1_" fill="#FFFFFF" points="13,262.6 17.5,266.3 34,300.4 32.2,302.2 "/>
</svg>
