<?xml version="1.0" encoding="utf-8"?>
<!-- Generator: Adobe Illustrator 18.1.1, SVG Export Plug-In . SVG Version: 6.00 Build 0)  -->
<svg version="1.1" id="_x32_" xmlns="http://www.w3.org/2000/svg" xmlns:xlink="http://www.w3.org/1999/xlink" x="0px" y="0px"
	 viewBox="0 0 320 500" enable-background="new 0 0 320 500" xml:space="preserve">
<path id="bottom_leg_1_" fill="#8DC541" d="M235.1,378.4c-1.3-0.7-2.5-1.3-3.8-2c1.4-0.6,2.4-2.2,2.3-3.7c0-1.6-1.1-3.1-2.6-3.6
	c-2.2,2.4-5.7,3-8.9,2.4c-3.2-0.6-6-2.3-8.8-3.9c-10.4-6.1-20.9-12.2-31.3-18.3c-15.4-9-21-15.9-21-15.9s-17-17.6-35.7-34.8
	c-0.9,0-1.7,0-2.6,0c-68.7,0.2-105.2-29.9-105.2-29.9c4.6,8.9,9.4,17.7,13.3,26c16.2,10.9,36.3,20.2,65.5,25.1
	c33.6,5.6,50.2,30.1,50.2,30.1c7.3,6.8,10.8,13.2,11.9,16.2c1,2.5,0.4,5.3,0.5,8c0.1,2.7,0.4,5.5,2.1,7.6c1.6,2.1,4.1,3.3,6.6,3.7
	c2.6,0.4,5.1,0.1,7.7-0.3c8.1-1.3,16.4-3.7,24.5-1.8c3.5,0.9,6.8,2.6,10.3,3.7c3.5,1.1,7.3,1.6,10.6,0.2c0.6,1.5,1.3,3.1,2.6,3.8
	c1.4,0.8,3.6,0.1,3.6-1.5c0.9,1.3,3.1,1.5,4.3,0.4c1.1-1.2,0.9-3.4-0.5-4.3c1.4,1,3.8,0,4-1.8c-0.4-0.4-0.7-0.8-1.1-1.1
	c0.8-0.3,1.5-0.6,2.1-1.2c0.5-0.6,0.7-1.6,0.2-2.2C235.8,378.7,235.4,378.5,235.1,378.4z"/>
<path id="top_leg_1_" fill="#8DC541" d="M10.9,262.2c0,0,45,36.1,115.5,32.2c35.4-2,57.8,19.3,57.8,19.3c8.9,5.3,13.9,11,15.8,13.8
	c1.5,2.3,1.7,5.3,2.3,8c0.7,2.7,1.7,5.5,3.8,7.3c2.1,1.8,4.9,2.4,7.5,2.2c2.7-0.2,5.3-1.1,7.7-2.1c7.9-3.2,15.8-7.6,24.4-7.4
	c3.8,0.1,7.5,1,11.3,1.4c3.8,0.3,7.8,0,10.8-2.2c1.4-0.9,5.1,2.4,6.6,1.8c1.8-0.6,0.9-1.3,0.5-2.9c1.3,1.2,4.1,0.7,5-0.7
	c0.3-1.2-0.4-1.9-2.1-2.6c1.7,0.7,3.9-2.5,3.7-4.4c-0.8-0.9-1.5,0.2-1.9-0.1c0.7-0.5,1-1,1.4-1.8c0.4-0.8,0.4-3.4-0.3-3.9
	c-0.3-0.2-0.7-0.3-1-0.4c-1.4-0.4-1.4,1.4-2.9,1c0.5-0.5,1.3-3.1,0.4-5c-0.4-1.6-3.3-4-5.7-3.4c-1.7,2.9,0.5,6.2-5.8,6.3
	c-3.4,0-6.6-0.9-9.8-2c-12-3.8-23.9-7.7-35.9-11.5c-17.7-5.7-24.9-11.4-24.9-11.4S91.9,225-0.2,200.1L0,260.5V500h56
	c51.2-62.6-39.9-232.9-40.6-232.7L10.9,262.2z"/>
<polygon id="white_bar_2_" fill="#FFFFFF" points="13,262.6 17.5,266.3 34,300.4 32.2,302.2 "/>
</svg>
