<?xml version="1.0" encoding="utf-8"?>
<!-- Generator: Adobe Illustrator 18.1.1, SVG Export Plug-In . SVG Version: 6.00 Build 0)  -->
<svg version="1.1" id="_x31_" xmlns="http://www.w3.org/2000/svg" xmlns:xlink="http://www.w3.org/1999/xlink" x="0px" y="0px"
	 viewBox="0 0 320 500" enable-background="new 0 0 320 500" xml:space="preserve">
<path id="bottom_leg" fill="#8DC541" d="M237.3,378.8c-1.3-0.7-2.5-1.3-3.8-2c1.4-0.6,2.4-2.2,2.3-3.7c0-1.6-1.1-3.1-2.6-3.6
	c-2.2,2.4-5.7,3-8.9,2.4c-3.2-0.6-6-2.3-8.8-3.9c-10.4-6.1-20.9-12.2-31.3-18.3c-15.4-9-21-15.9-21-15.9s-11.5-12-30.2-29.2
	c-0.9,0-1.7,0-2.6,0c-68.7,0.2-112.9-37.1-112.9-37.1c4.6,8.9,8.9,17.6,12.9,25.9c16.2,10.9,38.8,22,68.1,26.8
	c33.6,5.6,50.2,30.1,50.2,30.1c7.3,6.8,10.8,13.2,11.9,16.2c1,2.5,0.4,5.3,0.5,8c0.1,2.7,0.4,5.5,2.1,7.6c1.6,2.1,4.1,3.3,6.6,3.7
	c2.6,0.4,5.1,0.1,7.7-0.3c8.1-1.3,16.4-3.7,24.5-1.8c3.5,0.9,6.8,2.6,10.3,3.7c3.5,1.1,7.3,1.6,10.6,0.2c0.6,1.5,1.3,3.1,2.6,3.8
	c1.4,0.8,3.6,0.1,3.6-1.5c0.9,1.3,3.1,1.5,4.3,0.4c1.1-1.2,0.9-3.4-0.5-4.3c1.4,1,3.8,0,4-1.8c-0.4-0.4-0.7-0.8-1.1-1.1
	c0.8-0.3,1.5-0.6,2.1-1.2c0.5-0.6,0.7-1.6,0.2-2.2C237.9,379.1,237.6,378.9,237.3,378.8z"/>
<path id="top_leg" fill="#8DC541" d="M13,262.6c0,0,41.3,38.7,112,37.2c35.4-0.7,57.1,21.3,57.1,21.3c8.8,5.6,13.5,11.5,15.3,14.3
	c1.5,2.4,1.5,5.4,2,8.1c0.6,2.7,1.5,5.5,3.5,7.4c2,1.8,4.8,2.6,7.5,2.5c2.7-0.1,5.3-0.9,7.8-1.8c8.1-2.9,16.1-7,24.7-6.5
	c3.8,0.2,7.5,1.3,11.2,1.8c3.8,0.5,7.8,0.3,10.9-1.9c0.9,1.4,1.9,2.9,3.4,3.4c1.6,0.5,3.7-0.6,3.4-2.2c1.2,1.2,3.5,1,4.4-0.4
	c0.9-1.4,0.3-3.6-1.3-4.3c1.7,0.8,3.9-0.8,3.7-2.6c-0.4-0.3-0.9-0.6-1.3-0.9c0.7-0.4,1.4-0.9,1.9-1.6c0.4-0.8,0.5-1.8-0.2-2.3
	c-0.3-0.2-0.7-0.4-1-0.5c-1.4-0.4-2.8-0.9-4.3-1.3c1.3-0.9,2-2.7,1.7-4.3c-0.4-1.6-1.7-2.9-3.3-3.2c-1.8,2.8-5.3,4.2-8.7,4.1
	c-3.4,0-6.6-1.2-9.8-2.3c-11.8-4.2-23.7-8.5-35.5-12.7c-17.5-6.3-24.5-12.3-24.5-12.3S91.6,228.3,0,200.6l0,59.9V500h56
	c51-62.5-40.6-232.7-40.6-232.7L13,262.6z"/>
<polygon id="white_bar_3_" fill="#FFFFFF" points="13,262.6 17.5,266.3 34,300.4 32.2,302.2 "/>
</svg>
