<?xml version="1.0" encoding="utf-8"?>
<!-- Generator: Adobe Illustrator 18.1.1, SVG Export Plug-In . SVG Version: 6.00 Build 0)  -->
<svg version="1.1" id="_x31_" xmlns="http://www.w3.org/2000/svg" xmlns:xlink="http://www.w3.org/1999/xlink" x="0px" y="0px"
	 viewBox="0 0 320 500" enable-background="new 0 0 320 500" xml:space="preserve">
<g>
	<path id="hair" d="M176.4,220.6c-3.4,0.6-6.6,2.6-9.7,3.6c-12.8,3.4-20.7-11.1-28.5-20.7c-15.7-19.5-44.9-23-70.5-14.9
		C44.5,192.5,7.7,226.9,0,231.5c4,46,16.5,164.3,16.5,165.1c33.6,20.9,73.3,53.1,73.3,53.1c21.1,1.3,43.1,3.8,60.9,7.4
		c7-7.5,14.9-15.4,23.8-23.6c2.8-2.5,5.6-5.1,8.6-7.6c-0.2-0.5-1-3-2-7.2c-1.5-6-3.2-15.4-3.5-26.8c-0.2-10,0.7-21.5,4-33.6
		c1.6-5.9,3.8-11.9,6.7-18c0,0,0.2-3.2,0.1-8.2c-0.2-12.8-2.4-36.9-14.8-47.2c-0.4-0.3-0.8-0.6-1.2-0.9c-3.3-2.4-6.5-3.8-9.6-4.6
		c-3-0.3-5-0.5-5-0.5c-15.6-1.9-22.1,31.6-25,41.1c-3.4,10.9-10.7,7.4-10.7,7.4c-5.3-4.9-8.2-3-8.2-3l-2-9.6c-5.1,1.4-8,5.7-8,5.7
		c-1.7-7.3-4.6-6.4-4.6-6.4l-8.3,6.8c-1.8-8.2-9.6-16-9.6-16c-12.7-6.7-16.6-15.3-16.7-23c-0.2-11.3,7.6-21,7.6-21s1.6,16.5,36.1,16
		c-0.7-0.9-1.3-1.8-1.9-2.9c-1.9-3.4-2.6-6.4-2.5-8.9c0.5-11,16.6-13,18.2,0.6c0,0,26,8.1,45.4-11.3c5.1-5.1,9.8-12,13.4-21.5
		c1.2-3.2,2.6-6.4,4.1-9.3C182.9,221.2,180,220,176.4,220.6z"/>
	<path id="arm" fill="#FFD91F" d="M173.8,418.2c-1.3-6.8-4.3-28.7,3.4-55.9c-10.7,8.9-18.2,9.2-18.2,9.2s-73.4-7.7-146.1-10.7
		c0.9,8.7,1.7,16.1,2.3,21.9C76.2,406.4,132.2,415.8,173.8,418.2z"/>
	<path id="man_leg" fill="#F7BD1C" d="M89.8,449.7c0,0-39.8-32.2-73.3-53.1c0-0.7-0.5-5.7-1.3-13.8l-2.3-21.9h0
		C9.3,328,4,277.5,0,231.5c0,0,0,0,0,0v91.9V499h117.2c0.7-1,1.3-2,2-3c7.3-10.6,17.6-24,31.6-39C132.9,453.5,111,451,89.8,449.7z"
		/>
	<path id="eye" d="M96.8,291.2c-1.6-0.9-3.3-0.9-5-0.1c-0.1,0-0.1,0.1-0.2,0.1c-0.4,0.2-0.7,0.4-1,0.7c-0.3,0.3-0.6,0.6-0.9,0.9
		c-0.9,1.1-1,2.7-0.9,4.1c0,1.2,0.9,2.3,1.9,3l2.2,1.3L93,299c0-1.2,0.6-2.4,1.7-3.1c0,0,0,0,0,0c0.2-0.1,0.6,0,0.8-0.1l0.2-0.1
		c0.2-0.1,0.6,0,1.1-0.2c0,0,0,0,0,0l0.2-0.1c0,0,0,0,0,0c0.7-0.4,1.2-1.3,1.2-1.8c0,0,0,0,0,0C98.4,292.4,97.6,291.6,96.8,291.2z
		 M96.7,292.5C96.7,292.5,96.7,292.5,96.7,292.5C96.7,292.5,96.7,292.5,96.7,292.5z M96.8,292.6c0.1,0.1,0.2,0.4,0.2,0.6
		C96.9,293,96.9,292.8,96.8,292.6z"/>
	<path id="back" fill="#FFD91F" d="M231,488.1l0.4,0l2.9-2.5c0,0,0,0,0,0l0,0l55.4-48c0,0,11.7-9.6,30.2-22.2V267.8
		c-22.5-20.7-32.1-39.5-32.1-39.5c-39.4-58-82.8-43.7-102.6-4.9c-1.5,2.9-2.9,6.1-4.1,9.3c-3.6,9.5-8.3,16.4-13.4,21.5
		c-19.5,19.4-45.4,11.4-45.4,11.4c-1.6-13.5-17.7-11.6-18.2-0.7c-0.1,2.5,0.6,5.5,2.5,8.8c0.6,1.1,1.3,2.1,2,3c0,0,0,0-0.1,0
		c0,0,0,0.1,0.1,0.1c-34.6,0.5-36.2-16-36.2-16s-7.8,9.6-7.6,20.9c0.1,7.7,4,16.2,16.7,22.9c0,0,7.7,7.8,9.6,16l8.3-6.8
		c0,0,2.9-0.9,4.6,6.4c0,0,3-4.3,8-5.7l2,9.6c0,0,3-1.9,8.2,3c0,0,7.3,3.5,10.7-7.4c2.9-9.5,9.4-43,25-41.1c0,0,2,0.2,5,0.5
		c3.1,0.8,6.3,2.2,9.6,4.6c0.4,0.3,0.8,0.6,1.2,0.9c12.4,10.3,14.6,34.5,14.8,47.3c0.1,5-0.1,8.3-0.1,8.3c-2.9,6-5.1,12.1-6.7,18
		c-3.3,12-4.2,23.5-4,33.5c0.3,11.3,2,20.7,3.5,26.7c1.1,4.6,2.1,7.3,2.1,7.3c0,0,0,0,0,0c0,0,0,0.1,0,0.1c-2.9,2.6-5.8,5.1-8.6,7.7
		c-8.9,8.2-16.8,16.1-23.8,23.6c-13.9,15-24.2,28.3-31.6,38.9c-0.7,1-1.4,2-2,3h101.6l11.4-9.8C230.7,488.5,231,488.1,231,488.1z
		 M98.3,293.4c0,0.6-0.5,1.4-1.2,1.8c0,0,0,0,0,0l-0.2,0.1c0,0,0,0,0,0c-0.5,0.3-0.8,0.1-1.1,0.2l-0.2,0.1c-0.2,0.1-0.6,0-0.8,0.1
		c0,0,0,0,0,0c-1.2,0.6-1.7,1.9-1.7,3.1l-0.1,2.2l0,0v0l-2.2-1.3c-1-0.7-1.9-1.8-1.9-3c-0.1-1.5-0.1-3,0.9-4.1
		c0.3-0.3,0.6-0.6,0.9-0.9c0.3-0.3,0.6-0.5,1-0.7c0.1,0,0.1-0.1,0.2-0.1c1.6-0.8,3.4-0.8,5,0.1C97.7,291.6,98.5,292.5,98.3,293.4
		C98.3,293.4,98.3,293.4,98.3,293.4z M215.8,416.7c-0.3,0-0.6,0-0.7-0.1c-0.2,0-0.2,0-0.2,0s-2,0.7-3.6,1.3c0,0,0,0,0-0.1
		c0,0,0,0,0,0c0.4-0.8,0.3-3.4,0.3-3.5c0,0-0.1-0.2-0.2-0.4c0,0,0-0.1-0.1-0.1c0-0.1-0.1-0.2-0.1-0.3c0,0,0-0.1,0-0.1
		c-0.3-0.8-0.6-2.1-0.2-3.6c-2.2-0.7-4.3-2.4-6-4.3l0-0.1c-2.9-3.2-4.9-6.7-4.9-6.7s0,0,0,0c0,0,0,0,0,0s0,0-0.1-0.1
		c-0.4-0.7-1.9-3.3-6.2-6c0,0,0,0,0.1,0c0,0-0.1,0-0.1-0.1c3.1-1,6.1,2.9,6.1,2.9s2.2-0.5,5,3.2c0.8,0.3,1.3,0.7,1.7,0.9
		c0.5,0.4,0.7,0.8,0.7,0.8s1.6-0.5,2.7,1.6c1.6-0.6,2.8,1.2,3,1.7c0-0.4,0.1-1.2,0.6-2.7c0.3-0.9,0.8-2.2,1.5-3.7
		c0.2-3.5-2.9-9.4-5.3-13.3l0-0.1c-1.5-2.4-2.6-4-2.6-4s0,0,0.1,0c-0.1-0.1-0.1-0.1-0.1-0.1s1-0.3,3,1.9c0.4,0.5,0.9,1.1,1.4,1.9
		c2.7,0.5,3.9,4.6,3.9,4.6s0.8-0.7,1,0.1c0.7-1.6,1.6-0.5,1.6-0.5s0.2-1.7,1.8-4.4c0.1-0.2,0.2-0.4,0.4-0.7c1.8-3.1,2.8-2.1,2.8-2.1
		l1.8-2.4l-0.1,0.3l0.1-0.2l-5,15.9c1.7,2,2.5,4.2,3,5.8c0,0.1,0.1,0.3,0.1,0.4c0,0,0,0,0,0.1c0.3,1.1,0.4,1.8,0.4,2.1l0.4,0.1
		c0,0,2-4.4,3.4-3.3c2.6-4.4,4-3.3,4-3.3s3.7-4.1,4.5-2.4c3.3-4.1,4.5-2.4,4.5-2.4s5.9-5.5,9.8-5.1c-0.1,0-0.2,0.1-0.4,0.1
		c0.1,0,0.3,0,0.4,0c-2,0.6-3.8,1.8-5.3,3.3c-3.3,3.3-5.4,7.5-5.4,7.5s-2.9,7.9-14.4,12.7C222.9,416.2,218,416.7,215.8,416.7z"/>
	<path id="man_arm" fill="#F7BD1C" d="M320,415.4c-18.5,12.6-30.2,22.3-30.2,22.3l-55.3,47.9c0,0-0.1,0-0.1-0.1l-2.9,2.5l0,0l0,0
		l0,0.1l-1.3,1.1l-11.2,9.7H320V415.4z"/>
	<path id="bird" fill="#F37979" d="M224.8,409.7c11.5-4.8,14.4-12.7,14.4-12.7s2.1-4.3,5.5-7.5c1.4-1.4,3.1-2.6,4.9-3.3
		c-3.9,0-9.4,5.1-9.4,5.1s-1.2-1.8-4.5,2.4c-0.9-1.7-4.5,2.4-4.5,2.4s-1.5-1.1-4,3.3c-1.5-1.1-3.4,3.3-3.4,3.3l-0.4-0.1
		c0,0,0-0.1,0-0.1l0,0c0,0,0-0.8-0.4-2.1c0,0,0,0,0-0.1c0-0.1-0.1-0.3-0.1-0.4c-0.5-1.6-1.4-3.7-3-5.7l0-0.1c0,0,0,0,0-0.1l4.9-15.7
		l-1.6,2.3c0,0-1.1-0.9-2.8,2.1c-0.1,0.2-0.3,0.5-0.4,0.7c-1.6,2.8-1.8,4.4-1.8,4.4s-0.9-1.1-1.6,0.5c-0.1-0.8-1-0.1-1-0.1
		s-1.3-4.2-3.9-4.6c-0.5-0.7-1-1.3-1.4-1.8c0,0,0,0,0-0.1c-1.7-1.9-2.7-2-3-1.9c0.3,0.4,1.4,2,2.6,4c2.4,4,5.5,9.8,5.3,13.4
		c0,0,0,0.1,0,0.1c0,0,0,0,0,0c-0.7,1.5-1.2,2.7-1.5,3.7c-0.6,2-0.5,2.7-0.5,2.7s0,0,0-0.1c0,0.1,0,0.2,0,0.2s-1.3-2.4-3.1-1.8
		c-1.1-2.1-2.7-1.6-2.7-1.6s-0.2-0.3-0.6-0.7l0-0.1c-0.4-0.3-1-0.6-1.7-1c-2.8-3.7-5-3.2-5-3.2s-2.9-3.9-6-2.9
		c4.3,2.7,5.8,5.4,6.1,6c0,0.1,0.1,0.1,0.1,0.2c0.2,0.4,2.2,3.8,4.9,6.7c1.8,1.9,3.8,3.6,6,4.3c-0.5,1.5-0.2,2.9,0.1,3.7
		c0,0,0,0.1,0,0.1c0,0.1,0.1,0.2,0.1,0.3c0,0,0,0.1,0.1,0.1c0.1,0.2,0.2,0.3,0.2,0.3s0,0,0,0c0,0,0,0,0,0s0.2,2.5-0.3,3.5
		c1.6-0.5,3.6-1.2,3.6-1.2s0.1,0,0.3,0c0.2,0,0.4,0,0.8,0C218,416.7,222.9,416.1,224.8,409.7z M215.5,414.4c-0.4-0.1-1-0.7-0.9-1.1
		c0-0.6,0.4-0.9,1.1-0.9c0,0,0.1,0,0.1,0c0.4,0,0.7,0.3,0.8,0.7c0,0,0,0.1,0,0.1c0,0.1,0,0.2,0,0.3c0,0.3-0.1,0.4-0.2,0.5l0,0.1
		C216.2,414.3,215.9,414.4,215.5,414.4C215.5,414.4,215.5,414.4,215.5,414.4C215.5,414.4,215.5,414.4,215.5,414.4z"/>
	<path id="bird_eye" d="M216.2,414.1c0.1-0.1,0.2-0.3,0.2-0.6c0-0.1,0-0.2,0-0.3c-0.1-0.3-0.3-0.6-0.8-0.7c0,0,0,0,0,0
		c-0.6,0-1.1,0.2-1.1,0.9c-0.1,0.4,0.4,0.9,0.8,1c0.3,0,0.6,0,0.7-0.2C216.2,414.2,216.2,414.1,216.2,414.1z"/>
	<path id="eyebrow" d="M89.6,280.9c-1.8,0.1-3.6,0.1-5.3,0.3c-1.8,0.6-3.5,1.5-4.5,3c-1.4,1.9-1.4,4.4-1.7,6.7
		c-0.1,1-0.1,2.2,0.2,3.3c0.1,0.2,0.1,0.8,0.5,0.9c0.1,0.2,0.6,0,0.7-0.4c-0.6-2.4-0.7-4.8,0-7c0.1-0.4,0.3-1.1,0.7-1.6
		c0.9-1.8,2.5-3.3,4.3-3.9c1.8-0.6,3.7-1,5.7-0.8C90.4,281.1,89.9,280.8,89.6,280.9z"/>
</g>
</svg>
