<?xml version="1.0" encoding="utf-8"?>
<!-- Generator: Adobe Illustrator 18.1.1, SVG Export Plug-In . SVG Version: 6.00 Build 0)  -->
<svg version="1.1" id="_x33__1_" xmlns="http://www.w3.org/2000/svg" xmlns:xlink="http://www.w3.org/1999/xlink" x="0px" y="0px"
	 viewBox="0 0 320 500" enable-background="new 0 0 320 500" xml:space="preserve">
<g>
	<path id="hair_1_" d="M142.4,318c3.5,9.8,58.1,130,124.5,150.6l0,0c0,0,0,0,0,0.1l0,0c1.3,10.8,1.9,21.3,2.1,31.3h51v-6V388
		c-2.2-3.3-14.3-18-17.7-27.7c-2.9-6.8-3.9-14.1-5-21.9c-0.6-3.9-1.1-8-1.9-12c-2.1-10.3-7.9-28.9-24.1-37.6
		c-4.3-2.4-15.3-7.7-26.1-8.1h-0.1c-0.9-7.7-3.1-15.3-6.5-22.1c-2.8-5.6-7-10-9.8-15.5c-1.8-3.7-1.9-7.3-3.1-11.3
		c-2.4-7.8-10.2-16.2-18.7-17.4c-16.1-2.1-23,4.4-25.3,12.4c0,0,0,0,0.1,0C163,246.9,141.8,316.3,142.4,318z"/>
	<path id="red_eye_1_" d="M177.3,238.3L177.3,238.3c-0.9,0.3-1.6,0.9-2.1,1.8c-0.7,1-0.8,2.4-0.5,3.5c0.4,1.1,1.1,2,2.2,2.6l0,0l0,0
		c0.8,0.4,1.6,0.7,2.5,0.7c0.2,0,0.3,0,0.5,0l0,0c0.9-0.1,1.5-0.5,1.7-1.1l0,0c0.1-0.3,0.1-0.6,0-0.9c-0.1-0.2-0.1-0.3-0.2-0.4
		c-0.1-0.1-0.2-0.3-0.4-0.4l0,0c-0.3-0.2-0.6-0.3-0.8-0.5l0,0l-0.3-0.1c-0.7-0.3-1.2-0.9-1.4-1.7c-0.3-0.8-0.2-1.6,0.1-2.2l0.8-1.4
		l-1.5,0.3C177.6,238.2,177.4,238.3,177.3,238.3z"/>
	<path id="eyebrow_2_" d="M184.7,233.6c1.9,0.6,3.5,1.7,4.7,3.3c0.3,0.4,0.5,0.8,0.7,1.1c0.8,1.5,0.8,3.2,0.4,4.8
		c-0.4,1.6-1.2,3-2.3,4.2c0.2,0.3,0.6,0,0.8-0.2c0.9-1.2,1.8-2.4,2.4-3.9c0.5-1.4,0.7-3,0.2-4.5c-0.6-1.8-2.2-3.1-3.8-4.2
		c-0.7-0.5-1.4-1-2.2-1.3c-0.3-0.1-0.6-0.2-0.9-0.1C184.4,233,184.4,233.5,184.7,233.6z"/>
	<path id="blue_eye_1_" d="M225.3,323.7c0.1,0.1,0.2,0.3,0.3,0.4s0.1,0.2,0.2,0.3c0.2,0.2,0.4,0.4,0.6,0.6c0.6,0.4,1.2,0.7,2,0.8
		l0,0c0.3,0.1,0.5,0.1,0.8,0.1c1.3,0,2.5-0.5,3.4-1.3c0.7-0.6,0.9-1.3,0.7-1.9s-0.8-1-1.6-1c-0.4,0-0.7,0.1-0.9,0.1
		c-0.1,0-0.2,0-0.3,0.1c-0.8,0.1-1.5-0.1-2.2-0.6l0,0c-0.6-0.5-1-1.1-1.1-1.8L227,318l-1.1,1.1c-0.7,0.7-1.1,1.8-1,3
		c0,0.5,0.2,1,0.4,1.4C225.2,323.5,225.3,323.6,225.3,323.7z"/>
	<path id="blue_arm_2_" fill="#16C2EA" d="M80.3,475c-0.2-6.2,0.3-12.8,1.4-19.5c0.9-5.2,2.1-10.2,3.6-15
		c-6,5.1-14.1,13.2-22.2,24.3c0,0,0,0,0.1,0c5.3,3.7,10.6,7.6,15.9,11.6c0,0,0,0,0.1,0c0.4,0.3,0.8,0.6,1.2,0.9c0,0,0,0,0.1,0
		c6.8,5.2,13.7,10.7,20.4,16.3C91.9,484.6,83,477.3,80.3,475z"/>
	<path id="blue_face_1_" fill="#16C2EA" d="M206.8,339.5c2.8,2.8,59.2,120.4,60.3,129.1c39.5-70.1-3.5-90.5-6.8-91.9
		c-1.8-1.3-5.3-4-7.1-7.7c-1.2-1.9-2.3-3.9-3.3-6c-2.2-4.9-3.6-10.2-3.9-15.6c-0.1-1.2-0.1-2.4,0-3.6l0,0l0,0
		c3.4-0.3,8.2-1,10.6-3.8c0.2-0.2,0.3-0.4,0.4-0.6c1.4-2.2,0.9-6.3-1.6-7.5c-1.1-0.5-2-0.5-2.9-0.1c-1.4,0.6-2.6,1.8-4,2.5
		c-0.6,0.3-1.1,0.5-1.8,0.5c4.1-5.5,4.1-13.5,0.5-19.3c-0.7-1.1-1.8-2-3.1-2.9c-1.7-1.1-3.8-2-5.9-3c-3.1-1.4-6.4-2.8-8.8-4.5
		c-0.2-0.2-0.4-0.3-0.6-0.5c-2,2.9-3.8,6-6,8.8c-1.1,1.4-2.4,2.7-3.7,3.9l-0.1,0.1l0,0c-2.5,2.3-5.4,4.2-8.6,5.7
		c-1.9,0.9-3.8,1.6-5.8,2.1c2.1,1.4,4.4,2.5,6.8,3.2c-0.3,1.1-1.7,3.4-3.2,4.1c-0.2,0.1-0.4,0.2-0.5,0.2c0.1,1.2,2.3,2.1,3.7,2.6
		c0,0-0.1,0-0.2,0.1l0,0c-0.8,0.4-3.3,0.7-4.3,1.1C207.4,337.4,207.2,338.4,206.8,339.5z M224.8,322c-0.1-1.1,0.3-2.3,1-3l1.1-1.1
		l0.2,1.5c0.1,0.7,0.5,1.4,1.1,1.8c0.6,0.5,1.4,0.8,2.3,0.6c0.1,0,0.2,0,0.3-0.1c0.3-0.1,0.6-0.1,0.9-0.1c0.7,0,1.4,0.4,1.6,1
		c0.2,0.7-0.1,1.4-0.8,2c-0.9,0.8-2.2,1.3-3.4,1.3c-0.3,0-0.5,0-0.8-0.1l0,0c-0.7-0.1-1.4-0.4-2-0.8c-0.2-0.2-0.4-0.4-0.6-0.6
		c-0.1-0.1-0.1-0.2-0.2-0.3c-0.1-0.1-0.2-0.3-0.3-0.4s-0.1-0.2-0.1-0.3C225,323,224.9,322.5,224.8,322L224.8,322L224.8,322z"/>
	<path id="red_leg_2_" fill="#F15731" d="M124.9,500c-0.8-0.8-1.6-1.5-2.3-2.3l0,0c0,0,0,0-0.1-0.1c-0.4-0.4-0.8-0.8-1.2-1.2
		c-0.2-0.2-0.5-0.5-0.7-0.7s-0.3-0.4-0.5-0.5c-1.7-1.8-3.2-3.7-4.7-5.5c-6.6-8.2-11.7-17-15.6-25.3c-4.8-10.2-8-19.8-10.2-27.4
		c-0.4-1.6-0.9-3.1-1.3-4.5c-1.1,2.6-2.1,5.3-3,8.2c-1.5,4.8-2.7,9.8-3.6,15c-1.1,6.7-1.6,13.2-1.4,19.5c2.7,2.2,11.7,9.6,20.7,19.1
		c-0.1,0-0.1-0.1-0.2-0.1l0.1,0.1c-6.8-5.7-13.7-11.2-20.6-16.5c-0.4-0.3-0.9-0.7-1.3-1c-5.3-4-10.6-7.9-16-11.7l0,0
		c-21.5-15.4-43-28.4-63-39.2V500H124.9z"/>
	<path id="red_body_3_" fill="#F05436" d="M269.1,500c-0.1-10-0.8-20.5-2.1-31.3c-1.1-8.7-2.6-17.6-4.7-26.6
		c-2.4-10.5-5.6-21.2-9.7-31.7c-0.4-1.1-0.9-2.3-1.3-3.4c-2.4-6-5.2-11.9-8.3-17.8c-1.2-2.4-2.5-4.7-3.9-7.1
		c-0.6-1.1-1.2-2.1-1.9-3.2c-0.9-1.5-1.8-3-2.8-4.5c-3.1-4.9-6.4-9.7-10-14.4c-2.1-2.7-4.2-5.4-6.4-8c-1.1-1.3-2.2-2.5-3.3-3.8
		c-2.6-2.9-5.2-5.8-8-8.6c-4.6-4.7-9.6-9.2-14.9-13.6l0,0c-0.1-0.1-0.1-0.1-0.2-0.2l0,0l0,0c-1.8-1.5-16.1-14.2-19.6-24
		c-0.6-1.7-0.9-3.2-0.7-4.7c0.1-1.2,0.5-2.3,1.3-3.2c0.4-0.5,0.8-0.9,1.4-1.3c0.1-0.1,0.1-0.1,0.2-0.1c1.8-1.4,4-2.4,6.1-2.7
		c4-0.6,15.3,0.8,14.8-6.3c-0.5-6.4-9.9-4.1-13.7-5.3c-17.8-5.3-0.7-21,11.4-23.8c7.9-1.9,19.2-13.1,14.1-22.7
		c-7.1-3.9-16-6.7-25.4-4.7c-2.8,0.6-5.7,1.6-8.6,3.1c0,0-5.5,1.9-10.6,0.2c-5.8-2-5,2.1-5,2.1l0.3,5.5c0,0-2.5,1-8.4,0
		c0,0-0.7,1.2,1,5.5l-2.5-3.9c0,0-1.9,4.5-8,5.9c0,0-6,3.4-0.4,10.8c4.9,6.6,12.7,25.9,6.2,30.3c0,0-5,2.5-12.2,12.5
		c-4.1,6.2-8.7,10.4-16.6,14.1c-4.3,1.4-8.9,3.1-13.5,5.1l-16.6,5c0,0-12,1.8-13.8,13.8c1.1,0.9,7.1,72.7,27.9,90.6
		c1.7,1.4,62.7,37.5,63.2,38.4c1.1-1.1,2.2-2.1,3.2-3.1c4.8-4.6,9.3-8.9,13.6-12.8c-1.6-5.5-2.2-12.9-0.1-22c1.5-6.5,4-17.3,6-30.1
		c4.8,10.4,10.8,21.3,18.6,32c2.4,3.3,4.9,6.5,7.5,9.8c1,1.2,1.9,2.4,2.8,3.6c-1.1,13.1-0.9,32,5.9,50.9c0.3,0.7,0.5,1.4,0.8,2.1
		c0.5,1.2,0.9,2.5,1.4,3.7L269.1,500z M184.7,232.8c0.3-0.2,0.6-0.1,0.9,0.1c0.8,0.3,1.5,0.8,2.2,1.3c1.5,1.1,3.1,2.4,3.8,4.2
		c0.5,1.4,0.3,3-0.2,4.5c-0.6,1.4-1.4,2.7-2.4,3.9c-0.2,0.3-0.6,0.5-0.8,0.2c1.1-1.2,1.9-2.6,2.3-4.2c0.4-1.6,0.4-3.3-0.4-4.8
		c-0.2-0.4-0.5-0.8-0.7-1.1c-1.2-1.5-2.8-2.7-4.7-3.3C184.4,233.5,184.4,233,184.7,232.8z M175.1,240c0.5-0.8,1.3-1.4,2.2-1.7
		c0.1,0,0.3-0.1,0.4-0.1l1.5-0.3l-0.8,1.4c-0.4,0.7-0.4,1.5-0.1,2.2c0.3,0.8,0.8,1.4,1.4,1.7l0.3,0.1c0.3,0.1,0.6,0.2,0.8,0.5
		c0.6,0.5,0.8,1.1,0.7,1.8c-0.2,0.7-0.8,1.1-1.7,1.1c-0.2,0-0.3,0-0.5,0l0,0c-0.9,0-1.8-0.3-2.5-0.7c-1-0.6-1.9-1.5-2.2-2.6
		C174.3,242.4,174.5,241.1,175.1,240z M220.3,403.6C220.2,403.9,220.1,403.9,220.3,403.6L220.3,403.6z"/>
	<path id="arm_2_" fill="#16C2EA" d="M222.6,496.3c-0.3-0.7-0.5-1.4-0.8-2.1c-5.1-14.1-6.5-28.3-6.4-40.1c0-3.9,0.2-7.5,0.5-10.8
		c-0.9-1.2-1.9-2.4-2.8-3.6c-2.7-3.2-5.2-6.5-7.5-9.8c-7.7-10.7-13.8-21.6-18.6-32c-2,12.9-4.6,23.7-6,30.1c-0.5,2-0.8,4-1,5.9
		c-0.7,6.4-0.1,11.8,1.1,16.1l0,0c-4.3,3.9-8.9,8.2-13.6,12.8c-1.1,1-2.1,2.1-3.2,3.1c-0.4-0.9-2.1-9.9-19.6-27.2
		c-7.7-7.6-18.4-16.8-33.5-27.6c-2-1.5-3.9-2.9-5.5-4.3c-20.8-17.9-15.4-34.7-8.8-44.4c1.8-2.6,2.2-5.9,4.2-8.4
		c1.2-1.5,4.9-5.4,4.1-7.3c-2.7-6.5-10.6,6.8-12.4,8.3c-2.4,2.1-4.7,2.3-6.6-0.1c-2.2-2.8-3.9-6.2-6.2-9c-1.4-1.7-3.3-3.1-4.5-4.9
		c-0.7-1-1.1-3.2-2.2-4.1l0,0c-0.2-0.2-0.5-0.3-0.8-0.4c-0.9-0.2-2.6,0.7-3,1.7c-0.4,0.9,0.3,1.7,0.4,2.5c-1.5-0.4-1.1-2.5-2.8-2.7
		c-2.6-0.4-2.9,4.1-1.9,6.1c-2.5-0.6-2.8-0.7-2.9,2.5c0,0.8,2.2,6.7,0.6,6.3c0,0-0.1-2.7-1.7-2.1c-1.6,0.7-1.6,3.5-1.3,4.6
		c1.2,6.2,1.6,12.4,4.5,17.9c0.8,1.6,1.4,3.1,2.8,4.2c1.2,1,7,10,7.2,9.9c0,0,8,23.5,12.3,37.2c0.6,1.8,1.2,4.4,2.1,7.5v0.1
		c0,0,0,0,0-0.1c0.4,1.4,0.8,3,1.3,4.7c2.2,7.5,5.4,17.1,10.2,27.4c3.9,8.3,9,17,15.5,25.2c1.5,1.9,3.1,3.7,4.7,5.5
		c0.2,0.2,0.3,0.4,0.5,0.5c0.2,0.2,0.5,0.5,0.7,0.7c0.4,0.4,0.8,0.9,1.2,1.3c0.8,0.8,1.5,1.5,2.3,2.3H224
		C223.5,498.8,223.1,497.6,222.6,496.3z"/>
</g>
</svg>
