<svg xmlns="http://www.w3.org/2000/svg" viewBox="0 0 456 642"><path fill="none" d="M178.4 342.8h.3c0-.1.1-.1.1-.2l-.4.2zM297.9 274.5c-3 8.4-4.6 19.3-4.8 29.6 2.2-8.6 4.5-15.6 6.6-18.6 0 0-.8-4.7-1.8-11zM182.2 105.3c.7-.2 1.4-.5 2.1-.8 0-.7 0-1.3-.1-2h-.1c-.8.7-1.4 2.3-1.9 2.8z"/><path d="M230.2 94.8c.3-.1.6-.1.8-.2h-.4c-.1 0-.2.1-.4.2zM237.5 145.2c-1.2.1-2.3.2-3.5.4 2.5 6.3 4.7 13.4 6.1 20.9 6.7-3.9 11.3-7 14.1-9.8-2.4-6.8-7-12.1-16.7-11.5z"/><path fill="#F05730" d="M224.6 407.9c1.7-.4 3.5-1.2 5.2-2.5 1.5-1.1 3.3-2.4 5.4-3.7-3 .7-4.9 1.5-7.8 3.8-.6.6-1.7 1.5-2.8 2.4zM298.2 372.9s-10.5 21.1-12.5 26.6c-.1.2-.1.3-.2.5v.1c-.9 2.3-3.1 5.3-4.1 6.4l-.3.3c5.6 4.8 11.5 11.4 17.6 20.4 18.8-22.2 19.1-49.5 10.5-76.7-3.2 6.7-6.8 14.1-11 22.4z"/><path fill="#2FC4F1" d="M200.5 309.7c-9 9.9-15.5 20.7-19.3 27.9-1.1 2-1.9 3.7-2.5 5 0 .1-.1.1-.1.2h-.3c-17.5 2.1-34.1 7.3-48 13-.7.3-1.3.6-2 .8-1.7.7-3.4 1.5-5.1 2.2-18.7 8.4-31.4 17.1-33 18.7-4.7 4.9-14.5 8.1-14.5 8.1-53.5 27.4-37.6 40.8-20.1 46.8 16.6-3.2 37.5-4.5 60.7.4 0 0 15-.7 21.7-10.7 6.7-10 26.7-50.6 70.6-19.2 0 0 2.4 2.3 6 3.9-.6-6.3-3.1-33-8.2-64.5-1.7-10.5-3.7-21.6-5.9-32.6zM179.3 257l5.4 2.5s.7-.6 1.8-2.1c4.4-6.1 14.8-26.5 8.8-76.5l-7.1-34.6c.9-1.2 2.1-2.2 3-3.4 4.2-5.5 1.2-10.4-1.2-16-.6-1.4-3-5.9-2.3-7.4.5-1.1 3.1-1.6 4.1-1.3 1.7.6 2.1 3.1 3.8 3.9 1.6.8 2.6.3 1.9-1.3-.5-1.2-1.6-2.2-2.3-3.3-.5-.8-.8-2.1-1.5-2.8-1.6-1.7-4.9-.8-7.1-.9 1.2-.6 2.8-2 4.1-2.3 1.6-.4 3.3.9 4.8 1.2 2.7.6 6.3 1.3 8.6-.6-1.9-1.9-5.5-1.7-7.6-3.5 1.8.1 4.7.6 6.1-.8 2-1.8-.6-2.1-2.2-2.4-3.5-.8-6.8-2-10.3-2.6-2.2-.3-3.8.7-5.7 1.6-.7.3-1.3.6-2.1.8.6-.5 1.2-2.1 1.9-2.7h.1c1.2-.9 3.2-.8 4.7-1.6 1.9-.9 4.4-2.1 4.8-4.4-.9-.3-2.1-.2-1.9.1-1.6.2-3.1 1.2-4.7 1.4-1 .2-2 .2-3 .4-.3.1-.6.1-.9.2-3.8 1.1-5.2 5.2-8 7.5-3.3 2.6-6 4.6-4.4 9.3 2.2 6.5 4.9 12.8 6.5 19.5.5 1.8.6 3.8 1.3 5.5v.1c.3 3.2 1 18-7 40.9-9.3 25.8-7.1 58.6 7.6 75.6z"/><path fill="#FFF" d="M131 484.8c-.4.3-.9.7-1.3 1.2v.4c.4-.6.9-1.2 1.3-1.6z"/><path fill="#F0572F" d="M137.5 273.3s-6.1-7.7-13.9 0c-7.8 7.7-8.3 17.7-6.7 25.4 0 0-14.3 28.2 6.3 60.1 1.6-.7 3.3-1.5 5.1-2.2-4.3-13.4-9.8-35.9-5.8-53.4 0 0-.8 28.1 7.8 52.6 14-5.7 30.6-10.9 48-13l.4-.2c.6-1.3 1.5-3 2.5-5-4.9-10.8-24.1-50.3-43.7-64.3z"/><path fill="none" d="M234.9 457.8c-7.8-6.7-19.6-.7-19.6-.7 11.8-3.3 19.6.7 19.6.7zM131 484.8c-.4.3-.9.7-1.3 1.2v.4c.4-.6.9-1.2 1.3-1.6z"/><path fill="#FFF" d="M124.4 497.4v-.2.2zM116.1 496c0-.5 0-.9-.1-1.3 0 .4-.1.7-.1 1.2 0 .1.1.1.2.1z"/><path fill="#F0572F" d="M137.9 500.6c.2.6.3 1.2.4 1.7.2 1.3.3 2.6-.6 3.9 1.7.3 3.4.3 5.1-.5.8-.4 1.5-.9 2-1.7 1.6-2.1 2-5.4-.7-6.9-.7-.4-1.5-.4-2.3-.3-.6.1-1.7 1-2.2.9-.3-.1-.8-.6-1.3-1.3-.4-.5-.9-1.1-1.2-1.6-.2-.2-.3-.4-.4-.6-.2 1 1 5.4 1.2 6.4z"/><path fill="#F0572F" d="M136 495.8c-.3-1.8-.7-3.5-.9-5.3-.2-1.8-.1-4-1.7-5.2-.9 0-1.6.2-2.1.5-1.7.8-1.9 2.7-1.6 4.7.1.9.4 1.8.6 2.7.5 1.6.9 3.3 1.1 4.9.4 3 .5 6 .2 8.9 1.5.3 2.8.5 4.1-.7.2-.2.4-.4.6-.7 2.2-2.8.2-6.7-.3-9.8zM130.1 500.8c0-1.7.3-3.5-.2-5.2-.4-1.7-1.6-3.1-1.7-4.8-.2-4.1-1.4-4.8-1.3-6.2-1.6-.6-2.8-.8-3.8-.3-.8.3-1.4 1.1-1.9 2.3-.1.2-.2.4-.2.7-.1.2-.1.5-.2.7l.8-.1c.2 1.4.8 2.8 1.2 3.8.6 1.8 1.4 3.6 1.5 5.5V497.5c0 2-.5 4-.7 6-.1.7-.2 1.3-.2 1.9v.6c.1.8.4 1.3 1.6 1.6 1.4.3 3.4.3 4.5-.8.1-.1.2-.3.3-.5.9-1.5.3-4 .3-5.5z"/><path fill="none" d="M234.9 457.8c-7.8-6.7-19.6-.7-19.6-.7 11.8-3.3 19.6.7 19.6.7zM234.9 457.8c-7.8-6.7-19.6-.7-19.6-.7 11.8-3.3 19.6.7 19.6.7zM307.8 487.6l.4-.4c-.1 0-.2-.1-.2-.1-.1.1-.1.3-.2.5zM321.9 495.4c0 .7.1 1.3.1 1.9.1-1.8.2-3.7 0-5.4-.1-.8-.3-1.6-.4-2.4-.1 2 .2 4 .3 5.9z"/><path fill="#F0572F" d="M309.1 487.7c.3-1 .4-1.8.4-2.1-.2.3-.7 1-1.3 1.6-.1.2-.3.3-.4.4-.6.6-1.1 1.1-1.4 1.2-.5.1-1.6-.9-2.1-1-.8-.2-1.6-.2-2.3.2-2.8 1.3-2.6 4.6-1.2 6.8.5.8 1.2 1.4 1.9 1.8 1.7.9 3.3 1 5 .8-.7-1.4-.6-2.6-.3-4 .1-.5.3-1.1.5-1.7.2-.6.8-2.5 1.2-4z"/><path fill="#F0572F" d="M316.1 484.8c1.4-3.6 2.1-7.6-2.6-8.1-1.8 1.1-1.8 3.3-2.1 5.1-.3 1.7-.9 3.5-1.2 5.2-.1.3-.2.7-.3 1-.8 2.9-2.4 6.1-.7 8.8.2.2.3.5.6.7 1.2 1.2 2.5 1.1 4 1-.1-2.9.2-5.9.8-8.9v-.2c.4-1.6.9-3.1 1.5-4.6z"/><path fill="#F0572F" d="M321.9 495.4c0-1.9-.4-4-.3-5.9v-.4c.2-1.8 1.1-3.6 1.8-5.4.4-1 1.1-2.4 1.4-3.7l.8.2c0-.2-.1-.5-.1-.7-.9-3.4-2.7-3.9-5.8-3 0 1.4-1.2 2-1.7 6.1-.2 1.7-1.4 3-2 4.7-.2.8-.3 1.6-.4 2.4-.1.9 0 1.9-.1 2.8-.1 1.5-.8 3.9-.1 5.4.1.2.2.3.3.5 1 1.2 3 1.3 4.4 1.1 1.2-.2 1.6-.7 1.7-1.5v-.6c.2-.6.1-1.3.1-2z"/><path fill="#F0572F" d="M443.7 457.3c-2.1-3.5-6-5.8-10.9-7.1-3.8-1.1-8.3-1.5-13-1.7-15.7-19.5-88.7-14.8-101.8-15.7-13.3-.9-19.4-5.7-19.4-5.7-6.1-9-12-15.6-17.6-20.4-5 4.9-13.9 4.1-20.1 2.6-5.7-1.4-13.2-7.3-19-5.4-3.4 1.1-5.7 3.2-7.6 6-.9 1.3-3.7 5.6-5.8 3.9-1.8-1.4 2.1-5.4 2.9-7 1.5-2.8 2-4 5.2-5.4-.5.1-.9.2-1.3.3-2.1 1.3-3.9 2.6-5.4 3.7-1.8 1.3-3.5 2.1-5.2 2.5-2.4 1.8-5.2 3.3-6.6.5l.4-.4c2.2-2.4 4.1-3.8 5.5-6.9 1.1-2.5 3-4.7 4.1-7.2 2.2-4.9 1.9-6.9 7.7-7.2 4.8-.3 9.8-2.8 14.4-1.2 5.3 1.7 18.3 10.2 23.5 5.8.6-1.5 9.5-26.1 10.7-39.6.7-7.9 3.6-25.1 7.1-40.2-26.4-45.5-66.1-82.6-66.1-82.6 16.7-20.6 18.4-43 14.8-62.4-1.4-7.5-3.6-14.6-6.1-20.9-2.7.4-5.3 1-8 1.4-1.9.2-6.6.3-7-3.2-.1-.6.1-6.5-1.4-7.2.5-.6 3-.4 2.8-2.4-1.2.3-3.2.5-3.8-.2 1-.8 1.5-4.6 1.2-5.5-2.2-.1-4.9-.6-4.9-.6 4.4-8.3 4.9-9.2 5.9-12.3-4.6-9.8-15-35.1-21.6-51.4-1.3-7.6-3.6-14.9-5.4-22.4-1.5-6.3-6.8-10.5-9.8-16.1-1.2-2.2-2.4-4.4-3.1-6.8-.7-2.4-.9-5.1-2.3-7.2-1.1-1.5-2.7-2.2-3.9-3.5-.7-.7-1-1.6-1.5-2.5-.9-1.6-3.5-4.9-4.9-1.7-1.2-1.5-5.7-3.4-5.8 0-1.6-1.2-3.1-2.3-4.1.1-1.3-.3-2.3-2.2-3.8-2.2-1.6 0-2.3 1.6-2.8 3-1.5-.2-2.8-1.2-4.3-1-2.4.4-3.5 3.3-2.8 5.3 1.2 3.4 4.5 4.8 6 7.9 1.4 2.9.8 5.5 3.2 8 2.5 2.5 5.8 4 8.3 6.5 3.5 3.5 6.3 8 8.8 12.2 1.7 2.7 3 5.5 4.1 8.4.8 2.1 1.3 4.7 2.4 6.6.8 1.4 2.1 2.2 3.1 3.3.8.9 1.5 2.3 2.2 2.9h.1c1.6 9.7 2.6 21.3 3.1 33.6 1-.2 2-.2 3-.4 1.6-.3 3.1-1.2 4.7-1.4-.3-.4 1-.5 1.9-.1-.3 2.3-2.9 3.5-4.8 4.4-1.4.7-3.4.6-4.7 1.6 0 .7 0 1.3.1 2 1.8-.9 3.5-2 5.7-1.6 3.5.6 6.9 1.8 10.3 2.6 1.6.4 4.2.6 2.2 2.4-1.4 1.3-4.4.9-6.1.8 2.1 1.8 5.8 1.6 7.6 3.5-2.3 1.9-6 1.2-8.6.6-1.5-.3-3.2-1.6-4.8-1.2-1.3.3-2.9 1.6-4.1 2.3 2.2.1 5.6-.8 7.1.9.7.7 1 1.9 1.5 2.8.7 1.1 1.8 2.2 2.3 3.3.7 1.6-.2 2.1-1.9 1.3-1.6-.8-2-3.2-3.8-3.9-1-.4-3.6.2-4.1 1.3-.6 1.5 1.7 6 2.3 7.4 2.4 5.6 5.4 10.5 1.2 16-.9 1.2-2.1 2.2-3 3.4l7.1 34.6c6 49.9-4.5 70.4-8.8 76.5 5.6 15.3 10.3 33.7 14.1 52.4 2.3 11 4.2 22.1 5.9 32.6 5 31.4 7.6 58.2 8.2 64.5-3.6-1.6-6-3.9-6-3.9-43.9-31.4-63.9 9.2-70.6 19.2-6.7 10-21.7 10.7-21.7 10.7-23.2-4.9-44-3.6-60.7-.4-24.4 4.8-39.7 13.8-39.7 13.8l-3.5 3.5c-2 1-3.6 2.2-4.8 3.8 0 0-.2.3-.5.9-1 .8-1.8 1.6-2.5 2.6 0 0-8.4 15.4-.6 28.7 0 0 28.1 11.4 46.8 4.2 13.2-5.1 31.8-4.8 44.5-3.2.2.7.4 1.3.6 1.9 1.2 3.1 3 6.5 5.2 9.1 2.1 2.5 3.1 5.7 5.2 8.3 1.6 2 3.1 2 5.5 2.2 2.3.1 4.2.3 6.5.8 2 .5 3.1.4 3.6-.8.1-.4.2-.9.2-1.6 0-1.9 0-4 .3-5.8.3-1.4.9-3 .6-4.5-.5-2.8-2.8-5.6-2.3-8.5-1.1-.7-2.2-.6-3.2 0-1.1.6-1.9 1.6-2.3 2.8-.1.4-.2.9-.2 1.3.1 1.2.5 2 .7 2.8.1.4.2.8.1 1.3 0 .2-.1.5-.1.7-.1.5-.2 1-.3 1.4-.2 1-.4 2.1-.4 3.2-.7-1.4-1.1-2.9-1.9-4.3-.6-1.1-1.4-1.8 0-2.8.4 1 .9 2.1 1.2 3.2 0-.6.1-1.1.2-1.5 0-.2 0-.4.1-.6 0-.4 0-.9-.1-1.4 0-.2-.1-.4-.1-.6-.3-1.4-.8-2.9-.1-4.3.3-.8 1.2-1.6 2.2-2.2 1.3-.8 2.9-1.2 4-.5.1-.5.1-1 .2-1.4.2-.9.6-1.6 1.6-2 .2-.1.3-.1.5-.2 1.4-.4 2.6-.3 3.7.3 1.4.8 2.2 2.3 2 4.3.2-.2.4-.4.5-.7.2-.3.4-.5.7-.8.4-.5.8-.9 1.3-1.2.6-.4 1.3-.6 2.2-.3.4.1.9.4 1.4.7.7.5.9 1.5 1.5 2.1 0 0 0 .1.1.1.4.4 1.1.6 1.6.9.4.3.7.6.9.9.5.8.8 1.7 1.2 2.7 1.2 2.4 3.3 3.7 5.9 4.1 1.7.3 2.5.1 2.5-1 0-.3 0-.6-.1-.9-.8-3.1-1.3-7.2-2.9-9.8-2.2-3.8-6.4-7.4-9.8-10.1-3.8-3.1-8.5-5.4-13.1-7.1-3.5-1.3-7.3-1.2-10.6-3-.6-.3-2.3-.8-4.2-1.3-2.1-.5-4.4-.9-6-1-7.4-1.1-19.5-2.9-24.4-3-3.8-.1-22.5-6-40.2-8.1 17.9 1.1 37.8 7 41.8 7.1 4.8.1 16.9 1.9 24.2 3 1.5.1 3.9.5 5.9 1 1.9.4 3.6.9 4.1 1.3 3.3 1.8 7 1.7 10.5 3 4.6 1.7 9.2 4 13 7.1 3.4 2.7 7.5 6.3 9.7 10.1.8 1.4 1.4 3.2 1.8 5.1 3.8.6 6 .9 6 .9l41-3.6 18.6 16.7 15.5-10.5 17.3-11.7s2.1-5.8 1.3-10.8c-.8-3.3-5.7-7.3-5.7-7.3.8.3 1.4.6 2 1-.9-1.9-3.7-8.4-3.3-11.5 0 0 1.5-8 .9-9.4-.6-1.5-2.6-2.8-6.5-1.1 0 0-3.1-1.1-3.7-2.2s-8.1-9.4-17.6-3.3c0 0-11.7 7.6-13.5 8.3-1.6.6-6.2 4.7-8.5 7.7v-.2c1.7-3 7.6-7.8 9.5-8.5 1.9-.7 13.3-8.7 13.3-8.7 10.5-5 16.7 2.9 17.2 4s3.1 2 3.1 2c3.9-1.7 6.9-.9 7.4.6s-.9 9.4-.9 9.4c-.4 2.8 1.7 9.2 2.7 12.1.2.7.4 1.2.5 1.4.1.1.3.2.4.3 6.2 4.3 2.8 16.4 2.8 16.4l-12.7 7.9 12.6 1.4c3.5-1.9 5.7-5.6 7.1-9.1l4.5-.4c9.3 4.1 23.6 3.9 38.5 1.8.8-2.7 1.6-5.8 3-7.9 2.4-3.7 6.8-7 10.4-9.4 4-2.8 8.8-4.8 13.4-6.2 3.6-1 7.3-.7 10.7-2.2.6-.3 2.3-.7 4.2-1 2.1-.3 4.4-.6 6-.6 7.4-.6 19.5-1.6 24.3-1.4 4 .2 24.2-4.4 42.2-4.3-17.8.9-36.8 5.6-40.6 5.4-4.9-.2-17.1.7-24.5 1.4-1.6-.1-3.9.2-6 .6-1.9.3-3.6.7-4.2 1-3.4 1.6-7.2 1.2-10.8 2.2-4.7 1.3-9.5 3.4-13.6 6.2-3.6 2.5-8 5.8-10.4 9.4-1.7 2.6-2.6 6.6-3.6 9.6-.1.4-.2.7-.2.9-.1 1 .7 1.3 2.4 1.1 1.8-.2 3.5-.8 4.7-1.9.5-.5 1-1.1 1.4-1.8.8-1.4 1-2.5 2.4-3.4.5-.3 1.2-.4 1.6-.8.6-.5.9-1.5 1.7-2 3-2 4.3.4 5.9 2.6-.2-3.4 2.8-5.4 6-4.2 1.9.7 2 2 2.1 3.8 1.9-1.2 5.3 1.3 5.9 3.1.2.6.2 1.1.2 1.7-.1.9-.4 1.7-.6 2.6-.1.2-.1.4-.2.6-.2.8-.2 1.4-.2 2 0 .4.1.9.1 1.5.4-1.1.9-2.1 1.4-3.1 1.2 1 .5 1.7-.2 2.8-.8 1.3-1.4 2.8-2.1 4.2.1-1.1 0-2.1-.2-3.2-.1-.5-.2-1-.2-1.5-.1-.8 0-1.4.1-2 .2-.6.5-1.2.7-2 .1-.2.1-.5.2-.8.3-2.6-2.7-5.9-5.4-4.4.3 3-2.1 5.5-2.8 8.3-.1.3-.1.6-.1.8-.1 1.2.3 2.5.4 3.7.2 1.8.1 3.9-.1 5.8 0 .7 0 1.2.1 1.6.3 1.2 1.4 1.4 3.5 1 2.3-.4 4.2-.4 6.5-.4s3.9.1 5.6-1.8c2.2-2.4 3.4-5.6 5.7-7.9 2.3-2.4 4.4-5.6 5.8-8.7.3-.6.5-1.2.7-1.8 12.8-.7 31.4.2 44.2 6.2 18.2 8.5 47-1 47-1 8.7-13.3 1.4-29.3 1.4-29.3zm-208.8.5s-7.8-4.1-19.6-.7c0 0 11.8-5.9 19.6.7z"/><g><path d="M234.9 457.8c-7.8-6.7-19.6-.7-19.6-.7 11.8-3.3 19.6.7 19.6.7z"/></g><g><path d="M241.9 461.9s4.9 4 5.7 7.3v.1s0-3.2-2.6-5.6c-.1-.1-.2-.2-.4-.3-.2-.2-.5-.4-.7-.5-.6-.4-1.2-.7-2-1z"/></g><g><path fill="none" d="M293.1 304.1c2.2-8.6 4.5-15.6 6.6-18.6 0 0-.8-4.6-1.8-10.9-3 8.3-4.6 19.2-4.8 29.5z"/><path fill="#2FC4F1" d="M418.6 392.5s-9.9-3.5-14.5-8.7c-3-3.4-45.4-33.4-93-37.8 16.2-36.7 16.1-51.2 16.1-51.2s-.8-14.2-1.8-22.2 1.2-38.1 1.2-38.1c8-32.1 4.2-48.7-1-57.3-3.5-6.2-9.6-9.5-15.6-11.4-2.7-.9-5.4-1.5-7.8-1.9-.4 0-.9-.1-1.5-.1-6.5-.5-20.3 10.7-31.1 7.2-6.6-2.1-12.1-9.9-13.9-29.4-1.1-12-3.2-23.4-8.5-34.3-1.7-3.5-4-6.7-7-9.2-3-2.5-5.6-3.5-9.2-3.7-.3.1-.6.1-.8.2-2.3 1.3-1.7 4.9-.2 6.8-2.1.3-4.6-1.1-5.9-3.1-1.7 2-2.6 4.6-3.1 7.2-.2 1-.3 1.8-.4 2.5-.3 1.7-.4 3.1-1.2 5.3-.3.8-.5 1.5-.7 2-1 3.1-1.5 4.1-5.9 12.3 0 0 2.7.5 4.9.6.3.9-.2 4.7-1.2 5.5.6.7 2.6.5 3.8.2.1 2.1-2.4 1.8-2.8 2.4 1.5.7 1.3 6.7 1.4 7.2.4 3.4 5.1 3.4 7 3.2 2.7-.3 5.3-1 8-1.4 1.2-.2 2.3-.3 3.5-.4 9.7-.5 14.3 4.7 16.7 11.5-2.8 2.9-7.4 6-14.1 9.8 3.6 19.3 1.9 41.8-14.8 62.4 0 0 39.6 37.1 66.1 82.6-3.5 15.1-6.4 32.3-7.1 40.2-1.2 13.6-10.1 38.1-10.7 39.6-5.2 4.3-18.2-4.1-23.5-5.8-4.6-1.5-9.6.9-14.4 1.2-5.8.4-5.4 2.3-7.7 7.2-1.1 2.4-3 4.7-4.1 7.2-1.4 3.1-3.3 4.6-5.5 6.9l-.4.4c1.3 2.8 4.2 1.3 6.6-.5 1.2-.9 2.2-1.9 2.9-2.4 2.8-2.3 4.7-3.1 7.8-3.8.4-.1.8-.2 1.3-.3-3.1 1.5-3.7 2.6-5.2 5.4-.8 1.5-4.7 5.5-2.9 7 2.1 1.7 4.9-2.7 5.8-3.9 1.9-2.7 4.3-4.9 7.6-6 5.9-1.9 13.4 4 19 5.4 6.2 1.5 15.1 2.3 20.1-2.6l.3-.3c1-1.1 3.2-4.1 4.1-6.4v-.1c.1-.2.1-.3.2-.5 2.1-5.5 12.5-26.6 12.5-26.6 4.2-8.2 7.8-15.7 10.9-22.5 8.6 27.2 8.3 54.5-10.5 76.7 0 0 6.1 4.8 19.4 5.7 13 .9 86.1-3.8 101.8 15.7 4.7.1 9.2.6 13 1.7 19.2-7 45.2-24.7-14-57.3zM263.3 225.6c-2.3 0-4.2-1.9-4.2-4.2 0-2.3 1.9-4.2 4.2-4.2s4.2 1.9 4.2 4.2c0 2.3-1.9 4.2-4.2 4.2z"/></g><g><path d="M290.6 97.4c-15-33.9-58.9-15.5-58.9-15.5s-8.4-2.9-14.1 7.1c-5.7 9.9 2.9 18.9 2.9 18.9l.2.2c.1-.7.2-1.5.4-2.5.5-2.5 1.4-5.1 3.1-7.2 1.3 2 3.8 3.4 5.9 3.1-1.6-1.9-2.2-5.5.2-6.8.1-.1.3-.1.5-.2h.4c3.6.2 6.3 1.2 9.2 3.7 3 2.5 5.3 5.7 7 9.2 5.3 10.9 7.3 22.3 8.5 34.3 1.8 19.5 7.2 27.2 13.9 29.4 10.7 3.5 24.6-7.7 31.1-7.2.5 0 1 .1 1.5.1 2.4.5 5.1 1 7.8 1.9 5.6-38.5-19.6-68.5-19.6-68.5z"/></g><g><path d="M223.3 111.2c.8-1.4 2-2.5 3.5-3.3.3-.2.7-.3 1.1-.4 1.3-.4 2.7-.3 4 .1 1.2.4 2.3 1.2 3 2.1.3-.1.1-.4 0-.6-.8-.8-1.7-1.6-2.7-2.1s-2.3-.8-3.6-.5c-1.6.3-2.9 1.4-4.1 2.5-.5.5-1.1 1-1.5 1.6-.1.2-.3.5-.2.7 0 .1.4.2.5-.1z"/></g><path d="M231.5 114.1c-.4-.2-1-.1-1.5.2l-.5.5-.2.2c-.5.6-1.3.9-2.1.9-.6 0-1.1-.2-1.4-.4l-.8-.7-.1 1.1c-.1.7.1 1.5.7 2.1.6.7 1.6 1.1 2.5 1.1h.4c1.8-.2 3.4-1.7 3.7-3.4 0-.8-.2-1.4-.7-1.6zM124.1 559.2c.5 1.6.4 3.5-.5 4.9-1 1.5-2.8 2.2-4.3 3.2-4.6 3-7.1 9.5-3.8 14.2 2.9 4.2 8.2 6.4 12.7 8.1 4.9 1.8 9.9 3 15 3.9 8.3 1.4 17.8 2.2 25.7-1.1-3.1 2.5-13.1 10-10.2 20 17.5 60.1 225.7 15.3 178.9-43.5-4.6-5.8-10-10.4-16.4-13.5-3.1-1.5-7-2.7-9.7-5-3.7-3.3.9-6.3 4.2-6.9 3.7-.8 7.4-.5 10.9-2.2 3.2-1.6 5.9-4.2 7.5-7.4 1.6-3.1 1.8-6.8.2-10-1.7-3.4-5-6-8.2-7.9-7.4-4.5-15.8-5.5-24.3-6.1-4-.3-7.9-.1-11.9-.7-3.8-.5-7.6-1.5-11.2-2.9-7.3-2.8-13.2-7.5-17.5-13.9-4.7-7-11.7-12.6-19.4-16-6-2.7-13.7-4.6-20.3-3.2-3.4.7-5.4 2.6-7.4 5.4-1.8 2.6-3.5 4.5-6.9 4.5-3.8 0-7.1-1.6-9-4.9-1.8-3-2.3-6.8-1.9-10.2.4-3.3 1.8-6.7 4.4-8.9-4.5-.5-8 3.9-10.6 7-2.6 3.1-5.4 7.8-9.4 9.1-2.1.7-3.6 0-4-2.3-.2-1.3-.1-2.6-.1-3.9v-1.9c0-.8-.1-.9-1-.8-4.5.5-6.6 5.9-8.9 9-1.1 1.4-1.9 2.7-2.4 4.4-.6 2.2-.7 4.6-.8 6.9-.1 5 .4 10.1-.5 15-.3 1.8-.9 3.7-2.2 5.1-1.8 1.9-4.8 2.4-7.2 3-7.2 1.7-14.7 1.8-22.1 2.3-4.4.3-8.6-.1-13-.3-3.7-.2-7.6-.1-11.1 1.1-3.2 1.1-6.6 3.9-7.1 7.4-.6 3.9 3.4 5.3 6.1 6.8-4.5 1.2-9.2 1.9-13.3 4.4-3.4 2.1-6.4 5.2-7.6 9.1-3.1 10 11.1 11.7 17.8 12.1 2.5.2 18.9.7 20.8 6.6z"/></svg>