<svg xmlns="http://www.w3.org/2000/svg" viewBox="0 0 446.9 448"><path fill="none" d="M146.4 289.7c16.1 33.9 9 56-1.3 71.3-6.3 9.4-7.8 28.3-8.1 41.5 12.5-6.3 27.8-8.3 47.9 7.2 0 0-3.8-41.2-9.2-56.7 0 0-9.3-22.5-12.1-47.5-2.8-4.4-5-8.8-6.7-13-6.3-1.7-10.5-2.8-10.5-2.8z"/><path d="M307.5 103.9h.1c-.2-.4-.4-.8-.6-1.3.2.5.4.9.5 1.3z"/><path d="M352.7 90.3c-2.9-9.8-9.8-44.9-43-46.7-15.3-1.3-28.7 6.6-26.9 23.4 2-.6 2 12.8 1.8 24.2-.8 3-2.2 5.9-4 8.5-7.1 10.1-24.6 10.5-13.5 28.8 63.6-5.9 11 96.9 27.8 113.4.4.4.4 1.1.5 1.6l.3.6h.2c7.4-.2 14.4-5.4 17.6-11.9.8-1.5 1-3.4 1.1-5.4.2-6.8-2.5-15.3 2.1-18.7 2.5-1.9 6.1-1 9-1.5 4.4-.8 8.5-3.3 11.3-6.8 3.5-4.4 3.8-10.4 2.5-15.6-1.1-4.8-5.5-12.1-2-16.9 2.4-3.2 6-2.6 7.6-7.3 2.2-6.4.1-12.6-1.5-18.7-1.1-4.3-3.3-12.6-.6-16.6 1.9-2.8 5.4-3.7 7.6-6.5 5.5-6.8 4.5-19.9 2.1-27.9z"/><path fill="#84BFCC" d="M225.8 3.6c-.2.1-.5.2-.7.3.3 0 .6 0 .9.1 0-.2-.1-.3-.2-.4z"/><g fill="#10A7B5"><path d="M179.5 188.5h-.4c-2.7-1-4.9-2.4-6.4-3.6 4.6 14.6 5 35.4-4.3 44.5-3.8 3.7-8.3 9.7-11.6 17.5 9.4-.8 18.8-1.4 27.8-1.8 19.2-.8 36.9-.7 50.1-.4.7-1.9 1.3-3.5 1.8-4.8.1-.4.3-.7.4-1 3-7 4.2-16.1 4.9-24-11.3-.9-31.5-6-62.3-26.4zM111.8 420.7s3.1-1.6 4.7-4.4c-.8.6-1.6 1.1-2.4 1.6-7.8 4.9-21.3 8-32.8 9.8-.2-.3-.3-.6-.6-.9l-2.5-3.5c-2.8-4-8.4-5-12.4-2.1l-7.8 5.6c-.9.6-1.5 1.3-2 1.9-9.1-1.1-18.5-2.2-20.2-2.2-19.6.6-26.7 14.7-26.7 14.7-8.4-.6-9.1 6.9-9.1 6.9h76.1c-3.4-.3-6.9-1.6-7.6-5.5 0 0-.2-1.7 3.1-1.7h5s2.3-.7 2.9-1.4c.6-.7 2.5-1 7.5-2.7s16.5-10.4 24.8-16.1z"/><path d="M162.8 294.1c-2.1-.6-4.1-1.1-5.9-1.6 1.7 4.2 3.9 8.5 6.7 13 2.8 25.1 12.1 47.5 12.1 47.5 5.4 15.5 9.2 56.7 9.2 56.7-20.1-15.5-35.4-13.5-47.9-7.2-.1 6 .1 10.9.2 13.1h.1s.2 9.2 1.6 14.7c1.4 5.8 3.4 13.3 2.2 17.4H82.6s-1.2.3-2.9.4l156.8-.1 1-134.3c-17-2.4-30.5-6.6-30.5-6.6-10.2-3.5-30-9.1-44.2-13z"/></g><path fill="#10A7B5" d="M323.4 136.4c-.6-2-.1-4.4-.2-6.5-.1-2-.3-3.3-1-5.1-.7-1.7-1.2-3.5-1.7-5.3-.5-1.5-1.5-2.6-2.2-4-.6-1.1-.8-2.6-1.2-3.7-.2.1-.3.1-.5.2-1.5.5-3.1 1.2-3.2 2.8-.1 2.2.7 3.3 1.6 5.3.6 1.5.8 3.3 1.3 4.9.9 2.9.5 4.8.2 7.7-.1 1.2-.2 2.4-.4 3.6-.2 1.1-.5 1.5-1.4 2.4-1.1 1.2-1.4 1.7-2.9 1.3-2.9-.8-1.3-3.5-1.1-5.7.1-1.2-.1-2.8-.6-3.8-.4-.9-1-2.3-1.7-3-1-.9-3.9-1.4-4.7.1-.3.5 0 1.5.1 2.1.1 1.3.3 2.7.4 4 .3 2.8-.4 5.2-1.2 7.8-.7 2.6-1.3 5.3-1 8 .1 1.1.2 2.1.5 3.2.3.8.7 1.6.6 2.6 0 .2 0 .4-.1.6-1.7 1-4.5 2.3-7.7 3.7-10 4.2-24.4 8.9-24.4 8.9-22.6-2.1-35.3.6-35.3.6-2.1-.5-4.2-6.3-4.2-6.3 3.7-29.9-23.6-46.7-23.6-46.7 8-19.9-3.1-36.1-8.7-42.2 3.6 2.5 20.5 20.1 11.1 42.4 0 0 27.3 16.1 23.6 44.7 0 0 2.1 5.5 4.2 6 0 0 2.7-.5 7.9-.8-2.3-8.7-2.3-20.8 3.5-27.2 1.3-8.3-1-14.7-1-15.9 0-.3.5-1.4.9-3.1.5-2.7-.4-4-2.2-5.8-1.2-1.2-5.3-3.4-3.2-5.4 1.2.5 2.6 1 3.8 1.6-.5-.6-1-1.1-1.6-1.8-1.6-1.5-6.8-4.1-4-6.5 1.5.6 3.3 1.1 4.7 1.9-1.3-1.4-5.5-3.8-3.3-6 .6.3 1.2.5 1.8.8-.4-.9-.9-1.8-1.5-2.7-4.4-7.8-11.9-17.3-24.2-28.7 3.8-7.2 8.1-5.5 8.1-5.5s2.7 4.7 5.8 5.2c3.1.6 4.8-2.9 4.8-2.9 0-.6.3-2.2.3-2.2 3.1-.5 1.5-4.7 1.5-4.7l2.8 1.1 1.7-5 6.4 4.1c4.2-7 6.5-13.1 7.6-18.4.8-4 .9-7.5.6-10.5-.6-.1-1.1-.2-1.6-.4-2.3-1.1-3.3-3.3-4.8-5.2-1.5-1.9-3.6-2.8-5.7-4-.4 1.3-.4 2.8.2 3.9-1.5-.3-2.8-.7-4-1.6-1.2 3.6-1.9 5.9-4.7 8.6-2.1 2.1-4.8 4.3-5.8 7.2-.4-1.7-.8-3.5-.6-5.3.1-1.8 1-3.2.4-5.1-.9-2.9-3.2-4-5.8-2.1-2.7 1.9-1.9 5.3-4.2 7-3.3 2.6-15.2 3.6-16.9-.8-4.1 4.6-9.8 9.4-15.1 13.4-7.5 4.2-25.4 14.4-31.1 19.1-7.3 6-16.3 24.5-16.3 56.1 0 17.5 5.8 29 12.3 38.2 1.9.6 3.5 3.4 4.7 4.8 1.6 1.8 4.6 2.8 6.8 3.8 2 .9 5.5 3.1 7.8 2.4 1.6-.5.3-3.1-.2-4.4-.6-1.6-1.8-2.3-1.8-4.3 0-.5.1-1.5.7-1.8.1 0 .2-.1.2-.1 2.5 5 5.1 9.5 7.8 13.6v.2c.1 1.2.7 2.3 1.1 3.4.6 1.6.3 2.9.1 4.2.8.5 3.4 2.1 7.3 3.2 18.6 20.9 37.8 24.2 37.8 24.2 5.2-.8 10.2-1.8 14.9-3 39.6-9.7 61.9-30.7 68.2-37.4.1-.1.2-.1.3-.2 2.8-1.6 3.9-4.8 5.3-7.5.2-.4.4-.9.6-1.3 1.2-2.8 2.2-5.8 3.9-8.2 1.6-2.2 3.7-5.4 4-8.2 0-1.6-1.2-3.1-1.6-4.6zM443.4 439.7h-5.7s-2.6-.8-3.3-1.6-2.8-1.2-8.5-3.2-18.5-12.2-27.9-18.8c0 0-5.8-3-6.2-8.2h-.2c.8-31.7 3.9-154.1 3.9-154.1l1.8-16.5-13.4-3.4c-22.5-4.3-47.2-6.3-69.4-7.1 0 2-.3 3.8-1.1 5.4-3.2 6.5-10.2 11.7-17.6 11.9h-.2c9.7 21.5 11.7 36.9 8.7 47.7 18.5-6.2 49.7-7.8 49.7-7.8-16.4 36.8-5 57.9 5.6 74.6 7.5 11.9 9.4 37.6 9.8 51.5 0 .5 0 1.4.1 2.1.2 1.7.4 4.3.2 7.1-.2 2.9-.8 5.9-2.3 8-.9 1.3-1.6 2.8-2.1 4.4-1.7 5.5-1.5 12.2-.4 15.9H431s14.5 3.2 15.9-6c0 .1.2-1.9-3.5-1.9z"/><g fill="#FBD206"><path d="M365 447.7c-1.1-3.7-1.3-10.4.4-15.9-8-1-15.5-2.9-20.3-6.4-14.9-11-44-23-72-7.7 0 0 12.1-48.5 18-65.7 0 0 7.8-25.2 8.3-50.2 2.2-2.8 4-6.1 5.1-10 3-10.8 1-26.1-8.7-47.7l-.3-.6c-.2-.5-.4-1.1-.5-1.6-2.9-8.6-4.2-37.6 13.6-64.7 4.1-6.2 6.7-13 8.4-19.7-.2.4-.4.9-.6 1.3-1.3 2.8-2.5 5.9-5.3 7.5-.1.1-.2.1-.3.2-6.3 6.7-28.6 27.7-68.2 37.4-4.7 1.2-9.7 2.2-14.9 3 0 0-19.2-3.3-37.8-24.2-3.8-1.1-6.5-2.7-7.3-3.2.2-1.4.5-2.6-.1-4.2-.4-1.1-1-2.3-1.1-3.4v-.2c-2.7-4.1-5.3-8.6-7.8-13.6-.1 0-.1 0-.2.1-.5.3-.6 1.3-.7 1.8-.1 1.9 1.2 2.7 1.8 4.3.5 1.3 1.8 3.9.2 4.4-2.3.7-5.8-1.5-7.8-2.4-2.2-1-5.2-2-6.8-3.8-1.2-1.4-2.8-4.1-4.7-4.8-.5-.2-.9-.2-1.4 0 0 1.4 1.7 3.4 2.4 4.7.7 1.4 1.6 3.4 2.8 4.4.8.6 1.7.8 2.4 1.7.7.9 1.2 2 1.9 2.9l1.8 2.7c.6 1 .7 1.7 1.2 2.7 1.1 2.2 3.2 4.8 4.8 6.7.4.4 1 1 1.7 1.6 1.5 1.2 3.7 2.6 6.4 3.6h.4c30.7 20.4 51 25.6 62.3 26.4-.7 7.9-1.9 17-4.9 24-.1.3-.3.6-.4 1-.5 1.3-1.1 2.9-1.8 4.8-13.2-.3-30.9-.4-50.1.4-9 .4-18.4 1-27.8 1.8-11.6 1-23.2 2.5-34.3 4.5-14.8 0-11.4 18.2-11.4 18.2s5.3 119.7 6.3 144.2c-.1 1-.4 1.9-.8 2.6-1.5 2.8-4.7 4.4-4.7 4.4-8.3 5.7-19.7 14.4-24.7 16.1s-6.9 2-7.5 2.7c-.6.7-2.9 1.4-2.9 1.4h-5c-3.3 0-3.1 1.7-3.1 1.7.6 4 4.2 5.2 7.6 5.5 1.3.1 2.5.1 3.6 0 1.7-.1 2.9 0 2.9 0l58.5.1c1.3-4.1-.8-12.1-2.2-17.9-1.3-5.5-1.6-14.7-1.6-14.7h-.1c-.1-2.3-.3-7.1-.2-13.1.2-13.2 1.7-32.1 8.1-41.5 10.4-15.4 17.4-37.5 1.3-71.3 0 0 4.2 1.1 10.5 2.8 1.8.5 3.8 1 5.9 1.6 14.2 3.9 34 9.4 44.3 13 0 0 13.5 4.2 30.5 6.6l-1 134.3c26.8-.3 124.8-.6 127.9-.6M271.7 166.9s13.9-3.7 23.5-7.3c3.2-1.4 6-2.6 7.7-3.7 0-.2.1-.5.1-.6.1-.9-.3-1.7-.6-2.6-.3-1-.4-2.1-.5-3.2-.2-2.7.3-5.4 1-8 .8-2.7 1.5-5 1.2-7.8-.2-1.3-.3-2.7-.4-4-.1-.6-.3-1.6-.1-2.1.8-1.5 3.7-1 4.7-.1.7.7 1.3 2.1 1.7 3 .5 1 .7 2.6.6 3.8-.2 2.3-1.8 5 1.1 5.7 1.5.4 1.8-.1 2.9-1.3.8-.9 1.2-1.3 1.4-2.4.2-1.2.3-2.4.4-3.6.3-2.9.8-4.8-.2-7.7-.5-1.6-.7-3.5-1.3-4.9-.8-2-1.7-3.1-1.6-5.3.1-1.6 1.7-2.3 3.2-2.8-.7-1.6-2.2-4.2-5.1-6.2-1.1-.8-2.3-1.4-3.8-1.9h-.1c-.2-.4-.4-.8-.5-1.2-.7-1.5-1.2-3-1.6-4.5-1-3.5-1.4-7.2-1.1-10.8 0-.5.1-1.3.4-2.6 2.5.2 6.2.2 8-1.9 1.1-1.3 1.3-4.2-.3-5.3-2.3-1.5-4 1.3-6.2 1 3.3-3.3 4.2-8.8 2.3-13.1-2-4.5-5.2-7.4-4.9-12.8 0-.3.1-.7.1-1-2.1.7-4 2-5.6 3.5-2.1 2.1-3.9 4.5-6.1 6.5-2.6 2.4-5.8 4.2-9.2 5.3-1.4.4-2.9.8-4.4.9 1.3 1.1 2.8 2.1 4.3 2.9-.3.8-1.9 2.5-3 2.6 0 .8 1.4 1.7 2.3 2.1-.6.2-2.5.1-3.1.3.5 1.3.5 3.5-.1 4.7-.2.5-.6.9-1 1.2-1 1-2.6 2-1.1 3.3 1.2 1 2.5 1.8 3.8 2.6 1.9 1.2 2.9 2.1 4.3 3.2.6.5 1.2 1 2 1.6 4.4 3.2 4.5 8.5 2.9 13.9-1.3 1.5-11.8 13.9-22.6 22.2-4.1 3.1-8.2 5.7-11.8 6.8-2.4.7-4.4 2-5.9 3.7-5.8 6.4-5.8 18.5-3.5 27.2 5.6-.3 14.2-.4 25.8.7z"/></g><path fill="#FBD206" d="M250.8 113.9c1.4-1.7 2.3-3.8.2-5.5 1-1.5 1.4-3.3-.3-4.7l-1.4-1.8c.2-.8.1-1.5-.7-2.2l-1.8-2.3c-.9-.7-2.1-1-3.1-1.5l-.1.1 1.5 2.7c-.6-.2-1.2-.5-1.8-.8-2.2 2.2 1.9 4.7 3.3 6-1.5-.8-3.2-1.2-4.7-1.9-2.8 2.4 2.5 5.1 4 6.5.7.6 1.2 1.2 1.6 1.8-1.2-.7-2.6-1.1-3.8-1.6-2.2 2 1.9 4.2 3.2 5.4 1.8 1.8 2.7 3.2 2.2 5.8 1.9-1.3 4.2-4.1 1.7-6z"/><path d="M222.5 31.6c2.3-1.8 1.5-5.1 4.2-7 2.6-1.9 4.9-.8 5.8 2.1.6 1.9-.2 3.3-.4 5.1-.1 1.8.2 3.6.6 5.3.9-2.9 3.7-5.1 5.8-7.2 2.7-2.7 3.5-5 4.7-8.6 1.3.9 2.5 1.3 4 1.6-.7-1.2-.6-2.7-.2-3.9 2 1.2 4.1 2.2 5.7 4 1.5 1.8 2.6 4.1 4.8 5.2.5.2 1 .4 1.6.4 3.3.4 7.6-1.5 4.6-5.3 1.4-1.3 1.7-3.8 1.1-5.5-.5 1-1.4 1.8-2.5 1.9.3-1.6.3-3.8-.9-4.9-.3.8-1 1.3-1.9 1.4.3-.8.2-1.5.2-2.4-2.7.9-5.2-1.5-6.8-3.5-2.5-3-5-4.3-8.6-6.2.8-.2 1.7-.5 2.5-.6-2.9-3-12.4-3.1-16.3-2 .3-.5.2-1.1.6-1.6-1.8-.2-1.5 1.4-2.5 1.7-1.4.5-2.7-.8-4.2.2.6.4 1.1 1 1.4 1.6.1.1.1.2.2.4-.3 0-.6-.1-.9-.1-5.6 0-9.1 8.4-11.1 12.4-1.7 3.3-3.2 6.6-5.9 9.1-1.2 1.1-2.4 4-2.6 5.2 0 .1 0 .1.1.1 1.7 4.7 13.6 3.7 16.9 1.1zM251.4 42.9c.5.6 1 1.2 1.7 1.4-.2-1.8-1.8-3.7-3.6-5.2-1.3-1.1-3.1-2.2-4.4-1.9-.7.1-1.2.7-.9 1.4 2.6.5 5.4 2.1 7.2 4.3zM248.5 44.2c-1.1-.7-2.8-1-3.3-.5 1.3.2 1.6 2.9 3.2 2.1.1-.1.1.3.2.5s.3.3.6.4c.3.1.5 0 .6-.2.4-.5-.1-1.5-1.3-2.3zM295.4 62.9c1 .1 2.1.5 2.8 1.2.2.2.4.4.6.7.7 1 1.1 2.3 1.1 3.5 0 .2.3.3.5.1.1-.1.2-.4.1-.6 0-.5-.2-1.1-.4-1.6-.4-1.2-.9-2.4-1.9-3.2-.8-.6-1.8-.8-2.7-.8s-1.9.3-2.8.6c-.2.1-.4.3-.3.4.9-.3 1.9-.4 3-.3zM293.2 68.4c.2.1.7-.2.7 0-.3 2.2 3 1.5 3.9 2.9.5-.8-.6-2.7-1.9-3.7-1.4-1.1-2.8-1.2-3.3-.5-.1.2-.2.4 0 .8 0 .3.3.4.6.5z"/></svg>